<?xml version="1.0" encoding="UTF-8" standalone="no"?>
<svg width="130px" height="262px" viewBox="0 0 130 262" version="1.1" xmlns="http://www.w3.org/2000/svg" xmlns:xlink="http://www.w3.org/1999/xlink">
    <!-- Generator: Sketch 40 (33762) - http://www.bohemiancoding.com/sketch -->
    <title>TNR-N</title>
    <desc>Created with Sketch.</desc>
    <defs>
        <polygon id="path-1" points="8.47958305 0.483137615 0.479497688 0.483137615 0.479497688 13.9590354 8.47958305 13.9590354 8.47958305 0.483137615"></polygon>
    </defs>
    <g id="Page-1" stroke="none" stroke-width="1" fill="none" fill-rule="evenodd">
        <g id="Desktop---Section-1-to-Ending" transform="translate(-791.000000, -776.000000)">
            <g id="TNR-N" transform="translate(791.000000, 776.000000)">
                <path d="M79.0986196,29.071504 C84.287454,29.63877 89.0153067,30.6907761 90.961319,34.39403 C94.8054908,41.7067945 92.5253067,52.5329229 95.1994785,60.7158159 C97.919908,69.0397242 106.189663,78.0326538 106.669785,86.650611 C106.940153,91.5092287 104.263589,96.014507 103.439724,100.809828 C101.537577,111.879528 109.611135,123.122293 106.817331,133.9997 C105.905736,137.547516 103.902301,140.691516 102.134141,143.896409 C95.7992331,155.377137 92.3027914,168.397015 91.8649387,181.507431 C91.395184,195.538452 95.5424233,204.710054 104.895245,215.150794 C100.258313,219.101626 94.1395399,221.252109 88.0622393,221.067828 C85.3338344,220.984501 82.6078221,220.450886 79.8921779,220.723302 C77.1757362,220.994917 74.3332822,222.294501 73.2103374,224.792715 C67.8364724,236.746966 102.470706,255.699902 76.2266564,260.705944 C58.5418712,264.079895 43.1053681,256.989871 40.8068405,238.205192 C39.5180061,227.669106 39.386411,216.544923 34.177638,207.309223 C30.7553681,201.239957 25.2945706,196.330862 22.936227,189.770446 C19.2635276,179.551645 23.993773,168.109376 22.1307055,157.408238 C20.682362,149.086733 15.3260429,141.734709 14.5508282,133.322666 C14.1528528,128.996862 15.0022393,124.650226 16.1594785,120.464635 C19.3831595,108.802831 25.6869632,98.1665927 29.7943252,86.8108557 C31.6805215,81.5948924 33.5021166,77.6064031 32.5705828,71.9281339 C31.655,66.3404031 28.8292945,61.2310024 28.6530368,55.4806232 C28.4879448,50.0627517 30.762546,44.8900544 33.2373313,40.0739015 C37.2601534,32.2475529 44.8049387,16.323241 56.7258589,21.1089474 C59.1607669,22.0864398 60.8555521,24.3034245 63.0017485,25.8161339 C66.6784356,28.4080911 73.1872086,28.4249168 79.0986196,29.071504" id="Fill-1" fill-opacity="0.1" fill="#000000"></path>
                <path d="M12.1061902,146.915498 C10.0907914,147.642208 8.38404294,147.901003 6.61030061,149.341602 C4.98171166,150.664422 3.66257055,152.371829 2.73502454,154.254703 C1.02827607,157.719193 0.571282209,161.694862 0.793,165.553554 C1.13036196,171.412098 4.46330675,176.710587 7.77232515,181.348067 C8.51563804,182.389657 9.49103681,183.198893 10.2574785,184.169976 C11.5040429,185.750789 12.658092,187.176966 14.0992577,188.628783 C16.0412822,190.584569 18.0120184,192.562789 20.3847178,193.959321 C22.1504847,194.998508 24.1164356,195.688361 26.1398098,195.992826 C28.1464356,196.295688 30.007908,195.847804 31.9866196,196.246012" id="Fill-3" fill="#FFF000"></path>
                <path d="M85.7663436,132.032937 C85.9489816,123.922154 85.825362,115.728845 84.058,107.825579 C80.6875706,92.7553713 71.6888589,79.7771572 62.6590429,67.7796404 C51.7246871,53.2518606 48.1923558,76.2902336 44.9120491,83.5156648 C44.0403313,85.4361969 42.916589,87.2213223 41.9619264,89.0993896 C35.0256687,102.750631 32.941681,116.581347 36.2299632,131.764527 C36.3575706,132.354228 36.4891656,132.947934 36.6199632,133.540038 C38.046773,134.534356 39.3922331,135.656069 40.6284294,136.89476 C39.3922331,135.656069 38.046773,134.534356 36.6199632,133.540038 C38.0675092,140.125292 40.5997178,146.34038 41.453092,153.035402 C41.5958528,154.153909 41.6333374,155.320491 41.5200859,156.455023 C55.422908,160.856943 70.372908,161.64775 84.6433988,158.779371 C84.144135,156.265934 84.4615583,153.061041 85.0174479,149.20876 C84.4711288,149.099793 83.9240123,148.97961 83.3768957,148.857824 C83.9000859,148.904295 84.4240736,148.949163 84.9472638,148.989224 C85.3683681,143.346209 85.6387362,137.691176 85.7663436,132.032937" id="Fill-5" fill="#4E91FF"></path>
                <path d="M99.275816,201.182349 C98.8586994,200.147969 98.7342822,199.047089 98.9886994,197.874899 C100.567043,190.599792 109.835325,186.669792 114.623791,182.510642 C119.900356,177.926844 125.589252,172.57307 126.437043,165.176177 C126.979374,160.445755 125.377104,155.724147 123.299497,151.556183 C122.441337,149.834355 121.469129,148.130153 120.075816,146.917902 C115.972442,143.34685 110.04827,145.212899 105.166491,147.229578 C98.9280859,149.806312 90.7006012,155.475768 84.4422577,153.189878 C78.1966748,150.907994 74.0143436,152.428716 67.3994969,152.394263 C58.4438528,152.34619 49.4913988,150.859119 40.9249571,147.942667 C39.7525644,160.569144 30.2266748,151.560991 24.4867362,148.606881 C20.2573497,146.429957 15.2870429,145.150404 10.9731166,147.111798 C6.50207362,149.144502 3.64925153,154.431774 3.19784049,159.791156 C2.74722699,165.150538 4.39734969,170.511523 6.8761227,175.130575 C9.8453865,180.664624 13.9615215,185.270856 18.3902945,189.371517 C20.713546,191.518795 31.2642822,195.786911 28.5621963,200.565407 C27.1034847,203.143743 20.9193129,205.464086 18.5099264,206.896673 C14.5955706,209.223425 10.6126258,211.405957 6.56826994,213.439462 C5.76035583,213.845682 4.91017178,214.281547 4.39814724,215.088379 C3.20741104,216.966446 4.46195092,219.509529 5.70133742,221.348336 C6.95348466,223.206373 8.35477301,225.16296 10.3566135,225.813554 C11.6191288,226.224581 12.9797423,226.054722 14.2550184,225.694972 C18.3288834,224.54682 21.7663067,221.585498 25.0737301,218.69789 C28.8891902,215.366404 32.7038528,212.034917 36.5193129,208.703431 C39.2381472,206.328606 43.8910307,204.850349 45.3816442,201.192765 C47.3579632,196.339755 42.8677791,191.622153 44.2571043,186.91096 C45.0315215,184.283749 47.5932393,182.928881 49.9531779,182.077982 C57.1980859,179.465994 65.0140368,178.845847 72.5181472,180.288049 C80.2782699,181.779125 88.8502945,187.253083 89.1039141,196.026477 C89.1804785,198.672917 87.2488221,202.312875 87.9115828,204.811089 C88.5129325,207.076948 92.1744663,209.555933 93.7695583,211.063034 C98.349865,215.389639 103.178209,219.390147 108.215509,223.031706 C109.331276,223.837737 110.573055,224.65819 111.893791,224.491535 C113.060601,224.344911 114.028025,223.455554 114.920479,222.604654 C116.705387,220.902055 118.490294,219.199456 120.276,217.496856 C120.986613,216.819021 121.766613,215.767817 121.300847,214.863235 C121.116613,214.505089 120.775264,214.28956 120.447472,214.096465 C116.219681,211.607865 101.91011,207.718728 99.275816,201.182349" id="Fill-7" fill="#4E91FF"></path>
                <path d="M59.726865,42.4642709 C59.5051472,39.7417144 62.2638589,35.6041976 63.0701779,33.502589 C63.3612822,32.7430294 63.6053313,31.8568765 63.2097485,31.1469927 C62.655454,30.1542771 61.251773,30.1342465 60.1368037,30.3417633 C53.0051472,31.6669865 47.8912822,37.0327786 43.893184,42.7719407 C40.0992577,48.2186563 36.7607301,54.9633535 36.9888282,61.7777572 C37.0382761,63.2600202 37.270362,64.7727297 37.9857607,66.0691089 C38.8790123,67.6875798 40.4278466,68.8149009 41.9136748,69.9085706 C47.1886442,73.7920997 52.3990123,77.906381 57.144411,82.4012434 C61.2031227,86.2455125 62.1833067,92.0896349 66.8337975,95.3297817 C67.8275399,96.0220385 68.8882761,96.6381792 70.0455153,96.9899162 C73.817908,98.1364667 77.8295644,96.3128826 81.1322025,94.1519835 C84.0073558,92.2715125 86.7588896,90.5921486 89.8294417,89.0690232 C91.7571104,88.1123627 93.7669264,85.9522648 94.366681,83.867482 C95.1857607,81.0207358 93.4064356,77.4825339 91.793,75.2967969 C88.4560675,70.7762954 83.664411,66.1011578 81.0069877,61.2120936 C79.1909755,57.8701914 78.2171718,53.2174881 78.8863129,49.4709682 C79.5969264,45.4896899 81.419319,41.6750661 81.2518344,37.5591823 C81.2382761,37.2274758 81.2047791,36.8773413 81.0125706,36.6073291 C80.6951472,36.1602465 80.0690736,36.0865339 79.5227546,36.1057633 C74.6633067,36.2796287 69.7233067,41.1534697 67.1903006,44.9793107 C66.3648405,46.2252128 60.6009755,44.8567235 59.9541656,43.4000997 C59.8265583,43.114063 59.7539816,42.7999835 59.726865,42.4642709" id="Fill-9" fill="#FFF000"></path>
                <path d="M62.356454,42.5806887 C62.4298282,39.1618691 63.0335706,35.7542667 64.1381718,32.5197284 C64.4236933,31.6832514 63.7537546,30.8339547 62.8788466,30.9276979 C59.8051043,31.2578018 56.8820982,32.8314043 54.5405031,34.9089761 C47.7079264,40.9686275 40.4366994,52.3908661 40.750135,61.7779976 C40.7995828,63.2602606 41.0316687,64.7721688 41.747865,66.0693492 C42.6411166,67.6878202 44.1899509,68.8143401 45.6757791,69.908811 C50.9499509,73.7923401 56.1611166,77.9058202 60.9065153,82.4014838 C64.4819141,85.7882544 65.6495215,91.4849517 70.2011166,93.8790067 C72.1559018,94.9069761 74.5477423,95.0592086 76.6157791,94.2876306 C78.4908098,93.5873615 80.0404417,92.1988416 81.8843681,91.4192514 C84.7547362,90.2045969 88.0478037,90.570756 91.0465767,89.7262667 C93.7319141,88.9699119 97.2985399,86.7505235 98.1287853,83.8677223 C98.947865,81.0209761 97.1685399,77.4827743 95.5551043,75.2970373 C92.2181718,70.7765358 87.4265153,66.1013982 84.769092,61.2115327 C82.1930184,56.4722972 82.4099509,49.7099731 81.7751043,44.3682177 C81.5693374,42.6399792 82.134,39.7555755 82.385227,38.0569823 C82.5216074,37.1347743 81.5860859,36.4176795 80.7343067,36.7878446 C76.7840613,38.5016612 73.3354724,41.379655 70.9516074,44.9795511 C70.623816,45.474707 70.0065153,45.6918385 69.4394601,45.5219792 C67.4838773,44.9354838 65.494,44.4651657 63.482589,44.11423 C62.8222209,43.9988538 62.3420982,43.417967 62.3532638,42.7441382 C62.3540613,42.689655 62.3556564,42.6351719 62.356454,42.5806887" id="Fill-11" fill="#4E91FF"></path>
                <path d="M57.4527423,53.2690869 C57.4080798,53.9485242 57.0842761,54.619148 56.9766074,55.286567 C56.8673436,55.9611969 56.6982638,57.2199187 55.7970368,57.2479615 C55.0505337,57.2711969 54.7067914,56.3017168 54.7530491,55.5525731 C54.8160552,54.514989 55.1422515,53.535093 55.5290613,52.5808361 C55.6239693,52.3452765 55.7308405,52.1009034 55.9310245,51.9470685 C56.4255031,51.5664875 57.1720061,51.9687015 57.3530491,52.4814844 C57.446362,52.7450869 57.4702883,53.0078881 57.4527423,53.2690869" id="Fill-13" fill="#4D4D4D"></path>
                <path d="M78.8922945,80.2219162 C78.3236442,80.9109682 77.7438282,81.6993719 77.7781227,82.5943382 C78.2981227,82.7978489 78.8779387,82.7385584 79.430638,82.6624422 C82.0234601,82.3050966 84.5764049,81.6512985 87.0224785,80.7178734 C87.0687362,79.629011 86.4968957,78.5778061 85.6873865,77.8518979 C84.8778773,77.1251884 83.8514356,76.6869193 82.8130307,76.3704361 C82.7340736,76.3463994 82.6519264,76.3231639 82.5697791,76.334381 C82.4485521,76.352008 82.3520491,76.4425462 82.264319,76.5290783 C81.0799632,77.7028703 79.9546258,78.9359529 78.8922945,80.2219162" id="Fill-15" fill="#4D4D4D"></path>
                <path d="M71.0211534,55.8477437 C71.2077791,55.3021107 71.4071656,54.7356459 71.8147117,54.3286245 C72.2214601,53.9216031 72.903362,53.7285083 73.381092,54.0489976 C73.5629325,55.4567468 73.4767975,56.8997498 73.1274724,58.2754502 C72.9855092,58.8363064 72.7861227,59.4099823 72.3690061,59.8089914 C71.9518896,60.2088018 71.2636074,60.3738538 70.7906626,60.0429486 C70.0991902,58.7762147 70.5537914,57.2138294 71.0211534,55.8477437" id="Fill-17" fill="#4D4D4D"></path>
                <path d="M36.4499264,95.7008281 C40.0460613,92.1177578 44.243546,96.1503144 45.3553252,99.8695927 C46.4224417,103.442247 46.0244663,107.72799 44.840908,111.223727 C43.9939141,113.726749 42.701092,115.803519 42.0909693,118.429128 C41.1275337,122.576259 40.1864294,126.587183 38.5044049,130.522791 C34.0477178,140.951513 26.5117055,128.244113 22.1913988,124.57451 C19.5100491,122.295831 17.0225031,119.64218 15.4114601,116.466131 C14.0827485,113.846932 13.8777791,109.877672 16.5607239,108.705483 C22.6715215,105.892388 24.2793742,115.611226 28.8644663,116.153654 C29.9834233,116.286657 30.9356933,115.334804 31.5091288,114.360516 C33.1456933,111.576265 33.2086994,108.177476 33.4017055,104.950149 C33.5939141,101.722822 34.0676564,98.2607364 36.2617055,95.8955254 C36.3247117,95.8282226 36.3869202,95.7633235 36.4499264,95.7008281" id="Fill-19" fill="#4D4D4D"></path>
                <path d="M35.7547853,91.7951853 C37.5811656,91.0316196 39.727362,90.6943046 41.5082822,91.5604269 C43.741411,92.6476869 44.7702454,95.2901211 45.0916564,97.762696 C45.4505521,100.518904 45.1769939,103.356035 44.2996933,105.99206 C43.5954601,108.106488 42.5171779,110.070286 41.5266258,112.065332 C39.2225153,116.702011 37.3658282,121.563032 35.9892638,126.557057 C35.7787117,127.321424 35.5546012,128.118641 35.2850307,128.895026 C34.4173006,131.386029 31.0955215,131.76661 29.6216564,129.581675 C25.1992638,123.026867 16.9813497,118.778782 14.4172393,110.861094 C13.9028221,109.272268 14.229816,107.477528 15.410184,106.301332 C17.4407362,104.278243 20.0080368,105.492097 22.0904294,106.669895 C24.3235583,107.933424 26.5574847,109.196953 28.7906135,110.460482 C25.5047239,103.78469 28.9102454,94.6563535 35.7547853,91.7951853" id="Fill-21" fill="#4E91FF"></path>
                <path d="M28.2683006,136.446796 C28.0880552,136.72482 27.772227,136.913108 27.4579939,137.07816 C23.9192822,138.9386 19.2209387,138.981065 15.638362,137.185524 C14.296092,136.512496 13.0606933,135.538209 12.6005092,134.249842 C12.2392209,133.238698 12.3907546,132.150637 12.5367055,131.099432 C13.4451104,124.579878 13.013638,117.096453 15.3544356,110.923028 C15.8305706,109.669114 16.3960307,108.311842 17.5763988,107.68208 C18.619589,107.126832 19.9403252,107.298294 20.9627791,107.892001 C21.9852331,108.484906 22.7484847,109.44397 23.3649877,110.455915 C25.5702025,114.076643 25.8860307,118.153267 26.4618589,122.245114 C27.0743742,126.601365 28.1159693,130.875891 28.4405706,135.304251 C28.4692822,135.692845 28.4884233,136.107077 28.2683006,136.446796" id="Fill-23" fill="#4D4D4D"></path>
                <path d="M26.1665276,134.043126 C26.0102086,134.32115 25.7358528,134.509438 25.4638896,134.67449 C22.3925399,136.53493 18.3154847,136.577395 15.2066503,134.781854 C14.0422331,134.108826 12.9703313,133.134539 12.5707607,131.846172 C12.2573252,130.835028 12.3889202,129.746967 12.5157301,128.695762 C13.1433988,123.502233 13.5932147,118.287071 13.8651779,113.062294 C13.9728466,111.00315 14.0845031,108.834239 15.1899018,107.097187 C16.2953006,105.360135 18.7732761,104.320147 20.4656687,105.486728 C21.6500245,106.303175 22.048,107.847132 22.3582454,109.255683 C24.0801472,117.067609 25.8076319,124.916392 26.3156687,132.900582 C26.3411902,133.289175 26.3571411,133.703407 26.1665276,134.043126" id="Fill-25" fill="#4E91FF"></path>
                <path d="M81.747589,108.607573 C82.5594908,107.735842 83.6090613,107.054802 84.937773,106.634961 C88.4238466,105.534081 90.397773,107.368081 91.2407791,110.629059 C91.8867914,113.126472 92.2305337,115.717628 92.4203497,118.287151 C92.4921288,119.25583 93.2521902,125.768172 92.5056871,126.207243 C98.4824969,122.689873 105.071822,120.226913 111.883663,118.964185 C113.600779,118.645298 113.830472,121.918295 113.714828,122.98953 C113.465994,125.302662 111.311025,126.941965 109.564399,128.304044 C106.524153,130.674864 103.428877,132.972772 100.280963,135.196166 C99.0599202,136.059084 97.8069755,136.922802 96.3849509,137.377897 C90.2725583,139.334484 85.8677117,132.882234 83.0212699,128.525182 C79.9650736,123.846038 77.3076503,113.373249 81.747589,108.607573" id="Fill-27" fill="#4D4D4D"></path>
                <path d="M79.0290736,102.303869 C82.3022025,96.7289578 89.8453926,98.4243462 91.9612822,103.794946 C94.6402393,110.595728 95.1953313,117.329209 94.9050245,124.606719 C100.878644,121.083741 107.466374,118.614371 114.27662,117.345233 C116.052755,117.014328 116.298399,120.871417 116.026436,122.094884 C115.649994,123.792676 115.043061,124.08352 113.569196,124.811031 C109.604595,126.767618 105.701405,127.864493 102.015945,130.596664 C99.1288282,132.736731 95.7671718,135.412817 92.3696258,134.25505 C90.7721411,133.711019 89.5718344,132.397013 88.4736135,131.11105 C82.7583988,124.418432 77.5767423,116.420621 77.7665583,107.604762 C77.805638,105.768358 78.0999325,103.886285 79.0290736,102.303869" id="Fill-29" fill="#4E91FF"></path>
                <path d="M126.31462,139.652169 C125.11511,140.344426 123.852595,141.055111 122.46965,141.101582 C120.339405,141.173692 118.470755,139.644958 117.201061,137.923931 C115.749528,135.955325 114.803638,133.664628 113.872104,131.400371 C112.906276,129.052787 111.574374,126.867851 110.807135,124.43694 C110.547933,123.617289 110.327012,123.034799 110.355724,122.147044 C110.401184,120.750512 110.270387,119.558292 111.355049,118.52231 C111.84873,118.049588 112.442104,117.69705 113.042656,117.371754 C113.273945,117.246763 113.514804,117.122573 113.776399,117.104145 C114.215049,117.072897 114.613822,117.338102 114.973515,117.592891 C116.389957,118.593619 117.714681,120.365124 118.452411,121.943533 C119.069712,123.26475 119.64554,124.597986 120.573086,125.754151 C122.834926,128.574457 124.953209,131.506133 126.89284,134.560396 C127.680816,135.799888 128.438485,137.444799 127.592288,138.645032 C127.27646,139.092114 126.787564,139.378952 126.31462,139.652169" id="Fill-31" fill="#FFF000"></path>
                <path d="M127.810816,138.677241 C126.611307,139.369498 125.348791,140.080183 123.965847,140.126654 C121.835601,140.198764 119.966951,138.67003 118.697258,136.949002 C117.245724,134.980397 116.299834,132.6897 115.368301,130.424642 C114.574742,128.495296 113.780387,126.56595 112.986828,124.635804 C112.437319,123.298562 111.879834,121.931675 111.781736,120.488672 C111.721123,119.588898 111.858301,118.639449 112.383086,117.907932 C112.907871,117.176415 113.884865,116.729333 114.735847,117.016171 C115.239896,117.18603 115.635479,117.577027 116.00873,117.958409 C120.660816,122.716874 124.817626,127.963284 128.389037,133.585467 C129.177012,134.82496 129.934681,136.469871 129.088485,137.670103 C128.772656,138.117186 128.283761,138.404024 127.810816,138.677241" id="Fill-33" fill="#4E91FF"></path>
                <path d="M104.129202,191.888319 C104.145951,191.86909 104.161902,191.850662 104.17865,191.831432 C103.986442,191.728075 103.791043,191.631127 103.605215,191.51575 L104.129202,191.888319 Z" id="Fill-35" fill="#4E91FF"></path>
                <path d="M50.4171902,234.692389 C50.4331411,236.927802 50.7290307,239.181643 51.5289693,241.267227 C53.6927117,246.906236 59.1997669,250.550199 64.7857791,252.792823 C69.3293988,254.616407 74.325227,255.748536 79.1551656,255.398401 C81.1897055,255.250976 81.8819755,252.583704 80.1465153,251.508462 C74.8476196,248.225851 70.1524663,243.958536 66.3888466,238.975728 C64.4962699,236.469502 62.8110552,233.727716 62.0645521,230.672652 C60.7868834,225.438261 62.3747975,220.181435 64.6302577,215.151355 C65.5259018,213.153906 63.1380491,211.311894 61.4065767,212.644328 C54.6896442,217.810615 50.3557791,226.160163 50.4171902,234.692389" id="Fill-37" fill="#4D4D4D"></path>
                <path d="M95.6918037,171.960295 C99.4027853,168.418087 101.124687,163.831885 104.403399,160.06213 C106.093399,158.119965 107.84481,156.128124 110.144933,154.982374 C108.439779,154.54731 106.607816,154.976766 105.048613,155.796417 C98.939411,159.006919 95.4788589,166.452686 91.7926012,171.979524 C91.4895337,172.433818 91.1776933,172.916955 91.1426012,173.462588 C91.1067117,174.008221 91.4616196,174.620356 92.0047485,174.658815 C92.3644417,174.685255 92.6914356,174.464117 92.9817423,174.248588 C93.9300245,173.541909 94.8352393,172.776741 95.6918037,171.960295" id="Fill-39" fill="#4D4D4D"></path>
                <path d="M104.728718,195.017176 C102.683012,200.290026 98.9066319,204.793702 94.3550368,208.127592 C87.1619693,213.395635 78.2398221,215.757641 69.4022147,216.829678 C63.4565092,217.550779 57.360865,217.729451 51.5395767,216.314491 C41.6627669,213.914026 33.2063865,206.943384 27.8987178,198.237292 C22.5902515,189.532002 20.2566319,179.218656 20.0644233,169.011873 C19.9711104,164.074736 20.3954049,158.991776 22.5423988,154.549794 C24.3751595,150.758406 27.3715399,147.640045 30.6797607,145.046485 C44.1598834,134.480754 63.6582883,132.44725 79.1322761,139.752803 C94.6062638,147.059158 105.444117,163.267103 106.608534,180.404467 C106.944301,185.344008 106.518411,190.403733 104.728718,195.017176" id="Fill-41" fill="#FF6496"></path>
                <path d="M91.9500368,192.27499 C89.2519387,197.08313 84.2250061,200.157424 79.0329816,201.96258 C74.9870307,203.369528 70.7201595,204.132292 66.4397301,204.214017 C56.9513252,204.395094 47.2475828,201.00672 40.6135951,194.189112 C33.9796074,187.371503 30.818135,177.022904 33.4484417,167.862519 C36.972,155.587779 50.560589,147.72217 63.196908,149.15636 C75.8324294,150.589748 86.7476442,160.126708 91.675681,171.903889 C94.3889325,178.38899 95.3890552,186.146433 91.9500368,192.27499" id="Fill-43" fill="#FFFFFF"></path>
                <path d="M34.679454,189.738317 C38.396816,194.395828 39.3363252,196.961344 42.2354049,202.1725 C47.862092,196.239442 53.5023374,190.292763 59.7311718,185.000684 C70.4414172,175.901191 82.8392699,168.776714 92.5286564,158.587558 C89.7699448,155.521277 89.2427669,155.004488 86.1785951,152.246678 C85.7614785,151.871705 85.2909264,151.478305 84.7310491,151.467087 C84.2525215,151.456672 83.8186564,151.731491 83.4190859,151.996696 C66.2806196,163.353234 49.975589,175.979711 34.679454,189.738317" id="Fill-45" fill="#FF6496"></path>
                <path d="M41.751773,15.5311517 C43.0182761,10.2863443 40.2491963,4.26114557 34.7596871,3.0593107 C33.8520798,2.86140856 33.6726319,6.351537 34.8466196,6.62635657 C37.999319,7.36428318 41.1671718,10.5235064 40.5514663,13.9968092 C40.3863742,14.9246257 41.2684601,17.5342098 41.751773,15.5311517" id="Fill-47" fill="#E6E6E6"></path>
                <path d="M114.830196,47.4479596 C117.334491,45.2646263 120.64989,44.5835865 123.844061,45.4056416 C124.710994,45.6283817 124.961423,42.1070055 123.756331,41.807348 C120.321301,40.953244 116.913387,41.9932318 114.399521,44.4698128 C113.751117,45.1083878 114.146699,48.0440697 114.830196,47.4479596" id="Fill-49" fill="#E6E6E6"></path>
                <g id="Group-53" transform="translate(80.552147, 0.318086)">
                    <mask id="mask-2" fill="white">
                        <use xlink:href="#path-1"></use>
                    </mask>
                    <g id="Clip-52"></g>
                    <path d="M1.61933742,13.278192 C2.69442945,9.38825321 5.07749693,6.0439474 8.11295706,3.43997187 C8.74939877,2.89433884 8.52369325,0.00112171254 7.69504294,0.552363303 C3.75995092,3.17156208 1.41038037,7.24417982 0.503570552,11.8520147 C0.332895706,12.7197394 1.10811043,15.1266141 1.61933742,13.278192" id="Fill-51" fill="#E6E6E6" mask="url(#mask-2)"></path>
                </g>
                <path d="M87.690184,18.9704024 C88.3242331,17.6523902 89.4144785,16.6596746 90.731227,16.0563535 C91.2440491,15.8215951 91.0311043,13.9731731 90.4704294,14.2511976 C88.9662577,14.9987388 87.8289571,16.2414361 87.1319018,17.7669651 C86.9707975,18.1187021 87.0011043,18.6378948 87.161411,18.983222 C87.3113497,19.3069162 87.5482209,19.2652526 87.690184,18.9704024" id="Fill-54" fill="#E6E6E6"></path>
                <g id="Group-58" transform="translate(0.000000, 45.186587)" fill="#E6E6E6">
                    <path d="M15.2769939,3.11395413 C10.9168098,0.155036697 5.80374233,-0.697464832 0.714601227,0.616541284 C-0.379631902,0.899373089 -0.109263804,4.22845566 0.798343558,4.02734862 C5.68092025,2.94249235 10.4917178,3.50575229 15.0441104,5.56489602 C15.8568098,5.93265749 15.8528221,3.50414985 15.2769939,3.11395413" id="Fill-56"></path>
                </g>
                <path d="M15.0725828,55.1751969 C12.4047914,54.9628728 9.85025153,55.4604324 7.44086503,56.6222061 C6.54681595,57.0532642 6.97828834,60.2237046 7.88908589,59.7205364 C10.1509264,58.4706281 12.561908,57.8801266 15.1395767,57.9282 C15.9650368,57.9442245 15.9427055,55.2441021 15.0725828,55.1751969" id="Fill-59" fill="#E6E6E6"></path>
            </g>
        </g>
    </g>
</svg>