<?xml version="1.0" encoding="utf-8"?>
<!-- Generator: Adobe Illustrator 18.0.0, SVG Export Plug-In . SVG Version: 6.00 Build 0)  -->
<!DOCTYPE svg PUBLIC "-//W3C//DTD SVG 1.1//EN" "http://www.w3.org/Graphics/SVG/1.1/DTD/svg11.dtd">
<svg version="1.1" id="圖層_1" xmlns="http://www.w3.org/2000/svg" xmlns:xlink="http://www.w3.org/1999/xlink" x="0px" y="0px"
	 viewBox="0 0 266 260" enable-background="new 0 0 266 260" xml:space="preserve">
<title>E7AA40CA-DBC6-441A-918A-0E232938385B</title>
<desc>Created with sketchtool.</desc>
<g id="tnvr-r-dog">
	<path id="Fill-1" fill="#4D4D4D" d="M133.5,105c6.3,1.1,10.9,6.7,13.6,12.5c4,8.7,4.6,19.2,1.3,28.3c-3.7,10.3-14.7,18.3-22.1,26.1
		c-0.6,0.7-1.3,1.4-1.6,2.3c-0.2,0.8-0.1,1.7,0.1,2.5c2,8.9,8.3,17.2,12.4,25.2c2.5,4.9-4.7,11.3-8.7,7.2c-0.5-0.5-0.7-1.1-1-1.7
		c-1.8-4.3-3.6-8.6-5.4-12.9c-2.5-6.1-5.3-12.1-8.3-18.1c-0.5-1-1-2-0.9-3.1c0.1-1,0.7-1.8,1.3-2.6c7.7-11.5,4.6-22,1.6-34.4
		c-1.7-6.9-2.2-14.5,0.7-21C119.5,108.8,126.5,103.8,133.5,105"/>
	<path id="Fill-3" fill="#4D4D4D" d="M183.6,123.6c-0.4-3.9-0.9-8.2,1.5-11.3c1.6-2.2,4.4-3.3,7.1-4.1c5.4-1.4,9.1-0.5,12.6,3.5
		c3.6,4.1,5.9,8.6,4.4,14.3c-1.3,4.9-4.8,9.8-8.9,12.7c-3.3,2.3-6.4,4.9-9.8,6.9c-2.4,1.4-6.8,3.8-9.7,3.5c-1.5-0.2-2.9-1.3-3-2.8
		c0-1.3,0.9-2.3,1.7-3.4c4.4-5.6,4.9-12.2,4.2-19.1C183.6,123.9,183.6,123.7,183.6,123.6"/>
	<path id="Fill-5" fill="#4D4D4D" d="M183.1,150.2c-1.1-0.2-2.3-0.5-3.3-0.9c-0.7-0.3-1.4-0.7-1.9-1.3c-0.5-0.6-0.6-1.5-0.2-2.2
		c0.2-0.3,0.6-0.6,1-0.8c1.7-1.1,3.4-2.5,5.3-3.2c2.5-0.8,5.1-1.5,7.7-2.1c5-1.3,10.1-2.2,15.2-2.4c2.9-0.1,6.4,0.5,7.4,3.3
		c0.2,0.7,0.3,1.4,0.3,2.1c0.1,2.8-0.2,5.5-0.8,8.2c-0.7,3.3-1.3,7.6-4,10c-0.2,0.2-0.5,0.4-0.8,0.5c-0.3,0.1-0.7,0.1-1,0.2
		c-1.6,0.1-3.3,0.1-4.6-0.8c-0.4-0.3-0.8-0.7-0.9-1.2c-0.1-0.4,0-0.8,0.1-1.2c1-4.1,2.3-8.1,4.2-11.9c0.2-0.3,0.3-0.7,0.2-1
		c-0.2-0.5-0.9-0.4-1.4-0.3C197.9,147.2,191.2,151.5,183.1,150.2"/>
	<path id="Fill-7" fill="#4E91FF" d="M115.1,143.7c-3.9-1.2-7.7-3.2-10-5.9c-3.5-4.2-3.9-11.4-2.1-16.4c1.6-4.5,3.6-9.9,6.4-13.7
		c7.1-9.8,16.4-18.3,27.3-23.6c17.3-8.3,36-7.7,52.9,0.9c13.6,6.9,34.2,27.8,20.7,43.6c-5.7,6.7-15.4,8.1-24.2,8.9
		c-1.8,0.2-3.7,0.4-5.5-0.1c-3.6-0.9-6.2-3.8-9.8-4.8c-3.9-1.1-6.7-3.4-10.2-5.3c-5-2.8-9.8-1.5-13.8,2.5c-2.9,2.9-5,6.5-7.9,9.3
		c-4.6,4.4-11.2,6.4-17.6,5.9C119.6,144.9,117.4,144.4,115.1,143.7"/>
	<path id="Fill-9" fill="#4D4D4D" d="M133.7,109.9c5.8,2.8,8.6,9.4,9.6,15.8c2.2,14.2-4,29.3-17.3,35.5c-5.1,2.4-10.7,3.5-16.3,4
		c-3.8,0.4-3.9-2.1-3.4-5.2c0.4-2.3,0.6-4.5,0.6-6.8c0-2.8,0.6-5.6,0.8-8.3c0.3-3.2,0.4-6.5,0.5-9.8c0.3-7.1,1.9-14.5,6.4-20
		C119.1,109.6,127.3,106.7,133.7,109.9"/>
	<path id="Fill-11" fill="#4D4D4D" d="M171.6,140.2c0.6-2.1,1.2-4.2,2.7-5.8c2.4-2.6,6.5-3.1,8.9-5.8c1.8-2.1,2.1-5,2.4-7.7
		c0.1-1,0.2-2.1,0.3-3.1c0.9,1.6,1.7,3.2,2.3,5c0.4,1.2,0.7,2.5,0.8,3.8c0.1,2.5-1,4.9-2.5,6.8c-1.5,2-3.4,3.5-5.5,5
		c-2.6,1.8-5.7,3.6-8.9,2.9c-0.2,0-0.3-0.1-0.4-0.2C171.4,140.8,171.5,140.5,171.6,140.2"/>
	<path id="Fill-13" fill="#FFF000" d="M157.8,122.1c-0.5-3.9-1-7.8,1.5-11.3c1.6-2.2,4.4-3.3,7.1-4.1c5.4-1.4,9.1-0.5,12.6,3.5
		c3.6,4.1,5.9,8.6,4.4,14.3c-2.3,8.8-10.3,12.4-15.7,18.9c-2,2.4-3.5,4.3-6.8,4.8c-5.5,0.7-6.9-3.2-5-7.7c1.9-4.7,2.6-9.6,2.3-14.7
		C158.1,124.7,157.9,123.4,157.8,122.1"/>
	<path id="Fill-15" fill="#4E91FF" d="M161.2,122.8c-0.4-3.9-0.9-8.2,1.5-11.3c1.6-2.2,4.4-3.3,7.1-4.1c5.4-1.4,9.1-0.5,12.6,3.5
		c3.6,4.1,5.9,8.6,4.4,14.3c-1.3,4.9-4.8,9.8-8.9,12.7c-3.3,2.3-6.4,4.9-9.8,6.9c-2.4,1.4-6.8,3.8-9.7,3.5c-1.5-0.2-2.9-1.3-3-2.8
		c0-1.3,0.9-2.3,1.7-3.4c4.4-5.6,4.9-12.2,4.2-19.1C161.2,123.1,161.2,122.9,161.2,122.8"/>
	<path id="Fill-17" fill="#4D4D4D" d="M163.2,143.2c-0.2-0.8,0.5-1.6,1.2-2.1c5.2-4,11.1-5.8,17.4-7.3c4.4-1.1,11.2-0.6,11.9,5.2
		c0.2,2.2-0.8,5.4-1.5,7.5c-1,2.9-2.8,5.6-5.2,7.5c-0.2,0.2-0.4,0.3-0.7,0.3c-0.2,0-0.4-0.1-0.5-0.3c-1.2-1.2-0.9-3.1-0.7-4.8
		c0.2-1.3,0.3-2.6,0.2-3.9c0-1.5-0.4-3.3-1.7-4.1c-0.5-0.3-1.1-0.4-1.7-0.5c-1.3-0.2-2.7-0.2-4,0.1c-1.3,0.4-2.6,1.1-3.8,1.6
		C170.6,144,166.7,144.2,163.2,143.2"/>
	<path id="Fill-19" fill="#4E91FF" d="M160.7,149.4c-1.1-0.2-2.3-0.5-3.3-0.9c-0.7-0.3-1.4-0.7-1.9-1.3c-0.5-0.6-0.6-1.5-0.2-2.2
		c0.2-0.3,0.6-0.6,1-0.8c1.7-1.1,3.4-2.5,5.3-3.2c2.5-0.8,5.1-1.5,7.7-2.1c5-1.3,10.1-2.2,15.2-2.4c2.9-0.1,6.4,0.5,7.4,3.3
		c0.2,0.7,0.3,1.4,0.3,2.1c0.1,2.8-0.2,5.5-0.8,8.2c-0.7,3.3-1.3,7.6-4,10c-0.2,0.2-0.5,0.4-0.8,0.5c-0.3,0.1-0.7,0.1-1,0.2
		c-1.6,0.1-3.3,0.1-4.6-0.8c-0.4-0.3-0.8-0.7-0.9-1.2c-0.1-0.4,0-0.8,0.1-1.2c1-4.1,2.3-8.1,4.2-11.9c0.2-0.3,0.3-0.7,0.2-1
		c-0.2-0.5-0.9-0.4-1.4-0.3C175.5,146.4,168.8,150.7,160.7,149.4"/>
	<path id="Fill-21" fill="#4E91FF" d="M126.9,109.2c6,2.2,9.5,8.5,11.1,14.7c2.4,9.3,1,19.7-3.8,28.1c-5.5,9.5-17.7,15.3-26.5,21.7
		c-0.8,0.5-1.5,1.1-1.9,2c-0.4,0.8-0.4,1.6-0.3,2.5c0.4,9.1,5,18.4,7.7,27c1.6,5.2-6.7,10.3-9.8,5.5c-0.4-0.5-0.5-1.2-0.6-1.8
		c-1-4.5-2-9.1-3-13.6c-1.4-6.4-3-12.9-4.9-19.3c-0.3-1-0.6-2.1-0.3-3.2c0.3-0.9,1-1.7,1.7-2.4c9.7-9.9,8.5-20.8,7.8-33.5
		c-0.4-7.1,0.4-14.6,4.4-20.5C112.4,110.4,120.2,106.7,126.9,109.2"/>
	<path id="Fill-23" fill="#FFF000" d="M195.3,101.3c0.7-6.4,5.1-11.9,10.1-16c4.4-3.5,10.2-6.3,15.5-5.5c1.5,0.2,2.2,1.9,1.4,3.1
		c-1.6,2.4-3,4.9-4.2,7.5c-0.3,0.7-0.6,1.5-0.4,2.2s1.2,1.3,1.8,0.8c3.7-4.3,10-6.1,15.5-4.8c1.4,0.3,2,2,1.2,3.1
		c-1.5,2.1-3.5,5.1-3.7,5.6c-2.8,7.3-1.7,16,3.1,22.1c3.5,4.4,8.9,8.1,9.3,13.7c0.7,9.5-12.2,11.2-19.1,10.4c-2.4-0.3-5-0.8-6.8-2.5
		c-2.1-2-2.6-5.2-4.1-7.8c-3.3-5.6-10.6-7.2-14.3-12.5C196.7,115.7,194.6,107.8,195.3,101.3"/>
	<path id="Fill-25" fill="#4E91FF" d="M198.9,101.3c0.7-6.4,5.1-11.9,10.1-16c4.4-3.5,10.2-6.3,15.5-5.5c1.5,0.2,2.2,1.9,1.4,3.1
		c-1.6,2.4-3,4.9-4.2,7.5c-0.3,0.7-0.6,1.5-0.4,2.2c0.2,0.7,1.2,1.3,1.8,0.8c3.7-4.3,10-6.1,15.5-4.8c1.4,0.3,2,2,1.2,3.1
		c-1.5,2.1-3.5,5.1-3.7,5.6c-2.8,7.3-1.7,16,3.1,22.1c3.5,4.4,8.9,8.1,9.3,13.7c0.7,9.5-12.2,11.2-19.1,10.4c-2.4-0.3-5-0.8-6.8-2.5
		c-2.1-2-2.6-5.2-4.1-7.8c-3.3-5.6-10.6-7.2-14.3-12.5C200.3,115.7,198.2,107.8,198.9,101.3"/>
	<path id="Fill-27" fill="#4D4D4D" d="M241,133.4c-0.4-1.6-1-3.1-1.7-4.5c-0.2-0.4-0.7-0.5-1-0.4c-2,0.9-3.7,2.4-5.1,4.1
		c-0.4,0.5-0.1,1.2,0.5,1.3c2.2,0.4,4.4,0.5,6.6,0.5C240.7,134.4,241.1,133.9,241,133.4"/>
	<path id="Fill-29" fill="#4D4D4D" d="M214.3,98.7c-0.7,0.4-1.4,0.7-2.1,1c-0.1-1.3-0.3-2.7-0.6-4c-0.1-0.7-1.7-0.3-1.6,0.4
		c0.3,1.4,0.5,2.8,0.6,4.2c-1.1,0.4-2.3,0.8-3.5,1c-0.9,0.2-0.8,0.9,0.2,0.6c1.1-0.3,2.2-0.6,3.3-1c0.1,1.1,0.1,2.3,0.1,3.4
		c0,0.8,1.6,0.5,1.6-0.1c0-0.3,0-0.6,0.1-1c0-0.1,0-0.1,0-0.2c0-0.9,0-1.8-0.1-2.7c1-0.4,2-0.9,3-1.4
		C216.2,98.6,214.8,98.5,214.3,98.7"/>
	<path id="Fill-31" fill="#4D4D4D" d="M222.9,106.3c0.1-0.9,0.4-1.8,1-2.4c0.4-0.4,1-0.7,1.4-0.4c0.2,0.2,0.3,0.5,0.4,0.8
		c0.1,1.1-0.2,2.3-0.7,3.4c-0.5,1.2-1.6,1.2-1.9,0C222.9,107.3,222.8,106.8,222.9,106.3"/>
	<path id="Fill-33" fill="#4D4D4D" d="M70.2,128.4c-3,2.6-5.8,5.6-7.4,9.2c-2.7,6.1-1.6,13.7,2.7,18.8c2.8,3.4,7,5.5,11.3,6.1
		c1.6,0.2,2.5-1.8,1.2-2.8c-2.3-1.8-4-4.5-4.8-7.3c-1.4-4.9-0.3-10.2,2-14.7c3.6-6.9,10.3-12.1,17.9-14c1.7-0.4,1.6-2.8-0.1-3.1
		c-3-0.6-6.2-0.4-9.2,0.3C78.8,122.1,74.2,125,70.2,128.4"/>
</g>
<g id="shadow">
	<path id="Fill-37" fill-opacity="0.1" d="M132.7,257.8c10.6,2.1,21.6,1.5,32.5,1c6-0.3,12.6-0.9,16.8-5.1c6-6,3.9-17-2.6-22.5
		c-6.5-5.4-15.8-6.2-24.2-4.8c-8.4,1.4-16.3,4.6-24.7,6.4c-22.7,4.8-46.7-1.7-69.4,3.2c-6.2,1.3-13.7,5.7-12.3,12
		c0.6,2.5,2.5,4.4,4.6,5.9c7.6,5.1,17.5,4.8,26.5,3c9-1.8,17.8-4.8,26.9-4.4C115.6,252.7,124,256.1,132.7,257.8"/>
</g>
<g id="tnvr-r-wow">
	<path id="Fill-35" fill="#E6E6E6" d="M24,123.6c1.6-0.9,5.6-0.1,6.3,1.8c0.8,2.1-2.2,4.2-4.8,5.5C23.2,128.5,21.2,125.2,24,123.6
		 M48.9,136.4c-6.6,1.2-13.8,1.7-19.7-2.2c-0.4-0.2-1.1-0.8-1.9-1.5c2.7-1.7,5.9-4.3,4.9-7.8c-0.8-2.9-4.4-4.8-7.3-4.5
		c-3.8,0.4-4.8,4.7-4.1,7.9c0.3,1.4,1,2.8,1.9,4c-3,1.1-6.3,1.4-9.3,0.2c-6.7-2.8-11.5-13.2-6.7-19.5c0.1-0.2-0.1-0.8-0.3-0.5
		c-5.6,6.5-1.1,17.8,5.6,21.6c3.8,2.1,8.3,1.8,12.2,0.3c2.1,2.2,4.7,4.1,7.2,5.2c5.6,2.5,11.7,2,17.6,0.8
		C50.7,139.9,50.6,136.1,48.9,136.4"/>
	<path id="Stroke-39" fill="none" stroke="#E6E6E6" stroke-width="1.6" stroke-linecap="round" d="M180.3,97.5h4.8"/>
	<path id="Stroke-41" fill="none" stroke="#E6E6E6" stroke-width="1.6" stroke-linecap="round" d="M182.7,99.9v-4.8"/>
	<path id="Stroke-43" fill="none" stroke="#E6E6E6" stroke-width="1.6" stroke-linecap="round" d="M220.3,63.1h5.6"/>
	<path id="Stroke-45" fill="none" stroke="#E6E6E6" stroke-width="1.6" stroke-linecap="round" d="M221.9,65.5v-5.6"/>
	<path id="Stroke-47" fill="none" stroke="#E6E6E6" stroke-width="1.6" stroke-linecap="round" d="M264.4,83.9h-5.6"/>
	<path id="Stroke-49" fill="none" stroke="#E6E6E6" stroke-width="1.6" stroke-linecap="round" d="M261.2,79.9v5.6"/>
	<path id="Stroke-51" fill="none" stroke="#E6E6E6" stroke-width="1.6" stroke-linecap="round" d="M186.7,56.7h4"/>
	<path id="Stroke-53" fill="none" stroke="#E6E6E6" stroke-width="1.6" stroke-linecap="round" d="M187.5,59.1v-5.6"/>
	<path id="Stroke-55" fill="none" stroke="#E6E6E6" stroke-width="1.6" stroke-linecap="round" d="M253.8,41.3l3.4,3.4"/>
	<path id="Stroke-57" fill="none" stroke="#E6E6E6" stroke-width="1.6" stroke-linecap="round" d="M253.8,44.7l3.4-3.4"/>
	<path id="Stroke-59" fill="none" stroke="#E6E6E6" stroke-width="1.6" stroke-linecap="round" d="M208.8,28.9l3.4,3.4"/>
	<path id="Stroke-61" fill="none" stroke="#E6E6E6" stroke-width="1.6" stroke-linecap="round" d="M208.8,32.3l3.4-3.4"/>
	<path id="Stroke-63" fill="none" stroke="#E6E6E6" stroke-width="1.6" stroke-linecap="round" d="M248.5,97l3.4,3.4"/>
	<path id="Stroke-65" fill="none" stroke="#E6E6E6" stroke-width="1.6" stroke-linecap="round" d="M248.5,100.4L252,97"/>
	<path id="Stroke-67" fill="none" stroke="#E6E6E6" stroke-width="1.6" stroke-linecap="round" d="M249,74.4c0,1.1-0.9,2.1-2.1,2.1
		c-1.1,0-2.1-0.9-2.1-2.1s0.9-2.1,2.1-2.1C248.1,72.4,249,73.3,249,74.4L249,74.4z"/>
	<path id="Stroke-69" fill="none" stroke="#E6E6E6" stroke-width="1.6" stroke-linecap="round" d="M150.4,22.2
		c0,1.1-0.9,2.1-2.1,2.1c-1.1,0-2.1-0.9-2.1-2.1s0.9-2.1,2.1-2.1C149.5,20.2,150.4,21.1,150.4,22.2L150.4,22.2z"/>
</g>
<g id="tnvr-r-hand">
	<defs>
		<filter id="Adobe_OpacityMaskFilter" filterUnits="userSpaceOnUse" x="0" y="0.8" width="51.4" height="57.8">
			<feColorMatrix  type="matrix" values="1 0 0 0 0  0 1 0 0 0  0 0 1 0 0  0 0 0 1 0"/>
		</filter>
	</defs>
	<mask maskUnits="userSpaceOnUse" x="0" y="0.8" width="51.4" height="57.8" id="mask-2">
		<g filter="url(#Adobe_OpacityMaskFilter)">
			<polygon id="path-1" fill="#FFFFFF" points="0,0.8 0,58.6 51.4,58.6 51.4,0.8 			"/>
		</g>
	</mask>
	<path id="Fill-71" mask="url(#mask-2)" fill="#FFFFFF" d="M4.9,0.9c4.5-1,7.9,3.8,10.1,7.8c8.4,15.2,19.6,28.7,32.9,39.8
		c2.1,1.7,4.4,4.3,3.2,6.7c-0.3,0.7-1,1.3-1.6,1.7c-3.1,2.1-7.2,2.1-10.7,1c-3.5-1.2-6.6-3.4-9.4-5.7C21.2,45.5,14,37.6,8,28.9
		c-3.6-5.3-6.9-11.1-7.8-17.4C-0.5,7.3,0.8,1.9,4.9,0.9"/>
	<path id="Fill-74" fill="#FF6496" d="M66.5,46.8c5.1-1.2,10.1-2.4,15.2-3.7c2.5-0.6,5-1.2,7.5-1.1s5.1,1.1,6.6,3.1
		c1.6,2.2,1.7,5.2,1,7.8c-0.8,2.8-2.6,5.6-5.3,6.6c-1.8,0.7-3.8,0.5-5.7,0.4c-7-0.6-14.2-1.2-20.3-4.6c-2.2-1.2-4.4-3.6-3.4-5.9
		C62.8,47.9,64.7,47.3,66.5,46.8"/>
	<path id="Fill-76" fill="#4D4D4D" d="M104.6,64.9c1.4,1.9,1.6,4.6,0.9,6.9c-0.7,2.3-2.1,4.3-3.6,6.2c-0.5,0.6-1.2,1.3-2,1.4
		c-0.6,0.1-1.2-0.1-1.7-0.3c-2.9-1.2-5.5-3.1-8-4.9c-4-3-8-5.9-12-8.9c-1.7-1.3-3.5-2.6-4.9-4.2c-0.4-0.5-0.8-1-0.9-1.6
		c-0.3-1.3,0.4-2.6,1.2-3.7c0.6-0.9,1.2-1.9,2.1-2.4c1.2-0.7,2.8-0.6,4.2-0.4c7.9,1.1,15.1,5.1,21.7,9.5
		C102.7,63,103.8,63.8,104.6,64.9"/>
	<path id="Fill-78" fill="#FF6496" d="M103.3,67c1.5,1.6,2.6,3.5,2,5.6c-0.8,2.8-2.9,5.3-4.8,7.5c-0.5,0.6-1.2,1.3-2,1.4
		c-0.6,0.1-1.2-0.1-1.7-0.3c-2.9-1.2-5.5-3.1-8-4.9c-4-3-8-5.9-12-8.9c-1.7-1.3-3.5-2.6-4.9-4.2c-0.4-0.5-0.8-1-0.9-1.6
		c-0.3-1.3,0.4-2.6,1.2-3.7c0.6-0.9,1.2-1.9,2.1-2.4c1.2-0.7,2.8-0.6,4.2-0.4c7.9,1.1,15.1,5.1,21.7,9.5
		C101.2,65.2,102.3,66.1,103.3,67"/>
	<path id="Fill-80" fill="#4D4D4D" d="M99.4,75.8c1.6,2.3,2.1,5.3,1.3,7.9c-0.9,2.6-3.3,4.8-6,5.1c-2.7,0.3-5.4-1.1-7.7-2.5
		c-7.4-4.5-14.1-10-20.1-16.3c-0.4-0.4-0.8-0.9-0.9-1.4c-0.2-0.7,0.1-1.4,0.4-2.1c1.1-2.4,2.8-4.9,5.5-5.1c1.1-0.1,2.2,0.3,3.2,0.7
		c7.3,2.6,14.6,5.5,20.7,10.2C97.1,73.2,98.4,74.4,99.4,75.8"/>
	<path id="Fill-82" fill="#FF6496" d="M98.3,78.3c1.6,2.3,2.1,5.3,1.3,7.9c-0.9,2.6-3.3,4.8-6,5.1c-2.7,0.3-5.4-1.1-7.7-2.5
		c-7.4-4.5-14.1-10-20.1-16.3C65.4,72,65,71.5,64.8,71c-0.2-0.7,0.1-1.4,0.4-2.1c1.1-2.4,2.8-4.9,5.5-5.1c1.1-0.1,2.2,0.3,3.2,0.7
		c7.3,2.6,14.6,5.5,20.7,10.2C96,75.7,97.3,76.8,98.3,78.3"/>
	<path id="Fill-84" fill="#4D4D4D" d="M56.8,73.4c-0.1-2.8,2.7-5.1,5.5-5.3c2.8-0.2,5.5,1,8,2.3c6.5,3.4,12.6,7.5,18.2,12.1
		c1.5,1.2,3,2.6,3.9,4.3c1.3,2.4,1.3,5.3,0.1,7.7c-1.2,2.4-3.7,4.1-6.4,4.4c-4.2,0.5-8-2.2-11.3-4.8c-3-2.4-5.9-4.8-8.7-7.5
		c-2.9-2.8-5.5-6-7.7-9.3C57.7,76.1,56.9,74.8,56.8,73.4"/>
	<path id="Fill-86" fill="#FF6496" d="M54.5,75.2c-0.1-2.8,2.7-5.1,5.5-5.3c2.8-0.2,5.5,1,8,2.3c6.5,3.4,12.6,7.5,18.2,12.1
		c1.5,1.2,3,2.6,3.9,4.3c1.3,2.4,1.3,5.3,0.1,7.7c-1.2,2.4-3.7,4.1-6.4,4.4c-4.2,0.5-8-2.2-11.3-4.8c-3-2.4-5.9-4.8-8.7-7.5
		c-2.9-2.8-5.5-6-7.7-9.3C55.3,77.9,54.6,76.6,54.5,75.2"/>
	<path id="Fill-88" fill="#4D4D4D" d="M51.4,68.6c-0.9-4.9,1-10.4,3.8-14.6c1.1-1.7,2.5-3.2,4.1-4.3c1.4-0.8,2.9-1.3,4.4-1.6
		c3.6-0.8,7.4-0.7,10.7,0.6c3.3,1.3,6.1,3.9,7.2,7.4c1,3.1,0.7,6.7-0.4,10c-1.1,3.3-2.9,6.3-4.8,9.2c-3.5,5.4-8.1,9.5-14,6.7
		c-6.4-3-9.6-5.6-11.1-13C51.4,68.8,51.4,68.7,51.4,68.6"/>
	<path id="Fill-90" fill="#FF6496" d="M42.8,68c-1-5.7,1.2-12.1,4.5-17.2c1.3-2,2.9-3.8,4.9-5c1.6-1,3.4-1.5,5.2-1.9
		c4.2-0.9,8.6-0.8,12.5,0.7c3.9,1.5,7.1,4.6,8.5,8.6c1.2,3.7,0.8,7.9-0.5,11.7c-1.3,3.8-3.4,7.4-5.6,10.8
		c-4.1,6.4-9.5,11.1-16.4,7.8c-7.5-3.6-11.2-6.5-13-15.2C42.9,68.2,42.9,68.1,42.8,68"/>
	<path id="Fill-92" fill="#4D4D4D" d="M71.3,54.8c-2.5,1.2-4.9,2.5-7.4,3.4c-2.9,1.1-5.9,1.5-9,2c-1.5,0.2-1.5,3.4,0.1,3.4
		c6.1,0.2,12.8-2.6,16.9-7C72.2,56.2,72.2,54.4,71.3,54.8"/>
	<path id="Fill-94" fill="#FF6496" d="M37.2,66.6c-0.2-0.1-0.3-0.2-0.5-0.3c-4.6-2.9,0.2-11.3,2-14.6c1.5-2.8,3.3-5.4,5.2-7.9
		c1-1.2,2-2.4,3.3-3.2c1.4-0.8,3.1-1,4.4-0.2c1.4,0.8,2,2.6,1.9,4.2c-0.1,1.6-0.8,3.1-1.4,4.6C50.3,53.5,44.2,70,37.2,66.6"/>
</g>
</svg>
