<svg id="_x38_9afd35e-89f8-40da-bea0-7cedde535f03" xmlns="http://www.w3.org/2000/svg" xmlns:xlink="http://www.w3.org/1999/xlink" viewBox="0 0 1279.3 459.9" enable-background="new 0 0 1279.3 459.9"><style>.st0{clip-path:url(#SVGID_2_)}.st1{fill:#40ceff}.st2{fill:#838384}.st3{fill:#a6aaad}.st4{fill:#d8d8d8}.st5,.st6{opacity:.2;fill:#979da5;enable-background:new}.st6{opacity:.3;fill:#a1bfbe}.st7{fill:#fff}.st8{clip-path:url(#SVGID_4_)}.st9{fill:#ffd1a4}.st10{fill:#ffdbb3}.st11{fill:#663b28}.st12{fill:#ffd097}.st13{fill:#ea8254}.st14{fill:#492c21}.st15{fill:#ffc48f}.st16{fill:#7ea0af}.st17{fill:#708e99}.st18{opacity:.65}.st19{fill:#8a4199}.st20{fill:#4972c1}.st21{fill:#269944}.st22{fill:#fce142}.st23{fill:#fc9e38}.st24{fill:#dd3e3e}.st25,.st26{opacity:.2;fill:#818587;enable-background:new}.st26{opacity:.25;fill:#abc5ce}.st27{opacity:.34}.st28{filter:url(#Adobe_OpacityMaskFilter)}.st29{mask:url(#bf001441-abe8-4dab-950d-d1d8514d0cd1)}.st30{opacity:.3}.st31{filter:url(#Adobe_OpacityMaskFilter_1_)}.st32{mask:url(#_x38_3ee72e5-fffc-4da4-9f5e-738a12b3d576)}.st33{fill:#45843a}.st34{fill:#54b247}.st35{fill:#684f3c}.st36{fill:#608958}</style><title>header_image_desktop</title><defs><path id="SVGID_1_" d="M1-.5h1278.9v460H1z"/></defs><clipPath id="SVGID_2_"><use xlink:href="#SVGID_1_" overflow="visible"/></clipPath><g class="st0"><path class="st1" d="M-25.7-31h1343.5v530.1H-25.7z"/><path class="st2" d="M1068.8 459.5H210.9c0-213.8 192-386.2 429-386.2s428.9 172.4 428.9 386.2z"/><path class="st3" d="M1049.8 459.5H229.3c0-205.2 183.7-369.4 410.2-369.4s410.3 164.2 410.3 369.4z"/><path class="st4" d="M1040.3 459.5H240.7c0-198.4 179-360 399.8-360s399.8 161.6 399.8 360z"/><path class="st5" d="M1040.3 459.5c0 33.9-173.3 61.7-398.9 61.7s-400.7-27.8-400.7-61.7c0-4.1.2-11.7.2-11.7 37.3-28.1 202.4-49.2 400.5-49.2 194.9 0 357.9 20.5 398.6 47.9 0 0 .3 8.4.3 13z"/><path class="st6" d="M495.3 153.5c0 7.3-2.3 9.4-5.5 9.4s-5.5-2.2-5.5-9.6 5.5-17 5.5-17 5.5 9.8 5.5 17.2zM674 127.2c0 7.3-2.3 9.4-5.5 9.4s-5.5-2.2-5.5-9.6 5.5-17 5.5-17 5.5 9.8 5.5 17.2zM839.9 197.3c0 7.3-2.3 9.4-5.5 9.4s-5.5-2.2-5.5-9.6 5.5-17 5.5-17 5.5 9.9 5.5 17.2zM906.6 276.2c0 7.3-2.3 9.4-5.5 9.4s-5.5-2.2-5.5-9.6 5.5-17 5.5-17 5.5 9.8 5.5 17.2zM905.3 206.6c0 5.5-1.8 7.1-4.2 7.1s-4.1-1.7-4.1-7.2 4.1-12.8 4.1-12.8 4.2 7.3 4.2 12.9zM709.7 226.1c0 5.5-1.8 7.1-4.2 7.1s-4.1-1.7-4.1-7.2 4.1-12.8 4.1-12.8 4.2 7.4 4.2 12.9zM1017.9 380c0 7.3-2.3 9.4-5.5 9.4s-5.5-2.2-5.5-9.6 5.5-17 5.5-17 5.5 9.9 5.5 17.2zM478.6 222.7c0 5.5-1.8 7.1-4.2 7.1s-4.1-1.7-4.1-7.2 4.1-12.8 4.1-12.8 4.2 7.4 4.2 12.9zM563.4 234.4c0 7.3-2.3 9.4-5.5 9.4s-5.5-2.2-5.5-9.6 5.5-17 5.5-17 5.5 9.8 5.5 17.2zM573.9 120.7c0 4.9-1.6 6.2-3.7 6.2s-3.6-1.5-3.6-6.3 3.6-11.3 3.6-11.3 3.7 6.6 3.7 11.4zM527.7 341.6c0 7.3-2.3 9.4-5.5 9.4s-5.5-2.2-5.5-9.6 5.5-17 5.5-17 5.5 9.8 5.5 17.2zM498.9 368.9c0 3.4-1.1 4.4-2.6 4.4s-2.6-1-2.6-4.5 2.6-7.9 2.6-7.9 2.6 4.5 2.6 8zM279.8 408c0 3.4-1.1 4.4-2.6 4.4s-2.6-1-2.6-4.5 2.6-7.9 2.6-7.9 2.6 4.5 2.6 8zM656.5 193.9c0 7.3-2.3 9.4-5.5 9.4s-5.5-2.2-5.5-9.6 5.5-17 5.5-17 5.5 9.9 5.5 17.2zM610.7 172.7c0 6-1.9 7.7-4.6 7.7s-4.5-1.8-4.5-7.9 4.5-13.9 4.5-13.9 4.6 8 4.6 14.1zM758.1 250.4c0 5.8-1.9 7.5-4.4 7.5s-4.4-1.8-4.4-7.6 4.4-13.5 4.4-13.5 4.4 7.8 4.4 13.6zM780.7 315.2c0 6.1-2 7.8-4.6 7.8s-4.6-1.9-4.6-8 4.6-14.2 4.6-14.2 4.6 8.2 4.6 14.4zM767.8 396.5c0 5.1-1.6 6.6-3.9 6.6s-3.9-1.6-3.9-6.7 3.9-11.9 3.9-11.9 3.9 6.8 3.9 12zM645.2 395.5c0 4.7-1.5 6.1-3.6 6.1s-3.6-1.4-3.6-6.2 3.6-11 3.6-11 3.6 6.4 3.6 11.1zM623.6 260.7c0 4.7-1.5 6.1-3.6 6.1s-3.6-1.4-3.6-6.2 3.6-11 3.6-11 3.6 6.4 3.6 11.1zM818.3 233.7c0 7.3-2.3 9.4-5.5 9.4s-5.5-2.2-5.5-9.6 5.5-17 5.5-17 5.5 9.9 5.5 17.2zM752.9 196.4c0 5.2-1.7 6.7-3.9 6.7s-3.9-1.6-3.9-6.8 3.9-12.1 3.9-12.1 3.9 7 3.9 12.2zM400.1 353.7c0 5-1.6 6.4-3.8 6.4s-3.7-1.5-3.7-6.5 3.7-11.6 3.7-11.6 3.8 6.7 3.8 11.7zM394.9 240.4c0 7.3-2.3 9.4-5.5 9.4s-5.5-2.2-5.5-9.6 5.5-17 5.5-17 5.5 9.9 5.5 17.2zM285 355.1c0 7.3-2.3 9.4-5.5 9.4s-5.5-2.2-5.5-9.6 5.5-17 5.5-17 5.5 9.8 5.5 17.2z"/><path class="st7" d="M985.5 53.2c-3.4-6.9-11.1-11.5-23.7-11.5-17.8 0-29.5 9.4-29.6 21.4-13.9.7-22.4 8-22.4 17.2s9.5 17.2 24.8 17.2c7.4 1 17.5 1.2 28.5 1.2l16.8-.2c.2 0 .4-.3.6-.3l.6-.2c19.5-.9 27.6-3.3 33.6-11.3 12.3-16.6-10-43.2-29.2-33.5zM347.7 51.2c-.1-8.2-8.1-14.7-20.3-14.7-8.7 0-13.9 3.1-16.3 7.9-13.2-6.6-28.5 11.6-20 22.9 4.1 5.4 9.7 7.1 23 7.7l.5-.3.4-.3c3.5 0 7.4.5 11.5.5 7.6 0 14.5-.5 19.6-.5 10.5 0 17-5 17-11.7s-5.9-11-15.4-11.5zM271.9 68.9c-7.6 0-13.7 2.6-13.5 9s5.8 9 13.4 9 12.6-3.8 12.6-8.9-4.9-9.1-12.5-9.1z"/></g><g><defs><path id="SVGID_3_" d="M0 0h1279.3v459.5H0z"/></defs><clipPath id="SVGID_4_"><use xlink:href="#SVGID_3_" overflow="visible"/></clipPath><g class="st8"><path class="st9" d="M727.6 319.6c-.2-3.6-1.7-6.9-3.1-10.1s-3.2-6.6-6.1-8.9-5.6-2.8-8.6-3.5-8.2-1.7-12.4-1c-4 .6-8 1.6-11.9 2.9-3.8 1.3-7.2 3.6-10.6 5.7-5.5 3.5-8.8 8.5-9.1 15.1-.2 3.6 1.5 6.5 2 10 .7 3.6 2 7.1 3.9 10.3 3.3 6.2 7.6 11.6 13.6 15.4 1.6 1 3.4 1.8 5.2 2.3.7 2.9 0 6.5-2 8.6s2.9 5.3 5.2 5.6c4.5.6 12.2.9 15.7-2.9.2-.2.3-.5.2-.8-.1-.3-.2-.7-.5-.9-1.5-1-2.4-2.7-2.4-4.5-.2-1.8-.2-3.5-.1-5.3 7.5-2.5 12.4-9 16-16 1.7-3.5 2.3-7 3.3-10.7s2-7.1 1.7-11.3z"/><path class="st10" d="M613.1 303.3c-2.3-2.2-5.7-3.4-8.7-4.4-4.1-1.4-8.4-2.1-12.7-1.9-7.7.3-15.5 3-22.2 6.6-5.1 2.7-11.7 7.2-12.3 13.6-.1 1.9.1 3.9.7 5.7.3 1.2.7 2.3 1.1 3.4.3 1.2.4 2.5.5 3.7.8 4.7 2.9 8.9 5.3 13 3.5 5.8 8.1 11.1 14.3 14l3.1 1.2c0 1-.1 2-.2 3-.2 1.8-.5 3.6-.6 5.4-.5 5.5 9.3 5.3 12.9 5.1s4.5-1.3 5.2-3.7-.7-2.8-1.1-3.8c-.8-1.9-1.1-4-1.1-6.1h.4c6.6-2 11.2-7.2 14.6-13s5-14.8 6.7-22.8c1.5-6.2-1.2-14.5-5.9-19zM544.2 418.2c-3-.1-5.5 4.9-6.4 7.1-2 4.7-3.8 9.4-5.5 14.2s-3 9.7-1.7 14.3c.4 1.6 2.8 4 4.6 3.5 1-.2 1.7-1 1.8-2 .2-1-.1-2.1.1-3.2s.5-2.6.9-3.9c1.5-4.6 5-8.7 7.6-12.7s5.1-7.5 5.2-11.7-3.9-5.5-6.6-5.6zM648 436.6c-.6-1.9-1.4-3.8-2.2-5.7-1-2.3-1.6-4.7-2.6-6.9s-3.9-6.4-7.6-5.2c-1.8.8-3.6 1.7-5.3 2.7-1 .4-1.7 1.4-1.5 2.5 1.3 4.6 4.8 8.1 7.3 12.1s6.2 8.5 7.5 13.2c.6 2.1-.6 8.4 3.2 8.1s3.9-3.1 4.2-5.2c.8-5.4-1.2-10.7-3-15.6z"/><path class="st11" d="M631.4 318.6c-.6-2-1.4-4-2.2-6l-2.9-6.9c-2.3-6.2-5.8-11.9-10.1-16.9-4.8-5.3-11-8.2-17.9-9.7-14.5-3.2-29.7 1.4-39.3 12.8-4.7 5.6-7.8 12.3-10.6 19l-2.3 5.5c-.6 1.4-1.7 2.9-2 4.4s2.1 5 4 6.6c3.4 2.6 7.3 4.3 11.5 5.1.5.1 1-.2 1.1-.7v-.1c-.1-5.7-1-15 7.1-15.4s14.6.1 21.9.1 13.8.2 20.6-.3 6.1 9.6 5.4 14.3c-.2.5.1 1 .5 1.1.1 0 .2.1.4.1h.4c5.2-1.1 12.4-3.7 14.6-9.1.8-1.4.2-2.7-.2-3.9z"/><path class="st12" d="M590.5 336.2c-.1-3-1.5-16-1.4-15.9-.5 4.6-1.7 10.3-2.1 15.8 0 .4.3 1.7.7 1.9.4.1.9.2 1.3.1.8.1 1.5-.4 1.6-1.2 0-.2 0-.5-.1-.7z"/><path class="st13" d="M586.5 345.4l5.5-.2c.5-.2.7-.7.6-1.1-.1-.3-.3-.5-.6-.6l-5.5.2c-.5.2-.7.7-.6 1.1.1.3.3.5.6.6z"/><path class="st14" d="M740.1 344.8c-1-4.5-.8-9-1.4-13.5-2.1-15.5-4.6-33.6-16.4-45.1-10.1-9.8-25.9-11.4-38.7-6.6s-21.4 16.7-25.2 30.3c-2 7.6-2.9 15.4-2.9 23.2-.1 4 .1 8 .4 12 .2 2-.3 3.9-.2 5.9s.6 1.5 1.6 2.1c6.1 3.6 14.7 5.8 21.7 4 2-.5 4.7-1.4 5.4-3.5.1-.8-.3-1.6-.9-2.1-1.5-1.5-3-3-4.3-4.6-2.5-3-4.6-6.4-6.3-10-1.6-3.3-4.3-9-2.7-12.7s4-4.3 6-5.7c2.8-2 5.9-3.6 9.2-4.5 8.2-2 16.7-1.9 24.8.3 4.1 1.1 8 3.2 11.2 6 2 1.5 3.2 3.8 3.5 6.3.1 2.2-1.1 4.8-1.8 6.9-2.1 6.5-4.7 13-9.8 17.8-.3.3-.3.9 0 1.2 1.7 1.6 3.8 2.6 6 2.9h.2c3.5.6 7.2.6 10.7-.1 3.1-.6 6.9-1.5 9.5-3.6s1-4.1.4-6.9z"/><path class="st15" d="M698.9 335.1c-.1-3-1.5-16-1.4-15.9-.5 4.6-1.7 10.3-2.1 15.8 0 .4.3 1.7.7 1.9.4.1.9.2 1.3.1.8.1 1.5-.4 1.6-1.2 0-.2 0-.5-.1-.7z"/><path class="st13" d="M694.9 344.3l5.5-.2c.5-.2.7-.7.6-1.1-.1-.3-.3-.5-.6-.6l-5.5.2c-.5.2-.7.7-.6 1.1.1.3.3.5.6.6z"/><path class="st9" d="M655.2 419.9c-3.1-1.9-6.3.5-7.6 3.2-2.3 4.5-4.2 9.3-6.1 14-1.9 4.4-2.9 9.2-2.9 14 .1 2.5 1 5.3 3.6 6.1s3.3-1.8 3.5-3.9c.9-4.9 3-9.5 6-13.5 2.7-3.6 5.3-7.6 6.4-12 .9-3-.3-6.2-2.9-7.9zM755.8 436.6l-2.7-6.8c-.7-1.5-1.1-3-1.4-4.6 0-.8-.2-1.6-.5-2.3-1.7-3.3-5.3-5.1-8.9-4.5-10.2 1.3-.9 14.1 1.8 18.1s6.5 8.9 7.6 13.8c.4 1.3.5 2.7.5 4.1-.1.6 0 1.2.2 1.8.4.8 1.4 1.3 2.3 1.2 2.6-.2 3.9-3.1 4.2-5.2.7-5.4-1.2-10.7-3.1-15.6z"/><path class="st16" d="M644 424.5c-6.1-15.6-12.2-31.5-21.1-45.8-3.1-5.3-7.6-9.7-13-12.7-2.6-1.4-5.5-2.3-8.4-2.6-1-.1-3.1-.7-4.1-.1s-1.3 1.1-2.1 1.5c-1.4.6-2.8.9-4.3.9-2.3.2-4.5-.2-6.6-1.1-1.5-.7-2-1.6-3.7-1.6-3.2.1-6.4.8-9.4 2.1-5.6 2.4-9.7 7.3-13 12.2-9.2 13.8-15.2 29.8-21.2 45.2l-.7 1.8c-.1.4.1.8.4 1 3.5 2.3 7.3 4.8 11.4 6.1.4.1.8-.1 1-.4 3.9-6.5 7.8-13.2 11.4-19.9-3 12.2-3.5 25-3.8 37.5v6.8c-.2 1.3.1 2.6.7 3.7.6.9 2 1 2.9 1.2l7.3 1.6c8.4 1.7 17 2.7 25.6 2.9 8.5.2 17.1-.6 25.4-2.4 1.6-.3 5.9-.6 6.5-2.5.3-1.3.4-2.6.3-3.9 0-8.8-1.2-17.7-2.1-26.5-.6-5.9-1.7-11.8-3.2-17.6 3.5 6.4 7.1 12.7 10.8 18.9.2.3.6.5 1 .4 4-1.2 7.9-3.7 11.4-6.1.3-.1.5-.3.6-.6z"/><path class="st17" d="M752.4 424.5c-6.4-16.4-12.5-33.9-22.8-48.3-3.7-5.5-9.1-9.6-15.3-11.8-1.7-.6-3.5-.9-5.3-1.1-2.4-.3-2.3-.2-2.5 0-3.6 2.6-14.6 1.5-16.3-.1-12.2.5-20.2 8.8-26.1 18.9-7.9 13.4-13.5 28-19.1 42.4-.1.4.1.8.4 1 3.5 2.3 7.3 4.8 11.4 6.1.4.1.8-.1 1-.4 3.9-6.5 7.8-13.2 11.4-19.9-3 12.2-3.6 25-3.8 37.5 0 2.3-.1 4.5 0 6.8-.2 1.3.1 2.6.7 3.7.6.9 2 1 2.9 1.2l7.3 1.6c8.4 1.7 17 2.7 25.6 3 8.5.2 17.1-.6 25.4-2.4 1.6-.3 5.9-.6 6.5-2.5.3-1.3.4-2.6.3-3.9 0-8.8-1.2-17.7-2.1-26.5-.6-5.9-1.7-11.8-3.2-17.6 3.5 6.4 7.1 12.7 10.8 18.9.2.3.6.5 1 .4 4-1.2 7.9-3.7 11.4-6.1.3-.2.5-.5.4-.9z"/><path class="st9" d="M985.6 310.3c-1.1-3.5-3-6.7-5.5-9.4-4.7-5.2-13-6.7-19.6-6.8-7.5 0-14.8 2.1-21.2 6-5.9 3.5-10.9 8.8-13.3 15.4s-1.1 15.4 1 22.2c2.8 9 9.9 16 19 18.6.2.6.4 1.3.5 2 .2 2.5-.7 5.1-1.4 7.4V366.3c-.3 5.4 10.1 4.9 13.5 4 1.4-.4 6-1.8 6-3.7s-.9-2.5-1.4-3.7c-.8-1.8-1-3.9-.6-5.9 8.5-1.7 13.7-7.7 17.6-15.1 1.7-3.4 2.9-7 3.7-10.7.4-1.9.3-3.9.6-5.8s1.9-3.3 2.4-5-.3-7.1-1.3-10.1zM912.7 425.4c-2.2-1.2-4.4-2.1-6.7-3.2-.6-.3-1.6-.6-2.2-.1-2.9 2.7-4.4 7.1-5.7 10.7-1.7 4.4-3 8.9-3.7 13.6-.4 3.3-.7 6.8 1.6 9.4s3.4 2 4.6.4l.2-.3c.1-.1.1-.3.1-.4.5-2 .3-4.1.6-6.1s1.9-4.8 3-7c1-1.7 2.1-3.4 3.4-4.9 1.3-1.8 2.3-3.9 3.5-5.8s4.1-4.8 1.3-6.3zM1012.4 436.4c-1.6-4.2-3-8.6-5.1-12.5-1.3-2.7-4.2-4.2-7.2-3.7-3 .6-4.6 3.6-4.5 6.4.2 1.5.8 3 1.7 4.3 1.4 2.4 2.9 4.7 4.4 7.1 2.9 4.5 5.8 8.7 6.8 14 .3 1.5-.3 6.3 2.9 5.2 8.2-2.7 3-15.6 1-20.8z"/><path class="st10" d="M874.5 319c-.2-4-.2-8-1.5-11.8-1.3-3.4-3.1-6.5-5.4-9.3-4.6-5.7-10.4-9.3-17.9-8.6s-15.9 4.4-22.1 8.7c-11.8 8.2-14.3 24.6-11.3 37.8 2.4 10.3 10.3 18.5 20.5 21.4.6 3.8.7 8.9-2.8 10.1-.5.2-.7.7-.6 1.1.1.3.3.5.6.6 3.7 1.5 7.7 2.2 11.7 2.1 3.5-.1 8.4-.7 11.2-2.8.2-.2.4-.4.4-.7 0-.6-.3-1.1-.7-1.5-1.4-1.4-2.4-1.8-2.9-3.9-.3-1.5-.4-3-.3-4.5 3-.7 5.9-2 8.3-3.9 3.5-3.1 6.4-6.8 8.4-11 4-7.8 4.8-15.5 4.4-23.8zM800.2 417.2c-3.2.8-6.6 4.3-7.8 7.3s-3.4 9.2-5.1 13.8-3.5 10.2-2.2 15c.5 1.7 2.7 4.4 4.8 3.9 1-.2 1.7-1.1 1.8-2.1.2-1-.1-2.1.1-3.2s.5-2.6.9-3.9c1.5-4.5 5-8.7 7.7-12.6 1.4-2.2 2.7-4.6 3.7-7 .9-2.1 1.8-3.5 1.9-5.8s-2.8-6.2-5.8-5.4zM903.6 436.4c-1.6-4.2-3-8.6-4.8-12.7s-3.6-6.6-7.4-6c-11.3 1.6-2.3 14.4.9 19.3s5.9 8.1 7.1 13c.4 1.4.5 2.8.5 4.2-.1.6 0 1.2.2 1.8.4.8 1.4 1.3 2.3 1.2 2.6-.2 4-3.1 4.3-5.3.7-5.3-1.2-10.6-3.1-15.5z"/><path class="st11" d="M877.6 294.5c-5.5-11.7-17.9-16.8-30.2-17.5s-24.8 4.7-31.9 14.2c-3.9 5.1-6.1 11.4-6.4 17.8-.4 7.3 2.6 14.1 6.4 20.2.3.4.8.5 1.2.3.2-.1.3-.3.4-.5 2.9-10.2 14.4-13.9 23.2-17.4 5.3-2.1 12-3.8 16.7-7.6 6.7 6.3 14.7 12.8 16.2 22.4.1.8 1.2.7 1.6.2 6.7-9.4 7.8-21.7 2.8-32.1z"/><path class="st15" d="M846.8 335.7c-.1-3-1.5-16.1-1.5-16-.5 4.6-1.7 10.4-2.1 15.9 0 .4.3 1.8.7 1.9.4.1.9.2 1.3.1.8.2 1.5-.3 1.7-1.1 0-.2 0-.5-.1-.8z"/><path class="st13" d="M842.8 345l5.6-.2c.5-.2.7-.7.6-1.1-.1-.3-.3-.5-.6-.6l-5.6.2c-.5.2-.7.7-.6 1.1.1.3.3.5.6.6z"/><path class="st14" d="M993.2 314.5c-.9-6.6-2.8-13.1-5.7-19.1-6.3-12.6-19.6-19.3-33.5-19-15.7.4-29.2 11-35.2 25-3.4 8.1-5 16.9-4.5 25.7.4 8 2.1 17.7 8.2 23.5h.1c3.8 3.1 10.6 4.6 14.4.5.2-.2.3-.5.2-.8-.2-.6-.6-1.1-1.2-1.5-1.1-.9-2.1-2-2.9-3.3-2-2.9-3.6-6.1-4.8-9.4-.9-2.6-1.3-5.3-1.1-8 .1-3.4 3.5-7.1 6.1-9 5.4-3.9 11.5-5.8 17.7-8.2s11.4-3.7 15.9-7.3c5.8 5.6 12.5 11.2 15.4 19.1 1.4 3.8-.3 9.1-1.5 12.7-1.3 4.1-3.3 7.9-5.8 11.4-3.6 4.9 6.2 6 9.1 5.4 6.3-1.4 9.6-8.8 10.2-14.6 1-7.7.1-15.5-1.1-23.1z"/><path class="st15" d="M956.7 335.1c-.1-3-1.5-16.1-1.5-16-.5 4.6-1.7 10.4-2.1 15.9 0 .4.3 1.8.7 1.9.4.1.9.2 1.3.1.8.2 1.5-.3 1.7-1.1 0-.2 0-.5-.1-.8z"/><path class="st13" d="M952.7 344.4l5.6-.2c.5-.2.7-.7.6-1.1-.1-.3-.3-.5-.6-.6l-5.6.2c-.5.2-.7.7-.6 1.1.1.3.3.5.6.6z"/><path class="st16" d="M899.7 424.1c-6.2-15.8-12.3-31.7-21.3-46.2-3.2-5.2-7.3-9.9-12.7-12.9-2.6-1.4-5.4-2.3-8.3-2.7-1-.1-3.1-.7-4.1-.1-2.6 1.5-4 2.3-7 2.5-2.1.2-4.3-.2-6.2-1.1-1.4-.7-2-1.6-3.6-1.6-3.3.1-6.6.8-9.6 2.2-5.7 2.4-10.1 7.3-13.5 12.3-9.4 13.9-15.3 30.1-21.4 45.6l-.7 1.9c-.1.4.1.8.4 1 3.5 2.4 7.4 4.9 11.5 6.1.4.1.8-.1 1-.4 3.9-6.6 7.8-13.3 11.5-20.1-3.1 12.3-3.6 25.2-3.8 37.9v6.9c-.2 1.3.1 2.6.7 3.8.6.9 2 1 2.9 1.2l7.4 1.6c8.5 1.7 17.2 2.7 25.9 3 8.6.3 17.3-.6 25.7-2.4 1.6-.3 5.9-.6 6.6-2.5.3-1.3.4-2.6.3-3.9 0-8.9-1.2-17.8-2.1-26.7-.6-6-1.7-11.9-3.2-17.7 3.5 6.5 7.2 12.8 10.9 19.1.2.3.6.5 1 .4 4.1-1.3 8-3.8 11.5-6.1.3-.3.4-.7.2-1.1z"/><path class="st17" d="M1009 424.1c-6.4-16.5-12.6-34.2-23-48.7-3.7-5.5-9.1-9.7-15.4-11.9-1.7-.6-3.5-.9-5.3-1.1-1-.1-2-.5-2.4-.1-2 2.2-11.7 2.4-15.3.5l-1.3-.7c-12.3.5-20.4 9-26.3 19.2-7.9 13.5-13.6 28.2-19.3 42.8-.1.4.1.8.4 1 3.5 2.4 7.4 4.9 11.5 6.1.4.1.8-.1 1-.4 3.9-6.6 7.8-13.3 11.5-20.1-3.1 12.3-3.6 25.2-3.8 37.9v6.9c-.2 1.3.1 2.6.7 3.8.6.9 2 1 2.9 1.2l7.4 1.6c8.5 1.7 17.2 2.7 25.9 3 8.6.3 17.3-.6 25.7-2.4 1.6-.3 5.9-.6 6.6-2.5.3-1.3.4-2.6.3-3.9 0-8.9-1.2-17.8-2.1-26.7-.6-6-1.7-11.9-3.2-17.7 3.5 6.5 7.2 12.8 10.9 19.1.2.3.6.5 1 .4 4.1-1.3 8-3.8 11.5-6.1.3-.3.4-.8.1-1.2z"/><path class="st10" d="M360.4 302.3c-4-5.3-9.9-9-16.5-10.3-7.2-1.4-15.3-.3-22.5 1.1s-11.7 3.7-14.7 9.2-3 11.4-2.6 17c.9 12.4 5.5 25.7 15 34.1 2.7 2.4 5.8 4.2 9.2 5.3.2 2.1.2 4.1-.1 6.2-.2 1.1-1 2.1-1.2 3.2-.1.2-.1.5 0 .7l.3.3c3.6 4.3 12.2 3.9 17.1 2.4 2.1-.6 2.3-2.2 1.5-4-1-2.2-1.6-4.5-1.7-6.9 0-.7.1-1.4.2-2.1 7.4-2.7 13.2-9.1 16-16.4 4.8-12.8 9.4-27.8 0-39.8z"/><path class="st9" d="M473.8 303.8c-1.5-3.6-3.5-7-5.2-10.5-1.7-3.6-3.8-7-6.3-10.2-8.3-10.2-23.8-12.7-35-6.3-5.5 3.3-9.7 8.3-12 14.2-2.8 6.9-2.1 15.3-1.8 22.6.2 7.9 1.4 15.8 3.6 23.4 2.2 7.3 7.1 12.7 13 17.4 2.3 1.8 4.8 3.2 7.6 4v3c0 1-.7 4.5-.1 6.6s1.6 1.3 2.6 1.4c2.5 0 5.1-.2 7.6-.6 1.7-.2 6.3 0 6.9-2.3s-.2-2.8-.7-4.1c-.4-1.3-.7-2.6-.8-3.9 2.1-.6 4.1-1.5 6-2.7 10.4-6.5 13.8-19.6 15.5-30.9.8-6.9 1.8-14.4-.9-21.1z"/><path class="st12" d="M337.2 336.7c-.1-3-1.5-16.1-1.5-16-.5 4.6-1.8 10.4-2.1 16 0 .4.3 1.8.7 1.9.4.1.9.2 1.3.1.7.2 1.5-.2 1.7-1 .1-.3.1-.7-.1-1z"/><path class="st13" d="M333.2 346l5.6-.2c.5-.2.7-.7.6-1.1-.1-.3-.3-.5-.6-.6l-5.6.2c-.5.2-.7.7-.6 1.1.1.3.3.5.6.6z"/><path class="st11" d="M368 291.8c-3-9.6-12.4-15.6-21.6-18-10.9-2.8-23.9-.4-33.3 5.7s-13.9 17.6-12.4 28.3c.3 2 .8 4 1.3 5.9.2.8.5 2.4 1.2 3s4-.1 5.6-.8c3-1.4 5.8-3.3 8.2-5.7 2-1.8 3.7-4 4.9-6.5 2.1 2.2 5 3.4 7.8 4.6 4.1 1.8 8.4 2.8 12.8 3.2 7.9.6 17.3-.7 21.6 7.6.2.4.8.6 1.2.3.1 0 .1-.1.2-.1 6.2-7.4 5.2-18.9 2.5-27.5z"/><path class="st15" d="M446.2 335.6c-.1-3-1.5-16.1-1.5-16-.5 4.6-1.8 10.4-2.1 16 0 .4.3 1.8.7 1.9.4.1.9.2 1.3.1.7.2 1.5-.2 1.7-1 .1-.3.1-.7-.1-1z"/><path class="st13" d="M442.2 344.9l5.6-.2c.5-.2.7-.7.6-1.1-.1-.3-.3-.5-.6-.6l-5.6.2c-.5.2-.7.7-.6 1.1.1.3.3.5.6.6z"/><path class="st14" d="M481 284.9c-1.6-9.4-8.3-15.9-16.6-20-8.1-3.9-17.2-4.9-26-3.1-6.9 1.4-13.6 4.7-16.3 11.4-.7-.3-1.5-.5-2.3-.7-1.3 0-2.5.4-3.6 1.1-2.7 1.4-4.6 4.2-6 6.9-2.8 5.7-2.5 13.2-1.5 19.3.5 3 1.4 5.9 2.7 8.7 1 2.2 1.7 4 4.2 3.2 6.9-2.4 13.1-6.3 18.3-11.4 12.9 5.2 26.4 8.8 40.2 11 .4.1.8-.1 1-.4 4.6-7.9 7.5-16.9 5.9-26z"/><path class="st10" d="M295.9 427.7c-.3-1-2.1-1.4-2.7-2.1s-3-3.2-4.5-3.4c-3.1-.4-5.3 3.7-6.1 6.1-2.8 8.2-9.1 18.3-6.6 27.3.4 1.6 2.8 4 4.7 3.6 1-.2 1.7-1.1 1.8-2.1.2-1-.1-2.2.1-3.2s.5-2.6.9-3.9c1.4-4.4 4.8-8.6 7.5-12.3s5.8-6.8 4.9-10z"/><path class="st9" d="M400.4 423c-3.4-1.3-6.3-1.1-7.8 2.5s-2.7 9.4-4.3 14-3.5 9.8-2.7 15.5v.2c.5 1.7 2.7 4.7 4.8 3.9s2-4.3 2.4-6.5c.4-2.4 1.3-4.6 2.5-6.7 1.3-2.2 2.7-4.3 3.8-6.6 1.9-3.9 5.7-7.3 6.6-11.6.6-2.8-3.4-4-5.3-4.7z"/><path class="st10" d="M394.8 438.2c-1.5-4-2.7-8.1-4.7-11.8-1-2-3.6-6.7-6.4-5.2s-4.1 1.9-5.6 3.2-.9 1.9-.4 3.4c1.6 4.5 4.3 8.6 6.8 12.6 1.2 1.9 2.5 3.7 3.7 5.5 1.4 2.4 2.4 5.1 2.8 7.9.3 1.5-.3 6.3 2.9 5.2 8.1-2.6 2.8-15.6.9-20.8z"/><path class="st9" d="M503.8 438.2l-2.9-7.4c-.7-1.8-.8-3.7-1.3-5.5-.6-2.3-2.9-3.7-5.2-3.1l-.9.3c-2 .9-7.5 4.4-6.5 7.2.8 1.8 1.8 3.6 3 5.2l4.5 7.2c2.6 4.2 5.3 7.9 5.5 13.1.1 2.1.4 4.6 3.2 3.6s3.4-3.7 3.7-6.2c.5-4.8-1.4-9.8-3.1-14.4z"/><path class="st16" d="M390.8 425.9c-6.2-15.8-12.4-31.8-21.3-46.3-3.3-5.3-7.4-10.1-12.8-13.2-2.6-1.4-5.4-2.4-8.3-2.7-1-.1-3.1-.7-4.1-.1s-1.4 1.2-2.2 1.6c-3.6 1.6-7.7 1.7-11.3.2-1.5-.7-2-1.6-3.7-1.6-3.3.1-6.5.8-9.5 2.2-5.6 2.5-9.9 7.4-13.2 12.4-9.3 14-15.4 30.2-21.4 45.7l-.7 1.9c-.1.4.1.8.4 1 3.5 2.4 7.4 4.9 11.5 6.1.4.1.8-.1 1-.4 3.9-6.6 7.8-13.3 11.5-20.2-3.1 12.3-3.6 25.3-3.8 37.9v6.9c-.2 1.3.1 2.6.7 3.8.6.9 2 1 2.9 1.2l7.4 1.6c8.5 1.7 17.2 2.7 25.9 3 8.6.3 17.3-.6 25.7-2.4 1.6-.3 5.9-.6 6.6-2.5.3-1.3.4-2.6.3-3.9 0-8.9-1.2-17.9-2.1-26.7-.6-6-1.6-12-3.2-17.8 3.5 6.5 7.2 12.8 10.9 19.1.2.3.6.5 1 .4 4.1-1.3 8-3.8 11.5-6.1.3-.2.5-.7.3-1.1z"/><path class="st17" d="M500.4 425.9c-6.6-16.8-12.9-34.7-23.5-49.5-3.8-5.4-8.8-9.8-15.2-11.8-1.7-.5-3.5-.8-5.3-.9-2.4-.2-2.3.4-4.3 1.6-4.2 2.4-10.5 1.5-14.2-1.2h-.2c-.2-.1-.4-.2-.6-.1-12.5.2-20 9-25.9 19.1-7.9 13.6-13.6 28.3-19.3 42.9-.1.4.1.8.4 1 3.5 2.4 7.4 4.9 11.5 6.1.4.1.8-.1 1-.4 4-6.6 7.9-13.3 11.5-20.2-1.6 6.4-2.7 13-3.1 19.6-.3 4.6-.5 9.2-.7 13.8-.1 2.3-.1 4.6-.1 6.9s-.4 4.7.1 6.8 4.2 3 6.7 3.6c4.6 1 9.2 1.8 13.8 2.5 8.6 1.3 17.3 1.7 26 1.2 4-.2 8-.7 11.9-1.4l6.3-1.4c1.2-.3 3.5-.5 4.3-1.6s.5-6.8.3-9.1c-.7-12.1-1.7-24.3-4.5-36.1-.4-1.6-.8-3.2-1.3-4.8 3.7 6.9 7.6 13.6 11.5 20.2.2.3.6.5 1 .4 4.1-1.3 8-3.8 11.5-6.1.4-.2.6-.7.4-1.1z"/><g class="st18"><path class="st19" d="M320.5 414.4h32.4v20.2h-32.4z"/><path class="st20" d="M320.5 414.4h32.4v16.9h-32.4z"/><path class="st21" d="M320.5 414.4h32.4v13.5h-32.4z"/><path class="st22" d="M320.5 414.4h32.4v10.1h-32.4z"/><path class="st23" d="M320.5 414.4h32.4v6.8h-32.4z"/><path class="st24" d="M320.5 414.4h32.4v3.4h-32.4z"/></g><g class="st18"><path class="st19" d="M430.4 414.4h32.4v20.2h-32.4z"/><path class="st20" d="M430.4 414.4h32.4v16.9h-32.4z"/><path class="st21" d="M430.4 414.4h32.4v13.5h-32.4z"/><path class="st22" d="M430.4 414.4h32.4v10.1h-32.4z"/><path class="st23" d="M430.4 414.4h32.4v6.8h-32.4z"/><path class="st24" d="M430.4 414.4h32.4v3.4h-32.4z"/></g><g class="st18"><path class="st19" d="M574.6 414.4H607v20.2h-32.4z"/><path class="st20" d="M574.6 414.4H607v16.9h-32.4z"/><path class="st21" d="M574.6 414.4H607v13.5h-32.4z"/><path class="st22" d="M574.6 414.4H607v10.1h-32.4z"/><path class="st23" d="M574.6 414.4H607v6.8h-32.4z"/><path class="st24" d="M574.6 414.4H607v3.4h-32.4z"/></g><g class="st18"><path class="st19" d="M684.7 414.4h32.4v20.2h-32.4z"/><path class="st20" d="M684.7 414.4h32.4v16.9h-32.4z"/><path class="st21" d="M684.7 414.4h32.4v13.5h-32.4z"/><path class="st22" d="M684.7 414.4h32.4v10.1h-32.4z"/><path class="st23" d="M684.7 414.4h32.4v6.8h-32.4z"/><path class="st24" d="M684.7 414.4h32.4v3.4h-32.4z"/></g><g class="st18"><path class="st19" d="M828.8 414.4h32.4v20.2h-32.4z"/><path class="st20" d="M828.8 414.4h32.4v16.9h-32.4z"/><path class="st21" d="M828.8 414.4h32.4v13.5h-32.4z"/><path class="st22" d="M828.8 414.4h32.4v10.1h-32.4z"/><path class="st23" d="M828.8 414.4h32.4v6.8h-32.4z"/><path class="st24" d="M828.8 414.4h32.4v3.4h-32.4z"/></g><g class="st18"><path class="st19" d="M938.9 414.4h32.4v20.2h-32.4z"/><path class="st20" d="M938.9 414.4h32.4v16.9h-32.4z"/><path class="st21" d="M938.9 414.4h32.4v13.5h-32.4z"/><path class="st22" d="M938.9 414.4h32.4v10.1h-32.4z"/><path class="st23" d="M938.9 414.4h32.4v6.8h-32.4z"/><path class="st24" d="M938.9 414.4h32.4v3.4h-32.4z"/></g><path class="st25" d="M801.5 153.6c-2.1-4.5-7-7.5-15.1-7.7-1.7 0-3.3.1-5 .3-6.3-7.4-16.4-11.5-26-6.9-3.3-7-10.9-11.7-23.5-11.9-17.8-.3-29.6 8.9-30 20.8-13.9.4-22.6 7.5-22.7 16.7s9.2 16.6 24.4 17.6c7.4 1 17.5 1.1 28.5 1.4 6 .1 11.6.6 16.8-.4l.6.2h.6c9.3-.3 16-.9 21.2-2.3l15.2.5c3.8.1 7.5.5 10.8-.5.1 0 .3.3.4.3l.4.2c12.5-.3 17.8-1.7 21.7-6.7 8.1-10.4-5.9-27.6-18.3-21.6zM474.6 170.6c1.8-3.9 6-6.5 13-6.6 1.4 0 2.9.1 4.3.3 5.4-6.3 14.2-9.9 22.4-6 2.9-6 9.4-10.1 20.3-10.3 15.4-.3 25.5 7.7 25.9 17.9 12 .4 19.5 6.4 19.6 14.4s-7.9 15.2-21.1 15.2c-6.4 1-15 1.1-24.6 1.2-5.1.1-10 .8-14.5-.2h-1c-8-.2-13.8-.8-18.3-2s-8.2.7-13.1.8h-10c-10.8-.3-15.3-1.5-18.7-5.9-7-9 5.1-23.9 15.8-18.8z"/><path class="st26" d="M1040.1 459.5H240.6c0-198.4 179-360 399.8-360s399.7 161.6 399.7 360z"/><g class="st27"><defs><filter id="Adobe_OpacityMaskFilter" filterUnits="userSpaceOnUse" x="683.7" y="109.9" width="332.6" height="266.4"><feColorMatrix values="1 0 0 0 0 0 1 0 0 0 0 0 1 0 0 0 0 0 1 0"/></filter></defs><mask maskUnits="userSpaceOnUse" x="683.7" y="109.9" width="332.6" height="266.4" id="bf001441-abe8-4dab-950d-d1d8514d0cd1"><image width="338" height="271" xlink:href="806372D66E7DEAA5.png" transform="translate(680.9 107.5)" overflow="visible" enable-background="new" class="st28"/></mask><path class="st29 st7" d="M1015.2 362.9c-22.2 53.6-73.1-66.4-160.6-131.2-81.6-60.4-185.7-74.4-169.2-113.3 10.3-24.4 107.6 6.1 192.9 61.1s147.1 158.9 136.9 183.4z"/></g><g class="st30"><defs><filter id="Adobe_OpacityMaskFilter_1_" filterUnits="userSpaceOnUse" x="258.4" y="123.3" width="316.8" height="280.4"><feColorMatrix values="1 0 0 0 0 0 1 0 0 0 0 0 1 0 0 0 0 0 1 0"/></filter></defs><mask maskUnits="userSpaceOnUse" x="258.4" y="123.3" width="316.8" height="280.4" id="_x38_3ee72e5-fffc-4da4-9f5e-738a12b3d576"><image width="322" height="286" xlink:href="806372D66E7DEAA7.png" transform="translate(255.9 120.5)" overflow="visible" enable-background="new" class="st31"/></mask><path class="st32 st7" d="M260 393.5c31.1 46.3 71.6-76.9 147.6-138.2S587 158 574.1 136c-21.6-36.9-125.6 12.1-201.6 73.5S249.1 377.2 260 393.5z"/></g><circle class="st33" cx="88.6" cy="365" r="38.4"/><circle class="st34" cx="164.7" cy="400.5" r="31.7"/><path class="st35" d="M111.3 378.5l-.6-.6c-1.2-1.4-3.4-1.5-4.8-.3l-13 11.6v-16c.1-1.9-1.4-3.5-3.3-3.7h-.8c-1.9 0-2.8 1.8-2.8 3.7v16l-13.3-11.6c-1.4-1.3-3.6-1.1-4.9.3l-.6.6c-1.2 1.4-1.1 3.6.3 4.8l16.6 14.8v87.3c0 2.8 2.2 5 5 5s5-2.2 5-5V398l16.8-14.8c1.4-1.2 1.6-3.3.4-4.7zM182.7 414.5l-.4-.5c-1.1-1.1-2.7-1.1-3.9-.2l-10.5 9.2v-12.7c.2-1.4-.8-2.6-2.2-2.8H164.9c-1.5 0-2 1.3-2 2.8V423l-10.6-9.2c-1.2-.9-2.8-.9-3.9.2l-.5.5c-1 1.1-1 2.8.1 3.8l13 11.7v69c0 2.2 1.8 4 4 4s4-1.8 4-4v-69l13.4-11.7c1.1-1 1.3-2.7.3-3.8z"/><circle class="st36" cx="130.1" cy="423.2" r="25"/><path class="st35" d="M144.3 434.2l-.3-.4c-.8-.8-2-.9-2.9-.2l-8.1 7.2v-10c0-1.2-.9-2.2-2.1-2.4h-.5c-1.2 0-1.3 1.2-1.3 2.4v10l-8.5-7.2c-.9-.8-2.4-.7-3.2.2l-.4.4c-.8.8-.8 2.1 0 3l10.1 9.2v54.4c0 1.9 1.6 3.5 3.5 3.5s3.5-1.6 3.5-3.5v-54.4l10.3-9.2c.8-.8.8-2.2-.1-3z"/><circle class="st33" cx="1204" cy="343.8" r="38.4"/><path class="st35" d="M1181.4 357.3l.6-.6c1-1.3 2.8-1.5 4.1-.5.1.1.2.1.2.2l12.6 11.6v-16c0-1.9 2.4-3.5 4.2-3.5h.8c1.9 0 2.9 1.6 2.9 3.5v16l13.2-11.6c1.4-1.3 3.6-1.1 4.9.3l.6.6c1.3 1.4 1.2 3.5-.2 4.8l-16.4 14.7v87.3c0 3-2.5 5.5-5.5 5.5s-5.5-2.5-5.5-5.5v-87.3l-16.4-14.8c-1.3-1.3-1.3-3.4-.1-4.7z"/><circle class="st36" cx="1118.3" cy="410.5" r="24"/><path class="st35" d="M1105.7 417.3l.3-.4c.7-.8 1.1-.9 2-.2l6.9 7v-9.6c0-1.1 2.7-1.6 3.8-1.6h.5c1.1 0 .7.5.7 1.6v9.6l8.5-7c1-.8 2.3-.7 3.2.2l.5.4c.7.8.1 2.1-.7 2.9l-10.5 8.9v52.3c0 1.7-1.3 3-3 3s-3-1.3-3-3V429l-9.5-8.9c-.8-.7-.5-2 .3-2.8z"/><circle class="st34" cx="1154.8" cy="386.1" r="31.7"/><path class="st35" d="M1136.9 400l.4-.5c.8-1 2.4-1.2 3.4-.3l.1.1 10 9.2v-12.7c0-1.5 1.7-2.3 3.2-2.3h.7c1.5 0 2.1.9 2.1 2.3v12.7l10.6-9.2c1.1-1 2.9-.9 3.9.2l.5.5c1 1.1 1 2.7 0 3.8l-12.9 11.7v69c0 2.5-2 4.5-4.5 4.5s-4.5-2-4.5-4.5v-69l-12.9-11.7c-1.1-1-1.1-2.7-.1-3.8z"/></g></g></svg>