<svg id="3c885e02-689c-49f0-99c6-016e3803eab2" data-name="圖層 1" xmlns="http://www.w3.org/2000/svg" viewBox="0 0 173.7 607.1"><title>scene2-jim</title><path d="M897.9 1055.4c4.5 13.3 13.3 27.6 12.3 42.2a185.5 185.5 0 0 1-6.8 37.7c-2.7 9.4-5.8 18.7-8.6 28-.7 2.3-1.7 5.9-4 7.3v-.4c.8-2.7-3.4-3.8-4.2-1.2l-.6 1.9c-4.8-.9-9.4-3.4-13.5-6l.5-.3a2.2 2.2 0 0 0 .4-3.4l1-.2c2 1.8 5.8 3.3 7 3.8 6.4 2.7 8.1.5 9.8-5.2 4.2-13.6 9-27.1 11.6-41 2-10.9 4.2-21.9 1.2-32.9s-7.4-22.1-11.8-32.8-10.6-21.9-20-29.5c-6.8-5.5-14.2-10.6-21.5-15.6a28.4 28.4 0 0 0-5.9-8.7v-.9h.1c7.7 5.6 15.4 11.3 23.3 16.8a66.7 66.7 0 0 1 10.3 8.1 85.4 85.4 0 0 1 19.4 32.3zM894 1429.3c4.2 2.8 22.4 14.8 10.5 20.3-3.8 1.8-9.6.3-13.4-.9-9.4-2.9-18.8-6.1-28.2-9.1l-16.2-5.2c-1.6-.5-5-1.2-5.9-2.8-2.4-4.2-.5-10 .9-14.6a8.7 8.7 0 0 0 4.4.6c-.9 3.2-2.3 7.3-2 10.3s7.7 3.6 9.2 4.1l18.9 6.1 18.9 6.1c1.4.4 13.1 3.6 12.7.2-.9-7.1-15.8-13.9-21.6-17.9s-11-7.8-16.8-11.2l-.4-.3a8.4 8.4 0 0 0 4-2.7c8.5 5.1 16.6 11.4 25 17z" transform="translate(-736.6 -845.2)" fill="#262016"/><path d="M823.3 1104.9s2.9-4.4 0-4.4a2.2 2.2 0 0 0 0 4.4zm0-21s2.9-4.4 0-4.4a2.2 2.2 0 0 0 0 4.4zm0-23.7s2.9-4.4 0-4.4a2.2 2.2 0 0 0 0 4.4zm0 67.7s2.9-4.4 0-4.4a2.2 2.2 0 0 0 0 4.4zm80.9-42.1c3 10.9.8 21.9-1.2 32.9-2.6 14-7.4 27.5-11.6 41-1.7 5.7-3.5 7.9-9.8 5.2-1.2-.5-5-2-7-3.8s-1.5-1.6-1.3-2.5.8-3.5 1.2-5.2a1.6 1.6 0 0 0 .1-.6l1-4.3 1.8-7.3q4.2-17.3 8.8-34.4c1.5 1.3 4.5.2 3.6-2l-2-4.6a1.8 1.8 0 0 0-.4-.9c-5.9-13.6-12.4-27.1-16.5-41.4v-.2a2 2 0 0 0-2.4-1.5h-.5a2 2 0 0 0-1.4 2.2v.3c3.7 14.9 4.2 30.9 5.1 46.1.7 11.4 2.1 23.4 1.3 34.9q-1.4 5.6-2.6 11.2c-11.7 6-27.6 5.1-40.2 4.8a281.6 281.6 0 0 1-52.2-6c-.5-1.4-1-2.7-1.4-3.9l-2-6.6a2.6 2.6 0 0 0 0-.5c-.6-26.4 2.1-53 4.9-79.2a.5.5 0 0 0 0-.1v-.2a1.8 1.8 0 0 0-1.8-2.1h-.1a1.9 1.9 0 0 0-2.4 1.5c-3.4 14.9-8.7 29.1-14.9 43l-1.9 4.2c-1 2.1 1.5 4.1 3.1 3.1a256.9 256.9 0 0 0 6.7 25.9l1.7 5.2c1.4 4.1 2.8 8.1 4.1 12.3a1.4 1.4 0 0 0 .2.5c1.5 4.9 3.3 9.4 1.3 13.2a10.9 10.9 0 0 1-4.6 4.3 15.9 15.9 0 0 1-4.2 1.3l-1.3.2c-4 .3-4.8-2.6-6.4-6.7-2.3-6-4.2-12.1-6-18.2-3.8-12.6-8.2-25.3-11.3-38.1-2.7-11 3.1-24.8 6.4-35.2a280.9 280.9 0 0 1 13.5-34.3c3.2-6.8 7-12.3 13.3-16.3s14.2-8.3 21.1-12.6a18 18 0 0 0 .5 9.6c3.6 10.6 17.2 11.9 26.5 11.8l1-.3 1 .3c9.6.1 21.8-1.1 26.2-11.1 1.8-4.2 1.3-8.6-.4-12.6 7.3 5.1 14.7 10.1 21.5 15.6 9.4 7.6 15.5 18.5 20 29.5s8.7 21.4 11.8 32.5z" transform="translate(-736.6 -845.2)" fill="#54618c"/><path d="M903.7 1444.3c.4 3.5-11.2.3-12.7-.2l-18.9-6.1-18.9-6.1c-1.6-.5-9-2.2-9.2-4.1s1.1-7.1 2-10.3l3.3-.2a80 80 0 0 0 14.3-2l1.3-.4.4.3c5.8 3.4 11.3 7.4 16.8 11.2s20.7 10.9 21.6 17.9zM886.7 1169.1c.8-2.7 5-1.5 4.2 1.2v.4a4.1 4.1 0 0 1-2.6.6l-2-.3zM889.7 1104.6c.9 2.2-2 3.4-3.6 2l1.6-5.7a1.9 1.9 0 0 0 0-1z" transform="translate(-736.6 -845.2)" fill="#262016"/><path d="M890.8 1170.6c-1.2 4-2.6 8.2-5.3 11.5a24.1 24.1 0 0 1-5.1 4.5c0-.4 0-.8.1-1.2a2.1 2.1 0 0 0-3-1.9 17.1 17.1 0 0 0 4.1-3.5 26.5 26.5 0 0 0 4.5-9l2 .3a4.1 4.1 0 0 0 2.7-.7zM887.7 1099.9a1.9 1.9 0 0 1 0 1l-1.6 5.7a2.3 2.3 0 0 1-.6-.9l-2.2-5.2.2-.8a2.2 2.2 0 0 1 3.9-.7z" transform="translate(-736.6 -845.2)" fill="#262016"/><path d="M887.7 1099.9l-.4-.9a1.8 1.8 0 0 1 .4.9zM886 883.9c4.4 13.5 2.4 24.9-5.4 35.3h-.3a5.9 5.9 0 0 0-4.4.4l-.2-1c7.4-8.8 10.8-19.1 6.9-31-2.2-6.6-8-18.9-16.6-19a22.7 22.7 0 0 0-2.4-4.1c10.8-1.6 19.4 10.3 22.4 19.4zM887.3 1099a2.2 2.2 0 0 0-3.9.7l-.2.8c-2.9-6.7-6-13.4-8.8-20.1a156.1 156.1 0 0 0-3.6-22.8c4.1 14.3 10.6 27.8 16.5 41.4zM885.5 1105.7a2.3 2.3 0 0 0 .6.9q-4.6 17.1-8.8 34.4v-.5a135.4 135.4 0 0 0 0-17.8q2.9-11.1 5.9-22.2z" transform="translate(-736.6 -845.2)" fill="#262016"/><path d="M886.1 1170.9a26.5 26.5 0 0 1-4.5 9 17.1 17.1 0 0 1-4.1 3.5l-.7.4-2.1 1.2a55 55 0 0 0-3.1-11.1 2.4 2.4 0 0 0-3.2-1.5c-1.2.5-3.8 1.6-5.7 1.4l.9-1.4a15.6 15.6 0 0 1 2.8-3.1l1.5-1.3c1.5-1.1 3.2-2.1 4.8-3.1 4 2.6 8.6 5.2 13.4 6z" transform="translate(-736.6 -845.2)" fill="#ffc9a4"/><path d="M880.6 919.2c2.7 1 4.3 4.8 4.1 7.4a12.7 12.7 0 0 1-5.3 9.5c-1.8 1.4-3.8 3-6.1 2.6l.8-4.3c1.4.4 5.2-4.2 5.6-5.1s1-3.8-.1-5.4-3.1.5-3.6 1.5l-.4.6.2-1.1a52.2 52.2 0 0 0 4.8-5.7z" transform="translate(-736.6 -845.2)" fill="#262016"/><path d="M882.5 887.5c3.9 11.8.5 22.1-6.9 31-1.9-10.2-9.9-20.2-17.1-26.8l2.3-1.9c2.1-1.9-1-5-3.1-3.1a30.5 30.5 0 0 1-4.9 3.6c-7.5 4.4-16.3 5.5-25 6.4s-19.7 2.7-29.6 4c-11.8 1.5-26.6 5.2-33.3 16-10.6-27.8 6.4-56.2 34.7-64.6a64.9 64.9 0 0 1 38.7.3c8 2.6 18.2 7.7 22.8 15.5a16.5 16.5 0 0 1 1.8 13.1c-.7 2.7 3.5 3.9 4.2 1.2a20.1 20.1 0 0 0-1.1-13.7c8.5.1 14.4 12.4 16.5 19z" transform="translate(-736.6 -845.2)" fill="#3f261d"/><path d="M880.2 919.1h.3a52.2 52.2 0 0 1-5 5.7l.2-1.4h.3a25 25 0 0 0-.2-4.2 5.9 5.9 0 0 1 4.4-.1zM877.5 1183.4a2.1 2.1 0 0 1 3 1.9c0 .4 0 .8-.1 1.2a45.6 45.6 0 0 1-4.5 2.6c0-1.3.1-2.6.2-3.9a2.1 2.1 0 0 1 .7-1.5z" transform="translate(-736.6 -845.2)" fill="#262016"/><path d="M879.5 923.9c1.1 1.5.9 3.8.1 5.4s-4.2 5.6-5.6 5.1c.5-2.8.9-5.6 1.4-8.4l.4-.6c.6-1 2.2-3.5 3.7-1.5z" transform="translate(-736.6 -845.2)" fill="#ffc9a4"/><path d="M877.3 1122.7a135.4 135.4 0 0 1 0 17.8v.5c-.6 2.3-4.5 2.1-4.3-.5 0-.3 0-.6.1-.9q2-8.4 4.2-16.9zM877.5 1183.4l-.7.4z" transform="translate(-736.6 -845.2)" fill="#262016"/><path d="M877.3 1141l-1.8 7.3-1 4.3a2.2 2.2 0 0 0-3.3-2.2l-.8.4 2.6-11.2c0 .3 0 .6-.1.9-.1 2.7 3.7 2.8 4.4.5z" transform="translate(-736.6 -845.2)" fill="#262016"/><path d="M876.1 1104.7c.3 5.9.9 11.9 1.2 18q-2.2 8.5-4.3 17c.8-11.5-.6-23.5-1.3-34.9-.9-15.3-1.4-31.2-5.1-46.1a182.7 182.7 0 0 0 7.8 21.8c.8 8 1.2 16.2 1.7 24.2zM876.8 1183.8a2.1 2.1 0 0 0-.7 1.5c-.1 1.3-.1 2.6-.2 3.9l-.7.4c-.1-1.5-.3-3.1-.6-4.6zM875.9 1189.2a45.6 45.6 0 0 0 4.5-2.6c-2 47.5-3.4 95-5.6 142.6-1.1 23.2-2 46.4-3.1 69.7-.2 4.9 0 10.1-2.7 13.4l-1.4-.8c-2.3-1.3-4.4 1.9-2.6 3.5l-1.3.4a80 80 0 0 1-14.3 2l-3.3.2.3-1.2a2.1 2.1 0 0 0-1.7-2.6l.3-1.4c3.5 2.1 12 0 14.7-.6 8.8-1.9 7.5-11.6 7.8-18.5 1-23.2 2-46.4 3.1-69.5 2.2-45 3.4-89.8 5.3-134.6zM875.8 919.5a25 25 0 0 1 .2 4.2h-.2l.2-1.1a2.3 2.3 0 0 0-1.2-2.4z" transform="translate(-736.6 -845.2)" fill="#262016"/><path d="M874.8 920.1a2.3 2.3 0 0 1 1.2 2.4l-.2 1.1-3.1-1.3a8.4 8.4 0 0 1 2.1-2.2z" transform="translate(-736.6 -845.2)" fill="#262016"/><path d="M875.2 1189.6l.7-.4c-1.9 44.8-3.2 89.6-5.3 134.3-1.1 23.2-2.1 46.4-3.1 69.5-.3 6.9 1 16.6-7.8 18.5-2.7.6-11.2 2.8-14.7.6a3.1 3.1 0 0 1-1.5-2.5l-1.7-22q-6.5-86.9-12.9-173.7l-1.2-16.2a2 2 0 0 0-2.3-2.1h-.3a1.9 1.9 0 0 0-1.8 2.1c-.5 68.4-2.3 136.9-1.4 205.3 0 2 1.4 10-1.8 10.4-5.3.6-11 1.1-16.2.3a3.1 3.1 0 0 1-1.8-1c-2.8-2.7-3.6-10.5-4.2-13.1-1.2-5.3-2.1-10.6-2.9-15.9-3.3-21.1-6.2-42.3-9.4-63.4-6.5-42.9-6.3-86.3-9.2-129.5l4 1.2c-.3.9-.6 1.9-1 2.8-1 2.6 3.2 3.8 4.2 1.2a48.8 48.8 0 0 0 3.2-17c3.9-.4 8.7-1.3 7.8-6.1-.5-2.7-2.5-4.1-4.9-5l-.8-.3c.1-1.3.1-2.6.2-3.9a2.2 2.2 0 1 0-4.4 0l-.2 2.9a38.8 38.8 0 0 1-4-1c.8-3.5 0-7.4-1.2-11.3a301.2 301.2 0 0 0 52.7 5.6c11.6.2 25.6.6 36.9-3.9-.5 2.1-.8 4 0 5.7l-2.5 1.6-.7-1a2.2 2.2 0 0 0-3-.8 2.2 2.2 0 0 0-.8 3l1 1.5a17.9 17.9 0 0 0-4.9 6.7c-2.5 6.3 5 5.5 9.6 4.2a51.9 51.9 0 0 1 2.6 11.2 55.3 55.3 0 0 1 .3 7.3c-.1 2.8 4.3 2.8 4.4 0a53.3 53.3 0 0 0 .3-5.8z" transform="translate(-736.6 -845.2)" fill="#41444c"/><path d="M875.8 923.6l-.2 1.4-.2.2a2.3 2.3 0 0 1-3.5-.5 2.1 2.1 0 0 1 .2-1.4l.6-1zM875.6 918.5l.2 1-1 .6-.4-.2z" transform="translate(-736.6 -845.2)" fill="#262016"/><path d="M875.6 925l-.2 1.1c-1.2 1.2-3.3.2-3.5-1.4a2.3 2.3 0 0 0 3.5.5zM875.2 1189.6a53.3 53.3 0 0 1 .2 5.9c-.1 2.8-4.4 2.8-4.4 0a55.3 55.3 0 0 0-.3-7.3h.7a2.3 2.3 0 0 0 3.3 1.8z" transform="translate(-736.6 -845.2)" fill="#262016"/><path d="M875.2 1189.6l-.6.3a2.3 2.3 0 0 1-3.3-1.8 1.9 1.9 0 0 1 1.1-2l2.2-1.1c.3 1.5.5 3.1.6 4.6zM875.6 918.5l-1.2 1.4a1.8 1.8 0 0 0-2.6 1.4v.8c-.5-10.5-9.5-21.4-16.9-28a38 38 0 0 0 3.7-2.5c7.1 6.7 15.1 16.7 17 26.9zM875.5 926c-.4 2.8-.9 5.6-1.4 8.4h-.1a2 2 0 0 0-2-.1 2.3 2.3 0 0 0-.7-.9l-1.2-.8 1.6-10.4v1.5a1.9 1.9 0 0 0 .2 1c.3 1.5 2.3 2.5 3.6 1.3zM871.2 1150.4a2.2 2.2 0 0 1 3.3 2.2v.6a2 2 0 0 1-.9.9 35.6 35.6 0 0 1-4.2 2v-.6l1.1-4.7z" transform="translate(-736.6 -845.2)" fill="#262016"/><path d="M874.3 1153.3v-.6a1.6 1.6 0 0 1 0 .6z" transform="translate(-736.6 -845.2)" fill="#262016"/><path d="M874.5 1161l-1 .2a2 2 0 0 0-2.6-.4l-1.7 1c-.8-1.7-.5-3.6 0-5.7a35.6 35.6 0 0 0 4.2-2 2 2 0 0 0 .9-.9c-.4 1.7-.8 3.5-1.2 5.2s.5 1.8 1.4 2.6zM874.4 919.9l.4.2a8.4 8.4 0 0 0-2.1 2.2l-.4-.2zM874 934.4h.1l-.8 4.3a4.3 4.3 0 0 1-1.5-.6 2.3 2.3 0 0 1-.8-.7 2.5 2.5 0 0 0 1-3.1 2 2 0 0 1 2 .1z" transform="translate(-736.6 -845.2)" fill="#262016"/><path d="M871.8 921.3a1.8 1.8 0 0 1 2.6-1.4l-2.1 2.2.4.2-.6 1a2.1 2.1 0 0 0-.2 1.4 1.9 1.9 0 0 1-.2-1v-2.3zM873.5 1161.2a2.2 2.2 0 0 1-.4 3.4l-.5.3-1.5-.9a5.1 5.1 0 0 1-1.9-2.1l1.7-1a2 2 0 0 1 2.6.3zM874.6 1185l-2.2 1.1a1.9 1.9 0 0 0-1.1 2h-.7a51.9 51.9 0 0 0-2.6-11.1l2.5-.8a1.7 1.7 0 0 0 1-2.3 55 55 0 0 1 3.1 11.1zM871.8 938.2a4.3 4.3 0 0 0 1.5.6q-1.6 8.8-3.6 17.5c-.5 2-1 4.1-1.5 6.1h-.2c.4-1.3-.2-2.9-1.9-2.7h-1.5a194.4 194.4 0 0 0 4.8-22.3 1.6 1.6 0 0 0 1.6.1 2.3 2.3 0 0 0 .8.7zM872 934.3a2.5 2.5 0 0 1-1 3.1 2.3 2.3 0 0 1 1-3.1z" transform="translate(-736.6 -845.2)" fill="#262016"/><path d="M871.1 1163.9l1.5.9c-1.6 1-3.3 2-4.8 3.1l-.6-.8a2.2 2.2 0 0 0 .3-2.6l-.8-1.2 2.5-1.6a5.1 5.1 0 0 0 1.9 2.2zM871.5 1173.9a1.7 1.7 0 0 1-1 2.3l-2.5.8-.7-1.9c-1-2.6 3.2-3.7 4.2-1.2zM871.3 933.4a2.3 2.3 0 0 1 .7.9 2.3 2.3 0 0 0-1 3.1 1.6 1.6 0 0 1-1.6-.1l.8-4.8zM870.8 1057.6a156.1 156.1 0 0 1 3.6 22.8 182.7 182.7 0 0 1-7.8-21.8v-.3a2.1 2.1 0 0 1 1.4-2.2h.4a2 2 0 0 1 2.4 1.5v.2zM870.4 1150.9l-1.1 4.7v.6c-11.3 4.5-25.3 4.2-36.9 3.9a301.2 301.2 0 0 1-52.7-5.6c-.5-1.6-1.1-3.2-1.6-4.8a281.6 281.6 0 0 0 52.2 6c12.5.3 28.4 1.2 40.1-4.8z" transform="translate(-736.6 -845.2)" fill="#262016"/><path d="M836.3 922a2.2 2.2 0 1 0 0 4.4 2.2 2.2 0 0 0 0-4.4zm-34.9 1.5a2.2 2.2 0 1 0 0 4.4 2.2 2.2 0 1 0 .1-4.5zm70.2-1.2l-1.6 10.4c-9.2-5.9-19.6 1.8-21.3 11.8s5.1 18.9 14.4 19.6c-.8 2.5-1.7 5-2.7 7.4a40.8 40.8 0 0 1-19.5 20.9 46.6 46.6 0 0 1-27.5 4.2 48.5 48.5 0 0 1-5.5-1.1c-14.4-3.8-23.5-13.7-29.5-26 9.5-.2 14.8-9 14.3-18.4-.6-12.4-13.4-18.6-23.2-12l-.4-2.4c-.8-5.2-1.4-10.3-1.9-15.1 7.2-17.6 34.6-16.3 49.9-19 12.9-2.2 26.4-1.9 37.7-8.4 7.3 6.5 16.4 17.5 16.9 28zm-29.9 29.1c1.1-2.6-3.2-3.7-4.2-1.1s-10 5.5-13.8 6.4c-2 .5-17.6 3.1-18.7-.1s-5.1-1.5-4.2 1.2c2.2 6.3 13.8 4.5 18.8 4 6.9-.8 19.3-3.4 22.1-10.5zm-15-8.4c2.2-1.7 0-5.4-2.2-3.8a31.1 31.1 0 0 1-4.2 2.8 7.2 7.2 0 0 1-2.8.8c-1.4.1-.3-1.2 0-1.8 1.7-3.1 4-5.2 4-9s-4.4-2.8-4.4 0c0 4.3-7.9 9.4-3.5 13.8s10-.5 13.1-2.9z" transform="translate(-736.6 -845.2)" fill="#ffc9a4"/><path d="M868.3 1172.4a2.4 2.4 0 0 1 3.2 1.5c-1-2.6-5.2-1.4-4.2 1.2l.7 1.9c-4.6 1.3-12.1 2-9.6-4.2a17.9 17.9 0 0 1 4.9-6.7l.5.7a2.2 2.2 0 0 0 3 .8l.5-.4.6.8-1.5 1.3a15.6 15.6 0 0 0-2.8 3.1l-.9 1.4a2.3 2.3 0 0 1-1.3-.4l1 1.3a1.8 1.8 0 0 1 .3-.9c1.7.2 4.4-.8 5.6-1.4zM870.1 932.6l-.8 4.8-.3-.2c-7.1-5.5-16.4.8-16.1 9.4.3 6.8 4.5 13.1 11.5 13.1-.4 1.5-.9 2.9-1.3 4.3-9.3-.7-15.9-10.4-14.4-19.6s12.2-17.7 21.4-11.8z" transform="translate(-736.6 -845.2)" fill="#262016"/><path d="M869.1 937.2l.3.2a194.4 194.4 0 0 1-4.8 22.3c-7 0-11.2-6.3-11.5-13.1-.4-8.6 8.8-14.9 16-9.4z" transform="translate(-736.6 -845.2)" fill="#dd553a"/><path d="M868.4 1055.9a2 2 0 0 1 2.4 1.5 2 2 0 0 0-2.4-1.5zM867.5 1411.4l1.4.8a8.4 8.4 0 0 1-4 2.7c-1.8-1.6.3-4.8 2.6-3.5zM868 962.3h.1c-1.9 6.8-4.3 13.6-8.5 19.4a46.5 46.5 0 0 1-14.9 13.6v-.4a2.3 2.3 0 0 0-3.4-1.8l-.4-.7a40.8 40.8 0 0 0 19.5-20.9c1-2.4 1.9-4.9 2.7-7.4a13.3 13.3 0 0 0 2.8-.1 2.3 2.3 0 0 0 2.1-1.7z" transform="translate(-736.6 -845.2)" fill="#262016"/><path d="M866 959.6c1.7-.2 2.4 1.4 1.9 2.7a2.3 2.3 0 0 1-1.9 1.6 13.3 13.3 0 0 1-2.8.1c.5-1.4.9-2.9 1.3-4.3h1.5zM867.5 1164.6a2.2 2.2 0 0 1-.3 2.6l-.5.4a2.2 2.2 0 0 1-3-.8l-.5-.7a34.6 34.6 0 0 1 3.4-2.7zM866 868.5a20.1 20.1 0 0 1 1.1 13.7c-.7 2.7-4.9 1.6-4.2-1.2a16.5 16.5 0 0 0-1.8-13.1l1-.6a2.3 2.3 0 0 0 2.5 1.3h1.4z" transform="translate(-736.6 -845.2)" fill="#262016"/><path d="M866 1162.5l.7 1a34.6 34.6 0 0 0-3.4 2.7l-1-1.5a2.2 2.2 0 0 1 .8-3 2.2 2.2 0 0 1 2.9.8zM868 1056a2.1 2.1 0 0 0-1.4 2.2 2 2 0 0 1 1.4-2.2zM866 868.5h-1.5a2.3 2.3 0 0 1-2.5-1.3 1.9 1.9 0 0 1 1.3-2.9h.3a22.7 22.7 0 0 1 2.4 4.2z" transform="translate(-736.6 -845.2)" fill="#262016"/><path d="M863.6 864.4h-.3a1.9 1.9 0 0 0-1.3 2.9l-1 .6c-4.6-7.7-14.8-12.9-22.8-15.5a64.9 64.9 0 0 0-38.7-.3c-28.3 8.3-45.2 36.8-34.7 64.6v.3a1.8 1.8 0 0 0-2.1 2h-1.5c-5.9-14.8-5.5-31.3 3-45.3a57.3 57.3 0 0 1 36.3-26.4c16.5-3.7 32.7-3.2 48 4.6 5.7 3.1 11.4 7.2 15.1 12.5zM862.6 1173.9a1.8 1.8 0 0 0-.3.9l-1-1.3a2.3 2.3 0 0 0 1.3.4zM857.7 886.7c2.1-1.9 5.2 1.2 3.1 3.1l-2.3 1.9-.8-.7a2.2 2.2 0 0 0-2.7-.2l-2.2-.4a30.5 30.5 0 0 0 4.9-3.7z" transform="translate(-736.6 -845.2)" fill="#262016"/><path d="M857.7 890.9l.8.7a38 38 0 0 1-3.7 2.5h-.1a2 2 0 0 1 .3-3.3 2.2 2.2 0 0 1 2.7.1z" transform="translate(-736.6 -845.2)" fill="#262016"/><path d="M852.7 890.3l2.2.4a2 2 0 0 0-.3 3.3h.1c-11.3 6.4-24.8 6.1-37.7 8.4-15.3 2.7-42.7 1.4-49.9 19l-.2-2.5a2.3 2.3 0 0 0-2-2.1v-.3c6.7-10.7 21.5-14.5 33.3-16 9.9-1.3 19.7-2.9 29.6-4s17.5-1.8 24.9-6.2zM850.8 1007.7c1.7 4.1 2.3 8.5.4 12.6-4.4 10-16.6 11.2-26.2 11.1l-1-.3a2.1 2.1 0 0 0 1.1-1.9v-2.1l2.1 2.1v-2.2c7.5-.1 18.6-1.2 20.3-9.6a14.8 14.8 0 0 0-2.3-10.9 19.4 19.4 0 0 0 .1-2.6z" transform="translate(-736.6 -845.2)" fill="#262016"/><path d="M845.3 1006.6a14.8 14.8 0 0 1 2.3 10.9c-1.7 8.4-12.9 9.5-20.3 9.6a69.8 69.8 0 0 0-.3-7.2c5.5-.4 12.2-1.4 15.5-5.9a14.3 14.3 0 0 0 2.3-4.8 2.1 2.1 0 0 0 .2-1c.2-.5.3-1.1.3-1.6z" transform="translate(-736.6 -845.2)" fill="#414e72"/><path d="M844.7 1413.7a2.1 2.1 0 0 1 1.7 2.6l-.3 1.2a8.7 8.7 0 0 1-4.4-.6l.5-1.8a2 2 0 0 1 2.5-1.4zM850.8 1007.7l-5.4-3.8a25.3 25.3 0 0 0-.5-4.4v-.3a28.4 28.4 0 0 1 5.9 8.5zM845.4 1004a19.4 19.4 0 0 1-.1 2.6l-.3-.4v-2.5z" transform="translate(-736.6 -845.2)" fill="#262016"/><path d="M845.4 1004l-.4-.3c0-1.5-.1-3-.1-4.5v.3a25.3 25.3 0 0 1 .5 4.5zM845.1 1006.1l.3.4c-.1.6-.2 1.1-.3 1.7s0-1.4 0-2.1z" transform="translate(-736.6 -845.2)" fill="#262016"/><path d="M845.1 1006.1v2.1l-.2 1c-.9 1.8-4.2 1.5-4.1-1v-.5a16.9 16.9 0 0 0 .1-7 2.1 2.1 0 0 0 .6.9 27.1 27.1 0 0 1 3.6 4.5z" transform="translate(-736.6 -845.2)" fill="#262016"/><path d="M845 1003.7v2.5a27.1 27.1 0 0 0-3.7-4.5 2.1 2.1 0 0 1-.6-.9 2.3 2.3 0 0 1 2.3-2.7 2.4 2.4 0 0 0-.4 4z" transform="translate(-736.6 -845.2)" fill="#262016"/><path d="M845 1003.7l-2.3-1.7a2.4 2.4 0 0 1 .4-4 2.1 2.1 0 0 1 1.3.6l.4.4v.3c.1 1.4.2 2.9.2 4.4zM845 1412.3l-.3 1.4a2 2 0 0 0-2.5 1.5l-.5 1.8-.8-.6c-3.3-3.3-2.1-12.2-2.4-16.5q-.8-10.6-1.6-21.3-1.8-24.1-3.6-48.3-3-40.4-6-80.7.3-24 .5-48v-3.8l1.2 16.2q6.4 86.9 12.9 173.7l1.7 22a3.1 3.1 0 0 0 1.4 2.6zM844.8 1009.2l.2-1a2.1 2.1 0 0 1-.2 1zM844.9 999.1v-.3h.1z" transform="translate(-736.6 -845.2)" fill="#262016"/><path d="M844.8 998.2v.9h-.1a1.8 1.8 0 0 0-1.6-1 1.7 1.7 0 0 1 1.7.1z" transform="translate(-736.6 -845.2)" fill="#262016"/><path d="M844.7 995.3v2.9a1.7 1.7 0 0 0-1.7-.2 2.3 2.3 0 0 0-2.3 2.7 16.9 16.9 0 0 1-.1 7c0-3.4-.1-6.9-.2-10.3a43.2 43.2 0 0 0 4.3-2.1z" transform="translate(-736.6 -845.2)" fill="#262016"/><path d="M844.8 998.9l-.4-.4a2.1 2.1 0 0 0-1.3-.6 1.8 1.8 0 0 1 1.7 1zM844.7 994.8v.4a43.2 43.2 0 0 1-4.3 2.1c0-.9-.1-1.7-.1-2.6a1.9 1.9 0 0 1 1-1.8 2.3 2.3 0 0 1 3.4 1.9zM840.7 1008.2c0 2.4 3.2 2.8 4.1 1a14.3 14.3 0 0 1-2.3 4.8c-3.3 4.5-10 5.4-15.5 5.9l-.2-2-1.2 1.2c0-.4.1-.8.1-1.2a2.1 2.1 0 0 0-1.7-2.1h.5c5-.3 14.1-.8 15.8-6.8l.3-1.2v.5zM840.8 1000.7a2.3 2.3 0 0 1 2.3-2.7 2.3 2.3 0 0 0-2.3 2.7zM837.5 950.1c1-2.6 5.3-1.5 4.2 1.1-2.9 7.2-15.2 9.7-22.1 10.4-5 .5-16.6 2.3-18.8-4-.9-2.7 3.3-3.8 4.2-1.2s16.7.6 18.7.1c3.8-.9 12.2-2.4 13.8-6.4z" transform="translate(-736.6 -845.2)" fill="#262016"/><path d="M840.9 992.3l.4.7a1.9 1.9 0 0 0-1 1.8c0 .9.1 1.7.1 2.6a47.6 47.6 0 0 1-26.1 3.5l-5.1-1c0-.6 0-1.1.1-1.6a2 2 0 0 0-1.7-2.1l.3-1a48.5 48.5 0 0 0 5.5 1.1 46.6 46.6 0 0 0 27.5-4z" transform="translate(-736.6 -845.2)" fill="#262016"/><path d="M840.5 997.4c.1 3.4.3 6.9.2 10.3l-.3 1.2c-1.7 6-10.9 6.4-15.8 6.8h-1c-5-.3-11.4-.8-14.8-4.9 0-3.6.4-7.2.6-10.9l5.1 1a47.6 47.6 0 0 0 26-3.5z" transform="translate(-736.6 -845.2)" fill="#ffc9a4"/><path d="M836.3 922a2.2 2.2 0 0 1 0 4.4 2.2 2.2 0 1 1 0-4.4zM825.9 1416.7c.9 3.6 4.2 11.5 2.1 15.2s-10.2 5.2-14.7 6.7l-24.3 7.8c-6.5 2.1-15 6.6-22 5.7-12.4-1.6-7.6-10.8-.6-16.8 9.5-8.1 20.7-13.9 31.6-19.9a5.3 5.3 0 0 0 2 1.7 10 10 0 0 0 2.3.9c-7.9 4.4-16.2 8.6-23.8 13.6a69.3 69.3 0 0 0-10.8 8.4c-4.1 4.1-2.3 8.9 4 7.3l5.2-1.5 29.7-9.6 13.5-4.4c6.4-2.1 2.8-8.9 1.5-13.7a5.5 5.5 0 0 0 1.5-.7 6.9 6.9 0 0 0 1.9-1.8 1.9 1.9 0 0 1 .9 1.1zM827.8 1197.8v3.8q-.2 24-.5 48l-3.8-51.8a2 2 0 0 1 1.8-2.1h.3a2.2 2.2 0 0 1 2.2 2.1zM827 1019.9a69.8 69.8 0 0 1 .3 7.2h-2.1c0-2.4.1-4.7.3-7.1h1.5zM827.3 1027.1v2.2l-2.1-2.1h2.1z" transform="translate(-736.6 -845.2)" fill="#262016"/><path d="M823.4 1197.9l3.8 51.8-.8 64.3c-.2 19.6-.3 39.2-.3 58.8q0 14.1.2 28.3c.1 4.6 1.5 10.7-1.2 14.5a2.2 2.2 0 0 0-3.5 2.3v.2c-3.2.9-8.5.5-11.1.5a32.8 32.8 0 0 1-8.3-.6h.3c2.1-1.2.8-4.1-1.1-4.1l.8-.9a3.1 3.1 0 0 0 1.8 1c5.2.8 11 .4 16.2-.3 3.2-.4 1.8-8.5 1.8-10.4-.9-68.6.9-137 1.4-205.4zM826.8 1017.9l.2 2h-1.5c0-.3.1-.6.1-1zM824.5 939.1c2.3-1.7 4.4 2.1 2.2 3.8s-9.4 6.5-13.1 2.8 3.5-9.4 3.5-13.8c0-2.8 4.4-2.8 4.4 0s-2.3 5.9-4 9c-.3.6-1.4 1.9 0 1.8a7.2 7.2 0 0 0 2.8-.8 31.1 31.1 0 0 0 4.2-2.8zM825.5 1195.8a2 2 0 0 1 2.3 2.1 2.2 2.2 0 0 0-2.3-2.1z" transform="translate(-736.6 -845.2)" fill="#262016"/><path d="M824.1 1015.8a2.1 2.1 0 0 1 1.7 2.1c0 .4-.1.8-.1 1.2l-1 1h.9c-.2 2.4-.3 4.7-.3 7.1v2.1a1.3 1.3 0 1 1-2.3 0v-2.1a67.8 67.8 0 0 0-.3-7.1h.9l-1-1c0-.4-.1-.8-.1-1.2a2.1 2.1 0 0 1 1.6-2.1z" transform="translate(-736.6 -845.2)" fill="#262016"/><path d="M824.6 1020.1l1-1c0 .3-.1.6-.1 1h-.9zM825.2 1027.1zM821.7 1417.9a2.2 2.2 0 0 1 3.5-2.3 6.9 6.9 0 0 1-1.9 1.8 5.5 5.5 0 0 1-1.5.7v-.2zM823.5 1015.7h.5a2.1 2.1 0 0 0-1.7 2.1c0 .4.1.8.1 1.2l-1.2-1.2c-.1.7-.2 1.3-.2 2-5.9-.5-13-1.6-16.2-6.8 1.1 1.4 4 1 3.9-1.3v-.8c3.4 4.1 9.8 4.5 14.8 4.8zM823.3 1055.8c2.9 0 0 4.4 0 4.4a2.2 2.2 0 0 1 0-4.4zM823.3 1079.6c2.9 0 0 4.4 0 4.4a2.2 2.2 0 0 1 0-4.4zM823.3 1100.6c2.9 0 0 4.4 0 4.4a2.2 2.2 0 0 1 0-4.4zM823.3 1123.5c2.9 0 0 4.4 0 4.4a2.2 2.2 0 0 1 0-4.4zM823.5 1020.1h-.9v-.9zM823.4 1197.9a1.9 1.9 0 0 1 1.8-2.1 2 2 0 0 0-1.8 2.1z" transform="translate(-736.6 -845.2)" fill="#262016"/><path d="M824.1 1031.2l-1 .3c-9.4.1-23-1.2-26.5-11.8a18 18 0 0 1-.5-9.6l5.3-3.4a2.2 2.2 0 0 0 .9-1.3 1.8 1.8 0 0 0 .1.4c-2.5 4.2-3.8 9.2-1.3 13.5 4.1 6.9 12.4 7.9 19.8 7.9v2.2l2.1-2.1v2.1a2.1 2.1 0 0 0 1.1 1.8zM823 1027.1z" transform="translate(-736.6 -845.2)" fill="#262016"/><path d="M822.6 1020a67.8 67.8 0 0 1 .3 7.1h-2.1a66.3 66.3 0 0 1 .3-7.2h1.5z" transform="translate(-736.6 -845.2)" fill="#262016"/><path d="M823 1027.1l-2.1 2.1v-2.2h2.1zM822.5 1019.1v.9H821c0-.7.1-1.3.2-2z" transform="translate(-736.6 -845.2)" fill="#262016"/><path d="M821.7 1418c1.3 4.8 4.9 11.7-1.5 13.7l-13.5 4.4-29.7 9.6-5.2 1.5c-6.3 1.7-8.1-3.2-4-7.3a69.3 69.3 0 0 1 10.8-8.4c7.6-5 15.8-9.2 23.8-13.6a32.8 32.8 0 0 0 8.3.6c2.5 0 7.9.5 11-.5z" transform="translate(-736.6 -845.2)" fill="#1b1d21"/><path d="M821.2 1019.9a66.3 66.3 0 0 0-.3 7.2c-7.4-.1-15.7-1.1-19.8-7.9-2.5-4.2-1.2-9.3 1.3-13.5a18.4 18.4 0 0 0 2.3 6.8l.2.4v.2c3.3 5.2 10.4 6.3 16.3 6.8z" transform="translate(-736.6 -845.2)" fill="#414e72"/><path d="M807.6 996.3a2 2 0 0 1 1.7 2.1c0 .6 0 1.1-.1 1.6l-2.6-.7a2.4 2.4 0 0 0-1.5-2 2.3 2.3 0 0 1 2.5-1z" transform="translate(-736.6 -845.2)" fill="#262016"/><path d="M809.3 1000c-.2 3.6-.6 7.2-.6 10.9l-.7-1c-1.7-2.7-1.9-6.7-1.4-9.8a1.6 1.6 0 0 0 .1-.7z" transform="translate(-736.6 -845.2)" fill="#262016"/><path d="M808.7 1011.7c.1 2.3-2.8 2.7-3.9 1.3l-.2-.4a2.3 2.3 0 0 1-.2-.9c-.1-3.1.2-6.3.4-9.4l1.3-1.4a2.1 2.1 0 0 0 .6-.9c-.6 3.1-.3 7.1 1.4 9.8l.7 1c-.1.3-.1.6-.1.9zM807.9 995.3l-.3 1a2.3 2.3 0 0 0-2.4 1.1H804a1.7 1.7 0 0 0-1.3.8c-14.4-5.4-23.5-16.4-29.3-29.8h.2a1.9 1.9 0 0 0 1.4.9 16 16 0 0 0 3.5.3c5.8 12 15 21.9 29.4 25.7zM806.7 999.3a1.6 1.6 0 0 1-.1.7 2.5 2.5 0 0 0 0-.7zM806.7 999.3a2.3 2.3 0 0 0-1.5-1.9 2.4 2.4 0 0 1 1.5 1.9z" transform="translate(-736.6 -845.2)" fill="#262016"/><path d="M806.7 999.3a2.5 2.5 0 0 1 0 .7 2.1 2.1 0 0 1-.6.9l-1.3 1.4c.1-1.2.1-2.3.2-3.5z" transform="translate(-736.6 -845.2)" fill="#262016"/><path d="M806.7 999.3l-1.7-.5v-.4a2.4 2.4 0 0 1 .2-.9 2.3 2.3 0 0 1 1.5 1.8zM805.2 997.3l-.9-.2h1z" transform="translate(-736.6 -845.2)" fill="#262016"/><path d="M805.2 997.4a2.4 2.4 0 0 0-.2.9v.4l-2.2-.8.2-.2a2.1 2.1 0 0 1 1.1-.6h.2zM805 998.8c0 1.2-.1 2.3-.2 3.5a23.1 23.1 0 0 0-2.5 3.5 1.8 1.8 0 0 1-.1-.4 2.3 2.3 0 0 0-.1-1.4 22.1 22.1 0 0 1 .3-5.2 2 2 0 0 1 .2-.6l.2-.2z" transform="translate(-736.6 -845.2)" fill="#262016"/><path d="M804.4 1011.7a2.3 2.3 0 0 0 .2.9 18.4 18.4 0 0 1-2.3-6.8 23.1 23.1 0 0 1 2.5-3.5c-.2 3.1-.5 6.2-.4 9.4zM804.1 997.2a2.1 2.1 0 0 0-1.1.6l-.2.2h-.1a1.7 1.7 0 0 1 1.4-.8zM801.5 1413.8c1.9 0 3.2 2.9 1.1 4.1h-.3a10 10 0 0 1-2.3-.9 5.3 5.3 0 0 1-2-1.7l2.4-1.3zM802.7 998h.1l-.2.2v-.2zM802.6 998.2a2 2 0 0 0-.2.6 22.1 22.1 0 0 0-.3 5.2 1.9 1.9 0 0 0-3-1l-.3.2a25.9 25.9 0 0 1 3.8-5z" transform="translate(-736.6 -845.2)" fill="#262016"/><path d="M802.1 1004a2.3 2.3 0 0 1 .1 1.4c0-.5-.1-1-.1-1.4zM802.3 1412.9l-.8.9-1.1.3-2.4 1.3a13.1 13.1 0 0 1-1.6-4.1c-1.4-5.2-2.7-10.4-3.7-15.7-4.2-22.6-6.8-45.6-10.3-68.3-7.1-45.7-7.1-91.8-10.3-137.9a29.2 29.2 0 0 0 4.5 1.5c2.9 43.2 2.7 86.6 9.2 129.5 3.2 21.1 6 42.3 9.4 63.4.9 5.3 1.7 10.7 2.9 15.9.6 2.7 1.4 10.4 4.2 13.2z" transform="translate(-736.6 -845.2)" fill="#262016"/><path d="M802.1 1004c0 .5.1.9.1 1.4a2.2 2.2 0 0 1-.9 1.3l-5.3 3.4a21.9 21.9 0 0 1 2.8-7l.3-.2a1.9 1.9 0 0 1 3 1.1zM801.5 923.4a2.2 2.2 0 1 1 0 4.4 2.2 2.2 0 1 1 0-4.4z" transform="translate(-736.6 -845.2)" fill="#262016"/><path d="M798.8 1003.1a21.9 21.9 0 0 0-2.8 7c-7 4.3-14.2 8.2-21.1 12.6s-10.1 9.5-13.3 16.3a280.9 280.9 0 0 0-13.5 34.3c-3.3 10.4-9 24.2-6.4 35.2 3.1 12.8 7.5 25.5 11.3 38.1 1.8 6.1 3.7 12.2 6 18.2 1.6 4.2 2.4 7.1 6.4 6.7v1.2a2.2 2.2 0 0 0-1.8 2.7l.2.7a7.5 7.5 0 0 1-7-5.1c-6.2-15.3-10.1-31.3-15-47-2.2-6.9-5.9-14.8-5.1-22.2a111.9 111.9 0 0 1 3.7-18.3 301.2 301.2 0 0 1 14.3-40.2c3.7-8.3 7.5-17.4 15.2-22.8 9.3-6.2 19.5-11.1 28.9-17.4zM794.8 1173c.9 4.9-4 5.8-7.8 6.1v-2a2.2 2.2 0 0 0-2.6-2.1h.5c.8-.1 8-.5 5-2.2a10.3 10.3 0 0 0-3.1-1.1l.2-.8a2.2 2.2 0 0 0 2.2-2.2c0-.3 0-.6.1-.9l.8.3c2.2.8 4.3 2.2 4.7 4.9zM792.7 950.9c.5 9.4-4.8 18.2-14.3 18.4-.7-1.4-1.4-2.9-2-4.4 6.7 1 11.9-4.6 12-11.1 0-3.1-.1-6.6-2-9.2-3.9-5.1-10.7-5.4-15.5-1.3l-.6.4c-.3-1.6-.6-3.1-.9-4.7 9.8-6.6 22.6-.5 23.3 11.9z" transform="translate(-736.6 -845.2)" fill="#262016"/><path d="M789.9 1172.7c3 1.7-4.3 2.1-5 2.2h-.5a1.9 1.9 0 0 0-1.7 2.1 44.8 44.8 0 0 1-1 10.7c-2.1-.8-4.6-1.2-6.8-2.1a10.4 10.4 0 0 1-3.5-2.2c-2-1.9-2.7-5.1-3.3-7.8a30 30 0 0 0 6.7-2.8 13.1 13.1 0 0 0 4.1-3.3 31.9 31.9 0 0 0 6.4 1.7l1.5.3a10.3 10.3 0 0 1 3.1 1.2z" transform="translate(-736.6 -845.2)" fill="#ffc9a4"/><path d="M787.2 1161.6a2.2 2.2 0 0 1 2.2 2.2c-.1 1.3-.2 2.6-.2 3.9a35.6 35.6 0 0 0-4.3-1l.2-2.9a2.2 2.2 0 0 1 2.1-2.2z" transform="translate(-736.6 -845.2)" fill="#262016"/><path d="M789.2 1167.7c0 .3 0 .6-.1.9a2.2 2.2 0 0 1-2.2 2.2 2.2 2.2 0 0 1-2.2-2.2c0-.7.1-1.3.1-1.9a35.6 35.6 0 0 1 4.4 1z" transform="translate(-736.6 -845.2)" fill="#262016"/><path d="M786.3 944.6c2 2.6 2 6.1 2 9.2 0 6.5-5.2 12.1-12 11.1a112.6 112.6 0 0 1-6.1-21.2l.6-.4c4.8-4.1 11.7-3.8 15.5 1.3z" transform="translate(-736.6 -845.2)" fill="#dd553a"/><path d="M787 1177.1v2l-2.2.2c-2.6.3-2.7-3.5-.5-4.2a2.2 2.2 0 0 1 2.7 2zM786.9 1170.8l-.2.8-1.5-.3a31.9 31.9 0 0 1-6.4-1.7 10 10 0 0 0 1.9-3.9 38.8 38.8 0 0 0 4 1c0 .7-.1 1.3-.1 1.9a2.2 2.2 0 0 0 2.3 2.2z" transform="translate(-736.6 -845.2)" fill="#262016"/><path d="M784.9 1179.3l2.2-.2a48.8 48.8 0 0 1-3.2 17c-1 2.6-5.2 1.5-4.2-1.2.3-.9.7-1.9 1-2.8h.1c2.6 1 3.8-3.3 1.2-4.2h-.2a44.8 44.8 0 0 0 1-10.7 1.9 1.9 0 0 1 1.7-2.1c-2.4.7-2.2 4.5.4 4.2z" transform="translate(-736.6 -845.2)" fill="#262016"/><path d="M781.9 1187.9c2.6.9 1.5 5.2-1.2 4.2h-.1a39.8 39.8 0 0 0 1.1-4.2h.2z" transform="translate(-736.6 -845.2)" fill="#262016"/><path d="M781.7 1187.9a39.8 39.8 0 0 1-1.1 4.2l-4-1.2v-2.2a2.2 2.2 0 0 0-1.9-2.1l.4-.9c2 .9 4.5 1.4 6.6 2.2zM779.6 1154.5c1.2 3.9 2 7.8 1.2 11.3l-1.1-.4a1.8 1.8 0 0 0-2.4.8l-1.9-.3c2-3.8.2-8.3-1.3-13.2a1.9 1.9 0 0 0 1.4 1z" transform="translate(-736.6 -845.2)" fill="#262016"/><path d="M779.8 1165.4l1.1.4a10 10 0 0 1-1.9 3.9h-.3a2.4 2.4 0 0 1-1.2-3.4 1.8 1.8 0 0 1 2.3-.9zM777.7 1057a1.8 1.8 0 0 1 1.8 2.1v.2a2.1 2.1 0 0 0-1.8-2.3z" transform="translate(-736.6 -845.2)" fill="#262016"/><path d="M777.7 1057a2.1 2.1 0 0 1 1.8 2.3.5.5 0 0 1 0 .1v.2a196.5 196.5 0 0 1-6.6 22.5c.7-7.7 1.5-15.4 2.3-23.1a2.3 2.3 0 0 1 2.5-2.1h.1z" transform="translate(-736.6 -845.2)" fill="#262016"/><path d="M779.5 1059.6v-.2c-2.8 26.2-5.5 52.8-4.9 79.2a2.6 2.6 0 0 1 0 .5c-1.5-4.9-2.9-9.7-4.3-14.5.2-14.2 1.3-28.4 2.6-42.5a196.5 196.5 0 0 0 6.6-22.5zM779.6 1154.5l-4.1-.8a1.9 1.9 0 0 1-1.4-1l-.2-.5a2.3 2.3 0 0 1 2.7-2.6l1.3.3c.6 1.4 1.2 3 1.7 4.6zM778.6 1169.6h.3a13.1 13.1 0 0 1-4.1 3.3 30 30 0 0 1-6.7 2.8l-.3-1.4a2 2 0 0 0-2.4-1.5v-1.2l1.3-.2a15.9 15.9 0 0 0 4.2-1.3 10.9 10.9 0 0 0 4.6-4.3l1.9.3a2.4 2.4 0 0 0 1.2 3.5zM778.4 969.3a16 16 0 0 1-3.5-.3 1.9 1.9 0 0 1-1.4-.9 2.4 2.4 0 0 1 2.5-3.3h.3c.7 1.6 1.4 3.1 2.1 4.5z" transform="translate(-736.6 -845.2)" fill="#262016"/><path d="M778 1149.7l-1.3-.3a2.3 2.3 0 0 0-2.7 2.6c-1.3-4.1-2.7-8.2-4.1-12.3l.6-.2c.8 1.7 3.7 1.6 4.1-.4l2 6.6c.4 1.3.9 2.6 1.4 4zM777.7 1057a2.3 2.3 0 0 0-2.5 2.1c-.8 7.7-1.6 15.4-2.3 23.1-2.5 6.9-5.2 13.7-8.2 20.4l-.2-.8c-.5-2.2-3.3-1.9-4.1-.3 6.2-13.9 11.5-28.2 14.9-43a1.9 1.9 0 0 1 2.4-1.5zM776.5 1188.7v2.2a29.2 29.2 0 0 1-4.5-1.5v-.7a2 2 0 0 1 2.4-2.1 2.2 2.2 0 0 1 2.1 2.1zM776.4 964.9h-.3a2.4 2.4 0 0 0-2.5 3.3h-.2c-3.9-8.8-6.4-18.6-8.1-28.4a3.6 3.6 0 0 0 2.9-1.2 2.1 2.1 0 0 0 .6-1.9h.3l.4 2.4-1.7 1.3c-1.9 1.7.5 4.4 2.5 3.4a112.6 112.6 0 0 0 6.1 21.1z" transform="translate(-736.6 -845.2)" fill="#262016"/><path d="M775 1185.8l-.4.9a2 2 0 0 0-2.4 2.1v.7a10.3 10.3 0 0 1-3.9-2.7c-2.6-3.1-3.6-6.6-4.5-10.4a14.1 14.1 0 0 0 4.3-.5c.6 2.7 1.3 5.9 3.3 7.8a10.4 10.4 0 0 0 3.6 2.1zM774 1152.1l.2.5a1.4 1.4 0 0 1-.2-.5zM774.6 1139.1c-.4 2-3.3 2.1-4.1.4a2.4 2.4 0 0 1-.2-.9c-.1-4.7-.1-9.3 0-14 1.3 4.9 2.8 9.7 4.3 14.5z" transform="translate(-736.6 -845.2)" fill="#262016"/><path d="M770.5 1139.6l-.6.2-1.7-5.2a256.9 256.9 0 0 1-6.7-25.9 2.1 2.1 0 0 0 .7-.9l2.4-5.3c1.7 7.5 3.6 14.8 5.6 22.1-.1 4.7-.1 9.3 0 14a2.4 2.4 0 0 0 .3 1zM770.3 943.7c-2 .9-4.5-1.8-2.5-3.4l1.7-1.3c.2 1.5.5 3.1.8 4.7zM769.1 936.6h-.3c-.3-1.5-2.3-2.7-3.6-1.2a.5.5 0 0 1-.5.1c-.6-4-1.1-8-1.5-11.9h.1a2.3 2.3 0 0 0 3.8-1.6l.2-.6c.4 5 1 10.1 1.8 15.2z" transform="translate(-736.6 -845.2)" fill="#262016"/><path d="M768.7 936.7a2.1 2.1 0 0 1-.6 1.9 3.6 3.6 0 0 1-2.9 1.2l-.7-4.2a.5.5 0 0 0 .5-.1c1.5-1.5 3.4-.3 3.7 1.2zM767.8 1174.4l.3 1.4a14.1 14.1 0 0 1-4.3.5l-.2-.7a2.2 2.2 0 0 1 1.8-2.7 2 2 0 0 1 2.4 1.5zM766.9 919l.2 2.5-.2.6a1.7 1.7 0 0 0-.5-1.2h.2q-.9-1.9-1.7-3.8a2.3 2.3 0 0 1 2 1.9z" transform="translate(-736.6 -845.2)" fill="#262016"/><path d="M767 922.1v.4c-.5 1.5-2.8 2.3-3.8.8l-.2-2 3.6-.5a1.7 1.7 0 0 1 .4 1.3z" transform="translate(-736.6 -845.2)" fill="#262016"/><path d="M766.8 922.5v-.4a2.3 2.3 0 0 1-3.8 1.6v-.3c1 1.4 3.3.6 3.8-.9zM766.6 920.8h-.2l-.2-.2a7.3 7.3 0 0 0-2.7-1.5 15.1 15.1 0 0 1 1.2-2.2h.2q.8 2 1.7 3.9z" transform="translate(-736.6 -845.2)" fill="#262016"/><path d="M766.4 920.8l-3.6.5a3.1 3.1 0 0 0 0-.4 14.8 14.8 0 0 1 .8-1.8 7.3 7.3 0 0 1 2.7 1.5zM764.6 935.6l.7 4.2a10 10 0 0 1-4.9-2 13.1 13.1 0 0 1-5.3-8.7c-.7-4.4 2.1-9.3 6-10.1.5 1.3 1.1 2.7 1.7 4l.2.3v.3c-1.9-1.5-3.7 1.5-3.7 3.1a8 8 0 0 0 .7 4c.4.6 3.2 4.4 4.6 4.9zM764.9 917h-.2zM762.6 919a1.8 1.8 0 0 1 2.1-2 15.1 15.1 0 0 0-1.2 2.2zM764.5 1101.8l.2.8-2.4 5.3a2.1 2.1 0 0 1-.7.9l-1.3-5.8a2.2 2.2 0 0 1 .1-1.4c.8-1.7 3.6-2 4.1.2z" transform="translate(-736.6 -845.2)" fill="#262016"/><path d="M763 923.6c.4 3.9.9 7.9 1.5 11.9-1.4-.5-4.2-4.2-4.5-4.8a8 8 0 0 1-.7-4c.1-1.6 1.8-4.5 3.7-3.1z" transform="translate(-736.6 -845.2)" fill="#ffc9a4"/><path d="M763.5 919.2a14.8 14.8 0 0 0-.8 1.8l-.2-1.9z" transform="translate(-736.6 -845.2)" fill="#262016"/><path d="M763 923.3l-.2-.3c-.6-1.3-1.2-2.6-1.7-4h1.5l.2 1.9-.2.4h.2z" transform="translate(-736.6 -845.2)" fill="#262016"/><path d="M762.8 920.9a3.1 3.1 0 0 1 0 .4h-.2zM760.3 1102.9l1.3 5.8c-1.5 1-4-.9-3.1-3.1l1.9-4.2a2.2 2.2 0 0 0-.1 1.5z" transform="translate(-736.6 -845.2)" fill="#262016"/></svg>