<svg id="ff3a2deb-4126-4e72-a0ba-26f061c3234d" xmlns="http://www.w3.org/2000/svg" xmlns:xlink="http://www.w3.org/1999/xlink" viewBox="0 0 729.9 708.1"><style>.st0{clip-path:url(#SVGID_2_)}.st1{fill:#262016}.st2{fill:#ffc9a4}.st3{fill:#54618c}.st4{fill:#1b1d21}.st5{fill:#3f261d}.st6{fill:#41444c}.st7{fill:#dd553a}.st8{fill:#414e72}.st9{fill:#f48f7d}.st10{fill:#538463}.st11{fill:#564642}.st12{fill:#323533}.st13{fill:#5e3326}.st14{fill:#eadec7}.st15{fill:#52705a}</style><title>scene9-main</title><defs><path id="SVGID_1_" d="M-534.7-11.9h1280v720h-1280z"/></defs><clipPath id="SVGID_2_"><use xlink:href="#SVGID_1_" overflow="visible"/></clipPath><g class="st0"><path class="st1" d="M462.8 782.8c1.2 8.3 3.5 25.1-3 32.2-12.4 13.5-20.1-10.9-24.3-28.8-1.5 2.2-3.7 3.1-7.2 1.1-10.6-6.2-9-25.8-8.5-37.3-2.9 0-5.7-.7-8.2-2-6.9-4.1-8.3-20.9-10-27.8-7.6-32.1-14.3-64.2-25-95.5-5-14.6-9.9-29.3-14.8-44 1.2 17.3 1.3 34.7 1.9 51.6.8 25 2.8 50.9.9 75.9 5.1 21.1 9.3 43.6 9 65.4-.5 30.8-3.1 61.6-3.9 92.4-.9 33.3-2.1 66.6-3.4 99.8l-7.8-.3c.2-5.5.4-10.9.6-16.4 1.5-43.6 2-87.2 3.9-130.7.9-20.6 3.4-41.3 1.4-61.8-1.4-14.1-3.7-28.1-6.9-41.9-11.8 5.4-25.3 8.1-38.9 9.5l-.9-7.9c13.7-1.4 27.2-4.3 38.7-10.2 1.7-24.3-.2-49.4-1-73.6-1.1-31.4-.6-65.1-8.1-95.8-.7-1.9.3-4 2.2-4.7.2-.1.4-.1.7-.2 2-.8 4.2.2 4.9 2.1.1.2.1.4.2.6 16.9 52 36.6 103.4 48.4 156.9 2.6 11.9 5.1 23.9 8.3 35.6 1.8 6.7 3.2 15.3 12.2 14.5s18.5-3 21.2-11.3l7.7.7c-1 3.9-3 7.5-5.9 10.3 8.2 12.5 13.5 26.7 15.6 41.6zm-6.5 18.9c.2-3.1.2-6.3-.1-9.4-1.8-17.2-6.6-32.2-15.8-46.6l-1.5.8c-3.5 1.5-7.1 2.5-10.8 3.1-.4 11-1.6 28.7 2.4 28.3.9-.6-.1-6.6 2.1-10s6.5-2.6 7.5 1l7.7 28.2 2.6 9.4c2.5 7 5.5 5.1 5.9-4.8z"/><path class="st2" d="M456.1 792.3c.3 3.1.3 6.3.1 9.4-.4 9.9-3.3 11.7-5.8 4.6l-2.6-9.4-7.7-28.2c-1-3.6-5.6-3.9-7.5-1s-1.2 9.4-2.1 10c-4 .5-2.8-17.3-2.4-28.3 3.7-.6 7.3-1.6 10.8-3.1l1.5-.8c9.1 14.6 13.9 29.7 15.7 46.8z"/><path class="st1" d="M451.3 698.6c1.8 11 4.3 22.6 1.7 32.1l-7.7-.7c.4-1.3.7-2.6.7-4 .7-19.2-5.2-39.1-9.8-57.6-11.8-47.7-21.2-96.6-40-142.2-8.7-21.1-20-41.7-38-56.3-12.9-10.5-26.9-20-40.7-29.6 3.3 7.7 4.3 16.1.8 23.9-4.7 10.7-14.2 16.1-24.9 18.7l-1.8-7.9c9.5-2.1 17.9-6.7 19.9-16.3 1.5-7.5-.6-14.6-4.4-20.7-.2 1-.4 2-.5 3v.2c0 .7-.2 1.3-.5 1.9-.2.8-.5 1.6-.8 2.4l-7.9-1.8.4-1c.2-.9.4-1.7.6-2.5.1-6.3-.2-12.7-.5-19-17.4 7.2-36.5 8.8-54.9 4.8l-4-1 1.9-7.9h.5c36 8 72.5-4.9 90.9-37.5l7.4 3.2c-2.6 4.5-5.5 8.9-8.7 13.1-6.7 8.7-15.3 16-25 21.2.1 1.7.1 3.4.2 5h.1c20.1 14.5 43.7 27.7 61.5 45.1s30.2 40 39.5 64.2c11 28.8 18.5 58.8 26.1 88.6 6.4 26.1 13.6 52.3 17.9 78.6z"/><path class="st3" d="M436.2 668.4c4.6 18.5 10.5 38.4 9.8 57.6 0 1.4-.3 2.7-.7 4-2.7 8.3-13.1 10.5-21.2 11.3s-10.3-7.8-12.2-14.5c-3.2-11.8-5.7-23.7-8.3-35.6-11.7-53.5-31.4-104.8-48.4-156.9-.5-2-2.5-3.3-4.5-2.9-.2 0-.4.1-.6.2-2 .3-3.4 2.2-3.1 4.2 0 .2.1.4.2.7 7.6 30.8 7.1 64.4 8.1 95.8.8 24.2 2.7 49.4 1 73.6-11.5 5.9-25 8.8-38.7 10.2s-27.7 1.4-40.2 1.5c-16.7.2-33.3-.5-49.9-1.9-9.2-.8-18.4-1.9-27.5-3.2-7.5-1.1-16.5-4.6-24-4.3h-.3c-1.6-18.7-1.6-37.5-1.1-56.2 25.4 17.3 53.5 29.5 82.4 39.8l1.2.2c1.3.2 2.6.1 3.8-.3 1.4-.4 2.8-1 4-1.9 20.7 8.7 56.9 11.6 70.7-10.3 4.6-7.3 4.7-14.8-3.5-19.3-5.2-2.9-12.1-2.6-18.9-1.4.1-1.9-.3-3.8-1.2-5.4-3.5-7.3-26.7.6-34.2 3-.3-1.6-.9-3.2-1.9-4.5-4.4-5.6-11.9-8.4-18.1-11.7-9-4.8-17.9-9.4-26.5-14.8-13.9-8.8-26.5-19-41.3-26.2 6.1-24.9 7.7-50.1 10.4-75.5.5-5.3-7.7-5.2-8.2 0-2.6 24.3-4.2 48.4-9.8 72.2-4.8-1.6-6.8 6.2-2 8 21.8 8.4 39.3 24.9 59.6 36.3 6.8 3.8 30.3 11.2 28.9 21-.5 3.7-4.5 22.7-10.2 22.7h-.5c-27.9-9.9-52.4-22.1-77.7-37.3-10-6.1-18.4-14-26.6-22.4s-7.2-21.2-6.1-32.9c.3-3.6.7-7.1.9-10.1 1.9-30 8.2-58.7 14.2-88 5.4-26.1 28.9-36.8 49.7-48.8-1.4 6.1-1.1 12.5.9 18.4 6.8 20 32.5 22.5 50.2 22.3 1.2-.7 2.7-.7 3.9 0 7.8.1 16.5-.3 24.6-2.3 10.6-2.6 20.1-8 24.9-18.7 3.5-7.9 2.4-16.3-.8-23.9 13.8 9.6 27.8 19.1 40.7 29.6 18 14.6 29.3 35.2 38 56.3 18.9 45.7 28.2 94.6 40.1 142.3zm-171-128.8s5.5-8.2 0-8.2-5.5 8.2 0 8.2zm0 44.9s5.5-8.2 0-8.2-5.5 8.2 0 8.2zm0 39.7s5.5-8.2 0-8.2-5.5 8.2 0 8.2z"/><path d="M399 1238c7.9 5.3 42.5 28 19.9 38.5-7.3 3.4-18.1.6-25.3-1.6-17.8-5.5-35.5-11.5-53.3-17.2l-30.6-9.9c-3-1-9.4-2.2-11.2-5.4-4.5-7.9-.9-18.9 1.6-27.6-.6-.3-1.1-.7-1.6-1.1-6.2-6.2-4-23.1-4.6-31.2l-3-40.2c-2.3-30.5-4.5-60.9-6.8-91.4-3.8-51-7.6-102-11.3-153.1-1 82-2.3 164.1-2 246.1.1 17.5.2 35 .5 52.4 0 1.8.1 3.7 0 5.4h-8c0-2.1-.3-4.1-.3-5.3l-.3-23.6c-.1-16.7-.2-33.4-.2-50.1 0-37.3.2-74.6.6-111.9.7-70.2 1.9-140.4 2.4-210.6-.2-2 1.2-3.8 3.2-4h.6c2.1-.3 4.1 1.2 4.4 3.4v.6c1.7 23.4 3.5 46.8 5.2 70.3 4.1 56.4 8.3 112.8 12.5 169.2l6.8 92.1c1.1 14.8 2.2 29.6 3.3 44.3.5 6.3 1 12.7 1.4 19 .2 3 .5 6 .7 9.1.4 5.1 13.6 2.9 16 2.6 9.6-1 27.6-.8 28.3-15.4l.7-16.4 1.5-32.1c.9-21 1.9-42 2.8-62.9 1.7-38.1 3.9-76.3 5.4-114.4l7.8.3c-1.1 27.6-2.2 55.2-3.5 82.7-2 43.9-3.9 87.9-5.9 131.8-.4 9.2-.1 19.1-5.2 25.4 16.4 9.8 31.6 21.6 47.5 32.2zm-5.5 28.2c2.7.8 24.7 6.8 23.9.3-1.7-13.4-29.9-26.4-40.9-33.9s-20.8-14.8-31.8-21.2l-.7-.5-2.5.7c-8.9 2.1-17.9 3.3-27 3.8l-6.2.5c-1.8 6.1-4.4 13.7-3.8 19.5.4 3.6 14.5 6.8 17.5 7.8l35.7 11.5c12 3.8 23.8 7.8 35.8 11.5z"/><path class="st4" d="M417.4 1266.5c.8 6.5-21.2.5-23.9-.3-12-3.7-23.8-7.7-35.7-11.5l-35.8-11.6c-3-1-17.1-4.2-17.5-7.8-.6-5.8 2-13.4 3.8-19.5l6.2-.5c9.1-.5 18.1-1.7 27-3.8l2.5-.7.7.5c11 6.4 21.4 14 31.8 21.2s39.2 20.6 40.9 34z"/><path class="st1" d="M394.7 215.5c2 8 2.8 16.2 2.4 24.4l-7.6-.5c.3-5.7-.2-11.5-1.6-17.1-3.2-13.4-12.2-36.5-28.4-38.5 3 8.2 3 17.3 0 25.5-1.8 5-9.7 2.8-7.9-2.2 9.4-27-17.6-46.8-38.9-56.3a122.6 122.6 0 0 0-78.3-7.4c-53.9 12.6-88.1 62.9-73 116.1 8.5-11.6 22.2-17.9 36.8-21.3l1.7 7.4c-14.8 3.4-27.7 10.1-34.7 23.5.2 10.6.7 21.8 1.7 33.1 20.6-12.2 43.9 4.7 41.9 28.4-1.4 16.8-12.7 31.3-29.6 30.3 5.9 15.2 14.4 28.8 26.5 39.1l-5.1 5.6c-10.4-8.3-18.8-18.8-24.8-30.7-11.3-22.5-15.6-46.9-17.5-71.7-9-.6-17.3-14.6-17.2-22.5s2.3-12.5 8.1-15.9c1.5-.8 3.1-1.3 4.8-1.4-19.1-61.5 24.4-119.7 86.9-129.5 30.6-4.8 61-.4 87.6 15.9 10.5 6.4 20.8 15.2 27.1 25.8h.2c20.2-1.6 34.8 22.9 38.9 39.9zM200.6 330.7c.2-6.5-.2-14.4-5.6-19-8.4-7-18.1-6.8-26.7-.5l-.5.3c1.5 13.8 4.3 27.5 8.3 40.8 13.8 2.9 24.1-8.3 24.5-21.6zm-42.8-36.3c-.4-7.3-.6-14.6-.8-21.9-5.9-5-8.2 8.2-6.9 12s3.9 8.2 7.7 9.9z"/><path class="st1" d="M389.5 239.5l7.6.5c-.9 15.6-6.9 29.4-17.9 41.8 4.8 3 7.5 8.5 6.8 14.1-.7 6.5-4.2 12.4-9.6 16.2-3.7 2.7-8.5 6.3-13.1 5.5-5.5 22.7-12.3 45.7-23.8 65.4l-7.4-3.2 1.4-2.6c2.3-4.5 4.5-9.1 6.4-13.8-18-3.1-29.8-23.9-23.5-41.6s25.4-27.8 41.2-16.5l4.5-19.5c.5-19.9-14.8-41.9-27.7-55.3-22.3 10.7-48.5 7.9-73.1 10.3-17.2 1.6-41.1.2-61.4 4.9l-1.7-7.4c11.2-2.6 22.9-3.6 33.1-4 18.9-.8 37.8-2.3 56.7-3s37.9-2.7 53.6-14.7c4.2-3.2 8.3 3.9 4.2 7.1l-4 2.8c12.6 13.6 26.4 33.7 28.4 53.1 11.1-11.6 18.5-24.8 19.3-40.1zm-13.4 61c1.5-2.8 2.6-6.9.7-9.9s-5.7-.6-7.1 1.8c-.3.4-.6.8-1 1.1l-3.6 15.8c3.3 0 10-6.9 11.1-8.8h-.1zm-20.6 13.4l-1-.7c-14-12.6-32.4 2.7-31.2 18.8.8 11.7 7.7 22.5 19.8 23.4 4.9-13.6 9.1-27.5 12.4-41.5z"/><path class="st5" d="M387.9 222.4c1.4 5.6 1.9 11.4 1.6 17.1-.9 15.3-8.2 28.6-19.4 40-2-19.4-15.7-39.6-28.4-53.1l4-2.8c4.2-3.2.1-10.4-4.2-7.1-15.8 12.1-34.3 14-53.6 14.7s-37.8 2.2-56.7 3c-10.2.4-21.9 1.4-33.1 4-14.5 3.4-28.3 9.7-36.8 21.3-15.2-53.2 19.1-103.5 73-116.1 26.2-6.2 53.7-3.6 78.3 7.4 21.2 9.5 48.3 29.3 38.9 56.3-1.8 5 6.2 7.2 7.9 2.2 3-8.2 3-17.3 0-25.5 16.3 2 25.3 25.2 28.5 38.6z"/><path class="st2" d="M376.9 290.6c1.9 3 .8 7.1-.7 9.9s-7.8 8.8-10.9 8.8l3.6-15.8c.4-.3.7-.7 1-1.1 1.3-2.4 4.5-5.8 7-1.8z"/><path class="st6" d="M364.3 756.6c2 20.5-.5 41.3-1.4 61.8-2 43.5-2.5 87.1-3.9 130.7-.2 5.5-.4 10.9-.6 16.4-1.5 38.1-3.7 76.3-5.4 114.4-.9 21-1.9 42-2.8 62.9l-1.5 32.1-.7 16.4c-.7 14.7-18.7 14.4-28.3 15.4-2.4.3-15.6 2.4-16-2.6-.2-3-.4-6-.7-9.1-.5-6.3-1-12.7-1.4-19-1.1-14.7-2.2-29.5-3.3-44.3l-6.8-92.1c-4.2-56.4-8.4-112.8-12.5-169.2-1.7-23.4-3.5-46.8-5.2-70.3.1-2.2-1.6-4-3.8-4h-.6c-2-.1-3.7 1.4-3.8 3.4v.6c-.5 70.2-1.7 140.4-2.4 210.6-.4 37.3-.6 74.6-.6 111.9 0 16.7.1 33.4.2 50.1l.3 23.6c0 1.2.3 3.2.3 5.3s-.6 6.3-3.8 6.7c-6 .7-12.2.9-18.3 1.2-16.8 1-19.2-8.5-22.6-22.4-2.4-10-4.2-20-5.8-30.1-3.6-21.9-6-43.9-9.3-65.8-6-40.6-12.7-80.8-16.6-121.6-.5-5.8-1-11.6-1.5-17.5-3.3-44.9-4.4-89.9-6.7-134.9-1-20.2-2.7-40.3-4.1-60.5-.5-7.1-.6-14.3-.5-21.4s-1.8-19.4 8.1-17.3c33.8 6.8 68.7 8.7 103.1 7.9 10.4-.2 21.7-.5 33.1-1.7 13.6-1.4 27.2-4 38.9-9.5 3.2 13.8 5.5 27.8 6.9 41.9z"/><path class="st2" d="M334.4 230.4c13 13.5 28.2 35.5 27.7 55.3l-4.5 19.5c-15.8-11.3-35-1.1-41.2 16.5s5.5 38.5 23.5 41.6c-2 4.7-4.1 9.3-6.4 13.8l-1.4 2.6c-18.4 32.6-54.9 45.5-90.9 37.5h-.5c-12.8-2.8-24.8-8.6-34.9-17-12.1-10.3-20.6-23.8-26.5-39.1 16.9 1 28.2-13.4 29.6-30.3 1.9-23.7-21.4-40.6-41.9-28.4-1-11.4-1.5-22.5-1.7-33.1 7-13.5 19.9-20.1 34.7-23.5 20.3-4.7 44.2-3.3 61.4-4.9 24.5-2.5 50.7.2 73-10.5zm-30.8 68.7c2.3 0 4.1-1.8 4.1-4.1s-1.8-4.1-4.1-4.1h-.5c-2.2-.2-4.1 2-4.1 4.1.1 2.2 1.9 4 4.1 4.1h.5zm-39.4 83.6c12.8.6 40.8-7.4 38.3-25.4-.5-5.7-5-10.2-10.7-10.7-12.5-1.5-23.9 7.4-35.3.3-11.4-7.1-29.4-12.8-31 5.4-1.4 16.8 25.6 29.9 38.6 30.5l.1-.1zm10.4-64.8c4.5-2.9.3-10-4.2-7.1-2.8 1.9-5.8 3.5-8.9 4.8-1.6.5-3.3.8-5 .7-2.1 0 1.6-4.8 1.6-4.7 3.8-4.8 7.5-8.9 7.9-15.3s-7.9-5.3-8.2 0c-.5 8.6-15.5 14.8-9.1 24.5s19.7 1.1 25.9-2.9zm-39.7-24.4c2.3 0 4.1-1.8 4.1-4.1s-1.8-4.1-4.1-4.1h-.5c-2.2-.2-4.1 2-4.1 4.1.1 2.2 1.9 4 4.1 4.1h.5z"/><path class="st7" d="M354.5 313.2l1 .7c-3.4 14.1-7.5 27.9-12.5 41.5-12.1-.9-19-11.7-19.8-23.4-1.1-16.1 17.3-31.4 31.3-18.8z"/><path class="st1" d="M333.2 660.4c8.2 4.5 8.1 12 3.5 19.3-13.8 21.9-50 19-70.7 10.3-1.2.9-2.6 1.5-4 1.9l-2-7.8c5.6 0 9.6-19 10.2-22.7 1.4-9.8-22.1-17.2-28.9-21-20.3-11.3-37.8-27.8-59.6-36.3-4.8-1.9-2.9-9.6 2-8 5.7-23.8 7.2-47.9 9.8-72.2.5-5.2 8.8-5.3 8.2 0-2.7 25.4-4.3 50.6-10.4 75.5 14.8 7.1 27.3 17.3 41.3 26.2 8.6 5.4 17.6 10.1 26.5 14.8 6.1 3.3 13.6 6.1 18.1 11.7 1 1.3 1.6 2.9 1.9 4.5 7.5-2.4 30.7-10.3 34.2-3 .9 1.6 1.3 3.5 1.2 5.4 6.6-1.2 13.5-1.5 18.7 1.4zm-10.6 21.2c8.2-5.1 7.2-15.8-3.5-14.6-5.7.7-11.3 1.8-16.8 3.3-3.9 1-7-4-4-6.9s9.8-4.9-.2-2.9c-6.2 1.2-12.2 2.7-18.3 4.5h-.7c-1 6.6-3.5 12.8-7.1 18.4 15.7 6.4 35.9 7.4 50.6-1.7v-.1z"/><path class="st2" d="M319 667.1c10.8-1.3 11.7 9.5 3.5 14.6-14.7 9.2-34.9 8.1-50.7 2 3.6-5.6 6.1-11.8 7.1-18.4h.7c6-1.8 12.1-3.3 18.3-4.5 10.1-2 3 .3.2 2.9s.1 7.9 4 6.9c5.5-1.6 11.2-2.7 16.9-3.5z"/><path class="st1" d="M317.7 716.2l.9 7.9c-11.3 1.2-22.6 1.5-33.1 1.7-34.4.8-69.3-1.2-103.1-7.9-10-2-8.1 10.2-8.1 17.3s0 14.3.5 21.4c1.4 20.2 3.1 40.3 4.1 60.5 2.3 44.9 3.4 90 6.7 134.9.5 5.9 1 11.7 1.5 17.5l-7.6.7c-2.3-24-4.1-48.1-5.2-72.2-2.1-45.1-3.7-90.1-7.3-135-.6-7.2-4.7-35.8 1.1-48.5-2.4-22.6-2.2-45.4-1.5-68.1-8.9-6.6-18.8-15.7-23.8-25.7-4.1-8.3-2.8-20.3-1.9-29.9l8 .7c-1.1 11.7-1.6 25 6.1 32.9s16.6 16.3 26.6 22.4c25.3 15.3 49.8 27.4 77.7 37.3h.7l2 7.8c-1.2.4-2.5.5-3.8.3l-1.2-.2c-29-10.3-57-22.5-82.4-39.8-.5 18.7-.5 37.5 1.1 56.2h.3c7.5-.2 16.5 3.2 24 4.3 9.1 1.3 18.3 2.4 27.5 3.2 16.6 1.3 33.3 2.1 49.9 1.9 12.6-.2 26.5-.2 40.3-1.6z"/><path class="st8" d="M306.9 438c3.8 6.2 6 13.2 4.4 20.7-2 9.6-10.4 14.2-19.9 16.3-6.1 1.3-12.4 1.9-18.6 1.9 0-4.5-.2-9-.6-13.6 10.4-.9 23.1-2.6 29.3-11.1 1.5-2 2.7-4.3 3.6-6.7.3-.8.6-1.6.8-2.4.3-.6.5-1.2.5-1.9v-.2c.1-1 .3-2 .5-3z"/><path class="st1" d="M297.3 443.7l7.9 1.8c-.9 2.4-2.1 4.7-3.6 6.7-6.3 8.5-18.9 10.3-29.3 11.1.4 4.5.6 9 .6 13.6 6.2 0 12.5-.6 18.6-1.9l1.8 7.9c-8.1 2-16.8 2.4-24.6 2.3-1.2-.7-2.7-.7-3.9 0-17.7.2-43.5-2.3-50.2-22.3-2-5.9-2.3-12.3-.9-18.4-20.8 12-44.3 22.7-49.7 48.8-6 29.3-12.3 58.1-14.2 88-.2 3.1-.6 6.5-.9 10.1l-8-.7c.1-1.5.2-2.9.3-4.3 2.2-34.4 6.8-70.1 16.9-103.2 8.4-27.5 39.6-37.6 60.8-51.7 2.1-3.4 4.5-6.5 7.3-9.3.2-.4.5-.8.9-1.1-9.5-3.8-18.4-9-26.4-15.5l5.1-5.6c10.1 8.4 22.1 14.2 34.9 17l-1.9 7.9c-.3 7.1-1.1 14.2-1 21.2 6.5 7.8 18.5 8.5 28 9.2l1 .2 1-.2c9-.5 25.5-1.3 29.5-11.6zM260.6 477c0-4.5.2-9.1.6-13.6-11.1-.9-24.6-3-30.7-12.8l-.3-.5-.4-.7c-2.2-4-3.7-8.3-4.3-12.8-4.7 7.9-7.1 17.5-2.4 25.5 7.7 12.8 23.5 14.7 37.5 14.9zM307.7 295c-.1 2.2-1.9 4-4.1 4.1h-.5c-2.2-.1-4-1.9-4.1-4.1 0-2.1 1.9-4.3 4.1-4.1h.5c2.2 0 4 1.8 4.1 4.1zM302.5 357.4c2.4 18-25.6 26-38.3 25.4-12.7-.6-40-13.7-38.6-30.3 1.5-18.2 20.5-12.3 31-5.4s22.9-1.8 35.3-.3c5.6.5 10 5 10.6 10.6zm-7.7 3.7c1.2-6.1-4.8-7.4-9.2-6.4s-9.6 3-14.6 3.8c-7.5 1.2-12.1-.3-18.6-4.3-2.7-2-5.7-3.7-8.8-5-4.1-2-8.4-1.5-10.6 3.8-2.1 6.9 8.5 12.3 14.3 15.4 11.5 6.4 20.5 9 36.4 2.1 3.2-1.4 10.5-5.4 11.1-9.5v.1z"/><path class="st2" d="M297.8 421.1c.3 6.3.5 12.6.5 19-.2.9-.3 1.7-.6 2.5l-.4 1c-4 10.3-20.5 11.1-29.6 11.8l-1 .2-1-.2c-9.5-.7-21.5-1.5-28-9.2-.1-7.1.7-14.2 1-21.2l4 1c18.4 4 37.7 2.3 55.1-4.9z"/><path class="st9" d="M285.5 354.7c4.4-1 10.4.2 9.2 6.4-.5 4-7.9 8.1-11.2 9.5-16 6.9-25 4.3-36.4-2.1-5.7-3.2-16.3-8.5-14.3-15.4 2.2-5.3 6.5-5.9 10.6-3.8 3.1 1.3 6.1 3 8.8 5 6.5 4 11.1 5.5 18.6 4.3 5.2-1 9.6-3.4 14.7-3.9z"/><path class="st1" d="M270.4 310.9c4.5-2.9 8.6 4.3 4.2 7.1-6.1 3.9-20.1 11.7-25.9 2.9s8.6-15.9 9.1-24.5c.3-5.3 8.6-5.3 8.2 0s-4.1 10.5-7.9 15.3c0 0-3.7 4.7-1.6 4.7 1.7.1 3.4-.2 5-.7 3.1-1.3 6.1-2.9 8.9-4.8z"/><path d="M270.2 1214.2c1.8 6.8 7.9 21.7 3.9 28.8s-19.3 9.8-27.8 12.6l-45.9 14.8c-12.2 4-28.3 12.5-41.6 10.7-23.6-3-14.5-20.5-1.1-31.8 2.3-1.9 4.5-3.8 6.9-5.5l5.5 6c-3.5 2.6-6.7 5.4-9.8 8.4-7.7 7.7-4.4 16.9 7.6 13.7 3.4-.8 6.7-1.8 9.9-2.9l56.2-18.1 25.5-8.2c12.2-4 5.2-17.1 2.8-26.3v-.2l6.7-4c.6.5 1 1.2 1.2 2z"/><path d="M263.4 1201.5h8c-.1 4.1-.5 7.8-2.4 10.5l-6.7 4-2.7.3c-6.3.3-24.5 3.8-34.9.8-14.7 8.2-29.9 15.9-43.9 25.2-3.6 2.4-7.2 4.8-10.6 7.4l-5.5-6c16.4-12.5 34.8-22.1 52.9-32.1-7.7-15.6-9.8-35.7-12.5-52.6-10-62.8-19.5-125.7-25.5-188.9l7.6-.7c3.8 40.8 10.6 81 16.6 121.6 3.2 21.9 5.6 44 9.3 65.8 1.7 10.1 3.4 20.1 5.8 30.1 3.4 13.9 5.8 23.4 22.6 22.4 6-.4 12.2-.5 18.3-1.2 2.9-.2 3.6-3.4 3.6-6.6z"/><path class="st1" d="M265.2 531.3c5.5 0 0 8.2 0 8.2-5.5.1-5.5-8.2 0-8.2zM265.2 576.2c5.5 0 0 8.2 0 8.2-5.5.1-5.5-8.2 0-8.2zM265.2 615.9c5.5 0 0 8.2 0 8.2-5.5.1-5.5-8.2 0-8.2z"/><path class="st4" d="M262.3 1216.4c2.4 9.2 9.4 22.3-2.8 26.3l-25.5 8.2-56.2 18.2c-3.3 1.1-6.6 2.1-9.9 2.9-12 3.2-15.3-6.1-7.6-13.7 3.1-3 6.3-5.8 9.8-8.4 3.5-2.6 7.1-5 10.6-7.4 14-9.3 29.2-17 43.9-25.2 10.5 3 28.6-.5 34.9-.8l2.7-.3s0 .1.1.2z"/><path class="st8" d="M261.2 463.3c-.4 4.5-.6 9.1-.6 13.6-14-.1-29.8-2-37.5-15-4.7-8-2.3-17.6 2.4-25.5.6 4.5 2.1 8.8 4.3 12.8l.4.7.3.5c6.1 9.9 19.6 12 30.7 12.9z"/><path class="st1" d="M239 289.5c-.1 2.2-1.9 4-4.1 4.1h-.5c-2.2-.1-4-1.9-4.1-4.1 0-2.1 1.9-4.3 4.1-4.1h.5c2.2 0 4 1.8 4.1 4.1z"/><path class="st7" d="M195 311.6c5.4 4.6 5.8 12.5 5.6 19-.4 13.3-10.7 24.6-24.4 21.6-4-13.3-6.8-27-8.3-40.8l.5-.3c8.4-6.2 18.2-6.5 26.6.5z"/><path class="st2" d="M157 272.5c.2 7.3.4 14.6.8 21.9-3.7-1.7-6.6-6.5-7.7-9.8s1-17.2 6.9-12.1z"/><path class="st1" d="M656.7 542.9c7.3 24.3-9.3 41.9-26.2 57.1-17.1 15.1-34.9 29.3-53.6 42.4l1.4 52.3c.2 8.9 3.2 22.9.4 31.4-.3.8-.6 1.6-1 2.4 15.6 54.8 24.4 111.4 33.4 167.6l-8.1 1.3c-1.7-10.6-3.4-21.2-5.2-31.9-7.3-43.3-14.8-86.8-26.5-129.2-13.7 10.8-40.7 11.7-54.9 11.8-31.7.3-63.7-3.2-94.3-11.3l2-7.4c6.2 1.7 12.8 2.5 17 3.3 26.1 5.2 53.2 8.3 79.9 7 14-.7 29.2-2.1 41.9-8.7 10-5.2 7.8-15.4 7.5-24.8-.5-19.3-1-38.7-1.5-58.1l-.5.4c.3 4-2.7 7.4-6.7 7.7h-.2c-5 5.8-11.6 9.8-18.9 12.8-4.4 1.8-9.7 4.7-14.5 4.2-2.5-.3-4.3-2.2-5.7-4.3-3 1.3-6.1 2.4-9.2 3.3l-2.3-7.6c11.5-3.3 22.6-8.6 29.4-16.6 2.7-3.1 5-6.5 6.8-10.2 5.7-12.9-12.8-2.1-15.1 0l-5.8-4.5c1.9-1.8 3.7-3.6 5.7-5.3l-4.2 1.8-3.3-7.4c5.1-2.3 10.2-4.6 15-6.5 14.8-5.6 28.5-12 39.3-23.1l5.9 5.4c-11.5 11.7-24.8 18.4-40.4 24.6 1.4.1 2.8.3 4.2.7 6.3 2 9.3 6 8.3 11.5l.4.9c1 2.6 2 5.3 3.1 7.8.5-.5 1.1-.8 1.8-.9 19.2-13.3 37.9-26.6 55.6-42.2s42.6-35.4 27.7-63c-9.7-18.3-20.9-35.7-33.4-52.1l6.4-5.1c7 9.1 13.7 18.4 19.8 28.2s15.1 22.4 18.6 34.3zM554.4 651.5c-.8-1.5-1.4-3-2-4.5l-.6-1.6c-5 7.9-12.1 14.1-20.4 18.9 1.6-.4 3.2-1 4.7-1.7 3.1-1.1 6.2-2.4 9.1-4 3.4-1.9 6.6-4.3 9.2-7.1z"/><path d="M621.5 1243.9c14.4 6.7 35.3 16 34.8 31.1-.7 22.9-29 19.2-44.2 13.3l-4.2-1.7 3-7.3c3.6 1.6 7.4 2.9 11.3 3.8 5.9 1.3 14.1 2.7 20.1.5 5.9-9.1 5-15.7-2.5-19.8-6.3-4-13-7.5-19.7-11-2.7 3.1-5.3 6.2-8.1 9.3-1 1.1-2.6 1.5-4 1.1-7.7-2.4-15.3-5.2-22.8-8.2l3.1-7.4c4.3 1.8 8.7 3.4 13.1 4.8 6.4 2.1 8.4.1 11.4-3.5l-3.5-1.9-.7-.5c-15.1-8.1-28.8-17.9-40.1-31.1l-.4-.5-.2-.3c-4.7-6.1-4.9-16-4.4-24.6l7.8.2c-.4 7.4.1 15 3.4 19.8 13 15 29 25.4 46.8 33.9h.1-.1z"/><path class="st10" d="M645.1 537.7c14.9 27.6-8.8 46.2-27.7 63s-36.3 28.9-55.6 42.2c-.7.1-1.3.4-1.8.9-1.1-2.6-2.1-5.2-3.1-7.8l-.4-.9c1-5.6-2-9.6-8.3-11.5-1.4-.4-2.8-.6-4.2-.7 15.6-6.2 28.9-12.9 40.4-24.6 1.6-1.7 3.3-3.4 4.9-5.3 6.1-7.3 13.1-18.1 16.4-29 3.1 2.2 8.3-1.5 5.9-5.5l-4.2-6.9c0-2.1-.3-4.2-.9-6.2-2.2-8.2-6.2-14.7-11.9-20.9-3.1-3.5-6.6-6.6-10.4-9.2-3.8-4.8-8.2-9.2-12.1-14-1-1.5-3.1-1.9-4.6-.9-1.6.5-2.7 2.1-2.5 3.8.2 4.2 1.7 8.1 1.9 12.3l-.8.9-1.3 1.8-1.2 1.8c-8.9 2.3-13.7-2.8-21.8-5.3-3.6-1.1-6.2 1.7-8 4.2s-.1 3.1-5.8 5.2c-3.5 1.3-7 2.7-10.3 4.4-5.1 2.5-9.3 6.5-12.3 11.3l-1.5-.2c-10.7-1.1-21.8 2.8-31.5 6.7-22 8.9-42.1 22.2-59 38.9.9-14.1 2.1-28.1 3.7-42.2 1.3-10.9 2.9-21.7 5-32.5.4-1.8-.4-3.6-2-4.5-1.4-1.1-3.4-1.1-4.7.1-.6.6-1 1.3-1.2 2.1-4.4 9.9-8.6 19.9-12.7 30-11.7 28.6-22.2 57.6-31.9 86.9l-8 .7c-5.2.5-5.3 8.8 0 8.2 22.6-2.5 45 .1 67.5 1.7 2.1.1 7.7-.2 13.3-.1 7.8.2 15.6 1.3 14.7 5.6s-2.7 8.8-4.1 13.2-3.6 10.6-4.6 16c0 1-.8 1.8-1.7 1.9-2.9.9-6 .7-9 .7s-7.4-.2-11-.4c-12.8-.6-25.5-2-38.2-3.3-15.3-1.6-30.6-3.5-45.9-5.6s-15.1-15.6-13-29.1c1.2-7.4 3.2-14.8 4.1-20.2 5.9-33.2 16.1-65.4 28.9-96.6 6.5-15.8 13.5-31.3 23-45.5 10.7-15.9 27.5-22.1 45.2-26.7h.2c13.8 15.8 29.7 29.6 47.1 41.3 2.2 1.5 5.4 0 6-2.5l7.4-28.9 9.7 27.9c1.1 3.1 4.4 3.8 6.9 1.8 16.1-12.8 30.6-27.5 42.9-44h.3c23.3 7.5 39.3 17.4 54.9 36.3l5.4 6.8c12.6 16.5 23.8 34 33.5 52.4z"/><path class="st11" d="M639.7 1263.8c7.5 4.1 8.4 10.7 2.5 19.8-6 2.1-14.2.7-20.1-.5-3.9-.9-7.7-2.2-11.3-3.8-6.2-2.7-12.3-6.2-18.1-9l-54.6-25.8c-10.8-5.1-10.9-14.4-8.5-24 3.3 7.6 10.1 12.9 18.9 17.4 12 6.2 24.1 12 36.6 17 7.5 3 15.1 5.8 22.8 8.2 1.4.4 3 0 4-1.1 2.8-3 5.4-6.2 8.1-9.3 6.7 3.6 13.4 7.1 19.7 11.1z"/><path class="st1" d="M615.1 476.6l3 3.9-6.4 5.1-5.4-6.8c-15.6-19-31.6-28.8-54.9-36.3h-.3c-12.3 16.5-26.8 31.2-42.9 44-2.5 2-5.8 1.3-6.9-1.8l-9.7-27.9-7.4 28.9c-.6 2.5-3.8 4-6 2.5-17.4-11.7-33.3-25.5-47.1-41.3h-.2c-17.8 4.7-34.6 10.8-45.2 26.7-9.6 14.2-16.5 29.7-23 45.5-12.8 31.2-23 63.4-28.9 96.6-.9 5.4-2.9 12.7-4.1 20.2l-7.2-1.2c5.8-43.8 18.8-85.8 35.9-126.4 7.1-16.8 15.2-37.2 29.2-49.6 11-9.8 23.9-14.9 37.9-18.8-.8-1.5-.6-3.4.7-4.6 10.6-9.6 20.2-20.3 31.5-29.1-20.6-7-37.4-22-46.3-44.7-9.5-24.7-16.4-50.4-20.5-76.6-3.9.2-8.2-2.1-11.2-4.7-5.4-4.6-8.7-11.2-9.2-18.3-.4-6.3.5-14.5 6.3-18.3 2.7-1.9 6.1-2.7 9.4-2.1-.1-1.8-.2-3.5-.3-5.3-1.5-.3-2.8-1.3-3.4-2.8-8.1-22.1-12.1-48.9 1.1-70 1.6-2.6 3.4-5 5.3-7.4l7.3 2.8c-4.3 5-7.6 10.9-9.6 17.2-4.9 15.3-3.6 31.2.7 45.6 14.8-17.1 55.1-13.1 72.5-13.5 22.4-.5 44.8-.4 67.3.1 16.9.4 33.2 2.7 41.3-15.2 3.1-9 3.7-16.7 2.5-23.4l6.9-1.3c2 9 1.5 18.4-1.5 27.2l-.3.7v.2c-1.1 2.5-2.5 5-4.1 7.2 4.3 2 8 5.1 10.6 9.1.5.5.9 1.2 1.1 1.9l.7 1.2c7.1-9.9 9.8-22.3 7.4-34.2l7.6-1.5c3.4 17-.5 33.9-13.9 47-.4.4-.8.6-1.3.8v7.6c2.8-1.7 6.2-1.9 9.2-.6 6.4 2.7 9 9.4 9 15.9.1 13.6-7.3 30.3-20.8 25.9-2.8 24.7-8.4 49-16.5 72.5-8 22.7-22.5 43.6-43.6 54.2 12 7.7 22.3 17.5 33.6 26.2 1.7 1.3 2.9 3.6 1.5 5.6l-.2.3c24.9 8.2 42.1 19.7 58.8 41.1zm-21.2-224c0-3.3.2-6.7-2.4-9.2s-6.2 1.1-7.7 4.3l-.2.4c-.3 6.6-.7 13.2-1.4 19.8 2.5 1.5 5.4 2.3 7.5-1.2 1-1.5 1.9-3.1 2.5-4.8 1-3 1.6-6.2 1.7-9.3zm-23 35.8c3.8-23.7 5.3-47.8 4.5-71.8-2.4-3.5-5.9-6-9.9-7.2-15.4 11.3-39.8 6.3-59.1 6.2-19.3-.1-40.7.2-61.1.8-11.7.4-40.9-1.1-51.5 10.4.5 23.3 3 46.4 7.3 69.3 19.6-5.2 38.5 5.8 43 26 3.9 17.2-8.5 33.1-24.4 37.5 7 16.1 16.8 30.3 34.6 36.6 15.3 5.5 33.7 8.5 49.7 4.2 28.6-7.9 43.6-29.3 52.9-54.5-17.9-3.4-33.4-20.9-26.2-40 6.4-16.8 24-24.6 40.2-17.4v-.1zm-1.4 8.4l-.6-.2c-12.1-6.5-28.4-.4-30.9 14s7.6 25.9 21.6 27.5c1.4-4.3 2.6-8.7 3.7-13.2 2.5-9.3 4.6-18.6 6.3-28l-.1-.1zm-22.4 136.8c-8-6.3-15.6-13.1-23.8-19.1-.6 3.2-1.9 6.1-3.7 8.8-.2.5-.5.9-.8 1.2-1.3 1.9-2.9 3.6-4.5 5.2-2.7 2.6-18.7 13.2-17.2 17.4l10.1 29.2c15.1-12.5 28.5-26.9 39.9-42.7zm-35.4-12.8v-13.9c-4.5 1.5-9.2 2.5-13.9 3-10.3 1.1-20.7.6-30.9-1.5v11.4c0 .3 0 .7-.1 1 5.8 6.6 19.6 14.1 24.2 18.9 4.1-4.5 14.8-11.8 20.7-18.9zm-33.8 57.1c3.3-10.3 9.8-30.2 6.2-33.2-5.5-4.6-11.8-8.1-17.2-12.9s-9-9.3-10.1-15c-7.8 6.7-15 14.2-22.6 21.3 14.1 15.2 27.6 28.4 43.7 39.9v-.1zm-61.3-126c13.2-3.4 23.8-16.4 18.9-30.7s-18.5-20.8-32.7-16.9c3 14.1 6.9 27.9 11.6 41.5l2.2 6.1zm-36.7-85.4c.5 1.2 6.9 11 9.7 10.1-1.2-8.7-2.1-17.3-2.8-26l-.4-.3c-4.6-4.7-7.8 3.9-7.8 7.1-.2 3.1.2 6.3 1.3 9.2v-.1z"/><path d="M617.7 937.7c.1 6.8-2.3 12.4-9.2 14.9-4.4 1.6-8.9 3-13.4 4.3.4 49.2-7.4 98.4-14.1 147.1-3.1 23.1-6.6 46.2-8.4 69.4-.3 4.4-1.2 10.5-1.6 16.7l-7.8-.2c.2-3.2.4-6.2.6-8.9 1.3-21.7 4.3-43.3 7.2-64.9 7-51.9 15.8-104.4 15.7-156.9-18.3 4.8-36.9 8.3-55.7 10.6.4 80.2 6.6 160.2 4.6 240.4 1.1 16.5 18.9 21.1 32.3 28 6.6 3.4 13.3 6.5 20.1 9.3l-3.1 7.4c-12.5-5.1-24.6-10.9-36.6-17-8.7-4.5-15.6-9.9-18.9-17.4-2.4 9.6-2.3 18.9 8.5 24l54.6 25.8c5.8 2.7 11.9 6.2 18.1 9l-3 7.3c-13.2-5.5-26.1-12.5-39.1-18.6s-29.1-11.2-40.8-19.6c-17.3-12.5-5.5-31.2-.5-47.6l.4-.9c1.2-76.4-4.4-152.7-4.8-229.1l-.9-8c27.1-3 55.1-7.8 80.8-16.9 11.6-4.2 2.2-34.8.9-43l-.9-5.6 8.1-1.3c2.4 13.5 6.6 28 6.9 41.7z"/><path class="st2" d="M609.2 1247l3.5 1.9c-2.9 3.6-5 5.6-11.4 3.5-4.4-1.5-8.8-3.1-13.1-4.8-6.8-2.8-13.5-6-20.1-9.3-13.4-6.8-31.2-11.5-32.3-28 2-80.2-4.2-160.2-4.6-240.4 18.8-2.3 37.4-5.8 55.7-10.6.1 52.5-8.7 105-15.7 156.9-2.9 21.6-5.9 43.2-7.2 64.9-.2 2.6-.4 5.7-.6 8.9-.5 8.6-.3 18.5 4.4 24.6l.2.3.4.5c11.4 13.2 25 23.1 40.1 31.1l.7.5z"/><path class="st1" d="M611.6 558.4c2.4 4-2.8 7.7-5.9 5.5-3.2 11-10.3 21.8-16.4 29-1.6 1.9-3.2 3.7-4.9 5.3l-5.9-5.4c2.6-2.6 4.9-5.4 7-8.4 12.3-17.7 20.6-40.7.5-56.8-2.5-2-10.2-10.1-14.1-4.4l-7.1-4 1.3-1.8.8-.9c-.2-4.2-1.7-8.1-1.9-12.3-.2-1.7.9-3.3 2.5-3.8 1.5-1 3.6-.6 4.6.9 4 4.8 8.3 9.1 12.1 14 3.8 2.6 7.3 5.7 10.4 9.2 5.7 6.2 9.7 12.7 11.9 20.9.6 2 .9 4.1.9 6.2l4.2 6.8z"/><path class="st12" d="M603.9 902.9c1.3 8.2 10.7 38.9-.9 43-25.6 9.2-53.7 13.9-80.8 16.9l-2.2.2c-11.5-53.8-16-108.6-20.4-163.3v-.4h-.1c-.4-2.2-2.5-3.8-4.7-3.4-1.8.3-3.1 1.7-3.4 3.4h-.1V799.9c-3.5 46.5-4.9 93.2-8.6 139.6-.3 3.7-.6 7.4-.9 11s-.8 7.3-1.5 11-10.9 2.3-16.1 1.9c-16.6-1.2-33.3-4.8-49.5-9.3h-.4l-15.1-4.5c-2.8-.9-5.6-1.9-8.4-2.9l-.6-.2c0-4.7.5-9.4.8-14.1 1.3-19.4 3.1-38.8 4.9-58.1 4.4-46.8 9-93.8 15.8-140.3 2.4.8 4.8 1.4 6.9 2l3.4.9c30.6 8.1 62.6 11.6 94.3 11.3 14.2-.1 41.2-1 54.9-11.8 11.7 42.4 19.2 85.9 26.5 129.2 1.8 10.6 3.5 21.2 5.2 31.9l1 5.4z"/><path class="st1" d="M599.2 179.8l-7.6 1.5c-1-4.8-2.8-9.5-5.3-13.7-4.1-6.5-9.5-12.1-15.7-16.6 3.4 5.1 5.9 10.9 7.2 16.9l-6.9 1.3c-7.3-39.2-79.9-40.8-112.1-37.6-22.1 2.2-47.7 9.4-62.6 26.8l-7.3-2.8c18.1-22.4 46-30.3 74.6-32.5 28.6-2.2 63.1-2.9 88.9 11.8 16.6 1.5 36.3 16.8 42.7 31.9 1.8 4.2 3.2 8.5 4.1 13z"/><path class="st2" d="M591.5 243.5c2.6 2.4 2.3 5.9 2.4 9.2-.1 3.2-.6 6.3-1.6 9.3-.6 1.7-1.5 3.3-2.5 4.8-2.1 3.4-5 2.6-7.5 1.2.6-6.6 1.1-13.2 1.4-19.8l.2-.4c1.5-3.3 3.9-7.8 7.6-4.3z"/><path class="st13" d="M591.6 181.3c2.4 11.9-.3 24.3-7.4 34.2l-.7-1.2c-.2-.7-.6-1.4-1.1-1.9-2.6-4-6.3-7.1-10.6-9.1 1.6-2.2 3-4.7 4.1-7.2v-.2l.3-.7c3-8.8 3.5-18.2 1.5-27.2-1.3-6-3.8-11.8-7.2-16.9 6.2 4.5 11.6 10.1 15.7 16.6 2.5 4.2 4.4 8.8 5.4 13.6z"/><path class="st14" d="M586 527.7c20.1 16.1 11.8 39.1-.5 56.8-2.1 3-4.4 5.8-7 8.4-10.8 11.1-24.4 17.5-39.3 23.1-4.8 1.8-9.8 4.1-15 6.5-11.3 5.1-23.2 10.3-34.7 10.6h-.7l-1.1-.8c-6.5-4.4-15.3-5.4-23-5.4-2.9 0-5.7.1-8.6.4-1.4.2-2.9.4-4.3.8l-2 .6c-.5.3-1 .5-1.6.6h-5.7c-8-.2-15.9-.9-23.9-1.5s-18.1-1.5-27.1-1.8c17.7-27.7 41.8-49.5 71-65 19.2-10.2 36-14.9 56.9-7.6 11.6 4.1 26 .7 35.2-6.9 5-4 9.3-8.7 12.8-14.1 1.6-2.6 2.5-5.7 4-8.4l.4-.7c4-5.7 11.7 2.4 14.2 4.4zm-35.4 62.1c4.7-2.5.5-9.6-4.2-7.1-25.9 13.7-55.1 15.4-82.7 5.3-5-1.9-7.1 6.1-2.2 7.9 29.2 10.9 61.7 8.7 89.1-6.1z"/><path class="st2" d="M575.5 216.7c.8 24-.7 48.1-4.5 71.8-16.3-7.2-33.8.6-40.1 17.5-7.2 19.1 8.2 36.6 26.2 40-9.3 25.3-24.3 46.6-52.9 54.5-16 4.4-34.4 1.3-49.7-4.2-17.8-6.3-27.6-20.6-34.6-36.6 16-4.4 28.3-20.3 24.4-37.5-4.6-20.1-23.4-31.2-43-26-4.3-22.9-6.8-46-7.3-69.3 10.6-11.5 39.7-10 51.5-10.4 20.4-.6 40.8-.9 61.1-.8 19.4.1 43.7 5.1 59.1-6.2 4 1.2 7.5 3.7 9.8 7.2zm-59.2 59.4c2.3 0 4.1-1.8 4.1-4.1s-1.8-4.1-4.1-4.1h-.5c-2.2-.2-4.1 2-4.1 4.1.1 2.2 1.9 4 4.1 4.1h.5zm-6.5 54.5c2.8-4.5-4.3-8.7-7.1-4.2s-8 7.1-13.4 7.6-12.2-1.1-16.2-4.9-9.7 2.2-5.8 5.8c5.9 5.5 14.5 8 22.7 7.2s15.5-4.5 19.8-11.5zM495.5 299c3.6-3.9-2.3-9.8-5.8-5.8s-7.3 4.3-8.8-.4c-.7-2.1 3.6-5.6 4.6-7.2 2.6-4.2.9-11.8.7-16.4s-8.5-5.3-8.2 0l.3 7.9c.2 4-1 5.6-3.5 8.5-2.6 3.4-3 7.9-1 11.7 4.6 8.8 15.5 8.6 21.7 1.7zm-47.9-22.9c2.3 0 4.1-1.8 4.1-4.1s-1.8-4.1-4.1-4.1h-.5c-2.2-.2-4.1 2-4.1 4.1.1 2.2 1.9 4 4.1 4.1h.5z"/><path class="st1" d="M571.9 523.3l-.4.7c-1.4 2.7-2.4 5.9-4 8.4-3.5 5.4-7.8 10.1-12.8 14.1-9.3 7.6-23.7 11-35.2 6.9-20.8-7.3-37.6-2.7-56.9 7.6-29.2 15.5-53.3 37.3-71 65 9 .3 18 1 27.1 1.8s15.9 1.3 23.9 1.5l-.2 7.5c-5.7-.1-11.3.2-13.3.1-22.5-1.7-44.9-4.2-67.5-1.7-5.3.6-5.2-7.7 0-8.2l8-.7c9.7-29.3 20.3-58.3 31.9-86.9l7.6 3.1c-11.2 27.5-21.3 55.4-30.7 83.6h3.7c6.5-10.8 14.1-21 22.5-30.4 1.1-17.5 2.4-34.9 4.4-52.3l8.1.9c-1.6 14-2.8 28.1-3.7 42.2 16.9-16.7 37-30 59-38.9 9.7-3.8 20.8-7.7 31.5-6.7l1.5.2c3-4.8 7.2-8.8 12.3-11.3 3.4-1.7 6.8-3.1 10.3-4.4 5.7-2.1 3.2-1.6 5.8-5.2s4.4-5.4 8-4.2c8.1 2.5 12.9 7.6 21.8 5.3l1.2-1.8 7.1 3.8zm-14.2 6.8c-2.8-.1-5.6-.7-8.2-1.7-4.9-1.9-6.8-5.6-10-.8-2 3-6.1 4.3-9.3 5.5-6.1 2.3-12.1 5-16.1 9.9 8.2 2.6 16.4 5.7 24.8 2.7s14.4-9 18.8-15.6z"/><path class="st13" d="M570.9 169.2c1.2 6.7.6 14.4-2.5 23.4-8.1 17.9-24.4 15.6-41.3 15.2-22.4-.5-44.8-.6-67.3-.1-17.4.4-57.7-3.6-72.5 13.5-4.3-14.3-5.6-30.3-.7-45.6 2-6.3 5.3-12.2 9.6-17.2 14.8-17.4 40.4-24.6 62.6-26.8 32.3-3.3 104.8-1.6 112.1 37.6z"/><path class="st10" d="M570.3 706.2c.2 9.5 2.5 19.6-7.5 24.8-12.7 6.6-27.9 8-41.9 8.7-26.7 1.3-53.8-1.8-79.9-7-4.2-.8-10.8-1.6-17-3.3-8-2.2-15.2-5.9-15.1-13.2.2-11.8.1-23.6.1-35.3 8.8.8 17.7 1.3 26.5 1.6 1.8.1 4.3.2 6.8.2 7 2.6 14.1 3.1 21.5 3.5l2.7.2c3.9.4 8.3.7 11.5-1.3 2.8-2 5.2-4.6 6.8-7.6 9.6-.7 19-2.4 28.2-5.2 3.1-.9 6.2-2 9.2-3.3 1.5 2 3.2 4 5.7 4.3 4.8.5 10.1-2.4 14.5-4.2 7.3-3 13.9-7 18.9-12.8 4-.2 7.1-3.5 6.9-7.5v-.2l.5-.4c.6 19.2 1.1 38.6 1.6 58z"/><path class="st7" d="M569 296.7l.6.2c-1.7 9.4-3.8 18.8-6.1 28.1-1.1 4.5-2.4 8.8-3.7 13.2-14-1.5-24-13.2-21.6-27.5s18.6-20.6 30.8-14z"/><path class="st15" d="M552.5 647c.6 1.5 1.2 3.1 2 4.5-2.7 2.8-5.8 5.2-9.2 7-2.9 1.6-6 2.9-9.1 4-1.5.7-3.1 1.3-4.7 1.7 8.2-4.8 15.3-10.9 20.4-18.9l.6 1.7z"/><path class="st2" d="M549.5 528.5c2.6 1 5.4 1.6 8.2 1.7-4.4 6.5-9.2 12.1-18.8 15.6s-16.6-.2-24.8-2.7c4-4.9 10-7.6 16.1-9.9 3.2-1.2 7.3-2.5 9.3-5.5 3.2-4.8 5.1-1.1 10 .8z"/><path class="st1" d="M546.5 582.7c4.7-2.5 8.9 4.6 4.2 7.1-27.4 14.8-59.8 17-89 6.1-4.9-1.8-2.8-9.8 2.2-7.9 27.4 10.1 56.6 8.4 82.6-5.3z"/><path class="st2" d="M531.8 637.7c2.3-2.1 20.8-12.9 15.1 0-1.8 3.7-4.1 7.1-6.8 10.2-6.8 8-17.9 13.3-29.4 16.6-7.2 2.1-14.6 3.5-22.1 4.3 1.4-4.3 2.4-8.7 3.1-13.1.4-2.3.8-4.5 1.2-6.8l.7-.2 4.9-2.2 5.7-2.6 5.5-2.6 1.9-1 2-1.1c.6-.3 2.2-1.2 2.9-.4.4.5.3 1.3-.2 1.7-.9.9-1.7 1.8-2.4 2.7-.4.6-.6 1.4-.6 2.2 0 .9.4 1.8 1.2 2.3 1 .7 2.2.9 3.3.5 6.3-1.9 9.3-6.2 14-10.5z"/><path class="st1" d="M526.1 633.2l5.8 4.5c-4.8 4.3-7.8 8.6-14 10.5-1.1.4-2.3.2-3.3-.5-.8-.5-1.2-1.4-1.2-2.3 0-.8.2-1.6.6-2.2.7-.9 1.5-1.8 2.4-2.7.5-.4.6-1.2.2-1.7-.7-.9-2.3.1-2.9.4l-2 1.1-1.9 1-5.5 2.6-5.7 2.6-4.9 2.2-.7.2c-.3 2.3-.8 4.5-1.2 6.8-.7 4.4-1.7 8.8-3.1 13.1 7.5-.8 14.9-2.2 22.1-4.3l2.3 7.6c-9.2 2.8-18.6 4.5-28.2 5.2-1.6 3-4 5.6-6.8 7.6-3.2 2-7.6 1.6-11.5 1.3l.7-7.9c2 .3 4 .1 6-.4 5-1.8 9.3-16.5 10-21.1 1-6.7 5.2-16.5-3.8-18.9-4.5-1.3-9.2-2.1-13.9-2.5 1.9 6.7-2.9 17-4.8 22.3l-7.9-2.3c1.3-4.3 3.1-8.7 4.1-13.2s-6.9-5.4-14.7-5.6l.2-7.5h5.8c.6-.1 1.1-.3 1.6-.6l2-.6c1.4-.4 2.9-.6 4.3-.8 2.9-.3 5.7-.4 8.6-.4 7.7 0 16.4 1 23 5.4l1.1.8h.7c11.5-.3 23.4-5.5 34.7-10.6l3.3 7.4-3.5 1.5h.2c.7.5 1.3 1.2 1.8 2z"/><path class="st15" d="M527.6 629.8l4.2-1.8c-1.9 1.6-3.8 3.5-5.7 5.3-.5-.7-1.1-1.3-1.8-1.8h-.2l3.5-1.7zM523.3 414.6c8.2 6 15.8 12.8 23.8 19.1-11.4 15.9-24.8 30.3-39.9 42.8l-10.1-29.2c-1.5-4.2 14.5-14.9 17.2-17.4 1.6-1.6 3.2-3.3 4.5-5.2.3-.3.6-.7.8-1.2 1.8-2.7 3.1-5.7 3.7-8.9z"/><path class="st1" d="M522.2 962.8l.9 8-6.3.7c-1.7.2-3.6-1.5-4-3.2-8.1-36.5-12.8-73.2-16.4-110.4-1.4 31.3-2.9 62.5-6.5 93.4l-8.1-1c.4-3.7.7-7.4.9-11 3.7-46.5 5.2-93.1 8.6-139.6v-.2-.4h.1c.4-2.2 2.5-3.8 4.7-3.4 1.8.3 3.1 1.7 3.4 3.4h.1v.4c4.4 54.7 8.9 109.5 20.4 163.3h2.2zM520.4 272c-.1 2.2-1.9 4-4.1 4.1h-.5c-2.2-.1-4-1.9-4.1-4.1 0-2.1 1.9-4.3 4.1-4.1h.5c2.2 0 4 1.8 4.1 4.1z"/><path class="st2" d="M511.7 407v13.9c-5.9 7.1-16.6 14.4-20.7 18.9-4.6-4.8-18.4-12.3-24.2-18.9.1-.3.1-.7.1-1v-11.4c10.2 2.1 20.6 2.6 30.9 1.5 4.7-.5 9.4-1.5 13.9-3z"/><path class="st1" d="M502.7 326.5c2.8-4.5 9.9-.4 7.1 4.2-4.4 7-12 10.9-19.9 11.6l-.7-8.1c5.5-.6 10.6-3.1 13.5-7.7zM489.7 293.2c3.6-4 9.4 1.9 5.8 5.8-6.2 6.8-17.2 7-21.7-1.7-2-3.8-1.6-8.3 1-11.7 2.5-3 3.6-4.6 3.5-8.5l-.3-7.9c-.2-5.3 8-5.3 8.2 0s2 12.2-.7 16.4c-1 1.7-5.3 5.2-4.6 7.2 1.5 4.7 6.2 3.2 8.8.4z"/><path class="st1" d="M489.3 334.1l.7 8.1c-8.2.8-16.8-1.6-22.7-7.2-3.9-3.6 2-9.5 5.8-5.8s10.2 5.5 16.2 4.9z"/><path d="M489.9 951.4c-.1 1.1-.2 2.2-.4 3.3-.5 4.2-.4 10.6-2.9 14.1-1.4 1.6-3.3 2.6-5.4 2.9-.3 77-6 153.9-4.8 230.9.2.3.3.6.4.9 4.4 14.7 17.7 37.2-.5 47.6-14.7 8.3-30.5 14.8-45.8 22-12.7 6-25.3 12.9-38.3 17.9-15.2 5.9-43.5 9.6-44.2-13.3-.5-15.2 20.4-24.5 34.8-31.1h.1c17.8-8.5 33.8-18.9 46.8-33.9 6.1-8.7 2.6-26.9 1.8-36.4-1.9-23.2-5.2-46.3-8.4-69.4-6.6-48.2-14.3-97-14.1-145.8l-12-3.6c-8.7-2.8-13.6-4-14.7-10.7l7.9-.3.6.2c2.8 1.1 5.6 2 8.4 2.9l15.1 4.5h.4c16.2 4.5 32.9 8.1 49.5 9.3 5.3.4 15.2 3 16.1-1.9s1.1-7.3 1.5-11l8.1.9zM469 1245.7c8.4-4.8 8-13.8 5.6-22.8-3.2 7.8-10.1 13.4-19 17.7-19.5 9.4-38.6 18.8-59.3 25.2-1.4.4-3 0-4-1.1-2.9-3.1-5.6-6.4-8.5-9.6-9.1 4.2-18.9 8.7-24.2 15.5-12.5 16.1 7.5 17.3 13.9 16.6 6.7-.7 13.2-2.5 19.2-5.4l23.6-11.2c17.4-8.2 35.9-15.4 52.7-24.9zm3.9-273.5l-5.9-.4c-16.8-1.3-33.4-4.1-49.7-8.5 0 52.1 8.8 104.1 15.7 155.7 2.9 21.5 6.1 43.2 7.3 64.9.5 9.7 2.7 25-3.8 33.5l-.2.3-.4.5c-11.4 13.2-25 23.1-40.1 31.1l-.7.5-3.5 1.8c1.5 1.8 3.1 3.7 4.7 5.4s9.9-3 11-3.4c9.8-3.6 19.5-7.8 28.8-12.6 13.4-6.8 31.2-11.5 32.3-28-2.1-80.4 4.1-160.6 4.5-240.8z"/><path class="st15" d="M484.1 444.7c3.7 3.1-2.9 23-6.2 33.2-16.1-11.4-29.6-24.7-43.8-39.8 7.6-7.1 14.8-14.6 22.6-21.3 1.1 5.7 5.9 11.2 10.1 15s11.8 8.3 17.3 12.9zM479.5 638c9 2.4 4.8 12.2 3.8 18.9-.7 4.6-5 19.3-10 21.1-2 .5-4 .7-6 .4l-6.9-.8-5.4-.5c3.2-5.6 4.5-14.9 5.6-18.4l.3-.9c1.9-5.3 6.7-15.6 4.8-22.3 4.7.4 9.3 1.2 13.8 2.5z"/><path class="st11" d="M474.6 1222.9c2.4 8.9 2.9 18-5.6 22.8-16.8 9.5-35.3 16.7-52.7 25l-23.6 11.2c-6 2.9-12.5 4.7-19.2 5.4-6.4.7-26.4-.5-13.9-16.6 5.3-6.8 15.1-11.4 24.2-15.5 2.8 3.2 5.6 6.5 8.5 9.6 1 1.1 2.6 1.5 4 1.1 20.7-6.4 39.9-15.8 59.3-25.2 8.9-4.4 15.7-10 19-17.8z"/><path class="st2" d="M466.9 971.7l5.9.4c-.4 80.3-6.6 160.5-4.6 240.8-1.1 16.5-18.9 21.2-32.3 28-9.3 4.8-19 9-28.8 12.6-1.1.4-10 4.4-11 3.4s-3.2-3.6-4.7-5.4l3.5-1.8.7-.5c15.1-8.1 28.8-17.9 40.1-31.1l.4-.5.2-.3c6.5-8.4 4.3-23.8 3.8-33.5-1.2-21.7-4.4-43.4-7.3-64.9-6.9-51.5-15.7-103.5-15.7-155.7 16.3 4.3 33 7.2 49.8 8.5z"/><path class="st1" d="M467.3 678.4l-.7 7.9-2.7-.2c-7.4-.4-14.5-.9-21.5-3.5-2.6.1-5-.1-6.8-.2-8.9-.2-17.7-.8-26.5-1.6 0 11.8.2 23.6-.1 35.3-.2 7.3 7.1 11 15.1 13.2l-2 7.4-3.4-.9c-2.1-.6-4.6-1.2-6.9-2-6.8 46.5-11.4 93.5-15.8 140.3-1.8 19.4-3.6 38.7-4.9 58.1-.3 4.7-.7 9.4-.8 14.1l-7.9.3c-.3-1.7-.3-3.3-.2-5 1-19.3 2.9-38.6 4.6-57.9 4.7-51.4 9.7-103 17.3-154.1-2-1.8-3.2-4.3-3.3-7-.9-14.1-.2-28.4-.1-42.6l-16.5-1.7c-17.3-1.9-37.8-1.8-54.2-8.1-14.3-5.5-9.1-24.4-7.6-35.7l7.2 1.2c-2.1 13.5-1.5 27.2 13 29.1s30.6 4 45.9 5.6c12.7 1.3 25.5 2.7 38.2 3.3 3.7.2 7.4.4 11 .4s6.1.1 9-.7c.9-.1 1.7-.9 1.7-1.9 1-5.4 2.9-10.8 4.6-16l7.9 2.3-.3.9c-1.1 3.5-2.4 12.8-5.6 18.4l5.4.5 6.9.8zM451.7 272c-.1 2.2-1.9 4-4.1 4.1h-.5c-2.2-.1-4-1.9-4.1-4.1 0-2.1 1.9-4.3 4.1-4.1h.5c2.2 0 4 1.8 4.1 4.1z"/><path class="st7" d="M435.6 321.2c4.9 14.3-5.7 27.3-18.9 30.7l-2.2-6.1c-4.7-13.6-8.6-27.4-11.6-41.5 14.2-3.9 27.7 2.5 32.7 16.9z"/><path class="st1" d="M420.1 507c1.6.9 2.4 2.7 2 4.5-2.1 10.8-3.7 21.7-5 32.5l-8.1-.9v-.8l-7.6-3.1c4.1-10.1 8.3-20.1 12.7-30 .2-.8.6-1.5 1.2-2.1 1.3-1.3 3.4-1.3 4.8-.1z"/><path class="st2" d="M389.7 276.6c-2.8.9-9.2-8.9-9.7-10.1-1.1-2.9-1.5-6.1-1.3-9.2.1-3.2 3.2-11.8 7.8-7.1l.4.3c.7 8.7 1.6 17.4 2.8 26.1z"/></g></svg>