<svg id="a90c74e5-ad67-44f4-8212-288ba7253ff8" data-name="圖層 1" xmlns="http://www.w3.org/2000/svg" viewBox="0 0 458.1 636.2"><title>scene13-main-img</title><path d="M1086.4 10330.5c7.4 3.5 18.3 8.3 18 16.1-.4 11.9-15 10-22.9 6.9s-15-7-22.4-10.5-15.1-5.8-21.2-10.2c-8.9-6.5-2.8-16.2-.3-24.7l.2-.5c.6-39.6-2.3-79.1-2.5-118.7l-.5-4.1c6.8-.8 13.8-1.7 20.7-3.1l.8 4c-5.5 1.1-11.1 2-16.7 2.7.2 41.5 3.4 83 2.4 124.6.6 8.5 9.8 11 16.7 14.5a121.3 121.3 0 0 0 17.2 7.4c3.3 1.1 4.4.1 5.9-1.8l-1.8-1-.4-.3a70.4 70.4 0 0 1-20.8-16.1l-.2-.3h-.1c-2.4-3.2-2.5-8.3-2.3-12.8h4c-.2 3.8 0 7.8 1.8 10.3 6.7 7.8 15 13.2 24.3 17.6h.1zm10.7 20.6c5.4-3 2.6-8.1-1.3-10.3s-6.8-3.9-10.2-5.7l-4.2 4.8a2.1 2.1 0 0 1-2.1.6 191.6 191.6 0 0 1-30.8-13.1c-4.5-2.4-8.1-5.1-9.8-9-1.3 5-1.2 9.8 4.4 12.4l28.3 13.4c4.8 2.3 10 5.5 15.2 6.7 3.1.5 7.4 1.3 10.5.2z" transform="translate(-646.3 -9735.7)" fill="#262016"/><path d="M1095.8 10340.8c3.9 2.1 6.7 7.2 1.3 10.3-3.1 1.1-7.4.4-10.4-.3-5.2-1.1-10.4-4.4-15.2-6.7l-28.3-13.4c-5.6-2.6-5.7-7.5-4.4-12.4 1.7 3.9 5.3 6.7 9.8 9a191.6 191.6 0 0 0 30.8 13.1 2.1 2.1 0 0 0 2.1-.6l4.2-4.8c3.3 1.9 6.8 3.7 10.1 5.8z" transform="translate(-646.3 -9735.7)" fill="#564642"/><path d="M1084.4 10171.8c.1 3.5-1.2 6.4-4.8 7.7l-6.9 2.2c.2 25.5-3.8 51-7.3 76.3-1.6 12-3.4 23.9-4.3 36-.2 2.3-.6 5.4-.8 8.6h-4c.1-1.7.2-3.2.3-4.6.7-11.3 2.2-22.5 3.7-33.6 3.6-26.9 8.2-54.1 8.1-81.3q-6 1.6-12.1 2.8l-.8-4a146.6 146.6 0 0 0 21.2-5.7c6-2.2 1.2-18 .5-22.3q-1.5-9.7-3.1-19.4c-3.8-22.4-7.7-45-13.7-66.9-8.4 7-28.1 6.4-36.2 6.1a187.5 187.5 0 0 1-29.8-3.3l-3.3-.5.6-3.9c4.8.9 9.5 1.3 11.8 1.6a167 167 0 0 0 30.9 1.8c6.2-.3 25.9-1 25.8-10.3-.1-3.2-.1-6.4-.1-9.5-.1-22 .1-44 .1-66 0-13 .6-26.2 0-39.3l-2.9 6c-5.3 11.1-11 22-16.8 32.8-2.9 5.5-7 19.6-15.8 16.5-6.4-2.3-11.8-6.5-17.4-10.3s-12.8-8.6-19-13.1c-4.2-3.1-8.3-6.2-12.3-9.6l1.9-2.5c2.9 2.2 7.3 4.5 8.5 5.4 4.1 3 8.2 6 12.4 8.8 7.4 5.1 15 11.6 23.1 15.5s9.3-2.4 12.1-7.6l5.8-10.9c4.1-7.8 8.1-15.6 12-23.5s12.2-23.5 6.3-32.1l3.8-1.6a17.9 17.9 0 0 1 2.7 8.8 27.1 27.1 0 0 1-.7 7.5v.3c1.9 19.8.6 40.4.6 60.3 0 21.5.6 43.2 0 64.7a10.3 10.3 0 0 1-.7 3.5c8.1 28.5 12.7 58 17.4 87.1.9 6.9 3 14.4 3.2 21.5z" transform="translate(-646.3 -9735.7)" fill="#262016"/><path d="M1080 10332.1l1.8 1c-1.5 1.9-2.6 2.9-5.9 1.8a121.3 121.3 0 0 1-17.2-7.4c-6.9-3.5-16.2-6-16.7-14.5 1-41.6-2.2-83-2.4-124.6 5.6-.7 11.2-1.6 16.7-2.7s8.1-1.7 12.1-2.8c.1 27.2-4.5 54.4-8.1 81.3-1.5 11.2-3 22.4-3.7 33.6-.1 1.4-.2 2.9-.3 4.6-.3 4.5-.2 9.6 2.3 12.8h.1l.2.3a70.4 70.4 0 0 0 20.8 16.1z" transform="translate(-646.3 -9735.7)" fill="#ffc9a4"/><path d="M1077.2 10153.7c.7 4.3 5.5 20.1-.5 22.3a146.6 146.6 0 0 1-21.2 5.7c-6.9 1.4-13.8 2.3-20.7 3.1h-1.1c-6-27.9-8.3-56.3-10.6-84.6a.9.9 0 0 1 0-.2h-.1a2.1 2.1 0 0 0-4.2 0 .9.9 0 0 0 0 .2c-1.8 24.1-2.5 48.3-4.5 72.4-.1 1.9-.3 3.8-.5 5.7s-.4 3.8-.8 5.7-5.6 1.2-8.3 1a130.7 130.7 0 0 1-25.7-4.8l-7.8-2.3-4.4-1.5h-.3c0-2.4.2-4.9.4-7.3.7-10 1.6-20.1 2.6-30.1 2.3-24.1 4.6-48.3 8.1-72.2 4 1.7 9.3 2.5 13.4 3l3.3.5a187.5 187.5 0 0 0 29.8 3.3c8.1.3 27.7.9 36.2-6.1 6.1 22 10 44.5 13.7 66.9q1.7 9.6 3.2 19.3z" transform="translate(-646.3 -9735.7)" fill="#323533"/><path d="M1076.3 9815.7c0 7.1-3.8 15.7-10.8 13.4a175.2 175.2 0 0 1-8.5 37.6c-4.1 11.8-11.7 22.6-22.6 28.1 6.2 4 11.6 9.1 17.4 13.6a2.3 2.3 0 0 1 1 2.4 18.2 18.2 0 0 1 8.9 7.2l-3.8 1.6a14.1 14.1 0 0 0-7.5-5.2c-4.8 7-9.8 13.9-15.9 19.8l-.3.4c-1.4 1.3-2.8 2.7-4.3 3.9l-1.5 1.2c-1.2.9-2.7-.1-3.1-1.3-2.3-6.6-4-13.4-7-19.7-1.4 6.7-2.3 13.5-3.3 20.3-.2 1.4-2 1.9-3.1 1.3-4.6-2.5-8.4-7.5-12.2-11.1a138.2 138.2 0 0 1-14.7-15c-5 .2-11.2 0-15.7 2.5a80.3 80.3 0 0 0-10.4 7.3c3.3 2.4 6 5.5 9.2 8.3l-3.1 2.5c-2.6-2.7-5.1-5.7-8.3-7.6a23.1 23.1 0 0 0-9.8-3.2v-4a22.5 22.5 0 0 1 5.7 1l2.3.8c4.4-3.5 8.8-7.2 14-9.4s10.4-2.1 15.5-2.3h.2c6.2-3.9 11.3-9.3 17-13.7a38.7 38.7 0 0 1-24-23.2 193.4 193.4 0 0 1-10.6-39.7 8.7 8.7 0 0 1-5.8-2.4 13.8 13.8 0 0 1-4.7-9.5c-.2-3.2.3-7.5 3.3-9.5a6.6 6.6 0 0 1 4.9-1.1v-2.8a2.3 2.3 0 0 1-1.8-1.5c-4.2-11.4-6.3-25.3.6-36.3a37.3 37.3 0 0 1 3.7-5l3.7 1.6a26.1 26.1 0 0 0-5.9 10c-2.6 7.9-1.9 16.2.4 23.6 7.7-8.9 28.5-6.8 37.6-7q17.4-.4 34.9 0c8.8.2 17.2 1.4 21.4-7.9a23.9 23.9 0 0 0 1.3-12.1l3.6-.7a26 26 0 0 1-.8 14.1l-.2.4a18.8 18.8 0 0 1-2.1 3.7 13.3 13.3 0 0 1 5.5 4.7 2 2 0 0 1 .6 1l.3.6a22.6 22.6 0 0 0 3.8-17.7l3.9-.8c1.8 8.8-.3 17.6-7.2 24.4l-.7.4v3.9a5.2 5.2 0 0 1 4.8-.3c2.9 1.5 4.2 5 4.2 8.4zm-4.3 1.1c0-1.7.1-3.5-1.2-4.8s-3.2.6-4 2.2v.2c-.1 3.4-.4 6.9-.7 10.3 1.3.8 2.8 1.2 3.9-.6a12 12 0 0 0 1.3-2.5 15.9 15.9 0 0 0 .8-4.8zm-11.9 18.6a193.6 193.6 0 0 0 2.4-37.2 9.3 9.3 0 0 0-5.1-3.7c-8 5.9-20.6 3.3-30.6 3.2s-21.1.1-31.7.4c-6.1.2-21.2-.6-26.7 5.4a219.3 219.3 0 0 0 3.8 35.9 17.7 17.7 0 0 1 22.3 13.5c2 8.9-4.4 17.2-12.7 19.4 3.6 8.3 8.7 15.7 17.9 19s17.5 4.4 25.8 2.2c14.8-4.1 22.6-15.2 27.4-28.3-9.3-1.7-17.3-10.8-13.6-20.7s12.4-12.9 20.8-9.1zm-.7 4.3h-.3c-6.3-3.4-14.7-.2-16 7.3s3.9 13.4 11.2 14.2c.7-2.3 1.4-4.5 1.9-6.8q1.9-7.4 3.2-14.7zm-29.8 93.3c7.3-6.5 12.8-14.4 18.2-22.4-4-3.1-7.7-6.5-11.8-9.5-.9 6-9.5 11-14.8 14.1 3.1 6 5 12.6 7.1 19.1l.9-.8zm-.1-28.3a2.1 2.1 0 0 1 0-.3v-7.6a35.4 35.4 0 0 1-7.2 1.6 50.5 50.5 0 0 1-16-.8v7.8c3.1 3.3 9.5 6.3 11.4 6.9h.1c2.5-1.4 8.4-4.3 11.7-7.6zm-18.2 30.1c1-6.4 1.9-12.9 3.3-19.2a34.6 34.6 0 0 1-10.9-7.3c-.4-.5-1.2-1.3-1.7-2.1a9.1 9.1 0 0 1-1.5-3.8c-3.9 3.3-7.6 6.8-11.8 9.8a138.8 138.8 0 0 0 14 14.1c2.7 2.6 5.5 6.1 8.6 8.6zm-31.1-66.6c6.9-1.8 12.3-8.5 9.8-15.9s-9.6-10.8-17-8.7a186.7 186.7 0 0 0 6 21.5zm-19-44.2c.2.6 3.6 5.7 5 5.2q-.9-6.7-1.5-13.5l-.2-.2c-2.4-2.5-4 2-4 3.7a11.8 11.8 0 0 0 .7 4.8z" transform="translate(-646.3 -9735.7)" fill="#262016"/><path d="M1074.8 9779l-3.9.8a22.4 22.4 0 0 0-2.8-7.1 31.2 31.2 0 0 0-8.1-8.6 25.6 25.6 0 0 1 3.7 8.7l-3.6.7c-3.8-20.3-41.4-21.2-58.1-19.5-11 1.1-23.7 4.6-31.5 12.8l-3.7-1.6c9.4-10.7 23.3-14.6 37.7-15.7s32.7-1.5 46.1 6.1c8.6.8 18.8 8.7 22.2 16.5a34.2 34.2 0 0 1 2 6.9z" transform="translate(-646.3 -9735.7)" fill="#262016"/><path d="M1070.8 9812c1.4 1.3 1.2 3.1 1.2 4.8a15.9 15.9 0 0 1-.8 4.8 12 12 0 0 1-1.3 2.5c-1.1 1.8-2.6 1.4-3.9.6.3-3.4.6-6.9.7-10.3v-.2c.9-1.6 2.2-4 4.1-2.2z" transform="translate(-646.3 -9735.7)" fill="#ffc9a4"/><path d="M1070.9 9779.8a22.6 22.6 0 0 1-3.8 17.7l-.3-.6a2 2 0 0 0-.6-1 13.3 13.3 0 0 0-5.5-4.7 18.8 18.8 0 0 0 2.1-3.7l.2-.4a26 26 0 0 0 .8-14.1 25.6 25.6 0 0 0-3.7-8.7 31.2 31.2 0 0 1 8.1 8.6 22.4 22.4 0 0 1 2.7 6.9z" transform="translate(-646.3 -9735.7)" fill="#5e3326"/><path d="M1062.5 9798.2a193.6 193.6 0 0 1-2.4 37.2c-8.4-3.7-17.5.3-20.8 9s4.3 19 13.6 20.7c-4.8 13.1-12.6 24.2-27.4 28.3-8.3 2.3-17.8.7-25.8-2.2s-14.3-10.7-17.9-19c8.3-2.3 14.7-10.5 12.7-19.4a17.7 17.7 0 0 0-22.3-13.5 219.3 219.3 0 0 1-3.8-35.9c5.5-5.9 20.6-5.2 26.7-5.4q15.8-.5 31.7-.4c10 0 22.7 2.6 30.6-3.2a9.3 9.3 0 0 1 5.1 3.8zm-27.4 21.5c2.2 1.4 4.1-2.1 2-3.5a9.3 9.3 0 0 0-12.3 1.9c-1.6 2 1.1 4.8 2.8 2.8a5.5 5.5 0 0 1 7.5-1.3zm-3.3 33.6c.7-2.7-3.4-3.8-4.1-1.1-1.4 5.5-11 8.3-15.6 6-2.5-1.2-4.6 2.5-2.2 3.7 7.1 3.4 19.8-.3 21.9-8.7zm-10.8-12.4c1.9-2-1.2-5.1-3-3s-3.8 2.2-4.6-.2 1.9-2.9 2.4-3.7.4-6.1.3-8.5-4.4-2.7-4.3 0l.2 4.1c.1 2.1-.5 2.9-1.8 4.4a5.7 5.7 0 0 0-.5 6.1c2.5 4.4 8.1 4.3 11.4.7zm-22.3-18.6c2.5 1.2 4.6-2.5 2.2-3.7a11.2 11.2 0 0 0-12 .9c-2.2 1.7 0 5.4 2.2 3.7a7.1 7.1 0 0 1 7.7-1z" transform="translate(-646.3 -9735.7)" fill="#ffc9a4"/><path d="M1060.1 9773.5a23.9 23.9 0 0 1-1.3 12.1c-4.2 9.3-12.6 8.1-21.4 7.9q-17.4-.4-34.9 0c-9 .2-29.9-1.9-37.6 7-2.2-7.4-2.9-15.7-.4-23.6a26.1 26.1 0 0 1 5.9-10c7.8-8.3 20.5-11.7 31.5-12.8 16.8-1.7 54.5-.9 58.2 19.4z" transform="translate(-646.3 -9735.7)" fill="#5e3326"/><path d="M1060.1 9944c.6 13.1 0 26.3 0 39.3 0 22-.2 44-.1 66 0 3.2 0 6.4.1 9.5.2 9.3-19.6 10-25.8 10.3a167 167 0 0 1-30.9-1.8c-2.4-.3-7-.8-11.8-1.6-7.5-1.4-15.4-3.9-15.3-8.8.3-16 .1-32.1.1-48.2 0-8.9-.6-18.1-.7-27.3-.1-5.1 0-10.2.4-15.2 4 3.3 8.1 6.5 12.3 9.6 6.2 4.5 12.6 8.8 19 13.1s10.9 8.1 17.4 10.3c8.7 3.1 12.8-11 15.8-16.5 5.8-10.9 11.5-21.7 16.8-32.8z" transform="translate(-646.3 -9735.7)" fill="#538463"/><path d="M1059.1 9839.6h.3q-1.3 7.3-3.2 14.6c-.6 2.3-1.2 4.6-1.9 6.8-7.3-.8-12.4-6.9-11.2-14.2s9.7-10.6 16-7.2z" transform="translate(-646.3 -9735.7)" fill="#dd553a"/><path d="M1057.9 9919.6c5.9 8.6-2 23.4-6.3 32.1s-7.9 15.7-12 23.5l-5.8 10.9c-2.8 5.2-4.9 11.1-12.1 7.6s-15.7-10.4-23.1-15.5c-4.2-2.9-8.3-5.8-12.4-8.8-1.2-.9-5.6-3.1-8.5-5.4s-2.8-2.5-2.6-3.5 5-16.1 9.2-12.9l13.1 9.7a215.3 215.3 0 0 0 26.2 16.8c2.4 1.3 4.6-2.4 2.2-3.7l-2-1.1c4-8.1 6.5-17 11.6-24.6 1.3-2-1.2-3.8-2.9-2.9l-2.8-3.1c1.5-1.2 2.9-2.6 4.3-3.9l.3-.4c6.1-5.9 11.1-12.8 15.9-19.8a14.1 14.1 0 0 1 7.7 5z" transform="translate(-646.3 -9735.7)" fill="#538463"/><path d="M1047.9 9910.6c-5.5 8-11 15.9-18.2 22.4l-.4.5-.9.8c-2.1-6.5-3.9-13-7.1-19.1 5.3-3.1 13.9-8.1 14.8-14.1 4 3 7.8 6.4 11.8 9.5z" transform="translate(-646.3 -9735.7)" fill="#52705a"/><path d="M1037.1 9816.1c2.1 1.4.2 4.8-2 3.5a5.8 5.8 0 0 0-3.2-1v-2h-1.3l-.3-1.8a9.3 9.3 0 0 1 6.8 1.3zM1032.7 9941.6c1.7-.9 4.2 1 2.9 2.9-5.1 7.6-7.6 16.4-11.6 24.6l2 1.1c2.4 1.3.3 5-2.2 3.7a215.3 215.3 0 0 1-26.2-16.8l-13.1-9.7c-4.2-3.1-8.9 10.8-9.2 12.9s1 2.3 2.6 3.5l-1.9 2.5c-.4 5-.4 10.1-.4 15.2h-3.7c-.1-5.7-.4-11.5 0-17.1a43.7 43.7 0 0 1-3.6-2.8l-1-.8 3.5-2.4.3.3a22.7 22.7 0 0 1 .9-2.9c1.3-3.6 3.4-11 6.8-13.4l-2.6-1.4c-5.2-2.4-8.2 1.6-10.8 5.8-.4.7-2.7 3.8-2.3 5l-4.1 1c-9.4 6.4-19.4 12-29.2 17.8l-2-3.4c10-6 20-11.9 29.6-18.5-2.8-2.9-5.6-5.9-8.6-8.5l3.2-2.6a108 108 0 0 1 8.7 8.4l1.9-2.7a33.3 33.3 0 0 1 5-5.8l-2.7-2.6 3.1-2.5a39.6 39.6 0 0 0 3.3 2.7l.3.3a4.7 4.7 0 0 1 2.1.1 32.2 32.2 0 0 1 14 8.8l.3.4.9.7c10.2 7.6 20.4 15.2 31.3 21.6 4.1-8.2 6.5-17 11.6-24.6a2.3 2.3 0 0 1 .9-.8zM1034.9 10184.8l.5 4.1-3.3.4a2.2 2.2 0 0 1-2.1-1.6c-4.2-18.9-6.6-37.9-8.5-57.2-.7 16.2-1.5 32.4-3.4 48.4l-4.2-.5c.2-1.9.3-3.8.5-5.7 1.9-24.1 2.7-48.3 4.5-72.4a.9.9 0 0 1 0-.2 2.1 2.1 0 0 1 4.2 0h.1a.9.9 0 0 0 0 .2c2.3 28.4 4.6 56.7 10.6 84.6h1.1z" transform="translate(-646.3 -9735.7)" fill="#262016"/><path d="M1029.9 9938.6l2.8 3.1a2.3 2.3 0 0 0-.8.8c-5.1 7.6-7.6 16.5-11.6 24.6-11-6.4-21.1-14-31.3-21.6l-.9-.7-.3-.4a32.2 32.2 0 0 0-14-8.8 4.7 4.7 0 0 0-2.1-.1l-.3-.3a39.6 39.6 0 0 1-3.3-2.7c-3.1-2.8-5.8-5.9-9.2-8.3a80.3 80.3 0 0 1 10.4-7.3c4.5-2.5 10.7-2.3 15.7-2.5a138.2 138.2 0 0 0 14.7 15c3.8 3.6 7.5 8.5 12.2 11.1 1.1.6 2.9.1 3.1-1.3 1.1-6.8 1.9-13.6 3.3-20.3 3 6.3 4.7 13.1 7 19.7.4 1.2 2 2.2 3.1 1.3z" transform="translate(-646.3 -9735.7)" fill="#538463"/><path d="M1031.8 9816.6v2a5.8 5.8 0 0 0-4.4 2.2c-1.7 2-4.4-.9-2.8-2.8a9.3 9.3 0 0 1 5.5-3.2l.3 1.8h1.3zM1027.7 9852.1c.7-2.7 4.8-1.5 4.1 1.1-2.2 8.4-14.8 12.1-21.9 8.6-2.5-1.2-.3-4.9 2.2-3.7 4.6 2.2 14.2-.5 15.6-6z" transform="translate(-646.3 -9735.7)" fill="#262016"/><path d="M1029.5 9904.4a2.1 2.1 0 0 0 0 .3c-3.3 3.3-9.2 6.1-11.7 7.6h-.1c-1.9-.6-8.3-3.5-11.4-6.9v-7.8a50.5 50.5 0 0 0 16 .8 35.4 35.4 0 0 0 7.2-1.6v7.6z" transform="translate(-646.3 -9735.7)" fill="#ffc9a4"/><path d="M1018 9837.8c1.9-2.1 4.9 1 3 3s-8.9 3.6-11.3-.9a5.7 5.7 0 0 1 .5-6.1c1.3-1.5 1.9-2.4 1.8-4.4l-.2-4.1c-.1-2.7 4.2-2.7 4.3 0s1 6.3-.3 8.5-2.8 2.7-2.4 3.7 3.3 1.8 4.6.3zM1018.1 10178.9l-.2 1.7c-.3 2.2-.2 5.5-1.5 7.3a4.4 4.4 0 0 1-2.8 1.5c-.2 39.9-3.1 79.8-2.5 119.7l.2.5c2.3 7.6 9.2 19.3-.3 24.7-7.6 4.3-15.8 7.6-23.7 11.4s-13.1 6.7-19.9 9.3-22.5 5-22.9-6.9c-.2-7.9 10.6-12.7 18-16.1h.1c9.2-4.4 17.5-9.8 24.3-17.6 3.2-4.5 1.4-13.9.9-18.9-1-12-2.7-24-4.3-36-3.4-25-7.4-50.3-7.3-75.5l-6.2-1.9c-4.5-1.5-7.1-2.1-7.6-5.6l4.1-.2h.3l4.4 1.5 7.8 2.3h.2a130.7 130.7 0 0 0 25.7 4.8c2.7.2 7.9 1.6 8.3-1s.6-3.8.8-5.7zm-10.8 152.5c4.4-2.5 4.1-7.2 2.9-11.8-1.7 4-5.2 6.9-9.8 9.2-10.1 4.9-20 9.7-30.7 13.1a2.1 2.1 0 0 1-2.1-.6l-4.4-5c-4.7 2.2-9.8 4.5-12.5 8-6.5 8.3 3.9 9 7.2 8.6a30.1 30.1 0 0 0 9.9-2.8l12.2-5.8c9-4.2 18.6-8 27.3-12.9zm2-141.7l-3.1-.2a141.3 141.3 0 0 1-25.8-4.4c0 27 4.6 54 8.1 80.7 1.5 11.2 3.1 22.4 3.8 33.6.3 5 1.4 13-2 17.3h-.1l-.2.3a70.2 70.2 0 0 1-20.8 16.1l-.4.3-1.8.9 2.4 2.8c.5.5 5.1-1.6 5.7-1.8a139 139 0 0 0 14.9-6.6c7-3.5 16.2-6 16.7-14.5-.8-41.4 2.4-82.9 2.6-124.6z" transform="translate(-646.3 -9735.7)" fill="#262016"/><path d="M1014.6 9915.6c-1.5 6.3-2.3 12.8-3.3 19.2-3.1-2.5-5.9-6-8.6-8.6a138.8 138.8 0 0 1-14-14.1c4.2-3 7.9-6.5 11.8-9.8a9.1 9.1 0 0 0 1.5 3.8c.5.8 1.3 1.6 1.7 2.1a34.6 34.6 0 0 0 10.9 7.4z" transform="translate(-646.3 -9735.7)" fill="#52705a"/><path d="M1010.2 10319.6c1.3 4.6 1.5 9.3-2.9 11.8-8.7 4.9-18.3 8.7-27.3 12.9l-12.2 5.8a30.1 30.1 0 0 1-9.9 2.8c-3.3.4-13.7-.3-7.2-8.6 2.7-3.5 7.8-5.9 12.5-8l4.4 5a2.1 2.1 0 0 0 2.1.6c10.7-3.3 20.7-8.2 30.7-13.1 4.6-2.3 8.1-5.2 9.8-9.2z" transform="translate(-646.3 -9735.7)" fill="#564642"/><path d="M1006.3 10189.4l3.1.2c-.2 41.6-3.4 83.2-2.4 124.8-.6 8.5-9.8 11-16.7 14.5a139 139 0 0 1-14.9 6.6c-.6.2-5.2 2.3-5.7 1.8l-2.4-2.8 1.8-.9.4-.3a70.2 70.2 0 0 0 20.8-16.1l.2-.3h.1c3.3-4.4 2.2-12.3 2-17.3-.6-11.3-2.3-22.5-3.8-33.6-3.6-26.7-8.1-53.7-8.1-80.7a141.3 141.3 0 0 0 25.6 4.1z" transform="translate(-646.3 -9735.7)" fill="#ffc9a4"/><path d="M1000.9 9818.5c2.5 1.2.3 4.9-2.2 3.7a7.1 7.1 0 0 0-7.6.9c-2.2 1.7-4.3-2-2.2-3.7a11.2 11.2 0 0 1 12-.9zM991.5 10065.8l-.6 3.9c-4.1-.6-9.4-1.3-13.4-3-3.5 24-5.9 48.1-8.1 72.2-.9 10-1.9 20.1-2.6 30.1-.2 2.4-.4 4.9-.4 7.3l-4.1.2a11.4 11.4 0 0 1-.1-2.6c.5-10 1.5-20 2.4-30 2.4-26.6 5-53.3 8.9-79.8l-.8-1.1c-1.8-3-.9-7.5-.9-10.8v-13.6c0-8.4.1-16.9.1-25.3s0-18.7-.1-28.1c0-1.2 0-2.3-.1-3.5h3.7c.1 9.1.7 18.3.7 27.3 0 16 .2 32.1-.1 48.2.1 4.7 8 7.2 15.5 8.6z" transform="translate(-646.3 -9735.7)" fill="#262016"/><path d="M990 9852.3c2.5 7.4-2.9 14.2-9.8 15.9l-1.2-3.1a186.7 186.7 0 0 1-6-21.5c7.4-2 14.4 1.3 17 8.7z" transform="translate(-646.3 -9735.7)" fill="#dd553a"/><path d="M976.1 9941l2.6 1.4c-3.4 2.5-5.6 9.9-6.8 13.4a22.7 22.7 0 0 0-.9 2.9l-.3-.3c-1.6-1.3-2.2-2.1-3.8-3.3l-3.7-3-.2-.3c-.4-1.2 1.8-4.3 2.3-5 2.6-4.2 5.6-8.2 10.8-5.8z" transform="translate(-646.3 -9735.7)" fill="#52705a"/><path d="M970.7 9958.4l-3.5 2.4c-2.4-1.8-5.1-3.5-7-5.7a6.3 6.3 0 0 1-1.3-2.3l4.1-1 .2.3 3.7 3c1.6 1.2 2.2 2.1 3.8 3.3z" transform="translate(-646.3 -9735.7)" fill="#262016"/><path d="M966.2 9829.2c-1.4.5-4.8-4.6-5-5.2a11.8 11.8 0 0 1-.7-4.8c0-1.6 1.7-6.1 4-3.7l.2.2q.6 6.8 1.5 13.5zM964.8 9934.9l2.7 2.6a33.3 33.3 0 0 0-5 5.8l-1.9 2.7a108 108 0 0 0-8.7-8.4 35.8 35.8 0 0 0-13.4-7.3c-7.1-2.1 6-6.2 6.9-6.3h1.3a23.1 23.1 0 0 1 9.8 3.2c3.2 2 5.7 5 8.3 7.7z" transform="translate(-646.3 -9735.7)" fill="#ffc9a4"/><path d="M952 9937.7l-3.2 2.6-1.3-1.1a15.6 15.6 0 0 0-5.6-3c-23.5 15.3-47 30.4-70.3 46l-5.2 3.6a5.4 5.4 0 0 0-1.3 1l-3.4.3c-4 1.6-8.7 3.8-6.5 8.8s3.5 7.6 7.1 9.8c1.4.9 3.1 2.1 4.8 2.5h.4l.2 3.9c-2.3.1-4.5-.6-7.1-2.4-8.6 5.9-19.6 12.7-30.3 9.1a6.9 6.9 0 0 1-4.3-5.1l3.8-.4c.3.9 1.2 1.5 3 1.8a18.9 18.9 0 0 0 5.1.2c7.3-.9 13.4-4.5 19.3-8.5a27.9 27.9 0 0 1-6.3-9 33.6 33.6 0 0 1-7.4-.6l.6-4.1a28.6 28.6 0 0 0 5.8.5v-.2c-.4-7.2 7.7-9 13-11.5a2.1 2.1 0 0 1 1.7-.1c23.6-16.5 48-31.8 72.2-47.5l-1.8-.9c-3.6-2-6.3-6-1.9-8.9s8.8-4.8 13.6-4.6v4.1h-1.3c-.9 0-14 4.2-6.9 6.3a35.8 35.8 0 0 1 13.5 7.4z" transform="translate(-646.3 -9735.7)" fill="#262016"/><path d="M948.8 9940.3c2.9 2.7 5.8 5.6 8.6 8.5-9.6 6.5-19.6 12.5-29.6 18.5s-20.1 12-29.8 18.5l-15.6 10.5c-3.3 2.2-4.8 4.1-7.9.9a60.7 60.7 0 0 1-6.9-8.7c-1.1-1.7-2.3-1.5-2.3-1.7a5.4 5.4 0 0 1 1.3-1l5.2-3.6c23.2-15.7 46.8-30.8 70.3-46a15.6 15.6 0 0 1 5.6 3z" transform="translate(-646.3 -9735.7)" fill="#538463"/><path d="M927.8 9967.3l2 3.4c-14 8.3-27.3 17.4-40.8 26.4l-3.6 2.7c-.7 4.7-6.8 8.2-10.6 10.1a17.8 17.8 0 0 1-7.1 2.3l-.2-3.9c1.9 0 5.3-2 6.7-2.9l2.6-1.6-1.6-.2c-3.9-1.1-7.8-7.6-10-10.8s-2.9-4.1-3.4-5.6l3.4-.3c0 .2 1.2.1 2.3 1.7a60.7 60.7 0 0 0 6.9 8.7c3.2 3.2 4.6 1.3 7.9-.9l15.6-10.5c9.8-6.7 19.8-12.6 29.9-18.6z" transform="translate(-646.3 -9735.7)" fill="#262016"/><path d="M875.2 10003.4l1.6.2-2.6 1.6c-1.5 1-4.9 2.9-6.7 2.9h-.4c-1.7-.3-3.4-1.6-4.8-2.5-3.6-2.3-5.4-6.1-7.1-9.8s2.5-7.2 6.5-8.8c.5 1.5 1.8 3.2 3.4 5.6s6.2 9.7 10.1 10.8z" transform="translate(-646.3 -9735.7)" fill="#52705a"/><path d="M850.9 9997.8a27.9 27.9 0 0 0 6.3 9c-5.9 4-12 7.6-19.3 8.5a18.9 18.9 0 0 1-5.1-.2c-1.8-.3-2.7-1-3-1.8-.9-2.9 5-7.8 6.1-8.5a3.6 3.6 0 0 0 1.6-2.2 2.2 2.2 0 0 0-1-2.4 5.9 5.9 0 0 0-3.1-1.1c-5.7-1.2 4.9-2.3 6.2-2.2l3.9.4a33.6 33.6 0 0 0 7.4.5z" transform="translate(-646.3 -9735.7)" fill="#ffc9a4"/><path d="M844.1 9993.1l-.6 4.1-3.9-.4c-1.3 0-11.9 1.1-6.2 2.2a5.9 5.9 0 0 1 3.1 1.1 2.2 2.2 0 0 1 1 2.4 3.6 3.6 0 0 1-1.6 2.2c-1.1.7-7 5.7-6.1 8.5l-3.8.4a7.1 7.1 0 0 1-.1-2.7 10.3 10.3 0 0 1 2.6-5.8l3.2-2.4c-2-.5-4.2-.7-5.4-2.6s-.2-4.3 1.3-5.8c4.1-3.8 10.6-2.2 16.5-1.2zM1015 9993.3a2.1 2.1 0 1 0 0 4.3s3-4.3 0-4.3zM1015 10013.9a2.1 2.1 0 1 0 0 4.3s3-4.3 0-4.3zM1015 10036.4a2.1 2.1 0 1 0 0 4.3s3-4.3 0-4.3zM941.4 10009c1.9 2.3 2 6.5-.4 8.5-8.5 7.2-20.3 2.6-29.7-.5a5.1 5.1 0 0 1-2 1.5c-5.1 1.9-9.5-2.6-13.7-5q-8.8-4.9-17.9-8.8l-34.9-15 1.6-3.7c8.5 3.8 17.1 7.4 25.7 10.9 10.2 4.2 20.4 8.5 29.8 14.2 4.4 2.6 8.3 3.8 10.5-2.3a68.4 68.4 0 0 0 2.6-7.2c2.1-8.6-8.2-10.9-14-13.3a289.3 289.3 0 0 1-29.6-14.4l2-3.5q7.2 4.1 14.8 7.6c6.9 3.2 14.1 5.9 21.1 9.1 3.2 1.5 7.7 3.5 9.3 7a12.4 12.4 0 0 1 .9 3.1c4.8-.7 11.7-1.5 15.1 2.2 1.8 2 1.9 3.5 1 4.7a15.3 15.3 0 0 1 7.8 4.9zm-7.8 7.6q4.2-.5 3.7-5.9a14.1 14.1 0 0 0-9.2-3.1 2.2 2.2 0 0 1-1.1-4c5-2.7-6.8-2.4-9.6-2.1a37.7 37.7 0 0 1-1.8 5.8c-.6 1.5-1.1 3.9-2 6.1 4.9 1.7 10.4 3.9 15.3 3.8a17.1 17.1 0 0 0 4.7-.6z" transform="translate(-646.3 -9735.7)" fill="#262016"/><path d="M937.3 10010.7q.5 5.4-3.7 5.9a17.1 17.1 0 0 1-4.7.5c-5 .1-10.5-2.1-15.3-3.8.9-2.2 1.5-4.5 2-6.1a37.7 37.7 0 0 0 1.8-5.8c2.8-.3 14.6-.6 9.6 2.1a2.2 2.2 0 0 0 1.1 4 14.1 14.1 0 0 1 9.2 3.2z" transform="translate(-646.3 -9735.7)" fill="#ffc9a4"/><path d="M899 9988.3c5.8 2.4 16.1 4.7 14 13.3a68.4 68.4 0 0 1-2.6 7.2c-2.2 6.1-6.2 4.9-10.5 2.3-9.4-5.7-19.7-10-29.8-14.2-8.6-3.5-17.2-7.2-25.7-10.9-14.2-6.3-28.2-12.9-41.9-20.3l-.3-.8c-1-2.5-5.1-1.4-4.1 1.1l.6 1.7a1.3 1.3 0 0 0 .2.5c2.2 6.5 2.8 13.6 3.6 20.3 1.2 10.4 1.8 20.9 2.2 31.3.6 14 1.8 28.6.8 42.7-6 3.1-12.9 4.6-20.1 5.3s-14.4.7-20.8.8c-8.6.1-17.3-.3-25.9-1-4.8-.4-9.5-1-14.3-1.7s-7.7-2-11.3-2.2a222.7 222.7 0 0 0-5.5-43.3c-.4-1.6-.7-3.2-1-4.8-.8-3.8-1.4-7.7-2.1-11.5-1.7-10.1-3.2-20.2-5.5-30.1-3.7-16-9.6-31.5-14.8-47s-9.5-30.3-14.2-45.5c-6-19.4-13.4-37.8-14.4-58.2-.8-15.9-.9-31.9-.9-47.9 6.1.5 12.2 0 18.3-.1a398 398 0 0 0 3 45.5c1.4 11.4 6.1 22.6 9.7 33.4 4.7 14 9.4 28 15.1 41.6.9 2.2 1.8 4.5 2.9 6.8 2.3 5 5.2 9.9 9.9 12.6 6.9 4 13.4 4.1 20.8 4.9a20 20 0 0 0-3.2 12.8 17.9 17.9 0 0 0 .8 3.7c3.5 10.4 16.9 11.7 26 11.6l1-.3 1 .3a51.6 51.6 0 0 0 13-1.2c5.5-1.4 10.4-4.1 12.9-9.7s.3-12.4-3.4-17.5c11.5 1.2 20.7 7.9 30 14.5s18.3 13.7 27.4 20.5a268.4 268.4 0 0 0 29.5 19.1 289.3 289.3 0 0 0 29.6 14.4zm-140.6-11.9s2.8-4.3 0-4.3a2.1 2.1 0 0 0 0 4.2zm0 23.3s2.8-4.3 0-4.3a2.1 2.1 0 1 0 0 4.2zm0 20.6s2.8-4.3 0-4.3a2.1 2.1 0 1 0 0 4.2zm0 22.5s2.8-4.3 0-4.3a2.1 2.1 0 0 0 0 4.2z" transform="translate(-646.3 -9735.7)" fill="#54618c"/><path d="M871.3 9970.3l-2 3.5a268.4 268.4 0 0 1-29.5-19.1c-9.2-6.8-18.1-13.8-27.4-20.5s-18.6-13.3-30-14.5c3.7 5.1 6 11.6 3.4 17.5s-7.4 8.3-12.9 9.7l-1-4.1c4.9-1.1 9.3-3.5 10.3-8.4a14.5 14.5 0 0 0-2.3-10.7 14.7 14.7 0 0 0-.3 1.6 2 2 0 0 1-.3 1l-.4 1.2-4.1-.9.2-.5c.1-.4.2-.9.3-1.3 0-3.3-.1-6.7-.3-10.1a46.6 46.6 0 0 1-25.6 3.5l-5-1 .9-4 3.2.6c19.5 2.8 38.3-6.1 46.2-24.6 1-2.4 1.9-4.8 2.7-7.2-9.1-.7-15.6-10.2-14.1-19.2s11.8-17.3 20.9-11.6q.8-5.1 1.5-10.1c-.4-10.3-9.3-21.1-16.6-27.6-11 6.3-24.3 6.1-36.9 8.2-4.7.8-10.6 1.3-16.6 2l-.5-3.9c9.2-1.2 18.3-2.7 27.5-3.7s21.2-2.5 29.4-9.8c2-1.8 5.1 1.2 3 3l-2.2 1.8c7.1 6.5 14.9 16.3 16.8 26.3 7.2-8.7 10.6-18.8 6.8-30.4-2.1-6.5-7.9-18.6-16.2-18.6a19.7 19.7 0 0 1 1 13.4c-.7 2.7-4.8 1.5-4.1-1.1 3.9-14.9-12.5-24.2-24.2-28a63.4 63.4 0 0 0-35.9-.9l-1.1-4.1c16.2-3.6 32-3.1 47.1 4.5 5.7 2.9 11.3 7 14.9 12.1 10.6-1.4 19 10.2 21.9 19.2 4.3 13.2 2.3 24.5-5.3 34.6 2.6 1 4.2 4.6 4 7.2a12.4 12.4 0 0 1-5.2 9.3c-1.8 1.4-3.8 2.9-6 2.5l-4-.7v-.7l-.3-.2c-7-5.4-16.1.8-15.8 9.2.3 6.7 4.4 12.8 11.3 12.8 1-3.6 1.9-7.2 2.7-10.9l3.8.8-1.5 6.6c-2 8.7-4.6 17.6-9.8 25a45.7 45.7 0 0 1-14.7 13.3c0 .9.1 1.8.1 2.7 13.6.2 24.4 7.6 35.1 15.3s22 16.7 33.3 24.8a259.9 259.9 0 0 0 23.8 15.2zM813.7 9848c.7-1.6 1-3.8-.1-5.3s-3 .5-3.6 1.5l-.5.6c-.4 2.7-.9 5.5-1.4 8.2 1.4.5 5.2-4.1 5.6-5zM844.4 9986l-1.6 3.7c-13-5.7-25.9-11.6-38.5-18.2a126.5 126.5 0 0 1 2.4 15.6c1.2 10.9 1.9 21.8 2.4 32.8.6 14.4 1.9 29.4.8 43.9 2.6 11 4.8 22.6 4.6 33.9-.2 16-1.6 31.9-2 47.9q-1.3 47.3-3.6 94.6c-1.1 22.8-2 45.5-3.1 68.3-.2 4.8 0 9.9-2.7 13.2 8.3 5 16 10.9 24 16.3l-2.1 3c-3.4-2.1-6.8-4-9-5.5-5.4-3.7-10.8-7.7-16.5-11l-.4-.3-1.3.4a78.5 78.5 0 0 1-14 2h-.3l-.2-4.1 3.2-.3c5-.5 14.3-.4 14.6-8l.4-8.5.8-16.6 1.4-32.6c1-22.6 2.4-45.2 3.1-67.8s1-45.2 2-67.7c.5-10.7 1.8-21.4.7-32a172.4 172.4 0 0 0-3.6-21.7c-6.1 2.8-13.1 4.2-20.2 4.9l-.4-4.1c7.1-.7 14.1-2.2 20.1-5.3 1-14.1-.2-28.7-.8-42.7-.5-10.5-1.1-20.9-2.2-31.3-.7-6.7-1.4-13.8-3.6-20.3a1.3 1.3 0 0 1-.2-.5l-.6-1.7c-1-2.5 3.1-3.7 4.1-1.1l.3.8c13.8 7.1 27.8 13.7 42 20z" transform="translate(-646.3 -9735.7)" fill="#262016"/><path d="M827.7 10338.3c4.1 2.7 22 14.5 10.3 19.9-3.8 1.8-9.4.3-13.1-.8-9.2-2.8-18.4-5.9-27.6-8.9l-15.9-5.1c-1.6-.5-4.9-1.1-5.8-2.8-2.3-4.1-.5-9.8.9-14.3l-.8-.6c-3.2-3.2-2.1-12-2.4-16.2q-.8-10.4-1.6-20.9-1.8-23.7-3.5-47.4-2.9-39.7-5.9-79.3c-.5 42.5-1.2 85-1 127.5 0 9.1.1 18.1.3 27.2v2.8h-4.1c0-1.1-.1-2.1-.1-2.7-.1-4.1-.1-8.2-.2-12.2q-.1-13-.1-26 0-29 .3-58c.4-36.4 1-72.8 1.3-109.1a1.9 1.9 0 0 1 2-2.1 2 2 0 0 1 2.3 2.1q1.3 18.2 2.7 36.4 3.2 43.8 6.5 87.7l3.5 47.7 1.7 23 .7 9.9c.1 1.6.2 3.1.4 4.7s2.8 1.8 5.1 1.7l.2 4.1-2.9.2c-.9 3.1-2.3 7.1-2 10.1s7.5 3.5 9.1 4l18.5 6 18.5 6c1.4.4 12.8 3.5 12.4.2s-6.5-8.6-12.2-12.1l2.1-3z" transform="translate(-646.3 -9735.7)" fill="#262016"/><path d="M837.3 10353c.4 3.4-11 .3-12.4-.2l-18.5-6-18.5-6c-1.6-.5-8.9-2.2-9.1-4s1.1-7 2-10.1l2.9-.2h.3a78.5 78.5 0 0 0 14-2l1.3-.4.4.3c5.7 3.3 11.1 7.3 16.5 11 2.1 1.5 5.5 3.3 9 5.5 5.6 3.5 11.5 7.8 12.1 12.1z" transform="translate(-646.3 -9735.7)" fill="#1b1d21"/><path d="M816.5 9807c3.8 11.6.4 21.7-6.8 30.4-1.9-10-9.7-19.8-16.8-26.3l2.2-1.8c2.1-1.9-1-4.9-3-3-8.2 7.4-18.8 8.7-29.4 9.8s-18.3 2.5-27.5 3.7l-1.5.2c-2.5.3-5.2.8-7.9 1.4a60.2 60.2 0 0 0-10 3 36.1 36.1 0 0 0-9.4 5.4 24.3 24.3 0 0 0-5.3 6c-10.4-27.2 6.3-55.1 34-63.3l2.1-.6a63.4 63.4 0 0 1 35.9.9c11.7 3.8 28.1 13.1 24.2 28-.7 2.7 3.4 3.8 4.1 1.1a19.7 19.7 0 0 0-1-13.4c8.3-.1 14 12 16.1 18.5z" transform="translate(-646.3 -9735.7)" fill="#3f261d"/><path d="M813.6 9842.7c1.1 1.5.9 3.7.1 5.3s-4.2 5.5-5.5 5c.5-2.7.9-5.5 1.4-8.2l.5-.6c.4-1 2-3.5 3.5-1.5z" transform="translate(-646.3 -9735.7)" fill="#ffc9a4"/><path d="M809.8 10088.8c1.1 10.6-.3 21.4-.7 32-1 22.6-1.3 45.2-2 67.7s-2.1 45.2-3.1 67.8l-1.4 32.6-.8 16.6-.4 8.5c-.4 7.6-9.7 7.5-14.6 8l-3.2.3c-2.3.1-5-.1-5.1-1.7s-.2-3.1-.4-4.7l-.7-9.9-1.7-23-3.5-47.7q-3.3-43.8-6.5-87.7-1.3-18.2-2.7-36.4a2 2 0 0 0-2.3-2.1 1.9 1.9 0 0 0-2 2.1c-.3 36.4-.9 72.8-1.3 109.1q-.3 29-.3 58 0 13 .1 26c0 4.1.1 8.2.2 12.2 0 .6.1 1.7.1 2.7s-.3 3.3-2 3.5h-1.4l-8 .5c-8.7.5-10-4.4-11.7-11.6-1.2-5.2-2.2-10.4-3-15.6-1.9-11.3-3.1-22.8-4.8-34.1-3.6-24-7.6-47.8-9.4-72.1s-2.3-46.6-3.5-69.9c-.5-9.6-1.3-19.2-2-28.8l-.2-2.5c-.3-3.7-.3-7.4-.3-11.1s-.9-10 4.2-9c17.5 3.5 35.6 4.5 53.4 4.1 5.4-.1 11.3-.3 17.1-.9s14.1-2.1 20.2-4.9a172.4 172.4 0 0 1 3.7 22z" transform="translate(-646.3 -9735.7)" fill="#41444c"/><path d="M803.5 9856.6l4 .7c-.7 3.5-1.3 7-2.1 10.5l-3.8-.8c.7-3.5 1.3-7 1.9-10.4z" transform="translate(-646.3 -9735.7)" fill="#262016"/><path d="M805.9 9841.1q-.7 5-1.5 10.1c-9.1-5.7-19.2 1.8-20.9 11.6s5 18.5 14.1 19.2c-.8 2.5-1.7 4.9-2.7 7.2-7.8 18.5-26.6 27.4-46.2 24.6l-3.2-.6a41.5 41.5 0 0 1-15.8-6.9 42.6 42.6 0 0 1-7.9-7.4 56.7 56.7 0 0 1-7.4-11.7c9.3-.2 14.5-8.8 14-18-.6-12.2-13.2-18.2-22.8-11.7-1-5.8-1.7-11.6-2.2-17.1a20.2 20.2 0 0 1 6.5-8.4 30.4 30.4 0 0 1 7.3-4.1 55.4 55.4 0 0 1 9.5-2.7c3-.6 6.1-1.1 9.1-1.4 6-.7 11.9-1.2 16.6-2 12.6-2.2 25.9-1.9 36.9-8.2 7.2 6.4 16.1 17.2 16.6 27.5zm-27.2 4.7c.9 2.6 5.1 1.5 4.1-1.1-1.8-4.7-6.6-6.5-11.3-5.8a2.2 2.2 0 0 0-2.1 2.1 2.1 2.1 0 0 0 2.1 2.1c2.5-.3 6-.2 7.1 2.7zm-8.1 51.7c6-3.3 16.1-16.7 4.2-20-5.5-1.5-11.3 2.6-16.8 2.6-8 0-12-9-19.7-8-11.6 1.5-7.3 15.8-1.9 21.3l.4.4.4.3c9.5 7.4 22.4 9.5 33.3 3.5zm-8.8-36.3c2.2-1.6 0-5.3-2.2-3.7a30.5 30.5 0 0 1-4.1 2.7 7.1 7.1 0 0 1-2.8.7c-1.4.1-.3-1.2 0-1.8 1.7-3 3.9-5.1 3.9-8.8s-4.3-2.7-4.3 0c0 4.3-7.8 9.2-3.5 13.5s9.9-.2 13-2.5zm-20.3-18.4c2.2 1.6 4.3-2.1 2.1-3.7-4.5-3.3-11.5-.5-14.2 3.8-1.5 2.3 2.3 4.4 3.7 2.1s5.8-4.1 8.4-2.2z" transform="translate(-646.3 -9735.7)" fill="#ffc9a4"/><path d="M803.6 9855.9v.7c-.6 3.4-1.2 6.9-1.9 10.3s-1.7 7.3-2.7 10.9c-6.9 0-11-6.2-11.3-12.8-.4-8.4 8.7-14.6 15.8-9.2z" transform="translate(-646.3 -9735.7)" fill="#dd553a"/><path d="M785.6 10067.9l.4 4.1c-5.9.6-11.7.8-17.1.9-17.8.4-35.9-.6-53.4-4.1-5.2-1-4.2 5.3-4.2 9s0 7.4.3 11.1l.2 2.5-4.2.3c-.5-4.8-2.7-21.3 1.7-26.4v-.2c-.3-16.7-3.6-32.3-6.4-48.6l4.1-.8c.3 1.6.6 3.2 1 4.8a222.7 222.7 0 0 1 5.5 43.3c3.6.2 7.8 1.7 11.3 2.2s9.5 1.3 14.3 1.7c8.6.7 17.2 1.1 25.9 1 6.2-.1 13.5-.1 20.6-.8zM782.7 9844.7c1 2.6-3.2 3.7-4.1 1.1s-4.6-3-7.2-2.7a2.1 2.1 0 0 1-2.1-2.1 2.2 2.2 0 0 1 2.1-2.1c4.7-.7 9.6 1 11.3 5.8z" transform="translate(-646.3 -9735.7)" fill="#262016"/><path d="M780 9923.7a14.5 14.5 0 0 1 2.3 10.7c-1 5-5.4 7.3-10.3 8.4a46.5 46.5 0 0 1-9.6 1c0-2.4-.1-4.7-.3-7 5.4-.4 12-1.4 15.2-5.8a13.8 13.8 0 0 0 1.9-3.5l.4-1.2a2 2 0 0 0 .3-1 14.7 14.7 0 0 1 .1-1.6z" transform="translate(-646.3 -9735.7)" fill="#414e72"/><path d="M775 9926.7l4.1.9a13.8 13.8 0 0 1-1.9 3.5c-3.2 4.4-9.8 5.3-15.2 5.8.2 2.4.3 4.7.3 7a46.5 46.5 0 0 0 9.6-1l1 4.1a51.6 51.6 0 0 1-12.8 1.2l-1-.3-1 .3c-9.2.1-22.5-1.2-26-11.6a17.9 17.9 0 0 1-.8-3.7l4-.4a9.4 9.4 0 0 0 1.2 3.7c4 6.7 12.2 7.7 19.4 7.8a68.5 68.5 0 0 1 .3-7.1l.4-4.2h3c4.8-.3 13.3-.7 15.4-6z" transform="translate(-646.3 -9735.7)" fill="#262016"/><path d="M767.8 9882.6c1.6-.6 11.7-3.1 7.5 4.4-1.9 3.4-5.3 6-8.6 7.8-8.4 4.6-19.9 1.5-27-4.1-3.4-3.2-7.5-11.4-2-13.9 2.9-1.3 8.8 3.7 10.9 5 5 2.9 10.9 3.1 16.3 1.8z" transform="translate(-646.3 -9735.7)" fill="#f48f7d"/><path d="M775.3 9914.7c.2 3.3.3 6.7.3 10.1-.1.4-.2.9-.3 1.3l-.2.5c-2.1 5.3-10.6 5.8-15.3 6.1h-3c-4.5-.4-9.6-1.1-12.5-4.6 0-3.6.3-7.1.5-10.7l5 1a46.6 46.6 0 0 0 25.5-3.7z" transform="translate(-646.3 -9735.7)" fill="#ffc9a4"/><path d="M774.7 9877.6c12 3.3 1.8 16.7-4.2 20-10.9 6-23.8 3.9-33.4-3.5l-.4-.3-.4-.4c-5.3-5.5-9.7-19.8 1.9-21.3 7.6-1 11.7 8 19.7 8 5.5 0 11.3-4 16.8-2.5zm.6 9.4c4.2-7.5-6-5-7.5-4.4l-2.9 1c-5.4 1.3-11.4 1.2-16.3-1.8-2.2-1.3-8-6.3-10.9-5-5.5 2.5-1.4 10.7 2 13.9 7.1 5.6 18.6 8.7 27 4.1 3.3-1.8 6.7-4.4 8.6-7.8zM761 10326c.9 3.5 4.1 11.3 2 14.9s-10 5.1-14.4 6.5l-23.8 7.7c-6.3 2.1-14.7 6.5-21.5 5.6-12.2-1.6-7.5-10.6-.6-16.5l3.6-2.9 2.8 3.1a47.9 47.9 0 0 0-5.1 4.4c-4 4-2.3 8.8 3.9 7.1l5.1-1.5 29.1-9.4 13.2-4.3c6.3-2.1 2.7-8.9 1.5-13.6l3.5-2.1a2 2 0 0 1 .7 1zM759.6 9857.6c2.2-1.7 4.3 2.1 2.2 3.7s-9.2 6.4-12.9 2.7 3.5-9.2 3.5-13.5c0-2.7 4.3-2.7 4.3 0s-2.3 5.8-3.9 8.8c-.3.6-1.4 1.9 0 1.8a7.1 7.1 0 0 0 2.8-.7 30.5 30.5 0 0 0 4-2.8z" transform="translate(-646.3 -9735.7)" fill="#262016"/><path d="M757.4 10319.4h4.1a9.9 9.9 0 0 1-1.2 5.4l-3.5 2.1-1.4.2h-1l-.4-4.2h1.4c1.7-.2 2-1.9 2-3.5zM758.4 9972.1c2.8 0 0 4.3 0 4.3a2.1 2.1 0 0 1 0-4.3zM758.4 9995.3c2.8 0 0 4.3 0 4.3a2.1 2.1 0 1 1 0-4.3zM758.4 10015.9c2.8 0 0 4.3 0 4.3a2.1 2.1 0 1 1 0-4.3zM758.4 10038.4c2.8 0 0 4.3 0 4.3a2.1 2.1 0 0 1 0-4.3z" transform="translate(-646.3 -9735.7)" fill="#262016"/><path d="M756.9 10327.1c1.2 4.8 4.9 11.6-1.5 13.6l-13.2 4.3-29.1 9.4-5.1 1.5c-6.2 1.6-7.9-3.1-3.9-7.1a47.9 47.9 0 0 1 5.1-4.4l5.5-3.8c7.3-4.8 15.1-8.8 22.7-13 5 1.4 13.2 0 17.1-.3h1l1.4-.2z" transform="translate(-646.3 -9735.7)" fill="#1b1d21"/><path d="M756.7 9932.6l-.4 4.2c-5.8-.5-12.7-1.6-15.9-6.6v-.3l-.2-.4a18.3 18.3 0 0 1-2.2-6.6 15.5 15.5 0 0 0-2.5 9.5l-4 .4a20 20 0 0 1 3.2-12.8c-7.4-.9-13.8-.9-20.8-4.9-4.7-2.7-7.6-7.6-9.9-12.6l3.7-1.7c2 4.3 4.6 8.4 8.3 10.6 7 4 13.9 3.7 21.6 4.7l.6-.7v-.2a46.2 46.2 0 0 1-11.7-6.5l3.1-2.5a41.5 41.5 0 0 0 15.8 6.9l-.9 4c-.2 3.6-.5 7.1-.5 10.7 3.1 3.7 8.2 4.4 12.7 4.8z" transform="translate(-646.3 -9735.7)" fill="#262016"/><path d="M756.3 9936.8a68.5 68.5 0 0 0-.3 7.1c-7.2-.1-15.4-1-19.4-7.8a9.4 9.4 0 0 1-1.2-3.7 15.5 15.5 0 0 1 2.5-9.5 18.3 18.3 0 0 0 2.2 6.6l.2.4v.3c3.3 5.1 10.3 6.2 16 6.6z" transform="translate(-646.3 -9735.7)" fill="#414e72"/><path d="M754.1 10323l.4 4.2c-3.9.4-12.2 1.7-17.1.3-7.6 4.2-15.5 8.2-22.7 13l-5.5 3.8-2.8-3.1c8.5-6.5 18-11.5 27.4-16.6-4-8.1-5.1-18.5-6.5-27.3-7.1-44.9-13.8-89.9-15.9-135.3-1.1-23.3-1.9-46.7-3.8-70v-.5l4.2-.3c.7 9.6 1.5 19.2 2 28.8 1.2 23.3 1.8 46.6 3.5 69.9s5.8 48.1 9.4 72.1c1.7 11.4 2.9 22.8 4.8 34.1.9 5.2 1.8 10.4 3 15.6 1.7 7.2 3 12.1 11.7 11.6zM743.5 9839.1c2.2 1.6.1 5.4-2.1 3.7s-6.8-.4-8.4 2.1-5.2.2-3.7-2.1c2.8-4.2 9.7-7 14.2-3.7z" transform="translate(-646.3 -9735.7)" fill="#262016"/><path d="M736 9767.7l1.1 4.1-2.1.6c-27.7 8.2-44.3 36.1-34 63.3a24.3 24.3 0 0 1 5.3-6l3.4 2.3a20.2 20.2 0 0 0-6.5 8.4c.6 5.5 1.3 11.2 2.2 17.1 9.6-6.5 22.1-.4 22.8 11.7.5 9.3-4.7 17.8-14 18a56.7 56.7 0 0 0 7.4 11.7l-2.9 2.6c-9.6-11.5-14.5-27.2-17.3-43.2a9.9 9.9 0 0 1-4.8-2 12.6 12.6 0 0 1-4.5-6 13.3 13.3 0 0 1-.6-2.5c-.7-4.4 2.1-9.2 5.9-9.8-5.7-14.5-5.4-30.8 2.9-44.4a56.1 56.1 0 0 1 35.7-25.9zM724.2 9872c0-3-.1-6.5-2-9-3.8-5-10.5-5.3-15.2-1.3l-.6.4a112.6 112.6 0 0 0 6 20.8c6.7 1 11.8-4.5 11.8-10.9zm-23.3-17.9c-.6-3.9-1.1-7.8-1.5-11.7-1.9-1.4-3.6 1.5-3.6 3a7.9 7.9 0 0 0 .7 3.9c.2.7 3 4.4 4.4 4.8z" transform="translate(-646.3 -9735.7)" fill="#262016"/><path d="M735.2 9819.8l.5 3.9c-3 .4-6.1.8-9.1 1.4l-.8-3.8c2.7-.6 5.4-1 7.9-1.4zM729.7 9906.3l-3.1 2.5a48.8 48.8 0 0 1-7.7-7.4l2.9-2.6a42.6 42.6 0 0 0 7.9 7.5zM725.8 9821.3l.8 3.8a55.4 55.4 0 0 0-9.5 2.7l-1.4-3.6a60.2 60.2 0 0 1 10.1-2.9z" transform="translate(-646.3 -9735.7)" fill="#262016"/><path d="M722.2 9863c1.9 2.5 2 6 2 9 0 6.4-5.1 11.9-11.7 10.9a112.6 112.6 0 0 1-6-20.8l.6-.4c4.6-4 11.3-3.7 15.1 1.3z" transform="translate(-646.3 -9735.7)" fill="#dd553a"/><path d="M715.8 9824.3l1.4 3.6a30.4 30.4 0 0 0-7.3 4.1l-3.4-2.3a36.1 36.1 0 0 1 9.3-5.4zM707.6 9900.9l-3.7 1.7c-1.1-2.3-2-4.6-2.9-6.8-5.7-13.6-10.4-27.6-15.1-41.6-3.6-10.8-8.3-22-9.7-33.4a398 398 0 0 1-3-45.5c-6.1.2-12.2.6-18.3.1.1 16 .2 31.9.9 47.9 1 20.4 8.4 38.8 14.4 58.2 4.7 15.2 9.3 30.4 14.2 45.5s11 31 14.8 47c2.3 10 3.8 20.1 5.5 30.1l-4 .7c-1.9-11.7-3.9-23.3-7-34.8-4.2-15.9-10.1-31.5-15.2-47.2s-8.9-29-13.5-43.5c-6-18.6-12.6-36.4-13.5-56.1-.8-16.7-.9-33.5-1-50.2a2.1 2.1 0 0 1 2.1-2.1h1.6c1.7-2.5-4.8-10.2-5.7-12.2s-2.6-6-2.3-9.2c.6-6 3.8-10.6 9.8-12.4s29.4-4.9 23.9 8.2c1.8 1.5 2.8 3.9 3.2 7.1s.9 6.3-.7 9-7.2 5.6-7.5 9.4h.3a2.2 2.2 0 0 1 2.1 2.1 410.7 410.7 0 0 0 2.6 45.1c1.3 10.8 5.4 21.3 8.8 31.6l.5 1.4c4.5 13.4 9 26.8 14.3 39.8 1.3 3.1 2.6 6.7 4.1 10.1zm-36.9-129.8c.1-6.8 9-8.2 8.6-14.9a17.9 17.9 0 0 0-.3-2.2c-.7-4-2.7-6.4-7.7-5a21.2 21.2 0 0 0-5.4 1.9c-3.3 3.1 2.7 3.8 5.3 2.6l1.7-.6a1.9 1.9 0 0 1 2.6 1.6 2.2 2.2 0 0 1-1.4 2.5c-3.9 1.4-14 2.2-14-4.4s9.1-7.7 13.5-8.4l2.5-.2c2.6-5.6-9.4-4.3-10.9-4.1a33.5 33.5 0 0 0-7.9 1.6c-9.2 3.7-7 12.3-2.8 18.8 1.8 2.7 4.9 7.4 4.4 11 3.9.1 7.9 0 11.8-.2zM706.8 10015.7l-4.1.8-1.9-11.7 4-.7c.6 3.9 1.2 7.8 2 11.6z" transform="translate(-646.3 -9735.7)" fill="#262016"/><path d="M699.4 9842.4c.4 3.8.9 7.7 1.5 11.7-1.3-.5-4.1-4.1-4.4-4.7a7.9 7.9 0 0 1-.7-3.9c0-1.6 1.7-4.5 3.6-3.1zM679.3 9756.2c.4 6.7-8.5 8.1-8.6 14.9-3.9.1-7.9.3-11.9.2.5-3.7-2.6-8.3-4.4-11-4.2-6.5-6.5-15.2 2.8-18.8a33.5 33.5 0 0 1 7.9-1.6c1.5-.2 13.5-1.5 10.9 4.1l-2.5.2c-4.4.7-13.5 2.3-13.5 8.4s10.1 5.8 14 4.4a2.2 2.2 0 0 0 1.4-2.5l3.6-.6a17.9 17.9 0 0 1 .3 2.3z" transform="translate(-646.3 -9735.7)" fill="#ffc9a4"/><path d="M679.1 9754l-3.6.6a1.9 1.9 0 0 0-2.6-1.6l-1.7.6c-2.6 1.2-8.6.5-5.3-2.6a21.2 21.2 0 0 1 5.4-1.9c5.1-1.5 7.1.9 7.8 4.9z" transform="translate(-646.3 -9735.7)" fill="#ffc9a4"/><path d="M972.5 9988.2c2.9 7.6 8.5 18 4 26s-11.4 16.5-17.9 23.8l-1.2 1.3a276.5 276.5 0 0 1-1.2 67.9c-1.6 10.7-3.3 21.6-6.5 32-2.3 7.6-5.1 15.2-7.2 22.9l-3.8-1.1c2.9-10.4 6.7-20.6 9.1-31.2a277.8 277.8 0 0 0 5.8-86.4l-3.9 4.1-3-2.8 6.4-7 1.2-1.3c2.7-3 5.3-6 7.8-9.1a137.6 137.6 0 0 0 8.6-11.7c3.5-5.5 3.3-10.3 1.3-16.3-2.8-8.3-6.1-16.4-9.6-24.4-1.9-4.4-3.5-8.9-5.2-13.4l3.8-1.4c3.6 9.5 7.9 18.7 11.5 28.1z" transform="translate(-646.3 -9735.7)" fill="#262016"/><path d="M972 9999.5c2 6 2.2 10.8-1.3 16.3a137.6 137.6 0 0 1-8.6 11.7c-2.5 3.1-5.1 6.2-7.8 9.1l-1.2 1.3-6.4 7-.3.3c-2.1 2.3-3.8 4.6-5.7 7s-14.7-6.2-11.1-10.4q7.8-9.1 14.7-18.9t12.7-18.9c1.4-2.3-1.9-4.3-3.5-2.4-5.9-11.6-9.7-24.2-15.5-35.8l-.2-.3a30.1 30.1 0 0 0 6.8-17.3 27.1 27.1 0 0 1 2-7.9c4.9 6.4 7.8 13.8 10.6 21.4 1.7 4.5 3.3 9.1 5.2 13.4 3.5 8 6.8 16 9.6 24.4z" transform="translate(-646.3 -9735.7)" fill="#fff3f6"/><path d="M960.3 9958l.8 2.2-3.8 1.4c-2.8-7.5-5.7-15-10.6-21.4a27.1 27.1 0 0 0-2 7.9 30.1 30.1 0 0 1-6.8 17.3l.2.3c5.8 11.7 9.6 24.2 15.5 35.8 1.6-1.9 4.9.2 3.5 2.4q-6 9.6-12.7 18.9l-3.5-2.5q3.8-5.3 7.4-10.7a214.9 214.9 0 0 0-6-20.8c-2.3-6.8-4.9-13.5-7.7-20.2-5.9 4.7-8.1.8-14.6-.9s-18.5 1.1-23-6.6c-2.5-4.3 1-7.7 3.7-11.2-13.9.5-29.8-.3-43.6-5l1.3-3.9c14.2 4.9 31.1 5.3 44.9 4.6l3.8 1.6c-1.2 2.7-2.9 4.8-4.7 7.5-5.7 8.7 9.3 7.5 13.8 8a27.3 27.3 0 0 1 9.6 2.9c3.1 1.6 5.9.3 8.1-1.9h.1a21.9 21.9 0 0 0 3.9-5.8c2.7-5.6 1.2-11.6 3.4-17.1s7.8-12.8 5.4-18.4c-3-7.1 4.8-12.3 6-19s-2.9-11.5-2.7-17.8c.1-4.7 1.1-9.2 1.8-13.9 1.6-11.4 1.9-22.9 2-34.4s-1-24.6-7.3-35.3a83.5 83.5 0 0 0-12-16.2l2.9-2.8c12.1 12.6 20.5 28.8 20.6 46.6.1 11.5.2 23.2-1 34.6-.5 4.7-1.2 9.3-2 13.9s-1.2 7.8 0 11.8a45.7 45.7 0 0 1 2 6.7 21.5 21.5 0 0 1-1.7 12.2c-2.1 5-5 7.2-4 13.4s-.9 9.2-2.7 13.7c5.5 6.5 8.8 14 11.7 22.1z" transform="translate(-646.3 -9735.7)" fill="#262016"/><path d="M953.6 10043.5a277.8 277.8 0 0 1-5.8 86.4c-2.4 10.6-6.2 20.8-9.1 31.2a121.7 121.7 0 0 0-3.5 16.2 77.7 77.7 0 0 0-.6 10.9c0 5.2 3.3 14.5-3 16.7s-15.6 4-23.1 5a93.3 93.3 0 0 1-18.5.6l-6.5-.6h-.6l-3.6-.5a143.6 143.6 0 0 1-24.5-6.3l-5.2-2-8.5-3.7c-2-.9-6.2-1.8-5.6-4.9a41.7 41.7 0 0 0 1-4.5c.6-8.8-1.7-17.6-3.1-26.3a483.6 483.6 0 0 1-5-115l1.4 1.5c2.3 2.5 4.3 6.7 7.3 8.5a6.3 6.3 0 0 0 4.1.9c6 7.6 15.7 18.4 26.3 20.1a16.8 16.8 0 0 0 6.5-.2c3.5-.8 5.2-3.8 5.6-6.9a12.3 12.3 0 0 0-.1-3.4c-.5-3.1-2.9-5.7-5.6-7.5 1.7-1.3 3.2-3.5 2-5.6s-4.6-3.4-7.7-3.7-4.7.3-7.3-.8a17.9 17.9 0 0 1-4.5-2.9c1.3-4.6-6.6-11.4-8.5-13.7l-1.9-2.4 3.2-2.8c.7 1.1 2.2 1.6 3.1.3 8.6-10.9 22.7-14.2 35.9-14.9s31.8 2 41.1 13.6a1.9 1.9 0 0 0 3.1-.3l2.6 2-1.9 2.5c-3.4 4.3-10.5 9.5-9.7 15.3-3.5 3.1-7.2 4.1-12 4.1-3.1 0-6.2 1-7.9 3.7s.3 4.3 2 5.7a16.6 16.6 0 0 0-5.7 7.5c-1.6 4 1.3 9.4 5.4 10.3 13 3.1 25.6-10.8 32.8-19.8h2.4c2.5-.3 4.4-3.8 5.7-5.6a53.5 53.5 0 0 1 3.5-4.4z" transform="translate(-646.3 -9735.7)" fill="#fff3f6"/><path d="M946.4 9801.8c6.4 10.8 7.4 23.2 7.3 35.3s-.3 23-2 34.4c-.7 4.7-1.7 9.2-1.8 13.9-.1 6.3 3.9 11.3 2.7 17.8s-9 11.9-6 19c2.4 5.6-3.3 13.2-5.4 18.4s-.8 11.5-3.4 17.1a21.9 21.9 0 0 1-3.9 5.8h-.1c-2.2 2.2-5 3.5-8.1 1.9a27.3 27.3 0 0 0-9.6-2.9c-4.5-.4-19.5.7-13.8-8 1.8-2.7 3.5-4.8 4.7-7.5a16.7 16.7 0 0 0 .9-2.9c1-4.7-.9-9.1 1.4-13.7 1.1-2.2 2.3-3.8 2.5-6.3.4-7-1.7-14.4.1-21.2l2.2-1.4c6.2-3.8 10.6-9.6 14.1-15.9 8.3-14.5 9.4-32 9.3-48.4l1 .8c2.1 1.8 5.1-1.2 3-3a60.4 60.4 0 0 0-20.2-11.9c-4.2-1.5-9.6-2.3-14.9-3.6s-11.6-3.6-14.9-7.9a18.1 18.1 0 0 0 3.5-6c.9-2.6-3.2-3.7-4.1-1.1-4 11.4-19.1 10.9-28.5 14.9-7.8 3.3-15.4 8.9-21.7 14.6-1.9 1.7.5 4.3 2.4 3.4-.7 17.7 1.4 34.4 10 50.2a52.4 52.4 0 0 0 16.7 17.8c5.1 10.1-7 14.3-14.4 16.2s-13 4.5-17.9 11l-.2.4c-1.3 1.7-2.6 3.3-3.9 5.1a60.3 60.3 0 0 0-2.4-20.4c-1.6-5.2-3.3-10.2-4-15.7s1.5-12.4 2.9-18.3c2.2-9.7 1.1-19.7.1-29.5a107.8 107.8 0 0 1-.1-22.2 75.3 75.3 0 0 1 1.7-9.7 71.3 71.3 0 0 1 31-43.6c18.8-11.8 43-10.6 62.2-.4a39.7 39.7 0 0 1 9.4 7.3 83.5 83.5 0 0 1 12.2 16.2z" transform="translate(-646.3 -9735.7)" fill="#ffe888"/><path d="M946.7 10044.8l3 2.8a53.5 53.5 0 0 0-3.5 4.4c-1.3 1.8-3.2 5.2-5.7 5.6h-2.4c-7.2 9.1-19.8 22.9-32.8 19.8-4.1-1-7-6.3-5.4-10.3a16.6 16.6 0 0 1 5.7-7.5c-1.7-1.3-3.3-3.5-2-5.7s4.8-3.7 7.9-3.7c4.8 0 8.5-.9 12-4.1-.8-5.8 6.4-11 9.7-15.3l1.9-2.5c2-2.6 4-5.2 5.9-7.9l3.5 2.5q-7 9.7-14.7 18.9c-3.6 4.2 8.2 13.9 11.1 10.4s3.6-4.8 5.7-7zm-12.5 10.8l-1.1-.7c-1.8-1.2-5.4-2.9-7.6-4.9a15.9 15.9 0 0 1-8.5 3.6c-2.5.3-6.3-.4-9 1.4-1.2 1.6.6 2 2.3 1.8h1.5l2-.4c2.7-.7 3.8 3.5 1.1 4.1l-3.2.7a14.8 14.8 0 0 0-5.8 4c-3.3 3.4-3.3 8.6 3.1 8.8 4.4-.2 7.7-2.1 11.1-4.8a90.6 90.6 0 0 0 14.1-13.6z" transform="translate(-646.3 -9735.7)" fill="#262016"/><path d="M948.3 10009.8q-3.6 5.4-7.4 10.7c-1.9 2.7-3.9 5.3-5.9 7.9l-2.6-2a2.3 2.3 0 0 0-.1-2.7c-9.8-12.2-27.4-14.9-42.2-14.9s-31.4 4.1-40.9 16.2a2.3 2.3 0 0 0-.1 2.7l-3.2 2.8c-4.4-5.7-8.6-11.5-12.6-17.5 3.9-18.5 9.9-36.5 19.6-52.8 1.4-2.4-2.3-4.5-3.7-2.2-9.2 15.5-15.2 32.4-19.2 50l-3.9-6.1c-1.5-2.3-5.2-.2-3.7 2.2a335.8 335.8 0 0 0 27.3 37.8c3.9 4.7-5.4 9.3-7.9 11s-5.7-4-7-5.7c-5.5-6.8-12-12.9-17.5-19.7l-2.5-3c-5.4-6.6-10.6-13.6-8.2-22.4s6.4-16.6 10.3-24.5c6.9-14 13.4-28.8 23.2-41.2a57.2 57.2 0 0 0 16.9 8.8c13.8 4.7 29.8 5.6 43.6 5-2.8 3.5-6.2 6.9-3.7 11.2 4.5 7.7 15.9 4.7 23 6.6s8.7 5.6 14.6.9c2.8 6.7 5.4 13.4 7.7 20.2a214.9 214.9 0 0 1 6.1 20.7z" transform="translate(-646.3 -9735.7)" fill="#fff3f6"/><path d="M938.7 10161.1l3.8 1.1a92.3 92.3 0 0 0-3.4 18.3 66.5 66.5 0 0 0 .4 15.1c.3 1.8.9 4.2.5 6.1-.7 3.6-2 5.2-5.3 6.7a53.8 53.8 0 0 1-9.2 3.1c4.7 15.7 2.2 31.5 1.3 47.6-.4 8-.8 16-1.1 24.1h-4c.3-9.7.4-19.4 1.2-29.1 1.1-14 2.5-27.8-1.6-41.5a136.2 136.2 0 0 1-15.3 2.1 105.8 105.8 0 0 1-11.4.3c.4 27.8 8.7 54.4 11.1 81.9.6 7-1.1 13.4-.9 20.3 0 2.1.1 4.2.1 6.3a34.7 34.7 0 0 0 3.8 10.8l-3.5 2.2v1.2c.1 4.8-.6 11.8.2 17.6l-3.8.6c-1.1-7.7-.6-16-.8-23.8s-1-14.3 0-21.3c2.3-17.2-2.9-34.6-5.6-51.5-2.4-14.7-4.6-29.5-4.8-44.5h-.5l.3-4.1a93.3 93.3 0 0 0 18.5-.6c7.5-1 15.9-2.4 23.1-5s3-11.5 3-16.7a77.7 77.7 0 0 1 .6-10.9 121.7 121.7 0 0 1 3.3-16.4zM941.6 9835.1c2.1 1.8-1 4.8-3 3l-1-.8c0 16.4-1 34-9.3 48.4-3.6 6.2-7.9 12.1-14.1 15.9l-2.2 1.4c-1.7 6.9.3 14.2-.1 21.2-.1 2.5-1.4 4.2-2.5 6.3-2.3 4.6-.4 9-1.4 13.7a16.7 16.7 0 0 1-.9 2.9l-3.8-1.6v-.5c1-4.9-.1-9.8 1.3-14.6s3.1-5.3 2.9-9.2-.9-10.1-.5-15.1c-4.5 3.1-9.3 5.9-14.6 6.2a30.8 30.8 0 0 1-10.5-1.4l1.2-3.8c5.1 1.5 10.4 1.5 15.3-1.2 12.9-6.9 24-15.4 29.3-29.6s5.6-28.3 5.5-42.7c-7.6-5.1-16.1-7.6-25.3-10.1l-2.4-.6 1-3.8c5.2 1.3 10.7 2.1 14.9 3.6a60.4 60.4 0 0 1 20.2 12.4zM937.3 9782.8l-2.9 2.8a39.7 39.7 0 0 0-9.4-7.3c-19.2-10.3-43.4-11.5-62.2.4a71.3 71.3 0 0 0-31 43.6l-4-.3a72.4 72.4 0 0 1 15.9-32.4c10.4-12.1 24.6-21 40.7-23.1s37.8 1.6 50.5 13.8z" transform="translate(-646.3 -9735.7)" fill="#262016"/><path d="M934.1 10343.7c1.2 5.1 3.6 13.4 2.2 18.6s-4.8 6.4-8.9 7.8c-12.3 4.3-23.3.7-25.5-13.1l-.2-1.3 3.8-.6a17.8 17.8 0 0 0 2.3 7.1c3.2 5 8.8 6.5 14.3 5.1 3.2-.8 9.4-2.9 10.1-7.3 1.3-8.2-2.5-16-4.6-23.7-1 3.2-2.8 5.8-6.2 7a16.7 16.7 0 0 1-3.4.8v-4.1a5.6 5.6 0 0 0 5.1-3.8c1.9-4.3 1.4-10 .6-14.9a90.6 90.6 0 0 1-2.1-16.8h4a70.2 70.2 0 0 0 1.6 12.2 2.3 2.3 0 0 1 .2.7l.2 1.4c1.7 8.2 4.6 16.4 6.5 24.9z" transform="translate(-646.3 -9735.7)" fill="#262016"/><path d="M933.1 10054.9l1.1.7a90.6 90.6 0 0 1-14.2 13.3c-3.4 2.7-6.6 4.6-11.1 4.8-6.4-.2-6.4-5.4-3.1-8.8a14.8 14.8 0 0 1 5.8-4l3.2-.7c2.7-.7 1.5-4.8-1.1-4.1l-2 .4h-1.5c-1.8.3-3.5-.2-2.3-1.8 2.7-1.8 6.5-1 9-1.4a15.9 15.9 0 0 0 8.5-3.6c2.3 2.2 5.9 3.9 7.7 5.2zM933.3 9834c.1 14.4-.4 29-5.5 42.7s-16.4 22.7-29.3 29.6c-4.9 2.6-10.2 2.7-15.3 1.2-11.6-3.5-22.6-15.2-27.5-24.3-7.9-14.6-9-31.6-8.1-47.9a1.9 1.9 0 0 0-.3-1.2 75.8 75.8 0 0 1 30.1-14.6 31 31 0 0 0 11.1-4.9c4.2 5 10.8 7.1 17 8.8l2.4.6c9.4 2.4 17.8 4.9 25.4 10zm-18.5 11.8c1.4 2.4 5.1.2 3.7-2.2-2.4-4-7.8-6.7-12.4-4.9-2.5 1-1.4 5.1 1.1 4.1s6.1.5 7.6 3zm-14.4 40.6c2.2-1.7-.9-4.7-3-3a13.2 13.2 0 0 1-10 2.7c-2.7-.4-3.9 3.7-1.1 4.1a17.9 17.9 0 0 0 14.1-3.9zm-3.2-14.9c2.2-1.7-.9-4.7-3-3a8.8 8.8 0 0 1-4.9 2.5c-.3-3.7.9-8 1.5-11.4s1.5-7.5 2.2-11.2-3.5-3.8-4.1-1.1c-.9 4.4-1.8 8.7-2.6 13.1s-2 8.9-1.2 12.5c1.4 6.1 9.4.7 12.1-1.5zm-20.4-28.4c2.6.9 3.7-3.2 1.1-4.1a10.1 10.1 0 0 0-12.4 5.2c-1.1 2.5 2.6 4.7 3.7 2.2a5.9 5.9 0 0 1 7.6-3.3z" transform="translate(-646.3 -9735.7)" fill="#ffdec5"/><path d="M932.3 10023.6a2.3 2.3 0 0 1 .1 2.7 1.9 1.9 0 0 1-3.1.3c-9.3-11.6-27.1-14.2-41.1-13.6s-27.4 3.9-35.9 14.9c-1 1.3-2.5.7-3.1-.3a2.3 2.3 0 0 1 .1-2.7c9.5-12.1 26.2-16.2 40.9-16.2s32.3 2.7 42.1 14.9z" transform="translate(-646.3 -9735.7)" fill="#262016"/><path d="M927.4 10336.3c2.2 7.7 5.9 15.6 4.6 23.7-.7 4.4-6.9 6.5-10.1 7.3-5.5 1.5-11.1 0-14.3-5.1a17.8 17.8 0 0 1-2.3-7.1c-.8-5.9 0-12.8-.2-17.6v-1.2c.9 1.6 1.8 3.1 2.9 4.8s6.1 3.5 9.7 3a16.7 16.7 0 0 0 3.4-.8c3.5-1.3 5.4-3.9 6.3-7z" transform="translate(-646.3 -9735.7)" fill="#1e191b"/><path d="M921.7 10283h4c-.1 3.2-.2 6.5-.3 9.7h-4.1c.2-3.2.3-6.4.4-9.7z" transform="translate(-646.3 -9735.7)"/><path d="M925.5 10292.8c-.1 2.9-.2 5.8-.2 8.7v2.8h-4c-.1-3.8-.1-7.7.1-11.8h4.1z" transform="translate(-646.3 -9735.7)"/><path d="M923.4 10321.3c.7 4.9 1.2 10.5-.6 14.9a5.6 5.6 0 0 1-5.1 3.8c-3 .1-6.4-2-8.1-4.4l-.9-1.4a34.7 34.7 0 0 1-3.8-10.8c0-2.1-.1-4.2-.1-6.3-.2-6.9 1.5-13.3.9-20.3-2.4-27.5-10.6-54.1-11.1-81.9a105.8 105.8 0 0 0 11.4-.3 136.2 136.2 0 0 0 15.3-2.1c4.1 13.6 2.7 27.4 1.6 41.5-.8 9.7-.9 19.4-1.2 29.1-.1 3.2-.2 6.5-.3 9.7s-.2 7.9-.1 11.8a90.6 90.6 0 0 0 2.1 16.7z" transform="translate(-646.3 -9735.7)" fill="#ffdec5"/><path d="M918.5 9843.6c1.4 2.4-2.3 4.5-3.7 2.2s-4.8-4-7.6-2.9-3.7-3.1-1.1-4.1c4.5-1.9 10 .8 12.4 4.8zM917.7 10340v4.1c-3.6.5-7.7-.1-9.7-3s-2.1-3.2-2.9-4.8l3.5-2.2.9 1.4c1.8 2.5 5.2 4.6 8.2 4.5z" transform="translate(-646.3 -9735.7)" fill="#262016"/><path d="M907.6 9921.4c.1 3.9-2 5.8-2.9 9.2s-.2 9.7-1.3 14.6v.5c-13.8.7-30.7.3-44.9-4.6a51.6 51.6 0 0 1-15.5-8.2c7.2-7.5 17.6-6.6 26.3-12.1a13 13 0 0 0 6-12.4 42.2 42.2 0 0 0 6.9 2.8 30.8 30.8 0 0 0 10.5 1.4c5.3-.3 10.1-3.1 14.6-6.2-.6 4.9.2 10 .3 15z" transform="translate(-646.3 -9735.7)" fill="#ffdec5"/><path d="M906.6 9819.5l-1 3.8c-6.3-1.7-12.9-3.8-17-8.8a31 31 0 0 1-11.1 4.9 75.8 75.8 0 0 0-30.1 14.6 1.9 1.9 0 0 1 .3 1.2c-.8 16.3.2 33.3 8.1 47.9 4.9 9 15.9 20.8 27.5 24.3l-1.2 3.8a42.2 42.2 0 0 1-6.9-2.8 13 13 0 0 1-6 12.4c-8.7 5.6-19.1 4.6-26.3 12.1a51.6 51.6 0 0 0 15.5 8.2l-1.3 3.9a57.2 57.2 0 0 1-16.9-8.8c-9.8 12.3-16.3 27.1-23.2 41.2-3.9 7.9-7.9 16-10.3 24.5s2.8 15.9 8.2 22.4l-3.3 2.5-2.2-2.9c-2.6-3.6-6.4-7.8-7.5-12.3-1.9-8.5 2.7-17.5 6.1-25.1 6.2-13.8 12.7-28.6 21-41.7.6-8.2 1.3-15.8-1.1-23.9-1.9-6.2-4.6-12.6-4.8-19.1s1.8-12.8 3-19.4c1.7-8.6 1.1-17.1.2-25.7a122.4 122.4 0 0 1 0-25.2l3.9.4a107.8 107.8 0 0 0 .1 22.2c1 9.8 2.1 19.8-.1 29.5-1.3 5.9-3.6 12.2-2.9 18.3s2.4 10.5 4 15.7a60.3 60.3 0 0 1 2.4 20.4c1.3-1.7 2.5-3.4 3.9-5.1l.2-.4c4.9-6.5 10.1-9.1 17.9-11s19.5-6.1 14.4-16.2a52.4 52.4 0 0 1-16.7-17.8c-8.6-15.8-10.7-32.5-10-50.2-2 .9-4.3-1.7-2.4-3.4 6.3-5.7 13.9-11.3 21.7-14.6 9.4-4 24.5-3.5 28.5-14.9.9-2.6 5-1.5 4.1 1.1a18.1 18.1 0 0 1-3.5 6c3.2 4.4 8.9 6.5 14.8 8z" transform="translate(-646.3 -9735.7)" fill="#262016"/><path d="M897.4 9883.3c2.1-1.7 5.2 1.3 3 3a17.9 17.9 0 0 1-14.1 3.8c-2.7-.4-1.6-4.5 1.1-4.1a13.2 13.2 0 0 0 10-2.7zM894.1 9868.4c2.1-1.7 5.2 1.3 3 3s-10.7 7.5-12 1.4c-.8-3.6.6-8.8 1.2-12.5s1.6-8.7 2.6-13.1c.6-2.7 4.7-1.6 4.1 1.1s-1.6 7.5-2.2 11.2-1.8 7.7-1.5 11.4a8.8 8.8 0 0 0 4.8-2.5zM890.1 10210.5l-.3 4.1-4.8-.4a358.7 358.7 0 0 1-4.7 50.9c-1.6 9.3-3.8 18.5-4.9 27.9-.9 7.8.8 15.1.6 22.8s-.4 17.3-.6 26c-.2 6.5.8 15.5-2.8 21.4a16.3 16.3 0 0 1-9.5 7.1l-.9-3.8a7.8 7.8 0 0 0 4.6-2.5c5.7-6.5 4.3-16.9 4.5-24.9v-3a20.4 20.4 0 0 1-3.2 4.3 11.3 11.3 0 0 1-8 2.8v-4.1c6.5 0 10.3-11.4 11.5-16.9 0-1.4.1-2.7.1-4.1.1-5.9-1.4-11.6-1.2-17.5.6-14.2 4.5-28 6.5-42a374 374 0 0 0 3.7-44.8l-2-.3.6-4.1 3.6.5h.6z" transform="translate(-646.3 -9735.7)" fill="#262016"/><path d="M878.7 10213.4l2 .3a374 374 0 0 1-3.7 44.8c-2 14-5.9 27.8-6.5 42-.3 5.9 1.3 11.6 1.2 17.5 0 1.4-.1 2.7-.1 4.1-1.2 5.5-5 16.9-11.5 16.9a8 8 0 0 1-5.1-2.2 6.4 6.4 0 0 1-1.8-2.5c-1.5-3.7-.9-9.4-.2-13.7l.4-1.6c2.5-10.3 2-20.1 1.6-30.6-.5-13.9-.7-27.8-2-41.8s-2.7-26.8.9-39.7a139.5 139.5 0 0 0 24.8 6.5z" transform="translate(-646.3 -9735.7)" fill="#ffdec5"/><path d="M830 10007.9c4-17.5 9.9-34.5 19.2-50 1.4-2.4 5.1-.2 3.7 2.2-9.7 16.3-15.7 34.3-19.6 52.8 4 6 8.2 11.8 12.6 17.5l1.9 2.4c1.9 2.4 9.8 9.1 8.5 13.7a17.9 17.9 0 0 0 4.5 2.9c2.5 1.1 4.7.5 7.3.8s5.9.9 7.7 3.7-.3 4.3-2 5.6c2.7 1.9 5.1 4.4 5.6 7.5a12.3 12.3 0 0 1 .1 3.4l-4-.3c.2-2.3-1.7-5.1-3.3-6.4a15.6 15.6 0 0 0-4.6-2.8l-3.2-.7c-2.7-.7-1.5-4.8 1.1-4.1l2.3.5h1.2c3-.2.9-2.2-.9-2.3a42 42 0 0 1-5.4-.1 18.8 18.8 0 0 1-9.1-4.6 48.5 48.5 0 0 1-8.1 6.2c4.2 4.9 8.8 8.8 13.8 13 2.4 2 5.5 4.2 8.8 4.7l-.6 3.9c-10.6-1.7-20.3-12.5-26.3-20.1a6.3 6.3 0 0 1-4.1-.9c-2.9-1.8-5-6.1-7.3-8.5l-1.4-1.5a483.6 483.6 0 0 0 5 115c1.4 8.7 3.7 17.4 3.1 26.3a41.7 41.7 0 0 1-1 4.5c-.6 3.1 3.7 4.1 5.6 4.9l8.5 3.7-1.5 3.8c-5.4-2.1-10.8-4.6-16.1-7.2a2.2 2.2 0 0 1-1.1-1.9 28.3 28.3 0 0 1 .9-6.5c.9-4.4.4-9.2-.4-13.6s-2-10.7-2.7-16.1c-1.6-12.8-2.9-25.5-3.9-38.3-2-26.3-2.8-52.6-.4-78.9l-5.5-6.2c-2.6-3-5.2-6.1-7.6-9.3l3.3-2.5 2.5 3c5.5 6.8 12 12.9 17.5 19.7 1.4 1.7 4.2 7.6 7 5.7s11.8-6.3 7.9-11a335.8 335.8 0 0 1-27.3-37.8c-1.5-2.4 2.2-4.5 3.7-2.2z" transform="translate(-646.3 -9735.7)" fill="#262016"/><path d="M875.6 10070.2l4 .3c-.4 3.2-2 6.1-5.6 6.9a16.8 16.8 0 0 1-6.5.2l.6-3.9h2.2c3.7-.3 5.1-1.8 5.3-3.5zM879.4 10209.3l-.6 4.1a139.5 139.5 0 0 1-24.8-6.4c-3.6 12.9-2.1 26.5-.9 39.7s1.5 27.8 2 41.8c.4 10.4.8 20.3-1.6 30.6l-.4 1.6c-.7 4.3-1.3 10 .2 13.7l-3.8 1.1-.4-1.1c-1.9 6.5-3.7 13-4.3 19.7s1.4 9.9 7.7 11.5c2.8.7 6.5 1.6 9.7.9l.9 3.8a22.2 22.2 0 0 1-18.2-3.4c-9.4-6.6-2.8-23.5-.1-32.5 4.1-13.8 7-26.6 6.3-41.1s-.7-31-2.2-46.5c-1.3-13.7-2.7-27.8 1.1-41.2l-1.7-.7 1.5-3.8 5.2 2a143.6 143.6 0 0 0 24.4 6.2zM877.9 9839c2.6.9 1.5 5-1.1 4.1a5.9 5.9 0 0 0-7.6 3.2c-1.1 2.5-4.8.3-3.7-2.2a10.1 10.1 0 0 1 12.4-5.1z" transform="translate(-646.3 -9735.7)" fill="#262016"/><path d="M872.2 10063.8c1.6 1.3 3.5 4.1 3.3 6.4s-1.6 3.2-5.2 3.6h-2.2c-3.3-.5-6.4-2.7-8.8-4.7-5-4.2-9.7-8-13.8-13a48.5 48.5 0 0 0 8.1-6.2 18.8 18.8 0 0 0 9.1 4.6 42 42 0 0 0 5.4.1c1.8 0 4 2.1.9 2.3h-1.2l-2.3-.5c-2.7-.7-3.8 3.4-1.1 4.1l3.2.7a15.6 15.6 0 0 1 4.6 2.6z" transform="translate(-646.3 -9735.7)" fill="#ffdec5"/><path d="M871.3 10335.9v3c-.2 8.1 1.1 18.5-4.5 24.9a7.8 7.8 0 0 1-4.6 2.5c-3.2.6-6.9-.2-9.7-.9-6.3-1.6-8.2-5.4-7.7-11.5s2.3-13.2 4.3-19.7l.4 1.1a11.9 11.9 0 0 0 5.3 6.4 12.2 12.2 0 0 0 13.3-1.5 20.4 20.4 0 0 0 3.2-4.3z" transform="translate(-646.3 -9735.7)" fill="#1e191b"/><path d="M860.1 10339v4.1a11.3 11.3 0 0 1-5.3-1.3 11.9 11.9 0 0 1-5.3-6.4l3.8-1.1a6.4 6.4 0 0 0 1.8 2.5 8 8 0 0 0 5 2.2zM827.7 9821.9l4 .3a75.3 75.3 0 0 0-1.7 9.7l-3.9-.4a86.7 86.7 0 0 1 1.6-9.6z" transform="translate(-646.3 -9735.7)" fill="#262016"/></svg>