<svg id="c780ab5b-a72d-4bf7-be0c-b3fb74873990" data-name="圖層 1" xmlns="http://www.w3.org/2000/svg" viewBox="0 0 256.3 211"><title>scene1-jim</title><path d="M467.8 159c5.3 16.2 2.8 30-6.5 42.5 3.2 1.2 5.1 5.7 5 8.9-.3 4.8-2.6 8.6-6.4 11.5-2.2 1.7-4.6 3.6-7.3 3.1q-1.9 10.5-4.4 21c-2.5 10.7-5.6 21.6-12 30.7a56.5 56.5 0 0 1-54.5 23.1c-39.2-5.7-53-39.3-59-73.6a12 12 0 0 1-5.9-2.4 15.8 15.8 0 0 1-6.3-10.4c-.9-5.4 2.6-11.2 7.2-12.1-7-17.8-6.7-37.7 3.6-54.5a68.9 68.9 0 0 1 43.7-31.7c19.9-4.5 39.3-3.8 57.7 5.6 7 3.5 13.8 8.6 18.3 14.9 12.9-1.8 23.2 12.5 26.8 23.4zm-12.4 41.6c8.9-10.6 13-23 8.3-37.3-2.6-7.9-9.7-22.8-19.9-22.9a24.2 24.2 0 0 1 1.3 16.4c-.9 3.3-5.9 1.9-5.1-1.4 4.8-18.2-15.3-29.7-29.7-34.3a77.9 77.9 0 0 0-46.5-.4c-34 10-54.4 44.3-41.7 77.7 8.1-12.9 25.8-17.4 40-19.2 11.9-1.5 23.7-3.5 35.6-4.8s26-3 36-12.1c2.5-2.3 6.2 1.4 3.7 3.7l-2.7 2.3c8.7 8 18.3 20.1 20.6 32.3zm4.9 13c.9-2 1.2-4.6-.1-6.5s-3.7.6-4.4 1.8l-.5.7q-.8 5-1.7 10.1c1.5.7 6.1-5 6.6-6.1zm-11.5 3.9q1-6.3 1.9-12.4c-.5-12.7-11.5-25.9-20.4-33.9-13.5 7.7-29.8 7.4-45.3 10.1-18.4 3.2-51.4 1.6-60 22.9.7 6.7 1.5 13.8 2.7 20.9 11.8-7.9 27.2-.5 27.9 14.4.6 11.4-5.8 21.9-17.2 22.2 8 16.6 20.9 29.5 42.1 32.6 24 3.5 47-7.5 56.6-30.2 1.2-2.9 2.3-5.8 3.3-8.9-11.1-.9-19.1-12.5-17.3-23.5s14.5-21.2 25.6-14.2zm-.9 5.7l-.3-.2c-8.6-6.6-19.8 1-19.3 11.3.3 8.2 5.4 15.8 13.8 15.8a233.9 233.9 0 0 0 5.7-26.8zM350.4 243c0-3.7-.1-7.9-2.4-11-4.7-6.1-12.9-6.5-18.6-1.6l-.7.4a138.4 138.4 0 0 0 7.3 25.6c8.1 1.2 14.4-5.5 14.4-13.4zm-28.6-21.9c-.7-4.8-1.3-9.6-1.8-14.3-2.3-1.8-4.4 1.8-4.5 3.7a9.8 9.8 0 0 0 .9 4.8c.3.7 3.7 5.2 5.4 5.8z" transform="translate(-259.2 -112.4)" fill="#262016"/><path d="M463.7 163.3c4.6 14.2.5 26.6-8.3 37.3-2.3-12.2-11.9-24.3-20.6-32.3l2.7-2.3c2.5-2.3-1.2-6-3.7-3.7-10 9-23.1 10.7-36 12.1s-23.7 3.3-35.6 4.8c-14.2 1.8-31.9 6.3-40 19.2-12.7-33.4 7.7-67.7 41.7-77.7a77.9 77.9 0 0 1 46.5.4c14.3 4.6 34.5 16.1 29.7 34.3-.9 3.3 4.2 4.7 5.1 1.4a24.2 24.2 0 0 0-1.3-16.4c10.1.2 17.2 15 19.8 22.9z" transform="translate(-259.2 -112.4)" fill="#3f261d"/><path d="M460 207.1c1.4 1.9 1.1 4.5.1 6.5s-5.1 6.8-6.7 6.1q.9-5 1.7-10.1l.5-.7c.7-1.2 2.6-4.2 4.4-1.8zM450.6 205.1q-.9 6.1-1.9 12.4c-11.1-7-23.6 2.2-25.6 14.2s6.2 22.7 17.3 23.5c-1 3-2.1 6-3.3 8.9-9.6 22.7-32.7 33.6-56.6 30.2-21.2-3.1-34.1-16-42.1-32.6 11.4-.3 17.8-10.8 17.2-22.2-.8-14.9-16.1-22.3-27.9-14.4-1.2-7.1-2.1-14.2-2.7-20.9 8.6-21.3 41.6-19.7 60-22.9 15.5-2.7 31.7-2.4 45.3-10.1 8.8 8 19.8 21.3 20.3 33.9zm-35.9 4.9c4.2 0 4.2-5.2 0-5.2s-3.1 5.2 0 5.2zm-.1 30c1.3-3.1-3.8-4.5-5.1-1.4-1.9 4.8-12 6.6-16.6 7.8-2.5.6-21.2 3.7-22.5-.1s-6.2-1.8-5.1 1.4c2.7 7.6 16.6 5.5 22.7 4.8 8.3-.8 23.1-3.9 26.6-12.5zm-18.1-10.1c2.7-2 .1-6.6-2.6-4.5a39.4 39.4 0 0 1-5.1 3.3 8.6 8.6 0 0 1-3.4.9c-1.7.1-.4-1.5 0-2.2 2-3.7 4.8-6.3 4.8-10.8s-5.3-3.4-5.2 0c0 5.2-9.6 11.3-4.2 16.6s11.9-.4 15.7-3.3zm-22.9-18.2c3.2 0 3.2-5.2 0-5.2s-4.3 5.2 0 5.2z" transform="translate(-259.2 -112.4)" fill="#ffc9a4"/><path d="M447.5 223.1l.3.2a233.9 233.9 0 0 1-5.8 26.8c-8.5 0-13.5-7.5-13.8-15.8-.5-10.3 10.7-17.9 19.3-11.2z" transform="translate(-259.2 -112.4)" fill="#dd553a"/><path d="M414.7 204.7c4.2 0 4.2 5.2 0 5.2s-3.1-5.2 0-5.2zM409.5 238.6c1.2-3.1 6.3-1.7 5.1 1.4-3.5 8.6-18.3 11.7-26.5 12.5-6.1.6-20 2.8-22.7-4.8-1.1-3.2 3.9-4.6 5.1-1.4s20 .7 22.5.1c4.5-1.2 14.6-2.9 16.5-7.8zM393.8 225.4c2.7-2 5.3 2.5 2.6 4.5s-11.3 7.8-15.8 3.4 4.3-11.3 4.2-16.6c0-3.4 5.2-3.4 5.2 0s-2.8 7.1-4.8 10.8c-.4.7-1.7 2.3 0 2.2a8.6 8.6 0 0 0 3.4-.9 39.4 39.4 0 0 0 5.2-3.4zM373.6 206.5c3.2 0 3.2 5.2 0 5.2s-4.3-5.2 0-5.2z" transform="translate(-259.2 -112.4)" fill="#262016"/><path d="M348 232c2.3 3.1 2.4 7.3 2.4 11 0 7.9-6.3 14.6-14.4 13.4a138.4 138.4 0 0 1-7.3-25.6l.7-.4c5.7-4.9 13.9-4.5 18.6 1.6z" transform="translate(-259.2 -112.4)" fill="#dd553a"/><path d="M319.9 206.8c.5 4.7 1.1 9.5 1.8 14.3-1.6-.6-5.1-5.1-5.5-5.8a9.8 9.8 0 0 1-.9-4.8c.2-1.9 2.3-5.5 4.6-3.7z" transform="translate(-259.2 -112.4)" fill="#ffc9a4"/><path d="M428.7 312.8a2.6 2.6 0 0 1-1.8 3.1l-2.6.6-.5-2.4 1.8-3.2 2.1-.9a13.4 13.4 0 0 1 1 2.8z" transform="translate(-259.2 -112.4)" fill="#262016"/><path d="M427.7 310.1l-2.1.9-3 .7c-3.6-4.7-12.7-4.3-17.5-5l-15.3-2c-.2-1.7-.5-3.5-.7-5.2 9 1.2 18.2 1.9 27.2 3.6 4.9.8 9.2 2.7 11.4 7zM425.6 311l-1.8 3.2a6.9 6.9 0 0 0-1.2-2.5z" transform="translate(-259.2 -112.4)" fill="#262016"/><path d="M423.8 314.1l.5 2.4a118.5 118.5 0 0 1-33.8 2.1 2.3 2.3 0 0 0 .4-1.5c-.1-1.2-.1-2.4-.3-3.7a114 114 0 0 0 32-1.9 6.9 6.9 0 0 1 1.2 2.6z" transform="translate(-259.2 -112.4)" fill="#262016"/><path d="M405 306.7c4.8.6 14 .3 17.5 5a114 114 0 0 1-32 1.9c-.2-3-.5-5.9-.9-8.8z" transform="translate(-259.2 -112.4)" fill="#ffc9a4"/><path d="M390.8 317.2a2.3 2.3 0 0 1-.4 1.5h-.2c1-1.6.4-4.2-2-4h-1.1a2.1 2.1 0 0 1 2.2-1.3h1.2c.1 1.3.2 2.6.3 3.8z" transform="translate(-259.2 -112.4)" fill="#262016"/><path d="M390.5 313.5h-1.2a2.1 2.1 0 0 0-2.2 1.3h-1.6c-.3-4.6-.8-9.1-1.5-13.6h1.8a2.9 2.9 0 0 0 2.4 3.2l1.4.2c.4 3 .7 6 .9 8.9zM390.2 318.6h.2a2.2 2.2 0 0 1-1.4.9 2.5 2.5 0 0 0 1.2-.9z" transform="translate(-259.2 -112.4)" fill="#262016"/><path d="M388.2 314.6c2.4-.2 3 2.4 2 4h-.9a2.8 2.8 0 0 1-2.2-3.9h1.1z" transform="translate(-259.2 -112.4)" fill="#262016"/><path d="M389.4 318.6h.9a2.5 2.5 0 0 1-1.2 1h-.1a2.7 2.7 0 0 1-3.3-2.4c0-.8-.1-1.6-.1-2.4h1.6a2.8 2.8 0 0 0 2.2 3.8zM389.6 304.7l-1.4-.2a2.9 2.9 0 0 1-2.4-3.2h.4l-.3-.3a2 2 0 0 1 2.4-1.7h.6c.3 1.9.5 3.6.7 5.4z" transform="translate(-259.2 -112.4)" fill="#262016"/><path d="M388.9 299.5h-.6a2 2 0 0 0-2.4 1.7l-2.1-1.6.3 1.7c-21.4-1.8-42.3-6.8-63.6-9-14.5-1.5-56.4-6.6-56.2 17 .1 12.3 16.2 8.2 24.6 8.3 10.7.1 21.3.2 32 0q32.4-.5 64.8-2.6c.1.8.1 1.6.1 2.4a2.7 2.7 0 0 0 3.3 2.4l-.8.2c-30.1 2.1-60.2 3.1-90.4 2.9-6.2-.1-12.5-.5-18.7-.1-4.3.3-8.6.7-12.8-.6-6.1-2-7.6-9.2-7-14.7 2-21.2 29.5-21.9 45.5-21.3 27.4 1 54.1 8.3 81.4 10.3a2.6 2.6 0 0 1 2.5 1.9z" transform="translate(-259.2 -112.4)" fill="#262016"/><path d="M386.2 301.3h-.4v-.2zM383.7 299.4l2.1 1.6v.2H384z" transform="translate(-259.2 -112.4)" fill="#262016"/><path d="M384 301.1c.7 4.5 1.2 9.1 1.5 13.6q-32.3 2.2-64.8 2.6c-10.7.2-21.3.1-32 0-8.4-.1-24.4 4-24.6-8.3-.3-23.6 41.7-18.5 56.2-17 21.4 2.3 42.3 7.4 63.7 9.1z" transform="translate(-259.2 -112.4)" fill="#54618c"/><path d="M473 286.2c15.6.1 42.8 1.6 42.5 23.3-.1 7.1-3.4 12.6-10.7 13.6-4.3.6-8.6-.4-12.9-.3l-18.1.2q-43.7.1-87.4-2.9l-.8-.2a2.7 2.7 0 0 0 3.3-2.4c0-.8.1-1.6.2-2.4 22.7 1.5 45.4 2.5 68.1 2.7 11.5.1 23.1-.4 34.6-.2 3.4.1 6.8.6 10.2.5 6.8-.3 9.7-5.5 7.9-11.8-6-21-42.5-15.6-58.8-13.5-20.2 2.6-40.2 7-60.5 8.7l.3-1.7-2.1 1.6a2 2 0 0 0-2.4-1.7h-.6l.2-1.4a2.6 2.6 0 0 1 2.5-1.9c28.2-1.8 56-10.3 84.5-10.2z" transform="translate(-259.2 -112.4)" fill="#262016"/><path d="M509.9 306.4c1.8 6.2-1.1 11.5-7.9 11.8-3.4.1-6.8-.4-10.2-.5-11.5-.2-23.1.3-34.6.2-22.7-.2-45.5-1.1-68.1-2.7q.5-6.9 1.5-13.7c20.3-1.7 40.3-6.1 60.5-8.7 16.3-2 52.8-7.3 58.8 13.6z" transform="translate(-259.2 -112.4)" fill="#54618c"/><path d="M390.9 299.8l-.3 1.7h-1.8v-.2zM388.8 301.7h1.8q-1 6.8-1.5 13.7h-1.6a2.1 2.1 0 0 0-2.2-1.3h-1.2c.2-3 .5-5.9.9-8.8l1.4-.2a2.9 2.9 0 0 0 2.4-3.4z" transform="translate(-259.2 -112.4)" fill="#262016"/><path d="M387.5 315.1h1.6c-.1.8-.1 1.6-.2 2.4a2.7 2.7 0 0 1-3.3 2.4h-.1a2.4 2.4 0 0 1-1.2-1h.9a2.8 2.8 0 0 0 2.3-3.8zM388.8 301.7a2.9 2.9 0 0 1-2.4 3.2l-1.4.2c.2-1.7.5-3.5.7-5.2h.6a2 2 0 0 1 2.4 1.7l-.3.3h.4z" transform="translate(-259.2 -112.4)" fill="#262016"/><path d="M388.8 301.7h-.4l.3-.3v.2zM387.5 315.1a2.8 2.8 0 0 1-2.2 3.9h-.9c-1-1.6-.4-4.2 2-4h1.1z" transform="translate(-259.2 -112.4)" fill="#262016"/><path d="M387.5 315.1h-1.1c-2.4-.2-3 2.4-2 4h-.2a2.3 2.3 0 0 1-.4-1.5c.1-1.2.1-2.4.3-3.7h1.2a2.1 2.1 0 0 1 2.2 1.2zM385.7 299.9c-.3 1.7-.5 3.5-.7 5.2l-15.3 2c-4.8.6-14 .3-17.5 5l-3-.7-2.4-.3c2.1-4.6 6.6-6.9 11.9-7.6z" transform="translate(-259.2 -112.4)" fill="#262016"/><path d="M369.6 307.1l15.3-2c-.4 2.9-.7 5.9-.9 8.8a114 114 0 0 1-32-1.9c3.7-4.7 12.8-4.3 17.6-4.9z" transform="translate(-259.2 -112.4)" fill="#ffc9a4"/><path d="M384.4 319a2.4 2.4 0 0 0 1.2 1 2.2 2.2 0 0 1-1.4-.9h.2zM384.1 313.9c-.1 1.2-.2 2.4-.3 3.7a2.3 2.3 0 0 0 .4 1.5 118.5 118.5 0 0 1-33.8-2.1l.5-2.4a6.9 6.9 0 0 1 1.2-2.5 114 114 0 0 0 32 1.8z" transform="translate(-259.2 -112.4)" fill="#262016"/><path d="M352.1 312a6.9 6.9 0 0 0-1.2 2.5l-1.8-3.2zM349.1 311.4l1.8 3.2-.5 2.4-2.6-.6a2.6 2.6 0 0 1-1.8-3.1 12.6 12.6 0 0 1 .8-2.1z" transform="translate(-259.2 -112.4)" fill="#262016"/></svg>