<svg id="圖層_1" xmlns="http://www.w3.org/2000/svg" width="1200" height="900" viewBox="0 0 1200 900"><title>layer_agriculture</title><path fill="#A975FF" d="M749.58 282.822c-2.015.134-4.164.269-4.701-2.284-.538-2.552-1.075-5.374.27-7.657 1.343-2.284 1.745-.537 2.687.672s-.537 4.164 1.612 5.373v4.03l.132-.134zM747.565 152.788c.536 2.821 2.015 5.642 0 8.866-2.821-2.955-2.419-5.911-.94-8.866h1.074-.134zM617.128 575.4c-1.479-1.075.806-3.896-1.881-4.435a5.51 5.51 0 0 0-5.644 2.553 19.348 19.348 0 0 1-11.015 9.136c-1.881.672-2.956 3.492-4.434 5.104a55.449 55.449 0 0 0-12.627 19.21 42.182 42.182 0 0 0-.94 25.523 9.135 9.135 0 0 1-1.209 7.388 18.811 18.811 0 0 0-3.09 11.284c.672 8.866-1.479 17.464-2.149 26.329-.269 3.896-4.028 6.046-4.164 10.344-.135 4.299-2.283 10.344-2.418 15.718a10.188 10.188 0 0 1-1.881 4.164c-3.357 3.358-4.836 8.463-9.672 11.284a78.378 78.378 0 0 0 2.955-13.971c.135-2.553 2.418-2.149 4.03-2.688 1.611-.538 2.283 1.746 2.687-.402a1.882 1.882 0 0 0-1.881-1.882c-4.029-.134-2.82-2.015-2.148-4.566 2.283-10.075 6.717-19.612 7.792-29.956a78.432 78.432 0 0 0-.136-20.284c-.537-3.358.808-6.985 1.209-10.344a51.855 51.855 0 0 0-1.746-17.866c-2.283-9.135-1.209-18.136.673-27.27 2.955 1.61-2.284 6.446 3.09 6.851 1.074-4.567 3.492-9.403.938-14.644-1.073.537 0 2.149-.806 2.821-3.358-3.09-3.224-6.717-1.746-10.612 1.479-3.895 5.104-1.073 7.522-2.418 2.418-1.344 2.82 1.479 2.553 3.492-.271 2.017-1.209 2.017.401 2.418 1.612.403 1.479-.938 2.284-1.478a3.492 3.492 0 0 0 1.479-2.955c-.27-6.582 3.224-10.209 9.269-12.358a12.215 12.215 0 0 0 5.911-5.643c1.881-3.627 4.164-2.82 6.717-1.746 2.552 1.075 2.552.806 3.627-.403 1.074-1.209-.135-2.282-1.209-3.089-1.075-.807.94-1.747 1.209-2.688 3.358 1.611 3.358-1.611 3.896-3.225.538-1.612-1.344-2.418-2.553-3.357-1.209-.94-3.762-2.283-3.358-3.896.403-1.611 2.956-1.209 4.434-1.746 1.479-.537 3.225-2.553 4.836-3.896-.672-.672-.402-2.149-1.611-2.284-1.209-.134-2.149-1.881-1.746.403.403 2.283-.135 2.148-1.074 2.015a2.96 2.96 0 0 1-2.688-2.418c-.27-1.881 1.209-.939 1.881-1.209 2.82-1.209 4.566-2.687 3.627-6.312-.94-3.626-.134-5.239-.134-9 4.299 6.045 5.373 12.896 11.82 18.135-2.687-7.389-.672-13.837-2.553-20.017-.269-.939-1.612-2.553.403-3.357 2.015-.808 1.074 1.612 1.746 2.015 4.971 3.493 9.807 7.254 15.984 8.194 6.181.939 6.985-3.224 5.374-7.657a3.245 3.245 0 0 1-.27-1.343c.27-2.688 10.479-10.344 14.643-10.075-9.806 4.03-10.075 12.09-10.881 20.15-.403 4.836-1.881 9.537-6.851 11.82-4.972 2.283-5.239 8.194-7.523 12.358-.806 1.344-.402 4.03-3.357 3.358 0 0-1.344-.136-.537.672 4.836 4.7-1.074 8.463-1.074 12.762 0 4.298 1.746 6.179 4.299 5.642 2.552-.536 6.447.537 7.254 2.284 1.881 4.164 5.104 3.089 8.061 3.896a39.352 39.352 0 0 1 10.21 5.104c1.61 1.074 1.343 2.688-.672 3.492a12.091 12.091 0 0 1-3.763 1.209c-9.806 0-19.611 1.075-29.283-1.88-1.612-.403-.673-.403-.538-1.479.672-3.491-3.492-4.298-4.837-6.851-1.343-2.553-3.761-.135-5.642.269-1.88.405.136 3.094-1.073 4.303zM610.545 502.323c5.508-1.881 6.583-.403 5.776 8.06-1.612-.939-3.492-1.611-4.567-2.955-1.074-1.344-2.418-1.075-3.627 0-1.209 1.074-7.388 1.611-8.06-1.611-.673-3.224-2.419-3.358-4.165-4.701-1.746-1.344-3.492-1.209-2.82-4.165.672-2.955 1.478-4.701 4.029-4.567 6.18.27 6.852-3.896 7.522-8.328.134-1.344 0-2.553 1.074-3.762 1.075-1.209 1.344-3.09-1.343-3.627-2.688-.537-3.09-.269-2.284-2.418s1.478-5.104 3.357-6.985 1.746.537 2.821.807c-2.148 3.628 2.82 6.717.807 10.075-3.896 6.447-2.553 12.492 1.074 18.135a6.982 6.982 0 0 1 .807 5.775.808.808 0 0 1-.672.538c.269.402.269.27.402-.269.136-.54-.4.669-.131-.002zM733.058 239.164l5.643.671c-2.821.672-.403 4.299-4.03 3.224 0 .806-.537 2.015-.134 2.418 3.761 3.493-.135 7.522.939 11.284a5.78 5.78 0 0 1-1.209 5.239c-.402-2.956-4.165-1.612-4.971-4.03s-1.746-3.493-1.612-5.105a82.508 82.508 0 0 0-.134-14.777c2.016-1.209 2.283 2.149 3.492.94s.269-2.688-.269-4.164c-3.627-11.016-3.358-11.553 6.045-19.344a2.15 2.15 0 0 1 .672 2.552c-5.104 2.015-3.09 5.911-2.283 9.135.806 3.225-2.284 7.793-2.149 11.957zM738.162 272.076c4.164 7.791 2.418 15.583-.672 23.105-1.074 2.821-3.225 4.971-2.149 8.463 1.075 3.493-4.971 6.717-7.657 5.911s-2.819-1.344-1.881-3.626a57.821 57.821 0 0 1 7.12-13.03c.94-1.343 2.016-2.552 1.344-4.03-2.688-5.239.27-8.866 3.492-12.225 3.223-3.359-1.209-2.688.403-4.568zM637.412 463.098c.806 2.955-.672 3.627-2.284 4.3-5.642 2.282-7.521 6.984-7.388 12.627a18.564 18.564 0 0 1-2.821 10.747c-1.881 3.089-1.478 7.254-1.344 11.418a5.643 5.643 0 0 1-2.955-5.776c.537-5.239-1.746-11.149 3.493-15.313.537-.402.671-1.344-.136-1.611-4.299-1.209-2.015-3.763-1.611-6.181.402-2.418.807-3.761 4.434-4.028 3.627-.273 6.985-3.9 10.612-6.183zM648.83 428.171c-.537 1.343 1.209 3.896-2.283 4.164-.807 0-.807.537.27 2.016 3.896 5.508 1.881 12.627-4.435 14.104-3.089.806-2.955-2.149-2.418-4.03a78.728 78.728 0 0 1 3.762-9.537 8.323 8.323 0 0 0 0-8.061 2.948 2.948 0 0 1-.402-.94c-.27-2.015-1.209-4.164.672-6.045 1.881-1.88 1.478-.537 2.418 0 .939.538 2.687 3.226 2.015 5.374-.673 2.149.133 1.88.401 2.955zM658.905 286.852v2.015c0 .671.269 3.358-1.209 3.358-1.479 0-3.09-1.612-4.702-2.284a1.612 1.612 0 0 1-.804-2.821c2.148-3.089.536-4.97-1.612-7.12-2.149-2.15-3.089-4.164.939-5.239.673-.134 1.747-.134 1.882-.403 1.209-2.553 3.492-2.149 4.971-1.075 1.478 1.074.537 3.358-.538 4.433-1.074 1.075 1.209 5.508-2.418 6.583.538 1.746 2.821 1.075 3.627 2.687h-.134l-.002-.134zM701.354 337.228c-2.687-8.464 1.209-14.238 10.345-15.985.536 7.924-7.389 10.208-10.345 15.985zM697.324 318.151a3.09 3.09 0 0 1 4.029 1.074c.807 1.345-.402 2.554-1.478 3.628l-1.074 1.073c-2.016 2.017-4.299 3.763-7.12 3.763-2.82 0-.939-2.149-.672-3.763.674-3.894 1.345-7.117 6.315-5.775zM657.428 386.931c4.164 5.643-1.478 11.284.672 17.194-6.717-4.299-6.717-11.553-.672-17.194zM718.28 328.898c-6.447 2.954-9.403 9.537-15.313 12.225 3.225-4.164 6.447-8.194 9.403-12.493 2.955-4.299 3.627-1.478 5.91.268z"/><path fill="#A975FF" d="M659.039 286.852c0-3.627-1.611-7.388 1.209-10.747.538-.672.939-1.478 2.016-1.209 1.074.269.807 1.343.807 2.015a29.52 29.52 0 0 1-.135 6.448c-.402 1.881-3.492 1.075-3.896 3.358h.135l-.136.135zM675.966 593.132a15.71 15.71 0 0 0 12.627-.134c2.418-1.075 4.702-.807 7.522.672a73.086 73.086 0 0 1-15.313 2.418c-2.418.134-3.627-1.209-4.702-3.09h-.134v.134zM744.207 171.594c-3.225-5.239-5.104-10.612-.403-16.523-1.343 5.777 2.418 11.015.403 16.523zM738.431 196.177c.537 3.761.403 7.388-3.896 11.015.269-4.836-.807-8.866 3.896-10.881h-.135l.135-.134zM745.55 185.027c-.134 1.612.271 3.358-1.478 3.358-1.746 0-3.492-.403-2.553-2.687.94-2.284-.672-5.374 2.149-5.374 2.822.002.539 3.494 1.882 4.703zM651.248 323.525c-.94-2.149-1.074-4.567-3.09-6.313a2.418 2.418 0 0 1 .941-3.76c1.345-.403 1.479 1.074 1.747 2.283.268 1.207 3.627 5.104.402 7.79zM589.188 554.444c-2.149 1.073-3.628.672-3.763-2.016-.134-2.688 1.746-1.611 2.821-1.611 1.074 0 3.357-.673 2.955 1.745-.403 2.418.269 3.225-2.013 1.882zM739.64 234.597c.537 3.627 1.882 7.12-.939 11.821.133-4.836-1.346-8.463.939-11.821zM659.039 377.93c0-2.147-1.074-4.97 2.553-5.373.94-.134 2.418-.269 2.284 1.075a4.702 4.702 0 0 1-4.837 4.298zM616.456 465.649a11.009 11.009 0 0 0-3.896 6.447c-1.209-2.282-1.611-4.7-.402-6.851s2.686.002 4.298.404z"/><path fill="#A975FF" d="M675.966 593.132c-2.956-3.224-4.971-7.119-7.792-10.344 3.493 2.821 7.792 4.971 7.792 10.479h.134l-.134-.135zM543.646 760.78l-4.836 10.344c.002-4.164 1.881-7.522 4.836-10.344zM606.112 527.98c1.343 2.148 2.015 4.163.806 6.581-3.897-1.745-2.955-4.028-.806-6.581zM670.189 484.726c-.403-4.701 1.343-7.255 4.566-9.001l-4.566 9.001zM603.56 525.025l.27-6.313c2.149 2.418 2.149 2.686-.27 6.313zM677.712 465.919c.672 3.089 0 4.836-2.015 6.582-.94-2.821 1.074-4.03 2.015-6.582zM655.412 421.051c-.939-2.955-.134-5.373 1.209-8.328.672 3.492-1.343 5.91-1.209 8.328zM684.294 341.929c0-2.282-1.209-4.701.94-6.18a.94.94 0 0 1 .939 1.612c-1.341 1.209-.535 3.09-1.879 4.568zM689.265 460.276c.624.193.98.849.807 1.478 0 .672-.402 1.344-1.074 1.075a1.213 1.213 0 0 1-.807-1.479.94.94 0 0 1 1.074-1.074zM601.545 536.041a6.587 6.587 0 0 1 1.746-1.344.808.808 0 0 1 1.075 1.074 2.156 2.156 0 0 1-1.209 1.344 3.902 3.902 0 0 1-1.612-1.074zM738.564 196.177l1.344-5.239c.939 2.552.806 4.299-1.479 5.105h.135v.134zM643.054 461.217l-3.224 3.09c.134-2.418.941-3.09 3.224-3.09zM584.888 543.025a2.017 2.017 0 0 1-3.225-.807c1.612-1.476 1.881 1.344 3.225.807zM649.636 456.784c1.21-.672 1.075.134 1.075.537a1.075 1.075 0 0 1-.672 1.612 1.34 1.34 0 0 1-.94-.672 5.519 5.519 0 0 1 .537-1.477zM679.055 362.75c-.134.807-.134 1.612-1.073 1.479a1.35 1.35 0 0 1-.807-.939 7.952 7.952 0 0 1 1.209-1.479l.671.939zM571.589 599.715a6.987 6.987 0 0 1 0 5.776v-5.776zM610.545 502.323c.135 1.61-.402 2.819-2.283 2.819a1.476 1.476 0 0 1-.672-1.073c0-2.284 2.418-.403 2.955-1.746h-.134.134zM730.64 249.911v-4.702h.537l.807 4.702h-1.344z"/></svg>