<svg id="圖層_1" xmlns="http://www.w3.org/2000/svg" width="1200" height="900" viewBox="0 0 1200 900"><title>layer_specific_agriculture</title><path fill="none" d="M497.705 781.468H482.66c-1.747 0-2.418-.27-2.016-2.016.078-.85.078-1.703 0-2.552 0-212.784-.046-425.568-.135-638.354 0-3.896.4-4.97 4.835-4.97H749.58c.537 2.552-1.612 3.493-3.09 4.702a20.687 20.687 0 0 0-7.254 11.687 22.03 22.03 0 0 1-7.927 12.896c-3.897 3.225-7.927 7.39-7.927 13.435a6.047 6.047 0 0 1-2.283 4.836c-4.702 3.494-4.97 8.464-4.434 13.568.27 2.284.538 4.433-1.48 6.045-2.014 1.612-1.072 1.88-.133 2.956 4.164 4.7 1.746 10.61 2.688 15.985a1.88 1.88 0 0 1-2.148 2.15c-1.478 0-2.82-.94-2.687-2.42s-1.746-3.492-4.03-3.626c-2.283-.135-4.3.67-5.104 3.09a13.807 13.807 0 0 0-1.072 5.373c.536 7.79-3.358 14.24-6.314 20.82-2.955 6.584-3.627 10.882-9 14.24-1.074.672-.672 2.15-.672 3.36-.27 5.507-3.09 10.208-5.238 15.044a4.428 4.428 0 0 1-2.418 2.418c-4.566 1.612-8.73 3.224-11.553 7.926-1.344 2.285-4.97 1.21-6.985-.94.67 2.957.807 6.046-2.956 7.12-3.76 1.076-6.582-3.088-7.52-7.253-1.882 7.12-1.747 7.523 5.642 9 3.09.67 4.566 2.15 4.03 5.104-.538 2.957-2.82 3.897-5.777 3.225-2.955-.672-3.09-1.612-4.164.134-1.073 1.746-.135 3.626.807 5.238 2.553 4.434 4.434 9 2.148 14.238-.806 1.747.808 2.284 1.747 3.09.94.808 2.283 3.493-.94 3.763a4.835 4.835 0 0 0-4.835 4.163c-.672 2.82 1.343 3.762 3.09 5.104 4.97 3.358 4.7 5.776-.538 8.463-1.746.94-3.627 2.284-5.643 2.15-6.313-.538-10.075 3.356-13.838 7.253-1.343 1.344-3.357 1.612-4.433 3.225-1.076 1.61 2.148 2.016 3.49 2.283a8.2 8.2 0 0 1 5.51 3.897c1.343 2.688 4.298 2.956 6.716 4.165s2.15-1.075 2.553-2.017a85.91 85.91 0 0 1 5.775-12.224c2.283-3.492 4.3-7.253 7.522-10.074 3.223-2.82 4.97-6.448 2.955-11.016.807-1.21 2.283-.537 3.492-1.21a3.223 3.223 0 0 0-3.357.94c-2.418-.806-2.82-2.687-2.017-4.836.808-2.148 2.554-2.553 4.567-2.418 5.105.403 9.538 2.955 13.702 5.91-2.016-1.746-1.48-5.373-4.97-6.18-1.076-.27-.673-2.283.268-3.09 4.03-3.224 6.852-9.537 13.836-5.91a1.62 1.62 0 0 0 1.48 0c7.388-4.164 16.12-4.3 23.642-8.06 1.612-.807 3.896-1.075 3.896-3.358 0-2.284-2.283-2.284-3.896-2.956-1.61-.672-2.687-4.567-1.074-6.448.348-.345.758-.62 1.21-.806 2.82-1.343 5.238-4.164 4.03-6.448-1.21-2.284-4.972-1.21-7.523.134-.416.21-.896.257-1.345.134-.807-.27-1.61-1.88-2.553-.672-5.776 7.39-12.896 3.896-19.612 2.418a2.418 2.418 0 0 1-1.88-3.09c.27-1.478.806-2.956 2.687-3.224a6.16 6.16 0 0 1 1.746.672l-1.21-.806a2.285 2.285 0 0 1-1.478-3.224 3.36 3.36 0 0 1 3.627-2.15c1.998.257 3.975.66 5.91 1.21 6.18 1.21 10.345-1.21 11.956-7.388.403-1.478-.134-4.03 2.15-3.896 2.282.134 1.343 2.955 2.015 4.165 2.283-5.776 6.985-10.21 9.94-15.852.806-1.477 1.745.27 3.09-.402 3.49-1.88 3.09-3.762 2.687-6.717-.402-2.955.403-9-.134-13.567-.14-.508-.04-1.05.27-1.48 4.97-2.417 1.208-5.64.94-8.596-.404-5.642 2.147-10.747 3.49-15.986 1.345-5.238 2.688-7.253 2.688-11.148a6.452 6.452 0 0 1 1.075-4.3c5.91-6.984 6.178-15.582 6.984-24.045a8.893 8.893 0 0 0-1.075-5.24c-1.747-3.223-1.21-6.447-.673-10.074.538-3.627 3.627-8.866 6.583-12.493 2.955-3.627 2.283-8.33 3.896-12.225h4.03c3.358 0 8.06-1.343 9.672.403 1.61 1.747.402 6.314.402 9.672-1.074 1.21-2.688 1.21-4.164 1.746a5.64 5.64 0 0 0-3.627 3.896c-.538 1.612-.538 3.762 1.074 4.567 1.61.805 2.418-1.344 3.49-2.284 1.075-.94.674-3.896 3.226-3.762 0 209.74.045 419.48.135 629.218 0 3.76-.806 4.7-4.567 4.566h-254.83c-.403-.402.27-1.61-.538-1.61-4.434.268-8.328-2.284-12.493-2.15 1.743.815 4.833.41 4.968 3.77z"/><path fill="#FFFF6D" d="M750.655 133.712c1.478 7.792-2.017 13.434-7.523 18.27a1.883 1.883 0 0 0-.806 2.418 4.43 4.43 0 0 1-.27 4.3c-2.955 3.626-2.015 6.716.672 10.074 2.688 3.358.402 6.045.27 8.732-.27 5.508-1.075 11.82-4.164 15.985-5.24 6.986-4.434 15.45-7.523 22.838-3.088 7.388-5.506 13.03-.133 19.613.537.538 0 1.88 0 3.36l-4.03-3.09c1.075 8.06-1.21 15.583 2.017 22.97-2.956.538-7.255-.805-6.448 4.703l-.94-4.567c-2.283 7.657-9.402 11.82-11.687 19.21l-1.48-7.39c-1.745 2.553 0 4.837-1.478 6.986-4.97 6.85-5.776 7.522-14.24 5.507l-4.298-.94a2.15 2.15 0 0 0-2.78 1.228c-.015.038-.027.076-.04.115-.672 1.612 0 1.88 1.074 2.687 1.074.807 1.612 1.343 1.612 4.165-1.48-.806-.807-3.627-2.688-2.956-1.88.67-1.344 1.746-1.747 2.82-.01.583.18 1.15.538 1.612 4.97-.672 9.537 4.567 14.51 1.075 1.477-1.075 6.178.672 4.298-4.03l2.688-.94c2.418-.538-.135 3.09 2.15 3.224 1.61 2.688-1.613 4.972-.94 6.315-1.076-1.343 6.044-3.493.94-6.314 1.88-3.088 8.864-4.163 10.745-1.61 1.88 2.55 0 1.61-.537 2.148s-1.344 6.717-6.313 6.85c-1.61 0-.672 3.36-.672 5.508 2.554-.403 5.105-2.15 6.18 2.284 1.075 4.433-1.478 4.164-3.76 5.238-6.313 2.688-12.628 5.104-19.612 5.91a7.64 7.64 0 0 0-4.567 2.82 2.283 2.283 0 0 1-3.895.135c-2.552-2.82-4.7-1.21-6.85.537-2.15 1.747-2.553 3.896-5.105 4.435a1.345 1.345 0 0 0-.806 2.015c.807 1.48 1.21.537 2.016-.27.806-.806.806 1.48 1.88 1.075-2.82 3.896 4.3 2.82 3.09 6.046a7.262 7.262 0 0 1-2.82 2.955c-2.148-5.508-7.39-6.18-11.82-7.79-1.345-.403-3.226-1.075-4.435.806s-.67 3.628 1.075 4.972h-.135c2.82 6.582 2.016 8.06-3.628 13.567-5.642 5.507-7.79 10.61-10.21 16.79-1.073 2.82-2.82 5.508-3.49 9.135a5.774 5.774 0 0 0-4.165-3.492c-2.553-.672-5.104-1.478-5.91-5.104-.807-3.628-4.434-1.48-6.448-2.69-2.016-1.208-3.225-.537-3.225-2.552 0-2.016 1.478-2.15 2.955-2.688 1.477-.538 3.224-2.82 4.433-3.357 3.762-1.612 4.702-8.06 11.017-5.776 3.627 1.344 7.118-2.418 10.61-3.896 3.493-1.478 0-2.283-.134-3.225-.133-.938-1.478-1.21-2.417-1.61-.94-.403-5.373-2.284-4.3-5.644 1.075-3.356 1.882-7.925 7.523-5.64.33-.02.65-.11.94-.27-.135-1.612-1.48-1.345-2.284-1.882s-3.492-1.612-1.478-4.433c2.015-2.82.27-7.523-.94-11.15a11.653 11.653 0 0 0-1.48-2.015c-1.477-2.418-2.014-5.508-.805-7.657s3.76.403 5.642.672c1.88.27 5.642-.94 4.836-3.76-.807-2.822-.27-2.553-2.82-2.15-2.553.403-4.97-1.075-7.523-1.88a1.88 1.88 0 0 1-1.496-2.2c.006-.028.012-.056.02-.084 1.343-3.492 1.073-7.52 4.97-10.477-2.016 4.567-.94 7.388 3.09 9.806 4.03 2.417 4.164-.27 4.835-2.553.673-2.284-.94-4.433 1.345-6.045 1.746.67-2.15 4.03 1.746 3.627 3.896-.404 4.836 2.014 5.374-2.42.536-4.432 3.356-4.432 6.446-4.7s5.508-1.345 6.18-4.03c1.345-5.375 6.18-9.807 4.165-15.987a2.016 2.016 0 0 1 1.21-2.552c5.643-1.61 5.775-6.984 7.792-11.148 2.015-4.165 4.97-4.567 2.282-8.33-.27-.268.136-.67.807-.67.673 0 3.09-1.344 1.882-3.225-1.21-1.88-1.61 0-1.343-1.075.268-1.074.938-.806 1.88-.806 3.895-.27 1.88-3.896 1.88-5.374a25.81 25.81 0 0 1 .807-7.792c.67-2.015 1.48-5.373 3.09-5.104 1.61.27 6.984-2.418 8.464 2.552.32.375.74.654 1.21.806-3.226 2.418-.808 3.493 1.21 3.224 2.014-.27-.272-2.284.133-3.493.125-.98.125-1.975 0-2.956.402-4.97.402-9.807-5.373-12.628 3.76-1.343 5.24-2.955 4.433-6.716-.806-3.76-.672-11.016 4.702-14.643 1.074-.67 2.418-1.612 2.015-3.224-1.746-7.12 5.644-9.94 7.12-15.584 8.06-2.552 7.522-10.21 9.672-16.254 1.344-3.896 4.3-6.448 7.39-8.866a9.135 9.135 0 0 0 3.09-3.09h1.074v.673h-.01zM764.76 147.817c-1.074.27-.806 1.21-1.074 2.015a8.19 8.19 0 0 1-6.18 6.313c-1.478.403-1.21-2.15-1.61-3.358-1.48-3.224.134-5.91 2.686-7.926 2.553-2.014 4.03-1.074 6.18-1.074l-.002 4.03zM497.705 781.468a11.015 11.015 0 0 0-9.135-2.955c7.12-4.434 13.3 2.283 19.612-.135.135 2.284-2.148 1.746-2.418 3.224h-8.06v-.134zM671.264 517.368h-6.984c2.687 5.91 1.61 11.553.27 17.194-.807 3.357 2.417 8.598 6.18 9.807-4.3-.27-4.7 2.82-3.492 4.97 3.627 6.717-.27 13.03-.538 19.612a79.51 79.51 0 0 1-.807 7.926c-6.045-1.075-10.48-6.717-17.33-5.91-1.61.27-1.744-1.21-2.417-2.148a8.73 8.73 0 0 0-8.463-3.896c-2.553.27-5.373-3.224-4.164-5.642s1.745-6.582 2.82-9.808c1.074-3.224-.403-2.687-2.956-3.09 5.643-.67 6.18-5.507 6.717-8.463a10.615 10.615 0 0 1 5.24-7.253c4.97-3.358 6.717-7.926 7.522-13.702.805-5.776-.403-11.148 4.836-14.91 1.21-.807 2.015-3.09 3.49-2.148a4.433 4.433 0 0 1 1.48 4.97c-.807 2.15.27 3.896.537 5.91.805 4.97 3.357 6.58 8.06 6.58zM665.354 414.737c1.746 2.418 4.03 1.746 6.18 2.148 6.312.807 6.18.403 4.702-5.91a14.235 14.235 0 0 0-4.435-7.254c-2.55-2.552-1.88-3.224 1.613-4.433a13.972 13.972 0 0 1 8.06-.94c2.69.537 5.91-.537 4.435-4.3-1.48-3.76.806-2.55 2.418-3.088 1.612-.54 7.657 2.014 5.24-4.568-.404-1.074.938-.672 1.744-.672 10.075-.94 11.15.135 10.612 10.612-.27 6.045-.806 12.09-.94 18.135 0 1.21.27 1.88-1.073 2.15-6.718 1.073-6.718 7.12-8.6 11.687-1.88 4.568-3.357 9.672-5.104 14.373-1.746 4.702-2.688 5.508-5.91 1.746a3.763 3.763 0 0 0-2.284-.67c-12.09-1.076-10.61-2.69-12.896-13.435-.402-2.15.135-4.836-3.09-5.373a2.426 2.426 0 0 1-.807-1.21c-1.074-1.746 4.298-.67 1.478-3.492a5.9 5.9 0 0 1-1.344-5.506zM599.53 516.428c-.27 1.344 2.82 1.88.938 3.627-1.88 1.746-.938.808 0 1.48.94.67 2.554-1.48 2.688.134.134 1.61-1.48 1.342-2.82 1.073-1.345-.27-1.076 1.21-1.21 1.88-.135.673.94.94 1.48.94s4.432.673 4.163 1.612c-.27.94-.538 5.24-3.493 5.373-2.956.135-2.15 2.284-2.284 3.224-.134.94-1.21 3.493-1.88 5.91l1.746-.67c5.774-4.165 5.774-4.165 6.58 2.82.136 1.478.403 2.82 2.016 2.955 1.612.135 1.48-1.612 1.612-2.82.135-1.21.402-2.956.672-4.837 1.746 1.612 4.164 2.15 4.3 4.836.133 2.688.4 4.03-2.688 3.493a2.957 2.957 0 0 0-2.42.94c-.938 1.477.94 1.342 1.48 1.88.537.537 1.48 1.343.67 2.552a2.416 2.416 0 0 1-2.686.94l-3.762-1.21c-4.164-1.073-12.492 1.345-12.225 4.164.67 6.314-5.91 7.39-6.986 12.092-1.073 4.7-6.18 3.76-9 2.955-2.82-.807-6.717-.136-9 3.224a5.374 5.374 0 0 1-2.15.807c1.48-6.447.94-13.165 3.09-19.345a95.19 95.19 0 0 1 6.18-12.225 3.088 3.088 0 0 1 4.03-1.21c1.075.402 7.255 1.88 7.657 1.344.404-.538 3.09-2.956.27-3.897-2.82-.94-2.955-4.03-2.147-6.85.806-2.822 4.164-3.763.134-5.912a5.864 5.864 0 0 1 .807-2.147c4.97-6.448 5.373-13.702 4.566-21.493-.134-1.612-.537-4.3 1.21-5.373 1.746-1.075 2.283 1.074 3.492 2.015 1.21.94 4.433 2.553 5.775 5.776 1.344 3.224 4.567 5.373 7.657.94.67-.94 2.15-1.345 2.552-.807.403.538 5.91 2.42 5.91 6.313 0 3.896.27 6.985.403 10.48.134 3.492-.538 2.417-2.42 1.745-1.88-.67-5.237-2.418-5.642-4.164-.403-1.746-6.717-2.418-3.627-6.717.136-.27-1.073-.27-1.61-.402-2.688-.807-3.09 1.48-4.3 2.82l-1.21-.94 1.48.673z"/><path fill="#FFFF6D" d="M668.98 480.158c-4.435-5.24-6.18-5.105-11.82 1.746.536-3.493-2.554-6.448 1.88-8.6 1.88-.938.27-2.28-.538-3.09-.806-.805-2.687-3.223-4.97-1.208-2.284 2.017-.94 1.747.27 2.82a5.11 5.11 0 0 1 1.208 2.688c.402 1.48 1.344 3.627-.537 4.3-1.88.672-3.225-.403-3.627-2.688s-1.61-2.284-2.42-3.493c-1.072 1.344-2.818 1.612-3.626 3.628a42.582 42.582 0 0 1-10.478 15.45c-2.955 2.55-2.688 6.58-2.15 11.148 5.51-3.358 12.36-2.284 16.927-7.39.94-1.074.807.27 1.074.403a11.022 11.022 0 0 0 6.045 1.882 73.358 73.358 0 0 0-4.972 5.91c-1.343 2.016-3.492 4.164-.94 6.852 2.554 2.688.537 2.418-.536 3.492-1.074 1.075-3.628 3.226-6.313 2.688-6.314-1.344-10.882-5.508-16.12-9-5.24-3.493-2.822-8.866-2.688-13.435.134-4.567 4.3-10.882 3.357-17.33-.54-3.357 2.015-7.254 6.178-9.135 4.165-1.88 8.062-5.238 12.493-7.388 4.434-2.15 6.45-1.88 7.523 3.224 2.553-2.147 1.075-5.238 1.88-8.06 1.747.538 4.165-.135 3.897 3.09.14.807.515 1.555 1.075 2.148 1.61 2.418 6.985 1.345 5.91 6.718-.134.807 4.03 2.82 4.97 1.478s3.493-4.566 1.075-6.984c-2.418-2.42-1.478-4.164-4.433-2.553-.94.537-.672-1.075-.537-1.344.134-.27 2.283-4.03 2.015-6.582-.268-2.552.808-.805 1.612-.67.806.134 3.627.134 5.508.268 1.88.136 2.15-.536 2.552.808.403 1.343-.672 1.746-1.61 2.148-.94.402-1.747 1.61-.672 3.762 1.073 2.148 0 6.984-1.075 10.48-1.074 3.49-6.045 7.253-7.656 11.82l.266.002zM708.205 512.264c-3.09-.807-7.254 1.88-8.463-2.148-1.21-4.03 2.418-6.045 4.702-8.463 2.282-2.418 1.343-2.418 2.282-3.226.94-.806 3.628-7.388 9.674-4.433 3.356 1.61 8.328-.94 12.762-.807 4.433.135 4.433.94 4.566 3.896.135 2.955 2.148 6.717 4.434 9.807 2.283 3.09 2.687 10.48 2.283 15.852-.94 9.538-2.016 19.21-1.88 28.748 0 3.09-.673 4.836-4.03 4.164-3.358-.672-6.717 1.61-9.94 2.418a12.492 12.492 0 0 1-8.73-.27 1.746 1.746 0 0 1-1.344-2.284c.27-1.21 1.21-.94 2.016-.94 3.627-.133 7.254.404 10.88-1.073.673-.27 2.15.135 1.882-1.075-1.478-8.73 4.97-1.746 6.582-3.896 3.358-6.447.403-13.836 2.688-20.82.402-1.345-.27-2.15-2.016-2.688s-6.984-.537-10.344-1.075c-3.358-.536-6.448 2.554-6.18-3.357 0-.4-4.835-1.478-7.39-1.478-6.446-.134-12.895-2.016-19.343-.94 3.492-4.97 10.074-3.09 14.91-5.91zM722.982 309.823a146.567 146.567 0 0 1 6.045-20.956c.672-2.015.402-5.24.806-5.642 2.418-3.224-1.343-6.045.403-9.27a9.67 9.67 0 0 0 .4-8.06c-.67-1.745-1.072-4.7 2.15-6.312l4.836 14.91a2.282 2.282 0 0 1-.94 3.09c-2.552 2.15-5.237 4.97-3.09 8.598 2.15 3.628-.67 7.792-2.417 9.94-1.747 2.15-4.165 7.927-5.643 12.226a2.28 2.28 0 0 1-2.55 1.477zM605.172 456.65c1.344 2.417-.672 5.91 2.283 8.192.672.537-.134 2.955-1.21 2.82-3.223-.536-2.954 2.15-3.626 3.628-.672 1.478-2.553 5.642 2.283 6.045 1.746.135 2.015 1.746 1.21 2.418-.808.672-2.15 5.373-2.42 7.79-.27 2.42-2.687 5.105-6.044 4.837-3.36-.268-6.584-.67-4.568 5.776-3.762-3.896-3.358-7.12-.807-9 2.553-1.88 4.434-6.582 5.775-10.747 1.344-4.165 4.3-10.613 4.97-16.255.406-2.147-1.744-4.967 2.152-5.506zM695.04 592.19c-5.103-1.88-8.73 2.956-14.104 1.747a6.838 6.838 0 0 1-4.028-2.418c-.94-.94-1.48-2.017-.538-3.09.94-1.076 1.747-.136 2.688 0 5.238.806 10.612 1.343 15.852 1.88v1.746l.13.135zM621.695 461.754c-3.628 4.836-3.628 4.836-9.27 1.48 2.687-2.554 5.51-3.63 9.27-1.48z"/><path fill="#FFFF6D" d="M613.098 472.635a2.82 2.82 0 0 1-3.225 2.552c-2.148 0-2.148-1.21-2.418-2.82a2.958 2.958 0 0 1 3.225-3.36c1.88 0-.135 3.628 2.418 3.628zM647.354 316.942c-1.21-3.492-3.09-6.18-2.42-9.537 3.36 3.224 3.762 4.433 2.42 9.537zM664.278 492.248c-1.48 4.164-1.612 4.3-7.12 4.7 1.747-2.55 5.238-2.417 7.12-4.7zM661.995 336.152c0-6.448 4.03.27 5.508-1.88-1.21 2.82-2.82 4.433-5.508 1.745h.134l-.135.135zM620.89 484.59c-.402-2.82.135-4.432 2.148-5.238.486-.076.98.07 1.344.403.268 2.418-2.15 2.82-3.493 4.836zM695.98 552.43v10.746h-.537v-10.478l.538-.268zM675.83 518.04a17.99 17.99 0 0 1 8.464 0c-2.777.7-5.686.7-8.463 0zM668.846 480.158v6.447c-.537-2.15-1.88-4.3.136-6.313h-.136v-.134zM689.938 547.996h5.372a5.098 5.098 0 0 1-5.372 0zM651.517 486.605a6.042 6.042 0 0 1-.4-4.837c1.475 1.614.266 3.226.4 4.837zM705.25 547.19a6.04 6.04 0 0 1-4.7.134c1.476-.94 2.82-.67 4.7-.134zM710.354 205.446c-.384.52-.892.935-1.478 1.21-.806 0-.537-.807-.537-1.345a.94.94 0 0 1 1.208-.94c.348.293.624.66.806 1.076z"/><path fill="#FEFEFE" d="M708.205 291.822c3.493.403 3.357.27 1.88 3.224a10.075 10.075 0 0 0-.67 4.836c.134 1.21.67 2.15-1.21 2.015-1.88-.134-1.746-.94-2.016-2.15-.27-1.208 1.88-5.238 2.148-7.925h-.133zM670.86 308.883c.672 4.164-2.417 7.12-3.627 12.09-1.88-5.91.27-9.135 3.762-11.955l-.134-.135zM673.01 304.853c-.27-2.552 1.21-3.896 4.3-5.642-1.48 2.956 1.61 6.18-3.09 6.853-1.075.133-1.613-.136-1.21-1.21zM697.056 272.48a1.21 1.21 0 0 1-1.745 1.074c-1.073-.806-3.357 0-3.49-2.015-.137-2.016.938-1.882 2.417-1.882 1.477 0 2.013 1.746 2.82 2.82zM718.55 224.387c1.208 1.746 2.148 3.09 1.88 4.702-.27 1.61-.672 1.88-1.343 1.745-.672-.134 0-3.224-2.016-4.03-2.013-.806 2.15-.403 1.48-2.418zM713.58 250.716c.805 2.552 3.76 1.612 2.954 4.3s-.94 2.283-1.746 2.014-1.344-3.224-1.21-6.314zM723.788 183.818c2.82 1.21 3.358-2.284 5.643-.806 2.284 1.48.403.94 0 1.48-.403.535-2.687 2.416-5.642-.674z"/><path fill="#FEFEFE" d="M673.01 304.853l1.21 1.21c.67 2.954 0 4.298-3.225 2.82.4-.66.674-1.39.806-2.15-2.686-2.418.136-1.61 1.21-1.88zM713.176 228.82c.135.806 0 1.612-.94 1.343a1.88 1.88 0 0 1-1.746-2.005v-.01a3.875 3.875 0 0 1 1.21-1.478l1.476 2.15zM686.175 277.717l-1.746 1.478c-.673-1.612-.673-3.09 1.073-4.165 1.747-1.075.403 1.747.538 2.687h.135z"/><path fill="#FEFEFE" d="M686.04 277.717c1.48-.134 2.284.403 1.88 1.88a1.34 1.34 0 0 1-.938.807c-1.746-.403-.807-1.88-.94-2.82h-.134l.133.133zM706.862 268.448c-.537-1.21-1.746-1.88-1.345-3.358.405-1.478 1.882 1.746 1.345 3.358zM695.847 267.105c-.22.396-.545.72-.94.94-1.073.403-.67-.67-.806-1.075-.134-.403.136-1.343.94-1.21.807.136 1.21.27.807 1.345zM581.798 561.562c.27-1.478 2.688-2.687 1.074-4.163-1.61-1.48-2.955-.808-4.164 1.073-1.21 1.88-1.88.135-2.82.27.065-.904.2-1.803.402-2.688.27-1.21.672-1.747 2.418-1.48a27.395 27.395 0 0 1 7.522 2.822c-1.882-7.39 2.688-8.06 7.522-8.6 1.61-.133 3.76-.268 2.688-3.088-.136-.54-.136-1.48.67-1.345 1.11.23 2.163.688 3.09 1.344.166.593.067 1.228-.27 1.745-6.178 2.687-9.134 8.866-13.7 13.164a4.02 4.02 0 0 1-4.432.942zM579.38 566.938c.134-1.21-2.148-.807-1.478-2.016a3.76 3.76 0 0 1 4.946-1.953c.054.022.105.047.157.072a7.536 7.536 0 0 1-3.627 3.76h.134l-.132.136zM599.53 516.428c-1.345.135-2.688 0-2.554-1.88.135-1.88 0-2.016 1.21-1.612 1.208.402.134 2.553 1.208 3.492h.136z"/><path fill="#FEFEFE" d="M579.38 566.803c-.537 1.88-2.148 2.15-3.896 2.688.27-2.82 2.148-2.687 4.028-2.552h-.134l.002-.135z"/><g fill="#FFFF6D"><path d="M1563.676 1732c1.094 5.764-1.52 10.008-5.62 13.622-.598.526-.924.88-.56 1.826.385.993.554 2.293-.198 3.23-2.166 2.695-1.54 5.012.528 7.452 1.662 1.963.328 4.494.226 6.54-.206 4.076-.79 8.844-3.084 11.946-3.854 5.218-3.266 11.474-5.592 17.006-1.79 4.263-4.083 9.728-.08 14.616.353.434.046 1.41.046 2.462l-3.04-2.302c.82 6.045-.95 11.644 1.476 17.12-2.148.43-5.44-.626-4.762 3.544l-.675-3.373c-1.687 5.703-6.964 8.757-8.653 14.294l-1.104-5.453c-1.29 1.948.038 3.592-1.108 5.202-3.653 5.13-4.338 5.573-10.645 4.06-1.066-.256-2.12-.594-3.2-.748-.83-.118-1.608-.144-2.096.98-.498 1.148.048 1.43.803 1.983 1.233.907 1.18.983 1.228 3.117-1.055-.567-.58-2.676-2.026-2.16-.605.214-.986 1.294-1.272 2.057-.127.337.283 1.25.363 1.236 3.684-.475 7.13 3.404 10.795.782 1.104-.79 4.563.535 3.202-3.003-.016-.035 1.4-.562 2.018-.68 1.824-.355-.114 2.274 1.566 2.36 1.225 1.973-1.152 3.72-.724 4.71-.763-.98 4.527-2.573.664-4.653 1.41-2.28 6.637-3.094 7.995-1.237.497.68-.04 1.157-.393 1.614-1.395 1.81-.954 5.032-4.684 5.147-1.217.038-.482 2.53-.524 4.107 1.933-.343 3.756-1.59 4.57 1.67.77 3.073-1.06 3.095-2.82 3.855-4.703 2.03-9.442 3.837-14.6 4.415-1.29.146-2.46 1.058-3.39 2.118-.883 1.007-1.92 1.146-2.88.104-1.9-2.062-3.543-.862-5.09.43-1.276 1.063-1.894 2.854-3.754 3.307-.797.193-.806 1.053-.554 1.536.562 1.075.896.395 1.513-.182.81-.757.56 1.084 1.374.844-2.074 2.913 3.237 2.146 2.26 4.54-.397.97-1.167 1.49-2.117 2.188-1.605-4.146-5.472-4.63-8.844-5.783-1-.344-2.37-.83-3.3.597-1.02 1.562-.482 2.687.774 3.715l-.055-.063c2.067 4.886 1.534 6.026-2.72 10.114-3.566 3.433-5.825 7.934-7.56 12.49-.817 2.15-2.112 4.077-2.626 6.8-.77-1.646-1.758-2.157-3.116-2.553-1.885-.546-3.84-1.066-4.42-3.797-.42-1.98-3.26-1.096-4.807-2.02-.88-.527-2.384-.36-2.405-1.858-.02-1.418 1.063-1.63 2.235-1.98 1.36-.4 2.382-2.128 3.29-2.503 2.837-1.177 3.52-5.962 8.174-4.314 2.716.96 5.258-1.79 7.868-2.874 1.266-.526.026-1.654-.066-2.446-.055-.46-1.1-.873-1.76-1.178-1.823-.845-3.986-1.65-3.246-4.158.757-2.566 1.41-5.868 5.57-4.208.186.075.472-.1.737-.166-.063-1.155-1.08-.983-1.733-1.392-1.122-.703-2.586-1.244-1.112-3.332 1.91-2.703.192-5.57-.75-8.273-.19-.554-.784-.955-1.115-1.476-1.142-1.79-1.55-4.07-.622-5.664 1.052-1.806 2.785.274 4.213.532 2.39.43 4.21-.71 3.647-2.79-.202-.742-.244-1.894-2.085-1.617-1.752.262-3.73-.832-5.577-1.435-.725-.238-1.39-.908-1.08-1.722.972-2.553.82-5.59 3.652-7.764-1.48 3.36-.718 5.464 2.33 7.324 2.996 1.828 3.068-.217 3.585-1.92.44-1.45-.674-3.265 1.005-4.484 1.256.53-1.6 2.98 1.27 2.707 1.522-.144 3.605 1.485 4.004-1.84.29-2.405 2.518-3.314 4.838-3.46 2.156-.133 4.11-1.008 4.61-3.05.98-3.983 4.553-7.3 3.102-11.92-.24-.758.12-1.67.874-1.887 4.182-1.213 4.34-5.23 5.803-8.28.913-1.902 3.7-3.402 1.66-6.158-.175-.235.1-.455.57-.52 1.923-.27 2.31-1.02 1.393-2.38-.25-.375-1.153-.048-.963-.764.168-.63.697-.55 1.37-.604 2.91-.233 1.448-2.926 1.446-4.032 0-1.994.013-3.93.6-5.81.458-1.475 1.077-3.995 2.265-3.77 2.077.395 5.214-1.848 6.327 1.87.076.25.558.38.85.565-2.4 1.79-.617 2.61.868 2.374 2.07-.33-.246-1.67.117-2.625.25-.654-.017-1.485.044-2.23.3-3.71.273-7.29-3.977-9.435 2.844-.99 3.874-2.194 3.333-5.02-.78-4.067-.544-8.16 3.54-10.862.772-.513 1.83-1.24 1.55-2.372-1.32-5.32 4.205-7.415 5.346-11.558 5.965-1.912 5.605-7.573 7.17-12.095.998-2.884 3.248-4.763 5.494-6.573.872-.7 1.8-1.26 2.285-2.312h.75v.01zM1574.176 1742.5c-.784.23-.64.898-.765 1.486-.537 2.532-2.328 4.123-4.613 4.73-1.057.28-.863-1.63-1.247-2.48-1.096-2.42.088-4.416 2-5.93 1.343-1.06 3.03-.826 4.626-.807v3zM1375.426 2214.25c-1.758-1.677-3.85-2.477-6.762-2.247 5.294-3.312 9.878 1.706 14.604-.146.13 1.75-1.62 1.348-1.843 2.394h-6zM1504.666 2017.646h-5.24c1.963 4.438 1.2 8.632.153 12.834-.634 2.54 1.76 6.384 4.62 7.268-3.195-.19-3.496 2.096-2.646 3.658 2.726 5.003-.153 9.738-.358 14.552a58.444 58.444 0 0 1-.56 5.944c-4.51-.795-7.802-5.043-12.866-4.406-1.22.154-1.295-.904-1.764-1.56-1.54-2.15-3.642-3.155-6.267-2.89-1.946.197-4.044-2.396-3.143-4.212 1.164-2.342 1.27-4.945 2.146-7.337.563-1.54-.266-1.98-2.153-2.312 4.215-.547 4.602-4.1 4.965-6.275.476-2.828 2.168-4.282 3.873-5.447 3.723-2.545 5.002-5.927 5.6-10.162.54-3.853-.316-8.345 3.628-11.148.862-.613 1.483-2.334 2.595-1.625 1.044.666 1.588 2.312 1.123 3.683-.55 1.62.188 2.946.358 4.413.448 3.857 2.434 4.982 5.936 5.023M1500.182 1941.29c1.26 1.812 3.013 1.344 4.61 1.56 4.736.644 4.646.314 3.452-4.395-.604-2.383-1.65-3.812-3.257-5.39-1.905-1.873-1.37-2.36 1.17-3.267 2.034-.726 3.764-1.104 5.96-.665 1.998.4 4.395-.357 3.315-3.215-.898-2.38.614-1.874 1.79-2.28 1.672-.576 5.73 1.475 3.872-3.355-.29-.76.703-.457 1.288-.513 7.463-.724 8.348.123 7.946 7.925-.23 4.512-.584 9.02-.674 13.534-.018.858.178 1.42-.798 1.577-4.99.808-4.996 5.342-6.404 8.728-1.45 3.49-2.48 7.15-3.843 10.68-.838 2.17-1.953 4.098-4.422 1.304-.332-.377-1.108-.444-1.695-.5-9.012-.83-7.87-1.96-9.565-10-.334-1.585.07-3.554-2.284-4.02-.26-.05-.448-.547-.636-.86-.754-1.258 3.193-.5 1.068-2.646-.725-.74-1.42-2.29-.894-4.205M1451.225 2016.958c-.22 1.015 2.137 1.38.68 2.73-.307.283-.744.624.022 1.05.757.418 1.906-1.078 2.038.072.166 1.44-1.134.952-2.092.83-.854-.11-.812.89-.947 1.37-.308 1.086.706.714 1.15.707 1.262-.02 3.255.528 3.06 1.156-.45 1.465-.434 3.853-2.568 4.045-1.843.166-1.648 1.683-1.65 2.362-.007 1.49-.867 2.642-1.422 4.352.73-.29 1.05-.347 1.287-.518 4.27-3.058 4.3-3.064 4.873 2.06.122 1.09.334 2.147 1.51 2.187 1.363.046 1.07-1.22 1.182-2.11.138-1.098.332-2.187.548-3.558 1.268 1.158 3.09 1.63 3.213 3.626.082 1.354.337 2.98-2.048 2.573-.575-.097-1.536.28-1.842.75-.705 1.09.687.964 1.102 1.42.505.558 1.13 1.022.483 1.88-.514.688-1.197.936-1.972.737-.944-.242-1.84-.675-2.78-.928-3.07-.828-9.32 1.02-9.11 3.145.468 4.697-4.435 5.53-5.222 8.973-1.02 4.473-4.61 2.76-6.724 2.184-3.168-.867-4.995-.058-6.688 2.35-.23.33-.907.352-1.623.6 1.115-4.847.656-9.83 2.337-14.4 1.166-3.172 2.97-6.118 4.592-9.107.626-1.153 1.878-1.23 2.99-.858.778.26 5.398 1.365 5.7 1.048.852-.896 2.25-2.216.22-2.866-3.384-1.083-2.246-2.987-1.597-5.143.41-1.358 3.127-2.806.143-4.36-.054-.026.296-1.13.645-1.588 3.676-4.813 4.037-10.244 3.438-16.017-.12-1.174-.418-3.164.906-3.968.604-.367 1.73.812 2.594 1.505 1.595 1.282 3.316 1.913 4.264 4.27.724 1.797 3.382 3.964 5.727.688.494-.692 1.62-1.032 1.948-.56 1.24 1.776 4.354 1.755 4.354 4.692 0 2.604.17 5.205.268 7.81.05 1.306-.413 1.76-1.753 1.26-1.75-.652-3.86-1.763-4.206-3.126-.512-2.024-4.953-1.776-2.737-5.044.123-.184-.798-.177-1.17-.29-1.98-.604-2.338 1.06-3.175 2.066-.28-.228-.553-.47-.86-.662.258.26.598.412.91.604"/><path d="M1502.918 1989.98c-3.292-3.898-4.584-3.8-8.782 1.28.403-2.596-1.912-4.766 1.382-6.374 1.408-.688.238-1.66-.442-2.35-1.048-1.06-1.977-2.367-3.724-.86-1.07.92-.73 1.32.15 2.065.502.423.717 1.275.887 1.977.27 1.118.987 2.69-.376 3.206-1.265.477-2.387-.34-2.724-2.05-.187-.945-1.19-1.73-1.826-2.59-.78 1-2.062 1.208-2.704 2.724-1.812 4.275-4.222 8.23-7.795 11.455-2.153 1.943-1.995 4.882-1.57 8.293 4.116-2.476 9.222-1.73 12.588-5.485.693-.773.575.158.815.343 1.21.93 2.65 1.2 4.54 1.365-1.368 1.635-2.663 2.938-3.66 4.44-1.012 1.522-2.617 3.074-.66 5.123.813.85.4 1.788-.377 2.638-1.286 1.4-2.707 2.438-4.707 2.006-4.692-1.017-8.112-4.07-11.984-6.69-4.863-3.29-2.07-6.56-2.01-10.027.074-4.423 3.21-8.086 2.493-12.893-.37-2.49 1.482-5.376 4.617-6.822 3.252-1.5 6.02-3.906 9.312-5.52 3.285-1.605 4.76-1.385 5.616 2.37 1.91-1.604.843-3.913 1.375-5.955 1.254.42 3.062-.097 2.888 2.255-.036.496.498 1.067.84 1.553 1.25 1.768 5.25 1.02 4.367 4.98-.13.586 2.957 2.105 3.728 1.083.943-1.253 2.605-3.377.788-5.18-.808-.8-1.1-3.085-3.326-1.866-.69.38-.468-.75-.38-.982.605-1.592 1.656-3.01 1.482-4.872-.094-.993.575-.582 1.185-.51 1.357.156 2.74.06 4.108.162.67.05 1.633-.4 1.924.57.263.876-.51 1.304-1.182 1.624-1.622.774-1.35 1.178-.466 2.83 1.245 2.33-.02 5.173-.786 7.83-1.038 3.596-4.52 5.412-5.664 8.806l.058.05zM1532.16 2013.896c-2.272-.603-5.397 1.42-6.327-1.633-.816-2.68 1.786-4.483 3.51-6.334.658-.71.992-1.763 1.72-2.36 2.053-1.688 2.698-5.453 7.226-3.328 2.525 1.187 6.205-.69 9.458-.562 2.15.084 3.28.72 3.4 2.9.155 2.867 1.556 4.992 3.28 7.324 2.485 3.358 2.046 7.785 1.67 11.796-.665 7.135-1.524 14.255-1.374 21.43.05 2.345-.486 3.606-3.038 3.113-2.768-.535-4.952 1.188-7.413 1.833-2.192.574-4.32.783-6.487-.202-.84-.382-1.184-.81-1.003-1.658.184-.863.934-.678 1.498-.694 2.707-.09 5.45.27 8.072-.756.518-.203 1.554.102 1.403-.756-1.126-6.485 3.67-1.304 4.88-2.904 2.533-4.78.29-10.325 1.983-15.454.343-1.04-.175-1.61-1.472-1.982-2.572-.74-5.17-.396-7.713-.752-1.61-.225-4.834 1.912-4.62-2.458.015-.31-3.607-1.11-5.546-1.14-4.837-.073-9.582-1.463-14.373-.702 2.7-4.047 7.662-2.65 11.265-4.722M1543.104 1863.145c.994-5.393 2.728-10.522 4.482-15.634.513-1.494.32-3.853.623-4.25 1.81-2.365-1.02-4.547.29-6.943.828-1.52 1.202-3.794.314-6.004-.522-1.3-.82-3.477 1.562-4.703 1.222 3.806 2.37 7.444 3.567 11.068.315.96.315 1.447-.67 2.254-1.93 1.58-3.857 3.688-2.326 6.433 1.77 3.18-.46 5.766-1.83 7.396-2.338 2.784-3.06 5.944-4.24 9.057-.272.716-.684 1.314-1.773 1.328M1455.45 1972.438c1.036 1.77-.54 4.378 1.652 6.106.52.41-.124 2.21-.854 2.08-2.38-.43-2.166 1.598-2.73 2.655-1.064 1.985-1.94 4.21 1.748 4.47 1.312.093 1.527 1.268.946 1.795-1.796 1.63-1.592 3.962-1.83 5.822-.398 3.13-2.034 3.777-4.523 3.602-2.534-.182-4.948-.5-3.37 4.31-2.79-2.9-2.48-5.3-.572-6.69 2.897-2.108 3.342-4.948 4.258-8.017 1.207-4.047 3.168-7.862 3.727-12.145.184-1.437-1.41-3.617 1.547-3.99M1522.37 2073.347c-3.77-1.39-6.52 2.19-10.49 1.312-1.54-.342-2.118-.926-2.96-1.788-.674-.688-1.08-1.513-.45-2.268.49-.588 1.295-.102 2.016.004 3.92.57 7.866.95 11.806 1.396.025.448.052.894.08 1.343M1467.742 1976.254c-2.673 3.596-2.673 3.596-6.91 1.098 2.043-1.922 4.13-2.725 6.91-1.098"/><path d="M1461.344 1984.395c-.35 1.52-1.144 1.89-2.447 1.898-1.64.014-1.573-.888-1.77-2.09-.342-2.08 1.565-2.543 2.396-2.528 1.4.023-.07 2.668 1.82 2.72M1486.83 1868.477c-.902-2.56-2.305-4.57-1.766-7.133 2.487 2.426 2.73 3.338 1.766 7.133M1499.42 1998.998c-1.055 3.1-1.196 3.18-5.33 3.516 1.348-1.987 3.917-1.834 5.33-3.516M1497.688 1882.76c.032-4.848 3.034.193 4.058-1.355-.91 2.06-2.062 3.267-4.11 1.294l.052.06M1467.158 1993.235c-.33-2.087.083-3.305 1.61-3.93.252-.105.95.16.962.29.148 1.83-1.62 2.126-2.572 3.64M1523.008 2043.715v8.02c-.125.002-.25.004-.375.004v-7.833c.125-.065.25-.13.375-.192M1508.042 2018.137c2.232-.546 3.92-.5 6.306-.04-2.38.552-4.07.53-6.306.04M1502.86 1989.932v4.783c-.42-1.595-1.442-3.222.06-4.732-.002-.003-.06-.05-.06-.05M1518.493 2040.41h4.02c-1.713.837-2.927.67-4.02 0M1489.97 1994.732c-.72-1.075-.604-2.243-.34-3.572 1.1 1.192.173 2.404.34 3.572M1529.92 2039.822c-1.41.56-2.336.53-3.547.115 1.155-.657 2.104-.465 3.546-.115M1533.74 1785.487c-.407.35-.746.88-1.096.89-.613.012-.41-.632-.418-1.033-.01-.61.424-.84.912-.713.23.06.363.497.602.857"/></g><g fill="#FFFF6D"><path d="M1563.676 1732c1.094 5.764-1.52 10.008-5.62 13.622-.598.526-.924.88-.56 1.826.385.993.554 2.293-.198 3.23-2.166 2.695-1.54 5.012.528 7.452 1.662 1.963.328 4.494.226 6.54-.206 4.076-.79 8.844-3.084 11.946-3.854 5.218-3.266 11.474-5.592 17.006-1.79 4.263-4.083 9.728-.08 14.616.353.434.046 1.41.046 2.462l-3.04-2.302c.82 6.045-.95 11.644 1.476 17.12-2.148.43-5.44-.626-4.762 3.544l-.675-3.373c-1.687 5.703-6.964 8.757-8.653 14.294l-1.104-5.453c-1.29 1.948.038 3.592-1.108 5.202-3.653 5.13-4.338 5.573-10.645 4.06-1.066-.256-2.12-.594-3.2-.748-.83-.118-1.608-.144-2.096.98-.498 1.148.048 1.43.803 1.983 1.233.907 1.18.983 1.228 3.117-1.055-.567-.58-2.676-2.026-2.16-.605.214-.986 1.294-1.272 2.057-.127.337.283 1.25.363 1.236 3.684-.475 7.13 3.404 10.795.782 1.104-.79 4.563.535 3.202-3.003-.016-.035 1.4-.562 2.018-.68 1.824-.355-.114 2.274 1.566 2.36 1.225 1.973-1.152 3.72-.724 4.71-.763-.98 4.527-2.573.664-4.653 1.41-2.28 6.637-3.094 7.995-1.237.497.68-.04 1.157-.393 1.614-1.395 1.81-.954 5.032-4.684 5.147-1.217.038-.482 2.53-.524 4.107 1.933-.343 3.756-1.59 4.57 1.67.77 3.073-1.06 3.095-2.82 3.855-4.703 2.03-9.442 3.837-14.6 4.415-1.29.146-2.46 1.058-3.39 2.118-.883 1.007-1.92 1.146-2.88.104-1.9-2.062-3.543-.862-5.09.43-1.276 1.063-1.894 2.854-3.754 3.307-.797.193-.806 1.053-.554 1.536.562 1.075.896.395 1.513-.182.81-.757.56 1.084 1.374.844-2.074 2.913 3.237 2.146 2.26 4.54-.397.97-1.167 1.49-2.117 2.188-1.605-4.146-5.472-4.63-8.844-5.783-1-.344-2.37-.83-3.3.597-1.02 1.562-.482 2.687.774 3.715l-.055-.063c2.067 4.886 1.534 6.026-2.72 10.114-3.566 3.433-5.825 7.934-7.56 12.49-.817 2.15-2.112 4.077-2.626 6.8-.77-1.646-1.758-2.157-3.116-2.553-1.885-.546-3.84-1.066-4.42-3.797-.42-1.98-3.26-1.096-4.807-2.02-.88-.527-2.384-.36-2.405-1.858-.02-1.418 1.063-1.63 2.235-1.98 1.36-.4 2.382-2.128 3.29-2.503 2.837-1.177 3.52-5.962 8.174-4.314 2.716.96 5.258-1.79 7.868-2.874 1.266-.526.026-1.654-.066-2.446-.055-.46-1.1-.873-1.76-1.178-1.823-.845-3.986-1.65-3.246-4.158.757-2.566 1.41-5.868 5.57-4.208.186.075.472-.1.737-.166-.063-1.155-1.08-.983-1.733-1.392-1.122-.703-2.586-1.244-1.112-3.332 1.91-2.703.192-5.57-.75-8.273-.19-.554-.784-.955-1.115-1.476-1.142-1.79-1.55-4.07-.622-5.664 1.052-1.806 2.785.274 4.213.532 2.39.43 4.21-.71 3.647-2.79-.202-.742-.244-1.894-2.085-1.617-1.752.262-3.73-.832-5.577-1.435-.725-.238-1.39-.908-1.08-1.722.972-2.553.82-5.59 3.652-7.764-1.48 3.36-.718 5.464 2.33 7.324 2.996 1.828 3.068-.217 3.585-1.92.44-1.45-.674-3.265 1.005-4.484 1.256.53-1.6 2.98 1.27 2.707 1.522-.144 3.605 1.485 4.004-1.84.29-2.405 2.518-3.314 4.838-3.46 2.156-.133 4.11-1.008 4.61-3.05.98-3.983 4.553-7.3 3.102-11.92-.24-.758.12-1.67.874-1.887 4.182-1.213 4.34-5.23 5.803-8.28.913-1.902 3.7-3.402 1.66-6.158-.175-.235.1-.455.57-.52 1.923-.27 2.31-1.02 1.393-2.38-.25-.375-1.153-.048-.963-.764.168-.63.697-.55 1.37-.604 2.91-.233 1.448-2.926 1.446-4.032 0-1.994.013-3.93.6-5.81.458-1.475 1.077-3.995 2.265-3.77 2.077.395 5.214-1.848 6.327 1.87.076.25.558.38.85.565-2.4 1.79-.617 2.61.868 2.374 2.07-.33-.246-1.67.117-2.625.25-.654-.017-1.485.044-2.23.3-3.71.273-7.29-3.977-9.435 2.844-.99 3.874-2.194 3.333-5.02-.78-4.067-.544-8.16 3.54-10.862.772-.513 1.83-1.24 1.55-2.372-1.32-5.32 4.205-7.415 5.346-11.558 5.965-1.912 5.605-7.573 7.17-12.095.998-2.884 3.248-4.763 5.494-6.573.872-.7 1.8-1.26 2.285-2.312h.75v.01zM1574.176 1742.5c-.784.23-.64.898-.765 1.486-.537 2.532-2.328 4.123-4.613 4.73-1.057.28-.863-1.63-1.247-2.48-1.096-2.42.088-4.416 2-5.93 1.343-1.06 3.03-.826 4.626-.807v3zM1375.426 2214.25c-1.758-1.677-3.85-2.477-6.762-2.247 5.294-3.312 9.878 1.706 14.604-.146.13 1.75-1.62 1.348-1.843 2.394h-6zM1504.666 2017.646h-5.24c1.963 4.438 1.2 8.632.153 12.834-.634 2.54 1.76 6.384 4.62 7.268-3.195-.19-3.496 2.096-2.646 3.658 2.726 5.003-.153 9.738-.358 14.552a58.444 58.444 0 0 1-.56 5.944c-4.51-.795-7.802-5.043-12.866-4.406-1.22.154-1.295-.904-1.764-1.56-1.54-2.15-3.642-3.155-6.267-2.89-1.946.197-4.044-2.396-3.143-4.212 1.164-2.342 1.27-4.945 2.146-7.337.563-1.54-.266-1.98-2.153-2.312 4.215-.547 4.602-4.1 4.965-6.275.476-2.828 2.168-4.282 3.873-5.447 3.723-2.545 5.002-5.927 5.6-10.162.54-3.853-.316-8.345 3.628-11.148.862-.613 1.483-2.334 2.595-1.625 1.044.666 1.588 2.312 1.123 3.683-.55 1.62.188 2.946.358 4.413.448 3.857 2.434 4.982 5.936 5.023M1500.182 1941.29c1.26 1.812 3.013 1.344 4.61 1.56 4.736.644 4.646.314 3.452-4.395-.604-2.383-1.65-3.812-3.257-5.39-1.905-1.873-1.37-2.36 1.17-3.267 2.034-.726 3.764-1.104 5.96-.665 1.998.4 4.395-.357 3.315-3.215-.898-2.38.614-1.874 1.79-2.28 1.672-.576 5.73 1.475 3.872-3.355-.29-.76.703-.457 1.288-.513 7.463-.724 8.348.123 7.946 7.925-.23 4.512-.584 9.02-.674 13.534-.018.858.178 1.42-.798 1.577-4.99.808-4.996 5.342-6.404 8.728-1.45 3.49-2.48 7.15-3.843 10.68-.838 2.17-1.953 4.098-4.422 1.304-.332-.377-1.108-.444-1.695-.5-9.012-.83-7.87-1.96-9.565-10-.334-1.585.07-3.554-2.284-4.02-.26-.05-.448-.547-.636-.86-.754-1.258 3.193-.5 1.068-2.646-.725-.74-1.42-2.29-.894-4.205M1451.225 2016.958c-.22 1.015 2.137 1.38.68 2.73-.307.283-.744.624.022 1.05.757.418 1.906-1.078 2.038.072.166 1.44-1.134.952-2.092.83-.854-.11-.812.89-.947 1.37-.308 1.086.706.714 1.15.707 1.262-.02 3.255.528 3.06 1.156-.45 1.465-.434 3.853-2.568 4.045-1.843.166-1.648 1.683-1.65 2.362-.007 1.49-.867 2.642-1.422 4.352.73-.29 1.05-.347 1.287-.518 4.27-3.058 4.3-3.064 4.873 2.06.122 1.09.334 2.147 1.51 2.187 1.363.046 1.07-1.22 1.182-2.11.138-1.098.332-2.187.548-3.558 1.268 1.158 3.09 1.63 3.213 3.626.082 1.354.337 2.98-2.048 2.573-.575-.097-1.536.28-1.842.75-.705 1.09.687.964 1.102 1.42.505.558 1.13 1.022.483 1.88-.514.688-1.197.936-1.972.737-.944-.242-1.84-.675-2.78-.928-3.07-.828-9.32 1.02-9.11 3.145.468 4.697-4.435 5.53-5.222 8.973-1.02 4.473-4.61 2.76-6.724 2.184-3.168-.867-4.995-.058-6.688 2.35-.23.33-.907.352-1.623.6 1.115-4.847.656-9.83 2.337-14.4 1.166-3.172 2.97-6.118 4.592-9.107.626-1.153 1.878-1.23 2.99-.858.778.26 5.398 1.365 5.7 1.048.852-.896 2.25-2.216.22-2.866-3.384-1.083-2.246-2.987-1.597-5.143.41-1.358 3.127-2.806.143-4.36-.054-.026.296-1.13.645-1.588 3.676-4.813 4.037-10.244 3.438-16.017-.12-1.174-.418-3.164.906-3.968.604-.367 1.73.812 2.594 1.505 1.595 1.282 3.316 1.913 4.264 4.27.724 1.797 3.382 3.964 5.727.688.494-.692 1.62-1.032 1.948-.56 1.24 1.776 4.354 1.755 4.354 4.692 0 2.604.17 5.205.268 7.81.05 1.306-.413 1.76-1.753 1.26-1.75-.652-3.86-1.763-4.206-3.126-.512-2.024-4.953-1.776-2.737-5.044.123-.184-.798-.177-1.17-.29-1.98-.604-2.338 1.06-3.175 2.066-.28-.228-.553-.47-.86-.662.258.26.598.412.91.604"/><path d="M1502.918 1989.98c-3.292-3.898-4.584-3.8-8.782 1.28.403-2.596-1.912-4.766 1.382-6.374 1.408-.688.238-1.66-.442-2.35-1.048-1.06-1.977-2.367-3.724-.86-1.07.92-.73 1.32.15 2.065.502.423.717 1.275.887 1.977.27 1.118.987 2.69-.376 3.206-1.265.477-2.387-.34-2.724-2.05-.187-.945-1.19-1.73-1.826-2.59-.78 1-2.062 1.208-2.704 2.724-1.812 4.275-4.222 8.23-7.795 11.455-2.153 1.943-1.995 4.882-1.57 8.293 4.116-2.476 9.222-1.73 12.588-5.485.693-.773.575.158.815.343 1.21.93 2.65 1.2 4.54 1.365-1.368 1.635-2.663 2.938-3.66 4.44-1.012 1.522-2.617 3.074-.66 5.123.813.85.4 1.788-.377 2.638-1.286 1.4-2.707 2.438-4.707 2.006-4.692-1.017-8.112-4.07-11.984-6.69-4.863-3.29-2.07-6.56-2.01-10.027.074-4.423 3.21-8.086 2.493-12.893-.37-2.49 1.482-5.376 4.617-6.822 3.252-1.5 6.02-3.906 9.312-5.52 3.285-1.605 4.76-1.385 5.616 2.37 1.91-1.604.843-3.913 1.375-5.955 1.254.42 3.062-.097 2.888 2.255-.036.496.498 1.067.84 1.553 1.25 1.768 5.25 1.02 4.367 4.98-.13.586 2.957 2.105 3.728 1.083.943-1.253 2.605-3.377.788-5.18-.808-.8-1.1-3.085-3.326-1.866-.69.38-.468-.75-.38-.982.605-1.592 1.656-3.01 1.482-4.872-.094-.993.575-.582 1.185-.51 1.357.156 2.74.06 4.108.162.67.05 1.633-.4 1.924.57.263.876-.51 1.304-1.182 1.624-1.622.774-1.35 1.178-.466 2.83 1.245 2.33-.02 5.173-.786 7.83-1.038 3.596-4.52 5.412-5.664 8.806l.058.05zM1532.16 2013.896c-2.272-.603-5.397 1.42-6.327-1.633-.816-2.68 1.786-4.483 3.51-6.334.658-.71.992-1.763 1.72-2.36 2.053-1.688 2.698-5.453 7.226-3.328 2.525 1.187 6.205-.69 9.458-.562 2.15.084 3.28.72 3.4 2.9.155 2.867 1.556 4.992 3.28 7.324 2.485 3.358 2.046 7.785 1.67 11.796-.665 7.135-1.524 14.255-1.374 21.43.05 2.345-.486 3.606-3.038 3.113-2.768-.535-4.952 1.188-7.413 1.833-2.192.574-4.32.783-6.487-.202-.84-.382-1.184-.81-1.003-1.658.184-.863.934-.678 1.498-.694 2.707-.09 5.45.27 8.072-.756.518-.203 1.554.102 1.403-.756-1.126-6.485 3.67-1.304 4.88-2.904 2.533-4.78.29-10.325 1.983-15.454.343-1.04-.175-1.61-1.472-1.982-2.572-.74-5.17-.396-7.713-.752-1.61-.225-4.834 1.912-4.62-2.458.015-.31-3.607-1.11-5.546-1.14-4.837-.073-9.582-1.463-14.373-.702 2.7-4.047 7.662-2.65 11.265-4.722M1543.104 1863.145c.994-5.393 2.728-10.522 4.482-15.634.513-1.494.32-3.853.623-4.25 1.81-2.365-1.02-4.547.29-6.943.828-1.52 1.202-3.794.314-6.004-.522-1.3-.82-3.477 1.562-4.703 1.222 3.806 2.37 7.444 3.567 11.068.315.96.315 1.447-.67 2.254-1.93 1.58-3.857 3.688-2.326 6.433 1.77 3.18-.46 5.766-1.83 7.396-2.338 2.784-3.06 5.944-4.24 9.057-.272.716-.684 1.314-1.773 1.328M1455.45 1972.438c1.036 1.77-.54 4.378 1.652 6.106.52.41-.124 2.21-.854 2.08-2.38-.43-2.166 1.598-2.73 2.655-1.064 1.985-1.94 4.21 1.748 4.47 1.312.093 1.527 1.268.946 1.795-1.796 1.63-1.592 3.962-1.83 5.822-.398 3.13-2.034 3.777-4.523 3.602-2.534-.182-4.948-.5-3.37 4.31-2.79-2.9-2.48-5.3-.572-6.69 2.897-2.108 3.342-4.948 4.258-8.017 1.207-4.047 3.168-7.862 3.727-12.145.184-1.437-1.41-3.617 1.547-3.99M1522.37 2073.347c-3.77-1.39-6.52 2.19-10.49 1.312-1.54-.342-2.118-.926-2.96-1.788-.674-.688-1.08-1.513-.45-2.268.49-.588 1.295-.102 2.016.004 3.92.57 7.866.95 11.806 1.396.025.448.052.894.08 1.343M1467.742 1976.254c-2.673 3.596-2.673 3.596-6.91 1.098 2.043-1.922 4.13-2.725 6.91-1.098"/><path d="M1461.344 1984.395c-.35 1.52-1.144 1.89-2.447 1.898-1.64.014-1.573-.888-1.77-2.09-.342-2.08 1.565-2.543 2.396-2.528 1.4.023-.07 2.668 1.82 2.72M1486.83 1868.477c-.902-2.56-2.305-4.57-1.766-7.133 2.487 2.426 2.73 3.338 1.766 7.133M1499.42 1998.998c-1.055 3.1-1.196 3.18-5.33 3.516 1.348-1.987 3.917-1.834 5.33-3.516M1497.688 1882.76c.032-4.848 3.034.193 4.058-1.355-.91 2.06-2.062 3.267-4.11 1.294l.052.06M1467.158 1993.235c-.33-2.087.083-3.305 1.61-3.93.252-.105.95.16.962.29.148 1.83-1.62 2.126-2.572 3.64M1523.008 2043.715v8.02c-.125.002-.25.004-.375.004v-7.833c.125-.065.25-.13.375-.192M1508.042 2018.137c2.232-.546 3.92-.5 6.306-.04-2.38.552-4.07.53-6.306.04M1502.86 1989.932v4.783c-.42-1.595-1.442-3.222.06-4.732-.002-.003-.06-.05-.06-.05M1518.493 2040.41h4.02c-1.713.837-2.927.67-4.02 0M1489.97 1994.732c-.72-1.075-.604-2.243-.34-3.572 1.1 1.192.173 2.404.34 3.572M1529.92 2039.822c-1.41.56-2.336.53-3.547.115 1.155-.657 2.104-.465 3.546-.115M1533.74 1785.487c-.407.35-.746.88-1.096.89-.613.012-.41-.632-.418-1.033-.01-.61.424-.84.912-.713.23.06.363.497.602.857"/></g><g fill="#FFFF6D"><path d="M1563.676 1732c1.094 5.764-1.52 10.008-5.62 13.622-.598.526-.924.88-.56 1.826.385.993.554 2.293-.198 3.23-2.166 2.695-1.54 5.012.528 7.452 1.662 1.963.328 4.494.226 6.54-.206 4.076-.79 8.844-3.084 11.946-3.854 5.218-3.266 11.474-5.592 17.006-1.79 4.263-4.083 9.728-.08 14.616.353.434.046 1.41.046 2.462l-3.04-2.302c.82 6.045-.95 11.644 1.476 17.12-2.148.43-5.44-.626-4.762 3.544l-.675-3.373c-1.687 5.703-6.964 8.757-8.653 14.294l-1.104-5.453c-1.29 1.948.038 3.592-1.108 5.202-3.653 5.13-4.338 5.573-10.645 4.06-1.066-.256-2.12-.594-3.2-.748-.83-.118-1.608-.144-2.096.98-.498 1.148.048 1.43.803 1.983 1.233.907 1.18.983 1.228 3.117-1.055-.567-.58-2.676-2.026-2.16-.605.214-.986 1.294-1.272 2.057-.127.337.283 1.25.363 1.236 3.684-.475 7.13 3.404 10.795.782 1.104-.79 4.563.535 3.202-3.003-.016-.035 1.4-.562 2.018-.68 1.824-.355-.114 2.274 1.566 2.36 1.225 1.973-1.152 3.72-.724 4.71-.763-.98 4.527-2.573.664-4.653 1.41-2.28 6.637-3.094 7.995-1.237.497.68-.04 1.157-.393 1.614-1.395 1.81-.954 5.032-4.684 5.147-1.217.038-.482 2.53-.524 4.107 1.933-.343 3.756-1.59 4.57 1.67.77 3.073-1.06 3.095-2.82 3.855-4.703 2.03-9.442 3.837-14.6 4.415-1.29.146-2.46 1.058-3.39 2.118-.883 1.007-1.92 1.146-2.88.104-1.9-2.062-3.543-.862-5.09.43-1.276 1.063-1.894 2.854-3.754 3.307-.797.193-.806 1.053-.554 1.536.562 1.075.896.395 1.513-.182.81-.757.56 1.084 1.374.844-2.074 2.913 3.237 2.146 2.26 4.54-.397.97-1.167 1.49-2.117 2.188-1.605-4.146-5.472-4.63-8.844-5.783-1-.344-2.37-.83-3.3.597-1.02 1.562-.482 2.687.774 3.715l-.055-.063c2.067 4.886 1.534 6.026-2.72 10.114-3.566 3.433-5.825 7.934-7.56 12.49-.817 2.15-2.112 4.077-2.626 6.8-.77-1.646-1.758-2.157-3.116-2.553-1.885-.546-3.84-1.066-4.42-3.797-.42-1.98-3.26-1.096-4.807-2.02-.88-.527-2.384-.36-2.405-1.858-.02-1.418 1.063-1.63 2.235-1.98 1.36-.4 2.382-2.128 3.29-2.503 2.837-1.177 3.52-5.962 8.174-4.314 2.716.96 5.258-1.79 7.868-2.874 1.266-.526.026-1.654-.066-2.446-.055-.46-1.1-.873-1.76-1.178-1.823-.845-3.986-1.65-3.246-4.158.757-2.566 1.41-5.868 5.57-4.208.186.075.472-.1.737-.166-.063-1.155-1.08-.983-1.733-1.392-1.122-.703-2.586-1.244-1.112-3.332 1.91-2.703.192-5.57-.75-8.273-.19-.554-.784-.955-1.115-1.476-1.142-1.79-1.55-4.07-.622-5.664 1.052-1.806 2.785.274 4.213.532 2.39.43 4.21-.71 3.647-2.79-.202-.742-.244-1.894-2.085-1.617-1.752.262-3.73-.832-5.577-1.435-.725-.238-1.39-.908-1.08-1.722.972-2.553.82-5.59 3.652-7.764-1.48 3.36-.718 5.464 2.33 7.324 2.996 1.828 3.068-.217 3.585-1.92.44-1.45-.674-3.265 1.005-4.484 1.256.53-1.6 2.98 1.27 2.707 1.522-.144 3.605 1.485 4.004-1.84.29-2.405 2.518-3.314 4.838-3.46 2.156-.133 4.11-1.008 4.61-3.05.98-3.983 4.553-7.3 3.102-11.92-.24-.758.12-1.67.874-1.887 4.182-1.213 4.34-5.23 5.803-8.28.913-1.902 3.7-3.402 1.66-6.158-.175-.235.1-.455.57-.52 1.923-.27 2.31-1.02 1.393-2.38-.25-.375-1.153-.048-.963-.764.168-.63.697-.55 1.37-.604 2.91-.233 1.448-2.926 1.446-4.032 0-1.994.013-3.93.6-5.81.458-1.475 1.077-3.995 2.265-3.77 2.077.395 5.214-1.848 6.327 1.87.076.25.558.38.85.565-2.4 1.79-.617 2.61.868 2.374 2.07-.33-.246-1.67.117-2.625.25-.654-.017-1.485.044-2.23.3-3.71.273-7.29-3.977-9.435 2.844-.99 3.874-2.194 3.333-5.02-.78-4.067-.544-8.16 3.54-10.862.772-.513 1.83-1.24 1.55-2.372-1.32-5.32 4.205-7.415 5.346-11.558 5.965-1.912 5.605-7.573 7.17-12.095.998-2.884 3.248-4.763 5.494-6.573.872-.7 1.8-1.26 2.285-2.312h.75v.01zM1574.176 1742.5c-.784.23-.64.898-.765 1.486-.537 2.532-2.328 4.123-4.613 4.73-1.057.28-.863-1.63-1.247-2.48-1.096-2.42.088-4.416 2-5.93 1.343-1.06 3.03-.826 4.626-.807v3zM1375.426 2214.25c-1.758-1.677-3.85-2.477-6.762-2.247 5.294-3.312 9.878 1.706 14.604-.146.13 1.75-1.62 1.348-1.843 2.394h-6zM1504.666 2017.646h-5.24c1.963 4.438 1.2 8.632.153 12.834-.634 2.54 1.76 6.384 4.62 7.268-3.195-.19-3.496 2.096-2.646 3.658 2.726 5.003-.153 9.738-.358 14.552a58.444 58.444 0 0 1-.56 5.944c-4.51-.795-7.802-5.043-12.866-4.406-1.22.154-1.295-.904-1.764-1.56-1.54-2.15-3.642-3.155-6.267-2.89-1.946.197-4.044-2.396-3.143-4.212 1.164-2.342 1.27-4.945 2.146-7.337.563-1.54-.266-1.98-2.153-2.312 4.215-.547 4.602-4.1 4.965-6.275.476-2.828 2.168-4.282 3.873-5.447 3.723-2.545 5.002-5.927 5.6-10.162.54-3.853-.316-8.345 3.628-11.148.862-.613 1.483-2.334 2.595-1.625 1.044.666 1.588 2.312 1.123 3.683-.55 1.62.188 2.946.358 4.413.448 3.857 2.434 4.982 5.936 5.023M1500.182 1941.29c1.26 1.812 3.013 1.344 4.61 1.56 4.736.644 4.646.314 3.452-4.395-.604-2.383-1.65-3.812-3.257-5.39-1.905-1.873-1.37-2.36 1.17-3.267 2.034-.726 3.764-1.104 5.96-.665 1.998.4 4.395-.357 3.315-3.215-.898-2.38.614-1.874 1.79-2.28 1.672-.576 5.73 1.475 3.872-3.355-.29-.76.703-.457 1.288-.513 7.463-.724 8.348.123 7.946 7.925-.23 4.512-.584 9.02-.674 13.534-.018.858.178 1.42-.798 1.577-4.99.808-4.996 5.342-6.404 8.728-1.45 3.49-2.48 7.15-3.843 10.68-.838 2.17-1.953 4.098-4.422 1.304-.332-.377-1.108-.444-1.695-.5-9.012-.83-7.87-1.96-9.565-10-.334-1.585.07-3.554-2.284-4.02-.26-.05-.448-.547-.636-.86-.754-1.258 3.193-.5 1.068-2.646-.725-.74-1.42-2.29-.894-4.205M1451.225 2016.958c-.22 1.015 2.137 1.38.68 2.73-.307.283-.744.624.022 1.05.757.418 1.906-1.078 2.038.072.166 1.44-1.134.952-2.092.83-.854-.11-.812.89-.947 1.37-.308 1.086.706.714 1.15.707 1.262-.02 3.255.528 3.06 1.156-.45 1.465-.434 3.853-2.568 4.045-1.843.166-1.648 1.683-1.65 2.362-.007 1.49-.867 2.642-1.422 4.352.73-.29 1.05-.347 1.287-.518 4.27-3.058 4.3-3.064 4.873 2.06.122 1.09.334 2.147 1.51 2.187 1.363.046 1.07-1.22 1.182-2.11.138-1.098.332-2.187.548-3.558 1.268 1.158 3.09 1.63 3.213 3.626.082 1.354.337 2.98-2.048 2.573-.575-.097-1.536.28-1.842.75-.705 1.09.687.964 1.102 1.42.505.558 1.13 1.022.483 1.88-.514.688-1.197.936-1.972.737-.944-.242-1.84-.675-2.78-.928-3.07-.828-9.32 1.02-9.11 3.145.468 4.697-4.435 5.53-5.222 8.973-1.02 4.473-4.61 2.76-6.724 2.184-3.168-.867-4.995-.058-6.688 2.35-.23.33-.907.352-1.623.6 1.115-4.847.656-9.83 2.337-14.4 1.166-3.172 2.97-6.118 4.592-9.107.626-1.153 1.878-1.23 2.99-.858.778.26 5.398 1.365 5.7 1.048.852-.896 2.25-2.216.22-2.866-3.384-1.083-2.246-2.987-1.597-5.143.41-1.358 3.127-2.806.143-4.36-.054-.026.296-1.13.645-1.588 3.676-4.813 4.037-10.244 3.438-16.017-.12-1.174-.418-3.164.906-3.968.604-.367 1.73.812 2.594 1.505 1.595 1.282 3.316 1.913 4.264 4.27.724 1.797 3.382 3.964 5.727.688.494-.692 1.62-1.032 1.948-.56 1.24 1.776 4.354 1.755 4.354 4.692 0 2.604.17 5.205.268 7.81.05 1.306-.413 1.76-1.753 1.26-1.75-.652-3.86-1.763-4.206-3.126-.512-2.024-4.953-1.776-2.737-5.044.123-.184-.798-.177-1.17-.29-1.98-.604-2.338 1.06-3.175 2.066-.28-.228-.553-.47-.86-.662.258.26.598.412.91.604"/><path d="M1502.918 1989.98c-3.292-3.898-4.584-3.8-8.782 1.28.403-2.596-1.912-4.766 1.382-6.374 1.408-.688.238-1.66-.442-2.35-1.048-1.06-1.977-2.367-3.724-.86-1.07.92-.73 1.32.15 2.065.502.423.717 1.275.887 1.977.27 1.118.987 2.69-.376 3.206-1.265.477-2.387-.34-2.724-2.05-.187-.945-1.19-1.73-1.826-2.59-.78 1-2.062 1.208-2.704 2.724-1.812 4.275-4.222 8.23-7.795 11.455-2.153 1.943-1.995 4.882-1.57 8.293 4.116-2.476 9.222-1.73 12.588-5.485.693-.773.575.158.815.343 1.21.93 2.65 1.2 4.54 1.365-1.368 1.635-2.663 2.938-3.66 4.44-1.012 1.522-2.617 3.074-.66 5.123.813.85.4 1.788-.377 2.638-1.286 1.4-2.707 2.438-4.707 2.006-4.692-1.017-8.112-4.07-11.984-6.69-4.863-3.29-2.07-6.56-2.01-10.027.074-4.423 3.21-8.086 2.493-12.893-.37-2.49 1.482-5.376 4.617-6.822 3.252-1.5 6.02-3.906 9.312-5.52 3.285-1.605 4.76-1.385 5.616 2.37 1.91-1.604.843-3.913 1.375-5.955 1.254.42 3.062-.097 2.888 2.255-.036.496.498 1.067.84 1.553 1.25 1.768 5.25 1.02 4.367 4.98-.13.586 2.957 2.105 3.728 1.083.943-1.253 2.605-3.377.788-5.18-.808-.8-1.1-3.085-3.326-1.866-.69.38-.468-.75-.38-.982.605-1.592 1.656-3.01 1.482-4.872-.094-.993.575-.582 1.185-.51 1.357.156 2.74.06 4.108.162.67.05 1.633-.4 1.924.57.263.876-.51 1.304-1.182 1.624-1.622.774-1.35 1.178-.466 2.83 1.245 2.33-.02 5.173-.786 7.83-1.038 3.596-4.52 5.412-5.664 8.806l.058.05zM1532.16 2013.896c-2.272-.603-5.397 1.42-6.327-1.633-.816-2.68 1.786-4.483 3.51-6.334.658-.71.992-1.763 1.72-2.36 2.053-1.688 2.698-5.453 7.226-3.328 2.525 1.187 6.205-.69 9.458-.562 2.15.084 3.28.72 3.4 2.9.155 2.867 1.556 4.992 3.28 7.324 2.485 3.358 2.046 7.785 1.67 11.796-.665 7.135-1.524 14.255-1.374 21.43.05 2.345-.486 3.606-3.038 3.113-2.768-.535-4.952 1.188-7.413 1.833-2.192.574-4.32.783-6.487-.202-.84-.382-1.184-.81-1.003-1.658.184-.863.934-.678 1.498-.694 2.707-.09 5.45.27 8.072-.756.518-.203 1.554.102 1.403-.756-1.126-6.485 3.67-1.304 4.88-2.904 2.533-4.78.29-10.325 1.983-15.454.343-1.04-.175-1.61-1.472-1.982-2.572-.74-5.17-.396-7.713-.752-1.61-.225-4.834 1.912-4.62-2.458.015-.31-3.607-1.11-5.546-1.14-4.837-.073-9.582-1.463-14.373-.702 2.7-4.047 7.662-2.65 11.265-4.722M1543.104 1863.145c.994-5.393 2.728-10.522 4.482-15.634.513-1.494.32-3.853.623-4.25 1.81-2.365-1.02-4.547.29-6.943.828-1.52 1.202-3.794.314-6.004-.522-1.3-.82-3.477 1.562-4.703 1.222 3.806 2.37 7.444 3.567 11.068.315.96.315 1.447-.67 2.254-1.93 1.58-3.857 3.688-2.326 6.433 1.77 3.18-.46 5.766-1.83 7.396-2.338 2.784-3.06 5.944-4.24 9.057-.272.716-.684 1.314-1.773 1.328M1455.45 1972.438c1.036 1.77-.54 4.378 1.652 6.106.52.41-.124 2.21-.854 2.08-2.38-.43-2.166 1.598-2.73 2.655-1.064 1.985-1.94 4.21 1.748 4.47 1.312.093 1.527 1.268.946 1.795-1.796 1.63-1.592 3.962-1.83 5.822-.398 3.13-2.034 3.777-4.523 3.602-2.534-.182-4.948-.5-3.37 4.31-2.79-2.9-2.48-5.3-.572-6.69 2.897-2.108 3.342-4.948 4.258-8.017 1.207-4.047 3.168-7.862 3.727-12.145.184-1.437-1.41-3.617 1.547-3.99M1522.37 2073.347c-3.77-1.39-6.52 2.19-10.49 1.312-1.54-.342-2.118-.926-2.96-1.788-.674-.688-1.08-1.513-.45-2.268.49-.588 1.295-.102 2.016.004 3.92.57 7.866.95 11.806 1.396.025.448.052.894.08 1.343M1467.742 1976.254c-2.673 3.596-2.673 3.596-6.91 1.098 2.043-1.922 4.13-2.725 6.91-1.098"/><path d="M1461.344 1984.395c-.35 1.52-1.144 1.89-2.447 1.898-1.64.014-1.573-.888-1.77-2.09-.342-2.08 1.565-2.543 2.396-2.528 1.4.023-.07 2.668 1.82 2.72M1486.83 1868.477c-.902-2.56-2.305-4.57-1.766-7.133 2.487 2.426 2.73 3.338 1.766 7.133M1499.42 1998.998c-1.055 3.1-1.196 3.18-5.33 3.516 1.348-1.987 3.917-1.834 5.33-3.516M1497.688 1882.76c.032-4.848 3.034.193 4.058-1.355-.91 2.06-2.062 3.267-4.11 1.294l.052.06M1467.158 1993.235c-.33-2.087.083-3.305 1.61-3.93.252-.105.95.16.962.29.148 1.83-1.62 2.126-2.572 3.64M1523.008 2043.715v8.02c-.125.002-.25.004-.375.004v-7.833c.125-.065.25-.13.375-.192M1508.042 2018.137c2.232-.546 3.92-.5 6.306-.04-2.38.552-4.07.53-6.306.04M1502.86 1989.932v4.783c-.42-1.595-1.442-3.222.06-4.732-.002-.003-.06-.05-.06-.05M1518.493 2040.41h4.02c-1.713.837-2.927.67-4.02 0M1489.97 1994.732c-.72-1.075-.604-2.243-.34-3.572 1.1 1.192.173 2.404.34 3.572M1529.92 2039.822c-1.41.56-2.336.53-3.547.115 1.155-.657 2.104-.465 3.546-.115M1533.74 1785.487c-.407.35-.746.88-1.096.89-.613.012-.41-.632-.418-1.033-.01-.61.424-.84.912-.713.23.06.363.497.602.857"/></g></svg>