<svg id="圖層_1" xmlns="http://www.w3.org/2000/svg" width="1200" height="900" viewBox="0 0 1200 900"><title>layer_agriculture</title><path fill="#A2FDDC" d="M434.3 674.673c2.687 1.88 4.971 4.299 8.06 5.776 3.09 1.478 3.493 3.09 4.567 5.776a85.31 85.31 0 0 0 9.27 16.522c1.209 1.746 4.164 1.746 6.717 1.478a24.975 24.975 0 0 0 11.015-2.955c.94-.537 1.479-.537 1.747.672.141.462.32.911.537 1.343 1.074-4.701 4.567-.402 6.717-1.746 2.149-1.343 3.492-3.761 4.299.807.134.806 2.955.671 3.089.134.672-6.045 4.567-2.955 7.523-2.687.402-3.896-4.434-4.567-4.836-8.061-.403-3.492-1.747 2.688-3.493-.134s-4.299-3.493-5.239-6.717-2.687-7.12-2.418-11.687a34.374 34.374 0 0 0-2.687-15.718c-.537-1.209.269-1.88.403-2.687.134-.806.672-2.821-.672-3.09-3.762-.671-5.508-5.91-10.479-4.433-1.074.269-5.642-.537-2.955-4.567a2.956 2.956 0 0 0 0-3.627 1.209 1.209 0 0 0-2.015 0c-.806.94-2.015 1.478-1.478 3.358 1.611 4.971-3.225 8.06-4.299 12.225-.269 1.209-2.553 1.209-3.09.671-.537-.537-3.762-4.164-2.821-5.775 3.358-5.777 3.762-13.165 9.673-17.599.671-.537 1.343-2.283 2.418-.134 1.074 2.149 1.746.537 2.687 0 3.761-1.881 6.045-10.209 3.627-13.971s.402-2.553 1.478-2.553c1.074 0 4.164-1.746 5.508-3.627-.807-1.074-1.881.269-2.149 0s.134-2.015.94-2.418c5.776-2.687 7.388-8.463 9.403-13.702 2.015-5.238 3.09-6.716 6.179-8.597 3.09-1.881 1.881-4.971 4.03-6.583 5.239-3.896 10.344-7.925 15.852-11.552 2.955-2.016 5.776-3.225 7.254-7.12a25.917 25.917 0 0 1 6.851-9.135c3.225-2.955 5.508-7.926 7.389-12.225.806-1.746-2.283-4.97-4.164-6.985-1.881-2.015-4.03-7.522-.94-11.015.94-1.075 0-1.479 0-2.149-.403-8.598-8.061-13.165-10.747-20.419-.672-1.881-2.552-4.299-.672-5.508 4.702-3.09 2.688-8.194 4.299-12.09 1.612-3.896-.806-5.104-2.687-5.911-4.299-2.015-2.149-3.761-.402-5.507a116.38 116.38 0 0 1 9.537-8.464c1.746-1.343 2.418-3.492 3.627-5.104 1.209-1.611-1.746-2.955-2.821-3.089-3.357-.27-4.029-2.688-5.238-5.105s-2.553-6.447-6.583-7.254c-4.029-.806-1.478-2.015-1.478-3.09-.134-4.97 0-10.074 0-15.045 0-2.955.94-4.567 4.567-5.104 6.313-.94 12.493-2.821 18.941-.94.94.269 2.552.403 2.955-.135 3.762-5.238 9.135-3.492 14.105-3.761a11.15 11.15 0 0 0 9.269-5.643 69.226 69.226 0 0 1 10.209-11.418c1.344-1.344 2.821-1.612 3.896-.135 1.074 1.479 4.97 2.418 6.717 4.836 1.746 2.419 5.642-3.224 5.91-5.91.371-2.445.551-4.915.537-7.389-.672-13.567 5.776-24.448 12.493-35.329 3.762-6.045 6.985-12.493 11.016-18.404 1.746-2.552 3.761-4.567 6.448-4.836 2.687-.269 4.029-2.015 3.761-4.836a17.102 17.102 0 0 1 0-4.97c1.478-7.389 2.955-14.643-4.971-19.613a4.452 4.452 0 0 1 0-2.015c2.553-.135 2.149 3.089 4.567 2.955.135-.671 0-2.284.672-2.552 6.985-3.896 4.299-9.806 3.493-15.448-1.344-8.866-2.016-17.866 1.074-26.598 1.075-2.955 1.209-6.179 3.224-9.672 5.508 9.94 7.255 22.031 19.747 26.598-4.97.671-4.567 3.493-3.761 6.313.134.403.806.537.402 1.075-4.97 7.388-2.955 15.717-3.492 23.777 0 .806 1.612 4.568-2.149 1.88-.672-.537-.672.538-.537 1.209.134.672 0 3.896 1.478 5.508 3.492 3.896 3.224 9.27 6.045 13.568 1.478 2.148-1.478 2.955-2.418 4.164-3.09 4.03-3.358 7.791-.135 9.94 3.225 2.149 3.896 2.553 5.643 5.104-4.971 1.478-8.866 5.508-15.18 3.896-2.149-.537-6.448 2.284-7.791 6.046a3.225 3.225 0 0 1-2.688 2.552c-2.148.537-10.746 11.149-9.94 12.762 2.956 5.776.672 11.821 1.344 17.732a6.587 6.587 0 0 1-.806 4.298c-.672 1.075-1.209 1.612-2.284 1.344-4.971-1.344-8.463.135-10.478 4.971-.403 1.074-1.747.94-2.553 1.343-3.627 1.612-6.448 4.03-3.896 8.329 2.552 4.299-2.687 5.239 0 8.328a8.865 8.865 0 0 1 2.283 8.598c-.806 3.224 2.821 5.239 6.045 5.776 3.225.537 2.418.403 2.016 2.955-1.075 6.18-1.612 12.493-4.299 18.136a38.552 38.552 0 0 0-4.433 13.701c-.538 4.836-3.225 9.807-4.702 14.777a14.37 14.37 0 0 1-4.433 7.119c-4.567 3.762-4.702 8.463-3.358 13.837 2.015 7.925 0 15.18-3.627 22.567-5.239 10.479-13.165 19.344-17.732 29.957a26.986 26.986 0 0 0-2.015 10.881c.134 3.224.806 6.717-1.612 9.672 3.224.269 4.299-2.016 6.717-3.358-1.881 4.701-.403 9.135-2.015 13.434-.538 1.611.269 3.492-2.419 4.164-2.687.672-.671 2.418-.537 3.627.142.421.503.73.94.806 1.881-.269-.402-2.015 1.075-2.687s.94 3.09.537 4.567c-2.149 6.717-.807 13.299-.135 20.016s3.896 15.986 1.209 23.643c-1.746 4.836-1.074 8.598 0 13.165 1.075 4.567.807 8.598-2.552 12.09l-.538.537c6.18 4.567 0 9.135-.402 13.568-.403 4.433-3.762 11.552-4.971 17.463-.672 3.09-1.881 3.896-5.508 3.896 3.09 1.209 4.03 2.418 3.358 5.239-1.478 5.776-2.552 11.687-5.104 17.194-4.03 8.598-3.224 18.404-6.985 27.136s-6.851 13.836-9.537 21.09c-1.479 3.896-3.628 1.209-4.567-2.149-.672 5.374-3.225 7.12-7.792 5.911.403 1.881 2.821 2.955 1.075 4.567-1.747 1.612-2.821.672-4.434.672-5.776-.269-11.284-3.225-17.329-.94-1.746.672-4.298-.806-6.582-1.344-2.283-.537-4.701-2.552-7.926-.269-3.224 2.284-5.373-2.283-8.06-1.611-2.687.671-4.299-2.418-5.643-4.434l-2.687-4.164c-2.552-3.896-3.224-7.926-.134-11.956 3.089-4.03 3.627-9.537 6.447-13.836 1.478-2.149-.402-3.358-1.611-4.567-6.448-6.717-12.762-13.567-20.688-18.404-5.643-3.492-6.852-8.328-7.389-14.104a367.914 367.914 0 0 0-.403-3.896c-.806-10.479-9.269-15.717-15.717-22.3v-2.955l.407-.534zM757.641 127.667c-5.508 2.015-8.194 7.523-12.896 10.612-4.701 3.09-5.508 7.12-6.851 11.956-1.344 4.836-4.03 8.597-9.538 9.672-1.074.269-.134.94-.269 1.478-.806 3.09-1.074 6.448-4.701 8.06-3.628 1.612-2.149 3.627-1.881 5.104.94 3.761-1.075 6.179-3.358 7.792-2.284 1.612-2.955 7.12-5.643 10.075-2.687 2.955 1.478 4.567 0 7.522s-6.313 9-8.194 14.239c-1.88 5.239-3.492 7.522-3.224 11.956s-.135 5.374-2.955 6.985c-2.821 1.612 0 1.075.269 1.747.269.671.94 2.955-1.478 3.224-2.418.269-.94.135-.807.672 2.284 6.717-5.104 10.209-5.238 16.12a.537.537 0 0 1-.27.403c-9 3.627-4.701 13.299-8.597 19.344-2.149 3.224-3.493 5.911-7.926 6.179-1.881.134-4.702.672-5.373 3.493-.672 2.821-3.896 4.433-7.389 3.358 2.821-4.433 2.149-9.269.403-13.836-.672-1.746.537-.806.94-.94 5.238-3.089 8.463-8.194 12.09-12.896.537-.671.402-1.478-.403-2.687s-2.821-6.448.403-9.538c5.776-5.642 3.896-13.03 4.03-19.747.134-9 4.164-14.105 13.164-15.448a3.493 3.493 0 0 0 2.553-2.015c3.896-5.104 7.926-10.209 11.553-15.448 3.627-5.239 5.507-13.568 1.746-20.15-3.762-6.583-.403-8.598 1.612-12.359a9.934 9.934 0 0 0 1.611-6.045c-.537-6.448 1.344-12.762 2.016-19.075a2.418 2.418 0 0 1 .671-1.747c6.583-2.284 10.881-8.463 18.001-9.94a2.96 2.96 0 0 1 1.478 0c6.448 2.418 6.448-1.612 6.045-6.045h1.075c4.701 4.971 11.015 5.642 17.194 7.12v1.074l.137-.269z"/><path fill="#FEFEFE" d="M757.641 126.592c-6.985.672-13.434.134-17.061-6.985h9.806c7.255 0 7.255 0 7.255 6.985z"/><path fill="#A2FDDC" d="M499.72 782.542a3.358 3.358 0 0 1 5.105 0h-5.105zM653.129 393.647c-2.283-7.12 1.344-11.016 5.642-14.374 4.299-3.358 4.567 1.478 6.985 2.015 2.418.538 1.479 1.612.94 2.688l-8.328 22.03c-1.747-4.567.269-9 .537-13.434.134-2.015.134-4.97-1.344-5.373s-2.418 2.015-2.955 3.896a11.395 11.395 0 0 1-1.477 2.552zM436.584 669.03c1.074-1.611 0-4.299 2.283-4.97.93.275 1.676.972 2.015 1.88.268 2.822-2.687 2.15-4.298 3.09z"/><path fill="#FEFEFE" d="M557.08 444.022c4.567-.94 4.836-3.762 3.225-7.389 2.015-1.074 4.567 6.717 5.91-.537.269-1.344 1.747-2.821-.269-3.896-2.015-1.075-2.418-1.612-4.433-.672-4.971 2.552-4.971-2.821-6.582-4.971a5.507 5.507 0 0 1 .671-7.254c.807-.806 3.627-.269 4.836.672s3.627 3.09 3.225 5.508c-.403 2.418.672 2.82 3.224 3.627 6.582 2.015 10.479-.807 13.434-5.911s4.701-.806 6.717-.134c2.015.672 1.074 2.552.672 4.164a7.923 7.923 0 0 0-.135 3.896c1.478 5.104-.403 5.374-5.776 6.448s-8.194 1.074-11.956 2.553c-3.761 1.478-4.029 3.357-.806 6.716-3.627-2.687-9.269 4.971-11.821-2.82h-.136zM532.497 583.595c-2.015 3.761-6.313 4.567-9.269 7.119-2.955 2.553-3.09-1.074-4.299-2.283s-1.209-2.015.269-3.627c3.896-4.031 6.986-4.568 13.299-1.209zM532.9 767.631c-.806.538-1.612 1.209-2.015 1.075a15.006 15.006 0 0 1-2.553-2.015c.672-.672 1.344-1.881 2.016-2.016.672-.133.269 2.687 2.552 2.956zM550.229 702.883c-1.074 3.09-1.074 3.09-4.702 2.418.941-2.284 3.494-.807 4.702-2.418zM558.827 693.748c-.94 0-1.881-.403-1.478-1.075a5.78 5.78 0 0 1 2.283-2.418c.537-.269 1.478.672 1.344 1.612a2.15 2.15 0 0 1-2.149 1.881zM560.842 687.435a1.613 1.613 0 0 1-1.612-1.478c-.134-1.209.94-1.209 1.747-1.075.806.135 1.88-.269 1.88.94s-1.343.806-2.015 1.613z"/><path fill="#FEFEFE" d="M557.215 444.022a7.933 7.933 0 0 1-2.553-5.776c2.821 1.611 2.553 3.761 2.553 5.91h.135l-.135-.134zM511.944 705.301c2.015-.135 3.358-2.016 5.508-1.075-1.612 1.343-3.09 2.284-5.508 1.075zM540.423 706.644h-5.776v-.402h5.776v.537-.135zM575.887 483.785c-.806-1.612-1.074-3.09.94-4.299 1.075 1.881-1.746 2.687-.94 4.299zM568.768 467.934a9.67 9.67 0 0 1 0 6.045 9.263 9.263 0 0 1 0-6.045zM555.334 618.924c2.149-.537 2.955-1.88 3.762-.939.806.939-.269 1.209-.94 1.343l-2.822-.404zM507.377 700.599a2.808 2.808 0 0 1-.94.94 3.359 3.359 0 0 1-1.88-1.074c-.27-.537.537-.537.939-.537.403 0 1.344-.404 1.881.671zM673.95 272.747a10.756 10.756 0 0 0 2.016-6.313c.269-3.762 3.896-3.627 5.776-5.239s1.746 2.552.94 3.896c-.807 1.343-6.583 4.03-5.105 9 0 .134-3.358 1.612-3.627-1.478h-.134l.134.134z"/><path fill="#FEFEFE" d="M674.085 272.613l-1.746.672c.671 2.418-1.075 2.821-2.553 2.284-1.478-.538-.806-2.149 0-3.358s1.209-2.284 1.881-3.762a4.97 4.97 0 0 1 2.283 4.299h.135v-.135zM691.816 224.924c-2.148-.806-1.746-2.418-1.88-4.03 1.478 1.075 2.687 2.15 1.88 4.03zM685.101 256.224a5.926 5.926 0 0 1-1.881 1.209c-1.075.134-1.209-.806-1.075-1.612.135-.806-.134-1.075.807-.672l2.149 1.075z"/><path fill="#A2FDDC" d="M586.23 431.126c-.134 1.881-.94 2.956-2.015 2.553s-.672-1.344.403-1.746l1.612-.807z"/></svg>