<svg id="圖層_1" xmlns="http://www.w3.org/2000/svg" width="1200" height="900" viewBox="0 0 1200 900"><title>layer_contour</title><path fill="none" stroke="#24CCAF" stroke-width="2" stroke-miterlimit="10" d="M433.36 670.777c2.954-8.33 8.327-14.777 15.18-20.42 2.417-2.016 3.492-6.045 4.7-9.27a31.298 31.298 0 0 1 9.673-13.433 9.005 9.005 0 0 0 3.627-9.136c-.537-3.627.537-6.045 4.164-7.926 6.717-3.627 10.88-9 13.837-16.39 4.567-11.552 13.3-20.015 24.18-26.06 3.628-2.017 5.91-5.105 8.33-8.062 4.298-5.238 6.852-11.955 12.492-16.254 1.746-1.344-.27-2.82-.806-3.762-3.09-5.51-5.644-11.15-4.567-17.73 1.073-6.584-1.21-15.584-6.583-21.764-2.688-3.09-3.358-6.313-1.21-9.807a12.09 12.09 0 0 0 .135-12.225c-2.82-5.642-1.074-9.403 3.493-12.762l2.418-1.746c6.985-4.567 7.12-6.583 1.61-12.763-3.088-3.492-5.91-7.39-9.133-11.016a3.635 3.635 0 0 1-.808-2.686v-17.062c0-2.418.808-3.492 3.358-3.76 13.03-1.21 25.792-4.3 38.822-5.106 4.3-.27 6.447-4.566 8.865-7.52s6.045-6.18 8.866-9.404a2.417 2.417 0 0 1 3.896-.27 48.748 48.748 0 0 0 4.298 3.225c3.627 2.418 8.865.135 8.328-4.03-1.61-12.357 2.956-23.238 7.792-33.984 4.836-10.747 10.746-18.137 16.39-27 1.745-2.69 3.895-4.973 6.58-5.106 2.69-.134 3.762-2.418 3.762-5.238s-.806-7.39.94-10.747c1.747-3.358.135-7.658-3.358-10.612-1.343-1.074-3.627-2.148-2.418-4.298 1.21-2.15 3.09-.806 4.567-.67 1.48.133 3.63-.54 4.567-3.762 2.284-7.12-1.745-13.165-1.61-19.88.27-9.27 1.073-18.27 5.373-27.54l8.866 17.33c2.552 4.835 6.984 7.253 11.954 8.462 8.194 2.015 13.03-2.955 17.465-8.866 2.418-3.09 3.627-5.776 1.343-9.538a4.03 4.03 0 0 1 .538-5.105c5.373-5.508 6.18-12.36 4.97-19.21-1.21-6.85 2.418-12.09 7.254-16.388a3.35 3.35 0 0 1 1.48-1.21c6.983 1.48 8.597-4.7 11.82-8.193 3.225-3.493 5.643-7.523 8.464-11.284.282-.213.513-.49.67-.806 0-5.24 3.226-10.88.136-15.583-3.09-4.703-2.15-9.807.806-14.24a6.58 6.58 0 0 0 1.612-4.433c-.537-6.85.672-13.433 2.015-20.15.136-.806 0-1.88.808-2.15 6.583-1.88 10.747-8.328 17.6-9.805a3.633 3.633 0 0 1 2.014 0c7.39 3.09 5.643-2.418 5.776-6.045h1.074a24.442 24.442 0 0 0 17.194 6.045c6.046-.134 8.865 4.433 9.94 10.075v7.12c-.27 8.463-4.433 14.374-10.344 20.15s-8.6 12.76-6.448 21.09a71.555 71.555 0 0 1 2.016 22.03c-.135 2.82-.94 4.702-4.03 5.508-10.208 2.687-11.417 14.374-7.253 20.284 4.163 5.91 4.432 10.074.938 15.582-3.493 5.508-1.344 9.135.672 13.433 2.016 4.3 5.507 11.553 8.463 17.195 2.955 5.642 2.283 7.792-1.21 11.418-3.49 3.627-7.118 8.463-8.327 14.105a10.62 10.62 0 0 1-4.3 6.045c-6.85 5.24-10.21 11.553-7.52 20.553 1.745 5.777.536 11.018-5.51 14.778a33.587 33.587 0 0 0-11.283 11.955 32.253 32.253 0 0 1-8.328 9.27c-5.91 4.567-6.852 10.074-2.418 16.12 4.433 6.045 5.642 11.15 4.03 18-.94 3.896-.27 8.062-.403 12.09-.135 4.03-.94 5.24-3.762 6.583a9.257 9.257 0 0 0-4.7 5.643c-2.554 6.58-4.436 13.433-7.255 19.88-1.075 2.553-.403 4.837.806 7.12 3.627 7.12.27 14.374-7.52 16.254a8.463 8.463 0 0 0-6.584 5.508c-.538 1.344-1.345 2.688-2.017 4.03-3.09 6.312-2.553 5.104 3.627 8.33 8.463 4.432 17.062 3.895 25.792 4.7 8.73.807 14.644 1.88 22.03 1.745 7.39-.134 7.12.94 8.598 6.448a16.934 16.934 0 0 0 4.03 7.926c1.88 1.883 2.283 4.435 2.283 6.986 0 13.03-1.746 26.062-2.148 39.226-.135 2.82-1.61 4.164-4.434 4.567-7.925 1.073-15.58 4.163-23.776 3.223-2.687-.27-3.896 1.345-3.896 4.03v13.03c.066 2.03-.113 4.06-.537 6.045-2.148 8.598-5.103 11.284-13.835 12.493-18 2.688-14.91 2.553-24.314-9.537-2.955-3.896-5.91-5.104-11.015-4.433a87.51 87.51 0 0 1-41.645-5.104c-5.775-2.148-6.045-2.148-9.135 3.224a38.544 38.544 0 0 1-10.88 11.688 10.61 10.61 0 0 0-4.702 9.94c1.074 17.06-1.746 33.718-5.91 50.24-2.283 9-2.82 18.27-3.762 27.403a69.335 69.335 0 0 1-8.73 29.15c-8.464 14.644-11.554 30.63-13.567 47.018-.672 5.373-2.015 10.612-2.418 15.985-.403 5.374-3.762 11.688-10.21 14.104h-2.955a8.47 8.47 0 0 1-3.76-4.567c-1.346-3.09-3.494-3.762-6.45-2.553-6.85 2.688-13.7 4.567-21.09 1.88-2.148-.805-4.164.673-6.044 1.747a7.655 7.655 0 0 1-8.195.672c-4.7-2.418-9.805-3.357-14.91-4.433-9.27-2.15-15.448-15.046-11.283-23.51 1.88-3.76 3.225-7.79 5.24-11.417s.805-4.836-1.21-7.12a129.504 129.504 0 0 0-20.42-17.866c-3.626-2.552-6.31-5.776-6.18-10.344.136-10.88-5.103-19.075-12.762-26.062a23.078 23.078 0 0 1-2.82-4.164v-4.97l.134-.393z"/></svg>