<svg id="圖層_1" xmlns="http://www.w3.org/2000/svg" width="1200" height="900" viewBox="0 0 1200 900"><title>layer_agriculture</title><path fill="#A975FF" d="M749.58 282.822c-2.015.134-4.164.27-4.7-2.284-.54-2.552-1.076-5.374.27-7.657 1.342-2.283 1.744-.536 2.686.673s-.537 4.164 1.612 5.373v4.03l.132-.134zM747.565 152.788c.536 2.82 2.015 5.642 0 8.866-2.82-2.955-2.42-5.91-.94-8.866h1.074-.135zM617.128 575.4c-1.48-1.075.806-3.896-1.88-4.435a5.51 5.51 0 0 0-5.645 2.553 19.348 19.348 0 0 1-11.015 9.136c-1.88.672-2.956 3.492-4.434 5.104a55.45 55.45 0 0 0-12.627 19.21 42.182 42.182 0 0 0-.94 25.523c.67 2.522.23 5.212-1.21 7.39a18.81 18.81 0 0 0-3.09 11.283c.673 8.866-1.478 17.464-2.148 26.33-.27 3.895-4.03 6.045-4.165 10.343-.135 4.3-2.283 10.344-2.418 15.718a10.188 10.188 0 0 1-1.88 4.164c-3.358 3.358-4.837 8.463-9.673 11.284a78.378 78.378 0 0 0 2.955-13.97c.134-2.554 2.417-2.15 4.03-2.69 1.61-.537 2.282 1.747 2.686-.4 0-1.04-.842-1.883-1.88-1.883-4.03-.135-2.82-2.016-2.15-4.567 2.284-10.075 6.718-19.612 7.793-29.956.832-6.74.786-13.56-.137-20.284-.537-3.358.808-6.985 1.21-10.344.46-6.014-.13-12.06-1.747-17.867-2.283-9.135-1.21-18.136.673-27.27 2.954 1.61-2.285 6.446 3.09 6.85 1.073-4.566 3.49-9.402.937-14.643-1.073.537 0 2.15-.806 2.82-3.357-3.09-3.223-6.716-1.745-10.61 1.48-3.896 5.104-1.074 7.522-2.42 2.418-1.343 2.82 1.48 2.553 3.493-.27 2.017-1.21 2.017.4 2.418 1.613.404 1.48-.937 2.285-1.477a3.492 3.492 0 0 0 1.48-2.955c-.27-6.582 3.223-10.21 9.268-12.358a12.215 12.215 0 0 0 5.91-5.643c1.882-3.627 4.165-2.82 6.718-1.746 2.553 1.076 2.553.807 3.628-.402 1.074-1.21-.135-2.282-1.21-3.09-1.074-.806.94-1.746 1.21-2.687 3.358 1.612 3.358-1.61 3.896-3.224.538-1.612-1.344-2.418-2.553-3.357-1.208-.94-3.76-2.284-3.357-3.897.403-1.61 2.956-1.21 4.434-1.746 1.48-.537 3.225-2.553 4.836-3.896-.672-.67-.402-2.148-1.61-2.283-1.21-.134-2.15-1.88-1.747.403.403 2.283-.135 2.148-1.074 2.015a2.96 2.96 0 0 1-2.688-2.418c-.27-1.88 1.21-.94 1.88-1.21 2.82-1.208 4.567-2.686 3.628-6.31-.94-3.627-.134-5.24-.134-9 4.3 6.044 5.373 12.895 11.82 18.134-2.687-7.388-.672-13.836-2.553-20.016-.27-.94-1.612-2.553.403-3.357 2.015-.808 1.074 1.612 1.746 2.015 4.97 3.493 9.807 7.254 15.984 8.194 6.18.94 6.985-3.224 5.374-7.657a3.245 3.245 0 0 1-.27-1.344c.27-2.688 10.48-10.344 14.643-10.075-9.806 4.03-10.075 12.09-10.88 20.15-.404 4.837-1.882 9.538-6.852 11.82-4.972 2.284-5.24 8.195-7.523 12.36-.806 1.343-.402 4.03-3.357 3.357 0 0-1.344-.136-.537.672 4.836 4.7-1.074 8.462-1.074 12.76 0 4.3 1.746 6.18 4.3 5.643 2.55-.536 6.446.537 7.253 2.284 1.88 4.164 5.104 3.09 8.06 3.896a39.352 39.352 0 0 1 10.21 5.104c1.61 1.074 1.344 2.688-.67 3.492a12.09 12.09 0 0 1-3.764 1.208c-9.805 0-19.61 1.075-29.282-1.88-1.612-.403-.673-.403-.538-1.48.672-3.49-3.492-4.297-4.837-6.85-1.343-2.553-3.76-.135-5.642.27-1.88.404.137 3.093-1.072 4.302zM610.545 502.323c5.508-1.88 6.583-.403 5.776 8.06-1.61-.94-3.49-1.61-4.566-2.955-1.074-1.344-2.418-1.075-3.627 0-1.21 1.074-7.388 1.61-8.06-1.61-.673-3.225-2.42-3.36-4.165-4.702-1.746-1.344-3.492-1.21-2.82-4.165.672-2.954 1.478-4.7 4.03-4.566 6.18.27 6.85-3.896 7.52-8.328.135-1.344 0-2.553 1.075-3.762 1.075-1.21 1.344-3.09-1.343-3.627-2.688-.537-3.09-.27-2.284-2.418s1.478-5.105 3.357-6.986 1.746.537 2.82.807c-2.147 3.63 2.82 6.718.808 10.076-3.896 6.447-2.553 12.492 1.074 18.135a6.982 6.982 0 0 1 .806 5.776.808.808 0 0 1-.672.538c.27.402.27.27.402-.27.136-.54-.4.67-.13 0zM733.058 239.164l5.643.67c-2.82.673-.402 4.3-4.03 3.225 0 .805-.536 2.014-.133 2.417 3.76 3.493-.135 7.522.94 11.284a5.78 5.78 0 0 1-1.21 5.24c-.402-2.956-4.165-1.612-4.97-4.03s-1.747-3.493-1.613-5.105c.397-4.92.353-9.865-.134-14.777 2.016-1.21 2.283 2.15 3.492.94 1.21-1.21.27-2.688-.27-4.164-3.626-11.016-3.357-11.553 6.046-19.344a2.15 2.15 0 0 1 .672 2.552c-5.104 2.015-3.09 5.91-2.283 9.135.806 3.225-2.284 7.793-2.15 11.957zM738.162 272.076c4.164 7.79 2.418 15.583-.672 23.105-1.074 2.822-3.225 4.972-2.15 8.464 1.076 3.493-4.97 6.717-7.656 5.91s-2.82-1.343-1.88-3.625a57.82 57.82 0 0 1 7.12-13.03c.94-1.344 2.015-2.553 1.343-4.03-2.688-5.24.27-8.867 3.492-12.226 3.222-3.36-1.21-2.688.402-4.568zM637.412 463.098c.806 2.955-.672 3.627-2.284 4.3-5.642 2.282-7.52 6.984-7.388 12.627a18.564 18.564 0 0 1-2.82 10.747c-1.882 3.09-1.48 7.254-1.345 11.418a5.643 5.643 0 0 1-2.955-5.776c.537-5.24-1.746-11.15 3.493-15.313.537-.4.67-1.343-.136-1.61-4.3-1.21-2.015-3.763-1.61-6.18.4-2.42.806-3.762 4.433-4.03 3.627-.272 6.985-3.9 10.612-6.182zM648.83 428.17c-.537 1.344 1.21 3.897-2.283 4.165-.807 0-.807.537.27 2.016 3.896 5.51 1.88 12.628-4.435 14.105-3.09.806-2.955-2.15-2.418-4.03a78.728 78.728 0 0 1 3.762-9.537 8.323 8.323 0 0 0 0-8.06 2.948 2.948 0 0 1-.402-.94c-.27-2.016-1.21-4.165.672-6.046 1.88-1.88 1.478-.537 2.418 0 .94.538 2.687 3.226 2.015 5.374-.674 2.15.132 1.88.4 2.955zM658.905 286.852v2.015c0 .67.27 3.358-1.21 3.358-1.478 0-3.09-1.612-4.7-2.284a1.612 1.612 0 0 1-.805-2.82c2.148-3.09.536-4.97-1.612-7.12-2.15-2.15-3.09-4.164.94-5.24.672-.133 1.746-.133 1.88-.402 1.21-2.553 3.493-2.15 4.972-1.075 1.478 1.074.537 3.358-.538 4.433-1.074 1.075 1.21 5.508-2.418 6.583.538 1.745 2.82 1.074 3.627 2.686h-.133l-.002-.134zM701.354 337.228c-2.687-8.464 1.21-14.238 10.345-15.985.535 7.924-7.39 10.208-10.346 15.985zM697.324 318.15a3.09 3.09 0 0 1 4.03 1.075c.806 1.345-.403 2.554-1.48 3.628l-1.073 1.073c-2.015 2.017-4.298 3.763-7.12 3.763-2.82 0-.938-2.15-.67-3.764.673-3.894 1.344-7.117 6.314-5.775zM657.428 386.93c4.164 5.644-1.478 11.285.672 17.195-6.717-4.3-6.717-11.553-.672-17.194zM718.28 328.898c-6.447 2.954-9.403 9.537-15.313 12.225 3.225-4.164 6.447-8.194 9.403-12.493 2.955-4.3 3.627-1.478 5.91.268z"/><path fill="#A975FF" d="M659.04 286.852c0-3.627-1.612-7.388 1.208-10.747.538-.672.94-1.478 2.016-1.21 1.074.27.807 1.344.807 2.016a29.52 29.52 0 0 1-.134 6.45c-.402 1.88-3.492 1.074-3.896 3.357h.135l-.136.135zM675.966 593.132a15.71 15.71 0 0 0 12.627-.134c2.418-1.075 4.702-.807 7.522.672a73.086 73.086 0 0 1-15.313 2.418c-2.418.134-3.627-1.21-4.702-3.09h-.134v.134zM744.207 171.594c-3.225-5.24-5.104-10.612-.403-16.523-1.343 5.778 2.418 11.016.403 16.524zM738.43 196.177c.538 3.76.404 7.388-3.895 11.015.27-4.836-.807-8.866 3.896-10.88h-.134l.135-.135zM745.55 185.027c-.134 1.612.27 3.358-1.478 3.358-1.746 0-3.492-.403-2.553-2.687.94-2.284-.673-5.374 2.148-5.374 2.822.002.54 3.494 1.882 4.703zM651.248 323.525c-.94-2.15-1.074-4.567-3.09-6.313a2.418 2.418 0 0 1 .94-3.76c1.346-.403 1.48 1.074 1.748 2.283.268 1.207 3.627 5.104.402 7.79zM589.188 554.444c-2.15 1.073-3.628.672-3.763-2.016-.134-2.688 1.746-1.61 2.82-1.61 1.075 0 3.358-.674 2.956 1.744-.402 2.418.27 3.225-2.012 1.882zM739.64 234.597c.537 3.627 1.882 7.12-.94 11.82.134-4.835-1.345-8.462.94-11.82zM659.04 377.93c0-2.147-1.075-4.97 2.552-5.373.94-.134 2.418-.27 2.284 1.075a4.702 4.702 0 0 1-4.837 4.298zM616.456 465.65a11.01 11.01 0 0 0-3.896 6.446c-1.21-2.282-1.61-4.7-.402-6.85s2.686 0 4.298.403z"/><path fill="#A975FF" d="M675.966 593.132c-2.956-3.224-4.97-7.12-7.792-10.344 3.493 2.82 7.792 4.97 7.792 10.48h.134l-.134-.136zM543.646 760.78l-4.836 10.344c.002-4.164 1.88-7.522 4.836-10.344zM606.112 527.98c1.343 2.148 2.015 4.163.806 6.58-3.897-1.744-2.955-4.027-.806-6.58zM670.19 484.726c-.404-4.7 1.342-7.255 4.565-9l-4.566 9zM603.56 525.025l.27-6.313c2.15 2.418 2.15 2.686-.27 6.313zM677.712 465.92c.672 3.088 0 4.835-2.015 6.58-.94-2.82 1.074-4.03 2.015-6.58zM655.412 421.05c-.94-2.954-.134-5.372 1.21-8.327.67 3.492-1.344 5.91-1.21 8.328zM684.294 341.93c0-2.283-1.21-4.702.94-6.18a.94.94 0 0 1 .94 1.61c-1.342 1.21-.536 3.09-1.88 4.57zM689.265 460.276c.624.193.98.85.807 1.478 0 .672-.402 1.344-1.074 1.075a1.213 1.213 0 0 1-.807-1.48.94.94 0 0 1 1.075-1.074zM601.545 536.04a6.587 6.587 0 0 1 1.746-1.343.808.808 0 0 1 1.076 1.074 2.156 2.156 0 0 1-1.21 1.345 3.902 3.902 0 0 1-1.61-1.074zM738.564 196.177l1.344-5.24c.94 2.553.806 4.3-1.48 5.106h.136v.134zM643.054 461.217l-3.224 3.09c.134-2.418.94-3.09 3.224-3.09zM584.888 543.025a2.017 2.017 0 0 1-3.225-.807c1.612-1.476 1.88 1.344 3.225.807zM649.636 456.784c1.21-.672 1.075.134 1.075.537a1.075 1.075 0 0 1-.67 1.613 1.34 1.34 0 0 1-.94-.672 5.52 5.52 0 0 1 .536-1.476zM679.055 362.75c-.134.807-.134 1.612-1.073 1.48a1.35 1.35 0 0 1-.807-.94 7.952 7.952 0 0 1 1.21-1.48l.67.94zM571.59 599.715a6.987 6.987 0 0 1 0 5.776v-5.775zM610.545 502.323c.135 1.61-.402 2.82-2.283 2.82a1.476 1.476 0 0 1-.672-1.074c0-2.285 2.418-.404 2.955-1.747h-.134.135zM730.64 249.91v-4.7h.537l.807 4.7H730.64z"/></svg>