<svg id="圖層_1" xmlns="http://www.w3.org/2000/svg" width="1200" height="900" viewBox="0 0 1200 900"><title>layer_specific_agriculture</title><path fill="none" d="M497.705 781.468H482.66c-1.747 0-2.418-.269-2.016-2.016.078-.849.078-1.703 0-2.552 0-212.784-.046-425.568-.135-638.354 0-3.896.402-4.97 4.836-4.97H749.58c.537 2.552-1.612 3.493-3.09 4.702a20.687 20.687 0 0 0-7.254 11.687 22.03 22.03 0 0 1-7.927 12.896c-3.896 3.224-7.926 7.389-7.926 13.434a6.047 6.047 0 0 1-2.283 4.836c-4.702 3.493-4.971 8.463-4.434 13.567.27 2.284.538 4.433-1.479 6.045-2.015 1.612-1.073 1.881-.134 2.956 4.164 4.702 1.746 10.612 2.688 15.986a1.88 1.88 0 0 1-2.149 2.149c-1.478 0-2.82-.94-2.687-2.418s-1.746-3.493-4.03-3.627c-2.283-.134-4.299.672-5.104 3.09a13.807 13.807 0 0 0-1.073 5.374c.536 7.791-3.358 14.239-6.314 20.821-2.955 6.583-3.627 10.881-9 14.24-1.074.671-.672 2.149-.672 3.358-.269 5.508-3.089 10.209-5.238 15.045a4.428 4.428 0 0 1-2.418 2.418c-4.566 1.612-8.731 3.224-11.553 7.926-1.344 2.284-4.971 1.209-6.985-.94.671 2.956.807 6.045-2.956 7.12-3.761 1.075-6.582-3.089-7.521-7.254-1.881 7.12-1.746 7.523 5.643 9 3.089.671 4.566 2.149 4.029 5.104-.537 2.956-2.82 3.896-5.776 3.224-2.955-.672-3.089-1.612-4.164.134-1.073 1.747-.135 3.627.807 5.239 2.553 4.434 4.434 9.001 2.148 14.238-.806 1.747.808 2.284 1.747 3.09.939.808 2.283 3.493-.939 3.763a4.835 4.835 0 0 0-4.836 4.164c-.672 2.82 1.343 3.762 3.089 5.104 4.971 3.358 4.702 5.776-.537 8.463-1.746.94-3.627 2.284-5.643 2.149-6.312-.537-10.074 3.357-13.837 7.254-1.343 1.344-3.357 1.612-4.433 3.225-1.075 1.611 2.149 2.016 3.492 2.283a8.199 8.199 0 0 1 5.508 3.896c1.344 2.688 4.299 2.956 6.717 4.165s2.149-1.075 2.553-2.017a85.909 85.909 0 0 1 5.776-12.224c2.283-3.493 4.299-7.254 7.522-10.075 3.223-2.821 4.971-6.448 2.955-11.016.807-1.209 2.283-.537 3.492-1.209a3.223 3.223 0 0 0-3.357.939c-2.418-.806-2.821-2.687-2.017-4.836.808-2.148 2.554-2.553 4.567-2.418 5.105.403 9.538 2.955 13.702 5.91-2.015-1.746-1.479-5.373-4.97-6.179-1.075-.27-.672-2.284.269-3.091 4.029-3.224 6.852-9.537 13.836-5.91a1.621 1.621 0 0 0 1.479 0c7.389-4.164 16.12-4.299 23.643-8.061 1.612-.806 3.896-1.074 3.896-3.357 0-2.284-2.283-2.284-3.896-2.956-1.611-.672-2.687-4.567-1.074-6.448a3.767 3.767 0 0 1 1.209-.806c2.821-1.343 5.239-4.164 4.03-6.448-1.209-2.284-4.971-1.209-7.522.134a1.885 1.885 0 0 1-1.344.134c-.807-.269-1.611-1.881-2.553-.672-5.776 7.389-12.896 3.896-19.612 2.418a2.418 2.418 0 0 1-1.881-3.09c.27-1.478.807-2.956 2.688-3.224.612.134 1.202.36 1.746.672l-1.209-.806a2.285 2.285 0 0 1-1.479-3.224 3.36 3.36 0 0 1 3.627-2.149c1.998.256 3.975.66 5.911 1.209 6.18 1.209 10.344-1.209 11.955-7.388.403-1.478-.134-4.03 2.149-3.896 2.283.134 1.344 2.955 2.016 4.165 2.283-5.776 6.985-10.209 9.939-15.852.807-1.478 1.746.269 3.091-.403 3.491-1.881 3.09-3.762 2.687-6.717-.402-2.956.403-9-.134-13.568a1.744 1.744 0 0 1 .269-1.479c4.971-2.418 1.209-5.642.94-8.597-.403-5.642 2.148-10.747 3.492-15.986 1.344-5.239 2.687-7.254 2.687-11.149a6.452 6.452 0 0 1 1.075-4.299c5.91-6.985 6.179-15.583 6.985-24.046a8.893 8.893 0 0 0-1.075-5.239c-1.746-3.224-1.209-6.448-.672-10.075.538-3.627 3.627-8.866 6.583-12.493 2.955-3.627 2.283-8.329 3.896-12.225h4.03c3.358 0 8.061-1.343 9.672.403 1.611 1.747.402 6.314.402 9.672-1.074 1.209-2.688 1.209-4.164 1.746a5.641 5.641 0 0 0-3.627 3.896c-.537 1.612-.537 3.762 1.075 4.567 1.61.806 2.418-1.343 3.491-2.283 1.074-.94.673-3.896 3.225-3.762 0 209.739.045 419.479.135 629.218 0 3.761-.806 4.7-4.567 4.566h-254.83c-.403-.402.269-1.611-.538-1.611-4.434.269-8.328-2.283-12.493-2.149 1.743.815 4.833.411 4.968 3.77z"/><path fill="#FFFF6D" d="M750.655 133.712c1.478 7.792-2.017 13.434-7.523 18.27a1.883 1.883 0 0 0-.806 2.418 4.43 4.43 0 0 1-.27 4.299c-2.955 3.627-2.015 6.717.672 10.075 2.688 3.358.402 6.045.27 8.732-.27 5.508-1.075 11.821-4.164 15.985-5.239 6.985-4.434 15.449-7.523 22.837-3.089 7.388-5.507 13.03-.134 19.613.537.537 0 1.88 0 3.358l-4.03-3.089c1.075 8.06-1.209 15.583 2.017 22.971-2.956.537-7.255-.806-6.448 4.702l-.939-4.567c-2.284 7.657-9.403 11.821-11.688 19.209l-1.478-7.388c-1.746 2.552 0 4.836-1.479 6.985-4.97 6.851-5.776 7.522-14.239 5.507l-4.299-.94a2.15 2.15 0 0 0-2.78 1.229c-.015.038-.027.076-.04.115-.672 1.612 0 1.88 1.074 2.687 1.074.807 1.612 1.343 1.612 4.165-1.479-.806-.807-3.627-2.688-2.956-1.881.672-1.344 1.747-1.747 2.821-.01.583.181 1.151.538 1.612 4.971-.672 9.537 4.567 14.509 1.075 1.478-1.075 6.179.672 4.299-4.03l2.687-.94c2.418-.538-.135 3.089 2.149 3.224 1.61 2.687-1.612 4.971-.94 6.314-1.075-1.343 6.045-3.493.94-6.314 1.88-3.089 8.865-4.164 10.746-1.612 1.881 2.552 0 1.612-.537 2.149s-1.344 6.717-6.313 6.851c-1.611 0-.672 3.358-.672 5.507 2.553-.403 5.104-2.149 6.18 2.284 1.074 4.433-1.479 4.164-3.762 5.238-6.312 2.688-12.627 5.104-19.611 5.911a7.64 7.64 0 0 0-4.567 2.82 2.283 2.283 0 0 1-3.896.134c-2.552-2.819-4.7-1.209-6.851.537-2.149 1.747-2.552 3.896-5.104 4.435a1.345 1.345 0 0 0-.806 2.015c.807 1.479 1.209.537 2.016-.269.806-.807.806 1.478 1.881 1.074-2.821 3.896 4.299 2.82 3.09 6.046a7.262 7.262 0 0 1-2.821 2.954c-2.148-5.508-7.389-6.18-11.821-7.791-1.344-.402-3.225-1.074-4.434.807s-.671 3.627 1.075 4.971h-.135c2.82 6.582 2.016 8.061-3.628 13.567-5.642 5.508-7.791 10.611-10.209 16.792-1.074 2.819-2.82 5.507-3.492 9.134a5.774 5.774 0 0 0-4.164-3.492c-2.553-.672-5.104-1.478-5.91-5.104-.807-3.627-4.434-1.479-6.448-2.688-2.016-1.209-3.225-.538-3.225-2.553 0-2.016 1.479-2.149 2.956-2.688 1.477-.538 3.224-2.82 4.433-3.357 3.762-1.612 4.702-8.061 11.017-5.776 3.627 1.344 7.118-2.418 10.611-3.896 3.492-1.479 0-2.284-.135-3.226-.134-.938-1.479-1.209-2.418-1.61-.94-.403-5.373-2.284-4.299-5.644 1.074-3.357 1.881-7.926 7.522-5.642.33-.018.651-.108.94-.27-.135-1.611-1.479-1.344-2.284-1.881s-3.492-1.612-1.478-4.433c2.015-2.821.269-7.523-.94-11.15a11.653 11.653 0 0 0-1.479-2.015c-1.478-2.418-2.015-5.508-.806-7.657s3.761.403 5.643.672c1.881.269 5.642-.94 4.836-3.761-.807-2.821-.27-2.552-2.821-2.149-2.552.403-4.97-1.075-7.522-1.881a1.881 1.881 0 0 1-1.496-2.199l.02-.084c1.344-3.493 1.074-7.522 4.971-10.478-2.016 4.567-.939 7.388 3.089 9.806 4.03 2.418 4.165-.269 4.836-2.552.673-2.284-.939-4.433 1.345-6.045 1.746.671-2.149 4.03 1.746 3.627 3.896-.403 4.836 2.015 5.374-2.418.536-4.433 3.356-4.433 6.446-4.702s5.508-1.344 6.181-4.03c1.344-5.374 6.18-9.806 4.164-15.986a2.016 2.016 0 0 1 1.209-2.552c5.643-1.612 5.775-6.985 7.792-11.149 2.015-4.165 4.97-4.567 2.282-8.329-.269-.269.136-.672.807-.672.672 0 3.09-1.343 1.881-3.224-1.209-1.88-1.611 0-1.343-1.075.269-1.074.939-.806 1.88-.806 3.896-.269 1.881-3.896 1.881-5.374-.129-2.623.143-5.25.807-7.792.671-2.015 1.479-5.373 3.089-5.104 1.612.269 6.985-2.418 8.465 2.552.32.375.738.654 1.209.806-3.226 2.418-.808 3.493 1.209 3.224 2.015-.269-.271-2.284.134-3.493.125-.981.125-1.975 0-2.956.402-4.97.402-9.806-5.373-12.627 3.761-1.343 5.239-2.955 4.433-6.716s-.672-11.016 4.702-14.643c1.074-.671 2.418-1.612 2.015-3.224-1.746-7.12 5.644-9.94 7.12-15.583 8.061-2.552 7.522-10.209 9.672-16.254 1.344-3.896 4.3-6.448 7.389-8.866a9.135 9.135 0 0 0 3.09-3.09h1.075v.673h-.011zM764.76 147.817c-1.074.269-.806 1.209-1.074 2.015a8.189 8.189 0 0 1-6.18 6.313c-1.478.403-1.209-2.149-1.611-3.358-1.479-3.224.135-5.911 2.687-7.926 2.553-2.015 4.03-1.075 6.18-1.075l-.002 4.031zM497.705 781.468a11.015 11.015 0 0 0-9.135-2.955c7.119-4.434 13.299 2.283 19.612-.135.135 2.284-2.148 1.746-2.418 3.224h-8.061l.002-.134zM671.264 517.368h-6.984c2.687 5.911 1.611 11.553.269 17.194-.806 3.357 2.418 8.598 6.18 9.807-4.299-.27-4.7 2.821-3.491 4.971 3.627 6.717-.271 13.03-.538 19.612a79.509 79.509 0 0 1-.807 7.926c-6.045-1.075-10.479-6.717-17.329-5.911-1.611.271-1.745-1.209-2.418-2.147a8.731 8.731 0 0 0-8.463-3.896c-2.553.27-5.373-3.224-4.164-5.642s1.746-6.582 2.82-9.808c1.075-3.224-.402-2.687-2.955-3.09 5.643-.671 6.18-5.507 6.717-8.463a10.615 10.615 0 0 1 5.239-7.254c4.97-3.358 6.717-7.926 7.522-13.702.805-5.776-.403-11.148 4.836-14.91 1.209-.807 2.015-3.09 3.491-2.148a4.433 4.433 0 0 1 1.479 4.97c-.807 2.149.269 3.896.537 5.911.805 4.968 3.357 6.58 8.059 6.58zM665.354 414.737c1.746 2.418 4.029 1.746 6.18 2.148 6.312.807 6.18.403 4.702-5.91a14.235 14.235 0 0 0-4.435-7.254c-2.552-2.553-1.88-3.225 1.612-4.434a13.972 13.972 0 0 1 8.061-.94c2.688.537 5.91-.537 4.434-4.299-1.479-3.761.806-2.552 2.418-3.089 1.612-.538 7.657 2.015 5.239-4.567-.403-1.074.939-.672 1.745-.672 10.075-.939 11.149.135 10.612 10.612-.269 6.045-.806 12.09-.939 18.135 0 1.209.269 1.881-1.074 2.149-6.717 1.074-6.717 7.12-8.599 11.688-1.881 4.568-3.357 9.672-5.104 14.373-1.746 4.702-2.688 5.508-5.911 1.746a3.763 3.763 0 0 0-2.283-.671c-12.09-1.075-10.611-2.688-12.896-13.434-.402-2.149.135-4.836-3.089-5.373a2.426 2.426 0 0 1-.808-1.209c-1.073-1.747 4.299-.672 1.479-3.493a5.9 5.9 0 0 1-1.344-5.506zM599.53 516.428c-.271 1.344 2.819 1.881.938 3.627-1.88 1.746-.938.808 0 1.479.94.672 2.554-1.479 2.688.135.134 1.612-1.479 1.343-2.821 1.074-1.344-.27-1.075 1.209-1.209 1.881-.135.672.94.939 1.479.939s4.433.673 4.164 1.612c-.27.94-.537 5.239-3.492 5.373-2.956.135-2.149 2.284-2.284 3.224-.134.94-1.209 3.493-1.881 5.911l1.747-.672c5.775-4.164 5.775-4.164 6.582 2.821.135 1.478.402 2.821 2.015 2.955 1.612.135 1.479-1.612 1.612-2.821.135-1.209.402-2.955.672-4.836 1.746 1.612 4.164 2.149 4.299 4.836.134 2.688.402 4.03-2.687 3.493a2.957 2.957 0 0 0-2.419.94c-.939 1.478.939 1.343 1.479 1.881.537.537 1.479 1.343.671 2.552a2.416 2.416 0 0 1-2.687.939l-3.762-1.209c-4.164-1.073-12.492 1.345-12.225 4.164.672 6.314-5.91 7.39-6.985 12.092-1.073 4.7-6.18 3.761-9 2.955-2.82-.807-6.717-.136-9.001 3.224a5.374 5.374 0 0 1-2.148.807c1.479-6.447.939-13.165 3.09-19.345a95.189 95.189 0 0 1 6.18-12.224 3.088 3.088 0 0 1 4.03-1.209c1.074.401 7.254 1.88 7.656 1.343.403-.537 3.09-2.955.27-3.896-2.82-.939-2.956-4.029-2.148-6.851.806-2.821 4.164-3.762.134-5.911a5.864 5.864 0 0 1 .807-2.148c4.971-6.448 5.373-13.702 4.566-21.493-.134-1.612-.537-4.299 1.209-5.373 1.747-1.075 2.284 1.074 3.493 2.015 1.209.941 4.433 2.553 5.775 5.776 1.344 3.224 4.567 5.373 7.657.939.671-.939 2.149-1.344 2.552-.806.403.537 5.911 2.418 5.911 6.312 0 3.896.27 6.985.402 10.479.135 3.493-.537 2.418-2.418 1.746-1.88-.671-5.238-2.418-5.643-4.164-.403-1.746-6.717-2.418-3.627-6.717.135-.27-1.074-.27-1.611-.402-2.688-.807-3.091 1.479-4.3 2.82l-1.209-.94 1.479.673z"/><path fill="#FFFF6D" d="M668.98 480.158c-4.435-5.239-6.181-5.105-11.821 1.746.537-3.493-2.553-6.448 1.88-8.599 1.881-.939.27-2.282-.537-3.09-.806-.806-2.687-3.224-4.97-1.209-2.284 2.017-.94 1.747.269 2.821a5.11 5.11 0 0 1 1.209 2.687c.402 1.479 1.344 3.627-.537 4.3-1.881.672-3.225-.403-3.627-2.688s-1.611-2.284-2.419-3.493c-1.073 1.344-2.819 1.612-3.627 3.628a42.582 42.582 0 0 1-10.478 15.448c-2.955 2.552-2.688 6.582-2.149 11.149 5.508-3.358 12.358-2.284 16.926-7.39.94-1.074.808.27 1.075.403a11.022 11.022 0 0 0 6.045 1.881 73.358 73.358 0 0 0-4.971 5.91c-1.343 2.016-3.492 4.164-.94 6.852 2.554 2.688.537 2.418-.536 3.492-1.074 1.075-3.628 3.226-6.313 2.688-6.313-1.344-10.881-5.508-16.12-9-5.239-3.493-2.821-8.866-2.687-13.435.134-4.566 4.299-10.881 3.357-17.329-.538-3.357 2.016-7.254 6.179-9.135 4.165-1.88 8.062-5.238 12.493-7.388 4.433-2.15 6.448-1.881 7.522 3.224 2.553-2.148 1.075-5.239 1.881-8.06 1.746.537 4.164-.136 3.896 3.089a4.176 4.176 0 0 0 1.075 2.148c1.611 2.418 6.985 1.345 5.91 6.718-.134.807 4.03 2.82 4.971 1.478s3.492-4.566 1.074-6.984c-2.418-2.419-1.478-4.164-4.433-2.553-.94.537-.672-1.075-.537-1.344.134-.269 2.283-4.029 2.015-6.582-.268-2.553.808-.806 1.612-.672.806.135 3.627.135 5.508.269 1.88.136 2.149-.536 2.552.808.403 1.343-.672 1.746-1.61 2.148-.94.402-1.747 1.611-.672 3.762 1.073 2.148 0 6.984-1.075 10.479-1.074 3.492-6.045 7.254-7.656 11.821l.266.002zM708.205 512.264c-3.089-.807-7.254 1.881-8.463-2.148-1.209-4.03 2.418-6.045 4.702-8.463 2.282-2.418 1.343-2.418 2.282-3.226.94-.806 3.628-7.388 9.674-4.433 3.356 1.611 8.328-.94 12.762-.807 4.433.135 4.433.94 4.566 3.896.135 2.955 2.148 6.717 4.434 9.807 2.283 3.089 2.687 10.479 2.283 15.852-.94 9.538-2.016 19.21-1.881 28.748 0 3.089-.672 4.836-4.029 4.164-3.358-.672-6.717 1.611-9.941 2.418a12.492 12.492 0 0 1-8.73-.27 1.746 1.746 0 0 1-1.343-2.284c.269-1.209 1.209-.939 2.015-.939 3.627-.134 7.254.403 10.881-1.074.672-.269 2.149.135 1.881-1.075-1.478-8.73 4.971-1.746 6.582-3.896 3.358-6.447.403-13.836 2.688-20.821.402-1.344-.27-2.148-2.016-2.687s-6.984-.537-10.344-1.075c-3.358-.537-6.448 2.553-6.179-3.358 0-.401-4.836-1.478-7.39-1.478-6.447-.134-12.896-2.016-19.344-.94 3.492-4.971 10.074-3.09 14.91-5.911zM722.982 309.823a146.567 146.567 0 0 1 6.045-20.956c.672-2.015.402-5.239.806-5.642 2.418-3.224-1.343-6.045.403-9.269a9.671 9.671 0 0 0 .401-8.06c-.671-1.746-1.073-4.702 2.149-6.313l4.836 14.911a2.282 2.282 0 0 1-.94 3.089c-2.552 2.149-5.237 4.971-3.089 8.598 2.149 3.627-.672 7.791-2.418 9.94-1.747 2.149-4.165 7.926-5.643 12.225a2.279 2.279 0 0 1-2.55 1.477zM605.172 456.649c1.344 2.418-.672 5.91 2.283 8.193.672.537-.134 2.955-1.209 2.821-3.224-.537-2.955 2.148-3.627 3.627-.671 1.478-2.552 5.642 2.284 6.045 1.746.135 2.015 1.746 1.209 2.418-.807.672-2.149 5.373-2.418 7.791-.27 2.418-2.688 5.104-6.045 4.836-3.358-.268-6.583-.671-4.567 5.776-3.762-3.896-3.358-7.119-.807-9 2.553-1.881 4.434-6.582 5.775-10.747 1.344-4.164 4.299-10.612 4.971-16.254.405-2.147-1.745-4.967 2.151-5.506zM695.041 592.191c-5.104-1.881-8.731 2.955-14.105 1.746a6.838 6.838 0 0 1-4.028-2.418c-.94-.939-1.479-2.016-.538-3.09.939-1.075 1.747-.135 2.688 0 5.238.807 10.612 1.344 15.852 1.881v1.746l.131.135zM621.695 461.754c-3.628 4.836-3.628 4.836-9.271 1.479 2.688-2.553 5.51-3.629 9.271-1.479z"/><path fill="#FFFF6D" d="M613.098 472.635a2.82 2.82 0 0 1-3.225 2.552c-2.148 0-2.148-1.21-2.418-2.821a2.958 2.958 0 0 1 3.225-3.36c1.881.002-.135 3.629 2.418 3.629zM647.354 316.942c-1.209-3.492-3.091-6.18-2.419-9.537 3.358 3.224 3.761 4.433 2.419 9.537zM664.278 492.248c-1.479 4.164-1.612 4.299-7.119 4.701 1.746-2.552 5.237-2.418 7.119-4.701zM661.995 336.152c0-6.448 4.029.269 5.508-1.881-1.209 2.82-2.821 4.434-5.508 1.746h.134l-.134.135zM620.889 484.591c-.401-2.821.136-4.433 2.149-5.239.486-.076.979.071 1.344.403.268 2.418-2.15 2.821-3.493 4.836zM695.981 552.43v10.746h-.538v-10.478l.538-.268zM675.831 518.04a17.99 17.99 0 0 1 8.463 0 17.34 17.34 0 0 1-8.463 0zM668.846 480.158v6.447c-.537-2.149-1.881-4.299.136-6.313h-.136v-.134zM689.938 547.996h5.372a5.098 5.098 0 0 1-5.372 0zM651.517 486.605a6.042 6.042 0 0 1-.401-4.837c1.476 1.614.267 3.226.401 4.837zM705.25 547.19a6.041 6.041 0 0 1-4.701.134c1.477-.94 2.82-.671 4.701-.134zM710.354 205.446a3.887 3.887 0 0 1-1.478 1.209c-.806 0-.537-.806-.537-1.344a.94.94 0 0 1 1.209-.94c.348.292.624.66.806 1.075z"/><path fill="#FEFEFE" d="M708.205 291.822c3.493.403 3.357.269 1.881 3.224a10.075 10.075 0 0 0-.671 4.836c.134 1.209.671 2.149-1.21 2.015-1.88-.134-1.746-.94-2.016-2.149-.269-1.209 1.882-5.239 2.149-7.926h-.133zM670.861 308.883c.671 4.164-2.418 7.12-3.628 12.09-1.88-5.91.27-9.135 3.762-11.955l-.134-.135zM673.01 304.853c-.269-2.552 1.209-3.896 4.299-5.642-1.478 2.955 1.612 6.179-3.09 6.852-1.074.133-1.612-.136-1.209-1.21zM697.056 272.479a1.21 1.21 0 0 1-1.745 1.075c-1.074-.806-3.358 0-3.492-2.015-.136-2.015.939-1.881 2.418-1.881 1.477 0 2.013 1.746 2.819 2.821zM718.549 224.387c1.209 1.746 2.149 3.089 1.881 4.702-.269 1.612-.672 1.88-1.343 1.746-.672-.134 0-3.224-2.016-4.03-2.014-.806 2.15-.403 1.478-2.418zM713.579 250.716c.806 2.552 3.761 1.612 2.955 4.299s-.94 2.284-1.746 2.015-1.344-3.224-1.209-6.314zM723.788 183.818c2.821 1.209 3.358-2.284 5.643-.806 2.283 1.479.402.94 0 1.479-.404.536-2.688 2.417-5.643-.673z"/><path fill="#FEFEFE" d="M673.01 304.853l1.209 1.209c.672 2.955 0 4.299-3.224 2.82.399-.66.674-1.389.806-2.148-2.687-2.419.135-1.612 1.209-1.881zM713.176 228.82c.135.806 0 1.612-.939 1.343a1.88 1.88 0 0 1-1.747-2.005l.001-.01a3.875 3.875 0 0 1 1.209-1.478l1.476 2.15zM686.175 277.717l-1.746 1.478c-.672-1.612-.672-3.09 1.074-4.165 1.747-1.075.403 1.747.538 2.687h.134z"/><path fill="#FEFEFE" d="M686.041 277.717c1.479-.134 2.283.403 1.88 1.881a1.34 1.34 0 0 1-.939.806c-1.746-.403-.807-1.881-.939-2.821h-.135l.133.134zM706.862 268.448c-.537-1.209-1.746-1.88-1.345-3.358.405-1.478 1.882 1.746 1.345 3.358zM695.847 267.105c-.22.396-.545.721-.939.94-1.074.403-.672-.671-.807-1.075-.135-.403.135-1.343.94-1.209.806.135 1.209.269.806 1.344zM581.798 561.562c.27-1.478 2.688-2.687 1.074-4.163-1.611-1.479-2.955-.807-4.164 1.074-1.209 1.88-1.881.135-2.821.27a17.96 17.96 0 0 1 .403-2.688c.269-1.209.672-1.747 2.418-1.479a27.395 27.395 0 0 1 7.522 2.821c-1.882-7.39 2.688-8.061 7.522-8.599 1.611-.134 3.761-.269 2.688-3.089-.136-.538-.136-1.479.671-1.344a8.273 8.273 0 0 1 3.09 1.344 2.148 2.148 0 0 1-.27 1.746c-6.179 2.687-9.135 8.866-13.701 13.164a4.02 4.02 0 0 1-4.432.943zM579.38 566.938c.134-1.209-2.148-.807-1.478-2.016a3.76 3.76 0 0 1 4.946-1.953c.054.023.105.048.157.073a7.536 7.536 0 0 1-3.627 3.761h.134l-.132.135zM599.53 516.428c-1.345.135-2.688 0-2.554-1.881.135-1.88 0-2.015 1.209-1.611 1.209.402.135 2.553 1.209 3.492h.136z"/><path fill="#FEFEFE" d="M579.38 566.803c-.537 1.881-2.148 2.149-3.896 2.688.269-2.82 2.148-2.688 4.028-2.553h-.134l.002-.135z"/><g fill="#FFFF6D"><path d="M1563.676 1732.001c1.094 5.763-1.52 10.007-5.619 13.621-.599.526-.925.881-.56 1.826.384.993.553 2.293-.199 3.229-2.166 2.696-1.54 5.013.528 7.453 1.662 1.963.328 4.494.226 6.54-.206 4.076-.791 8.844-3.084 11.946-3.854 5.218-3.266 11.474-5.592 17.006-1.791 4.263-4.083 9.728-.081 14.616.354.434.047 1.41.047 2.462l-3.041-2.302c.82 6.045-.95 11.644 1.477 17.121-2.148.43-5.441-.627-4.762 3.543l-.675-3.373c-1.688 5.704-6.965 8.758-8.654 14.295l-1.104-5.453c-1.289 1.947.038 3.591-1.108 5.201-3.653 5.131-4.338 5.573-10.645 4.06-1.066-.256-2.12-.594-3.201-.748-.83-.118-1.607-.144-2.095.979-.498 1.149.048 1.432.803 1.984 1.233.907 1.179.983 1.228 3.117-1.055-.567-.579-2.676-2.026-2.161-.604.215-.985 1.295-1.271 2.058-.127.336.283 1.248.363 1.235 3.683-.475 7.128 3.404 10.794.782 1.104-.79 4.563.535 3.202-3.003-.016-.035 1.401-.562 2.018-.681 1.824-.354-.114 2.275 1.566 2.361 1.224 1.973-1.153 3.719-.725 4.709-.763-.979 4.527-2.572.664-4.652 1.41-2.28 6.637-3.094 7.995-1.237.497.68-.04 1.157-.393 1.614-1.395 1.81-.954 5.033-4.684 5.148-1.217.038-.482 2.531-.524 4.107 1.933-.343 3.756-1.591 4.569 1.671.77 3.072-1.059 3.094-2.82 3.854-4.702 2.032-9.441 3.838-14.599 4.416-1.289.146-2.46 1.058-3.39 2.118-.883 1.007-1.92 1.146-2.881.104-1.899-2.062-3.542-.862-5.089.43-1.276 1.063-1.894 2.854-3.754 3.307-.797.193-.806 1.053-.554 1.536.562 1.075.896.395 1.513-.182.812-.757.562 1.084 1.375.844-2.074 2.913 3.237 2.146 2.259 4.54-.396.971-1.166 1.489-2.116 2.188-1.605-4.146-5.472-4.631-8.844-5.783-1-.344-2.37-.829-3.301.597-1.02 1.562-.481 2.687.775 3.715l-.055-.062c2.067 4.886 1.534 6.026-2.719 10.114-3.567 3.432-5.826 7.933-7.562 12.49-.816 2.149-2.111 4.076-2.625 6.799-.771-1.646-1.758-2.157-3.116-2.553-1.885-.546-3.839-1.066-4.419-3.797-.42-1.979-3.261-1.096-4.808-2.021-.881-.526-2.384-.36-2.405-1.857-.02-1.418 1.063-1.631 2.235-1.979 1.36-.402 2.382-2.129 3.289-2.504 2.838-1.176 3.52-5.961 8.175-4.313 2.716.961 5.258-1.79 7.868-2.874 1.266-.526.026-1.654-.066-2.446-.054-.459-1.099-.873-1.758-1.178-1.824-.845-3.987-1.651-3.247-4.158.757-2.566 1.41-5.868 5.57-4.208.186.075.472-.101.737-.166-.064-1.155-1.082-.983-1.734-1.392-1.122-.703-2.586-1.244-1.112-3.332 1.911-2.703.192-5.571-.75-8.273-.191-.553-.784-.954-1.115-1.475-1.142-1.789-1.55-4.07-.622-5.664 1.052-1.806 2.785.274 4.213.532 2.39.431 4.209-.709 3.646-2.789-.202-.743-.244-1.895-2.085-1.618-1.752.262-3.73-.832-5.577-1.435-.725-.238-1.389-.908-1.08-1.722.972-2.553.821-5.591 3.652-7.764-1.48 3.359-.718 5.464 2.33 7.324 2.996 1.828 3.068-.217 3.585-1.92.439-1.451-.674-3.265 1.005-4.484 1.256.529-1.601 2.98 1.271 2.707 1.521-.145 3.604 1.484 4.003-1.84.289-2.406 2.517-3.315 4.837-3.461 2.156-.133 4.11-1.008 4.61-3.049.979-3.984 4.553-7.302 3.102-11.92-.239-.759.121-1.67.874-1.888 4.182-1.213 4.339-5.231 5.803-8.28.913-1.902 3.7-3.402 1.661-6.158-.176-.235.099-.455.568-.521 1.924-.27 2.31-1.02 1.394-2.38-.251-.374-1.153-.047-.963-.763.168-.631.697-.551 1.37-.605 2.909-.233 1.448-2.926 1.446-4.032 0-1.994.013-3.929.6-5.811.458-1.474 1.077-3.994 2.265-3.769 2.077.395 5.214-1.848 6.327 1.869.076.252.558.381.851.566-2.401 1.79-.618 2.612.867 2.375 2.069-.331-.246-1.671.117-2.625.249-.653-.017-1.484.044-2.229.299-3.709.273-7.289-3.977-9.435 2.844-.99 3.874-2.194 3.333-5.02-.779-4.067-.544-8.16 3.541-10.862.771-.513 1.829-1.241 1.549-2.372-1.319-5.321 4.205-7.416 5.346-11.559 5.965-1.912 5.605-7.573 7.17-12.095.998-2.884 3.248-4.763 5.494-6.573.872-.701 1.801-1.26 2.285-2.312h.75v.009zM1574.176 1742.501c-.784.228-.64.897-.765 1.485-.538 2.532-2.329 4.123-4.614 4.729-1.057.281-.863-1.63-1.247-2.479-1.096-2.42.088-4.416 1.999-5.929 1.344-1.061 3.031-.827 4.627-.808v3.002zM1375.426 2214.251c-1.758-1.678-3.85-2.478-6.762-2.248 5.294-3.312 9.878 1.706 14.604-.146.129 1.75-1.621 1.348-1.843 2.394h-5.999zM1504.666 2017.646h-5.239c1.962 4.438 1.2 8.632.152 12.834-.633 2.539 1.761 6.384 4.621 7.268-3.195-.191-3.496 2.096-2.646 3.658 2.726 5.003-.153 9.738-.358 14.552a58.444 58.444 0 0 1-.56 5.944c-4.51-.795-7.802-5.043-12.866-4.406-1.221.154-1.295-.904-1.764-1.56-1.54-2.15-3.642-3.155-6.267-2.89-1.945.197-4.043-2.396-3.142-4.212 1.164-2.342 1.271-4.945 2.146-7.337.563-1.541-.266-1.981-2.153-2.312 4.215-.547 4.602-4.101 4.965-6.275.476-2.828 2.168-4.282 3.873-5.447 3.723-2.545 5.002-5.927 5.599-10.162.542-3.854-.315-8.346 3.629-11.149.862-.613 1.483-2.334 2.595-1.625 1.043.666 1.587 2.312 1.122 3.683-.551 1.621.188 2.946.358 4.413.447 3.857 2.433 4.982 5.935 5.023M1500.182 1941.289c1.26 1.813 3.013 1.345 4.61 1.562 4.736.643 4.646.313 3.452-4.396-.604-2.383-1.65-3.812-3.257-5.39-1.905-1.873-1.371-2.36 1.169-3.267 2.035-.726 3.765-1.104 5.96-.665 1.999.4 4.396-.357 3.316-3.215-.898-2.381.614-1.874 1.791-2.28 1.671-.576 5.729 1.475 3.871-3.355-.291-.759.703-.457 1.288-.513 7.463-.724 8.348.123 7.946 7.925-.231 4.512-.584 9.021-.674 13.534-.018.859.178 1.42-.798 1.578-4.989.808-4.996 5.342-6.404 8.728-1.45 3.489-2.48 7.15-3.843 10.68-.837 2.171-1.952 4.098-4.421 1.304-.332-.376-1.108-.443-1.695-.498-9.012-.831-7.87-1.96-9.565-10-.334-1.586.071-3.555-2.284-4.021-.259-.051-.448-.547-.636-.859-.754-1.259 3.193-.5 1.068-2.647-.725-.74-1.42-2.291-.894-4.205M1451.225 2016.958c-.219 1.015 2.137 1.38.681 2.729-.308.284-.745.625.021 1.051.757.418 1.906-1.078 2.038.072.166 1.439-1.134.952-2.092.829-.854-.108-.812.892-.947 1.371-.308 1.086.706.714 1.15.707 1.262-.019 3.255.528 3.061 1.156-.451 1.465-.435 3.853-2.569 4.045-1.843.166-1.648 1.683-1.651 2.362-.006 1.49-.866 2.642-1.421 4.352.731-.289 1.05-.347 1.287-.518 4.27-3.058 4.299-3.064 4.873 2.061.122 1.089.334 2.146 1.509 2.186 1.364.045 1.072-1.22 1.183-2.112.138-1.097.332-2.186.548-3.557 1.268 1.158 3.09 1.631 3.213 3.626.083 1.354.338 2.979-2.047 2.573-.575-.098-1.536.279-1.842.749-.705 1.091.687.964 1.102 1.421.505.557 1.129 1.021.483 1.88-.514.687-1.197.935-1.972.736-.944-.242-1.839-.675-2.781-.928-3.068-.827-9.32 1.02-9.109 3.146.468 4.697-4.435 5.529-5.222 8.973-1.021 4.473-4.612 2.761-6.725 2.184-3.168-.867-4.995-.058-6.688 2.351-.231.33-.907.351-1.623.598 1.115-4.846.656-9.829 2.337-14.398 1.166-3.173 2.969-6.119 4.592-9.108.626-1.153 1.878-1.229 2.99-.858.778.259 5.398 1.365 5.7 1.048.852-.896 2.25-2.216.22-2.866-3.384-1.082-2.246-2.986-1.597-5.142.41-1.358 3.127-2.806.143-4.359-.054-.027.296-1.131.645-1.589 3.676-4.812 4.037-10.243 3.438-16.016-.121-1.174-.418-3.164.906-3.968.605-.367 1.732.812 2.595 1.505 1.595 1.282 3.316 1.913 4.264 4.269.724 1.798 3.382 3.965 5.727.689.494-.692 1.619-1.032 1.948-.561 1.24 1.777 4.354 1.756 4.354 4.693-.001 2.604.17 5.205.268 7.809.05 1.307-.413 1.76-1.753 1.261-1.751-.652-3.861-1.763-4.206-3.126-.512-2.024-4.953-1.776-2.737-5.044.124-.184-.797-.177-1.169-.29-1.981-.604-2.338 1.061-3.175 2.066-.281-.228-.553-.469-.861-.662.259.261.599.412.911.604"/><path d="M1502.918 1989.98c-3.292-3.898-4.584-3.799-8.782 1.279.403-2.595-1.912-4.765 1.382-6.373 1.408-.688.238-1.659-.442-2.349-1.048-1.062-1.977-2.368-3.724-.862-1.069.921-.73 1.321.151 2.066.501.422.716 1.274.886 1.976.272 1.118.988 2.691-.375 3.206-1.265.477-2.387-.341-2.724-2.05-.187-.945-1.189-1.73-1.826-2.589-.78.999-2.062 1.207-2.704 2.723-1.812 4.275-4.222 8.229-7.795 11.455-2.153 1.943-1.995 4.882-1.571 8.293 4.117-2.476 9.223-1.729 12.589-5.485.693-.773.575.158.815.343 1.211.929 2.651 1.199 4.539 1.365-1.367 1.635-2.662 2.938-3.66 4.441-1.011 1.521-2.616 3.073-.658 5.122.812.85.4 1.787-.378 2.637-1.287 1.401-2.708 2.438-4.708 2.006-4.692-1.017-8.112-4.069-11.984-6.689-4.862-3.291-2.068-6.562-2.01-10.028.075-4.423 3.21-8.086 2.494-12.893-.371-2.489 1.482-5.376 4.617-6.822 3.252-1.501 6.019-3.906 9.312-5.52 3.285-1.605 4.759-1.385 5.616 2.371 1.911-1.605.843-3.914 1.375-5.956 1.254.419 3.062-.097 2.888 2.255-.037.496.497 1.067.84 1.553 1.248 1.768 5.248 1.02 4.366 4.98-.13.586 2.957 2.105 3.728 1.083.943-1.253 2.605-3.377.788-5.179-.808-.802-1.099-3.086-3.326-1.867-.691.379-.468-.75-.379-.982.604-1.592 1.655-3.009 1.481-4.872-.093-.993.576-.582 1.186-.511 1.357.157 2.741.062 4.108.163.67.05 1.633-.4 1.924.569.263.877-.51 1.305-1.182 1.625-1.622.774-1.35 1.178-.466 2.83 1.246 2.329-.02 5.173-.785 7.829-1.038 3.597-4.521 5.413-5.664 8.807l.058.05zM1532.159 2013.896c-2.271-.603-5.396 1.42-6.326-1.633-.816-2.68 1.786-4.483 3.51-6.334.658-.709.992-1.762 1.72-2.358 2.053-1.689 2.698-5.454 7.226-3.329 2.526 1.187 6.206-.69 9.459-.562 2.149.084 3.279.719 3.399 2.899.156 2.868 1.557 4.993 3.282 7.325 2.484 3.358 2.045 7.785 1.67 11.796-.666 7.135-1.525 14.255-1.375 21.431.051 2.344-.486 3.605-3.038 3.112-2.768-.535-4.952 1.188-7.413 1.833-2.192.574-4.319.783-6.487-.202-.839-.382-1.184-.809-1.003-1.658.184-.863.934-.678 1.498-.694 2.706-.089 5.448.271 8.071-.756.518-.203 1.554.102 1.403-.756-1.126-6.485 3.669-1.304 4.881-2.904 2.532-4.779.288-10.325 1.982-15.454.343-1.041-.175-1.609-1.472-1.982-2.572-.741-5.169-.396-7.713-.752-1.611-.225-4.834 1.912-4.62-2.458.015-.31-3.607-1.11-5.546-1.141-4.837-.072-9.582-1.462-14.373-.701 2.699-4.047 7.662-2.649 11.265-4.722M1543.104 1863.145c.994-5.393 2.728-10.522 4.482-15.634.513-1.495.321-3.854.623-4.25 1.812-2.366-1.02-4.548.29-6.944.829-1.521 1.203-3.794.315-6.004-.522-1.301-.82-3.477 1.562-4.703 1.222 3.806 2.371 7.444 3.567 11.068.315.961.315 1.447-.67 2.254-1.929 1.579-3.857 3.688-2.326 6.433 1.771 3.18-.46 5.766-1.829 7.396-2.339 2.783-3.06 5.943-4.24 9.056-.273.716-.685 1.314-1.774 1.328M1455.45 1972.438c1.036 1.771-.54 4.378 1.652 6.106.52.409-.124 2.211-.854 2.079-2.379-.428-2.166 1.599-2.731 2.656-1.063 1.986-1.939 4.211 1.749 4.472 1.312.092 1.527 1.267.946 1.794-1.796 1.629-1.592 3.962-1.829 5.822-.399 3.13-2.035 3.777-4.524 3.602-2.533-.181-4.947-.498-3.369 4.31-2.791-2.899-2.479-5.298-.572-6.688 2.897-2.109 3.342-4.949 4.258-8.018 1.207-4.047 3.168-7.862 3.727-12.145.184-1.437-1.411-3.617 1.547-3.99M1522.371 2073.347c-3.77-1.389-6.521 2.19-10.49 1.312-1.54-.341-2.119-.925-2.962-1.787-.673-.688-1.08-1.513-.449-2.268.491-.588 1.295-.102 2.016.004 3.92.569 7.866.95 11.806 1.396.025.448.052.894.079 1.343M1467.742 1976.254c-2.673 3.596-2.673 3.596-6.91 1.098 2.043-1.922 4.13-2.725 6.91-1.098"/><path d="M1461.344 1984.395c-.351 1.519-1.144 1.891-2.447 1.898-1.639.014-1.573-.888-1.771-2.089-.341-2.081 1.566-2.544 2.397-2.529 1.399.023-.07 2.668 1.821 2.72M1486.83 1868.477c-.902-2.559-2.305-4.569-1.766-7.133 2.487 2.426 2.73 3.338 1.766 7.133M1499.419 1998.998c-1.054 3.099-1.195 3.18-5.329 3.516 1.348-1.987 3.917-1.834 5.329-3.516M1497.688 1882.76c.032-4.848 3.034.193 4.058-1.355-.909 2.06-2.062 3.267-4.111 1.294l.053.061M1467.158 1993.235c-.329-2.087.083-3.305 1.61-3.931.252-.104.95.16.962.292.148 1.83-1.62 2.125-2.572 3.639M1523.008 2043.715v8.02c-.125.002-.25.004-.375.004v-7.832l.375-.192M1508.042 2018.137c2.232-.546 3.921-.499 6.306-.041-2.379.553-4.069.53-6.306.041M1502.86 1989.932v4.783c-.421-1.595-1.442-3.222.059-4.732a1.254 1.254 0 0 0-.059-.051M1518.493 2040.41h4.021c-1.714.837-2.928.671-4.021 0M1489.97 1994.732c-.721-1.075-.604-2.243-.341-3.572 1.101 1.192.174 2.404.341 3.572M1529.919 2039.822c-1.41.561-2.335.531-3.546.115 1.155-.657 2.104-.465 3.546-.115M1533.74 1785.487c-.407.35-.746.881-1.096.889-.613.013-.411-.631-.418-1.032-.011-.61.424-.839.912-.713.231.058.363.496.602.856"/></g><g fill="#FFFF6D"><path d="M1563.676 1732.001c1.094 5.763-1.52 10.007-5.619 13.621-.599.526-.925.881-.56 1.826.384.993.553 2.293-.199 3.229-2.166 2.696-1.54 5.013.528 7.453 1.662 1.963.328 4.494.226 6.54-.206 4.076-.791 8.844-3.084 11.946-3.854 5.218-3.266 11.474-5.592 17.006-1.791 4.263-4.083 9.728-.081 14.616.354.434.047 1.41.047 2.462l-3.041-2.302c.82 6.045-.95 11.644 1.477 17.121-2.148.43-5.441-.627-4.762 3.543l-.675-3.373c-1.688 5.704-6.965 8.758-8.654 14.295l-1.104-5.453c-1.289 1.947.038 3.591-1.108 5.201-3.653 5.131-4.338 5.573-10.645 4.06-1.066-.256-2.12-.594-3.201-.748-.83-.118-1.607-.144-2.095.979-.498 1.149.048 1.432.803 1.984 1.233.907 1.179.983 1.228 3.117-1.055-.567-.579-2.676-2.026-2.161-.604.215-.985 1.295-1.271 2.058-.127.336.283 1.248.363 1.235 3.683-.475 7.128 3.404 10.794.782 1.104-.79 4.563.535 3.202-3.003-.016-.035 1.401-.562 2.018-.681 1.824-.354-.114 2.275 1.566 2.361 1.224 1.973-1.153 3.719-.725 4.709-.763-.979 4.527-2.572.664-4.652 1.41-2.28 6.637-3.094 7.995-1.237.497.68-.04 1.157-.393 1.614-1.395 1.81-.954 5.033-4.684 5.148-1.217.038-.482 2.531-.524 4.107 1.933-.343 3.756-1.591 4.569 1.671.77 3.072-1.059 3.094-2.82 3.854-4.702 2.032-9.441 3.838-14.599 4.416-1.289.146-2.46 1.058-3.39 2.118-.883 1.007-1.92 1.146-2.881.104-1.899-2.062-3.542-.862-5.089.43-1.276 1.063-1.894 2.854-3.754 3.307-.797.193-.806 1.053-.554 1.536.562 1.075.896.395 1.513-.182.812-.757.562 1.084 1.375.844-2.074 2.913 3.237 2.146 2.259 4.54-.396.971-1.166 1.489-2.116 2.188-1.605-4.146-5.472-4.631-8.844-5.783-1-.344-2.37-.829-3.301.597-1.02 1.562-.481 2.687.775 3.715l-.055-.062c2.067 4.886 1.534 6.026-2.719 10.114-3.567 3.432-5.826 7.933-7.562 12.49-.816 2.149-2.111 4.076-2.625 6.799-.771-1.646-1.758-2.157-3.116-2.553-1.885-.546-3.839-1.066-4.419-3.797-.42-1.979-3.261-1.096-4.808-2.021-.881-.526-2.384-.36-2.405-1.857-.02-1.418 1.063-1.631 2.235-1.979 1.36-.402 2.382-2.129 3.289-2.504 2.838-1.176 3.52-5.961 8.175-4.313 2.716.961 5.258-1.79 7.868-2.874 1.266-.526.026-1.654-.066-2.446-.054-.459-1.099-.873-1.758-1.178-1.824-.845-3.987-1.651-3.247-4.158.757-2.566 1.41-5.868 5.57-4.208.186.075.472-.101.737-.166-.064-1.155-1.082-.983-1.734-1.392-1.122-.703-2.586-1.244-1.112-3.332 1.911-2.703.192-5.571-.75-8.273-.191-.553-.784-.954-1.115-1.475-1.142-1.789-1.55-4.07-.622-5.664 1.052-1.806 2.785.274 4.213.532 2.39.431 4.209-.709 3.646-2.789-.202-.743-.244-1.895-2.085-1.618-1.752.262-3.73-.832-5.577-1.435-.725-.238-1.389-.908-1.08-1.722.972-2.553.821-5.591 3.652-7.764-1.48 3.359-.718 5.464 2.33 7.324 2.996 1.828 3.068-.217 3.585-1.92.439-1.451-.674-3.265 1.005-4.484 1.256.529-1.601 2.98 1.271 2.707 1.521-.145 3.604 1.484 4.003-1.84.289-2.406 2.517-3.315 4.837-3.461 2.156-.133 4.11-1.008 4.61-3.049.979-3.984 4.553-7.302 3.102-11.92-.239-.759.121-1.67.874-1.888 4.182-1.213 4.339-5.231 5.803-8.28.913-1.902 3.7-3.402 1.661-6.158-.176-.235.099-.455.568-.521 1.924-.27 2.31-1.02 1.394-2.38-.251-.374-1.153-.047-.963-.763.168-.631.697-.551 1.37-.605 2.909-.233 1.448-2.926 1.446-4.032 0-1.994.013-3.929.6-5.811.458-1.474 1.077-3.994 2.265-3.769 2.077.395 5.214-1.848 6.327 1.869.076.252.558.381.851.566-2.401 1.79-.618 2.612.867 2.375 2.069-.331-.246-1.671.117-2.625.249-.653-.017-1.484.044-2.229.299-3.709.273-7.289-3.977-9.435 2.844-.99 3.874-2.194 3.333-5.02-.779-4.067-.544-8.16 3.541-10.862.771-.513 1.829-1.241 1.549-2.372-1.319-5.321 4.205-7.416 5.346-11.559 5.965-1.912 5.605-7.573 7.17-12.095.998-2.884 3.248-4.763 5.494-6.573.872-.701 1.801-1.26 2.285-2.312h.75v.009zM1574.176 1742.501c-.784.228-.64.897-.765 1.485-.538 2.532-2.329 4.123-4.614 4.729-1.057.281-.863-1.63-1.247-2.479-1.096-2.42.088-4.416 1.999-5.929 1.344-1.061 3.031-.827 4.627-.808v3.002zM1375.426 2214.251c-1.758-1.678-3.85-2.478-6.762-2.248 5.294-3.312 9.878 1.706 14.604-.146.129 1.75-1.621 1.348-1.843 2.394h-5.999zM1504.666 2017.646h-5.239c1.962 4.438 1.2 8.632.152 12.834-.633 2.539 1.761 6.384 4.621 7.268-3.195-.191-3.496 2.096-2.646 3.658 2.726 5.003-.153 9.738-.358 14.552a58.444 58.444 0 0 1-.56 5.944c-4.51-.795-7.802-5.043-12.866-4.406-1.221.154-1.295-.904-1.764-1.56-1.54-2.15-3.642-3.155-6.267-2.89-1.945.197-4.043-2.396-3.142-4.212 1.164-2.342 1.271-4.945 2.146-7.337.563-1.541-.266-1.981-2.153-2.312 4.215-.547 4.602-4.101 4.965-6.275.476-2.828 2.168-4.282 3.873-5.447 3.723-2.545 5.002-5.927 5.599-10.162.542-3.854-.315-8.346 3.629-11.149.862-.613 1.483-2.334 2.595-1.625 1.043.666 1.587 2.312 1.122 3.683-.551 1.621.188 2.946.358 4.413.447 3.857 2.433 4.982 5.935 5.023M1500.182 1941.289c1.26 1.813 3.013 1.345 4.61 1.562 4.736.643 4.646.313 3.452-4.396-.604-2.383-1.65-3.812-3.257-5.39-1.905-1.873-1.371-2.36 1.169-3.267 2.035-.726 3.765-1.104 5.96-.665 1.999.4 4.396-.357 3.316-3.215-.898-2.381.614-1.874 1.791-2.28 1.671-.576 5.729 1.475 3.871-3.355-.291-.759.703-.457 1.288-.513 7.463-.724 8.348.123 7.946 7.925-.231 4.512-.584 9.021-.674 13.534-.018.859.178 1.42-.798 1.578-4.989.808-4.996 5.342-6.404 8.728-1.45 3.489-2.48 7.15-3.843 10.68-.837 2.171-1.952 4.098-4.421 1.304-.332-.376-1.108-.443-1.695-.498-9.012-.831-7.87-1.96-9.565-10-.334-1.586.071-3.555-2.284-4.021-.259-.051-.448-.547-.636-.859-.754-1.259 3.193-.5 1.068-2.647-.725-.74-1.42-2.291-.894-4.205M1451.225 2016.958c-.219 1.015 2.137 1.38.681 2.729-.308.284-.745.625.021 1.051.757.418 1.906-1.078 2.038.072.166 1.439-1.134.952-2.092.829-.854-.108-.812.892-.947 1.371-.308 1.086.706.714 1.15.707 1.262-.019 3.255.528 3.061 1.156-.451 1.465-.435 3.853-2.569 4.045-1.843.166-1.648 1.683-1.651 2.362-.006 1.49-.866 2.642-1.421 4.352.731-.289 1.05-.347 1.287-.518 4.27-3.058 4.299-3.064 4.873 2.061.122 1.089.334 2.146 1.509 2.186 1.364.045 1.072-1.22 1.183-2.112.138-1.097.332-2.186.548-3.557 1.268 1.158 3.09 1.631 3.213 3.626.083 1.354.338 2.979-2.047 2.573-.575-.098-1.536.279-1.842.749-.705 1.091.687.964 1.102 1.421.505.557 1.129 1.021.483 1.88-.514.687-1.197.935-1.972.736-.944-.242-1.839-.675-2.781-.928-3.068-.827-9.32 1.02-9.109 3.146.468 4.697-4.435 5.529-5.222 8.973-1.021 4.473-4.612 2.761-6.725 2.184-3.168-.867-4.995-.058-6.688 2.351-.231.33-.907.351-1.623.598 1.115-4.846.656-9.829 2.337-14.398 1.166-3.173 2.969-6.119 4.592-9.108.626-1.153 1.878-1.229 2.99-.858.778.259 5.398 1.365 5.7 1.048.852-.896 2.25-2.216.22-2.866-3.384-1.082-2.246-2.986-1.597-5.142.41-1.358 3.127-2.806.143-4.359-.054-.027.296-1.131.645-1.589 3.676-4.812 4.037-10.243 3.438-16.016-.121-1.174-.418-3.164.906-3.968.605-.367 1.732.812 2.595 1.505 1.595 1.282 3.316 1.913 4.264 4.269.724 1.798 3.382 3.965 5.727.689.494-.692 1.619-1.032 1.948-.561 1.24 1.777 4.354 1.756 4.354 4.693-.001 2.604.17 5.205.268 7.809.05 1.307-.413 1.76-1.753 1.261-1.751-.652-3.861-1.763-4.206-3.126-.512-2.024-4.953-1.776-2.737-5.044.124-.184-.797-.177-1.169-.29-1.981-.604-2.338 1.061-3.175 2.066-.281-.228-.553-.469-.861-.662.259.261.599.412.911.604"/><path d="M1502.918 1989.98c-3.292-3.898-4.584-3.799-8.782 1.279.403-2.595-1.912-4.765 1.382-6.373 1.408-.688.238-1.659-.442-2.349-1.048-1.062-1.977-2.368-3.724-.862-1.069.921-.73 1.321.151 2.066.501.422.716 1.274.886 1.976.272 1.118.988 2.691-.375 3.206-1.265.477-2.387-.341-2.724-2.05-.187-.945-1.189-1.73-1.826-2.589-.78.999-2.062 1.207-2.704 2.723-1.812 4.275-4.222 8.229-7.795 11.455-2.153 1.943-1.995 4.882-1.571 8.293 4.117-2.476 9.223-1.729 12.589-5.485.693-.773.575.158.815.343 1.211.929 2.651 1.199 4.539 1.365-1.367 1.635-2.662 2.938-3.66 4.441-1.011 1.521-2.616 3.073-.658 5.122.812.85.4 1.787-.378 2.637-1.287 1.401-2.708 2.438-4.708 2.006-4.692-1.017-8.112-4.069-11.984-6.689-4.862-3.291-2.068-6.562-2.01-10.028.075-4.423 3.21-8.086 2.494-12.893-.371-2.489 1.482-5.376 4.617-6.822 3.252-1.501 6.019-3.906 9.312-5.52 3.285-1.605 4.759-1.385 5.616 2.371 1.911-1.605.843-3.914 1.375-5.956 1.254.419 3.062-.097 2.888 2.255-.037.496.497 1.067.84 1.553 1.248 1.768 5.248 1.02 4.366 4.98-.13.586 2.957 2.105 3.728 1.083.943-1.253 2.605-3.377.788-5.179-.808-.802-1.099-3.086-3.326-1.867-.691.379-.468-.75-.379-.982.604-1.592 1.655-3.009 1.481-4.872-.093-.993.576-.582 1.186-.511 1.357.157 2.741.062 4.108.163.67.05 1.633-.4 1.924.569.263.877-.51 1.305-1.182 1.625-1.622.774-1.35 1.178-.466 2.83 1.246 2.329-.02 5.173-.785 7.829-1.038 3.597-4.521 5.413-5.664 8.807l.058.05zM1532.159 2013.896c-2.271-.603-5.396 1.42-6.326-1.633-.816-2.68 1.786-4.483 3.51-6.334.658-.709.992-1.762 1.72-2.358 2.053-1.689 2.698-5.454 7.226-3.329 2.526 1.187 6.206-.69 9.459-.562 2.149.084 3.279.719 3.399 2.899.156 2.868 1.557 4.993 3.282 7.325 2.484 3.358 2.045 7.785 1.67 11.796-.666 7.135-1.525 14.255-1.375 21.431.051 2.344-.486 3.605-3.038 3.112-2.768-.535-4.952 1.188-7.413 1.833-2.192.574-4.319.783-6.487-.202-.839-.382-1.184-.809-1.003-1.658.184-.863.934-.678 1.498-.694 2.706-.089 5.448.271 8.071-.756.518-.203 1.554.102 1.403-.756-1.126-6.485 3.669-1.304 4.881-2.904 2.532-4.779.288-10.325 1.982-15.454.343-1.041-.175-1.609-1.472-1.982-2.572-.741-5.169-.396-7.713-.752-1.611-.225-4.834 1.912-4.62-2.458.015-.31-3.607-1.11-5.546-1.141-4.837-.072-9.582-1.462-14.373-.701 2.699-4.047 7.662-2.649 11.265-4.722M1543.104 1863.145c.994-5.393 2.728-10.522 4.482-15.634.513-1.495.321-3.854.623-4.25 1.812-2.366-1.02-4.548.29-6.944.829-1.521 1.203-3.794.315-6.004-.522-1.301-.82-3.477 1.562-4.703 1.222 3.806 2.371 7.444 3.567 11.068.315.961.315 1.447-.67 2.254-1.929 1.579-3.857 3.688-2.326 6.433 1.771 3.18-.46 5.766-1.829 7.396-2.339 2.783-3.06 5.943-4.24 9.056-.273.716-.685 1.314-1.774 1.328M1455.45 1972.438c1.036 1.771-.54 4.378 1.652 6.106.52.409-.124 2.211-.854 2.079-2.379-.428-2.166 1.599-2.731 2.656-1.063 1.986-1.939 4.211 1.749 4.472 1.312.092 1.527 1.267.946 1.794-1.796 1.629-1.592 3.962-1.829 5.822-.399 3.13-2.035 3.777-4.524 3.602-2.533-.181-4.947-.498-3.369 4.31-2.791-2.899-2.479-5.298-.572-6.688 2.897-2.109 3.342-4.949 4.258-8.018 1.207-4.047 3.168-7.862 3.727-12.145.184-1.437-1.411-3.617 1.547-3.99M1522.371 2073.347c-3.77-1.389-6.521 2.19-10.49 1.312-1.54-.341-2.119-.925-2.962-1.787-.673-.688-1.08-1.513-.449-2.268.491-.588 1.295-.102 2.016.004 3.92.569 7.866.95 11.806 1.396.025.448.052.894.079 1.343M1467.742 1976.254c-2.673 3.596-2.673 3.596-6.91 1.098 2.043-1.922 4.13-2.725 6.91-1.098"/><path d="M1461.344 1984.395c-.351 1.519-1.144 1.891-2.447 1.898-1.639.014-1.573-.888-1.771-2.089-.341-2.081 1.566-2.544 2.397-2.529 1.399.023-.07 2.668 1.821 2.72M1486.83 1868.477c-.902-2.559-2.305-4.569-1.766-7.133 2.487 2.426 2.73 3.338 1.766 7.133M1499.419 1998.998c-1.054 3.099-1.195 3.18-5.329 3.516 1.348-1.987 3.917-1.834 5.329-3.516M1497.688 1882.76c.032-4.848 3.034.193 4.058-1.355-.909 2.06-2.062 3.267-4.111 1.294l.053.061M1467.158 1993.235c-.329-2.087.083-3.305 1.61-3.931.252-.104.95.16.962.292.148 1.83-1.62 2.125-2.572 3.639M1523.008 2043.715v8.02c-.125.002-.25.004-.375.004v-7.832l.375-.192M1508.042 2018.137c2.232-.546 3.921-.499 6.306-.041-2.379.553-4.069.53-6.306.041M1502.86 1989.932v4.783c-.421-1.595-1.442-3.222.059-4.732a1.254 1.254 0 0 0-.059-.051M1518.493 2040.41h4.021c-1.714.837-2.928.671-4.021 0M1489.97 1994.732c-.721-1.075-.604-2.243-.341-3.572 1.101 1.192.174 2.404.341 3.572M1529.919 2039.822c-1.41.561-2.335.531-3.546.115 1.155-.657 2.104-.465 3.546-.115M1533.74 1785.487c-.407.35-.746.881-1.096.889-.613.013-.411-.631-.418-1.032-.011-.61.424-.839.912-.713.231.058.363.496.602.856"/></g><g fill="#FFFF6D"><path d="M1563.676 1732.001c1.094 5.763-1.52 10.007-5.619 13.621-.599.526-.925.881-.56 1.826.384.993.553 2.293-.199 3.229-2.166 2.696-1.54 5.013.528 7.453 1.662 1.963.328 4.494.226 6.54-.206 4.076-.791 8.844-3.084 11.946-3.854 5.218-3.266 11.474-5.592 17.006-1.791 4.263-4.083 9.728-.081 14.616.354.434.047 1.41.047 2.462l-3.041-2.302c.82 6.045-.95 11.644 1.477 17.121-2.148.43-5.441-.627-4.762 3.543l-.675-3.373c-1.688 5.704-6.965 8.758-8.654 14.295l-1.104-5.453c-1.289 1.947.038 3.591-1.108 5.201-3.653 5.131-4.338 5.573-10.645 4.06-1.066-.256-2.12-.594-3.201-.748-.83-.118-1.607-.144-2.095.979-.498 1.149.048 1.432.803 1.984 1.233.907 1.179.983 1.228 3.117-1.055-.567-.579-2.676-2.026-2.161-.604.215-.985 1.295-1.271 2.058-.127.336.283 1.248.363 1.235 3.683-.475 7.128 3.404 10.794.782 1.104-.79 4.563.535 3.202-3.003-.016-.035 1.401-.562 2.018-.681 1.824-.354-.114 2.275 1.566 2.361 1.224 1.973-1.153 3.719-.725 4.709-.763-.979 4.527-2.572.664-4.652 1.41-2.28 6.637-3.094 7.995-1.237.497.68-.04 1.157-.393 1.614-1.395 1.81-.954 5.033-4.684 5.148-1.217.038-.482 2.531-.524 4.107 1.933-.343 3.756-1.591 4.569 1.671.77 3.072-1.059 3.094-2.82 3.854-4.702 2.032-9.441 3.838-14.599 4.416-1.289.146-2.46 1.058-3.39 2.118-.883 1.007-1.92 1.146-2.881.104-1.899-2.062-3.542-.862-5.089.43-1.276 1.063-1.894 2.854-3.754 3.307-.797.193-.806 1.053-.554 1.536.562 1.075.896.395 1.513-.182.812-.757.562 1.084 1.375.844-2.074 2.913 3.237 2.146 2.259 4.54-.396.971-1.166 1.489-2.116 2.188-1.605-4.146-5.472-4.631-8.844-5.783-1-.344-2.37-.829-3.301.597-1.02 1.562-.481 2.687.775 3.715l-.055-.062c2.067 4.886 1.534 6.026-2.719 10.114-3.567 3.432-5.826 7.933-7.562 12.49-.816 2.149-2.111 4.076-2.625 6.799-.771-1.646-1.758-2.157-3.116-2.553-1.885-.546-3.839-1.066-4.419-3.797-.42-1.979-3.261-1.096-4.808-2.021-.881-.526-2.384-.36-2.405-1.857-.02-1.418 1.063-1.631 2.235-1.979 1.36-.402 2.382-2.129 3.289-2.504 2.838-1.176 3.52-5.961 8.175-4.313 2.716.961 5.258-1.79 7.868-2.874 1.266-.526.026-1.654-.066-2.446-.054-.459-1.099-.873-1.758-1.178-1.824-.845-3.987-1.651-3.247-4.158.757-2.566 1.41-5.868 5.57-4.208.186.075.472-.101.737-.166-.064-1.155-1.082-.983-1.734-1.392-1.122-.703-2.586-1.244-1.112-3.332 1.911-2.703.192-5.571-.75-8.273-.191-.553-.784-.954-1.115-1.475-1.142-1.789-1.55-4.07-.622-5.664 1.052-1.806 2.785.274 4.213.532 2.39.431 4.209-.709 3.646-2.789-.202-.743-.244-1.895-2.085-1.618-1.752.262-3.73-.832-5.577-1.435-.725-.238-1.389-.908-1.08-1.722.972-2.553.821-5.591 3.652-7.764-1.48 3.359-.718 5.464 2.33 7.324 2.996 1.828 3.068-.217 3.585-1.92.439-1.451-.674-3.265 1.005-4.484 1.256.529-1.601 2.98 1.271 2.707 1.521-.145 3.604 1.484 4.003-1.84.289-2.406 2.517-3.315 4.837-3.461 2.156-.133 4.11-1.008 4.61-3.049.979-3.984 4.553-7.302 3.102-11.92-.239-.759.121-1.67.874-1.888 4.182-1.213 4.339-5.231 5.803-8.28.913-1.902 3.7-3.402 1.661-6.158-.176-.235.099-.455.568-.521 1.924-.27 2.31-1.02 1.394-2.38-.251-.374-1.153-.047-.963-.763.168-.631.697-.551 1.37-.605 2.909-.233 1.448-2.926 1.446-4.032 0-1.994.013-3.929.6-5.811.458-1.474 1.077-3.994 2.265-3.769 2.077.395 5.214-1.848 6.327 1.869.076.252.558.381.851.566-2.401 1.79-.618 2.612.867 2.375 2.069-.331-.246-1.671.117-2.625.249-.653-.017-1.484.044-2.229.299-3.709.273-7.289-3.977-9.435 2.844-.99 3.874-2.194 3.333-5.02-.779-4.067-.544-8.16 3.541-10.862.771-.513 1.829-1.241 1.549-2.372-1.319-5.321 4.205-7.416 5.346-11.559 5.965-1.912 5.605-7.573 7.17-12.095.998-2.884 3.248-4.763 5.494-6.573.872-.701 1.801-1.26 2.285-2.312h.75v.009zM1574.176 1742.501c-.784.228-.64.897-.765 1.485-.538 2.532-2.329 4.123-4.614 4.729-1.057.281-.863-1.63-1.247-2.479-1.096-2.42.088-4.416 1.999-5.929 1.344-1.061 3.031-.827 4.627-.808v3.002zM1375.426 2214.251c-1.758-1.678-3.85-2.478-6.762-2.248 5.294-3.312 9.878 1.706 14.604-.146.129 1.75-1.621 1.348-1.843 2.394h-5.999zM1504.666 2017.646h-5.239c1.962 4.438 1.2 8.632.152 12.834-.633 2.539 1.761 6.384 4.621 7.268-3.195-.191-3.496 2.096-2.646 3.658 2.726 5.003-.153 9.738-.358 14.552a58.444 58.444 0 0 1-.56 5.944c-4.51-.795-7.802-5.043-12.866-4.406-1.221.154-1.295-.904-1.764-1.56-1.54-2.15-3.642-3.155-6.267-2.89-1.945.197-4.043-2.396-3.142-4.212 1.164-2.342 1.271-4.945 2.146-7.337.563-1.541-.266-1.981-2.153-2.312 4.215-.547 4.602-4.101 4.965-6.275.476-2.828 2.168-4.282 3.873-5.447 3.723-2.545 5.002-5.927 5.599-10.162.542-3.854-.315-8.346 3.629-11.149.862-.613 1.483-2.334 2.595-1.625 1.043.666 1.587 2.312 1.122 3.683-.551 1.621.188 2.946.358 4.413.447 3.857 2.433 4.982 5.935 5.023M1500.182 1941.289c1.26 1.813 3.013 1.345 4.61 1.562 4.736.643 4.646.313 3.452-4.396-.604-2.383-1.65-3.812-3.257-5.39-1.905-1.873-1.371-2.36 1.169-3.267 2.035-.726 3.765-1.104 5.96-.665 1.999.4 4.396-.357 3.316-3.215-.898-2.381.614-1.874 1.791-2.28 1.671-.576 5.729 1.475 3.871-3.355-.291-.759.703-.457 1.288-.513 7.463-.724 8.348.123 7.946 7.925-.231 4.512-.584 9.021-.674 13.534-.018.859.178 1.42-.798 1.578-4.989.808-4.996 5.342-6.404 8.728-1.45 3.489-2.48 7.15-3.843 10.68-.837 2.171-1.952 4.098-4.421 1.304-.332-.376-1.108-.443-1.695-.498-9.012-.831-7.87-1.96-9.565-10-.334-1.586.071-3.555-2.284-4.021-.259-.051-.448-.547-.636-.859-.754-1.259 3.193-.5 1.068-2.647-.725-.74-1.42-2.291-.894-4.205M1451.225 2016.958c-.219 1.015 2.137 1.38.681 2.729-.308.284-.745.625.021 1.051.757.418 1.906-1.078 2.038.072.166 1.439-1.134.952-2.092.829-.854-.108-.812.892-.947 1.371-.308 1.086.706.714 1.15.707 1.262-.019 3.255.528 3.061 1.156-.451 1.465-.435 3.853-2.569 4.045-1.843.166-1.648 1.683-1.651 2.362-.006 1.49-.866 2.642-1.421 4.352.731-.289 1.05-.347 1.287-.518 4.27-3.058 4.299-3.064 4.873 2.061.122 1.089.334 2.146 1.509 2.186 1.364.045 1.072-1.22 1.183-2.112.138-1.097.332-2.186.548-3.557 1.268 1.158 3.09 1.631 3.213 3.626.083 1.354.338 2.979-2.047 2.573-.575-.098-1.536.279-1.842.749-.705 1.091.687.964 1.102 1.421.505.557 1.129 1.021.483 1.88-.514.687-1.197.935-1.972.736-.944-.242-1.839-.675-2.781-.928-3.068-.827-9.32 1.02-9.109 3.146.468 4.697-4.435 5.529-5.222 8.973-1.021 4.473-4.612 2.761-6.725 2.184-3.168-.867-4.995-.058-6.688 2.351-.231.33-.907.351-1.623.598 1.115-4.846.656-9.829 2.337-14.398 1.166-3.173 2.969-6.119 4.592-9.108.626-1.153 1.878-1.229 2.99-.858.778.259 5.398 1.365 5.7 1.048.852-.896 2.25-2.216.22-2.866-3.384-1.082-2.246-2.986-1.597-5.142.41-1.358 3.127-2.806.143-4.359-.054-.027.296-1.131.645-1.589 3.676-4.812 4.037-10.243 3.438-16.016-.121-1.174-.418-3.164.906-3.968.605-.367 1.732.812 2.595 1.505 1.595 1.282 3.316 1.913 4.264 4.269.724 1.798 3.382 3.965 5.727.689.494-.692 1.619-1.032 1.948-.561 1.24 1.777 4.354 1.756 4.354 4.693-.001 2.604.17 5.205.268 7.809.05 1.307-.413 1.76-1.753 1.261-1.751-.652-3.861-1.763-4.206-3.126-.512-2.024-4.953-1.776-2.737-5.044.124-.184-.797-.177-1.169-.29-1.981-.604-2.338 1.061-3.175 2.066-.281-.228-.553-.469-.861-.662.259.261.599.412.911.604"/><path d="M1502.918 1989.98c-3.292-3.898-4.584-3.799-8.782 1.279.403-2.595-1.912-4.765 1.382-6.373 1.408-.688.238-1.659-.442-2.349-1.048-1.062-1.977-2.368-3.724-.862-1.069.921-.73 1.321.151 2.066.501.422.716 1.274.886 1.976.272 1.118.988 2.691-.375 3.206-1.265.477-2.387-.341-2.724-2.05-.187-.945-1.189-1.73-1.826-2.589-.78.999-2.062 1.207-2.704 2.723-1.812 4.275-4.222 8.229-7.795 11.455-2.153 1.943-1.995 4.882-1.571 8.293 4.117-2.476 9.223-1.729 12.589-5.485.693-.773.575.158.815.343 1.211.929 2.651 1.199 4.539 1.365-1.367 1.635-2.662 2.938-3.66 4.441-1.011 1.521-2.616 3.073-.658 5.122.812.85.4 1.787-.378 2.637-1.287 1.401-2.708 2.438-4.708 2.006-4.692-1.017-8.112-4.069-11.984-6.689-4.862-3.291-2.068-6.562-2.01-10.028.075-4.423 3.21-8.086 2.494-12.893-.371-2.489 1.482-5.376 4.617-6.822 3.252-1.501 6.019-3.906 9.312-5.52 3.285-1.605 4.759-1.385 5.616 2.371 1.911-1.605.843-3.914 1.375-5.956 1.254.419 3.062-.097 2.888 2.255-.037.496.497 1.067.84 1.553 1.248 1.768 5.248 1.02 4.366 4.98-.13.586 2.957 2.105 3.728 1.083.943-1.253 2.605-3.377.788-5.179-.808-.802-1.099-3.086-3.326-1.867-.691.379-.468-.75-.379-.982.604-1.592 1.655-3.009 1.481-4.872-.093-.993.576-.582 1.186-.511 1.357.157 2.741.062 4.108.163.67.05 1.633-.4 1.924.569.263.877-.51 1.305-1.182 1.625-1.622.774-1.35 1.178-.466 2.83 1.246 2.329-.02 5.173-.785 7.829-1.038 3.597-4.521 5.413-5.664 8.807l.058.05zM1532.159 2013.896c-2.271-.603-5.396 1.42-6.326-1.633-.816-2.68 1.786-4.483 3.51-6.334.658-.709.992-1.762 1.72-2.358 2.053-1.689 2.698-5.454 7.226-3.329 2.526 1.187 6.206-.69 9.459-.562 2.149.084 3.279.719 3.399 2.899.156 2.868 1.557 4.993 3.282 7.325 2.484 3.358 2.045 7.785 1.67 11.796-.666 7.135-1.525 14.255-1.375 21.431.051 2.344-.486 3.605-3.038 3.112-2.768-.535-4.952 1.188-7.413 1.833-2.192.574-4.319.783-6.487-.202-.839-.382-1.184-.809-1.003-1.658.184-.863.934-.678 1.498-.694 2.706-.089 5.448.271 8.071-.756.518-.203 1.554.102 1.403-.756-1.126-6.485 3.669-1.304 4.881-2.904 2.532-4.779.288-10.325 1.982-15.454.343-1.041-.175-1.609-1.472-1.982-2.572-.741-5.169-.396-7.713-.752-1.611-.225-4.834 1.912-4.62-2.458.015-.31-3.607-1.11-5.546-1.141-4.837-.072-9.582-1.462-14.373-.701 2.699-4.047 7.662-2.649 11.265-4.722M1543.104 1863.145c.994-5.393 2.728-10.522 4.482-15.634.513-1.495.321-3.854.623-4.25 1.812-2.366-1.02-4.548.29-6.944.829-1.521 1.203-3.794.315-6.004-.522-1.301-.82-3.477 1.562-4.703 1.222 3.806 2.371 7.444 3.567 11.068.315.961.315 1.447-.67 2.254-1.929 1.579-3.857 3.688-2.326 6.433 1.771 3.18-.46 5.766-1.829 7.396-2.339 2.783-3.06 5.943-4.24 9.056-.273.716-.685 1.314-1.774 1.328M1455.45 1972.438c1.036 1.771-.54 4.378 1.652 6.106.52.409-.124 2.211-.854 2.079-2.379-.428-2.166 1.599-2.731 2.656-1.063 1.986-1.939 4.211 1.749 4.472 1.312.092 1.527 1.267.946 1.794-1.796 1.629-1.592 3.962-1.829 5.822-.399 3.13-2.035 3.777-4.524 3.602-2.533-.181-4.947-.498-3.369 4.31-2.791-2.899-2.479-5.298-.572-6.688 2.897-2.109 3.342-4.949 4.258-8.018 1.207-4.047 3.168-7.862 3.727-12.145.184-1.437-1.411-3.617 1.547-3.99M1522.371 2073.347c-3.77-1.389-6.521 2.19-10.49 1.312-1.54-.341-2.119-.925-2.962-1.787-.673-.688-1.08-1.513-.449-2.268.491-.588 1.295-.102 2.016.004 3.92.569 7.866.95 11.806 1.396.025.448.052.894.079 1.343M1467.742 1976.254c-2.673 3.596-2.673 3.596-6.91 1.098 2.043-1.922 4.13-2.725 6.91-1.098"/><path d="M1461.344 1984.395c-.351 1.519-1.144 1.891-2.447 1.898-1.639.014-1.573-.888-1.771-2.089-.341-2.081 1.566-2.544 2.397-2.529 1.399.023-.07 2.668 1.821 2.72M1486.83 1868.477c-.902-2.559-2.305-4.569-1.766-7.133 2.487 2.426 2.73 3.338 1.766 7.133M1499.419 1998.998c-1.054 3.099-1.195 3.18-5.329 3.516 1.348-1.987 3.917-1.834 5.329-3.516M1497.688 1882.76c.032-4.848 3.034.193 4.058-1.355-.909 2.06-2.062 3.267-4.111 1.294l.053.061M1467.158 1993.235c-.329-2.087.083-3.305 1.61-3.931.252-.104.95.16.962.292.148 1.83-1.62 2.125-2.572 3.639M1523.008 2043.715v8.02c-.125.002-.25.004-.375.004v-7.832l.375-.192M1508.042 2018.137c2.232-.546 3.921-.499 6.306-.041-2.379.553-4.069.53-6.306.041M1502.86 1989.932v4.783c-.421-1.595-1.442-3.222.059-4.732a1.254 1.254 0 0 0-.059-.051M1518.493 2040.41h4.021c-1.714.837-2.928.671-4.021 0M1489.97 1994.732c-.721-1.075-.604-2.243-.341-3.572 1.101 1.192.174 2.404.341 3.572M1529.919 2039.822c-1.41.561-2.335.531-3.546.115 1.155-.657 2.104-.465 3.546-.115M1533.74 1785.487c-.407.35-.746.881-1.096.889-.613.013-.411-.631-.418-1.032-.011-.61.424-.839.912-.713.231.058.363.496.602.856"/></g></svg>