<svg id="圖層_1" xmlns="http://www.w3.org/2000/svg" width="1200" height="900" viewBox="0 0 1200 900"><title>layer_agriculture</title><path fill="#A2FDDC" d="M434.3 674.673c2.687 1.88 4.97 4.3 8.06 5.776 3.09 1.477 3.493 3.09 4.567 5.775a85.31 85.31 0 0 0 9.27 16.522c1.21 1.746 4.164 1.746 6.717 1.478a24.975 24.975 0 0 0 11.015-2.955c.94-.537 1.478-.537 1.746.672.14.462.32.91.537 1.343 1.074-4.7 4.567-.402 6.717-1.746 2.15-1.344 3.492-3.762 4.3.806.133.806 2.954.67 3.088.134.672-6.045 4.567-2.955 7.523-2.687.403-3.896-4.433-4.567-4.835-8.06-.403-3.493-1.747 2.687-3.493-.135s-4.3-3.493-5.24-6.717-2.686-7.12-2.417-11.686a34.374 34.374 0 0 0-2.687-15.718c-.537-1.21.27-1.88.403-2.687.135-.807.673-2.822-.67-3.09-3.763-.672-5.51-5.91-10.48-4.434-1.074.27-5.642-.537-2.955-4.567.83-1.067.83-2.562 0-3.628a1.21 1.21 0 0 0-2.015 0c-.806.94-2.015 1.478-1.478 3.358 1.61 4.97-3.225 8.06-4.3 12.225-.268 1.21-2.552 1.21-3.09.67-.536-.536-3.76-4.163-2.82-5.774 3.358-5.776 3.762-13.164 9.673-17.598.67-.537 1.343-2.283 2.418-.134 1.074 2.15 1.746.537 2.687 0 3.76-1.88 6.045-10.21 3.627-13.97s.402-2.554 1.478-2.554c1.074 0 4.164-1.746 5.508-3.627-.807-1.074-1.88.27-2.15 0s.135-2.015.94-2.418c5.777-2.688 7.39-8.464 9.404-13.703 2.015-5.238 3.09-6.716 6.18-8.597 3.09-1.88 1.88-4.97 4.03-6.583 5.238-3.896 10.343-7.925 15.85-11.552 2.956-2.016 5.777-3.225 7.255-7.12a25.917 25.917 0 0 1 6.85-9.135c3.226-2.955 5.51-7.926 7.39-12.225.806-1.746-2.283-4.97-4.164-6.985-1.88-2.015-4.03-7.522-.94-11.015.94-1.075 0-1.48 0-2.15-.403-8.597-8.06-13.164-10.747-20.418-.67-1.88-2.55-4.3-.67-5.508 4.7-3.09 2.687-8.195 4.298-12.09 1.612-3.897-.806-5.105-2.687-5.912-4.298-2.015-2.148-3.76-.4-5.507a116.38 116.38 0 0 1 9.536-8.463c1.746-1.343 2.418-3.492 3.627-5.104 1.21-1.61-1.746-2.955-2.82-3.09-3.358-.27-4.03-2.687-5.24-5.104s-2.552-6.448-6.582-7.255c-4.028-.806-1.477-2.015-1.477-3.09-.134-4.97 0-10.074 0-15.045 0-2.955.94-4.567 4.567-5.104 6.313-.94 12.493-2.82 18.94-.94.94.27 2.553.403 2.956-.135 3.762-5.237 9.135-3.49 14.105-3.76a11.15 11.15 0 0 0 9.27-5.643 69.226 69.226 0 0 1 10.21-11.418c1.343-1.345 2.82-1.613 3.895-.136 1.074 1.48 4.97 2.418 6.717 4.836 1.746 2.42 5.642-3.224 5.91-5.91.37-2.445.55-4.915.537-7.39-.673-13.566 5.775-24.447 12.492-35.328 3.762-6.045 6.985-12.493 11.016-18.404 1.746-2.552 3.76-4.567 6.448-4.836 2.687-.27 4.03-2.015 3.76-4.836a17.102 17.102 0 0 1 0-4.97c1.48-7.39 2.956-14.643-4.97-19.613a4.452 4.452 0 0 1 0-2.015c2.553-.135 2.15 3.09 4.567 2.955.135-.67 0-2.284.672-2.552 6.985-3.895 4.3-9.805 3.493-15.447-1.344-8.866-2.016-17.866 1.074-26.598 1.075-2.955 1.21-6.18 3.224-9.672 5.508 9.94 7.255 22.03 19.747 26.598-4.97.672-4.567 3.494-3.76 6.314.133.403.805.537.4 1.075-4.97 7.387-2.954 15.716-3.49 23.776 0 .806 1.61 4.568-2.15 1.88-.672-.537-.672.538-.537 1.21.134.67 0 3.895 1.478 5.507 3.492 3.896 3.224 9.27 6.045 13.568 1.477 2.15-1.48 2.956-2.42 4.165-3.09 4.03-3.357 7.79-.134 9.94 3.225 2.15 3.896 2.553 5.643 5.104-4.972 1.477-8.867 5.507-15.18 3.895-2.15-.537-6.45 2.284-7.792 6.046a3.225 3.225 0 0 1-2.688 2.553c-2.148.537-10.746 11.15-9.94 12.762 2.956 5.776.672 11.82 1.344 17.732.23 1.482-.056 3-.806 4.298-.672 1.075-1.21 1.612-2.284 1.344-4.97-1.345-8.463.134-10.478 4.97-.403 1.074-1.747.94-2.553 1.343-3.627 1.612-6.448 4.03-3.896 8.33 2.552 4.298-2.687 5.238 0 8.327a8.865 8.865 0 0 1 2.283 8.598c-.806 3.224 2.82 5.24 6.045 5.776 3.225.537 2.418.403 2.016 2.955-1.074 6.18-1.61 12.492-4.298 18.135a38.552 38.552 0 0 0-4.433 13.7c-.54 4.837-3.226 9.808-4.703 14.778a14.37 14.37 0 0 1-4.433 7.12c-4.567 3.76-4.702 8.462-3.358 13.836 2.015 7.924 0 15.18-3.627 22.566-5.24 10.48-13.166 19.344-17.733 29.957a26.986 26.986 0 0 0-2.015 10.88c.134 3.225.806 6.718-1.612 9.673 3.224.27 4.3-2.016 6.717-3.358-1.88 4.7-.403 9.135-2.015 13.434-.538 1.61.27 3.492-2.42 4.164-2.686.672-.67 2.418-.536 3.627.142.42.503.73.94.806 1.88-.27-.402-2.016 1.075-2.688s.94 3.09.538 4.567c-2.15 6.716-.807 13.298-.135 20.015s3.896 15.986 1.21 23.643c-1.747 4.836-1.075 8.598 0 13.165 1.074 4.567.806 8.598-2.553 12.09l-.538.537c6.18 4.567 0 9.135-.402 13.568-.403 4.433-3.762 11.552-4.97 17.463-.673 3.09-1.882 3.897-5.51 3.897 3.09 1.21 4.03 2.418 3.36 5.24-1.48 5.775-2.553 11.686-5.105 17.193-4.03 8.598-3.224 18.404-6.985 27.136s-6.85 13.836-9.537 21.09c-1.48 3.896-3.628 1.21-4.567-2.15-.672 5.375-3.225 7.12-7.792 5.912.403 1.88 2.82 2.955 1.075 4.567-1.748 1.612-2.822.672-4.435.672-5.776-.27-11.284-3.225-17.33-.94-1.745.672-4.297-.806-6.58-1.344-2.284-.537-4.702-2.552-7.927-.27-3.224 2.285-5.373-2.282-8.06-1.61-2.687.67-4.3-2.418-5.643-4.434l-2.687-4.165c-2.552-3.896-3.224-7.926-.134-11.956 3.09-4.03 3.627-9.538 6.447-13.837 1.48-2.15-.4-3.358-1.61-4.567-6.448-6.717-12.762-13.567-20.688-18.404-5.643-3.492-6.852-8.328-7.39-14.104-.133-1.344-.268-2.687-.402-3.896-.806-10.48-9.27-15.717-15.717-22.3v-2.955l.407-.534zM757.64 127.667c-5.507 2.015-8.193 7.523-12.895 10.612-4.7 3.09-5.508 7.12-6.85 11.955-1.345 4.836-4.03 8.597-9.54 9.672-1.073.27-.133.94-.268 1.478-.806 3.09-1.074 6.448-4.7 8.06-3.63 1.612-2.15 3.627-1.882 5.104.94 3.76-1.075 6.178-3.358 7.79-2.284 1.613-2.955 7.12-5.643 10.076-2.687 2.955 1.478 4.567 0 7.522s-6.313 9-8.194 14.24c-1.88 5.238-3.492 7.52-3.224 11.955s-.135 5.374-2.955 6.985c-2.82 1.612 0 1.075.27 1.747.27.67.94 2.955-1.478 3.224-2.418.268-.94.134-.807.67 2.284 6.718-5.104 10.21-5.238 16.12-.02.17-.12.32-.27.404-9 3.627-4.7 13.3-8.597 19.344-2.15 3.224-3.493 5.91-7.926 6.18-1.88.133-4.702.67-5.373 3.492-.67 2.82-3.895 4.433-7.388 3.358 2.82-4.433 2.15-9.27.403-13.836-.672-1.746.537-.806.94-.94 5.238-3.09 8.463-8.194 12.09-12.896.537-.67.402-1.478-.403-2.687s-2.82-6.45.403-9.54c5.776-5.64 3.896-13.03 4.03-19.746.134-9 4.164-14.105 13.164-15.448a3.493 3.493 0 0 0 2.552-2.015c3.896-5.103 7.926-10.208 11.553-15.447 3.627-5.24 5.507-13.568 1.746-20.15-3.76-6.583-.402-8.598 1.613-12.36a9.934 9.934 0 0 0 1.61-6.044c-.536-6.45 1.345-12.763 2.017-19.076-.02-.65.222-1.278.67-1.747 6.584-2.284 10.882-8.463 18.002-9.94a2.96 2.96 0 0 1 1.478 0c6.448 2.418 6.448-1.612 6.045-6.045h1.075c4.7 4.97 11.015 5.642 17.194 7.12v1.074l.137-.27z"/><path fill="#FEFEFE" d="M757.64 126.592c-6.984.672-13.433.134-17.06-6.985h9.806c7.255 0 7.255 0 7.255 6.985z"/><path fill="#A2FDDC" d="M499.72 782.542a3.358 3.358 0 0 1 5.105 0h-5.105zM653.13 393.647c-2.284-7.12 1.343-11.016 5.64-14.374 4.3-3.358 4.568 1.478 6.986 2.015 2.418.538 1.48 1.612.94 2.688l-8.328 22.03c-1.747-4.567.27-9 .537-13.434.134-2.015.134-4.97-1.344-5.373s-2.417 2.014-2.954 3.895c-.38.91-.877 1.77-1.477 2.552zM436.584 669.03c1.074-1.61 0-4.3 2.283-4.97.93.275 1.676.972 2.015 1.88.268 2.822-2.687 2.15-4.298 3.09z"/><path fill="#FEFEFE" d="M557.08 444.022c4.567-.94 4.836-3.762 3.225-7.39 2.015-1.073 4.567 6.718 5.91-.536.27-1.344 1.747-2.82-.27-3.896-2.014-1.075-2.417-1.612-4.432-.672-4.97 2.552-4.97-2.82-6.582-4.97a5.507 5.507 0 0 1 .672-7.255c.807-.806 3.627-.27 4.836.672s3.627 3.09 3.225 5.508c-.403 2.418.672 2.82 3.224 3.627 6.582 2.015 10.48-.807 13.434-5.91s4.702-.807 6.718-.135c2.015.672 1.074 2.552.672 4.164a7.923 7.923 0 0 0-.135 3.895c1.478 5.104-.403 5.374-5.776 6.448s-8.195 1.074-11.957 2.553c-3.76 1.478-4.03 3.357-.806 6.716-3.627-2.687-9.27 4.97-11.82-2.82h-.137zM532.497 583.595c-2.015 3.76-6.313 4.567-9.27 7.12-2.954 2.552-3.09-1.075-4.298-2.284s-1.21-2.014.268-3.626c3.896-4.03 6.986-4.568 13.3-1.21zM532.9 767.63c-.806.54-1.612 1.21-2.015 1.076a15.006 15.006 0 0 1-2.553-2.015c.672-.67 1.344-1.88 2.016-2.015.672-.133.27 2.687 2.552 2.956zM550.23 702.883c-1.075 3.09-1.075 3.09-4.703 2.418.94-2.283 3.494-.806 4.702-2.417zM558.827 693.748c-.94 0-1.88-.403-1.478-1.075a5.78 5.78 0 0 1 2.282-2.418c.537-.27 1.478.672 1.344 1.612a2.15 2.15 0 0 1-2.15 1.88zM560.842 687.435a1.613 1.613 0 0 1-1.612-1.478c-.134-1.21.94-1.21 1.747-1.075.806.135 1.88-.27 1.88.94s-1.343.806-2.015 1.613z"/><path fill="#FEFEFE" d="M557.215 444.022a7.933 7.933 0 0 1-2.553-5.776c2.82 1.61 2.553 3.76 2.553 5.91h.135l-.135-.134zM511.944 705.3c2.015-.134 3.358-2.015 5.508-1.074-1.612 1.343-3.09 2.284-5.508 1.075zM540.423 706.644h-5.776v-.402h5.776v.537-.136zM575.887 483.785c-.806-1.612-1.074-3.09.94-4.3 1.075 1.882-1.746 2.688-.94 4.3zM568.768 467.934a9.67 9.67 0 0 1 0 6.045 9.263 9.263 0 0 1 0-6.046zM555.334 618.924c2.15-.537 2.955-1.88 3.762-.94.806.94-.27 1.21-.94 1.344l-2.822-.404zM507.377 700.6a2.808 2.808 0 0 1-.94.94 3.36 3.36 0 0 1-1.88-1.075c-.27-.537.537-.537.94-.537.402 0 1.343-.404 1.88.67zM673.95 272.747a10.756 10.756 0 0 0 2.016-6.313c.27-3.762 3.896-3.627 5.776-5.24 1.88-1.61 1.746 2.553.94 3.897-.807 1.344-6.583 4.03-5.105 9 0 .135-3.358 1.613-3.627-1.477h-.134l.134.134z"/><path fill="#FEFEFE" d="M674.085 272.613l-1.746.672c.67 2.418-1.076 2.82-2.554 2.284-1.478-.54-.806-2.15 0-3.36s1.21-2.283 1.88-3.76a4.97 4.97 0 0 1 2.284 4.298h.135v-.135zM691.816 224.924c-2.148-.806-1.746-2.418-1.88-4.03 1.478 1.075 2.687 2.15 1.88 4.03zM685.1 256.224c-.544.52-1.182.93-1.88 1.21-1.075.133-1.21-.807-1.075-1.613.135-.805-.134-1.074.807-.67l2.15 1.074z"/><path fill="#A2FDDC" d="M586.23 431.126c-.134 1.88-.94 2.956-2.015 2.553s-.672-1.345.403-1.747l1.612-.807z"/></svg>