<svg id="圖層_1" xmlns="http://www.w3.org/2000/svg" viewBox="0 0 1147.9 1099"><style>.st0{fill:#f9f4ed}.st1{fill:#2c3e50}.st2,.st3{opacity:.9;fill:#9cb5bb;enable-background:new}.st3{fill:#517277}.st4{opacity:.7}.st5{fill:#fff}.st6{fill:none}.st7{opacity:.3}.st10,.st8,.st9{opacity:.4;fill:#24ceb1;enable-background:new}.st10,.st9{opacity:.2}.st10{opacity:.6}.st11{fill:#ff4d4d}.st12{fill:none;stroke:#2c3e50;stroke-width:2;stroke-miterlimit:10}</style><g id="圖層_1_1_"><path class="st0" d="M0-.9h1147.9V1099H0V-.9z"/><path class="st1" d="M64.8 768.5h168v62h-168v-62zm0 71.1h168v62h-168v-62zm0 71.1h168v62h-168v-62zm0-213.4h168v62h-168v-62zm0 285.3h168v62h-168v-62z"/><path class="st2" d="M1006.9 279.4c-1-2.1.5-7.8 0-14.6s-6.8-7.3-11.5-8.8c-4.7-1.6-6.2 0-9.4 4.2-3.1 4.2-5.2 0-8.3 0s-6.2-5.7-6.2-5.7l-6.8-15.1-1.7-6.1c-1.2.2-2.5.2-4-.2-.5-.1-1.3.9-1.9 1.4-6 5.3-10.4 11-8.9 19.9 1.4 8.4.4 16.8-6.1 23.4-1.8 1.9-1.7 4.4-.6 6.2 2.8 4.5 1.3 7.8-1.6 11.6-5.4 7.2-11.3 13.2-21.2 10.8-6-1.5-11.5-4.4-14.6-10.3-3.6-6.8-7.1-13.8-10.9-21.1-5.2 11.3-6.2 22.2-6.5 33.5-.2 8.2 4.6 15.6 1.9 24.2-1.2 3.9-2.2 4.6-5.6 4.5-1.9 0-4.5-1.2-5.5.9-1.3 2.6 1.5 4 3 5.3 4.3 3.5 6.9 7.2 4.1 12.9-2.1 4.2-1.2 8.7-1.2 13.1 0 3.4.4 6-4.6 6.3-3.4.2-6 2.8-8.1 6.2-6.9 10.8-14.6 21.1-19.9 32.8-5.9 13-11.4 26.3-9.4 41.4.7 5.2-5.6 7.9-10.1 5-1.8-1.2-3.6-2.5-5.3-3.9-1.8-1.5-3.3-1.3-4.7.3-3.5 3.9-7.5 7.3-10.8 11.5-2.8 3.7-5.5 8.8-10.7 9.1-16 .9-31.5 4.7-47.3 6.2-3.2.3-4.2 1.6-4.2 4.6.1 7 0 13.9 0 20.9 0 1.2.1 2.2 1 3.3 3.8 4.4 7.2 9.1 11.1 13.4 6.6 7.5 6.5 9.9-2 15.5-1 .7-1.9 1.4-2.9 2.1-5.5 4.1-7.6 8.6-4.2 15.5 2.3 4.6 2.8 9.9-.2 14.8-2.7 4.3-1.9 8.2 1.4 12 6.6 7.6 9.7 16.3 8 26.5-1.3 8 1.9 14.8 5.6 21.6.7 1.3 3.1 3 1 4.7-6.9 5.3-9.9 13.5-15.2 19.9-2.9 3.5-5.7 7.3-10.1 9.7-13.2 7.3-23.9 17.7-29.5 31.7-3.5 8.9-8.7 15.6-16.8 20-4.3 2.3-5.7 5.3-5 9.7.7 4.6-.7 8.1-4.5 11.1-5.4 4.3-9.2 9.9-11.8 16.4-1.6 4-2.8 8.8-5.8 11.3-8.3 6.8-14.9 14.6-18.5 24.8v6.1c1.2 1.7 1.9 3.6 3.4 5 9.2 8.6 15.7 18.5 15.5 31.8-.1 5.6 3.1 9.4 7.5 12.6 9 6.4 17.4 13.6 24.9 21.8 2.5 2.8 3.4 5.3 1.5 8.7-2.5 4.5-4.1 9.3-6.4 13.9-5 10.2 2.6 26 13.8 28.6 6.2 1.4 12.4 2.4 18.1 5.4 3.3 1.8 6.7 1.2 9.9-.8 2.3-1.4 4.7-3.2 7.4-2.2 9 3.2 17.3 1 25.6-2.3 3.7-1.5 6.3-.7 7.9 3.1 1 2.3 2.2 4.4 4.5 5.6h3.7c7.9-3 11.8-8.7 12.5-17.2.5-6.5 2.1-12.9 3-19.4 2.6-19.9 6.2-39.5 16.6-57.2 6.3-10.9 9.5-22.8 10.6-35.5 1-11.2 1.8-22.5 4.5-33.4 5.1-20.1 8.6-40.4 7.2-61.3-.3-5.2 1.5-9 5.7-12.1 5.3-3.9 9.9-8.4 13.3-14.3 3.8-6.5 4.1-6.5 11.2-3.9 16.4 6.2 33.4 8.3 50.7 6.3 6.3-.8 9.8.7 13.4 5.5 11.3 14.8 7.7 14.9 29.6 11.6 10.6-1.6 14.2-4.9 16.8-15.3.6-2.4.6-4.9.6-7.3v-16c0-3.2 1.5-5.3 4.8-4.9 10 1.2 19.3-2.6 29-3.9 3.4-.5 5.2-2.2 5.3-5.6.4-15.9 2.5-31.8 2.6-47.7 0-3.1-.4-6.2-2.7-8.5-2.8-2.7-3.9-6.1-4.9-9.7-1.9-6.7-3.4-7.9-10.5-7.8-9 .1-17.9-1.2-26.9-2.1-10.7-1-21.2-.4-31.5-5.8-7.4-3.9-8.2-2.5-4.3-10.1.8-1.7 1.8-3.2 2.4-5 1.5-3.8 4.1-5.7 8.1-6.6 9.5-2.2 13.6-11.1 9.2-19.8-1.5-2.9-2.3-5.6-1-8.7 3.4-7.9 5.7-16.2 8.8-24.2 1.2-3 2.7-5.5 5.7-6.8 3.4-1.5 4.5-4.4 4.6-8 .1-4.9-.7-9.9.4-14.7 1.9-8.2 0-15.1-5-21.9-5.4-7.4-4.3-14.1 2.9-19.7 4.1-3.2 7.6-6.9 10.1-11.4 3.4-6 8.1-11.1 13.8-14.6 7.3-4.5 8.7-10.9 6.6-17.9-3.2-11 .9-18.6 9.2-25 2.5-1.9 4.6-4.3 5.2-7.4 1.5-6.9 5.5-12.3 10.2-17.2 4.3-4.4 4.3-8.7 1.5-13.9-3.7-6.8-7.2-13.8-10.4-20.9-.6-1.3-1.1-2.6-1.6-3.9h-5.2c.6.4-11.3-6.4-12.4-8.5z"/><path class="st3" d="M1025.9 275.7c4.3-6.7 3.7-12.3-1.1-19-5.2-7.2-3.6-21.5 8.8-24.7 3.8-1 4.7-3.3 4.9-6.7.4-9-.2-18-2.5-26.8-2.7-10.2 1-19.1 7.8-25.8 7.2-7.1 12.4-14.4 12.7-24.6v-8.6c-1.4-6.7-4.9-12.3-12.2-12.2-8.2.1-14.9-2.2-21-7.4h-1.2c-.1 4.5 2 11.2-7 7.4-.7-.3-1.7-.2-2.4 0-8.4 1.7-13.4 9.6-21.5 12-1.1.3-.8 1.7-1 2.7-1.6 8.1-3.1 16.2-2.4 24.5.2 2.2-.8 3.6-2 5.4-3.6 5.5-5.1 10.8-1 17.4 3.7 5.8-.2 12.7-.2 19.1 0 .3-.5.6-.8.9-3.4 4.6-6.5 9.5-10.3 13.8-3.2 3.6-5.1 9.3-10.4 10.2l1.7 6.1 6.8 15.1s3.1 5.7 6.2 5.7 5.2 4.2 8.3 0c3.1-4.2 4.7-5.7 9.4-4.2 4.7 1.6 10.9 2.1 11.5 8.8s-1 12.5 0 14.6c1 2.1 13 8.8 13 8.8h5.2c-1.5-4-1.9-8.3.7-12.5z"/><path class="st1" d="M65.9 352.1h168v62h-168v-62zm0 71.1h168v62h-168v-62zm0 71.1h168v62h-168v-62zm0-213.3h168v62h-168v-62z"/><path class="st4 st5" d="M259.9 697.3h613.5v62H259.9v-62zm0 71.2h613.5v62H259.9v-62zm0 71.1h613.5v62H259.9v-62zm0 71.1h613.5v62H259.9v-62zm0 71.1h613.5v62H259.9v-62z"/><path class="st6" d="M284.1 714.1h577.8V1381H284.1V714.1z"/><path class="st4 st5" d="M259.9 281h544v62h-544v-62zm0 71.1h544v62h-544v-62zm0 71.1h544v62h-544v-62zm0 71.1h544v62h-544v-62z"/></g><g id="圖層_2" class="st7"><circle class="st8" cx="1015.9" cy="182.4" r="113.7"/><circle class="st9" cx="1015.9" cy="182.4" r="142.5"/><circle class="st10" cx="1015.9" cy="182.4" r="86.8"/></g><g id="圖層_3"><path class="st5" d="M1019.3 119.8c8.2 0 14.9 9.1 14.9 20.4 0 11.2-6.7 20.3-14.9 20.3s-14.9-9.1-14.9-20.3c0-11.3 6.7-20.4 14.9-20.4z"/><path class="st11" d="M1026.3 115.8c-2.3-.7-4.7-1.2-7.3-1.2-2.5 0-5 .3-7.3 1.2-9.2 3-15.9 11.7-15.9 21.9 0 1.3.2 3 .7 4.8 1.2 5 4 11.4 7.1 17.8 6.7 13.7 15.3 27.6 15.3 27.6s8.6-13.8 15.3-27.6c3.2-6.4 5.9-12.8 7.2-17.8.5-1.8.7-3.5.7-4.8 0-10.1-6.7-18.8-15.8-21.9zm-7.3 10.4c6.1 0 11 5 11 11 0 3.5-1.7 6.6-4.2 8.7v7.9h-3.4v-6.1c-.5.1-1 .2-1.6.3v5.7h-3.4V148c-.5-.1-1.1-.2-1.6-.3v6.1h-3.4V146c-2.5-2.1-4.2-5.1-4.2-8.7-.1-6.1 4.7-11.1 10.8-11.1z"/><path class="st11" d="M1014.1 133.6c1.4 0 2.6 1.1 2.6 2.5s-1.2 2.6-2.6 2.6c-1.4 0-2.5-1.2-2.5-2.6 0-1.3 1.1-2.5 2.5-2.5zm9.8 0c1.4 0 2.6 1.1 2.6 2.5s-1.2 2.6-2.6 2.6c-1.4 0-2.5-1.2-2.5-2.6 0-1.3 1.2-2.5 2.5-2.5zm-1.9 9.7l-3-4.6-3 4.6h6z"/><path class="st12" d="M1019 188l-55.9 124.7H803.9"/></g><path id="ai2html-settings" class="st6" d="M-450 0h400v462h-400V0z"/></svg>