<svg xmlns="http://www.w3.org/2000/svg" xmlns:xlink="http://www.w3.org/1999/xlink" viewBox="0 0 1147.898 1099"><g id="圖層_1"><path fill="#f9f4ed" d="M0-.917h1147.898V1099H0z"/><path fill="#2c3e50" d="M64.85 768.45h168v62h-168zM64.85 839.56h168v62h-168zM64.85 910.666h168v62h-168zM67.85 700.344h168v62h-168zM67.85 985.555h168v62h-168z"/><path fill="#24ceb1" stroke="#2c3e50" stroke-width="2" stroke-miterlimit="10" d="M64.85 697.344h168v62h-168zM64.85 981.773h168v62h-168z"/><path d="M1006.938 279.428c-1.04-2.082.52-7.808 0-14.574s-6.767-7.287-11.45-8.848c-4.686-1.562-6.247 0-9.37 4.164-3.122 4.164-5.204 0-8.327 0s-6.245-5.726-6.245-5.726l-6.767-15.094-1.688-6.118c-1.166.21-2.49.186-4.035-.156-.494-.11-1.26.88-1.857 1.4-6.04 5.258-10.367 10.963-8.917 19.925 1.364 8.442.444 16.81-6.103 23.45-1.842 1.87-1.725 4.403-.616 6.183 2.815 4.527 1.273 7.753-1.625 11.588-5.438 7.198-11.322 13.22-21.247 10.778-6.004-1.48-11.493-4.385-14.58-10.272-3.588-6.848-7.075-13.75-10.868-21.135-5.193 11.303-6.156 22.19-6.475 33.504-.232 8.194 4.645 15.59 1.915 24.236-1.245 3.943-2.198 4.622-5.612 4.528-1.857-.05-4.476-1.248-5.545.854-1.338 2.627 1.45 4.034 3.023 5.317 4.26 3.48 6.898 7.212 4.08 12.873-2.09 4.192-1.167 8.733-1.176 13.126-.007 3.366.375 6.03-4.572 6.306-3.408.19-5.96 2.838-8.09 6.178-6.877 10.798-14.617 21.15-19.886 32.807-5.885 13.02-11.44 26.267-9.436 41.377.69 5.215-5.616 7.93-10.067 4.97-1.826-1.212-3.625-2.48-5.3-3.89-1.773-1.488-3.27-1.336-4.727.335-3.45 3.948-7.487 7.287-10.75 11.504-2.833 3.66-5.52 8.837-10.74 9.14-15.955.93-31.503 4.676-47.347 6.2-3.214.31-4.214 1.566-4.17 4.57.11 6.95.03 13.902.04 20.852.002 1.194.06 2.237.998 3.327 3.784 4.386 7.223 9.072 11.063 13.405 6.635 7.48 6.47 9.895-1.982 15.484-.996.66-1.915 1.386-2.865 2.092-5.474 4.056-7.61 8.62-4.178 15.475 2.296 4.573 2.85 9.896-.203 14.818-2.684 4.323-1.913 8.158 1.403 11.98 6.578 7.582 9.713 16.334 8.035 26.5-1.32 8.008 1.856 14.823 5.595 21.565.71 1.285 3.128 3.032 1.025 4.653-6.888 5.312-9.888 13.48-15.19 19.87-2.905 3.5-5.693 7.3-10.13 9.747-13.21 7.287-23.887 17.667-29.45 31.74-3.53 8.93-8.67 15.603-16.79 19.95-4.292 2.3-5.68 5.274-5.015 9.722.683 4.577-.734 8.14-4.477 11.093-5.44 4.292-9.204 9.88-11.766 16.372-1.565 3.957-2.782 8.824-5.787 11.293-8.32 6.843-14.906 14.608-18.467 24.82v6.137c1.162 1.665 1.88 3.61 3.422 5.048 9.23 8.612 15.73 18.522 15.49 31.813-.1 5.6 3.092 9.437 7.513 12.59 9.004 6.42 17.354 13.592 24.852 21.77 2.55 2.778 3.426 5.287 1.527 8.736-2.462 4.48-4.108 9.348-6.363 13.938-5.032 10.247 2.592 26.034 13.822 28.58 6.174 1.4 12.41 2.41 18.124 5.427 3.332 1.756 6.734 1.21 9.902-.82 2.256-1.446 4.72-3.153 7.41-2.19 8.955 3.21 17.32 1.008 25.615-2.29 3.684-1.462 6.31-.714 7.905 3.11.95 2.28 2.215 4.39 4.54 5.595h3.682c7.9-3.02 11.838-8.71 12.48-17.193.492-6.51 2.11-12.904 2.95-19.4 2.575-19.928 6.246-39.475 16.603-57.244 6.328-10.863 9.507-22.832 10.644-35.503 1.004-11.172 1.77-22.5 4.51-33.397 5.064-20.147 8.605-40.404 7.226-61.256-.345-5.23 1.535-9.045 5.66-12.1 5.294-3.915 9.913-8.44 13.262-14.265 3.762-6.548 4.08-6.532 11.19-3.854 16.388 6.17 33.405 8.327 50.656 6.267 6.27-.75 9.76.74 13.387 5.46 11.35 14.765 7.71 14.89 29.584 11.642 10.622-1.578 14.202-4.853 16.838-15.283.608-2.408.573-4.87.59-7.322.037-5.318-.012-10.634.035-15.952.03-3.227 1.483-5.32 4.785-4.912 10.034 1.232 19.316-2.61 28.967-3.915 3.406-.464 5.238-2.19 5.32-5.556.39-15.93 2.524-31.763 2.592-47.708.014-3.136-.387-6.2-2.744-8.52-2.75-2.71-3.896-6.117-4.917-9.706-1.893-6.657-3.37-7.897-10.49-7.783-9.038.146-17.91-1.22-26.857-2.065-10.682-1.014-21.226-.394-31.475-5.75-7.415-3.872-8.157-2.453-4.347-10.098.822-1.65 1.756-3.25 2.424-4.96 1.466-3.753 4.075-5.704 8.065-6.643 9.517-2.243 13.582-11.09 9.203-19.78-1.47-2.905-2.336-5.59-.964-8.73 3.446-7.882 5.694-16.203 8.842-24.2 1.177-2.984 2.69-5.456 5.715-6.826 3.41-1.543 4.54-4.396 4.606-7.97.09-4.904-.665-9.91.418-14.69 1.854-8.204 0-15.136-4.96-21.866-5.43-7.374-4.258-14.102 2.897-19.703 4.102-3.212 7.56-6.895 10.128-11.37 3.437-5.99 8.098-11.086 13.777-14.6 7.325-4.53 8.694-10.912 6.646-17.946-3.192-10.974.896-18.62 9.195-25.018 2.505-1.93 4.564-4.288 5.233-7.364 1.503-6.904 5.503-12.308 10.215-17.16 4.29-4.42 4.275-8.74 1.51-13.877a361.41 361.41 0 0 1-10.388-20.867c-.584-1.275-1.13-2.567-1.58-3.87h-5.155c.005.003-11.966-6.763-13.007-8.845z" opacity=".9" fill="#9cb5bb"/><path d="M1025.902 275.73c4.252-6.72 3.678-12.31-1.117-18.984-5.158-7.18-3.62-21.543 8.754-24.732 3.775-.976 4.736-3.316 4.9-6.69.443-9.046-.16-17.995-2.482-26.768-2.704-10.22 1.026-19.097 7.805-25.767 7.192-7.076 12.364-14.36 12.658-24.597v-8.59c-1.39-6.743-4.854-12.32-12.15-12.197-8.222.14-14.95-2.24-20.982-7.437h-1.228c-.143 4.516 2 11.166-6.982 7.402-.694-.29-1.65-.165-2.432-.004-8.402 1.726-13.4 9.592-21.482 11.953-1.072.314-.846 1.668-1.04 2.665-1.58 8.087-3.123 16.177-2.404 24.48.19 2.193-.833 3.645-2.01 5.41-3.648 5.466-5.148 10.842-.983 17.377 3.717 5.835-.184 12.658-.164 19.053.002.305-.53.59-.772.918-3.42 4.624-6.518 9.53-10.332 13.802-3.21 3.59-5.147 9.275-10.368 10.208l1.688 6.118 6.767 15.095s3.123 5.726 6.246 5.726 5.206 4.165 8.33 0c3.12-4.163 4.683-5.725 9.367-4.163 4.684 1.56 10.93 2.082 11.45 8.848.52 6.766-1.04 12.492 0 14.574 1.042 2.08 13.013 8.847 13.013 8.847h5.155c-1.424-4.12-1.855-8.354.797-12.546z" opacity=".9" fill="#517277"/><path fill="#2c3e50" d="M65.852 352.107h168v62h-168zM65.852 423.214h168v62h-168zM65.852 494.32h168v62h-168zM69.852 285h168v62h-168z"/><path fill="#24ceb1" stroke="#2c3e50" stroke-width="2" stroke-miterlimit="10" d="M65.852 281h168v62h-168z"/><g opacity=".7" fill="#fff"><path d="M259.898 697.344h613.525v62H259.898zM259.898 768.45h613.525v62H259.898zM259.898 839.56h613.525v62H259.898zM259.898 910.666h613.525v62H259.898zM259.898 981.773h613.525v62H259.898z"/></g><path fill="none" d="M284.07 714.096h577.828v666.916h-577.83z"/><g opacity=".7" fill="#fff"><path d="M259.898 281h544v62h-544zM259.898 352.107h544v62h-544zM259.898 423.214h544v62h-544zM259.898 494.32h544v62h-544z"/></g></g><g opacity=".3" fill="#24ceb1" id="圖層_2"><circle cx="1015.908" cy="182.36" r="113.728" opacity=".4"/><circle cx="1015.908" cy="182.36" r="142.462" opacity=".2"/><circle cx="1015.908" cy="182.36" r="86.778" opacity=".6"/></g><g id="圖層_3"><image width="263" height="358" xlink:href="A1DEDCAC138E6BFB.png" transform="matrix(.2874 0 0 .2867 982.565 101.322)" overflow="visible" opacity=".3"/><path d="M1019.327 119.8c8.25 0 14.914 9.106 14.914 20.36 0 11.228-6.662 20.334-14.913 20.334-8.202 0-14.89-9.106-14.89-20.335 0-11.253 6.688-20.36 14.89-20.36z" fill="#fff"/><g fill="#ff4d4d"><path d="M1026.26 115.822c-2.318-.733-4.737-1.22-7.274-1.22-2.54 0-4.98.34-7.273 1.22-9.204 3.027-15.866 11.74-15.866 21.92 0 1.318.243 3.026.73 4.834 1.22 4.98 4.003 11.375 7.128 17.818 6.69 13.67 15.28 27.61 15.28 27.61s8.594-13.817 15.257-27.61c3.15-6.443 5.934-12.84 7.153-17.818.49-1.808.732-3.516.732-4.833 0-10.18-6.69-18.893-15.867-21.92zm-7.275 10.4c6.053 0 11.033 4.98 11.033 11.032 0 3.515-1.708 6.64-4.246 8.716v7.885h-3.418V147.8c-.464.098-.952.245-1.562.34v5.714h-3.393v-5.713c-.464-.096-1.1-.243-1.565-.34v6.055h-3.392v-7.885c-2.538-2.076-4.248-5.103-4.248-8.716-.12-6.053 4.737-11.032 10.79-11.032z"/><path d="M1014.127 133.617c1.416 0 2.565 1.148 2.565 2.54a2.58 2.58 0 0 1-2.565 2.562c-1.39 0-2.54-1.172-2.54-2.564 0-1.39 1.15-2.54 2.54-2.54zM1023.94 133.617c1.417 0 2.563 1.148 2.563 2.54a2.577 2.577 0 0 1-2.562 2.562c-1.39 0-2.538-1.172-2.538-2.564 0-1.39 1.148-2.54 2.54-2.54zM1022.012 143.31l-3.027-4.59-3.026 4.59z"/></g><path fill="none" stroke="#2c3e50" stroke-width="2" stroke-miterlimit="10" d="M1018.985 188.004L963.09 312.74H803.9"/></g><path fill="none" d="M-450 0h400v462h-400z" id="ai2html-settings"/></svg>