<svg xmlns="http://www.w3.org/2000/svg" viewBox="0 0 893.3 622.5"><title>layer_agriculture</title><path d="M372,558.8c-15.3,0-30.7-.1-46,0.1-2.4,0-2.8-.7-2.8-2.9,0.1-25.1.1-50.1,0.1-75.2a0.7,0.7,0,0,1,.7-0.1c5.1,4.3,11,8.5,11.5,15.7s3.7,13.4,10.4,17.3c4.2,2.5,7.1,6.6,10.6,10,1.9,1.8,2.4,3.8,1.1,6.1s-2.5,6.8-4.5,9.9-1.1,4.2.1,6.4c3.7,7.2,5.1,7.9,13.5,7.2a1.5,1.5,0,0,1,.7,0c5.6,2.8,11.9.6,17.6,2.2a19.5,19.5,0,0,0,3.7.4c0.5,0,1.4,0,1.4-.3,0.2-2.8,2.5-3,4.2-4.1s2-3.3,4.6-2.1c0.5,0.2,1-1,1.2-1.7,1.4-4.3,3.8-8.1,5.6-12.2a34.3,34.3,0,0,0,2.9-10.4c0.5-5.7,3-10.8,4.6-16.2,1-3.4,3.4-6.8.8-10.6a0.7,0.7,0,0,1,.2-1c3.7-1.9,3.2-6,4.4-9.1a73.9,73.9,0,0,0,3.1-10.4c0.4-1.8,1.4-3.6,0-5.4s0-1.4.3-2a12.6,12.6,0,0,0,.6-10.5,8.7,8.7,0,0,1,.1-5.8,28.4,28.4,0,0,0,.6-12.2c-0.9-6.5-2.7-13-1.3-19.7a9.4,9.4,0,0,1,.5-2.2c0.3-.7,1.3-1.2-0.7-1.2s-1.6-2.3-.8-3.4c2.5-3.1,2.3-6.8,2.7-10.4-1.1-.5-2.3,1.2-3.3-0.2s-0.3-1.9-.2-2.9c0.4-2.7.2-5.5,0.7-8.2,1.1-6.2,4.3-11.4,7.8-16.3s8.6-12.5,9.4-20.5a15.5,15.5,0,0,0-.3-6.3c-1.3-4.2-.8-8,2.6-11.3s3.9-8.8,5.7-13.3,1.4-8.7,4.2-12.6,2.4-7.8,3.1-11.8c0.3-1.8-.5-2.7-2.1-3.3a5.1,5.1,0,0,1-3.6-5.5,4.2,4.2,0,0,0-.5-2.9c-2.6-3.3-.8-7.3-1.7-10.8a2.2,2.2,0,0,1,.7-2.1c3.7-3.2,6.5-7.7,12-8,2-.1,2.6-1.1,2.7-2.8a69.7,69.7,0,0,0-.1-10.1c-0.8-6,1.9-10.2,6.5-13.5,2-1.5,3-3.9,5.4-5s3.1-1.6,4.9-1.4a6.3,6.3,0,0,0,3.3-.3c1.5-.6,3.5-0.9,3.9-2.5s-1.7-1.9-2.7-2.7a4.4,4.4,0,0,1-.7-6.7c3-3.7,1.2-7-.1-10.4-0.5-1.4-1.5-2.6-2-4s-1.7-3.9.5-5.8,0.5-2.4.5-3.6c0-4.6-.3-9.3,1.8-13.6,1-2-.8-4.5,1.1-6.4,0.3-.4-0.3-0.9-0.7-1.2-5.8-3-7.5-8.8-9.8-14.1a2.7,2.7,0,0,0-1.2-1.4c-1.4,3.6-3,7.1-2.9,11s-0.2,10.1,1.1,15.2a10.4,10.4,0,0,1-3.9,11.3c-0.7.5-1.3,0.3-2.5,0.2,4.3,2.5,4.9,5.8,3.5,9.8-0.9,2.5-.4,5.2-0.5,7.8s-0.3,3.2-2.1,3.6c-4.9,1.1-7,5.1-8.9,9a37.5,37.5,0,0,1-4.6,7.6c-4.9,5.8-6.2,13.3-9.3,19.9-1.5,3.2-.1,6.9-0.5,10.4-0.2,1.6-.3,3.2-1.3,4.6-2.2,2.9-3.3,3.1-6.4,1s-4.5-2.9-8,.9a13.3,13.3,0,0,0-2,2.3c-3.2,5.6-7.8,8.6-14.5,7.6a1.1,1.1,0,0,0-.7.1c-5.4,4-11.8,1.6-17.7,2.8s-6.3,1.1-6.3,7.6c0,1.4.1,2.8,0,4.1s0.2,4.1,2.4,5.4a7.4,7.4,0,0,1,2.7,3.5,9.1,9.1,0,0,0,4.9,5.3c2.1,0.9,2,2.3.9,4.2s-4.8,5.1-7.3,7.5-2.8,3.3-.7,5.9,1.6,8.6-.5,11.1a4.7,4.7,0,0,0-.7,5.5,43.3,43.3,0,0,0,4.8,7.6c2.7,3.5,4.2,7.1,2.1,11.6-0.9,2,.4,3.8,1.6,5.5,4.1,5.4,3.8,5.3.3,11.1s-7.3,7.9-8.9,13.2a2.7,2.7,0,0,1-1.5,1.6c-4.6,1.9-7.7,5.9-12,8.2a3.6,3.6,0,0,0-1.5,1.1c-2.8,4.6-7.2,7.9-9.2,13-1.2,3.2-2.2,6.7-5.6,8.6a1.1,1.1,0,0,0-.7.8c0.5,3.7-2.4,4.1-4.8,4.9,2.9,4.6,0,11.3-5.2,11.9a4.9,4.9,0,0,0-3.5,2.4c-2,2.8-2.6,6.2-4.2,9.2a2.4,2.4,0,0,0,1.1,3.3c1.5,0.7,1.8-.8,2.2-1.8s2.4-4,2.1-6.7a2.4,2.4,0,0,1,2.5-2.7c1.8,0.1,2,1.6,1.8,3.1s0,2.3,1.6,2.7c7.1,1.6,9.4,4.4,9.4,11.8,0,4.1.8,8.1,1,12.2s1.8,7.8,6.4,9.3a8.7,8.7,0,0,1,5,5.2c0.3,0.6.5,2.1-.1,1.9-3.6-1.1-5.4,3.4-9.5,2.2s-7.5.1-11.2,1l-3.3.7c-7.4,1-8.3-1.3-11.4-7s-3.9-9.7-9.1-12.2a8.1,8.1,0,0,1-3.2-3.6q0-205-.1-410c0-2.6.3-3.3,3.2-3.3H550.5c1.8,4.4.9,5.9-3.5,5.6a8.8,8.8,0,0,0-5.7,1.4c-2.4,1.7-4.7,3.6-7.5,4.8a3.5,3.5,0,0,0-1.9,3c-0.4,3-1.4,5.9-1.3,8.9s-0.4,7.7-2.7,11-0.7,4,.2,6a16,16,0,0,1-1.7,16.2c-1.9,2.7-3.9,5.2-5.8,7.8s-3.8,5-7.5,5.5-6.5,5.5-6.6,9-0.1,4.5,0,6.7a12.2,12.2,0,0,1-2.5,8.8c-1.7,2.1-2.4,4.4-1,6.9a3.4,3.4,0,0,1-.4,3.9c-1.6,2.2-2.9,4.9-5.2,6.3s-3.1,4.2-2.8,7a26.3,26.3,0,0,1,.1,5.4c1.5,0.1,1.8-.8,2.2-1.5a7.4,7.4,0,0,1,5.6-3.9,5.1,5.1,0,0,0,4.3-3.7c1.1-3.2,2.8-6.2,2.5-9.7a3.4,3.4,0,0,1,1.4-3c4.3-3.3,5.4-8.3,7.3-13,3.2-7.9,3.3-16.9,8.1-24.3a14.9,14.9,0,0,1,2-3.1,5.6,5.6,0,0,0,1.8-4.8c-0.4-4.2,1.4-7.5,3.9-10.5s2.8-3.8,2.8-6.3,1.3-2.9,2-4.3c2.3-4.6,5.7-8.2,9.2-11.7a2.4,2.4,0,0,0,.7-1.3c1-8.2,8.2-11.5,13.1-16.7a1.8,1.8,0,0,1,2.7-.4q0,242.1.1,484.1c0,2.8-.6,3.5-3.4,3.4H375.8A4.1,4.1,0,0,0,372,558.8Z" style="fill:none"/><path d="M323.3,478.5c2,1.4,3.7,3.2,6,4.3s2.6,2.3,3.4,4.3a63.5,63.5,0,0,0,6.9,12.3c0.9,1.3,3.1,1.3,5,1.1a18.6,18.6,0,0,0,8.2-2.2c0.7-.4,1.1-0.4,1.3.5a6.4,6.4,0,0,0,.4,1c0.8-3.5,3.4-.3,5-1.3s2.6-2.8,3.2.6c0.1,0.6,2.2.5,2.3,0.1,0.5-4.5,3.4-2.2,5.6-2,0.3-2.9-3.3-3.4-3.6-6s-1.3,2-2.6-.1-3.2-2.6-3.9-5-2-5.3-1.8-8.7a25.6,25.6,0,0,0-2-11.7c-0.4-.9.2-1.4,0.3-2s0.5-2.1-.5-2.3c-2.8-.5-4.1-4.4-7.8-3.3-0.8.2-4.2-.4-2.2-3.4a2.2,2.2,0,0,0,0-2.7,0.9,0.9,0,0,0-1.5,0c-0.6.7-1.5,1.1-1.1,2.5,1.2,3.7-2.4,6-3.2,9.1-0.2.9-1.9,0.9-2.3,0.5s-2.8-3.1-2.1-4.3c2.5-4.3,2.8-9.8,7.2-13.1,0.5-.4,1-1.7,1.8-0.1s1.3,0.4,2,0c2.8-1.4,4.5-7.6,2.7-10.4s0.3-1.9,1.1-1.9,3.1-1.3,4.1-2.7c-0.6-.8-1.4.2-1.6,0s0.1-1.5.7-1.8c4.3-2,5.5-6.3,7-10.2s2.3-5,4.6-6.4,1.4-3.7,3-4.9c3.9-2.9,7.7-5.9,11.8-8.6,2.2-1.5,4.3-2.4,5.4-5.3a19.3,19.3,0,0,1,5.1-6.8c2.4-2.2,4.1-5.9,5.5-9.1,0.6-1.3-1.7-3.7-3.1-5.2s-3-5.6-.7-8.2c0.7-.8,0-1.1,0-1.6-0.3-6.4-6-9.8-8-15.2-0.5-1.4-1.9-3.2-.5-4.1,3.5-2.3,2-6.1,3.2-9s-0.6-3.8-2-4.4c-3.2-1.5-1.6-2.8-.3-4.1a86.6,86.6,0,0,1,7.1-6.3c1.3-1,1.8-2.6,2.7-3.8s-1.3-2.2-2.1-2.3c-2.5-.2-3-2-3.9-3.8s-1.9-4.8-4.9-5.4-1.1-1.5-1.1-2.3c-0.1-3.7,0-7.5,0-11.2,0-2.2.7-3.4,3.4-3.8,4.7-.7,9.3-2.1,14.1-0.7,0.7,0.2,1.9.3,2.2-.1,2.8-3.9,6.8-2.6,10.5-2.8a8.3,8.3,0,0,0,6.9-4.2,51.5,51.5,0,0,1,7.6-8.5c1-1,2.1-1.2,2.9-.1s3.7,1.8,5,3.6,4.2-2.4,4.4-4.4a35.3,35.3,0,0,0,.4-5.5c-0.5-10.1,4.3-18.2,9.3-26.3,2.8-4.5,5.2-9.3,8.2-13.7,1.3-1.9,2.8-3.4,4.8-3.6s3-1.5,2.8-3.6a12.7,12.7,0,0,1,0-3.7c1.1-5.5,2.2-10.9-3.7-14.6a3.3,3.3,0,0,1,0-1.5c1.9-.1,1.6,2.3,3.4,2.2,0.1-.5,0-1.7.5-1.9,5.2-2.9,3.2-7.3,2.6-11.5-1-6.6-1.5-13.3.8-19.8,0.8-2.2.9-4.6,2.4-7.2,4.1,7.4,5.4,16.4,14.7,19.8-3.7.5-3.4,2.6-2.8,4.7,0.1,0.3.6,0.4,0.3,0.8-3.7,5.5-2.2,11.7-2.6,17.7,0,0.6,1.2,3.4-1.6,1.4-0.5-.4-0.5.4-0.4,0.9s0,2.9,1.1,4.1c2.6,2.9,2.4,6.9,4.5,10.1,1.1,1.6-1.1,2.2-1.8,3.1-2.3,3-2.5,5.8-.1,7.4s2.9,1.9,4.2,3.8c-3.7,1.1-6.6,4.1-11.3,2.9-1.6-.4-4.8,1.7-5.8,4.5a2.4,2.4,0,0,1-2,1.9c-1.6.4-8,8.3-7.4,9.5,2.2,4.3.5,8.8,1,13.2a4.9,4.9,0,0,1-.6,3.2c-0.5.8-.9,1.2-1.7,1-3.7-1-6.3.1-7.8,3.7-0.3.8-1.3,0.7-1.9,1-2.7,1.2-4.8,3-2.9,6.2s-2,3.9,0,6.2a6.6,6.6,0,0,1,1.7,6.4c-0.6,2.4,2.1,3.9,4.5,4.3s1.8,0.3,1.5,2.2c-0.8,4.6-1.2,9.3-3.2,13.5a28.7,28.7,0,0,0-3.3,10.2c-0.4,3.6-2.4,7.3-3.5,11a10.7,10.7,0,0,1-3.3,5.3c-3.4,2.8-3.5,6.3-2.5,10.3,1.5,5.9,0,11.3-2.7,16.8-3.9,7.8-9.8,14.4-13.2,22.3a20.1,20.1,0,0,0-1.5,8.1c0.1,2.4.6,5-1.2,7.2,2.4,0.2,3.2-1.5,5-2.5-1.4,3.5-.3,6.8-1.5,10-0.4,1.2.2,2.6-1.8,3.1s-0.5,1.8-.4,2.7a0.9,0.9,0,0,0,.7.6c1.4-.2-0.3-1.5.8-2s0.7,2.3.4,3.4c-1.6,5-.6,9.9-0.1,14.9s2.9,11.9.9,17.6c-1.3,3.6-.8,6.4,0,9.8s0.6,6.4-1.9,9l-0.4.4c4.6,3.4,0,6.8-.3,10.1s-2.8,8.6-3.7,13c-0.5,2.3-1.4,2.9-4.1,2.9,2.3,0.9,3,1.8,2.5,3.9-1.1,4.3-1.9,8.7-3.8,12.8-3,6.4-2.4,13.7-5.2,20.2s-5.1,10.3-7.1,15.7c-1.1,2.9-2.7.9-3.4-1.6-0.5,4-2.4,5.3-5.8,4.4,0.3,1.4,2.1,2.2.8,3.4s-2.1.5-3.3,0.5c-4.3-.2-8.4-2.4-12.9-0.7-1.3.5-3.2-.6-4.9-1s-3.5-1.9-5.9-.2-4-1.7-6-1.2-3.2-1.8-4.2-3.3l-2-3.1c-1.9-2.9-2.4-5.9-.1-8.9s2.7-7.1,4.8-10.3c1.1-1.6-.3-2.5-1.2-3.4-4.8-5-9.5-10.1-15.4-13.7-4.2-2.6-5.1-6.2-5.5-10.5-0.1-1-.2-2-0.3-2.9-0.6-7.8-6.9-11.7-11.7-16.6v-2.2Z" style="fill:#27fec5"/><path d="M564,71.3c-4.1,1.5-6.1,5.6-9.6,7.9s-4.1,5.3-5.1,8.9-3,6.4-7.1,7.2c-0.8.2-.1,0.7-0.2,1.1-0.6,2.3-.8,4.8-3.5,6s-1.6,2.7-1.4,3.8c0.7,2.8-.8,4.6-2.5,5.8s-2.2,5.3-4.2,7.5,1.1,3.4,0,5.6-4.7,6.7-6.1,10.6-2.6,5.6-2.4,8.9-0.1,4-2.2,5.2,0,0.8.2,1.3,0.7,2.2-1.1,2.4-0.7.1-.6,0.5c1.7,5-3.8,7.6-3.9,12a0.4,0.4,0,0,1-.2.3c-6.7,2.7-3.5,9.9-6.4,14.4-1.6,2.4-2.6,4.4-5.9,4.6-1.4.1-3.5,0.5-4,2.6s-2.9,3.3-5.5,2.5c2.1-3.3,1.6-6.9.3-10.3-0.5-1.3.4-.6,0.7-0.7,3.9-2.3,6.3-6.1,9-9.6,0.4-.5.3-1.1-0.3-2s-2.1-4.8.3-7.1c4.3-4.2,2.9-9.7,3-14.7,0.1-6.7,3.1-10.5,9.8-11.5a2.6,2.6,0,0,0,1.9-1.5c2.9-3.8,5.9-7.6,8.6-11.5s4.1-10.1,1.3-15-0.3-6.4,1.2-9.2a7.4,7.4,0,0,0,1.2-4.5c-0.4-4.8,1-9.5,1.5-14.2a1.8,1.8,0,0,1,.5-1.3c4.9-1.7,8.1-6.3,13.4-7.4a2.2,2.2,0,0,1,1.1,0c4.8,1.8,4.8-1.2,4.5-4.5h0.8c3.5,3.7,8.2,4.2,12.8,5.3v0.8Z" style="fill:#27fec5"/><path d="M564,70.5c-5.2.5-10,.1-12.7-5.2h7.3C564,65.3,564,65.3,564,70.5Z" style="fill:#fefefe"/><path d="M372,558.8a2.5,2.5,0,0,1,3.8,0H372Z" style="fill:#27fec5"/><path d="M486.2,269.3c-1.7-5.3,1-8.2,4.2-10.7s3.4,1.1,5.2,1.5,1.1,1.2.7,2l-6.2,16.4c-1.3-3.4.2-6.7,0.4-10,0.1-1.5.1-3.7-1-4s-1.8,1.5-2.2,2.9A8.5,8.5,0,0,1,486.2,269.3Z" style="fill:#27fec5"/><path d="M325,474.3c0.8-1.2,0-3.2,1.7-3.7a2.3,2.3,0,0,1,1.5,1.4C328.4,474.1,326.2,473.6,325,474.3Z" style="fill:#27fec5"/><path d="M414.7,306.8c3.4-.7,3.6-2.8,2.4-5.5,1.5-.8,3.4,5,4.4-0.4,0.2-1,1.3-2.1-.2-2.9s-1.8-1.2-3.3-.5c-3.7,1.9-3.7-2.1-4.9-3.7a4.1,4.1,0,0,1,.5-5.4c0.6-.6,2.7-0.2,3.6.5s2.7,2.3,2.4,4.1,0.5,2.1,2.4,2.7c4.9,1.5,7.8-.6,10-4.4s3.5-.6,5-0.1,0.8,1.9.5,3.1a5.9,5.9,0,0,0-.1,2.9c1.1,3.8-.3,4-4.3,4.8s-6.1.8-8.9,1.9-3,2.5-.6,5c-2.7-2-6.9,3.7-8.8-2.1h-0.1Z" style="fill:#fefefe"/><path d="M396.4,410.7c-1.5,2.8-4.7,3.4-6.9,5.3s-2.3-.8-3.2-1.7-0.9-1.5.2-2.7C389.4,408.6,391.7,408.2,396.4,410.7Z" style="fill:#fefefe"/><path d="M396.7,547.7c-0.6.4-1.2,0.9-1.5,0.8a11.1,11.1,0,0,1-1.9-1.5c0.5-.5,1-1.4,1.5-1.5S395,547.5,396.7,547.7Z" style="fill:#fefefe"/><path d="M409.6,499.5c-0.8,2.3-.8,2.3-3.5,1.8C406.8,499.6,408.7,500.7,409.6,499.5Z" style="fill:#fefefe"/><path d="M416,492.7c-0.7,0-1.4-.3-1.1-0.8a4.3,4.3,0,0,1,1.7-1.8c0.4-.2,1.1.5,1,1.2A1.6,1.6,0,0,1,416,492.7Z" style="fill:#fefefe"/><path d="M417.5,488a1.2,1.2,0,0,1-1.2-1.1c-0.1-.9.7-0.9,1.3-0.8s1.4-.2,1.4.7S418,487.4,417.5,488Z" style="fill:#fefefe"/><path d="M414.8,306.8a5.9,5.9,0,0,1-1.9-4.3c2.1,1.2,1.9,2.8,1.9,4.4h0.1Z" style="fill:#fefefe"/><path d="M381.1,501.3c1.5-.1,2.5-1.5,4.1-0.8C384,501.5,382.9,502.2,381.1,501.3Z" style="fill:#fefefe"/><path d="M402.3,502.3H398V502h4.3v0.4Z" style="fill:#fefefe"/><path d="M428.7,336.4c-0.6-1.2-.8-2.3.7-3.2C430.2,334.6,428.1,335.2,428.7,336.4Z" style="fill:#fefefe"/><path d="M423.4,324.6a7.2,7.2,0,0,1,0,4.5A6.9,6.9,0,0,1,423.4,324.6Z" style="fill:#fefefe"/><path d="M413.4,437c1.6-.4,2.2-1.4,2.8-0.7s-0.2.9-.7,1Z" style="fill:#fefefe"/><path d="M377.7,497.8a2.1,2.1,0,0,1-.7.7,2.5,2.5,0,0,1-1.4-.8c-0.2-.4.4-0.4,0.7-0.4S377.3,497,377.7,497.8Z" style="fill:#fefefe"/><path d="M501.7,179.3a8,8,0,0,0,1.5-4.7c0.2-2.8,2.9-2.7,4.3-3.9s1.3,1.9.7,2.9-4.9,3-3.8,6.7c0,0.1-2.5,1.2-2.7-1.1h-0.1Z" style="fill:#fefefe"/><path d="M501.8,179.2l-1.3.5c0.5,1.8-.8,2.1-1.9,1.7s-0.6-1.6,0-2.5,0.9-1.7,1.4-2.8a3.7,3.7,0,0,1,1.7,3.2h0.1Z" style="fill:#fefefe"/><path d="M515,143.7c-1.6-.6-1.3-1.8-1.4-3C514.7,141.5,515.6,142.3,515,143.7Z" style="fill:#fefefe"/><path d="M510,167a4.4,4.4,0,0,1-1.4.9c-0.8.1-.9-0.6-0.8-1.2s-0.1-.8.6-0.5Z" style="fill:#fefefe"/><path d="M436.4,297.2c-0.1,1.4-.7,2.2-1.5,1.9s-0.5-1,.3-1.3Z" style="fill:#27fec5"/></svg>