<svg xmlns="http://www.w3.org/2000/svg" viewBox="0 0 893.3 622.5"><title>layer_specific_agriculture</title><path d="M370.5,558H359.3c-1.3,0-1.8-.2-1.5-1.5a10.3,10.3,0,0,0,0-1.9q0-237.6-.1-475.2c0-2.9.3-3.7,3.6-3.7H558c0.4,1.9-1.2,2.6-2.3,3.5a15.4,15.4,0,0,0-5.4,8.7,16.4,16.4,0,0,1-5.9,9.6c-2.9,2.4-5.9,5.5-5.9,10a4.5,4.5,0,0,1-1.7,3.6c-3.5,2.6-3.7,6.3-3.3,10.1,0.2,1.7.4,3.3-1.1,4.5s-0.8,1.4-.1,2.2c3.1,3.5,1.3,7.9,2,11.9a1.4,1.4,0,0,1-1.6,1.6c-1.1,0-2.1-.7-2-1.8s-1.3-2.6-3-2.7-3.2.5-3.8,2.3a10.3,10.3,0,0,0-.8,4c0.4,5.8-2.5,10.6-4.7,15.5s-2.7,8.1-6.7,10.6c-0.8.5-.5,1.6-0.5,2.5-0.2,4.1-2.3,7.6-3.9,11.2a3.3,3.3,0,0,1-1.8,1.8c-3.4,1.2-6.5,2.4-8.6,5.9-1,1.7-3.7.9-5.2-.7,0.5,2.2.6,4.5-2.2,5.3s-4.9-2.3-5.6-5.4c-1.4,5.3-1.3,5.6,4.2,6.7,2.3,0.5,3.4,1.6,3,3.8s-2.1,2.9-4.3,2.4-2.3-1.2-3.1.1-0.1,2.7.6,3.9c1.9,3.3,3.3,6.7,1.6,10.6-0.6,1.3.6,1.7,1.3,2.3s1.7,2.6-.7,2.8a3.6,3.6,0,0,0-3.6,3.1c-0.5,2.1,1,2.8,2.3,3.8,3.7,2.5,3.5,4.3-.4,6.3-1.3.7-2.7,1.7-4.2,1.6-4.7-.4-7.5,2.5-10.3,5.4-1,1-2.5,1.2-3.3,2.4s1.6,1.5,2.6,1.7a6.1,6.1,0,0,1,4.1,2.9c1,2,3.2,2.2,5,3.1s1.6-.8,1.9-1.5a63.9,63.9,0,0,1,4.3-9.1c1.7-2.6,3.2-5.4,5.6-7.5s3.7-4.8,2.2-8.2c0.6-.9,1.7-0.4,2.6-0.9a2.4,2.4,0,0,0-2.5.7c-1.8-.6-2.1-2-1.5-3.6s1.9-1.9,3.4-1.8c3.8,0.3,7.1,2.2,10.2,4.4-1.5-1.3-1.1-4-3.7-4.6-0.8-.2-0.5-1.7.2-2.3,3-2.4,5.1-7.1,10.3-4.4a1.2,1.2,0,0,0,1.1,0c5.5-3.1,12-3.2,17.6-6,1.2-.6,2.9-0.8,2.9-2.5s-1.7-1.7-2.9-2.2-2-3.4-.8-4.8a2.8,2.8,0,0,1,.9-0.6c2.1-1,3.9-3.1,3-4.8s-3.7-.9-5.6.1a1.4,1.4,0,0,1-1,.1c-0.6-.2-1.2-1.4-1.9-0.5-4.3,5.5-9.6,2.9-14.6,1.8a1.8,1.8,0,0,1-1.4-2.3c0.2-1.1.6-2.2,2-2.4a4.6,4.6,0,0,1,1.3.5l-0.9-.6a1.7,1.7,0,0,1-1.1-2.4,2.5,2.5,0,0,1,2.7-1.6,30.2,30.2,0,0,1,4.4.9c4.6,0.9,7.7-.9,8.9-5.5,0.3-1.1-.1-3,1.6-2.9s1,2.2,1.5,3.1c1.7-4.3,5.2-7.6,7.4-11.8,0.6-1.1,1.3.2,2.3-.3,2.6-1.4,2.3-2.8,2-5s0.3-6.7-.1-10.1a1.3,1.3,0,0,1,.2-1.1c3.7-1.8.9-4.2,0.7-6.4-0.3-4.2,1.6-8,2.6-11.9s2-5.4,2-8.3a4.8,4.8,0,0,1,.8-3.2c4.4-5.2,4.6-11.6,5.2-17.9a6.6,6.6,0,0,0-.8-3.9c-1.3-2.4-.9-4.8-0.5-7.5s2.7-6.6,4.9-9.3,1.7-6.2,2.9-9.1h3c2.5,0,6-1,7.2.3s0.3,4.7.3,7.2c-0.8.9-2,.9-3.1,1.3a4.2,4.2,0,0,0-2.7,2.9c-0.4,1.2-.4,2.8.8,3.4s1.8-1,2.6-1.7,0.5-2.9,2.4-2.8q0,234.2.1,468.4c0,2.8-.6,3.5-3.4,3.4H376.5c-0.3-.3.2-1.2-0.4-1.2-3.3.2-6.2-1.7-9.3-1.6C368.1,555.8,370.4,555.5,370.5,558Z" style="fill:none"/><path d="M558.8,75.8c1.1,5.8-1.5,10-5.6,13.6a1.4,1.4,0,0,0-.6,1.8,3.3,3.3,0,0,1-.2,3.2c-2.2,2.7-1.5,5,.5,7.5s0.3,4.5.2,6.5c-0.2,4.1-.8,8.8-3.1,11.9-3.9,5.2-3.3,11.5-5.6,17s-4.1,9.7-.1,14.6c0.4,0.4,0,1.4,0,2.5l-3-2.3c0.8,6-.9,11.6,1.5,17.1-2.2.4-5.4-.6-4.8,3.5l-0.7-3.4c-1.7,5.7-7,8.8-8.7,14.3l-1.1-5.5c-1.3,1.9,0,3.6-1.1,5.2-3.7,5.1-4.3,5.6-10.6,4.1l-3.2-.7a1.6,1.6,0,0,0-2.1,1c-0.5,1.2,0,1.4.8,2s1.2,1,1.2,3.1c-1.1-.6-0.6-2.7-2-2.2s-1,1.3-1.3,2.1a1.9,1.9,0,0,0,.4,1.2c3.7-.5,7.1,3.4,10.8.8,1.1-.8,4.6.5,3.2-3l2-.7c1.8-.4-0.1,2.3,1.6,2.4,1.2,2-1.2,3.7-.7,4.7-0.8-1,4.5-2.6.7-4.7,1.4-2.3,6.6-3.1,8-1.2s0,1.2-.4,1.6-1,5-4.7,5.1c-1.2,0-.5,2.5-0.5,4.1,1.9-.3,3.8-1.6,4.6,1.7s-1.1,3.1-2.8,3.9c-4.7,2-9.4,3.8-14.6,4.4a5.7,5.7,0,0,0-3.4,2.1,1.7,1.7,0,0,1-2.9.1c-1.9-2.1-3.5-.9-5.1.4s-1.9,2.9-3.8,3.3a1,1,0,0,0-.6,1.5c0.6,1.1.9,0.4,1.5-.2s0.6,1.1,1.4.8c-2.1,2.9,3.2,2.1,2.3,4.5a5.4,5.4,0,0,1-2.1,2.2c-1.6-4.1-5.5-4.6-8.8-5.8-1-.3-2.4-0.8-3.3.6s-0.5,2.7.8,3.7h-0.1c2.1,4.9,1.5,6-2.7,10.1s-5.8,7.9-7.6,12.5c-0.8,2.1-2.1,4.1-2.6,6.8a4.3,4.3,0,0,0-3.1-2.6c-1.9-.5-3.8-1.1-4.4-3.8s-3.3-1.1-4.8-2-2.4-.4-2.4-1.9,1.1-1.6,2.2-2,2.4-2.1,3.3-2.5c2.8-1.2,3.5-6,8.2-4.3,2.7,1,5.3-1.8,7.9-2.9s0-1.7-.1-2.4-1.1-.9-1.8-1.2-4-1.7-3.2-4.2,1.4-5.9,5.6-4.2a1.6,1.6,0,0,0,.7-0.2c-0.1-1.2-1.1-1-1.7-1.4s-2.6-1.2-1.1-3.3,0.2-5.6-.7-8.3a8.7,8.7,0,0,0-1.1-1.5c-1.1-1.8-1.5-4.1-.6-5.7s2.8,0.3,4.2.5,4.2-.7,3.6-2.8-0.2-1.9-2.1-1.6-3.7-.8-5.6-1.4a1.4,1.4,0,0,1-1.1-1.7c1-2.6.8-5.6,3.7-7.8-1.5,3.4-.7,5.5,2.3,7.3s3.1-.2,3.6-1.9-0.7-3.3,1-4.5c1.3,0.5-1.6,3,1.3,2.7s3.6,1.5,4-1.8,2.5-3.3,4.8-3.5,4.1-1,4.6-3c1-4,4.6-7.3,3.1-11.9a1.5,1.5,0,0,1,.9-1.9c4.2-1.2,4.3-5.2,5.8-8.3s3.7-3.4,1.7-6.2c-0.2-.2.1-0.5,0.6-0.5s2.3-1,1.4-2.4-1.2,0-1-.8,0.7-.6,1.4-0.6c2.9-.2,1.4-2.9,1.4-4a19.2,19.2,0,0,1,.6-5.8c0.5-1.5,1.1-4,2.3-3.8s5.2-1.8,6.3,1.9a2,2,0,0,0,.9.6c-2.4,1.8-.6,2.6.9,2.4s-0.2-1.7.1-2.6a8.7,8.7,0,0,0,0-2.2c0.3-3.7.3-7.3-4-9.4,2.8-1,3.9-2.2,3.3-5s-0.5-8.2,3.5-10.9c0.8-.5,1.8-1.2,1.5-2.4-1.3-5.3,4.2-7.4,5.3-11.6,6-1.9,5.6-7.6,7.2-12.1,1-2.9,3.2-4.8,5.5-6.6a6.8,6.8,0,0,0,2.3-2.3h0.8Z" style="fill:#fe2787"/><path d="M569.3,86.3c-0.8.2-.6,0.9-0.8,1.5a6.1,6.1,0,0,1-4.6,4.7c-1.1.3-.9-1.6-1.2-2.5-1.1-2.4.1-4.4,2-5.9s3-.8,4.6-0.8v3Z" style="fill:#fe2787"/><path d="M370.5,558a8.2,8.2,0,0,0-6.8-2.2c5.3-3.3,9.9,1.7,14.6-.1,0.1,1.7-1.6,1.3-1.8,2.4h-6Z" style="fill:#fe2787"/><path d="M499.7,361.4h-5.2c2,4.4,1.2,8.6.2,12.8-0.6,2.5,1.8,6.4,4.6,7.3-3.2-.2-3.5,2.1-2.6,3.7,2.7,5-.2,9.7-0.4,14.6a59.3,59.3,0,0,1-.6,5.9c-4.5-.8-7.8-5-12.9-4.4-1.2.2-1.3-.9-1.8-1.6a6.5,6.5,0,0,0-6.3-2.9c-1.9.2-4-2.4-3.1-4.2s1.3-4.9,2.1-7.3-0.3-2-2.2-2.3c4.2-.5,4.6-4.1,5-6.3a7.9,7.9,0,0,1,3.9-5.4c3.7-2.5,5-5.9,5.6-10.2s-0.3-8.3,3.6-11.1c0.9-.6,1.5-2.3,2.6-1.6a3.3,3.3,0,0,1,1.1,3.7c-0.6,1.6.2,2.9,0.4,4.4C494.3,360.2,496.2,361.4,499.7,361.4Z" style="fill:#fe2787"/><path d="M495.3,285c1.3,1.8,3,1.3,4.6,1.6,4.7,0.6,4.6.3,3.5-4.4a10.6,10.6,0,0,0-3.3-5.4c-1.9-1.9-1.4-2.4,1.2-3.3a10.4,10.4,0,0,1,6-.7c2,0.4,4.4-.4,3.3-3.2s0.6-1.9,1.8-2.3,5.7,1.5,3.9-3.4c-0.3-.8.7-0.5,1.3-0.5,7.5-.7,8.3.1,7.9,7.9-0.2,4.5-.6,9-0.7,13.5,0,0.9.2,1.4-.8,1.6-5,.8-5,5.3-6.4,8.7s-2.5,7.2-3.8,10.7-2,4.1-4.4,1.3a2.8,2.8,0,0,0-1.7-.5c-9-.8-7.9-2-9.6-10-0.3-1.6.1-3.6-2.3-4a1.8,1.8,0,0,1-.6-0.9c-0.8-1.3,3.2-.5,1.1-2.6A4.4,4.4,0,0,1,495.3,285Z" style="fill:#fe2787"/><path d="M446.3,360.7c-0.2,1,2.1,1.4.7,2.7s-0.7.6,0,1.1,1.9-1.1,2,.1-1.1,1-2.1.8-0.8.9-.9,1.4,0.7,0.7,1.1.7,3.3,0.5,3.1,1.2-0.4,3.9-2.6,4-1.6,1.7-1.7,2.4-0.9,2.6-1.4,4.4l1.3-.5c4.3-3.1,4.3-3.1,4.9,2.1,0.1,1.1.3,2.1,1.5,2.2s1.1-1.2,1.2-2.1,0.3-2.2.5-3.6c1.3,1.2,3.1,1.6,3.2,3.6s0.3,3-2,2.6a2.2,2.2,0,0,0-1.8.7c-0.7,1.1.7,1,1.1,1.4s1.1,1,.5,1.9a1.8,1.8,0,0,1-2,.7l-2.8-.9c-3.1-.8-9.3,1-9.1,3.1,0.5,4.7-4.4,5.5-5.2,9s-4.6,2.8-6.7,2.2-5-.1-6.7,2.4a4,4,0,0,1-1.6.6c1.1-4.8.7-9.8,2.3-14.4a70.8,70.8,0,0,1,4.6-9.1,2.3,2.3,0,0,1,3-.9c0.8,0.3,5.4,1.4,5.7,1s2.3-2.2.2-2.9-2.2-3-1.6-5.1,3.1-2.8.1-4.4a4.4,4.4,0,0,1,.6-1.6c3.7-4.8,4-10.2,3.4-16-0.1-1.2-.4-3.2.9-4s1.7,0.8,2.6,1.5,3.3,1.9,4.3,4.3,3.4,4,5.7.7c0.5-.7,1.6-1,1.9-0.6s4.4,1.8,4.4,4.7,0.2,5.2.3,7.8-0.4,1.8-1.8,1.3-3.9-1.8-4.2-3.1-5-1.8-2.7-5c0.1-.2-0.8-0.2-1.2-0.3-2-.6-2.3,1.1-3.2,2.1l-0.9-.7Z" style="fill:#fe2787"/><path d="M498,333.7c-3.3-3.9-4.6-3.8-8.8,1.3,0.4-2.6-1.9-4.8,1.4-6.4,1.4-.7.2-1.7-0.4-2.3s-2-2.4-3.7-.9-0.7,1.3.2,2.1a3.8,3.8,0,0,1,.9,2c0.3,1.1,1,2.7-.4,3.2s-2.4-.3-2.7-2-1.2-1.7-1.8-2.6c-0.8,1-2.1,1.2-2.7,2.7a31.7,31.7,0,0,1-7.8,11.5c-2.2,1.9-2,4.9-1.6,8.3,4.1-2.5,9.2-1.7,12.6-5.5,0.7-.8.6,0.2,0.8,0.3a8.2,8.2,0,0,0,4.5,1.4,54.7,54.7,0,0,0-3.7,4.4c-1,1.5-2.6,3.1-.7,5.1s0.4,1.8-.4,2.6-2.7,2.4-4.7,2c-4.7-1-8.1-4.1-12-6.7s-2.1-6.6-2-10,3.2-8.1,2.5-12.9c-0.4-2.5,1.5-5.4,4.6-6.8s6-3.9,9.3-5.5,4.8-1.4,5.6,2.4c1.9-1.6.8-3.9,1.4-6,1.3,0.4,3.1-.1,2.9,2.3a3.1,3.1,0,0,0,.8,1.6c1.2,1.8,5.2,1,4.4,5-0.1.6,3,2.1,3.7,1.1s2.6-3.4.8-5.2-1.1-3.1-3.3-1.9c-0.7.4-.5-0.8-0.4-1s1.7-3,1.5-4.9,0.6-.6,1.2-0.5,2.7,0.1,4.1.2,1.6-.4,1.9.6-0.5,1.3-1.2,1.6-1.3,1.2-.5,2.8,0,5.2-.8,7.8-4.5,5.4-5.7,8.8H498Z" style="fill:#fe2787"/><path d="M527.2,357.6c-2.3-.6-5.4,1.4-6.3-1.6s1.8-4.5,3.5-6.3,1-1.8,1.7-2.4,2.7-5.5,7.2-3.3c2.5,1.2,6.2-.7,9.5-0.6s3.3,0.7,3.4,2.9,1.6,5,3.3,7.3,2,7.8,1.7,11.8c-0.7,7.1-1.5,14.3-1.4,21.4,0,2.3-.5,3.6-3,3.1s-5,1.2-7.4,1.8a9.3,9.3,0,0,1-6.5-.2,1.3,1.3,0,0,1-1-1.7c0.2-.9.9-0.7,1.5-0.7,2.7-.1,5.4.3,8.1-0.8,0.5-.2,1.6.1,1.4-0.8-1.1-6.5,3.7-1.3,4.9-2.9,2.5-4.8.3-10.3,2-15.5,0.3-1-.2-1.6-1.5-2s-5.2-.4-7.7-0.8-4.8,1.9-4.6-2.5c0-.3-3.6-1.1-5.5-1.1-4.8-.1-9.6-1.5-14.4-0.7C518.7,358.3,523.6,359.7,527.2,357.6Z" style="fill:#fe2787"/><path d="M538.2,206.9a109.2,109.2,0,0,1,4.5-15.6c0.5-1.5.3-3.9,0.6-4.2,1.8-2.4-1-4.5.3-6.9a7.2,7.2,0,0,0,.3-6c-0.5-1.3-.8-3.5,1.6-4.7l3.6,11.1a1.7,1.7,0,0,1-.7,2.3c-1.9,1.6-3.9,3.7-2.3,6.4s-0.5,5.8-1.8,7.4-3.1,5.9-4.2,9.1A1.7,1.7,0,0,1,538.2,206.9Z" style="fill:#fe2787"/><path d="M450.5,316.2c1,1.8-.5,4.4,1.7,6.1,0.5,0.4-.1,2.2-0.9,2.1-2.4-.4-2.2,1.6-2.7,2.7s-1.9,4.2,1.7,4.5c1.3,0.1,1.5,1.3.9,1.8s-1.6,4-1.8,5.8-2,3.8-4.5,3.6-4.9-.5-3.4,4.3c-2.8-2.9-2.5-5.3-.6-6.7s3.3-4.9,4.3-8,3.2-7.9,3.7-12.1C449.2,318.7,447.6,316.6,450.5,316.2Z" style="fill:#fe2787"/><path d="M517.4,417.1c-3.8-1.4-6.5,2.2-10.5,1.3a5.1,5.1,0,0,1-3-1.8c-0.7-.7-1.1-1.5-0.4-2.3s1.3-.1,2,0c3.9,0.6,7.9,1,11.8,1.4v1.3Z" style="fill:#fe2787"/><path d="M462.8,320c-2.7,3.6-2.7,3.6-6.9,1.1C457.9,319.2,460,318.4,462.8,320Z" style="fill:#fe2787"/><path d="M456.4,328.1A2.1,2.1,0,0,1,454,330c-1.6,0-1.6-.9-1.8-2.1a2.2,2.2,0,0,1,2.4-2.5C456,325.4,454.5,328.1,456.4,328.1Z" style="fill:#fe2787"/><path d="M481.9,212.2c-0.9-2.6-2.3-4.6-1.8-7.1C482.6,207.5,482.9,208.4,481.9,212.2Z" style="fill:#fe2787"/><path d="M494.5,342.7c-1.1,3.1-1.2,3.2-5.3,3.5C490.5,344.3,493.1,344.4,494.5,342.7Z" style="fill:#fe2787"/><path d="M492.8,226.5c0-4.8,3,.2,4.1-1.4-0.9,2.1-2.1,3.3-4.1,1.3h0.1Z" style="fill:#fe2787"/><path d="M462.2,337c-0.3-2.1.1-3.3,1.6-3.9a1.2,1.2,0,0,1,1,.3C465,335.2,463.2,335.5,462.2,337Z" style="fill:#fe2787"/><path d="M518.1,387.5v8h-0.4v-7.8Z" style="fill:#fe2787"/><path d="M503.1,361.9a13.4,13.4,0,0,1,6.3,0A12.9,12.9,0,0,1,503.1,361.9Z" style="fill:#fe2787"/><path d="M497.9,333.7v4.8c-0.4-1.6-1.4-3.2.1-4.7h-0.1Z" style="fill:#fe2787"/><path d="M513.6,384.2h4A3.8,3.8,0,0,1,513.6,384.2Z" style="fill:#fe2787"/><path d="M485,338.5a4.5,4.5,0,0,1-.3-3.6C485.8,336.1,484.9,337.3,485,338.5Z" style="fill:#fe2787"/><path d="M525,383.6a4.5,4.5,0,0,1-3.5.1C522.6,383,523.6,383.2,525,383.6Z" style="fill:#fe2787"/><path d="M528.8,129.2a2.9,2.9,0,0,1-1.1.9c-0.6,0-.4-0.6-0.4-1a0.7,0.7,0,0,1,.9-0.7A2.2,2.2,0,0,1,528.8,129.2Z" style="fill:#fe2787"/><path d="M527.2,193.5c2.6,0.3,2.5.2,1.4,2.4a7.5,7.5,0,0,0-.5,3.6c0.1,0.9.5,1.6-.9,1.5s-1.3-.7-1.5-1.6,1.4-3.9,1.6-5.9h-0.1Z" style="fill:#fefefe"/><path d="M499.4,206.2c0.5,3.1-1.8,5.3-2.7,9-1.4-4.4.2-6.8,2.8-8.9h0Z" style="fill:#fefefe"/><path d="M501,203.2c-0.2-1.9.9-2.9,3.2-4.2-1.1,2.2,1.2,4.6-2.3,5.1C501.1,204.2,500.7,204,501,203.2Z" style="fill:#fefefe"/><path d="M518.9,179.1a0.9,0.9,0,0,1-1.3.8c-0.8-.6-2.5,0-2.6-1.5s0.7-1.4,1.8-1.4S518.3,178.3,518.9,179.1Z" style="fill:#fefefe"/><path d="M534.9,143.3c0.9,1.3,1.6,2.3,1.4,3.5s-0.5,1.4-1,1.3,0-2.4-1.5-3S535.4,144.8,534.9,143.3Z" style="fill:#fefefe"/><path d="M531.2,162.9c0.6,1.9,2.8,1.2,2.2,3.2s-0.7,1.7-1.3,1.5S531.1,165.2,531.2,162.9Z" style="fill:#fefefe"/><path d="M538.8,113.1c2.1,0.9,2.5-1.7,4.2-.6s0.3,0.7,0,1.1S541,115.4,538.8,113.1Z" style="fill:#fefefe"/><path d="M501,203.2l0.9,0.9c0.5,2.2,0,3.2-2.4,2.1h0a4.6,4.6,0,0,0,.6-1.6C498.1,202.8,500.2,203.4,501,203.2Z" style="fill:#fefefe"/><path d="M530.9,146.6c0.1,0.6,0,1.2-.7,1a1.4,1.4,0,0,1-1.3-1.5,2.9,2.9,0,0,1,.9-1.1Z" style="fill:#fefefe"/><path d="M510.8,183l-1.3,1.1c-0.5-1.2-.5-2.3.8-3.1s0.3,1.3.4,2h0.1Z" style="fill:#fefefe"/><path d="M510.7,183c1.1-.1,1.7.3,1.4,1.4a1,1,0,0,1-.7.6c-1.3-.3-0.6-1.4-0.7-2.1h-0.1Z" style="fill:#fefefe"/><path d="M526.2,176.1c-0.4-.9-1.3-1.4-1-2.5S526.6,174.9,526.2,176.1Z" style="fill:#fefefe"/><path d="M518,175.1a1.8,1.8,0,0,1-.7.7c-0.8.3-.5-0.5-0.6-0.8s0.1-1,.7-0.9S518.3,174.3,518,175.1Z" style="fill:#fefefe"/><path d="M433.1,394.3c0.2-1.1,2-2,.8-3.1s-2.2-.6-3.1.8-1.4.1-2.1,0.2a13.4,13.4,0,0,1,.3-2c0.2-.9.5-1.3,1.8-1.1a20.4,20.4,0,0,1,5.6,2.1c-1.4-5.5,2-6,5.6-6.4,1.2-.1,2.8-0.2,2-2.3-0.1-.4-0.1-1.1.5-1a6.2,6.2,0,0,1,2.3,1,1.6,1.6,0,0,1-.2,1.3c-4.6,2-6.8,6.6-10.2,9.8A3,3,0,0,1,433.1,394.3Z" style="fill:#fefefe"/><path d="M431.3,398.3c0.1-.9-1.6-0.6-1.1-1.5a2.8,2.8,0,0,1,3.8-1.4,5.6,5.6,0,0,1-2.7,2.8h0.1Z" style="fill:#fefefe"/><path d="M446.3,360.7c-1,.1-2,0-1.9-1.4s0-1.5.9-1.2,0.1,1.9.9,2.6h0.1Z" style="fill:#fefefe"/><path d="M431.3,398.2c-0.4,1.4-1.6,1.6-2.9,2,0.2-2.1,1.6-2,3-1.9h-0.1Z" style="fill:#fefefe"/></svg>