<?xml version="1.0" encoding="utf-8"?>
<!-- Generator: Adobe Illustrator 16.0.0, SVG Export Plug-In . SVG Version: 6.00 Build 0)  -->
<!DOCTYPE svg PUBLIC "-//W3C//DTD SVG 1.1//EN" "http://www.w3.org/Graphics/SVG/1.1/DTD/svg11.dtd">
<svg version="1.1" id="圖層_1" xmlns="http://www.w3.org/2000/svg" xmlns:xlink="http://www.w3.org/1999/xlink" x="0px" y="0px"
	 width="1200px" height="900px" viewBox="0 0 1200 900" enable-background="new 0 0 1200 900" xml:space="preserve">
<title>layer_agriculture</title>
<path fill="#A975FF" d="M749.58,282.822c-2.015,0.134-4.164,0.269-4.701-2.284c-0.538-2.552-1.075-5.374,0.27-7.657
	c1.343-2.284,1.745-0.537,2.687,0.672s-0.537,4.164,1.612,5.373v4.03L749.58,282.822z"/>
<path fill="#A975FF" d="M747.565,152.788c0.536,2.821,2.015,5.642,0,8.866c-2.821-2.955-2.419-5.911-0.94-8.866h1.074H747.565z"/>
<path fill="#A975FF" d="M617.128,575.4c-1.479-1.075,0.806-3.896-1.881-4.435c-2.228-0.387-4.463,0.625-5.644,2.553
	c-2.368,4.342-6.311,7.609-11.015,9.136c-1.881,0.672-2.956,3.492-4.434,5.104c-5.504,5.451-9.807,11.995-12.627,19.21
	c-2.943,8.206-3.272,17.123-0.94,25.523c0.671,2.521,0.231,5.211-1.209,7.388c-2.203,3.338-3.286,7.29-3.09,11.284
	c0.672,8.866-1.479,17.464-2.149,26.329c-0.269,3.896-4.028,6.046-4.164,10.344c-0.135,4.299-2.283,10.344-2.418,15.718
	c-0.305,1.513-0.946,2.937-1.881,4.164c-3.357,3.358-4.836,8.463-9.672,11.284c1.408-4.558,2.397-9.232,2.955-13.971
	c0.135-2.553,2.418-2.149,4.03-2.688c1.611-0.538,2.283,1.746,2.687-0.402c0-1.039-0.842-1.882-1.881-1.882
	c-4.029-0.134-2.82-2.015-2.148-4.566c2.283-10.075,6.717-19.612,7.792-29.956c0.833-6.739,0.787-13.559-0.136-20.284
	c-0.537-3.358,0.808-6.985,1.209-10.344c0.461-6.013-0.13-12.059-1.746-17.866c-2.283-9.135-1.209-18.136,0.673-27.27
	c2.955,1.61-2.284,6.446,3.09,6.851c1.074-4.567,3.492-9.403,0.938-14.644c-1.073,0.537,0,2.149-0.806,2.821
	c-3.358-3.09-3.224-6.717-1.746-10.612c1.479-3.895,5.104-1.073,7.522-2.418c2.418-1.344,2.82,1.479,2.553,3.492
	c-0.271,2.017-1.209,2.017,0.401,2.418c1.612,0.403,1.479-0.938,2.284-1.478c0.957-0.675,1.513-1.784,1.479-2.955
	c-0.27-6.582,3.224-10.209,9.269-12.358c2.561-1.146,4.646-3.14,5.911-5.643c1.881-3.627,4.164-2.82,6.717-1.746
	c2.552,1.075,2.552,0.806,3.627-0.403c1.074-1.209-0.135-2.282-1.209-3.089c-1.075-0.807,0.94-1.747,1.209-2.688
	c3.358,1.611,3.358-1.611,3.896-3.225c0.538-1.612-1.344-2.418-2.553-3.357c-1.209-0.94-3.762-2.283-3.358-3.896
	c0.403-1.611,2.956-1.209,4.434-1.746c1.479-0.537,3.225-2.553,4.836-3.896c-0.672-0.672-0.402-2.149-1.611-2.284
	c-1.209-0.134-2.149-1.881-1.746,0.403c0.403,2.283-0.135,2.148-1.074,2.015c-1.342-0.101-2.445-1.095-2.688-2.418
	c-0.27-1.881,1.209-0.939,1.881-1.209c2.82-1.209,4.566-2.687,3.627-6.312c-0.94-3.626-0.134-5.239-0.134-9
	c4.299,6.045,5.373,12.896,11.82,18.135c-2.687-7.389-0.672-13.837-2.553-20.017c-0.269-0.939-1.612-2.553,0.403-3.357
	c2.015-0.808,1.074,1.612,1.746,2.015c4.971,3.493,9.807,7.254,15.984,8.194c6.181,0.939,6.985-3.224,5.374-7.657
	c-0.186-0.423-0.275-0.881-0.27-1.343c0.27-2.688,10.479-10.344,14.643-10.075c-9.806,4.03-10.075,12.09-10.881,20.15
	c-0.403,4.836-1.881,9.537-6.851,11.82c-4.972,2.283-5.239,8.194-7.523,12.358c-0.806,1.344-0.402,4.03-3.357,3.358
	c0,0-1.344-0.136-0.537,0.672c4.836,4.7-1.074,8.463-1.074,12.762c0,4.298,1.746,6.179,4.299,5.642
	c2.552-0.536,6.447,0.537,7.254,2.284c1.881,4.164,5.104,3.089,8.061,3.896c3.634,1.195,7.071,2.916,10.21,5.104
	c1.61,1.074,1.343,2.688-0.672,3.492c-1.181,0.606-2.45,1.016-3.763,1.209c-9.806,0-19.611,1.075-29.283-1.88
	c-1.612-0.403-0.673-0.403-0.538-1.479c0.672-3.491-3.492-4.298-4.837-6.851c-1.343-2.553-3.761-0.135-5.642,0.269
	C616.321,571.502,618.337,574.191,617.128,575.4z"/>
<path fill="#A975FF" d="M610.545,502.323c5.508-1.881,6.583-0.403,5.776,8.06c-1.612-0.939-3.492-1.611-4.567-2.955
	c-1.074-1.344-2.418-1.075-3.627,0c-1.209,1.074-7.388,1.611-8.06-1.611c-0.673-3.224-2.419-3.358-4.165-4.701
	c-1.746-1.344-3.492-1.209-2.82-4.165c0.672-2.955,1.478-4.701,4.029-4.567c6.18,0.27,6.852-3.896,7.522-8.328
	c0.134-1.344,0-2.553,1.074-3.762c1.075-1.209,1.344-3.09-1.343-3.627c-2.688-0.537-3.09-0.269-2.284-2.418s1.478-5.104,3.357-6.985
	s1.746,0.537,2.821,0.807c-2.148,3.628,2.82,6.717,0.807,10.075c-3.896,6.447-2.553,12.492,1.074,18.135
	c1.099,1.717,1.393,3.826,0.807,5.775c-0.103,0.294-0.363,0.503-0.672,0.538c0.269,0.402,0.269,0.27,0.402-0.269
	C610.812,501.785,610.276,502.994,610.545,502.323z"/>
<path fill="#A975FF" d="M733.058,239.164l5.643,0.671c-2.821,0.672-0.403,4.299-4.03,3.224c0,0.806-0.537,2.015-0.134,2.418
	c3.761,3.493-0.135,7.522,0.939,11.284c0.483,1.839,0.031,3.798-1.209,5.239c-0.402-2.956-4.165-1.612-4.971-4.03
	s-1.746-3.493-1.612-5.105c0.397-4.919,0.353-9.865-0.134-14.777c2.016-1.209,2.283,2.149,3.492,0.94
	c1.209-1.209,0.269-2.688-0.269-4.164c-3.627-11.016-3.358-11.553,6.045-19.344c0.78,0.597,1.059,1.648,0.672,2.552
	c-5.104,2.015-3.09,5.911-2.283,9.135C736.013,230.432,732.923,235,733.058,239.164z"/>
<path fill="#A975FF" d="M738.162,272.076c4.164,7.791,2.418,15.583-0.672,23.105c-1.074,2.821-3.225,4.971-2.149,8.463
	c1.075,3.493-4.971,6.717-7.657,5.911s-2.819-1.344-1.881-3.626c1.804-4.631,4.196-9.011,7.12-13.03
	c0.94-1.343,2.016-2.552,1.344-4.03c-2.688-5.239,0.27-8.866,3.492-12.225C740.982,273.285,736.55,273.956,738.162,272.076z"/>
<path fill="#A975FF" d="M637.412,463.098c0.806,2.955-0.672,3.627-2.284,4.3c-5.642,2.282-7.521,6.984-7.388,12.627
	c0.18,3.785-0.806,7.536-2.821,10.747c-1.881,3.089-1.478,7.254-1.344,11.418c-2.104-1.109-3.286-3.421-2.955-5.776
	c0.537-5.239-1.746-11.149,3.493-15.313c0.537-0.402,0.671-1.344-0.136-1.611c-4.299-1.209-2.015-3.763-1.611-6.181
	c0.402-2.418,0.807-3.761,4.434-4.028C630.427,469.008,633.785,465.381,637.412,463.098z"/>
<path fill="#A975FF" d="M648.83,428.171c-0.537,1.343,1.209,3.896-2.283,4.164c-0.807,0-0.807,0.537,0.27,2.016
	c3.896,5.508,1.881,12.627-4.435,14.104c-3.089,0.806-2.955-2.149-2.418-4.03c1.045-3.257,2.302-6.442,3.762-9.537
	c1.388-2.508,1.388-5.553,0-8.061c-0.188-0.287-0.323-0.605-0.402-0.94c-0.27-2.015-1.209-4.164,0.672-6.045
	c1.881-1.88,1.478-0.537,2.418,0c0.939,0.538,2.687,3.226,2.015,5.374C647.756,427.365,648.562,427.096,648.83,428.171z"/>
<path fill="#A975FF" d="M658.905,286.852c0,0.672,0,1.343,0,2.015c0,0.671,0.269,3.358-1.209,3.358c-1.479,0-3.09-1.612-4.702-2.284
	c-0.88-0.132-1.486-0.953-1.354-1.834c0.059-0.384,0.253-0.735,0.55-0.987c2.148-3.089,0.536-4.97-1.612-7.12
	c-2.149-2.15-3.089-4.164,0.939-5.239c0.673-0.134,1.747-0.134,1.882-0.403c1.209-2.553,3.492-2.149,4.971-1.075
	c1.478,1.074,0.537,3.358-0.538,4.433c-1.074,1.075,1.209,5.508-2.418,6.583c0.538,1.746,2.821,1.075,3.627,2.687h-0.134
	L658.905,286.852L658.905,286.852z"/>
<path fill="#A975FF" d="M701.354,337.228c-2.687-8.464,1.209-14.238,10.345-15.985C712.235,329.167,704.31,331.451,701.354,337.228z
	"/>
<path fill="#A975FF" d="M697.324,318.151c1.419-0.739,3.168-0.272,4.029,1.074c0.807,1.345-0.402,2.554-1.478,3.628l-1.074,1.073
	c-2.016,2.017-4.299,3.763-7.12,3.763c-2.82,0-0.939-2.149-0.672-3.763C691.683,320.032,692.354,316.809,697.324,318.151z"/>
<path fill="#A975FF" d="M657.428,386.931c4.164,5.643-1.478,11.284,0.672,17.194C651.383,399.826,651.383,392.572,657.428,386.931z"
	/>
<path fill="#A975FF" d="M718.28,328.898c-6.447,2.954-9.403,9.537-15.313,12.225c3.225-4.164,6.447-8.194,9.403-12.493
	C715.325,324.331,715.997,327.152,718.28,328.898z"/>
<path fill="#A975FF" d="M659.039,286.852c0-3.627-1.611-7.388,1.209-10.747c0.538-0.672,0.939-1.478,2.016-1.209
	c1.074,0.269,0.807,1.343,0.807,2.015c0.19,2.147,0.146,4.31-0.135,6.448c-0.402,1.881-3.492,1.075-3.896,3.358h0.135
	L659.039,286.852z"/>
<path fill="#A975FF" d="M675.966,593.132c4.043,1.724,8.622,1.674,12.627-0.134c2.418-1.075,4.702-0.807,7.522,0.672
	c-5.004,1.347-10.139,2.157-15.313,2.418c-2.418,0.134-3.627-1.209-4.702-3.09h-0.134V593.132z"/>
<path fill="#A975FF" d="M744.207,171.594c-3.225-5.239-5.104-10.612-0.403-16.523C742.461,160.848,746.222,166.086,744.207,171.594z
	"/>
<path fill="#A975FF" d="M738.431,196.177c0.537,3.761,0.403,7.388-3.896,11.015c0.269-4.836-0.807-8.866,3.896-10.881h-0.135
	L738.431,196.177z"/>
<path fill="#A975FF" d="M745.55,185.027c-0.134,1.612,0.271,3.358-1.478,3.358c-1.746,0-3.492-0.403-2.553-2.687
	c0.94-2.284-0.672-5.374,2.149-5.374C746.49,180.326,744.207,183.818,745.55,185.027z"/>
<path fill="#A975FF" d="M651.248,323.525c-0.94-2.149-1.074-4.567-3.09-6.313c-0.846-1.034-0.691-2.558,0.343-3.403
	c0.181-0.146,0.382-0.269,0.598-0.357c1.345-0.403,1.479,1.074,1.747,2.283C651.114,316.942,654.473,320.839,651.248,323.525z"/>
<path fill="#A975FF" d="M589.188,554.444c-2.149,1.073-3.628,0.672-3.763-2.016c-0.134-2.688,1.746-1.611,2.821-1.611
	c1.074,0,3.357-0.673,2.955,1.745C590.798,554.98,591.47,555.787,589.188,554.444z"/>
<path fill="#A975FF" d="M739.64,234.597c0.537,3.627,1.882,7.12-0.939,11.821C738.834,241.582,737.355,237.955,739.64,234.597z"/>
<path fill="#A975FF" d="M659.039,377.93c0-2.147-1.074-4.97,2.553-5.373c0.94-0.134,2.418-0.269,2.284,1.075
	C663.662,376.122,661.538,378.011,659.039,377.93z"/>
<path fill="#A975FF" d="M616.456,465.649c-2.017,1.625-3.396,3.907-3.896,6.447c-1.209-2.282-1.611-4.7-0.402-6.851
	S614.844,465.247,616.456,465.649z"/>
<path fill="#A975FF" d="M675.966,593.132c-2.956-3.224-4.971-7.119-7.792-10.344c3.493,2.821,7.792,4.971,7.792,10.479h0.134
	L675.966,593.132z"/>
<path fill="#A975FF" d="M543.646,760.78l-4.836,10.344C538.812,766.96,540.691,763.602,543.646,760.78z"/>
<path fill="#A975FF" d="M606.112,527.98c1.343,2.148,2.015,4.163,0.806,6.581C603.021,532.816,603.963,530.533,606.112,527.98z"/>
<path fill="#A975FF" d="M670.189,484.726c-0.403-4.701,1.343-7.255,4.566-9.001L670.189,484.726z"/>
<path fill="#A975FF" d="M603.56,525.025l0.27-6.313C605.979,521.13,605.979,521.398,603.56,525.025z"/>
<path fill="#A975FF" d="M677.712,465.919c0.672,3.089,0,4.836-2.015,6.582C674.757,469.68,676.771,468.471,677.712,465.919z"/>
<path fill="#A975FF" d="M655.412,421.051c-0.939-2.955-0.134-5.373,1.209-8.328C657.293,416.215,655.278,418.633,655.412,421.051z"
	/>
<path fill="#A975FF" d="M684.294,341.929c0-2.282-1.209-4.701,0.94-6.18c0.478-0.204,1.029,0.018,1.233,0.495
	c0.169,0.396,0.048,0.855-0.294,1.117C684.832,338.57,685.638,340.451,684.294,341.929z"/>
<path fill="#A975FF" d="M689.265,460.276c0.624,0.193,0.98,0.849,0.807,1.478c0,0.672-0.402,1.344-1.074,1.075
	c-0.624-0.194-0.979-0.849-0.807-1.479c-0.08-0.514,0.271-0.993,0.783-1.074C689.069,460.262,689.168,460.262,689.265,460.276z"/>
<path fill="#A975FF" d="M601.545,536.041c0.502-0.543,1.093-0.997,1.746-1.344c0.401-0.191,0.883-0.021,1.075,0.38
	c0.104,0.22,0.104,0.475,0,0.694c-0.188,0.604-0.629,1.096-1.209,1.344C602.537,536.898,601.983,536.528,601.545,536.041z"/>
<path fill="#A975FF" d="M738.564,196.177l1.344-5.239c0.939,2.552,0.806,4.299-1.479,5.105h0.135V196.177L738.564,196.177z"/>
<path fill="#A975FF" d="M643.054,461.217l-3.224,3.09C639.964,461.889,640.771,461.217,643.054,461.217z"/>
<path fill="#A975FF" d="M584.888,543.025c-0.833,0.737-2.106,0.659-2.845-0.174c-0.164-0.186-0.293-0.399-0.38-0.633
	C583.275,540.742,583.544,543.562,584.888,543.025z"/>
<path fill="#A975FF" d="M649.636,456.784c1.21-0.672,1.075,0.134,1.075,0.537c0.312,0.505,0.155,1.167-0.35,1.479
	c-0.101,0.062-0.208,0.106-0.322,0.133c-0.398-0.07-0.744-0.317-0.94-0.672C649.206,457.746,649.388,457.248,649.636,456.784z"/>
<path fill="#A975FF" d="M679.055,362.75c-0.134,0.807-0.134,1.612-1.073,1.479c-0.405-0.163-0.706-0.515-0.807-0.939
	c0.342-0.54,0.748-1.036,1.209-1.479L679.055,362.75z"/>
<path fill="#A975FF" d="M571.589,599.715c0.833,1.835,0.833,3.94,0,5.776V599.715z"/>
<path fill="#A975FF" d="M610.545,502.323c0.135,1.61-0.402,2.819-2.283,2.819c-0.374-0.238-0.621-0.634-0.672-1.073
	C607.59,501.785,610.008,503.666,610.545,502.323h-0.134H610.545z"/>
<path fill="#A975FF" d="M730.64,249.911v-4.702h0.537l0.807,4.702h-1.209H730.64z"/>
</svg>
