<?xml version="1.0" encoding="utf-8"?>
<!-- Generator: Adobe Illustrator 18.0.0, SVG Export Plug-In . SVG Version: 6.00 Build 0)  -->
<!DOCTYPE svg PUBLIC "-//W3C//DTD SVG 1.1//EN" "http://www.w3.org/Graphics/SVG/1.1/DTD/svg11.dtd">
<svg version="1.1" id="圖層_1" xmlns="http://www.w3.org/2000/svg" xmlns:xlink="http://www.w3.org/1999/xlink" x="0px" y="0px"
	 viewBox="0 0 1200 900" style="enable-background:new 0 0 1200 900;" xml:space="preserve">
<style type="text/css">
	.st0{fill:none;stroke:#016E97;stroke-width:3;stroke-miterlimit:10;}
</style>
<title>layer_contour</title>
<path class="st0" d="M433.4,670.8c3-8.3,8.3-14.8,15.2-20.4c2.4-2,3.5-6,4.7-9.3c2-5.3,5.3-9.9,9.7-13.4c2.9-2.1,4.3-5.6,3.6-9.1
	c-0.5-3.6,0.5-6,4.2-7.9c6.7-3.6,10.9-9,13.8-16.4c4.6-11.6,13.3-20,24.2-26.1c3.6-2,5.9-5.1,8.3-8.1c4.3-5.2,6.9-12,12.5-16.3
	c1.7-1.3-0.3-2.8-0.8-3.8c-3.1-5.5-5.6-11.1-4.6-17.7c1.1-6.6-1.2-15.6-6.6-21.8c-2.7-3.1-3.4-6.3-1.2-9.8c2.3-3.8,2.3-8.4,0.1-12.2
	c-2.8-5.6-1.1-9.4,3.5-12.8l2.4-1.7c7-4.6,7.1-6.6,1.6-12.8c-3.1-3.5-5.9-7.4-9.1-11c-0.6-0.8-0.9-1.7-0.8-2.7c0-5.6,0-11.4,0-17.1
	c0-2.4,0.8-3.5,3.4-3.8c13-1.2,25.8-4.3,38.8-5.1c4.3-0.3,6.4-4.6,8.9-7.5s6-6.2,8.9-9.4c0.7-1.1,2.2-1.5,3.3-0.8
	c0.2,0.1,0.4,0.3,0.6,0.5c1.4,1.2,2.8,2.2,4.3,3.2c3.6,2.4,8.9,0.1,8.3-4c-1.6-12.4,3-23.2,7.8-34c4.8-10.7,10.7-18.1,16.4-27
	c1.7-2.7,3.9-5,6.6-5.1c2.7-0.1,3.8-2.4,3.8-5.2c0-2.8-0.8-7.4,0.9-10.7c1.7-3.4,0.1-7.7-3.4-10.6c-1.3-1.1-3.6-2.1-2.4-4.3
	c1.2-2.1,3.1-0.8,4.6-0.7c1.5,0.1,3.6-0.5,4.6-3.8c2.3-7.1-1.7-13.2-1.6-19.9c0.3-9.3,1.1-18.3,5.4-27.5l8.9,17.3
	c2.6,4.8,7,7.3,12,8.5c8.2,2,13-3,17.5-8.9c2.4-3.1,3.6-5.8,1.3-9.5c-1.1-1.6-0.8-3.8,0.5-5.1c5.4-5.5,6.2-12.4,5-19.2
	c-1.2-6.9,2.4-12.1,7.3-16.4c0.4-0.5,0.9-1,1.5-1.2c7,1.5,8.6-4.7,11.8-8.2c3.2-3.5,5.6-7.5,8.5-11.3c0.3-0.2,0.5-0.5,0.7-0.8
	c0-5.2,3.2-10.9,0.1-15.6c-3.1-4.7-2.1-9.8,0.8-14.2c1.1-1.2,1.6-2.8,1.6-4.4c-0.5-6.9,0.7-13.4,2-20.1c0.1-0.8,0-1.9,0.8-2.1
	c6.6-1.9,10.7-8.3,17.6-9.8c0.7-0.2,1.4-0.2,2,0c7.4,3.1,5.6-2.4,5.8-6h1.1c4.7,4.2,10.9,6.3,17.2,6c6-0.1,8.9,4.4,9.9,10.1v7.1
	c-0.3,8.5-4.4,14.4-10.3,20.1s-8.6,12.8-6.4,21.1c1.8,7.2,2.5,14.6,2,22c-0.1,2.8-0.9,4.7-4,5.5c-10.2,2.7-11.4,14.4-7.3,20.3
	c4.2,5.9,4.4,10.1,0.9,15.6c-3.5,5.5-1.3,9.1,0.7,13.4c2,4.3,5.5,11.6,8.5,17.2c3,5.6,2.3,7.8-1.2,11.4c-3.5,3.6-7.1,8.5-8.3,14.1
	c-0.7,2.5-2.2,4.6-4.3,6c-6.9,5.2-10.2,11.6-7.5,20.6c1.7,5.8,0.5,11-5.5,14.8c-4.7,3-8.6,7.1-11.3,12c-2.1,3.6-5,6.8-8.3,9.3
	c-5.9,4.6-6.9,10.1-2.4,16.1c4.4,6,5.6,11.1,4,18c-0.9,3.9-0.3,8.1-0.4,12.1c-0.1,4-0.9,5.2-3.8,6.6c-2.3,1.2-4,3.2-4.7,5.6
	c-2.6,6.6-4.4,13.4-7.3,19.9c-1.1,2.6-0.4,4.8,0.8,7.1c3.6,7.1,0.3,14.4-7.5,16.3c-3,0.5-5.6,2.6-6.6,5.5c-0.5,1.3-1.3,2.7-2,4
	c-3.1,6.3-2.6,5.1,3.6,8.3c8.5,4.4,17.1,3.9,25.8,4.7c8.7,0.8,14.6,1.9,22,1.7c7.4-0.1,7.1,0.9,8.6,6.4c0.6,3,2,5.7,4,7.9
	c1.9,1.9,2.3,4.4,2.3,7c0,13-1.7,26.1-2.1,39.2c-0.1,2.8-1.6,4.2-4.4,4.6c-7.9,1.1-15.6,4.2-23.8,3.2c-2.7-0.3-3.9,1.3-3.9,4
	c0,2.7,0,8.7,0,13c0.1,2-0.1,4.1-0.5,6c-2.1,8.6-5.1,11.3-13.8,12.5c-18,2.7-14.9,2.6-24.3-9.5c-3-3.9-5.9-5.1-11-4.4
	c-14.1,1.7-28.4-0.1-41.6-5.1c-5.8-2.1-6-2.1-9.1,3.2c-2.8,4.6-6.5,8.6-10.9,11.7c-3.3,2.2-5.1,6-4.7,9.9
	c1.1,17.1-1.7,33.7-5.9,50.2c-2.3,9-2.8,18.3-3.8,27.4c-0.7,10.2-3.7,20.2-8.7,29.2c-8.5,14.6-11.6,30.6-13.6,47
	c-0.7,5.4-2,10.6-2.4,16c-0.4,5.4-3.8,11.7-10.2,14.1h-3c-1.8-1-3.1-2.6-3.8-4.6c-1.3-3.1-3.5-3.8-6.4-2.6
	c-6.9,2.7-13.7,4.6-21.1,1.9c-2.1-0.8-4.2,0.7-6,1.7c-2.4,1.8-5.6,2.1-8.2,0.7c-4.7-2.4-9.8-3.4-14.9-4.4
	c-9.3-2.1-15.4-15-11.3-23.5c1.9-3.8,3.2-7.8,5.2-11.4s0.8-4.8-1.2-7.1c-6.2-6.7-13-12.6-20.4-17.9c-3.6-2.6-6.3-5.8-6.2-10.3
	c0.1-10.9-5.1-19.1-12.8-26.1c-1.1-1.3-2-2.7-2.8-4.2v-5L433.4,670.8z"/>
</svg>
