<?xml version="1.0" encoding="utf-8"?>
<!-- Generator: Adobe Illustrator 16.0.0, SVG Export Plug-In . SVG Version: 6.00 Build 0)  -->
<!DOCTYPE svg PUBLIC "-//W3C//DTD SVG 1.1//EN" "http://www.w3.org/Graphics/SVG/1.1/DTD/svg11.dtd">
<svg version="1.1" id="圖層_1" xmlns="http://www.w3.org/2000/svg" xmlns:xlink="http://www.w3.org/1999/xlink" x="0px" y="0px"
	 width="1200px" height="900px" viewBox="0 0 1200 900" enable-background="new 0 0 1200 900" xml:space="preserve">
<title>layer_specific_agriculture</title>
<path fill="none" d="M497.705,781.468H482.66c-1.747,0-2.418-0.269-2.016-2.016c0.078-0.849,0.078-1.703,0-2.552
	c0-212.784-0.046-425.568-0.135-638.354c0-3.896,0.402-4.97,4.836-4.97H749.58c0.537,2.552-1.612,3.493-3.09,4.702
	c-3.681,2.954-6.239,7.078-7.254,11.687c-1.035,5.1-3.845,9.668-7.927,12.896c-3.896,3.224-7.926,7.389-7.926,13.434
	c0.032,1.879-0.812,3.667-2.283,4.836c-4.702,3.493-4.971,8.463-4.434,13.567c0.27,2.284,0.538,4.433-1.479,6.045
	c-2.015,1.612-1.073,1.881-0.134,2.956c4.164,4.702,1.746,10.612,2.688,15.986c0.161,1.026-0.54,1.988-1.566,2.149
	c-0.193,0.03-0.39,0.03-0.583,0c-1.478,0-2.82-0.94-2.687-2.418s-1.746-3.493-4.03-3.627c-2.283-0.134-4.299,0.672-5.104,3.09
	c-0.713,1.702-1.078,3.528-1.073,5.374c0.536,7.791-3.358,14.239-6.314,20.821c-2.955,6.583-3.627,10.881-9,14.24
	c-1.074,0.671-0.672,2.149-0.672,3.358c-0.269,5.508-3.089,10.209-5.238,15.045c-0.45,1.097-1.32,1.968-2.418,2.418
	c-4.566,1.612-8.731,3.224-11.553,7.926c-1.344,2.284-4.971,1.209-6.985-0.94c0.671,2.956,0.807,6.045-2.956,7.12
	c-3.761,1.075-6.582-3.089-7.521-7.254c-1.881,7.12-1.746,7.523,5.643,9c3.089,0.671,4.566,2.149,4.029,5.104
	c-0.537,2.956-2.82,3.896-5.776,3.224c-2.955-0.672-3.089-1.612-4.164,0.134c-1.073,1.747-0.135,3.627,0.807,5.239
	c2.553,4.434,4.434,9.001,2.148,14.238c-0.806,1.747,0.808,2.284,1.747,3.09c0.939,0.808,2.283,3.493-0.939,3.763
	c-2.431-0.023-4.499,1.759-4.836,4.164c-0.672,2.82,1.343,3.762,3.089,5.104c4.971,3.358,4.702,5.776-0.537,8.463
	c-1.746,0.94-3.627,2.284-5.643,2.149c-6.312-0.537-10.074,3.357-13.837,7.254c-1.343,1.344-3.357,1.612-4.433,3.225
	c-1.075,1.611,2.149,2.016,3.492,2.283c2.311,0.448,4.315,1.867,5.508,3.896c1.344,2.688,4.299,2.956,6.717,4.165
	s2.149-1.075,2.553-2.017c1.602-4.22,3.532-8.308,5.776-12.224c2.283-3.493,4.299-7.254,7.522-10.075
	c3.223-2.821,4.971-6.448,2.955-11.016c0.807-1.209,2.283-0.537,3.492-1.209c-1.207-0.371-2.52-0.004-3.357,0.939
	c-2.418-0.806-2.821-2.687-2.017-4.836c0.808-2.148,2.554-2.553,4.567-2.418c5.105,0.403,9.538,2.955,13.702,5.91
	c-2.015-1.746-1.479-5.373-4.97-6.179c-1.075-0.27-0.672-2.284,0.269-3.091c4.029-3.224,6.852-9.537,13.836-5.91
	c0.464,0.238,1.016,0.238,1.479,0c7.389-4.164,16.12-4.299,23.643-8.061c1.612-0.806,3.896-1.074,3.896-3.357
	c0-2.284-2.283-2.284-3.896-2.956c-1.611-0.672-2.687-4.567-1.074-6.448c0.348-0.345,0.758-0.619,1.209-0.806
	c2.821-1.343,5.239-4.164,4.03-6.448c-1.209-2.284-4.971-1.209-7.522,0.134c-0.415,0.209-0.895,0.257-1.344,0.134
	c-0.807-0.269-1.611-1.881-2.553-0.672c-5.776,7.389-12.896,3.896-19.612,2.418c-1.313-0.238-2.187-1.496-1.948-2.81
	c0.018-0.095,0.04-0.188,0.067-0.28c0.27-1.478,0.807-2.956,2.688-3.224c0.612,0.134,1.202,0.36,1.746,0.672l-1.209-0.806
	c-1.222-0.314-1.956-1.56-1.643-2.781c0.039-0.153,0.095-0.302,0.164-0.443c0.553-1.48,2.063-2.375,3.627-2.149
	c1.998,0.256,3.975,0.66,5.911,1.209c6.18,1.209,10.344-1.209,11.955-7.388c0.403-1.478-0.134-4.03,2.149-3.896
	c2.283,0.134,1.344,2.955,2.016,4.165c2.283-5.776,6.985-10.209,9.939-15.852c0.807-1.478,1.746,0.269,3.091-0.403
	c3.491-1.881,3.09-3.762,2.687-6.717c-0.402-2.956,0.403-9-0.134-13.568c-0.139-0.508-0.039-1.051,0.269-1.479
	c4.971-2.418,1.209-5.642,0.94-8.597c-0.403-5.642,2.148-10.747,3.492-15.986c1.344-5.239,2.687-7.254,2.687-11.149
	c-0.161-1.515,0.221-3.038,1.075-4.299c5.91-6.985,6.179-15.583,6.985-24.046c0.188-1.815-0.188-3.645-1.075-5.239
	c-1.746-3.224-1.209-6.448-0.672-10.075c0.538-3.627,3.627-8.866,6.583-12.493c2.955-3.627,2.283-8.329,3.896-12.225h4.03
	c3.358,0,8.061-1.343,9.672,0.403c1.611,1.747,0.402,6.314,0.402,9.672c-1.074,1.209-2.688,1.209-4.164,1.746
	c-1.784,0.611-3.146,2.073-3.627,3.896c-0.537,1.612-0.537,3.762,1.075,4.567c1.61,0.806,2.418-1.343,3.491-2.283
	c1.074-0.94,0.673-3.896,3.225-3.762c0,209.739,0.045,419.479,0.135,629.218c0,3.761-0.806,4.7-4.567,4.566H505.768
	c-0.403-0.402,0.269-1.611-0.538-1.611c-4.434,0.269-8.328-2.283-12.493-2.149C494.48,778.513,497.57,778.109,497.705,781.468z"/>
<path fill="#FFFF6D" d="M750.655,133.712c1.478,7.792-2.017,13.434-7.523,18.27c-0.855,0.473-1.207,1.525-0.806,2.418
	c0.659,1.383,0.558,3.008-0.27,4.299c-2.955,3.627-2.015,6.717,0.672,10.075c2.688,3.358,0.402,6.045,0.27,8.732
	c-0.27,5.508-1.075,11.821-4.164,15.985c-5.239,6.985-4.434,15.449-7.523,22.837c-3.089,7.388-5.507,13.03-0.134,19.613
	c0.537,0.537,0,1.88,0,3.358l-4.03-3.089c1.075,8.06-1.209,15.583,2.017,22.971c-2.956,0.537-7.255-0.806-6.448,4.702l-0.939-4.567
	c-2.284,7.657-9.403,11.821-11.688,19.209l-1.478-7.388c-1.746,2.552,0,4.836-1.479,6.985c-4.97,6.851-5.776,7.522-14.239,5.507
	l-4.299-0.94c-1.105-0.429-2.352,0.122-2.78,1.229c-0.015,0.038-0.027,0.076-0.04,0.115c-0.672,1.612,0,1.88,1.074,2.687
	c1.074,0.807,1.612,1.343,1.612,4.165c-1.479-0.806-0.807-3.627-2.688-2.956c-1.881,0.672-1.344,1.747-1.747,2.821
	c-0.01,0.583,0.181,1.151,0.538,1.612c4.971-0.672,9.537,4.567,14.509,1.075c1.478-1.075,6.179,0.672,4.299-4.03l2.687-0.94
	c2.418-0.538-0.135,3.089,2.149,3.224c1.61,2.687-1.612,4.971-0.94,6.314c-1.075-1.343,6.045-3.493,0.94-6.314
	c1.88-3.089,8.865-4.164,10.746-1.612c1.881,2.552,0,1.612-0.537,2.149s-1.344,6.717-6.313,6.851c-1.611,0-0.672,3.358-0.672,5.507
	c2.553-0.403,5.104-2.149,6.18,2.284c1.074,4.433-1.479,4.164-3.762,5.238c-6.312,2.688-12.627,5.104-19.611,5.911
	c-1.813,0.357-3.437,1.359-4.567,2.82c-0.62,1.099-2.013,1.486-3.111,0.866c-0.315-0.179-0.585-0.43-0.785-0.732
	c-2.552-2.819-4.7-1.209-6.851,0.537c-2.149,1.747-2.552,3.896-5.104,4.435c-0.719,0.184-1.152,0.915-0.97,1.634
	c0.034,0.135,0.09,0.264,0.164,0.381c0.807,1.479,1.209,0.537,2.016-0.269c0.806-0.807,0.806,1.478,1.881,1.074
	c-2.821,3.896,4.299,2.82,3.09,6.046c-0.639,1.233-1.617,2.261-2.821,2.954c-2.148-5.508-7.389-6.18-11.821-7.791
	c-1.344-0.402-3.225-1.074-4.434,0.807s-0.671,3.627,1.075,4.971h-0.135c2.82,6.582,2.016,8.061-3.628,13.567
	c-5.642,5.508-7.791,10.611-10.209,16.792c-1.074,2.819-2.82,5.507-3.492,9.134c-0.72-1.785-2.28-3.095-4.164-3.492
	c-2.553-0.672-5.104-1.478-5.91-5.104c-0.807-3.627-4.434-1.479-6.448-2.688c-2.016-1.209-3.225-0.538-3.225-2.553
	c0-2.016,1.479-2.149,2.956-2.688c1.477-0.538,3.224-2.82,4.433-3.357c3.762-1.612,4.702-8.061,11.017-5.776
	c3.627,1.344,7.118-2.418,10.611-3.896c3.492-1.479,0-2.284-0.135-3.226c-0.134-0.938-1.479-1.209-2.418-1.61
	c-0.94-0.403-5.373-2.284-4.299-5.644c1.074-3.357,1.881-7.926,7.522-5.642c0.33-0.018,0.651-0.108,0.94-0.27
	c-0.135-1.611-1.479-1.344-2.284-1.881s-3.492-1.612-1.478-4.433c2.015-2.821,0.269-7.523-0.94-11.15
	c-0.419-0.723-0.914-1.396-1.479-2.015c-1.478-2.418-2.015-5.508-0.806-7.657s3.761,0.403,5.643,0.672
	c1.881,0.269,5.642-0.94,4.836-3.761c-0.807-2.821-0.27-2.552-2.821-2.149c-2.552,0.403-4.97-1.075-7.522-1.881
	c-1.021-0.194-1.689-1.179-1.496-2.199c0.007-0.028,0.013-0.056,0.02-0.084c1.344-3.493,1.074-7.522,4.971-10.478
	c-2.016,4.567-0.939,7.388,3.089,9.806c4.03,2.418,4.165-0.269,4.836-2.552c0.673-2.284-0.939-4.433,1.345-6.045
	c1.746,0.671-2.149,4.03,1.746,3.627c3.896-0.403,4.836,2.015,5.374-2.418c0.536-4.433,3.356-4.433,6.446-4.702
	s5.508-1.344,6.181-4.03c1.344-5.374,6.18-9.806,4.164-15.986c-0.36-1.038,0.178-2.173,1.209-2.552
	c5.643-1.612,5.775-6.985,7.792-11.149c2.015-4.165,4.97-4.567,2.282-8.329c-0.269-0.269,0.136-0.672,0.807-0.672
	c0.672,0,3.09-1.343,1.881-3.224c-1.209-1.88-1.611,0-1.343-1.075c0.269-1.074,0.939-0.806,1.88-0.806
	c3.896-0.269,1.881-3.896,1.881-5.374c-0.129-2.623,0.143-5.25,0.807-7.792c0.671-2.015,1.479-5.373,3.089-5.104
	c1.612,0.269,6.985-2.418,8.465,2.552c0.32,0.375,0.738,0.654,1.209,0.806c-3.226,2.418-0.808,3.493,1.209,3.224
	c2.015-0.269-0.271-2.284,0.134-3.493c0.125-0.981,0.125-1.975,0-2.956c0.402-4.97,0.402-9.806-5.373-12.627
	c3.761-1.343,5.239-2.955,4.433-6.716c-0.806-3.761-0.672-11.016,4.702-14.643c1.074-0.671,2.418-1.612,2.015-3.224
	c-1.746-7.12,5.644-9.94,7.12-15.583c8.061-2.552,7.522-10.209,9.672-16.254c1.344-3.896,4.3-6.448,7.389-8.866
	c1.265-0.765,2.325-1.825,3.09-3.09h1.075v0.673H750.655z"/>
<path fill="#FFFF6D" d="M764.76,147.817c-1.074,0.269-0.806,1.209-1.074,2.015c-0.651,3.13-3.063,5.595-6.18,6.313
	c-1.478,0.403-1.209-2.149-1.611-3.358c-1.479-3.224,0.135-5.911,2.687-7.926c2.553-2.015,4.03-1.075,6.18-1.075L764.76,147.817
	L764.76,147.817z"/>
<path fill="#FFFF6D" d="M497.705,781.468c-2.434-2.33-5.798-3.419-9.135-2.955c7.119-4.434,13.299,2.283,19.612-0.135
	c0.135,2.284-2.148,1.746-2.418,3.224h-8.061L497.705,781.468L497.705,781.468z"/>
<path fill="#FFFF6D" d="M671.264,517.368h-6.984c2.687,5.911,1.611,11.553,0.269,17.194c-0.806,3.357,2.418,8.598,6.18,9.807
	c-4.299-0.27-4.7,2.821-3.491,4.971c3.627,6.717-0.271,13.03-0.538,19.612c-0.137,2.653-0.405,5.299-0.807,7.926
	c-6.045-1.075-10.479-6.717-17.329-5.911c-1.611,0.271-1.745-1.209-2.418-2.147c-1.835-2.821-5.127-4.337-8.463-3.896
	c-2.553,0.27-5.373-3.224-4.164-5.642s1.746-6.582,2.82-9.808c1.075-3.224-0.402-2.687-2.955-3.09
	c5.643-0.671,6.18-5.507,6.717-8.463c0.592-3.071,2.509-5.727,5.239-7.254c4.97-3.358,6.717-7.926,7.522-13.702
	c0.805-5.776-0.403-11.148,4.836-14.91c1.209-0.807,2.015-3.09,3.491-2.148c1.513,1.165,2.106,3.168,1.479,4.97
	c-0.807,2.149,0.269,3.896,0.537,5.911C664.01,515.756,666.562,517.368,671.264,517.368z"/>
<path fill="#FFFF6D" d="M665.354,414.737c1.746,2.418,4.029,1.746,6.18,2.148c6.312,0.807,6.18,0.403,4.702-5.91
	c-0.705-2.812-2.251-5.344-4.435-7.254c-2.552-2.553-1.88-3.225,1.612-4.434c2.534-1.104,5.34-1.431,8.061-0.94
	c2.688,0.537,5.91-0.537,4.434-4.299c-1.479-3.761,0.806-2.552,2.418-3.089c1.612-0.538,7.657,2.015,5.239-4.567
	c-0.403-1.074,0.939-0.672,1.745-0.672c10.075-0.939,11.149,0.135,10.612,10.612c-0.269,6.045-0.806,12.09-0.939,18.135
	c0,1.209,0.269,1.881-1.074,2.149c-6.717,1.074-6.717,7.12-8.599,11.688c-1.881,4.568-3.357,9.672-5.104,14.373
	c-1.746,4.702-2.688,5.508-5.911,1.746c-0.668-0.465-1.47-0.7-2.283-0.671c-12.09-1.075-10.611-2.688-12.896-13.434
	c-0.402-2.149,0.135-4.836-3.089-5.373c-0.388-0.312-0.668-0.733-0.808-1.209c-1.073-1.747,4.299-0.672,1.479-3.493
	C665.34,418.758,664.834,416.683,665.354,414.737z"/>
<path fill="#FFFF6D" d="M599.53,516.428c-0.271,1.344,2.819,1.881,0.938,3.627c-1.88,1.746-0.938,0.808,0,1.479
	c0.94,0.672,2.554-1.479,2.688,0.135c0.134,1.612-1.479,1.343-2.821,1.074c-1.344-0.27-1.075,1.209-1.209,1.881
	c-0.135,0.672,0.94,0.939,1.479,0.939s4.433,0.673,4.164,1.612c-0.27,0.94-0.537,5.239-3.492,5.373
	c-2.956,0.135-2.149,2.284-2.284,3.224c-0.134,0.94-1.209,3.493-1.881,5.911l1.747-0.672c5.775-4.164,5.775-4.164,6.582,2.821
	c0.135,1.478,0.402,2.821,2.015,2.955c1.612,0.135,1.479-1.612,1.612-2.821c0.135-1.209,0.402-2.955,0.672-4.836
	c1.746,1.612,4.164,2.149,4.299,4.836c0.134,2.688,0.402,4.03-2.687,3.493c-0.908-0.076-1.802,0.271-2.419,0.94
	c-0.939,1.478,0.939,1.343,1.479,1.881c0.537,0.537,1.479,1.343,0.671,2.552c-0.596,0.863-1.682,1.243-2.687,0.939l-3.762-1.209
	c-4.164-1.073-12.492,1.345-12.225,4.164c0.672,6.314-5.91,7.39-6.985,12.092c-1.073,4.7-6.18,3.761-9,2.955
	c-2.82-0.807-6.717-0.136-9.001,3.224c-0.648,0.421-1.383,0.695-2.148,0.807c1.479-6.447,0.939-13.165,3.09-19.345
	c1.764-4.218,3.829-8.303,6.18-12.224c0.819-1.397,2.577-1.925,4.03-1.209c1.074,0.401,7.254,1.88,7.656,1.343
	c0.403-0.537,3.09-2.955,0.27-3.896c-2.82-0.939-2.956-4.029-2.148-6.851c0.806-2.821,4.164-3.762,0.134-5.911
	c0.126-0.762,0.398-1.492,0.807-2.148c4.971-6.448,5.373-13.702,4.566-21.493c-0.134-1.612-0.537-4.299,1.209-5.373
	c1.747-1.075,2.284,1.074,3.493,2.015c1.209,0.941,4.433,2.553,5.775,5.776c1.344,3.224,4.567,5.373,7.657,0.939
	c0.671-0.939,2.149-1.344,2.552-0.806c0.403,0.537,5.911,2.418,5.911,6.312c0,3.896,0.27,6.985,0.402,10.479
	c0.135,3.493-0.537,2.418-2.418,1.746c-1.88-0.671-5.238-2.418-5.643-4.164c-0.403-1.746-6.717-2.418-3.627-6.717
	c0.135-0.27-1.074-0.27-1.611-0.402c-2.688-0.807-3.091,1.479-4.3,2.82l-1.209-0.94L599.53,516.428z"/>
<path fill="#FFFF6D" d="M668.98,480.158c-4.435-5.239-6.181-5.105-11.821,1.746c0.537-3.493-2.553-6.448,1.88-8.599
	c1.881-0.939,0.27-2.282-0.537-3.09c-0.806-0.806-2.687-3.224-4.97-1.209c-2.284,2.017-0.94,1.747,0.269,2.821
	c0.658,0.758,1.078,1.69,1.209,2.687c0.402,1.479,1.344,3.627-0.537,4.3c-1.881,0.672-3.225-0.403-3.627-2.688
	s-1.611-2.284-2.419-3.493c-1.073,1.344-2.819,1.612-3.627,3.628c-2.307,5.86-5.886,11.138-10.478,15.448
	c-2.955,2.552-2.688,6.582-2.149,11.149c5.508-3.358,12.358-2.284,16.926-7.39c0.94-1.074,0.808,0.27,1.075,0.403
	c1.787,1.205,3.889,1.858,6.045,1.881c-1.76,1.882-3.419,3.854-4.971,5.91c-1.343,2.016-3.492,4.164-0.94,6.852
	c2.554,2.688,0.537,2.418-0.536,3.492c-1.074,1.075-3.628,3.226-6.313,2.688c-6.313-1.344-10.881-5.508-16.12-9
	c-5.239-3.493-2.821-8.866-2.687-13.435c0.134-4.566,4.299-10.881,3.357-17.329c-0.538-3.357,2.016-7.254,6.179-9.135
	c4.165-1.88,8.062-5.238,12.493-7.388c4.433-2.15,6.448-1.881,7.522,3.224c2.553-2.148,1.075-5.239,1.881-8.06
	c1.746,0.537,4.164-0.136,3.896,3.089c0.141,0.807,0.515,1.555,1.075,2.148c1.611,2.418,6.985,1.345,5.91,6.718
	c-0.134,0.807,4.03,2.82,4.971,1.478s3.492-4.566,1.074-6.984c-2.418-2.419-1.478-4.164-4.433-2.553
	c-0.94,0.537-0.672-1.075-0.537-1.344c0.134-0.269,2.283-4.029,2.015-6.582c-0.268-2.553,0.808-0.806,1.612-0.672
	c0.806,0.135,3.627,0.135,5.508,0.269c1.88,0.136,2.149-0.536,2.552,0.808c0.403,1.343-0.672,1.746-1.61,2.148
	c-0.94,0.402-1.747,1.611-0.672,3.762c1.073,2.148,0,6.984-1.075,10.479c-1.074,3.492-6.045,7.254-7.656,11.821L668.98,480.158
	L668.98,480.158z"/>
<path fill="#FFFF6D" d="M708.205,512.264c-3.089-0.807-7.254,1.881-8.463-2.148c-1.209-4.03,2.418-6.045,4.702-8.463
	c2.282-2.418,1.343-2.418,2.282-3.226c0.94-0.806,3.628-7.388,9.674-4.433c3.356,1.611,8.328-0.94,12.762-0.807
	c4.433,0.135,4.433,0.94,4.566,3.896c0.135,2.955,2.148,6.717,4.434,9.807c2.283,3.089,2.687,10.479,2.283,15.852
	c-0.94,9.538-2.016,19.21-1.881,28.748c0,3.089-0.672,4.836-4.029,4.164c-3.358-0.672-6.717,1.611-9.941,2.418
	c-2.848,0.964-5.946,0.867-8.73-0.27c-0.949-0.171-1.58-1.079-1.409-2.027c0.016-0.088,0.037-0.173,0.066-0.257
	c0.269-1.209,1.209-0.939,2.015-0.939c3.627-0.134,7.254,0.403,10.881-1.074c0.672-0.269,2.149,0.135,1.881-1.075
	c-1.478-8.73,4.971-1.746,6.582-3.896c3.358-6.447,0.403-13.836,2.688-20.821c0.402-1.344-0.27-2.148-2.016-2.687
	s-6.984-0.537-10.344-1.075c-3.358-0.537-6.448,2.553-6.179-3.358c0-0.401-4.836-1.478-7.39-1.478
	c-6.447-0.134-12.896-2.016-19.344-0.94C696.787,513.204,703.369,515.085,708.205,512.264z"/>
<path fill="#FFFF6D" d="M722.982,309.823c1.491-7.126,3.513-14.13,6.045-20.956c0.672-2.015,0.402-5.239,0.806-5.642
	c2.418-3.224-1.343-6.045,0.403-9.269c1.302-2.5,1.448-5.443,0.401-8.06c-0.671-1.746-1.073-4.702,2.149-6.313l4.836,14.911
	c0.594,1.113,0.173,2.496-0.94,3.089l0,0c-2.552,2.149-5.237,4.971-3.089,8.598c2.149,3.627-0.672,7.791-2.418,9.94
	c-1.747,2.149-4.165,7.926-5.643,12.225C725.158,309.395,724.08,310.02,722.982,309.823z"/>
<path fill="#FFFF6D" d="M605.172,456.649c1.344,2.418-0.672,5.91,2.283,8.193c0.672,0.537-0.134,2.955-1.209,2.821
	c-3.224-0.537-2.955,2.148-3.627,3.627c-0.671,1.478-2.552,5.642,2.284,6.045c1.746,0.135,2.015,1.746,1.209,2.418
	c-0.807,0.672-2.149,5.373-2.418,7.791c-0.27,2.418-2.688,5.104-6.045,4.836c-3.358-0.268-6.583-0.671-4.567,5.776
	c-3.762-3.896-3.358-7.119-0.807-9c2.553-1.881,4.434-6.582,5.775-10.747c1.344-4.164,4.299-10.612,4.971-16.254
	C603.426,460.008,601.276,457.188,605.172,456.649z"/>
<path fill="#FFFF6D" d="M695.041,592.191c-5.104-1.881-8.731,2.955-14.105,1.746c-1.586-0.306-3.014-1.161-4.028-2.418
	c-0.94-0.939-1.479-2.016-0.538-3.09c0.939-1.075,1.747-0.135,2.688,0c5.238,0.807,10.612,1.344,15.852,1.881v1.746L695.041,592.191
	z"/>
<path fill="#FFFF6D" d="M621.695,461.754c-3.628,4.836-3.628,4.836-9.271,1.479C615.112,460.68,617.934,459.604,621.695,461.754z"/>
<path fill="#FFFF6D" d="M613.098,472.635c-0.132,1.554-1.497,2.705-3.049,2.573c-0.059-0.005-0.117-0.012-0.176-0.021
	c-2.148,0-2.148-1.21-2.418-2.821c-0.23-1.615,0.893-3.112,2.508-3.344c0.237-0.033,0.479-0.038,0.717-0.016
	C612.561,469.008,610.545,472.635,613.098,472.635z"/>
<path fill="#FFFF6D" d="M647.354,316.942c-1.209-3.492-3.091-6.18-2.419-9.537C648.293,310.629,648.696,311.838,647.354,316.942z"/>
<path fill="#FFFF6D" d="M664.278,492.248c-1.479,4.164-1.612,4.299-7.119,4.701C658.905,494.397,662.396,494.531,664.278,492.248z"
	/>
<path fill="#FFFF6D" d="M661.995,336.152c0-6.448,4.029,0.269,5.508-1.881c-1.209,2.82-2.821,4.434-5.508,1.746h0.134
	L661.995,336.152z"/>
<path fill="#FFFF6D" d="M620.889,484.591c-0.401-2.821,0.136-4.433,2.149-5.239c0.486-0.076,0.979,0.071,1.344,0.403
	C624.65,482.173,622.232,482.576,620.889,484.591z"/>
<path fill="#FFFF6D" d="M695.981,552.43v10.746h-0.538v-10.478L695.981,552.43z"/>
<path fill="#FFFF6D" d="M675.831,518.04c2.781-0.673,5.683-0.673,8.463,0C681.517,518.739,678.608,518.739,675.831,518.04z"/>
<path fill="#FFFF6D" d="M668.846,480.158v6.447c-0.537-2.149-1.881-4.299,0.136-6.313h-0.136V480.158z"/>
<path fill="#FFFF6D" d="M689.938,547.996h5.372C693.663,549.016,691.582,549.016,689.938,547.996z"/>
<path fill="#FFFF6D" d="M651.517,486.605c-0.804-1.484-0.949-3.238-0.401-4.837C652.592,483.382,651.383,484.994,651.517,486.605z"
	/>
<path fill="#FFFF6D" d="M705.25,547.19c-1.484,0.678-3.181,0.726-4.701,0.134C702.026,546.384,703.369,546.653,705.25,547.19z"/>
<path fill="#FFFF6D" d="M710.354,205.446c-0.384,0.519-0.892,0.935-1.478,1.209c-0.806,0-0.537-0.806-0.537-1.344
	c-0.021-0.519,0.381-0.957,0.9-0.979c0.104-0.004,0.209,0.008,0.309,0.039C709.896,204.663,710.172,205.031,710.354,205.446z"/>
<path fill="#FEFEFE" d="M708.205,291.822c3.493,0.403,3.357,0.269,1.881,3.224c-0.616,1.533-0.848,3.193-0.671,4.836
	c0.134,1.209,0.671,2.149-1.21,2.015c-1.88-0.134-1.746-0.94-2.016-2.149c-0.269-1.209,1.882-5.239,2.149-7.926L708.205,291.822
	L708.205,291.822z"/>
<path fill="#FEFEFE" d="M670.861,308.883c0.671,4.164-2.418,7.12-3.628,12.09c-1.88-5.91,0.27-9.135,3.762-11.955l0,0
	L670.861,308.883z"/>
<path fill="#FEFEFE" d="M673.01,304.853c-0.269-2.552,1.209-3.896,4.299-5.642c-1.478,2.955,1.612,6.179-3.09,6.852
	C673.145,306.196,672.607,305.927,673.01,304.853z"/>
<path fill="#FEFEFE" d="M697.056,272.479c-0.004,0.667-0.55,1.205-1.217,1.201c-0.184-0.001-0.365-0.044-0.528-0.126
	c-1.074-0.806-3.358,0-3.492-2.015c-0.136-2.015,0.939-1.881,2.418-1.881C695.714,269.658,696.25,271.404,697.056,272.479z"/>
<path fill="#FEFEFE" d="M718.549,224.387c1.209,1.746,2.149,3.089,1.881,4.702c-0.269,1.612-0.672,1.88-1.343,1.746
	c-0.672-0.134,0-3.224-2.016-4.03C715.057,225.999,719.221,226.402,718.549,224.387z"/>
<path fill="#FEFEFE" d="M713.579,250.716c0.806,2.552,3.761,1.612,2.955,4.299s-0.94,2.284-1.746,2.015
	S713.444,253.806,713.579,250.716z"/>
<path fill="#FEFEFE" d="M723.788,183.818c2.821,1.209,3.358-2.284,5.643-0.806c2.283,1.479,0.402,0.94,0,1.479
	C729.027,185.027,726.743,186.908,723.788,183.818z"/>
<path fill="#FEFEFE" d="M673.01,304.853l1.209,1.209c0.672,2.955,0,4.299-3.224,2.82l0,0c0.399-0.66,0.674-1.389,0.806-2.148
	C669.114,304.315,671.936,305.122,673.01,304.853z"/>
<path fill="#FEFEFE" d="M713.176,228.82c0.135,0.806,0,1.612-0.939,1.343c-1.036-0.071-1.818-0.969-1.747-2.005
	c0-0.003,0.001-0.007,0.001-0.01c0.273-0.585,0.688-1.093,1.209-1.478L713.176,228.82z"/>
<path fill="#FEFEFE" d="M686.175,277.717l-1.746,1.478c-0.672-1.612-0.672-3.09,1.074-4.165c1.747-1.075,0.403,1.747,0.538,2.687
	H686.175z"/>
<path fill="#FEFEFE" d="M686.041,277.717c1.479-0.134,2.283,0.403,1.88,1.881c-0.163,0.406-0.514,0.707-0.939,0.806
	c-1.746-0.403-0.807-1.881-0.939-2.821h-0.135L686.041,277.717z"/>
<path fill="#FEFEFE" d="M706.862,268.448c-0.537-1.209-1.746-1.88-1.345-3.358C705.922,263.612,707.399,266.836,706.862,268.448z"/>
<path fill="#FEFEFE" d="M695.847,267.105c-0.22,0.396-0.545,0.721-0.939,0.94c-1.074,0.403-0.672-0.671-0.807-1.075
	c-0.135-0.403,0.135-1.343,0.94-1.209C695.847,265.896,696.25,266.03,695.847,267.105z"/>
<path fill="#FEFEFE" d="M581.798,561.562c0.27-1.478,2.688-2.687,1.074-4.163c-1.611-1.479-2.955-0.807-4.164,1.074
	c-1.209,1.88-1.881,0.135-2.821,0.27c0.066-0.904,0.201-1.803,0.403-2.688c0.269-1.209,0.672-1.747,2.418-1.479
	c2.633,0.565,5.167,1.517,7.522,2.821c-1.882-7.39,2.688-8.061,7.522-8.599c1.611-0.134,3.761-0.269,2.688-3.089
	c-0.136-0.538-0.136-1.479,0.671-1.344c1.11,0.231,2.162,0.688,3.09,1.344c0.165,0.594,0.066,1.229-0.27,1.746
	c-6.179,2.687-9.135,8.866-13.701,13.164C585.086,561.816,583.328,562.189,581.798,561.562z"/>
<path fill="#FEFEFE" d="M579.38,566.938c0.134-1.209-2.148-0.807-1.478-2.016c0.826-1.905,3.042-2.779,4.946-1.953
	c0.054,0.023,0.105,0.048,0.157,0.073c-0.721,1.646-2.008,2.979-3.627,3.761h0.134L579.38,566.938z"/>
<path fill="#FEFEFE" d="M599.53,516.428c-1.345,0.135-2.688,0-2.554-1.881c0.135-1.88,0-2.015,1.209-1.611
	c1.209,0.402,0.135,2.553,1.209,3.492H599.53z"/>
<path fill="#FEFEFE" d="M579.38,566.803c-0.537,1.881-2.148,2.149-3.896,2.688c0.269-2.82,2.148-2.688,4.028-2.553h-0.134
	L579.38,566.803L579.38,566.803z"/>
<g>
	<path fill="#FFFF6D" d="M1563.676,1732.001c1.094,5.763-1.52,10.007-5.619,13.621c-0.599,0.526-0.925,0.881-0.56,1.826
		c0.384,0.993,0.553,2.293-0.199,3.229c-2.166,2.696-1.54,5.013,0.528,7.453c1.662,1.963,0.328,4.494,0.226,6.54
		c-0.206,4.076-0.791,8.844-3.084,11.946c-3.854,5.218-3.266,11.474-5.592,17.006c-1.791,4.263-4.083,9.728-0.081,14.616
		c0.354,0.434,0.047,1.41,0.047,2.462c-0.988-0.748-1.736-1.314-3.041-2.302c0.82,6.045-0.95,11.644,1.477,17.121
		c-2.148,0.43-5.441-0.627-4.762,3.543c-0.192-0.964-0.386-1.927-0.675-3.373c-1.688,5.704-6.965,8.758-8.654,14.295
		c-0.333-1.645-0.666-3.287-1.104-5.453c-1.289,1.947,0.038,3.591-1.108,5.201c-3.653,5.131-4.338,5.573-10.645,4.06
		c-1.066-0.256-2.12-0.594-3.201-0.748c-0.83-0.118-1.607-0.144-2.095,0.979c-0.498,1.149,0.048,1.432,0.803,1.984
		c1.233,0.907,1.179,0.983,1.228,3.117c-1.055-0.567-0.579-2.676-2.026-2.161c-0.604,0.215-0.985,1.295-1.271,2.058
		c-0.127,0.336,0.283,1.248,0.363,1.235c3.683-0.475,7.128,3.404,10.794,0.782c1.104-0.79,4.563,0.535,3.202-3.003
		c-0.016-0.035,1.401-0.562,2.018-0.681c1.824-0.354-0.114,2.275,1.566,2.361c1.224,1.973-1.153,3.719-0.725,4.709
		c-0.763-0.979,4.527-2.572,0.664-4.652c1.41-2.28,6.637-3.094,7.995-1.237c0.497,0.68-0.04,1.157-0.393,1.614
		c-1.395,1.81-0.954,5.033-4.684,5.148c-1.217,0.038-0.482,2.531-0.524,4.107c1.933-0.343,3.756-1.591,4.569,1.671
		c0.77,3.072-1.059,3.094-2.82,3.854c-4.702,2.032-9.441,3.838-14.599,4.416c-1.289,0.146-2.46,1.058-3.39,2.118
		c-0.883,1.007-1.92,1.146-2.881,0.104c-1.899-2.062-3.542-0.862-5.089,0.43c-1.276,1.063-1.894,2.854-3.754,3.307
		c-0.797,0.193-0.806,1.053-0.554,1.536c0.562,1.075,0.896,0.395,1.513-0.182c0.812-0.757,0.562,1.084,1.375,0.844
		c-2.074,2.913,3.237,2.146,2.259,4.54c-0.396,0.971-1.166,1.489-2.116,2.188c-1.605-4.146-5.472-4.631-8.844-5.783
		c-1-0.344-2.37-0.829-3.301,0.597c-1.02,1.562-0.481,2.687,0.775,3.715l-0.055-0.062c2.067,4.886,1.534,6.026-2.719,10.114
		c-3.567,3.432-5.826,7.933-7.562,12.49c-0.816,2.149-2.111,4.076-2.625,6.799c-0.771-1.646-1.758-2.157-3.116-2.553
		c-1.885-0.546-3.839-1.066-4.419-3.797c-0.42-1.979-3.261-1.096-4.808-2.021c-0.881-0.526-2.384-0.36-2.405-1.857
		c-0.02-1.418,1.063-1.631,2.235-1.979c1.36-0.402,2.382-2.129,3.289-2.504c2.838-1.176,3.52-5.961,8.175-4.313
		c2.716,0.961,5.258-1.79,7.868-2.874c1.266-0.526,0.026-1.654-0.066-2.446c-0.054-0.459-1.099-0.873-1.758-1.178
		c-1.824-0.845-3.987-1.651-3.247-4.158c0.757-2.566,1.41-5.868,5.57-4.208c0.186,0.075,0.472-0.101,0.737-0.166
		c-0.064-1.155-1.082-0.983-1.734-1.392c-1.122-0.703-2.586-1.244-1.112-3.332c1.911-2.703,0.192-5.571-0.75-8.273
		c-0.191-0.553-0.784-0.954-1.115-1.475c-1.142-1.789-1.55-4.07-0.622-5.664c1.052-1.806,2.785,0.274,4.213,0.532
		c2.39,0.431,4.209-0.709,3.646-2.789c-0.202-0.743-0.244-1.895-2.085-1.618c-1.752,0.262-3.73-0.832-5.577-1.435
		c-0.725-0.238-1.389-0.908-1.08-1.722c0.972-2.553,0.821-5.591,3.652-7.764c-1.48,3.359-0.718,5.464,2.33,7.324
		c2.996,1.828,3.068-0.217,3.585-1.92c0.439-1.451-0.674-3.265,1.005-4.484c1.256,0.529-1.601,2.98,1.271,2.707
		c1.521-0.145,3.604,1.484,4.003-1.84c0.289-2.406,2.517-3.315,4.837-3.461c2.156-0.133,4.11-1.008,4.61-3.049
		c0.979-3.984,4.553-7.302,3.102-11.92c-0.239-0.759,0.121-1.67,0.874-1.888c4.182-1.213,4.339-5.231,5.803-8.28
		c0.913-1.902,3.7-3.402,1.661-6.158c-0.176-0.235,0.099-0.455,0.568-0.521c1.924-0.27,2.31-1.02,1.394-2.38
		c-0.251-0.374-1.153-0.047-0.963-0.763c0.168-0.631,0.697-0.551,1.37-0.605c2.909-0.233,1.448-2.926,1.446-4.032
		c0-1.994,0.013-3.929,0.6-5.811c0.458-1.474,1.077-3.994,2.265-3.769c2.077,0.395,5.214-1.848,6.327,1.869
		c0.076,0.252,0.558,0.381,0.851,0.566c-2.401,1.79-0.618,2.612,0.867,2.375c2.069-0.331-0.246-1.671,0.117-2.625
		c0.249-0.653-0.017-1.484,0.044-2.229c0.299-3.709,0.273-7.289-3.977-9.435c2.844-0.99,3.874-2.194,3.333-5.02
		c-0.779-4.067-0.544-8.16,3.541-10.862c0.771-0.513,1.829-1.241,1.549-2.372c-1.319-5.321,4.205-7.416,5.346-11.559
		c5.965-1.912,5.605-7.573,7.17-12.095c0.998-2.884,3.248-4.763,5.494-6.573c0.872-0.701,1.801-1.26,2.285-2.312h0.75V1732.001z"/>
	<path fill="#FFFF6D" d="M1574.176,1742.501c-0.784,0.228-0.64,0.897-0.765,1.485c-0.538,2.532-2.329,4.123-4.614,4.729
		c-1.057,0.281-0.863-1.63-1.247-2.479c-1.096-2.42,0.088-4.416,1.999-5.929c1.344-1.061,3.031-0.827,4.627-0.808V1742.501z"/>
	<path fill="#FFFF6D" d="M1375.426,2214.251c-1.758-1.678-3.85-2.478-6.762-2.248c5.294-3.312,9.878,1.706,14.604-0.146
		c0.129,1.75-1.621,1.348-1.843,2.394H1375.426z"/>
	<path fill="#FFFF6D" d="M1504.666,2017.646h-5.239c1.962,4.438,1.2,8.632,0.152,12.834c-0.633,2.539,1.761,6.384,4.621,7.268
		c-3.195-0.191-3.496,2.096-2.646,3.658c2.726,5.003-0.153,9.738-0.358,14.552c-0.084,1.998-0.291,4.15-0.56,5.944
		c-4.51-0.795-7.802-5.043-12.866-4.406c-1.221,0.154-1.295-0.904-1.764-1.56c-1.54-2.15-3.642-3.155-6.267-2.89
		c-1.945,0.197-4.043-2.396-3.142-4.212c1.164-2.342,1.271-4.945,2.146-7.337c0.563-1.541-0.266-1.981-2.153-2.312
		c4.215-0.547,4.602-4.101,4.965-6.275c0.476-2.828,2.168-4.282,3.873-5.447c3.723-2.545,5.002-5.927,5.599-10.162
		c0.542-3.854-0.315-8.346,3.629-11.149c0.862-0.613,1.483-2.334,2.595-1.625c1.043,0.666,1.587,2.312,1.122,3.683
		c-0.551,1.621,0.188,2.946,0.358,4.413C1499.178,2016.48,1501.164,2017.605,1504.666,2017.646"/>
	<path fill="#FFFF6D" d="M1500.182,1941.289c1.26,1.813,3.013,1.345,4.61,1.562c4.736,0.643,4.646,0.313,3.452-4.396
		c-0.604-2.383-1.65-3.812-3.257-5.39c-1.905-1.873-1.371-2.36,1.169-3.267c2.035-0.726,3.765-1.104,5.96-0.665
		c1.999,0.4,4.396-0.357,3.316-3.215c-0.898-2.381,0.614-1.874,1.791-2.28c1.671-0.576,5.729,1.475,3.871-3.355
		c-0.291-0.759,0.703-0.457,1.288-0.513c7.463-0.724,8.348,0.123,7.946,7.925c-0.231,4.512-0.584,9.021-0.674,13.534
		c-0.018,0.859,0.178,1.42-0.798,1.578c-4.989,0.808-4.996,5.342-6.404,8.728c-1.45,3.489-2.48,7.15-3.843,10.68
		c-0.837,2.171-1.952,4.098-4.421,1.304c-0.332-0.376-1.108-0.443-1.695-0.498c-9.012-0.831-7.87-1.96-9.565-10
		c-0.334-1.586,0.071-3.555-2.284-4.021c-0.259-0.051-0.448-0.547-0.636-0.859c-0.754-1.259,3.193-0.5,1.068-2.647
		C1500.351,1944.754,1499.656,1943.203,1500.182,1941.289"/>
	<path fill="#FFFF6D" d="M1451.225,2016.958c-0.219,1.015,2.137,1.38,0.681,2.729c-0.308,0.284-0.745,0.625,0.021,1.051
		c0.757,0.418,1.906-1.078,2.038,0.072c0.166,1.439-1.134,0.952-2.092,0.829c-0.854-0.108-0.812,0.892-0.947,1.371
		c-0.308,1.086,0.706,0.714,1.15,0.707c1.262-0.019,3.255,0.528,3.061,1.156c-0.451,1.465-0.435,3.853-2.569,4.045
		c-1.843,0.166-1.648,1.683-1.651,2.362c-0.006,1.49-0.866,2.642-1.421,4.352c0.731-0.289,1.05-0.347,1.287-0.518
		c4.27-3.058,4.299-3.064,4.873,2.061c0.122,1.089,0.334,2.146,1.509,2.186c1.364,0.045,1.072-1.22,1.183-2.112
		c0.138-1.097,0.332-2.186,0.548-3.557c1.268,1.158,3.09,1.631,3.213,3.626c0.083,1.354,0.338,2.979-2.047,2.573
		c-0.575-0.098-1.536,0.279-1.842,0.749c-0.705,1.091,0.687,0.964,1.102,1.421c0.505,0.557,1.129,1.021,0.483,1.88
		c-0.514,0.687-1.197,0.935-1.972,0.736c-0.944-0.242-1.839-0.675-2.781-0.928c-3.068-0.827-9.32,1.02-9.109,3.146
		c0.468,4.697-4.435,5.529-5.222,8.973c-1.021,4.473-4.612,2.761-6.725,2.184c-3.168-0.867-4.995-0.058-6.688,2.351
		c-0.231,0.33-0.907,0.351-1.623,0.598c1.115-4.846,0.656-9.829,2.337-14.398c1.166-3.173,2.969-6.119,4.592-9.108
		c0.626-1.153,1.878-1.229,2.99-0.858c0.778,0.259,5.398,1.365,5.7,1.048c0.852-0.896,2.25-2.216,0.22-2.866
		c-3.384-1.082-2.246-2.986-1.597-5.142c0.41-1.358,3.127-2.806,0.143-4.359c-0.054-0.027,0.296-1.131,0.645-1.589
		c3.676-4.812,4.037-10.243,3.438-16.016c-0.121-1.174-0.418-3.164,0.906-3.968c0.605-0.367,1.732,0.812,2.595,1.505
		c1.595,1.282,3.316,1.913,4.264,4.269c0.724,1.798,3.382,3.965,5.727,0.689c0.494-0.692,1.619-1.032,1.948-0.561
		c1.24,1.777,4.354,1.756,4.354,4.693c-0.001,2.604,0.17,5.205,0.268,7.809c0.05,1.307-0.413,1.76-1.753,1.261
		c-1.751-0.652-3.861-1.763-4.206-3.126c-0.512-2.024-4.953-1.776-2.737-5.044c0.124-0.184-0.797-0.177-1.169-0.29
		c-1.981-0.604-2.338,1.061-3.175,2.066c-0.281-0.228-0.553-0.469-0.861-0.662
		C1450.573,2016.615,1450.913,2016.766,1451.225,2016.958"/>
	<path fill="#FFFF6D" d="M1502.918,1989.98c-3.292-3.898-4.584-3.799-8.782,1.279c0.403-2.595-1.912-4.765,1.382-6.373
		c1.408-0.688,0.238-1.659-0.442-2.349c-1.048-1.062-1.977-2.368-3.724-0.862c-1.069,0.921-0.73,1.321,0.151,2.066
		c0.501,0.422,0.716,1.274,0.886,1.976c0.272,1.118,0.988,2.691-0.375,3.206c-1.265,0.477-2.387-0.341-2.724-2.05
		c-0.187-0.945-1.189-1.73-1.826-2.589c-0.78,0.999-2.062,1.207-2.704,2.723c-1.812,4.275-4.222,8.229-7.795,11.455
		c-2.153,1.943-1.995,4.882-1.571,8.293c4.117-2.476,9.223-1.729,12.589-5.485c0.693-0.773,0.575,0.158,0.815,0.343
		c1.211,0.929,2.651,1.199,4.539,1.365c-1.367,1.635-2.662,2.938-3.66,4.441c-1.011,1.521-2.616,3.073-0.658,5.122
		c0.812,0.85,0.4,1.787-0.378,2.637c-1.287,1.401-2.708,2.438-4.708,2.006c-4.692-1.017-8.112-4.069-11.984-6.689
		c-4.862-3.291-2.068-6.562-2.01-10.028c0.075-4.423,3.21-8.086,2.494-12.893c-0.371-2.489,1.482-5.376,4.617-6.822
		c3.252-1.501,6.019-3.906,9.312-5.52c3.285-1.605,4.759-1.385,5.616,2.371c1.911-1.605,0.843-3.914,1.375-5.956
		c1.254,0.419,3.062-0.097,2.888,2.255c-0.037,0.496,0.497,1.067,0.84,1.553c1.248,1.768,5.248,1.02,4.366,4.98
		c-0.13,0.586,2.957,2.105,3.728,1.083c0.943-1.253,2.605-3.377,0.788-5.179c-0.808-0.802-1.099-3.086-3.326-1.867
		c-0.691,0.379-0.468-0.75-0.379-0.982c0.604-1.592,1.655-3.009,1.481-4.872c-0.093-0.993,0.576-0.582,1.186-0.511
		c1.357,0.157,2.741,0.062,4.108,0.163c0.67,0.05,1.633-0.4,1.924,0.569c0.263,0.877-0.51,1.305-1.182,1.625
		c-1.622,0.774-1.35,1.178-0.466,2.83c1.246,2.329-0.02,5.173-0.785,7.829c-1.038,3.597-4.521,5.413-5.664,8.807L1502.918,1989.98z"
		/>
	<path fill="#FFFF6D" d="M1532.159,2013.896c-2.271-0.603-5.396,1.42-6.326-1.633c-0.816-2.68,1.786-4.483,3.51-6.334
		c0.658-0.709,0.992-1.762,1.72-2.358c2.053-1.689,2.698-5.454,7.226-3.329c2.526,1.187,6.206-0.69,9.459-0.562
		c2.149,0.084,3.279,0.719,3.399,2.899c0.156,2.868,1.557,4.993,3.282,7.325c2.484,3.358,2.045,7.785,1.67,11.796
		c-0.666,7.135-1.525,14.255-1.375,21.431c0.051,2.344-0.486,3.605-3.038,3.112c-2.768-0.535-4.952,1.188-7.413,1.833
		c-2.192,0.574-4.319,0.783-6.487-0.202c-0.839-0.382-1.184-0.809-1.003-1.658c0.184-0.863,0.934-0.678,1.498-0.694
		c2.706-0.089,5.448,0.271,8.071-0.756c0.518-0.203,1.554,0.102,1.403-0.756c-1.126-6.485,3.669-1.304,4.881-2.904
		c2.532-4.779,0.288-10.325,1.982-15.454c0.343-1.041-0.175-1.609-1.472-1.982c-2.572-0.741-5.169-0.396-7.713-0.752
		c-1.611-0.225-4.834,1.912-4.62-2.458c0.015-0.31-3.607-1.11-5.546-1.141c-4.837-0.072-9.582-1.462-14.373-0.701
		C1523.593,2014.571,1528.556,2015.969,1532.159,2013.896"/>
	<path fill="#FFFF6D" d="M1543.104,1863.145c0.994-5.393,2.728-10.522,4.482-15.634c0.513-1.495,0.321-3.854,0.623-4.25
		c1.812-2.366-1.02-4.548,0.29-6.944c0.829-1.521,1.203-3.794,0.315-6.004c-0.522-1.301-0.82-3.477,1.562-4.703
		c1.222,3.806,2.371,7.444,3.567,11.068c0.315,0.961,0.315,1.447-0.67,2.254c-1.929,1.579-3.857,3.688-2.326,6.433
		c1.771,3.18-0.46,5.766-1.829,7.396c-2.339,2.783-3.06,5.943-4.24,9.056C1544.605,1862.533,1544.193,1863.131,1543.104,1863.145"/>
	<path fill="#FFFF6D" d="M1455.45,1972.438c1.036,1.771-0.54,4.378,1.652,6.106c0.52,0.409-0.124,2.211-0.854,2.079
		c-2.379-0.428-2.166,1.599-2.731,2.656c-1.063,1.986-1.939,4.211,1.749,4.472c1.312,0.092,1.527,1.267,0.946,1.794
		c-1.796,1.629-1.592,3.962-1.829,5.822c-0.399,3.13-2.035,3.777-4.524,3.602c-2.533-0.181-4.947-0.498-3.369,4.31
		c-2.791-2.899-2.479-5.298-0.572-6.688c2.897-2.109,3.342-4.949,4.258-8.018c1.207-4.047,3.168-7.862,3.727-12.145
		C1454.087,1974.991,1452.492,1972.811,1455.45,1972.438"/>
	<path fill="#FFFF6D" d="M1522.371,2073.347c-3.77-1.389-6.521,2.19-10.49,1.312c-1.54-0.341-2.119-0.925-2.962-1.787
		c-0.673-0.688-1.08-1.513-0.449-2.268c0.491-0.588,1.295-0.102,2.016,0.004c3.92,0.569,7.866,0.95,11.806,1.396
		C1522.317,2072.452,1522.344,2072.898,1522.371,2073.347"/>
	<path fill="#FFFF6D" d="M1467.742,1976.254c-2.673,3.596-2.673,3.596-6.91,1.098
		C1462.875,1975.43,1464.962,1974.627,1467.742,1976.254"/>
	<path fill="#FFFF6D" d="M1461.344,1984.395c-0.351,1.519-1.144,1.891-2.447,1.898c-1.639,0.014-1.573-0.888-1.771-2.089
		c-0.341-2.081,1.566-2.544,2.397-2.529C1460.922,1981.698,1459.453,1984.343,1461.344,1984.395"/>
	<path fill="#FFFF6D" d="M1486.83,1868.477c-0.902-2.559-2.305-4.569-1.766-7.133
		C1487.551,1863.77,1487.794,1864.682,1486.83,1868.477"/>
	<path fill="#FFFF6D" d="M1499.419,1998.998c-1.054,3.099-1.195,3.18-5.329,3.516
		C1495.438,2000.527,1498.007,2000.68,1499.419,1998.998"/>
	<path fill="#FFFF6D" d="M1497.688,1882.76c0.032-4.848,3.034,0.193,4.058-1.355c-0.909,2.06-2.062,3.267-4.111,1.294
		L1497.688,1882.76"/>
	<path fill="#FFFF6D" d="M1467.158,1993.235c-0.329-2.087,0.083-3.305,1.61-3.931c0.252-0.104,0.95,0.16,0.962,0.292
		C1469.878,1991.426,1468.11,1991.721,1467.158,1993.235"/>
	<path fill="#FFFF6D" d="M1523.008,2043.715v8.02c-0.125,0.002-0.25,0.004-0.375,0.004v-7.832
		C1522.758,2043.842,1522.883,2043.778,1523.008,2043.715"/>
	<path fill="#FFFF6D" d="M1508.042,2018.137c2.232-0.546,3.921-0.499,6.306-0.041
		C1511.969,2018.649,1510.279,2018.626,1508.042,2018.137"/>
	<path fill="#FFFF6D" d="M1502.86,1989.932v4.783c-0.421-1.595-1.442-3.222,0.059-4.732
		C1502.918,1989.98,1502.86,1989.932,1502.86,1989.932"/>
	<path fill="#FFFF6D" d="M1518.493,2040.41h4.021C1520.8,2041.247,1519.586,2041.081,1518.493,2040.41"/>
	<path fill="#FFFF6D" d="M1489.97,1994.732c-0.721-1.075-0.604-2.243-0.341-3.572
		C1490.73,1992.352,1489.803,1993.564,1489.97,1994.732"/>
	<path fill="#FFFF6D" d="M1529.919,2039.822c-1.41,0.561-2.335,0.531-3.546,0.115
		C1527.528,2039.28,1528.477,2039.472,1529.919,2039.822"/>
	<path fill="#FFFF6D" d="M1533.74,1785.487c-0.407,0.35-0.746,0.881-1.096,0.889c-0.613,0.013-0.411-0.631-0.418-1.032
		c-0.011-0.61,0.424-0.839,0.912-0.713C1533.369,1784.689,1533.501,1785.127,1533.74,1785.487"/>
</g>
<g>
	<path fill="#FFFF6D" d="M1563.676,1732.001c1.094,5.763-1.52,10.007-5.619,13.621c-0.599,0.526-0.925,0.881-0.56,1.826
		c0.384,0.993,0.553,2.293-0.199,3.229c-2.166,2.696-1.54,5.013,0.528,7.453c1.662,1.963,0.328,4.494,0.226,6.54
		c-0.206,4.076-0.791,8.844-3.084,11.946c-3.854,5.218-3.266,11.474-5.592,17.006c-1.791,4.263-4.083,9.728-0.081,14.616
		c0.354,0.434,0.047,1.41,0.047,2.462c-0.988-0.748-1.736-1.314-3.041-2.302c0.82,6.045-0.95,11.644,1.477,17.121
		c-2.148,0.43-5.441-0.627-4.762,3.543c-0.192-0.964-0.386-1.927-0.675-3.373c-1.688,5.704-6.965,8.758-8.654,14.295
		c-0.333-1.645-0.666-3.287-1.104-5.453c-1.289,1.947,0.038,3.591-1.108,5.201c-3.653,5.131-4.338,5.573-10.645,4.06
		c-1.066-0.256-2.12-0.594-3.201-0.748c-0.83-0.118-1.607-0.144-2.095,0.979c-0.498,1.149,0.048,1.432,0.803,1.984
		c1.233,0.907,1.179,0.983,1.228,3.117c-1.055-0.567-0.579-2.676-2.026-2.161c-0.604,0.215-0.985,1.295-1.271,2.058
		c-0.127,0.336,0.283,1.248,0.363,1.235c3.683-0.475,7.128,3.404,10.794,0.782c1.104-0.79,4.563,0.535,3.202-3.003
		c-0.016-0.035,1.401-0.562,2.018-0.681c1.824-0.354-0.114,2.275,1.566,2.361c1.224,1.973-1.153,3.719-0.725,4.709
		c-0.763-0.979,4.527-2.572,0.664-4.652c1.41-2.28,6.637-3.094,7.995-1.237c0.497,0.68-0.04,1.157-0.393,1.614
		c-1.395,1.81-0.954,5.033-4.684,5.148c-1.217,0.038-0.482,2.531-0.524,4.107c1.933-0.343,3.756-1.591,4.569,1.671
		c0.77,3.072-1.059,3.094-2.82,3.854c-4.702,2.032-9.441,3.838-14.599,4.416c-1.289,0.146-2.46,1.058-3.39,2.118
		c-0.883,1.007-1.92,1.146-2.881,0.104c-1.899-2.062-3.542-0.862-5.089,0.43c-1.276,1.063-1.894,2.854-3.754,3.307
		c-0.797,0.193-0.806,1.053-0.554,1.536c0.562,1.075,0.896,0.395,1.513-0.182c0.812-0.757,0.562,1.084,1.375,0.844
		c-2.074,2.913,3.237,2.146,2.259,4.54c-0.396,0.971-1.166,1.489-2.116,2.188c-1.605-4.146-5.472-4.631-8.844-5.783
		c-1-0.344-2.37-0.829-3.301,0.597c-1.02,1.562-0.481,2.687,0.775,3.715l-0.055-0.062c2.067,4.886,1.534,6.026-2.719,10.114
		c-3.567,3.432-5.826,7.933-7.562,12.49c-0.816,2.149-2.111,4.076-2.625,6.799c-0.771-1.646-1.758-2.157-3.116-2.553
		c-1.885-0.546-3.839-1.066-4.419-3.797c-0.42-1.979-3.261-1.096-4.808-2.021c-0.881-0.526-2.384-0.36-2.405-1.857
		c-0.02-1.418,1.063-1.631,2.235-1.979c1.36-0.402,2.382-2.129,3.289-2.504c2.838-1.176,3.52-5.961,8.175-4.313
		c2.716,0.961,5.258-1.79,7.868-2.874c1.266-0.526,0.026-1.654-0.066-2.446c-0.054-0.459-1.099-0.873-1.758-1.178
		c-1.824-0.845-3.987-1.651-3.247-4.158c0.757-2.566,1.41-5.868,5.57-4.208c0.186,0.075,0.472-0.101,0.737-0.166
		c-0.064-1.155-1.082-0.983-1.734-1.392c-1.122-0.703-2.586-1.244-1.112-3.332c1.911-2.703,0.192-5.571-0.75-8.273
		c-0.191-0.553-0.784-0.954-1.115-1.475c-1.142-1.789-1.55-4.07-0.622-5.664c1.052-1.806,2.785,0.274,4.213,0.532
		c2.39,0.431,4.209-0.709,3.646-2.789c-0.202-0.743-0.244-1.895-2.085-1.618c-1.752,0.262-3.73-0.832-5.577-1.435
		c-0.725-0.238-1.389-0.908-1.08-1.722c0.972-2.553,0.821-5.591,3.652-7.764c-1.48,3.359-0.718,5.464,2.33,7.324
		c2.996,1.828,3.068-0.217,3.585-1.92c0.439-1.451-0.674-3.265,1.005-4.484c1.256,0.529-1.601,2.98,1.271,2.707
		c1.521-0.145,3.604,1.484,4.003-1.84c0.289-2.406,2.517-3.315,4.837-3.461c2.156-0.133,4.11-1.008,4.61-3.049
		c0.979-3.984,4.553-7.302,3.102-11.92c-0.239-0.759,0.121-1.67,0.874-1.888c4.182-1.213,4.339-5.231,5.803-8.28
		c0.913-1.902,3.7-3.402,1.661-6.158c-0.176-0.235,0.099-0.455,0.568-0.521c1.924-0.27,2.31-1.02,1.394-2.38
		c-0.251-0.374-1.153-0.047-0.963-0.763c0.168-0.631,0.697-0.551,1.37-0.605c2.909-0.233,1.448-2.926,1.446-4.032
		c0-1.994,0.013-3.929,0.6-5.811c0.458-1.474,1.077-3.994,2.265-3.769c2.077,0.395,5.214-1.848,6.327,1.869
		c0.076,0.252,0.558,0.381,0.851,0.566c-2.401,1.79-0.618,2.612,0.867,2.375c2.069-0.331-0.246-1.671,0.117-2.625
		c0.249-0.653-0.017-1.484,0.044-2.229c0.299-3.709,0.273-7.289-3.977-9.435c2.844-0.99,3.874-2.194,3.333-5.02
		c-0.779-4.067-0.544-8.16,3.541-10.862c0.771-0.513,1.829-1.241,1.549-2.372c-1.319-5.321,4.205-7.416,5.346-11.559
		c5.965-1.912,5.605-7.573,7.17-12.095c0.998-2.884,3.248-4.763,5.494-6.573c0.872-0.701,1.801-1.26,2.285-2.312h0.75V1732.001z"/>
	<path fill="#FFFF6D" d="M1574.176,1742.501c-0.784,0.228-0.64,0.897-0.765,1.485c-0.538,2.532-2.329,4.123-4.614,4.729
		c-1.057,0.281-0.863-1.63-1.247-2.479c-1.096-2.42,0.088-4.416,1.999-5.929c1.344-1.061,3.031-0.827,4.627-0.808V1742.501z"/>
	<path fill="#FFFF6D" d="M1375.426,2214.251c-1.758-1.678-3.85-2.478-6.762-2.248c5.294-3.312,9.878,1.706,14.604-0.146
		c0.129,1.75-1.621,1.348-1.843,2.394H1375.426z"/>
	<path fill="#FFFF6D" d="M1504.666,2017.646h-5.239c1.962,4.438,1.2,8.632,0.152,12.834c-0.633,2.539,1.761,6.384,4.621,7.268
		c-3.195-0.191-3.496,2.096-2.646,3.658c2.726,5.003-0.153,9.738-0.358,14.552c-0.084,1.998-0.291,4.15-0.56,5.944
		c-4.51-0.795-7.802-5.043-12.866-4.406c-1.221,0.154-1.295-0.904-1.764-1.56c-1.54-2.15-3.642-3.155-6.267-2.89
		c-1.945,0.197-4.043-2.396-3.142-4.212c1.164-2.342,1.271-4.945,2.146-7.337c0.563-1.541-0.266-1.981-2.153-2.312
		c4.215-0.547,4.602-4.101,4.965-6.275c0.476-2.828,2.168-4.282,3.873-5.447c3.723-2.545,5.002-5.927,5.599-10.162
		c0.542-3.854-0.315-8.346,3.629-11.149c0.862-0.613,1.483-2.334,2.595-1.625c1.043,0.666,1.587,2.312,1.122,3.683
		c-0.551,1.621,0.188,2.946,0.358,4.413C1499.178,2016.48,1501.164,2017.605,1504.666,2017.646"/>
	<path fill="#FFFF6D" d="M1500.182,1941.289c1.26,1.813,3.013,1.345,4.61,1.562c4.736,0.643,4.646,0.313,3.452-4.396
		c-0.604-2.383-1.65-3.812-3.257-5.39c-1.905-1.873-1.371-2.36,1.169-3.267c2.035-0.726,3.765-1.104,5.96-0.665
		c1.999,0.4,4.396-0.357,3.316-3.215c-0.898-2.381,0.614-1.874,1.791-2.28c1.671-0.576,5.729,1.475,3.871-3.355
		c-0.291-0.759,0.703-0.457,1.288-0.513c7.463-0.724,8.348,0.123,7.946,7.925c-0.231,4.512-0.584,9.021-0.674,13.534
		c-0.018,0.859,0.178,1.42-0.798,1.578c-4.989,0.808-4.996,5.342-6.404,8.728c-1.45,3.489-2.48,7.15-3.843,10.68
		c-0.837,2.171-1.952,4.098-4.421,1.304c-0.332-0.376-1.108-0.443-1.695-0.498c-9.012-0.831-7.87-1.96-9.565-10
		c-0.334-1.586,0.071-3.555-2.284-4.021c-0.259-0.051-0.448-0.547-0.636-0.859c-0.754-1.259,3.193-0.5,1.068-2.647
		C1500.351,1944.754,1499.656,1943.203,1500.182,1941.289"/>
	<path fill="#FFFF6D" d="M1451.225,2016.958c-0.219,1.015,2.137,1.38,0.681,2.729c-0.308,0.284-0.745,0.625,0.021,1.051
		c0.757,0.418,1.906-1.078,2.038,0.072c0.166,1.439-1.134,0.952-2.092,0.829c-0.854-0.108-0.812,0.892-0.947,1.371
		c-0.308,1.086,0.706,0.714,1.15,0.707c1.262-0.019,3.255,0.528,3.061,1.156c-0.451,1.465-0.435,3.853-2.569,4.045
		c-1.843,0.166-1.648,1.683-1.651,2.362c-0.006,1.49-0.866,2.642-1.421,4.352c0.731-0.289,1.05-0.347,1.287-0.518
		c4.27-3.058,4.299-3.064,4.873,2.061c0.122,1.089,0.334,2.146,1.509,2.186c1.364,0.045,1.072-1.22,1.183-2.112
		c0.138-1.097,0.332-2.186,0.548-3.557c1.268,1.158,3.09,1.631,3.213,3.626c0.083,1.354,0.338,2.979-2.047,2.573
		c-0.575-0.098-1.536,0.279-1.842,0.749c-0.705,1.091,0.687,0.964,1.102,1.421c0.505,0.557,1.129,1.021,0.483,1.88
		c-0.514,0.687-1.197,0.935-1.972,0.736c-0.944-0.242-1.839-0.675-2.781-0.928c-3.068-0.827-9.32,1.02-9.109,3.146
		c0.468,4.697-4.435,5.529-5.222,8.973c-1.021,4.473-4.612,2.761-6.725,2.184c-3.168-0.867-4.995-0.058-6.688,2.351
		c-0.231,0.33-0.907,0.351-1.623,0.598c1.115-4.846,0.656-9.829,2.337-14.398c1.166-3.173,2.969-6.119,4.592-9.108
		c0.626-1.153,1.878-1.229,2.99-0.858c0.778,0.259,5.398,1.365,5.7,1.048c0.852-0.896,2.25-2.216,0.22-2.866
		c-3.384-1.082-2.246-2.986-1.597-5.142c0.41-1.358,3.127-2.806,0.143-4.359c-0.054-0.027,0.296-1.131,0.645-1.589
		c3.676-4.812,4.037-10.243,3.438-16.016c-0.121-1.174-0.418-3.164,0.906-3.968c0.605-0.367,1.732,0.812,2.595,1.505
		c1.595,1.282,3.316,1.913,4.264,4.269c0.724,1.798,3.382,3.965,5.727,0.689c0.494-0.692,1.619-1.032,1.948-0.561
		c1.24,1.777,4.354,1.756,4.354,4.693c-0.001,2.604,0.17,5.205,0.268,7.809c0.05,1.307-0.413,1.76-1.753,1.261
		c-1.751-0.652-3.861-1.763-4.206-3.126c-0.512-2.024-4.953-1.776-2.737-5.044c0.124-0.184-0.797-0.177-1.169-0.29
		c-1.981-0.604-2.338,1.061-3.175,2.066c-0.281-0.228-0.553-0.469-0.861-0.662
		C1450.573,2016.615,1450.913,2016.766,1451.225,2016.958"/>
	<path fill="#FFFF6D" d="M1502.918,1989.98c-3.292-3.898-4.584-3.799-8.782,1.279c0.403-2.595-1.912-4.765,1.382-6.373
		c1.408-0.688,0.238-1.659-0.442-2.349c-1.048-1.062-1.977-2.368-3.724-0.862c-1.069,0.921-0.73,1.321,0.151,2.066
		c0.501,0.422,0.716,1.274,0.886,1.976c0.272,1.118,0.988,2.691-0.375,3.206c-1.265,0.477-2.387-0.341-2.724-2.05
		c-0.187-0.945-1.189-1.73-1.826-2.589c-0.78,0.999-2.062,1.207-2.704,2.723c-1.812,4.275-4.222,8.229-7.795,11.455
		c-2.153,1.943-1.995,4.882-1.571,8.293c4.117-2.476,9.223-1.729,12.589-5.485c0.693-0.773,0.575,0.158,0.815,0.343
		c1.211,0.929,2.651,1.199,4.539,1.365c-1.367,1.635-2.662,2.938-3.66,4.441c-1.011,1.521-2.616,3.073-0.658,5.122
		c0.812,0.85,0.4,1.787-0.378,2.637c-1.287,1.401-2.708,2.438-4.708,2.006c-4.692-1.017-8.112-4.069-11.984-6.689
		c-4.862-3.291-2.068-6.562-2.01-10.028c0.075-4.423,3.21-8.086,2.494-12.893c-0.371-2.489,1.482-5.376,4.617-6.822
		c3.252-1.501,6.019-3.906,9.312-5.52c3.285-1.605,4.759-1.385,5.616,2.371c1.911-1.605,0.843-3.914,1.375-5.956
		c1.254,0.419,3.062-0.097,2.888,2.255c-0.037,0.496,0.497,1.067,0.84,1.553c1.248,1.768,5.248,1.02,4.366,4.98
		c-0.13,0.586,2.957,2.105,3.728,1.083c0.943-1.253,2.605-3.377,0.788-5.179c-0.808-0.802-1.099-3.086-3.326-1.867
		c-0.691,0.379-0.468-0.75-0.379-0.982c0.604-1.592,1.655-3.009,1.481-4.872c-0.093-0.993,0.576-0.582,1.186-0.511
		c1.357,0.157,2.741,0.062,4.108,0.163c0.67,0.05,1.633-0.4,1.924,0.569c0.263,0.877-0.51,1.305-1.182,1.625
		c-1.622,0.774-1.35,1.178-0.466,2.83c1.246,2.329-0.02,5.173-0.785,7.829c-1.038,3.597-4.521,5.413-5.664,8.807L1502.918,1989.98z"
		/>
	<path fill="#FFFF6D" d="M1532.159,2013.896c-2.271-0.603-5.396,1.42-6.326-1.633c-0.816-2.68,1.786-4.483,3.51-6.334
		c0.658-0.709,0.992-1.762,1.72-2.358c2.053-1.689,2.698-5.454,7.226-3.329c2.526,1.187,6.206-0.69,9.459-0.562
		c2.149,0.084,3.279,0.719,3.399,2.899c0.156,2.868,1.557,4.993,3.282,7.325c2.484,3.358,2.045,7.785,1.67,11.796
		c-0.666,7.135-1.525,14.255-1.375,21.431c0.051,2.344-0.486,3.605-3.038,3.112c-2.768-0.535-4.952,1.188-7.413,1.833
		c-2.192,0.574-4.319,0.783-6.487-0.202c-0.839-0.382-1.184-0.809-1.003-1.658c0.184-0.863,0.934-0.678,1.498-0.694
		c2.706-0.089,5.448,0.271,8.071-0.756c0.518-0.203,1.554,0.102,1.403-0.756c-1.126-6.485,3.669-1.304,4.881-2.904
		c2.532-4.779,0.288-10.325,1.982-15.454c0.343-1.041-0.175-1.609-1.472-1.982c-2.572-0.741-5.169-0.396-7.713-0.752
		c-1.611-0.225-4.834,1.912-4.62-2.458c0.015-0.31-3.607-1.11-5.546-1.141c-4.837-0.072-9.582-1.462-14.373-0.701
		C1523.593,2014.571,1528.556,2015.969,1532.159,2013.896"/>
	<path fill="#FFFF6D" d="M1543.104,1863.145c0.994-5.393,2.728-10.522,4.482-15.634c0.513-1.495,0.321-3.854,0.623-4.25
		c1.812-2.366-1.02-4.548,0.29-6.944c0.829-1.521,1.203-3.794,0.315-6.004c-0.522-1.301-0.82-3.477,1.562-4.703
		c1.222,3.806,2.371,7.444,3.567,11.068c0.315,0.961,0.315,1.447-0.67,2.254c-1.929,1.579-3.857,3.688-2.326,6.433
		c1.771,3.18-0.46,5.766-1.829,7.396c-2.339,2.783-3.06,5.943-4.24,9.056C1544.605,1862.533,1544.193,1863.131,1543.104,1863.145"/>
	<path fill="#FFFF6D" d="M1455.45,1972.438c1.036,1.771-0.54,4.378,1.652,6.106c0.52,0.409-0.124,2.211-0.854,2.079
		c-2.379-0.428-2.166,1.599-2.731,2.656c-1.063,1.986-1.939,4.211,1.749,4.472c1.312,0.092,1.527,1.267,0.946,1.794
		c-1.796,1.629-1.592,3.962-1.829,5.822c-0.399,3.13-2.035,3.777-4.524,3.602c-2.533-0.181-4.947-0.498-3.369,4.31
		c-2.791-2.899-2.479-5.298-0.572-6.688c2.897-2.109,3.342-4.949,4.258-8.018c1.207-4.047,3.168-7.862,3.727-12.145
		C1454.087,1974.991,1452.492,1972.811,1455.45,1972.438"/>
	<path fill="#FFFF6D" d="M1522.371,2073.347c-3.77-1.389-6.521,2.19-10.49,1.312c-1.54-0.341-2.119-0.925-2.962-1.787
		c-0.673-0.688-1.08-1.513-0.449-2.268c0.491-0.588,1.295-0.102,2.016,0.004c3.92,0.569,7.866,0.95,11.806,1.396
		C1522.317,2072.452,1522.344,2072.898,1522.371,2073.347"/>
	<path fill="#FFFF6D" d="M1467.742,1976.254c-2.673,3.596-2.673,3.596-6.91,1.098
		C1462.875,1975.43,1464.962,1974.627,1467.742,1976.254"/>
	<path fill="#FFFF6D" d="M1461.344,1984.395c-0.351,1.519-1.144,1.891-2.447,1.898c-1.639,0.014-1.573-0.888-1.771-2.089
		c-0.341-2.081,1.566-2.544,2.397-2.529C1460.922,1981.698,1459.453,1984.343,1461.344,1984.395"/>
	<path fill="#FFFF6D" d="M1486.83,1868.477c-0.902-2.559-2.305-4.569-1.766-7.133
		C1487.551,1863.77,1487.794,1864.682,1486.83,1868.477"/>
	<path fill="#FFFF6D" d="M1499.419,1998.998c-1.054,3.099-1.195,3.18-5.329,3.516
		C1495.438,2000.527,1498.007,2000.68,1499.419,1998.998"/>
	<path fill="#FFFF6D" d="M1497.688,1882.76c0.032-4.848,3.034,0.193,4.058-1.355c-0.909,2.06-2.062,3.267-4.111,1.294
		L1497.688,1882.76"/>
	<path fill="#FFFF6D" d="M1467.158,1993.235c-0.329-2.087,0.083-3.305,1.61-3.931c0.252-0.104,0.95,0.16,0.962,0.292
		C1469.878,1991.426,1468.11,1991.721,1467.158,1993.235"/>
	<path fill="#FFFF6D" d="M1523.008,2043.715v8.02c-0.125,0.002-0.25,0.004-0.375,0.004v-7.832
		C1522.758,2043.842,1522.883,2043.778,1523.008,2043.715"/>
	<path fill="#FFFF6D" d="M1508.042,2018.137c2.232-0.546,3.921-0.499,6.306-0.041
		C1511.969,2018.649,1510.279,2018.626,1508.042,2018.137"/>
	<path fill="#FFFF6D" d="M1502.86,1989.932v4.783c-0.421-1.595-1.442-3.222,0.059-4.732
		C1502.918,1989.98,1502.86,1989.932,1502.86,1989.932"/>
	<path fill="#FFFF6D" d="M1518.493,2040.41h4.021C1520.8,2041.247,1519.586,2041.081,1518.493,2040.41"/>
	<path fill="#FFFF6D" d="M1489.97,1994.732c-0.721-1.075-0.604-2.243-0.341-3.572
		C1490.73,1992.352,1489.803,1993.564,1489.97,1994.732"/>
	<path fill="#FFFF6D" d="M1529.919,2039.822c-1.41,0.561-2.335,0.531-3.546,0.115
		C1527.528,2039.28,1528.477,2039.472,1529.919,2039.822"/>
	<path fill="#FFFF6D" d="M1533.74,1785.487c-0.407,0.35-0.746,0.881-1.096,0.889c-0.613,0.013-0.411-0.631-0.418-1.032
		c-0.011-0.61,0.424-0.839,0.912-0.713C1533.369,1784.689,1533.501,1785.127,1533.74,1785.487"/>
</g>
<g>
	<path fill="#FFFF6D" d="M1563.676,1732.001c1.094,5.763-1.52,10.007-5.619,13.621c-0.599,0.526-0.925,0.881-0.56,1.826
		c0.384,0.993,0.553,2.293-0.199,3.229c-2.166,2.696-1.54,5.013,0.528,7.453c1.662,1.963,0.328,4.494,0.226,6.54
		c-0.206,4.076-0.791,8.844-3.084,11.946c-3.854,5.218-3.266,11.474-5.592,17.006c-1.791,4.263-4.083,9.728-0.081,14.616
		c0.354,0.434,0.047,1.41,0.047,2.462c-0.988-0.748-1.736-1.314-3.041-2.302c0.82,6.045-0.95,11.644,1.477,17.121
		c-2.148,0.43-5.441-0.627-4.762,3.543c-0.192-0.964-0.386-1.927-0.675-3.373c-1.688,5.704-6.965,8.758-8.654,14.295
		c-0.333-1.645-0.666-3.287-1.104-5.453c-1.289,1.947,0.038,3.591-1.108,5.201c-3.653,5.131-4.338,5.573-10.645,4.06
		c-1.066-0.256-2.12-0.594-3.201-0.748c-0.83-0.118-1.607-0.144-2.095,0.979c-0.498,1.149,0.048,1.432,0.803,1.984
		c1.233,0.907,1.179,0.983,1.228,3.117c-1.055-0.567-0.579-2.676-2.026-2.161c-0.604,0.215-0.985,1.295-1.271,2.058
		c-0.127,0.336,0.283,1.248,0.363,1.235c3.683-0.475,7.128,3.404,10.794,0.782c1.104-0.79,4.563,0.535,3.202-3.003
		c-0.016-0.035,1.401-0.562,2.018-0.681c1.824-0.354-0.114,2.275,1.566,2.361c1.224,1.973-1.153,3.719-0.725,4.709
		c-0.763-0.979,4.527-2.572,0.664-4.652c1.41-2.28,6.637-3.094,7.995-1.237c0.497,0.68-0.04,1.157-0.393,1.614
		c-1.395,1.81-0.954,5.033-4.684,5.148c-1.217,0.038-0.482,2.531-0.524,4.107c1.933-0.343,3.756-1.591,4.569,1.671
		c0.77,3.072-1.059,3.094-2.82,3.854c-4.702,2.032-9.441,3.838-14.599,4.416c-1.289,0.146-2.46,1.058-3.39,2.118
		c-0.883,1.007-1.92,1.146-2.881,0.104c-1.899-2.062-3.542-0.862-5.089,0.43c-1.276,1.063-1.894,2.854-3.754,3.307
		c-0.797,0.193-0.806,1.053-0.554,1.536c0.562,1.075,0.896,0.395,1.513-0.182c0.812-0.757,0.562,1.084,1.375,0.844
		c-2.074,2.913,3.237,2.146,2.259,4.54c-0.396,0.971-1.166,1.489-2.116,2.188c-1.605-4.146-5.472-4.631-8.844-5.783
		c-1-0.344-2.37-0.829-3.301,0.597c-1.02,1.562-0.481,2.687,0.775,3.715l-0.055-0.062c2.067,4.886,1.534,6.026-2.719,10.114
		c-3.567,3.432-5.826,7.933-7.562,12.49c-0.816,2.149-2.111,4.076-2.625,6.799c-0.771-1.646-1.758-2.157-3.116-2.553
		c-1.885-0.546-3.839-1.066-4.419-3.797c-0.42-1.979-3.261-1.096-4.808-2.021c-0.881-0.526-2.384-0.36-2.405-1.857
		c-0.02-1.418,1.063-1.631,2.235-1.979c1.36-0.402,2.382-2.129,3.289-2.504c2.838-1.176,3.52-5.961,8.175-4.313
		c2.716,0.961,5.258-1.79,7.868-2.874c1.266-0.526,0.026-1.654-0.066-2.446c-0.054-0.459-1.099-0.873-1.758-1.178
		c-1.824-0.845-3.987-1.651-3.247-4.158c0.757-2.566,1.41-5.868,5.57-4.208c0.186,0.075,0.472-0.101,0.737-0.166
		c-0.064-1.155-1.082-0.983-1.734-1.392c-1.122-0.703-2.586-1.244-1.112-3.332c1.911-2.703,0.192-5.571-0.75-8.273
		c-0.191-0.553-0.784-0.954-1.115-1.475c-1.142-1.789-1.55-4.07-0.622-5.664c1.052-1.806,2.785,0.274,4.213,0.532
		c2.39,0.431,4.209-0.709,3.646-2.789c-0.202-0.743-0.244-1.895-2.085-1.618c-1.752,0.262-3.73-0.832-5.577-1.435
		c-0.725-0.238-1.389-0.908-1.08-1.722c0.972-2.553,0.821-5.591,3.652-7.764c-1.48,3.359-0.718,5.464,2.33,7.324
		c2.996,1.828,3.068-0.217,3.585-1.92c0.439-1.451-0.674-3.265,1.005-4.484c1.256,0.529-1.601,2.98,1.271,2.707
		c1.521-0.145,3.604,1.484,4.003-1.84c0.289-2.406,2.517-3.315,4.837-3.461c2.156-0.133,4.11-1.008,4.61-3.049
		c0.979-3.984,4.553-7.302,3.102-11.92c-0.239-0.759,0.121-1.67,0.874-1.888c4.182-1.213,4.339-5.231,5.803-8.28
		c0.913-1.902,3.7-3.402,1.661-6.158c-0.176-0.235,0.099-0.455,0.568-0.521c1.924-0.27,2.31-1.02,1.394-2.38
		c-0.251-0.374-1.153-0.047-0.963-0.763c0.168-0.631,0.697-0.551,1.37-0.605c2.909-0.233,1.448-2.926,1.446-4.032
		c0-1.994,0.013-3.929,0.6-5.811c0.458-1.474,1.077-3.994,2.265-3.769c2.077,0.395,5.214-1.848,6.327,1.869
		c0.076,0.252,0.558,0.381,0.851,0.566c-2.401,1.79-0.618,2.612,0.867,2.375c2.069-0.331-0.246-1.671,0.117-2.625
		c0.249-0.653-0.017-1.484,0.044-2.229c0.299-3.709,0.273-7.289-3.977-9.435c2.844-0.99,3.874-2.194,3.333-5.02
		c-0.779-4.067-0.544-8.16,3.541-10.862c0.771-0.513,1.829-1.241,1.549-2.372c-1.319-5.321,4.205-7.416,5.346-11.559
		c5.965-1.912,5.605-7.573,7.17-12.095c0.998-2.884,3.248-4.763,5.494-6.573c0.872-0.701,1.801-1.26,2.285-2.312h0.75V1732.001z"/>
	<path fill="#FFFF6D" d="M1574.176,1742.501c-0.784,0.228-0.64,0.897-0.765,1.485c-0.538,2.532-2.329,4.123-4.614,4.729
		c-1.057,0.281-0.863-1.63-1.247-2.479c-1.096-2.42,0.088-4.416,1.999-5.929c1.344-1.061,3.031-0.827,4.627-0.808V1742.501z"/>
	<path fill="#FFFF6D" d="M1375.426,2214.251c-1.758-1.678-3.85-2.478-6.762-2.248c5.294-3.312,9.878,1.706,14.604-0.146
		c0.129,1.75-1.621,1.348-1.843,2.394H1375.426z"/>
	<path fill="#FFFF6D" d="M1504.666,2017.646h-5.239c1.962,4.438,1.2,8.632,0.152,12.834c-0.633,2.539,1.761,6.384,4.621,7.268
		c-3.195-0.191-3.496,2.096-2.646,3.658c2.726,5.003-0.153,9.738-0.358,14.552c-0.084,1.998-0.291,4.15-0.56,5.944
		c-4.51-0.795-7.802-5.043-12.866-4.406c-1.221,0.154-1.295-0.904-1.764-1.56c-1.54-2.15-3.642-3.155-6.267-2.89
		c-1.945,0.197-4.043-2.396-3.142-4.212c1.164-2.342,1.271-4.945,2.146-7.337c0.563-1.541-0.266-1.981-2.153-2.312
		c4.215-0.547,4.602-4.101,4.965-6.275c0.476-2.828,2.168-4.282,3.873-5.447c3.723-2.545,5.002-5.927,5.599-10.162
		c0.542-3.854-0.315-8.346,3.629-11.149c0.862-0.613,1.483-2.334,2.595-1.625c1.043,0.666,1.587,2.312,1.122,3.683
		c-0.551,1.621,0.188,2.946,0.358,4.413C1499.178,2016.48,1501.164,2017.605,1504.666,2017.646"/>
	<path fill="#FFFF6D" d="M1500.182,1941.289c1.26,1.813,3.013,1.345,4.61,1.562c4.736,0.643,4.646,0.313,3.452-4.396
		c-0.604-2.383-1.65-3.812-3.257-5.39c-1.905-1.873-1.371-2.36,1.169-3.267c2.035-0.726,3.765-1.104,5.96-0.665
		c1.999,0.4,4.396-0.357,3.316-3.215c-0.898-2.381,0.614-1.874,1.791-2.28c1.671-0.576,5.729,1.475,3.871-3.355
		c-0.291-0.759,0.703-0.457,1.288-0.513c7.463-0.724,8.348,0.123,7.946,7.925c-0.231,4.512-0.584,9.021-0.674,13.534
		c-0.018,0.859,0.178,1.42-0.798,1.578c-4.989,0.808-4.996,5.342-6.404,8.728c-1.45,3.489-2.48,7.15-3.843,10.68
		c-0.837,2.171-1.952,4.098-4.421,1.304c-0.332-0.376-1.108-0.443-1.695-0.498c-9.012-0.831-7.87-1.96-9.565-10
		c-0.334-1.586,0.071-3.555-2.284-4.021c-0.259-0.051-0.448-0.547-0.636-0.859c-0.754-1.259,3.193-0.5,1.068-2.647
		C1500.351,1944.754,1499.656,1943.203,1500.182,1941.289"/>
	<path fill="#FFFF6D" d="M1451.225,2016.958c-0.219,1.015,2.137,1.38,0.681,2.729c-0.308,0.284-0.745,0.625,0.021,1.051
		c0.757,0.418,1.906-1.078,2.038,0.072c0.166,1.439-1.134,0.952-2.092,0.829c-0.854-0.108-0.812,0.892-0.947,1.371
		c-0.308,1.086,0.706,0.714,1.15,0.707c1.262-0.019,3.255,0.528,3.061,1.156c-0.451,1.465-0.435,3.853-2.569,4.045
		c-1.843,0.166-1.648,1.683-1.651,2.362c-0.006,1.49-0.866,2.642-1.421,4.352c0.731-0.289,1.05-0.347,1.287-0.518
		c4.27-3.058,4.299-3.064,4.873,2.061c0.122,1.089,0.334,2.146,1.509,2.186c1.364,0.045,1.072-1.22,1.183-2.112
		c0.138-1.097,0.332-2.186,0.548-3.557c1.268,1.158,3.09,1.631,3.213,3.626c0.083,1.354,0.338,2.979-2.047,2.573
		c-0.575-0.098-1.536,0.279-1.842,0.749c-0.705,1.091,0.687,0.964,1.102,1.421c0.505,0.557,1.129,1.021,0.483,1.88
		c-0.514,0.687-1.197,0.935-1.972,0.736c-0.944-0.242-1.839-0.675-2.781-0.928c-3.068-0.827-9.32,1.02-9.109,3.146
		c0.468,4.697-4.435,5.529-5.222,8.973c-1.021,4.473-4.612,2.761-6.725,2.184c-3.168-0.867-4.995-0.058-6.688,2.351
		c-0.231,0.33-0.907,0.351-1.623,0.598c1.115-4.846,0.656-9.829,2.337-14.398c1.166-3.173,2.969-6.119,4.592-9.108
		c0.626-1.153,1.878-1.229,2.99-0.858c0.778,0.259,5.398,1.365,5.7,1.048c0.852-0.896,2.25-2.216,0.22-2.866
		c-3.384-1.082-2.246-2.986-1.597-5.142c0.41-1.358,3.127-2.806,0.143-4.359c-0.054-0.027,0.296-1.131,0.645-1.589
		c3.676-4.812,4.037-10.243,3.438-16.016c-0.121-1.174-0.418-3.164,0.906-3.968c0.605-0.367,1.732,0.812,2.595,1.505
		c1.595,1.282,3.316,1.913,4.264,4.269c0.724,1.798,3.382,3.965,5.727,0.689c0.494-0.692,1.619-1.032,1.948-0.561
		c1.24,1.777,4.354,1.756,4.354,4.693c-0.001,2.604,0.17,5.205,0.268,7.809c0.05,1.307-0.413,1.76-1.753,1.261
		c-1.751-0.652-3.861-1.763-4.206-3.126c-0.512-2.024-4.953-1.776-2.737-5.044c0.124-0.184-0.797-0.177-1.169-0.29
		c-1.981-0.604-2.338,1.061-3.175,2.066c-0.281-0.228-0.553-0.469-0.861-0.662
		C1450.573,2016.615,1450.913,2016.766,1451.225,2016.958"/>
	<path fill="#FFFF6D" d="M1502.918,1989.98c-3.292-3.898-4.584-3.799-8.782,1.279c0.403-2.595-1.912-4.765,1.382-6.373
		c1.408-0.688,0.238-1.659-0.442-2.349c-1.048-1.062-1.977-2.368-3.724-0.862c-1.069,0.921-0.73,1.321,0.151,2.066
		c0.501,0.422,0.716,1.274,0.886,1.976c0.272,1.118,0.988,2.691-0.375,3.206c-1.265,0.477-2.387-0.341-2.724-2.05
		c-0.187-0.945-1.189-1.73-1.826-2.589c-0.78,0.999-2.062,1.207-2.704,2.723c-1.812,4.275-4.222,8.229-7.795,11.455
		c-2.153,1.943-1.995,4.882-1.571,8.293c4.117-2.476,9.223-1.729,12.589-5.485c0.693-0.773,0.575,0.158,0.815,0.343
		c1.211,0.929,2.651,1.199,4.539,1.365c-1.367,1.635-2.662,2.938-3.66,4.441c-1.011,1.521-2.616,3.073-0.658,5.122
		c0.812,0.85,0.4,1.787-0.378,2.637c-1.287,1.401-2.708,2.438-4.708,2.006c-4.692-1.017-8.112-4.069-11.984-6.689
		c-4.862-3.291-2.068-6.562-2.01-10.028c0.075-4.423,3.21-8.086,2.494-12.893c-0.371-2.489,1.482-5.376,4.617-6.822
		c3.252-1.501,6.019-3.906,9.312-5.52c3.285-1.605,4.759-1.385,5.616,2.371c1.911-1.605,0.843-3.914,1.375-5.956
		c1.254,0.419,3.062-0.097,2.888,2.255c-0.037,0.496,0.497,1.067,0.84,1.553c1.248,1.768,5.248,1.02,4.366,4.98
		c-0.13,0.586,2.957,2.105,3.728,1.083c0.943-1.253,2.605-3.377,0.788-5.179c-0.808-0.802-1.099-3.086-3.326-1.867
		c-0.691,0.379-0.468-0.75-0.379-0.982c0.604-1.592,1.655-3.009,1.481-4.872c-0.093-0.993,0.576-0.582,1.186-0.511
		c1.357,0.157,2.741,0.062,4.108,0.163c0.67,0.05,1.633-0.4,1.924,0.569c0.263,0.877-0.51,1.305-1.182,1.625
		c-1.622,0.774-1.35,1.178-0.466,2.83c1.246,2.329-0.02,5.173-0.785,7.829c-1.038,3.597-4.521,5.413-5.664,8.807L1502.918,1989.98z"
		/>
	<path fill="#FFFF6D" d="M1532.159,2013.896c-2.271-0.603-5.396,1.42-6.326-1.633c-0.816-2.68,1.786-4.483,3.51-6.334
		c0.658-0.709,0.992-1.762,1.72-2.358c2.053-1.689,2.698-5.454,7.226-3.329c2.526,1.187,6.206-0.69,9.459-0.562
		c2.149,0.084,3.279,0.719,3.399,2.899c0.156,2.868,1.557,4.993,3.282,7.325c2.484,3.358,2.045,7.785,1.67,11.796
		c-0.666,7.135-1.525,14.255-1.375,21.431c0.051,2.344-0.486,3.605-3.038,3.112c-2.768-0.535-4.952,1.188-7.413,1.833
		c-2.192,0.574-4.319,0.783-6.487-0.202c-0.839-0.382-1.184-0.809-1.003-1.658c0.184-0.863,0.934-0.678,1.498-0.694
		c2.706-0.089,5.448,0.271,8.071-0.756c0.518-0.203,1.554,0.102,1.403-0.756c-1.126-6.485,3.669-1.304,4.881-2.904
		c2.532-4.779,0.288-10.325,1.982-15.454c0.343-1.041-0.175-1.609-1.472-1.982c-2.572-0.741-5.169-0.396-7.713-0.752
		c-1.611-0.225-4.834,1.912-4.62-2.458c0.015-0.31-3.607-1.11-5.546-1.141c-4.837-0.072-9.582-1.462-14.373-0.701
		C1523.593,2014.571,1528.556,2015.969,1532.159,2013.896"/>
	<path fill="#FFFF6D" d="M1543.104,1863.145c0.994-5.393,2.728-10.522,4.482-15.634c0.513-1.495,0.321-3.854,0.623-4.25
		c1.812-2.366-1.02-4.548,0.29-6.944c0.829-1.521,1.203-3.794,0.315-6.004c-0.522-1.301-0.82-3.477,1.562-4.703
		c1.222,3.806,2.371,7.444,3.567,11.068c0.315,0.961,0.315,1.447-0.67,2.254c-1.929,1.579-3.857,3.688-2.326,6.433
		c1.771,3.18-0.46,5.766-1.829,7.396c-2.339,2.783-3.06,5.943-4.24,9.056C1544.605,1862.533,1544.193,1863.131,1543.104,1863.145"/>
	<path fill="#FFFF6D" d="M1455.45,1972.438c1.036,1.771-0.54,4.378,1.652,6.106c0.52,0.409-0.124,2.211-0.854,2.079
		c-2.379-0.428-2.166,1.599-2.731,2.656c-1.063,1.986-1.939,4.211,1.749,4.472c1.312,0.092,1.527,1.267,0.946,1.794
		c-1.796,1.629-1.592,3.962-1.829,5.822c-0.399,3.13-2.035,3.777-4.524,3.602c-2.533-0.181-4.947-0.498-3.369,4.31
		c-2.791-2.899-2.479-5.298-0.572-6.688c2.897-2.109,3.342-4.949,4.258-8.018c1.207-4.047,3.168-7.862,3.727-12.145
		C1454.087,1974.991,1452.492,1972.811,1455.45,1972.438"/>
	<path fill="#FFFF6D" d="M1522.371,2073.347c-3.77-1.389-6.521,2.19-10.49,1.312c-1.54-0.341-2.119-0.925-2.962-1.787
		c-0.673-0.688-1.08-1.513-0.449-2.268c0.491-0.588,1.295-0.102,2.016,0.004c3.92,0.569,7.866,0.95,11.806,1.396
		C1522.317,2072.452,1522.344,2072.898,1522.371,2073.347"/>
	<path fill="#FFFF6D" d="M1467.742,1976.254c-2.673,3.596-2.673,3.596-6.91,1.098
		C1462.875,1975.43,1464.962,1974.627,1467.742,1976.254"/>
	<path fill="#FFFF6D" d="M1461.344,1984.395c-0.351,1.519-1.144,1.891-2.447,1.898c-1.639,0.014-1.573-0.888-1.771-2.089
		c-0.341-2.081,1.566-2.544,2.397-2.529C1460.922,1981.698,1459.453,1984.343,1461.344,1984.395"/>
	<path fill="#FFFF6D" d="M1486.83,1868.477c-0.902-2.559-2.305-4.569-1.766-7.133
		C1487.551,1863.77,1487.794,1864.682,1486.83,1868.477"/>
	<path fill="#FFFF6D" d="M1499.419,1998.998c-1.054,3.099-1.195,3.18-5.329,3.516
		C1495.438,2000.527,1498.007,2000.68,1499.419,1998.998"/>
	<path fill="#FFFF6D" d="M1497.688,1882.76c0.032-4.848,3.034,0.193,4.058-1.355c-0.909,2.06-2.062,3.267-4.111,1.294
		L1497.688,1882.76"/>
	<path fill="#FFFF6D" d="M1467.158,1993.235c-0.329-2.087,0.083-3.305,1.61-3.931c0.252-0.104,0.95,0.16,0.962,0.292
		C1469.878,1991.426,1468.11,1991.721,1467.158,1993.235"/>
	<path fill="#FFFF6D" d="M1523.008,2043.715v8.02c-0.125,0.002-0.25,0.004-0.375,0.004v-7.832
		C1522.758,2043.842,1522.883,2043.778,1523.008,2043.715"/>
	<path fill="#FFFF6D" d="M1508.042,2018.137c2.232-0.546,3.921-0.499,6.306-0.041
		C1511.969,2018.649,1510.279,2018.626,1508.042,2018.137"/>
	<path fill="#FFFF6D" d="M1502.86,1989.932v4.783c-0.421-1.595-1.442-3.222,0.059-4.732
		C1502.918,1989.98,1502.86,1989.932,1502.86,1989.932"/>
	<path fill="#FFFF6D" d="M1518.493,2040.41h4.021C1520.8,2041.247,1519.586,2041.081,1518.493,2040.41"/>
	<path fill="#FFFF6D" d="M1489.97,1994.732c-0.721-1.075-0.604-2.243-0.341-3.572
		C1490.73,1992.352,1489.803,1993.564,1489.97,1994.732"/>
	<path fill="#FFFF6D" d="M1529.919,2039.822c-1.41,0.561-2.335,0.531-3.546,0.115
		C1527.528,2039.28,1528.477,2039.472,1529.919,2039.822"/>
	<path fill="#FFFF6D" d="M1533.74,1785.487c-0.407,0.35-0.746,0.881-1.096,0.889c-0.613,0.013-0.411-0.631-0.418-1.032
		c-0.011-0.61,0.424-0.839,0.912-0.713C1533.369,1784.689,1533.501,1785.127,1533.74,1785.487"/>
</g>
</svg>
