<?xml version="1.0" encoding="utf-8"?>
<!-- Generator: Adobe Illustrator 16.0.0, SVG Export Plug-In . SVG Version: 6.00 Build 0)  -->
<!DOCTYPE svg PUBLIC "-//W3C//DTD SVG 1.1//EN" "http://www.w3.org/Graphics/SVG/1.1/DTD/svg11.dtd">
<svg version="1.1" id="圖層_1" xmlns="http://www.w3.org/2000/svg" xmlns:xlink="http://www.w3.org/1999/xlink" x="0px" y="0px"
	 width="1200px" height="900px" viewBox="0 0 1200 900" enable-background="new 0 0 1200 900" xml:space="preserve">
<title>layer_agriculture</title>
<path fill="#A2FDDC" d="M434.3,674.673c2.687,1.88,4.971,4.299,8.06,5.776c3.09,1.478,3.493,3.09,4.567,5.776
	c2.467,5.834,5.576,11.376,9.27,16.522c1.209,1.746,4.164,1.746,6.717,1.478c3.851-0.122,7.62-1.134,11.015-2.955
	c0.94-0.537,1.479-0.537,1.747,0.672c0.141,0.462,0.32,0.911,0.537,1.343c1.074-4.701,4.567-0.402,6.717-1.746
	c2.149-1.343,3.492-3.761,4.299,0.807c0.134,0.806,2.955,0.671,3.089,0.134c0.672-6.045,4.567-2.955,7.523-2.687
	c0.402-3.896-4.434-4.567-4.836-8.061c-0.403-3.492-1.747,2.688-3.493-0.134s-4.299-3.493-5.239-6.717s-2.687-7.12-2.418-11.687
	c0.349-5.378-0.572-10.762-2.687-15.718c-0.537-1.209,0.269-1.88,0.403-2.687c0.134-0.806,0.672-2.821-0.672-3.09
	c-3.762-0.671-5.508-5.91-10.479-4.433c-1.074,0.269-5.642-0.537-2.955-4.567c0.829-1.066,0.829-2.561,0-3.627
	c-0.369-0.557-1.119-0.708-1.676-0.339c-0.135,0.089-0.25,0.204-0.339,0.339c-0.806,0.94-2.015,1.478-1.478,3.358
	c1.611,4.971-3.225,8.06-4.299,12.225c-0.269,1.209-2.553,1.209-3.09,0.671c-0.537-0.537-3.762-4.164-2.821-5.775
	c3.358-5.777,3.762-13.165,9.673-17.599c0.671-0.537,1.343-2.283,2.418-0.134c1.074,2.149,1.746,0.537,2.687,0
	c3.761-1.881,6.045-10.209,3.627-13.971s0.402-2.553,1.478-2.553c1.074,0,4.164-1.746,5.508-3.627c-0.807-1.074-1.881,0.269-2.149,0
	s0.134-2.015,0.94-2.418c5.776-2.687,7.388-8.463,9.403-13.702c2.015-5.238,3.09-6.716,6.179-8.597
	c3.09-1.881,1.881-4.971,4.03-6.583c5.239-3.896,10.344-7.925,15.852-11.552c2.955-2.016,5.776-3.225,7.254-7.12
	c1.576-3.517,3.917-6.637,6.851-9.135c3.225-2.955,5.508-7.926,7.389-12.225c0.806-1.746-2.283-4.97-4.164-6.985
	c-1.881-2.015-4.03-7.522-0.94-11.015c0.94-1.075,0-1.479,0-2.149c-0.403-8.598-8.061-13.165-10.747-20.419
	c-0.672-1.881-2.552-4.299-0.672-5.508c4.702-3.09,2.688-8.194,4.299-12.09c1.612-3.896-0.806-5.104-2.687-5.911
	c-4.299-2.015-2.149-3.761-0.402-5.507c3.021-2.993,6.206-5.819,9.537-8.464c1.746-1.343,2.418-3.492,3.627-5.104
	c1.209-1.611-1.746-2.955-2.821-3.089c-3.357-0.27-4.029-2.688-5.238-5.105s-2.553-6.447-6.583-7.254
	c-4.029-0.806-1.478-2.015-1.478-3.09c-0.134-4.97,0-10.074,0-15.045c0-2.955,0.94-4.567,4.567-5.104
	c6.313-0.94,12.493-2.821,18.941-0.94c0.94,0.269,2.552,0.403,2.955-0.135c3.762-5.238,9.135-3.492,14.105-3.761
	c3.857-0.149,7.364-2.283,9.269-5.643c2.97-4.172,6.395-8.002,10.209-11.418c1.344-1.344,2.821-1.612,3.896-0.135
	c1.074,1.479,4.97,2.418,6.717,4.836c1.746,2.419,5.642-3.224,5.91-5.91c0.371-2.445,0.551-4.915,0.537-7.389
	c-0.672-13.567,5.776-24.448,12.493-35.329c3.762-6.045,6.985-12.493,11.016-18.404c1.746-2.552,3.761-4.567,6.448-4.836
	c2.687-0.269,4.029-2.015,3.761-4.836c-0.242-1.647-0.242-3.322,0-4.97c1.478-7.389,2.955-14.643-4.971-19.613
	c-0.154-0.663-0.154-1.352,0-2.015c2.553-0.135,2.149,3.089,4.567,2.955c0.135-0.671,0-2.284,0.672-2.552
	c6.985-3.896,4.299-9.806,3.493-15.448c-1.344-8.866-2.016-17.866,1.074-26.598c1.075-2.955,1.209-6.179,3.224-9.672
	c5.508,9.94,7.255,22.031,19.747,26.598c-4.97,0.671-4.567,3.493-3.761,6.313c0.134,0.403,0.806,0.537,0.402,1.075
	c-4.97,7.388-2.955,15.717-3.492,23.777c0,0.806,1.612,4.568-2.149,1.88c-0.672-0.537-0.672,0.538-0.537,1.209
	c0.134,0.672,0,3.896,1.478,5.508c3.492,3.896,3.224,9.27,6.045,13.568c1.478,2.148-1.478,2.955-2.418,4.164
	c-3.09,4.03-3.358,7.791-0.135,9.94c3.225,2.149,3.896,2.553,5.643,5.104c-4.971,1.478-8.866,5.508-15.18,3.896
	c-2.149-0.537-6.448,2.284-7.791,6.046c-0.269,1.331-1.343,2.353-2.688,2.552c-2.148,0.537-10.746,11.149-9.94,12.762
	c2.956,5.776,0.672,11.821,1.344,17.732c0.229,1.482-0.056,2.999-0.806,4.298c-0.672,1.075-1.209,1.612-2.284,1.344
	c-4.971-1.344-8.463,0.135-10.478,4.971c-0.403,1.074-1.747,0.94-2.553,1.343c-3.627,1.612-6.448,4.03-3.896,8.329
	c2.552,4.299-2.687,5.239,0,8.328c2.248,2.249,3.119,5.529,2.283,8.598c-0.806,3.224,2.821,5.239,6.045,5.776
	c3.225,0.537,2.418,0.403,2.016,2.955c-1.075,6.18-1.612,12.493-4.299,18.136c-2.325,4.248-3.829,8.896-4.433,13.701
	c-0.538,4.836-3.225,9.807-4.702,14.777c-0.737,2.761-2.28,5.239-4.433,7.119c-4.567,3.762-4.702,8.463-3.358,13.837
	c2.015,7.925,0,15.18-3.627,22.567c-5.239,10.479-13.165,19.344-17.732,29.957c-1.416,3.448-2.102,7.153-2.015,10.881
	c0.134,3.224,0.806,6.717-1.612,9.672c3.224,0.269,4.299-2.016,6.717-3.358c-1.881,4.701-0.403,9.135-2.015,13.434
	c-0.538,1.611,0.269,3.492-2.419,4.164c-2.687,0.672-0.671,2.418-0.537,3.627c0.142,0.421,0.503,0.73,0.94,0.806
	c1.881-0.269-0.402-2.015,1.075-2.687s0.94,3.09,0.537,4.567c-2.149,6.717-0.807,13.299-0.135,20.016s3.896,15.986,1.209,23.643
	c-1.746,4.836-1.074,8.598,0,13.165c1.075,4.567,0.807,8.598-2.552,12.09l-0.538,0.537c6.18,4.567,0,9.135-0.402,13.568
	c-0.403,4.433-3.762,11.552-4.971,17.463c-0.672,3.09-1.881,3.896-5.508,3.896c3.09,1.209,4.03,2.418,3.358,5.239
	c-1.478,5.776-2.552,11.687-5.104,17.194c-4.03,8.598-3.224,18.404-6.985,27.136s-6.851,13.836-9.537,21.09
	c-1.479,3.896-3.628,1.209-4.567-2.149c-0.672,5.374-3.225,7.12-7.792,5.911c0.403,1.881,2.821,2.955,1.075,4.567
	c-1.747,1.612-2.821,0.672-4.434,0.672c-5.776-0.269-11.284-3.225-17.329-0.94c-1.746,0.672-4.298-0.806-6.582-1.344
	c-2.283-0.537-4.701-2.552-7.926-0.269c-3.224,2.284-5.373-2.283-8.06-1.611c-2.687,0.671-4.299-2.418-5.643-4.434l-2.687-4.164
	c-2.552-3.896-3.224-7.926-0.134-11.956c3.089-4.03,3.627-9.537,6.447-13.836c1.478-2.149-0.402-3.358-1.611-4.567
	c-6.448-6.717-12.762-13.567-20.688-18.404c-5.643-3.492-6.852-8.328-7.389-14.104c-0.134-1.344-0.269-2.687-0.403-3.896
	c-0.806-10.479-9.269-15.717-15.717-22.3v-2.955L434.3,674.673z"/>
<path fill="#A2FDDC" d="M757.641,127.667c-5.508,2.015-8.194,7.523-12.896,10.612c-4.701,3.09-5.508,7.12-6.851,11.956
	c-1.344,4.836-4.03,8.597-9.538,9.672c-1.074,0.269-0.134,0.94-0.269,1.478c-0.806,3.09-1.074,6.448-4.701,8.06
	c-3.628,1.612-2.149,3.627-1.881,5.104c0.94,3.761-1.075,6.179-3.358,7.792c-2.284,1.612-2.955,7.12-5.643,10.075
	c-2.687,2.955,1.478,4.567,0,7.522s-6.313,9-8.194,14.239c-1.88,5.239-3.492,7.522-3.224,11.956s-0.135,5.374-2.955,6.985
	c-2.821,1.612,0,1.075,0.269,1.747c0.269,0.671,0.94,2.955-1.478,3.224c-2.418,0.269-0.94,0.135-0.807,0.672
	c2.284,6.717-5.104,10.209-5.238,16.12c-0.021,0.169-0.12,0.319-0.27,0.403c-9,3.627-4.701,13.299-8.597,19.344
	c-2.149,3.224-3.493,5.911-7.926,6.179c-1.881,0.134-4.702,0.672-5.373,3.493c-0.672,2.821-3.896,4.433-7.389,3.358
	c2.821-4.433,2.149-9.269,0.403-13.836c-0.672-1.746,0.537-0.806,0.94-0.94c5.238-3.089,8.463-8.194,12.09-12.896
	c0.537-0.671,0.402-1.478-0.403-2.687s-2.821-6.448,0.403-9.538c5.776-5.642,3.896-13.03,4.03-19.747
	c0.134-9,4.164-14.105,13.164-15.448c1.131-0.21,2.085-0.964,2.553-2.015c3.896-5.104,7.926-10.209,11.553-15.448
	c3.627-5.239,5.507-13.568,1.746-20.15c-3.762-6.583-0.403-8.598,1.612-12.359c1.174-1.789,1.739-3.909,1.611-6.045
	c-0.537-6.448,1.344-12.762,2.016-19.075c-0.02-0.649,0.222-1.278,0.671-1.747c6.583-2.284,10.881-8.463,18.001-9.94
	c0.484-0.125,0.993-0.125,1.478,0c6.448,2.418,6.448-1.612,6.045-6.045h1.075c4.701,4.971,11.015,5.642,17.194,7.12v1.074
	L757.641,127.667z"/>
<path fill="#FEFEFE" d="M757.641,126.592c-6.985,0.672-13.434,0.134-17.061-6.985h9.806
	C757.641,119.607,757.641,119.607,757.641,126.592z"/>
<path fill="#A2FDDC" d="M499.72,782.542c1.206-1.409,3.326-1.575,4.735-0.369c0.133,0.113,0.256,0.236,0.37,0.369H499.72z"/>
<path fill="#A2FDDC" d="M653.129,393.647c-2.283-7.12,1.344-11.016,5.642-14.374c4.299-3.358,4.567,1.478,6.985,2.015
	c2.418,0.538,1.479,1.612,0.94,2.688l-8.328,22.03c-1.747-4.567,0.269-9,0.537-13.434c0.134-2.015,0.134-4.97-1.344-5.373
	s-2.418,2.015-2.955,3.896C654.227,392.006,653.729,392.864,653.129,393.647z"/>
<path fill="#A2FDDC" d="M436.584,669.03c1.074-1.611,0-4.299,2.283-4.97c0.93,0.275,1.676,0.972,2.015,1.88
	C441.15,668.762,438.195,668.09,436.584,669.03z"/>
<path fill="#FEFEFE" d="M557.08,444.022c4.567-0.94,4.836-3.762,3.225-7.389c2.015-1.074,4.567,6.717,5.91-0.537
	c0.269-1.344,1.747-2.821-0.269-3.896c-2.015-1.075-2.418-1.612-4.433-0.672c-4.971,2.552-4.971-2.821-6.582-4.971
	c-1.636-2.241-1.349-5.351,0.671-7.254c0.807-0.806,3.627-0.269,4.836,0.672s3.627,3.09,3.225,5.508
	c-0.403,2.418,0.672,2.82,3.224,3.627c6.582,2.015,10.479-0.807,13.434-5.911s4.701-0.806,6.717-0.134
	c2.015,0.672,1.074,2.552,0.672,4.164c-0.369,1.268-0.415,2.606-0.135,3.896c1.478,5.104-0.403,5.374-5.776,6.448
	s-8.194,1.074-11.956,2.553c-3.761,1.478-4.029,3.357-0.806,6.716c-3.627-2.687-9.269,4.971-11.821-2.82H557.08z"/>
<path fill="#FEFEFE" d="M532.497,583.595c-2.015,3.761-6.313,4.567-9.269,7.119c-2.955,2.553-3.09-1.074-4.299-2.283
	s-1.209-2.015,0.269-3.627C523.094,580.773,526.184,580.236,532.497,583.595z"/>
<path fill="#FEFEFE" d="M532.9,767.631c-0.806,0.538-1.612,1.209-2.015,1.075c-0.922-0.577-1.777-1.253-2.553-2.015
	c0.672-0.672,1.344-1.881,2.016-2.016C531.02,764.542,530.617,767.362,532.9,767.631z"/>
<path fill="#FEFEFE" d="M550.229,702.883c-1.074,3.09-1.074,3.09-4.702,2.418C546.468,703.017,549.021,704.494,550.229,702.883z"/>
<path fill="#FEFEFE" d="M558.827,693.748c-0.94,0-1.881-0.403-1.478-1.075c0.507-1.012,1.302-1.853,2.283-2.418
	c0.537-0.269,1.478,0.672,1.344,1.612C560.84,692.948,559.916,693.757,558.827,693.748z"/>
<path fill="#FEFEFE" d="M560.842,687.435c-0.84,0.003-1.542-0.641-1.612-1.478c-0.134-1.209,0.94-1.209,1.747-1.075
	c0.806,0.135,1.88-0.269,1.88,0.94S561.514,686.628,560.842,687.435z"/>
<path fill="#FEFEFE" d="M557.215,444.022c-1.614-1.489-2.538-3.581-2.553-5.776c2.821,1.611,2.553,3.761,2.553,5.91h0.135
	L557.215,444.022z"/>
<path fill="#FEFEFE" d="M511.944,705.301c2.015-0.135,3.358-2.016,5.508-1.075C515.84,705.569,514.362,706.51,511.944,705.301z"/>
<path fill="#FEFEFE" d="M540.423,706.644h-5.776v-0.402h5.776v0.537V706.644z"/>
<path fill="#FEFEFE" d="M575.887,483.785c-0.806-1.612-1.074-3.09,0.94-4.299C577.902,481.367,575.081,482.173,575.887,483.785z"/>
<path fill="#FEFEFE" d="M568.768,467.934c0.646,1.963,0.646,4.082,0,6.045C568.092,472.021,568.092,469.892,568.768,467.934z"/>
<path fill="#FEFEFE" d="M555.334,618.924c2.149-0.537,2.955-1.88,3.762-0.939c0.806,0.939-0.269,1.209-0.94,1.343L555.334,618.924z"
	/>
<path fill="#FEFEFE" d="M507.377,700.599c-0.233,0.384-0.557,0.707-0.94,0.94c-0.729-0.141-1.39-0.519-1.88-1.074
	c-0.27-0.537,0.537-0.537,0.939-0.537C505.899,699.928,506.84,699.524,507.377,700.599z"/>
<path fill="#FEFEFE" d="M673.95,272.747c1.32-1.84,2.025-4.049,2.016-6.313c0.269-3.762,3.896-3.627,5.776-5.239
	c1.88-1.612,1.746,2.552,0.94,3.896c-0.807,1.343-6.583,4.03-5.105,9c0,0.134-3.358,1.612-3.627-1.478h-0.134L673.95,272.747z"/>
<path fill="#FEFEFE" d="M674.085,272.613l-1.746,0.672c0.671,2.418-1.075,2.821-2.553,2.284c-1.478-0.538-0.806-2.149,0-3.358
	s1.209-2.284,1.881-3.762c1.459,0.937,2.324,2.566,2.283,4.299h0.135V272.613z"/>
<path fill="#FEFEFE" d="M691.816,224.924c-2.148-0.806-1.746-2.418-1.88-4.03C691.414,221.969,692.623,223.044,691.816,224.924z"/>
<path fill="#FEFEFE" d="M685.101,256.224c-0.545,0.519-1.183,0.929-1.881,1.209c-1.075,0.134-1.209-0.806-1.075-1.612
	c0.135-0.806-0.134-1.075,0.807-0.672L685.101,256.224z"/>
<path fill="#A2FDDC" d="M586.23,431.126c-0.134,1.881-0.94,2.956-2.015,2.553s-0.672-1.344,0.403-1.746L586.23,431.126z"/>
</svg>
