<svg xmlns="http://www.w3.org/2000/svg" viewBox="0 0 893.3 622.5"><title>layer_agriculture</title><path d="M558,186.8q0,181.7.1,363.4c0,2.8-.6,3.5-3.4,3.4H402.8c-2.6,0-3.1-.5-3.1-3.1q0.1-228.7,0-457.5c0-2.6.5-3.1,3.1-3.1h153c0.4,2-.1,4.1.8,5.7-0.1-1.7-1-3.7,0-5.7,0.7,0.1,1.6-.4,1.5,1.1-0.2,3.1,0,6.2,0,9.4v83.3c-2,.2-1.1-2.2-2.4-2.8C554.5,183.7,555.9,185.4,558,186.8Z" style="fill:none"/><path d="M558,186.8c-1.5.1-3.1,0.2-3.5-1.7s-0.8-4,.2-5.7,1.3-.4,2,0.5-0.4,3.1,1.2,4v3Z" style="fill:#fe9b27"/><path d="M556.5,90c0.4,2.1,1.5,4.2,0,6.6-2.1-2.2-1.8-4.4-.7-6.6h0.8Z" style="fill:#fe9b27"/><path d="M459.4,404.6c-1.1-.8.6-2.9-1.4-3.3a4.1,4.1,0,0,0-4.2,1.9,14.4,14.4,0,0,1-8.2,6.8c-1.4.5-2.2,2.6-3.3,3.8a41.3,41.3,0,0,0-9.4,14.3,31.4,31.4,0,0,0-.7,19,6.8,6.8,0,0,1-.9,5.5A14,14,0,0,0,429,461c0.5,6.6-1.1,13-1.6,19.6-0.2,2.9-3,4.5-3.1,7.7s-1.7,7.7-1.8,11.7a7.6,7.6,0,0,1-1.4,3.1c-2.5,2.5-3.6,6.3-7.2,8.4a58.3,58.3,0,0,0,2.2-10.4c0.1-1.9,1.8-1.6,3-2s1.7,1.3,2-.3a1.4,1.4,0,0,0-1.4-1.4c-3-.1-2.1-1.5-1.6-3.4,1.7-7.5,5-14.6,5.8-22.3a58.4,58.4,0,0,0-.1-15.1c-0.4-2.5.6-5.2,0.9-7.7a38.6,38.6,0,0,0-1.3-13.3c-1.7-6.8-.9-13.5.5-20.3,2.2,1.2-1.7,4.8,2.3,5.1,0.8-3.4,2.6-7,.7-10.9-0.8.4,0,1.6-.6,2.1-2.5-2.3-2.4-5-1.3-7.9s3.8-.8,5.6-1.8,2.1,1.1,1.9,2.6-0.9,1.5.3,1.8,1.1-.7,1.7-1.1a2.6,2.6,0,0,0,1.1-2.2c-0.2-4.9,2.4-7.6,6.9-9.2a9.1,9.1,0,0,0,4.4-4.2c1.4-2.7,3.1-2.1,5-1.3s1.9,0.6,2.7-.3-0.1-1.7-.9-2.3,0.7-1.3.9-2c2.5,1.2,2.5-1.2,2.9-2.4s-1-1.8-1.9-2.5-2.8-1.7-2.5-2.9,2.2-.9,3.3-1.3,2.4-1.9,3.6-2.9c-0.5-.5-0.3-1.6-1.2-1.7s-1.6-1.4-1.3.3-0.1,1.6-.8,1.5a2.2,2.2,0,0,1-2-1.8c-0.2-1.4.9-.7,1.4-0.9,2.1-.9,3.4-2,2.7-4.7s-0.1-3.9-.1-6.7c3.2,4.5,4,9.6,8.8,13.5-2-5.5-.5-10.3-1.9-14.9-0.2-.7-1.2-1.9.3-2.5s0.8,1.2,1.3,1.5c3.7,2.6,7.3,5.4,11.9,6.1s5.2-2.4,4-5.7a2.4,2.4,0,0,1-.2-1c0.2-2,7.8-7.7,10.9-7.5-7.3,3-7.5,9-8.1,15-0.3,3.6-1.4,7.1-5.1,8.8s-3.9,6.1-5.6,9.2c-0.6,1-.3,3-2.5,2.5,0,0-1-.1-0.4.5,3.6,3.5-.8,6.3-0.8,9.5s1.3,4.6,3.2,4.2,4.8,0.4,5.4,1.7c1.4,3.1,3.8,2.3,6,2.9a29.3,29.3,0,0,1,7.6,3.8c1.2,0.8,1,2-.5,2.6a9,9,0,0,1-2.8.9c-7.3,0-14.6.8-21.8-1.4-1.2-.3-0.5-0.3-0.4-1.1,0.5-2.6-2.6-3.2-3.6-5.1s-2.8-.1-4.2.2S460.3,403.7,459.4,404.6Z" style="fill:#fe9b27"/><path d="M454.5,350.2c4.1-1.4,4.9-.3,4.3,6-1.2-.7-2.6-1.2-3.4-2.2s-1.8-.8-2.7,0-5.5,1.2-6-1.2-1.8-2.5-3.1-3.5-2.6-.9-2.1-3.1,1.1-3.5,3-3.4c4.6,0.2,5.1-2.9,5.6-6.2,0.1-1,0-1.9.8-2.8s1-2.3-1-2.7-2.3-.2-1.7-1.8,1.1-3.8,2.5-5.2,1.3,0.4,2.1.6c-1.6,2.7,2.1,5,.6,7.5-2.9,4.8-1.9,9.3.8,13.5a5.2,5.2,0,0,1,.6,4.3,0.6,0.6,0,0,1-.5.4c0.2,0.3.2,0.2,0.3-.2S454.3,350.7,454.5,350.2Z" style="fill:#fe9b27"/><path d="M545.7,154.3l4.2,0.5c-2.1.5-.3,3.2-3,2.4,0,0.6-.4,1.5-0.1,1.8,2.8,2.6-.1,5.6.7,8.4a4.3,4.3,0,0,1-.9,3.9c-0.3-2.2-3.1-1.2-3.7-3s-1.3-2.6-1.2-3.8a61.5,61.5,0,0,0-.1-11c1.5-.9,1.7,1.6,2.6.7s0.2-2-.2-3.1c-2.7-8.2-2.5-8.6,4.5-14.4a1.6,1.6,0,0,1,.5,1.9c-3.8,1.5-2.3,4.4-1.7,6.8S545.6,151.2,545.7,154.3Z" style="fill:#fe9b27"/><path d="M549.5,178.8c3.1,5.8,1.8,11.6-.5,17.2-0.8,2.1-2.4,3.7-1.6,6.3s-3.7,5-5.7,4.4-2.1-1-1.4-2.7a43,43,0,0,1,5.3-9.7c0.7-1,1.5-1.9,1-3-2-3.9.2-6.6,2.6-9.1S548.3,180.2,549.5,178.8Z" style="fill:#fe9b27"/><path d="M474.5,321c0.6,2.2-.5,2.7-1.7,3.2-4.2,1.7-5.6,5.2-5.5,9.4a13.8,13.8,0,0,1-2.1,8c-1.4,2.3-1.1,5.4-1,8.5a4.2,4.2,0,0,1-2.2-4.3c0.4-3.9-1.3-8.3,2.6-11.4,0.4-.3.5-1-0.1-1.2-3.2-.9-1.5-2.8-1.2-4.6s0.6-2.8,3.3-3S471.8,322.7,474.5,321Z" style="fill:#fe9b27"/><path d="M483,295c-0.4,1,.9,2.9-1.7,3.1-0.6,0-.6.4,0.2,1.5,2.9,4.1,1.4,9.4-3.3,10.5-2.3.6-2.2-1.6-1.8-3a58.5,58.5,0,0,1,2.8-7.1,6.2,6.2,0,0,0,0-6,2.2,2.2,0,0,1-.3-0.7c-0.2-1.5-.9-3.1.5-4.5s1.1-.4,1.8,0,2,2.4,1.5,4S482.8,294.2,483,295Z" style="fill:#fe9b27"/><path d="M490.5,189.8c0,0.5,0,1,0,1.5s0.2,2.5-.9,2.5-2.3-1.2-3.5-1.7a1.2,1.2,0,0,1-.6-2.1c1.6-2.3.4-3.7-1.2-5.3s-2.3-3.1.7-3.9c0.5-.1,1.3-0.1,1.4-0.3,0.9-1.9,2.6-1.6,3.7-.8s0.4,2.5-.4,3.3,0.9,4.1-1.8,4.9c0.4,1.3,2.1.8,2.7,2h-0.1Z" style="fill:#fe9b27"/><path d="M522.1,227.3c-2-6.3.9-10.6,7.7-11.9C530.2,221.3,524.3,223,522.1,227.3Z" style="fill:#fe9b27"/><path d="M519.1,213.1a2.3,2.3,0,0,1,3,.8c0.6,1-.3,1.9-1.1,2.7l-0.8.8c-1.5,1.5-3.2,2.8-5.3,2.8s-0.7-1.6-.5-2.8C514.9,214.5,515.4,212.1,519.1,213.1Z" style="fill:#fe9b27"/><path d="M489.4,264.3c3.1,4.2-1.1,8.4.5,12.8C484.9,273.9,484.9,268.5,489.4,264.3Z" style="fill:#fe9b27"/><path d="M534.7,221.1c-4.8,2.2-7,7.1-11.4,9.1,2.4-3.1,4.8-6.1,7-9.3S533,219.8,534.7,221.1Z" style="fill:#fe9b27"/><path d="M490.6,189.8c0-2.7-1.2-5.5.9-8,0.4-.5.7-1.1,1.5-0.9s0.6,1,.6,1.5a21.9,21.9,0,0,1-.1,4.8c-0.3,1.4-2.6.8-2.9,2.5h0.1Z" style="fill:#fe9b27"/><path d="M503.2,417.8a11.7,11.7,0,0,0,9.4-.1c1.8-.8,3.5-0.6,5.6.5a54.4,54.4,0,0,1-11.4,1.8c-1.8.1-2.7-.9-3.5-2.3h-0.1Z" style="fill:#fe9b27"/><path d="M554,104c-2.4-3.9-3.8-7.9-.3-12.3C552.7,96,555.5,99.9,554,104Z" style="fill:#fe9b27"/><path d="M549.7,122.3c0.4,2.8.3,5.5-2.9,8.2,0.2-3.6-.6-6.6,2.9-8.1h-0.1Z" style="fill:#fe9b27"/><path d="M555,114c-0.1,1.2.2,2.5-1.1,2.5s-2.6-.3-1.9-2-0.5-4,1.6-4S554,113.1,555,114Z" style="fill:#fe9b27"/><path d="M484.8,217.1c-0.7-1.6-.8-3.4-2.3-4.7a1.8,1.8,0,0,1,.7-2.8c1-.3,1.1.8,1.3,1.7S487.2,215.1,484.8,217.1Z" style="fill:#fe9b27"/><path d="M438.6,389c-1.6.8-2.7,0.5-2.8-1.5s1.3-1.2,2.1-1.2,2.5-.5,2.2,1.3S440.3,390,438.6,389Z" style="fill:#fe9b27"/><path d="M550.6,150.9c0.4,2.7,1.4,5.3-.7,8.8C550,156.1,548.9,153.4,550.6,150.9Z" style="fill:#fe9b27"/><path d="M490.6,257.6c0-1.6-.8-3.7,1.9-4,0.7-.1,1.8-0.2,1.7.8A3.5,3.5,0,0,1,490.6,257.6Z" style="fill:#fe9b27"/><path d="M458.9,322.9a8.2,8.2,0,0,0-2.9,4.8c-0.9-1.7-1.2-3.5-.3-5.1S457.7,322.6,458.9,322.9Z" style="fill:#fe9b27"/><path d="M503.2,417.8c-2.2-2.4-3.7-5.3-5.8-7.7,2.6,2.1,5.8,3.7,5.8,7.8h0.1Z" style="fill:#fe9b27"/><path d="M404.7,542.6l-3.6,7.7C401.1,547.2,402.5,544.7,404.7,542.6Z" style="fill:#fe9b27"/><path d="M451.2,369.3c1,1.6,1.5,3.1.6,4.9C448.9,372.9,449.6,371.2,451.2,369.3Z" style="fill:#fe9b27"/><path d="M498.9,337.1c-0.3-3.5,1-5.4,3.4-6.7Z" style="fill:#fe9b27"/><path d="M449.3,367.1l0.2-4.7C451.1,364.2,451.1,364.4,449.3,367.1Z" style="fill:#fe9b27"/><path d="M504.5,323.1c0.5,2.3,0,3.6-1.5,4.9C502.3,325.9,503.8,325,504.5,323.1Z" style="fill:#fe9b27"/><path d="M487.9,289.7c-0.7-2.2-.1-4,0.9-6.2C489.3,286.1,487.8,287.9,487.9,289.7Z" style="fill:#fe9b27"/><path d="M509.4,230.8c0-1.7-.9-3.5.7-4.6a0.7,0.7,0,0,1,.7,1.2C509.8,228.3,510.4,229.7,509.4,230.8Z" style="fill:#fe9b27"/><path d="M513.1,318.9a0.9,0.9,0,0,1,.6,1.1c0,0.5-.3,1-0.8.8a0.9,0.9,0,0,1-.6-1.1A0.7,0.7,0,0,1,513.1,318.9Z" style="fill:#fe9b27"/><path d="M447.8,375.3a4.9,4.9,0,0,1,1.3-1,0.6,0.6,0,0,1,.8.8,1.6,1.6,0,0,1-.9,1A2.9,2.9,0,0,1,447.8,375.3Z" style="fill:#fe9b27"/><path d="M549.8,122.3l1-3.9c0.7,1.9.6,3.2-1.1,3.8h0.1Z" style="fill:#fe9b27"/><path d="M478.7,319.6l-2.4,2.3C476.4,320.1,477,319.6,478.7,319.6Z" style="fill:#fe9b27"/><path d="M435.4,380.5a1.5,1.5,0,0,1-2.4-.6C434.2,378.8,434.4,380.9,435.4,380.5Z" style="fill:#fe9b27"/><path d="M483.6,316.3c0.9-.5.8,0.1,0.8,0.4a0.8,0.8,0,0,1-.5,1.2,1,1,0,0,1-.7-0.5A4.1,4.1,0,0,1,483.6,316.3Z" style="fill:#fe9b27"/><path d="M505.5,246.3c-0.1.6-.1,1.2-0.8,1.1a1,1,0,0,1-.6-0.7,5.9,5.9,0,0,1,.9-1.1Z" style="fill:#fe9b27"/><path d="M425.5,422.7a5.2,5.2,0,0,1,0,4.3v-4.3Z" style="fill:#fefefe"/><path d="M454.5,350.2c0.1,1.2-.3,2.1-1.7,2.1a1.1,1.1,0,0,1-.5-0.8c0-1.7,1.8-.3,2.2-1.3h-0.1Z" style="fill:#fefefe"/><path d="M543.9,162.3v-3.5h0.4l0.6,3.5h-0.9Z" style="fill:#fefefe"/></svg>