<?xml version="1.0" encoding="utf-8"?>
<!-- Generator: Adobe Illustrator 16.0.0, SVG Export Plug-In . SVG Version: 6.00 Build 0)  -->
<!DOCTYPE svg PUBLIC "-//W3C//DTD SVG 1.1//EN" "http://www.w3.org/Graphics/SVG/1.1/DTD/svg11.dtd">
<svg version="1.1" id="圖層_1" xmlns="http://www.w3.org/2000/svg" xmlns:xlink="http://www.w3.org/1999/xlink" x="0px" y="0px"
	 width="1200px" height="900px" viewBox="0 0 1200 900" enable-background="new 0 0 1200 900" xml:space="preserve">
<title>layer_contour</title>
<path fill="none" stroke="#24CCAF" stroke-width="2" stroke-miterlimit="10" d="M433.359,670.777
	c2.955-8.329,8.328-14.777,15.18-20.419c2.418-2.017,3.493-6.046,4.702-9.271c1.96-5.265,5.301-9.904,9.672-13.433
	c2.911-2.059,4.334-5.642,3.627-9.136c-0.537-3.627,0.537-6.045,4.164-7.926c6.717-3.627,10.881-9,13.837-16.389
	c4.566-11.553,13.299-20.016,24.18-26.062c3.627-2.016,5.91-5.104,8.328-8.061c4.299-5.238,6.853-11.955,12.493-16.254
	c1.746-1.344-0.269-2.821-0.806-3.762c-3.091-5.509-5.644-11.149-4.567-17.731c1.074-6.583-1.209-15.583-6.582-21.763
	c-2.688-3.089-3.358-6.313-1.209-9.807c2.253-3.751,2.305-8.426,0.134-12.225c-2.82-5.642-1.074-9.403,3.493-12.762l2.418-1.746
	c6.985-4.567,7.119-6.583,1.611-12.763c-3.089-3.492-5.91-7.389-9.134-11.016c-0.618-0.751-0.909-1.719-0.808-2.687
	c0-5.643,0-11.418,0-17.062c0-2.418,0.808-3.492,3.358-3.761c13.03-1.209,25.792-4.299,38.822-5.105
	c4.299-0.269,6.447-4.566,8.865-7.521s6.045-6.179,8.866-9.403c0.712-1.13,2.204-1.469,3.334-0.757
	c0.212,0.133,0.4,0.298,0.562,0.488c1.372,1.152,2.807,2.229,4.299,3.224c3.627,2.418,8.865,0.135,8.328-4.029
	c-1.611-12.358,2.956-23.239,7.792-33.985c4.836-10.747,10.746-18.137,16.389-27.001c1.746-2.688,3.896-4.972,6.582-5.105
	c2.688-0.134,3.761-2.418,3.761-5.238s-0.806-7.389,0.94-10.746c1.747-3.358,0.135-7.658-3.358-10.612
	c-1.343-1.075-3.627-2.149-2.418-4.299c1.21-2.149,3.09-0.806,4.567-0.671c1.479,0.134,3.628-0.538,4.566-3.761
	c2.284-7.12-1.745-13.165-1.61-19.881c0.269-9.269,1.073-18.27,5.373-27.539l8.866,17.329c2.552,4.836,6.984,7.254,11.954,8.463
	c8.194,2.015,13.03-2.955,17.465-8.866c2.418-3.09,3.627-5.776,1.343-9.538c-1.067-1.61-0.842-3.752,0.538-5.105
	c5.373-5.508,6.179-12.359,4.97-19.209c-1.209-6.851,2.418-12.09,7.254-16.389c0.365-0.538,0.879-0.958,1.479-1.209
	c6.984,1.478,8.598-4.702,11.821-8.194c3.225-3.493,5.643-7.523,8.464-11.284c0.282-0.213,0.513-0.489,0.671-0.806
	c0-5.239,3.225-10.881,0.135-15.583c-3.09-4.702-2.149-9.806,0.806-14.239c1.066-1.228,1.642-2.807,1.612-4.433
	c-0.537-6.851,0.672-13.433,2.015-20.15c0.136-0.806,0-1.881,0.808-2.149c6.582-1.881,10.746-8.329,17.598-9.806
	c0.658-0.19,1.356-0.19,2.015,0c7.39,3.089,5.643-2.418,5.776-6.045h1.074c4.737,4.156,10.897,6.322,17.194,6.045
	c6.046-0.134,8.865,4.433,9.94,10.075v7.12c-0.269,8.463-4.433,14.374-10.344,20.15s-8.599,12.761-6.448,21.09
	c1.811,7.194,2.489,14.627,2.016,22.03c-0.135,2.821-0.939,4.702-4.029,5.508c-10.209,2.687-11.418,14.374-7.254,20.284
	c4.164,5.911,4.433,10.075,0.939,15.583c-3.493,5.508-1.344,9.135,0.672,13.433c2.016,4.299,5.507,11.553,8.463,17.195
	c2.955,5.642,2.283,7.792-1.209,11.418c-3.492,3.627-7.119,8.463-8.328,14.105c-0.659,2.466-2.187,4.612-4.3,6.045
	c-6.851,5.239-10.209,11.553-7.521,20.553c1.746,5.776,0.537,11.017-5.508,14.777c-4.693,2.988-8.571,7.097-11.284,11.955
	c-2.146,3.602-4.977,6.751-8.328,9.27c-5.911,4.567-6.852,10.074-2.418,16.119c4.433,6.046,5.642,11.15,4.029,18.001
	c-0.94,3.896-0.27,8.062-0.402,12.09c-0.135,4.03-0.94,5.239-3.762,6.583c-2.277,1.152-3.979,3.193-4.701,5.643
	c-2.553,6.582-4.435,13.434-7.254,19.882c-1.075,2.552-0.403,4.836,0.806,7.119c3.627,7.12,0.269,14.374-7.521,16.254
	c-3.031,0.505-5.553,2.613-6.583,5.508c-0.537,1.344-1.344,2.688-2.016,4.03c-3.09,6.312-2.553,5.104,3.627,8.329
	c8.463,4.433,17.062,3.896,25.792,4.701c8.731,0.807,14.644,1.881,22.031,1.745c7.388-0.134,7.119,0.94,8.597,6.448
	c0.613,2.954,2.005,5.69,4.03,7.926c1.881,1.882,2.283,4.434,2.283,6.985c0,13.03-1.746,26.062-2.148,39.226
	c-0.135,2.821-1.611,4.164-4.434,4.567c-7.926,1.074-15.582,4.164-23.777,3.224c-2.687-0.269-3.896,1.345-3.896,4.03
	c0,2.687,0,8.731,0,13.03c0.066,2.029-0.113,4.06-0.537,6.045c-2.149,8.598-5.104,11.284-13.836,12.493
	c-18.001,2.687-14.911,2.552-24.314-9.538c-2.956-3.896-5.911-5.104-11.016-4.433c-14.09,1.701-28.382-0.051-41.645-5.104
	c-5.775-2.148-6.045-2.148-9.135,3.224c-2.771,4.612-6.478,8.595-10.881,11.688c-3.295,2.18-5.107,6.01-4.701,9.939
	c1.074,17.062-1.746,33.719-5.911,50.24c-2.282,9.001-2.82,18.271-3.761,27.404c-0.716,10.243-3.698,20.2-8.731,29.15
	c-8.464,14.643-11.554,30.628-13.567,47.017c-0.672,5.373-2.015,10.612-2.418,15.985c-0.403,5.374-3.762,11.688-10.209,14.104
	h-2.956c-1.762-1.021-3.098-2.643-3.761-4.567c-1.345-3.09-3.493-3.762-6.448-2.553c-6.851,2.688-13.702,4.567-21.09,1.881
	c-2.149-0.806-4.165,0.672-6.045,1.746c-2.37,1.796-5.564,2.059-8.195,0.672c-4.701-2.418-9.806-3.357-14.91-4.433
	c-9.27-2.149-15.449-15.046-11.284-23.509c1.881-3.761,3.225-7.791,5.239-11.418s0.806-4.836-1.209-7.12
	c-6.162-6.653-13.006-12.643-20.419-17.866c-3.627-2.552-6.312-5.776-6.18-10.344c0.135-10.881-5.104-19.075-12.763-26.062
	c-1.089-1.28-2.034-2.678-2.82-4.164v-4.971L433.359,670.777z"/>
</svg>
