<svg xmlns="http://www.w3.org/2000/svg" viewBox="0 0 893.3 622.5"><title>layer_contour</title><path d="M322.6,475.6c2.2-6.2,6.2-11,11.3-15.2,1.8-1.5,2.6-4.5,3.5-6.9a23.3,23.3,0,0,1,7.2-10,6.7,6.7,0,0,0,2.7-6.8c-0.4-2.7.4-4.5,3.1-5.9,5-2.7,8.1-6.7,10.3-12.2,3.4-8.6,9.9-14.9,18-19.4,2.7-1.5,4.4-3.8,6.2-6,3.2-3.9,5.1-8.9,9.3-12.1,1.3-1-.2-2.1-0.6-2.8-2.3-4.1-4.2-8.3-3.4-13.2s-0.9-11.6-4.9-16.2c-2-2.3-2.5-4.7-.9-7.3a9,9,0,0,0,.1-9.1c-2.1-4.2-.8-7,2.6-9.5l1.8-1.3c5.2-3.4,5.3-4.9,1.2-9.5-2.3-2.6-4.4-5.5-6.8-8.2a2.7,2.7,0,0,1-.6-2c0-4.2,0-8.5,0-12.7,0-1.8.6-2.6,2.5-2.8,9.7-.9,19.2-3.2,28.9-3.8,3.2-.2,4.8-3.4,6.6-5.6s4.5-4.6,6.6-7a1.8,1.8,0,0,1,2.9-.2,35.9,35.9,0,0,0,3.2,2.4c2.7,1.8,6.6.1,6.2-3-1.2-9.2,2.2-17.3,5.8-25.3s8-13.5,12.2-20.1c1.3-2,2.9-3.7,4.9-3.8s2.8-1.8,2.8-3.9-0.6-5.5.7-8,0.1-5.7-2.5-7.9c-1-.8-2.7-1.6-1.8-3.2s2.3-.6,3.4-0.5,2.7-.4,3.4-2.8c1.7-5.3-1.3-9.8-1.2-14.8,0.2-6.9.8-13.6,4-20.5l6.6,12.9c1.9,3.6,5.2,5.4,8.9,6.3,6.1,1.5,9.7-2.2,13-6.6,1.8-2.3,2.7-4.3,1-7.1a3,3,0,0,1,.4-3.8c4-4.1,4.6-9.2,3.7-14.3s1.8-9,5.4-12.2a2.5,2.5,0,0,1,1.1-.9c5.2,1.1,6.4-3.5,8.8-6.1s4.2-5.6,6.3-8.4a1.7,1.7,0,0,0,.5-0.6c0-3.9,2.4-8.1.1-11.6s-1.6-7.3.6-10.6a4.9,4.9,0,0,0,1.2-3.3c-0.4-5.1.5-10,1.5-15,0.1-.6,0-1.4.6-1.6,4.9-1.4,8-6.2,13.1-7.3a2.7,2.7,0,0,1,1.5,0c5.5,2.3,4.2-1.8,4.3-4.5h0.8a18.2,18.2,0,0,0,12.8,4.5c4.5-.1,6.6,3.3,7.4,7.5v5.3c-0.2,6.3-3.3,10.7-7.7,15s-6.4,9.5-4.8,15.7a53.3,53.3,0,0,1,1.5,16.4c-0.1,2.1-.7,3.5-3,4.1-7.6,2-8.5,10.7-5.4,15.1s3.3,7.5.7,11.6-1,6.8.5,10,4.1,8.6,6.3,12.8,1.7,5.8-.9,8.5-5.3,6.3-6.2,10.5a7.9,7.9,0,0,1-3.2,4.5c-5.1,3.9-7.6,8.6-5.6,15.3,1.3,4.3.4,8.2-4.1,11a25,25,0,0,0-8.4,8.9,24,24,0,0,1-6.2,6.9c-4.4,3.4-5.1,7.5-1.8,12s4.2,8.3,3,13.4c-0.7,2.9-.2,6-0.3,9s-0.7,3.9-2.8,4.9a6.9,6.9,0,0,0-3.5,4.2c-1.9,4.9-3.3,10-5.4,14.8-0.8,1.9-.3,3.6.6,5.3,2.7,5.3.2,10.7-5.6,12.1a6.3,6.3,0,0,0-4.9,4.1c-0.4,1-1,2-1.5,3-2.3,4.7-1.9,3.8,2.7,6.2,6.3,3.3,12.7,2.9,19.2,3.5s10.9,1.4,16.4,1.3,5.3,0.7,6.4,4.8a12.6,12.6,0,0,0,3,5.9c1.4,1.4,1.7,3.3,1.7,5.2,0,9.7-1.3,19.4-1.6,29.2-0.1,2.1-1.2,3.1-3.3,3.4-5.9.8-11.6,3.1-17.7,2.4-2-.2-2.9,1-2.9,3s0,6.5,0,9.7a18.6,18.6,0,0,1-.4,4.5c-1.6,6.4-3.8,8.4-10.3,9.3-13.4,2-11.1,1.9-18.1-7.1-2.2-2.9-4.4-3.8-8.2-3.3a65.1,65.1,0,0,1-31-3.8c-4.3-1.6-4.5-1.6-6.8,2.4a28.7,28.7,0,0,1-8.1,8.7,7.9,7.9,0,0,0-3.5,7.4c0.8,12.7-1.3,25.1-4.4,37.4-1.7,6.7-2.1,13.6-2.8,20.4a51.6,51.6,0,0,1-6.5,21.7c-6.3,10.9-8.6,22.8-10.1,35-0.5,4-1.5,7.9-1.8,11.9s-2.8,8.7-7.6,10.5h-2.2a6.3,6.3,0,0,1-2.8-3.4c-1-2.3-2.6-2.8-4.8-1.9-5.1,2-10.2,3.4-15.7,1.4-1.6-.6-3.1.5-4.5,1.3a5.7,5.7,0,0,1-6.1.5c-3.5-1.8-7.3-2.5-11.1-3.3-6.9-1.6-11.5-11.2-8.4-17.5,1.4-2.8,2.4-5.8,3.9-8.5s0.6-3.6-.9-5.3a96.4,96.4,0,0,0-15.2-13.3c-2.7-1.9-4.7-4.3-4.6-7.7,0.1-8.1-3.8-14.2-9.5-19.4a17.2,17.2,0,0,1-2.1-3.1v-3.7Z" style="fill:none;stroke:#2c3e50;stroke-miterlimit:10;stroke-width:3px"/></svg>