<?xml version="1.0" encoding="utf-8"?>
<!-- Generator: Adobe Illustrator 19.2.1, SVG Export Plug-In . SVG Version: 6.00 Build 0)  -->
<svg version="1.1" id="圖層_1" xmlns="http://www.w3.org/2000/svg" xmlns:xlink="http://www.w3.org/1999/xlink" x="0px" y="0px"
	 viewBox="0 0 39.4 39.4" style="enable-background:new 0 0 39.4 39.4;" xml:space="preserve">
<style type="text/css">
	.st0{fill:#FFFFFF;}
	.st1{fill:#27FFC6;}
</style>
<path class="st0" d="M39.4,19.7C39.4,8.8,30.6,0,19.7,0C8.8,0,0,8.8,0,19.7c0,10.9,8.8,19.7,19.7,19.7c0,0,0,0,0,0
	C30.6,39.4,39.4,30.6,39.4,19.7z"/>
<title>right_btn_active</title>
<path id="XMLID_1_" class="st1" d="M31.2,18.8c0.6,0,1,0.4,1,1s-0.4,1-1,1h-15c-0.6,0-1-0.4-1-1s0.4-1,1-1H31.2z M13.6,26.6l-6-6
	c-0.4-0.4-0.4-1,0-1.4l6-6c0.3-0.4,1-0.5,1.4-0.2c0.4,0.3,0.5,1,0.2,1.4c-0.1,0.1-0.1,0.1-0.2,0.2l-5.3,5.3l5.3,5.3
	c0.4,0.4,0.4,1.1-0.1,1.4S13.9,27,13.6,26.6L13.6,26.6L13.6,26.6z"/>
</svg>
