<?xml version="1.0" encoding="utf-8"?>
<!-- Generator: Adobe Illustrator 19.2.1, SVG Export Plug-In . SVG Version: 6.00 Build 0)  -->
<svg version="1.1" xmlns="http://www.w3.org/2000/svg" xmlns:xlink="http://www.w3.org/1999/xlink" x="0px" y="0px"
	 viewBox="0 0 1147.898 1099" style="enable-background:new 0 0 1147.898 1099;" xml:space="preserve">
<g id="圖層_1">
	<rect y="-0.917" style="fill:#F9F4ED;" width="1147.898" height="1099.917"/>
	<text transform="matrix(1 0 0 1 58.8515 110.1328)" style="display:none;"><tspan x="0" y="0" style="display:inline;fill:#4D4D4D; font-family:'HanWangHeiHeavy'; font-size:51px;">台灣污染土地大調查</tspan><tspan x="0" y="80" style="display:inline;fill:#4D4D4D; font-family:'HanWangHeiHeavy'; font-size:51px;">第二站：高雄旗山</tspan></text>
	<rect x="64.851" y="768.451" style="fill:#2C3E50;" width="167.999" height="62"/>
	<rect x="64.851" y="839.559" style="fill:#2C3E50;" width="167.999" height="62"/>
	<rect x="64.851" y="910.666" style="fill:#2C3E50;" width="167.999" height="62"/>
	<rect x="67.851" y="700.344" style="fill:#2C3E50;" width="167.999" height="62"/>
	<rect x="67.851" y="985.555" style="fill:#2C3E50;" width="167.999" height="61.999"/>
	
		<rect x="64.851" y="697.344" style="fill:#24CEB1;stroke:#2C3E50;stroke-width:2;stroke-miterlimit:10;" width="167.999" height="62"/>
	
		<rect x="64.851" y="981.773" style="fill:#24CEB1;stroke:#2C3E50;stroke-width:2;stroke-miterlimit:10;" width="167.999" height="62"/>
	<g style="display:none;">
		<text transform="matrix(1 0 0 1 78.851 736.5186)" style="display:inline;"><tspan x="0" y="0" style="fill:#FFFFFF; font-family:'HanWangHeiHeavy'; font-size:28px;">受影響地區</tspan><tspan x="14" y="71" style="fill:#FFFFFF; font-family:'HanWangHeiHeavy'; font-size:28px;">污染責任</tspan><tspan x="14" y="142" style="fill:#FFFFFF; font-family:'HanWangHeiHeavy'; font-size:28px;">監督單位</tspan><tspan x="14" y="213" style="fill:#FFFFFF; font-family:'HanWangHeiHeavy'; font-size:28px;">開罰狀況</tspan><tspan x="14" y="284" style="fill:#FFFFFF; font-family:'HanWangHeiHeavy'; font-size:28px;">後續整治</tspan></text>
	</g>
	<path style="opacity:0.9;fill:#9CB5BB;" d="M1006.938,279.428c-1.041-2.082,0.52-7.808,0-14.574
		c-0.521-6.766-6.767-7.287-11.451-8.848c-4.685-1.562-6.246,0-9.368,4.164c-3.123,4.164-5.205,0-8.328,0s-6.246-5.726-6.246-5.726
		l-6.767-15.094l-1.688-6.118c-1.166,0.209-2.491,0.186-4.035-0.156c-0.494-0.11-1.261,0.879-1.857,1.4
		c-6.04,5.258-10.367,10.963-8.917,19.925c1.363,8.441,0.443,16.808-6.104,23.45c-1.842,1.868-1.725,4.402-0.616,6.182
		c2.814,4.527,1.272,7.753-1.626,11.588c-5.438,7.197-11.322,13.218-21.247,10.777c-6.004-1.48-11.493-4.385-14.58-10.272
		c-3.588-6.848-7.075-13.75-10.868-21.135c-5.193,11.302-6.156,22.19-6.475,33.503c-0.232,8.194,4.645,15.591,1.915,24.236
		c-1.245,3.943-2.198,4.622-5.612,4.528c-1.857-0.051-4.476-1.248-5.545,0.854c-1.338,2.627,1.45,4.034,3.023,5.317
		c4.261,3.48,6.898,7.213,4.08,12.874c-2.09,4.192-1.167,8.733-1.176,13.126c-0.007,3.367,0.375,6.032-4.572,6.307
		c-3.408,0.189-5.96,2.838-8.089,6.178c-6.878,10.798-14.618,21.15-19.887,32.807c-5.885,13.019-11.439,26.266-9.436,41.376
		c0.691,5.215-5.616,7.931-10.067,4.971c-1.825-1.213-3.624-2.482-5.299-3.89c-1.773-1.489-3.27-1.337-4.727,0.334
		c-3.451,3.948-7.487,7.287-10.751,11.504c-2.832,3.661-5.518,8.837-10.739,9.141c-15.955,0.929-31.503,4.675-47.347,6.2
		c-3.214,0.309-4.214,1.565-4.17,4.57c0.109,6.949,0.031,13.901,0.04,20.851c0.002,1.194,0.059,2.237,0.998,3.327
		c3.784,4.386,7.223,9.072,11.063,13.405c6.635,7.48,6.471,9.895-1.982,15.484c-0.996,0.66-1.915,1.386-2.865,2.092
		c-5.474,4.056-7.61,8.62-4.178,15.475c2.296,4.572,2.849,9.895-0.203,14.817c-2.683,4.323-1.912,8.158,1.404,11.979
		c6.578,7.583,9.713,16.335,8.035,26.501c-1.32,8.008,1.856,14.823,5.595,21.565c0.711,1.285,3.128,3.032,1.025,4.653
		c-6.888,5.312-9.888,13.481-15.19,19.871c-2.905,3.498-5.693,7.299-10.13,9.746c-13.211,7.287-23.887,17.667-29.449,31.74
		c-3.53,8.929-8.671,15.603-16.792,19.949c-4.291,2.301-5.68,5.275-5.014,9.723c0.683,4.577-0.734,8.141-4.477,11.093
		c-5.44,4.292-9.204,9.881-11.766,16.372c-1.565,3.957-2.782,8.824-5.787,11.293c-8.32,6.843-14.906,14.608-18.467,24.819v6.138
		c1.162,1.665,1.88,3.61,3.422,5.048c9.229,8.612,15.729,18.522,15.49,31.813c-0.1,5.6,3.092,9.436,7.513,12.589
		c9.003,6.421,17.353,13.592,24.851,21.769c2.551,2.779,3.426,5.288,1.527,8.737c-2.461,4.479-4.107,9.348-6.362,13.938
		c-5.032,10.247,2.592,26.034,13.822,28.579c6.175,1.401,12.411,2.412,18.125,5.428c3.332,1.755,6.734,1.21,9.902-0.821
		c2.256-1.446,4.72-3.153,7.411-2.19c8.954,3.21,17.319,1.008,25.614-2.291c3.683-1.461,6.31-0.713,7.904,3.112
		c0.949,2.28,2.215,4.39,4.541,5.594h3.681c7.9-3.019,11.838-8.709,12.48-17.193c0.492-6.509,2.111-12.904,2.95-19.399
		c2.575-19.929,6.246-39.476,16.603-57.245c6.328-10.863,9.507-22.832,10.644-35.503c1.004-11.172,1.769-22.499,4.509-33.397
		c5.065-20.147,8.606-40.404,7.227-61.256c-0.345-5.231,1.535-9.045,5.66-12.099c5.294-3.916,9.913-8.442,13.262-14.266
		c3.762-6.548,4.079-6.532,11.19-3.854c16.388,6.171,33.405,8.327,50.656,6.267c6.27-0.751,9.759,0.741,13.387,5.461
		c11.35,14.764,7.711,14.888,29.584,11.641c10.623-1.578,14.203-4.853,16.839-15.283c0.608-2.407,0.573-4.868,0.59-7.321
		c0.037-5.318-0.012-10.634,0.035-15.952c0.031-3.227,1.483-5.319,4.785-4.912c10.034,1.232,19.316-2.61,28.967-3.915
		c3.406-0.463,5.238-2.189,5.32-5.555c0.389-15.929,2.524-31.763,2.592-47.708c0.014-3.136-0.387-6.201-2.744-8.52
		c-2.75-2.71-3.896-6.117-4.917-9.706c-1.893-6.657-3.371-7.897-10.489-7.783c-9.039,0.146-17.911-1.219-26.858-2.065
		c-10.681-1.014-21.225-0.394-31.474-5.749c-7.415-3.873-8.157-2.454-4.347-10.099c0.822-1.649,1.756-3.251,2.424-4.959
		c1.466-3.754,4.075-5.705,8.065-6.644c9.517-2.244,13.582-11.091,9.203-19.781c-1.469-2.905-2.336-5.591-0.964-8.731
		c3.446-7.881,5.694-16.202,8.842-24.198c1.177-2.985,2.69-5.457,5.715-6.827c3.411-1.543,4.539-4.396,4.606-7.97
		c0.09-4.904-0.664-9.91,0.419-14.69c1.854-8.204,0-15.136-4.959-21.866c-5.431-7.374-4.259-14.102,2.896-19.703
		c4.102-3.212,7.561-6.895,10.128-11.369c3.437-5.992,8.098-11.087,13.777-14.6c7.325-4.532,8.694-10.913,6.646-17.947
		c-3.192-10.973,0.896-18.618,9.195-25.017c2.504-1.93,4.563-4.288,5.232-7.364c1.503-6.904,5.503-12.308,10.215-17.161
		c4.29-4.42,4.275-8.739,1.511-13.876c-3.679-6.84-7.157-13.801-10.389-20.868c-0.584-1.275-1.131-2.567-1.58-3.869h-5.155
		C1019.95,288.276,1007.979,281.51,1006.938,279.428z"/>
	<path style="opacity:0.9;fill:#517277;" d="M1025.902,275.731c4.252-6.722,3.678-12.311-1.117-18.985
		c-5.158-7.181-3.619-21.543,8.754-24.732c3.776-0.976,4.737-3.316,4.901-6.689c0.443-9.047-0.159-17.996-2.482-26.769
		c-2.704-10.219,1.026-19.097,7.805-25.767c7.192-7.075,12.364-14.36,12.658-24.596v-8.59c-1.391-6.743-4.855-12.321-12.152-12.197
		c-8.221,0.14-14.95-2.241-20.981-7.437h-1.228c-0.143,4.517,1.999,11.167-6.982,7.403c-0.694-0.291-1.649-0.165-2.432-0.004
		c-8.402,1.726-13.401,9.592-21.482,11.953c-1.072,0.313-0.846,1.667-1.039,2.664c-1.581,8.087-3.124,16.177-2.405,24.481
		c0.19,2.192-0.833,3.644-2.011,5.41c-3.647,5.465-5.147,10.841-0.982,17.376c3.717,5.835-0.184,12.658-0.164,19.053
		c0.002,0.305-0.531,0.591-0.772,0.918c-3.422,4.624-6.519,9.53-10.333,13.802c-3.21,3.59-5.147,9.275-10.368,10.208l1.688,6.118
		l6.767,15.094c0,0,3.123,5.726,6.246,5.726s5.205,4.164,8.328,0c3.122-4.164,4.684-5.726,9.368-4.164
		c4.684,1.561,10.931,2.082,11.451,8.848c0.52,6.766-1.041,12.492,0,14.574c1.041,2.082,13.012,8.848,13.012,8.848h5.155
		C1023.681,284.156,1023.25,279.923,1025.902,275.731z"/>
	<g style="display:none;">
		
			<text transform="matrix(1 0 0 1 858.4598 169.8184)" style="display:inline;fill:#666666; font-family:'HanWangHeiHeavy'; font-size:29.1472px;">大林里</text>
	</g>
	<g style="display:none;">
		
			<text transform="matrix(1 0 0 1 996.9946 525.3208)" style="display:inline;fill:#666666; font-family:'HanWangHeiHeavy'; font-size:28px;">旗山區</text>
	</g>
	<g>
		<rect x="65.852" y="352.107" style="fill:#2C3E50;" width="167.999" height="62"/>
		<rect x="65.852" y="423.214" style="fill:#2C3E50;" width="167.999" height="62"/>
		<rect x="65.852" y="494.321" style="fill:#2C3E50;" width="167.999" height="62"/>
		<rect x="69.852" y="285" style="fill:#2C3E50;" width="167.999" height="62"/>
		
			<rect x="65.852" y="281" style="fill:#24CEB1;stroke:#2C3E50;stroke-width:2;stroke-miterlimit:10;" width="167.999" height="62"/>
		<g style="display:none;">
			<text transform="matrix(1 0 0 1 93.851 320.4966)" style="display:inline;"><tspan x="0" y="0" style="fill:#FFFFFF; font-family:'HanWangHeiHeavy'; font-size:28px;">污染地點</tspan><tspan x="0" y="71" style="fill:#FFFFFF; font-family:'HanWangHeiHeavy'; font-size:28px;">污染現狀</tspan><tspan x="0" y="142" style="fill:#FFFFFF; font-family:'HanWangHeiHeavy'; font-size:28px;">污染面積</tspan><tspan x="0" y="213" style="fill:#FFFFFF; font-family:'HanWangHeiHeavy'; font-size:28px;">污染原因</tspan></text>
		</g>
	</g>
	<g style="opacity:0.7;">
		<rect x="259.898" y="697.344" style="fill:#FFFFFF;" width="613.525" height="62"/>
		<rect x="259.898" y="768.451" style="fill:#FFFFFF;" width="613.525" height="62"/>
		<rect x="259.898" y="839.559" style="fill:#FFFFFF;" width="613.525" height="62"/>
		<rect x="259.898" y="910.666" style="fill:#FFFFFF;" width="613.525" height="62"/>
		<rect x="259.898" y="981.773" style="fill:#FFFFFF;" width="613.525" height="62"/>
	</g>
	<rect x="284.069" y="714.096" style="fill:none;" width="577.829" height="666.916"/>
	<text transform="matrix(1 0 0 1 284.0693 736.457)" style="display:none;"><tspan x="0" y="0" style="display:inline;fill:#231815; font-family:'HanWangHeiLight'; font-size:26px;">高雄旗山區大林里兩個村落約60多戶</tspan><tspan x="0" y="71" style="display:inline;fill:#231815; font-family:'HanWangHeiLight'; font-size:26px;">建發營造有限公司</tspan><tspan x="208" y="71" style="display:inline;fill:#231815; font-family:'HanWangHeiLight'; font-size:26px; letter-spacing:-13;">、</tspan><tspan x="220.48" y="71" style="display:inline;fill:#231815; font-family:'HanWangHeiLight'; font-size:26px;">萬大材料科技股份有限公司</tspan><tspan x="0" y="142" style="display:inline;fill:#231815; font-family:'HanWangHeiLight'; font-size:26px;">高雄市環保局、地政局；環保署</tspan><tspan x="0" y="213" style="display:inline;fill:#231815; font-family:'HanWangHeiLight'; font-size:26px;">高雄市環保局連續開罰12次，累積金額336萬</tspan><tspan x="0" y="284" style="display:inline;fill:#231815; font-family:'HanWangHeiLight'; font-size:26px;">目前沒輒，即便挖出轉爐石，也尚未找到去處</tspan></text>
	<g style="opacity:0.7;">
		<rect x="259.898" y="281" style="fill:#FFFFFF;" width="544" height="62"/>
		<rect x="259.898" y="352.107" style="fill:#FFFFFF;" width="544" height="62"/>
		<rect x="259.898" y="423.214" style="fill:#FFFFFF;" width="544" height="62"/>
		<rect x="259.898" y="494.321" style="fill:#FFFFFF;" width="544" height="62"/>
	</g>
	<g style="display:none;">
		<text transform="matrix(1 0 0 1 284.0678 320.4966)" style="display:inline;"><tspan x="0" y="0" style="fill:#231815; font-family:'HanWangHeiLight'; font-size:26px;">高雄旗山區大林里圓潭子段9筆土地</tspan><tspan x="0" y="71" style="fill:#231815; font-family:'HanWangHeiLight'; font-size:26px;">轉爐石回填農地</tspan><tspan x="182" y="71" style="fill:#231815; font-family:'HanWangHeiLight'; font-size:26px; letter-spacing:-4;">，</tspan><tspan x="203.84" y="71" style="fill:#231815; font-family:'HanWangHeiLight'; font-size:26px;">未被清除</tspan><tspan x="0" y="142" style="fill:#231815; font-family:'HanWangHeiLight'; font-size:26px;">兩個大窟窿</tspan><tspan x="130" y="142" style="fill:#231815; font-family:'HanWangHeiLight'; font-size:26px; letter-spacing:-12;">，</tspan><tspan x="143.52" y="142" style="fill:#231815; font-family:'HanWangHeiLight'; font-size:26px;">面積約5.2公頃</tspan><tspan x="309.529" y="142" style="fill:#231815; font-family:'HanWangHeiLight'; font-size:26px; letter-spacing:-11;">，</tspan><tspan x="324.089" y="142" style="fill:#231815; font-family:'HanWangHeiLight'; font-size:26px;">最深處達14公尺</tspan><tspan x="0" y="213" style="fill:#231815; font-family:'HanWangHeiLight'; font-size:26px;">中鋼轉爐石99萬噸</tspan></text>
	</g>
</g>
<g id="圖層_2">
	<g style="opacity:0.3;">
		<circle style="opacity:0.4;fill:#24CEB1;" cx="1015.908" cy="182.36" r="113.728"/>
		<circle style="opacity:0.2;fill:#24CEB1;" cx="1015.908" cy="182.36" r="142.462"/>
		<circle style="opacity:0.6;fill:#24CEB1;" cx="1015.908" cy="182.36" r="86.778"/>
	</g>
</g>
<g id="圖層_3">
	<g>
		
			<image style="overflow:visible;opacity:0.3;enable-background:new    ;" width="263" height="358" xlink:href="A1DEDCAC138E6BFB.png"  transform="matrix(0.2874 0 0 0.2867 982.5654 101.3218)">
		</image>
		<g>
			<g>
				<path style="fill:#FFFFFF;" d="M1019.327,119.801c8.251,0,14.914,9.105,14.914,20.358c0,11.229-6.663,20.335-14.914,20.335
					c-8.202,0-14.89-9.106-14.89-20.335C1004.438,128.907,1011.125,119.801,1019.327,119.801z"/>
				<g>
					<path style="fill:#FF4D4D;" d="M1026.26,115.822c-2.318-0.733-4.737-1.221-7.274-1.221c-2.539,0-4.979,0.341-7.273,1.221
						c-9.204,3.027-15.866,11.74-15.866,21.921c0,1.317,0.243,3.025,0.73,4.833c1.221,4.979,4.003,11.375,7.128,17.818
						c6.689,13.671,15.281,27.609,15.281,27.609s8.593-13.816,15.256-27.609c3.149-6.443,5.934-12.839,7.153-17.818
						c0.489-1.808,0.732-3.516,0.732-4.833C1042.127,127.563,1035.438,118.85,1026.26,115.822z M1018.985,126.222
						c6.053,0,11.033,4.979,11.033,11.032c0,3.515-1.708,6.64-4.246,8.716v7.885h-3.418V147.8c-0.464,0.098-0.952,0.245-1.562,0.341
						v5.713h-3.393v-5.713c-0.463-0.097-1.1-0.244-1.564-0.341v6.055h-3.392v-7.885c-2.538-2.076-4.248-5.103-4.248-8.716
						C1008.076,131.201,1012.932,126.222,1018.985,126.222z"/>
					<path style="fill:#FF4D4D;" d="M1014.127,133.617c1.416,0,2.565,1.148,2.565,2.539c0,1.392-1.149,2.563-2.565,2.563
						c-1.391,0-2.539-1.171-2.539-2.563C1011.588,134.765,1012.736,133.617,1014.127,133.617z"/>
					<path style="fill:#FF4D4D;" d="M1023.941,133.617c1.416,0,2.562,1.148,2.562,2.539c0,1.392-1.146,2.563-2.562,2.563
						c-1.392,0-2.539-1.171-2.539-2.563C1021.402,134.765,1022.55,133.617,1023.941,133.617z"/>
					<polygon style="fill:#FF4D4D;" points="1022.012,143.309 1018.985,138.719 1015.959,143.309 					"/>
				</g>
			</g>
		</g>
	</g>
	<polyline style="fill:none;stroke:#2C3E50;stroke-width:2;stroke-miterlimit:10;" points="1018.985,188.004 963.091,312.739 
		803.898,312.739 	"/>
</g>
<g id="ai2html-settings">
	<rect x="-450" style="fill:none;" width="400" height="462"/>
	<text transform="matrix(1 0 0 1 -450 13.2002)" style="display:none;"><tspan x="0" y="0" style="display:inline; font-family:'AdobeMingStd-Light-B5pc-H'; font-size:15px;">ai2html-settings</tspan><tspan x="0" y="18" style="display:inline; font-family:'AdobeMingStd-Light-B5pc-H'; font-size:15px;">settings_version: 0.59</tspan><tspan x="0" y="36" style="display:inline; font-family:'AdobeMingStd-Light-B5pc-H'; font-size:15px;">image_format: svg</tspan><tspan x="0" y="54" style="display:inline; font-family:'AdobeMingStd-Light-B5pc-H'; font-size:15px;">responsiveness: dynamic</tspan><tspan x="0" y="72" style="display:inline; font-family:'AdobeMingStd-Light-B5pc-H'; font-size:15px;">output: one-file</tspan><tspan x="0" y="90" style="display:inline; font-family:'AdobeMingStd-Light-B5pc-H'; font-size:15px;">html_output_path: /ai2html-output/</tspan><tspan x="0" y="108" style="display:inline; font-family:'AdobeMingStd-Light-B5pc-H'; font-size:15px;">html_output_extension: .html</tspan><tspan x="0" y="126" style="display:inline; font-family:'AdobeMingStd-Light-B5pc-H'; font-size:15px;">image_output_path: </tspan><tspan x="0" y="144" style="display:inline; font-family:'AdobeMingStd-Light-B5pc-H'; font-size:15px;">local_preview_template: </tspan><tspan x="0" y="162" style="display:inline; font-family:'AdobeMingStd-Light-B5pc-H'; font-size:15px;">png_number_of_colors: 128</tspan><tspan x="0" y="180" style="display:inline; font-family:'AdobeMingStd-Light-B5pc-H'; font-size:15px;">jpg_quality: 60</tspan><tspan x="0" y="198" style="display:inline; font-family:'AdobeMingStd-Light-B5pc-H'; font-size:15px;">headline: Ai Graphic Headline</tspan><tspan x="0" y="216" style="display:inline; font-family:'AdobeMingStd-Light-B5pc-H'; font-size:15px;">leadin: Introductory text here.</tspan><tspan x="0" y="234" style="display:inline; font-family:'AdobeMingStd-Light-B5pc-H'; font-size:15px;">notes: Notes: Text goes here.</tspan><tspan x="0" y="252" style="display:inline; font-family:'AdobeMingStd-Light-B5pc-H'; font-size:15px;">sources: Source: Name goes here.</tspan><tspan x="0" y="270" style="display:inline; font-family:'AdobeMingStd-Light-B5pc-H'; font-size:15px;">credit: By ai2html</tspan></text>
</g>
</svg>
