<?xml version="1.0" encoding="utf-8"?>
<!-- Generator: Adobe Illustrator 19.2.1, SVG Export Plug-In . SVG Version: 6.00 Build 0)  -->
<svg version="1.1" id="圖層_1" xmlns="http://www.w3.org/2000/svg" xmlns:xlink="http://www.w3.org/1999/xlink" x="0px" y="0px"
	 viewBox="0 0 1147.9 1099" style="enable-background:new 0 0 1147.9 1099;" xml:space="preserve">
<style type="text/css">
	.st0{fill:#F9F4ED;}
	.st1{fill:#2C3E50;}
	.st2{opacity:0.9;fill:#9CB5BB;enable-background:new    ;}
	.st3{opacity:0.9;fill:#517277;enable-background:new    ;}
	.st4{opacity:0.7;}
	.st5{fill:#FFFFFF;}
	.st6{fill:none;}
	.st7{opacity:0.3;}
	.st8{opacity:0.4;fill:#24CEB1;enable-background:new    ;}
	.st9{opacity:0.2;fill:#24CEB1;enable-background:new    ;}
	.st10{opacity:0.6;fill:#24CEB1;enable-background:new    ;}
	.st11{fill:#FF4D4D;}
	.st12{fill:none;stroke:#2C3E50;stroke-width:2;stroke-miterlimit:10;}
</style>
<g id="圖層_1_1_">
	<path class="st0" d="M0-0.9h1147.9V1099H0V-0.9z"/>
	<path class="st1" d="M64.8,768.5h168v62h-168L64.8,768.5z M64.8,839.6h168v62h-168L64.8,839.6z M64.8,910.7h168v62h-168L64.8,910.7
		z M64.8,697.3h168v62h-168L64.8,697.3z M64.8,982.6h168v62h-168L64.8,982.6z"/>
	<path class="st2" d="M1006.9,279.4c-1-2.1,0.5-7.8,0-14.6s-6.8-7.3-11.5-8.8c-4.7-1.6-6.2,0-9.4,4.2c-3.1,4.2-5.2,0-8.3,0
		s-6.2-5.7-6.2-5.7l-6.8-15.1l-1.7-6.1c-1.2,0.2-2.5,0.2-4-0.2c-0.5-0.1-1.3,0.9-1.9,1.4c-6,5.3-10.4,11-8.9,19.9
		c1.4,8.4,0.4,16.8-6.1,23.4c-1.8,1.9-1.7,4.4-0.6,6.2c2.8,4.5,1.3,7.8-1.6,11.6c-5.4,7.2-11.3,13.2-21.2,10.8
		c-6-1.5-11.5-4.4-14.6-10.3c-3.6-6.8-7.1-13.8-10.9-21.1c-5.2,11.3-6.2,22.2-6.5,33.5c-0.2,8.2,4.6,15.6,1.9,24.2
		c-1.2,3.9-2.2,4.6-5.6,4.5c-1.9,0-4.5-1.2-5.5,0.9c-1.3,2.6,1.5,4,3,5.3c4.3,3.5,6.9,7.2,4.1,12.9c-2.1,4.2-1.2,8.7-1.2,13.1
		c0,3.4,0.4,6-4.6,6.3c-3.4,0.2-6,2.8-8.1,6.2c-6.9,10.8-14.6,21.1-19.9,32.8c-5.9,13-11.4,26.3-9.4,41.4c0.7,5.2-5.6,7.9-10.1,5
		c-1.8-1.2-3.6-2.5-5.3-3.9c-1.8-1.5-3.3-1.3-4.7,0.3c-3.5,3.9-7.5,7.3-10.8,11.5c-2.8,3.7-5.5,8.8-10.7,9.1
		c-16,0.9-31.5,4.7-47.3,6.2c-3.2,0.3-4.2,1.6-4.2,4.6c0.1,7,0,13.9,0,20.9c0,1.2,0.1,2.2,1,3.3c3.8,4.4,7.2,9.1,11.1,13.4
		c6.6,7.5,6.5,9.9-2,15.5c-1,0.7-1.9,1.4-2.9,2.1c-5.5,4.1-7.6,8.6-4.2,15.5c2.3,4.6,2.8,9.9-0.2,14.8c-2.7,4.3-1.9,8.2,1.4,12
		c6.6,7.6,9.7,16.3,8,26.5c-1.3,8,1.9,14.8,5.6,21.6c0.7,1.3,3.1,3,1,4.7c-6.9,5.3-9.9,13.5-15.2,19.9c-2.9,3.5-5.7,7.3-10.1,9.7
		c-13.2,7.3-23.9,17.7-29.5,31.7c-3.5,8.9-8.7,15.6-16.8,20c-4.3,2.3-5.7,5.3-5,9.7c0.7,4.6-0.7,8.1-4.5,11.1
		c-5.4,4.3-9.2,9.9-11.8,16.4c-1.6,4-2.8,8.8-5.8,11.3c-8.3,6.8-14.9,14.6-18.5,24.8v6.1c1.2,1.7,1.9,3.6,3.4,5
		c9.2,8.6,15.7,18.5,15.5,31.8c-0.1,5.6,3.1,9.4,7.5,12.6c9,6.4,17.4,13.6,24.9,21.8c2.5,2.8,3.4,5.3,1.5,8.7
		c-2.5,4.5-4.1,9.3-6.4,13.9c-5,10.2,2.6,26,13.8,28.6c6.2,1.4,12.4,2.4,18.1,5.4c3.3,1.8,6.7,1.2,9.9-0.8c2.3-1.4,4.7-3.2,7.4-2.2
		c9,3.2,17.3,1,25.6-2.3c3.7-1.5,6.3-0.7,7.9,3.1c1,2.3,2.2,4.4,4.5,5.6h3.7c7.9-3,11.8-8.7,12.5-17.2c0.5-6.5,2.1-12.9,3-19.4
		c2.6-19.9,6.2-39.5,16.6-57.2c6.3-10.9,9.5-22.8,10.6-35.5c1-11.2,1.8-22.5,4.5-33.4c5.1-20.1,8.6-40.4,7.2-61.3
		c-0.3-5.2,1.5-9,5.7-12.1c5.3-3.9,9.9-8.4,13.3-14.3c3.8-6.5,4.1-6.5,11.2-3.9c16.4,6.2,33.4,8.3,50.7,6.3
		c6.3-0.8,9.8,0.7,13.4,5.5c11.3,14.8,7.7,14.9,29.6,11.6c10.6-1.6,14.2-4.9,16.8-15.3c0.6-2.4,0.6-4.9,0.6-7.3c0-5.3,0-10.6,0-16
		c0-3.2,1.5-5.3,4.8-4.9c10,1.2,19.3-2.6,29-3.9c3.4-0.5,5.2-2.2,5.3-5.6c0.4-15.9,2.5-31.8,2.6-47.7c0-3.1-0.4-6.2-2.7-8.5
		c-2.8-2.7-3.9-6.1-4.9-9.7c-1.9-6.7-3.4-7.9-10.5-7.8c-9,0.1-17.9-1.2-26.9-2.1c-10.7-1-21.2-0.4-31.5-5.8
		c-7.4-3.9-8.2-2.5-4.3-10.1c0.8-1.7,1.8-3.2,2.4-5c1.5-3.8,4.1-5.7,8.1-6.6c9.5-2.2,13.6-11.1,9.2-19.8c-1.5-2.9-2.3-5.6-1-8.7
		c3.4-7.9,5.7-16.2,8.8-24.2c1.2-3,2.7-5.5,5.7-6.8c3.4-1.5,4.5-4.4,4.6-8c0.1-4.9-0.7-9.9,0.4-14.7c1.9-8.2,0-15.1-5-21.9
		c-5.4-7.4-4.3-14.1,2.9-19.7c4.1-3.2,7.6-6.9,10.1-11.4c3.4-6,8.1-11.1,13.8-14.6c7.3-4.5,8.7-10.9,6.6-17.9
		c-3.2-11,0.9-18.6,9.2-25c2.5-1.9,4.6-4.3,5.2-7.4c1.5-6.9,5.5-12.3,10.2-17.2c4.3-4.4,4.3-8.7,1.5-13.9
		c-3.7-6.8-7.2-13.8-10.4-20.9c-0.6-1.3-1.1-2.6-1.6-3.9h-5.2C1019.9,288.3,1008,281.5,1006.9,279.4L1006.9,279.4z"/>
	<path class="st3" d="M1025.9,275.7c4.3-6.7,3.7-12.3-1.1-19c-5.2-7.2-3.6-21.5,8.8-24.7c3.8-1,4.7-3.3,4.9-6.7
		c0.4-9-0.2-18-2.5-26.8c-2.7-10.2,1-19.1,7.8-25.8c7.2-7.1,12.4-14.4,12.7-24.6v-8.6c-1.4-6.7-4.9-12.3-12.2-12.2
		c-8.2,0.1-14.9-2.2-21-7.4h-1.2c-0.1,4.5,2,11.2-7,7.4c-0.7-0.3-1.7-0.2-2.4,0c-8.4,1.7-13.4,9.6-21.5,12c-1.1,0.3-0.8,1.7-1,2.7
		c-1.6,8.1-3.1,16.2-2.4,24.5c0.2,2.2-0.8,3.6-2,5.4c-3.6,5.5-5.1,10.8-1,17.4c3.7,5.8-0.2,12.7-0.2,19.1c0,0.3-0.5,0.6-0.8,0.9
		c-3.4,4.6-6.5,9.5-10.3,13.8c-3.2,3.6-5.1,9.3-10.4,10.2l1.7,6.1l6.8,15.1c0,0,3.1,5.7,6.2,5.7s5.2,4.2,8.3,0
		c3.1-4.2,4.7-5.7,9.4-4.2c4.7,1.6,10.9,2.1,11.5,8.8s-1,12.5,0,14.6c1,2.1,13,8.8,13,8.8h5.2
		C1023.7,284.2,1023.3,279.9,1025.9,275.7L1025.9,275.7z"/>
	<path class="st1" d="M65.9,352.1h168v62h-168L65.9,352.1z M65.9,423.2h168v62h-168L65.9,423.2z M65.9,494.3h168v62h-168L65.9,494.3
		z M65.9,281h168v62h-168L65.9,281z"/>
	<g class="st4">
		<path class="st5" d="M259.9,697.3h613.5v62H259.9V697.3z M259.9,768.5h613.5v62H259.9V768.5z M259.9,839.6h613.5v62H259.9V839.6z
			 M259.9,910.7h613.5v62H259.9V910.7z M259.9,981.8h613.5v62H259.9V981.8z"/>
	</g>
	<path class="st6" d="M284.1,714.1h577.8V1381H284.1L284.1,714.1z"/>
	<g class="st4">
		<path class="st5" d="M259.9,281h544v62h-544V281z M259.9,352.1h544v62h-544V352.1z M259.9,423.2h544v62h-544V423.2z M259.9,494.3
			h544v62h-544V494.3z"/>
	</g>
</g>
<g id="圖層_2" class="st7">
	<circle class="st8" cx="1015.9" cy="182.4" r="113.7"/>
	<circle class="st9" cx="1015.9" cy="182.4" r="142.5"/>
	<circle class="st10" cx="1015.9" cy="182.4" r="86.8"/>
</g>
<g id="圖層_3">
	<path class="st5" d="M1019.3,119.8c8.2,0,14.9,9.1,14.9,20.4c0,11.2-6.7,20.3-14.9,20.3c-8.2,0-14.9-9.1-14.9-20.3
		C1004.4,128.9,1011.1,119.8,1019.3,119.8L1019.3,119.8z"/>
	<g>
		<path class="st11" d="M1026.3,115.8c-2.3-0.7-4.7-1.2-7.3-1.2c-2.5,0-5,0.3-7.3,1.2c-9.2,3-15.9,11.7-15.9,21.9
			c0,1.3,0.2,3,0.7,4.8c1.2,5,4,11.4,7.1,17.8c6.7,13.7,15.3,27.6,15.3,27.6s8.6-13.8,15.3-27.6c3.2-6.4,5.9-12.8,7.2-17.8
			c0.5-1.8,0.7-3.5,0.7-4.8C1042.1,127.6,1035.4,118.9,1026.3,115.8L1026.3,115.8z M1019,126.2c6.1,0,11,5,11,11
			c0,3.5-1.7,6.6-4.2,8.7v7.9h-3.4v-6.1c-0.5,0.1-1,0.2-1.6,0.3v5.7h-3.4v-5.7c-0.5-0.1-1.1-0.2-1.6-0.3v6.1h-3.4V146
			c-2.5-2.1-4.2-5.1-4.2-8.7C1008.1,131.2,1012.9,126.2,1019,126.2L1019,126.2z"/>
		<path class="st11" d="M1014.1,133.6c1.4,0,2.6,1.1,2.6,2.5c0,1.4-1.2,2.6-2.6,2.6c-1.4,0-2.5-1.2-2.5-2.6
			C1011.6,134.8,1012.7,133.6,1014.1,133.6L1014.1,133.6z M1023.9,133.6c1.4,0,2.6,1.1,2.6,2.5c0,1.4-1.2,2.6-2.6,2.6
			c-1.4,0-2.5-1.2-2.5-2.6C1021.4,134.8,1022.6,133.6,1023.9,133.6L1023.9,133.6z M1022,143.3l-3-4.6l-3,4.6H1022z"/>
	</g>
	<path class="st12" d="M1019,188l-55.9,124.7H803.9"/>
</g>
<path id="ai2html-settings" class="st6" d="M-450,0h400v462h-400V0z"/>
</svg>
