<?xml version="1.0" encoding="utf-8"?>
<!-- Generator: Adobe Illustrator 18.0.0, SVG Export Plug-In . SVG Version: 6.00 Build 0)  -->
<!DOCTYPE svg PUBLIC "-//W3C//DTD SVG 1.1//EN" "http://www.w3.org/Graphics/SVG/1.1/DTD/svg11.dtd">
<svg version="1.1" id="圖層_1" xmlns="http://www.w3.org/2000/svg" xmlns:xlink="http://www.w3.org/1999/xlink" x="0px" y="0px"
	 viewBox="0 0 30 30" style="enable-background:new 0 0 30 30;" xml:space="preserve">
<style type="text/css">
	.st0{fill:#D5C6B3;}
</style>
<g>
	<path class="st0" d="M12.9,9.1c-3.1,1.5-4.6,3.3-4.6,5.3c1.3,0.1,2.4,0.7,3.3,1.6c0.8,0.9,1.3,2,1.3,3.2c0,1.3-0.4,2.3-1.3,3.2
		c-0.8,0.9-1.9,1.3-3.1,1.3c-1.4,0-2.6-0.6-3.6-1.7c-1-1.1-1.5-2.5-1.5-4.1c0-4.9,2.7-8.7,8.1-11.4L12.9,9.1z M26.6,9.1
		c-3,1.5-4.6,3.3-4.6,5.3c1.3,0.1,2.4,0.7,3.2,1.6c0.8,0.9,1.3,2,1.3,3.2c0,1.3-0.4,2.3-1.2,3.2c-0.8,0.9-1.9,1.3-3.1,1.3
		c-1.4,0-2.6-0.6-3.6-1.7c-1-1.1-1.5-2.5-1.5-4.1c0-4.9,2.7-8.7,8.2-11.4L26.6,9.1z"/>
</g>
</svg>
