<?xml version="1.0" encoding="utf-8"?>
<!-- Generator: Adobe Illustrator 18.0.0, SVG Export Plug-In . SVG Version: 6.00 Build 0)  -->
<!DOCTYPE svg PUBLIC "-//W3C//DTD SVG 1.1//EN" "http://www.w3.org/Graphics/SVG/1.1/DTD/svg11.dtd">
<svg version="1.1" id="圖層_1" xmlns="http://www.w3.org/2000/svg" xmlns:xlink="http://www.w3.org/1999/xlink" x="0px" y="0px"
	 viewBox="0 0 30 30" style="enable-background:new 0 0 30 30;" xml:space="preserve">
<style type="text/css">
	.st0{fill:#D5C6B3;}
</style>
<path class="st0" d="M7.9,15.7c-1.3-0.1-2.4-0.7-3.3-1.6c-0.8-0.9-1.3-2-1.3-3.2c0-1.3,0.4-2.3,1.3-3.2c0.8-0.9,1.9-1.3,3.1-1.3
	c1.4,0,2.6,0.6,3.6,1.7c1,1.1,1.5,2.5,1.5,4.1c0,4.9-2.7,8.7-8.1,11.4l-1.5-2.7C6.4,19.4,7.9,17.7,7.9,15.7z M21.6,15.7
	c-1.3-0.1-2.4-0.7-3.2-1.6c-0.8-0.9-1.3-2-1.3-3.2c0-1.3,0.4-2.3,1.3-3.2c0.8-0.9,1.9-1.3,3.1-1.3c1.4,0,2.6,0.6,3.6,1.7
	c1,1.1,1.5,2.5,1.5,4.1c0,4.9-2.7,8.7-8.1,11.4l-1.5-2.7C20.1,19.4,21.6,17.7,21.6,15.7z"/>
</svg>
