<?xml version="1.0" encoding="utf-8"?>
<!-- Generator: Adobe Illustrator 19.2.1, SVG Export Plug-In . SVG Version: 6.00 Build 0)  -->
<svg version="1.1" id="圖層_1" xmlns="http://www.w3.org/2000/svg" xmlns:xlink="http://www.w3.org/1999/xlink" x="0px" y="0px"
	 viewBox="0 0 39.4 39.4" style="enable-background:new 0 0 39.4 39.4;" xml:space="preserve">
<style type="text/css">
	.st0{fill:#FFFFFF;}
	.st1{fill:#27FFC6;}
</style>
<path class="st0" d="M0,19.7c0,10.9,8.8,19.7,19.7,19.7c10.9,0,19.7-8.8,19.7-19.7C39.4,8.8,30.6,0,19.7,0c0,0,0,0,0,0
	C8.8,0,0,8.8,0,19.7z"/>
<title>right_btn_active</title>
<path id="XMLID_1_" class="st1" d="M8.2,20.6c-0.6,0-1-0.4-1-1s0.4-1,1-1h15c0.6,0,1,0.4,1,1s-0.4,1-1,1H8.2z M25.8,12.8l6,6
	c0.4,0.4,0.4,1,0,1.4l-6,6c-0.3,0.4-1,0.5-1.4,0.2c-0.4-0.3-0.5-1-0.2-1.4c0.1-0.1,0.1-0.1,0.2-0.2l5.3-5.3l-5.3-5.3
	c-0.4-0.4-0.4-1.1,0.1-1.4S25.5,12.4,25.8,12.8L25.8,12.8L25.8,12.8z"/>
</svg>
