<svg xmlns="http://www.w3.org/2000/svg" viewBox="0 0 64.6 57.7"><title>twr_logo</title><polygon points="45.9 23.1 35.4 20.6 35.4 7.5 45.9 4.6 45.9 23.1" style="fill:#fff"/><polygon points="19.3 28.1 35.7 20.6 35.7 7.5 19.3 0 19.3 28.1" style="fill:#fff"/><path d="M1710.7,150.5a1.5,1.5,0,0,0,.8-1h1.4v1.2h-2.3v-0.2Z" transform="translate(-1652.7 -116)" style="fill:#fff"/><path d="M1715.1,154.2a1.5,1.5,0,0,0,.8-1h1.4v1.2H1715v-0.2Z" transform="translate(-1652.7 -116)" style="fill:#fff"/><path d="M1712.5,157.5a1.5,1.5,0,0,0,.8-1h1.4v1.2h-2.3v-0.2Z" transform="translate(-1652.7 -116)" style="fill:#fff"/><rect x="50.4" y="34.4" width="9.8" height="0.44" style="fill:#fff"/><rect x="48.5" y="38.2" width="16.1" height="0.44" style="fill:#fff"/><rect x="53.7" y="41.5" width="7.6" height="0.47" style="fill:#fff"/><rect x="52.9" y="44.8" width="8.5" height="0.44" style="fill:#fff"/><rect x="52.9" y="47.8" width="8.5" height="0.44" style="fill:#fff"/><rect x="52.2" y="42.3" width="1.4" height="7.83" style="fill:#fff"/><rect x="60.6" y="41.6" width="1.4" height="8.53" style="fill:#fff"/><rect x="54.9" y="31.9" width="1.4" height="6.74" style="fill:#fff"/><path d="M1714.5,149s-3.7,7.3-14.6,11.7V161s10.6-3,15.8-11.2Z" transform="translate(-1652.7 -116)" style="fill:#fff"/><path d="M1692.5,150.5a1.5,1.5,0,0,0,.8-1h1.4v1.2h-2.3v-0.2Z" transform="translate(-1652.7 -116)" style="fill:#fff"/><path d="M1692.1,161.4a1.5,1.5,0,0,0,.8-1h1.4v1.2H1692v-0.2Z" transform="translate(-1652.7 -116)" style="fill:#fff"/><rect x="30.6" y="34.5" width="11.5" height="0.44" style="fill:#fff"/><rect x="31.8" y="36.1" width="8.6" height="0.47" style="fill:#fff"/><rect x="31.9" y="37.8" width="8.6" height="0.44" style="fill:#fff"/><rect x="31.8" y="39.3" width="8.6" height="0.44" style="fill:#fff"/><rect x="31.8" y="40.9" width="8.6" height="0.44" style="fill:#fff"/><rect x="24.3" y="38" width="4.4" height="0.44" style="fill:#fff"/><rect x="27.4" y="37.9" width="1.4" height="3.81" style="fill:#fff"/><path d="M1693,150.5a1.2,1.2,0,0,0,.6-0.8h1.1v0.9h-1.8v-0.2Z" transform="translate(-1652.7 -116)" style="fill:#fff"/><path d="M1679.8,154a1.2,1.2,0,0,0,.6-0.8h1.1v0.9h-1.8V154Z" transform="translate(-1652.7 -116)" style="fill:#fff"/><rect x="25.3" y="45.3" width="16.2" height="0.44" style="fill:#fff"/><path d="M1692.5,161.3a1.2,1.2,0,0,0,.6-0.8h1.1v0.9h-1.8v-0.2Z" transform="translate(-1652.7 -116)" style="fill:#fff"/><path d="M1691.7,152.1a1.2,1.2,0,0,0,.7-0.8h1.2v1h-1.9v-0.2Z" transform="translate(-1652.7 -116)" style="fill:#fff"/><path d="M1680.1,154a1,1,0,0,0,.5-0.6h0.9v0.8h-1.5Z" transform="translate(-1652.7 -116)" style="fill:#fff"/><path d="M1678.3,149.2l0.2-.4a5,5,0,0,1,3,2.3l-1.1.8S1679.3,149.6,1678.3,149.2Z" transform="translate(-1652.7 -116)" style="fill:#fff"/><path d="M1684.9,147.9l0.2-.2a3.6,3.6,0,0,1,2.3,1.6l-1.2.6A4.8,4.8,0,0,0,1684.9,147.9Z" transform="translate(-1652.7 -116)" style="fill:#fff"/><path d="M1690.1,148.1a24.9,24.9,0,0,1-.9,2.6h0.4a32.5,32.5,0,0,0,2.2-2.5h-1.7Z" transform="translate(-1652.7 -116)" style="fill:#fff"/><polygon points="24.7 42.6 27.5 41.3 27.8 41.7 25.6 44.2 24.7 42.6" style="fill:#fff"/><path d="M1681.5,157s0.7,1.6,4.7,1.7a48.8,48.8,0,0,0,8-.2v1.1s-11.2,1.2-12.8-2.3Z" transform="translate(-1652.7 -116)" style="fill:#fff"/><rect x="31.2" y="35.5" width="1.4" height="6.45" style="fill:#fff"/><rect x="39.4" y="36.1" width="1.4" height="5.84" style="fill:#fff"/><path d="M1682.8,162.9l0.2-.2a4.7,4.7,0,0,1,2.6,1.8l-1.1.9S1683.2,163.1,1682.8,162.9Z" transform="translate(-1652.7 -116)" style="fill:#fff"/><path d="M1689.1,160.3h1.4v4.7a1.4,1.4,0,0,1-.5,1.2,1.3,1.3,0,0,1-.9.3,1.4,1.4,0,0,1-.5-0.8,1.4,1.4,0,0,0-1-.3V165h0.9a0.5,0.5,0,0,0,.6-0.5C1689.1,163.9,1689.1,160.3,1689.1,160.3Z" transform="translate(-1652.7 -116)" style="fill:#fff"/><rect x="0.7" y="35.1" width="8.8" height="0.44" style="fill:#fff"/><rect x="11" y="33.4" width="5.4" height="0.43" style="fill:#fff"/><rect x="11.3" y="40.6" width="6.2" height="0.4" style="fill:#fff"/><rect x="4.1" y="32.2" width="1.4" height="6.44" style="fill:#fff"/><rect x="10.4" y="32.4" width="1.3" height="17.76" style="fill:#fff"/><rect x="4.1" y="42" width="1.4" height="8.3" style="fill:#fff"/><path d="M1660.1,151.1a1.5,1.5,0,0,0,.8-1h1.4v1.2H1660v-0.2Z" transform="translate(-1652.7 -116)" style="fill:#fff"/><path d="M1660.1,161.1a1.5,1.5,0,0,0,.8-1h1.4v1.2H1660v-0.2Z" transform="translate(-1652.7 -116)" style="fill:#fff"/><path d="M1667.6,149.5a1.5,1.5,0,0,0,.8-1h1.4v1.2h-2.2v-0.2Z" transform="translate(-1652.7 -116)" style="fill:#fff"/><path d="M1660.1,157.7a1.5,1.5,0,0,0,.8-1h1.4v1.2h-2.2v-0.2Z" transform="translate(-1652.7 -116)" style="fill:#fff"/><path d="M1660.1,154.4a1.5,1.5,0,0,0,.8-1h1.4v1.2H1660v-0.2Z" transform="translate(-1652.7 -116)" style="fill:#fff"/><rect y="38.4" width="9.6" height="0.43" style="fill:#fff"/><rect x="0.1" y="41.7" width="9.5" height="0.43" style="fill:#fff"/><path d="M1660.6,157.7a1.2,1.2,0,0,0,.6-0.8h1.1v0.9h-1.8v-0.2Z" transform="translate(-1652.7 -116)" style="fill:#fff"/><rect x="0.7" y="45" width="8.8" height="0.44" style="fill:#fff"/><path d="M1654.7,155.3l0.3-.2a10.4,10.4,0,0,1,1.6,2.2l-1.1.5A13.7,13.7,0,0,0,1654.7,155.3Z" transform="translate(-1652.7 -116)" style="fill:#fff"/><path d="M1658.9,155l1.7,0.7s-1.6,1.7-2.1,2.1h-0.2A18.8,18.8,0,0,0,1658.9,155Z" transform="translate(-1652.7 -116)" style="fill:#fff"/><path d="M1668.4,149.4v4.8a0.5,0.5,0,0,1-.5.6h-0.6v0.3s0.8,0.1.8,0.5,1.6,0.8,1.6-1.5v-4.9h-1.4Z" transform="translate(-1652.7 -116)" style="fill:#fff"/><path d="M1668.8,156.6s-0.5,5.7-4,9.7v0.2a17.2,17.2,0,0,0,5.3-9.8h-1.5Z" transform="translate(-1652.7 -116)" style="fill:#fff"/><path d="M1665.3,157.6a10.9,10.9,0,0,0,5.8,7.4l-1.1,1.4s-4.1-2-5-8.8h0.3Z" transform="translate(-1652.7 -116)" style="fill:#fff"/><path d="M1654.7,173.2h0.5V170h-1v0.6h-0.5v-1.1h3.5v1.1h-0.5V170h-1v3.2h0.5v0.5h-1.6v-0.5Z" transform="translate(-1652.7 -116)" style="fill:#fff"/><path d="M1658.9,173.2h0.5V170h-0.5v-0.4h1.6V170H1660v1.4h2.1V170h-0.5v-0.4h1.6V170h-0.5v3.2h0.5v0.5h-1.6v-0.5h0.5v-1.4H1660v1.4h0.5v0.5h-1.6v-0.5Z" transform="translate(-1652.7 -116)" style="fill:#fff"/><path d="M1665,173.2h0.5V170H1665v-0.4h3v1h-0.5V170h-1.4v1.3h1.5v0.5h-1.5v1.4h1.5v-0.5h0.5v1H1665v-0.5Z" transform="translate(-1652.7 -116)" style="fill:#fff"/><path d="M1676.9,173.2h0.5V170h-0.5v-0.4h2.5a1,1,0,0,1,.7,1.1,1.1,1.1,0,0,1-.8,1.2h0l0.2,0.2,0.6,1h0.4v0.5h-0.3a0.5,0.5,0,0,1-.6-0.3l-0.6-1.1a0.4,0.4,0,0,0-.4-0.2H1678v1.2h0.5v0.5h-1.6v-0.5Zm1.9-1.7a0.7,0.7,0,0,0,.7-0.8,0.6,0.6,0,0,0-.4-0.6H1678v1.5h0.8Z" transform="translate(-1652.7 -116)" style="fill:#fff"/><path d="M1682.1,173.2h0.5V170h-0.5v-0.4h3v1h-0.5V170h-1.4v1.3h1.5v0.5h-1.5v1.4h1.5v-0.5h0.5v1h-3.1v-0.5Z" transform="translate(-1652.7 -116)" style="fill:#fff"/><path d="M1687,173.2h0.5V170H1687v-0.4h2.6a1.3,1.3,0,0,1-.1,2.4h-1.4v1.1h0.5v0.5H1687v-0.5Zm1.9-1.6h0.5a0.7,0.7,0,0,0,.4-0.7,0.7,0.7,0,0,0-.4-0.7h-1.3v1.6h0.8Z" transform="translate(-1652.7 -116)" style="fill:#fff"/><path d="M1694,169.5a2.1,2.1,0,0,1,2.1,2.1,2.1,2.1,0,1,1-4.2,0A2.1,2.1,0,0,1,1694,169.5Zm0,3.7a1.6,1.6,0,0,0,1.5-1.6,1.5,1.5,0,1,0-3,0A1.6,1.6,0,0,0,1694,173.2Z" transform="translate(-1652.7 -116)" style="fill:#fff"/><path d="M1697.8,173.2h0.5V170h-0.5v-0.4h2.5a1,1,0,0,1,.7,1.1,1.1,1.1,0,0,1-.8,1.2h0l0.2,0.2,0.6,1h0.4v0.5H1701a0.5,0.5,0,0,1-.6-0.3l-0.6-1.1a0.4,0.4,0,0,0-.4-0.2h-0.5v1.2h0.5v0.5h-1.6v-0.5Zm1.9-1.7a0.7,0.7,0,0,0,.7-0.8,0.6,0.6,0,0,0-.4-0.6h-1.2v1.5h0.8Z" transform="translate(-1652.7 -116)" style="fill:#fff"/><path d="M1703.8,173.2h0.5V170h-1v0.6h-0.5v-1.1h3.5v1.1h-0.5V170h-1v3.2h0.5v0.5h-1.6v-0.5Z" transform="translate(-1652.7 -116)" style="fill:#fff"/><path d="M1708,173.2h0.5V170H1708v-0.4h3v1h-0.5V170h-1.4v1.3h1.5v0.5h-1.5v1.4h1.5v-0.5h0.5v1H1708v-0.5Z" transform="translate(-1652.7 -116)" style="fill:#fff"/><path d="M1712.9,173.2h0.5V170h-0.5v-0.4h2.5a1,1,0,0,1,.7,1.1,1.1,1.1,0,0,1-.8,1.2h0l0.2,0.2,0.6,1h0.4v0.5h-0.3a0.5,0.5,0,0,1-.6-0.3l-0.6-1.1a0.4,0.4,0,0,0-.4-0.2H1714v1.2h0.5v0.5h-1.6v-0.5Zm1.9-1.7a0.7,0.7,0,0,0,.7-0.8,0.6,0.6,0,0,0-.4-0.6H1714v1.5h0.8Z" transform="translate(-1652.7 -116)" style="fill:#fff"/></svg>