<?xml version="1.0" encoding="utf-8"?>
<!-- Generator: Adobe Illustrator 19.2.1, SVG Export Plug-In . SVG Version: 6.00 Build 0)  -->
<svg version="1.1" xmlns="http://www.w3.org/2000/svg" xmlns:xlink="http://www.w3.org/1999/xlink" x="0px" y="0px"
	 viewBox="0 0 813.208 1250.943" style="enable-background:new 0 0 813.208 1250.943;" xml:space="preserve">
<g id="圖層_1">
</g>
<g id="中鋼中龍">
	<g>
		<g>
			<g>
				<g>
					<g id="XMLID_163_">
						<path id="XMLID_165_" style="fill:#808080;" d="M326.123,207.097l7.88-40.175c-16.046,0-29.148,12.608-29.939,28.458
							c-0.013,0-0.025-0.002-0.038-0.002c-3.359,0-6.083,2.723-6.083,6.082s2.723,6.082,6.083,6.082c0.641,0,1.258-0.1,1.839-0.284
							c4.217,11.45,15.223,19.618,28.138,19.618v-19.779H326.123z"/>
						<path id="XMLID_164_" style="fill:#999999;" d="M363.981,195.378c-0.013,0-0.025,0.002-0.038,0.002
							c-0.791-15.85-13.893-28.458-29.939-28.458l-7.88,40.175h7.88v19.779c12.915,0,23.921-8.168,28.138-19.618
							c0.581,0.185,1.198,0.284,1.839,0.284c3.359,0,6.082-2.723,6.082-6.082S367.34,195.378,363.981,195.378z"/>
					</g>
					<path id="XMLID_158_" style="fill:#1D1D1B;" d="M332.435,218.681c-4.907,0-6.902-3.306-6.985-3.447
						c-0.272-0.465-0.117-1.062,0.349-1.336c0.463-0.271,1.059-0.117,1.333,0.344c0.072,0.117,1.568,2.487,5.304,2.487
						c3.769,0,5.077-2.417,5.089-2.441c0.25-0.479,0.84-0.662,1.318-0.413c0.478,0.25,0.662,0.84,0.413,1.317
						C339.181,215.335,337.373,218.681,332.435,218.681z"/>
					<circle id="XMLID_157_" style="fill:#EA5B0C;" cx="346.731" cy="209.665" r="2.627"/>
					<circle id="XMLID_155_" style="fill:#EA5B0C;" cx="320.048" cy="209.665" r="2.627"/>
					<path id="XMLID_148_" style="fill:none;" d="M333.122,209.665h-3.034c-1.132,0-2.05,0.917-2.05,2.049l0,0
						c0,1.133,0.918,2.05,2.05,2.05h4.505c1.132,0,2.05-0.917,2.05-2.05l0,0c0-1.132-0.918-2.049-2.05-2.049H333.122z"/>
					<path id="XMLID_147_" style="fill:none;" d="M331.204,174.556l-3.786,3.823c-0.765,0.773-1.953,0.942-2.903,0.412l-1.876-1.046
						c-1.339-0.746-3.025-0.078-3.49,1.383l-0.895,2.812c-0.442,1.389-2.001,2.076-3.325,1.467l-1.569-0.724
						c-1.481-0.683-3.201,0.264-3.417,1.88l-1.253,9.36c-0.204,1.53-1.77,2.481-3.223,1.96l0,0c-0.86-0.309-1.474-1.076-1.586-1.982
						l-0.598-4.822c-1.202-9.686,4.519-18.934,13.756-22.082c4.485-1.529,10.085-2.607,16.964-2.607
						c5.268,0,9.754,0.609,13.545,1.557c10.492,2.621,18.053,11.767,18.676,22.564l0.27,4.664c0.085,1.484-1.172,2.695-2.652,2.553
						l-1.361-0.131c-1.071-0.103-1.946-0.898-2.149-1.956l-1.723-8.981c-0.301-1.57-2.013-2.424-3.448-1.72l-0.345,0.169
						c-1.465,0.719-3.207-0.187-3.462-1.799l-0.344-2.176c-0.261-1.652-2.078-2.551-3.549-1.754l-4.522,2.45
						c-0.901,0.488-2.012,0.357-2.774-0.327l-5.618-5.046C333.584,173.593,332.114,173.636,331.204,174.556z"/>
				</g>
			</g>
			
				<text transform="matrix(0.9988 0 0 1 323.6751 197.38)" style="display:none;fill:#FFFFFF; font-family:'SourceHanSansTWHK-Medium-B5pc-H'; font-size:20px;">父</text>
			
				<text transform="matrix(0.9988 0 0 1 236.3748 207.0383)" style="display:none;fill:#333333; font-family:'SourceHanSansTWHK-Medium-B5pc-H'; font-size:20px;">中鋼</text>
		</g>
		<g>
			<g>
				<g>
					<g id="XMLID_116_">
						<path id="XMLID_118_" style="fill:#999999;" d="M462.626,207.097l7.88-40.175c-16.046,0-29.148,12.608-29.939,28.458
							c-0.013,0-0.025-0.002-0.038-0.002c-3.359,0-6.082,2.723-6.082,6.082s2.723,6.082,6.082,6.082c0.641,0,1.259-0.1,1.839-0.284
							c4.217,11.45,15.224,19.618,28.138,19.618v-19.779H462.626z"/>
						<path id="XMLID_117_" style="fill:#B3B3B3;" d="M500.482,195.378c-0.013,0-0.025,0.002-0.038,0.002
							c-0.791-15.85-13.892-28.458-29.938-28.458l-7.88,40.175h7.88v19.779c12.914,0,23.921-8.168,28.138-19.618
							c0.581,0.185,1.198,0.284,1.839,0.284c3.359,0,6.083-2.723,6.083-6.082S503.842,195.378,500.482,195.378z"/>
					</g>
					<path id="XMLID_111_" style="fill:#1D1D1B;" d="M468.937,218.681c-4.907,0-6.902-3.306-6.985-3.447
						c-0.272-0.465-0.117-1.062,0.349-1.336c0.463-0.271,1.059-0.117,1.333,0.344c0.071,0.117,1.568,2.487,5.304,2.487
						c3.769,0,5.077-2.417,5.09-2.441c0.25-0.479,0.84-0.662,1.317-0.413c0.478,0.25,0.662,0.84,0.412,1.317
						C475.682,215.335,473.875,218.681,468.937,218.681z"/>
					<circle id="XMLID_110_" style="fill:#EA5B0C;" cx="483.233" cy="209.665" r="2.627"/>
					<circle id="XMLID_109_" style="fill:#EA5B0C;" cx="456.55" cy="209.665" r="2.626"/>
					<path id="XMLID_156_" style="fill:#1D1D1B;" d="M498.84,195.38c3.018,0,5.364-2.701,4.859-5.678
						c-2.631-15.485-15.838-27.364-31.927-27.96c-0.421-0.016-0.842-0.032-1.267-0.032s-0.846,0.017-1.267,0.032
						c-16.089,0.596-29.296,12.475-31.926,27.96c-0.506,2.977,1.84,5.678,4.859,5.678h0.112l4.539-13.742
						c1.07,0.127,2.166,0.195,3.285,0.195c11.265,0,20.397-6.676,20.397-14.911c0,8.235,9.132,14.911,20.396,14.911
						c1.119,0,2.215-0.068,3.285-0.195L498.84,195.38L498.84,195.38z"/>
				</g>
			</g>
			
				<text transform="matrix(0.9988 0 0 1 459.1765 198.2702)" style="display:none;fill:#FFFFFF; font-family:'SourceHanSansTWHK-Medium-B5pc-H'; font-size:20px;">母</text>
			
				<text transform="matrix(0.9988 0 0 1 530.2629 207.0383)" style="display:none;fill:#333333; font-family:'SourceHanSansTWHK-Medium-B5pc-H'; font-size:20px;">中龍</text>
		</g>
		
			<line style="fill:none;stroke:#CCCCCC;stroke-width:3;stroke-miterlimit:10;" x1="380.755" y1="202.632" x2="422.755" y2="202.632"/>
		
			<line style="fill:none;stroke:#CCCCCC;stroke-width:3;stroke-miterlimit:10;" x1="117.755" y1="264.632" x2="686.755" y2="264.632"/>
		
			<line style="fill:none;stroke:#CCCCCC;stroke-width:3;stroke-miterlimit:10;" x1="401.255" y1="212.132" x2="401.255" y2="316.132"/>
		
			<line style="fill:none;stroke:#CCCCCC;stroke-width:3;stroke-miterlimit:10;" x1="118.255" y1="270.132" x2="118.255" y2="321.132"/>
		
			<line style="fill:none;stroke:#CCCCCC;stroke-width:3;stroke-miterlimit:10;" x1="687.255" y1="270.132" x2="687.255" y2="321.132"/>
	</g>
</g>
<g id="各地電弧爐煉鋼廠">
	<g>
		<g>
			
				<line style="fill:none;stroke:#CCCCCC;stroke-width:3;stroke-miterlimit:10;" x1="233.755" y1="866.632" x2="570.755" y2="866.632"/>
			
				<line style="fill:none;stroke:#CCCCCC;stroke-width:3;stroke-miterlimit:10;" x1="402.255" y1="823.132" x2="402.255" y2="860.132"/>
			
				<line style="fill:none;stroke:#CCCCCC;stroke-width:3;stroke-miterlimit:10;" x1="234.255" y1="872.132" x2="234.255" y2="923.132"/>
			
				<line style="fill:none;stroke:#CCCCCC;stroke-width:3;stroke-miterlimit:10;" x1="571.255" y1="872.132" x2="571.255" y2="923.132"/>
		</g>
		<g>
			<g>
			</g>
			<g id="XMLID_176_">
				<path id="XMLID_178_" style="fill:#808080;" d="M485.112,757.565l7.881-40.175c-16.047,0-29.148,12.607-29.94,28.458
					c-0.013-0.001-0.025-0.002-0.038-0.002c-3.358,0-6.082,2.724-6.082,6.082c0,3.359,2.724,6.083,6.082,6.083
					c0.642,0,1.259-0.102,1.839-0.285c4.218,11.451,15.224,19.617,28.139,19.617v-19.778H485.112z"/>
				<path id="XMLID_177_" style="fill:#CCCCCC;" d="M522.969,745.846c-0.013,0-0.025,0.001-0.038,0.002
					c-0.791-15.851-13.893-28.458-29.939-28.458l-7.881,40.175h7.881v19.778c12.914,0,23.92-8.166,28.138-19.617
					c0.58,0.184,1.197,0.285,1.839,0.285c3.359,0,6.082-2.724,6.082-6.083C529.052,748.57,526.329,745.846,522.969,745.846z"/>
			</g>
			<path id="XMLID_171_" style="fill:#1D1D1B;" d="M491.424,769.149c-4.906,0-6.901-3.306-6.984-3.446
				c-0.273-0.466-0.117-1.064,0.348-1.336c0.464-0.272,1.06-0.119,1.333,0.342c0.072,0.118,1.568,2.488,5.304,2.488
				c3.77,0,5.077-2.417,5.09-2.442c0.25-0.477,0.841-0.662,1.317-0.412c0.478,0.25,0.663,0.84,0.413,1.317
				C498.17,765.803,496.362,769.149,491.424,769.149z"/>
			<circle id="XMLID_170_" style="fill:#EA5B0C;" cx="505.72" cy="760.132" r="2.627"/>
			<circle id="XMLID_152_" style="fill:#EA5B0C;" cx="479.037" cy="760.132" r="2.627"/>
			<path id="XMLID_145_" style="fill:#373C3B;" d="M493.162,730.677c6.307,0.819,9.931-7.475,9.931-7.475s0.574,7.648,5.254,11.82
				c4.68,4.172,9.547,2.318,9.547,2.318s0.881,8.898,5.076,8.505c4.195-0.394,7.904-3.175,7.209-8.042
				c-0.695-4.867-4.173-8.808-9.503-8.576c0,0,1.622-8.111-4.636-14.37c-6.258-6.258-18.3-5.675-20.8-0.927
				c0,0-7.246-11.125-20.165-5.795c-10.518,4.34-7.94,15.993-7.94,15.993s-10.201,1.159-11.59,11.821
				c-1.284,9.869,7.471,9.895,7.471,9.895s4.351-1.784,6.205-5.956c1.854-4.172,1.016-7.185,1.016-7.185s3.857,0.116,8.025-2.027
				c4.17-2.145,6.043-7.012,6.043-7.012S485.876,729.73,493.162,730.677z"/>
			<g>
				<g id="XMLID_174_">
					<path id="XMLID_179_" style="fill:#808080;" d="M394.527,757.565l7.881-40.175c-16.047,0-29.148,12.607-29.939,28.458
						c-0.013-0.001-0.025-0.002-0.038-0.002c-3.359,0-6.082,2.724-6.082,6.082c0,3.359,2.723,6.083,6.082,6.083
						c0.641,0,1.258-0.102,1.839-0.285c4.217,11.451,15.224,19.617,28.138,19.617v-19.778H394.527z"/>
					<path id="XMLID_175_" style="fill:#CCCCCC;" d="M432.385,745.846c-0.013,0-0.025,0.001-0.038,0.002
						c-0.791-15.851-13.893-28.458-29.939-28.458l-7.881,40.175h7.881v19.778c12.914,0,23.921-8.166,28.138-19.617
						c0.58,0.184,1.197,0.285,1.839,0.285c3.359,0,6.082-2.724,6.082-6.083C438.467,748.57,435.744,745.846,432.385,745.846z"/>
				</g>
				<path id="XMLID_173_" style="fill:#1D1D1B;" d="M400.839,769.149c-4.907,0-6.902-3.306-6.985-3.446
					c-0.273-0.466-0.117-1.064,0.348-1.336c0.463-0.272,1.059-0.119,1.333,0.342c0.072,0.118,1.568,2.488,5.304,2.488
					c3.769,0,5.077-2.417,5.09-2.442c0.25-0.477,0.84-0.662,1.318-0.412c0.478,0.25,0.662,0.84,0.412,1.317
					C407.585,765.803,405.777,769.149,400.839,769.149z"/>
				<circle id="XMLID_172_" style="fill:#EA5B0C;" cx="415.135" cy="760.132" r="2.627"/>
				<circle id="XMLID_149_" style="fill:#EA5B0C;" cx="388.452" cy="760.132" r="2.627"/>
				<path id="XMLID_146_" style="fill:#373C3B;" d="M402.578,730.677c6.306,0.819,9.93-7.475,9.93-7.475s0.574,7.648,5.254,11.82
					c4.681,4.172,9.548,2.318,9.548,2.318s0.88,8.898,5.075,8.505c4.195-0.394,7.904-3.175,7.209-8.042
					c-0.695-4.867-4.172-8.808-9.503-8.576c0,0,1.622-8.111-4.636-14.37c-6.258-6.258-18.3-5.675-20.8-0.927
					c0,0-7.246-11.125-20.165-5.795c-10.517,4.34-7.941,15.993-7.941,15.993s-10.201,1.159-11.589,11.821
					c-1.285,9.869,7.471,9.895,7.471,9.895s4.35-1.784,6.205-5.956c1.854-4.172,1.016-7.185,1.016-7.185s3.856,0.116,8.025-2.027
					c4.17-2.145,6.043-7.012,6.043-7.012S395.291,729.73,402.578,730.677z"/>
			</g>
			<g>
				<g id="XMLID_184_">
					<path id="XMLID_186_" style="fill:#808080;" d="M303.943,757.565l7.88-40.175c-16.046,0-29.148,12.607-29.939,28.458
						c-0.013-0.001-0.025-0.002-0.038-0.002c-3.359,0-6.082,2.724-6.082,6.082c0,3.359,2.723,6.083,6.082,6.083
						c0.641,0,1.259-0.102,1.839-0.285c4.217,11.451,15.224,19.617,28.138,19.617v-19.778H303.943z"/>
					<path id="XMLID_185_" style="fill:#CCCCCC;" d="M341.8,745.846c-0.013,0-0.025,0.001-0.038,0.002
						c-0.791-15.851-13.892-28.458-29.938-28.458l-7.88,40.175h7.88v19.778c12.914,0,23.921-8.166,28.138-19.617
						c0.58,0.184,1.198,0.285,1.839,0.285c3.359,0,6.083-2.724,6.083-6.083C347.882,748.57,345.159,745.846,341.8,745.846z"/>
				</g>
				<path id="XMLID_183_" style="fill:#1D1D1B;" d="M310.254,769.149c-4.907,0-6.902-3.306-6.985-3.446
					c-0.272-0.466-0.117-1.064,0.349-1.336c0.463-0.272,1.059-0.119,1.332,0.342c0.072,0.118,1.568,2.488,5.304,2.488
					c3.769,0,5.077-2.417,5.09-2.442c0.25-0.477,0.84-0.662,1.318-0.412c0.478,0.25,0.662,0.84,0.412,1.317
					C317,765.803,315.192,769.149,310.254,769.149z"/>
				<circle id="XMLID_182_" style="fill:#EA5B0C;" cx="324.55" cy="760.132" r="2.627"/>
				<circle id="XMLID_181_" style="fill:#EA5B0C;" cx="297.867" cy="760.132" r="2.627"/>
				<path id="XMLID_180_" style="fill:#373C3B;" d="M311.993,730.677c6.306,0.819,9.93-7.475,9.93-7.475s0.574,7.648,5.254,11.82
					c4.68,4.172,9.547,2.318,9.547,2.318s0.88,8.898,5.075,8.505c4.196-0.394,7.904-3.175,7.209-8.042
					c-0.695-4.867-4.172-8.808-9.503-8.576c0,0,1.622-8.111-4.636-14.37c-6.258-6.258-18.299-5.675-20.8-0.927
					c0,0-7.246-11.125-20.164-5.795c-10.517,4.34-7.941,15.993-7.941,15.993s-10.201,1.159-11.589,11.821
					c-1.285,9.869,7.47,9.895,7.47,9.895s4.35-1.784,6.205-5.956c1.854-4.172,1.016-7.185,1.016-7.185s3.856,0.116,8.026-2.027
					c4.169-2.145,6.043-7.012,6.043-7.012S304.706,729.73,311.993,730.677z"/>
			</g>
			
				<text transform="matrix(0.9988 0 0 1 318.1855 807.5325)" style="display:none;fill:#333333; font-family:'SourceHanSansTWHK-Medium-B5pc-H'; font-size:20px;">各地電弧爐煉鋼廠</text>
		</g>
	</g>
</g>
<g id="爐碴與他們的好朋友">
	<rect x="158.755" y="21.132" style="fill:#2C3E50;" width="464" height="76"/>
	<rect x="167.307" y="42.433" style="fill:none;" width="447.008" height="33.488"/>
	
		<text transform="matrix(1 0 0 1 221.2103 69.9524)" style="display:none;fill:#FFFFFF; font-family:'LiHeiPro'; font-size:32px; letter-spacing:6;">爐碴與他們的好朋友</text>
	<g>
		<circle style="fill:#24CEB1;" cx="186.31" cy="59.444" r="6.666"/>
		<circle style="fill:#24CEB1;" cx="595.311" cy="59.444" r="6.667"/>
	</g>
</g>
<g id="脫硫渣次郎">
	<g>
		
			<image style="overflow:visible;opacity:0.05;" width="184" height="73" xlink:href="50B1B792DA51ADEE.png"  transform="matrix(1 0 0 1 309.7547 562.1321)">
		</image>
		<g>
			<path style="fill:#24CEB1;" d="M456.747,577.132H346.763c-11.879,0-21.508,9.621-21.508,21.5s9.629,21.5,21.508,21.5h109.984
				c11.879,0,21.508-9.621,21.508-21.5S468.626,577.132,456.747,577.132z"/>
		</g>
	</g>
	<g>
		
			<image style="overflow:visible;opacity:0.05;" width="184" height="73" xlink:href="50B1B792DA51ADF2.png"  transform="matrix(1 0 0 1 309.7547 556.1321)">
		</image>
		<g>
			<path style="fill:#2C3E50;" d="M456.747,571.132H346.763c-11.879,0-21.508,9.621-21.508,21.5s9.629,21.5,21.508,21.5h109.984
				c11.879,0,21.508-9.621,21.508-21.5S468.626,571.132,456.747,571.132z"/>
		</g>
	</g>
	<g style="display:none;">
		<rect x="365.349" y="583.499" style="display:inline;fill:none;" width="100.812" height="17.344"/>
		
			<text transform="matrix(0.9988 0 0 1 369.0096 599.3396)" style="display:inline;fill:#FFFFFF; font-family:'SourceHanSansTWHK-Medium-B5pc-H'; font-size:18px;">脫硫渣次郎</text>
	</g>
	<g>
		<defs>
			<circle id="SVGID_1_" cx="404.755" cy="432.973" r="104.62"/>
		</defs>
		<clipPath id="SVGID_2_">
			<use xlink:href="#SVGID_1_"  style="overflow:visible;"/>
		</clipPath>
		<radialGradient id="SVGID_3_" cx="404.7547" cy="432.9729" r="104.6201" gradientUnits="userSpaceOnUse">
			<stop  offset="0" style="stop-color:#FFFFFF"/>
			<stop  offset="0.1358" style="stop-color:#FFDFCE"/>
			<stop  offset="0.272" style="stop-color:#FFC3A4"/>
			<stop  offset="0.4114" style="stop-color:#FFAD82"/>
			<stop  offset="0.5525" style="stop-color:#FF9B67"/>
			<stop  offset="0.696" style="stop-color:#FF8F54"/>
			<stop  offset="0.8432" style="stop-color:#FF8749"/>
			<stop  offset="1" style="stop-color:#FF8545"/>
		</radialGradient>
		<circle style="opacity:0.54;clip-path:url(#SVGID_2_);fill:url(#SVGID_3_);" cx="404.755" cy="432.973" r="104.62"/>
		<path id="XMLID_207_" style="clip-path:url(#SVGID_2_);fill:none;stroke:#B3B3B3;stroke-width:14;stroke-miterlimit:10;" d="
			M475.618,495.757c9.96,17.711,18.838,45.114,21.725,87.458"/>
		<path id="XMLID_206_" style="clip-path:url(#SVGID_2_);fill:none;stroke:#B3B3B3;stroke-width:14;stroke-miterlimit:10;" d="
			M334.922,493.961c-10.371,17.629-19.763,45.424-22.756,89.187"/>
		<g id="XMLID_193_" style="clip-path:url(#SVGID_2_);">
			<path id="XMLID_195_" style="fill:#319500;" d="M432.511,452.415c-2.727,14.42-15.385,25.329-30.598,25.329
				c-14.415,0-26.539-9.796-30.089-23.092c-16.787,7.659-28.46,24.579-28.46,44.235v95.445h123.464v-95.445
				C466.828,477.015,452.381,458.519,432.511,452.415z"/>
			<path id="XMLID_194_" style="fill:#999999;" d="M401.912,477.744c15.213,0,27.872-10.909,30.598-25.329
				c-4.521-1.39-9.32-2.14-14.295-2.14h-26.24c-7.19,0-14.011,1.574-20.152,4.377C375.373,467.948,387.497,477.744,401.912,477.744z
				"/>
		</g>
		<g style="clip-path:url(#SVGID_2_);">
			<path style="fill:#CCCCCC;" d="M445.23,414.141c-0.251-0.141-0.479-0.335-0.68-0.605c-0.874-1.178-0.701-4.607-0.958-6.082
				c-0.912-5.234-2.462-10.099-3.953-15.132c-1.74-5.874-4.068-11.696-8.527-16.061c-4.879-4.779-10.285-9.36-17.07-11.255
				l-0.007,0.035c-2.186-0.61-4.513-0.982-7.014-0.95c-1.096,0.015-2.155,0.199-3.201,0.348l-1.671,8.693l-11.752,60h11.358v29.371
				c5.352,0,9.695-0.78,13.874-2.189c12.952-4.368,22.524-14.801,27.461-27.34c0.995,0.17,2.76,0.896,3.729,0.654
				c0.034,0.004,0.067,0.009,0.104,0.009c5.016,0,9.08-4.065,9.08-9.081c0.001-4.115-3.655-9.167-7.808-9.883
				C447.155,414.493,446.072,414.614,445.23,414.141z"/>
			<path style="fill:#999999;" d="M402.159,373.132c0.01-0.048,0.015-0.098,0.019-0.146l1.642-8.547
				c-4.375,0.621-8.402,2.132-12.785,2.738c-6.69,0.926-11.568,0.336-16.96,4.981c-5.23,4.507-8.707,10.684-11.759,16.778
				c-2.058,4.108-4.033,8.508-5.131,13.059c-0.565,2.344-0.905,4.746-0.906,7.159c0,1.221,0.083,2.442,0.26,3.65
				c0.092,0.627,0.022,1.984,0.249,2.536c-0.074,0.066-0.146,0.132-0.192,0.209c-2.908,0.273-5.433,1.896-6.89,4.256
				c-0.011,0.053-0.019,0.102-0.029,0.154c-0.008,0.017-0.02,0.033-0.027,0.05c0.015-0.073,0.023-0.142,0.038-0.215
				c-0.855,1.386-1.361,3.013-1.361,4.761c0,1.688,0.468,3.263,1.273,4.628c1.582,2.665,4.481,4.456,7.806,4.456
				c0.958,0,1.878-0.152,2.747-0.426c-0.137,0.043,2.37,5.406,2.634,5.878c1.764,3.144,4.673,5.766,7.257,8.25
				c1.624,1.562,3.394,2.936,5.091,4.399c1.567,1.353,2.952,2.942,4.562,4.279c5.756,4.778,13.264,7.543,20.779,6.656
				c0.482-0.057,0.965-0.118,1.448-0.179c-0.062,0-0.122-0.006-0.168-0.029v-29.337h-11.358l11.675-59.603
				c0.051-0.115,0.073-0.211,0.074-0.334C402.151,373.179,402.153,373.164,402.159,373.132z"/>
		</g>
		<path id="XMLID_192_" style="clip-path:url(#SVGID_2_);fill:#1D1D1B;" d="M399.289,442.926c7.327,0,10.306,4.937,10.43,5.147
			c0.409,0.693,0.175,1.587-0.521,1.994c-0.69,0.406-1.58,0.177-1.988-0.512c-0.108-0.176-2.342-3.714-7.921-3.714
			c-5.628,0-7.581,3.608-7.599,3.644c-0.374,0.714-1.254,0.99-1.968,0.616c-0.714-0.373-0.988-1.253-0.616-1.968
			C389.218,447.921,391.917,442.926,399.289,442.926z"/>
		<circle id="XMLID_191_" style="clip-path:url(#SVGID_2_);fill:#EA5B0C;" cx="420.916" cy="436.805" r="3.922"/>
		<circle id="XMLID_190_" style="clip-path:url(#SVGID_2_);fill:#EA5B0C;" cx="381.076" cy="436.805" r="3.922"/>
		<g style="clip-path:url(#SVGID_2_);">
			<ellipse style="fill:#1A1A1A;" cx="381.681" cy="407.701" rx="3.608" ry="5.594"/>
			<ellipse style="fill:#1A1A1A;" cx="417.178" cy="407.701" rx="3.608" ry="5.594"/>
		</g>
		<path id="XMLID_205_" style="clip-path:url(#SVGID_2_);fill:none;stroke:#094745;stroke-width:14;stroke-miterlimit:10;" d="
			M439.493,463.648c0,0,19.56,2.658,36.125,32.109"/>
		<path id="XMLID_196_" style="clip-path:url(#SVGID_2_);fill:none;stroke:#094745;stroke-width:14;stroke-miterlimit:10;" d="
			M370.012,463.648c0,0-18.758,2.549-35.09,30.314"/>
		<path id="XMLID_209_" style="clip-path:url(#SVGID_2_);fill:#333333;" d="M440.345,404.32c4.289,0,7.636-3.441,6.918-7.232
			c-3.738-19.768-22.537-40.486-45.442-41.248c-0.599-0.02-1.198-0.041-1.802-0.041c-0.604,0-1.203,0.022-1.802,0.041
			c-22.904,0.762-41.704,21.48-45.442,41.248c-0.717,3.791,2.629,7.232,6.918,7.232h0.161l6.461-17.537
			c1.522,0.162,3.083,0.25,4.675,0.25c4.457,0,8.68-0.658,12.454-1.836c10.715-3.34,22.436-3.34,33.151,0
			c3.773,1.178,7.996,1.836,12.453,1.836c1.593,0,3.152-0.088,4.675-0.25L440.345,404.32L440.345,404.32z"/>
	</g>
	<g>
		<circle style="fill:#FFFFFF;" cx="353.005" cy="592.382" r="11.875"/>
		<g>
			<g>
				<path style="fill:#094745;" d="M354.074,597.304c0-0.23,0.088-0.463,0.265-0.639l4.494-4.496l-4.494-4.494
					c-0.354-0.353-0.354-0.926,0-1.279c0.353-0.353,0.926-0.353,1.279,0l5.134,5.134c0.354,0.353,0.354,0.926,0,1.279l-5.134,5.136
					c-0.354,0.354-0.926,0.354-1.279,0C354.163,597.767,354.074,597.536,354.074,597.304z"/>
			</g>
			<g>
				<path style="fill:#094745;" d="M344.417,592.169c0-0.499,0.405-0.904,0.905-0.904h9.047c0.499,0,0.904,0.405,0.904,0.904
					c0,0.5-0.405,0.905-0.904,0.905h-9.047C344.822,593.074,344.417,592.669,344.417,592.169z"/>
			</g>
		</g>
	</g>
</g>
<g id="高爐石君">
	<g>
		
			<image style="overflow:visible;opacity:0.05;" width="174" height="73" xlink:href="50B1B792DA51ADF5.png"  transform="matrix(1 0 0 1 30.7547 562.1321)">
		</image>
		<g>
			<path style="fill:#24CEB1;" d="M167.746,577.132H67.763c-11.879,0-21.508,9.621-21.508,21.5s9.629,21.5,21.508,21.5h99.983
				c11.879,0,21.508-9.621,21.508-21.5S179.625,577.132,167.746,577.132z"/>
		</g>
	</g>
	<g>
		
			<image style="overflow:visible;opacity:0.05;" width="174" height="73" xlink:href="50B1B792DA51ADF6.png"  transform="matrix(1 0 0 1 30.7547 556.1321)">
		</image>
		<g>
			<path style="fill:#2C3E50;" d="M167.746,571.132H67.763c-11.879,0-21.508,9.621-21.508,21.5s9.629,21.5,21.508,21.5h99.983
				c11.879,0,21.508-9.621,21.508-21.5S179.625,571.132,167.746,571.132z"/>
		</g>
	</g>
	<g style="display:none;">
		<rect x="68.037" y="583.499" style="display:inline;fill:none;" width="127.511" height="17.344"/>
		
			<text transform="matrix(0.9988 0 0 1 94.4871 599.3396)" style="display:inline;fill:#FFFFFF; font-family:'SourceHanSansTWHK-Medium-B5pc-H'; font-size:18px;">高爐石君</text>
	</g>
	<g>
		<defs>
			<circle id="SVGID_4_" cx="125.755" cy="432.973" r="104.62"/>
		</defs>
		<clipPath id="SVGID_5_">
			<use xlink:href="#SVGID_4_"  style="overflow:visible;"/>
		</clipPath>
		<radialGradient id="SVGID_6_" cx="125.7547" cy="432.9729" r="104.6201" gradientUnits="userSpaceOnUse">
			<stop  offset="0" style="stop-color:#FFFFFF"/>
			<stop  offset="0.1358" style="stop-color:#FFDFCE"/>
			<stop  offset="0.272" style="stop-color:#FFC3A4"/>
			<stop  offset="0.4114" style="stop-color:#FFAD82"/>
			<stop  offset="0.5525" style="stop-color:#FF9B67"/>
			<stop  offset="0.696" style="stop-color:#FF8F54"/>
			<stop  offset="0.8432" style="stop-color:#FF8749"/>
			<stop  offset="1" style="stop-color:#FF8545"/>
		</radialGradient>
		<circle style="opacity:0.54;clip-path:url(#SVGID_5_);fill:url(#SVGID_6_);" cx="125.755" cy="432.973" r="104.62"/>
		<path id="XMLID_270_" style="clip-path:url(#SVGID_5_);fill:#1D1D1B;" d="M82.06,394.472v-39.386c0-3.673,3.852-6.104,7.149-4.487
			c2.104,1.033,3.914,1.754,4.156,1.32c0.33-0.592,2.634-3.654,4.69-6.354c1.785-2.345,5.201-2.637,7.358-0.63l1.77,1.647
			c2.134,1.986,5.51,1.724,7.312-0.568l2.486-3.163c1.865-2.372,5.393-2.556,7.494-0.39l3.858,3.977
			c1.612,1.661,4.156,1.994,6.141,0.803l2.341-1.406c2.616-1.57,6.016-0.442,7.174,2.38l0.428,1.041
			c1.203,2.931,4.8,4.009,7.417,2.224l0,0c3.241-2.211,7.647,0.018,7.788,3.938l1.398,39.057c0,0-8.801-27.957-41.357-27.957
			C87.106,366.515,82.06,394.472,82.06,394.472z"/>
		<path id="XMLID_204_" style="clip-path:url(#SVGID_5_);fill:none;stroke:#999999;stroke-width:14;stroke-miterlimit:10;" d="
			M196.618,495.757c9.961,17.711,18.839,45.114,21.726,87.458"/>
		<path id="XMLID_201_" style="clip-path:url(#SVGID_5_);fill:none;stroke:#999999;stroke-width:14;stroke-miterlimit:10;" d="
			M55.922,493.961c-10.371,17.629-19.763,45.424-22.756,89.187"/>
		<path id="XMLID_202_" style="clip-path:url(#SVGID_5_);fill:none;stroke:#29235C;stroke-width:14;stroke-miterlimit:10;" d="
			M160.493,463.648c0,0,19.561,2.658,36.124,32.109"/>
		<path id="XMLID_200_" style="clip-path:url(#SVGID_5_);fill:none;stroke:#29235C;stroke-width:14;stroke-miterlimit:10;" d="
			M91.012,463.648c0,0-18.758,2.549-35.09,30.314"/>
		<g id="XMLID_197_" style="clip-path:url(#SVGID_5_);">
			<path id="XMLID_199_" style="fill:#3BDCFF;" d="M153.51,452.415c-2.727,14.42-15.385,25.329-30.598,25.329
				c-14.415,0-26.539-9.796-30.089-23.092c-16.787,7.659-28.46,24.579-28.46,44.235v95.445h123.465v-95.445
				C187.828,477.015,173.381,458.519,153.51,452.415z"/>
			<path id="XMLID_198_" style="fill:#808080;" d="M122.912,477.744c15.213,0,27.871-10.909,30.598-25.329
				c-4.521-1.39-9.319-2.14-14.294-2.14h-26.24c-7.19,0-14.011,1.574-20.152,4.377C96.373,467.948,108.497,477.744,122.912,477.744z
				"/>
		</g>
		<g style="clip-path:url(#SVGID_5_);">
			<path style="fill:#808080;" d="M170.618,415.9c-0.106-0.078-0.225-0.136-0.349-0.17c-0.801-3.502-2.281-7.053-3.886-11.473
				c-3.424-9.431-6.529-20.417-14.27-27.996c-4.88-4.779-10.286-9.36-17.07-11.255l-0.007,0.035c-2.186-0.61-4.512-0.982-7.014-0.95
				c-1.096,0.015-2.155,0.199-3.201,0.348l-1.671,8.693l0,0l-11.752,60h11.358v29.371c5.352,0,9.696-0.78,13.874-2.189
				c2.069-0.115,4.441-1.152,6.271-2.152c4.332-1.564,8.393-3.63,11.938-6.439c6.131-4.857,9.915-11.32,12.727-18.026
				c0.011-0.005,0.022-0.011,0.033-0.015c0.084-0.003,0.147-0.033,0.22-0.053c0.035,0.004,0.068,0.009,0.104,0.009
				c5.016,0,9.081-4.065,9.081-9.081C177.003,420.481,174.313,417.05,170.618,415.9z"/>
			<path style="fill:#B3B3B3;" d="M123.159,373.132c0.01-0.048,0.015-0.098,0.019-0.146l1.643-8.547
				c-4.374,0.621-8.402,2.132-12.785,2.738c-6.691,0.926-11.568,0.336-16.96,4.981c-5.23,4.507-8.707,10.684-11.759,16.778
				c-2.058,4.108-4.033,8.508-5.131,13.059c-0.565,2.344-0.905,4.746-0.906,7.159c-0.001,1.221,0.083,2.442,0.26,3.65
				c0.092,0.627,0.021,1.984,0.249,2.536c-0.074,0.066-0.146,0.132-0.192,0.209c-2.908,0.273-5.433,1.896-6.89,4.256
				c-0.011,0.053-0.019,0.102-0.029,0.154c-0.008,0.017-0.02,0.033-0.027,0.05c0.015-0.073,0.023-0.142,0.038-0.215
				c-0.855,1.386-1.361,3.013-1.361,4.761c0,1.688,0.468,3.263,1.273,4.628c1.582,2.665,4.481,4.456,7.806,4.456
				c0.958,0,1.878-0.152,2.747-0.426c-0.137,0.043,2.37,5.406,2.634,5.878c1.764,3.144,4.673,5.766,7.257,8.25
				c1.624,1.562,3.394,2.936,5.091,4.399c1.567,1.353,2.952,2.943,4.562,4.279c2.906,2.412,6.167,4.471,9.641,5.963
				c3.348,1.439,7.596,1.111,11.139,0.693c0.481-0.057,0.965-0.118,1.448-0.179c-0.062,0-0.122-0.006-0.168-0.029v-29.337h-11.358
				l11.675-59.603c0.051-0.115,0.073-0.211,0.074-0.334C123.151,373.179,123.153,373.164,123.159,373.132z"/>
		</g>
		<path id="XMLID_189_" style="clip-path:url(#SVGID_5_);fill:#1D1D1B;" d="M120.572,450.269c-7.327,0-10.306-4.938-10.43-5.147
			c-0.409-0.694-0.175-1.587,0.521-1.995c0.69-0.406,1.58-0.176,1.988,0.513c0.108,0.176,2.342,3.714,7.921,3.714
			c5.628,0,7.581-3.608,7.599-3.645c0.374-0.713,1.254-0.989,1.968-0.615c0.714,0.373,0.988,1.253,0.616,1.967
			C130.643,445.273,127.944,450.269,120.572,450.269z"/>
		<circle id="XMLID_188_" style="clip-path:url(#SVGID_5_);fill:#EA5B0C;" cx="141.916" cy="436.805" r="3.922"/>
		<circle id="XMLID_187_" style="clip-path:url(#SVGID_5_);fill:#EA5B0C;" cx="102.076" cy="436.805" r="3.922"/>
		<g style="clip-path:url(#SVGID_5_);">
			<ellipse style="fill:#1A1A1A;" cx="102.681" cy="407.701" rx="3.608" ry="5.594"/>
			<ellipse style="fill:#1A1A1A;" cx="138.179" cy="407.701" rx="3.608" ry="5.594"/>
		</g>
	</g>
	<g>
		<circle style="fill:#FFFFFF;" cx="75.005" cy="592.382" r="11.875"/>
		<g>
			<g>
				<path style="fill:#094745;" d="M76.075,597.304c0-0.23,0.088-0.463,0.265-0.639l4.494-4.496l-4.494-4.494
					c-0.354-0.353-0.354-0.926,0-1.279c0.353-0.353,0.926-0.353,1.279,0l5.134,5.134c0.354,0.353,0.354,0.926,0,1.279l-5.134,5.136
					c-0.354,0.354-0.926,0.354-1.279,0C76.163,597.767,76.075,597.536,76.075,597.304z"/>
			</g>
			<g>
				<path style="fill:#094745;" d="M66.417,592.169c0-0.499,0.405-0.904,0.905-0.904h9.047c0.499,0,0.904,0.405,0.904,0.904
					c0,0.5-0.405,0.905-0.904,0.905h-9.047C66.822,593.074,66.417,592.669,66.417,592.169z"/>
			</g>
		</g>
	</g>
</g>
<g id="轉爐石子">
	<g>
		<defs>
			<circle id="SVGID_7_" cx="683.755" cy="432.973" r="104.62"/>
		</defs>
		<clipPath id="SVGID_8_">
			<use xlink:href="#SVGID_7_"  style="overflow:visible;"/>
		</clipPath>
		<radialGradient id="SVGID_9_" cx="683.7547" cy="432.9729" r="104.6201" gradientUnits="userSpaceOnUse">
			<stop  offset="0" style="stop-color:#FFFFFF"/>
			<stop  offset="0.1358" style="stop-color:#FFDFCE"/>
			<stop  offset="0.272" style="stop-color:#FFC3A4"/>
			<stop  offset="0.4114" style="stop-color:#FFAD82"/>
			<stop  offset="0.5525" style="stop-color:#FF9B67"/>
			<stop  offset="0.696" style="stop-color:#FF8F54"/>
			<stop  offset="0.8432" style="stop-color:#FF8749"/>
			<stop  offset="1" style="stop-color:#FF8545"/>
		</radialGradient>
		<circle style="opacity:0.54;clip-path:url(#SVGID_8_);fill:url(#SVGID_9_);" cx="683.755" cy="432.973" r="104.62"/>
		<rect id="XMLID_143_" x="628.71" y="388.262" style="clip-path:url(#SVGID_8_);fill:#1D1D1B;" width="108.984" height="54.95"/>
		<g id="XMLID_136_" style="clip-path:url(#SVGID_8_);">
			<g id="XMLID_140_">
				
					<line id="XMLID_142_" style="fill:none;stroke:#1D1D1B;stroke-width:12.5161;stroke-miterlimit:10;" x1="662.555" y1="685.638" x2="662.555" y2="702.312"/>
				
					<line id="XMLID_141_" style="fill:none;stroke:#CA9E67;stroke-width:12.5161;stroke-miterlimit:10;" x1="662.555" y1="603.71" x2="662.555" y2="685.638"/>
			</g>
			<g id="XMLID_137_">
				
					<line id="XMLID_139_" style="fill:none;stroke:#1D1D1B;stroke-width:12.5161;stroke-miterlimit:10;" x1="708.453" y1="685.638" x2="708.453" y2="702.312"/>
				
					<line id="XMLID_138_" style="fill:none;stroke:#CA9E67;stroke-width:12.5161;stroke-miterlimit:10;" x1="708.453" y1="603.71" x2="708.453" y2="685.638"/>
			</g>
		</g>
		<g id="XMLID_132_" style="clip-path:url(#SVGID_8_);">
			<path id="XMLID_135_" style="fill:none;stroke:#CA9E67;stroke-width:14;stroke-miterlimit:10;" d="M775.538,578.173
				c0.614,9.008,0.947,18.718,0.947,29.185"/>
			<path id="XMLID_134_" style="fill:none;stroke:#B3B3B3;stroke-width:14;stroke-miterlimit:10;" d="M761.836,509.338
				c6.445,16.451,11.648,38.717,13.702,68.835"/>
			<path id="XMLID_133_" style="fill:none;stroke:#A600E1;stroke-width:14;stroke-miterlimit:10;" d="M719.856,463.086
				c0,0,25.201,3.425,41.979,46.252"/>
		</g>
		<g id="XMLID_128_" style="clip-path:url(#SVGID_8_);">
			<path id="XMLID_131_" style="fill:none;stroke:#CA9E67;stroke-width:14;stroke-miterlimit:10;" d="M593.327,578.109
				c-0.617,9.025-0.951,18.758-0.951,29.249"/>
			<path id="XMLID_130_" style="fill:none;stroke:#B3B3B3;stroke-width:14;stroke-miterlimit:10;" d="M607.026,509.334
				c-6.441,16.44-11.643,38.687-13.699,68.775"/>
			<path id="XMLID_129_" style="fill:none;stroke:#A600E1;stroke-width:14;stroke-miterlimit:10;" d="M649.005,463.086
				c0,0-25.2,3.425-41.979,46.248"/>
		</g>
		<path id="XMLID_127_" style="clip-path:url(#SVGID_8_);fill:#999999;" d="M681.559,475.654c15.363,0,28.146-10.5,30.899-24.38
			c-4.565-1.336-9.41-2.06-14.435-2.06h-26.501c-7.263,0-14.15,1.516-20.353,4.213C654.757,466.226,667,475.654,681.559,475.654z"/>
		<path id="XMLID_105_" style="clip-path:url(#SVGID_8_);fill:#A600E1;" d="M744.838,481.891
			c-4.843-14.607-16.999-26.114-32.379-30.617c-2.753,13.88-15.536,24.38-30.899,24.38c-14.56,0-26.803-9.428-30.389-22.227
			c-12.553,5.459-22.268,15.805-26.469,28.486c-1.003,3.03-1.402,12.214-1.534,21.541c-0.169,11.826,1.383,23.677,5.289,34.902
			c4.998,14.367,3.972,30.208-3.205,44.065l-2.824,5.453H747.12l-2.164-3.902c-7.982-14.389-10.121-29.58-5.094-43.957
			c3.812-10.901,6.154-22.221,6.226-33.711C746.152,495.95,745.928,485.184,744.838,481.891z"/>
		<path id="XMLID_104_" style="clip-path:url(#SVGID_8_);fill:#82368C;" d="M607.001,634.757h155.877c3.868,0,6.72-3.614,5.82-7.376
			l-0.981-4.095c-3.646-15.24-11.568-29.121-22.836-40.012l-5.502-5.316H629.886l-3.219,2.945
			c-13.495,12.345-22.49,28.835-25.565,46.863l0,0C600.478,631.421,603.294,634.757,607.001,634.757z"/>
		<circle style="clip-path:url(#SVGID_8_);fill:none;" cx="683.755" cy="432.973" r="104.62"/>
		<path style="clip-path:url(#SVGID_8_);fill:#CCCCCC;" d="M733.363,413.996c-0.281-0.144-0.539-0.341-0.764-0.614
			c-0.982-1.199-0.788-4.688-1.077-6.188c-1.024-5.325-2.766-10.273-4.44-15.393c-1.956-5.976-4.571-11.898-9.581-16.339
			c-5.482-4.86-11.556-9.521-19.179-11.448l-0.008,0.036c-2.456-0.62-5.07-0.999-7.88-0.966c-1.232,0.014-2.423,0.202-3.598,0.354
			l-1.877,8.842l-13.204,61.034h12.761v29.876c6.013,0,10.893-0.793,15.589-2.227c14.552-4.443,25.307-15.057,30.852-27.81
			c1.118,0.174,3.101,0.911,4.191,0.666c0.038,0.004,0.076,0.008,0.116,0.008c5.635,0,10.202-4.135,10.202-9.237
			c0-4.186-4.107-9.325-8.772-10.053C735.526,414.356,734.308,414.478,733.363,413.996z"/>
		<path style="clip-path:url(#SVGID_8_);fill:#999999;" d="M685.158,371.437c0.012-0.049,0.017-0.099,0.02-0.148l1.846-8.693
			c-4.914,0.631-9.439,2.168-14.364,2.785c-7.517,0.942-12.997,0.341-19.055,5.067c-5.876,4.584-9.781,10.866-13.211,17.064
			c-4.192,7.576-5.126,16.816-6.214,26.861c-0.082,0.068-0.163,0.135-0.215,0.214c-3.267,0.277-6.103,1.929-7.741,4.329
			c-0.013,0.053-0.02,0.104-0.033,0.156c-0.01,0.017-0.022,0.033-0.031,0.051c0.017-0.074,0.026-0.143,0.044-0.218
			c-0.962,1.409-1.529,3.063-1.529,4.842c0,1.718,0.525,3.319,1.43,4.708c1.778,2.711,5.035,4.532,8.771,4.532
			c1.076,0,2.109-0.153,3.086-0.433c-0.154,0.043,2.659,5.494,2.96,5.98c7.93,12.819,25.063,25.838,42.346,23.99
			c0.54-0.059,1.109,3.002,1.651,2.941c-0.068-0.001-0.163-3.129-0.163-3.153v-29.181h-12.812l13.117-60.96
			c0.058-0.118,0.082-0.38,0.083-0.505C685.149,371.652,685.151,371.47,685.158,371.437z"/>
		<circle id="XMLID_223_" style="clip-path:url(#SVGID_8_);fill:#EA5B0C;" cx="703.916" cy="436.805" r="3.922"/>
		<circle id="XMLID_221_" style="clip-path:url(#SVGID_8_);fill:#EA5B0C;" cx="664.076" cy="436.805" r="3.922"/>
		<g style="clip-path:url(#SVGID_8_);">
			<ellipse style="fill:#1A1A1A;" cx="664.68" cy="411.701" rx="3.608" ry="5.594"/>
			<ellipse style="fill:#1A1A1A;" cx="700.178" cy="411.701" rx="3.608" ry="5.594"/>
		</g>
		
			<line style="clip-path:url(#SVGID_8_);fill:none;stroke:#1D1D1B;stroke-width:3;stroke-linecap:round;stroke-linejoin:round;stroke-miterlimit:10;" x1="672.755" y1="447.632" x2="691.755" y2="447.632"/>
	</g>
	<g id="XMLID_103_">
		<path id="XMLID_300_" style="fill:#1D1D1B;" d="M695.318,350.283h-24.855c-23.308,0-42.204,18.896-42.204,42.204v0.662h109.267
			v-0.662C737.525,369.179,718.628,350.283,695.318,350.283z"/>
	</g>
	<g>
		
			<image style="overflow:visible;opacity:0.05;" width="174" height="73" xlink:href="50B1B792DA51ADF4.png"  transform="matrix(1 0 0 1 593.7547 562.1321)">
		</image>
		<g>
			<path style="fill:#24CEB1;" d="M730.747,577.132h-99.984c-11.879,0-21.508,9.621-21.508,21.5s9.629,21.5,21.508,21.5h99.984
				c11.879,0,21.508-9.621,21.508-21.5S742.626,577.132,730.747,577.132z"/>
		</g>
	</g>
	<g>
		
			<image style="overflow:visible;opacity:0.05;" width="174" height="73" xlink:href="50B1B792DA51ADF3.png"  transform="matrix(1 0 0 1 593.7547 556.1321)">
		</image>
		<g>
			<path style="fill:#2C3E50;" d="M730.747,571.132h-99.984c-11.879,0-21.508,9.621-21.508,21.5s9.629,21.5,21.508,21.5h99.984
				c11.879,0,21.508-9.621,21.508-21.5S742.626,571.132,730.747,571.132z"/>
		</g>
	</g>
	<g style="display:none;">
		<rect x="631.038" y="583.499" style="display:inline;fill:none;" width="127.51" height="17.344"/>
		
			<text transform="matrix(0.9988 0 0 1 657.4871 599.3396)" style="display:inline;fill:#FFFFFF; font-family:'SourceHanSansTWHK-Medium-B5pc-H'; font-size:18px;">轉爐石子</text>
	</g>
	<g>
		<circle style="fill:#FFFFFF;" cx="637.005" cy="592.382" r="11.875"/>
		<g>
			<g>
				<path style="fill:#094745;" d="M638.075,597.304c0-0.23,0.088-0.463,0.265-0.639l4.494-4.496l-4.494-4.494
					c-0.354-0.353-0.354-0.926,0-1.279c0.353-0.353,0.926-0.353,1.279,0l5.134,5.134c0.354,0.353,0.354,0.926,0,1.279l-5.134,5.136
					c-0.354,0.354-0.926,0.354-1.279,0C638.163,597.767,638.075,597.536,638.075,597.304z"/>
			</g>
			<g>
				<path style="fill:#094745;" d="M628.417,592.169c0-0.499,0.405-0.904,0.905-0.904h9.047c0.499,0,0.904,0.405,0.904,0.904
					c0,0.5-0.405,0.905-0.904,0.905h-9.047C628.822,593.074,628.417,592.669,628.417,592.169z"/>
			</g>
		</g>
	</g>
</g>
<g id="電弧爐碴雙胞胎">
	<g>
		<defs>
			<circle id="SVGID_10_" cx="252.755" cy="1035.973" r="104.62"/>
		</defs>
		<clipPath id="SVGID_11_">
			<use xlink:href="#SVGID_10_"  style="overflow:visible;"/>
		</clipPath>
		<radialGradient id="SVGID_12_" cx="252.7547" cy="1035.9729" r="104.6201" gradientUnits="userSpaceOnUse">
			<stop  offset="0" style="stop-color:#FFFFFF"/>
			<stop  offset="0.1358" style="stop-color:#FFDFCE"/>
			<stop  offset="0.272" style="stop-color:#FFC3A4"/>
			<stop  offset="0.4114" style="stop-color:#FFAD82"/>
			<stop  offset="0.5525" style="stop-color:#FF9B67"/>
			<stop  offset="0.696" style="stop-color:#FF8F54"/>
			<stop  offset="0.8432" style="stop-color:#FF8749"/>
			<stop  offset="1" style="stop-color:#FF8545"/>
		</radialGradient>
		<circle style="opacity:0.54;clip-path:url(#SVGID_11_);fill:url(#SVGID_12_);" cx="252.755" cy="1035.973" r="104.62"/>
		<circle style="clip-path:url(#SVGID_11_);fill:none;" cx="252.755" cy="1035.973" r="104.62"/>
		<g style="clip-path:url(#SVGID_11_);">
			<g id="XMLID_106_">
				<g id="XMLID_125_">
					<g id="XMLID_227_">
						
							<line id="XMLID_229_" style="fill:none;stroke:#1D1D1B;stroke-width:9.4952;stroke-miterlimit:10;" x1="278.805" y1="1273.527" x2="278.805" y2="1289.039"/>
						
							<line id="XMLID_228_" style="fill:none;stroke:#CA9E67;stroke-width:9.4952;stroke-miterlimit:10;" x1="278.805" y1="1197.298" x2="278.805" y2="1273.527"/>
					</g>
					<g id="XMLID_224_">
						
							<line id="XMLID_226_" style="fill:none;stroke:#1D1D1B;stroke-width:9.4952;stroke-miterlimit:10;" x1="321.51" y1="1273.527" x2="321.51" y2="1289.039"/>
						
							<line id="XMLID_225_" style="fill:none;stroke:#CA9E67;stroke-width:9.4952;stroke-miterlimit:10;" x1="321.51" y1="1197.298" x2="321.51" y2="1273.527"/>
					</g>
				</g>
				<g id="XMLID_219_">
					<path id="XMLID_124_" style="fill:none;stroke:#CA9E67;stroke-width:6.3302;stroke-miterlimit:10;" d="M360.57,1108.562
						c5.997,15.307,10.837,31.787,12.749,59.811"/>
					<path id="XMLID_220_" style="fill:none;stroke:#F9B233;stroke-width:6.3302;stroke-miterlimit:10;" d="M321.51,1065.527
						c0,0,23.448,3.188,39.06,43.035"/>
				</g>
				<g id="XMLID_215_">
					<path id="XMLID_217_" style="fill:none;stroke:#CA9E67;stroke-width:6.3302;stroke-miterlimit:10;" d="M233.955,1108.558
						c-5.993,15.296-10.832,35.994-12.746,63.99"/>
					<path id="XMLID_216_" style="fill:none;stroke:#F9B233;stroke-width:6.3302;stroke-miterlimit:10;" d="M273.014,1065.527
						c0,0-23.447,3.187-39.059,43.031"/>
				</g>
				<path id="XMLID_214_" style="fill:#4D4D4D;" d="M297.162,1078.152c10.717,0,19.634-9.771,21.554-22.685
					c-3.184-1.243-6.564-1.916-10.069-1.916h-18.485c-5.066,0-9.87,1.409-14.197,3.919
					C278.466,1069.378,287.007,1078.152,297.162,1078.152z"/>
				<path id="XMLID_123_" style="fill:#FCEA10;" d="M341.301,1083.954c-3.377-13.592-11.857-24.298-22.585-28.487
					c-1.92,12.914-10.837,22.685-21.554,22.685c-10.155,0-18.696-8.773-21.197-20.682c-8.755,5.08-15.533,14.705-18.462,26.505
					c-0.626,2.523-0.915,9.632-1.035,17.317c-0.197,12.642,1.429,25.166,4.169,37.32c2.884,12.793,1.992,26.664-2.751,38.877
					l-1.97,5.075h86.978l-1.51-3.631c-5.315-12.78-6.63-26.875-3.572-40.023c3.004-12.913,4.783-26.246,4.501-39.707
					C342.169,1092.345,341.873,1086.257,341.301,1083.954z"/>
				<path id="XMLID_122_" style="fill:#1D71B8;" d="M242.351,1226.185h111.58c4.109,0,7.138-4.881,6.182-9.96l0,0
					c-2.756-14.645-8.745-27.984-17.263-38.449l-3.612-4.438h-80.137l-2.356,2.74c-9.876,11.486-16.46,26.83-18.711,43.604l0,0
					C237.578,1223.081,239.638,1226.185,242.351,1226.185z"/>
				<g id="XMLID_107_">
					<g id="XMLID_211_">
						<path id="XMLID_213_" style="fill:#4D4D4D;" d="M286.09,1038.054l10.538-53.723c-21.458,0-38.977,16.86-40.034,38.055
							c-0.017,0-0.034-0.002-0.051-0.002c-4.492,0-8.133,3.641-8.133,8.133s3.642,8.133,8.133,8.133c0.857,0,1.683-0.135,2.459-0.38
							c5.639,15.312,20.357,26.232,37.626,26.232v-26.448H286.09z"/>
						<path id="XMLID_212_" style="fill:#666666;" d="M336.713,1022.384c-0.017,0-0.034,0.002-0.051,0.002
							c-1.058-21.194-18.577-38.055-40.034-38.055l-10.538,53.723h10.538v26.448c17.269,0,31.987-10.921,37.626-26.232
							c0.776,0.245,1.602,0.38,2.459,0.38c4.492,0,8.133-3.641,8.133-8.133S341.205,1022.384,336.713,1022.384z"/>
					</g>
					<circle id="XMLID_115_" style="fill:#EA5B0C;" cx="313.646" cy="1041.488" r="3.513"/>
					<circle id="XMLID_114_" style="fill:#EA5B0C;" cx="277.966" cy="1041.488" r="3.513"/>
					<g id="XMLID_235_">
						<path id="XMLID_234_" style="fill:#2D211B;" d="M269.681,981.419c0,0-2.019-14.059-14.309-14.059
							c-16.386,0-21.712,32.16-21.712,55.084h13.009c0,0-1.155-45.233,8.703-47.894c10.827-2.921,10.827,12.646,10.827,12.646
							L269.681,981.419z"/>
						<path id="XMLID_233_" style="fill:#2D211B;" d="M318.201,981.419c0,0,2.019-14.059,14.309-14.059
							c16.386,0,21.712,32.16,21.712,55.084h-13.009c0,0,1.155-45.233-8.703-47.894c-10.827-2.921-10.827,12.646-10.827,12.646
							L318.201,981.419z"/>
						<g id="XMLID_232_">
							<circle id="XMLID_230_" style="fill:#A3195B;" cx="270.883" cy="984.332" r="7.026"/>
							<circle id="XMLID_231_" style="fill:#A3195B;" cx="318.201" cy="984.332" r="7.026"/>
						</g>
						<path id="XMLID_108_" style="fill:#2D211B;" d="M319.669,979.015h-46.254c-9.965,0-18.044,8.079-18.044,18.045v14.26h82.342
							v-14.26C337.714,987.094,329.635,979.015,319.669,979.015z"/>
					</g>
				</g>
			</g>
			<g>
				<ellipse style="fill:#1A1A1A;" cx="276.655" cy="1024.522" rx="3.608" ry="5.594"/>
				<ellipse style="fill:#1A1A1A;" cx="312.153" cy="1024.522" rx="3.608" ry="5.594"/>
			</g>
		</g>
		<g style="clip-path:url(#SVGID_11_);">
			<g id="XMLID_112_">
				<g id="XMLID_292_">
					<g id="XMLID_296_">
						
							<line id="XMLID_298_" style="fill:none;stroke:#1D1D1B;stroke-width:9.4952;stroke-miterlimit:10;" x1="191.577" y1="1298.312" x2="191.577" y2="1313.825"/>
						
							<line id="XMLID_297_" style="fill:none;stroke:#CA9E67;stroke-width:9.4952;stroke-miterlimit:10;" x1="191.577" y1="1222.084" x2="191.577" y2="1298.312"/>
					</g>
					<g id="XMLID_293_">
						
							<line id="XMLID_295_" style="fill:none;stroke:#1D1D1B;stroke-width:9.4952;stroke-miterlimit:10;" x1="234.282" y1="1298.312" x2="234.282" y2="1313.825"/>
						
							<line id="XMLID_294_" style="fill:none;stroke:#CA9E67;stroke-width:9.4952;stroke-miterlimit:10;" x1="234.282" y1="1222.084" x2="234.282" y2="1298.312"/>
					</g>
				</g>
				<g id="XMLID_289_">
					<path id="XMLID_291_" style="fill:none;stroke:#CA9E67;stroke-width:6.3302;stroke-miterlimit:10;" d="M273.342,1133.347
						c5.997,15.307,10.837,31.789,12.749,59.812"/>
					<path id="XMLID_290_" style="fill:none;stroke:#F9B233;stroke-width:6.3302;stroke-miterlimit:10;" d="M234.282,1090.313
						c0,0,23.448,3.187,39.06,43.034"/>
				</g>
				<g id="XMLID_286_">
					<path id="XMLID_288_" style="fill:none;stroke:#CA9E67;stroke-width:6.3302;stroke-miterlimit:10;" d="M146.727,1133.343
						c-5.994,15.297-10.832,35.996-12.746,63.99"/>
					<path id="XMLID_287_" style="fill:none;stroke:#F9B233;stroke-width:6.3302;stroke-miterlimit:10;" d="M185.785,1090.313
						c0,0-23.447,3.187-39.058,43.03"/>
				</g>
				<path id="XMLID_285_" style="fill:#B3B3B3;" d="M209.933,1102.937c10.717,0,19.634-9.77,21.554-22.684
					c-3.184-1.244-6.564-1.916-10.069-1.916h-18.485c-5.066,0-9.871,1.41-14.197,3.92
					C191.238,1094.164,199.778,1102.937,209.933,1102.937z"/>
				<path id="XMLID_277_" style="fill:#FCEA10;" d="M254.073,1108.74c-3.378-13.59-11.857-24.297-22.585-28.486
					c-1.92,12.914-10.837,22.684-21.554,22.684c-10.155,0-18.695-8.772-21.197-20.68c-8.755,5.078-15.533,14.704-18.462,26.504
					c-0.626,2.523-0.915,9.631-1.035,17.317c-0.198,12.642,1.429,25.166,4.169,37.321c2.884,12.792,1.992,26.662-2.751,38.877
					l-1.97,5.074h86.978l-1.51-3.631c-5.314-12.779-6.63-26.875-3.571-40.023c3.003-12.914,4.783-26.246,4.501-39.707
					C254.941,1117.13,254.645,1111.043,254.073,1108.74z"/>
				<path id="XMLID_276_" style="fill:#1D71B8;" d="M155.123,1250.971h111.58c4.108,0,7.137-4.88,6.181-9.96l0,0
					c-2.756-14.645-8.745-27.984-17.262-38.449l-3.612-4.438h-80.138l-2.355,2.739c-9.876,11.486-16.46,26.829-18.711,43.604l0,0
					C150.349,1247.867,152.41,1250.971,155.123,1250.971z"/>
				<g id="XMLID_113_">
					<g id="XMLID_273_">
						<path id="XMLID_275_" style="fill:#B3B3B3;" d="M198.862,1062.84l10.538-53.722c-21.457,0-38.976,16.859-40.034,38.054
							c-0.018,0-0.034-0.003-0.051-0.003c-4.492,0-8.133,3.643-8.133,8.134s3.642,8.134,8.133,8.134
							c0.857,0,1.683-0.135,2.459-0.381c5.639,15.312,20.357,26.232,37.626,26.232v-26.448H198.862z"/>
						<path id="XMLID_274_" style="fill:#CCCCCC;" d="M249.485,1047.169c-0.018,0-0.034,0.003-0.051,0.003
							c-1.058-21.194-18.577-38.054-40.034-38.054l-10.538,53.722h10.538v26.448c17.27,0,31.987-10.921,37.627-26.232
							c0.776,0.246,1.602,0.381,2.459,0.381c4.492,0,8.133-3.643,8.133-8.134S253.976,1047.169,249.485,1047.169z"/>
					</g>
					<circle id="XMLID_271_" style="fill:#EA5B0C;" cx="226.418" cy="1066.274" r="3.513"/>
					<circle id="XMLID_241_" style="fill:#EA5B0C;" cx="190.738" cy="1066.274" r="3.513"/>
					<g id="XMLID_120_">
						<path id="XMLID_240_" style="fill:#684905;" d="M182.452,1006.204c0,0-2.019-14.058-14.309-14.058
							c-16.387,0-21.712,32.16-21.712,55.084h13.009c0,0-1.155-45.233,8.703-47.894c10.826-2.922,10.826,12.647,10.826,12.647
							L182.452,1006.204z"/>
						<path id="XMLID_238_" style="fill:#684905;" d="M230.973,1006.204c0,0,2.019-14.058,14.309-14.058
							c16.386,0,21.712,32.16,21.712,55.084h-13.009c0,0,1.155-45.233-8.703-47.894c-10.827-2.922-10.827,12.647-10.827,12.647
							L230.973,1006.204z"/>
						<g id="XMLID_126_">
							<circle id="XMLID_210_" style="fill:#A3195B;" cx="183.655" cy="1009.118" r="7.026"/>
							<circle id="XMLID_208_" style="fill:#A3195B;" cx="230.973" cy="1009.118" r="7.026"/>
						</g>
						<path id="XMLID_121_" style="fill:#684905;" d="M232.441,1003.801h-46.253c-9.966,0-18.044,8.079-18.044,18.045v14.26h82.342
							v-14.26C250.485,1011.88,242.407,1003.801,232.441,1003.801z"/>
					</g>
				</g>
			</g>
			<g>
				<ellipse style="fill:#1A1A1A;" cx="189.426" cy="1049.308" rx="3.608" ry="5.594"/>
				<ellipse style="fill:#1A1A1A;" cx="224.924" cy="1049.308" rx="3.608" ry="5.594"/>
			</g>
		</g>
		
			<line style="clip-path:url(#SVGID_11_);fill:none;stroke:#1D1D1B;stroke-width:3;stroke-linecap:round;stroke-linejoin:round;stroke-miterlimit:10;" x1="197.755" y1="1075.632" x2="216.755" y2="1075.632"/>
		
			<line style="clip-path:url(#SVGID_11_);fill:none;stroke:#1D1D1B;stroke-width:3;stroke-linecap:round;stroke-linejoin:round;stroke-miterlimit:10;" x1="285.755" y1="1050.632" x2="304.755" y2="1050.632"/>
	</g>
	<g>
		
			<image style="overflow:visible;opacity:0.05;" width="224" height="73" xlink:href="50B1B792DA51ADFD.png"  transform="matrix(1 0 0 1 140.7547 1169.1321)">
		</image>
		<g>
			<path style="fill:#24CEB1;" d="M327.747,1184.132H177.763c-11.879,0-21.508,9.621-21.508,21.5s9.629,21.5,21.508,21.5h149.984
				c11.879,0,21.508-9.621,21.508-21.5S339.626,1184.132,327.747,1184.132z"/>
		</g>
	</g>
	<g>
		
			<image style="overflow:visible;opacity:0.05;" width="224" height="73" xlink:href="50B1B792DA51ADFE.png"  transform="matrix(1 0 0 1 140.7547 1163.1321)">
		</image>
		<g>
			<path style="fill:#2C3E50;" d="M327.747,1178.132H177.763c-11.879,0-21.508,9.621-21.508,21.5s9.629,21.5,21.508,21.5h149.984
				c11.879,0,21.508-9.621,21.508-21.5S339.626,1178.132,327.747,1178.132z"/>
		</g>
	</g>
	<g style="display:none;">
		<rect x="200.166" y="1190.499" style="display:inline;fill:none;" width="139.178" height="17.343"/>
		
			<text transform="matrix(0.9988 0 0 1 204.1336 1206.3391)" style="display:inline;fill:#FFFFFF; font-family:'SourceHanSansTWHK-Medium-B5pc-H'; font-size:18px;">電弧爐碴雙胞胎</text>
	</g>
	<g>
		<circle style="fill:#FFFFFF;" cx="184.007" cy="1200.382" r="11.875"/>
		<g>
			<g>
				<path style="fill:#094745;" d="M185.077,1205.304c0-0.23,0.088-0.463,0.265-0.639l4.494-4.496l-4.494-4.494
					c-0.354-0.354-0.354-0.926,0-1.279c0.353-0.354,0.926-0.354,1.279,0l5.134,5.134c0.353,0.354,0.353,0.926,0,1.279l-5.134,5.136
					c-0.354,0.354-0.926,0.354-1.279,0C185.165,1205.767,185.077,1205.536,185.077,1205.304z"/>
			</g>
			<g>
				<path style="fill:#094745;" d="M175.419,1200.169c0-0.499,0.405-0.904,0.905-0.904h9.047c0.499,0,0.904,0.405,0.904,0.904
					c0,0.5-0.405,0.905-0.904,0.905h-9.047C175.824,1201.074,175.419,1200.669,175.419,1200.169z"/>
			</g>
		</g>
	</g>
</g>
<g id="集塵灰小五郎">
	<g>
		<g>
			<radialGradient id="SVGID_13_" cx="562.7547" cy="1035.9729" r="104.6201" gradientUnits="userSpaceOnUse">
				<stop  offset="0" style="stop-color:#FFFFFF"/>
				<stop  offset="0.1358" style="stop-color:#FFDFCE"/>
				<stop  offset="0.272" style="stop-color:#FFC3A4"/>
				<stop  offset="0.4114" style="stop-color:#FFAD82"/>
				<stop  offset="0.5525" style="stop-color:#FF9B67"/>
				<stop  offset="0.696" style="stop-color:#FF8F54"/>
				<stop  offset="0.8432" style="stop-color:#FF8749"/>
				<stop  offset="1" style="stop-color:#FF8545"/>
			</radialGradient>
			<circle style="opacity:0.54;fill:url(#SVGID_13_);" cx="562.755" cy="1035.973" r="104.62"/>
			<g>
				<defs>
					<circle id="SVGID_14_" cx="562.755" cy="1035.973" r="104.62"/>
				</defs>
				<clipPath id="SVGID_15_">
					<use xlink:href="#SVGID_14_"  style="overflow:visible;"/>
				</clipPath>
				<g style="clip-path:url(#SVGID_15_);">
					<path id="XMLID_313_" style="fill:#999999;stroke:#4D4D4D;stroke-width:14;stroke-miterlimit:10;" d="M633.618,1098.757
						c9.96,17.711,18.838,45.114,21.725,87.458"/>
					<path id="XMLID_312_" style="fill:#F15A24;stroke:#427BC1;stroke-width:14;stroke-miterlimit:10;" d="M597.493,1066.648
						c0,0,19.56,2.658,36.125,32.109"/>
					<path id="XMLID_311_" style="fill:#999999;stroke:#4D4D4D;stroke-width:14;stroke-miterlimit:10;" d="M492.923,1096.961
						c-10.371,17.629-19.764,45.424-22.757,89.187"/>
					<path id="XMLID_310_" style="fill:#F15A24;stroke:#427BC1;stroke-width:14;stroke-miterlimit:10;" d="M528.011,1066.648
						c0,0-18.757,2.549-35.089,30.313"/>
					<g id="XMLID_307_">
						<path id="XMLID_309_" style="fill:#427BC1;" d="M590.511,1055.415c-2.727,14.42-15.385,25.329-30.599,25.329
							c-14.415,0-26.539-9.796-30.089-23.092c-16.787,7.659-28.459,24.579-28.459,44.235v95.445h123.464v-95.445
							C624.828,1080.015,610.381,1061.519,590.511,1055.415z"/>
						<path id="XMLID_308_" style="fill:#4D4D4D;" d="M559.912,1080.744c15.214,0,27.872-10.909,30.599-25.329
							c-4.522-1.39-9.32-2.14-14.295-2.14h-26.24c-7.19,0-14.011,1.574-20.152,4.377
							C533.373,1070.948,545.497,1080.744,559.912,1080.744z"/>
					</g>
					<g id="XMLID_304_">
						<path id="XMLID_306_" style="fill:#4D4D4D;" d="M548.147,1035.972l11.765-59.986c-23.959,0-43.519,18.824-44.701,42.491
							c-0.019,0-0.037-0.003-0.058-0.003c-5.014,0-9.08,4.065-9.08,9.082c0,5.016,4.066,9.081,9.08,9.081
							c0.958,0,1.878-0.15,2.748-0.425c6.297,17.098,22.728,29.291,42.011,29.291v-29.531H548.147z"/>
						<path id="XMLID_305_" style="fill:#808080;" d="M604.673,1018.474c-0.02,0-0.037,0.003-0.058,0.003
							c-1.181-23.667-20.742-42.491-44.703-42.491l-11.765,59.986h11.765v29.531c19.283,0,35.718-12.193,42.016-29.291
							c0.866,0.274,1.786,0.425,2.745,0.425c5.016,0,9.08-4.065,9.08-9.081C613.753,1022.539,609.688,1018.474,604.673,1018.474z"/>
					</g>
					<path id="XMLID_299_" style="fill:#1D1D1B;" d="M557.289,1045.926c7.327,0,10.306,4.937,10.43,5.147
						c0.409,0.693,0.175,1.587-0.52,1.994c-0.691,0.406-1.58,0.177-1.988-0.512c-0.108-0.176-2.342-3.714-7.921-3.714
						c-5.628,0-7.581,3.608-7.599,3.644c-0.374,0.714-1.254,0.99-1.968,0.616c-0.714-0.373-0.988-1.253-0.616-1.968
						C547.218,1050.921,549.917,1045.926,557.289,1045.926z"/>
					<circle id="XMLID_272_" style="fill:#EA5B0C;" cx="578.916" cy="1039.805" r="3.922"/>
					<circle id="XMLID_119_" style="fill:#EA5B0C;" cx="539.076" cy="1039.805" r="3.922"/>
				</g>
			</g>
		</g>
		<path style="fill:#1A1A1A;" d="M571.536,1015.036c0,3.093,2.008,5.596,4.482,5.596c2.482,0,4.486-2.503,4.486-5.596
			c0-1.982-0.828-3.72-2.077-4.713l-6.695,3.076C571.605,1013.917,571.536,1014.466,571.536,1015.036z"/>
		<path style="fill:#1A1A1A;" d="M543.275,1015.036c0,3.093-2.008,5.596-4.482,5.596c-2.482,0-4.486-2.503-4.486-5.596
			c0-1.982,0.828-3.72,2.077-4.713l6.695,3.076C543.206,1013.917,543.275,1014.466,543.275,1015.036z"/>
	</g>
	<g>
		
			<image style="overflow:visible;opacity:0.05;" width="224" height="73" xlink:href="50B1B792DA51ADFC.png"  transform="matrix(1 0 0 1 442.7547 1169.1321)">
		</image>
		<g>
			<path style="fill:#24CEB1;" d="M629.747,1184.132H479.763c-11.879,0-21.508,9.621-21.508,21.5s9.629,21.5,21.508,21.5h149.984
				c11.879,0,21.508-9.621,21.508-21.5S641.626,1184.132,629.747,1184.132z"/>
		</g>
	</g>
	<g>
		
			<image style="overflow:visible;opacity:0.05;" width="224" height="73" xlink:href="A9AF88398DCE23B1.png"  transform="matrix(1 0 0 1 442.7547 1163.1321)">
		</image>
		<g>
			<path style="fill:#2C3E50;" d="M629.747,1178.132H479.763c-11.879,0-21.508,9.621-21.508,21.5s9.629,21.5,21.508,21.5h149.984
				c11.879,0,21.508-9.621,21.508-21.5S641.626,1178.132,629.747,1178.132z"/>
		</g>
	</g>
	<g style="display:none;">
		<rect x="498.166" y="1190.499" style="display:inline;fill:none;" width="139.178" height="17.343"/>
		
			<text transform="matrix(0.9988 0 0 1 511.5721 1206.3391)" style="display:inline;fill:#FFFFFF; font-family:'SourceHanSansTWHK-Medium-B5pc-H'; font-size:18px;">集塵灰小五郎</text>
	</g>
	<g>
		<circle style="fill:#FFFFFF;" cx="493.007" cy="1200.382" r="11.875"/>
		<g>
			<g>
				<path style="fill:#094745;" d="M494.077,1205.304c0-0.23,0.088-0.463,0.265-0.639l4.494-4.496l-4.494-4.494
					c-0.354-0.354-0.354-0.926,0-1.279c0.353-0.354,0.926-0.354,1.279,0l5.134,5.134c0.353,0.354,0.353,0.926,0,1.279l-5.134,5.136
					c-0.354,0.354-0.926,0.354-1.279,0C494.165,1205.767,494.077,1205.536,494.077,1205.304z"/>
			</g>
			<g>
				<path style="fill:#094745;" d="M484.419,1200.169c0-0.499,0.405-0.904,0.905-0.904h9.047c0.499,0,0.904,0.405,0.904,0.904
					c0,0.5-0.405,0.905-0.904,0.905h-9.047C484.824,1201.074,484.419,1200.669,484.419,1200.169z"/>
			</g>
		</g>
	</g>
</g>
<g id="ai2html-settings">
	<rect x="-450" style="fill:none;" width="400" height="462"/>
	<text transform="matrix(1 0 0 1 -450.0002 13.2004)" style="display:none;"><tspan x="0" y="0" style="display:inline; font-family:'AdobeMingStd-Light-B5pc-H'; font-size:15px;">ai2html-settings</tspan><tspan x="0" y="18" style="display:inline; font-family:'AdobeMingStd-Light-B5pc-H'; font-size:15px;">settings_version: 0.59</tspan><tspan x="0" y="36" style="display:inline; font-family:'AdobeMingStd-Light-B5pc-H'; font-size:15px;">image_format: svg</tspan><tspan x="0" y="54" style="display:inline; font-family:'AdobeMingStd-Light-B5pc-H'; font-size:15px;">responsiveness: dynamic</tspan><tspan x="0" y="72" style="display:inline; font-family:'AdobeMingStd-Light-B5pc-H'; font-size:15px;">output: one-file</tspan><tspan x="0" y="90" style="display:inline; font-family:'AdobeMingStd-Light-B5pc-H'; font-size:15px;">html_output_path: /ai2html-output/</tspan><tspan x="0" y="108" style="display:inline; font-family:'AdobeMingStd-Light-B5pc-H'; font-size:15px;">html_output_extension: .html</tspan><tspan x="0" y="126" style="display:inline; font-family:'AdobeMingStd-Light-B5pc-H'; font-size:15px;">image_output_path: </tspan><tspan x="0" y="144" style="display:inline; font-family:'AdobeMingStd-Light-B5pc-H'; font-size:15px;">local_preview_template: </tspan><tspan x="0" y="162" style="display:inline; font-family:'AdobeMingStd-Light-B5pc-H'; font-size:15px;">png_number_of_colors: 128</tspan><tspan x="0" y="180" style="display:inline; font-family:'AdobeMingStd-Light-B5pc-H'; font-size:15px;">jpg_quality: 60</tspan><tspan x="0" y="198" style="display:inline; font-family:'AdobeMingStd-Light-B5pc-H'; font-size:15px;">headline: Ai Graphic Headline</tspan><tspan x="0" y="216" style="display:inline; font-family:'AdobeMingStd-Light-B5pc-H'; font-size:15px;">leadin: Introductory text here.</tspan><tspan x="0" y="234" style="display:inline; font-family:'AdobeMingStd-Light-B5pc-H'; font-size:15px;">notes: Notes: Text goes here.</tspan><tspan x="0" y="252" style="display:inline; font-family:'AdobeMingStd-Light-B5pc-H'; font-size:15px;">sources: Source: Name goes here.</tspan><tspan x="0" y="270" style="display:inline; font-family:'AdobeMingStd-Light-B5pc-H'; font-size:15px;">credit: By ai2html</tspan></text>
</g>
</svg>
