<svg id="圖層_1" xmlns="http://www.w3.org/2000/svg" viewBox="0 0 55 55"><style>.st0{fill:none;stroke:#27ffc6;stroke-miterlimit:10}</style><path class="st0" d="M17.2 30.4c3.2-.3 6-1 8.3-1.9 3.2-1.2 5.5-2.9 6.9-5l.7-1-1 .7c-2 1.3-4.6 2.2-7.7 2.4-2.6.2-5.6.1-8.8-.4-.2 0-.5-.1-.8-.1l-.5-.1c-.4-.1-.8.1-1 .5l-.3.5c-.2.3-.1.7.1 1 .2.2.4.5.4.5s1.5 1.8 3.7 2.9zm0 0"/><path class="st0" d="M39.7 19.5c-.8-.6-1.7-.8-2.1-.8h-.2c0-.4-.2-2.5-.3-4-.1-.7-.8-1.1-1.4-.7l-1.9 1c-.5.3-.7.9-.4 1.4.5 1.1 1.4 3.1 1.7 4.9.3 1.6.1 3.3-.4 4.8-.8 2.5-2.6 4.9-5.3 7.1-1.5 1.2-3 2.3-4.7 3.2-.8.5-1.7.9-2.5 1.3-.1 0-1.1.4-1.8.7-.4.1-.7.5-.6.9v.4c0 .4.3.8.7.9 1 .3 3.2.7 6.2.6 1.7-.1 3.3-.6 4.9-1.2 2.6-1.1 6.3-3.2 8.7-7.2 1.1-1.8 1.7-3.7 1.9-5.8.2-2-.1-3.6-.4-4.6-.4-1.2-1.1-2.2-2.1-2.9zm0 0"/><path class="st0" d="M15.1 34.1c.4.3 1 .8 1.7 1.2 1.3.7 2.7 1.1 4.2 1.4h.2c1.2-.5 2.3-1.1 3.4-1.7 1.3-.8 2.5-1.6 3.6-2.4 1-.8 1.9-1.6 2.7-2.5.7-.8 1.3-1.7 1.8-2.6.2-.4.4-.9.6-1.4.2-.5.3-1 .4-1.5 0-.1.1-.2.1-.3l-.8 1c-1.6 2-4.1 3.6-7.2 4.7-2.1.8-4.2 1.2-6.4 1.6-1.2.2-2.3.3-3.5.3-.5 0-.9.3-.9.8l-.1.6c-.2.2-.1.6.2.8zm0 0"/></svg>