<svg id="圖層_1" xmlns="http://www.w3.org/2000/svg" viewBox="0 0 50 50"><style>.st0{fill:#fff}</style><path class="st0" d="M21.3 27.7c-2 .1-3.6 1.4-3.5 2.9.1 1.5 1.8 2.5 3.8 2.4 2.1-.2 3.6-1.5 3.5-2.9-.1-1.5-1.8-2.5-3.8-2.4zM23.5 20c-.4-1.7-1.8-2.8-3-2.5-1.3.4-1.9 2-1.4 3.7s1.8 2.8 3 2.5c1.3-.4 1.9-2 1.4-3.7z"/><path class="st0" d="M25 11.3c-7.4 0-13.4 6-13.4 13.4s6 13.4 13.4 13.4 13.4-6 13.4-13.4-6-13.4-13.4-13.4zm-4.1 22.8s-5.1.2-5.1-3.6c0-3.9 5.7-3.7 6-3.7-.1-.9-.7-.8-.7-1.2v-1.1s-4.3.5-4.3-3.7 5-4.3 5-4.3h4.9c0 .8-2.2.5-2.2.9 1.3.6 1.4 1.6 1.4 3.2 0 2.7-2.5 3.1-2.5 4.2 0 1.2 3.3 2.1 3.4 4.8 0 4.8-5.9 4.5-5.9 4.5zm11.6-13v3.4h-1v-3.4h-3.4v-1h3.4v-3.5h1v3.5h3.4v1h-3.4z"/></svg>