<svg id="圖層_1" xmlns="http://www.w3.org/2000/svg" viewBox="0 0 55 55"><style>.st0{fill:#fff}</style><path class="st0" d="M40.3 39H14.7c-.7 0-1.3.6-1.3 1.3 0 .7.6 1.3 1.3 1.3h25.6c.7 0 1.3-.6 1.3-1.3 0-.7-.6-1.3-1.3-1.3zm0 0M16.3 35.7c-.7 0-1.3.6-1.3 1.3 0 .7.6 1.3 1.3 1.3h22.4c.7 0 1.3-.6 1.3-1.3 0-.7-.6-1.3-1.3-1.3h-.3V24.2h.3c.4 0 .6-.3.6-.6 0-.4-.3-.6-.6-.6H16.3c-.4 0-.6.3-.6.6 0 .4.3.6.6.6h.3v11.5h-.3zm19.5-11.5v11.5H32V24.2h3.8zm-6.4 0v11.5h-3.8V24.2h3.8zm-10.2 0H23v11.5h-3.8V24.2zm0 0M14.7 21.7h25.6c.7 0 1.3-.6 1.3-1.3 0-.6-.4-1-.9-1.2L28 13.5c-.3-.1-.7-.1-1 0l-12.8 5.8c-.6.2-.9.8-.7 1.4.1.6.6 1 1.2 1zm0 0"/></svg>