<svg id="圖層_1" xmlns="http://www.w3.org/2000/svg" width="124.25" height="50" viewBox="0 0 124.25 50"><path fill="#FFF" d="M41.079 35.9l-12.882-3.022V16.774l12.882-3.557z"/><path fill="#FFF" d="M8.471 42.074l20.128-9.196V16.774L8.471 7.579z"/><g fill="#FFF"><path d="M111.646 13.54s.664-.294.831-1.014h1.474v1.236h-2.378l.073-.222zM116.275 17.493s.664-.295.83-1.015h1.475v1.235h-2.377l.072-.22zM113.49 20.99s.663-.295.829-1.014h1.476v1.235h-2.379l.074-.221z"/><path d="M103.663 13.526h10.282v.462h-10.282zM101.609 17.467h16.977v.461h-16.977zM107.109 20.946h8.004v.499h-8.004zM106.232 24.46h8.945v.462h-8.945zM106.232 27.626h8.945v.462h-8.945z"/><path d="M105.506 21.754h1.443v8.24h-1.443zM114.316 21.05h1.484v8.976h-1.484zM108.351 10.816h1.506v7.096h-1.506z"/><path d="M115.613 11.967s-3.877 7.695-15.359 12.271l.146.408s11.19-3.177 16.583-11.833l-1.37-.846z"/><g><path d="M92.536 13.63s.663-.295.829-1.014h1.475v1.235h-2.379l.075-.221zM92.02 25.06s.664-.297.83-1.015h1.476v1.234h-2.379l.073-.219z"/><path d="M82.78 13.637h12.052v.461H82.78zM84.086 15.274h9.008v.497h-9.008zM84.107 17.045h9.008v.462h-9.008zM84.086 18.683h9.008v.462h-9.008zM84.086 20.365h9.008v.462h-9.008zM76.112 17.253h4.603v.461h-4.603z"/><path d="M79.455 17.222h1.508v4.007h-1.508zM93.011 13.635s.524-.233.656-.803h1.165v.977h-1.88l.059-.174z"/><path d="M79.141 17.235s.525-.234.656-.802h1.165v.977h-1.88l.059-.175zM77.256 24.973h17.068v.461H77.256z"/><path d="M92.488 24.971s.523-.231.655-.801h1.165v.976h-1.88l.06-.175zM91.622 15.303s.55-.244.687-.839h1.221v1.022h-1.969l.061-.183zM79.436 17.249s.439-.195.549-.672h.979v.819h-1.576l.048-.147zM77.562 12.174l.24-.371s2.186.524 3.17 2.426l-1.138.809c.001 0-1.245-2.361-2.272-2.864zM84.447 10.893l.209-.254s1.443.162 2.467 1.698l-1.256.674s-.465-1.396-1.42-2.118zM89.914 11.087s-.691 2.289-.954 2.719h.405s1.384-1.431 2.314-2.672l-1.765-.047zM76.601 22.124l2.971-1.355.219.371-2.229 2.623zM80.885 20.378s.691 1.698 4.947 1.8c0 0 5.559.291 8.364-.204v1.202s-11.804 1.312-13.508-2.405l.197-.393z"/><path d="M83.433 14.629h1.464v6.783h-1.464zM92.04 15.298h1.485v6.139H92.04zM82.297 26.679l.24-.241s1.705.393 2.711 1.881l-1.136.982s-1.356-2.471-1.815-2.622zM88.881 23.843h1.483v4.922c0 .486-.116.957-.515 1.249-.224.164-.672.388-.959.304-.377-.108-.308-.591-.51-.843-.213-.265-.725-.329-1.043-.329l.012-.31h.91s.639.095.639-.526-.017-4.467-.017-4.467z"/></g><g><path d="M51.332 14.245h9.3v.458h-9.3zM62.126 12.432h5.669v.458h-5.669zM62.472 20.056h6.567v.422h-6.567z"/><path d="M54.866 11.163h1.494v6.773h-1.494zM61.569 11.372h1.388v18.685h-1.388zM54.866 21.438h1.494v8.729h-1.494zM58.353 14.242s.657-.292.821-1.004h1.46v1.223H58.28l.073-.219zM58.353 24.735s.657-.292.821-1.005h1.46v1.224H58.28l.073-.219zM66.309 12.48s.657-.291.822-1.003h1.459v1.222h-2.354l.073-.219zM58.424 21.19s.656-.292.821-1.005h1.46v1.224h-2.354l.073-.219zM58.393 17.658s.658-.293.822-1.004h1.459v1.222H58.32l.073-.218z"/><path d="M50.593 17.664h10.08v.457h-10.08zM50.649 21.175h10.047v.457H50.649z"/><path d="M58.891 21.152s.52-.231.648-.794h1.155v.967h-1.862l.059-.173zM51.338 24.649h9.298v.458h-9.298zM52.725 18.63l.317-.187s1.198 1.211 1.731 2.308l-1.168.505s-.591-2.322-.88-2.626zM57.169 18.298l1.775.708s-1.661 1.774-2.208 2.207l-.231-.144s.462-1.414.664-2.771zM67.142 12.431v5.06s.077.674-.493.674h-.594v.333s.854.054.854.546c0 .49 1.682.853 1.682-1.554v-5.113l-1.449.054zM67.543 20.04s-.506 5.993-4.186 10.163l.154.253s4.786-4.13 5.563-10.286l-1.531-.13z"/><path d="M63.82 21.04s1.04 5.513 6.147 7.786l-1.168 1.492s-4.352-2.136-5.304-9.215l.325-.063z"/></g><g><path d="M53.112 37.818h.543v-3.34H52.64v.673h-.532v-1.174h3.705v1.174h-.532v-.673h-1.015v3.34h.544v.477h-1.699v-.477zM57.537 37.818h.538v-3.369h-.538v-.472h1.694v.472h-.544v1.437h2.238v-1.437h-.545v-.472h1.693v.472h-.538v3.369h.538v.477H60.38v-.477h.544v-1.432h-2.238v1.432h.544v.477h-1.694v-.477zM63.943 37.818h.538v-3.369h-.538v-.472h3.125v1.003h-.532v-.502h-1.443v1.389h1.528v.502h-1.528v1.425h1.547v-.521h.532v1.021h-3.229v-.476zM76.098 37.818h.537v-3.369h-.537v-.472h1.871c.305 0 .557.013.795.093.451.152.752.531.752 1.118 0 .623-.343 1.071-.895 1.211v.013s.111.061.185.201l.612 1.063c.066.117.146.142.299.142h.129v.477h-.367c-.367 0-.453-.067-.6-.324l-.666-1.18c-.109-.184-.189-.238-.453-.238h-.514v1.266h.533v.477h-1.682v-.478zm2.017-1.767c.471 0 .783-.306.783-.812 0-.336-.135-.569-.404-.68a1.502 1.502 0 0 0-.532-.08h-.716v1.572h.869zM81.58 37.818h.539v-3.369h-.539v-.472h3.125v1.003h-.531v-.502H82.73v1.389h1.528v.502H82.73v1.425h1.547v-.521h.531v1.021H81.58v-.476zM86.666 37.818h.539v-3.369h-.539v-.472h2.013c.263 0 .525.019.739.117.446.188.734.647.734 1.222 0 .605-.318 1.096-.814 1.266a1.824 1.824 0 0 1-.647.094h-.874v1.143h.544v.477h-1.694v-.478zm1.951-1.645c.195 0 .349-.03.482-.085.275-.122.435-.398.435-.771 0-.348-.141-.605-.386-.734-.134-.072-.316-.104-.525-.104h-.807v1.694h.801zM94.07 33.904c1.247 0 2.219.96 2.219 2.201 0 1.271-.972 2.263-2.219 2.263-1.254 0-2.22-.991-2.22-2.263.001-1.241.966-2.201 2.22-2.201zm0 3.919c.874 0 1.584-.745 1.584-1.718 0-.941-.71-1.663-1.584-1.663-.881 0-1.59.722-1.59 1.663 0 .973.709 1.718 1.59 1.718zM98.086 37.818h.539v-3.369h-.539v-.472h1.871c.306 0 .557.013.795.093.452.152.752.531.752 1.118 0 .623-.343 1.071-.893 1.211v.013s.109.061.184.201l.611 1.063c.066.117.146.142.299.142h.129v.477h-.367c-.367 0-.453-.067-.6-.324l-.666-1.18c-.109-.184-.189-.238-.452-.238h-.514v1.266h.532v.477h-1.682v-.478zm2.018-1.767c.471 0 .783-.306.783-.812 0-.336-.135-.569-.404-.68a1.5 1.5 0 0 0-.531-.08h-.716v1.572h.868zM104.4 37.818h.545v-3.34h-1.016v.673h-.531v-1.174h3.705v1.174h-.532v-.673h-1.015v3.34h.544v.477h-1.7v-.477zM108.827 37.818h.538v-3.369h-.538v-.472h3.124v1.003h-.532v-.502h-1.442v1.389h1.527v.502h-1.527v1.425h1.547v-.521h.531v1.021h-3.228v-.476zM113.912 37.818h.539v-3.369h-.539v-.472h1.871c.306 0 .557.013.795.093.453.152.752.531.752 1.118 0 .623-.342 1.071-.893 1.211v.013s.109.061.184.201l.611 1.063c.067.117.147.142.3.142h.128v.477h-.367c-.366 0-.452-.067-.598-.324l-.667-1.18c-.11-.184-.19-.238-.452-.238h-.515v1.266h.532v.477h-1.682v-.478zm2.018-1.767c.472 0 .783-.306.783-.812 0-.336-.135-.569-.403-.68a1.502 1.502 0 0 0-.532-.08h-.716v1.572h.868z"/></g></g></svg>