<svg id="圖層_1" xmlns="http://www.w3.org/2000/svg" viewBox="0 0 55 55"><style>.st0{fill:none;stroke:#27ffc6;stroke-miterlimit:10}</style><path class="st0" d="M17.6 35.2c.3.9 1.1 1.1 0 1.4L14.8 38 12 35.2c-.4-1.1.1-1.8 1.4-2.8l2.8 1.4c.3.4 1.3 1.1 1.4 1.4zM16.7 22.5c-.9-.4-1.9-.3-2.8 0-.5.2-.8.9-1.4 1.4v4.3l4.3-1.4c1.2-1.3 1.7-2 1.4-2.8-.3-.8-.7-1.1-1.5-1.5zM25.9 28.2h-.3c-.2.1-1.4-1-2.8-1.4-.7-.3-.7.3-1.4 0-1 .3-1.2 1.2-1.4 2.8-.2 1.6-.6 4 0 5.7.2.4.9.9 1.4 1.4l1.4 1.4h1.4c1.8-.8 2.5-2.7 2.8-2.8.7-.4 1.2-1.6 1.4-2.8.2-1.3.4-1.7 0-2.8-.4-1.5-1.6-1.8-2.5-1.5zM29.7 36.6v2.8c.7.6 1.4 1.2 2.8 1.4l2.8-1.4-1.3-4.2-4.3 1.4zM40.3 16.1c-1.9-2.1-2.9-2.4-5.7-1.4h-1.4c-1.3 1.2-1.9 2.1-2.8 4.3-.9 2.1-1.8 4.5-1.4 5.7 0 .1 1.2 1.3 2.8 2.8 1.8 1.5 2.6 2.4 2.8 2.8l5.7-1.4c.6-.2 3-5.3 2.8-5.7-1.1-3.5-1.6-5.8-2.8-7.1z"/></svg>