<svg id="圖層_1" xmlns="http://www.w3.org/2000/svg" viewBox="0 0 55 55"><style>.st0{fill:none;stroke:#27ffc6;stroke-miterlimit:10}</style><path class="st0" d="M11.2 31.6V16.7c0-.8.7-1.5 1.5-1.5h14.9c.8 0 1.5.7 1.5 1.5v14.9c0 .3-.2.5-.5.5H11.7c-.3 0-.5-.2-.5-.5zM22.9 36.7c0 1.5-1.3 2.8-2.8 2.8s-2.8-1.3-2.8-2.8c0-1.5 1.3-2.8 2.8-2.8s2.8 1.3 2.8 2.8z"/><path class="st0" d="M21.5 36.7c0-.8-.6-1.4-1.4-1.4-.8 0-1.4.6-1.4 1.4 0 .8.6 1.4 1.4 1.4.8 0 1.4-.6 1.4-1.4zM17.4 33.6h-7c-.3 0-.5.2-.5.5v1.5c0 .3.2.5.5.5H16c.2-1 .7-1.9 1.4-2.5zM39.2 36.7c0 1.5-1.3 2.8-2.8 2.8-1.5 0-2.8-1.3-2.8-2.8 0-1.5 1.3-2.8 2.8-2.8 1.6 0 2.8 1.3 2.8 2.8z"/><path class="st0" d="M37.8 36.7c0-.8-.6-1.4-1.4-1.4-.8 0-1.4.6-1.4 1.4 0 .8.6 1.4 1.4 1.4.8 0 1.4-.6 1.4-1.4z"/><path class="st0" d="M45 34.1v1.5c0 .3-.2.5-.5.5h-4.1c-.3-2-2-3.5-4.1-3.5-2.1 0-3.8 1.5-4.1 3.5H24c-.1-1-.7-1.9-1.4-2.5h7.7V19.3c0-.6.4-1 1-1H36c1.3 0 2.6.7 3.3 1.8l3 4.5c.4.7.7 1.4.7 2.2v6.8h1.2c.6 0 .8.2.8.5z"/><path class="st0" d="M40 24.7l-2.4-3.5c-.1-.1-.2-.2-.4-.2h-3.8c-.3 0-.5.2-.5.5V25c0 .3.2.5.5.5h6.2c.4 0 .6-.5.4-.8z"/></svg>