<svg id="eb51a34a-ef04-4f8b-a85f-ed8e6b1cc062" data-name="圖層 1" xmlns="http://www.w3.org/2000/svg" viewBox="0 0 173.4 97.4"><title>cloud-left</title><path d="M426.8,5985.9a11,11,0,0,1-1.9,12.2c-3.8,4.3-9.7,5.3-15.2,4.8s-14.7-3.8-15.2-11.7c-0.4-6.1,4.3-11.3,9.9-13.2C411.7,5975.6,423.2,5978.7,426.8,5985.9Zm-5.1,8.3c2.5-3.6.9-7.2-2.5-9.2s-10.3-3.9-14.9-1.6c-2.9,1.4-5.5,4.7-4.9,8.1s6.3,6.1,10.3,6.5S419.1,5998,421.7,5994.1Z" transform="translate(-254.5 -5910.1)"/><path d="M419.2,5984.9c3.4,2.1,5,5.7,2.5,9.3s-7.8,4.1-12,3.8-9.5-2-10.3-6.5,2-6.7,4.9-8.1C408.9,5981,415,5982.3,419.2,5984.9Z" transform="translate(-254.5 -5910.1)" style="fill:#7baaaa"/><path d="M345.2,5955.2c18,4.3,26.1,26.7,13.7,41.8-14.1,17.1-38.7,11.9-49.8-5-6.4,11.1-20.3,17.4-32.8,11.8a27.1,27.1,0,0,1-14.3-16.5c-1.3-4.1-2-9.5-.1-13.4-6.7-3.4-9.1-11.8-5.9-18.7s11.3-9.6,18.8-9.3c-3.3-13.7,4-29.5,17.8-34.3s31.1,4.1,36.3,18.2a15,15,0,0,1,17.8,5.1C351.2,5941.3,349.6,5949.4,345.2,5955.2Zm7.2,41.4c13.7-12.4,7.4-36.3-12.2-37.2-2-.1-3.5-2.7-1.7-4.2,4.1-3.5,7.3-9.2,5.5-14.7s-10-8.6-15.3-4.9a2.5,2.5,0,0,1-3.6-1.5c-3.3-13.4-18.3-23-31.7-17.4s-17.3,19.6-12.7,31.4c0.7,1.9-1.4,3.3-3,3-6.1-1.1-12.8-.1-16.3,5.4a9.1,9.1,0,0,0,3.7,13.4l0.6,0.4h0.1c2.8-1.4,5.3,2.8,2.5,4.3-5.4,2.8-.8,13.6,1.3,16.8a21.2,21.2,0,0,0,12.1,9.1c10.7,2.8,21.7-4.2,25.2-14.3,0.6-1.8,3.5-2.6,4.5-.6C318.3,6000.8,338.4,6009.3,352.4,5996.7Z" transform="translate(-254.5 -5910.1)"/><path d="M340.2,5959.4c19.6,0.9,25.9,24.8,12.2,37.2s-34.1,4.2-41.4-11.3c-1-2.1-3.9-1.2-4.5.6-3.5,10.1-14.5,17.2-25.2,14.3a21.2,21.2,0,0,1-12.1-9.1c-2.1-3.2-6.6-14-1.3-16.8,2.8-1.5.3-5.7-2.5-4.2h-0.1l-0.6-.4a9.1,9.1,0,0,1-3.7-13.4c3.6-5.5,10.2-6.5,16.3-5.4,1.6,0.3,3.8-1.1,3-3-4.5-11.9.6-26.4,12.7-31.4s28.4,4,31.7,17.4a2.5,2.5,0,0,0,3.6,1.5c5.3-3.7,13.2-1.6,15.3,4.9s-1.4,11.2-5.5,14.8C336.7,5956.7,338.2,5959.3,340.2,5959.4Z" transform="translate(-254.5 -5910.1)" style="fill:#7baaaa"/></svg>