<svg id="3bfdf098-2a58-449d-9abc-86143ee561f9" data-name="圖層 1" xmlns="http://www.w3.org/2000/svg" viewBox="0 0 97.8 57.5"><title>cloud-right-bottom</title><path d="M995.1,5937c6,4,8.4,12.3,4.3,18.6s-15,6.4-21,1.8-7-11.9-2.2-17.3,11.7-6.2,17.7-3.7l0.7,0.3Zm-0.3,16.5c3.6-4,1.4-10.2-2.8-12.7-7.2-3.3-19,4.3-11.5,11.8C983.9,5956.1,991.3,5957.5,994.8,5953.5Z" transform="translate(-903.6 -5935.1)"/><path d="M992,5940.9c4.2,2.5,6.4,8.6,2.8,12.7s-10.9,2.6-14.3-.9C973,5945.1,984.8,5937.6,992,5940.9Z" transform="translate(-903.6 -5935.1)" style="fill:#7baaaa"/><path d="M966.1,5971c6.8,19.7-22.6,26-35.7,18.4a18,18,0,0,1-20.7-.4c-6.3-4.5-8.6-12.9-2.6-18.7l0.5-.4h0c4.6-3,9-3.5,13.6-1.7,3.8-8.7,10.9-11.4,21.2-10.7S962.7,5961.2,966.1,5971Zm-4.7,5.6c1-9.8-9.5-13.2-17.5-14s-16.2.9-18.9,9.7a2.5,2.5,0,0,1-3.6,1.5,10.6,10.6,0,0,0-10.9.2c-5,5.1.6,10.8,5.4,12.6a12.2,12.2,0,0,0,12.7-1.9,2.5,2.5,0,0,1,3-.4C940.1,5990.5,960.1,5989.5,961.4,5976.6Z" transform="translate(-903.6 -5935.1)"/><path d="M943.9,5962.6c8,0.8,18.6,4.2,17.5,14-1.4,12.9-21.3,13.8-29.8,7.7a2.5,2.5,0,0,0-3,.4,12.2,12.2,0,0,1-12.7,1.9c-4.8-1.8-10.5-7.5-5.4-12.6a10.6,10.6,0,0,1,10.9-.2,2.5,2.5,0,0,0,3.6-1.5C927.7,5963.5,935.4,5961.7,943.9,5962.6Z" transform="translate(-903.6 -5935.1)" style="fill:#7baaaa"/></svg>