<?xml version="1.0" encoding="utf-8"?>
<!-- Generator: Adobe Illustrator 19.2.1, SVG Export Plug-In . SVG Version: 6.00 Build 0)  -->
<svg version="1.1" id="_x38_9afd35e-89f8-40da-bea0-7cedde535f03"
	 xmlns="http://www.w3.org/2000/svg" xmlns:xlink="http://www.w3.org/1999/xlink" x="0px" y="0px" viewBox="0 0 1279.3 459.9"
	 style="enable-background:new 0 0 1279.3 459.9;" xml:space="preserve">
<style type="text/css">
	.st0{clip-path:url(#SVGID_2_);}
	.st1{fill:#40CEFF;}
	.st2{fill:#838384;}
	.st3{fill:#A6AAAD;}
	.st4{fill:#D8D8D8;}
	.st5{opacity:0.2;fill:#979DA5;enable-background:new    ;}
	.st6{opacity:0.3;fill:#A1BFBE;enable-background:new    ;}
	.st7{fill:#FFFFFF;}
	.st8{clip-path:url(#SVGID_4_);}
	.st9{fill:#FFD1A4;}
	.st10{fill:#FFDBB3;}
	.st11{fill:#663B28;}
	.st12{fill:#FFD097;}
	.st13{fill:#EA8254;}
	.st14{fill:#492C21;}
	.st15{fill:#FFC48F;}
	.st16{fill:#7EA0AF;}
	.st17{fill:#708E99;}
	.st18{opacity:0.65;}
	.st19{fill:#8A4199;}
	.st20{fill:#4972C1;}
	.st21{fill:#269944;}
	.st22{fill:#FCE142;}
	.st23{fill:#FC9E38;}
	.st24{fill:#DD3E3E;}
	.st25{opacity:0.2;fill:#818587;enable-background:new    ;}
	.st26{opacity:0.25;fill:#ABC5CE;enable-background:new    ;}
	.st27{opacity:0.34;}
	.st28{filter:url(#Adobe_OpacityMaskFilter);}
	.st29{mask:url(#bf001441-abe8-4dab-950d-d1d8514d0cd1);}
	.st30{opacity:0.3;}
	.st31{filter:url(#Adobe_OpacityMaskFilter_1_);}
	.st32{mask:url(#_x38_3ee72e5-fffc-4da4-9f5e-738a12b3d576);}
	.st33{fill:#45843A;}
	.st34{fill:#54B247;}
	.st35{fill:#684F3C;}
	.st36{fill:#608958;}
</style>
<title>header_image_desktop</title>
<g>
	<defs>
		<rect id="SVGID_1_" x="1" y="-0.5" width="1278.9" height="460"/>
	</defs>
	<clipPath id="SVGID_2_">
		<use xlink:href="#SVGID_1_"  style="overflow:visible;"/>
	</clipPath>
	<g class="st0">
		<rect x="-25.7" y="-31" class="st1" width="1343.5" height="530.1"/>
		<path class="st2" d="M1068.8,459.5H210.9c0-213.8,192-386.2,429-386.2S1068.8,245.7,1068.8,459.5z"/>
		<path class="st3" d="M1049.8,459.5H229.3c0-205.2,183.7-369.4,410.2-369.4S1049.8,254.3,1049.8,459.5z"/>
		<path class="st4" d="M1040.3,459.5H240.7c0-198.4,179-360,399.8-360S1040.3,261.1,1040.3,459.5z"/>
		<path class="st5" d="M1040.3,459.5c0,33.9-173.3,61.7-398.9,61.7s-400.7-27.8-400.7-61.7c0-4.1,0.2-11.7,0.2-11.7
			c37.3-28.1,202.4-49.2,400.5-49.2c194.9,0,357.9,20.5,398.6,47.9C1040,446.5,1040.3,454.9,1040.3,459.5z"/>
		<path class="st6" d="M495.3,153.5c0,7.3-2.3,9.4-5.5,9.4s-5.5-2.2-5.5-9.6s5.5-17,5.5-17S495.3,146.1,495.3,153.5z"/>
		<path class="st6" d="M674,127.2c0,7.3-2.3,9.4-5.5,9.4s-5.5-2.2-5.5-9.6s5.5-17,5.5-17S674,119.8,674,127.2z"/>
		<path class="st6" d="M839.9,197.3c0,7.3-2.3,9.4-5.5,9.4s-5.5-2.2-5.5-9.6s5.5-17,5.5-17S839.9,190,839.9,197.3z"/>
		<path class="st6" d="M906.6,276.2c0,7.3-2.3,9.4-5.5,9.4s-5.5-2.2-5.5-9.6s5.5-17,5.5-17S906.6,268.8,906.6,276.2z"/>
		<path class="st6" d="M905.3,206.6c0,5.5-1.8,7.1-4.2,7.1s-4.1-1.7-4.1-7.2s4.1-12.8,4.1-12.8S905.3,201,905.3,206.6z"/>
		<path class="st6" d="M709.7,226.1c0,5.5-1.8,7.1-4.2,7.1s-4.1-1.7-4.1-7.2s4.1-12.8,4.1-12.8S709.7,220.6,709.7,226.1z"/>
		<path class="st6" d="M1017.9,380c0,7.3-2.3,9.4-5.5,9.4s-5.5-2.2-5.5-9.6s5.5-17,5.5-17S1017.9,372.7,1017.9,380z"/>
		<path class="st6" d="M478.6,222.7c0,5.5-1.8,7.1-4.2,7.1s-4.1-1.7-4.1-7.2s4.1-12.8,4.1-12.8S478.6,217.2,478.6,222.7z"/>
		<path class="st6" d="M563.4,234.4c0,7.3-2.3,9.4-5.5,9.4s-5.5-2.2-5.5-9.6s5.5-17,5.5-17S563.4,227,563.4,234.4z"/>
		<path class="st6" d="M573.9,120.7c0,4.9-1.6,6.2-3.7,6.2s-3.6-1.5-3.6-6.3s3.6-11.3,3.6-11.3S573.9,115.9,573.9,120.7z"/>
		<path class="st6" d="M527.7,341.6c0,7.3-2.3,9.4-5.5,9.4s-5.5-2.2-5.5-9.6s5.5-17,5.5-17S527.7,334.2,527.7,341.6z"/>
		<path class="st6" d="M498.9,368.9c0,3.4-1.1,4.4-2.6,4.4s-2.6-1-2.6-4.5s2.6-7.9,2.6-7.9S498.9,365.4,498.9,368.9z"/>
		<path class="st6" d="M279.8,408c0,3.4-1.1,4.4-2.6,4.4s-2.6-1-2.6-4.5s2.6-7.9,2.6-7.9S279.8,404.5,279.8,408z"/>
		<path class="st6" d="M656.5,193.9c0,7.3-2.3,9.4-5.5,9.4s-5.5-2.2-5.5-9.6s5.5-17,5.5-17S656.5,186.6,656.5,193.9z"/>
		<path class="st6" d="M610.7,172.7c0,6-1.9,7.7-4.6,7.7s-4.5-1.8-4.5-7.9s4.5-13.9,4.5-13.9S610.7,166.6,610.7,172.7z"/>
		<path class="st6" d="M758.1,250.4c0,5.8-1.9,7.5-4.4,7.5s-4.4-1.8-4.4-7.6s4.4-13.5,4.4-13.5S758.1,244.6,758.1,250.4z"/>
		<path class="st6" d="M780.7,315.2c0,6.1-2,7.8-4.6,7.8s-4.6-1.9-4.6-8s4.6-14.2,4.6-14.2S780.7,309,780.7,315.2z"/>
		<path class="st6" d="M767.8,396.5c0,5.1-1.6,6.6-3.9,6.6s-3.9-1.6-3.9-6.7s3.9-11.9,3.9-11.9S767.8,391.3,767.8,396.5z"/>
		<path class="st6" d="M645.2,395.5c0,4.7-1.5,6.1-3.6,6.1s-3.6-1.4-3.6-6.2s3.6-11,3.6-11S645.2,390.8,645.2,395.5z"/>
		<path class="st6" d="M623.6,260.7c0,4.7-1.5,6.1-3.6,6.1s-3.6-1.4-3.6-6.2s3.6-11,3.6-11S623.6,256,623.6,260.7z"/>
		<path class="st6" d="M818.3,233.7c0,7.3-2.3,9.4-5.5,9.4s-5.5-2.2-5.5-9.6s5.5-17,5.5-17S818.3,226.4,818.3,233.7z"/>
		<path class="st6" d="M752.9,196.4c0,5.2-1.7,6.7-3.9,6.7s-3.9-1.6-3.9-6.8s3.9-12.1,3.9-12.1S752.9,191.2,752.9,196.4z"/>
		<path class="st6" d="M400.1,353.7c0,5-1.6,6.4-3.8,6.4s-3.7-1.5-3.7-6.5s3.7-11.6,3.7-11.6S400.1,348.7,400.1,353.7z"/>
		<path class="st6" d="M394.9,240.4c0,7.3-2.3,9.4-5.5,9.4s-5.5-2.2-5.5-9.6s5.5-17,5.5-17S394.9,233.1,394.9,240.4z"/>
		<path class="st6" d="M285,355.1c0,7.3-2.3,9.4-5.5,9.4s-5.5-2.2-5.5-9.6s5.5-17,5.5-17S285,347.7,285,355.1z"/>
		<path class="st7" d="M985.5,53.2c-3.4-6.9-11.1-11.5-23.7-11.5c-17.8,0-29.5,9.4-29.6,21.4c-13.9,0.7-22.4,8-22.4,17.2
			s9.5,17.2,24.8,17.2l0,0c7.4,1,17.5,1.2,28.5,1.2l16.8-0.2l0,0c0.2,0,0.4-0.3,0.6-0.3l0.6-0.2c19.5-0.9,27.6-3.3,33.6-11.3
			C1027,70.1,1004.7,43.5,985.5,53.2z"/>
		<path class="st7" d="M347.7,51.2c-0.1-8.2-8.1-14.7-20.3-14.7c-8.7,0-13.9,3.1-16.3,7.9c-13.2-6.6-28.5,11.6-20,22.9
			c4.1,5.4,9.7,7.1,23,7.7l0.5-0.3l0.4-0.3l0,0c3.5,0,7.4,0.5,11.5,0.5c7.6,0,14.5-0.5,19.6-0.5l0,0c10.5,0,17-5,17-11.7
			S357.2,51.7,347.7,51.2z"/>
		<path class="st7" d="M271.9,68.9c-7.6,0-13.7,2.6-13.5,9s5.8,9,13.4,9s12.6-3.8,12.6-8.9S279.5,68.9,271.9,68.9z"/>
	</g>
</g>
<g>
	<defs>
		<rect id="SVGID_3_" width="1279.3" height="459.5"/>
	</defs>
	<clipPath id="SVGID_4_">
		<use xlink:href="#SVGID_3_"  style="overflow:visible;"/>
	</clipPath>
	<g class="st8">
		<path class="st9" d="M727.6,319.6c-0.2-3.6-1.7-6.9-3.1-10.1s-3.2-6.6-6.1-8.9s-5.6-2.8-8.6-3.5s-8.2-1.7-12.4-1
			c-4,0.6-8,1.6-11.9,2.9c-3.8,1.3-7.2,3.6-10.6,5.7c-5.5,3.5-8.8,8.5-9.1,15.1c-0.2,3.6,1.5,6.5,2,10c0.7,3.6,2,7.1,3.9,10.3
			c3.3,6.2,7.6,11.6,13.6,15.4c1.6,1,3.4,1.8,5.2,2.3c0.7,2.9,0,6.5-2,8.6s2.9,5.3,5.2,5.6c4.5,0.6,12.2,0.9,15.7-2.9
			c0.2-0.2,0.3-0.5,0.2-0.8c-0.1-0.3-0.2-0.7-0.5-0.9c-1.5-1-2.4-2.7-2.4-4.5c-0.2-1.8-0.2-3.5-0.1-5.3c7.5-2.5,12.4-9,16-16
			c1.7-3.5,2.3-7,3.3-10.7S727.9,323.8,727.6,319.6z"/>
		<path class="st10" d="M613.1,303.3c-2.3-2.2-5.7-3.4-8.7-4.4c-4.1-1.4-8.4-2.1-12.7-1.9c-7.7,0.3-15.5,3-22.2,6.6
			c-5.1,2.7-11.7,7.2-12.3,13.6c-0.1,1.9,0.1,3.9,0.7,5.7c0.3,1.2,0.7,2.3,1.1,3.4c0.3,1.2,0.4,2.5,0.5,3.7c0.8,4.7,2.9,8.9,5.3,13
			c3.5,5.8,8.1,11.1,14.3,14l3.1,1.2c0,1-0.1,2-0.2,3c-0.2,1.8-0.5,3.6-0.6,5.4l0,0c-0.5,5.5,9.3,5.3,12.9,5.1s4.5-1.3,5.2-3.7
			s-0.7-2.8-1.1-3.8c-0.8-1.9-1.1-4-1.1-6.1h0.4c6.6-2,11.2-7.2,14.6-13s5-14.8,6.7-22.8C620.5,316.1,617.8,307.8,613.1,303.3z"/>
		<path class="st10" d="M544.2,418.2c-3-0.1-5.5,4.9-6.4,7.1c-2,4.7-3.8,9.4-5.5,14.2s-3,9.7-1.7,14.3c0.4,1.6,2.8,4,4.6,3.5
			c1-0.2,1.7-1,1.8-2c0.2-1-0.1-2.1,0.1-3.2s0.5-2.6,0.9-3.9c1.5-4.6,5-8.7,7.6-12.7s5.1-7.5,5.2-11.7S546.9,418.3,544.2,418.2z"/>
		<path class="st10" d="M648,436.6c-0.6-1.9-1.4-3.8-2.2-5.7c-1-2.3-1.6-4.7-2.6-6.9s-3.9-6.4-7.6-5.2c-1.8,0.8-3.6,1.7-5.3,2.7
			c-1,0.4-1.7,1.4-1.5,2.5c1.3,4.6,4.8,8.1,7.3,12.1c2.5,4,6.2,8.5,7.5,13.2c0.6,2.1-0.6,8.4,3.2,8.1s3.9-3.1,4.2-5.2
			C651.8,446.8,649.8,441.5,648,436.6z"/>
		<path class="st11" d="M631.4,318.6c-0.6-2-1.4-4-2.2-6l-2.9-6.9c-2.3-6.2-5.8-11.9-10.1-16.9c-4.8-5.3-11-8.2-17.9-9.7
			c-14.5-3.2-29.7,1.4-39.3,12.8c-4.7,5.6-7.8,12.3-10.6,19l-2.3,5.5c-0.6,1.4-1.7,2.9-2,4.4s2.1,5,4,6.6c3.4,2.6,7.3,4.3,11.5,5.1
			c0.5,0.1,1-0.2,1.1-0.7c0,0,0-0.1,0-0.1c-0.1-5.7-1-15,7.1-15.4s14.6,0.1,21.9,0.1s13.8,0.2,20.6-0.3s6.1,9.6,5.4,14.3
			c-0.2,0.5,0.1,1,0.5,1.1c0.1,0,0.2,0.1,0.4,0.1h0.4c5.2-1.1,12.4-3.7,14.6-9.1C632.4,321.1,631.8,319.8,631.4,318.6z"/>
		<path class="st12" d="M590.5,336.2c-0.1-3-1.5-16-1.4-15.9c-0.5,4.6-1.7,10.3-2.1,15.8c0,0.4,0.3,1.7,0.7,1.9
			c0.4,0.1,0.9,0.2,1.3,0.1c0.8,0.1,1.5-0.4,1.6-1.2C590.6,336.7,590.6,336.4,590.5,336.2z"/>
		<path class="st13" d="M586.5,345.4l5.5-0.2c0.5-0.2,0.7-0.7,0.6-1.1c-0.1-0.3-0.3-0.5-0.6-0.6l-5.5,0.2c-0.5,0.2-0.7,0.7-0.6,1.1
			C586,345.1,586.2,345.3,586.5,345.4L586.5,345.4z"/>
		<path class="st14" d="M740.1,344.8c-1-4.5-0.8-9-1.4-13.5c-2.1-15.5-4.6-33.6-16.4-45.1c-10.1-9.8-25.9-11.4-38.7-6.6
			s-21.4,16.7-25.2,30.3c-2,7.6-2.9,15.4-2.9,23.2c-0.1,4,0.1,8,0.4,12c0.2,2-0.3,3.9-0.2,5.9s0.6,1.5,1.6,2.1
			c6.1,3.6,14.7,5.8,21.7,4c2-0.5,4.7-1.4,5.4-3.5c0.1-0.8-0.3-1.6-0.9-2.1c-1.5-1.5-3-3-4.3-4.6c-2.5-3-4.6-6.4-6.3-10
			c-1.6-3.3-4.3-9-2.7-12.7s4-4.3,6-5.7c2.8-2,5.9-3.6,9.2-4.5c8.2-2,16.7-1.9,24.8,0.3c4.1,1.1,8,3.2,11.2,6c2,1.5,3.2,3.8,3.5,6.3
			c0.1,2.2-1.1,4.8-1.8,6.9c-2.1,6.5-4.7,13-9.8,17.8c-0.3,0.3-0.3,0.9,0,1.2c1.7,1.6,3.8,2.6,6,2.9h0.2c3.5,0.6,7.2,0.6,10.7-0.1
			c3.1-0.6,6.9-1.5,9.5-3.6S740.7,347.6,740.1,344.8z"/>
		<path class="st15" d="M698.9,335.1c-0.1-3-1.5-16-1.4-15.9c-0.5,4.6-1.7,10.3-2.1,15.8c0,0.4,0.3,1.7,0.7,1.9
			c0.4,0.1,0.9,0.2,1.3,0.1c0.8,0.1,1.5-0.4,1.6-1.2C699,335.6,699,335.3,698.9,335.1z"/>
		<path class="st13" d="M694.9,344.3l5.5-0.2c0.5-0.2,0.7-0.7,0.6-1.1c-0.1-0.3-0.3-0.5-0.6-0.6l-5.5,0.2c-0.5,0.2-0.7,0.7-0.6,1.1
			C694.4,344,694.6,344.2,694.9,344.3L694.9,344.3z"/>
		<path class="st9" d="M655.2,419.9c-3.1-1.9-6.3,0.5-7.6,3.2c-2.3,4.5-4.2,9.3-6.1,14c-1.9,4.4-2.9,9.2-2.9,14
			c0.1,2.5,1,5.3,3.6,6.1s3.3-1.8,3.5-3.9c0.9-4.9,3-9.5,6-13.5c2.7-3.6,5.3-7.6,6.4-12C659,424.8,657.8,421.6,655.2,419.9z"/>
		<path class="st9" d="M755.8,436.6l-2.7-6.8c-0.7-1.5-1.1-3-1.4-4.6c0-0.8-0.2-1.6-0.5-2.3c-1.7-3.3-5.3-5.1-8.9-4.5
			c-10.2,1.3-0.9,14.1,1.8,18.1s6.5,8.9,7.6,13.8c0.4,1.3,0.5,2.7,0.5,4.1c-0.1,0.6,0,1.2,0.2,1.8c0.4,0.8,1.4,1.3,2.3,1.2
			c2.6-0.2,3.9-3.1,4.2-5.2C759.6,446.8,757.7,441.5,755.8,436.6z"/>
		<path class="st16" d="M644,424.5c-6.1-15.6-12.2-31.5-21.1-45.8c-3.1-5.3-7.6-9.7-13-12.7c-2.6-1.4-5.5-2.3-8.4-2.6
			c-1-0.1-3.1-0.7-4.1-0.1s-1.3,1.1-2.1,1.5c-1.4,0.6-2.8,0.9-4.3,0.9c-2.3,0.2-4.5-0.2-6.6-1.1c-1.5-0.7-2-1.6-3.7-1.6
			c-3.2,0.1-6.4,0.8-9.4,2.1c-5.6,2.4-9.7,7.3-13,12.2c-9.2,13.8-15.2,29.8-21.2,45.2l-0.7,1.8c-0.1,0.4,0.1,0.8,0.4,1
			c3.5,2.3,7.3,4.8,11.4,6.1c0.4,0.1,0.8-0.1,1-0.4c3.9-6.5,7.8-13.2,11.4-19.9c-3,12.2-3.5,25-3.8,37.5c0,2.3,0,4.5,0,6.8
			c-0.2,1.3,0.1,2.6,0.7,3.7c0.6,0.9,2,1,2.9,1.2l7.3,1.6c8.4,1.7,17,2.7,25.6,2.9c8.5,0.2,17.1-0.6,25.4-2.4
			c1.6-0.3,5.9-0.6,6.5-2.5c0.3-1.3,0.4-2.6,0.3-3.9c0-8.8-1.2-17.7-2.1-26.5c-0.6-5.9-1.7-11.8-3.2-17.6
			c3.5,6.4,7.1,12.7,10.8,18.9c0.2,0.3,0.6,0.5,1,0.4c4-1.2,7.9-3.7,11.4-6.1C643.7,425,643.9,424.8,644,424.5z"/>
		<path class="st17" d="M752.4,424.5c-6.4-16.4-12.5-33.9-22.8-48.3c-3.7-5.5-9.1-9.6-15.3-11.8c-1.7-0.6-3.5-0.9-5.3-1.1
			c-2.4-0.3-2.3-0.2-2.5,0c-3.6,2.6-14.6,1.5-16.3-0.1c-12.2,0.5-20.2,8.8-26.1,18.9c-7.9,13.4-13.5,28-19.1,42.4
			c-0.1,0.4,0.1,0.8,0.4,1c3.5,2.3,7.3,4.8,11.4,6.1c0.4,0.1,0.8-0.1,1-0.4c3.9-6.5,7.8-13.2,11.4-19.9c-3,12.2-3.6,25-3.8,37.5
			c0,2.3-0.1,4.5,0,6.8c-0.2,1.3,0.1,2.6,0.7,3.7c0.6,0.9,2,1,2.9,1.2l7.3,1.6c8.4,1.7,17,2.7,25.6,3c8.5,0.2,17.1-0.6,25.4-2.4
			c1.6-0.3,5.9-0.6,6.5-2.5c0.3-1.3,0.4-2.6,0.3-3.9c0-8.8-1.2-17.7-2.1-26.5c-0.6-5.9-1.7-11.8-3.2-17.6
			c3.5,6.4,7.1,12.7,10.8,18.9c0.2,0.3,0.6,0.5,1,0.4c4-1.2,7.9-3.7,11.4-6.1C752.3,425.2,752.5,424.9,752.4,424.5z"/>
		<path class="st9" d="M985.6,310.3c-1.1-3.5-3-6.7-5.5-9.4c-4.7-5.2-13-6.7-19.6-6.8c-7.5,0-14.8,2.1-21.2,6
			c-5.9,3.5-10.9,8.8-13.3,15.4s-1.1,15.4,1,22.2c2.8,9,9.9,16,19,18.6c0.2,0.6,0.4,1.3,0.5,2c0.2,2.5-0.7,5.1-1.4,7.4v0.2
			c0,0.1,0,0.3,0,0.4c-0.3,5.4,10.1,4.9,13.5,4c1.4-0.4,6-1.8,6-3.7s-0.9-2.5-1.4-3.7c-0.8-1.8-1-3.9-0.6-5.9
			c8.5-1.7,13.7-7.7,17.6-15.1c1.7-3.4,2.9-7,3.7-10.7c0.4-1.9,0.3-3.9,0.6-5.8s1.9-3.3,2.4-5S986.6,313.3,985.6,310.3z"/>
		<path class="st9" d="M912.7,425.4c-2.2-1.2-4.4-2.1-6.7-3.2c-0.6-0.3-1.6-0.6-2.2-0.1c-2.9,2.7-4.4,7.1-5.7,10.7
			c-1.7,4.4-3,8.9-3.7,13.6c-0.4,3.3-0.7,6.8,1.6,9.4s3.4,2,4.6,0.4l0.2-0.3c0.1-0.1,0.1-0.3,0.1-0.4c0.5-2,0.3-4.1,0.6-6.1
			s1.9-4.8,3-7c1-1.7,2.1-3.4,3.4-4.9c1.3-1.8,2.3-3.9,3.5-5.8S915.5,426.9,912.7,425.4z"/>
		<path class="st9" d="M1012.4,436.4c-1.6-4.2-3-8.6-5.1-12.5c-1.3-2.7-4.2-4.2-7.2-3.7c-3,0.6-4.6,3.6-4.5,6.4
			c0.2,1.5,0.8,3,1.7,4.3c1.4,2.4,2.9,4.7,4.4,7.1c2.9,4.5,5.8,8.7,6.8,14c0.3,1.5-0.3,6.3,2.9,5.2
			C1019.6,454.5,1014.4,441.6,1012.4,436.4z"/>
		<path class="st10" d="M874.5,319c-0.2-4-0.2-8-1.5-11.8c-1.3-3.4-3.1-6.5-5.4-9.3c-4.6-5.7-10.4-9.3-17.9-8.6s-15.9,4.4-22.1,8.7
			c-11.8,8.2-14.3,24.6-11.3,37.8c2.4,10.3,10.3,18.5,20.5,21.4c0.6,3.8,0.7,8.9-2.8,10.1c-0.5,0.2-0.7,0.7-0.6,1.1
			c0.1,0.3,0.3,0.5,0.6,0.6c3.7,1.5,7.7,2.2,11.7,2.1c3.5-0.1,8.4-0.7,11.2-2.8c0.2-0.2,0.4-0.4,0.4-0.7c0-0.6-0.3-1.1-0.7-1.5
			c-1.4-1.4-2.4-1.8-2.9-3.9c-0.3-1.5-0.4-3-0.3-4.5c3-0.7,5.9-2,8.3-3.9c3.5-3.1,6.4-6.8,8.4-11C874.1,335,874.9,327.3,874.5,319z"
			/>
		<path class="st10" d="M800.2,417.2c-3.2,0.8-6.6,4.3-7.8,7.3s-3.4,9.2-5.1,13.8s-3.5,10.2-2.2,15c0.5,1.7,2.7,4.4,4.8,3.9
			c1-0.2,1.7-1.1,1.8-2.1c0.2-1-0.1-2.1,0.1-3.2s0.5-2.6,0.9-3.9c1.5-4.5,5-8.7,7.7-12.6c1.4-2.2,2.7-4.6,3.7-7
			c0.9-2.1,1.8-3.5,1.9-5.8S803.2,416.4,800.2,417.2z"/>
		<path class="st10" d="M903.6,436.4c-1.6-4.2-3-8.6-4.8-12.7s-3.6-6.6-7.4-6c-11.3,1.6-2.3,14.4,0.9,19.3s5.9,8.1,7.1,13
			c0.4,1.4,0.5,2.8,0.5,4.2c-0.1,0.6,0,1.2,0.2,1.8c0.4,0.8,1.4,1.3,2.3,1.2c2.6-0.2,4-3.1,4.3-5.3
			C907.4,446.6,905.5,441.3,903.6,436.4z"/>
		<path class="st11" d="M877.6,294.5c-5.5-11.7-17.9-16.8-30.2-17.5s-24.8,4.7-31.9,14.2c-3.9,5.1-6.1,11.4-6.4,17.8
			c-0.4,7.3,2.6,14.1,6.4,20.2c0.3,0.4,0.8,0.5,1.2,0.3c0.2-0.1,0.3-0.3,0.4-0.5c2.9-10.2,14.4-13.9,23.2-17.4
			c5.3-2.1,12-3.8,16.7-7.6c6.7,6.3,14.7,12.8,16.2,22.4c0.1,0.8,1.2,0.7,1.6,0.2C881.5,317.2,882.6,304.9,877.6,294.5z"/>
		<path class="st15" d="M846.8,335.7c-0.1-3-1.5-16.1-1.5-16c-0.5,4.6-1.7,10.4-2.1,15.9c0,0.4,0.3,1.8,0.7,1.9
			c0.4,0.1,0.9,0.2,1.3,0.1c0.8,0.2,1.5-0.3,1.7-1.1C846.9,336.3,846.9,336,846.8,335.7z"/>
		<path class="st13" d="M842.8,345l5.6-0.2c0.5-0.2,0.7-0.7,0.6-1.1c-0.1-0.3-0.3-0.5-0.6-0.6l-5.6,0.2c-0.5,0.2-0.7,0.7-0.6,1.1
			C842.3,344.7,842.5,344.9,842.8,345L842.8,345z"/>
		<path class="st14" d="M993.2,314.5c-0.9-6.6-2.8-13.1-5.7-19.1c-6.3-12.6-19.6-19.3-33.5-19c-15.7,0.4-29.2,11-35.2,25
			c-3.4,8.1-5,16.9-4.5,25.7c0.4,8,2.1,17.7,8.2,23.5h0.1c3.8,3.1,10.6,4.6,14.4,0.5c0.2-0.2,0.3-0.5,0.2-0.8
			c-0.2-0.6-0.6-1.1-1.2-1.5c-1.1-0.9-2.1-2-2.9-3.3c-2-2.9-3.6-6.1-4.8-9.4c-0.9-2.6-1.3-5.3-1.1-8c0.1-3.4,3.5-7.1,6.1-9
			c5.4-3.9,11.5-5.8,17.7-8.2s11.4-3.7,15.9-7.3c5.8,5.6,12.5,11.2,15.4,19.1c1.4,3.8-0.3,9.1-1.5,12.7c-1.3,4.1-3.3,7.9-5.8,11.4
			c-3.6,4.9,6.2,6,9.1,5.4c6.3-1.4,9.6-8.8,10.2-14.6C995.3,329.9,994.4,322.1,993.2,314.5z"/>
		<path class="st15" d="M956.7,335.1c-0.1-3-1.5-16.1-1.5-16c-0.5,4.6-1.7,10.4-2.1,15.9c0,0.4,0.3,1.8,0.7,1.9
			c0.4,0.1,0.9,0.2,1.3,0.1c0.8,0.2,1.5-0.3,1.7-1.1C956.8,335.7,956.8,335.4,956.7,335.1z"/>
		<path class="st13" d="M952.7,344.4l5.6-0.2c0.5-0.2,0.7-0.7,0.6-1.1c-0.1-0.3-0.3-0.5-0.6-0.6l-5.6,0.2c-0.5,0.2-0.7,0.7-0.6,1.1
			C952.2,344.1,952.4,344.3,952.7,344.4L952.7,344.4z"/>
		<path class="st16" d="M899.7,424.1c-6.2-15.8-12.3-31.7-21.3-46.2c-3.2-5.2-7.3-9.9-12.7-12.9c-2.6-1.4-5.4-2.3-8.3-2.7
			c-1-0.1-3.1-0.7-4.1-0.1c-2.6,1.5-4,2.3-7,2.5c-2.1,0.2-4.3-0.2-6.2-1.1c-1.4-0.7-2-1.6-3.6-1.6c-3.3,0.1-6.6,0.8-9.6,2.2
			c-5.7,2.4-10.1,7.3-13.5,12.3c-9.4,13.9-15.3,30.1-21.4,45.6l-0.7,1.9c-0.1,0.4,0.1,0.8,0.4,1c3.5,2.4,7.4,4.9,11.5,6.1
			c0.4,0.1,0.8-0.1,1-0.4c3.9-6.6,7.8-13.3,11.5-20.1c-3.1,12.3-3.6,25.2-3.8,37.9c0,2.3,0,4.6,0,6.9c-0.2,1.3,0.1,2.6,0.7,3.8
			c0.6,0.9,2,1,2.9,1.2l7.4,1.6c8.5,1.7,17.2,2.7,25.9,3c8.6,0.3,17.3-0.6,25.7-2.4c1.6-0.3,5.9-0.6,6.6-2.5
			c0.3-1.3,0.4-2.6,0.3-3.9c0-8.9-1.2-17.8-2.1-26.7c-0.6-6-1.7-11.9-3.2-17.7c3.5,6.5,7.2,12.8,10.9,19.1c0.2,0.3,0.6,0.5,1,0.4
			c4.1-1.3,8-3.8,11.5-6.1C899.8,424.9,899.9,424.5,899.7,424.1z"/>
		<path class="st17" d="M1009,424.1c-6.4-16.5-12.6-34.2-23-48.7c-3.7-5.5-9.1-9.7-15.4-11.9c-1.7-0.6-3.5-0.9-5.3-1.1
			c-1-0.1-2-0.5-2.4-0.1c-2,2.2-11.7,2.4-15.3,0.5l-1.3-0.7c-12.3,0.5-20.4,9-26.3,19.2c-7.9,13.5-13.6,28.2-19.3,42.8
			c-0.1,0.4,0.1,0.8,0.4,1c3.5,2.4,7.4,4.9,11.5,6.1c0.4,0.1,0.8-0.1,1-0.4c3.9-6.6,7.8-13.3,11.5-20.1c-3.1,12.3-3.6,25.2-3.8,37.9
			c0,2.3,0,4.6,0,6.9c-0.2,1.3,0.1,2.6,0.7,3.8c0.6,0.9,2,1,2.9,1.2l7.4,1.6c8.5,1.7,17.2,2.7,25.9,3c8.6,0.3,17.3-0.6,25.7-2.4
			c1.6-0.3,5.9-0.6,6.6-2.5c0.3-1.3,0.4-2.6,0.3-3.9c0-8.9-1.2-17.8-2.1-26.7c-0.6-6-1.7-11.9-3.2-17.7c3.5,6.5,7.2,12.8,10.9,19.1
			c0.2,0.3,0.6,0.5,1,0.4c4.1-1.3,8-3.8,11.5-6.1C1009.2,425,1009.3,424.5,1009,424.1z"/>
		<path class="st10" d="M360.4,302.3c-4-5.3-9.9-9-16.5-10.3c-7.2-1.4-15.3-0.3-22.5,1.1s-11.7,3.7-14.7,9.2s-3,11.4-2.6,17
			c0.9,12.4,5.5,25.7,15,34.1c2.7,2.4,5.8,4.2,9.2,5.3c0.2,2.1,0.2,4.1-0.1,6.2c-0.2,1.1-1,2.1-1.2,3.2c-0.1,0.2-0.1,0.5,0,0.7
			l0.3,0.3c3.6,4.3,12.2,3.9,17.1,2.4c2.1-0.6,2.3-2.2,1.5-4c-1-2.2-1.6-4.5-1.7-6.9c0-0.7,0.1-1.4,0.2-2.1
			c7.4-2.7,13.2-9.1,16-16.4C365.2,329.3,369.8,314.3,360.4,302.3z"/>
		<path class="st9" d="M473.8,303.8c-1.5-3.6-3.5-7-5.2-10.5c-1.7-3.6-3.8-7-6.3-10.2c-8.3-10.2-23.8-12.7-35-6.3
			c-5.5,3.3-9.7,8.3-12,14.2c-2.8,6.9-2.1,15.3-1.8,22.6c0.2,7.9,1.4,15.8,3.6,23.4c2.2,7.3,7.1,12.7,13,17.4c2.3,1.8,4.8,3.2,7.6,4
			c0,1,0,2,0,3s-0.7,4.5-0.1,6.6s1.6,1.3,2.6,1.4c2.5,0,5.1-0.2,7.6-0.6c1.7-0.2,6.3,0,6.9-2.3s-0.2-2.8-0.7-4.1
			c-0.4-1.3-0.7-2.6-0.8-3.9c2.1-0.6,4.1-1.5,6-2.7c10.4-6.5,13.8-19.6,15.5-30.9C475.5,318,476.5,310.5,473.8,303.8z"/>
		<path class="st12" d="M337.2,336.7c-0.1-3-1.5-16.1-1.5-16c-0.5,4.6-1.8,10.4-2.1,16c0,0.4,0.3,1.8,0.7,1.9
			c0.4,0.1,0.9,0.2,1.3,0.1c0.7,0.2,1.5-0.2,1.7-1C337.4,337.4,337.4,337,337.2,336.7z"/>
		<path class="st13" d="M333.2,346l5.6-0.2c0.5-0.2,0.7-0.7,0.6-1.1c-0.1-0.3-0.3-0.5-0.6-0.6l-5.6,0.2c-0.5,0.2-0.7,0.7-0.6,1.1
			C332.7,345.7,332.9,345.9,333.2,346L333.2,346z"/>
		<path class="st11" d="M368,291.8c-3-9.6-12.4-15.6-21.6-18c-10.9-2.8-23.9-0.4-33.3,5.7s-13.9,17.6-12.4,28.3c0.3,2,0.8,4,1.3,5.9
			c0.2,0.8,0.5,2.4,1.2,3s4-0.1,5.6-0.8c3-1.4,5.8-3.3,8.2-5.7c2-1.8,3.7-4,4.9-6.5c2.1,2.2,5,3.4,7.8,4.6c4.1,1.8,8.4,2.8,12.8,3.2
			c7.9,0.6,17.3-0.7,21.6,7.6c0.2,0.4,0.8,0.6,1.2,0.3c0.1,0,0.1-0.1,0.2-0.1C371.7,311.9,370.7,300.4,368,291.8z"/>
		<path class="st15" d="M446.2,335.6c-0.1-3-1.5-16.1-1.5-16c-0.5,4.6-1.8,10.4-2.1,16c0,0.4,0.3,1.8,0.7,1.9
			c0.4,0.1,0.9,0.2,1.3,0.1c0.7,0.2,1.5-0.2,1.7-1C446.4,336.3,446.4,335.9,446.2,335.6z"/>
		<path class="st13" d="M442.2,344.9l5.6-0.2c0.5-0.2,0.7-0.7,0.6-1.1c-0.1-0.3-0.3-0.5-0.6-0.6l-5.6,0.2c-0.5,0.2-0.7,0.7-0.6,1.1
			C441.7,344.6,441.9,344.8,442.2,344.9L442.2,344.9z"/>
		<path class="st14" d="M481,284.9c-1.6-9.4-8.3-15.9-16.6-20c-8.1-3.9-17.2-4.9-26-3.1c-6.9,1.4-13.6,4.7-16.3,11.4
			c-0.7-0.3-1.5-0.5-2.3-0.7c-1.3,0-2.5,0.4-3.6,1.1c-2.7,1.4-4.6,4.2-6,6.9c-2.8,5.7-2.5,13.2-1.5,19.3c0.5,3,1.4,5.9,2.7,8.7
			c1,2.2,1.7,4,4.2,3.2c6.9-2.4,13.1-6.3,18.3-11.4c12.9,5.2,26.4,8.8,40.2,11c0.4,0.1,0.8-0.1,1-0.4C479.7,303,482.6,294,481,284.9
			z"/>
		<path class="st10" d="M295.9,427.7c-0.3-1-2.1-1.4-2.7-2.1s-3-3.2-4.5-3.4c-3.1-0.4-5.3,3.7-6.1,6.1c-2.8,8.2-9.1,18.3-6.6,27.3
			c0.4,1.6,2.8,4,4.7,3.6c1-0.2,1.7-1.1,1.8-2.1c0.2-1-0.1-2.2,0.1-3.2s0.5-2.6,0.9-3.9c1.4-4.4,4.8-8.6,7.5-12.3
			S296.8,430.9,295.9,427.7z"/>
		<path class="st9" d="M400.4,423c-3.4-1.3-6.3-1.1-7.8,2.5s-2.7,9.4-4.3,14s-3.5,9.8-2.7,15.5v0.2c0.5,1.7,2.7,4.7,4.8,3.9
			s2-4.3,2.4-6.5c0.4-2.4,1.3-4.6,2.5-6.7c1.3-2.2,2.7-4.3,3.8-6.6c1.9-3.9,5.7-7.3,6.6-11.6C406.3,424.9,402.3,423.7,400.4,423z"/>
		<path class="st10" d="M394.8,438.2c-1.5-4-2.7-8.1-4.7-11.8c-1-2-3.6-6.7-6.4-5.2s-4.1,1.9-5.6,3.2s-0.9,1.9-0.4,3.4
			c1.6,4.5,4.3,8.6,6.8,12.6c1.2,1.9,2.5,3.7,3.7,5.5c1.4,2.4,2.4,5.1,2.8,7.9c0.3,1.5-0.3,6.3,2.9,5.2
			C402,456.4,396.7,443.4,394.8,438.2z"/>
		<path class="st9" d="M503.8,438.2l-2.9-7.4c-0.7-1.8-0.8-3.7-1.3-5.5c-0.6-2.3-2.9-3.7-5.2-3.1c-0.3,0.1-0.6,0.2-0.9,0.3
			c-2,0.9-7.5,4.4-6.5,7.2c0.8,1.8,1.8,3.6,3,5.2l4.5,7.2c2.6,4.2,5.3,7.9,5.5,13.1c0.1,2.1,0.4,4.6,3.2,3.6s3.4-3.7,3.7-6.2
			C507.4,447.8,505.5,442.8,503.8,438.2z"/>
		<path class="st16" d="M390.8,425.9c-6.2-15.8-12.4-31.8-21.3-46.3c-3.3-5.3-7.4-10.1-12.8-13.2c-2.6-1.4-5.4-2.4-8.3-2.7
			c-1-0.1-3.1-0.7-4.1-0.1s-1.4,1.2-2.2,1.6c-3.6,1.6-7.7,1.7-11.3,0.2c-1.5-0.7-2-1.6-3.7-1.6c-3.3,0.1-6.5,0.8-9.5,2.2
			c-5.6,2.5-9.9,7.4-13.2,12.4c-9.3,14-15.4,30.2-21.4,45.7l-0.7,1.9c-0.1,0.4,0.1,0.8,0.4,1c3.5,2.4,7.4,4.9,11.5,6.1
			c0.4,0.1,0.8-0.1,1-0.4c3.9-6.6,7.8-13.3,11.5-20.2c-3.1,12.3-3.6,25.3-3.8,37.9c0,2.3,0,4.6,0,6.9c-0.2,1.3,0.1,2.6,0.7,3.8
			c0.6,0.9,2,1,2.9,1.2l7.4,1.6c8.5,1.7,17.2,2.7,25.9,3c8.6,0.3,17.3-0.6,25.7-2.4c1.6-0.3,5.9-0.6,6.6-2.5
			c0.3-1.3,0.4-2.6,0.3-3.9c0-8.9-1.2-17.9-2.1-26.7c-0.6-6-1.6-12-3.2-17.8c3.5,6.5,7.2,12.8,10.9,19.1c0.2,0.3,0.6,0.5,1,0.4
			c4.1-1.3,8-3.8,11.5-6.1C390.8,426.8,391,426.3,390.8,425.9z"/>
		<path class="st17" d="M500.4,425.9c-6.6-16.8-12.9-34.7-23.5-49.5c-3.8-5.4-8.8-9.8-15.2-11.8c-1.7-0.5-3.5-0.8-5.3-0.9
			c-2.4-0.2-2.3,0.4-4.3,1.6c-4.2,2.4-10.5,1.5-14.2-1.2h-0.2c-0.2-0.1-0.4-0.2-0.6-0.1c-12.5,0.2-20,9-25.9,19.1
			c-7.9,13.6-13.6,28.3-19.3,42.9c-0.1,0.4,0.1,0.8,0.4,1c3.5,2.4,7.4,4.9,11.5,6.1c0.4,0.1,0.8-0.1,1-0.4c4-6.6,7.9-13.3,11.5-20.2
			c-1.6,6.4-2.7,13-3.1,19.6c-0.3,4.6-0.5,9.2-0.7,13.8c-0.1,2.3-0.1,4.6-0.1,6.9s-0.4,4.7,0.1,6.8s4.2,3,6.7,3.6
			c4.6,1,9.2,1.8,13.8,2.5c8.6,1.3,17.3,1.7,26,1.2c4-0.2,8-0.7,11.9-1.4l6.3-1.4c1.2-0.3,3.5-0.5,4.3-1.6s0.5-6.8,0.3-9.1
			c-0.7-12.1-1.7-24.3-4.5-36.1c-0.4-1.6-0.8-3.2-1.3-4.8c3.7,6.9,7.6,13.6,11.5,20.2c0.2,0.3,0.6,0.5,1,0.4c4.1-1.3,8-3.8,11.5-6.1
			C500.4,426.8,500.6,426.3,500.4,425.9z"/>
		<g class="st18">
			<rect x="320.5" y="414.4" class="st19" width="32.4" height="20.2"/>
			<rect x="320.5" y="414.4" class="st20" width="32.4" height="16.9"/>
			<rect x="320.5" y="414.4" class="st21" width="32.4" height="13.5"/>
			<rect x="320.5" y="414.4" class="st22" width="32.4" height="10.1"/>
			<rect x="320.5" y="414.4" class="st23" width="32.4" height="6.8"/>
			<rect x="320.5" y="414.4" class="st24" width="32.4" height="3.4"/>
		</g>
		<g class="st18">
			<rect x="430.4" y="414.4" class="st19" width="32.4" height="20.2"/>
			<rect x="430.4" y="414.4" class="st20" width="32.4" height="16.9"/>
			<rect x="430.4" y="414.4" class="st21" width="32.4" height="13.5"/>
			<rect x="430.4" y="414.4" class="st22" width="32.4" height="10.1"/>
			<rect x="430.4" y="414.4" class="st23" width="32.4" height="6.8"/>
			<rect x="430.4" y="414.4" class="st24" width="32.4" height="3.4"/>
		</g>
		<g class="st18">
			<rect x="574.6" y="414.4" class="st19" width="32.4" height="20.2"/>
			<rect x="574.6" y="414.4" class="st20" width="32.4" height="16.9"/>
			<rect x="574.6" y="414.4" class="st21" width="32.4" height="13.5"/>
			<rect x="574.6" y="414.4" class="st22" width="32.4" height="10.1"/>
			<rect x="574.6" y="414.4" class="st23" width="32.4" height="6.8"/>
			<rect x="574.6" y="414.4" class="st24" width="32.4" height="3.4"/>
		</g>
		<g class="st18">
			<rect x="684.7" y="414.4" class="st19" width="32.4" height="20.2"/>
			<rect x="684.7" y="414.4" class="st20" width="32.4" height="16.9"/>
			<rect x="684.7" y="414.4" class="st21" width="32.4" height="13.5"/>
			<rect x="684.7" y="414.4" class="st22" width="32.4" height="10.1"/>
			<rect x="684.7" y="414.4" class="st23" width="32.4" height="6.8"/>
			<rect x="684.7" y="414.4" class="st24" width="32.4" height="3.4"/>
		</g>
		<g class="st18">
			<rect x="828.8" y="414.4" class="st19" width="32.4" height="20.2"/>
			<rect x="828.8" y="414.4" class="st20" width="32.4" height="16.9"/>
			<rect x="828.8" y="414.4" class="st21" width="32.4" height="13.5"/>
			<rect x="828.8" y="414.4" class="st22" width="32.4" height="10.1"/>
			<rect x="828.8" y="414.4" class="st23" width="32.4" height="6.8"/>
			<rect x="828.8" y="414.4" class="st24" width="32.4" height="3.4"/>
		</g>
		<g class="st18">
			<rect x="938.9" y="414.4" class="st19" width="32.4" height="20.2"/>
			<rect x="938.9" y="414.4" class="st20" width="32.4" height="16.9"/>
			<rect x="938.9" y="414.4" class="st21" width="32.4" height="13.5"/>
			<rect x="938.9" y="414.4" class="st22" width="32.4" height="10.1"/>
			<rect x="938.9" y="414.4" class="st23" width="32.4" height="6.8"/>
			<rect x="938.9" y="414.4" class="st24" width="32.4" height="3.4"/>
		</g>
		<path class="st25" d="M801.5,153.6c-2.1-4.5-7-7.5-15.1-7.7c-1.7,0-3.3,0.1-5,0.3c-6.3-7.4-16.4-11.5-26-6.9
			c-3.3-7-10.9-11.7-23.5-11.9c-17.8-0.3-29.6,8.9-30,20.8c-13.9,0.4-22.6,7.5-22.7,16.7s9.2,16.6,24.4,17.6l0,0
			c7.4,1,17.5,1.1,28.5,1.4c6,0.1,11.6,0.6,16.8-0.4l0,0l0.6,0.2h0.6c9.3-0.3,16-0.9,21.2-2.3l15.2,0.5c3.8,0.1,7.5,0.5,10.8-0.5
			l0,0c0.1,0,0.3,0.3,0.4,0.3l0.4,0.2c12.5-0.3,17.8-1.7,21.7-6.7C827.9,164.8,813.9,147.6,801.5,153.6z"/>
		<path class="st25" d="M474.6,170.6c1.8-3.9,6-6.5,13-6.6c1.4,0,2.9,0.1,4.3,0.3c5.4-6.3,14.2-9.9,22.4-6c2.9-6,9.4-10.1,20.3-10.3
			c15.4-0.3,25.5,7.7,25.9,17.9c12,0.4,19.5,6.4,19.6,14.4s-7.9,15.2-21.1,15.2l0,0c-6.4,1-15,1.1-24.6,1.2
			c-5.1,0.1-10,0.8-14.5-0.2h-1c-8-0.2-13.8-0.8-18.3-2s-8.2,0.7-13.1,0.8h-10c-10.8-0.3-15.3-1.5-18.7-5.9
			C451.8,180.4,463.9,165.5,474.6,170.6z"/>
		<path class="st26" d="M1040.1,459.5H240.6c0-198.4,179-360,399.8-360S1040.1,261.1,1040.1,459.5z"/>
		<g class="st27">
			<defs>
				<filter id="Adobe_OpacityMaskFilter" filterUnits="userSpaceOnUse" x="683.7" y="109.9" width="332.6" height="266.4">
					<feColorMatrix  type="matrix" values="1 0 0 0 0  0 1 0 0 0  0 0 1 0 0  0 0 0 1 0"/>
				</filter>
			</defs>
			<mask maskUnits="userSpaceOnUse" x="683.7" y="109.9" width="332.6" height="266.4" id="bf001441-abe8-4dab-950d-d1d8514d0cd1">
				<g class="st28">
					<g transform="translate(-1384.4 -19.5)">
						
							<image style="overflow:visible;enable-background:new    ;" width="338" height="271" xlink:href="806372D66E7DEAA5.png"  transform="matrix(1 0 0 1 2065.3 127)">
						</image>
					</g>
				</g>
			</mask>
			<g class="st29">
				<path class="st7" d="M1015.2,362.9c-22.2,53.6-73.1-66.4-160.6-131.2c-81.6-60.4-185.7-74.4-169.2-113.3
					c10.3-24.4,107.6,6.1,192.9,61.1S1025.4,338.4,1015.2,362.9z"/>
			</g>
		</g>
		<g class="st30">
			<defs>
				<filter id="Adobe_OpacityMaskFilter_1_" filterUnits="userSpaceOnUse" x="258.4" y="123.3" width="316.8" height="280.4">
					<feColorMatrix  type="matrix" values="1 0 0 0 0  0 1 0 0 0  0 0 1 0 0  0 0 0 1 0"/>
				</filter>
			</defs>
			
				<mask maskUnits="userSpaceOnUse" x="258.4" y="123.3" width="316.8" height="280.4" id="_x38_3ee72e5-fffc-4da4-9f5e-738a12b3d576">
				<g class="st31">
					<g transform="translate(-1384.4 -19.5)">
						
							<image style="overflow:visible;enable-background:new    ;" width="322" height="286" xlink:href="806372D66E7DEAA7.png"  transform="matrix(1 0 0 1 1640.3 140)">
						</image>
					</g>
				</g>
			</mask>
			<g class="st32">
				<path class="st7" d="M260,393.5c31.1,46.3,71.6-76.9,147.6-138.2S587,158,574.1,136c-21.6-36.9-125.6,12.1-201.6,73.5
					S249.1,377.2,260,393.5z"/>
			</g>
		</g>
		<circle class="st33" cx="88.6" cy="365" r="38.4"/>
		<circle class="st34" cx="164.7" cy="400.5" r="31.7"/>
		<path class="st35" d="M111.3,378.5l-0.6-0.6c-1.2-1.4-3.4-1.5-4.8-0.3c0,0,0,0,0,0l-13,11.6v-16c0.1-1.9-1.4-3.5-3.3-3.7h-0.8
			c-1.9,0-2.8,1.8-2.8,3.7v16l-13.3-11.6c-1.4-1.3-3.6-1.1-4.9,0.3l-0.6,0.6c-1.2,1.4-1.1,3.6,0.3,4.8c0,0,0,0,0,0l16.6,14.8v87.3
			c0,2.8,2.2,5,5,5s5-2.2,5-5V398l16.8-14.8C112.3,382,112.5,379.9,111.3,378.5z"/>
		<path class="st35" d="M182.7,414.5l-0.4-0.5c-1.1-1.1-2.7-1.1-3.9-0.2l-10.5,9.2v-12.7c0.2-1.4-0.8-2.6-2.2-2.8c0,0-0.1,0-0.1,0
			h-0.7c-1.5,0-2,1.3-2,2.8V423l-10.6-9.2c-1.2-0.9-2.8-0.9-3.9,0.2l-0.5,0.5c-1,1.1-1,2.8,0.1,3.8l13,11.7v69c0,2.2,1.8,4,4,4
			s4-1.8,4-4v-69l13.4-11.7C183.5,417.3,183.7,415.6,182.7,414.5z"/>
		<circle class="st36" cx="130.1" cy="423.2" r="25"/>
		<path class="st35" d="M144.3,434.2l-0.3-0.4c-0.8-0.8-2-0.9-2.9-0.2l-8.1,7.2v-10c0-1.2-0.9-2.2-2.1-2.4h-0.5
			c-1.2,0-1.3,1.2-1.3,2.4v10l-8.5-7.2c-0.9-0.8-2.4-0.7-3.2,0.2l-0.4,0.4c-0.8,0.8-0.8,2.1,0,3c0,0,0,0,0,0l10.1,9.2v54.4
			c0,1.9,1.6,3.5,3.5,3.5s3.5-1.6,3.5-3.5v-54.4l10.3-9.2C145.2,436.4,145.2,435,144.3,434.2C144.3,434.2,144.3,434.2,144.3,434.2z"
			/>
		<circle class="st33" cx="1204" cy="343.8" r="38.4"/>
		<path class="st35" d="M1181.4,357.3l0.6-0.6c1-1.3,2.8-1.5,4.1-0.5c0.1,0.1,0.2,0.1,0.2,0.2l12.6,11.6v-16c0-1.9,2.4-3.5,4.2-3.5
			h0.8c1.9,0,2.9,1.6,2.9,3.5v16l13.2-11.6c1.4-1.3,3.6-1.1,4.9,0.3l0.6,0.6c1.3,1.4,1.2,3.5-0.2,4.8l-16.4,14.7v87.3
			c0,3-2.5,5.5-5.5,5.5s-5.5-2.5-5.5-5.5v-87.3l-16.4-14.8C1180.2,360.7,1180.2,358.6,1181.4,357.3z"/>
		<circle class="st36" cx="1118.3" cy="410.5" r="24"/>
		<path class="st35" d="M1105.7,417.3l0.3-0.4c0.7-0.8,1.1-0.9,2-0.2l6.9,7v-9.6c0-1.1,2.7-1.6,3.8-1.6h0.5c1.1,0,0.7,0.5,0.7,1.6
			v9.6l8.5-7c1-0.8,2.3-0.7,3.2,0.2l0.5,0.4c0.7,0.8,0.1,2.1-0.7,2.9l-10.5,8.9v52.3c0,1.7-1.3,3-3,3s-3-1.3-3-3V429l-9.5-8.9
			C1104.6,419.4,1104.9,418.1,1105.7,417.3z"/>
		<circle class="st34" cx="1154.8" cy="386.1" r="31.7"/>
		<path class="st35" d="M1136.9,400l0.4-0.5c0.8-1,2.4-1.2,3.4-0.3c0,0,0.1,0.1,0.1,0.1l10,9.2v-12.7c0-1.5,1.7-2.3,3.2-2.3h0.7
			c1.5,0,2.1,0.9,2.1,2.3v12.7l10.6-9.2c1.1-1,2.9-0.9,3.9,0.2l0.5,0.5c1,1.1,1,2.7,0,3.8l-12.9,11.7v69c0,2.5-2,4.5-4.5,4.5
			s-4.5-2-4.5-4.5v-69l-12.9-11.7C1135.9,402.8,1135.9,401.1,1136.9,400z"/>
	</g>
</g>
</svg>
