<?xml version="1.0" encoding="utf-8"?>
<!-- Generator: Adobe Illustrator 18.0.0, SVG Export Plug-In . SVG Version: 6.00 Build 0)  -->
<!DOCTYPE svg PUBLIC "-//W3C//DTD SVG 1.1//EN" "http://www.w3.org/Graphics/SVG/1.1/DTD/svg11.dtd">
<svg version="1.1" xmlns="http://www.w3.org/2000/svg" xmlns:xlink="http://www.w3.org/1999/xlink" x="0px" y="0px"
	 viewBox="0 0 60 60" enable-background="new 0 0 60 60" xml:space="preserve">
<g id="圖層_2" display="none">
	<g display="inline">
		<path fill="#FFDA27" d="M1824,216.3L1824,216.3c-1.7,0-3-1.4-3-3v-31.8c0-1.6,1.3-3,3-3l0,0c1.7,0,3,1.4,3,3v31.8
			C1827,215,1825.7,216.3,1824,216.3z"/>
		<path fill="#FFDA27" d="M1827,213.3L1827,213.3c0,1.7-1.3,3-3,3h-27c-1.7,0-3-1.4-3-3v0c0-1.6,1.3-3,3-3h27
			C1825.7,210.3,1827,211.7,1827,213.3z"/>
		<path fill="#FFDA27" d="M1809.4,200.3L1809.4,200.3c1.2,1.2,1.2,3.1,0,4.2l-10.7,10.7c-1.2,1.2-3.1,1.2-4.2,0v0
			c-1.2-1.2-1.2-3.1,0-4.2l10.7-10.7C1806.4,199.1,1808.3,199.1,1809.4,200.3z"/>
		<path fill="#FFDA27" d="M1809.4,225.8L1809.4,225.8c1.2-1.2,1.2-3.1,0-4.2l-10.7-10.7c-1.2-1.2-3.1-1.2-4.2,0l0,0
			c-1.2,1.2-1.2,3.1,0,4.2l10.7,10.7C1806.4,227,1808.3,227,1809.4,225.8z"/>
	</g>
	<path display="inline" fill="#FFFFFF" stroke="#000000" stroke-miterlimit="10" d="M1880.6,210.9L1880.6,210.9
		c-1.2,0-2.2-1-2.2-2.2v-30.5c0-1.2,1-2.2,2.2-2.2l0,0c1.2,0,2.2,1,2.2,2.2v30.5C1882.8,209.9,1881.8,210.9,1880.6,210.9z"/>
	<path display="inline" fill="#FFFFFF" stroke="#000000" stroke-miterlimit="10" d="M1882.8,208.7L1882.8,208.7c0,1.2-1,2.2-2.2,2.2
		h-20.5c-1.2,0-2.2-1-2.2-2.2l0,0c0-1.2,1-2.2,2.2-2.2h20.5C1881.8,206.4,1882.8,207.4,1882.8,208.7z"/>
	<path display="inline" fill="#FFFFFF" stroke="#000000" stroke-miterlimit="10" d="M1868,200.4L1868,200.4c0.9,0.9,0.9,2.3,0,3.2
		l-6.7,6.7c-0.9,0.9-2.3,0.9-3.2,0l0,0c-0.9-0.9-0.9-2.3,0-3.2l6.7-6.7C1865.7,199.5,1867.2,199.5,1868,200.4z"/>
	<path display="inline" fill="#FFFFFF" stroke="#000000" stroke-miterlimit="10" d="M1868,217L1868,217c0.9-0.9,0.9-2.3,0-3.2
		l-6.7-6.7c-0.9-0.9-2.3-0.9-3.2,0v0c-0.9,0.9-0.9,2.3,0,3.2l6.7,6.7C1865.7,217.8,1867.2,217.8,1868,217z"/>
</g>
<g id="圖層_1">
	<path fill="#FFDA27" d="M42.2,5c-1.6,0-2.9,1.4-2.9,3l0,28.8l-17.3,0.1l5.8-5.9c1.2-1.2,1.2-3.1,0-4.2s-3.1-1.1-4.2,0.1L13,37.3
		c-0.1,0.1-0.2,0.1-0.2,0.2c-0.6,0.6-0.9,1.4-0.9,2.1c0,0.8,0.3,1.5,0.9,2.1c0.1,0.1,0.1,0.1,0.2,0.2l10.5,10.5
		c1.2,1.2,3.1,1.2,4.2,0s1.2-3,0.2-4.1l-5.4-5.5l19.6,0c2.2,0,3.3-1.5,3.3-3.1l0-32C45.3,6.2,43.9,5,42.2,5z"/>
</g>
</svg>
