<?xml version="1.0" encoding="utf-8"?>
<!-- Generator: Adobe Illustrator 19.2.1, SVG Export Plug-In . SVG Version: 6.00 Build 0)  -->
<svg version="1.1" id="_x30_d8a236b-ce0c-4471-87a2-508367d8b373"
	 xmlns="http://www.w3.org/2000/svg" xmlns:xlink="http://www.w3.org/1999/xlink" x="0px" y="0px" viewBox="0 0 720 761.6"
	 style="enable-background:new 0 0 720 761.6;" xml:space="preserve">
<style type="text/css">
	.st0{fill:#C4C4C4;}
	.st1{fill:#E2E2E2;}
	.st2{fill:#999999;}
	.st3{fill:#B2B2B2;}
</style>
<title>scene14-main-bg</title>
<path d="M704.5,766.2h-3.2c-6.4-15.7-11.7-31.9-16.8-48.1c-10-31.9-18.5-64.2-26.4-96.6c-20.4-83.6-36.7-168.1-52.3-252.6
	c-5.7-30.8-9.9-61.7-12.8-92.7l2.8-0.3c4.4,47.8,13.3,94.7,22.3,141.8c8.3,43.6,16.9,87.1,26.4,130.5c9.9,45.7,20.6,91.2,33.3,136.2
	C685.4,711.9,693.6,739.7,704.5,766.2z"/>
<path class="st0" d="M701.3,766.2h-6.9c-10.1-25.4-17.9-51.8-25.3-77.9c-12.8-45.2-23.6-91-33.7-136.9
	c-9.5-43.3-18.2-86.8-26.5-130.4c-9-47.3-17.7-94.4-22-142.5c-8.5-94-5.7-188.6-6.2-282.8h6.4c0.3,62.9-1.1,125.8,0.5,188.7
	c0.8,30.7,2.5,61.3,5.4,91.8s7.1,62,12.8,92.7c15.6,84.6,32,169,52.3,252.6c7.9,32.4,16.4,64.8,26.4,96.6
	C689.5,734.3,694.9,750.5,701.3,766.2z"/>
<path d="M694.3,766.2h-3.2c-6.1-15.6-11.3-31.6-16.3-47.5c-10.3-33.2-19.1-66.9-27.3-100.7c-20-82.6-36.2-166.1-51.6-249.7
	C573.2,245.4,578.2,120,577.6-4.4h3.1c0.4,94.3-2.3,188.8,6.2,282.8c4.3,48,13,95.2,22,142.5c8.3,43.6,17,87.1,26.5,130.4
	c10.1,45.9,20.8,91.7,33.7,136.9C676.5,714.4,684.2,740.9,694.3,766.2z"/>
<path class="st1" d="M674.9,718.8c4.9,15.9,10.2,31.9,16.3,47.5H469.5c5.1-62.5,5.7-125.5,6.4-188.1c1-81.7,0.6-163.4-0.2-245
	c-0.5-56.1-1.4-112.2-2.1-168.3c-0.1-3.1-0.1-6.1-0.1-9.2c0-8.2,0.1-16.4,0.3-24.6c1-45.1,1.2-90.2,2-135.2h101.7
	c0.6,124.4-4.4,249.8,18.3,372.7c15.5,83.6,31.7,167.1,51.6,249.7C655.7,651.9,664.5,685.5,674.9,718.8z"/>
<path d="M595.7,275.9l-2.8,0.3c-2.9-30.5-4.6-61.1-5.4-91.8c-1.6-62.9-0.2-125.8-0.5-188.7h3.1C590.5,89.1,587.1,182.8,595.7,275.9z
	"/>
<path d="M475.8,333c0.8,81.7,1.1,163.4,0.2,245c-0.7,62.6-1.3,125.6-6.4,188.1h-3.1c3.4-42.4,4.5-85.1,5.5-127.6
	c1.8-81.9,1.8-163.8,1.3-245.7c-0.4-66.3-1.1-132.7-2.2-199.1c-0.2-12.8-0.3-25.6-0.3-38.3h2.9c0,3.1,0,6.1,0.1,9.2
	C474.4,220.8,475.3,276.9,475.8,333z"/>
<path d="M472.8-4.3h3.1c-0.8,45.1-1,90.2-2,135.2c-0.2,8.2-0.3,16.4-0.3,24.6h-2.9C470.7,102.2,471.9,48.9,472.8-4.3z"/>
<path class="st0" d="M473.2,392.9c0.5,81.9,0.5,163.8-1.3,245.7c-0.9,42.5-2,85.2-5.5,127.6h-6.2c0.5-7.1,1-14.2,1.5-21.3
	c0.3-3.9,0.5-7.9,0.7-11.9c0.7-12.7,1.3-25.5,1.7-38.3c0.1-4.4,0.3-8.8,0.4-13.3c0.3-9.9,0.6-19.8,0.7-29.7
	c0.1-3.7,0.1-7.5,0.2-11.3c0.2-9.9,0.3-19.8,0.4-29.7c0-2.8,0.1-5.6,0.1-8.4c0.3-0.5,0.3-1.1,0-1.6c0.1-8.2,0.2-16.4,0.3-24.5
	c0.1-5.2,0.1-10.4,0.2-15.6c0.1-11.6,0.2-23.2,0.3-34.7c0.5-0.6,0.5-1.6,0-2.2c0-4.1,0-8.1,0.1-12.2c0.1-9.9,0.1-19.8,0.1-29.7
	c0-13.2,0-26.4,0-39.7c0.7-0.6,0.8-1.6,0.3-2.2c-0.1-0.1-0.2-0.2-0.3-0.3c0-1.9,0-3.8,0-5.6c0.7-0.5,0.9-1.5,0.4-2.2
	c-0.1-0.1-0.2-0.3-0.4-0.4c0-10.1,0-20.3-0.1-30.4c-0.1-15.1-0.2-30.2-0.3-45.3c-0.1-4.3-0.1-8.7-0.1-13s0-8.4-0.1-12.2
	c-0.1-9.6-0.2-19.2-0.3-28.7c-0.1-8.2-0.2-16.4-0.3-24.5l-0.3-26.3l0,0c0-0.2,0-0.3,0-0.5l0,0c-0.1-9.5-0.3-19.1-0.4-28.6
	s-0.2-18.3-0.3-26.4c-0.1-8.5-0.2-17.1-0.3-25.6c0-2.8-0.1-5.5-0.1-8.2c-0.1-6.3-0.1-12.6,0-18.9c0-3.4,0.1-6.8,0.2-10.2
	c0.1-5.9,0.2-11.9,0.3-17.9c0.1-9.5,0.2-19.1,0.2-28.7s0-18.5,0.1-26.6c0-8.5,0-17.1,0.1-25.6c0.1-12.7,0.1-25.3,0.3-38h7.4
	c-1,53.3-2.2,106.6-2.1,159.8c0,12.8,0.1,25.6,0.3,38.3C472,260.2,472.7,326.6,473.2,392.9z"/>
<path d="M466.9,442.2c0.1,13.2,0.1,26.4,0,39.7h-2.3c0-0.5-0.3-1-0.7-1.3V472c0.7-0.5,0.9-1.5,0.4-2.2c-0.1-0.1-0.2-0.3-0.4-0.4
	c0-8.9,0-17.9,0-26.8h2.2C466.4,442.6,466.7,442.4,466.9,442.2z"/>
<path d="M466.9,431.4c0.7,0.5,0.9,1.5,0.4,2.2c-0.1,0.1-0.2,0.3-0.4,0.4V431.4z"/>
<path d="M466.9,439.6c0.7,0.6,0.8,1.6,0.3,2.2c-0.1,0.1-0.2,0.2-0.3,0.3V439.6z"/>
<path d="M464.6,481.8h2.3c0,9.9,0,19.8-0.1,29.7h-0.5c0-0.8-0.7-1.5-1.5-1.5h-1c0-8.9,0-17.9,0.1-26.8
	C464.4,482.9,464.6,482.4,464.6,481.8z"/>
<path d="M466.9,439.6v2.5c-0.3,0.2-0.6,0.3-0.9,0.3h-2.2c0-1,0-2,0-3.1h2.2C466.3,439.3,466.6,439.4,466.9,439.6z"/>
<path d="M466.9,434c0,1.9,0,3.8,0,5.6c-0.3-0.2-0.6-0.3-0.9-0.3h-2.2c0-1.7,0-3.4,0-5.1h2.2C466.3,434.2,466.6,434.2,466.9,434z"/>
<path d="M466.9,431.4v2.6c-0.3,0.2-0.6,0.3-0.9,0.3h-2.2c0-1,0-2,0-3.1h2.2C466.3,431.2,466.6,431.2,466.9,431.4z"/>
<path d="M466.4,511.5h0.5c0,4.1,0,8.1-0.1,12.2c-0.3-0.3-0.7-0.4-1.1-0.4h-2c0-3.4,0-6.8,0-10.2h1c0.8,0.1,1.6-0.5,1.7-1.3
	C466.4,511.7,466.4,511.6,466.4,511.5z"/>
<path d="M466.9,523.7c0.5,0.6,0.5,1.6,0,2.2C466.8,525.2,466.9,524.5,466.9,523.7z"/>
<path d="M466.8,401c0.1,10.1,0.1,20.3,0.1,30.4c-0.3-0.2-0.6-0.3-0.9-0.3h-2.2c0-9.5,0-19.1-0.1-28.6h1.2c0.8,0,1.5-0.7,1.5-1.5
	H466.8L466.8,401z"/>
<path d="M466.9,523.7c0,0.7,0,1.5,0,2.2c-0.3,0.3-0.7,0.4-1.1,0.4h-2c0-1,0-2,0-3.1h2C466.2,523.2,466.6,523.4,466.9,523.7z"/>
<path d="M466.8,401h-0.4c0-0.8-0.7-1.5-1.5-1.5h-1.2c0-1.4,0-2.8,0-4.1s0-1.3,0-2h0.2c0.9,0,1.5-0.7,1.5-1.5s-0.7-1.5-1.5-1.5h-0.2
	c-0.1-11-0.1-22-0.2-33h1.1c0.8,0,1.5-0.7,1.5-1.5h0.5C466.7,370.8,466.7,385.9,466.8,401z"/>
<path d="M466.8,525.9c-0.1,11.6-0.2,23.2-0.3,34.7H466c0-0.8-0.7-1.5-1.5-1.5h-1.1c0.1-10.9,0.2-21.8,0.2-32.7h2
	C466.1,526.4,466.5,526.3,466.8,525.9z"/>
<path d="M466.1,560.6h0.5c-0.1,5.2-0.1,10.4-0.2,15.6c-0.1,8.1-0.2,16.3-0.3,24.5c-0.3-0.5-0.8-0.7-1.3-0.7H463
	c0.1-8.6,0.2-17.2,0.3-25.8c0.7-0.5,1-1.5,0.5-2.2c-0.1-0.2-0.3-0.4-0.5-0.5c0.1-3.1,0.1-6.3,0.1-9.4h1.1
	C465.3,562.2,466,561.5,466.1,560.6C466.1,560.7,466.1,560.6,466.1,560.6z"/>
<path d="M466.5,355.7H466c0-0.8-0.7-1.5-1.5-1.5h-1.1c0-3.3,0-6.7-0.1-10h1.6c0.8,0.1,1.4-0.5,1.5-1.3c0-0.1,0-0.1,0-0.2
	C466.4,347,466.4,351.4,466.5,355.7z"/>
<path d="M466.3,330.4c0.1,4.1,0.1,8.1,0.1,12.2c0-0.8-0.7-1.5-1.5-1.5h-1.6c-0.1-9.1-0.2-18.1-0.3-27.2h0.2c0.9,0,1.5-0.7,1.5-1.5
	s-0.7-1.5-1.5-1.5l0,0H463c0-2.5-0.1-5-0.1-7.6h1c0.8,0,1.5-0.7,1.5-1.5h0.6C466.1,311.3,466.2,320.9,466.3,330.4z"/>
<path d="M466.2,600.8c0.3,0.5,0.3,1.1,0,1.6C466.2,601.8,466.2,601.3,466.2,600.8z"/>
<path d="M466.2,600.8c0,0.5,0,1.1,0,1.6c-0.3,0.5-0.8,0.7-1.3,0.7h-1.8c0-1,0-2,0-3.1h1.8C465.5,600,466,600.3,466.2,600.8z"/>
<path d="M466.1,602.4c0,2.8-0.1,5.6-0.1,8.4h-0.8c0-0.8-0.7-1.5-1.5-1.5h-0.8c0.1-2.1,0.1-4.1,0.1-6.1h1.8
	C465.4,603.2,465.9,602.9,466.1,602.4z"/>
<path d="M465.2,610.8h0.8c-0.1,9.9-0.3,19.8-0.4,29.7H465c0-0.8-0.7-1.5-1.5-1.5h-1.2c0.2-8.9,0.4-17.7,0.5-26.6h0.9
	c0.8,0,1.5-0.7,1.5-1.5C465.2,610.9,465.2,610.8,465.2,610.8z"/>
<path d="M466,301.7h-0.6c0-0.8-0.7-1.5-1.5-1.5h-1c-0.1-7.1-0.1-14.3-0.2-21.5h0.5c0.8,0,1.5-0.7,1.5-1.5h1.1
	C465.9,285.4,465.9,293.6,466,301.7z"/>
<path d="M465.7,277.2h-1.1c0-0.8-0.7-1.5-1.5-1.5h-0.5l-0.3-23.5h1.6c0.7,0.1,1.4-0.5,1.5-1.2L465.7,277.2z"/>
<path d="M465.6,640.5c-0.1,3.7-0.1,7.5-0.2,11.3H465c0-0.8-0.7-1.5-1.5-1.5h-1.4l0.2-8.2h1.2c0.8,0,1.5-0.7,1.5-1.5L465.6,640.5
	L465.6,640.5z"/>
<path d="M465.4,250.3c0,0.2,0,0.3,0,0.5V250.3z"/>
<path d="M465.4,250.8L465.4,250.8c-0.1,0.7-0.8,1.3-1.5,1.2h-1.6c0-1,0-2,0-3.1h1.6c0.7-0.1,1.4,0.5,1.5,1.2l0,0v0.5V250.8z"/>
<path d="M465,651.7h0.4c-0.2,9.9-0.4,19.8-0.7,29.7h-1.6c0-0.8-0.7-1.5-1.5-1.5h-0.1c0.3-8.9,0.5-17.7,0.7-26.6h1.5
	C464.5,653.2,465.1,652.5,465,651.7z"/>
<path d="M462.3-4.3h3.1c-0.2,12.6-0.3,25.3-0.3,38l0,0c0-0.8-0.7-1.5-1.5-1.5h-1.5C462,20,462.1,7.8,462.3-4.3z"/>
<path d="M465,399.5c0.9,0,1.5,0.7,1.5,1.5s-0.7,1.5-1.5,1.5h-1.2c0-1,0-2,0-3.1h1.2V399.5z"/>
<path d="M466.4,342.7c0.1,0.8-0.5,1.4-1.3,1.5c-0.1,0-0.1,0-0.2,0h-1.6c0-1,0-2,0-3.1h1.6c0.8,0,1.5,0.7,1.5,1.5V342.7z"/>
<path d="M464.9,510c0.9,0,1.5,0.7,1.5,1.5s-0.7,1.5-1.5,1.5l0,0h-1c0-1,0-2,0-3.1h1V510z"/>
<path d="M465,221.7c0.1,9.5,0.3,19.1,0.4,28.6c-0.1-0.7-0.8-1.3-1.5-1.2h-1.6c-0.1-8.6-0.2-17.2-0.3-25.8h0.6c0.8,0,1.5-0.7,1.5-1.5
	L465,221.7L465,221.7z"/>
<path d="M465,33.6L465,33.6c0,8.5,0,17.1-0.1,25.6h-1.4c0-0.8-0.7-1.5-1.5-1.5h-0.2c0-7.5,0-15,0-22.5h1.6c0.8,0.1,1.5-0.6,1.6-1.4
	C465,33.7,465,33.7,465,33.6z"/>
<path d="M465,221.7h-0.9c0-0.8-0.7-1.5-1.5-1.5H462c-0.1-7.8-0.2-15.6-0.3-23.3h1c0.8,0,1.5-0.7,1.5-1.5h0.6
	C464.8,204.1,464.9,212.9,465,221.7z"/>
<path d="M464.6,559.1c0.9,0,1.5,0.7,1.5,1.5s-0.7,1.5-1.5,1.5h-1.1V559L464.6,559.1L464.6,559.1z"/>
<path d="M465,59.2c0,8.9,0,17.7-0.1,26.6h-0.8c0-0.8-0.7-1.5-1.5-1.5h-0.7c0-7.9,0-15.7,0.1-23.6h0.2c0.8,0,1.5-0.7,1.5-1.5h1.4
	C465.1,59.2,465,59.2,465,59.2z"/>
<path d="M464.1,85.8h0.8c-0.1,9.5-0.1,19.1-0.2,28.7h-0.6c0-0.8-0.7-1.5-1.5-1.5h-1.1c0.2-8.5,0.3-17.1,0.4-25.6h0.8
	C463.5,87.3,464.2,86.6,464.1,85.8L464.1,85.8z"/>
<path d="M464.5,354.2c0.9,0,1.5,0.7,1.5,1.5s-0.7,1.5-1.5,1.5h-1.1c0-1,0-2,0-3.1h1.1V354.2z"/>
<path d="M464.1,114.5h0.6c-0.1,5.9-0.2,11.9-0.3,17.9c-0.1,3.4-0.1,6.8-0.2,10.2h-0.4c0.1-0.8-0.6-1.5-1.4-1.6h-0.1h-1.2
	c0-8.3,0.2-16.7,0.3-25h1.2C463.4,116,464.1,115.3,464.1,114.5L464.1,114.5z"/>
<path d="M464.6,195.3H464c0-0.8-0.7-1.5-1.5-1.5h-1v-0.2c-0.1-7.4-0.2-14.9-0.3-22.3h1.1c0.8,0,1.5-0.7,1.5-1.5h0.5
	C464.4,178.3,464.5,186.8,464.6,195.3z"/>
<path d="M463,681.4h1.6c-0.1,4.4-0.3,8.8-0.4,13.3h-1.3c0-0.8-0.7-1.5-1.5-1.5H461c0.1-3.4,0.2-6.8,0.3-10.2h0.2
	C462.3,683,463,682.3,463,681.4L463,681.4z"/>
<path d="M464.2,161.5c0,2.8,0.1,5.5,0.1,8.2h-0.5c0-0.8-0.7-1.5-1.5-1.5h-1.1c-0.1-7.4-0.2-14.8-0.2-22.2v-2h1.3
	c0.8,0,1.4-0.6,1.4-1.4v-0.1h0.5C464.1,148.8,464.1,155.2,464.2,161.5z"/>
<path d="M463.9,300.2c0.9,0,1.5,0.7,1.5,1.5s-0.7,1.5-1.5,1.5h-1v-3.1h1V300.2z"/>
<path d="M463.9,390.3c0.9,0,1.5,0.7,1.5,1.5s-0.7,1.5-1.5,1.5h-0.2c0-1,0-2,0-3.1h0.2V390.3z"/>
<path d="M462.9,694.7h1.3c-0.5,12.8-1,25.6-1.7,38.3h-1.3c0-0.8-0.7-1.5-1.5-1.5h-0.3c0.6-11.7,1.1-23.5,1.5-35.2h0.6
	c0.8,0,1.4-0.6,1.4-1.4C462.9,694.8,462.9,694.8,462.9,694.7z"/>
<path d="M463.8,609.2c0.9,0,1.5,0.7,1.5,1.5s-0.7,1.5-1.5,1.5h-0.9c0-1,0-2,0.1-3.1L463.8,609.2L463.8,609.2z"/>
<path d="M463.9,469.3c0.7,0.5,0.9,1.5,0.4,2.2c-0.1,0.1-0.2,0.3-0.4,0.4C463.9,471,463.9,470.1,463.9,469.3z"/>
<path d="M463.9,480.5c0.7,0.5,0.9,1.5,0.4,2.2c-0.1,0.1-0.2,0.3-0.4,0.4C463.9,482.3,463.9,481.4,463.9,480.5z"/>
<path class="st2" d="M463.9,471.9v8.6l-0.8-0.2c-67.6-0.1-135.2-0.3-202.8-1.3H260c0-2.7,0-5.5,0-8.2h0.2
	c67.6,0.9,135.3,1.1,202.9,1.3L463.9,471.9z"/>
<path d="M463.9,469.3c0,0.9,0,1.8,0,2.6l-0.8,0.2c-67.6-0.1-135.3-0.3-202.9-1.3h-0.1c0-1,0-2,0-3h0.1c67.6,0.9,135.3,1.1,202.9,1.3
	L463.9,469.3z"/>
<path d="M463.9,480.5c0,0.9,0,1.8,0,2.6l-0.8,0.2c-67.6-0.1-135.2-0.3-202.8-1.3H260c0-1,0-2,0-3h0.3c67.6,0.9,135.2,1.1,202.8,1.3
	L463.9,480.5z"/>
<path class="st3" d="M463.9,442.4c0,8.9,0,17.9,0,26.8l-0.8-0.2c-67.6-0.1-135.3-0.3-202.9-1.3h-0.1c0-8.9,0-17.7,0.1-26.6
	C328.1,442.1,396,442.3,463.9,442.4z"/>
<path class="st3" d="M463.9,483.2c0,8.9,0,17.9-0.1,26.8c-68-0.1-135.9-0.3-203.9-1.2c0-8.9,0-17.8,0.1-26.7h0.3
	c67.6,0.9,135.2,1.1,202.8,1.3L463.9,483.2z"/>
<path d="M463.9,439.4c0,1,0,2,0,3.1c-67.9-0.1-135.8-0.3-203.7-1.2c0-1,0-2,0-3.1C328.1,439,396,439.2,463.9,439.4z"/>
<path d="M463.5,638.9c0.9,0,1.5,0.7,1.5,1.5s-0.7,1.5-1.5,1.5h-1.2v-3.1L463.5,638.9L463.5,638.9z"/>
<path d="M463.9,510c0,1,0,2,0,3.1c-68-0.1-135.9-0.3-203.9-1.2v-3.1C327.9,509.6,395.9,509.8,463.9,510z"/>
<path d="M463.5,650.2c0.9,0,1.5,0.7,1.5,1.5s-0.7,1.5-1.5,1.5H462c0-1,0.1-2,0.1-3.1L463.5,650.2L463.5,650.2z"/>
<path class="st2" d="M463.9,434.2c0,1.7,0,3.4,0,5.1c-67.9-0.1-135.8-0.3-203.6-1.2c0-1.7,0-3.4,0-5.1
	C328.1,433.9,396,434.1,463.9,434.2z"/>
<path d="M463.8,431.2c0,1,0,2,0,3.1c-67.9-0.1-135.7-0.3-203.6-1.2c0-1,0-2,0-3.1C328.1,430.8,396,431,463.8,431.2z"/>
<path d="M463.5,32.1c0.9,0,1.5,0.7,1.5,1.5s-0.7,1.5-1.5,1.5h-1.6c0-1,0-2,0-3.1h1.6V32.1z"/>
<path class="st2" d="M463.9,513c0,3.4,0,6.8,0,10.2c-67.8-0.1-135.6-0.4-203.5-1.3H260c0-3.4,0-6.8,0-10.2
	C327.9,512.7,395.9,512.9,463.9,513z"/>
<path d="M463.8,523.3c0,1,0,2,0,3.1c-67.8-0.1-135.6-0.4-203.4-1.3H260v-3h0.4C328.2,522.9,396,523.1,463.8,523.3z"/>
<path class="st3" d="M463.7,402.5c0.1,9.5,0.1,19.1,0.1,28.6c-67.9-0.1-135.7-0.3-203.5-1.2c0.1-9.5,0.1-19.1,0.2-28.7
	C328.3,402.2,396,402.4,463.7,402.5z"/>
<path d="M463.7,399.5c0,1,0,2,0,3.1c-67.7-0.1-135.5-0.3-203.2-1.3v-3.1C328.3,399.1,396,399.3,463.7,399.5z"/>
<path class="st2" d="M463.7,395.3c0,1.4,0,2.8,0,4.1c-67.7-0.1-135.4-0.3-203.1-1.3V392l0,0c67.7,0.9,135.3,1.1,203,1.3
	C463.7,394,463.7,394.7,463.7,395.3z"/>
<path d="M463.7,390.3c0,1,0,2,0,3.1c-67.7-0.1-135.3-0.3-203-1.3l0,0V389C328.3,389.9,396,390.1,463.7,390.3z"/>
<path d="M463.4,571.6c0.7,0.5,1,1.5,0.5,2.2c-0.1,0.2-0.3,0.4-0.5,0.5C463.4,573.4,463.4,572.5,463.4,571.6z"/>
<path class="st3" d="M463.8,526.4c-0.1,10.9-0.1,21.8-0.2,32.7c-67.8-0.1-135.6-0.3-203.5-1.3c-0.1-10.9-0.1-21.9-0.1-32.8h0.4
	C328.2,526,396,526.2,463.8,526.4z"/>
<path d="M463.6,559.1v3.1c-67.8-0.1-135.6-0.3-203.4-1.3c0-1,0-2,0-3.1C327.9,558.7,395.7,559,463.6,559.1z"/>
<path class="st2" d="M463.5,562.2c0,3.1,0,6.3-0.1,9.4l-0.8-0.2c-67.5-0.1-135-0.4-202.5-1.3c0-3.1,0-6.1-0.1-9.2
	C327.9,561.8,395.7,562,463.5,562.2z"/>
<path class="st3" d="M463.4,357.2c0.1,11,0.1,22,0.2,33c-67.7-0.1-135.3-0.3-203-1.3c0.1-10.9,0.3-21.8,0.4-32.7
	C328.5,357.1,396,357.1,463.4,357.2z"/>
<path d="M463.2,275.6c0.9,0,1.5,0.7,1.5,1.5s-0.7,1.5-1.5,1.5l0,0h-0.5c0-1,0-2,0-3.1h0.5V275.6z"/>
<path d="M463.2,310.8c0.9,0,1.5,0.7,1.5,1.5s-0.7,1.5-1.5,1.5l0,0h-0.1L463.2,310.8L463.2,310.8z"/>
<path d="M463.4,571.6c0,0.9,0,1.8,0,2.7l-0.7,0.2c-67.5-0.1-135-0.4-202.5-1.3c0-1,0-2,0-3.1c67.5,0.9,135,1.1,202.5,1.3
	L463.4,571.6z"/>
<path d="M463.4,354.2c0,1,0,2,0,3.1c-67.5-0.1-134.9-0.1-202.4-1v-3.1C328.5,354.1,395.9,354,463.4,354.2z"/>
<path class="st3" d="M463.4,574.3c-0.1,8.6-0.2,17.2-0.3,25.8c-67.4-0.1-134.9,0.2-202.3-0.6h-0.4c-0.1-8.2-0.1-16.4-0.2-24.6
	c0-0.5,0-1.1,0-1.6c67.5,0.9,135,1.1,202.5,1.3L463.4,574.3z"/>
<path class="st2" d="M463.3,344.2c0,3.3,0.1,6.7,0.1,10c-67.5-0.1-134.9-0.1-202.4-1V343C328.5,343.8,395.9,344.1,463.3,344.2z"/>
<path d="M463.3,341.1c0,1,0,2,0,3.1c-67.4-0.1-134.8-0.3-202.1-1.2c0-1,0-2,0-3.1C328.6,340.8,395.9,341,463.3,341.1z"/>
<path class="st3" d="M463,313.9c0.1,9.1,0.2,18.1,0.3,27.2c-67.4-0.1-134.7-0.3-202.1-1.2l0.2-12.2c0.1-4.8,0.1-9.6,0.2-14.4
	C328.7,314.1,395.9,313.8,463,313.9z"/>
<path d="M463.1,600c0,1,0,2,0,3.1c-67.4-0.1-134.8,0.2-202.3-0.6h-0.4c0-1,0-2,0-3h0.4C328.2,600.2,395.6,599.9,463.1,600z"/>
<path d="M463,310.8v3.1c-67.1-0.1-134.3,0.2-201.5-0.6c0-1,0-2,0-3.1C328.7,311.1,395.9,310.7,463,310.8z"/>
<path class="st2" d="M463,603.1c0,2.1,0,4.1-0.1,6.1c-67.5-0.1-135,0.2-202.5-0.6c0-2.1,0-4.1-0.1-6.2h0.4
	C328.2,603.3,395.6,603,463,603.1z"/>
<path class="st2" d="M462.9,303.3c0,2.5,0.1,5,0.1,7.6c-67.1-0.1-134.3,0.2-201.4-0.6v-8.5C328.7,302.7,395.8,303.2,462.9,303.3z"/>
<path d="M462.9,300.2v3.1c-67.1-0.1-134.1-0.6-201.2-1.5c0-1,0-2,0.1-3.1C328.8,299.6,395.8,300.1,462.9,300.2z"/>
<path d="M462.6,220.1c0.9,0,1.5,0.7,1.5,1.5s-0.7,1.5-1.5,1.5H462c0-1,0-2,0-3.1h0.6V220.1z"/>
<path d="M462.9,609.2c0,1,0,2-0.1,3.1c-67.5-0.1-134.9,0.2-202.4-0.6c0-1,0-2,0-3.1C327.9,609.4,395.4,609.1,462.9,609.2z"/>
<path d="M462.6,84.3c0.9,0,1.5,0.7,1.5,1.5s-0.7,1.5-1.5,1.5h-0.8c0-0.4,0-0.8,0-1.1s0-1.3,0-1.9H462.6L462.6,84.3z"/>
<path d="M462.6,112.9c0.9,0,1.5,0.7,1.5,1.5s-0.7,1.5-1.5,1.5h-1.2v-3.1h1.1L462.6,112.9L462.6,112.9z"/>
<path d="M462.6,193.8c0.9,0,1.5,0.7,1.5,1.5s-0.7,1.5-1.5,1.5h-1c0-1,0-2,0-3.1h1V193.8z"/>
<path class="st3" d="M462.7,278.7c0.1,7.1,0.1,14.3,0.2,21.5c-67.1-0.1-134.1-0.6-201.1-1.5c0.1-7.1,0.2-14.1,0.3-21.2
	C329,278.4,395.8,278.6,462.7,278.7z"/>
<path class="st3" d="M462.9,612.3c-0.1,8.9-0.3,17.7-0.5,26.6c-67.2-0.1-134.4-0.4-201.6-1.3c-0.1-8.7-0.2-17.3-0.3-26
	C327.9,612.5,395.4,612.2,462.9,612.3z"/>
<path d="M463.8,142.6c0.1,0.8-0.5,1.4-1.3,1.5h-0.1h-1.3c0-1,0-2,0-3.1h1.1c0.8-0.1,1.5,0.6,1.6,1.4
	C463.8,142.5,463.8,142.5,463.8,142.6z"/>
<path d="M462.3,168.2c0.9,0,1.5,0.7,1.5,1.5s-0.7,1.5-1.5,1.5l0,0h-1.1c0-1,0-2,0-3.1h1.1V168.2z"/>
<path d="M462.6,275.6c0,1,0,2,0,3.1c-66.9-0.1-133.7-0.4-200.6-1.2c0-1,0-2,0.1-3.1C329,275.3,395.8,275.5,462.6,275.6z"/>
<path class="st3" d="M462.4,252.1l0.3,23.5c-66.8-0.1-133.7-0.4-200.5-1.2c0.1-7.9,0.3-15.7,0.4-23.5
	C329.1,251.8,395.7,252,462.4,252.1z"/>
<path d="M462.1,57.7c0.9,0,1.5,0.7,1.5,1.5s-0.7,1.5-1.5,1.5h-0.2c0-1,0-2,0-3.1L462.1,57.7L462.1,57.7z"/>
<path d="M461.2,732.9h1.3c-0.2,3.9-0.4,7.9-0.7,11.9h-0.6c0-0.8-0.7-1.5-1.5-1.5h-1c0.2-2.9,0.3-5.9,0.5-8.8h0.5
	c0.8,0,1.5-0.7,1.5-1.5C461.2,733,461.2,732.9,461.2,732.9z"/>
<path d="M462.4,638.9v3.1c-67.2-0.1-134.3-0.4-201.5-1.3c0-1,0-2,0-3.1C328,638.5,395.2,638.8,462.4,638.9z"/>
<path d="M462.3,249c0,1,0,2,0,3.1c-66.6-0.1-133.2-0.4-199.8-1.2c0-1,0-2,0.1-3.1C329.2,248.7,395.7,248.9,462.3,249z"/>
<path class="st2" d="M462.3,642l-0.2,8.2c-67.1-0.1-134.1-0.4-201.2-1.3c-0.1-2.7-0.1-5.5-0.1-8.2C328,641.6,395.1,641.8,462.3,642z
	"/>
<path class="st3" d="M462,223.2c0.1,8.6,0.2,17.2,0.3,25.8c-66.6-0.1-133.1-0.4-199.7-1.2c0.1-8.5,0.3-17.1,0.4-25.6
	C329.3,223.1,395.7,223.1,462,223.2z"/>
<path d="M462.1,650.2c0,1-0.1,2-0.1,3.1c-67-0.1-134.1-0.4-201.1-1.3c0-1,0-2,0-3.1C328,649.8,395.1,650,462.1,650.2z"/>
<path class="st3" d="M462.3-4.3C462.1,7.8,462,20,462,32.1c-65.8-0.1-131.6-0.3-197.4-1.2c0.1-11.7,0.1-23.5,0-35.2
	C264.6-4.3,462.3-4.3,462.3-4.3z"/>
<path d="M461.9,220.1c0,1,0,2,0,3.1c-66.3-0.1-132.6-0.1-199-1c0-1,0-2,0.1-3.1C329.4,220,395.7,220,461.9,220.1z"/>
<path d="M462,32.1c0,1,0,2,0,3.1c-65.8-0.1-131.6-0.3-197.4-1.2v-3.1C330.4,31.8,396.2,32,462,32.1z"/>
<path class="st3" d="M462,35.2c0,7.5,0,15,0,22.5c-65.9-0.1-131.7-0.3-197.6-1.2c0.1-7.5,0.1-15,0.2-22.5
	C330.3,34.9,396.1,35,462,35.2z"/>
<path class="st3" d="M461.6,196.9c0.1,7.8,0.2,15.6,0.3,23.3c-66.3-0.1-132.6-0.1-198.9-1c0.1-7.9,0.3-15.7,0.4-23.5
	C329.5,196.5,395.6,196.7,461.6,196.9z"/>
<path d="M461.9,57.7c0,1,0,2,0,3.1c-65.9-0.1-131.8-0.3-197.6-1.2c0-1,0-2,0-3.1C330.2,57.3,396,57.5,461.9,57.7z"/>
<path class="st3" d="M461.9,60.7c0,7.9,0,15.7-0.1,23.6C395.9,84.2,329.9,84,264,83.1c0.1-7.9,0.1-15.7,0.2-23.5
	C330.1,60.4,396,60.6,461.9,60.7z"/>
<path d="M461.5,679.8c0.9,0,1.5,0.7,1.5,1.5s-0.7,1.5-1.5,1.5h-0.2c0-1,0.1-2,0.1-3.1L461.5,679.8L461.5,679.8z"/>
<path d="M461.8,84.3c0,0.6,0,1.3,0,1.9s0,0.8,0,1.1C395.9,87.2,330,87,264,86.1c0-1,0-2,0-3.1C330,84,395.9,84.2,461.8,84.3z"/>
<path d="M462.9,694.7c0.1,0.8-0.5,1.4-1.3,1.5c-0.1,0-0.1,0-0.2,0h-0.6v-3.1h0.4c0.8-0.1,1.6,0.5,1.7,1.3
	C462.9,694.5,462.9,694.6,462.9,694.7z"/>
<path d="M461.2,744.8h0.6c-0.5,7.1-1,14.2-1.5,21.3h-3.1c0.5-6.6,1-13.2,1.4-19.8h1.2C460.6,746.2,461.2,745.6,461.2,744.8z"/>
<path d="M461.6,193.8c0,1,0,2,0,3.1c-66-0.1-132.1-0.4-198.1-1.3c0-1,0-2,0.1-3.1C329.6,193.4,395.6,193.6,461.6,193.8z"/>
<path class="st3" d="M461.6,193.6v0.2c-66-0.1-132-0.4-198-1.3c0.1-7.5,0.3-15,0.4-22.5c65.8,0.9,131.6,1.1,197.3,1.2
	C461.4,178.7,461.5,186.1,461.6,193.6z"/>
<path class="st3" d="M461.8,87.4c-0.1,8.5-0.2,17-0.4,25.6c-65.8-0.1-131.6-0.3-197.3-1.3c-0.1-8.5-0.1-17-0.1-25.6
	C330,87,395.9,87.2,461.8,87.4z"/>
<path class="st3" d="M462.1,653.2c-0.2,8.9-0.4,17.7-0.7,26.6c-66.2-0.1-132.5-0.2-198.7-1.1c-0.4,0-0.8,0.2-1.1,0.5
	c-0.3-9.1-0.5-18.1-0.6-27.2C328,652.8,395,653.1,462.1,653.2z"/>
<path d="M461.4,112.9v3.1c-65.8-0.1-131.5-0.3-197.2-1.3c0-1,0-2,0-3.1C329.9,112.6,395.7,112.8,461.4,112.9z"/>
<path d="M461.4,679.8c0,1-0.1,2-0.1,3.1c-66.2-0.1-132.4-0.2-198.7-1.1c-0.4,0-0.7-0.1-1-0.4v-2.2c0.3-0.3,0.7-0.5,1.1-0.5
	C328.9,679.6,395.1,679.7,461.4,679.8z"/>
<path d="M461.2,168.2c0,1,0,2,0,3.1c-65.8-0.1-131.6-0.4-197.3-1.2c0-1,0-2,0.1-3.1C329.7,167.8,395.5,168.1,461.2,168.2z"/>
<path class="st2" d="M461.3,682.9c-0.1,3.4-0.2,6.8-0.3,10.2c-66.4-0.1-132.7-0.4-199.1-1.2c-0.1-3.5-0.2-7-0.3-10.5
	c0.3,0.3,0.6,0.4,1,0.4C328.9,682.7,395.1,682.8,461.3,682.9z"/>
<path class="st3" d="M461.4,116c-0.2,8.3-0.3,16.7-0.3,25c-65.5-0.1-130.7-0.1-196.6-0.1c0-3.3,0.1-6.5,0-9.8
	c-0.1-5.5-0.2-10.9-0.3-16.4C329.9,115.7,395.6,115.9,461.4,116z"/>
<path class="st3" d="M461,146c0,7.4,0.1,14.8,0.2,22.2c-65.7-0.1-131.5-0.4-197.2-1.2l0.2-12.8c0.1-3.4,0.1-6.8,0.2-10.2H461V146z"
	/>
<path d="M461,141c0,1,0,2,0,3.1H264.4V141C330.3,141,395.5,140.9,461,141z"/>
<path d="M461,693.1v3.1c-66.3-0.1-132.6-0.4-198.9-1.2v-3.1C328.3,692.7,394.6,693,461,693.1z"/>
<path class="st3" d="M460.9,696.2c-0.4,11.7-0.9,23.5-1.5,35.2c-65.3-0.1-130.6,0.2-196-0.6c-0.6-11.9-1.1-23.9-1.4-35.8
	C328.3,695.8,394.6,696.1,460.9,696.2z"/>
<path d="M459.7,731.4c0.9,0,1.5,0.7,1.5,1.5s-0.7,1.5-1.5,1.5h-0.5c0.1-1,0.1-2,0.2-3.1L459.7,731.4L459.7,731.4z"/>
<path d="M459.7,743.3c0.9,0,1.5,0.7,1.5,1.5s-0.7,1.5-1.5,1.5h-1.2l0.2-3.1L459.7,743.3L459.7,743.3z"/>
<path d="M459.4,731.4c-0.1,1-0.1,2-0.2,3.1c-65.2-0.1-130.4,0.2-195.6-0.6c-0.1-1-0.1-2-0.2-3.1
	C328.7,731.6,394.1,731.3,459.4,731.4z"/>
<path class="st2" d="M459.2,734.5c-0.2,2.9-0.3,5.9-0.5,8.8c-64.9-0.1-129.8-0.6-194.7-1.3c-0.2-2.7-0.3-5.5-0.4-8.2
	C328.8,734.7,394,734.3,459.2,734.5z"/>
<path d="M458.7,743.3l-0.2,3.1c-64.8-0.1-129.6-0.6-194.3-1.3L264,742C328.9,742.9,393.8,743.3,458.7,743.3z"/>
<path class="st3" d="M458.5,746.4c-0.4,6.6-0.9,13.2-1.4,19.8H265.5c-0.5-7-1-14-1.4-21C328.9,745.9,393.7,746.3,458.5,746.4z"/>
<path d="M265.5,766.1h-3.1c-0.5-7.5-1-15-1.4-22.5h1.2c-0.1,0.8,0.6,1.5,1.4,1.6h0.1h0.5C264.6,752.1,265,759.1,265.5,766.1z"/>
<path d="M264.6-4.3c0.1,11.7,0.1,23.5,0,35.2H263c-0.8-0.1-1.4,0.5-1.5,1.3c0,0.1,0,0.1,0,0.2l0,0c0.1-12.2,0.2-24.5,0.1-36.7
	L264.6-4.3L264.6-4.3z"/>
<path d="M262.9,30.9h1.6V34h-1.6c-0.8,0-1.5-0.7-1.5-1.5v-0.1c-0.1-0.8,0.5-1.4,1.3-1.5C262.8,30.9,262.8,30.9,262.9,30.9z"/>
<path d="M262.9,33.9h1.6c-0.1,7.5-0.1,15-0.2,22.5h-1.4c-0.8-0.1-1.4,0.5-1.5,1.3c0,0.1,0,0.1,0,0.2h-0.3c0.1-8.5,0.2-17,0.3-25.6
	l0,0c-0.1,0.8,0.6,1.5,1.4,1.6H262.9z"/>
<path d="M264.4,131.1c0.1,3.3,0.1,6.5,0,9.8h-0.8c-0.5,0.1-0.9,0.7-0.8,1.2h-1.6c0-2.5,0-4.9,0.1-7.3c0-7.2,0-14.5-0.1-21.7h0.2
	c-0.1,0.8,0.6,1.5,1.4,1.6h0.1h1.2C264.2,120.2,264.3,125.6,264.4,131.1z"/>
<path d="M264.5,140.9v3.1h-0.7c-0.6,0-0.8-1-0.8-1.8c-0.1-0.5,0.3-1.1,0.8-1.2L264.5,140.9L264.5,140.9z"/>
<path d="M263.7,144h0.7c-0.1,3.4-0.2,6.8-0.2,10.2L264,167h-1.6c-0.8-0.1-1.4,0.5-1.5,1.3c0,0.1,0,0.1,0,0.2l0,0
	c0.2-8.8,0.3-17.5,0.4-26.3h1.6C262.8,143,263.1,144,263.7,144z"/>
<path d="M264.3,56.4c0,1,0,2,0,3.1H263c-0.8,0-1.5-0.7-1.5-1.5v-0.1c-0.1-0.8,0.5-1.4,1.3-1.5c0.1,0,0.1,0,0.2,0h1.4H264.3z"/>
<path d="M262.9,59.5h1.3c-0.1,7.9-0.1,15.7-0.2,23.5h-1.6c-0.8-0.1-1.4,0.5-1.5,1.3c0,0.1,0,0.1,0,0.2l0,0c0-2.3,0-4.5,0-6.8
	c0.1-6.6,0.1-13.2,0.2-19.8h0.3c-0.1,0.8,0.6,1.5,1.4,1.6C262.8,59.5,262.9,59.5,262.9,59.5z"/>
<path d="M264.2,745.1h-0.5c-0.8,0-1.5-0.7-1.5-1.5v-0.1c-0.1-0.8,0.5-1.4,1.3-1.5c0.1,0,0.1,0,0.2,0h0.3L264.2,745.1z"/>
<path d="M264.1,114.8h-1.2c-0.8,0-1.5-0.7-1.5-1.5v-0.1c-0.1-0.8,0.5-1.4,1.3-1.5c0.1,0,0.1,0,0.2,0h1.2
	C264.1,112.7,264.1,113.7,264.1,114.8z"/>
<path d="M264.1,111.7h-1.2c-0.8-0.1-1.4,0.5-1.5,1.3c0,0.1,0,0.1,0,0.2h-0.2c-0.1-9.6-0.3-19.1-0.3-28.7l0,0
	c-0.1,0.8,0.6,1.5,1.4,1.6h0.1h1.6C264,94.6,264,103.2,264.1,111.7z"/>
<path d="M262.4,83h1.6c0,1,0,2,0,3.1h-1.6c-0.8,0-1.5-0.7-1.5-1.5v-0.1c-0.1-0.8,0.5-1.4,1.3-1.5C262.3,83,262.3,83,262.4,83z"/>
<path d="M264,742h-0.3c-0.8-0.1-1.4,0.5-1.5,1.3c0,0.1,0,0.1,0,0.2h-1.1c-0.2-3.8-0.4-7.5-0.6-11.3h0.6c-0.1,0.8,0.6,1.5,1.4,1.6
	h0.1h1C263.7,736.6,263.9,739.3,264,742z"/>
<path d="M264,167c0,1,0,2-0.1,3.1h-1.5c-0.8,0-1.5-0.7-1.5-1.5v-0.1c-0.1-0.8,0.5-1.4,1.3-1.5c0.1,0,0.1,0,0.2,0H264z"/>
<path d="M262.4,170h1.5c-0.1,7.5-0.3,15-0.4,22.5h-0.6c-0.8-0.1-1.4,0.5-1.5,1.3c0,0.1,0,0.1,0,0.2h-1c0.1-3.9,0.1-7.8,0.2-11.7
	s0.2-9.3,0.3-13.9l0,0c-0.1,0.8,0.6,1.5,1.4,1.6C262.3,170,262.4,170,262.4,170z"/>
<path d="M263.4,730.8c0.1,1,0.1,2,0.2,3.1h-1c-0.8,0-1.5-0.7-1.5-1.5v-0.1c-0.1-0.8,0.5-1.4,1.3-1.5c0.1,0,0.1,0,0.2,0H263.4z"/>
<path d="M263.5,192.5c0,1,0,2-0.1,3.1h-0.6c-0.8,0-1.5-0.7-1.5-1.5V194c-0.1-0.8,0.5-1.4,1.3-1.5c0.1,0,0.1,0,0.2,0H263.5
	L263.5,192.5z"/>
<path d="M262.9,195.6h0.6c-0.1,7.9-0.3,15.7-0.4,23.5h-1.6c-0.8-0.1-1.4,0.5-1.5,1.3c0,0.1,0,0.1,0,0.2h-0.1l0.5-26.6h1
	c-0.1,0.8,0.6,1.5,1.4,1.6H262.9z"/>
<path d="M263.4,730.8h-0.8c-0.8-0.1-1.4,0.5-1.5,1.3c0,0.1,0,0.1,0,0.2h-0.6c-0.6-12.9-1.1-25.9-1.5-38.9h0.2
	c-0.1,0.8,0.6,1.5,1.4,1.6h0.1h1.2C262.4,706.9,262.9,718.9,263.4,730.8z"/>
<path d="M263.1,219.1c0,1,0,2-0.1,3.1h-1.5c-0.8,0-1.5-0.7-1.5-1.5v-0.1c-0.1-0.8,0.5-1.4,1.3-1.5c0.1,0,0.1,0,0.2,0H263.1z"/>
<path d="M261.5,222.2h1.5c-0.1,8.5-0.3,17.1-0.4,25.6h-1.8c-0.5,0-1,0.2-1.3,0.7c0.1-9.3,0.3-18.6,0.5-27.9h0.1
	C260,221.4,260.7,222.1,261.5,222.2L261.5,222.2z"/>
<path d="M262.6,247.8c0,1,0,2-0.1,3.1h-1.8c-0.6,0-1.1-0.3-1.3-0.8c0-0.5,0-1,0-1.5c0.3-0.5,0.8-0.7,1.3-0.7L262.6,247.8
	L262.6,247.8z"/>
<path d="M260.8,250.8h1.8c-0.1,7.9-0.3,15.7-0.4,23.5h-1.4c-0.8-0.1-1.4,0.5-1.5,1.3c0,0.1,0,0.1,0,0.2h-0.2
	c0.1-8.6,0.3-17.2,0.4-25.9C259.7,250.4,260.2,250.8,260.8,250.8z"/>
<path class="st0" d="M262.5,766.1h-5.6c-4.9-62-5.2-124.5-5.7-186.6c-0.7-81.8-0.1-163.5,1-245.3c0.8-58.2,1.9-116.4,2.8-174.5
	c0.1-8.1,0.5-16.2,0.3-24.4c-0.1-6.2-0.2-12.4-0.3-18.5c-0.3-40.4,0.8-80.8,0.4-121.1h6.1c0.1,12.2,0,24.5-0.1,36.7
	c-0.1,8.5-0.2,17-0.3,25.6c-0.1,6.6-0.1,13.2-0.2,19.8c0,2.3,0,4.5,0,6.8c0,9.5,0.2,19.1,0.3,28.7c0.1,7.2,0.2,14.5,0.1,21.7
	c0,2.4,0,4.8-0.1,7.3c-0.1,8.8-0.3,17.5-0.4,26.3c-0.1,4.7-0.2,9.3-0.3,13.9c-0.1,3.9-0.1,7.8-0.2,11.7l-0.5,26.6
	c-0.1,9.3-0.3,18.6-0.5,27.9c-0.2,0.5-0.2,1,0,1.5c-0.1,8.6-0.3,17.2-0.4,25.9c-0.1,7.6-0.2,15.2-0.3,22.8c-0.8,0.3-1.3,1.2-1,2
	c0.1,0.4,0.5,0.8,0.9,1v8.7c-0.7,0.5-0.9,1.5-0.4,2.2c0.1,0.1,0.2,0.3,0.4,0.4c-0.1,9.5-0.3,18.9-0.4,28.4
	c-0.1,4.4-0.1,8.8-0.2,13.3c-0.1,9.6-0.2,19.2-0.3,28.7c-0.1,5.5-0.1,10.9-0.2,16.3c-0.1,10.6-0.2,21.2-0.3,31.7v8.2
	c-0.1,9.9-0.1,19.8-0.2,29.7c-0.1,13.7-0.1,27.3-0.1,40.9c0,16.4,0,32.8,0.1,49.1c0,4.1,0,8.2,0.1,12.3c0.1,12.8,0.2,25.6,0.4,38.5
	c0.1,7.1,0.2,14.1,0.3,21.1c0,2.6,0.1,5.3,0.1,7.9s0.1,7.5,0.2,11.3c0.2,14.3,0.5,28.7,1,43s0.8,25.9,1.5,38.9
	c0.2,3.8,0.4,7.5,0.6,11.3l0,0C261.5,751.1,262,758.6,262.5,766.1z"/>
<path d="M262.2,274.4c0,1,0,2-0.1,3.1h-1.3c-0.8,0-1.5-0.7-1.5-1.5c-0.1-0.8,0.5-1.4,1.3-1.5c0.1,0,0.1,0,0.2,0L262.2,274.4
	L262.2,274.4z"/>
<path d="M260.8,277.5h1.3c-0.1,7.1-0.2,14.1-0.3,21.2h-3.1c0.1-7.6,0.2-15.2,0.3-22.8h0.2c-0.1,0.8,0.6,1.5,1.4,1.6
	C260.7,277.5,260.7,277.5,260.8,277.5z"/>
<path d="M261.9,691.9v3.1h-1.2c-0.8,0-1.5-0.7-1.5-1.5v-0.1c-0.1-0.8,0.5-1.4,1.3-1.5c0.1,0,0.1,0,0.2,0h1.1H261.9z"/>
<path d="M261.9,691.9h-1.1c-0.8-0.1-1.4,0.5-1.5,1.3c0,0.1,0,0.1,0,0.2h-0.2c-0.4-14.3-0.7-28.6-1-43h1.1c-0.1,0.8,0.6,1.5,1.4,1.6
	h0.1h0.3c0.1,9.1,0.3,18.1,0.6,27.2c-0.5,0.7-0.5,1.6,0.1,2.2C261.7,684.9,261.8,688.4,261.9,691.9z"/>
<path d="M261.8,298.7c0,1,0,2-0.1,3.1h-3.1c0-1,0-2,0.1-3L261.8,298.7L261.8,298.7z"/>
<path d="M259.1,301.7h2.7v8.5h-2.2c-0.3,0-0.6,0.1-0.8,0.2v-8.7h0.4H259.1z"/>
<path d="M261.6,310.2c0,1,0,2,0,3.1h-2.2l-0.9-0.3c0-0.9,0-1.7,0-2.6c0.2-0.1,0.5-0.2,0.8-0.2h2.2H261.6z"/>
<path d="M261.5,679.2v2.2C261,680.8,261,679.8,261.5,679.2z"/>
<path d="M261.6,313.3c-0.1,4.8-0.1,9.6-0.2,14.4l-0.2,12.2h-0.9c-0.8-0.1-1.4,0.5-1.5,1.3c0,0.1,0,0.1,0,0.2h-0.7
	c0.1-9.5,0.3-18.9,0.4-28.4l0.9,0.3H261.6z"/>
<path d="M261.2,339.9c0,1,0,2,0,3.1h-0.8c-0.8,0-1.5-0.7-1.5-1.5v-0.1c-0.1-0.8,0.5-1.4,1.3-1.5c0.1,0,0.1,0,0.2,0H261.2z"/>
<path d="M260.3,343h0.9v10.2h-0.3c-0.8-0.1-1.4,0.5-1.5,1.3c0,0.1,0,0.1,0,0.2h-1.3c0.1-4.4,0.1-8.8,0.2-13.3h0.7
	C258.9,342.2,259.5,342.9,260.3,343z"/>
<path d="M261,353.2v3.1h-0.2c-0.8,0-1.5-0.7-1.5-1.5v-0.1c-0.1-0.8,0.5-1.4,1.3-1.5c0.1,0,0.1,0,0.2,0H261L261,353.2z"/>
<path d="M260.8,356.2h0.2c-0.1,10.9-0.3,21.8-0.4,32.7c-0.9,0-1.5,0.7-1.5,1.5s0.7,1.5,1.5,1.5v6.1h-0.2c-0.8-0.1-1.4,0.5-1.5,1.3
	c0,0.1,0,0.1,0,0.2h-1.4c0.1-5.5,0.1-10.9,0.2-16.3c0.1-9.6,0.2-19.2,0.3-28.7h1.3c-0.1,0.8,0.6,1.5,1.4,1.6
	C260.7,356.2,260.8,356.2,260.8,356.2z"/>
<path d="M260.9,648.9c0,1,0,2,0,3.1h-0.3c-0.8,0-1.5-0.7-1.5-1.5v-0.1c-0.1-0.8,0.5-1.4,1.3-1.5c0.1,0,0.1,0,0.2,0H260.9
	L260.9,648.9z"/>
<path d="M260.8,640.7c0,2.7,0.1,5.5,0.1,8.2h-0.2c-0.8-0.1-1.4,0.5-1.5,1.3c0,0.1,0,0.1,0,0.2h-1.1c-0.1-3.7-0.1-7.5-0.2-11.3h0.9
	c-0.1,0.8,0.6,1.5,1.4,1.6h0.1H260.8z"/>
<path d="M260.8,640.7h-0.5c-0.8,0-1.5-0.7-1.5-1.5v-0.1c-0.1-0.8,0.5-1.4,1.3-1.5c0.1,0,0.1,0,0.2,0h0.5
	C260.8,638.7,260.8,639.7,260.8,640.7z"/>
<path d="M260.8,637.7h-0.5c-0.8-0.1-1.4,0.5-1.5,1.3c0,0.1,0,0.1,0,0.2h-0.9c-0.1-2.6-0.1-5.3-0.1-7.9c-0.1-7.1-0.2-14.1-0.3-21.1
	h0.7c-0.1,0.8,0.6,1.5,1.4,1.6h0.1h0.8C260.6,620.4,260.7,629,260.8,637.7z"/>
<path d="M260.7,389v3.1c-0.9,0-1.5-0.7-1.5-1.5S259.8,389,260.7,389z"/>
<path d="M260.6,398.2v3.1h-0.2c-0.8,0-1.5-0.7-1.5-1.5c-0.1-0.8,0.5-1.4,1.3-1.5c0.1,0,0.1,0,0.2,0L260.6,398.2L260.6,398.2z"/>
<path d="M260.3,401.3h0.2c-0.1,9.5-0.1,19.1-0.2,28.7h-1.4c-0.8-0.1-1.4,0.5-1.5,1.3c0,0.1,0,0.1,0,0.2h-0.2
	c0.1-10.6,0.2-21.2,0.3-31.7h1.4C258.9,400.6,259.5,401.2,260.3,401.3z"/>
<path d="M260.5,608.6c0,1,0,2,0,3.1h-0.8c-0.8,0-1.5-0.7-1.5-1.5v-0.1c-0.1-0.8,0.5-1.4,1.3-1.5c0.1,0,0.1,0,0.2,0H260.5z"/>
<path d="M260.4,602.4c0,2.1,0,4.1,0.1,6.2h-0.8c-0.8-0.1-1.4,0.5-1.5,1.3c0,0.1,0,0.1,0,0.2h-0.7c-0.1-12.8-0.3-25.6-0.4-38.5h0.7
	c-0.1,0.8,0.6,1.5,1.4,1.6h0.1h0.9c0,0.5,0,1.1,0,1.6c0.1,8.2,0.1,16.4,0.2,24.6c-0.8,0.3-1.3,1.2-0.9,2.1
	C259.6,601.9,260,602.2,260.4,602.4z"/>
<path d="M260.4,599.4c0,1,0,2,0,3c-0.8-0.3-1.3-1.2-0.9-2.1C259.6,599.9,260,599.6,260.4,599.4z"/>
<path d="M260.3,429.9c0,1,0,2,0,3.1h-1.4c-0.8,0-1.5-0.7-1.5-1.5v-0.1c-0.1-0.8,0.5-1.4,1.3-1.5c0.1,0,0.1,0,0.2,0H260.3z"/>
<path d="M260.3,433c0,1.7,0,3.4,0,5.1h-1.4c-0.8-0.1-1.4,0.5-1.5,1.3c0,0.1,0,0.1,0,0.2h-0.2v-8.2h0.2c-0.1,0.8,0.6,1.5,1.4,1.6h0.1
	H260.3L260.3,433z"/>
<path d="M260.2,438.1c0,1,0,2,0,3.1h-1.3c-0.8,0-1.5-0.7-1.5-1.5v-0.1c-0.1-0.8,0.5-1.4,1.3-1.5c0.1,0,0.1,0,0.2,0H260.2z"/>
<path d="M258.9,441.2h1.3c-0.1,8.9-0.1,17.7-0.1,26.6c-0.8,0-1.4,0.6-1.4,1.4v0.1H257c0.1-9.9,0.1-19.8,0.2-29.7h0.2
	C257.3,440.4,258,441.1,258.9,441.2C258.8,441.2,258.9,441.2,258.9,441.2z"/>
<path d="M260.2,570.1c0,1,0,2,0,3.1h-0.9c-0.8,0-1.5-0.7-1.5-1.5v-0.1c-0.1-0.8,0.5-1.4,1.3-1.5c0.1,0,0.1,0,0.2,0H260.2z"/>
<path d="M260.1,560.9c0,3.1,0,6.1,0.1,9.2h-0.9c-0.8-0.1-1.4,0.5-1.5,1.3c0,0.1,0,0.1,0,0.2h-0.7c0-4.1-0.1-8.2-0.1-12.3h0.8
	c-0.1,0.8,0.6,1.5,1.4,1.6h0.1H260.1L260.1,560.9z"/>
<path d="M260.1,560.9h-0.8c-0.8,0-1.5-0.7-1.5-1.5v-0.1c-0.1-0.8,0.5-1.4,1.3-1.5c0.1,0,0.1,0,0.2,0h0.8
	C260.1,558.9,260.1,559.9,260.1,560.9z"/>
<path d="M260.1,557.8h-0.8c-0.8-0.1-1.4,0.5-1.5,1.3c0,0.1,0,0.1,0,0.2H257c-0.1-16.4-0.1-32.8-0.1-49.1l0,0
	c-0.1,0.8,0.6,1.5,1.4,1.6h0.1h1.6c0,3.4,0,6.8,0,10.2c-0.8,0.3-1.3,1.2-0.9,2.1c0.2,0.4,0.5,0.8,0.9,0.9
	C260,535.9,260,546.9,260.1,557.8z"/>
<path d="M260.1,467.8c0,1,0,2,0,3c-0.8-0.1-1.4-0.7-1.4-1.5c-0.1-0.8,0.5-1.4,1.3-1.5H260.1z"/>
<path d="M260.1,470.8c0,2.7,0,5.5,0,8.2c-0.8,0-1.5,0.7-1.5,1.5s0.7,1.5,1.5,1.5c0,8.9,0,17.8-0.1,26.7h-1.6
	c-0.8-0.1-1.4,0.5-1.5,1.3c0,0.1,0,0.1,0,0.2l0,0c0-13.7,0-27.3,0.1-40.9h1.7C258.7,470.1,259.3,470.7,260.1,470.8z"/>
<path d="M260,479.1c0,1,0,2,0,3c-0.8,0-1.5-0.7-1.5-1.5S259.2,479.1,260,479.1z"/>
<path d="M260,522v3c-0.8-0.3-1.3-1.2-0.9-2.1C259.2,522.5,259.6,522.2,260,522z"/>
<path d="M260,508.7v3.1h-1.6c-0.8,0-1.5-0.7-1.5-1.5v-0.1c-0.1-0.8,0.5-1.4,1.3-1.5c0.1,0,0.1,0,0.2,0H260z"/>
<path d="M259.5,248.5c0,0.5,0,1,0,1.5C259.3,249.5,259.3,249,259.5,248.5z"/>
<path d="M258.7,298.7c0,1,0,2-0.1,3c-0.8-0.3-1.2-1.3-0.9-2.1C257.9,299.2,258.3,298.8,258.7,298.7z"/>
<path d="M258.5,310.4c0,0.9,0,1.7,0,2.6c-0.7-0.5-0.9-1.5-0.4-2.2C258.2,310.6,258.4,310.5,258.5,310.4z"/>
<path d="M256.8,766.1h-3.1c-3.4-44.7-4.3-89.6-5.1-134.4c-1.4-81.9-1.1-163.7-0.2-245.6c0.7-66.6,1.8-133.2,3-199.9
	c0.3-15.7,0.7-31.5,0.8-47.2c0-7.4,0-14.8-0.1-22.2h2.9c0.1,6.2,0.2,12.4,0.3,18.5c0.2,8.1-0.1,16.2-0.3,24.4
	c-1,58.2-2.1,116.3-2.8,174.5c-1.1,81.7-1.7,163.5-1,245.3C251.6,641.6,252,704.1,256.8,766.1z"/>
<path d="M255.4-4.3c0.4,40.4-0.8,80.7-0.4,121.1h-2.9c-0.2-12-0.4-23.9-0.3-35.9c0.2-28.4,0.8-56.8,0.5-85.2L255.4-4.3L255.4-4.3z"
	/>
<path class="st1" d="M253.8,766.1H31.3c11.2-26.7,19.5-54.7,27.5-82.4c12.9-45.1,23.7-90.9,33.8-136.7
	c9.6-43.5,18.3-87.2,26.7-130.9c4.5-23.8,9-47.6,13-71.4c3.6-22,6.7-44.1,8.9-66.4c8.6-87.9,6.9-176.4,6.8-264.7c0-3.1,0-6.1,0-9.2
	c0-2.9,0-5.7,0-8.6h104.3c0.2,28.4-0.3,56.8-0.5,85.2c-0.1,12,0.1,23.9,0.3,35.9c0.1,7.4,0.2,14.8,0.1,22.2
	c-0.1,15.7-0.5,31.5-0.8,47.2c-1.2,66.6-2.3,133.2-3,199.9c-0.8,81.9-1.1,163.7,0.2,245.6C249.4,676.4,250.3,721.4,253.8,766.1z"/>
<path d="M144.9-4.3h3.1c0,2.9,0,5.7,0,8.6h-3.1C144.8,1.4,144.8-1.5,144.9-4.3z"/>
<path d="M147.9,13.4c0,88.3,1.7,176.7-6.8,264.7c-2.2,22.3-5.3,44.4-8.9,66.4l-2.8-0.5c18-109.2,15.5-220.2,15.5-330.6L147.9,13.4
	L147.9,13.4z"/>
<path d="M147.9,4.2c0,3.1,0,6.1,0,9.2h-3.1c0-3.1,0-6.1,0-9.2H147.9z"/>
<path class="st0" d="M144.9-4.3c0,2.9,0,5.7,0,8.6s0,6.1,0,9.2c0,110.4,2.5,221.4-15.5,330.6c-0.9,5.7-1.9,11.4-3,17.1
	c-15.5,83.9-31.8,167.8-52,250.7c-8,32.9-16.6,65.6-26.6,97.9C41.9,728.7,35.7,747.7,28,766h-6.9c12.1-27.8,20.8-57.3,29.1-86.3
	c12.8-44.9,23.5-90.4,33.4-136c9.5-43.5,18.2-87.2,26.6-131c4.3-22.5,8.6-45.1,12.4-67.7s7.3-46.1,9.6-69.3
	c9.3-93,6.2-186.7,6.3-280L144.9-4.3L144.9-4.3z"/>
<path d="M138.5-4.3c-0.2,93.4,3,187-6.3,280c-2.3,23.2-5.7,46.3-9.6,69.3l-3-0.5c9.3-55.7,13.9-111.8,15.4-168.3
	c1.5-60.2,0.3-120.3,0.5-180.5h3.1C138.6-4.3,138.5-4.3,138.5-4.3z"/>
<path d="M132.2,344.5c-3.9,23.9-8.4,47.6-13,71.4c-8.3,43.7-17.1,87.4-26.7,130.9c-10.1,45.8-20.9,91.6-33.8,136.7
	c-7.9,27.7-16.3,55.7-27.5,82.4h-3.4c7.7-18.3,13.9-37.3,19.8-56.2c10-32.3,18.6-65,26.6-97.9c20.2-82.9,36.5-166.8,52-250.7
	c1.1-5.7,2.1-11.4,3-17.1L132.2,344.5z"/>
<path d="M119.6,344.5l3,0.5c-3.8,22.6-8.1,45.1-12.4,67.7c-8.3,43.8-17,87.5-26.6,131c-10,45.6-20.6,91.1-33.4,136
	c-8.3,29.1-17,58.5-29.1,86.3h-3.4c8-18.4,14.5-37.6,20.5-56.8c9.7-31,18-62.4,25.8-93.9c20.5-83.8,37-168.7,52.6-253.5
	C117.6,356,118.6,350.2,119.6,344.5z"/>
</svg>
