<?xml version="1.0" encoding="utf-8"?>
<!-- Generator: Adobe Illustrator 19.2.1, SVG Export Plug-In . SVG Version: 6.00 Build 0)  -->
<svg version="1.1" id="_x37_fbac428-d2cf-44b4-b85b-0c9a6a76b74c"
	 xmlns="http://www.w3.org/2000/svg" xmlns:xlink="http://www.w3.org/1999/xlink" x="0px" y="0px" viewBox="0 0 328.2 581"
	 style="enable-background:new 0 0 328.2 581;" xml:space="preserve">
<style type="text/css">
	.st0{clip-path:url(#SVGID_2_);}
	.st1{fill:#262016;}
	.st2{fill:#3F261D;}
	.st3{fill:#54618C;}
	.st4{fill:#FFC9A4;}
	.st5{fill:#414E72;}
	.st6{fill:#DD553A;}
</style>
<title>scene3-jim</title>
<g>
	<defs>
		<rect id="SVGID_1_" x="-893.5" y="-138.5" width="1278.9" height="719.5"/>
	</defs>
	<clipPath id="SVGID_2_">
		<use xlink:href="#SVGID_1_"  style="overflow:visible;"/>
	</clipPath>
	<g class="st0">
		<path class="st1" d="M298.3,99.2c19.3,23.5,28.7,54.6,27.8,85c-1.9,61.2-34.3,119.1-82.2,156.4c0.1-2.7,0.2-5.4,0.4-8.1
			c0.1-1.2-0.2-2.3-0.9-3.3l0,0c0-0.8-0.1-1.7-0.2-2.5c36.3-30.4,63.5-75.2,69.9-122.1c3.6-26.2,1.9-55.9-11.1-79.6
			s-42.4-51.9-70.3-37.9c-1.6-3.4-3.5-6.7-5.5-9.9C250.6,64.9,281.9,79.3,298.3,99.2z"/>
		<path class="st1" d="M330.7,715.1c-3.6,1.6-7.3,3.1-10.9,4.5c-5.1-53.9-12-107.6-21.2-161c-7.7-45-15.6-92.9-48.2-127.3
			c1.6-5.3,1.8-10.9,0.6-16.3c35.2,32.2,49.5,88.3,57.3,133.4C317.9,603.7,325.4,659.2,330.7,715.1z"/>
		<path class="st2" d="M302.1,125c12.9,23.7,14.7,53.4,11.1,79.6c-6.4,46.9-33.6,91.7-69.9,122.1c-2-25.6-10.1-49.2-23.9-71.1
			c13-10,25-30,16.4-45.2c-4.3-7.6-11.2-12.7-20.2-11.7c-1.7,0.2-3.3,0.7-4.8,1.4c-2.8-19-11.2-34.9-26.3-47.6l3.2-2.5
			c5.6-4.6-2.4-12.6-8-8c-2.1,1.7-4.3,3.4-6.5,4.9c-21,14.7-47.4,21.8-71.8,28.2c-26.7,6.9-54,11.7-81.2,16.3
			C-2.1,135.5,42,77.1,90.4,52.5c45-22.8,104.9-8.8,129.1,35.4c2.6,4.7,4.7,9.5,6.3,14.6c2.2,6.9,13.2,4,10.9-3
			c-1.4-4.2-3-8.3-4.9-12.3C259.7,73.1,289.7,102.3,302.1,125z"/>
		<path class="st3" d="M298.7,558.5c9.2,53.4,16.1,107.1,21.2,161c-15.4,5.9-31.3,10.5-47.5,13.6c-0.6-57.9-3.2-117.6-12-174.9
			c-2.3-15.1-7-31.3-22.8-37.3c-3.8-1.5-7.8-2.4-11.8-2.8c-13.3-1.3-25.3,4.2-35.1,15.2c-12.8,14.3-13.9,36.2-16.3,54.2
			c-2.9,22.2-3.9,44.6-4.2,67c-0.3,26.3,0,52.6,0.7,79c-15.5-2.8-30.8-7-45.6-12.5l3.6-28.6h1.9c7.3,0,7.3-11.3,0-11.3h-0.4
			c1.9-15.2,3.9-30.4,5.8-45.5c4.9-1.2,5.3-8.1,1.3-10.3l7.4-57.4h1c7.1,0,7.3-10.8,0.5-11.3c2.8-22.2,5.6-44.4,8.5-66.6
			c8.8,2.9,21.3-0.6,30.9-4c19.9-7.2,57.1-28.8,64.7-54.8C283.2,465.6,291,513.5,298.7,558.5z"/>
		<path class="st1" d="M260.4,558.2c8.7,57.3,11.3,117,12,174.9l-11.3,1.9c0-0.1,0-0.1,0-0.2c-0.5-49.5-4.1-99.1-8.5-148.4
			c-1.6-17.4-4.2-57.7-27.3-58.7l0.5-9.7c4,0.4,8,1.3,11.8,2.8C253.4,526.9,258.1,543.1,260.4,558.2z"/>
		<path class="st3" d="M261.1,734.8c0,0.1,0,0.1,0,0.2c-26.2,3.9-52.8,4-79,0.3c-1.6-46.9-2.1-94.1,2.7-140.6
			c2.3-22.4,3.8-54.2,28.3-64.4c3.8-1.7,7.9-2.6,12.1-2.5c23.2,0.9,25.7,41.3,27.3,58.7C257,635.8,260.6,685.3,261.1,734.8z"/>
		<path class="st1" d="M251.1,414.9c1.2,5.4,1,11-0.6,16.3l-0.3-0.3c-2.5-2.6-3.6-7.8-3.4-11.7l0.7-1.5l0,0c0.5-0.9,0.8-1.9,0.8-3
			c0,0,0-0.1,0-0.1c0.1,0,0.1-0.1,0.1-0.2C249.1,413.7,250,413.9,251.1,414.9z"/>
		<path class="st1" d="M250.2,430.9l0.3,0.3c-7.6,26-44.8,47.7-64.7,54.8c-9.5,3.4-22,6.9-30.9,4l0.7-5.4c0.9-7.2-9.7-12.5-10.7-5.4
			c-0.5-1.6-0.8-3.2-0.9-4.9c-0.9-10.9-3.9-27,7.1-33.6c-4.2,4.4-5,10.3-0.9,16.4c1,1.5,2.4,2.7,4,3.6c-0.5,8.9,1.9,19.8,7.9,19.2
			c14.8-1.3,27.9-7.4,40.3-15.1s32-20.3,37.1-36.1c3-2.7,5.5-5.9,7.3-9.5C246.6,423.1,247.7,428.3,250.2,430.9z"/>
		<path class="st1" d="M251.1,414.9c-1.1-1-2-1.2-2.7-0.6c0.4-2.3,0.4-4.7-0.2-7l-0.3-0.8C249.3,409.1,250.4,412,251.1,414.9z"/>
		<path class="st1" d="M248.2,407.3c0.6,2.3,0.6,4.7,0.2,7h-0.1c0-0.3,0-0.6-0.1-0.9c-0.5-2.9-1-5.8-1.4-8.7
			c0.4,0.4,0.7,0.8,0.9,1.2l0.3,0.6L248.2,407.3z"/>
		<path class="st1" d="M248.4,414.3c0,0.1,0,0.2-0.1,0.2l0,0l0,0h0.1V414.3z"/>
		<path class="st1" d="M248.3,414.5c0,0,0,0.1,0,0.1c-0.2,1-0.4,2-0.8,3l0,0l-0.6,0.8c0.2-1.9,0.6-3.5,1.5-4.1l0,0L248.3,414.5z"/>
		<path class="st1" d="M248.2,413.4c0.1,0.3,0.1,0.6,0.1,0.9l0,0c0,0-1.3,2.2-1.5,4.1c-1.6,1.7-4,2.5-6.3,1.9
			c-0.3-3-1.1-5.9-2.6-8.6c-0.3-0.4-0.5-0.9-0.6-1.4c-0.2-0.9-0.2-1.7,0-2.6c0.8-3.2,4.1-5.2,7.3-4.4c0.3,0.1,0.7,0.2,1,0.4l1.2,0.9
			l0,0C247.2,407.6,247.7,410.5,248.2,413.4z"/>
		<path class="st1" d="M247.5,417.6c0.4-1,0.6-2,0.8-3C248.3,415.6,248,416.7,247.5,417.6z"/>
		<path class="st1" d="M248,406.5l-0.3-0.6c-0.2-0.4-0.5-0.8-0.9-1.2c0,0,0-0.1,0-0.1C247.3,405.1,247.8,405.8,248,406.5z"/>
		<path class="st1" d="M247.5,417.6l-0.7,1.5c0-0.3,0-0.5,0-0.8L247.5,417.6z"/>
		<path class="st1" d="M246.8,404.7L246.8,404.7L246.8,404.7z"/>
		<path class="st1" d="M246.8,418.4c0,0.3,0,0.5,0,0.8c-1.8,3.6-4.3,6.8-7.3,9.5c0.9-2.7,1.2-5.6,1-8.4
			C242.8,420.9,245.2,420.1,246.8,418.4z"/>
		<path class="st1" d="M246.8,404.6L246.8,404.6l-1.2-0.9c-1.4-0.8-3.1-0.9-4.6-0.2c-1.9,0.6-3.3,2.2-3.7,4.1
			c-0.2,0.9-0.2,1.7,0,2.6c0.3,1.3,0.1,2.6-0.4,3.8c-4.4-24.9-5.3-49.2-4.3-74.4c0.3,0.9,0.8,1.8,1.6,2.4h0.1c1.6,2,4.4,2.4,6.5,0.8
			c0,0,0.1-0.1,0.1-0.1l0.6-0.4l0.7-0.5l1.8-1.4C243,362.2,243.5,383.3,246.8,404.6z"/>
		<path class="st1" d="M243.4,329.2c0.7,1,1,2.1,0.9,3.3c-0.2,2.7-0.3,5.4-0.4,8.1l-1.8,1.4c1-1.1,1.6-2.5,1.5-4
			C243.7,335,243.6,332.1,243.4,329.2z"/>
		<path class="st1" d="M245.6,403.7c-1.4-0.7-3.1-0.7-4.6-0.2C242.5,402.8,244.2,402.9,245.6,403.7z"/>
		<path class="st1" d="M243.7,338c0.1,1.5-0.5,2.9-1.5,4l-0.7,0.5c-2.2,1.4-5.1,1.3-7.2-0.3h-0.1c-1-1.2-1.5-2.8-1.5-4.4
			c0,0,0-0.1,0-0.1c0.1-1.8,1-3.4,2.4-4.5c2.3-1.7,4.5-3.5,6.8-5.3c0.6,0.3,1.1,0.8,1.5,1.4l0,0C243.6,332.1,243.7,335,243.7,338z"
			/>
		<path class="st1" d="M243.3,326.7c0,0.8,0.1,1.6,0.2,2.5c-0.4-0.6-0.9-1.1-1.5-1.4L243.3,326.7z"/>
		<path class="st1" d="M243.3,326.7l-1.4,1.1c-3.2-1.9-8.6-0.3-9,4.7c-0.1,1.7-0.2,3.4-0.2,5.1c0,0,0,0.1,0,0.1v2
			c-0.2-0.5-0.3-1.1-0.3-1.7c-0.1-29.8-9.1-56.4-25.6-81.2c-1-1.3-1.2-3-0.6-4.5c-1.1,4.2,3.4,9.3,8.4,6.6c1.7-0.9,3.3-2,4.9-3.2
			C233.1,277.5,241.3,301.1,243.3,326.7z"/>
		<path class="st1" d="M241.5,342.5l0.7-0.5L241.5,342.5z"/>
		<path class="st1" d="M241.5,342.5l-0.6,0.4c-1.9,1.6-4.8,1.4-6.5-0.6c0,0-0.1-0.1-0.1-0.1C236.4,343.8,239.3,343.9,241.5,342.5z"
			/>
		<path class="st1" d="M240.5,420.3c0.2,2.8-0.1,5.7-1,8.4c-15.1,14.4-44.6,24.9-56.4,29.1c-7,2.5-20.6,7.3-28.8,2.9
			c0.1-1.6,0.3-3.3,0.6-4.9c2.2,4,10.2,3,10.7-3l0.2-3c2.9,0.9,6.1,0.6,8.8-0.9c5-1.7,9.9-3.7,14.6-6.1l15.2-7.2
			c6.1-2.9,28.6-12.4,32.4-21.5c0.1,0.8,0.3,1.6,0.4,2.4C237.4,418.3,238.7,419.8,240.5,420.3z"/>
		<path class="st1" d="M233,332.5c0.3-5,5.7-6.6,9-4.7c-2.2,1.9-4.5,3.6-6.8,5.3c-1.4,1.1-2.3,2.7-2.4,4.5
			C232.8,335.9,232.9,334.2,233,332.5z"/>
		<path class="st1" d="M237.9,411.6c1.5,2.7,2.3,5.6,2.6,8.6c-1.7-0.5-3-2.1-3.2-3.9c-0.2-0.8-0.3-1.6-0.4-2.4
			c0.5-1.2,0.7-2.5,0.4-3.8C237.4,410.6,237.6,411.1,237.9,411.6z"/>
		<path class="st1" d="M241,403.6c-1.8,0.7-3.2,2.2-3.7,4.1C237.7,405.8,239.1,404.2,241,403.6z"/>
		<path class="st1" d="M236.7,99.4c2.3,7-8.7,9.9-10.9,3c-1.6-5.1-3.7-9.9-6.3-14.6l1.8-1c1.3,2.5,4.5,3.5,7,2.2
			c0.2-0.1,0.3-0.2,0.5-0.3c1-0.6,2-1.2,3-1.7C233.7,91,235.3,95.2,236.7,99.4z"/>
		<path class="st1" d="M235.8,210.3c8.6,15.3-3.4,35.3-16.4,45.2l-2.9-4.5c-2.8-4.2-8.4-2.8-10.2,0.6c0.5-1.1,1.3-2,2.4-2.6
			c6.2-3.2,11.2-8.4,14.2-14.7c2.5-4.9,5.5-11.4,3.4-17c-1.4-3.8-5-9.7-9.9-7.8c-2.5,0.9-3.8,4.8-3.6,7c0.6,7.3-10.7,7.3-11.3,0
			c-0.2-2.3,0.1-4.7,0.9-6.9c0.1,1.1,0.2,2.3,0.2,3.4c0.3,7.3,9.3,5.5,9.1-1.9c-0.1-3.7-0.5-7.4-1-11c1.5-0.7,3.1-1.2,4.8-1.4
			C224.6,197.6,231.6,202.7,235.8,210.3z"/>
		<path class="st1" d="M232.7,337.7c0,1.6,0.5,3.2,1.5,4.4c-0.8-0.6-1.3-1.5-1.6-2.4l0,0L232.7,337.7L232.7,337.7z"/>
		<path class="st4" d="M232.6,339.6L232.6,339.6c-1,25.1-0.2,49.5,4.3,74.4c-3.8,9.1-26.3,18.5-32.4,21.5l-15.2,7.2
			c-4.7,2.4-9.6,4.4-14.6,6.1c-2.7,1.5-5.9,1.8-8.8,0.9c1.1-15,0.3-30.5-0.5-45.5c0-0.2,0-0.3,0-0.4c7.7-5.4,15.1-11.6,22.4-17.9
			c5.6-4.8-2.5-12.7-8-8c-8.6,7.3-17,14-25.7,19.4c-18.5,11.5-38.4,17-63.6,9.9c-26.7-7.4-36.6-30.7-41.2-55.8
			c9.9-2.6,20.5-0.2,28.4,6.4c5.5,4.7,13.6-3.3,8-8c-10.5-9.1-24.6-12.8-38.2-9.7c-1.5-11.7-2.3-23.4-3.4-33.6
			c-0.9-7.8-2.9-17.9-8.5-21.2c-2.1-1.2-5.8-1.1-9.9-1.1c-17-0.2-8.7-9.4-3.2-15.3c17.2-18.7,22.1-45.2,16.1-69.3
			c45.9-7.4,97.6-15.3,136.4-40.6l0.2,0.2c15.8,12,25.8,30.3,27.3,50.1l0,0c-0.8,2.2-1.1,4.6-0.9,6.9c0.6,7.3,11.9,7.3,11.3,0
			c-0.2-2.2,1.1-6,3.6-7c4.9-1.9,8.5,4,9.9,7.8c2,5.6-1,12.2-3.4,17c-3,6.3-8,11.5-14.2,14.7c-1.1,0.6-1.9,1.5-2.4,2.6
			c-0.1,0.2-0.2,0.4-0.2,0.6c-0.6,1.5-0.4,3.2,0.6,4.5c16.5,24.8,25.5,51.4,25.6,81.2C232.3,338.3,232.4,338.9,232.6,339.6z
			 M174.9,315.8c7.4-18.1,1.4-38.8-14.5-50.2c-19-13.6-43.4,0-53.1,17.9c-22.1,41.2,45.5,75.8,67,33.6c0.2-0.3,0.3-0.7,0.4-1
			L174.9,315.8z M63.3,220.1c3-4.2,0.6-9.3-4.3-9.3c-7.6,0-7.6,11.3,0,11.3C60.7,222.1,62.2,221.3,63.3,220.1L63.3,220.1z"/>
		<path class="st1" d="M231.8,87.1c-1,0.5-2,1.1-3,1.7c-2.4,1.6-5.6,1-7.2-1.4c-0.1-0.2-0.2-0.3-0.3-0.5c-1.7-2.5-1.2-5.9,1.3-7.7
			c0.1-0.1,0.2-0.2,0.4-0.2l3.2-1.8C228.3,80.4,230.1,83.7,231.8,87.1z"/>
		<path class="st1" d="M225.7,518.1l-0.5,9.7c-4.2-0.1-8.3,0.8-12.1,2.5c-24.4,10.2-25.9,42-28.3,64.4c-4.8,46.6-4.3,93.7-2.7,140.6
			l-11.2-1.8c-0.7-26.4-1-52.7-0.7-79c0.2-22.4,1.2-44.8,4.2-67c2.4-18,3.5-39.9,16.3-54.2C200.5,522.3,212.4,516.8,225.7,518.1z"/>
		<path class="st1" d="M226.3,77.1l-3.2,1.8c-2.6,1.5-3.5,4.9-1.9,7.5c0.1,0.1,0.2,0.2,0.2,0.4l-1.8,1
			c-24.2-44.2-84-58.2-129.1-35.4C42,76.9-2.1,135.3,20.3,191.3l-3,0.5c-4.5,0.8-8.2,1.1-7,4.5l-0.5-0.9
			C-15.7,133.8,34.4,62.6,91.3,39.7C139.9,20.1,198.6,33.4,226.3,77.1z"/>
		<path class="st1" d="M216.5,251.1l2.9,4.5c-1.6,1.2-3.2,2.3-4.9,3.2c-4.9,2.7-9.4-2.4-8.4-6.6c0-0.2,0.1-0.4,0.2-0.6
			C208.1,248.3,213.7,246.8,216.5,251.1z"/>
		<path class="st1" d="M211.8,211c0.3,7.3-8.8,9.1-9.1,1.9c-0.1-1.1-0.1-2.3-0.2-3.4l0,0c1.4-4.1,4.4-7.5,8.3-9.4
			C211.3,203.7,211.7,207.3,211.8,211z"/>
		<path class="st1" d="M184.5,152.5c15.1,12.7,23.5,28.6,26.3,47.6c-3.9,1.9-6.9,5.3-8.3,9.4c-1.5-19.8-11.5-38.1-27.3-50.1
			l-0.2-0.2C178.3,157.1,181.4,154.8,184.5,152.5z"/>
		<path class="st5" d="M239.5,428.7c-5,15.7-26.1,29.2-37.1,36.1s-25.6,13.9-40.3,15.1c-6,0.5-8.4-10.3-7.9-19.2
			c8.2,4.4,21.8-0.4,28.8-2.9C194.9,453.5,224.4,443,239.5,428.7z"/>
		<path class="st1" d="M179.7,141.9c5.6-4.6,13.6,3.4,8,8l-3.2,2.5l-3.6-2.9c-1.7-1.5-4.2-1.5-5.9,0l-1.9-2.8
			C175.4,145.3,177.6,143.7,179.7,141.9z"/>
		<path class="st1" d="M179.7,378c5.5-4.7,13.6,3.2,8,8c-7.3,6.3-14.7,12.5-22.4,17.9c-0.6-5.1-6.7-6.3-9.6-3.8l-1.7-2.7
			C162.7,392,171.1,385.3,179.7,378z"/>
		<path class="st1" d="M180.9,149.6l3.6,2.9c-3.1,2.4-6.2,4.6-9.5,6.7c-3.3-2.8-2.5-7.4,0-9.6C176.7,148.1,179.2,148.1,180.9,149.6z
			"/>
		<path class="st1" d="M160.4,265.6c15.9,11.4,21.9,32.1,14.5,50.2l-0.2,0.3c1.9-6-7.1-10.9-10.2-4.7l-0.2,0.3
			c4.2-11.3,2.8-25.7-6.9-34c-12.6-10.8-31.4-5.1-39,9c-16.1,30.1,30.1,55.4,45.9,25l-0.4,1.1c-2.8,6.6,7.8,9.6,10.8,3.4
			c-0.1,0.3-0.2,0.7-0.4,1c-21.5,42.2-89.1,7.6-67-33.6C116.9,265.6,141.4,252.1,160.4,265.6z"/>
		<path class="st1" d="M173.1,146.8l1.9,2.8c-2.5,2.2-3.4,6.8,0,9.6c-38.8,25.2-90.6,33.2-136.4,40.6l-0.8-2.9c-2-7-13-4-11,3
			l0.5,1.7l-7.2,1.2c-2.7,0.5-7.5,1.1-10-6.4c3.4,5.4,13.1,2.5,10.4-4l-0.4-1.1c27.2-4.6,54.5-9.4,81.2-16.3
			C125.7,168.6,152.1,161.5,173.1,146.8z"/>
		<path class="st1" d="M164.6,311.4c3.1-6.2,12-1.3,10.2,4.7s-13.5,3.3-10.8-3.4l0.4-1.1L164.6,311.4z"/>
		<path class="st1" d="M165.3,404.3c0.9,15,1.6,30.4,0.5,45.5c-1.7-0.6-3.2-1.4-4.6-2.6c6.3-3.7,0.6-13.4-5.7-9.8l-0.5,0.3
			c0.2-8.9-0.2-17.9-0.6-26.7l0,0c3.8-2.1,7.4-4.5,10.9-7C165.3,404,165.3,404.1,165.3,404.3z"/>
		<path class="st1" d="M165.8,449.7l-0.2,3c-0.5,6-8.5,7.1-10.7,3c0.7-3,1.8-5.3,3.3-6c1.2-0.5,2.1-1.6,2.6-2.8h0.3
			C162.5,448.1,164.1,449.1,165.8,449.7z"/>
		<path class="st6" d="M157.5,277.7c9.7,8.3,11.1,22.7,6.9,34c-15.8,30.4-62,5.1-45.9-25C126.1,272.5,144.9,266.9,157.5,277.7z"/>
		<path class="st1" d="M155.5,437.3c6.3-3.7,12,6.1,5.7,9.8h-0.3c1.2-3.4-1.9-7.7-5.9-7.7c0-0.6,0-1.1,0-1.7L155.5,437.3z"/>
		<path class="st1" d="M155,439.3c4-0.1,7.1,4.3,5.9,7.7c-0.5,1.2-1.4,2.3-2.6,2.8c-1.5,0.7-2.6,3-3.3,6c-0.5-0.9-0.7-2-0.6-3
			C154.7,448.3,154.9,443.8,155,439.3z"/>
		<path class="st1" d="M155.6,400.1c2.9-2.5,9-1.2,9.6,3.8c-3.5,2.5-7.1,4.9-10.9,7c-0.1-2.2-0.3-4.4-0.4-6.6
			C153.7,402.7,154.4,401.1,155.6,400.1z"/>
		<path class="st1" d="M154,397.4l1.7,2.7c-1.2,1-1.9,2.6-1.7,4.2c0.1,2.2,0.3,4.4,0.4,6.6l0,0c-14.4,8.2-30.3,13.1-49,10.8
			c-32.7-4-56.9-23.9-64.9-56.6c-1.4-5.7-2.4-11.5-3-17.4l3.5-0.4c0.5,3,3.2,5.6,6.9,4.6l1.2-0.3c4.6,25.1,14.5,48.3,41.2,55.8
			C115.6,414.3,135.4,408.9,154,397.4z"/>
		<path class="st1" d="M144.9,479.3c0.9-7.1,11.6-1.8,10.7,5.4l-0.7,5.4C150.2,488.6,146.6,485.4,144.9,479.3
			C144.9,479.3,144.9,479.3,144.9,479.3z"/>
		<path class="st1" d="M155,437.6c0,0.6,0,1.1,0,1.7c-0.9,0-1.7,0.2-2.5,0.6l-1.4,0.8C152.3,439.5,153.6,438.4,155,437.6z"/>
		<path class="st1" d="M154.9,490c-2.9,22.2-5.7,44.4-8.5,66.6h-4.2c-2.8-0.1-5.2,1.9-5.6,4.6l-2.1-0.3c3.6-27.5,7-54.9,10.5-81.6
			C146.6,485.3,150.2,488.6,154.9,490z"/>
		<path class="st1" d="M155,439.3c-0.1,4.5-0.3,9-0.7,13.4c-0.1,1,0.1,2.1,0.6,3c-0.3,1.6-0.5,3.3-0.6,4.9c-1.6-0.9-3-2.1-4-3.6
			c-4.1-6.1-3.4-11.9,0.9-16.4l1.4-0.8C153.4,439.5,154.2,439.3,155,439.3z"/>
		<path class="st1" d="M146.4,556.6c6.8,0.5,6.7,11.3-0.5,11.3h-1C145.4,564.2,145.9,560.4,146.4,556.6z"/>
		<path class="st1" d="M146.4,556.6c-0.5,3.8-1,7.6-1.4,11.3h-2.8c-3.1,0.1-5.6-2.4-5.7-5.5c0-0.4,0-0.8,0.1-1.2
			c0.4-2.7,2.8-4.7,5.6-4.6H146.4L146.4,556.6z"/>
		<path class="st1" d="M142.1,567.9h2.8l-7.4,57.4c-2.8-1.6-6.3-0.7-7.9,2.1c-0.3,0.5-0.5,1.1-0.7,1.7l-3.2-0.4
			c2.9-22.6,5.8-45.3,8.7-67.8l2.1,0.3c-0.6,3,1.4,6,4.4,6.6C141.3,567.9,141.7,567.9,142.1,567.9z"/>
		<path class="st1" d="M137.6,625.4c4,2.2,3.6,9.1-1.3,10.3L137.6,625.4z"/>
		<path class="st1" d="M137.6,625.4l-1.3,10.3l-1.7,0.2c-3,0.2-5.5-2.1-5.7-5.1c0-0.2,0-0.4,0-0.6c0-0.4,0-0.7,0.1-1.1
			c0.7-3.1,3.8-5.1,6.9-4.4C136.5,624.9,137.1,625.1,137.6,625.4z"/>
		<path class="st1" d="M134.6,635.9l1.7-0.2c-1.9,15.2-3.9,30.4-5.8,45.5h-3.4c-2.8-0.1-5.2,1.9-5.6,4.6l-2.9-0.4
			c2.4-18.7,4.8-37.7,7.3-56.7l3.2,0.4c-0.1,0.4-0.1,0.7-0.1,1.1c-0.2,3,2.1,5.5,5.1,5.7C134.3,635.9,134.4,635.9,134.6,635.9z"/>
		<path class="st1" d="M130.8,681.2c7.3,0,7.3,11.3,0,11.3h-1.9l1.5-11.3H130.8z"/>
		<path class="st1" d="M130.4,681.2l-1.5,11.3H127c-3.1,0.1-5.6-2.4-5.7-5.5c0-0.4,0-0.8,0.1-1.2c0.4-2.7,2.8-4.7,5.6-4.6H130.4z"/>
		<path class="st1" d="M127,692.5h1.9l-3.6,28.6c-3.6-1.3-7.2-2.8-10.8-4.3c1.3-10.4,2.7-20.8,4-31.4l2.9,0.4c-0.6,3,1.4,6,4.4,6.6
			C126.2,692.5,126.6,692.5,127,692.5z"/>
		<path class="st1" d="M85.7,349.9c5.6,4.7-2.5,12.7-8,8c-7.9-6.6-18.5-9-28.4-6.4c-0.7-3.7-1.2-7.5-1.7-11.3
			C61.1,337.2,75.3,340.8,85.7,349.9z"/>
		<path class="st1" d="M59,210.8c4.8,0,7.3,5.2,4.3,9.3c-1.1,1.3-2.6,2-4.3,2C51.4,222.1,51.4,210.8,59,210.8z"/>
		<path class="st1" d="M49.2,351.5l-1.2,0.3c-3.8,1.1-6.4-1.6-6.9-4.6c-0.6-2.8,1.1-5.6,3.9-6.3l2.5-0.6
			C48,344,48.5,347.8,49.2,351.5z"/>
		<path class="st1" d="M47.5,340.3l-2.5,0.6c-2.8,0.7-4.5,3.5-3.9,6.3l-3.5,0.4c-1.8-15.4-1.9-31-5.5-45.9
			c-2.6-10.8-21-0.7-27.2-11.1s2.6-21,9.6-29.5c14.2-17.2,18.4-38.3,12.9-59.5l11.3-1.8c5.9,24.2,1.1,50.6-16.1,69.3
			c-5.5,5.9-13.7,15.1,3.2,15.3c4.1,0.1,7.8-0.1,9.9,1.1c5.6,3.2,7.6,13.4,8.5,21.2C45.2,316.9,46,328.5,47.5,340.3z"/>
		<path class="st1" d="M37.8,196.8l0.8,2.9l-11.3,1.8l-0.5-1.7C24.9,192.8,35.8,189.8,37.8,196.8z"/>
		<path class="st1" d="M20.6,192.4c2.6,6.4-7.1,9.4-10.4,4l0,0c-1.1-3.4,2.6-3.7,7-4.5l3-0.5L20.6,192.4z"/>
	</g>
</g>
</svg>
