<svg id="a6b08605-133d-4e60-b7a9-ff5a91bcb7dc" data-name="圖層 1" xmlns="http://www.w3.org/2000/svg" viewBox="0 0 742.9 574.3"><title>scene6-baby</title><path d="M673.6,4083.5c2.1,35.4-16.6,67.3-48.5,81.7,7.2,34.4,2.9,73.6-22.3,100.3-20.2,21.4-53.8,30.2-80.1,16.2-6.6,24.2-21.9,44.9-45.2,55.6-27.9,12.8-54.9,5.9-79.9-8.5-3,24-29.7,35.8-49.8,22.4-10.5,29.9-46.1,44.5-75.9,45.7-36.2,1.5-72.8-17.3-92.3-47.7-16.6,39-71.6,43.8-93.9,7a33.2,33.2,0,0,1-31.2,14.8H53.4c-11.5-2.8-22.9-10.9-25.7-22.9a34.2,34.2,0,0,1,.1-16.2c-15.7-.6-32.5-13-39.5-25.9-5.4-10-6.6-22.4-4.7-33.5,0.9-5.3,5.5-12.6,1.3-16.1-2.3-1.9-8.2-2.4-11.2-4-41.1-21.6-44.4-76.6-9.8-105.2-20.4-16.8-36.3-41.4-32.3-68.5,3.2-21.8,18.1-40.1,38.9-45.5-17-27.9-2.7-70.3,15.5-94,23.7-30.8,72.1-42.3,104.3-19.6a31.5,31.5,0,0,1,10.3-15.3,28.3,28.3,0,0,1,32.2-2.6c5.4-24.5,20-42,45.4-50,22.9-7.2,47.3-2.5,66.7,9.9,62.7-61.5,168.6-48,212.4,29,10.8-4,29.8-1,37.8,1.5,18.7,6,35.9,21,39.1,40.8,21.7-2,40.2,7.4,54.1,24.8,6.5,8.2,18.3,31.3,13.6,45.1C639.6,4008.2,671.4,4045.8,673.6,4083.5Zm-54.5,75.1c29.8-11.7,46.9-40.3,46.2-72-0.8-36.5-33.5-75-71.1-76.3-3.3-.1-6-4.8-3-7.2s1.7-15.3.8-19.4c-1.9-8.8-6.8-16.8-12.7-23.5-12.6-14.3-28.7-21.8-47.9-18.7-2.8.4-5.2-1.1-5.4-4.1-0.9-20.7-21.4-35.5-40.2-39.2-5.5-1.1-24.8-1.6-27.5.9s-5.3,1.7-6.7-.8c-40.7-76.1-143.8-90.1-203.3-27.5-1.7,1.8-4.2,1.4-6,0-17.4-14-40.8-17.3-61.9-10.7-24.7,7.8-36.9,25.2-40.6,49.9-0.5,3.3-5,3.9-7.1,1.9a20.4,20.4,0,0,0-27.5-.6c-2.9,2.6-9.1,10.8-6.5,15.2s-3.2,8.5-6.7,5.2c-29.1-28.5-79.4-16-101.4,15.3-15.2,21.6-29.4,62.7-9.8,85.8,2.5,2.9.7,6.8-3,7.3-22.8,2.5-38.4,23.9-38.9,46.1s15.1,43.9,32.9,57.3c2.7,2,2.8,5.3,0,7.3-18.4,13.3-28.1,36.8-22.4,59.1a55.4,55.4,0,0,0,16.1,26.6c8,7.4,15.2,8.5,24.6,12.6,14,6.1,1.4,20.7,1.1,31.9-0.4,19.9,20,48.4,43.3,41.8,5-1.4,6.9,5,3.3,7.8s-2.4,12.1-1.5,15.7c2.2,8.9,10.8,14.4,19.2,16.5,11.8,0.7,22.1-5.3,26.4-16.6,1.1-3,6.1-4.7,7.8-1,17.5,40.4,74.7,36.2,85-7.1,0.8-3.5,6.1-4.3,7.8-1,16.1,31.7,50.8,51.8,86.3,51.7,29-.1,66-14.4,72.9-45.7,0.7-3.2,4.9-4,7.1-1.9,16.9,16.5,42.6,3.8,40.8-19.5-0.2-3.2,3.8-5.3,6.4-3.7,25.3,16,52.8,25.1,81.2,10.5,21.4-11,34.2-31.2,39.1-54.3a4.3,4.3,0,0,1,6.2-2.5c25,16.8,58.7,7.3,77.3-14.8,21.5-25.5,24.1-61.7,16.8-92.7A4.4,4.4,0,0,1,619.1,4158.6Z" transform="translate(69.1 -3822.7)"/><path d="M665.3,4086.7c0.7,31.6-16.4,60.3-46.2,72a4.4,4.4,0,0,0-3,5.2c7.3,31.1,4.7,67.2-16.8,92.7-18.6,22.1-52.3,31.6-77.3,14.8a4.3,4.3,0,0,0-6.2,2.5c-4.9,23.1-17.7,43.3-39.1,54.3-28.3,14.6-55.9,5.5-81.2-10.5-2.6-1.6-6.6.5-6.4,3.7,1.8,23.3-23.9,36-40.8,19.5-2.2-2.1-6.4-1.3-7.1,1.9-6.9,31.3-43.9,45.7-72.9,45.7-35.5.1-70.2-20-86.3-51.7-1.6-3.2-6.9-2.4-7.7,1-10.3,43.2-67.5,47.5-85,7.1-1.6-3.7-6.6-2-7.7,1-4.2,11.4-14.5,17.4-26.4,16.6-8.4-2.2-17-7.7-19.2-16.5-0.9-3.5-1.7-13.3,1.5-15.7s1.7-9.2-3.3-7.7c-23.2,6.6-43.7-21.9-43.3-41.8,0.3-11.1,12.9-25.8-1.1-31.9-9.4-4.1-16.6-5.2-24.6-12.6a55.4,55.4,0,0,1-16.1-26.6c-5.7-22.3,4.1-45.8,22.4-59.1,2.8-2,2.7-5.3,0-7.3-17.8-13.3-33.4-33.9-32.9-57.3s16-43.6,38.9-46.1c3.7-.4,5.5-4.3,3-7.2-19.6-23.1-5.3-64.2,9.8-85.8,22-31.2,72.3-43.8,101.4-15.3,3.4,3.4,9.1-.9,6.7-5.2s3.6-12.6,6.5-15.2a20.4,20.4,0,0,1,27.5.6c2.1,2,6.6,1.4,7.1-1.9,3.7-24.7,15.9-42.1,40.6-49.9,21.2-6.7,44.5-3.4,61.9,10.7,1.8,1.4,4.3,1.8,6,0,59.5-62.6,162.6-48.6,203.3,27.5,1.3,2.5,4.7,2.6,6.7.8s22-2,27.5-.9c18.9,3.7,39.3,18.4,40.2,39.2,0.1,3,2.6,4.5,5.4,4.1,19.2-3.1,35.3,4.3,47.9,18.7,5.9,6.7,10.8,14.7,12.7,23.5,0.9,4.1,2.9,16.4-.8,19.4s-0.3,7.1,3,7.3C631.8,4011.6,664.5,4050.1,665.3,4086.7Z" transform="translate(69.1 -3822.7)" style="fill:#fff"/><path d="M649.7,4333.2c4.9,8.8.9,19.5-8.1,23.7l-0.9.3h-0.1c-9,3.3-20.2-1.2-23.1-10.8s2.7-16.5,10-20A16.7,16.7,0,0,1,649.7,4333.2ZM638,4349.3c10.8-5.4,2.8-21-7.6-15-3.4,2-6.3,6.2-4.7,10.3S633.4,4350.7,638,4349.3Z" transform="translate(69.1 -3822.7)"/><path d="M630.4,4334.3c10.4-6,18.3,9.5,7.6,15-4.6,1.4-10.3.3-12.3-4.7S627,4336.3,630.4,4334.3Z" transform="translate(69.1 -3822.7)" style="fill:#fff"/><path d="M604.7,4319c0.7,8.8-4.1,18.2-13.1,20.5s-17.1-2.7-18.5-11.6,2.7-19.2,12.1-21.7,17.7,2.6,19.4,11.8a0.3,0.3,0,0,1,0,.1A3.6,3.6,0,0,1,604.7,4319Zm-13,11.5c3.6-2.3,4.9-6.6,4.6-10.7s-5-7.3-10-5.3-5.8,7.6-5,11.9S587.5,4333.1,591.7,4330.5Z" transform="translate(69.1 -3822.7)"/><path d="M596.3,4319.8c0.2,4-1,8.4-4.6,10.7s-9.5,1-10.4-4.1,0.6-10.1,5-11.9S595.2,4315.1,596.3,4319.8Z" transform="translate(69.1 -3822.7)" style="fill:#fff"/><path d="M381.1,4211.5c5.4,7.7,3.9,14.1-1.4,21.5-11.9,16.4-27.6,27.9-47.1,33.1h-0.9a14.7,14.7,0,0,0,5.5-2.4l0.4-.3,0.2-.2a38.3,38.3,0,0,0,6.8-7.9A75.8,75.8,0,0,0,367,4239c4.2-4.3,15.6-15.3,10.6-22.5s-10.8-8-18.2-9.1a14.8,14.8,0,0,0,1.4-5.7C368.6,4202.9,376.1,4204.4,381.1,4211.5Z" transform="translate(69.1 -3822.7)" style="fill:#262016"/><path d="M377.5,4216.5c5.1,7.2-6.4,18.1-10.6,22.5a75.8,75.8,0,0,1-22.4,16.4,39.4,39.4,0,0,0,6.3-24.9c-0.5-5.6-4.4-8-7.5-6.4a5.1,5.1,0,0,0-6.8-1.6,3.7,3.7,0,0,0-1.4-.9,73,73,0,0,1,7.2-2.8c8.4-2.6,14.5-5.8,17.1-11.3C366.7,4208.6,372.7,4209.8,377.5,4216.5Z" transform="translate(69.1 -3822.7)" style="fill:#ffdbc2"/><path d="M375.5,4068.5c1.4,7.3-2,15.8-9.7,16.1a46.7,46.7,0,0,0,.5-5.8c3-.4,3.8-4.9,3.6-7.4a10.2,10.2,0,0,0-.5-3.2c-0.6-1.6-2.8-2.2-3.4-.2l-0.3.6a62.5,62.5,0,0,0-1.4-7.2,6.2,6.2,0,0,1,4.6-.6C372.8,4061.8,374.8,4064.7,375.5,4068.5Z" transform="translate(69.1 -3822.7)" style="fill:#262016"/><path d="M370,4071.4c0.2,2.5-.6,6.9-3.6,7.4a54.9,54.9,0,0,0-.5-10.2l0.3-.6c0.6-1.9,2.7-1.4,3.4.2A10.2,10.2,0,0,1,370,4071.4Z" transform="translate(69.1 -3822.7)" style="fill:#ffdbc2"/><path d="M365.8,4068.6a54.9,54.9,0,0,1,.5,10.2h-1c-3.7-.5-5.3,5.1-1.6,5.7h2.1a43.5,43.5,0,0,1-1.1,5.2c-6.2,21.9-21.9,34.9-41.1,40.4a4.4,4.4,0,0,1-.4-1.2,2.4,2.4,0,0,0-3.3-2l-0.4-1.8c18.7-4.5,35.1-16,39.5-37a62.9,62.9,0,0,0,.8-20.4h0.5C360.5,4070.2,364.5,4071.1,365.8,4068.6Z" transform="translate(69.1 -3822.7)" style="fill:#262016"/><path d="M365.3,4078.8h1a46.7,46.7,0,0,1-.5,5.8h-2.1C360,4083.9,361.6,4078.2,365.3,4078.8Z" transform="translate(69.1 -3822.7)" style="fill:#262016"/><path d="M364.4,4061.5a62.5,62.5,0,0,1,1.4,7.2c-1.3,2.5-5.3,1.6-5.6-.9a3,3,0,0,1,.1-1.2A8.7,8.7,0,0,1,364.4,4061.5Z" transform="translate(69.1 -3822.7)" style="fill:#262016"/><path d="M361.4,4163.7c1.2,5.3,1.7,11.2-.9,16v-0.8c-0.4-3.1-4.4-3.6-5.6-1.7l-0.4-.2c2.4-4.2,2.5-9.2.4-14.4-4.4-10.8-13.4-20.8-25.2-22.9-5.4-1-10.5-2.7-11.9-8.1l5.8-1.4c2,4.5,10.8,3.8,14.2,5.6a46.1,46.1,0,0,1,11,7.6C354.4,4148.9,359.6,4155.9,361.4,4163.7Z" transform="translate(69.1 -3822.7)" style="fill:#262016"/><path d="M359.5,4192.6a28.2,28.2,0,0,1,1.2,9.1l-1.4-.2c-3.7-.6-5.3,5.1-1.6,5.7l1.5,0.2c-2.6,5.5-8.7,8.7-17.1,11.3a73,73,0,0,0-7.2,2.8,5.6,5.6,0,0,0-2.1-.4,6.6,6.6,0,0,0-4,1.1,3.8,3.8,0,0,0-2.8-.9c-3.2.1-5.2,1.4-6.4,3.4a7.1,7.1,0,0,0-5,0v-0.3c5.7-2.1,11.3-5.7,16.4-7.9,10.1-4.3,25.4-4.7,23.5-18.9a13.7,13.7,0,0,0,4.8-5.3v0.3Z" transform="translate(69.1 -3822.7)" style="fill:#262016"/><path d="M359.4,4201.5l1.4,0.2a14.8,14.8,0,0,1-1.4,5.7l-1.5-.2C354.1,4206.6,355.7,4200.9,359.4,4201.5Z" transform="translate(69.1 -3822.7)" style="fill:#262016"/><path d="M360.5,4179.7c0.6,5.4.4,9.4-1.1,12.5-1.3-3.2-6.5-1.6-5.5,1.9a22.7,22.7,0,0,1,.7,3.4,34.9,34.9,0,0,1-6,3.2,87.4,87.4,0,0,1-34.3,7.5,208.7,208.7,0,0,1-41.1-3.7c-7.1-1.3-18.4-2-25.2-6.6a9.2,9.2,0,0,1,.4-2,32.5,32.5,0,0,0,11.8,2.8c2.6,0.1,5.9-.7,9.1-1l9.2,1.7h0.7l1.9,0.3a187.6,187.6,0,0,0,29.6,2.5,116.5,116.5,0,0,0,17.5-1.4,15.6,15.6,0,0,0,10.4-2.6l1.7-.6c4.1-1.6,14.8-4.9,14.8-11,0-.5,0-0.9,0-1.4l2.2-1.7A13.4,13.4,0,0,0,360.5,4179.7Z" transform="translate(69.1 -3822.7)" style="fill:#262016"/><path d="M364.4,4061.5a8.7,8.7,0,0,0-4,5,3,3,0,0,0-.1,1.2h-0.5c-1.2-9.1-4.4-18-10.3-24.4s-16.2-12.9-26.1-16.4a17.4,17.4,0,0,0-.1-1.8,13.9,13.9,0,0,0-1.4-4.9c13.5,4.2,28.4,11.4,35.6,24.2A69.5,69.5,0,0,1,364.4,4061.5Z" transform="translate(69.1 -3822.7)" style="fill:#262016"/><path d="M360.4,4178.9v0.8a13.4,13.4,0,0,1-3.3,4.1l-2.2,1.7c0-2.2-.2-4.4-0.5-6.6a2.6,2.6,0,0,1,.3-1.7C356.1,4175.3,360.1,4175.9,360.4,4178.9Z" transform="translate(69.1 -3822.7)" style="fill:#262016"/><path d="M359.8,4067.8a62.9,62.9,0,0,1-.8,20.4c-4.4,21-20.8,32.5-39.5,37a87.7,87.7,0,0,1-27.7,1.9,70.1,70.1,0,0,1-7.5-1.1h-0.7a63.3,63.3,0,0,1-29.8-14.7c-11.4-10.3-14-24.6-14.2-39.2a44.7,44.7,0,0,1,.3-5.4,52.1,52.1,0,0,1,12.8-28.3c9.2-10.4,22.6-14,35.8-15.2-3.6,4.6-7.3,9-13.6,9.7a3.1,3.1,0,0,0-2.5,1.9h0a2.8,2.8,0,0,0,.1,2.7h0a2.2,2.2,0,0,0,1.1,1h0c5.7,3.1,10.1,7,16.5,9.2s11.7,1.2,17.1-.6c8.7-2.8,16.3-10.9,16.3-20.2,9.9,3.5,18.9,8.5,26.1,16.4S358.6,4058.6,359.8,4067.8Zm-41.8-.4a2.8,2.8,0,1,0-2.8,2.8A2.8,2.8,0,0,0,318,4067.3Zm-15.3,54.9c8.2-1.6,12.6-9.7,11.7-17.6s-9.9-13.6-18.3-12.8-14.8,10.1-13.1,18.9,10.9,12.3,18.9,11.6h0.8Zm0.7-38.3c3.2-2,.3-7.1-3-5.1-1.1.7-3,2.1-4.4,1.4h-0.1c0.1,0.1.1-.2,0.2-0.5a23.8,23.8,0,0,1,1.8-3c2.1-3.2-3-6.1-5.1-3s-4.1,7.2-1,10.6S300,4086,303.4,4084Zm-20.7-16.6a2.8,2.8,0,1,0-2.8,2.8A2.8,2.8,0,0,0,282.6,4067.3Z" transform="translate(69.1 -3822.7)" style="fill:#ffdbc2"/><path d="M353.9,4194.2c-1-3.5,4.3-5.1,5.5-1.9a13.7,13.7,0,0,1-4.8,5.3A22.7,22.7,0,0,0,353.9,4194.2Z" transform="translate(69.1 -3822.7)" style="fill:#262016"/><path d="M354.9,4162.6c2.1,5.3,2,10.2-.4,14.4a17.5,17.5,0,0,1-5.5,5.7c-2.9,1.9-7.1,2.7-9.6,5-4.1,3.9-3.6,8.9-11.6,7.5-11.7-2-8.7-19.9,3.2-14.2a3,3,0,0,0,3.6-.5c3.4-3.3,6.4-4.4,10.9-5.4s2.1-6.5-1.6-5.7a38.3,38.3,0,0,0-4.5,1.3l-0.2-.3c-5-4.7-9.9-9.3-9.9-16.6,0-3.8-5.9-3.8-5.9,0,0,8.5,4.8,14.2,10.5,19.7l-1.9,1.5c-10.6-3.8-18.9,2.9-17.2,14.7,1,6.8,7.1,10.8,13.5,11.4a116.5,116.5,0,0,1-17.5,1.4,187.6,187.6,0,0,1-29.6-2.5,19.3,19.3,0,0,0,7.2-.8c6-1.7,9.5-7.3,8-13.3s-4.9-11.1-11.2-13.5-10.5.5-13.7,4.3a23.3,23.3,0,0,0-6-2.2c2.9-4.2,3.9-9,4.7-14.3,0.5-3.7-5.1-5.3-5.7-1.5s-1.4,10.1-5.1,14.1a3.1,3.1,0,0,0-.6.9,19.6,19.6,0,0,0-3.6.3c-3.7.7-2.1,6.4,1.6,5.7,0.8-.1,12,1.2,13.1,2.8a3,3,0,0,0,5.4-.7,8.6,8.6,0,0,1,.7-1.5c5-8.9,22,6.2,12.4,12.6-6.7,4.4-11.2-1.9-17.6-.9s-15.5,1.8-22.2-2.1a19.9,19.9,0,0,1-3.1-2.2c-7.6-6.4-3.4-17.5.2-24.5,5.9-11.5,13.3-19.6,26.3-22.5,7.3-1.6,12.4-1.7,13.9-8.5l2.9,0.4a91.9,91.9,0,0,0,29.2-1c1.4,5.4,6.5,7.1,11.9,8.1C341.5,4141.8,350.5,4151.8,354.9,4162.6Z" transform="translate(69.1 -3822.7)" style="fill:#ffdbc2"/><path d="M355.1,4186.9c0,6.1-10.6,9.4-14.8,11l-1.7.6a11.9,11.9,0,0,0,2.5-2.4c1.8-2.3,2.8-3.8,5.4-5.3a70.3,70.3,0,0,0,8.6-5.4C355.1,4185.9,355.1,4186.4,355.1,4186.9Z" transform="translate(69.1 -3822.7)" style="fill:#ffdbc2"/><path d="M354.4,4177l0.4,0.3a2.6,2.6,0,0,0-.3,1.7c0.3,2.2.4,4.4,0.5,6.6a70.3,70.3,0,0,1-8.6,5.4c-2.6,1.4-3.5,3-5.4,5.3a11.9,11.9,0,0,1-2.5,2.4,64.1,64.1,0,0,1-10.4,2.6c-6.4-.6-12.5-4.6-13.5-11.4-1.7-11.8,6.6-18.5,17.2-14.7l-1.5,1.3,3.6-.5-2.1-.9,1.9-1.5,1.1,1.1c2.7,2.5,6.6-1.3,4.4-3.9a38.3,38.3,0,0,1,4.5-1.3c3.7-.8,5.3,4.8,1.6,5.7s-7.5,2.1-10.9,5.4a3,3,0,0,1-3.6.5c-11.9-5.7-14.9,12.2-3.2,14.2,8,1.4,7.4-3.6,11.6-7.5,2.5-2.3,6.7-3.1,9.6-5A17.5,17.5,0,0,0,354.4,4177Z" transform="translate(69.1 -3822.7)" style="fill:#262016"/><path d="M354.6,4197.6c1.9,14.2-13.4,14.6-23.5,18.9-5.1,2.2-10.7,5.8-16.4,7.9a21.7,21.7,0,0,1-10.9,1.5c-3.1-.5-7.1-3.6-10.2-4.7a128.2,128.2,0,0,0-14.4-4.3c-7.1-1.7-24.5-5.5-29.7-13.3a8.3,8.3,0,0,1-1.5-5.5c6.8,4.7,18.1,5.3,25.2,6.6a208.7,208.7,0,0,0,41.1,3.7,87.4,87.4,0,0,0,34.3-7.5A34.9,34.9,0,0,0,354.6,4197.6Z" transform="translate(69.1 -3822.7)" style="fill:#dddddb"/><path d="M350.8,4230.5a39.4,39.4,0,0,1-6.3,24.9,72.8,72.8,0,0,1-7.6,3.1,2.5,2.5,0,0,0-2.8.1l-0.3.2a31.7,31.7,0,0,0,9.6-14.3,33.1,33.1,0,0,0,1.7-9.9c0-.8.3-7.7-0.6-4.7h-0.1a8.8,8.8,0,0,0-1.2-5.9C346.4,4222.5,350.4,4224.9,350.8,4230.5Z" transform="translate(69.1 -3822.7)" style="fill:#262016"/><path d="M344.5,4230c0.9-3,.6,3.9.6,4.7a33.1,33.1,0,0,1-1.7,9.9,31.7,31.7,0,0,1-9.6,14.3c-6.8,4.3-11.6-3.1-13.9-8.6-1.2-2.8-2-5.9-2.9-8.9a24.1,24.1,0,0,1-.8-3.9V4237a25.2,25.2,0,0,1-.4-4.2,4,4,0,0,1,.7-2.6c0.6-.6,1.2.2,1.5,0.8v0.3l0.3,0.6c0.7,3.4,5.7,2.4,5.8-.8,0-.3,0-0.5,0-0.7,0.2-4.5,2.4-3.4,2.3.7s5.2,3.5,5-.4,1.5-5.3,1.4-1.3h0c0,0.2,0,.4,0,0.6,0.1,3.8,5.1,3.4,5.2-.5v-0.2h0c0-.4.8-6.5,1.4,0.1-0.3,3.3,4.1,4.3,4.9,1.1Z" transform="translate(69.1 -3822.7)" style="fill:#ffdbc2"/><path d="M344.5,4229.9h0.1l-0.2.6c-0.8,3.2-5.3,2.3-4.9-1.1-0.6-6.6-1.4-.4-1.4-0.1,0-2.4,0-5.3-1.5-7a5.1,5.1,0,0,1,6.8,1.6c-1.5.7-2.8,2.4-3.5,5Z" transform="translate(69.1 -3822.7)" style="fill:#262016"/><path d="M343.3,4224.1a8.8,8.8,0,0,1,1.2,5.9l-4.6-.9C340.5,4226.4,341.8,4224.8,343.3,4224.1Z" transform="translate(69.1 -3822.7)" style="fill:#262016"/><path d="M339.4,4170.7c2.2,2.6-1.7,6.4-4.4,3.9l-1.1-1.1A23,23,0,0,1,339.4,4170.7Z" transform="translate(69.1 -3822.7)" style="fill:#262016"/><path d="M339.1,4170.5l0.3,0.3a23,23,0,0,0-5.6,2.8c-5.7-5.5-10.5-11.2-10.5-19.7,0-3.8,5.9-3.8,5.9,0C329.2,4161.2,334.2,4165.8,339.1,4170.5Z" transform="translate(69.1 -3822.7)" style="fill:#262016"/><path d="M344.6,4255.4a38.3,38.3,0,0,1-6.8,7.9l-0.2.2a3.2,3.2,0,0,0-.5-4.9A72.8,72.8,0,0,0,344.6,4255.4Z" transform="translate(69.1 -3822.7)" style="fill:#262016"/><path d="M336.5,4222.4c1.5,1.6,1.6,4.5,1.5,7h-5.2C332.9,4225.9,334.5,4223.5,336.5,4222.4Z" transform="translate(69.1 -3822.7)" style="fill:#262016"/><path d="M338,4229.4v0.2c-0.1,3.8-5.1,4.2-5.2.5,0-.2,0-0.4,0-0.6H338Z" transform="translate(69.1 -3822.7)" style="fill:#262016"/><path d="M337,4258.5a3.2,3.2,0,0,1,.5,4.9c-2.6,1.9-6-1.2-4.5-3.6Z" transform="translate(69.1 -3822.7)" style="fill:#262016"/><path d="M337.5,4263.5l-0.4.3a14.7,14.7,0,0,1-5.5,2.4c-3-.1-4-4.9-0.7-5.8l2-.6C331.5,4262.2,334.9,4265.3,337.5,4263.5Z" transform="translate(69.1 -3822.7)" style="fill:#262016"/><path d="M334.2,4258.6a2.5,2.5,0,0,1,2.8-.1l-4,1.3,0.6-.7,0.3-.2Z" transform="translate(69.1 -3822.7)" style="fill:#262016"/><path d="M335.1,4221.5a3.7,3.7,0,0,1,1.4.9c-2,1.1-3.6,3.4-3.7,7,0.1-4-1.6-1.6-1.4,1.3s-4.6,4.1-5,.4-2.1-5.1-2.3-.7H324a9.2,9.2,0,0,0-1.3-3.2l4.5-2a22.7,22.7,0,0,0-.4,6.3h4.1c-0.2-2.3,0-5.5-.8-7.6Z" transform="translate(69.1 -3822.7)" style="fill:#262016"/><path d="M334,4175.9l-3.6.5,1.5-1.3Z" transform="translate(69.1 -3822.7)" style="fill:#262016"/><path d="M333.8,4258.9l-0.3.2-0.6.7-2,.6c-3.3.9-2.3,5.7,0.7,5.8-11,2.1-17.8-13.7-20.3-23.2a47,47,0,0,1-1.3-6.8,8.1,8.1,0,0,1,1.2,2.2c1,2.9,5.3,1.8,4.9-.9h0.1a24.1,24.1,0,0,0,.8,3.9c0.9,2.9,1.7,6,2.9,8.9C322.2,4255.8,327,4263.1,333.8,4258.9Z" transform="translate(69.1 -3822.7)" style="fill:#262016"/><path d="M333,4221.1a5.6,5.6,0,0,1,2.1.4l-5.1,2.3a4.1,4.1,0,0,0-1.1-1.6A6.6,6.6,0,0,1,333,4221.1Z" transform="translate(69.1 -3822.7)" style="fill:#262016"/><path d="M330.9,4231.4h-4.1a22.7,22.7,0,0,1,.4-6.3l2.9-1.3C330.9,4226,330.7,4229.1,330.9,4231.4Z" transform="translate(69.1 -3822.7)" style="fill:#262016"/><path d="M338.6,4198.5a15.6,15.6,0,0,1-10.4,2.6A64.1,64.1,0,0,0,338.6,4198.5Z" transform="translate(69.1 -3822.7)" style="fill:#262016"/><path d="M329,4222.2a4.1,4.1,0,0,1,1.1,1.6l-2.9,1.3A5,5,0,0,1,329,4222.2Z" transform="translate(69.1 -3822.7)" style="fill:#262016"/><path d="M329,4222.2a5,5,0,0,0-1.8,2.9l-4.5,2a6.3,6.3,0,0,0-2.9-2.5c1.2-2,3.2-3.2,6.4-3.4A3.8,3.8,0,0,1,329,4222.2Z" transform="translate(69.1 -3822.7)" style="fill:#262016"/><path d="M324,4230.4h0.1c0,0.2,0,.5,0,0.7-0.1,3.2-5.1,4.1-5.8.8l-0.3-.6h0.2Z" transform="translate(69.1 -3822.7)" style="fill:#262016"/><path d="M323.3,4025.2a17.4,17.4,0,0,1,.1,1.8l-4.6-1.5a2.7,2.7,0,0,1-1.9-1.7c-0.7-2,.8-4.7,3.4-4l1.5,0.5A13.9,13.9,0,0,1,323.3,4025.2Z" transform="translate(69.1 -3822.7)" style="fill:#262016"/><path d="M323.2,4129a4.4,4.4,0,0,0,.4,1.2l-5.8,1.4-0.2-1a3.2,3.2,0,0,1,2.4-3.6A2.4,2.4,0,0,1,323.2,4129Z" transform="translate(69.1 -3822.7)" style="fill:#262016"/><path d="M322.7,4227.2a9.2,9.2,0,0,1,1.3,3.2l-5.8.8a18.6,18.6,0,0,1,.2-2.3Z" transform="translate(69.1 -3822.7)" style="fill:#262016"/><path d="M321.9,4020.3l-1.5-.5c-2.6-.8-4.2,2-3.4,4h-0.3c-1.9-4.8-7-8.2-12.8-6.1a18.8,18.8,0,0,0-6.2,3.8l-1.1-.2c1.2-1.8.4-4.8-2.3-4.6h-0.4a17,17,0,0,1,8.5-4.7C309.7,4010.6,318.5,4013.5,321.9,4020.3Z" transform="translate(69.1 -3822.7)" style="fill:#262016"/><path d="M318.8,4025.5l4.6,1.5c0,9.3-7.6,17.4-16.3,20.2-5.4,1.8-11.6,2.5-17.1.6s-10.9-6.1-16.5-9.2a2.7,2.7,0,0,0,1.4.2,26.3,26.3,0,0,0,7.9-1.9c6.2,4,12.1,8.2,20.6,5.4,5.1-1.6,10.8-4.9,13.2-10a10.6,10.6,0,0,0,.2-8.3h0.3A2.7,2.7,0,0,0,318.8,4025.5Z" transform="translate(69.1 -3822.7)" style="fill:#262016"/><path d="M319.8,4224.7a6.3,6.3,0,0,1,2.9,2.5l-4.3,1.8A10.5,10.5,0,0,1,319.8,4224.7Z" transform="translate(69.1 -3822.7)" style="fill:#262016"/><path d="M319.5,4125.1l0.4,1.8a3.2,3.2,0,0,0-2.4,3.6l0.2,1a91.9,91.9,0,0,1-29.2,1l-2.9-.4a19.6,19.6,0,0,0,.4-3.5,2.6,2.6,0,0,0-1.8-2.7,70.1,70.1,0,0,0,7.5,1.1A87.7,87.7,0,0,0,319.5,4125.1Z" transform="translate(69.1 -3822.7)" style="fill:#262016"/><path d="M319.8,4224.7a10.5,10.5,0,0,0-1.4,4.2,57.4,57.4,0,0,1-6.4,2.1l-1.6-1.4a6.1,6.1,0,0,1,2.8-4.1l1.6-.7A7.1,7.1,0,0,1,319.8,4224.7Z" transform="translate(69.1 -3822.7)" style="fill:#262016"/><path d="M318.4,4228.9a18.6,18.6,0,0,0-.2,2.3H318V4231c-0.3-.6-0.9-1.4-1.5-0.8a4,4,0,0,0-.7,2.6,25.2,25.2,0,0,0,.4,4.2v0.5h-0.1v-0.4a15,15,0,0,0-4-6.1A57.4,57.4,0,0,0,318.4,4228.9Z" transform="translate(69.1 -3822.7)" style="fill:#262016"/><path d="M315.1,4064.5a2.8,2.8,0,1,1-2.8,2.8A2.8,2.8,0,0,1,315.1,4064.5Z" transform="translate(69.1 -3822.7)" style="fill:#262016"/><path d="M316.6,4023.9a10.6,10.6,0,0,1-.2,8.3c-2.4,5.1-8.1,8.4-13.2,10-8.5,2.8-14.3-1.5-20.6-5.4a17.5,17.5,0,0,0,5.2-3.6c3.9-3.8,6.1-8.2,9.8-11.6a18.8,18.8,0,0,1,6.2-3.8C309.6,4015.7,314.7,4019.1,316.6,4023.9Z" transform="translate(69.1 -3822.7)" style="fill:#604939"/><path d="M316.1,4237.5c0.5,2.7-3.9,3.7-4.9.9a8.1,8.1,0,0,0-1.2-2.2,23.2,23.2,0,0,1-.1-4.7l2-.4a15,15,0,0,1,4,6.1v0.4Z" transform="translate(69.1 -3822.7)" style="fill:#262016"/><path d="M314.7,4224.4v0.3l-1.6.7a6.1,6.1,0,0,0-2.8,4.1l-2.4-1.8a2.4,2.4,0,0,0-3.3.8,2.3,2.3,0,0,0-3.4-1.1l-3.9,2.4-3.9-1.7a5.3,5.3,0,0,0-3.6-2.8,4.5,4.5,0,0,0-2.2.2l-0.4-.2a5,5,0,0,0-2.7-1.5h-1.4l-2.2-.6a187.4,187.4,0,0,1-27.3-8.8,22,22,0,0,1-7.7-5.1,17.3,17.3,0,0,0,2.9-1.9,2.8,2.8,0,0,0,.4-3.6l0.4-.3c5.3,7.8,22.6,11.5,29.7,13.3a128.2,128.2,0,0,1,14.4,4.3c3.1,1.1,7.1,4.3,10.2,4.8A21.7,21.7,0,0,0,314.7,4224.4Z" transform="translate(69.1 -3822.7)" style="fill:#262016"/><path d="M314.3,4104.7c0.9,7.8-3.4,16-11.7,17.6h-0.4c3.4-.6,3.3-6.2-0.4-5.8h-0.5a9.7,9.7,0,0,0,6.8-12.4c-1.6-4.9-7.8-7.7-12.8-6.2s-9.4,9-5.5,14.6c2.7,3.9,7,4.4,11.4,4.1h-0.3c-3.6.7-2.3,5.9,1.1,5.7h-0.3c-8.1.7-17.2-2.6-18.9-11.6s3.6-18.1,13.1-18.9S313.3,4095.6,314.3,4104.7Z" transform="translate(69.1 -3822.7)"/><path d="M311.9,4231l-2,.4a13.8,13.8,0,0,1,.3-1.9Z" transform="translate(69.1 -3822.7)" style="fill:#262016"/><path d="M310.3,4229.6a13.8,13.8,0,0,0-.3,1.9,23.4,23.4,0,0,1-4.7.5,3,3,0,0,1-.9-1.1,2.3,2.3,0,0,0,.2-2.3,2.4,2.4,0,0,1,3.3-.8Z" transform="translate(69.1 -3822.7)" style="fill:#262016"/><path d="M310,4231.4a23.2,23.2,0,0,0,.1,4.7,20.6,20.6,0,0,0-4.6-4.1h-0.1A23.4,23.4,0,0,0,310,4231.4Z" transform="translate(69.1 -3822.7)" style="fill:#262016"/><path d="M308.3,4104.1a9.7,9.7,0,0,1-6.8,12.4c-4.4.3-8.7-.2-11.4-4.1-3.9-5.5-.6-12.8,5.5-14.6S306.6,4099.2,308.3,4104.1Zm-3.1,1.9a1.5,1.5,0,0,0-.1-0.5l-0.2-.5s0,0,0,0c-2-4.9-10.3-5.2-12.3-.1-1.3,3.3,1.1,6.6,4.3,7.4S305.5,4110.4,305.1,4106Z" transform="translate(69.1 -3822.7)" style="fill:#84998f"/><path d="M305.3,4231.9h-0.8l-1.1-.2,0.4-.2,0.7-.6A3,3,0,0,0,305.3,4231.9Z" transform="translate(69.1 -3822.7)" style="fill:#262016"/><path d="M305.1,4105.5a1.5,1.5,0,0,1,.1.5v-0.5Z" transform="translate(69.1 -3822.7)"/><path d="M305.1,4106c0.4,4.4-4,7.3-8.2,6.3s-5.6-4.1-4.3-7.4c2-5.1,10.3-4.8,12.3.1-0.7-1.2-3-.4-2.7,1.3-0.7-2.4-4.5-2.8-6.2-1.2a2.5,2.5,0,0,0,0,3.7c2,1.6,6.7.6,6.2-2.5A1.5,1.5,0,0,0,305.1,4106Z" transform="translate(69.1 -3822.7)"/><path d="M305.1,4105.5v0.5a1.5,1.5,0,0,1-2.9.3c-0.3-1.7,2-2.5,2.7-1.3s0,0,0,0Z" transform="translate(69.1 -3822.7)"/><path d="M305.1,4105.5l-0.2-.5Z" transform="translate(69.1 -3822.7)"/><path d="M304.6,4228.5a2.3,2.3,0,0,1-.2,2.3,2.3,2.3,0,0,1,.1-2.2h0.1Z" transform="translate(69.1 -3822.7)" style="fill:#262016"/><path d="M304.6,4228.5h-0.1a2.3,2.3,0,0,0-.1,2.2l-0.7.6-0.4.2a36,36,0,0,1-6.1-1.8l3.9-2.4A2.3,2.3,0,0,1,304.6,4228.5Z" transform="translate(69.1 -3822.7)" style="fill:#262016"/><path d="M295.9,4080.1H296c1.4,0.7,3.2-.7,4.4-1.4,3.3-2,6.2,3.1,3,5.1s-8.4,3.9-11.6.4-1.2-7.3,1-10.6,7.2-.2,5.1,3a23.8,23.8,0,0,0-1.7,3C296,4079.9,296,4080.3,295.9,4080.1Z" transform="translate(69.1 -3822.7)" style="fill:#262016"/><path d="M301.9,4116.4c3.7-.3,3.8,5.2.4,5.8h0c-3.4.2-4.7-5.1-1.1-5.7h0.8Z" transform="translate(69.1 -3822.7)"/><path d="M302.2,4106.2c0.6,3.2-4.2,4.1-6.2,2.5a2.5,2.5,0,0,1,0-3.7C297.7,4103.4,301.5,4103.8,302.2,4106.2Z" transform="translate(69.1 -3822.7)" style="fill:#a6bcb1"/><path d="M303.3,4231.7c-2.2,1.3-4.8,2.6-6.6,4.4s-1.7,3.5-2.3,5.2a44.1,44.1,0,0,0,.1-8c0-.5-0.1-1-0.1-1.5l2.9-2A36,36,0,0,0,303.3,4231.7Z" transform="translate(69.1 -3822.7)" style="fill:#262016"/><path d="M296.5,4021.4l1.1,0.2c-3.7,3.4-5.9,7.7-9.8,11.6a17.5,17.5,0,0,1-5.2,3.6,47.8,47.8,0,0,0-6.4-3.6,3,3,0,0,0-4,1.5,3.1,3.1,0,0,1,2.5-1.9c6.3-.7,9.9-5.1,13.6-9.7l5.8-.4A2.8,2.8,0,0,0,296.5,4021.4Z" transform="translate(69.1 -3822.7)" style="fill:#262016"/><path d="M294.2,4016.8c2.7-.1,3.5,2.9,2.3,4.6a2.8,2.8,0,0,1-2.3,1.3l-5.8.4a57.1,57.1,0,0,1,5.4-6.3h0.4Z" transform="translate(69.1 -3822.7)" style="fill:#262016"/><path d="M296.3,4185.8c1.5,6.1-2,11.7-8,13.3a19.3,19.3,0,0,1-7.2.8l-1.9-.3a22.7,22.7,0,0,1-4.2-1.3,12,12,0,0,0-5.6-.5l-5.5-1.2c-3.9-.9-12.1-1.7-14.6-5.4a3,3,0,0,0-1.1-1l0.2-.3c6.7,3.9,14.4,3.3,22.2,2.1s10.9,5.3,17.6.9c9.6-6.3-7.4-21.4-12.4-12.6l-0.9-.7a9.5,9.5,0,0,0-3.4-2.8c3.2-3.9,8.9-6.2,13.7-4.3S294.7,4179.3,296.3,4185.8Z" transform="translate(69.1 -3822.7)" style="fill:#262016"/><path d="M297.3,4229.8l-2.9,2a10.4,10.4,0,0,0-.9-3.4l-0.2-.3Z" transform="translate(69.1 -3822.7)" style="fill:#ffdbc2"/><path d="M294.6,4233.3a44.1,44.1,0,0,1-.1,8l-0.4.8c-1.2,2.4-4.8.8-4.6-1.6a2.5,2.5,0,0,1,.3-0.8c1.2-2.3,1.4-5.2,3.5-7l1.2-.9C294.5,4232.3,294.5,4232.8,294.6,4233.3Z" transform="translate(69.1 -3822.7)" style="fill:#262016"/><path d="M294.1,4242.1l0.4-.8a39.1,39.1,0,0,1-9.6,22.1,10.1,10.1,0,0,1-2.2,1.9c2.2-2.3-.6-6.6-3.5-4.6l-0.5.3a20.3,20.3,0,0,1,1.8-1.8,26.7,26.7,0,0,0,7.2-13.1c0.4-1.9.8-3.7,1.1-5.7h0.7C289.2,4242.9,292.8,4244.5,294.1,4242.1Z" transform="translate(69.1 -3822.7)" style="fill:#262016"/><path d="M294.4,4231.8l-1.2.9c-2.1,1.8-2.3,4.7-3.5,7a2.5,2.5,0,0,0-.2.8h-0.7l0.3-2.3a28.6,28.6,0,0,0,.3-5.7c0-.4-0.1-1.3-0.6-1.4s-1.4,1.4-1.9,1.9a2.1,2.1,0,0,1-1.6.8c-1.3,0-1.4-3-1.9-3.7s-1.5.6-2,1.6c-0.7,3.5-3.4,3.5-3.8.9v-1h0.2c1.9-.3,1.8-1,3.7-1.3-0.3-2-.1-4.2-0.7-5.7a5.4,5.4,0,0,1,2.3-.8l4.1,1.5,0.2,0.3-1.4.8a8.3,8.3,0,0,0-2.4,3.2,51.1,51.1,0,0,0,5.5.7c0.3-.7-0.2-1.4-0.4-2.1a7.1,7.1,0,0,0-1-2.2l-0.3-.4h0.2l5.8,2.6,0.2,0.3A10.4,10.4,0,0,1,294.4,4231.8Z" transform="translate(69.1 -3822.7)" style="fill:#262016"/><path d="M293.3,4228.1l-5.8-2.6a4.5,4.5,0,0,1,2.2-.2A5.3,5.3,0,0,1,293.3,4228.1Z" transform="translate(69.1 -3822.7)" style="fill:#262016"/><path d="M289.4,4232.4a28.6,28.6,0,0,1-.3,5.7l-0.3,2.3c-0.3,1.9-.6,3.8-1.1,5.7a26.7,26.7,0,0,1-7.2,13.1,20.3,20.3,0,0,0-1.8,1.8c-3.1,1.8-5.6,1-7.7-.9s-3.9-5.1-5.3-7.4a38.7,38.7,0,0,1-3.9-8.5c-0.6-2-1.2-5.7-1.5-7.8s0.9-7.8,3.1-2.9c1.4,3.1,4.9,2.7,5-.5a5.8,5.8,0,0,1,0-.6c0.1-3.5,2.4-2.6,2.4-.1a3.7,3.7,0,0,1-.1.8c-0.2,3.1,4,2.6,4.4-.4h0v-1c0.3-2.4,1.6-4.2,2.4,0v1c0.3,2.6,3.1,2.6,3.8-.9,0.5-1.1,1-2.7,2-1.6s0.6,3.7,1.9,3.7a2.1,2.1,0,0,0,1.6-.8c0.5-.6.9-2.1,1.9-1.9S289.4,4231.9,289.4,4232.4Z" transform="translate(69.1 -3822.7)" style="fill:#ffdbc2"/><path d="M288.6,4228.2c0.2,0.7.7,1.4,0.4,2.1a51.1,51.1,0,0,1-5.5-.7,8.3,8.3,0,0,1,2.4-3.2l1.4-.8,0.3,0.4A7.1,7.1,0,0,1,288.6,4228.2Z" transform="translate(69.1 -3822.7)" style="fill:#262016"/><path d="M293.8,4016.8a57.1,57.1,0,0,0-5.4,6.3c-13.3,1.2-26.7,4.8-35.8,15.2a52.1,52.1,0,0,0-12.8,28.3l-1.3-.2a2.4,2.4,0,0,0-1.5-2.5l-2.5-.9c2-11.5,7.1-23,15.8-30.7C262.6,4021.1,277.6,4017.6,293.8,4016.8Z" transform="translate(69.1 -3822.7)" style="fill:#262016"/><path d="M284.3,4126a2.6,2.6,0,0,1,1.8,2.7,19.6,19.6,0,0,1-.4,3.5l-6.2-1.3a4.2,4.2,0,0,0,.7-2.2,3,3,0,0,1,3.3-2.8h0.7Z" transform="translate(69.1 -3822.7)" style="fill:#262016"/><path d="M284.4,4223.9a5,5,0,0,1,2.7,1.5l-4.1-1.5h1.4Z" transform="translate(69.1 -3822.7)" style="fill:#262016"/><path d="M284.3,4126h0Z" transform="translate(69.1 -3822.7)" style="fill:#262016"/><path d="M283.5,4125.9a3,3,0,0,0-3.3,2.8,4.2,4.2,0,0,1-.7,2.2c-23.1-5.7-40.3-21.9-44.8-44.3l0.8-.3c3.5-1.4,2-7.1-1.6-5.7h-0.2a64,64,0,0,1-.1-11.8H234a3.1,3.1,0,0,0,4.5-2.6l1.3,0.2a44.7,44.7,0,0,0-.2,5.4c0.3,14.7,2.8,28.9,14.3,39.2A63.3,63.3,0,0,0,283.5,4125.9Z" transform="translate(69.1 -3822.7)" style="fill:#262016"/><path d="M279.2,4260.6c2.9-2,5.7,2.3,3.5,4.6l-1.2.5a3,3,0,0,1-3.6-1.4,3.2,3.2,0,0,1,.4-3l0.4-.5Z" transform="translate(69.1 -3822.7)" style="fill:#262016"/><path d="M282.7,4036.8a26.3,26.3,0,0,1-7.9,1.9,2.7,2.7,0,0,1-1.4-.2h0a2.9,2.9,0,0,1-1.1-1h0a3.3,3.3,0,0,1-.1-2.7h0a3,3,0,0,1,4-1.5A47.8,47.8,0,0,1,282.7,4036.8Z" transform="translate(69.1 -3822.7)" style="fill:#262016"/><path d="M282.7,4265.2l-0.5.5c-5.2,3.6-10.2,2.5-14.4-.8,3.1,1.9,5.9-2.7,3.3-4.9h0c2.1,1.9,4.6,2.7,7.7.9l-0.4.5a3.2,3.2,0,0,0-.4,3,3,3,0,0,0,3.6,1.4Z" transform="translate(69.1 -3822.7)" style="fill:#262016"/><path d="M285.7,4132.2c-1.5,6.7-6.6,6.8-13.9,8.5-12.9,2.9-20.4,11-26.3,22.5-3.6,7.1-7.8,18.1-.2,24.5a19.9,19.9,0,0,0,3.1,2.2l-0.2.3a2.9,2.9,0,0,0-1.3-.3,2.5,2.5,0,0,0-2.8,1.4l-0.7,1.6c-7.6-6-10.5-16-5.4-27.6,3.4-7.7,8.7-17.5,15.4-23a29.5,29.5,0,0,1,10.9-5.8c3.3-.9,12.6-1.6,15.3-5.6Z" transform="translate(69.1 -3822.7)" style="fill:#262016"/><path d="M280.7,4223.2l2.2,0.6a5.4,5.4,0,0,0-2.3.8c-0.5-1.1-1.5-1.8-3.4-1.6a5.1,5.1,0,0,0-3.3,1.7,5.7,5.7,0,0,0-3.3-1.5c-3-.5-4.8,1.2-5.8,3.5-1.7-.9-4-0.7-6.5.4-5.3,2.4-3,14.4-2.1,18.5a37.1,37.1,0,0,0,3.4,9l-2.3-1c-6.5-3.2-12.5-8.8-17.6-13.8-7-7.1-11.3-16.2-3.6-24.7,2.8-3.1,6.4-4.1,9.7-5.8a22,22,0,0,0,7.7,5.1A187.4,187.4,0,0,0,280.7,4223.2Z" transform="translate(69.1 -3822.7)" style="fill:#ffdbc2"/><path d="M279.8,4064.5a2.8,2.8,0,1,1-2.8,2.8A2.8,2.8,0,0,1,279.8,4064.5Z" transform="translate(69.1 -3822.7)" style="fill:#262016"/><path d="M280.6,4224.6c0.6,1.5.5,3.7,0.7,5.7-1.9.3-1.7,1-3.7,1.3-0.1-1.4-.4-2.4.1-3.7A6.8,6.8,0,0,1,280.6,4224.6Z" transform="translate(69.1 -3822.7)" style="fill:#262016"/><path d="M279.2,4199.7l1.9,0.3Z" transform="translate(69.1 -3822.7)" style="fill:#262016"/><path d="M279.2,4199.7h-0.7l-9.2-1.7a12,12,0,0,1,5.6.5A22.7,22.7,0,0,0,279.2,4199.7Z" transform="translate(69.1 -3822.7)" style="fill:#ffdbc2"/><path d="M277.2,4223c2-.2,3,0.5,3.4,1.6a6.8,6.8,0,0,0-2.8,3.2c-0.6,1.3-.2,2.3-0.1,3.7h-0.2c-0.7-4.2-2.1-2.4-2.4,0,0.2-2.9.2-5.3-1.3-6.8A5.1,5.1,0,0,1,277.2,4223Z" transform="translate(69.1 -3822.7)" style="fill:#262016"/><path d="M274.8,4179.5l0.9,0.8a8.6,8.6,0,0,0-.7,1.5,3,3,0,0,1-5.4.7c-1.1-1.6-12.3-2.9-13.1-2.8-3.7.7-5.3-5-1.6-5.7a19.6,19.6,0,0,1,3.6-.3c-1.1,2.7,2.4,5.8,4.8,3.3a21.9,21.9,0,0,0,2-2.5,23.3,23.3,0,0,1,6,2.2,11.1,11.1,0,0,0-2,3.6Z" transform="translate(69.1 -3822.7)" style="fill:#262016"/><path d="M273.9,4224.8c1.5,1.5,1.5,3.9,1.3,6.8,0,0.2,0,.5,0,0.7s0,0.2,0,.3h0l-4.3-.4C271.1,4230,272,4226.7,273.9,4224.8Z" transform="translate(69.1 -3822.7)" style="fill:#262016"/><path d="M275.2,4231.6v1c0-.1,0-0.2,0-0.3S275.1,4231.8,275.2,4231.6Z" transform="translate(69.1 -3822.7)" style="fill:#262016"/><path d="M275.1,4232.6h0Z" transform="translate(69.1 -3822.7)" style="fill:#262016"/><path d="M274.8,4179.5l-5.4.7a11.1,11.1,0,0,1,2-3.6A9.5,9.5,0,0,1,274.8,4179.5Z" transform="translate(69.1 -3822.7)" style="fill:#262016"/><path d="M270.8,4232.3l4.3,0.4c-0.4,3-4.6,3.6-4.4.4a3.7,3.7,0,0,0,.1-0.8h0Z" transform="translate(69.1 -3822.7)" style="fill:#262016"/><path d="M273.9,4224.8c-1.8,2-2.8,5.2-3.1,7.5h0c0-2.5-2.2-3.4-2.4.1h-0.1c-0.6-2.9-1.8-4.7-3.6-5.6,1-2.3,2.8-4,5.8-3.5A5.7,5.7,0,0,1,273.9,4224.8Z" transform="translate(69.1 -3822.7)" style="fill:#262016"/><path d="M272.4,4037.5a2.9,2.9,0,0,0,1.1,1A2.2,2.2,0,0,1,272.4,4037.5Z" transform="translate(69.1 -3822.7)" style="fill:#262016"/><path d="M272.3,4034.8a3.3,3.3,0,0,0,.1,2.7A2.8,2.8,0,0,1,272.3,4034.8Z" transform="translate(69.1 -3822.7)" style="fill:#262016"/><path d="M271,4260.1c2.6,2.1-.2,6.7-3.3,4.9a31.4,31.4,0,0,1-8.2-10.2c3.8,1.6,7.6,2.9,11.1,5.1Z" transform="translate(69.1 -3822.7)" style="fill:#262016"/><path d="M271,4260.1h0l-0.3-.2c-3.6-2.2-7.4-3.5-11.1-5.1a37.1,37.1,0,0,1-3.4-9c-0.9-4.1-3.3-16,2.1-18.5,2.5-1.2,4.8-1.3,6.5-.4a17.3,17.3,0,0,0-1.2,6.2l4.8-.7h0.1a5.8,5.8,0,0,0,0,.6c-0.1,3.2-3.6,3.7-5,.5-2.2-4.9-3.5.4-3.1,2.9s1,5.8,1.5,7.8a38.7,38.7,0,0,0,3.9,8.5C267.1,4255,268.8,4258.1,271,4260.1Z" transform="translate(69.1 -3822.7)" style="fill:#262016"/><path d="M264.4,4158.6c0.6-3.7,6.2-2.2,5.7,1.5-0.8,5.3-1.8,10.1-4.7,14.3a33,33,0,0,0-6.7-.8,3.1,3.1,0,0,1,.6-0.9C262.9,4168.7,263.6,4163.9,264.4,4158.6Z" transform="translate(69.1 -3822.7)" style="fill:#262016"/><path d="M267.7,4264.9h0c-8.4-5.2-16.8-7.9-24.7-14.2-6.1-4.9-12.7-11.1-15.7-18.6s-2.2-12.4,2.2-18.4a27.4,27.4,0,0,1,7.5-6.9c1.5-.9,3.8-1.6,5.7-2.4a13,13,0,0,0,.9,1.9,2.2,2.2,0,0,0,.8,1.3l1.4,1.7c-3.3,1.7-6.8,2.6-9.7,5.8-7.7,8.5-3.4,17.7,3.6,24.8,5,5.1,11.1,10.7,17.6,13.8l2.3,1A31.4,31.4,0,0,0,267.7,4264.9Z" transform="translate(69.1 -3822.7)" style="fill:#262016"/><path d="M268.3,4232.4l-4.8.7a17.3,17.3,0,0,1,1.2-6.2C266.5,4227.7,267.8,4229.6,268.3,4232.4Z" transform="translate(69.1 -3822.7)" style="fill:#262016"/><path d="M263.9,4196.7l5.5,1.2c-3.1.3-6.5,1.1-9.1,1a32.5,32.5,0,0,1-11.8-2.8,13,13,0,0,1,.7-1.7,3.1,3.1,0,0,0-2.3-4.4,2.9,2.9,0,0,1,1.3.3,3,3,0,0,1,1.1,1C251.7,4194.9,260,4195.8,263.9,4196.7Z" transform="translate(69.1 -3822.7)" style="fill:#262016"/><path d="M265.4,4174.5a21.9,21.9,0,0,1-2,2.5c-2.3,2.5-5.9-.6-4.7-3.3A33,33,0,0,1,265.4,4174.5Z" transform="translate(69.1 -3822.7)" style="fill:#262016"/><path d="M249.5,4203.5l-0.4.3a2.5,2.5,0,0,0-1.7-1.3h-0.2a3,3,0,0,0-2.8.9l-1.7,1c-1.2-3.4-1.1-7.2.7-11.5l0.5,0.4a2.8,2.8,0,0,0,.4.9,13.7,13.7,0,0,0,3.8,3.8A8.3,8.3,0,0,0,249.5,4203.5Z" transform="translate(69.1 -3822.7)" style="fill:#262016"/><path d="M246.9,4189.9a3.1,3.1,0,0,1,2.3,4.4,13,13,0,0,0-.7,1.7,25,25,0,0,1-4.6-2.7C243.4,4191.4,245.1,4189.9,246.9,4189.9Z" transform="translate(69.1 -3822.7)" style="fill:#262016"/><path d="M249.1,4203.8a2.8,2.8,0,0,1-.4,3.6,17.3,17.3,0,0,1-2.9,1.9l-1.4-1.7a2.7,2.7,0,0,0,1.2.5h0.2l-1.3-4.9h-0.1a3,3,0,0,1,2.8-.9h0.2A2.5,2.5,0,0,1,249.1,4203.8Z" transform="translate(69.1 -3822.7)" style="fill:#262016"/><path d="M248.4,4196a9.2,9.2,0,0,0-.4,2,13.7,13.7,0,0,1-3.8-3.8,2.8,2.8,0,0,1-.4-0.9A25,25,0,0,0,248.4,4196Z" transform="translate(69.1 -3822.7)" style="fill:#262016"/><path d="M244,4191.3a2.5,2.5,0,0,1,2.8-1.4c-1.8,0-3.5,1.6-3,3.4l-0.5-.4Z" transform="translate(69.1 -3822.7)" style="fill:#262016"/><path d="M244.5,4203.3l1.3,4.9h-0.2a2.7,2.7,0,0,1-1.2-.5l-0.8-1.3a3.3,3.3,0,0,1,.9-2.9h0.1Z" transform="translate(69.1 -3822.7)" style="fill:#262016"/><path d="M243.5,4206.3l0.8,1.3A2.2,2.2,0,0,1,243.5,4206.3Z" transform="translate(69.1 -3822.7)" style="fill:#262016"/><path d="M244.4,4203.4a3.3,3.3,0,0,0-.9,2.9,13,13,0,0,1-.9-1.9Z" transform="translate(69.1 -3822.7)" style="fill:#262016"/><path d="M237,4063.9a2.4,2.4,0,0,1,1.5,2.5,3.1,3.1,0,0,1-4.5,2.6h-0.3c0.2-1.9.4-3.9,0.8-5.9Z" transform="translate(69.1 -3822.7)" style="fill:#262016"/><path d="M233.9,4080.6c3.5-1.4,5.1,4.3,1.6,5.7l-0.8.3a53.5,53.5,0,0,1-.9-5.9h0.2Z" transform="translate(69.1 -3822.7)" style="fill:#262016"/><path d="M233.8,4080.6a53.5,53.5,0,0,0,.9,5.9c-7.6,2.1-12.2-8.6-11.6-14.8s5.5-10.4,11.5-8.8c-0.3,2-.6,3.9-0.8,5.9h0C225.5,4065.1,229.2,4082,233.8,4080.6Z" transform="translate(69.1 -3822.7)" style="fill:#262016"/><path d="M233.8,4080.6c-4.6,1.4-8.3-15.5-.1-11.8A64,64,0,0,0,233.8,4080.6Z" transform="translate(69.1 -3822.7)" style="fill:#ffdbc2"/></svg>