<svg id="c780ab5b-a72d-4bf7-be0c-b3fb74873990" data-name="圖層 1" xmlns="http://www.w3.org/2000/svg" viewBox="0 0 256.3 211"><title>scene1-jim</title><path d="M467.8,159c5.3,16.2,2.8,30-6.5,42.5,3.2,1.2,5.1,5.7,5,8.9-0.3,4.8-2.6,8.6-6.4,11.5-2.2,1.7-4.6,3.6-7.3,3.1q-1.9,10.5-4.4,21c-2.5,10.7-5.6,21.6-12,30.7a56.5,56.5,0,0,1-54.5,23.1c-39.2-5.7-53-39.3-59-73.6a12,12,0,0,1-5.9-2.4,15.8,15.8,0,0,1-6.3-10.4c-0.9-5.4,2.6-11.2,7.2-12.1-7-17.8-6.7-37.7,3.6-54.5a68.9,68.9,0,0,1,43.7-31.7c19.9-4.5,39.3-3.8,57.7,5.6,7,3.5,13.8,8.6,18.3,14.9C453.9,133.8,464.2,148.1,467.8,159Zm-12.4,41.6c8.9-10.6,13-23,8.3-37.3-2.6-7.9-9.7-22.8-19.9-22.9a24.2,24.2,0,0,1,1.3,16.4c-0.9,3.3-5.9,1.9-5.1-1.4,4.8-18.2-15.3-29.7-29.7-34.3a77.9,77.9,0,0,0-46.5-.4c-34,10-54.4,44.3-41.7,77.7,8.1-12.9,25.8-17.4,40-19.2,11.9-1.5,23.7-3.5,35.6-4.8s26-3,36-12.1c2.5-2.3,6.2,1.4,3.7,3.7l-2.7,2.3C443.4,176.3,453,188.4,455.3,200.6Zm4.9,13c0.9-2,1.2-4.6-.1-6.5s-3.7.6-4.4,1.8l-0.5.7q-0.8,5-1.7,10.1C455.1,220.4,459.7,214.7,460.2,213.6Zm-11.5,3.9q1-6.3,1.9-12.4c-0.5-12.7-11.5-25.9-20.4-33.9-13.5,7.7-29.8,7.4-45.3,10.1-18.4,3.2-51.4,1.6-60,22.9,0.7,6.7,1.5,13.8,2.7,20.9,11.8-7.9,27.2-.5,27.9,14.4,0.6,11.4-5.8,21.9-17.2,22.2,8,16.6,20.9,29.5,42.1,32.6,24,3.5,47-7.5,56.6-30.2,1.2-2.9,2.3-5.8,3.3-8.9-11.1-.9-19.1-12.5-17.3-23.5S437.6,210.5,448.7,217.5Zm-0.9,5.7-0.3-.2c-8.6-6.6-19.8,1-19.3,11.3,0.3,8.2,5.4,15.8,13.8,15.8A233.9,233.9,0,0,0,447.8,223.3ZM350.4,243c0-3.7-.1-7.9-2.4-11-4.7-6.1-12.9-6.5-18.6-1.6l-0.7.4a138.4,138.4,0,0,0,7.3,25.6C344.1,257.6,350.4,250.9,350.4,243Zm-28.6-21.9c-0.7-4.8-1.3-9.6-1.8-14.3-2.3-1.8-4.4,1.8-4.5,3.7a9.8,9.8,0,0,0,.9,4.8C316.7,216,320.1,220.5,321.8,221.1Z" transform="translate(-259.2 -112.4)" style="fill:#262016"/><path d="M463.7,163.3c4.6,14.2.5,26.6-8.3,37.3-2.3-12.2-11.9-24.3-20.6-32.3l2.7-2.3c2.5-2.3-1.2-6-3.7-3.7-10,9-23.1,10.7-36,12.1s-23.7,3.3-35.6,4.8c-14.2,1.8-31.9,6.3-40,19.2-12.7-33.4,7.7-67.7,41.7-77.7a77.9,77.9,0,0,1,46.5.4c14.3,4.6,34.5,16.1,29.7,34.3-0.9,3.3,4.2,4.7,5.1,1.4a24.2,24.2,0,0,0-1.3-16.4C454,140.6,461.1,155.4,463.7,163.3Z" transform="translate(-259.2 -112.4)" style="fill:#3f261d"/><path d="M460,207.1c1.4,1.9,1.1,4.5.1,6.5s-5.1,6.8-6.7,6.1q0.9-5,1.7-10.1l0.5-.7C456.3,207.7,458.2,204.7,460,207.1Z" transform="translate(-259.2 -112.4)" style="fill:#ffc9a4"/><path d="M450.6,205.1q-0.9,6.1-1.9,12.4c-11.1-7-23.6,2.2-25.6,14.2s6.2,22.7,17.3,23.5c-1,3-2.1,6-3.3,8.9-9.6,22.7-32.7,33.6-56.6,30.2-21.2-3.1-34.1-16-42.1-32.6,11.4-.3,17.8-10.8,17.2-22.2-0.8-14.9-16.1-22.3-27.9-14.4-1.2-7.1-2.1-14.2-2.7-20.9,8.6-21.3,41.6-19.7,60-22.9,15.5-2.7,31.7-2.4,45.3-10.1C439.1,179.2,450.1,192.5,450.6,205.1ZM414.7,210c4.2,0,4.2-5.2,0-5.2S411.6,210,414.7,210Zm-0.1,30c1.3-3.1-3.8-4.5-5.1-1.4-1.9,4.8-12,6.6-16.6,7.8-2.5.6-21.2,3.7-22.5-.1s-6.2-1.8-5.1,1.4c2.7,7.6,16.6,5.5,22.7,4.8C396.3,251.7,411.1,248.6,414.6,240Zm-18.1-10.1c2.7-2,.1-6.6-2.6-4.5a39.4,39.4,0,0,1-5.1,3.3,8.6,8.6,0,0,1-3.4.9c-1.7.1-.4-1.5,0-2.2,2-3.7,4.8-6.3,4.8-10.8s-5.3-3.4-5.2,0c0,5.2-9.6,11.3-4.2,16.6S392.7,232.8,396.5,229.9Zm-22.9-18.2c3.2,0,3.2-5.2,0-5.2S369.3,211.7,373.6,211.7Z" transform="translate(-259.2 -112.4)" style="fill:#ffc9a4"/><path d="M447.5,223.1l0.3,0.2a233.9,233.9,0,0,1-5.8,26.8c-8.5,0-13.5-7.5-13.8-15.8C427.7,224,438.9,216.4,447.5,223.1Z" transform="translate(-259.2 -112.4)" style="fill:#dd553a"/><path d="M414.7,204.7c4.2,0,4.2,5.2,0,5.2S411.6,204.7,414.7,204.7Z" transform="translate(-259.2 -112.4)" style="fill:#262016"/><path d="M409.5,238.6c1.2-3.1,6.3-1.7,5.1,1.4-3.5,8.6-18.3,11.7-26.5,12.5-6.1.6-20,2.8-22.7-4.8-1.1-3.2,3.9-4.6,5.1-1.4s20,0.7,22.5.1C397.5,245.2,407.6,243.5,409.5,238.6Z" transform="translate(-259.2 -112.4)" style="fill:#262016"/><path d="M393.8,225.4c2.7-2,5.3,2.5,2.6,4.5s-11.3,7.8-15.8,3.4,4.3-11.3,4.2-16.6c0-3.4,5.2-3.4,5.2,0s-2.8,7.1-4.8,10.8c-0.4.7-1.7,2.3,0,2.2a8.6,8.6,0,0,0,3.4-.9A39.4,39.4,0,0,0,393.8,225.4Z" transform="translate(-259.2 -112.4)" style="fill:#262016"/><path d="M373.6,206.5c3.2,0,3.2,5.2,0,5.2S369.3,206.5,373.6,206.5Z" transform="translate(-259.2 -112.4)" style="fill:#262016"/><path d="M348,232c2.3,3.1,2.4,7.3,2.4,11,0,7.9-6.3,14.6-14.4,13.4a138.4,138.4,0,0,1-7.3-25.6l0.7-.4C335.1,225.5,343.3,225.9,348,232Z" transform="translate(-259.2 -112.4)" style="fill:#dd553a"/><path d="M319.9,206.8c0.5,4.7,1.1,9.5,1.8,14.3-1.6-.6-5.1-5.1-5.5-5.8a9.8,9.8,0,0,1-.9-4.8C315.5,208.6,317.6,205,319.9,206.8Z" transform="translate(-259.2 -112.4)" style="fill:#ffc9a4"/><path d="M428.7,312.8a2.6,2.6,0,0,1-1.8,3.1l-2.6.6-0.5-2.4,1.8-3.2,2.1-.9A13.4,13.4,0,0,1,428.7,312.8Z" transform="translate(-259.2 -112.4)" style="fill:#262016"/><path d="M427.7,310.1l-2.1.9-3,.7c-3.6-4.7-12.7-4.3-17.5-5l-15.3-2c-0.2-1.7-.5-3.5-0.7-5.2,9,1.2,18.2,1.9,27.2,3.6C421.2,303.9,425.5,305.8,427.7,310.1Z" transform="translate(-259.2 -112.4)" style="fill:#262016"/><path d="M425.6,311l-1.8,3.2a6.9,6.9,0,0,0-1.2-2.5Z" transform="translate(-259.2 -112.4)" style="fill:#262016"/><path d="M423.8,314.1l0.5,2.4a118.5,118.5,0,0,1-33.8,2.1,2.3,2.3,0,0,0,.4-1.5c-0.1-1.2-.1-2.4-0.3-3.7a114,114,0,0,0,32-1.9A6.9,6.9,0,0,1,423.8,314.1Z" transform="translate(-259.2 -112.4)" style="fill:#262016"/><path d="M405,306.7c4.8,0.6,14,.3,17.5,5a114,114,0,0,1-32,1.9c-0.2-3-.5-5.9-0.9-8.8Z" transform="translate(-259.2 -112.4)" style="fill:#ffc9a4"/><path d="M390.8,317.2a2.3,2.3,0,0,1-.4,1.5h-0.2c1-1.6.4-4.2-2-4h-1.1a2.1,2.1,0,0,1,2.2-1.3h1.2C390.6,314.7,390.7,316,390.8,317.2Z" transform="translate(-259.2 -112.4)" style="fill:#262016"/><path d="M390.5,313.5h-1.2a2.1,2.1,0,0,0-2.2,1.3h-1.6c-0.3-4.6-.8-9.1-1.5-13.6h1.8a2.9,2.9,0,0,0,2.4,3.2l1.4,0.2C390,307.6,390.3,310.6,390.5,313.5Z" transform="translate(-259.2 -112.4)" style="fill:#262016"/><path d="M390.2,318.6h0.2a2.2,2.2,0,0,1-1.4.9A2.5,2.5,0,0,0,390.2,318.6Z" transform="translate(-259.2 -112.4)" style="fill:#262016"/><path d="M388.2,314.6c2.4-.2,3,2.4,2,4h-0.9a2.8,2.8,0,0,1-2.2-3.9h1.1Z" transform="translate(-259.2 -112.4)" style="fill:#262016"/><path d="M389.4,318.6h0.9a2.5,2.5,0,0,1-1.2,1H389a2.7,2.7,0,0,1-3.3-2.4c0-.8-0.1-1.6-0.1-2.4h1.6A2.8,2.8,0,0,0,389.4,318.6Z" transform="translate(-259.2 -112.4)" style="fill:#262016"/><path d="M389.6,304.7l-1.4-.2a2.9,2.9,0,0,1-2.4-3.2h0.4l-0.3-.3a2,2,0,0,1,2.4-1.7h0.6C389.2,301.2,389.4,302.9,389.6,304.7Z" transform="translate(-259.2 -112.4)" style="fill:#262016"/><path d="M388.9,299.5h-0.6a2,2,0,0,0-2.4,1.7l-2.1-1.6,0.3,1.7c-21.4-1.8-42.3-6.8-63.6-9-14.5-1.5-56.4-6.6-56.2,17,0.1,12.3,16.2,8.2,24.6,8.3,10.7,0.1,21.3.2,32,0q32.4-.5,64.8-2.6c0.1,0.8.1,1.6,0.1,2.4a2.7,2.7,0,0,0,3.3,2.4l-0.8.2c-30.1,2.1-60.2,3.1-90.4,2.9-6.2-.1-12.5-0.5-18.7-0.1-4.3.3-8.6,0.7-12.8-.6-6.1-2-7.6-9.2-7-14.7,2-21.2,29.5-21.9,45.5-21.3,27.4,1,54.1,8.3,81.4,10.3a2.6,2.6,0,0,1,2.5,1.9Z" transform="translate(-259.2 -112.4)" style="fill:#262016"/><path d="M386.2,301.3h-0.4v-0.2Z" transform="translate(-259.2 -112.4)" style="fill:#262016"/><path d="M383.7,299.4l2.1,1.6v0.2H384Z" transform="translate(-259.2 -112.4)" style="fill:#262016"/><path d="M384,301.1c0.7,4.5,1.2,9.1,1.5,13.6q-32.3,2.2-64.8,2.6c-10.7.2-21.3,0.1-32,0-8.4-.1-24.4,4-24.6-8.3-0.3-23.6,41.7-18.5,56.2-17C341.7,294.3,362.6,299.4,384,301.1Z" transform="translate(-259.2 -112.4)" style="fill:#54618c"/><path d="M473,286.2c15.6,0.1,42.8,1.6,42.5,23.3-0.1,7.1-3.4,12.6-10.7,13.6-4.3.6-8.6-.4-12.9-0.3l-18.1.2q-43.7.1-87.4-2.9l-0.8-.2a2.7,2.7,0,0,0,3.3-2.4c0-.8.1-1.6,0.2-2.4,22.7,1.5,45.4,2.5,68.1,2.7,11.5,0.1,23.1-.4,34.6-0.2,3.4,0.1,6.8.6,10.2,0.5,6.8-.3,9.7-5.5,7.9-11.8-6-21-42.5-15.6-58.8-13.5-20.2,2.6-40.2,7-60.5,8.7l0.3-1.7-2.1,1.6a2,2,0,0,0-2.4-1.7h-0.6l0.2-1.4a2.6,2.6,0,0,1,2.5-1.9C416.7,294.6,444.5,286.1,473,286.2Z" transform="translate(-259.2 -112.4)" style="fill:#262016"/><path d="M509.9,306.4c1.8,6.2-1.1,11.5-7.9,11.8-3.4.1-6.8-.4-10.2-0.5-11.5-.2-23.1.3-34.6,0.2-22.7-.2-45.5-1.1-68.1-2.7q0.5-6.9,1.5-13.7c20.3-1.7,40.3-6.1,60.5-8.7C467.4,290.8,503.9,285.5,509.9,306.4Z" transform="translate(-259.2 -112.4)" style="fill:#54618c"/><path d="M390.9,299.8l-0.3,1.7h-1.8v-0.2Z" transform="translate(-259.2 -112.4)" style="fill:#262016"/><path d="M388.8,301.7h1.8q-1,6.8-1.5,13.7h-1.6a2.1,2.1,0,0,0-2.2-1.3h-1.2c0.2-3,.5-5.9.9-8.8l1.4-.2A2.9,2.9,0,0,0,388.8,301.7Z" transform="translate(-259.2 -112.4)" style="fill:#262016"/><path d="M387.5,315.1h1.6c-0.1.8-.1,1.6-0.2,2.4a2.7,2.7,0,0,1-3.3,2.4h-0.1a2.4,2.4,0,0,1-1.2-1h0.9A2.8,2.8,0,0,0,387.5,315.1Z" transform="translate(-259.2 -112.4)" style="fill:#262016"/><path d="M388.8,301.7a2.9,2.9,0,0,1-2.4,3.2l-1.4.2c0.2-1.7.5-3.5,0.7-5.2h0.6a2,2,0,0,1,2.4,1.7l-0.3.3h0.4Z" transform="translate(-259.2 -112.4)" style="fill:#262016"/><path d="M388.8,301.7h-0.4l0.3-.3v0.2Z" transform="translate(-259.2 -112.4)" style="fill:#262016"/><path d="M387.5,315.1a2.8,2.8,0,0,1-2.2,3.9h-0.9c-1-1.6-.4-4.2,2-4h1.1Z" transform="translate(-259.2 -112.4)" style="fill:#262016"/><path d="M387.5,315.1h-1.1c-2.4-.2-3,2.4-2,4h-0.2a2.3,2.3,0,0,1-.4-1.5c0.1-1.2.1-2.4,0.3-3.7h1.2A2.1,2.1,0,0,1,387.5,315.1Z" transform="translate(-259.2 -112.4)" style="fill:#262016"/><path d="M385.7,299.9c-0.3,1.7-.5,3.5-0.7,5.2l-15.3,2c-4.8.6-14,.3-17.5,5l-3-.7-2.4-.3c2.1-4.6,6.6-6.9,11.9-7.6Z" transform="translate(-259.2 -112.4)" style="fill:#262016"/><path d="M369.6,307.1l15.3-2c-0.4,2.9-.7,5.9-0.9,8.8a114,114,0,0,1-32-1.9C355.7,307.3,364.8,307.7,369.6,307.1Z" transform="translate(-259.2 -112.4)" style="fill:#ffc9a4"/><path d="M384.4,319a2.4,2.4,0,0,0,1.2,1,2.2,2.2,0,0,1-1.4-.9h0.2Z" transform="translate(-259.2 -112.4)" style="fill:#262016"/><path d="M384.1,313.9c-0.1,1.2-.2,2.4-0.3,3.7a2.3,2.3,0,0,0,.4,1.5,118.5,118.5,0,0,1-33.8-2.1l0.5-2.4a6.9,6.9,0,0,1,1.2-2.5A114,114,0,0,0,384.1,313.9Z" transform="translate(-259.2 -112.4)" style="fill:#262016"/><path d="M352.1,312a6.9,6.9,0,0,0-1.2,2.5l-1.8-3.2Z" transform="translate(-259.2 -112.4)" style="fill:#262016"/><path d="M349.1,311.4l1.8,3.2-0.5,2.4-2.6-.6a2.6,2.6,0,0,1-1.8-3.1,12.6,12.6,0,0,1,.8-2.1Z" transform="translate(-259.2 -112.4)" style="fill:#262016"/></svg>