<svg id="4e3d2376-0863-44f2-b392-284d26d1bd47" data-name="圖層 1" xmlns="http://www.w3.org/2000/svg" viewBox="0 0 829.3 221"><title>scene-end-main</title><path d="M431.2,11459.4c5.3,16.2,2.8,30-6.5,42.5,3.2,1.2,5.1,5.7,5,8.9-0.3,4.8-2.6,8.6-6.4,11.5-2.2,1.7-4.6,3.6-7.3,3.1q-1.9,10.5-4.4,21c-2.5,10.7-5.6,21.6-12,30.7a56.5,56.5,0,0,1-54.5,23.1c-39.2-5.7-53-39.3-59-73.6a12,12,0,0,1-5.9-2.4,15.8,15.8,0,0,1-6.3-10.4c-0.9-5.4,2.6-11.2,7.2-12.1-7-17.8-6.7-37.7,3.6-54.5a68.9,68.9,0,0,1,43.7-31.7c19.9-4.5,39.3-3.8,57.7,5.6,7,3.5,13.8,8.6,18.3,14.9C417.3,11434.1,427.6,11448.4,431.2,11459.4Zm-12.4,41.6c8.9-10.6,13-23,8.3-37.3-2.6-7.9-9.7-22.8-19.9-22.9a24.2,24.2,0,0,1,1.3,16.4c-0.9,3.3-5.9,1.9-5.1-1.4,4.8-18.2-15.3-29.7-29.7-34.3a77.9,77.9,0,0,0-46.5-.4c-34,10-54.4,44.3-41.7,77.7,8.1-12.9,25.8-17.4,40-19.2,11.9-1.5,23.7-3.5,35.6-4.8s26-3,36-12.1c2.5-2.3,6.2,1.4,3.7,3.7l-2.7,2.3C406.8,11476.6,416.4,11488.7,418.7,11501Zm4.9,13c0.9-2,1.2-4.6-.1-6.5s-3.7.6-4.4,1.8l-0.5.7q-0.8,5-1.7,10.1C418.5,11520.7,423.1,11515,423.6,11514Zm-11.5,3.9q1-6.3,1.9-12.4c-0.5-12.7-11.5-25.9-20.4-33.9-13.5,7.7-29.8,7.4-45.3,10.1-18.4,3.2-51.4,1.6-60,22.9,0.7,6.7,1.5,13.8,2.7,20.9,11.8-7.9,27.2-.5,27.9,14.4,0.6,11.4-5.8,21.9-17.2,22.2,8,16.6,20.9,29.5,42.1,32.6,24,3.5,47-7.5,56.6-30.2,1.2-2.9,2.3-5.8,3.3-8.9-11.1-.9-19.1-12.5-17.3-23.5S401,11510.9,412.1,11517.9Zm-0.9,5.7-0.3-.2c-8.6-6.6-19.8,1-19.3,11.3,0.3,8.2,5.4,15.8,13.8,15.8A233.9,233.9,0,0,0,411.2,11523.6Zm-97.4,19.8c0-3.7-.1-7.9-2.4-11-4.7-6.1-12.9-6.5-18.6-1.6l-0.7.4a138.4,138.4,0,0,0,7.3,25.6C307.5,11558,313.8,11551.3,313.8,11543.4Zm-28.6-21.9c-0.7-4.8-1.3-9.6-1.8-14.3-2.3-1.8-4.4,1.8-4.5,3.7a9.8,9.8,0,0,0,.9,4.8C280.1,11516.4,283.5,11520.9,285.2,11521.5Z" transform="translate(-222.6 -11406.6)" style="fill:#262016"/><path d="M427.1,11463.7c4.6,14.2.5,26.6-8.3,37.3-2.3-12.2-11.9-24.3-20.6-32.3l2.7-2.3c2.5-2.3-1.2-6-3.7-3.7-10,9-23.1,10.7-36,12.1s-23.7,3.3-35.6,4.8c-14.2,1.8-31.9,6.3-40,19.2-12.7-33.4,7.7-67.7,41.7-77.7a77.9,77.9,0,0,1,46.5.4c14.3,4.6,34.5,16.1,29.7,34.3-0.9,3.3,4.2,4.7,5.1,1.4a24.2,24.2,0,0,0-1.3-16.4C417.4,11440.9,424.5,11455.7,427.1,11463.7Z" transform="translate(-222.6 -11406.6)" style="fill:#3f261d"/><path d="M423.4,11507.5c1.4,1.9,1.1,4.5.1,6.5s-5.1,6.8-6.7,6.1q0.9-5,1.7-10.1l0.5-.7C419.7,11508.1,421.6,11505.1,423.4,11507.5Z" transform="translate(-222.6 -11406.6)" style="fill:#ffc9a4"/><path d="M414,11505.5q-0.9,6.1-1.9,12.4c-11.1-7-23.6,2.2-25.6,14.2s6.2,22.7,17.3,23.5c-1,3-2.1,6-3.3,8.9-9.6,22.7-32.7,33.6-56.6,30.2-21.2-3.1-34.1-16-42.1-32.6,11.4-.3,17.8-10.8,17.2-22.2-0.8-14.9-16.1-22.3-27.9-14.4-1.2-7.1-2.1-14.2-2.7-20.9,8.6-21.3,41.6-19.7,60-22.9,15.5-2.7,31.7-2.4,45.3-10.1C402.5,11479.6,413.5,11492.8,414,11505.5Zm-35.8,4.9c4.2,0,4.2-5.2,0-5.2S375,11510.3,378.1,11510.3Zm-0.1,30c1.3-3.1-3.8-4.5-5.1-1.4-1.9,4.8-12,6.6-16.6,7.8-2.5.6-21.2,3.7-22.5-.1s-6.2-1.8-5.1,1.4c2.7,7.6,16.6,5.5,22.7,4.8C359.7,11552,374.5,11549,378,11540.4Zm-18.1-10.1c2.7-2,.1-6.6-2.6-4.5a39.4,39.4,0,0,1-5.1,3.3,8.6,8.6,0,0,1-3.4.9c-1.7.1-.4-1.5,0-2.2,2-3.7,4.8-6.3,4.8-10.8s-5.3-3.4-5.2,0c0,5.2-9.6,11.3-4.2,16.6S356.1,11533.1,359.9,11530.3Zm-22.9-18.2c3.2,0,3.2-5.2,0-5.2S332.7,11512.1,337,11512.1Z" transform="translate(-222.6 -11406.6)" style="fill:#ffc9a4"/><path d="M410.9,11523.4l0.3,0.2a233.9,233.9,0,0,1-5.8,26.8c-8.5,0-13.5-7.5-13.8-15.8C391.1,11524.4,402.3,11516.8,410.9,11523.4Z" transform="translate(-222.6 -11406.6)" style="fill:#dd553a"/><path d="M378.1,11505.1c4.2,0,4.2,5.2,0,5.2S375,11505.1,378.1,11505.1Z" transform="translate(-222.6 -11406.6)" style="fill:#262016"/><path d="M372.9,11539c1.2-3.1,6.3-1.7,5.1,1.4-3.5,8.6-18.3,11.7-26.5,12.5-6.1.6-20,2.8-22.7-4.8-1.1-3.2,3.9-4.6,5.1-1.4s20,0.7,22.5.1C360.9,11545.6,371,11543.8,372.9,11539Z" transform="translate(-222.6 -11406.6)" style="fill:#262016"/><path d="M357.2,11525.7c2.7-2,5.3,2.5,2.6,4.5s-11.3,7.8-15.8,3.4,4.3-11.3,4.2-16.6c0-3.4,5.2-3.4,5.2,0s-2.8,7.1-4.8,10.8c-0.4.7-1.7,2.3,0,2.2a8.6,8.6,0,0,0,3.4-.9A39.4,39.4,0,0,0,357.2,11525.7Z" transform="translate(-222.6 -11406.6)" style="fill:#262016"/><path d="M337,11506.8c3.2,0,3.2,5.2,0,5.2S332.7,11506.8,337,11506.8Z" transform="translate(-222.6 -11406.6)" style="fill:#262016"/><path d="M311.4,11532.4c2.3,3.1,2.4,7.3,2.4,11,0,7.9-6.3,14.6-14.4,13.4a138.4,138.4,0,0,1-7.3-25.6l0.7-.4C298.5,11525.9,306.7,11526.2,311.4,11532.4Z" transform="translate(-222.6 -11406.6)" style="fill:#dd553a"/><path d="M283.3,11507.1c0.5,4.7,1.1,9.5,1.8,14.3-1.6-.6-5.1-5.1-5.5-5.8a9.8,9.8,0,0,1-.9-4.8C278.9,11508.9,281,11505.4,283.3,11507.1Z" transform="translate(-222.6 -11406.6)" style="fill:#ffc9a4"/><path d="M392.1,11613.1a2.6,2.6,0,0,1-1.8,3.1l-2.6.6-0.5-2.4,1.8-3.2,2.1-.9A13.4,13.4,0,0,1,392.1,11613.1Z" transform="translate(-222.6 -11406.6)" style="fill:#262016"/><path d="M391.1,11610.5l-2.1.9-3,.7c-3.6-4.7-12.7-4.3-17.5-5l-15.3-2c-0.2-1.7-.5-3.5-0.7-5.2,9,1.2,18.2,1.9,27.2,3.6C384.6,11604.3,388.9,11606.2,391.1,11610.5Z" transform="translate(-222.6 -11406.6)" style="fill:#262016"/><path d="M389,11611.3l-1.8,3.2a6.9,6.9,0,0,0-1.2-2.5Z" transform="translate(-222.6 -11406.6)" style="fill:#262016"/><path d="M387.2,11614.5l0.5,2.4a118.5,118.5,0,0,1-33.8,2.1,2.3,2.3,0,0,0,.4-1.5c-0.1-1.2-.1-2.4-0.3-3.7a114,114,0,0,0,32-1.9A6.9,6.9,0,0,1,387.2,11614.5Z" transform="translate(-222.6 -11406.6)" style="fill:#262016"/><path d="M368.4,11607c4.8,0.6,14,.3,17.5,5a114,114,0,0,1-32,1.9c-0.2-3-.5-5.9-0.9-8.8Z" transform="translate(-222.6 -11406.6)" style="fill:#ffc9a4"/><path d="M354.2,11617.5a2.3,2.3,0,0,1-.4,1.5h-0.2c1-1.6.4-4.2-2-4h-1.1a2.1,2.1,0,0,1,2.2-1.3h1.2C354,11615.1,354.1,11616.3,354.2,11617.5Z" transform="translate(-222.6 -11406.6)" style="fill:#262016"/><path d="M353.9,11613.9h-1.2a2.1,2.1,0,0,0-2.2,1.3h-1.6c-0.3-4.6-.8-9.1-1.5-13.6h1.8a2.9,2.9,0,0,0,2.4,3.2l1.4,0.2C353.4,11608,353.7,11610.9,353.9,11613.9Z" transform="translate(-222.6 -11406.6)" style="fill:#262016"/><path d="M353.6,11619h0.2a2.2,2.2,0,0,1-1.4.9A2.5,2.5,0,0,0,353.6,11619Z" transform="translate(-222.6 -11406.6)" style="fill:#262016"/><path d="M351.6,11615c2.4-.2,3,2.4,2,4h-0.9a2.8,2.8,0,0,1-2.2-3.9h1.1Z" transform="translate(-222.6 -11406.6)" style="fill:#262016"/><path d="M352.8,11618.9h0.9a2.5,2.5,0,0,1-1.2,1h-0.1a2.7,2.7,0,0,1-3.3-2.4c0-.8-0.1-1.6-0.1-2.4h1.6A2.8,2.8,0,0,0,352.8,11618.9Z" transform="translate(-222.6 -11406.6)" style="fill:#262016"/><path d="M353,11605l-1.4-.2a2.9,2.9,0,0,1-2.4-3.2h0.4l-0.3-.3a2,2,0,0,1,2.4-1.7h0.6C352.6,11601.6,352.8,11603.3,353,11605Z" transform="translate(-222.6 -11406.6)" style="fill:#262016"/><path d="M352.3,11599.8h-0.6a2,2,0,0,0-2.4,1.7l-2.1-1.6,0.3,1.7c-21.4-1.8-42.3-6.8-63.6-9-14.5-1.5-56.4-6.6-56.2,17,0.1,12.3,16.2,8.2,24.6,8.3,10.7,0.1,21.3.2,32,0q32.4-.5,64.8-2.6c0.1,0.8.1,1.6,0.1,2.4a2.7,2.7,0,0,0,3.3,2.4l-0.8.2c-30.1,2.1-60.2,3.1-90.4,2.9-6.2-.1-12.5-0.5-18.7-0.1-4.3.3-8.6,0.7-12.8-.6-6.1-2-7.6-9.2-7-14.7,2-21.2,29.5-21.9,45.5-21.3,27.4,1,54.1,8.3,81.4,10.3a2.6,2.6,0,0,1,2.5,1.9Z" transform="translate(-222.6 -11406.6)" style="fill:#262016"/><path d="M349.6,11601.7h-0.4v-0.2Z" transform="translate(-222.6 -11406.6)" style="fill:#262016"/><path d="M347.1,11599.8l2.1,1.6v0.2h-1.8Z" transform="translate(-222.6 -11406.6)" style="fill:#262016"/><path d="M347.4,11601.5c0.7,4.5,1.2,9.1,1.5,13.6q-32.3,2.2-64.8,2.6c-10.7.2-21.3,0.1-32,0-8.4-.1-24.4,4-24.6-8.3-0.3-23.6,41.7-18.5,56.2-17C305.1,11594.7,326,11599.7,347.4,11601.5Z" transform="translate(-222.6 -11406.6)" style="fill:#54618c"/><path d="M436.4,11586.6c15.6,0.1,42.8,1.6,42.5,23.3-0.1,7.1-3.4,12.6-10.7,13.6-4.3.6-8.6-.4-12.9-0.3l-18.1.2q-43.7.1-87.4-2.9l-0.8-.2a2.7,2.7,0,0,0,3.3-2.4c0-.8.1-1.6,0.2-2.4,22.7,1.5,45.4,2.5,68.1,2.7,11.5,0.1,23.1-.4,34.6-0.2,3.4,0.1,6.8.6,10.2,0.5,6.8-.3,9.7-5.5,7.9-11.8-6-21-42.5-15.6-58.8-13.5-20.2,2.6-40.2,7-60.5,8.7l0.3-1.7-2.1,1.6a2,2,0,0,0-2.4-1.7h-0.6l0.2-1.4a2.6,2.6,0,0,1,2.5-1.9C380.1,11594.9,407.9,11586.4,436.4,11586.6Z" transform="translate(-222.6 -11406.6)" style="fill:#262016"/><path d="M473.3,11606.8c1.8,6.2-1.1,11.5-7.9,11.8-3.4.1-6.8-.4-10.2-0.5-11.5-.2-23.1.3-34.6,0.2-22.7-.2-45.5-1.1-68.1-2.7q0.5-6.9,1.5-13.7c20.3-1.7,40.3-6.1,60.5-8.7C430.8,11591.1,467.3,11585.8,473.3,11606.8Z" transform="translate(-222.6 -11406.6)" style="fill:#54618c"/><path d="M354.3,11600.2l-0.3,1.7h-1.8v-0.2Z" transform="translate(-222.6 -11406.6)" style="fill:#262016"/><path d="M352.2,11602H354q-1,6.8-1.5,13.7h-1.6a2.1,2.1,0,0,0-2.2-1.3h-1.2c0.2-3,.5-5.9.9-8.8l1.4-.2A2.9,2.9,0,0,0,352.2,11602Z" transform="translate(-222.6 -11406.6)" style="fill:#262016"/><path d="M350.9,11615.4h1.6c-0.1.8-.1,1.6-0.2,2.4a2.7,2.7,0,0,1-3.3,2.4h-0.1a2.4,2.4,0,0,1-1.2-1h0.9A2.8,2.8,0,0,0,350.9,11615.4Z" transform="translate(-222.6 -11406.6)" style="fill:#262016"/><path d="M352.2,11602a2.9,2.9,0,0,1-2.4,3.2l-1.4.2c0.2-1.7.5-3.5,0.7-5.2h0.6a2,2,0,0,1,2.4,1.7l-0.3.3h0.4Z" transform="translate(-222.6 -11406.6)" style="fill:#262016"/><path d="M352.2,11602h-0.4l0.3-.3v0.2Z" transform="translate(-222.6 -11406.6)" style="fill:#262016"/><path d="M350.9,11615.4a2.8,2.8,0,0,1-2.2,3.9h-0.9c-1-1.6-.4-4.2,2-4h1.1Z" transform="translate(-222.6 -11406.6)" style="fill:#262016"/><path d="M350.9,11615.4h-1.1c-2.4-.2-3,2.4-2,4h-0.2a2.3,2.3,0,0,1-.4-1.5c0.1-1.2.1-2.4,0.3-3.7h1.2A2.1,2.1,0,0,1,350.9,11615.4Z" transform="translate(-222.6 -11406.6)" style="fill:#262016"/><path d="M349.1,11600.2c-0.3,1.7-.5,3.5-0.7,5.2l-15.3,2c-4.8.6-14,.3-17.5,5l-3-.7-2.4-.3c2.1-4.6,6.6-6.9,11.9-7.6Z" transform="translate(-222.6 -11406.6)" style="fill:#262016"/><path d="M333,11607.4l15.3-2c-0.4,2.9-.7,5.9-0.9,8.8a114,114,0,0,1-32-1.9C319.1,11607.7,328.2,11608.1,333,11607.4Z" transform="translate(-222.6 -11406.6)" style="fill:#ffc9a4"/><path d="M347.8,11619.4a2.4,2.4,0,0,0,1.2,1,2.2,2.2,0,0,1-1.4-.9h0.2Z" transform="translate(-222.6 -11406.6)" style="fill:#262016"/><path d="M347.5,11614.3c-0.1,1.2-.2,2.4-0.3,3.7a2.3,2.3,0,0,0,.4,1.5,118.5,118.5,0,0,1-33.8-2.1l0.5-2.4a6.9,6.9,0,0,1,1.2-2.5A114,114,0,0,0,347.5,11614.3Z" transform="translate(-222.6 -11406.6)" style="fill:#262016"/><path d="M315.5,11612.4a6.9,6.9,0,0,0-1.2,2.5l-1.8-3.2Z" transform="translate(-222.6 -11406.6)" style="fill:#262016"/><path d="M312.5,11611.7l1.8,3.2-0.5,2.4-2.6-.6a2.6,2.6,0,0,1-1.8-3.1,12.6,12.6,0,0,1,.8-2.1Z" transform="translate(-222.6 -11406.6)" style="fill:#262016"/><path d="M994.5,11487.8c0.5,9-3.7,20.3-12.8,17.9a223.9,223.9,0,0,1-8.2,48.6c-5.9,20.4-19.7,39.2-42.1,42.8-25,4.1-48.3-5.6-59-29.1a247.3,247.3,0,0,1-16.4-49.9c-2.6.3-5.5-1.1-7.6-2.7a17.7,17.7,0,0,1-6.7-11.8c-0.5-4.1-.2-9.6,3.5-12.3a8.4,8.4,0,0,1,6.1-1.7l-0.4-3.5a3,3,0,0,1-2.4-1.7c-6.2-14.3-9.8-31.9-1.9-46.4a49.6,49.6,0,0,1,3.2-5.1l4.9,1.6a33.1,33.1,0,0,0-5.7,11.7c-2.7,10.3-1.2,20.8,2.1,30.1,9.2-11.9,36-10.7,47.5-11.6q22.2-1.7,44.5-2.4c11.2-.3,22.1.6,26.8-11.6,1.7-6.1,1.8-11.2.8-15.5l4.5-1.1a33.3,33.3,0,0,1,0,18l-0.2.5v0.2a24,24,0,0,1-2.4,4.9,17,17,0,0,1,7.4,5.6,2.5,2.5,0,0,1,.8,1.2l0.5,0.8a28.9,28.9,0,0,0,3.6-22.9l4.9-1.3c2.9,11.1.9,22.4-7.4,31.6a2.4,2.4,0,0,1-.9.6c0.1,1.7.2,3.3,0.3,5a6.6,6.6,0,0,1,6.1-.7C992.3,11479.2,994.3,11483.5,994.5,11487.8Zm-5.4,1.7c-0.1-2.2-.1-4.5-1.9-6s-4.1.9-4.9,3.1v0.3c0.1,4.4,0,8.8-.2,13.2,1.7,0.9,3.6,1.3,4.9-1a15.4,15.4,0,0,0,1.5-3.3A20.4,20.4,0,0,0,989.2,11489.5Zm-13.9,24.6a247.5,247.5,0,0,0,.4-47.7,11.9,11.9,0,0,0-6.8-4.4c-9.8,8.1-26.1,5.6-38.9,6.3s-26.9,1.6-40.4,2.8c-7.7.7-27.1,0.8-33.7,8.8a280.4,280.4,0,0,0,7.4,45.6c12.8-4.2,25.7,2.4,29.4,15.6,3.2,11.2-4.4,22.2-14.8,25.7,5.2,10.4,12.2,19.4,24.2,23,10.3,3.1,22.6,4.4,33,.9,18.7-6.3,27.8-21,33-38-12-1.6-22.8-12.6-18.8-25.5C952.9,11515.7,964.3,11509.9,975.3,11514.1Zm-0.6,5.6h-0.4c-8.3-3.9-18.8.8-19.9,10.4s6,16.9,15.3,17.4c0.7-2.9,1.4-5.9,2-8.8Q973.5,11529.2,974.7,11519.7Zm-99.1,42.1c8.6-2.7,15.1-11.8,11.4-21s-13-13-22.3-10a238.7,238.7,0,0,0,9.2,27Zm-27.4-55.1c0.4,0.7,5,7,6.8,6.3q-1.7-8.5-2.8-17.1l-0.3-.2c-3.2-3-5,2.9-4.9,5A15,15,0,0,0,848.1,11506.6Z" transform="translate(-222.6 -11406.6)" style="fill:#262016"/><path d="M989.9,11441.1l-4.9,1.3a28.7,28.7,0,0,0-4-8.9,39.9,39.9,0,0,0-11-10.4,32.8,32.8,0,0,1,5.4,10.9l-4.5,1.1c-6.3-25.7-54.3-24.1-75.6-20.7-14.6,2.3-31.2,8-40.4,20l-4.9-1.6c11.2-15.5,29.3-21.7,48.1-24.2s41.6-4.3,59.2,4.5c11.1,0.4,24.7,9.8,29.5,19.5A43.7,43.7,0,0,1,989.9,11441.1Z" transform="translate(-222.6 -11406.6)" style="fill:#262016"/><path d="M987.3,11483.6c1.8,1.5,1.8,3.8,1.9,6a20.4,20.4,0,0,1-.7,6.2,15.4,15.4,0,0,1-1.5,3.3c-1.3,2.4-3.2,1.9-4.9,1,0.2-4.4.2-8.8,0.2-13.2v-0.3C983.2,11484.5,984.6,11481.4,987.3,11483.6Z" transform="translate(-222.6 -11406.6)" style="fill:#ffc9a4"/><path d="M985,11442.4a28.9,28.9,0,0,1-3.6,22.9l-0.5-.8a2.5,2.5,0,0,0-.8-1.2,17,17,0,0,0-7.4-5.6,24,24,0,0,0,2.4-4.9v-0.2l0.2-.5a33.3,33.3,0,0,0,0-18,32.8,32.8,0,0,0-5.4-10.9,39.9,39.9,0,0,1,11,10.4A28.7,28.7,0,0,1,985,11442.4Z" transform="translate(-222.6 -11406.6)" style="fill:#5e3326"/><path d="M975.6,11466.4a247.5,247.5,0,0,1-.4,47.7c-11-4.2-22.3,1.6-25.9,13-4,12.9,6.8,23.9,18.8,25.5-5.2,17.1-14.4,31.8-33,38-10.4,3.5-22.7,2.1-33-.9-12-3.5-19-12.6-24.2-23,10.4-3.5,18-14.5,14.8-25.7-3.8-13.2-16.6-19.8-29.4-15.6a280.4,280.4,0,0,1-7.4-45.6c6.6-8,25.9-8.1,33.7-8.8q20.2-1.8,40.4-2.8c12.8-.7,29.1,1.8,38.9-6.3A11.9,11.9,0,0,1,975.6,11466.4Zm-43,29.6a2.7,2.7,0,0,0-.3-5.5A2.7,2.7,0,0,0,932.6,11496Zm-1.4,53c2.6-2.2-.3-6.8-3-4.6a11.7,11.7,0,0,1-12.7,2c-3.2-1.5-5.7,3.4-2.5,4.9A17,17,0,0,0,931.2,11549.1Zm-5.5-25.2c2.2-2.7-1.9-6.4-4.1-3.6s-4.6,3.1-5.8.1c-0.5-1.3,2.2-3.8,2.8-5,1.6-2.9.1-7.8-.2-10.8s-5.8-3.2-5.5.3l0.5,5.2c0.3,2.6-.4,3.7-2,5.8a7.3,7.3,0,0,0-.2,7.8C914.7,11529.1,921.9,11528.6,925.8,11523.9Zm-33-23.8a2.7,2.7,0,0,0-.3-5.5A2.7,2.7,0,0,0,892.7,11500.1Z" transform="translate(-222.6 -11406.6)" style="fill:#ffc9a4"/><path d="M970.9,11435.2c1.1,4.4.9,9.5-.8,15.5-4.7,12.1-15.6,11.2-26.8,11.6q-22.3.7-44.5,2.4c-11.5.9-38.3-.3-47.5,11.6-3.4-9.3-4.8-19.8-2.1-30.1a33.1,33.1,0,0,1,5.7-11.7c9.2-12.1,25.8-17.7,40.4-20C916.5,11411.1,964.6,11409.5,970.9,11435.2Z" transform="translate(-222.6 -11406.6)" style="fill:#5e3326"/><path d="M974.3,11519.6h0.4q-1.2,9.4-3,18.8c-0.6,3-1.2,5.9-2,8.8-9.3-.5-16.4-7.9-15.3-17.4S966,11515.7,974.3,11519.6Z" transform="translate(-222.6 -11406.6)" style="fill:#dd553a"/><path d="M932.3,11490.6a2.7,2.7,0,0,1,.3,5.5A2.7,2.7,0,0,1,932.3,11490.6Z" transform="translate(-222.6 -11406.6)" style="fill:#262016"/><path d="M928.2,11544.5c2.7-2.3,5.7,2.3,3,4.6a17,17,0,0,1-18.2,2.3c-3.2-1.5-.7-6.3,2.5-4.9A11.7,11.7,0,0,0,928.2,11544.5Z" transform="translate(-222.6 -11406.6)" style="fill:#262016"/><path d="M921.7,11520.2c2.2-2.8,6.3.9,4.1,3.6-3.9,4.7-11.1,5.3-14.4-.3a7.3,7.3,0,0,1,.2-7.8c1.5-2.1,2.2-3.2,2-5.8l-0.5-5.2c-0.3-3.5,5.1-3.8,5.5-.3s1.7,8,.2,10.8c-0.6,1.1-3.3,3.6-2.8,5C917.1,11523.3,920.1,11522.2,921.7,11520.2Z" transform="translate(-222.6 -11406.6)" style="fill:#262016"/><path d="M892.4,11494.6a2.7,2.7,0,0,1,.3,5.5A2.7,2.7,0,0,1,892.4,11494.6Z" transform="translate(-222.6 -11406.6)" style="fill:#262016"/><path d="M886.9,11540.7c3.8,9.3-2.7,18.3-11.4,21l-1.7-3.9a238.7,238.7,0,0,1-9.2-27C873.9,11527.7,883.1,11531.4,886.9,11540.7Z" transform="translate(-222.6 -11406.6)" style="fill:#dd553a"/><path d="M854.9,11512.9c-1.8.7-6.4-5.6-6.8-6.3a15,15,0,0,1-1.2-6c-0.1-2.1,1.7-7.9,4.9-5l0.3,0.2Q853.3,11504.4,854.9,11512.9Z" transform="translate(-222.6 -11406.6)" style="fill:#ffc9a4"/><path d="M1007.4,11583.6c16.3,0.1,44.7,1.7,44.5,24.3-0.1,7.4-3.5,13.2-11.2,14.3-4.5.6-9-.4-13.5-0.4l-18.9.2q-44.3.1-88.5-2.8c2.5-.8,2.5-4.7,0-5.2a1.1,1.1,0,0,1,0-.2c23.7,1.6,47.5,2.6,71.2,2.8,12.1,0.1,24.1-.4,36.2-0.2,3.5,0.1,7.1.6,10.6,0.5,7.1-.3,10.1-5.8,8.3-12.3-6.3-21.9-44.4-16.3-61.5-14.2-21.1,2.7-42,7.3-63.2,9v-0.6h1c3,0.2,3.4-3.8,1.2-5C951.6,11591.4,979.2,11583.5,1007.4,11583.6Z" transform="translate(-222.6 -11406.6)" style="fill:#262016"/><path d="M1046,11604.7c1.9,6.5-1.1,12-8.2,12.3-3.5.1-7.1-.4-10.6-0.5-12-.2-24.1.3-36.2,0.2-23.8-.2-47.5-1.2-71.2-2.8,0.3-4.8.9-9.5,1.6-14.3,21.2-1.7,42.1-6.4,63.2-9C1001.6,11588.4,1039.7,11582.8,1046,11604.7Z" transform="translate(-222.6 -11406.6)" style="fill:#538463"/><path d="M923.6,11594.1c2.2,1.2,1.8,5.2-1.2,5h-1l0.2-1.2-1.4,1.1-4.1-.2,0.4-2.4a2.7,2.7,0,0,1,2.6-2Z" transform="translate(-222.6 -11406.6)" style="fill:#262016"/><path d="M922.4,11593.7a2.7,2.7,0,0,1,1.2.4l-4.6.4a2.7,2.7,0,0,0-2.6,2l-0.4,2.4a60.8,60.8,0,0,0-9.5.4c-4.5.6-3.6,4.9-3.9,8.4s-0.3,4.6-.4,6.8h-1.9a2.2,2.2,0,0,0-2.6-2H897c0.2-3.1.4-6.1,0.6-9.2l1.3-.2c3.4-.4,3.4-5.8,0-5.4h-0.4a5.8,5.8,0,0,1,3.2-3C907.7,11592.2,916.1,11593.4,922.4,11593.7Z" transform="translate(-222.6 -11406.6)" style="fill:#262016"/><path d="M921.6,11597.8l-0.2,1.2h-1.3Z" transform="translate(-222.6 -11406.6)" style="fill:#262016"/><path d="M921.4,11599v0.6l-2.3.2,1.1-.9h1.3Z" transform="translate(-222.6 -11406.6)" style="fill:#262016"/><path d="M919,11599.8l2.3-.2c-0.7,4.8-1.2,9.5-1.6,14.3l-2.8-.2a2.4,2.4,0,0,0-1.7.5h-0.8c0.4-5.2.9-10.3,1.7-15.5l4.1,0.2Z" transform="translate(-222.6 -11406.6)" style="fill:#262016"/><path d="M919.7,11614.1c2.5,0.5,2.5,4.4,0,5.2l-2.9-.2-0.8-.2a2.8,2.8,0,0,0,3.5-2.5Q919.6,11615.2,919.7,11614.1Z" transform="translate(-222.6 -11406.6)" style="fill:#262016"/><path d="M916.9,11619.1l2.9,0.2H919c-6.5.4-13.1,0.1-19.6,0.5a2.7,2.7,0,0,1-2.6-2h1a2.8,2.8,0,0,0,2.5-2.3l1.7,1.7,0.2-2.8,12.1-.2v2.2a2.3,2.3,0,0,0,1.9,2.5Z" transform="translate(-222.6 -11406.6)" style="fill:#262016"/><path d="M916.9,11613.7l2.8,0.2a1.1,1.1,0,0,0,0,.2H919l-3.9.2A2.4,2.4,0,0,1,916.9,11613.7Z" transform="translate(-222.6 -11406.6)" style="fill:#262016"/><path d="M919.7,11614.1q-0.1,1.2-.1,2.3a2.8,2.8,0,0,1-3.5,2.5,2.9,2.9,0,0,1-.9-4.7l3.9-.2h0.7Z" transform="translate(-222.6 -11406.6)" style="fill:#262016"/><path d="M906.6,11599.2a60.8,60.8,0,0,1,9.5-.4c-0.8,5.1-1.3,10.3-1.7,15.5l-12.1.2q0.2-3.4.4-6.8C903,11604,902,11599.8,906.6,11599.2Z" transform="translate(-222.6 -11406.6)" style="fill:#52705a"/><path d="M914.4,11614.2h0.8a2.9,2.9,0,0,0,.9,4.7,2.3,2.3,0,0,1-1.9-2.5v-2.2Z" transform="translate(-222.6 -11406.6)" style="fill:#262016"/><path d="M902.3,11614.4l-0.2,2.8-1.7-1.7a3.4,3.4,0,0,0,0-1h1.9Z" transform="translate(-222.6 -11406.6)" style="fill:#262016"/><path d="M900.4,11614.5a3.4,3.4,0,0,1,0,1l-0.9-1h1Z" transform="translate(-222.6 -11406.6)" style="fill:#262016"/><path d="M900.4,11614.5h-1l0.9,1a2.8,2.8,0,0,1-2.5,2.3h-1a2,2,0,0,1-.1-0.7l0.3-4.7h0.8A2.2,2.2,0,0,1,900.4,11614.5Z" transform="translate(-222.6 -11406.6)" style="fill:#262016"/><path d="M899,11597.8c3.4-.4,3.4,4.9,0,5.4l-1.3.2v-0.6a14.4,14.4,0,0,1,.9-4.9H899Z" transform="translate(-222.6 -11406.6)" style="fill:#262016"/><path d="M898.6,11597.8a14.4,14.4,0,0,0-.9,4.9v0.6l-16.1,2.1c-5.1.7-14.6,0.3-18.3,5.2l-3.2-.7-2.5-.4c2.2-4.8,6.9-7.2,12.4-8Z" transform="translate(-222.6 -11406.6)" style="fill:#262016"/><path d="M881.5,11605.4l16.1-2.1c-0.2,3.1-.4,6.1-0.6,9.2a118.3,118.3,0,0,1-33.9-1.9C866.9,11605.7,876.5,11606.1,881.5,11605.4Z" transform="translate(-222.6 -11406.6)" style="fill:#ffc9a4"/><path d="M897,11612.5l-0.3,4.7a2,2,0,0,0,.1.7,123.8,123.8,0,0,1-38.2-2.8,2.7,2.7,0,0,1-1.9-3.3,14.5,14.5,0,0,1,.8-2.2l2.5,0.4,1.9,3.3a7.2,7.2,0,0,1,1.3-2.6A118.3,118.3,0,0,0,897,11612.5Z" transform="translate(-222.6 -11406.6)" style="fill:#262016"/><path d="M863.2,11610.6a7.2,7.2,0,0,0-1.3,2.6l-1.9-3.3Z" transform="translate(-222.6 -11406.6)" style="fill:#262016"/><path d="M983.9,11611.8a2.7,2.7,0,0,1-1.9,3.3,123.8,123.8,0,0,1-37.4,2.9,2.1,2.1,0,0,0,.1-0.7c-0.1-1.5-.2-3.1-0.3-4.6a118.8,118.8,0,0,0,33-2,7.2,7.2,0,0,1,1.3,2.6l1.9-3.3,2-1.4A13.7,13.7,0,0,1,983.9,11611.8Z" transform="translate(-222.6 -11406.6)" style="fill:#262016"/><path d="M982.6,11608.5l-2,1.4-3.2.7c-3.8-4.9-13.3-4.5-18.3-5.2l-15.3-2a18,18,0,0,0-.7-5.5c9.2,1.2,18.5,2,27.6,3.6C975.8,11602.5,980.2,11604.4,982.6,11608.5Z" transform="translate(-222.6 -11406.6)" style="fill:#262016"/><path d="M980.6,11609.9l-1.9,3.3a7.2,7.2,0,0,0-1.3-2.6Z" transform="translate(-222.6 -11406.6)" style="fill:#262016"/><path d="M959.1,11605.4c5.1,0.7,14.6.3,18.3,5.2a118.8,118.8,0,0,1-33,2c-0.2-2.7-.4-5.5-0.5-8.2v-1Z" transform="translate(-222.6 -11406.6)" style="fill:#ffc9a4"/><path d="M944.7,11617.2a2.1,2.1,0,0,1-.1.8h-1.9a2.7,2.7,0,0,1-2.3-1.7h0l1.6-1.6h-1.8a2.2,2.2,0,0,1,2.5-2h1.6C944.5,11614.1,944.6,11615.7,944.7,11617.2Z" transform="translate(-222.6 -11406.6)" style="fill:#262016"/><path d="M942.8,11617.8h1.9a2.7,2.7,0,0,1-2.6,1.9c-6.5-.4-13.1-0.1-19.6-0.5l4.9-.3,0.8-.2a2.3,2.3,0,0,0,1.9-2.5c0-.7-0.1-1.4-0.1-2.1h9.3l0.2,2.8,1.1-1.1A2.7,2.7,0,0,0,942.8,11617.8Z" transform="translate(-222.6 -11406.6)" style="fill:#262016"/><path d="M944.4,11612.6h-1.6a2.2,2.2,0,0,0-2.5,2h-1l-0.5-6.8c-0.2-3.4.7-8-3.9-8.4-2.2-.2-4.5-0.3-6.7-0.3l-0.4-2.4a2.7,2.7,0,0,0-2.6-2l-6.9-.6h0.7c7-.4,15.3-1.3,21.8,1.6a4.3,4.3,0,0,1,2.3,2.6l-1.5-.2c-3.4-.4-3.4,4.9,0,5.4l2.2,0.3v1C944.1,11607.1,944.2,11609.9,944.4,11612.6Z" transform="translate(-222.6 -11406.6)" style="fill:#262016"/><path d="M943.8,11603.4l-2.2-.3c-3.4-.4-3.4-5.8,0-5.4l1.5,0.2A18,18,0,0,1,943.8,11603.4Z" transform="translate(-222.6 -11406.6)" style="fill:#262016"/><path d="M942,11614.5l-1.6,1.6a3,3,0,0,1-.2-1.7H942Z" transform="translate(-222.6 -11406.6)" style="fill:#262016"/><path d="M940.4,11616.1h0l-1.1,1.1-0.2-2.8h1A3,3,0,0,0,940.4,11616.1Z" transform="translate(-222.6 -11406.6)" style="fill:#262016"/><path d="M938.7,11607.6l0.5,6.8h-9.3c-0.4-5.2-.9-10.3-1.7-15.4,2.2,0,4.5.1,6.7,0.3C939.4,11599.6,938.5,11604.1,938.7,11607.6Z" transform="translate(-222.6 -11406.6)" style="fill:#52705a"/><path d="M930,11616.4a2.3,2.3,0,0,1-1.9,2.5,2.9,2.9,0,0,0,1-4.6h0.8C929.9,11615,929.9,11615.7,930,11616.4Z" transform="translate(-222.6 -11406.6)" style="fill:#262016"/><path d="M929.8,11614.3h-0.8a2.4,2.4,0,0,0-1.8-.6l-2.8.2c-0.3-4.8-.9-9.5-1.6-14.3l2.3,0.2-1.2-.9h4.2C928.9,11604,929.5,11609.1,929.8,11614.3Z" transform="translate(-222.6 -11406.6)" style="fill:#262016"/><path d="M929.1,11614.3a2.9,2.9,0,0,1-1,4.6,2.8,2.8,0,0,1-3.5-2.5c0-.7-0.1-1.5-0.1-2.2h4.6Z" transform="translate(-222.6 -11406.6)" style="fill:#262016"/><path d="M927.8,11596.4l0.4,2.4H924l-1.4-1,0.2,1.1-3.7.2c-3.2.2-3.4-4.4-.7-5.2l6.9,0.6A2.7,2.7,0,0,1,927.8,11596.4Z" transform="translate(-222.6 -11406.6)" style="fill:#262016"/><path d="M927.3,11613.7a2.4,2.4,0,0,1,1.8.6h-4.6v-0.2Z" transform="translate(-222.6 -11406.6)" style="fill:#262016"/><path d="M924.6,11616.4a2.8,2.8,0,0,0,3.5,2.5l-0.8.2-4.9.3h0c-3.2-.2-3.4-4.8-0.7-5.3h2.7C924.5,11614.9,924.6,11615.6,924.6,11616.4Z" transform="translate(-222.6 -11406.6)" style="fill:#262016"/><path d="M924,11598.9l1.2,0.9-2.3-.2v-0.7H924Z" transform="translate(-222.6 -11406.6)" style="fill:#262016"/><path d="M924.5,11614.1h0v0.2Z" transform="translate(-222.6 -11406.6)" style="fill:#262016"/><path d="M924.5,11613.9h-2.7q-32.4,2.1-65,2.6c-11.1.2-22.3,0.1-33.4,0-8.8-.1-25.5,4.2-25.7-8.6-0.3-24.7,43.6-19.3,58.7-17.8,22.3,2.3,44.1,7.6,66.5,9.4C923.6,11604.4,924.1,11609.1,924.5,11613.9Z" transform="translate(-222.6 -11406.6)" style="fill:#538463"/><path d="M922.6,11597.8l1.4,1h-1.2Z" transform="translate(-222.6 -11406.6)" style="fill:#262016"/><path d="M922.8,11598.9v0.7c-22.4-1.9-44.2-7.1-66.5-9.4-15.1-1.5-59-6.9-58.7,17.8,0.1,12.8,16.9,8.5,25.7,8.6,11.1,0.2,22.3.2,33.4,0q32.5-.5,65-2.6c-2.8.5-2.5,5.1,0.7,5.3-29.8,2-59.7,2.9-89.6,2.7-6.5-.1-13.1-0.5-19.6-0.1-4.5.3-9,.8-13.4-0.6-6.4-2-7.9-9.6-7.4-15.4,2.1-22.1,30.9-22.9,47.6-22.3,26.4,1,52.1,7.5,78.3,10.2-2.7.8-2.4,5.4,0.7,5.2Z" transform="translate(-222.6 -11406.6)" style="fill:#262016"/><path d="M922.3,11614h0Z" transform="translate(-222.6 -11406.6)" style="fill:#262016"/><path d="M629,11606c14.4,22.8-24.1,20-36.5,20.2h-0.8c2.8-.6,5.3-1.8,5.6-4.6a3.2,3.2,0,0,0,0-.4c5.1-.1,10.3-0.2,15.4-0.5s19.2-.6,13.2-10.1c-3.8-6-10.5-9.1-17.6-9.3-12.6-.3-26.2,3.5-38.7,7l-2.6-1.1-1.4-.6a47.8,47.8,0,0,0,7.9-.7,48.5,48.5,0,0,0,20.1-8.3l4.9-.8C608.7,11595.1,622.9,11596.4,629,11606Z" transform="translate(-222.6 -11406.6)"/><path d="M625.9,11610.5c6,9.6-9.4,9.9-13.2,10.1s-10.2.4-15.4,0.5c0.4-9.4-15-10.6-22.8-9.6-0.9-1.5-3-2.6-5-3.4,12.5-3.5,26.1-7.3,38.7-7C615.4,11601.4,622.1,11604.5,625.9,11610.5Z" transform="translate(-222.6 -11406.6)" style="fill:#f9e073"/><path d="M608.9,11510.4c10.6,13,11.1,30.2,1.3,43.8a54.6,54.6,0,0,0-1.5-7.2c6.8-13.7,3.5-30.3-10.6-38.9a62.5,62.5,0,0,0-39.7-8.3c-15.1,1.7-34.1,6.5-41.8,21-6.2,11.7-5.2,24,.5,35h0a72.9,72.9,0,0,0,.7,10.2l-0.4-.5c-10.5-14-14.7-34.1-3.8-49.3s28-20.1,44.9-21.5S597.5,11496.5,608.9,11510.4Z" transform="translate(-222.6 -11406.6)"/><path d="M610.2,11554.2a49,49,0,0,1-2.3,24.5l-1.7-.6c0.7-1.5-.1-3.6-2.2-3.4h-0.1a51.4,51.4,0,0,0,1.4-18.3h0.3a2.1,2.1,0,0,0,1.2-.5,2.6,2.6,0,0,0,3-.9Z" transform="translate(-222.6 -11406.6)"/><path d="M610.2,11554.2l-0.5.6a2.6,2.6,0,0,1-3,.9c1.2-1,.6-3.3-0.9-4a32.4,32.4,0,0,0,2.8-4.7A54.6,54.6,0,0,1,610.2,11554.2Z" transform="translate(-222.6 -11406.6)"/><path d="M598.1,11508.1c14.1,8.6,17.4,25.2,10.6,38.9a55.2,55.2,0,0,0-3.6-9.5l-1.5-2.8a2.4,2.4,0,0,0-4.1-.2c-11.4-4.7-24.9-5.2-36.8-4.4-13.7,1-29.5,4.6-41.1,12.4a2.8,2.8,0,0,0-3.8,2.2,102.9,102.9,0,0,0-.6,11.1c-5.7-11-6.7-23.3-.5-35,7.7-14.6,26.7-19.3,41.8-21A62.5,62.5,0,0,1,598.1,11508.1Z" transform="translate(-222.6 -11406.6)" style="fill:#665930"/><path d="M607.9,11578.7v0.2a40.8,40.8,0,0,1-14.1,18.5c-5.3,1-10.7,2.2-16,3.5l-0.3-1.2c10.8-3,20.3-9.7,24.8-20.1H604a2.5,2.5,0,0,0,2.2-1.6Z" transform="translate(-222.6 -11406.6)"/><path d="M605.9,11551.7c1.5,0.8,2.1,3,.9,4a2.6,2.6,0,0,1-1.7-1.5v-0.7a2.2,2.2,0,0,1,.5-1.2Z" transform="translate(-222.6 -11406.6)"/><path d="M604,11574.6c2.1-.2,2.8,1.9,2.2,3.4a2.5,2.5,0,0,1-2.2,1.6h-1.8a33.6,33.6,0,0,0,1.4-4.1l0.2-.9H604Z" transform="translate(-222.6 -11406.6)"/><path d="M608.7,11547a32.4,32.4,0,0,1-2.8,4.7,2.5,2.5,0,0,0-1.3-.3,47.6,47.6,0,0,0-3.5-10.7l0.5,0.2c2.4,1.3,4.6-1.5,3.5-3.4h0.1A55.2,55.2,0,0,1,608.7,11547Z" transform="translate(-222.6 -11406.6)"/><path d="M606.8,11555.8a2.1,2.1,0,0,1-1.2.5h-0.3c-0.1-.7-0.2-1.4-0.3-2.1A2.6,2.6,0,0,0,606.8,11555.8Z" transform="translate(-222.6 -11406.6)"/><path d="M605.9,11551.7l-0.4.6a2.2,2.2,0,0,0-.5,1.3l-0.4-2.1A2.5,2.5,0,0,1,605.9,11551.7Z" transform="translate(-222.6 -11406.6)"/><path d="M605.3,11556.3a51.4,51.4,0,0,1-1.4,18.3c-6.4.5-9.3-5.4-7.8-11S601.4,11557,605.3,11556.3Z" transform="translate(-222.6 -11406.6)" style="fill:#dd553a"/><path d="M605.1,11554.2c0.1,0.7.2,1.4,0.3,2.1-4,.6-8.1,3.1-9.2,7.3s1.4,11.5,7.8,11l-0.2.9a33.6,33.6,0,0,1-1.4,4.1c-7.2-.4-11.9-6.8-11.6-14.1s6.8-13.1,13.6-14.1h0.3l0.4,2.1A1.7,1.7,0,0,0,605.1,11554.2Z" transform="translate(-222.6 -11406.6)"/><path d="M605,11537.5c1.1,1.9-1.1,4.8-3.5,3.4l-0.5-.2c-0.5-1.2-1.1-2.4-1.8-3.5a2.3,2.3,0,0,1,.2-2.7,44.5,44.5,0,0,1,4.6,2.2A2.5,2.5,0,0,1,605,11537.5Z" transform="translate(-222.6 -11406.6)"/><path d="M605.1,11537.5H605a2.5,2.5,0,0,0-.9-0.9,44.5,44.5,0,0,0-4.6-2.2,2.4,2.4,0,0,1,4.1.2Z" transform="translate(-222.6 -11406.6)"/><path d="M605,11553.5v0.7A1.7,1.7,0,0,1,605,11553.5Z" transform="translate(-222.6 -11406.6)"/><path d="M604.6,11551.4h-0.3c-6.9,1-13.4,6.8-13.6,14.1s4.3,13.7,11.6,14.1c-4.5,10.4-14,17.1-24.8,20.1a50.4,50.4,0,0,1-6.9,1.4c-12.7,1.7-26.4-2.3-35.9-11,5.8-2.9,9-10.2,7.7-16.5-1.8-9.2-12.2-11.9-19.9-8.8a85.3,85.3,0,0,1,0-16.8c11.1-8.2,26.6-11.5,40.2-12.9s27.3-.4,38.4,5.6A47.6,47.6,0,0,1,604.6,11551.4Zm-15.2-1.4c3-1.1,1.7-5.9-1.3-4.8s-8.2,1.8-10.4-1.1-6.3,0-4.3,2.5C577,11551.6,583.9,11552,589.4,11550.1Zm-12.7,39.3a8.2,8.2,0,0,0,1.4-10.8l-0.2-.3h0v-0.2a7.3,7.3,0,0,0-10.7-.5c-2.5,2.5-2.5,6.8-.7,9.8A7.1,7.1,0,0,0,576.6,11589.4Zm-6.4-21.9c2-2.5-1.5-6-3.5-3.5-0.7.9-3.9,4-4,1.3s0.8-2.6,1.3-3.7a10.6,10.6,0,0,0,.7-3.6c0.1-3.2-5-3.2-5,0s-1.5,4.2-1.8,6.5a6.6,6.6,0,0,0,1.7,5.5C562.6,11573.3,567.9,11570.2,570.2,11567.4Zm-19-16.9c1.9-2.6-2.5-5.1-4.3-2.5s-6.6,2.8-9.9,1.3-5.5,3-2.5,4.3C540.4,11556.3,547.1,11556.2,551.2,11550.5Z" transform="translate(-222.6 -11406.6)" style="fill:#ffd6bb"/><path d="M599.3,11537.2c0.6,1.2,1.3,2.3,1.8,3.5-11.1-6-26.1-6.9-38.4-5.6s-29,4.7-40.2,12.9c0.1-1.1.2-2.2,0.3-3.3a2,2,0,0,0-1.2-2.2c11.6-7.8,27.4-11.5,41.1-12.4,11.9-.8,25.5-0.4,36.8,4.4A2.3,2.3,0,0,0,599.3,11537.2Z" transform="translate(-222.6 -11406.6)"/><path d="M586.9,11617.3l-3.1-.8a25.5,25.5,0,0,0-8.6,0,14.1,14.1,0,0,0-.3-4.2l-0.3-.7c7.8-1,23.2.2,22.8,9.6h-4.8a2.3,2.3,0,0,0-2,1l-0.2-1h0.4C594.2,11620.3,586.7,11617.3,586.9,11617.3Z" transform="translate(-222.6 -11406.6)"/><path d="M597.4,11621.1a3.2,3.2,0,0,1,0,.4c-0.2,2.7-2.8,4-5.6,4.6a2.6,2.6,0,0,1-1.2-3.9,2.3,2.3,0,0,1,2-1h4.8Z" transform="translate(-222.6 -11406.6)"/><path d="M586.9,11617.3c-0.2,0,7.4,3,3.8,3.9h-0.4a49.5,49.5,0,0,1-16.3.8,16.9,16.9,0,0,0,1.2-5.6,25.5,25.5,0,0,1,8.6,0Z" transform="translate(-222.6 -11406.6)" style="fill:#ffd6bb"/><path d="M590.3,11621.2l0.2,1a2.6,2.6,0,0,0,1.2,3.9,38,38,0,0,1-6.3.6c-5.3.3-11.3,0.7-16.5-.6h0.8c2.1-.3,3.5-1.9,4.3-4A49.5,49.5,0,0,0,590.3,11621.2Z" transform="translate(-222.6 -11406.6)"/><path d="M588.1,11545.2c3.1-1.1,4.4,3.8,1.3,4.8-5.5,1.9-12.4,1.5-16.1-3.4-2-2.6,2.4-5.1,4.3-2.5S585.1,11546.3,588.1,11545.2Z" transform="translate(-222.6 -11406.6)"/><path d="M577.7,11601c5.3-1.3,10.7-2.6,16-3.5a48.5,48.5,0,0,1-20.1,8.3,47.8,47.8,0,0,1-7.9.8l-3.4-1.5,0.5-.2Z" transform="translate(-222.6 -11406.6)"/><path d="M578.1,11578.6a8.2,8.2,0,0,1-1.4,10.8,7.1,7.1,0,0,1-10.4-2c-1.8-2.9-1.8-7.2.7-9.8a7.3,7.3,0,0,1,10.7.5v0.2c-1.9-2.1-5.8.3-4.1,2.8v0.2c-2.4-2.5-5.2.9-3.3,3.5,0.8,1.1,2.2,1.6,3.2.5a3.2,3.2,0,0,0,.2-3.9l0.3,0.3c2,2.5,5.4-.9,3.7-3.3Z" transform="translate(-222.6 -11406.6)"/><path d="M577.8,11578.3c1.7,2.5-1.7,5.8-3.7,3.3l-0.2-.3h0v-0.2c-1.7-2.6,2.1-5,4.1-2.8h0Z" transform="translate(-222.6 -11406.6)"/><path d="M577.4,11599.7l0.3,1.2-15,3.9-0.5.2c-3.3-1.4-6.7-2.6-10-3.8a129.8,129.8,0,0,0-18.8-5.2,35.1,35.1,0,0,1-4.6-4.5l-0.6-.7,0.2-.2a2.1,2.1,0,0,0,1.9.7,11.6,11.6,0,0,0,4.3-1.2c9.5,8.7,23.2,12.7,35.9,11A50.4,50.4,0,0,0,577.4,11599.7Z" transform="translate(-222.6 -11406.6)"/><path d="M574.9,11612.2a14.1,14.1,0,0,1,.3,4.2l-1.4.3c-3.2.7-4.5-4.1-1.3-4.8l2.1-.3Z" transform="translate(-222.6 -11406.6)"/><path d="M573.8,11616.7l1.4-.3a16.9,16.9,0,0,1-1.2,5.6,30.2,30.2,0,0,1-4.3-.8H569v-1.1a2.2,2.2,0,0,0,.7-1.3c0.8-5.6-.4-5.2-5.1-7.4l-2.5-1.1,0.4-.8a2.4,2.4,0,0,0,1.7.1l5.5-1.5c1.9,0.8,4.1,1.9,5,3.4l-2.1.3C569.3,11612.6,570.7,11617.4,573.8,11616.7Z" transform="translate(-222.6 -11406.6)"/><path d="M573.9,11581.4a3.2,3.2,0,0,1-.2,3.9c-0.9,1.1-2.4.6-3.2-.5-1.9-2.6,1-5.9,3.3-3.5h0Z" transform="translate(-222.6 -11406.6)" style="fill:#f48f7d"/><path d="M569.8,11621.2a30.2,30.2,0,0,0,4.3.8c-0.9,2.1-2.3,3.8-4.3,4h-1.3c-2.8-.8-2-4.8.5-4.9h0.8Z" transform="translate(-222.6 -11406.6)"/><path d="M566.7,11563.9c2.1-2.5,5.6,1.1,3.5,3.5s-7.6,5.9-10.7,2.5a6.6,6.6,0,0,1-1.7-5.5c0.3-2.3,1.8-4.2,1.8-6.5s5.1-3.2,5,0a10.6,10.6,0,0,1-.7,3.6c-0.4,1.1-1.3,2.5-1.2,3.7S566,11564.8,566.7,11563.9Z" transform="translate(-222.6 -11406.6)"/><path d="M564.5,11611.4c4.7,2.1,5.8,1.8,5.1,7.4a2.2,2.2,0,0,1-.7,1.3c-3.7,3.5-20.4,1.5-23.5,1.3-13.9-.8-27.7-3.3-41.4-5.4-6.9-1.1-12.2-6.8-4.6-11.9,3.9-2.7,9.4-3.7,14-4.2,13.5-1.5,27.8,2.8,40.4,7.2,2.8,1,5.5,2.1,8.2,3.3Z" transform="translate(-222.6 -11406.6)" style="fill:#f9e073"/><path d="M568.9,11620.1v1.1c-2.5.1-3.3,4.2-.5,4.9H569c-21.8,2.9-44.8-2.1-66.3-5.4,3.2,0.5,4.5-4.3,1.3-4.8,13.7,2.1,27.5,4.6,41.4,5.4C548.5,11621.6,565.2,11623.6,568.9,11620.1Z" transform="translate(-222.6 -11406.6)"/><path d="M567,11607.1l2.6,1.1-5.5,1.5a2.4,2.4,0,0,1-1.7-.1,2.7,2.7,0,0,1-1.3-3.2h4.6Z" transform="translate(-222.6 -11406.6)"/><path d="M565.7,11606.5h-4.6a2.2,2.2,0,0,1,1.2-1.3Z" transform="translate(-222.6 -11406.6)"/><path d="M562.4,11609.5l-0.4.8c-2.7-1.2-5.4-2.3-8.2-3.3-12.6-4.4-26.9-8.8-40.4-7.2-4.6.5-10.1,1.5-14,4.2-7.6,5.1-2.2,10.8,4.6,11.9-3.2-.5-4.5,4.3-1.3,4.8-4.8-.8-12.6-2.6-12.8-8.9s3.2-10.6,8.6-13.1c10.9-5,23.2-5,35-2.8,7.6,6.2,17.7,9.6,27.7,10.3A2.7,2.7,0,0,0,562.4,11609.5Z" transform="translate(-222.6 -11406.6)"/><path d="M562.3,11605a2.2,2.2,0,0,0-1.2,1.3c-10-.7-20.1-4.2-27.7-10.3a129.8,129.8,0,0,1,18.8,5.2C555.6,11602.4,559,11603.6,562.3,11605Z" transform="translate(-222.6 -11406.6)"/><path d="M546.9,11548c1.9-2.6,6.2-.1,4.3,2.5-4.1,5.7-10.8,5.8-16.7,3.1-2.9-1.3-.4-5.7,2.5-4.3S544.5,11551.3,546.9,11548Z" transform="translate(-222.6 -11406.6)"/><path d="M542.4,11573.6c1.3,6.3-2,13.6-7.7,16.5a37.4,37.4,0,0,1-3.7-3.9c4.9-1,8.4-8.6,6-12.9s-7.9-6.1-12.7-3.8l-1,.3c-0.3-1.6-.6-3.3-0.8-4.9C530.1,11561.8,540.6,11564.5,542.4,11573.6Z" transform="translate(-222.6 -11406.6)"/><path d="M537,11573.4c2.4,4.3-1.1,11.9-6,12.9l-1.1-1.4a37.7,37.7,0,0,1-6.6-15.1l1-.2C529.1,11567.2,534.3,11568.6,537,11573.4Z" transform="translate(-222.6 -11406.6)" style="fill:#dd553a"/><path d="M531,11586.3a37.4,37.4,0,0,0,3.7,3.9,11.6,11.6,0,0,1-4.3,1.2,2.1,2.1,0,0,1-1.9-.7,2.7,2.7,0,0,1,1.9-4.3H531Z" transform="translate(-222.6 -11406.6)"/><path d="M531,11586.3h-0.6a2.7,2.7,0,0,0-1.9,4.3l-0.2.2c-6.1-7.4-9.2-15.9-10.4-24.9a4.8,4.8,0,0,1,5.5,3.8,37.7,37.7,0,0,0,6.6,15.1Z" transform="translate(-222.6 -11406.6)"/><path d="M523.3,11569.8a2.7,2.7,0,0,1-2.7-3.4,2.6,2.6,0,0,0,1.4-1.3l0.5-.2C522.7,11566.5,523,11568.1,523.3,11569.8Z" transform="translate(-222.6 -11406.6)"/><path d="M521.6,11542.5a2,2,0,0,1,1.2,2.2c-0.1,1.1-.2,2.2-0.3,3.3l-0.3.2c-2.6,1.9-5.1-2.4-2.5-4.3Z" transform="translate(-222.6 -11406.6)"/><path d="M522.5,11564.8l-0.5.2a2,2,0,0,0-.3-2.1,53.3,53.3,0,0,1-4.5-7.2h0a102.9,102.9,0,0,1,.6-11.1,2.8,2.8,0,0,1,3.8-2.2l-2,1.4c-2.6,1.9-.1,6.3,2.5,4.3l0.3-.2A85.3,85.3,0,0,0,522.5,11564.8Z" transform="translate(-222.6 -11406.6)"/><path d="M521.7,11563a2,2,0,0,1,.3,2.1h-0.3a2.1,2.1,0,0,0-1.1,1.1,2.7,2.7,0,0,1-2.8-.4,72.9,72.9,0,0,1-.7-10.2A53.3,53.3,0,0,0,521.7,11563Z" transform="translate(-222.6 -11406.6)"/><path d="M521.7,11565.2H522a2.6,2.6,0,0,1-1.4,1.3A2.1,2.1,0,0,1,521.7,11565.2Z" transform="translate(-222.6 -11406.6)"/><path d="M504,11616c3.2,0.5,1.8,5.4-1.3,4.8S500.8,11615.5,504,11616Z" transform="translate(-222.6 -11406.6)"/><path d="M772.3,11600.1c3.9,2.6,8.5,7.5,6.9,12.9s-7.1,7.3-12.7,8.3c3.2-.5,1.8-5.3-1.3-4.8,2.8-.5,11.2-1.4,8.9-7.1a11,11,0,0,0-5.9-5.8,36.6,36.6,0,0,0-12.4-3.3c-12.3-.8-24.9,1.8-36.6,5.8l-0.2-.7a40.7,40.7,0,0,0,13.6-8.2C745.9,11594.1,761.3,11592.6,772.3,11600.1Z" transform="translate(-222.6 -11406.6)"/><path d="M774,11609.3c2.3,5.7-6.1,6.6-8.9,7.1-13.8,2.1-27.5,4.4-41.4,5.4a164.1,164.1,0,0,1-18.7.2,7.9,7.9,0,0,1-3.2-.8c-3.6-1.7-4.1-6,0-8.1a138.6,138.6,0,0,1,13.5-5.7l3.9-1.4c11.7-4,24.3-6.7,36.6-5.8a36.6,36.6,0,0,1,12.4,3.3A11,11,0,0,1,774,11609.3Z" transform="translate(-222.6 -11406.6)" style="fill:#f9e073"/><path d="M764.7,11549.5c0.8,2.9,6.4,7.6,5.1,11.1a16.9,16.9,0,0,1-4.9,6.7c-4.9,4.5-11.2,11.2-18.4,10.4l-1.1-.4c0.5-1.5,1-3.1,1.4-4.6,5.6,0.3,13.6-7.3,16.9-11.4,1.3-1.7-2.8-6.6-3.3-8.2-1-3.2-1.8-6.5-3-9.7-6.5-18-18-35.8-38-40.5-17.8-4.2-37.8-.2-51.6,12.4-6.8,6.2-12.2,13.5-17.2,21.3-3.3,5.1-7.2,8-1.1,12.7,2.1,1.6,4.2,3.4,6.4,4.8a52.2,52.2,0,0,0-.5,5.6c-5.1-2.8-17.1-10.8-14.6-16.8,4.3-10.2,13.4-22,21.7-29.5,16-14.5,39.7-21.8,60.7-14.6C746.4,11506.6,758.2,11527.2,764.7,11549.5Z" transform="translate(-222.6 -11406.6)"/><path d="M765.1,11616.4c3.2-.5,4.5,4.3,1.3,4.8S761.9,11616.9,765.1,11616.4Z" transform="translate(-222.6 -11406.6)"/><path d="M765.1,11616.4c-3.2.5-1.8,5.4,1.3,4.8-12.1,1.9-24.3,4-36.5,5.1a179.5,179.5,0,0,1-18.7.9c-3.2,0-8,.6-11.4-0.5l0.8-.2c2.3-.6,2.2-3.3.8-4.4l0.4-.8a7.9,7.9,0,0,0,3.2.8,164.1,164.1,0,0,0,18.7-.2C737.6,11620.8,751.3,11618.5,765.1,11616.4Z" transform="translate(-222.6 -11406.6)"/><path d="M760.5,11553c0.5,1.7,4.6,6.6,3.3,8.3-3.2,4.1-11.3,11.7-16.9,11.4a54.5,54.5,0,0,0,.8-23.3c-0.4-2-2.4-2.2-3.7-1.3a95.6,95.6,0,0,0-10.3-7.2,33,33,0,0,0-7-3.4c-2-.7-3-5-3.6-8l-0.4-2.4c-0.3-2-2.9-2.3-4.2-1.1-4.2,3.9-6.5,6.7-12.7,5a71.5,71.5,0,0,0-12.4-1.8c-8.8-.8-17.5-1.1-26.1,1.1-1.1-1.2-3.1-1.5-3.9.3a84.7,84.7,0,0,0-7.5,23.4c-2.2-1.5-4.3-3.2-6.4-4.8-6.1-4.7-2.2-7.6,1.1-12.7,5-7.7,10.4-15.1,17.2-21.3,13.8-12.5,33.7-16.6,51.6-12.4,19.9,4.7,31.4,22.5,38,40.5C758.7,11546.5,759.6,11549.8,760.5,11553Z" transform="translate(-222.6 -11406.6)" style="fill:#665930"/><path d="M747.7,11549.3a54.5,54.5,0,0,1-.8,23.3h-0.3c-2.8-.3-3.1,3.4-1.1,4.6a48.6,48.6,0,0,1-13.1,19.9c-4.6,1-8.9,2.3-12.7,3.5a135.2,135.2,0,0,0-12.9,4.8l-0.5-.2-13.5-3.5,0.2-.6a45.3,45.3,0,0,0,5,1c12.6,1.7,25.3-1.4,33.8-10.6l1.9,0.6c3.1,0.8,4.4-4,1.4-4.8l0.5-.8a53.4,53.4,0,0,0,6.7-16c3,0.3,4.2-4.3,1.1-4.9h-0.2a46.7,46.7,0,0,0,.2-11.2l0.5,0.5c2.2,2.4,5.7-1.2,3.5-3.5a36.4,36.4,0,0,0-3.5-3.4C745.3,11547.1,747.4,11547.3,747.7,11549.3Z" transform="translate(-222.6 -11406.6)"/><path d="M747.5,11551.4c2.2,2.4-1.4,5.9-3.5,3.5l-0.5-.5c-0.1-1.3-.3-2.5-0.5-3.8a2.6,2.6,0,0,1,1.1-2.6A36.4,36.4,0,0,1,747.5,11551.4Z" transform="translate(-222.6 -11406.6)"/><path d="M746.6,11572.6h0.3c-0.4,1.6-.9,3.1-1.4,4.6C743.5,11576.1,743.8,11572.3,746.6,11572.6Z" transform="translate(-222.6 -11406.6)"/><path d="M743.5,11565.7c3.1,0.6,1.9,5.2-1.1,4.9a47.2,47.2,0,0,0,.9-4.9h0.2Z" transform="translate(-222.6 -11406.6)"/><path d="M743.4,11554.4a46.7,46.7,0,0,1-.2,11.2,16.1,16.1,0,0,0-17.6,8.4,12.7,12.7,0,0,0,6.1,17.5c-8.5,9.2-21.2,12.3-33.8,10.6a45.3,45.3,0,0,1-5-1,47.6,47.6,0,0,1-28.1-20.8l-0.5-.9c6.7-.8,12.2-7.1,12.9-13.8,0.9-8.8-7.9-14.8-15.9-14.1a83.8,83.8,0,0,1,5.4-15.9c11.6-3.7,26.1-2.8,37.9.1,6.9,1.7,9.9.4,14.1-3.2,0.8,3.7,2.2,8.1,4.8,9A51,51,0,0,1,743.4,11554.4Zm-18.1,6.2a2.5,2.5,0,0,0,1.7-3.1,2.6,2.6,0,0,0-3.1-1.7,7.6,7.6,0,0,1-6.7-2.7c-2.1-2.4-5.6,1.1-3.5,3.5A12.6,12.6,0,0,0,725.3,11560.6Zm-13.3,22c2.5-1.9,0-6.3-2.5-4.3-5.4,4.1-15.7,3.3-20.7-1.4-2.4-2.2-5.9,1.3-3.5,3.5C691.8,11586.5,704.8,11588.2,712.1,11582.6Zm-6.3-13.1c2.8-1.7.2-6-2.5-4.3s-5.5,2.3-3.6-.8,3-3.4,3.8-5.7-3.8-4.4-4.8-1.3-2.6,3.3-3.6,5.1-1.4,4.5-.2,6.2C697.3,11572.4,702.2,11571.7,705.7,11569.5Zm-13.9-18.7c3.1-.9,1.8-5.7-1.3-4.8a9,9,0,0,1-8.2-1.6c-2.5-2-6,1.5-3.5,3.5A14.3,14.3,0,0,0,691.8,11550.8Z" transform="translate(-222.6 -11406.6)" style="fill:#ffd6bb"/><path d="M742.9,11550.7c0.2,1.3.4,2.5,0.5,3.8a51,51,0,0,0-19.9-12.9c-2.6-.9-4-5.3-4.8-9l3.4-3.1h1c0.5,3,1.6,7.3,3.6,8a33,33,0,0,1,7,3.4,95.6,95.6,0,0,1,10.3,7.3A2.6,2.6,0,0,0,742.9,11550.7Z" transform="translate(-222.6 -11406.6)"/><path d="M743.3,11565.7a47.2,47.2,0,0,1-.9,4.9h-0.2c-4.1-.8-9.4.8-11.5,4.8s-1.4,10.7,4.4,12.1h0.1a32,32,0,0,1-3.3,4.2,12.7,12.7,0,0,1-6.1-17.5A16.1,16.1,0,0,1,743.3,11565.7Z" transform="translate(-222.6 -11406.6)"/><path d="M742.1,11570.5h0.2a53.4,53.4,0,0,1-6.7,16l-0.5.8H735c-5.8-1.4-6.9-7.3-4.4-12.1S738,11569.7,742.1,11570.5Z" transform="translate(-222.6 -11406.6)" style="fill:#dd553a"/><path d="M735.1,11587.4c3,0.8,1.7,5.6-1.4,4.8l-1.9-.6A32,32,0,0,0,735.1,11587.4Z" transform="translate(-222.6 -11406.6)"/><path d="M727.1,11557.5a2.5,2.5,0,0,1-1.7,3.1,12.6,12.6,0,0,1-11.6-4c-2.1-2.4,1.4-6,3.5-3.5a7.6,7.6,0,0,0,6.7,2.7A2.6,2.6,0,0,1,727.1,11557.5Z" transform="translate(-222.6 -11406.6)"/><path d="M723.2,11529.4h-1l-4.2-1.1c0.2,1,.4,2.5.8,4.2-4.2,3.6-7.2,4.9-14.1,3.2-11.7-2.9-26.2-3.7-37.9-.1l1.2-2.6a2.5,2.5,0,0,0-.4-2.9c8.5-2.3,17.3-2,26.1-1.1a71.5,71.5,0,0,1,12.4,1.8c6.2,1.7,8.5-1.1,12.7-5,1.3-1.2,3.8-.9,4.2,1.1Z" transform="translate(-222.6 -11406.6)"/><path d="M718,11528.4l4.2,1.1-3.4,3.1C718.4,11530.9,718.1,11529.3,718,11528.4Z" transform="translate(-222.6 -11406.6)"/><path d="M719.7,11600.7c3.9-1.2,8.2-2.4,12.7-3.5a40.7,40.7,0,0,1-13.6,8.2,40.3,40.3,0,0,1-10.8,2.2,2.3,2.3,0,0,0-1.3-2.2A135.2,135.2,0,0,1,719.7,11600.7Z" transform="translate(-222.6 -11406.6)"/><path d="M718.9,11605.4l0.3,0.7-3.9,1.4a138.6,138.6,0,0,0-13.5,5.7c-4.1,2.1-3.6,6.4,0,8.1l-0.4.8a2.3,2.3,0,0,0-2.1-.4,25.4,25.4,0,0,1-4,.7,14.4,14.4,0,0,1-1.6-5.6l1.6,0.3c3.1,0.7,4.5-4.1,1.3-4.8l-2.1-.3a10.1,10.1,0,0,1,4.5-3.4l6,1.5a2.5,2.5,0,0,0,3.1-2.5A40.3,40.3,0,0,0,718.9,11605.4Z" transform="translate(-222.6 -11406.6)"/><path d="M709.5,11578.3c2.6-2,5,2.4,2.5,4.3-7.3,5.6-20.2,3.9-26.8-2.2-2.4-2.2,1.2-5.7,3.5-3.5C693.9,11581.6,704.1,11582.4,709.5,11578.3Z" transform="translate(-222.6 -11406.6)"/><path d="M706.8,11605.4a2.3,2.3,0,0,1,1.3,2.2,42.9,42.9,0,0,1-6.6-.1l3.3-1.3Z" transform="translate(-222.6 -11406.6)"/><path d="M706.3,11605.3l0.5,0.2-2,.8-3.3,1.3h0l-2.5-.3a58.4,58.4,0,0,1-25.1-9.7c6.3,1.2,12.6,2.7,18.9,4.2Z" transform="translate(-222.6 -11406.6)"/><path d="M701.5,11607.6a42.9,42.9,0,0,0,6.6.1,2.5,2.5,0,0,1-3.1,2.5l-6-1.5,2.5-1h0Z" transform="translate(-222.6 -11406.6)"/><path d="M703.2,11565.2c2.8-1.7,5.3,2.6,2.5,4.3s-8.4,2.9-11-1c-1.2-1.7-.7-4.5.3-6.2s3-3.1,3.6-5.1,5.9-1.7,4.8,1.3-2.6,3.7-3.8,5.7S701.8,11566,703.2,11565.2Z" transform="translate(-222.6 -11406.6)"/><path d="M701.4,11622c1.4,1.1,1.5,3.8-.8,4.4l-0.8.2-1.1-.4a8.9,8.9,0,0,1-3.5-3.9,25.4,25.4,0,0,0,4-.7A2.3,2.3,0,0,1,701.4,11622Z" transform="translate(-222.6 -11406.6)"/><path d="M699,11607.3l2.5,0.3-2.5,1-12.1-2.8c-9.8-2.4-21-6.3-31.1-3.5-3.7,1-7.7,2.3-10.3,5.4-4.2,3.8-5.5,11.5,2.5,12.5a85.8,85.8,0,0,0,10.4,1l13.4,0.4a3.4,3.4,0,0,0,0,.4c0.3,2.9,3,4,5.7,4.5h-0.9c-10.7-.2-22.1.4-32.6-2.3-8.8-2.3-8.4-12.5-3.5-18.4,8.1-9.6,21.3-10.7,33-8.4h0.4A58.4,58.4,0,0,0,699,11607.3Z" transform="translate(-222.6 -11406.6)"/><path d="M698.8,11626.2l1.1,0.4c-5.7,1.4-12.5,1-18.2.4l-4.1-.5c2.3-.8,1.9-4.8-0.9-4.9l1.6-.7c0.2,0.5,1.2.9,3.5,1.1a76.9,76.9,0,0,0,13.6.3A8.9,8.9,0,0,0,698.8,11626.2Z" transform="translate(-222.6 -11406.6)"/><path d="M696.6,11612.3c3.2,0.7,1.8,5.5-1.3,4.8l-1.6-.3a8.1,8.1,0,0,1,.8-4.8h0.1Z" transform="translate(-222.6 -11406.6)"/><path d="M699,11608.6a10.1,10.1,0,0,0-4.5,3.4c-7.8-1-23.2.2-22.8,9.6l-13.4-.4a85.8,85.8,0,0,1-10.4-1c-8-1-6.7-8.7-2.5-12.5,2.6-3.1,6.6-4.4,10.3-5.4,10.1-2.8,21.3,1.1,31.1,3.5Z" transform="translate(-222.6 -11406.6)" style="fill:#f9e073"/><path d="M694.5,11612h-0.1a8.1,8.1,0,0,0-.8,4.8,21.8,21.8,0,0,0-9.9.4c-2.1.6-6.1,2.5-5.5,3.7l-1.6.7h-4.8C671.3,11612.2,686.7,11611,694.5,11612Z" transform="translate(-222.6 -11406.6)"/><path d="M693.6,11616.8a14.4,14.4,0,0,0,1.6,5.6,76.9,76.9,0,0,1-13.6-.3c-2.2-.2-3.2-0.6-3.5-1.1s3.4-3.1,5.5-3.7A21.8,21.8,0,0,1,693.6,11616.8Z" transform="translate(-222.6 -11406.6)" style="fill:#ffd6bb"/><path d="M693,11601.2l-0.2.6c-6.3-1.5-12.6-3-18.9-4.2a41.5,41.5,0,0,1-14.5-17c-0.4-.9-0.8-1.8-1.1-2.7h0.2a2.2,2.2,0,0,0,1.7,1.5,11.8,11.8,0,0,0,4.2.2l0.5,0.9A47.6,47.6,0,0,0,693,11601.2Z" transform="translate(-222.6 -11406.6)"/><path d="M690.5,11546c3.1-.9,4.4,4,1.3,4.8a14.3,14.3,0,0,1-13-2.9c-2.5-2,1.1-5.6,3.5-3.5A9,9,0,0,0,690.5,11546Z" transform="translate(-222.6 -11406.6)"/><path d="M676.6,11621.6c2.9,0,3.2,4,.9,4.9s-5.5-1.6-5.7-4.5a3.4,3.4,0,0,1,0-.4h4.8Z" transform="translate(-222.6 -11406.6)"/><path d="M661.4,11551.6c7.9-.6,16.7,5.4,15.9,14.1-0.7,6.7-6.2,13-12.9,13.8a29.9,29.9,0,0,1-2.3-5c5.1,0.7,10.8-5.1,10.1-10.1s-5.9-8.4-11.3-7.8h-0.4C660.7,11554.9,661,11553.3,661.4,11551.6Z" transform="translate(-222.6 -11406.6)"/><path d="M672.2,11564.4c0.7,5-5,10.8-10.1,10.1a38.3,38.3,0,0,1-1.6-17.9H661C666.3,11556,671.5,11558.7,672.2,11564.4Z" transform="translate(-222.6 -11406.6)" style="fill:#dd553a"/><path d="M667.5,11530.2a2.5,2.5,0,0,1,.4,2.9l-1.2,2.6h-0.2c-3.1,1-4.4-3.8-1.3-4.8Z" transform="translate(-222.6 -11406.6)"/><path d="M666.5,11535.7h0.2a83.8,83.8,0,0,0-5.4,15.9H661a2.8,2.8,0,0,0-2,4.1l-2.9-1.7a84.7,84.7,0,0,1,7.5-23.4c0.9-1.8,2.9-1.5,3.9-.3l-2.3.7C662.2,11531.9,663.5,11536.7,666.5,11535.7Z" transform="translate(-222.6 -11406.6)"/><path d="M664.4,11579.5a11.8,11.8,0,0,1-4.2-.2,2.2,2.2,0,0,1-1.7-1.5,2.6,2.6,0,0,1,3-3.3h0.6A29.9,29.9,0,0,0,664.4,11579.5Z" transform="translate(-222.6 -11406.6)"/><path d="M662.1,11574.5h-0.6a2.6,2.6,0,0,0-3,3.3h-0.2a45.6,45.6,0,0,1-2.7-18.3l1.1,0.6c2.5,1.3,4.7-1.8,3.4-3.6h0.6A38.3,38.3,0,0,0,662.1,11574.5Z" transform="translate(-222.6 -11406.6)"/><path d="M661,11551.6h0.4c-0.4,1.7-.7,3.4-0.9,5H660a2.4,2.4,0,0,0-.9-0.7h-0.2A2.8,2.8,0,0,1,661,11551.6Z" transform="translate(-222.6 -11406.6)"/><path d="M660,11556.5c1.4,1.8-.9,4.9-3.4,3.6l-1.1-.6a52.2,52.2,0,0,1,.5-5.6l2.9,1.7A1.8,1.8,0,0,0,660,11556.5Z" transform="translate(-222.6 -11406.6)"/><path d="M659.1,11555.8a2.4,2.4,0,0,1,.9.7,1.8,1.8,0,0,1-1-.8h0.2Z" transform="translate(-222.6 -11406.6)"/></svg>