<?xml version="1.0" encoding="utf-8"?>
<!-- Generator: Adobe Illustrator 19.2.1, SVG Export Plug-In . SVG Version: 6.00 Build 0)  -->
<svg version="1.1" id="ff3a2deb-4126-4e72-a0ba-26f061c3234d"
	 xmlns="http://www.w3.org/2000/svg" xmlns:xlink="http://www.w3.org/1999/xlink" x="0px" y="0px" viewBox="0 0 729.9 708.1"
	 style="enable-background:new 0 0 729.9 708.1;" xml:space="preserve">
<style type="text/css">
	.st0{clip-path:url(#SVGID_2_);}
	.st1{fill:#262016;}
	.st2{fill:#FFC9A4;}
	.st3{fill:#54618C;}
	.st4{fill:#1B1D21;}
	.st5{fill:#3F261D;}
	.st6{fill:#41444C;}
	.st7{fill:#DD553A;}
	.st8{fill:#414E72;}
	.st9{fill:#F48F7D;}
	.st10{fill:#538463;}
	.st11{fill:#564642;}
	.st12{fill:#323533;}
	.st13{fill:#5E3326;}
	.st14{fill:#EADEC7;}
	.st15{fill:#52705A;}
</style>
<title>scene9-main</title>
<g>
	<defs>
		<rect id="SVGID_1_" x="-534.7" y="-11.9" width="1280" height="720"/>
	</defs>
	<clipPath id="SVGID_2_">
		<use xlink:href="#SVGID_1_"  style="overflow:visible;"/>
	</clipPath>
	<g class="st0">
		<path class="st1" d="M462.8,782.8c1.2,8.3,3.5,25.1-3,32.2c-12.4,13.5-20.1-10.9-24.3-28.8c-1.5,2.2-3.7,3.1-7.2,1.1
			c-10.6-6.2-9-25.8-8.5-37.3c-2.9,0-5.7-0.7-8.2-2c-6.9-4.1-8.3-20.9-10-27.8c-7.6-32.1-14.3-64.2-25-95.5
			c-5-14.6-9.9-29.3-14.8-44c1.2,17.3,1.3,34.7,1.9,51.6c0.8,25,2.8,50.9,0.9,75.9c5.1,21.1,9.3,43.6,9,65.4
			c-0.5,30.8-3.1,61.6-3.9,92.4c-0.9,33.3-2.1,66.6-3.4,99.8l-7.8-0.3c0.2-5.5,0.4-10.9,0.6-16.4c1.5-43.6,2-87.2,3.9-130.7
			c0.9-20.6,3.4-41.3,1.4-61.8c-1.4-14.1-3.7-28.1-6.9-41.9c-11.8,5.4-25.3,8.1-38.9,9.5l-0.9-7.9c13.7-1.4,27.2-4.3,38.7-10.2
			c1.7-24.3-0.2-49.4-1-73.6c-1.1-31.4-0.6-65.1-8.1-95.8c-0.7-1.9,0.3-4,2.2-4.7c0.2-0.1,0.4-0.1,0.7-0.2c2-0.8,4.2,0.2,4.9,2.1
			c0.1,0.2,0.1,0.4,0.2,0.6c16.9,52,36.6,103.4,48.4,156.9c2.6,11.9,5.1,23.9,8.3,35.6c1.8,6.7,3.2,15.3,12.2,14.5s18.5-3,21.2-11.3
			l7.7,0.7c-1,3.9-3,7.5-5.9,10.3C455.4,753.7,460.7,767.9,462.8,782.8z M456.3,801.7c0.2-3.1,0.2-6.3-0.1-9.4
			c-1.8-17.2-6.6-32.2-15.8-46.6l-1.5,0.8c-3.5,1.5-7.1,2.5-10.8,3.1c-0.4,11-1.6,28.7,2.4,28.3c0.9-0.6-0.1-6.6,2.1-10
			s6.5-2.6,7.5,1l7.7,28.2l2.6,9.4C452.9,813.5,455.9,811.6,456.3,801.7z"/>
		<path class="st2" d="M456.1,792.3c0.3,3.1,0.3,6.3,0.1,9.4c-0.4,9.9-3.3,11.7-5.8,4.6l-2.6-9.4l-7.7-28.2c-1-3.6-5.6-3.9-7.5-1
			s-1.2,9.4-2.1,10c-4,0.5-2.8-17.3-2.4-28.3c3.7-0.6,7.3-1.6,10.8-3.1l1.5-0.8C449.5,760.1,454.3,775.2,456.1,792.3z"/>
		<path class="st1" d="M451.3,698.6c1.8,11,4.3,22.6,1.7,32.1l-7.7-0.7c0.4-1.3,0.7-2.6,0.7-4c0.7-19.2-5.2-39.1-9.8-57.6
			c-11.8-47.7-21.2-96.6-40-142.2c-8.7-21.1-20-41.7-38-56.3c-12.9-10.5-26.9-20-40.7-29.6c3.3,7.7,4.3,16.1,0.8,23.9
			c-4.7,10.7-14.2,16.1-24.9,18.7l-1.8-7.9c9.5-2.1,17.9-6.7,19.9-16.3c1.5-7.5-0.6-14.6-4.4-20.7c-0.2,1-0.4,2-0.5,3v0.2
			c0,0.7-0.2,1.3-0.5,1.9c-0.2,0.8-0.5,1.6-0.8,2.4l-7.9-1.8l0.4-1c0.2-0.9,0.4-1.7,0.6-2.5c0.1-6.3-0.2-12.7-0.5-19
			c-17.4,7.2-36.5,8.8-54.9,4.8l-4-1l1.9-7.9h0.5c36,8,72.5-4.9,90.9-37.5l7.4,3.2c-2.6,4.5-5.5,8.9-8.7,13.1
			c-6.7,8.7-15.3,16-25,21.2c0.1,1.7,0.1,3.4,0.2,5h0.1c20.1,14.5,43.7,27.7,61.5,45.1s30.2,40,39.5,64.2
			c11,28.8,18.5,58.8,26.1,88.6C439.8,646.1,447,672.3,451.3,698.6z"/>
		<path class="st3" d="M436.2,668.4c4.6,18.5,10.5,38.4,9.8,57.6c0,1.4-0.3,2.7-0.7,4c-2.7,8.3-13.1,10.5-21.2,11.3
			s-10.3-7.8-12.2-14.5c-3.2-11.8-5.7-23.7-8.3-35.6c-11.7-53.5-31.4-104.8-48.4-156.9c-0.5-2-2.5-3.3-4.5-2.9
			c-0.2,0-0.4,0.1-0.6,0.2c-2,0.3-3.4,2.2-3.1,4.2c0,0.2,0.1,0.4,0.2,0.7c7.6,30.8,7.1,64.4,8.1,95.8c0.8,24.2,2.7,49.4,1,73.6
			c-11.5,5.9-25,8.8-38.7,10.2s-27.7,1.4-40.2,1.5c-16.7,0.2-33.3-0.5-49.9-1.9c-9.2-0.8-18.4-1.9-27.5-3.2
			c-7.5-1.1-16.5-4.6-24-4.3h-0.3c-1.6-18.7-1.6-37.5-1.1-56.2c25.4,17.3,53.5,29.5,82.4,39.8l1.2,0.2c1.3,0.2,2.6,0.1,3.8-0.3
			c1.4-0.4,2.8-1,4-1.9c20.7,8.7,56.9,11.6,70.7-10.3c4.6-7.3,4.7-14.8-3.5-19.3c-5.2-2.9-12.1-2.6-18.9-1.4
			c0.1-1.9-0.3-3.8-1.2-5.4c-3.5-7.3-26.7,0.6-34.2,3c-0.3-1.6-0.9-3.2-1.9-4.5c-4.4-5.6-11.9-8.4-18.1-11.7
			c-9-4.8-17.9-9.4-26.5-14.8c-13.9-8.8-26.5-19-41.3-26.2c6.1-24.9,7.7-50.1,10.4-75.5c0.5-5.3-7.7-5.2-8.2,0
			c-2.6,24.3-4.2,48.4-9.8,72.2c-4.8-1.6-6.8,6.2-2,8c21.8,8.4,39.3,24.9,59.6,36.3c6.8,3.8,30.3,11.2,28.9,21
			c-0.5,3.7-4.5,22.7-10.2,22.7h-0.5c-27.9-9.9-52.4-22.1-77.7-37.3c-10-6.1-18.4-14-26.6-22.4s-7.2-21.2-6.1-32.9
			c0.3-3.6,0.7-7.1,0.9-10.1c1.9-30,8.2-58.7,14.2-88c5.4-26.1,28.9-36.8,49.7-48.8c-1.4,6.1-1.1,12.5,0.9,18.4
			c6.8,20,32.5,22.5,50.2,22.3c1.2-0.7,2.7-0.7,3.9,0c7.8,0.1,16.5-0.3,24.6-2.3c10.6-2.6,20.1-8,24.9-18.7
			c3.5-7.9,2.4-16.3-0.8-23.9c13.8,9.6,27.8,19.1,40.7,29.6c18,14.6,29.3,35.2,38,56.3C415,571.8,424.3,620.7,436.2,668.4z
			 M265.2,539.6c0,0,5.5-8.2,0-8.2S259.7,539.6,265.2,539.6z M265.2,584.5c0,0,5.5-8.2,0-8.2S259.7,584.5,265.2,584.5z M265.2,624.2
			c0,0,5.5-8.2,0-8.2S259.7,624.2,265.2,624.2z"/>
		<path d="M399,1238c7.9,5.3,42.5,28,19.9,38.5c-7.3,3.4-18.1,0.6-25.3-1.6c-17.8-5.5-35.5-11.5-53.3-17.2l-30.6-9.9
			c-3-1-9.4-2.2-11.2-5.4c-4.5-7.9-0.9-18.9,1.6-27.6c-0.6-0.3-1.1-0.7-1.6-1.1c-6.2-6.2-4-23.1-4.6-31.2c-1-13.4-2-26.8-3-40.2
			c-2.3-30.5-4.5-60.9-6.8-91.4c-3.8-51-7.6-102-11.3-153.1c-1,82-2.3,164.1-2,246.1c0.1,17.5,0.2,35,0.5,52.4c0,1.8,0.1,3.7,0,5.4
			h-8c0-2.1-0.3-4.1-0.3-5.3c-0.1-7.9-0.2-15.8-0.3-23.6c-0.1-16.7-0.2-33.4-0.2-50.1c0-37.3,0.2-74.6,0.6-111.9
			c0.7-70.2,1.9-140.4,2.4-210.6c-0.2-2,1.2-3.8,3.2-4c0.2,0,0.4,0,0.6,0c2.1-0.3,4.1,1.2,4.4,3.4c0,0.2,0,0.4,0,0.6
			c1.7,23.4,3.5,46.8,5.2,70.3c4.1,56.4,8.3,112.8,12.5,169.2l6.8,92.1c1.1,14.8,2.2,29.6,3.3,44.3c0.5,6.3,1,12.7,1.4,19
			c0.2,3,0.5,6,0.7,9.1c0.4,5.1,13.6,2.9,16,2.6c9.6-1,27.6-0.8,28.3-15.4l0.7-16.4c0.5-10.7,1-21.4,1.5-32.1
			c0.9-21,1.9-42,2.8-62.9c1.7-38.1,3.9-76.3,5.4-114.4l7.8,0.3c-1.1,27.6-2.2,55.2-3.5,82.7c-2,43.9-3.9,87.9-5.9,131.8
			c-0.4,9.2-0.1,19.1-5.2,25.4C367.9,1215.6,383.1,1227.4,399,1238z M393.5,1266.2c2.7,0.8,24.7,6.8,23.9,0.3
			c-1.7-13.4-29.9-26.4-40.9-33.9s-20.8-14.8-31.8-21.2l-0.7-0.5l-2.5,0.7c-8.9,2.1-17.9,3.3-27,3.8l-6.2,0.5
			c-1.8,6.1-4.4,13.7-3.8,19.5c0.4,3.6,14.5,6.8,17.5,7.8l35.7,11.5C369.7,1258.5,381.5,1262.5,393.5,1266.2z"/>
		<path class="st4" d="M417.4,1266.5c0.8,6.5-21.2,0.5-23.9-0.3c-12-3.7-23.8-7.7-35.7-11.5l-35.8-11.6c-3-1-17.1-4.2-17.5-7.8
			c-0.6-5.8,2-13.4,3.8-19.5l6.2-0.5c9.1-0.5,18.1-1.7,27-3.8l2.5-0.7l0.7,0.5c11,6.4,21.4,14,31.8,21.2S415.7,1253.1,417.4,1266.5z
			"/>
		<path class="st1" d="M394.7,215.5c2,8,2.8,16.2,2.4,24.4l-7.6-0.5c0.3-5.7-0.2-11.5-1.6-17.1c-3.2-13.4-12.2-36.5-28.4-38.5
			c3,8.2,3,17.3,0,25.5c-1.8,5-9.7,2.8-7.9-2.2c9.4-27-17.6-46.8-38.9-56.3c-24.6-11-52.1-13.6-78.3-7.4
			c-53.9,12.6-88.1,62.9-73,116.1c8.5-11.6,22.2-17.9,36.8-21.3l1.7,7.4c-14.8,3.4-27.7,10.1-34.7,23.5c0.2,10.6,0.7,21.8,1.7,33.1
			c20.6-12.2,43.9,4.7,41.9,28.4c-1.4,16.8-12.7,31.3-29.6,30.3c5.9,15.2,14.4,28.8,26.5,39.1l-5.1,5.6
			c-10.4-8.3-18.8-18.8-24.8-30.7c-11.3-22.5-15.6-46.9-17.5-71.7c-9-0.6-17.3-14.6-17.2-22.5s2.3-12.5,8.1-15.9
			c1.5-0.8,3.1-1.3,4.8-1.4c-19.1-61.5,24.4-119.7,86.9-129.5c30.6-4.8,61-0.4,87.6,15.9c10.5,6.4,20.8,15.2,27.1,25.8h0.2
			C376,174,390.6,198.5,394.7,215.5z M200.6,330.7c0.2-6.5-0.2-14.4-5.6-19c-8.4-7-18.1-6.8-26.7-0.5l-0.5,0.3
			c1.5,13.8,4.3,27.5,8.3,40.8C189.9,355.2,200.2,344,200.6,330.7z M157.8,294.4c-0.4-7.3-0.6-14.6-0.8-21.9c-5.9-5-8.2,8.2-6.9,12
			S154,292.7,157.8,294.4L157.8,294.4z"/>
		<path class="st1" d="M389.5,239.5l7.6,0.5c-0.9,15.6-6.9,29.4-17.9,41.8c4.8,3,7.5,8.5,6.8,14.1c-0.7,6.5-4.2,12.4-9.6,16.2
			c-3.7,2.7-8.5,6.3-13.1,5.5c-5.5,22.7-12.3,45.7-23.8,65.4l-7.4-3.2l1.4-2.6c2.3-4.5,4.5-9.1,6.4-13.8
			c-18-3.1-29.8-23.9-23.5-41.6s25.4-27.8,41.2-16.5l4.5-19.5c0.5-19.9-14.8-41.9-27.7-55.3c-22.3,10.7-48.5,7.9-73.1,10.3
			c-17.2,1.6-41.1,0.2-61.4,4.9l-1.7-7.4c11.2-2.6,22.9-3.6,33.1-4c18.9-0.8,37.8-2.3,56.7-3s37.9-2.7,53.6-14.7
			c4.2-3.2,8.3,3.9,4.2,7.1l-4,2.8c12.6,13.6,26.4,33.7,28.4,53.1C381.3,268,388.7,254.8,389.5,239.5z M376.1,300.5
			c1.5-2.8,2.6-6.9,0.7-9.9s-5.7-0.6-7.1,1.8c-0.3,0.4-0.6,0.8-1,1.1l-3.6,15.8c3.3,0,10-6.9,11.1-8.8H376.1z M355.5,313.9l-1-0.7
			c-14-12.6-32.4,2.7-31.2,18.8c0.8,11.7,7.7,22.5,19.8,23.4C348,341.8,352.2,327.9,355.5,313.9z"/>
		<path class="st5" d="M387.9,222.4c1.4,5.6,1.9,11.4,1.6,17.1c-0.9,15.3-8.2,28.6-19.4,40c-2-19.4-15.7-39.6-28.4-53.1l4-2.8
			c4.2-3.2,0.1-10.4-4.2-7.1c-15.8,12.1-34.3,14-53.6,14.7s-37.8,2.2-56.7,3c-10.2,0.4-21.9,1.4-33.1,4
			c-14.5,3.4-28.3,9.7-36.8,21.3c-15.2-53.2,19.1-103.5,73-116.1c26.2-6.2,53.7-3.6,78.3,7.4c21.2,9.5,48.3,29.3,38.9,56.3
			c-1.8,5,6.2,7.2,7.9,2.2c3-8.2,3-17.3,0-25.5C375.7,185.8,384.7,209,387.9,222.4z"/>
		<path class="st2" d="M376.9,290.6c1.9,3,0.8,7.1-0.7,9.9s-7.8,8.8-10.9,8.8l3.6-15.8c0.4-0.3,0.7-0.7,1-1.1
			C371.2,290,374.4,286.6,376.9,290.6z"/>
		<path class="st6" d="M364.3,756.6c2,20.5-0.5,41.3-1.4,61.8c-2,43.5-2.5,87.1-3.9,130.7c-0.2,5.5-0.4,10.9-0.6,16.4
			c-1.5,38.1-3.7,76.3-5.4,114.4c-0.9,21-1.9,42-2.8,62.9c-0.5,10.7-1,21.4-1.5,32.1l-0.7,16.4c-0.7,14.7-18.7,14.4-28.3,15.4
			c-2.4,0.3-15.6,2.4-16-2.6c-0.2-3-0.4-6-0.7-9.1c-0.5-6.3-1-12.7-1.4-19c-1.1-14.7-2.2-29.5-3.3-44.3l-6.8-92.1
			c-4.2-56.4-8.4-112.8-12.5-169.2c-1.7-23.4-3.5-46.8-5.2-70.3c0.1-2.2-1.6-4-3.8-4c-0.2,0-0.4,0-0.6,0c-2-0.1-3.7,1.4-3.8,3.4
			c0,0.2,0,0.4,0,0.6c-0.5,70.2-1.7,140.4-2.4,210.6c-0.4,37.3-0.6,74.6-0.6,111.9c0,16.7,0.1,33.4,0.2,50.1
			c0.1,7.9,0.2,15.8,0.3,23.6c0,1.2,0.3,3.2,0.3,5.3s-0.6,6.3-3.8,6.7c-6,0.7-12.2,0.9-18.3,1.2c-16.8,1-19.2-8.5-22.6-22.4
			c-2.4-10-4.2-20-5.8-30.1c-3.6-21.9-6-43.9-9.3-65.8c-6-40.6-12.7-80.8-16.6-121.6c-0.5-5.8-1-11.6-1.5-17.5
			c-3.3-44.9-4.4-89.9-6.7-134.9c-1-20.2-2.7-40.3-4.1-60.5c-0.5-7.1-0.6-14.3-0.5-21.4s-1.8-19.4,8.1-17.3
			c33.8,6.8,68.7,8.7,103.1,7.9c10.4-0.2,21.7-0.5,33.1-1.7c13.6-1.4,27.2-4,38.9-9.5C360.6,728.5,362.9,742.5,364.3,756.6z"/>
		<path class="st2" d="M334.4,230.4c13,13.5,28.2,35.5,27.7,55.3l-4.5,19.5c-15.8-11.3-35-1.1-41.2,16.5s5.5,38.5,23.5,41.6
			c-2,4.7-4.1,9.3-6.4,13.8l-1.4,2.6c-18.4,32.6-54.9,45.5-90.9,37.5h-0.5c-12.8-2.8-24.8-8.6-34.9-17
			c-12.1-10.3-20.6-23.8-26.5-39.1c16.9,1,28.2-13.4,29.6-30.3c1.9-23.7-21.4-40.6-41.9-28.4c-1-11.4-1.5-22.5-1.7-33.1
			c7-13.5,19.9-20.1,34.7-23.5c20.3-4.7,44.2-3.3,61.4-4.9C285.9,238.4,312.1,241.1,334.4,230.4z M303.6,299.1
			c2.3,0,4.1-1.8,4.1-4.1s-1.8-4.1-4.1-4.1h-0.5c-2.2-0.2-4.1,2-4.1,4.1c0.1,2.2,1.9,4,4.1,4.1H303.6z M264.2,382.7
			c12.8,0.6,40.8-7.4,38.3-25.4c-0.5-5.7-5-10.2-10.7-10.7c-12.5-1.5-23.9,7.4-35.3,0.3c-11.4-7.1-29.4-12.8-31,5.4
			c-1.4,16.8,25.6,29.9,38.6,30.5L264.2,382.7z M274.6,317.9c4.5-2.9,0.3-10-4.2-7.1c-2.8,1.9-5.8,3.5-8.9,4.8
			c-1.6,0.5-3.3,0.8-5,0.7c-2.1,0,1.6-4.8,1.6-4.7c3.8-4.8,7.5-8.9,7.9-15.3s-7.9-5.3-8.2,0c-0.5,8.6-15.5,14.8-9.1,24.5
			S268.4,321.9,274.6,317.9L274.6,317.9z M234.9,293.5c2.3,0,4.1-1.8,4.1-4.1s-1.8-4.1-4.1-4.1h-0.5c-2.2-0.2-4.1,2-4.1,4.1
			c0.1,2.2,1.9,4,4.1,4.1H234.9z"/>
		<path class="st7" d="M354.5,313.2l1,0.7c-3.4,14.1-7.5,27.9-12.5,41.5c-12.1-0.9-19-11.7-19.8-23.4
			C322.1,315.9,340.5,300.6,354.5,313.2z"/>
		<path class="st1" d="M333.2,660.4c8.2,4.5,8.1,12,3.5,19.3c-13.8,21.9-50,19-70.7,10.3c-1.2,0.9-2.6,1.5-4,1.9l-2-7.8
			c5.6,0,9.6-19,10.2-22.7c1.4-9.8-22.1-17.2-28.9-21c-20.3-11.3-37.8-27.8-59.6-36.3c-4.8-1.9-2.9-9.6,2-8
			c5.7-23.8,7.2-47.9,9.8-72.2c0.5-5.2,8.8-5.3,8.2,0c-2.7,25.4-4.3,50.6-10.4,75.5c14.8,7.1,27.3,17.3,41.3,26.2
			c8.6,5.4,17.6,10.1,26.5,14.8c6.1,3.3,13.6,6.1,18.1,11.7c1,1.3,1.6,2.9,1.9,4.5c7.5-2.4,30.7-10.3,34.2-3
			c0.9,1.6,1.3,3.5,1.2,5.4C321.1,657.8,328,657.5,333.2,660.4z M322.6,681.6c8.2-5.1,7.2-15.8-3.5-14.6c-5.7,0.7-11.3,1.8-16.8,3.3
			c-3.9,1-7-4-4-6.9s9.8-4.9-0.2-2.9c-6.2,1.2-12.2,2.7-18.3,4.5h-0.7c-1,6.6-3.5,12.8-7.1,18.4c15.7,6.4,35.9,7.4,50.6-1.7
			L322.6,681.6z"/>
		<path class="st2" d="M319,667.1c10.8-1.3,11.7,9.5,3.5,14.6c-14.7,9.2-34.9,8.1-50.7,2c3.6-5.6,6.1-11.8,7.1-18.4h0.7
			c6-1.8,12.1-3.3,18.3-4.5c10.1-2,3,0.3,0.2,2.9s0.1,7.9,4,6.9C307.6,669,313.3,667.9,319,667.1z"/>
		<path class="st1" d="M317.7,716.2l0.9,7.9c-11.3,1.2-22.6,1.5-33.1,1.7c-34.4,0.8-69.3-1.2-103.1-7.9c-10-2-8.1,10.2-8.1,17.3
			s0,14.3,0.5,21.4c1.4,20.2,3.1,40.3,4.1,60.5c2.3,44.9,3.4,90,6.7,134.9c0.5,5.9,1,11.7,1.5,17.5l-7.6,0.7
			c-2.3-24-4.1-48.1-5.2-72.2c-2.1-45.1-3.7-90.1-7.3-135c-0.6-7.2-4.7-35.8,1.1-48.5c-2.4-22.6-2.2-45.4-1.5-68.1l0,0
			c-8.9-6.6-18.8-15.7-23.8-25.7c-4.1-8.3-2.8-20.3-1.9-29.9l8,0.7c-1.1,11.7-1.6,25,6.1,32.9s16.6,16.3,26.6,22.4
			c25.3,15.3,49.8,27.4,77.7,37.3h0.7l2,7.8c-1.2,0.4-2.5,0.5-3.8,0.3L257,692c-29-10.3-57-22.5-82.4-39.8
			c-0.5,18.7-0.5,37.5,1.1,56.2h0.3c7.5-0.2,16.5,3.2,24,4.3c9.1,1.3,18.3,2.4,27.5,3.2c16.6,1.3,33.3,2.1,49.9,1.9
			C290,717.6,303.9,717.6,317.7,716.2z"/>
		<path class="st8" d="M306.9,438c3.8,6.2,6,13.2,4.4,20.7c-2,9.6-10.4,14.2-19.9,16.3c-6.1,1.3-12.4,1.9-18.6,1.9
			c0-4.5-0.2-9-0.6-13.6c10.4-0.9,23.1-2.6,29.3-11.1c1.5-2,2.7-4.3,3.6-6.7c0.3-0.8,0.6-1.6,0.8-2.4c0.3-0.6,0.5-1.2,0.5-1.9V441
			C306.5,440,306.7,439,306.9,438z"/>
		<path class="st1" d="M297.3,443.7l7.9,1.8c-0.9,2.4-2.1,4.7-3.6,6.7c-6.3,8.5-18.9,10.3-29.3,11.1c0.4,4.5,0.6,9,0.6,13.6
			c6.2,0,12.5-0.6,18.6-1.9l1.8,7.9c-8.1,2-16.8,2.4-24.6,2.3c-1.2-0.7-2.7-0.7-3.9,0c-17.7,0.2-43.5-2.3-50.2-22.3
			c-2-5.9-2.3-12.3-0.9-18.4c-20.8,12-44.3,22.7-49.7,48.8c-6,29.3-12.3,58.1-14.2,88c-0.2,3.1-0.6,6.5-0.9,10.1l-8-0.7
			c0.1-1.5,0.2-2.9,0.3-4.3c2.2-34.4,6.8-70.1,16.9-103.2c8.4-27.5,39.6-37.6,60.8-51.7c2.1-3.4,4.5-6.5,7.3-9.3
			c0.2-0.4,0.5-0.8,0.9-1.1c-9.5-3.8-18.4-9-26.4-15.5l5.1-5.6c10.1,8.4,22.1,14.2,34.9,17l-1.9,7.9c-0.3,7.1-1.1,14.2-1,21.2
			c6.5,7.8,18.5,8.5,28,9.2l1,0.2l1-0.2C276.8,454.8,293.3,454,297.3,443.7z M260.6,477c0-4.5,0.2-9.1,0.6-13.6
			c-11.1-0.9-24.6-3-30.7-12.8l-0.3-0.5l-0.4-0.7c-2.2-4-3.7-8.3-4.3-12.8c-4.7,7.9-7.1,17.5-2.4,25.5
			C230.8,474.9,246.6,476.8,260.6,477z"/>
		<path class="st1" d="M307.7,295c-0.1,2.2-1.9,4-4.1,4.1h-0.5c-2.2-0.1-4-1.9-4.1-4.1c0-2.1,1.9-4.3,4.1-4.1h0.5
			C305.8,290.9,307.6,292.7,307.7,295z"/>
		<path class="st1" d="M302.5,357.4c2.4,18-25.6,26-38.3,25.4c-12.7-0.6-40-13.7-38.6-30.3c1.5-18.2,20.5-12.3,31-5.4
			c10.5,6.9,22.9-1.8,35.3-0.3C297.5,347.3,301.9,351.8,302.5,357.4z M294.8,361.1c1.2-6.1-4.8-7.4-9.2-6.4s-9.6,3-14.6,3.8
			c-7.5,1.2-12.1-0.3-18.6-4.3c-2.7-2-5.7-3.7-8.8-5c-4.1-2-8.4-1.5-10.6,3.8c-2.1,6.9,8.5,12.3,14.3,15.4c11.5,6.4,20.5,9,36.4,2.1
			c3.2-1.4,10.5-5.4,11.1-9.5V361.1z"/>
		<path class="st2" d="M297.8,421.1c0.3,6.3,0.5,12.6,0.5,19c-0.2,0.9-0.3,1.7-0.6,2.5l-0.4,1c-4,10.3-20.5,11.1-29.6,11.8l-1,0.2
			l-1-0.2c-9.5-0.7-21.5-1.5-28-9.2c-0.1-7.1,0.7-14.2,1-21.2l4,1C261.1,430,280.4,428.3,297.8,421.1z"/>
		<path class="st9" d="M285.5,354.7c4.4-1,10.4,0.2,9.2,6.4c-0.5,4-7.9,8.1-11.2,9.5c-16,6.9-25,4.3-36.4-2.1
			c-5.7-3.2-16.3-8.5-14.3-15.4c2.2-5.3,6.5-5.9,10.6-3.8c3.1,1.3,6.1,3,8.8,5c6.5,4,11.1,5.5,18.6,4.3
			C276,357.6,280.4,355.2,285.5,354.7z"/>
		<path class="st1" d="M270.4,310.9c4.5-2.9,8.6,4.3,4.2,7.1c-6.1,3.9-20.1,11.7-25.9,2.9s8.6-15.9,9.1-24.5c0.3-5.3,8.6-5.3,8.2,0
			s-4.1,10.5-7.9,15.3c0,0-3.7,4.7-1.6,4.7c1.7,0.1,3.4-0.2,5-0.7C264.6,314.4,267.6,312.8,270.4,310.9z"/>
		<path d="M270.2,1214.2c1.8,6.8,7.9,21.7,3.9,28.8s-19.3,9.8-27.8,12.6l-45.9,14.8c-12.2,4-28.3,12.5-41.6,10.7
			c-23.6-3-14.5-20.5-1.1-31.8c2.3-1.9,4.5-3.8,6.9-5.5l5.5,6c-3.5,2.6-6.7,5.4-9.8,8.4c-7.7,7.7-4.4,16.9,7.6,13.7
			c3.4-0.8,6.7-1.8,9.9-2.9l56.2-18.1l25.5-8.2c12.2-4,5.2-17.1,2.8-26.3c0-0.1,0-0.1,0-0.2l6.7-4
			C269.6,1212.7,270,1213.4,270.2,1214.2z"/>
		<path d="M263.4,1201.5h8c-0.1,4.1-0.5,7.8-2.4,10.5l-6.7,4l-2.7,0.3c-6.3,0.3-24.5,3.8-34.9,0.8c-14.7,8.2-29.9,15.9-43.9,25.2
			c-3.6,2.4-7.2,4.8-10.6,7.4l-5.5-6c16.4-12.5,34.8-22.1,52.9-32.1c-7.7-15.6-9.8-35.7-12.5-52.6c-10-62.8-19.5-125.7-25.5-188.9
			l7.6-0.7c3.8,40.8,10.6,81,16.6,121.6c3.2,21.9,5.6,44,9.3,65.8c1.7,10.1,3.4,20.1,5.8,30.1c3.4,13.9,5.8,23.4,22.6,22.4
			c6-0.4,12.2-0.5,18.3-1.2C262.7,1207.9,263.4,1204.7,263.4,1201.5z"/>
		<path class="st1" d="M265.2,531.3c5.5,0,0,8.2,0,8.2C259.7,539.6,259.7,531.3,265.2,531.3z"/>
		<path class="st1" d="M265.2,576.2c5.5,0,0,8.2,0,8.2C259.7,584.5,259.7,576.2,265.2,576.2z"/>
		<path class="st1" d="M265.2,615.9c5.5,0,0,8.2,0,8.2C259.7,624.2,259.7,615.9,265.2,615.9z"/>
		<path class="st4" d="M262.3,1216.4c2.4,9.2,9.4,22.3-2.8,26.3l-25.5,8.2l-56.2,18.2c-3.3,1.1-6.6,2.1-9.9,2.9
			c-12,3.2-15.3-6.1-7.6-13.7c3.1-3,6.3-5.8,9.8-8.4c3.5-2.6,7.1-5,10.6-7.4c14-9.3,29.2-17,43.9-25.2c10.5,3,28.6-0.5,34.9-0.8
			l2.7-0.3C262.2,1216.2,262.2,1216.3,262.3,1216.4z"/>
		<path class="st8" d="M261.2,463.3c-0.4,4.5-0.6,9.1-0.6,13.6c-14-0.1-29.8-2-37.5-15c-4.7-8-2.3-17.6,2.4-25.5
			c0.6,4.5,2.1,8.8,4.3,12.8l0.4,0.7l0.3,0.5C236.6,460.3,250.1,462.4,261.2,463.3z"/>
		<path class="st1" d="M239,289.5c-0.1,2.2-1.9,4-4.1,4.1h-0.5c-2.2-0.1-4-1.9-4.1-4.1c0-2.1,1.9-4.3,4.1-4.1h0.5
			C237.1,285.4,238.9,287.2,239,289.5z"/>
		<path class="st7" d="M195,311.6c5.4,4.6,5.8,12.5,5.6,19c-0.4,13.3-10.7,24.6-24.4,21.6c-4-13.3-6.8-27-8.3-40.8l0.5-0.3
			C176.8,304.9,186.6,304.6,195,311.6z"/>
		<path class="st2" d="M157,272.5c0.2,7.3,0.4,14.6,0.8,21.9c-3.7-1.7-6.6-6.5-7.7-9.8S151.1,267.4,157,272.5z"/>
		<path class="st1" d="M656.7,542.9c7.3,24.3-9.3,41.9-26.2,57.1c-17.1,15.1-34.9,29.3-53.6,42.4l1.4,52.3
			c0.2,8.9,3.2,22.9,0.4,31.4c-0.3,0.8-0.6,1.6-1,2.4c15.6,54.8,24.4,111.4,33.4,167.6l-8.1,1.3c-1.7-10.6-3.4-21.2-5.2-31.9
			c-7.3-43.3-14.8-86.8-26.5-129.2c-13.7,10.8-40.7,11.7-54.9,11.8c-31.7,0.3-63.7-3.2-94.3-11.3l2-7.4c6.2,1.7,12.8,2.5,17,3.3
			c26.1,5.2,53.2,8.3,79.9,7c14-0.7,29.2-2.1,41.9-8.7c10-5.2,7.8-15.4,7.5-24.8c-0.5-19.3-1-38.7-1.5-58.1l-0.5,0.4
			c0.3,4-2.7,7.4-6.7,7.7c-0.1,0-0.1,0-0.2,0c-5,5.8-11.6,9.8-18.9,12.8c-4.4,1.8-9.7,4.7-14.5,4.2c-2.5-0.3-4.3-2.2-5.7-4.3
			c-3,1.3-6.1,2.4-9.2,3.3l-2.3-7.6c11.5-3.3,22.6-8.6,29.4-16.6c2.7-3.1,5-6.5,6.8-10.2c5.7-12.9-12.8-2.1-15.1,0l-5.8-4.5
			c1.9-1.8,3.7-3.6,5.7-5.3l-4.2,1.8l-3.3-7.4c5.1-2.3,10.2-4.6,15-6.5c14.8-5.6,28.5-12,39.3-23.1l5.9,5.4
			c-11.5,11.7-24.8,18.4-40.4,24.6c1.4,0.1,2.8,0.3,4.2,0.7c6.3,2,9.3,6,8.3,11.5l0.4,0.9c1,2.6,2,5.3,3.1,7.8
			c0.5-0.5,1.1-0.8,1.8-0.9c19.2-13.3,37.9-26.6,55.6-42.2s42.6-35.4,27.7-63c-9.7-18.3-20.9-35.7-33.4-52.1l6.4-5.1
			c7,9.1,13.7,18.4,19.8,28.2S653.2,531,656.7,542.9z M554.4,651.5c-0.8-1.5-1.4-3-2-4.5l-0.6-1.6c-5,7.9-12.1,14.1-20.4,18.9
			c1.6-0.4,3.2-1,4.7-1.7c3.1-1.1,6.2-2.4,9.1-4C548.6,656.7,551.8,654.3,554.4,651.5L554.4,651.5z"/>
		<path d="M621.5,1243.9c14.4,6.7,35.3,16,34.8,31.1c-0.7,22.9-29,19.2-44.2,13.3l-4.2-1.7l3-7.3c3.6,1.6,7.4,2.9,11.3,3.8
			c5.9,1.3,14.1,2.7,20.1,0.5c5.9-9.1,5-15.7-2.5-19.8c-6.3-4-13-7.5-19.7-11c-2.7,3.1-5.3,6.2-8.1,9.3c-1,1.1-2.6,1.5-4,1.1
			c-7.7-2.4-15.3-5.2-22.8-8.2l3.1-7.4c4.3,1.8,8.7,3.4,13.1,4.8c6.4,2.1,8.4,0.1,11.4-3.5l-3.5-1.9l-0.7-0.5
			c-15.1-8.1-28.8-17.9-40.1-31.1l-0.4-0.5l-0.2-0.3c-4.7-6.1-4.9-16-4.4-24.6l7.8,0.2c-0.4,7.4,0.1,15,3.4,19.8
			C587.7,1225,603.7,1235.4,621.5,1243.9l0.1,0L621.5,1243.9z"/>
		<path class="st10" d="M645.1,537.7c14.9,27.6-8.8,46.2-27.7,63s-36.3,28.9-55.6,42.2c-0.7,0.1-1.3,0.4-1.8,0.9
			c-1.1-2.6-2.1-5.2-3.1-7.8l-0.4-0.9c1-5.6-2-9.6-8.3-11.5c-1.4-0.4-2.8-0.6-4.2-0.7c15.6-6.2,28.9-12.9,40.4-24.6
			c1.6-1.7,3.3-3.4,4.9-5.3c6.1-7.3,13.1-18.1,16.4-29c3.1,2.2,8.3-1.5,5.9-5.5l-4.2-6.9c0-2.1-0.3-4.2-0.9-6.2
			c-2.2-8.2-6.2-14.7-11.9-20.9c-3.1-3.5-6.6-6.6-10.4-9.2c-3.8-4.8-8.2-9.2-12.1-14c-1-1.5-3.1-1.9-4.6-0.9
			c-1.6,0.5-2.7,2.1-2.5,3.8c0.2,4.2,1.7,8.1,1.9,12.3l0,0l-0.8,0.9l-1.3,1.8l-1.2,1.8c-8.9,2.3-13.7-2.8-21.8-5.3
			c-3.6-1.1-6.2,1.7-8,4.2s-0.1,3.1-5.8,5.2c-3.5,1.3-7,2.7-10.3,4.4c-5.1,2.5-9.3,6.5-12.3,11.3l-1.5-0.2
			c-10.7-1.1-21.8,2.8-31.5,6.7c-22,8.9-42.1,22.2-59,38.9c0.9-14.1,2.1-28.1,3.7-42.2c1.3-10.9,2.9-21.7,5-32.5
			c0.4-1.8-0.4-3.6-2-4.5c-1.4-1.1-3.4-1.1-4.7,0.1c-0.6,0.6-1,1.3-1.2,2.1c-4.4,9.9-8.6,19.9-12.7,30
			c-11.7,28.6-22.2,57.6-31.9,86.9l-8,0.7c-5.2,0.5-5.3,8.8,0,8.2c22.6-2.5,45,0.1,67.5,1.7c2.1,0.1,7.7-0.2,13.3-0.1
			c7.8,0.2,15.6,1.3,14.7,5.6s-2.7,8.8-4.1,13.2s-3.6,10.6-4.6,16c0,1-0.8,1.8-1.7,1.9c-2.9,0.9-6,0.7-9,0.7s-7.4-0.2-11-0.4
			c-12.8-0.6-25.5-2-38.2-3.3c-15.3-1.6-30.6-3.5-45.9-5.6s-15.1-15.6-13-29.1c1.2-7.4,3.2-14.8,4.1-20.2
			c5.9-33.2,16.1-65.4,28.9-96.6c6.5-15.8,13.5-31.3,23-45.5c10.7-15.9,27.5-22.1,45.2-26.7h0.2c13.8,15.8,29.7,29.6,47.1,41.3
			c2.2,1.5,5.4,0,6-2.5l7.4-28.9l9.7,27.9c1.1,3.1,4.4,3.8,6.9,1.8c16.1-12.8,30.6-27.5,42.9-44h0.3c23.3,7.5,39.3,17.4,54.9,36.3
			l5.4,6.8C624.2,501.8,635.4,519.3,645.1,537.7z"/>
		<path class="st11" d="M639.7,1263.8c7.5,4.1,8.4,10.7,2.5,19.8c-6,2.1-14.2,0.7-20.1-0.5c-3.9-0.9-7.7-2.2-11.3-3.8
			c-6.2-2.7-12.3-6.2-18.1-9l-54.6-25.8c-10.8-5.1-10.9-14.4-8.5-24c3.3,7.6,10.1,12.9,18.9,17.4c12,6.2,24.1,12,36.6,17
			c7.5,3,15.1,5.8,22.8,8.2c1.4,0.4,3,0,4-1.1c2.8-3,5.4-6.2,8.1-9.3C626.7,1256.3,633.4,1259.8,639.7,1263.8z"/>
		<path class="st1" d="M615.1,476.6l3,3.9l-6.4,5.1l-5.4-6.8c-15.6-19-31.6-28.8-54.9-36.3h-0.3c-12.3,16.5-26.8,31.2-42.9,44
			c-2.5,2-5.8,1.3-6.9-1.8l-9.7-27.9l-7.4,28.9c-0.6,2.5-3.8,4-6,2.5c-17.4-11.7-33.3-25.5-47.1-41.3h-0.2
			c-17.8,4.7-34.6,10.8-45.2,26.7c-9.6,14.2-16.5,29.7-23,45.5c-12.8,31.2-23,63.4-28.9,96.6c-0.9,5.4-2.9,12.7-4.1,20.2l-7.2-1.2
			c5.8-43.8,18.8-85.8,35.9-126.4c7.1-16.8,15.2-37.2,29.2-49.6c11-9.8,23.9-14.9,37.9-18.8c-0.8-1.5-0.6-3.4,0.7-4.6
			c10.6-9.6,20.2-20.3,31.5-29.1c-20.6-7-37.4-22-46.3-44.7c-9.5-24.7-16.4-50.4-20.5-76.6c-3.9,0.2-8.2-2.1-11.2-4.7
			c-5.4-4.6-8.7-11.2-9.2-18.3c-0.4-6.3,0.5-14.5,6.3-18.3c2.7-1.9,6.1-2.7,9.4-2.1c-0.1-1.8-0.2-3.5-0.3-5.3
			c-1.5-0.3-2.8-1.3-3.4-2.8c-8.1-22.1-12.1-48.9,1.1-70c1.6-2.6,3.4-5,5.3-7.4l7.3,2.8c-4.3,5-7.6,10.9-9.6,17.2
			c-4.9,15.3-3.6,31.2,0.7,45.6c14.8-17.1,55.1-13.1,72.5-13.5c22.4-0.5,44.8-0.4,67.3,0.1c16.9,0.4,33.2,2.7,41.3-15.2
			c3.1-9,3.7-16.7,2.5-23.4l6.9-1.3c2,9,1.5,18.4-1.5,27.2l-0.3,0.7v0.2c-1.1,2.5-2.5,5-4.1,7.2c4.3,2,8,5.1,10.6,9.1
			c0.5,0.5,0.9,1.2,1.1,1.9l0.7,1.2c7.1-9.9,9.8-22.3,7.4-34.2l7.6-1.5c3.4,17-0.5,33.9-13.9,47c-0.4,0.4-0.8,0.6-1.3,0.8
			c0,2.5,0,5.1,0,7.6c2.8-1.7,6.2-1.9,9.2-0.6c6.4,2.7,9,9.4,9,15.9c0.1,13.6-7.3,30.3-20.8,25.9c-2.8,24.7-8.4,49-16.5,72.5
			c-8,22.7-22.5,43.6-43.6,54.2c12,7.7,22.3,17.5,33.6,26.2c1.7,1.3,2.9,3.6,1.5,5.6l-0.2,0.3C581.2,443.7,598.4,455.2,615.1,476.6z
			 M593.9,252.6c0-3.3,0.2-6.7-2.4-9.2s-6.2,1.1-7.7,4.3l-0.2,0.4c-0.3,6.6-0.7,13.2-1.4,19.8c2.5,1.5,5.4,2.3,7.5-1.2
			c1-1.5,1.9-3.1,2.5-4.8C593.2,258.9,593.8,255.7,593.9,252.6L593.9,252.6z M570.9,288.4c3.8-23.7,5.3-47.8,4.5-71.8
			c-2.4-3.5-5.9-6-9.9-7.2c-15.4,11.3-39.8,6.3-59.1,6.2c-19.3-0.1-40.7,0.2-61.1,0.8c-11.7,0.4-40.9-1.1-51.5,10.4
			c0.5,23.3,3,46.4,7.3,69.3c19.6-5.2,38.5,5.8,43,26c3.9,17.2-8.5,33.1-24.4,37.5c7,16.1,16.8,30.3,34.6,36.6
			c15.3,5.5,33.7,8.5,49.7,4.2c28.6-7.9,43.6-29.3,52.9-54.5c-17.9-3.4-33.4-20.9-26.2-40c6.4-16.8,24-24.6,40.2-17.4L570.9,288.4z
			 M569.5,296.8l-0.6-0.2c-12.1-6.5-28.4-0.4-30.9,14s7.6,25.9,21.6,27.5c1.4-4.3,2.6-8.7,3.7-13.2c2.5-9.3,4.6-18.6,6.3-28
			L569.5,296.8z M547.1,433.6c-8-6.3-15.6-13.1-23.8-19.1c-0.6,3.2-1.9,6.1-3.7,8.8c-0.2,0.5-0.5,0.9-0.8,1.2
			c-1.3,1.9-2.9,3.6-4.5,5.2c-2.7,2.6-18.7,13.2-17.2,17.4l10.1,29.2C522.3,463.8,535.7,449.4,547.1,433.6L547.1,433.6z
			 M511.7,420.8v-13.9c-4.5,1.5-9.2,2.5-13.9,3c-10.3,1.1-20.7,0.6-30.9-1.5v11.4c0,0.3,0,0.7-0.1,1c5.8,6.6,19.6,14.1,24.2,18.9
			C495.1,435.2,505.8,427.9,511.7,420.8L511.7,420.8z M477.9,477.9c3.3-10.3,9.8-30.2,6.2-33.2c-5.5-4.6-11.8-8.1-17.2-12.9
			s-9-9.3-10.1-15c-7.8,6.7-15,14.2-22.6,21.3c14.1,15.2,27.6,28.4,43.7,39.9L477.9,477.9z M416.6,351.9
			c13.2-3.4,23.8-16.4,18.9-30.7s-18.5-20.8-32.7-16.9c3,14.1,6.9,27.9,11.6,41.5L416.6,351.9z M379.9,266.5
			c0.5,1.2,6.9,11,9.7,10.1c-1.2-8.7-2.1-17.3-2.8-26l-0.4-0.3c-4.6-4.7-7.8,3.9-7.8,7.1c-0.2,3.1,0.2,6.3,1.3,9.2L379.9,266.5z"/>
		<path d="M617.7,937.7c0.1,6.8-2.3,12.4-9.2,14.9c-4.4,1.6-8.9,3-13.4,4.3c0.4,49.2-7.4,98.4-14.1,147.1
			c-3.1,23.1-6.6,46.2-8.4,69.4c-0.3,4.4-1.2,10.5-1.6,16.7l-7.8-0.2c0.2-3.2,0.4-6.2,0.6-8.9c1.3-21.7,4.3-43.3,7.2-64.9
			c7-51.9,15.8-104.4,15.7-156.9c-18.3,4.8-36.9,8.3-55.7,10.6c0.4,80.2,6.6,160.2,4.6,240.4c1.1,16.5,18.9,21.1,32.3,28
			c6.6,3.4,13.3,6.5,20.1,9.3l-3.1,7.4c-12.5-5.1-24.6-10.9-36.6-17c-8.7-4.5-15.6-9.9-18.9-17.4c-2.4,9.6-2.3,18.9,8.5,24
			l54.6,25.8c5.8,2.7,11.9,6.2,18.1,9l-3,7.3c-13.2-5.5-26.1-12.5-39.1-18.6s-29.1-11.2-40.8-19.6c-17.3-12.5-5.5-31.2-0.5-47.6
			l0.4-0.9c1.2-76.4-4.4-152.7-4.8-229.1l-0.9-8c27.1-3,55.1-7.8,80.8-16.9c11.6-4.2,2.2-34.8,0.9-43l-0.9-5.6l8.1-1.3
			C613.2,909.5,617.4,924,617.7,937.7z"/>
		<path class="st2" d="M609.2,1247l3.5,1.9c-2.9,3.6-5,5.6-11.4,3.5c-4.4-1.5-8.8-3.1-13.1-4.8c-6.8-2.8-13.5-6-20.1-9.3
			c-13.4-6.8-31.2-11.5-32.3-28c2-80.2-4.2-160.2-4.6-240.4c18.8-2.3,37.4-5.8,55.7-10.6c0.1,52.5-8.7,105-15.7,156.9
			c-2.9,21.6-5.9,43.2-7.2,64.9c-0.2,2.6-0.4,5.7-0.6,8.9c-0.5,8.6-0.3,18.5,4.4,24.6l0.2,0.3l0.4,0.5c11.4,13.2,25,23.1,40.1,31.1
			L609.2,1247z"/>
		<path class="st1" d="M611.6,558.4c2.4,4-2.8,7.7-5.9,5.5c-3.2,11-10.3,21.8-16.4,29c-1.6,1.9-3.2,3.7-4.9,5.3l-5.9-5.4
			c2.6-2.6,4.9-5.4,7-8.4c12.3-17.7,20.6-40.7,0.5-56.8c-2.5-2-10.2-10.1-14.1-4.4l-7.1-4l1.3-1.8l0.8-0.9l0,0
			c-0.2-4.2-1.7-8.1-1.9-12.3c-0.2-1.7,0.9-3.3,2.5-3.8c1.5-1,3.6-0.6,4.6,0.9c4,4.8,8.3,9.1,12.1,14c3.8,2.6,7.3,5.7,10.4,9.2
			c5.7,6.2,9.7,12.7,11.9,20.9c0.6,2,0.9,4.1,0.9,6.2L611.6,558.4z"/>
		<path class="st12" d="M603.9,902.9c1.3,8.2,10.7,38.9-0.9,43c-25.6,9.2-53.7,13.9-80.8,16.9L520,963
			c-11.5-53.8-16-108.6-20.4-163.3l0,0c0-0.1,0-0.3,0-0.4h-0.1c-0.4-2.2-2.5-3.8-4.7-3.4c-1.8,0.3-3.1,1.7-3.4,3.4h-0.1
			c0,0.1,0,0.3,0,0.4c0,0.1,0,0.1,0,0.2c-3.5,46.5-4.9,93.2-8.6,139.6c-0.3,3.7-0.6,7.4-0.9,11s-0.8,7.3-1.5,11s-10.9,2.3-16.1,1.9
			c-16.6-1.2-33.3-4.8-49.5-9.3h-0.4l-15.1-4.5c-2.8-0.9-5.6-1.9-8.4-2.9l-0.6-0.2c0-4.7,0.5-9.4,0.8-14.1
			c1.3-19.4,3.1-38.8,4.9-58.1c4.4-46.8,9-93.8,15.8-140.3c2.4,0.8,4.8,1.4,6.9,2l3.4,0.9c30.6,8.1,62.6,11.6,94.3,11.3
			c14.2-0.1,41.2-1,54.9-11.8c11.7,42.4,19.2,85.9,26.5,129.2c1.8,10.6,3.5,21.2,5.2,31.9L603.9,902.9z"/>
		<path class="st1" d="M599.2,179.8l-7.6,1.5c-1-4.8-2.8-9.5-5.3-13.7c-4.1-6.5-9.5-12.1-15.7-16.6c3.4,5.1,5.9,10.9,7.2,16.9
			l-6.9,1.3c-7.3-39.2-79.9-40.8-112.1-37.6c-22.1,2.2-47.7,9.4-62.6,26.8l-7.3-2.8c18.1-22.4,46-30.3,74.6-32.5
			c28.6-2.2,63.1-2.9,88.9,11.8c16.6,1.5,36.3,16.8,42.7,31.9C596.9,171,598.3,175.3,599.2,179.8z"/>
		<path class="st2" d="M591.5,243.5c2.6,2.4,2.3,5.9,2.4,9.2c-0.1,3.2-0.6,6.3-1.6,9.3c-0.6,1.7-1.5,3.3-2.5,4.8
			c-2.1,3.4-5,2.6-7.5,1.2c0.6-6.6,1.1-13.2,1.4-19.8l0.2-0.4C585.4,244.5,587.8,240,591.5,243.5z"/>
		<path class="st13" d="M591.6,181.3c2.4,11.9-0.3,24.3-7.4,34.2l-0.7-1.2c-0.2-0.7-0.6-1.4-1.1-1.9c-2.6-4-6.3-7.1-10.6-9.1
			c1.6-2.2,3-4.7,4.1-7.2v-0.2l0.3-0.7c3-8.8,3.5-18.2,1.5-27.2c-1.3-6-3.8-11.8-7.2-16.9c6.2,4.5,11.6,10.1,15.7,16.6
			C588.7,171.9,590.6,176.5,591.6,181.3z"/>
		<path class="st14" d="M586,527.7c20.1,16.1,11.8,39.1-0.5,56.8c-2.1,3-4.4,5.8-7,8.4c-10.8,11.1-24.4,17.5-39.3,23.1
			c-4.8,1.8-9.8,4.1-15,6.5c-11.3,5.1-23.2,10.3-34.7,10.6h-0.7l-1.1-0.8c-6.5-4.4-15.3-5.4-23-5.4c-2.9,0-5.7,0.1-8.6,0.4
			c-1.4,0.2-2.9,0.4-4.3,0.8l-2,0.6c-0.5,0.3-1,0.5-1.6,0.6h-5.7c-8-0.2-15.9-0.9-23.9-1.5s-18.1-1.5-27.1-1.8
			c17.7-27.7,41.8-49.5,71-65c19.2-10.2,36-14.9,56.9-7.6c11.6,4.1,26,0.7,35.2-6.9c5-4,9.3-8.7,12.8-14.1c1.6-2.6,2.5-5.7,4-8.4
			l0.4-0.7C575.8,517.6,583.5,525.7,586,527.7z M550.6,589.8c4.7-2.5,0.5-9.6-4.2-7.1c-25.9,13.7-55.1,15.4-82.7,5.3
			c-5-1.9-7.1,6.1-2.2,7.9C490.7,606.8,523.2,604.6,550.6,589.8L550.6,589.8z"/>
		<path class="st2" d="M575.5,216.7c0.8,24-0.7,48.1-4.5,71.8c-16.3-7.2-33.8,0.6-40.1,17.5c-7.2,19.1,8.2,36.6,26.2,40
			c-9.3,25.3-24.3,46.6-52.9,54.5c-16,4.4-34.4,1.3-49.7-4.2c-17.8-6.3-27.6-20.6-34.6-36.6c16-4.4,28.3-20.3,24.4-37.5
			c-4.6-20.1-23.4-31.2-43-26c-4.3-22.9-6.8-46-7.3-69.3c10.6-11.5,39.7-10,51.5-10.4c20.4-0.6,40.8-0.9,61.1-0.8
			c19.4,0.1,43.7,5.1,59.1-6.2C569.7,210.7,573.2,213.2,575.5,216.7z M516.3,276.1c2.3,0,4.1-1.8,4.1-4.1s-1.8-4.1-4.1-4.1l0,0h-0.5
			c-2.2-0.2-4.1,2-4.1,4.1c0.1,2.2,1.9,4,4.1,4.1H516.3z M509.8,330.6c2.8-4.5-4.3-8.7-7.1-4.2s-8,7.1-13.4,7.6s-12.2-1.1-16.2-4.9
			s-9.7,2.2-5.8,5.8c5.9,5.5,14.5,8,22.7,7.2S505.5,337.6,509.8,330.6z M495.5,299c3.6-3.9-2.3-9.8-5.8-5.8s-7.3,4.3-8.8-0.4
			c-0.7-2.1,3.6-5.6,4.6-7.2c2.6-4.2,0.9-11.8,0.7-16.4s-8.5-5.3-8.2,0l0.3,7.9c0.2,4-1,5.6-3.5,8.5c-2.6,3.4-3,7.9-1,11.7
			C478.4,306.1,489.3,305.9,495.5,299z M447.6,276.1c2.3,0,4.1-1.8,4.1-4.1s-1.8-4.1-4.1-4.1l0,0h-0.5c-2.2-0.2-4.1,2-4.1,4.1
			c0.1,2.2,1.9,4,4.1,4.1H447.6z"/>
		<path class="st1" d="M571.9,523.3l-0.4,0.7c-1.4,2.7-2.4,5.9-4,8.4c-3.5,5.4-7.8,10.1-12.8,14.1c-9.3,7.6-23.7,11-35.2,6.9
			c-20.8-7.3-37.6-2.7-56.9,7.6c-29.2,15.5-53.3,37.3-71,65c9,0.3,18,1,27.1,1.8s15.9,1.3,23.9,1.5l-0.2,7.5
			c-5.7-0.1-11.3,0.2-13.3,0.1c-22.5-1.7-44.9-4.2-67.5-1.7c-5.3,0.6-5.2-7.7,0-8.2l8-0.7c9.7-29.3,20.3-58.3,31.9-86.9l7.6,3.1
			c-11.2,27.5-21.3,55.4-30.7,83.6h3.7c6.5-10.8,14.1-21,22.5-30.4c1.1-17.5,2.4-34.9,4.4-52.3l8.1,0.9c-1.6,14-2.8,28.1-3.7,42.2
			c16.9-16.7,37-30,59-38.9c9.7-3.8,20.8-7.7,31.5-6.7l1.5,0.2c3-4.8,7.2-8.8,12.3-11.3c3.4-1.7,6.8-3.1,10.3-4.4
			c5.7-2.1,3.2-1.6,5.8-5.2s4.4-5.4,8-4.2c8.1,2.5,12.9,7.6,21.8,5.3l1.2-1.8L571.9,523.3z M557.7,530.1c-2.8-0.1-5.6-0.7-8.2-1.7
			c-4.9-1.9-6.8-5.6-10-0.8c-2,3-6.1,4.3-9.3,5.5c-6.1,2.3-12.1,5-16.1,9.9c8.2,2.6,16.4,5.7,24.8,2.7S553.3,536.7,557.7,530.1z"/>
		<path class="st13" d="M570.9,169.2c1.2,6.7,0.6,14.4-2.5,23.4c-8.1,17.9-24.4,15.6-41.3,15.2c-22.4-0.5-44.8-0.6-67.3-0.1
			c-17.4,0.4-57.7-3.6-72.5,13.5c-4.3-14.3-5.6-30.3-0.7-45.6c2-6.3,5.3-12.2,9.6-17.2c14.8-17.4,40.4-24.6,62.6-26.8
			C491.1,128.3,563.6,130,570.9,169.2z"/>
		<path class="st10" d="M570.3,706.2c0.2,9.5,2.5,19.6-7.5,24.8c-12.7,6.6-27.9,8-41.9,8.7c-26.7,1.3-53.8-1.8-79.9-7
			c-4.2-0.8-10.8-1.6-17-3.3c-8-2.2-15.2-5.9-15.1-13.2c0.2-11.8,0.1-23.6,0.1-35.3c8.8,0.8,17.7,1.3,26.5,1.6
			c1.8,0.1,4.3,0.2,6.8,0.2c7,2.6,14.1,3.1,21.5,3.5l2.7,0.2c3.9,0.4,8.3,0.7,11.5-1.3c2.8-2,5.2-4.6,6.8-7.6
			c9.6-0.7,19-2.4,28.2-5.2c3.1-0.9,6.2-2,9.2-3.3c1.5,2,3.2,4,5.7,4.3c4.8,0.5,10.1-2.4,14.5-4.2c7.3-3,13.9-7,18.9-12.8
			c4-0.2,7.1-3.5,6.9-7.5c0-0.1,0-0.1,0-0.2l0.5-0.4C569.3,667.4,569.8,686.8,570.3,706.2z"/>
		<path class="st7" d="M569,296.7l0.6,0.2c-1.7,9.4-3.8,18.8-6.1,28.1c-1.1,4.5-2.4,8.8-3.7,13.2c-14-1.5-24-13.2-21.6-27.5
			S556.8,290.1,569,296.7z"/>
		<path class="st15" d="M552.5,647c0.6,1.5,1.2,3.1,2,4.5c-2.7,2.8-5.8,5.2-9.2,7c-2.9,1.6-6,2.9-9.1,4c-1.5,0.7-3.1,1.3-4.7,1.7
			c8.2-4.8,15.3-10.9,20.4-18.9L552.5,647z"/>
		<path class="st2" d="M549.5,528.5c2.6,1,5.4,1.6,8.2,1.7c-4.4,6.5-9.2,12.1-18.8,15.6s-16.6-0.2-24.8-2.7c4-4.9,10-7.6,16.1-9.9
			c3.2-1.2,7.3-2.5,9.3-5.5C542.7,522.9,544.6,526.6,549.5,528.5z"/>
		<path class="st1" d="M546.5,582.7c4.7-2.5,8.9,4.6,4.2,7.1c-27.4,14.8-59.8,17-89,6.1c-4.9-1.8-2.8-9.8,2.2-7.9
			C491.3,598.1,520.5,596.4,546.5,582.7z"/>
		<path class="st2" d="M531.8,637.7c2.3-2.1,20.8-12.9,15.1,0c-1.8,3.7-4.1,7.1-6.8,10.2c-6.8,8-17.9,13.3-29.4,16.6
			c-7.2,2.1-14.6,3.5-22.1,4.3c1.4-4.3,2.4-8.7,3.1-13.1c0.4-2.3,0.8-4.5,1.2-6.8l0.7-0.2l4.9-2.2l5.7-2.6l5.5-2.6l1.9-1l2-1.1
			c0.6-0.3,2.2-1.2,2.9-0.4c0.4,0.5,0.3,1.3-0.2,1.7c-0.9,0.9-1.7,1.8-2.4,2.7c-0.4,0.6-0.6,1.4-0.6,2.2c0,0.9,0.4,1.8,1.2,2.3
			c1,0.7,2.2,0.9,3.3,0.5C524.1,646.3,527.1,642,531.8,637.7z"/>
		<path class="st1" d="M526.1,633.2l5.8,4.5c-4.8,4.3-7.8,8.6-14,10.5c-1.1,0.4-2.3,0.2-3.3-0.5c-0.8-0.5-1.2-1.4-1.2-2.3
			c0-0.8,0.2-1.6,0.6-2.2c0.7-0.9,1.5-1.8,2.4-2.7c0.5-0.4,0.6-1.2,0.2-1.7c-0.7-0.9-2.3,0.1-2.9,0.4l-2,1.1l-1.9,1l-5.5,2.6
			l-5.7,2.6l-4.9,2.2l-0.7,0.2c-0.3,2.3-0.8,4.5-1.2,6.8c-0.7,4.4-1.7,8.8-3.1,13.1c7.5-0.8,14.9-2.2,22.1-4.3l2.3,7.6
			c-9.2,2.8-18.6,4.5-28.2,5.2c-1.6,3-4,5.6-6.8,7.6c-3.2,2-7.6,1.6-11.5,1.3l0.7-7.9c2,0.3,4,0.1,6-0.4c5-1.8,9.3-16.5,10-21.1
			c1-6.7,5.2-16.5-3.8-18.9c-4.5-1.3-9.2-2.1-13.9-2.5c1.9,6.7-2.9,17-4.8,22.3l-7.9-2.3c1.3-4.3,3.1-8.7,4.1-13.2
			s-6.9-5.4-14.7-5.6l0.2-7.5h5.8c0.6-0.1,1.1-0.3,1.6-0.6l2-0.6c1.4-0.4,2.9-0.6,4.3-0.8c2.9-0.3,5.7-0.4,8.6-0.4
			c7.7,0,16.4,1,23,5.4l1.1,0.8h0.7c11.5-0.3,23.4-5.5,34.7-10.6l3.3,7.4l-3.5,1.5h0.2C525,631.7,525.6,632.4,526.1,633.2z"/>
		<path class="st15" d="M527.6,629.8l4.2-1.8c-1.9,1.6-3.8,3.5-5.7,5.3c-0.5-0.7-1.1-1.3-1.8-1.8h-0.2L527.6,629.8z"/>
		<path class="st15" d="M523.3,414.6c8.2,6,15.8,12.8,23.8,19.1c-11.4,15.9-24.8,30.3-39.9,42.8l-10.1-29.2
			c-1.5-4.2,14.5-14.9,17.2-17.4c1.6-1.6,3.2-3.3,4.5-5.2c0.3-0.3,0.6-0.7,0.8-1.2C521.4,420.8,522.7,417.8,523.3,414.6z"/>
		<path class="st1" d="M522.2,962.8l0.9,8l-6.3,0.7c-1.7,0.2-3.6-1.5-4-3.2c-8.1-36.5-12.8-73.2-16.4-110.4
			c-1.4,31.3-2.9,62.5-6.5,93.4l-8.1-1c0.4-3.7,0.7-7.4,0.9-11c3.7-46.5,5.2-93.1,8.6-139.6c0-0.1,0-0.1,0-0.2c0-0.1,0-0.3,0-0.4
			h0.1c0.4-2.2,2.5-3.8,4.7-3.4c1.8,0.3,3.1,1.7,3.4,3.4h0.1c0,0.1,0,0.3,0,0.4l0,0c4.4,54.7,8.9,109.5,20.4,163.3L522.2,962.8z"/>
		<path class="st1" d="M520.4,272c-0.1,2.2-1.9,4-4.1,4.1h-0.5c-2.2-0.1-4-1.9-4.1-4.1c0-2.1,1.9-4.3,4.1-4.1h0.5
			C518.5,267.9,520.3,269.7,520.4,272z"/>
		<path class="st2" d="M511.7,407v13.9c-5.9,7.1-16.6,14.4-20.7,18.9c-4.6-4.8-18.4-12.3-24.2-18.9c0.1-0.3,0.1-0.7,0.1-1v-11.4
			c10.2,2.1,20.6,2.6,30.9,1.5C502.5,409.5,507.2,408.5,511.7,407z"/>
		<path class="st1" d="M502.7,326.5c2.8-4.5,9.9-0.4,7.1,4.2c-4.4,7-12,10.9-19.9,11.6l-0.7-8.1
			C494.7,333.6,499.8,331.1,502.7,326.5z"/>
		<path class="st1" d="M489.7,293.2c3.6-4,9.4,1.9,5.8,5.8c-6.2,6.8-17.2,7-21.7-1.7c-2-3.8-1.6-8.3,1-11.7c2.5-3,3.6-4.6,3.5-8.5
			l-0.3-7.9c-0.2-5.3,8-5.3,8.2,0s2,12.2-0.7,16.4c-1,1.7-5.3,5.2-4.6,7.2C482.4,297.5,487.1,296,489.7,293.2z"/>
		<path class="st1" d="M489.3,334.1l0.7,8.1c-8.2,0.8-16.8-1.6-22.7-7.2c-3.9-3.6,2-9.5,5.8-5.8S483.3,334.7,489.3,334.1z"/>
		<path d="M489.9,951.4c-0.1,1.1-0.2,2.2-0.4,3.3c-0.5,4.2-0.4,10.6-2.9,14.1c-1.4,1.6-3.3,2.6-5.4,2.9c-0.3,77-6,153.9-4.8,230.9
			c0.2,0.3,0.3,0.6,0.4,0.9c4.4,14.7,17.7,37.2-0.5,47.6c-14.7,8.3-30.5,14.8-45.8,22c-12.7,6-25.3,12.9-38.3,17.9
			c-15.2,5.9-43.5,9.6-44.2-13.3c-0.5-15.2,20.4-24.5,34.8-31.1h0.1c17.8-8.5,33.8-18.9,46.8-33.9c6.1-8.7,2.6-26.9,1.8-36.4
			c-1.9-23.2-5.2-46.3-8.4-69.4c-6.6-48.2-14.3-97-14.1-145.8l-12-3.6c-8.7-2.8-13.6-4-14.7-10.7l7.9-0.3l0.6,0.2
			c2.8,1.1,5.6,2,8.4,2.9l15.1,4.5h0.4c16.2,4.5,32.9,8.1,49.5,9.3c5.3,0.4,15.2,3,16.1-1.9s1.1-7.3,1.5-11L489.9,951.4z
			 M469,1245.7c8.4-4.8,8-13.8,5.6-22.8c-3.2,7.8-10.1,13.4-19,17.7c-19.5,9.4-38.6,18.8-59.3,25.2c-1.4,0.4-3,0-4-1.1
			c-2.9-3.1-5.6-6.4-8.5-9.6c-9.1,4.2-18.9,8.7-24.2,15.5c-12.5,16.1,7.5,17.3,13.9,16.6c6.7-0.7,13.2-2.5,19.2-5.4l23.6-11.2
			C433.7,1262.4,452.2,1255.2,469,1245.7L469,1245.7z M472.9,972.2l-5.9-0.4c-16.8-1.3-33.4-4.1-49.7-8.5
			c0,52.1,8.8,104.1,15.7,155.7c2.9,21.5,6.1,43.2,7.3,64.9c0.5,9.7,2.7,25-3.8,33.5l-0.2,0.3l-0.4,0.5
			c-11.4,13.2-25,23.1-40.1,31.1l-0.7,0.5l-3.5,1.8c1.5,1.8,3.1,3.7,4.7,5.4s9.9-3,11-3.4c9.8-3.6,19.5-7.8,28.8-12.6
			c13.4-6.8,31.2-11.5,32.3-28C466.3,1132.6,472.5,1052.4,472.9,972.2L472.9,972.2z"/>
		<path class="st15" d="M484.1,444.7c3.7,3.1-2.9,23-6.2,33.2c-16.1-11.4-29.6-24.7-43.8-39.8c7.6-7.1,14.8-14.6,22.6-21.3
			c1.1,5.7,5.9,11.2,10.1,15S478.6,440.1,484.1,444.7z"/>
		<path class="st15" d="M479.5,638c9,2.4,4.8,12.2,3.8,18.9c-0.7,4.6-5,19.3-10,21.1c-2,0.5-4,0.7-6,0.4l-6.9-0.8l-5.4-0.5
			c3.2-5.6,4.5-14.9,5.6-18.4l0.3-0.9c1.9-5.3,6.7-15.6,4.8-22.3C470.4,635.9,475,636.7,479.5,638z"/>
		<path class="st11" d="M474.6,1222.9c2.4,8.9,2.9,18-5.6,22.8c-16.8,9.5-35.3,16.7-52.7,25l-23.6,11.2c-6,2.9-12.5,4.7-19.2,5.4
			c-6.4,0.7-26.4-0.5-13.9-16.6c5.3-6.8,15.1-11.4,24.2-15.5c2.8,3.2,5.6,6.5,8.5,9.6c1,1.1,2.6,1.5,4,1.1
			c20.7-6.4,39.9-15.8,59.3-25.2C464.5,1236.3,471.3,1230.7,474.6,1222.9z"/>
		<path class="st2" d="M466.9,971.7l5.9,0.4c-0.4,80.3-6.6,160.5-4.6,240.8c-1.1,16.5-18.9,21.2-32.3,28c-9.3,4.8-19,9-28.8,12.6
			c-1.1,0.4-10,4.4-11,3.4s-3.2-3.6-4.7-5.4l3.5-1.8l0.7-0.5c15.1-8.1,28.8-17.9,40.1-31.1l0.4-0.5l0.2-0.3
			c6.5-8.4,4.3-23.8,3.8-33.5c-1.2-21.7-4.4-43.4-7.3-64.9c-6.9-51.5-15.7-103.5-15.7-155.7C433.4,967.5,450.1,970.4,466.9,971.7z"
			/>
		<path class="st1" d="M467.3,678.4l-0.7,7.9l-2.7-0.2c-7.4-0.4-14.5-0.9-21.5-3.5c-2.6,0.1-5-0.1-6.8-0.2
			c-8.9-0.2-17.7-0.8-26.5-1.6c0,11.8,0.2,23.6-0.1,35.3c-0.2,7.3,7.1,11,15.1,13.2l-2,7.4l-3.4-0.9c-2.1-0.6-4.6-1.2-6.9-2
			c-6.8,46.5-11.4,93.5-15.8,140.3c-1.8,19.4-3.6,38.7-4.9,58.1c-0.3,4.7-0.7,9.4-0.8,14.1l-7.9,0.3c-0.3-1.7-0.3-3.3-0.2-5
			c1-19.3,2.9-38.6,4.6-57.9c4.7-51.4,9.7-103,17.3-154.1c-2-1.8-3.2-4.3-3.3-7c-0.9-14.1-0.2-28.4-0.1-42.6l-16.5-1.7
			c-17.3-1.9-37.8-1.8-54.2-8.1c-14.3-5.5-9.1-24.4-7.6-35.7l7.2,1.2c-2.1,13.5-1.5,27.2,13,29.1s30.6,4,45.9,5.6
			c12.7,1.3,25.5,2.7,38.2,3.3c3.7,0.2,7.4,0.4,11,0.4s6.1,0.1,9-0.7c0.9-0.1,1.7-0.9,1.7-1.9c1-5.4,2.9-10.8,4.6-16l7.9,2.3
			l-0.3,0.9c-1.1,3.5-2.4,12.8-5.6,18.4l5.4,0.5L467.3,678.4z"/>
		<path class="st1" d="M451.7,272c-0.1,2.2-1.9,4-4.1,4.1h-0.5c-2.2-0.1-4-1.9-4.1-4.1c0-2.1,1.9-4.3,4.1-4.1h0.5
			C449.8,267.9,451.6,269.7,451.7,272z"/>
		<path class="st7" d="M435.6,321.2c4.9,14.3-5.7,27.3-18.9,30.7l-2.2-6.1c-4.7-13.6-8.6-27.4-11.6-41.5
			C417.1,300.4,430.6,306.8,435.6,321.2z"/>
		<path class="st1" d="M420.1,507c1.6,0.9,2.4,2.7,2,4.5c-2.1,10.8-3.7,21.7-5,32.5l-8.1-0.9v-0.8l-7.6-3.1
			c4.1-10.1,8.3-20.1,12.7-30c0.2-0.8,0.6-1.5,1.2-2.1C416.6,505.8,418.7,505.8,420.1,507z"/>
		<path class="st2" d="M389.7,276.6c-2.8,0.9-9.2-8.9-9.7-10.1c-1.1-2.9-1.5-6.1-1.3-9.2c0.1-3.2,3.2-11.8,7.8-7.1l0.4,0.3
			C387.6,259.2,388.5,267.9,389.7,276.6z"/>
	</g>
</g>
</svg>
