<svg id="圖層_1" xmlns="http://www.w3.org/2000/svg" viewBox="0 0 50 50"><style>.st0{fill:#fff}</style><path class="st0" d="M40.2 22.9c0-6.8-6.8-12.3-15.2-12.3-8.3 0-15.2 5.6-15.2 12.3C9.8 29 15.2 34 22.5 35c.5.2 1.2.3 1.4.7.2.3.2 1 0 1.4 0 0-.2 1-.2 1.4 0 .3-.3 1.5 1.4.8s8.8-5.1 12-8.8c2.1-2.4 3.1-4.9 3.1-7.6zm-21.1 4h-3c-.5 0-.8-.3-.8-.8v-5.9c0-.5.3-.8.8-.8s.8.3.8.8v5.2h2.2c.5 0 .8.3.8.8 0 .4-.3.7-.8.7zm3.2-.8c0 .5-.3.8-.8.8s-.8-.3-.8-.8v-5.9c0-.5.3-.8.8-.8s.8.3.8.8v5.9zm7.1 0c0 .3-.2.7-.5.7h-.2c-.2 0-.5-.2-.7-.3l-3-4.1v3.7c0 .5-.3.8-.8.8s-.8-.3-.8-.8v-5.9c0-.3.2-.7.5-.7h.1c.2 0 .5.2.7.3l3 4.2v-3.9c0-.5.3-.8.8-.8s.8.3.8.8v6zm4.9-3.7c.5 0 .8.3.8.8s-.3.8-.8.8h-2.2v1.4h2.2c.5 0 .8.3.8.8s-.3.8-.8.8h-3c-.5 0-.8-.3-.8-.8v-6c0-.5.3-.8.8-.8h3c.5 0 .8.3.8.8s-.3.8-.8.8h-2.2v1.4h2.2z"/></svg>