<svg id="圖層_1" xmlns="http://www.w3.org/2000/svg" viewBox="0 0 55 55"><style>.st0{fill:#fff}</style><path class="st0" d="M23.4 35.1l-.2 3.4 5.7-1-2.4-2.4h-3.1zm0 0M14.1 30.5L18 32c.3.1.4.4.4.6v1.1h3.7l.3-4.1-8-2.5-.3 3.4zm0 0M18.9 17.2v5.1c0 .2-.1.4-.2.5l-3.4 3.4 7.1 2.2-.3-10.4-3.2-.8zm0 0"/><path class="st0" d="M23.7 29.7l-.3 4.1h3.2c.2 0 .4.1.5.2l3.3 3.3 1.5-.2-.5-8.9-7.7 1.5zm0 0M36.8 23.1L40 28l.7.1.5-9.2c0-.4-.2-.7-.6-.8l-7.7-1.8-.1 5.6 3.6.9c.1.1.3.2.4.3zm0 0M17.1 34.5v-1.3l-3-1.2-.2 3c0 .3.2.7.5.8l7.5 2.9.2-3.4h-4.3c-.4-.2-.7-.5-.7-.8zm0 0M41.2 37.9l-.4-8.4-8-1.4.5 8.9 7 1.7h.2c.3.1.7-.3.7-.8 0 .1 0 0 0 0zm0 0M31.5 21.6l.1-5.3-3.2.6v2.8l1.4 1.4 1.7.5zm0 0M17.5 21.9v-5.1l-2.8-.6c-.2-.1-.5 0-.7.2-.2.2-.3.4-.3.6l.5 8.1 3.3-3.2zm0 0"/><path class="st0" d="M31.4 26.7V23l-2.2-.6c-.1 0-.2-.1-.3-.2l-1.7-1.7c-.1-.1-.2-.3-.2-.5v-2.9l-3.6.7.3 10.4 7.7-1.5zm0 0M35.8 24.1l-3-.8-.1 3.4 5.4 1-2.3-3.6zm0 0"/></svg>