<?xml version="1.0" encoding="UTF-8" standalone="no"?>
<svg width="180px" height="225px" viewBox="0 0 180 225" version="1.1" xmlns="http://www.w3.org/2000/svg" xmlns:xlink="http://www.w3.org/1999/xlink">
    <!-- Generator: Sketch 39.1 (31720) - http://www.bohemiancoding.com/sketch -->
    <title>icon_Gymnastics_shadow</title>
    <desc>Created with Sketch.</desc>
    <defs>
        <ellipse id="path-1" cx="90.4440559" cy="90.0471698" rx="74.4440559" ry="74.0471698"></ellipse>
        <filter x="-50%" y="-50%" width="200%" height="200%" filterUnits="objectBoundingBox" id="filter-2">
            <feOffset dx="0" dy="4" in="SourceAlpha" result="shadowOffsetOuter1"></feOffset>
            <feColorMatrix values="0 0 0 0 1   0 0 0 0 1   0 0 0 0 1  0 0 0 1 0" type="matrix" in="shadowOffsetOuter1"></feColorMatrix>
        </filter>
    </defs>
    <g id="Page-2" stroke="none" stroke-width="1" fill="none" fill-rule="evenodd">
        <g id="icon_Gymnastics_shadow">
            <g id="Oval-2">
                <use fill="black" fill-opacity="1" filter="url(#filter-2)" xlink:href="#path-1"></use>
                <use fill="#B1F3F8" fill-rule="evenodd" xlink:href="#path-1"></use>
            </g>
            <g id="Page-1" transform="translate(6.000000, 4.000000)">
                <polygon id="Fill-1" fill="#FFFFFF" points="147.3743 160.1383 37.5133 50.3583 44.0883 43.7843 153.9493 153.5633"></polygon>
                <g id="Group-74" transform="translate(0.000000, 0.719000)">
                    <path d="M108.6844,129.4249 C112.5144,133.0049 113.4544,138.5349 111.0244,143.1949 L96.5844,170.7849 L93.9544,163.6749 L86.7044,165.6149 L101.7644,136.8249 L106.4444,127.8849 L106.4944,127.8049 C107.2644,128.2449 108.0044,128.7849 108.6844,129.4249" id="Fill-2" fill="#FFBE64"></path>
                    <path d="M106.4944,127.8049 L106.4444,127.8849 L101.7644,136.8249 L82.8144,148.3949 C78.8644,150.8149 74.1444,150.6749 70.4644,148.2049 L70.6144,147.9949 L75.6844,139.6849 L94.8044,128.0049 C98.4844,125.7549 102.9044,125.7449 106.4944,127.8049" id="Fill-4" fill="#FF5050"></path>
                    <path d="M84.0244,109.1049 C87.8644,112.9449 88.5444,118.6249 85.7144,123.2549 L75.6844,139.6849 L70.6144,147.9949 L70.4644,148.2049 C69.8344,147.7749 69.2244,147.2749 68.6644,146.7149 C64.8244,142.8849 64.1344,137.1849 66.9644,132.5549 L77.0044,116.1249 L82.2044,107.6149 L82.2144,107.6049 C82.8544,108.0349 83.4544,108.5349 84.0244,109.1049" id="Fill-6" fill="#FFBE64"></path>
                    <path d="M82.2144,107.6049 L82.2044,107.6149 L77.0044,116.1249 L60.5744,126.1649 C56.6344,128.5749 51.9244,128.4349 48.2444,125.9749 L53.4644,117.4349 L69.8644,107.4149 C73.8144,105.0049 78.5344,105.1349 82.2144,107.6049" id="Fill-8" fill="#FF5050"></path>
                    <path d="M53.4644,117.4349 L48.2444,125.9749 C47.5944,125.5549 46.9844,125.0549 46.4144,124.4849 C42.5744,120.6449 41.8944,114.9449 44.7244,110.3149 L55.9444,91.9449 L55.9544,91.9449 L59.9644,85.3749 L59.9644,85.3649 C60.6144,85.7849 61.2244,86.2849 61.7944,86.8549 C65.6344,90.6949 66.3044,96.3849 63.4844,101.0249 L53.4644,117.4349 Z" id="Fill-10" fill="#FFBE64"></path>
                    <path d="M59.9644,85.3649 L59.9644,85.3749 L55.9544,91.9449 L55.9444,91.9449 L34.0544,105.3149 C30.7744,107.3149 26.8844,107.5449 23.5344,106.0949 L27.8944,97.2249 L27.9044,97.2249 L47.6244,85.1649 C51.5844,82.7549 56.2844,82.8949 59.9644,85.3649" id="Fill-12" fill="#FF5050"></path>
                    <path d="M43.0944,66.3849 L27.9044,97.2249 L27.8944,97.2249 L23.5344,106.0949 C22.3644,105.5949 21.2644,104.8949 20.2744,103.9949 C16.4744,100.5049 15.4144,95.0349 17.7044,90.3849 L33.9944,57.2949 L43.0944,66.3849 Z" id="Fill-14" fill="#FFBE64"></path>
                    <g id="Group-19" transform="translate(31.000000, 42.000000)">
                        <polyline id="Fill-16" fill="#FFFFFF" points="17.5378 11.0635 7.2548 0.7805 0.6798 7.3545 110.5408 117.1345"></polyline>
                        <polyline id="Stroke-18" stroke="#000000" stroke-width="5" stroke-linecap="round" stroke-linejoin="round" points="17.5378 11.0635 7.2548 0.7805 0.6798 7.3545 110.5408 117.1345"></polyline>
                    </g>
                    <g id="Group-23" transform="translate(83.000000, 87.000000)">
                        <path d="M10.5118,11.0376 L0.1268,0.6526" id="Fill-20" fill="#FFFFFF"></path>
                        <path d="M10.5118,11.0376 L0.1268,0.6526" id="Stroke-22" stroke="#000000" stroke-width="5" stroke-linecap="round" stroke-linejoin="round"></path>
                    </g>
                    <g id="Group-27" transform="translate(126.000000, 130.000000)">
                        <path d="M22.1152,22.5596 L0.3762,0.9016" id="Fill-24" fill="#FFFFFF"></path>
                        <path d="M22.1152,22.5596 L0.3762,0.9016" id="Stroke-26" stroke="#000000" stroke-width="5" stroke-linecap="round" stroke-linejoin="round"></path>
                    </g>
                    <path d="M64.7798,147.7025 L79.8848,122.9755 C82.7148,118.3435 82.0378,112.6515 78.1988,108.8135 C74.3598,104.9745 68.6688,104.2965 64.0358,107.1275 L47.6098,117.1615" id="Stroke-28" stroke="#000000" stroke-width="5" stroke-linecap="round" stroke-linejoin="round"></path>
                    <path d="M100.6106,127.5951 L80.8716,165.3291 L88.1266,163.3981 L90.7576,170.5001 L105.1926,142.9051 C107.6246,138.2581 106.6816,132.7211 102.8546,129.1431 C99.0236,125.5591 93.4426,124.9881 88.9656,127.7231 L69.8496,139.4021" id="Stroke-30" stroke="#000000" stroke-width="5" stroke-linecap="round" stroke-linejoin="round"></path>
                    <path d="M76.3657,107.3337 L61.1327,132.2697 C58.3027,136.9027 58.9807,142.5947 62.8187,146.4327 C66.6567,150.2717 72.3487,150.9487 76.9817,148.1187 L95.9297,136.5437" id="Stroke-32" stroke="#000000" stroke-width="5" stroke-linecap="round" stroke-linejoin="round"></path>
                    <path d="M54.1258,85.0938 L38.8928,110.0308 C36.0628,114.6638 36.7408,120.3548 40.5788,124.1928 C44.4168,128.0318 50.1088,128.7098 54.7418,125.8798 L71.1668,115.8448" id="Stroke-34" stroke="#000000" stroke-width="5" stroke-linecap="round" stroke-linejoin="round"></path>
                    <path d="M28.1695,57.0142 L11.8715,90.0962 C9.5825,94.7442 10.6325,100.2242 14.4395,103.7062 C18.2645,107.1982 23.8035,107.7302 28.2235,105.0302 L50.1155,91.6582" id="Stroke-36" stroke="#000000" stroke-width="5" stroke-linecap="round" stroke-linejoin="round"></path>
                    <path d="M17.6957,105.8134 L37.2587,66.1034" id="Stroke-38" stroke="#000000" stroke-width="5" stroke-linecap="round" stroke-linejoin="round"></path>
                    <path d="M22.0701,96.9341 L41.7971,84.8841 C45.7421,82.4741 50.4551,82.6081 54.1381,85.0711 C54.7801,85.5001 55.3901,86.0001 55.9601,86.5701 C59.7991,90.4081 60.4761,96.1001 57.6461,100.7331 L42.4011,125.6891" id="Stroke-40" stroke="#000000" stroke-width="5" stroke-linecap="round" stroke-linejoin="round"></path>
                    <path d="M28.1695,57.0142 L11.8715,90.0962 C9.5825,94.7442 10.6325,100.2242 14.4395,103.7062 C18.2645,107.1982 23.8035,107.7302 28.2235,105.0302 L50.1155,91.6582" id="Stroke-42" stroke="#000000" stroke-width="5" stroke-linecap="round" stroke-linejoin="round"></path>
                    <path d="M12.7701,67.3828 L2.3211,88.5928 C-1.1489,95.6368 0.4431,103.9428 6.2131,109.2198" id="Stroke-44" stroke="#000000" stroke-width="3" stroke-linecap="round"></path>
                    <path d="M53.6191,148.9484 C54.1711,150.8454 55.1331,152.6604 56.5011,154.2824 C60.8531,159.4384 67.8301,160.8744 73.8651,157.8544" id="Stroke-46" stroke="#000000" stroke-width="3" stroke-linecap="round"></path>
                    <path d="M101.2584,169.4285 L111.9384,149.0115" id="Stroke-48" stroke="#000000" stroke-width="3" stroke-linecap="round"></path>
                    <path d="M132.4989,71.6092 C117.9029,71.6092 106.0699,83.4422 106.0699,98.0382 C106.0699,112.6352 117.9029,124.4672 132.4989,124.4672 C147.0949,124.4672 158.9279,112.6352 158.9279,98.0382 C158.9279,83.4422 147.0949,71.6092 132.4989,71.6092 M149.2579,98.0382 C149.2579,107.2942 141.7549,114.7982 132.4989,114.7982 C123.2429,114.7982 115.7399,107.2942 115.7399,98.0382 C115.7399,88.7822 123.2429,81.2792 132.4989,81.2792 C141.7549,81.2792 149.2579,88.7822 149.2579,98.0382" id="Fill-50" fill="#FF5050"></path>
                    <path d="M135.806,86.1391 L126.192,86.1391 L126.192,45.0621 L135.806,45.0621 C137.463,45.0621 138.806,46.4051 138.806,48.0621 L138.806,83.1391 C138.806,84.7961 137.463,86.1391 135.806,86.1391" id="Fill-52" fill="#FFFFFF"></path>
                    <path d="M130.9741,86.1391 L124.3601,86.1391 C122.7031,86.1391 121.3601,84.7961 121.3601,83.1391 L121.3601,48.0621 C121.3601,46.4051 122.7031,45.0621 124.3601,45.0621 L130.9741,45.0621 C132.6311,45.0621 133.9741,46.4051 133.9741,48.0621 L133.9741,83.1391 C133.9741,84.7961 132.6311,86.1391 130.9741,86.1391 L130.9741,86.1391 Z" id="Stroke-54" stroke="#000000" stroke-width="5" stroke-linecap="round" stroke-linejoin="round"></path>
                    <path d="M114.2841,75.1644 C106.5641,79.7424 101.3851,88.1554 101.3851,97.7824 C101.3851,112.2974 113.1521,124.0644 127.6671,124.0644 C142.1821,124.0644 153.9491,112.2974 153.9491,97.7824 C153.9491,88.1554 148.7701,79.7424 141.0501,75.1644" id="Stroke-56" stroke="#000000" stroke-width="5" stroke-linecap="round" stroke-linejoin="round"></path>
                    <path d="M114.1543,87.8715 C112.1143,90.6475 110.9073,94.0735 110.9073,97.7825 C110.9073,107.0385 118.4113,114.5415 127.6673,114.5415 C136.9233,114.5415 144.4263,107.0385 144.4263,97.7825 C144.4263,94.0735 143.2193,90.6475 141.1803,87.8715" id="Stroke-58" stroke="#000000" stroke-width="5" stroke-linecap="round" stroke-linejoin="round"></path>
                    <path d="M159.64,84.5308 C161.396,88.6818 162.367,93.2468 162.367,98.0378 C162.367,111.1998 155.038,122.6508 144.238,128.5318" id="Stroke-60" stroke="#000000" stroke-width="3" stroke-linecap="round"></path>
                    <path d="M88.2181,27.3284 C73.6221,27.3284 61.7891,39.1614 61.7891,53.7574 C61.7891,68.3544 73.6221,80.1864 88.2181,80.1864 C102.8141,80.1864 114.6471,68.3544 114.6471,53.7574 C114.6471,39.1614 102.8141,27.3284 88.2181,27.3284 M104.9771,53.7574 C104.9771,63.0134 97.4741,70.5174 88.2181,70.5174 C78.9621,70.5174 71.4591,63.0134 71.4591,53.7574 C71.4591,44.5014 78.9621,36.9984 88.2181,36.9984 C97.4741,36.9984 104.9771,44.5014 104.9771,53.7574" id="Fill-62" fill="#FF5050"></path>
                    <path d="M91.5251,41.8582 L81.9111,41.8582 L81.9111,0.7812 L91.5251,0.7812 C93.1821,0.7812 94.5251,2.1242 94.5251,3.7812 L94.5251,38.8582 C94.5251,40.5152 93.1821,41.8582 91.5251,41.8582" id="Fill-64" fill="#FFFFFF"></path>
                    <path d="M86.6933,41.8582 L80.0793,41.8582 C78.4223,41.8582 77.0793,40.5152 77.0793,38.8582 L77.0793,3.7812 C77.0793,2.1242 78.4223,0.7812 80.0793,0.7812 L86.6933,0.7812 C88.3503,0.7812 89.6933,2.1242 89.6933,3.7812 L89.6933,38.8582 C89.6933,40.5152 88.3503,41.8582 86.6933,41.8582 L86.6933,41.8582 Z" id="Stroke-66" stroke="#000000" stroke-width="5" stroke-linecap="round" stroke-linejoin="round"></path>
                    <path d="M70.0032,30.8835 C62.2832,35.4615 57.1042,43.8745 57.1042,53.5015 C57.1042,68.0165 68.8712,79.7835 83.3862,79.7835 C97.9012,79.7835 109.6682,68.0165 109.6682,53.5015 C109.6682,43.8745 104.4892,35.4615 96.7692,30.8835" id="Stroke-68" stroke="#000000" stroke-width="5" stroke-linecap="round" stroke-linejoin="round"></path>
                    <path d="M69.8734,43.5906 C67.8334,46.3666 66.6264,49.7926 66.6264,53.5016 C66.6264,62.7576 74.1304,70.2606 83.3864,70.2606 C92.6424,70.2606 100.1454,62.7576 100.1454,53.5016 C100.1454,49.7926 98.9384,46.3666 96.8994,43.5906" id="Stroke-70" stroke="#000000" stroke-width="5" stroke-linecap="round" stroke-linejoin="round"></path>
                    <path d="M53.4435,33.3885 C55.9375,29.6385 59.1115,26.3785 62.7875,23.7855" id="Stroke-72" stroke="#000000" stroke-width="3" stroke-linecap="round"></path>
                </g>
            </g>
            <ellipse id="Oval-3-Copy-5" fill-opacity="0.2" fill="#000000" cx="90" cy="214" rx="35" ry="11"></ellipse>
        </g>
    </g>
</svg>