<?xml version="1.0" encoding="UTF-8" standalone="no"?>
<svg width="180px" height="225px" viewBox="0 0 180 225" version="1.1" xmlns="http://www.w3.org/2000/svg" xmlns:xlink="http://www.w3.org/1999/xlink">
    <!-- Generator: Sketch 39.1 (31720) - http://www.bohemiancoding.com/sketch -->
    <title>icon_Badminton_shadow</title>
    <desc>Created with Sketch.</desc>
    <defs>
        <ellipse id="path-1" cx="90.4440559" cy="90.0471698" rx="74.4440559" ry="74.0471698"></ellipse>
        <filter x="-50%" y="-50%" width="200%" height="200%" filterUnits="objectBoundingBox" id="filter-2">
            <feOffset dx="0" dy="4" in="SourceAlpha" result="shadowOffsetOuter1"></feOffset>
            <feColorMatrix values="0 0 0 0 1   0 0 0 0 1   0 0 0 0 1  0 0 0 1 0" type="matrix" in="shadowOffsetOuter1"></feColorMatrix>
        </filter>
    </defs>
    <g id="Page-2" stroke="none" stroke-width="1" fill="none" fill-rule="evenodd">
        <g id="icon_Badminton_shadow">
            <g id="Oval-2">
                <use fill="black" fill-opacity="1" filter="url(#filter-2)" xlink:href="#path-1"></use>
                <use fill="#B1F3F8" fill-rule="evenodd" xlink:href="#path-1"></use>
            </g>
            <g id="Page-1" transform="translate(21.000000, 20.000000)">
                <path d="M102.834,123.2213 L106.908,127.2953 C114.443,134.8303 126.66,134.8303 134.195,127.2953 C141.73,119.7603 141.73,107.5433 134.195,100.0083 L130.121,95.9343 L102.834,123.2213 Z" id="Fill-1" fill="#FFFFFF"></path>
                <g id="Group-11" transform="translate(15.000000, 8.037000)">
                    <path d="M73.8391,6.9364 L89.7391,44.0564 L78.3591,47.4164 C76.3891,47.9964 74.4591,48.7164 72.5891,49.5664 C72.5791,49.5764 72.5791,49.5664 72.5791,49.5664 L52.2291,20.8964 C52.2191,20.8864 52.2191,20.8764 52.2091,20.8664 C49.1491,16.5264 49.8891,10.3464 53.9491,6.2864 L55.8191,4.4164 C61.5691,-1.3336 70.8491,-0.0336 73.8391,6.9364" id="Fill-3" fill="#FFBE64"></path>
                    <path d="M52.2291,20.8965 L72.5791,49.5665 C70.6691,50.4365 68.8191,51.4365 67.0391,52.5665 C64.1391,54.3965 61.4391,56.5565 59.0191,58.9765 L30.8091,30.7665 C26.5991,26.5565 26.8791,19.4365 31.4491,14.8765 C33.8691,12.4565 36.9691,11.2565 39.9691,11.2565 C43.2491,11.2565 46.4091,12.6965 48.4191,15.5265 L52.2091,20.8665 C52.2191,20.8765 52.2191,20.8865 52.2291,20.8965" id="Fill-5" fill="#FF5050"></path>
                    <path d="M30.8091,30.7664 L59.0191,58.9764 C56.5991,61.3964 54.4391,64.0964 52.6091,66.9964 L52.5991,66.9964 C51.4691,68.7764 50.4791,70.6264 49.6091,72.5364 L20.9391,52.1864 C20.9291,52.1764 20.9191,52.1764 20.9091,52.1664 L15.5691,48.3764 C10.1491,44.5364 9.8491,36.4764 14.9191,31.4064 C17.3191,29.0064 20.4291,27.7864 23.4491,27.7864 C26.1691,27.7864 28.8191,28.7764 30.8091,30.7664" id="Fill-7" fill="#FFBE64"></path>
                    <path d="M49.6091,72.5365 L49.6091,72.5465 C48.7591,74.4165 48.0391,76.3465 47.4591,78.3165 L44.0991,89.6965 L6.9791,73.7965 C0.0091,70.8065 -1.2909,61.5265 4.4591,55.7765 L6.3291,53.9065 C10.3891,49.8465 16.5691,49.1065 20.9091,52.1665 C20.9191,52.1765 20.9291,52.1765 20.9391,52.1865 L49.6091,72.5365 Z" id="Fill-9" fill="#FF5050"></path>
                </g>
                <path d="M91.2526,89.9478 L39.9826,38.6778 C35.7686,34.4638 36.0526,27.3488 40.6166,22.7858 L40.6166,22.7858 C45.6896,17.7118 53.7476,18.0188 57.5896,23.4318 L101.0096,84.6038" id="Stroke-12" stroke="#000000" stroke-width="5" stroke-linecap="round" stroke-linejoin="round"></path>
                <path d="M85.9084,99.7045 L24.7374,56.2855 C19.3234,52.4425 19.0164,44.3855 24.0904,39.3115 L24.0904,39.3115 C28.6534,34.7485 35.7694,34.4645 39.9824,38.6775 L91.2524,89.9475" id="Stroke-14" stroke="#000000" stroke-width="5" stroke-linecap="round" stroke-linejoin="round"></path>
                <path d="M82.2909,110.038 L16.1519,81.707 C9.1769,78.719 7.8769,69.435 13.6299,63.683 L15.4989,61.814 C19.5679,57.744 25.7679,57.016 30.1099,60.099 L85.9089,99.704" id="Stroke-16" stroke="#000000" stroke-width="5" stroke-linecap="round" stroke-linejoin="round"></path>
                <path d="M96.8302,122.812 L100.9042,126.886 C108.4392,134.421 120.6562,134.421 128.1912,126.886 C135.7262,119.351 135.7262,107.134 128.1912,99.599 L124.1172,95.525 L96.8302,122.812 L96.8302,122.812 Z" id="Stroke-18" stroke="#000000" stroke-width="5" stroke-linecap="round" stroke-linejoin="round"></path>
                <path d="M89.9043,115.8861 L117.1913,88.5991" id="Stroke-20" stroke="#000000" stroke-width="5" stroke-linecap="round" stroke-linejoin="round"></path>
                <path d="M101.0093,84.6036 L61.4033,28.8046 C58.3213,24.4626 59.0493,18.2636 63.1193,14.1936 L64.9873,12.3246 C70.7403,6.5726 80.0233,7.8716 83.0113,14.8476 L111.3433,80.9856" id="Stroke-22" stroke="#000000" stroke-width="5" stroke-linecap="round" stroke-linejoin="round"></path>
                <path d="M98.9135,51.9699 L87.5305,55.3299 C83.5705,56.4989 79.7575,58.2309 76.2135,60.4709 L76.2115,60.4719 C70.4005,64.1439 65.4485,69.0949 61.7765,74.9069 L61.7755,74.9089 C59.5355,78.4519 57.8035,82.2659 56.6345,86.2259 L53.2745,97.6089" id="Stroke-24" stroke="#000000" stroke-width="5" stroke-linecap="round" stroke-linejoin="round"></path>
                <polyline id="Stroke-26" stroke="#000000" stroke-width="3" stroke-linecap="round" points="77.5656 119.9979 65.2326 114.7149 24.3216 97.1909"></polyline>
                <path d="M135.2619,92.5292 C137.4069,94.6742 139.1779,97.0932 140.5439,99.7072" id="Stroke-28" stroke="#231F1F" stroke-width="3" stroke-linecap="round"></path>
                <path d="M93.8327,133.9569 C99.3657,139.4899 106.7227,142.5369 114.5477,142.5369 C120.4167,142.5369 126.0217,140.8229 130.7917,137.6319" id="Stroke-30" stroke="#000000" stroke-width="3" stroke-linecap="round"></path>
                <path d="M131.1881,88.455 L135.2621,92.529 C137.4071,94.674 139.1781,97.093 140.5431,99.707" id="Stroke-32" stroke="#000000" stroke-width="3" stroke-linecap="round"></path>
                <path d="M9.5402,45.2858 C6.5892,40.6978 7.2592,34.1578 11.7052,29.7118 L11.7052,29.7118 C14.6922,26.7248 18.6782,25.4128 22.3862,25.8288 C24.3832,26.0518 26.1292,24.3058 25.9062,22.3088 C25.4902,18.6008 26.8022,14.6148 29.7892,11.6278 L29.7892,11.6278 C33.9532,7.4638 39.9542,6.6118 44.4682,8.9448" id="Stroke-34" stroke="#000000" stroke-width="3" stroke-linecap="round"></path>
                <path d="M0.5626,25.4142 C0.2336,22.6032 1.2026,19.5572 3.5086,17.2512 L3.5086,17.2512 C5.7786,14.9812 8.8076,13.9852 11.6256,14.3002 C13.1436,14.4702 14.4706,13.1432 14.3006,11.6262 C13.9846,8.8082 14.9816,5.7782 17.2516,3.5082 L17.2516,3.5082 C19.4106,1.3492 22.2196,0.3612 24.8766,0.5162" id="Stroke-36" stroke="#000000" stroke-width="3" stroke-linecap="round"></path>
            </g>
            <ellipse id="Oval-3-Copy-3" fill-opacity="0.2" fill="#000000" cx="90" cy="214" rx="35" ry="11"></ellipse>
        </g>
    </g>
</svg>