<?xml version="1.0" encoding="UTF-8" standalone="no"?>
<svg width="180px" height="180px" viewBox="0 0 180 180" version="1.1" xmlns="http://www.w3.org/2000/svg" xmlns:xlink="http://www.w3.org/1999/xlink">
    <!-- Generator: Sketch 39.1 (31720) - http://www.bohemiancoding.com/sketch -->
    <title>icon_Taekwondo</title>
    <desc>Created with Sketch.</desc>
    <defs>
        <ellipse id="path-1" cx="90.4440559" cy="90.0471698" rx="74.4440559" ry="74.0471698"></ellipse>
        <filter x="-50%" y="-50%" width="200%" height="200%" filterUnits="objectBoundingBox" id="filter-2">
            <feOffset dx="0" dy="4" in="SourceAlpha" result="shadowOffsetOuter1"></feOffset>
            <feColorMatrix values="0 0 0 0 1   0 0 0 0 1   0 0 0 0 1  0 0 0 1 0" type="matrix" in="shadowOffsetOuter1"></feColorMatrix>
        </filter>
        <polygon id="path-3" points="19.1545161 53.1624194 19.1545161 0.313064516 0.17816129 0.313064516 0.17816129 53.1624194 19.1545161 53.1624194"></polygon>
    </defs>
    <g id="Page-1" stroke="none" stroke-width="1" fill="none" fill-rule="evenodd">
        <g id="icon_Taekwondo">
            <g id="Oval-2">
                <use fill="black" fill-opacity="1" filter="url(#filter-2)" xlink:href="#path-1"></use>
                <use fill="#B1F3F8" fill-rule="evenodd" xlink:href="#path-1"></use>
            </g>
            <g id="Page-1" transform="translate(14.000000, 21.000000)">
                <path d="M87.5005161,14.9030323 C87.5005161,16.9381935 85.8495484,18.5891613 83.8143871,18.5891613 L75.0340645,18.5891613 C72.9979355,18.5891613 71.3469677,16.9381935 71.3469677,14.9030323 L71.3469677,0.485612903 L87.5005161,0.485612903 L87.5005161,14.9030323 Z" id="Fill-1" fill="#FFFFFF"></path>
                <path d="M61.2538065,0.485225806 L61.2538065,14.9026452 C61.2538065,16.9387742 59.6028387,18.5897419 57.5676774,18.5897419 L48.7873548,18.5897419 C46.7512258,18.5897419 45.1002581,16.9387742 45.1002581,14.9026452 L45.1002581,0.60716129 C45.8696129,0.522967742 46.6573548,0.485225806 47.4460645,0.485225806 L61.2538065,0.485225806 Z" id="Fill-3" fill="#FFFFFF"></path>
                <path d="M110.06071,18.5895484 L101.280387,18.5895484 C99.2452258,18.5895484 97.5942581,16.9385806 97.5942581,14.9034194 L97.5942581,0.485032258 L111.402,0.485032258 C112.189742,0.485032258 112.978452,0.522774194 113.746839,0.606967742 L113.746839,14.9034194 C113.746839,16.9385806 112.095871,18.5895484 110.06071,18.5895484" id="Fill-5" fill="#FFFFFF"></path>
                <path d="M48.2149355,131.587355 C44.0410645,125.067677 41.8171935,117.478645 41.8171935,109.730903 L41.8171935,83.361871 C41.8171935,81.3267097 40.1662258,79.6757419 38.1310645,79.6757419 L27.8120323,79.6757419 C25.776871,79.6757419 24.1259032,81.3267097 24.1259032,83.361871 L24.1259032,100.762839 L24.1259032,107.000903 C24.1259032,116.437355 27.4084839,125.574774 33.4220323,132.844452 L42.8207419,144.223161 C44.0120323,145.658323 46.0946129,145.97671 47.6613871,144.964452 L51.0194516,142.79671 C52.7265484,141.69929 53.2239677,139.420258 52.1265484,137.713161 L48.2149355,131.587355 Z" id="Fill-7" fill="#FF5050"></path>
                <path d="M131.044935,79.6754516 L120.717194,79.6754516 C118.681065,79.6754516 117.030097,81.3264194 117.030097,83.3625484 L117.030097,109.730613 C117.030097,117.479323 114.816871,125.068355 110.642032,131.587065 L106.72171,137.712871 C105.623323,139.419968 106.120742,141.699968 107.827839,142.797387 L111.186871,144.964161 C112.752677,145.977387 114.835258,145.658032 116.026548,144.222871 L125.434935,132.844161 C131.438806,125.574484 134.731065,116.438032 134.731065,107.000613 L134.731065,100.762548 L134.731065,83.3625484 C134.731065,81.3264194 133.080097,79.6754516 131.044935,79.6754516" id="Fill-9" fill="#FF5050"></path>
                <path d="M133.896581,30.1743871 L133.896581,22.9705161 C133.896581,11.3382581 125.069806,1.77987097 113.747226,0.606967742 L113.747226,14.9034194 C113.747226,16.9385806 112.096258,18.5895484 110.061097,18.5895484 L101.280774,18.5895484 C99.2446452,18.5895484 97.5936774,16.9385806 97.5936774,14.9034194 L97.5936774,0.485032258 L87.500129,0.485032258 L87.500129,14.9034194 C87.500129,16.9385806 85.8491613,18.5895484 83.814,18.5895484 L75.0336774,18.5895484 C72.9985161,18.5895484 71.3475484,16.9385806 71.3475484,14.9034194 L71.3475484,0.485032258 L61.254,0.485032258 L61.254,14.9034194 C61.254,16.9385806 59.6030323,18.5895484 57.5669032,18.5895484 L48.7875484,18.5895484 C46.7514194,18.5895484 45.1004516,16.9385806 45.1004516,14.9034194 L45.1004516,0.606967742 C39.8291613,1.15083871 35.1007742,3.51503226 31.5452903,7.07051613 C27.4749677,11.1408387 24.9607742,16.7605161 24.9607742,22.9705161 L24.9607742,29.7050323 L25.1107742,30.1182581 C21.8369032,31.206 19.4823871,34.2834194 19.4823871,37.9230968 L19.4823871,47.9130968 L19.4823871,62.9218065 C19.4823871,66.186 21.3956129,69.009871 24.1633548,70.3327742 C25.2327097,70.8485806 26.4336774,71.1301935 27.6994839,71.1301935 L131.148194,71.1301935 C132.414968,71.1301935 133.624645,70.8389032 134.694,70.3327742 C137.460774,69.009871 139.36529,66.186 139.36529,62.9218065 L139.36529,47.9130968 L139.36529,37.9230968 C139.36529,34.3492258 137.086258,31.3095484 133.896581,30.1743871" id="Fill-11" fill="#FF5050"></path>
                <path d="M24.1632581,70.3325806 L24.1255161,70.4167742 L24.1255161,83.3622581 L24.1255161,100.763226 L16.2364839,100.763226 C10.1300323,100.763226 5.17712903,95.8190323 5.17712903,89.7029032 L5.17712903,53.0729032 C5.17712903,50.2296774 7.48422581,47.9129032 10.3361613,47.9129032 L19.4822903,47.9129032 L19.4822903,62.9216129 C19.4822903,66.1867742 21.3964839,69.0096774 24.1632581,70.3325806" id="Fill-13" fill="#FFBE64"></path>
                <g id="Group-17" transform="translate(134.516129, 47.600323)">
                    <mask id="mask-4" fill="white">
                        <use xlink:href="#path-3"></use>
                    </mask>
                    <g id="Clip-16"></g>
                    <path d="M19.1546129,5.47209677 L19.1546129,42.1030645 C19.1546129,48.2191935 14.2017097,53.1624194 8.09525806,53.1624194 L0.214935484,53.1624194 L0.214935484,35.7614516 L0.214935484,22.8169355 L0.17816129,22.7317742 C2.94493548,21.4098387 4.84945161,18.5859677 4.84945161,15.3217742 L4.84945161,0.313064516 L13.9955806,0.313064516 C16.8465484,0.313064516 19.1546129,2.62983871 19.1546129,5.47209677" id="Fill-15" fill="#FFBE64" mask="url(#mask-4)"></path>
                </g>
                <path d="M126.457645,71.1328065 L23.0060323,71.1328065 C18.4692581,71.1328065 14.7918387,67.4553871 14.7918387,62.9186129 L14.7918387,37.920871 C14.7918387,33.3840968 18.4692581,29.7057097 23.0060323,29.7057097 L126.457645,29.7057097 C130.994419,29.7057097 134.671839,33.3840968 134.671839,37.920871 L134.671839,62.9186129 C134.671839,67.4553871 130.994419,71.1328065 126.457645,71.1328065 L126.457645,71.1328065 Z" id="Stroke-18" stroke="#000000" stroke-width="5" stroke-linecap="round" stroke-linejoin="round"></path>
                <path d="M37.1257742,109.733419 L37.1257742,83.3605161 C37.1257742,81.3243871 35.4748065,79.6734194 33.4386774,79.6734194 L23.1157742,79.6734194 C21.0796452,79.6734194 19.4286774,81.3243871 19.4286774,83.3605161 L19.4286774,107.004387 C19.4286774,116.436 22.7160968,125.573419 28.7257742,132.843097 L38.1293226,144.218903 C39.3206129,145.659871 41.4012581,145.981161 42.9709355,144.966968 L46.3309355,142.79729 C48.0360968,141.696 48.5306129,139.423742 47.4370645,137.713742 L43.5186774,131.588903 C39.3438387,125.063419 37.1257742,117.479226 37.1257742,109.733419 L37.1257742,109.733419 Z" id="Stroke-20" stroke="#000000" stroke-width="5" stroke-linecap="round" stroke-linejoin="round"></path>
                <path d="M112.337806,109.733419 L112.337806,83.3605161 C112.337806,81.3243871 113.988774,79.6734194 116.024903,79.6734194 L126.347806,79.6734194 C128.383935,79.6734194 130.034903,81.3243871 130.034903,83.3605161 L130.034903,107.004387 C130.034903,116.436 126.747484,125.573419 120.737806,132.843097 L111.334258,144.218903 C110.142968,145.659871 108.062323,145.981161 106.492645,144.966968 L103.132645,142.79729 C101.427484,141.696 100.932968,139.423742 102.026516,137.713742 L105.944903,131.588903 C110.119742,125.063419 112.337806,117.479226 112.337806,109.733419 L112.337806,109.733419 Z" id="Stroke-22" stroke="#000000" stroke-width="5" stroke-linecap="round" stroke-linejoin="round"></path>
                <path d="M9.68390323,112.615742 C11.0261613,122.643484 15.1506774,132.148645 21.6568065,140.020258 L29.6561613,149.69671" id="Stroke-24" stroke="#000000" stroke-width="3" stroke-linecap="round"></path>
                <path d="M20.2642258,22.9740968 L20.2642258,22.9740968 C20.2642258,10.553129 30.3335806,0.483774194 42.7545484,0.483774194 L106.70971,0.483774194 C119.130677,0.483774194 129.199065,10.553129 129.199065,22.9740968 L129.199065,22.9740968" id="Stroke-26" stroke="#000000" stroke-width="5" stroke-linecap="round" stroke-linejoin="round"></path>
                <path d="M36.2385484,43.5546774 C36.2385484,45.8298387 34.3940323,47.6743548 32.118871,47.6743548 C29.8437097,47.6743548 27.9991935,45.8298387 27.9991935,43.5546774 C27.9991935,41.2795161 29.8437097,39.435 32.118871,39.435 C34.3940323,39.435 36.2385484,41.2795161 36.2385484,43.5546774" id="Fill-28" fill="#000000"></path>
                <path d="M36.2385484,43.5546774 C36.2385484,45.8298387 34.3940323,47.6743548 32.118871,47.6743548 C29.8437097,47.6743548 27.9991935,45.8298387 27.9991935,43.5546774 C27.9991935,41.2795161 29.8437097,39.435 32.118871,39.435 C34.3940323,39.435 36.2385484,41.2795161 36.2385484,43.5546774 L36.2385484,43.5546774 Z" id="Stroke-30" stroke="#000000" stroke-width="2" stroke-linecap="round" stroke-linejoin="round"></path>
                <path d="M57.545129,43.5546774 C57.545129,45.8298387 55.7006129,47.6743548 53.4254516,47.6743548 C51.1502903,47.6743548 49.3057742,45.8298387 49.3057742,43.5546774 C49.3057742,41.2795161 51.1502903,39.435 53.4254516,39.435 C55.7006129,39.435 57.545129,41.2795161 57.545129,43.5546774" id="Fill-32" fill="#000000"></path>
                <path d="M57.545129,43.5546774 C57.545129,45.8298387 55.7006129,47.6743548 53.4254516,47.6743548 C51.1502903,47.6743548 49.3057742,45.8298387 49.3057742,43.5546774 C49.3057742,41.2795161 51.1502903,39.435 53.4254516,39.435 C55.7006129,39.435 57.545129,41.2795161 57.545129,43.5546774 L57.545129,43.5546774 Z" id="Stroke-34" stroke="#000000" stroke-width="2" stroke-linecap="round" stroke-linejoin="round"></path>
                <path d="M78.8517097,43.5546774 C78.8517097,45.8298387 77.0071935,47.6743548 74.7320323,47.6743548 C72.456871,47.6743548 70.6123548,45.8298387 70.6123548,43.5546774 C70.6123548,41.2795161 72.456871,39.435 74.7320323,39.435 C77.0071935,39.435 78.8517097,41.2795161 78.8517097,43.5546774" id="Fill-36" fill="#000000"></path>
                <path d="M78.8517097,43.5546774 C78.8517097,45.8298387 77.0071935,47.6743548 74.7320323,47.6743548 C72.456871,47.6743548 70.6123548,45.8298387 70.6123548,43.5546774 C70.6123548,41.2795161 72.456871,39.435 74.7320323,39.435 C77.0071935,39.435 78.8517097,41.2795161 78.8517097,43.5546774 L78.8517097,43.5546774 Z" id="Stroke-38" stroke="#000000" stroke-width="2" stroke-linecap="round" stroke-linejoin="round"></path>
                <path d="M100.15829,43.5546774 C100.15829,45.8298387 98.3137742,47.6743548 96.0386129,47.6743548 C93.7634516,47.6743548 91.9189355,45.8298387 91.9189355,43.5546774 C91.9189355,41.2795161 93.7634516,39.435 96.0386129,39.435 C98.3137742,39.435 100.15829,41.2795161 100.15829,43.5546774" id="Fill-40" fill="#000000"></path>
                <path d="M100.15829,43.5546774 C100.15829,45.8298387 98.3137742,47.6743548 96.0386129,47.6743548 C93.7634516,47.6743548 91.9189355,45.8298387 91.9189355,43.5546774 C91.9189355,41.2795161 93.7634516,39.435 96.0386129,39.435 C98.3137742,39.435 100.15829,41.2795161 100.15829,43.5546774 L100.15829,43.5546774 Z" id="Stroke-42" stroke="#000000" stroke-width="2" stroke-linecap="round" stroke-linejoin="round"></path>
                <path d="M121.464871,43.5546774 C121.464871,45.8298387 119.620355,47.6743548 117.345194,47.6743548 C115.070032,47.6743548 113.225516,45.8298387 113.225516,43.5546774 C113.225516,41.2795161 115.070032,39.435 117.345194,39.435 C119.620355,39.435 121.464871,41.2795161 121.464871,43.5546774" id="Fill-44" fill="#000000"></path>
                <path d="M121.464871,43.5546774 C121.464871,45.8298387 119.620355,47.6743548 117.345194,47.6743548 C115.070032,47.6743548 113.225516,45.8298387 113.225516,43.5546774 C113.225516,41.2795161 115.070032,39.435 117.345194,39.435 C119.620355,39.435 121.464871,41.2795161 121.464871,43.5546774 L121.464871,43.5546774 Z" id="Stroke-46" stroke="#000000" stroke-width="2" stroke-linecap="round" stroke-linejoin="round"></path>
                <path d="M46.8918387,57.2842258 C46.8918387,59.5593871 45.0473226,61.4039032 42.7721613,61.4039032 C40.497,61.4039032 38.6524839,59.5593871 38.6524839,57.2842258 C38.6524839,55.0090645 40.497,53.1645484 42.7721613,53.1645484 C45.0473226,53.1645484 46.8918387,55.0090645 46.8918387,57.2842258" id="Fill-48" fill="#000000"></path>
                <path d="M46.8918387,57.2842258 C46.8918387,59.5593871 45.0473226,61.4039032 42.7721613,61.4039032 C40.497,61.4039032 38.6524839,59.5593871 38.6524839,57.2842258 C38.6524839,55.0090645 40.497,53.1645484 42.7721613,53.1645484 C45.0473226,53.1645484 46.8918387,55.0090645 46.8918387,57.2842258 L46.8918387,57.2842258 Z" id="Stroke-50" stroke="#000000" stroke-width="2" stroke-linecap="round" stroke-linejoin="round"></path>
                <path d="M68.1984194,57.2842258 C68.1984194,59.5593871 66.3539032,61.4039032 64.0787419,61.4039032 C61.8035806,61.4039032 59.9580968,59.5593871 59.9580968,57.2842258 C59.9580968,55.0090645 61.8035806,53.1645484 64.0787419,53.1645484 C66.3539032,53.1645484 68.1984194,55.0090645 68.1984194,57.2842258" id="Fill-52" fill="#000000"></path>
                <path d="M68.1984194,57.2842258 C68.1984194,59.5593871 66.3539032,61.4039032 64.0787419,61.4039032 C61.8035806,61.4039032 59.9580968,59.5593871 59.9580968,57.2842258 C59.9580968,55.0090645 61.8035806,53.1645484 64.0787419,53.1645484 C66.3539032,53.1645484 68.1984194,55.0090645 68.1984194,57.2842258 L68.1984194,57.2842258 Z" id="Stroke-54" stroke="#000000" stroke-width="2" stroke-linecap="round" stroke-linejoin="round"></path>
                <path d="M89.505,57.2842258 C89.505,59.5593871 87.6604839,61.4039032 85.3853226,61.4039032 C83.1101613,61.4039032 81.2656452,59.5593871 81.2656452,57.2842258 C81.2656452,55.0090645 83.1101613,53.1645484 85.3853226,53.1645484 C87.6604839,53.1645484 89.505,55.0090645 89.505,57.2842258" id="Fill-56" fill="#000000"></path>
                <path d="M89.505,57.2842258 C89.505,59.5593871 87.6604839,61.4039032 85.3853226,61.4039032 C83.1101613,61.4039032 81.2656452,59.5593871 81.2656452,57.2842258 C81.2656452,55.0090645 83.1101613,53.1645484 85.3853226,53.1645484 C87.6604839,53.1645484 89.505,55.0090645 89.505,57.2842258 L89.505,57.2842258 Z" id="Stroke-58" stroke="#000000" stroke-width="2" stroke-linecap="round" stroke-linejoin="round"></path>
                <path d="M110.811581,57.2842258 C110.811581,59.5593871 108.967065,61.4039032 106.691903,61.4039032 C104.416742,61.4039032 102.572226,59.5593871 102.572226,57.2842258 C102.572226,55.0090645 104.416742,53.1645484 106.691903,53.1645484 C108.967065,53.1645484 110.811581,55.0090645 110.811581,57.2842258" id="Fill-60" fill="#000000"></path>
                <path d="M110.811581,57.2842258 C110.811581,59.5593871 108.967065,61.4039032 106.691903,61.4039032 C104.416742,61.4039032 102.572226,59.5593871 102.572226,57.2842258 C102.572226,55.0090645 104.416742,53.1645484 106.691903,53.1645484 C108.967065,53.1645484 110.811581,55.0090645 110.811581,57.2842258 L110.811581,57.2842258 Z" id="Stroke-62" stroke="#000000" stroke-width="2" stroke-linecap="round" stroke-linejoin="round"></path>
                <path d="M11.5444839,100.766613 C5.43609677,100.766613 0.48416129,95.8146774 0.48416129,89.7062903 L0.48416129,53.0762903 C0.48416129,50.2253226 2.79512903,47.9143548 5.64512903,47.9143548" id="Stroke-64" stroke="#000000" stroke-width="5" stroke-linecap="round" stroke-linejoin="round"></path>
                <path d="M137.919097,100.766613 C144.027484,100.766613 148.979419,95.8146774 148.979419,89.7062903 L148.979419,53.0762903 C148.979419,50.2253226 146.668452,47.9143548 143.818452,47.9143548" id="Stroke-66" stroke="#000000" stroke-width="5" stroke-linecap="round" stroke-linejoin="round"></path>
                <path d="M56.5616129,8.26519355 L56.5616129,14.8990645 C56.5616129,16.9351935 54.9106452,18.5851935 52.8745161,18.5851935 L44.0980645,18.5851935 C42.0619355,18.5851935 40.4109677,16.9351935 40.4109677,14.8990645 L40.4109677,10.4784194" id="Stroke-68" stroke="#000000" stroke-width="5" stroke-linecap="round" stroke-linejoin="round"></path>
                <path d="M82.8070645,8.26519355 L82.8070645,14.8990645 C82.8070645,16.9351935 81.1560968,18.5851935 79.1199677,18.5851935 L70.3435161,18.5851935 C68.3073871,18.5851935 66.6564194,16.9351935 66.6564194,14.8990645 L66.6564194,8.26519355" id="Stroke-70" stroke="#000000" stroke-width="5" stroke-linecap="round" stroke-linejoin="round"></path>
                <path d="M109.052419,10.4787097 L109.052419,14.8983871 C109.052419,16.9345161 107.401452,18.5854839 105.365323,18.5854839 L96.588871,18.5854839 C94.5527419,18.5854839 92.9017742,16.9345161 92.9017742,14.8983871 L92.9017742,8.26548387" id="Stroke-72" stroke="#000000" stroke-width="5" stroke-linecap="round" stroke-linejoin="round"></path>
                <path d="M131.776548,1.90829032 C137.121387,7.20958065 140.510419,15.1005484 140.510419,23.9128065 L140.510419,23.9128065" id="Stroke-74" stroke="#000000" stroke-width="3" stroke-linecap="round"></path>
                <path d="M78.8517097,79.4375806 L100.977194,79.4375806" id="Stroke-76" stroke="#000000" stroke-width="3" stroke-linecap="round"></path>
            </g>
        </g>
    </g>
</svg>