<?xml version="1.0" encoding="UTF-8" standalone="no"?>
<svg width="180px" height="225px" viewBox="0 0 180 225" version="1.1" xmlns="http://www.w3.org/2000/svg" xmlns:xlink="http://www.w3.org/1999/xlink">
    <!-- Generator: Sketch 39.1 (31720) - http://www.bohemiancoding.com/sketch -->
    <title>icon_Cycling_shadow</title>
    <desc>Created with Sketch.</desc>
    <defs>
        <ellipse id="path-1" cx="90.4440559" cy="90.0471698" rx="74.4440559" ry="74.0471698"></ellipse>
        <filter x="-50%" y="-50%" width="200%" height="200%" filterUnits="objectBoundingBox" id="filter-2">
            <feOffset dx="0" dy="4" in="SourceAlpha" result="shadowOffsetOuter1"></feOffset>
            <feColorMatrix values="0 0 0 0 1   0 0 0 0 1   0 0 0 0 1  0 0 0 1 0" type="matrix" in="shadowOffsetOuter1"></feColorMatrix>
        </filter>
    </defs>
    <g id="Page-2" stroke="none" stroke-width="1" fill="none" fill-rule="evenodd">
        <g id="icon_Cycling_shadow">
            <g id="Oval-2">
                <use fill="black" fill-opacity="1" filter="url(#filter-2)" xlink:href="#path-1"></use>
                <use fill="#B1F3F8" fill-rule="evenodd" xlink:href="#path-1"></use>
            </g>
            <g id="Page-1" transform="translate(5.000000, 24.000000)">
                <g id="Group-5" transform="translate(84.000000, 41.665000)">
                    <path d="M42.0004,14.9545 C56.8904,14.9545 68.9604,27.0345 68.9604,41.9245 C68.9604,56.8145 56.8904,68.8945 42.0004,68.8945 C27.1004,68.8945 15.0304,56.8145 15.0304,41.9245 C15.0304,27.0345 27.1004,14.9545 42.0004,14.9545" id="Fill-1" fill="#FFFFFF"></path>
                    <path d="M68.9604,41.9245 C68.9604,27.0345 56.8904,14.9545 42.0004,14.9545 C27.1004,14.9545 15.0304,27.0345 15.0304,41.9245 C15.0304,56.8145 27.1004,68.8945 42.0004,68.8945 C56.8904,68.8945 68.9604,56.8145 68.9604,41.9245 M42.0004,0.7145 C64.7504,0.7145 83.2004,19.1645 83.2004,41.9245 C83.2004,64.6845 64.7504,83.1345 42.0004,83.1345 C19.2404,83.1345 0.7904,64.6845 0.7904,41.9245 C0.7904,19.1645 19.2404,0.7145 42.0004,0.7145" id="Fill-3" fill="#FF5050"></path>
                </g>
                <g id="Group-10" transform="translate(15.000000, 60.665000)">
                    <path d="M28.5905,11.7345 C37.9705,11.7345 45.5805,19.3345 45.5805,28.7145 C45.5805,38.0945 37.9705,45.7045 28.5905,45.7045 C19.2105,45.7045 11.6105,38.0945 11.6105,28.7145 C11.6105,19.3345 19.2105,11.7345 28.5905,11.7345" id="Fill-6" fill="#FFFFFF"></path>
                    <path d="M45.5804,28.7146 C45.5804,19.3346 37.9704,11.7346 28.5904,11.7346 C19.2104,11.7346 11.6104,19.3346 11.6104,28.7146 C11.6104,38.0946 19.2104,45.7046 28.5904,45.7046 C37.9704,45.7046 45.5804,38.0946 45.5804,28.7146 M28.5904,0.7046 C44.0604,0.7046 56.6104,13.2446 56.6104,28.7146 C56.6104,44.1846 44.0604,56.7346 28.5904,56.7346 C13.1204,56.7346 0.5804,44.1846 0.5804,28.7146 C0.5804,13.2446 13.1204,0.7046 28.5904,0.7046" id="Fill-8" fill="#FF5050"></path>
                </g>
                <path d="M43.3527,34.1436 L62.2537,26.9836 C66.5947,25.3396 70.1577,30.7476 66.9817,34.1616 L56.4317,45.5046 C55.1097,46.9256 53.0237,47.3056 51.2947,46.4396 L42.9447,42.2556 C39.5117,40.5346 39.7647,35.5026 43.3527,34.1436" id="Fill-11" fill="#FFBE64"></path>
                <path d="M36.0486,34.1436 L54.9496,26.9836 C59.2906,25.3396 62.8536,30.7476 59.6776,34.1616 L49.1276,45.5046 C47.8056,46.9256 45.7196,47.3056 43.9906,46.4396 L35.6406,42.2556 C32.2076,40.5346 32.4606,35.5026 36.0486,34.1436 L36.0486,34.1436 Z" id="Stroke-13" stroke="#000000" stroke-width="5" stroke-linecap="round" stroke-linejoin="round"></path>
                <path d="M102.9683,6.8099 L95.0503,15.9929 C92.9313,18.5349 95.3343,22.3169 98.5023,21.4269 L122.8403,14.5869 C125.6503,13.7969 128.1583,12.1679 130.0383,9.9139 L137.8863,0.4999" id="Stroke-15" stroke="#000000" stroke-width="5" stroke-linecap="round" stroke-linejoin="round"></path>
                <path d="M44.3337,82.6188 L56.1357,55.0378 C57.1757,52.6058 58.9957,50.5988 61.3017,49.3388 L94.4767,31.2158" id="Stroke-17" stroke="#000000" stroke-width="5" stroke-linecap="round" stroke-linejoin="round"></path>
                <path d="M80.0378,39.1036 L111.2888,78.7076" id="Stroke-19" stroke="#000000" stroke-width="5" stroke-linecap="round" stroke-linejoin="round"></path>
                <path d="M105.0972,45.1313 C109.7002,43.3543 114.7022,42.3803 119.9322,42.3803 C142.6912,42.3803 161.1412,60.8303 161.1412,83.5893 C161.1412,106.3483 142.6912,124.7983 119.9322,124.7983 C97.1732,124.7983 78.7232,106.3483 78.7232,83.5893 C78.7232,77.0993 80.2232,70.9593 82.8962,65.4973" id="Stroke-21" stroke="#000000" stroke-width="5" stroke-linecap="round" stroke-linejoin="round"></path>
                <path d="M60.8922,72.7356 C64.2732,77.4156 66.2662,83.1656 66.2662,89.3806 C66.2662,105.0946 53.5272,117.8336 37.8132,117.8336 C22.0992,117.8336 9.3602,105.0946 9.3602,89.3806 C9.3602,73.6666 22.0992,60.9276 37.8132,60.9276 C38.7322,60.9276 39.6422,60.9706 40.5392,61.0566" id="Stroke-23" stroke="#000000" stroke-width="5" stroke-linecap="round" stroke-linejoin="round"></path>
                <path d="M25.726,125.7636 C13.002,121.7716 3.229,111.1126 0.5,97.8806" id="Stroke-25" stroke="#000000" stroke-width="3" stroke-linecap="round"></path>
                <path d="M170.5,91.5124 C167.533,110.6054 154.011,126.2064 136.087,132.1654" id="Stroke-27" stroke="#000000" stroke-width="3" stroke-linecap="round"></path>
                <path d="M130.1436,33.4309 C139.8096,35.3879 148.4876,40.0699 155.3406,46.6389" id="Stroke-29" stroke="#000000" stroke-width="3" stroke-linecap="round"></path>
                <path d="M111.2889,55.6005 C114.0209,54.7575 116.9239,54.3045 119.9319,54.3045 C136.1059,54.3045 149.2169,67.4155 149.2169,83.5895 C149.2169,99.7635 136.1059,112.8745 119.9319,112.8745 C103.7579,112.8745 90.6469,99.7635 90.6469,83.5895 C90.6469,81.0115 90.9799,78.5115 91.6049,76.1305" id="Stroke-31" stroke="#000000" stroke-width="5" stroke-linecap="round" stroke-linejoin="round"></path>
                <path d="M53.7455,89.3806 C53.7455,98.1796 46.6125,105.3126 37.8135,105.3126 C29.0135,105.3126 21.8805,98.1796 21.8805,89.3806 C21.8805,80.5816 29.0135,73.4486 37.8135,73.4486" id="Stroke-33" stroke="#000000" stroke-width="5" stroke-linecap="round" stroke-linejoin="round"></path>
            </g>
            <ellipse id="Oval-3" fill-opacity="0.2" fill="#000000" cx="90" cy="214" rx="35" ry="11"></ellipse>
        </g>
    </g>
</svg>