<?xml version="1.0" encoding="UTF-8" standalone="no"?>
<svg width="180px" height="225px" viewBox="0 0 180 225" version="1.1" xmlns="http://www.w3.org/2000/svg" xmlns:xlink="http://www.w3.org/1999/xlink">
    <!-- Generator: Sketch 39.1 (31720) - http://www.bohemiancoding.com/sketch -->
    <title>icon_Golf_shadow</title>
    <desc>Created with Sketch.</desc>
    <defs>
        <ellipse id="path-1" cx="90.4440559" cy="90.0471698" rx="74.4440559" ry="74.0471698"></ellipse>
        <filter x="-50%" y="-50%" width="200%" height="200%" filterUnits="objectBoundingBox" id="filter-2">
            <feOffset dx="0" dy="4" in="SourceAlpha" result="shadowOffsetOuter1"></feOffset>
            <feColorMatrix values="0 0 0 0 1   0 0 0 0 1   0 0 0 0 1  0 0 0 1 0" type="matrix" in="shadowOffsetOuter1"></feColorMatrix>
        </filter>
    </defs>
    <g id="Page-2" stroke="none" stroke-width="1" fill="none" fill-rule="evenodd">
        <g id="icon_Golf_shadow">
            <g id="Oval-2">
                <use fill="black" fill-opacity="1" filter="url(#filter-2)" xlink:href="#path-1"></use>
                <use fill="#B1F3F8" fill-rule="evenodd" xlink:href="#path-1"></use>
            </g>
            <g id="Page-1" transform="translate(8.000000, 11.000000)">
                <g id="Group-9" transform="translate(15.000000, 0.587000)">
                    <path d="M148.5599,6.4869 L117.8179,59.7449 C117.2609,60.7039 116.0359,61.0269 115.0869,60.4729 L108.8909,56.8979 C107.9299,56.3499 107.6059,55.1249 108.1629,54.1659 L138.9049,0.9079 L148.5599,6.4869 Z" id="Fill-1" fill="#FFFFFF"></path>
                    <path d="M109.3197,76.548 C109.7957,76.82 109.9617,77.434 109.6797,77.908 L94.1527,105.758 C94.3557,101.371 92.3117,97.096 88.6147,94.511 L84.1847,91.419 L96.4907,70.295 C96.7637,69.819 97.3777,69.652 97.8537,69.925 L109.3197,76.548 Z" id="Fill-3" fill="#FFFFFF"></path>
                    <path d="M84.1843,91.4192 L88.6153,94.5112 C92.3123,97.0962 94.3553,101.3712 94.1533,105.7582 C94.1133,106.6792 93.9763,107.6152 93.7273,108.5422 L90.7663,119.5932 C88.9083,126.5282 81.7803,130.6432 74.8453,128.7852 L28.8383,116.4572 L21.9213,107.2642 C19.5913,104.9112 18.5273,101.4272 19.4453,97.9982 L26.2703,72.5262 C27.2133,69.0102 29.9093,66.5962 33.0483,65.7392 L43.2073,62.8292 L84.1843,91.4192 Z" id="Fill-5" fill="#FFFFFF"></path>
                    <path d="M30.4839,53.9436 L43.2079,62.8296 L33.0479,65.7396 C29.9099,66.5956 27.2129,69.0106 26.2709,72.5266 L19.4459,97.9976 C18.5269,101.4266 19.5909,104.9106 21.9219,107.2646 L28.8379,116.4576 L10.4659,111.5346 C3.5309,109.6766 -0.5851,102.5486 1.2739,95.6136 L10.4829,61.2456 C12.8169,52.5326 23.0969,48.7856 30.4839,53.9436" id="Fill-7" fill="#FF5050"></path>
                </g>
                <path d="M89.1869,89.2297 L39.4759,54.5367 C32.0829,49.3777 21.8119,53.1257 19.4789,61.8327 L10.2699,96.2007 C8.4119,103.1357 12.5269,110.2637 19.4619,112.1217 L83.8389,129.3717 C87.1009,130.2457 90.4049,129.7987 93.1839,128.3577" id="Stroke-10" stroke="#000000" stroke-width="5" stroke-linecap="round" stroke-linejoin="round"></path>
                <path d="M97.489,84.7255 L105.481,70.8835 C105.757,70.4055 106.368,70.2415 106.847,70.5175 L116.882,76.3065" id="Stroke-12" stroke="#000000" stroke-width="5" stroke-linecap="round" stroke-linejoin="round"></path>
                <path d="M110.3808,62.3963 L123.5748,70.0143" id="Stroke-14" stroke="#000000" stroke-width="5" stroke-linecap="round" stroke-linejoin="round"></path>
                <path d="M157.5544,7.0745 L126.8064,60.3325 C126.2534,61.2885 125.0304,61.6165 124.0744,61.0645 L117.8824,57.4895 C116.9254,56.9375 116.5974,55.7145 117.1504,54.7575 L147.8984,1.4995" id="Stroke-16" stroke="#000000" stroke-width="5" stroke-linecap="round" stroke-linejoin="round"></path>
                <path d="M152.2071,34.6419 L133.9841,66.2059" id="Stroke-18" stroke="#000000" stroke-width="3" stroke-linecap="round"></path>
                <path d="M42.0385,66.3227 C38.9005,67.1837 36.2085,69.5967 35.2665,73.1117 L28.4415,98.5867 C27.5225,102.0157 28.5815,105.5027 30.9095,107.8567" id="Stroke-20" stroke="#000000" stroke-width="3" stroke-linecap="round"></path>
                <path d="M44.9162,85.3856 L73.5722,93.0636" id="Stroke-22" stroke="#000000" stroke-width="3" stroke-linecap="round"></path>
                <path d="M42.6359,93.8956 L78.4429,103.4896" id="Stroke-24" stroke="#000000" stroke-width="3" stroke-linecap="round"></path>
                <path d="M40.3556,102.4056 L84.0266,114.1076" id="Stroke-26" stroke="#000000" stroke-width="3" stroke-linecap="round"></path>
                <path d="M2.5771,93.7178 L1.0431,99.4438 C-1.2169,107.8788 3.7881,116.5488 12.2221,118.8088 L53.2041,129.7898" id="Stroke-28" stroke="#000000" stroke-width="3" stroke-linecap="round"></path>
                <path d="M149.147,108.4858 C149.147,121.3728 138.7,131.8188 125.814,131.8188 C112.927,131.8188 102.48,121.3728 102.48,108.4858 C102.48,95.5988 112.927,85.1528 125.814,85.1528 C138.7,85.1528 149.147,95.5988 149.147,108.4858" id="Fill-30" fill="#FFBE64"></path>
                <path d="M143.1433,108.4858 C143.1433,121.3728 132.6963,131.8188 119.8103,131.8188 C106.9233,131.8188 96.4763,121.3728 96.4763,108.4858 C96.4763,95.5988 106.9233,85.1528 119.8103,85.1528 C132.6963,85.1528 143.1433,95.5988 143.1433,108.4858 L143.1433,108.4858 Z" id="Stroke-32" stroke="#000000" stroke-width="5" stroke-linecap="round" stroke-linejoin="round"></path>
                <path d="M110.6593,97.4651 C110.6593,98.1541 110.1003,98.7131 109.4113,98.7131 C108.7223,98.7131 108.1633,98.1541 108.1633,97.4651 C108.1633,96.7761 108.7223,96.2171 109.4113,96.2171 C110.1003,96.2171 110.6593,96.7761 110.6593,97.4651" id="Fill-34" fill="#231F1F"></path>
                <path d="M110.6593,97.4651 C110.6593,98.1541 110.1003,98.7131 109.4113,98.7131 C108.7223,98.7131 108.1633,98.1541 108.1633,97.4651 C108.1633,96.7761 108.7223,96.2171 109.4113,96.2171 C110.1003,96.2171 110.6593,96.7761 110.6593,97.4651 L110.6593,97.4651 Z" id="Stroke-36" stroke="#000000" stroke-width="3" stroke-linecap="round"></path>
                <path d="M110.6593,108.4858 C110.6593,109.1748 110.1003,109.7338 109.4113,109.7338 C108.7223,109.7338 108.1633,109.1748 108.1633,108.4858 C108.1633,107.7968 108.7223,107.2378 109.4113,107.2378 C110.1003,107.2378 110.6593,107.7968 110.6593,108.4858" id="Fill-38" fill="#231F1F"></path>
                <path d="M110.6593,108.4858 C110.6593,109.1748 110.1003,109.7338 109.4113,109.7338 C108.7223,109.7338 108.1633,109.1748 108.1633,108.4858 C108.1633,107.7968 108.7223,107.2378 109.4113,107.2378 C110.1003,107.2378 110.6593,107.7968 110.6593,108.4858 L110.6593,108.4858 Z" id="Stroke-40" stroke="#000000" stroke-width="3" stroke-linecap="round"></path>
                <path d="M110.6593,119.5066 C110.6593,120.1956 110.1003,120.7546 109.4113,120.7546 C108.7223,120.7546 108.1633,120.1956 108.1633,119.5066 C108.1633,118.8176 108.7223,118.2586 109.4113,118.2586 C110.1003,118.2586 110.6593,118.8176 110.6593,119.5066" id="Fill-42" fill="#231F1F"></path>
                <path d="M110.6593,119.5066 C110.6593,120.1956 110.1003,120.7546 109.4113,120.7546 C108.7223,120.7546 108.1633,120.1956 108.1633,119.5066 C108.1633,118.8176 108.7223,118.2586 109.4113,118.2586 C110.1003,118.2586 110.6593,118.8176 110.6593,119.5066 L110.6593,119.5066 Z" id="Stroke-44" stroke="#000000" stroke-width="3" stroke-linecap="round"></path>
                <path d="M121.0577,97.4651 C121.0577,98.1541 120.4987,98.7131 119.8097,98.7131 C119.1207,98.7131 118.5617,98.1541 118.5617,97.4651 C118.5617,96.7761 119.1207,96.2171 119.8097,96.2171 C120.4987,96.2171 121.0577,96.7761 121.0577,97.4651" id="Fill-46" fill="#231F1F"></path>
                <path d="M121.0577,97.4651 C121.0577,98.1541 120.4987,98.7131 119.8097,98.7131 C119.1207,98.7131 118.5617,98.1541 118.5617,97.4651 C118.5617,96.7761 119.1207,96.2171 119.8097,96.2171 C120.4987,96.2171 121.0577,96.7761 121.0577,97.4651 L121.0577,97.4651 Z" id="Stroke-48" stroke="#000000" stroke-width="3" stroke-linecap="round"></path>
                <path d="M121.0577,108.4858 C121.0577,109.1748 120.4987,109.7338 119.8097,109.7338 C119.1207,109.7338 118.5617,109.1748 118.5617,108.4858 C118.5617,107.7968 119.1207,107.2378 119.8097,107.2378 C120.4987,107.2378 121.0577,107.7968 121.0577,108.4858" id="Fill-50" fill="#231F1F"></path>
                <path d="M121.0577,108.4858 C121.0577,109.1748 120.4987,109.7338 119.8097,109.7338 C119.1207,109.7338 118.5617,109.1748 118.5617,108.4858 C118.5617,107.7968 119.1207,107.2378 119.8097,107.2378 C120.4987,107.2378 121.0577,107.7968 121.0577,108.4858 L121.0577,108.4858 Z" id="Stroke-52" stroke="#000000" stroke-width="3" stroke-linecap="round"></path>
                <path d="M121.0577,119.5066 C121.0577,120.1956 120.4987,120.7546 119.8097,120.7546 C119.1207,120.7546 118.5617,120.1956 118.5617,119.5066 C118.5617,118.8176 119.1207,118.2586 119.8097,118.2586 C120.4987,118.2586 121.0577,118.8176 121.0577,119.5066" id="Fill-54" fill="#231F1F"></path>
                <path d="M121.0577,119.5066 C121.0577,120.1956 120.4987,120.7546 119.8097,120.7546 C119.1207,120.7546 118.5617,120.1956 118.5617,119.5066 C118.5617,118.8176 119.1207,118.2586 119.8097,118.2586 C120.4987,118.2586 121.0577,118.8176 121.0577,119.5066 L121.0577,119.5066 Z" id="Stroke-56" stroke="#000000" stroke-width="3" stroke-linecap="round"></path>
                <path d="M131.4562,97.4651 C131.4562,98.1541 130.8972,98.7131 130.2082,98.7131 C129.5192,98.7131 128.9602,98.1541 128.9602,97.4651 C128.9602,96.7761 129.5192,96.2171 130.2082,96.2171 C130.8972,96.2171 131.4562,96.7761 131.4562,97.4651" id="Fill-58" fill="#231F1F"></path>
                <path d="M131.4562,97.4651 C131.4562,98.1541 130.8972,98.7131 130.2082,98.7131 C129.5192,98.7131 128.9602,98.1541 128.9602,97.4651 C128.9602,96.7761 129.5192,96.2171 130.2082,96.2171 C130.8972,96.2171 131.4562,96.7761 131.4562,97.4651 L131.4562,97.4651 Z" id="Stroke-60" stroke="#000000" stroke-width="3" stroke-linecap="round"></path>
                <path d="M131.4562,108.4858 C131.4562,109.1748 130.8972,109.7338 130.2082,109.7338 C129.5192,109.7338 128.9602,109.1748 128.9602,108.4858 C128.9602,107.7968 129.5192,107.2378 130.2082,107.2378 C130.8972,107.2378 131.4562,107.7968 131.4562,108.4858" id="Fill-62" fill="#231F1F"></path>
                <path d="M131.4562,108.4858 C131.4562,109.1748 130.8972,109.7338 130.2082,109.7338 C129.5192,109.7338 128.9602,109.1748 128.9602,108.4858 C128.9602,107.7968 129.5192,107.2378 130.2082,107.2378 C130.8972,107.2378 131.4562,107.7968 131.4562,108.4858 L131.4562,108.4858 Z" id="Stroke-64" stroke="#000000" stroke-width="3" stroke-linecap="round"></path>
                <path d="M131.4562,119.5066 C131.4562,120.1956 130.8972,120.7546 130.2082,120.7546 C129.5192,120.7546 128.9602,120.1956 128.9602,119.5066 C128.9602,118.8176 129.5192,118.2586 130.2082,118.2586 C130.8972,118.2586 131.4562,118.8176 131.4562,119.5066" id="Fill-66" fill="#231F1F"></path>
                <path d="M131.4562,119.5066 C131.4562,120.1956 130.8972,120.7546 130.2082,120.7546 C129.5192,120.7546 128.9602,120.1956 128.9602,119.5066 C128.9602,118.8176 129.5192,118.2586 130.2082,118.2586 C130.8972,118.2586 131.4562,118.8176 131.4562,119.5066 L131.4562,119.5066 Z" id="Stroke-68" stroke="#000000" stroke-width="3" stroke-linecap="round"></path>
                <path d="M152.0317,103.4049 C152.4127,105.3729 152.6127,107.4069 152.6127,109.4859 C152.6127,122.9379 144.2607,134.4389 132.4607,139.0869" id="Stroke-70" stroke="#000000" stroke-width="3" stroke-linecap="round"></path>
            </g>
            <ellipse id="Oval-3-Copy" fill-opacity="0.2" fill="#000000" cx="90" cy="214" rx="35" ry="11"></ellipse>
        </g>
    </g>
</svg>