<?xml version="1.0" encoding="UTF-8" standalone="no"?><!DOCTYPE svg PUBLIC "-//W3C//DTD SVG 1.1//EN" "http://www.w3.org/Graphics/SVG/1.1/DTD/svg11.dtd"><svg width="100%" height="100%" viewBox="0 0 211 193" version="1.1" xmlns="http://www.w3.org/2000/svg" xmlns:xlink="http://www.w3.org/1999/xlink" xml:space="preserve" style="fill-rule:evenodd;clip-rule:evenodd;stroke-linejoin:round;stroke-miterlimit:1.41421;"><g id="Page-1"><path id="Fill-1" d="M194.765,98.14c0.013,-0.088 0.025,-0.164 0.038,-0.252c0.365,-2.851 -0.933,-7.683 -4.322,-7.304c-0.605,-2.258 -2.999,-3.444 -4.89,-2.447c-2.835,-2.977 -7.296,2.27 -9.803,5.802c-1.109,0.013 -2.243,0.328 -2.861,0.782c-4.221,3.116 -5.822,8.011 -7.75,12.741c-2.759,6.786 -4.675,13.901 -6.099,21.066c0.845,-0.492 1.764,-0.757 2.76,-0.744c0.416,0 0.819,0.025 1.235,0.063c3.541,0.239 7.094,1.324 10.346,2.674c0.831,0.341 1.928,0.694 3.049,1.11c1.222,0.454 2.47,0.997 3.402,1.716c5.394,-7.329 27.547,-29.644 14.895,-35.207" style="fill:#4e91ff;"/><path id="Fill-3" d="M70.076,93.422c3.213,-0.315 6.288,0.252 8.379,3.116c1.071,1.488 -0.932,1.968 -2.003,0.504c-1.5,-2.056 -6.666,-0.807 -8.594,-0.416c-2.609,0.517 -5.961,0.732 -7.863,2.775c-1.248,1.337 -2.117,-0.277 -0.87,-1.614c2.823,-3.028 7.044,-3.961 10.951,-4.365m12.966,-29.946c0.051,-0.076 0.088,-0.225 0.114,-0.301c2.066,-1.223 4.309,-2.128 6.615,-2.128l0.013,0c0.038,0 0.176,-0.344 0.454,-0.483c1.134,-0.555 2.52,-0.115 3.377,0.806c0.479,0.076 0.957,0.196 1.436,0.322c2.13,0.542 0.277,1.939 -0.907,2.519c-0.202,0.58 -0.58,1.089 -1.096,1.379c-0.996,0.555 -2.067,0.292 -2.798,-0.439c-0.113,0.025 -0.239,0.039 -0.353,0.052c-0.642,0.075 -7.686,-0.529 -6.855,-1.727m8.67,-16.008c0.63,0.189 1.247,0.404 1.865,0.618c-0.24,-0.076 7.069,3.646 2.419,4.138c-3.692,-0.429 -7.006,-3.659 -10.786,-4.352c-1.21,-0.215 -3.125,-0.089 -4.562,-0.391c1.134,-2.094 5.469,-1.375 7.208,-1.047c1.31,0.252 2.583,0.643 3.856,1.034m-23.098,27.272c0,0.782 0.579,1.665 1.386,1.817c1.714,0.315 2.445,1.438 2.659,2.787c-3.037,-1.438 -6.616,-1.627 -9.388,0.783c-0.063,0.037 -0.114,0.088 -0.164,0.138c-0.101,-1.665 0.479,-2.787 1.374,-4.162c0.945,-1.464 0.39,-4.592 0.037,-6.9c1.424,-0.152 2.836,-0.291 4.247,-0.429c-0.277,0.025 -0.139,5.386 -0.151,5.966m-28.416,-9.006c0.05,-0.076 0.088,-0.152 0.113,-0.227c2.218,-1.3 4.612,-1.981 7.082,-2.069c0.139,-0.24 0.303,-0.48 0.492,-0.694c0.378,-0.416 0.869,-0.366 1.197,-0.088c0.932,-0.177 1.928,0.151 2.407,1.11c0,0.012 0.012,0.025 0.012,0.038c0.24,0.05 0.467,0.1 0.706,0.164c1.878,0.492 0.655,1.614 -0.466,2.27c-0.164,0.631 -0.53,1.186 -1.122,1.539c-1.058,0.618 -2.23,0.416 -2.974,-0.378c-0.201,0.025 -0.39,0.05 -0.592,0.075c-0.643,0.076 -7.687,-0.529 -6.855,-1.74m0.025,-15.138c1.979,-1.488 4.448,-2.321 6.792,-3.015c1.361,-0.315 4.902,-0.883 6.868,0.064c-0.378,0.075 -0.655,0.164 -0.681,0.164c-1.726,0.365 -3.389,0.983 -5.027,1.627c-2.306,0.895 -4.373,2.056 -6.288,3.62c-0.366,0.29 -3.453,3.381 -3.718,1.388c-0.239,-1.716 0.756,-2.876 2.054,-3.848m72.382,-1.551c-0.378,-0.114 -0.756,-0.177 -1.122,-0.177c-0.327,0.643 -0.68,1.287 -1.058,1.918c-0.063,0.113 -0.139,0.214 -0.202,0.328c-0.68,1.084 -2.23,1.122 -3.037,0.34c-0.315,-0.303 -0.516,-0.744 -0.491,-1.299c0.579,-10.861 -12.324,-10.092 -20.036,-11.24c-7.309,-1.072 -16.193,-3.86 -23.514,-2.018c-6.213,1.552 -11.644,2.901 -18.007,3.532c-9.237,0.934 -14.497,9.902 -15.656,18.341c0.05,0.379 -0.371,0.732 -0.371,1.035l0,0.012c0,0.026 0.22,0.064 0.194,0.089c-0.441,1.778 -2.913,1.98 -3.946,0.832c-0.214,-0.214 -0.028,-0.479 -0.028,-0.782l0,-0.012l0,-0.013c-1.26,-0.77 -0.997,-1.577 -1.375,-2.435c-0.126,-0.29 -0.378,-0.592 -0.491,-0.883c-1.953,1.161 -3.631,3.368 -3.731,5.5c-0.215,4.415 3.61,11.858 8.865,10.47c0.315,2.422 0.64,4.844 0.98,7.266c1.285,9.057 3.33,17.622 8.207,25.456c3.78,6.08 8.905,12.198 15.181,15.743c1.046,0.593 2.191,1.084 3.426,1.488c1.197,0.404 2.469,0.719 3.779,0.971c-0.025,2.637 -0.102,5.261 -0.215,7.884c1.146,0.732 2.155,1.666 3.301,2.586c2.117,1.678 4.335,3.104 6.704,4.352c0.907,-0.908 2.105,-1.677 2.999,-2.422c1.752,-1.476 3.516,-2.939 5.318,-4.377c0.932,-0.731 2.029,-1.438 3.188,-1.791c0.088,-2.283 0.202,-4.566 0.366,-6.85c1.36,-0.479 2.658,-1.11 3.881,-1.829c9.539,-5.714 15.046,-18.303 18.461,-28.117c2.331,-6.736 2.923,-13.725 3.793,-20.738c0.138,-1.161 0.289,-2.321 0.428,-3.469c1.449,0.504 3.112,0.315 4.725,-0.442c4.121,-1.955 3.617,-7.972 3.63,-11.618c0.025,-3.355 -0.656,-6.584 -4.146,-7.631" style="fill:#4e91ff;"/><g id="Group-7"><path id="Fill-5" d="M71.13,32.756c1.465,0.061 2.94,0.171 4.42,0.319c-1.48,-0.148 -2.955,-0.258 -4.42,-0.319m-32.532,5.39c-2.766,1.514 -5.435,3.592 -7.681,6.023c-1.122,1.216 -2.141,2.521 -3.011,3.885c-0.872,1.367 -1.598,2.794 -2.136,4.258c0.538,-1.464 1.264,-2.891 2.136,-4.258c0.87,-1.364 1.889,-2.669 3.011,-3.885c2.246,-2.431 4.915,-4.509 7.681,-6.023c0.264,-0.145 0.533,-0.276 0.804,-0.394c-0.271,0.118 -0.54,0.249 -0.804,0.394m68.223,-22.529c-9.363,-11.681 -26.198,-15.806 -40.463,-14.949c-12.727,0.757 -30.066,4.365 -38.169,15.314c-4.461,6.03 -7.913,12.325 -8.808,19.83c-0.882,7.455 1.109,14.015 3.957,20.801c0.113,0.29 0.492,0.593 0.618,0.883c0.378,0.858 0.115,1.665 1.375,2.435l0,0.025c0,0.303 -0.077,0.568 0.138,0.782c1.033,1.148 3.523,0.946 3.964,-0.832c0.025,-0.026 -0.321,-0.063 -0.321,-0.089l0,-0.012c0,-0.303 0.42,-0.656 0.37,-1.035c1.159,-8.439 6.309,-17.408 15.546,-18.341c6.364,-0.631 11.849,-1.98 18.062,-3.532c7.321,-1.842 16.232,0.946 23.541,2.018c7.712,1.148 20.63,0.379 20.05,11.24c-0.025,0.555 0.183,0.996 0.498,1.299c0.806,0.782 2.36,0.744 3.04,-0.341c0.063,-0.113 0.14,-0.214 0.203,-0.328c0.378,-0.63 0.732,-1.274 1.06,-1.917c5.557,-10.987 2.988,-23.702 -4.661,-33.251" style="fill:#fff000;"/></g><g id="Group-10"><path id="Fill-8" d="M118.175,142.807c-0.82,-3.204 -3.554,-4.806 -7.763,-6.256c-0.113,-0.038 -0.227,-0.076 -0.34,-0.114c-0.113,-0.038 -0.214,-0.063 -0.315,-0.076c-5.582,-1.374 -12.463,-2.371 -17.995,-0.315c0.315,0.845 0.315,1.703 -0.138,2.536c-1.084,2.005 -2.873,4.024 -4.625,5.84c-0.806,4.579 -1.399,9.246 -2.117,13.838c-1.588,10.117 -2.596,20.286 -3.302,30.492c-0.075,1.147 -0.201,2.223 -0.302,3.485l28.302,0c0.215,-1.262 0.391,-2.426 0.555,-3.637c0.403,-3.116 0.693,-6.258 1.159,-9.336c1.613,-10.76 5.23,-21.015 6.944,-31.725c0.05,-0.328 0.088,-0.632 0.126,-0.935c0.163,-1.488 0.088,-2.737 -0.189,-3.797" style="fill:#ff6496;"/></g><g id="Group-13"><path id="Fill-11" d="M50.846,142.795c-0.428,-0.328 -0.857,-0.644 -1.285,-0.959c-1.5,-1.085 -2.647,-2.434 -2.76,-3.91c-3.768,-0.808 -9.237,0.706 -11.568,0.883c-6.25,0.466 -14.277,0.189 -15.575,7.808c-0.013,0.038 -0.013,0.088 -0.025,0.126c-0.202,1.287 -0.114,2.7 0.101,4.138c0.277,2.031 0.819,4.099 1.108,5.865c0.883,5.412 2.042,10.788 3.126,16.149c1.323,6.446 2.633,13.035 3.944,19.342l29.55,0c-1.248,-7.569 -2.432,-16.365 -3.541,-24.551c-1.122,-8.225 -1.626,-16.717 -3.075,-24.891" style="fill:#ff6496;"/></g><g id="Group-16"><path id="Fill-14" d="M180.941,134.52c-0.252,-0.442 -0.617,-0.833 -1.071,-1.173c-0.932,-0.719 -2.18,-1.262 -3.402,-1.716c-1.121,-0.416 -2.218,-0.769 -3.049,-1.11c-3.252,-1.35 -6.805,-2.435 -10.346,-2.674c-0.416,-0.038 -0.819,-0.063 -1.235,-0.063c-0.996,-0.013 -1.915,0.252 -2.76,0.744c-4.977,2.8 -7.535,12.879 -9.262,16.828c-2.822,6.445 -5.998,12.74 -9.425,18.883c-2.823,-4.995 -6.225,-9.549 -10.207,-13.724c-2.848,-2.99 -7.372,-8.3 -12.009,-7.708c0.277,1.06 0.352,2.309 0.189,3.797c-0.038,0.303 -0.076,0.606 -0.126,0.934c-1.714,10.709 -5.331,20.965 -6.944,31.725c-0.466,3.078 -0.756,6.221 -1.159,9.337c-0.164,1.211 -0.34,2.375 -0.554,3.637l48.036,0c7.157,-11.353 12.21,-25.132 17.062,-37.153c1.726,-4.302 3.389,-8.63 5.053,-12.956c0.995,-2.586 2.709,-5.035 1.209,-7.608" style="fill:#fff;"/></g><path id="Fill-17" d="M95.051,61.71c-0.479,-0.127 -0.958,-0.227 -1.436,-0.303c0.138,0.139 0.252,0.277 0.352,0.441c0.429,0.669 0.467,1.59 0.177,2.372c1.184,-0.58 3.037,-1.968 0.907,-2.51" style="fill:#fff;"/><g id="Group-21"><path id="Fill-19" d="M68.891,142.038c0.013,0 0.013,0.013 0.013,0.013l0,0.037c-0.013,-0.012 -0.013,-0.025 -0.013,-0.05m16.344,-11.921c-0.227,-0.113 -0.429,-0.214 -0.618,-0.29c-1.046,-0.454 -2.129,-0.416 -3.15,-0.088c-1.159,0.353 -2.256,1.06 -3.188,1.791c-1.802,1.438 -3.566,2.901 -5.318,4.377c-0.895,0.745 -2.092,1.514 -2.999,2.422c-2.369,-1.248 -4.587,-2.674 -6.704,-4.352c-1.147,-0.92 -2.155,-1.854 -3.301,-2.586c-0.756,-0.492 -1.576,-0.883 -2.533,-1.135c-0.391,-0.101 -0.794,-0.151 -1.197,-0.151c-3.125,0 -6.288,2.863 -8.204,4.894c-0.945,0.997 -1.298,1.993 -1.222,2.927c0.113,1.476 1.26,2.825 2.76,3.91c0.428,0.315 0.856,0.631 1.285,0.959c1.449,8.174 1.953,16.666 3.075,24.891c1.109,8.186 2.293,16.982 3.541,24.551l23.816,0c0.101,-1.262 0.227,-2.338 0.302,-3.485c0.706,-10.206 1.714,-20.374 3.302,-30.491c0.718,-4.591 1.31,-9.259 2.117,-13.838c1.751,-1.816 3.541,-3.836 4.625,-5.841c0.453,-0.833 0.453,-1.691 0.138,-2.536c-0.882,-2.51 -4.41,-4.869 -6.527,-5.929" style="fill:#fff;"/></g><path id="Fill-22" d="M89.897,65.204c0.114,-0.013 0.24,-0.025 0.353,-0.051c-0.252,-0.239 -0.453,-0.517 -0.605,-0.832c-0.441,-0.908 -0.327,-1.88 0.164,-2.662c-0.05,-0.151 -0.076,-0.315 -0.038,-0.467c-2.306,0.152 -4.549,0.833 -6.615,2.057c-0.026,0.075 -0.063,0.151 -0.114,0.227c-0.831,1.198 6.213,1.803 6.855,1.728" style="fill:#fff;"/><path id="Fill-24" d="M51.741,66.238c1.121,-0.656 2.344,-1.778 0.466,-2.27c-0.239,-0.064 -0.466,-0.114 -0.706,-0.164c0.341,0.719 0.454,1.627 0.24,2.434" style="fill:#fff;"/><path id="Fill-26" d="M47.053,67.474c0.202,-0.025 0.391,-0.05 0.592,-0.075c-0.214,-0.24 -0.403,-0.543 -0.529,-0.883c-0.391,-1.047 -0.252,-2.145 0.277,-3.078c-2.47,0.088 -4.864,0.769 -7.082,2.069c-0.025,0.075 -0.063,0.151 -0.113,0.227c-0.832,1.211 6.212,1.816 6.855,1.74" style="fill:#fff;"/><g id="Group-30"><path id="Fill-28" d="M20.842,156.746c-0.289,-1.766 -0.831,-3.834 -1.108,-5.865c-0.215,-1.438 -0.303,-2.851 -0.101,-4.138c0.012,-0.038 0.012,-0.088 0.025,-0.126c-8.745,4.529 -12.261,9.423 -14.844,19.149c-1.651,6.181 -2.647,12.528 -3.617,18.835c-0.113,0.745 -0.68,3.852 -1.197,7.636l27.912,0c-1.311,-6.307 -2.621,-12.896 -3.944,-19.342c-1.084,-5.361 -2.243,-10.737 -3.126,-16.149" style="fill:#fff;"/></g><path id="Fill-31" d="M93.577,48.086c-0.618,-0.214 -1.235,-0.429 -1.865,-0.618c-1.273,-0.391 -2.546,-0.782 -3.856,-1.034c-1.739,-0.328 -6.074,-1.047 -7.208,1.047c1.437,0.302 3.352,0.176 4.562,0.391c3.78,0.693 7.094,3.923 10.786,4.352c4.65,-0.492 -2.659,-4.214 -2.419,-4.138" style="fill:#4d4d4d;"/><path id="Fill-33" d="M93.615,61.407c-0.857,-0.921 -2.243,-1.398 -3.377,-0.843c-0.278,0.139 -0.416,0.483 -0.454,0.483l-0.013,0c-0.038,0 -0.012,0.388 0.038,0.539c-0.491,0.782 -0.605,1.79 -0.164,2.698c0.152,0.316 0.353,0.612 0.605,0.852c0.731,0.731 1.802,1.005 2.798,0.45c0.516,-0.29 0.894,-0.791 1.096,-1.371c0.29,-0.782 0.252,-1.701 -0.176,-2.369c-0.101,-0.164 -0.215,-0.3 -0.353,-0.439" style="fill:#4d4d4d;"/><path id="Fill-35" d="M70.076,93.422c-3.907,0.404 -8.128,1.337 -10.951,4.365c-1.247,1.337 -0.378,2.951 0.87,1.614c1.902,-2.043 5.254,-2.258 7.863,-2.775c1.928,-0.391 7.094,-1.64 8.594,0.416c1.071,1.464 3.074,0.984 2.003,-0.504c-2.091,-2.864 -5.166,-3.431 -8.379,-3.116" style="fill:#4d4d4d;"/><path id="Fill-37" d="M72.659,79.344c-0.215,-1.349 -0.945,-2.472 -2.659,-2.787c-0.807,-0.152 -1.386,-1.035 -1.386,-1.817c0.012,-0.58 -0.126,-5.941 0.151,-5.966c-1.411,0.138 -2.823,0.277 -4.247,0.429c0.353,2.308 0.908,5.436 -0.038,6.9c-0.894,1.375 -1.474,2.497 -1.373,4.162c0.05,-0.05 0.101,-0.101 0.164,-0.138c2.772,-2.41 6.351,-2.221 9.388,-0.783" style="fill:#4d4d4d;"/><path id="Fill-39" d="M68.891,142.038c0,0.025 0,0.038 0.013,0.05l0,-0.037c0,0 0,-0.013 -0.013,-0.013" style="fill:#4d4d4d;"/><path id="Fill-41" d="M47.015,47.581c-2.343,0.694 -4.813,1.527 -6.792,3.015c-1.298,0.972 -2.293,2.132 -2.054,3.848c0.265,1.993 3.352,-1.098 3.718,-1.388c1.915,-1.564 3.982,-2.725 6.288,-3.62c1.638,-0.644 3.301,-1.262 5.028,-1.627c0.025,0 0.302,-0.089 0.68,-0.164c-1.966,-0.947 -5.507,-0.379 -6.868,-0.064" style="fill:#4d4d4d;"/><path id="Fill-43" d="M51.489,63.766c-0.479,-0.959 -1.475,-1.287 -2.407,-1.11c-0.328,-0.278 -0.819,-0.328 -1.197,0.088c-0.189,0.214 -0.353,0.454 -0.492,0.694c-0.529,0.933 -0.668,2.031 -0.277,3.078c0.126,0.34 0.315,0.643 0.529,0.883c0.744,0.794 1.916,0.996 2.974,0.378c0.592,-0.353 0.958,-0.908 1.122,-1.539c0.214,-0.807 0.101,-1.715 -0.24,-2.434c0,-0.013 -0.012,-0.026 -0.012,-0.038" style="fill:#4d4d4d;"/><path id="Fill-45" d="M174.971,104.198c-0.771,0.447 -0.894,2.54 -0.742,3.778c0.159,1.282 0.653,2.34 1.254,3.469c0.79,1.483 1.812,2.208 1.969,3.982c0.149,1.672 -1.161,5.105 -0.782,4.98c0.093,0.262 1.77,-2.693 1.865,-4.231c0.096,-1.538 -0.019,-2.664 -0.708,-4.041c-0.772,-1.539 -3.327,-3.457 -2.856,-7.937" style="fill:#4d4d4d;"/><path id="Fill-47" d="M69.906,143.61c-0.05,0.002 -0.104,0.016 -0.162,0.04c-0.414,0.178 -5.211,7.846 -4.309,7.959c0.567,0.001 2.781,-2.813 4.279,-4.409c0.12,-0.128 0.313,-0.138 0.453,-0.032l2.044,1.548c0.687,0.52 1.99,1.636 2.146,1.557c0.178,-0.196 -3.842,-6.698 -4.451,-6.663" style="fill:#4d4d4d;"/><g id="Group-51"><path id="Fill-49" d="M122.045,184.008l-1.26,8.229l5.356,0l-3.284,-8.321c-0.159,-0.401 -0.746,-0.335 -0.812,0.092" style="fill:#4d4d4d;"/></g><g id="Group-54"><path id="Fill-52" d="M24.348,178.271l-0.277,13.966l3.78,0l-2.798,-14.029c-0.083,-0.417 -0.696,-0.363 -0.705,0.063" style="fill:#4d4d4d;"/></g><path id="Fill-55" d="M75.201,124.345c-1.643,0.42 -3.624,0.639 -5.546,0.84c-1.416,0.147 -2.881,-0.056 -4.304,-0.239c-0.572,-0.073 -1.125,-0.181 -1.669,-0.374c-0.262,-0.092 -0.572,-0.274 -0.846,-0.153c-0.459,0.202 -0.386,0.886 -0.362,1.316c0.026,0.446 0.018,0.907 0.001,1.353c-0.031,0.859 0.018,1.573 0.884,1.938c0.509,0.214 3.252,0.016 3.785,-0.106c2.809,-0.643 3.154,-0.785 5.643,-2.007c1.448,-0.709 4.108,-2.652 4.054,-2.986c-0.198,-0.334 -1.002,0.255 -1.64,0.418" style="fill:#4d4d4d;"/><path id="Fill-57" d="M110.464,55.776c-0.137,-0.029 -0.276,0.326 -0.407,0.894c-0.403,1.741 -0.61,3.519 -0.788,5.295c-0.064,0.649 -1.02,4.344 -0.497,4.714c1.295,0.916 4.274,-5.236 3.46,-8.715c-0.221,-0.942 -0.745,-1.961 -1.768,-2.188" style="fill:#4d4d4d;"/><path id="Fill-59" d="M27.09,70.489c0.419,-0.297 -0.347,-3.26 -0.399,-3.78c-0.142,-1.424 -0.308,-2.851 -0.631,-4.247c-0.106,-0.455 -0.217,-0.741 -0.327,-0.717c-0.821,0.182 -1.24,0.999 -1.417,1.755c-0.653,2.79 1.737,7.723 2.774,6.989" style="fill:#4d4d4d;"/><path id="Fill-61" d="M68.657,100.312c1.635,-0.058 5.526,0.016 6.615,-0.502c0.5,-0.238 0.017,-0.576 -0.634,-0.712c-0.999,-0.211 -2.398,-0.602 -3.575,-0.628c-1.238,-0.028 -2.718,0.402 -3.951,0.45c-1.003,0.038 -2.473,0.131 -3.345,0.364c-1.32,0.354 -0.603,0.965 0.824,1.1c1.312,0.123 2.751,-0.025 4.066,-0.072" style="fill:#4d4d4d;"/><path id="Fill-63" d="M207.12,105.608c-0.114,-1.022 -0.769,-1.893 -1.89,-1.893c-0.945,0 -0.63,0.934 -0.516,1.956c0.138,1.249 0.227,2.372 -0.15,3.626c-0.315,1.049 -0.847,1.6 -2.107,2.504c-0.775,0.557 2.029,0.795 2.684,0c1.437,-1.753 2.243,-3.898 1.979,-6.193" style="fill:#4d4d4d;"/><path id="Fill-65" d="M209.43,108.044c-0.69,-0.191 -0.647,0.553 -0.769,1.322c-0.149,0.938 -0.31,1.776 -0.836,2.613c-0.439,0.702 -0.938,0.997 -2.038,1.403c-0.677,0.25 1.32,0.988 1.957,0.54c1.398,-0.99 2.416,-2.392 2.684,-4.119c0.123,-0.768 -0.181,-1.534 -0.998,-1.759" style="fill:#4d4d4d;"/></g></svg>