<?xml version="1.0" encoding="UTF-8" standalone="no"?><!DOCTYPE svg PUBLIC "-//W3C//DTD SVG 1.1//EN" "http://www.w3.org/Graphics/SVG/1.1/DTD/svg11.dtd"><svg width="100%" height="100%" viewBox="0 0 170 211" version="1.1" xmlns="http://www.w3.org/2000/svg" xmlns:xlink="http://www.w3.org/1999/xlink" xml:space="preserve" style="fill-rule:evenodd;clip-rule:evenodd;stroke-linejoin:round;stroke-miterlimit:1.41421;"><g id="Page-1"><path id="Fill-1" d="M54.834,67.081c0.05,-0.076 0.088,-0.152 0.113,-0.228c1.315,-0.769 2.705,-1.324 4.12,-1.665c0,-0.744 0.227,-1.463 0.644,-2.094c0.101,-0.164 0.215,-0.328 0.354,-0.48c0.379,-0.416 0.872,-0.366 1.201,-0.088c0.581,-0.114 1.187,-0.025 1.68,0.278c0.303,0.189 0.556,0.466 0.733,0.832c0.177,0.353 0.291,0.77 0.341,1.186c0.948,0.076 1.896,0.24 2.856,0.492c2.464,0.644 -0.392,2.372 -1.39,2.725c-1.213,0.417 -2.502,0.631 -3.778,0.783c-0.645,0.075 -7.708,-0.53 -6.874,-1.741Zm24.715,35.995c1.264,-2.006 0.423,-3.886 2.395,-4.92c2.047,-1.073 4.034,-0.303 4.692,1.829c0.556,1.804 -0.283,5.627 -2.318,6.435c-2.477,0.984 -3.505,-0.997 -4.769,-3.319l0,-0.025Zm24.251,-55.211c1.326,0.505 2.59,1.186 3.841,1.842c0.682,0.354 1.352,0.745 2.022,1.136c1.352,0.782 2.717,3.621 0.493,3.709c-3.362,-1.022 -6.23,-4.315 -9.49,-5.778c-1.239,-0.555 -3.488,-0.707 -4.966,-1.3c1.63,-2.107 6.179,-0.353 8.1,0.391Zm-6.003,16.957c0.051,-0.076 0.089,-0.151 0.114,-0.227c1.58,-0.934 3.248,-1.539 4.979,-1.842c0.063,-0.328 0.189,-0.656 0.379,-0.946c-0.139,-0.379 -0.038,-0.808 0.429,-1.022c0.165,-0.088 0.342,-0.139 0.506,-0.177c0.025,-0.012 0.038,-0.012 0.063,-0.012c0.291,-0.064 0.581,-0.076 0.859,-0.038c0.923,0.101 1.807,0.643 2.313,1.438c0.126,0.189 0.227,0.416 0.278,0.643c0.707,0.089 1.415,0.24 2.123,0.417c2.464,0.631 -0.392,2.372 -1.39,2.712c-1.213,0.429 -2.502,0.644 -3.779,0.783c-0.644,0.075 -7.708,-0.53 -6.874,-1.729Zm-14.468,11.267c0,0.782 0.581,1.665 1.39,1.817c1.718,0.315 2.451,1.438 2.666,2.788c-3.045,-1.438 -6.634,-1.627 -9.414,0.782c-0.063,0.038 -0.114,0.089 -0.164,0.139c-0.102,-1.665 0.48,-2.788 1.377,-4.163c0.948,-1.464 0.392,-4.593 0.038,-6.902c1.428,-0.151 2.843,-0.29 4.258,-0.429c-0.278,0.025 -0.139,5.388 -0.151,5.968Zm-29.772,-22.521c0.607,-2.851 5.295,-4.933 7.734,-6.094c2.022,-0.807 3.955,-1.262 6.179,-0.921c0.063,0.051 0.114,0.088 0.164,0.126c-0.126,0.051 -0.24,0.101 -0.366,0.152c-3.311,1.425 -6.432,3.217 -9.111,5.639c-0.998,0.896 -1.794,2.082 -2.704,3.066c-2.148,2.322 -2.174,-0.668 -1.896,-1.968Zm43.052,75.385l0.013,-0.012c-0.013,0.063 -0.025,0.151 -0.013,0.012Zm34.991,-70.931c0.025,-3.356 -0.658,-6.586 -4.158,-7.633c-0.379,-0.114 -0.758,-0.177 -1.124,-0.177c-0.329,0.643 -0.683,1.287 -1.062,1.918c-0.063,0.113 -0.139,0.214 -0.202,0.328c-0.682,1.085 -2.371,1.123 -3.179,0.34c-0.316,-0.302 -0.626,-0.744 -0.626,-1.299l0,-0.013c1.264,-10.85 -12.226,-10.081 -19.959,-11.229c-7.329,-1.072 -16.171,-3.86 -23.513,-2.018c-6.229,1.552 -11.641,2.902 -18.023,3.532c-9.262,0.934 -14.3,9.905 -15.463,18.345c-0.05,0.29 -0.081,0.581 -0.106,0.858c0,0.051 -0.008,0.101 -0.02,0.139c0,0.012 -0.012,0.025 -0.012,0.038c0,0.038 -0.011,0.075 -0.024,0.113c-0.442,1.54 -2.981,1.88 -4.219,1.047c-0.328,-0.227 -0.569,-0.517 -0.644,-0.908c-0.038,-0.151 -0.038,-0.315 -0.026,-0.492c-0.316,-0.656 -0.631,-1.35 -0.947,-2.069c-0.127,-0.29 -0.253,-0.593 -0.367,-0.883c-1.958,1.16 -3.576,3.368 -3.677,5.501c-0.215,4.415 3.652,11.859 8.921,10.471c0.316,2.423 0.657,4.845 0.999,7.268c1.288,9.059 3.348,17.625 8.238,25.46c1.656,2.663 3.577,5.337 5.737,7.785c-0.947,0.088 -1.807,0.442 -2.476,1.161c-3.627,3.873 0.252,7.254 0.796,11.594c0.606,4.833 -2.047,9.627 -4.992,13.488c1.074,0.681 2.174,1.312 3.273,1.88c3.349,1.779 6.773,3.141 10.324,4.479c1.175,0.441 2.363,0.883 3.576,1.337c0.19,-0.353 0.367,-0.694 0.556,-1.047c0.632,-1.11 1.302,-2.183 2.06,-3.205c1.478,-2.018 3.222,-3.797 5.32,-5.11c0.632,-0.416 1.314,-0.794 2.022,-1.11c0.581,-0.265 1.162,-0.53 1.731,-0.82c1.39,0.959 2.83,1.829 4.334,2.612c0.91,-0.909 2.123,-1.691 3.02,-2.435c1.757,-1.476 3.526,-2.94 5.333,-4.378c0.935,-0.732 2.034,-1.439 3.197,-1.792c0.012,-0.202 0.025,-0.404 0.05,-0.606c0.506,-0.214 0.999,-0.429 1.491,-0.681c0.822,-0.416 1.795,-0.959 2.717,-1.64c1.997,-1.464 3.741,-3.507 3.071,-5.943c-0.164,-0.593 -0.417,-1.047 -0.746,-1.4c8.151,-6.22 13.054,-17.537 16.187,-26.533c2.338,-6.737 2.932,-13.727 3.804,-20.742c0.139,-1.161 0.291,-2.321 0.43,-3.47c1.453,0.505 3.121,0.316 4.738,-0.441c4.132,-1.956 3.627,-7.974 3.64,-11.62Z" style="fill:#4e91ff;"/><path id="Fill-3" d="M105.152,62.463c-0.026,0.012 -0.038,0.025 -0.064,0.05c0.051,0 0.102,-0.012 0.165,0c-0.038,-0.025 -0.076,-0.038 -0.101,-0.05" style="fill:#4e91ff;"/><g id="Group-7"><path id="Fill-5" d="M59.509,208.3c-0.215,-1.085 -0.417,-2.157 -0.594,-3.217c-0.227,-1.275 -0.404,-2.536 -0.531,-3.798c-3.525,-0.126 -6.988,-0.012 -10.26,0.858c-1.112,0.303 -2.199,0.681 -3.261,1.186c-0.101,0.038 -0.214,0.088 -0.328,0.151c-1.188,0.581 -2.35,1.464 -3.462,2.36c-1.959,1.577 -3.728,3.206 -5.674,4.467l24.375,0c-0.038,0 -0.075,-0.745 -0.126,-1.01c-0.038,-0.303 -0.088,-0.732 -0.139,-0.997" style="fill:#4e91ff;"/></g><g id="Group-10"><path id="Fill-8" d="M121.642,16.954c-9.389,-11.683 -26.271,-15.809 -40.575,-14.951c-12.763,0.757 -30.151,4.366 -38.276,15.317c-4.473,6.031 -7.935,12.327 -8.833,19.834c-0.884,7.456 1.112,14.017 3.968,20.805c0.114,0.29 0.24,0.593 0.367,0.883c0.316,0.719 0.632,1.413 0.947,2.069c-0.012,0.177 -0.012,0.341 0.026,0.492c0.076,0.391 0.316,0.681 0.644,0.908c1.239,0.833 3.778,0.493 4.221,-1.047c0,-0.012 -0.013,-0.025 -0.013,-0.038c0.013,-0.025 0.025,-0.05 0.038,-0.075c0,-0.013 0.013,-0.026 0.013,-0.038c0.012,-0.038 0.025,-0.088 0.025,-0.139c0.025,-0.277 0.063,-0.568 0.114,-0.858c1.162,-8.44 6.217,-17.411 15.479,-18.345c6.382,-0.63 11.828,-1.98 18.058,-3.532c7.341,-1.842 16.116,0.946 23.445,2.018c7.734,1.148 21.222,0.379 19.958,11.229l0,0.013c0,0.555 0.311,0.997 0.627,1.299c0.808,0.783 2.43,0.745 3.112,-0.34c0.063,-0.114 0.172,-0.215 0.235,-0.328c0.379,-0.631 0.751,-1.275 1.079,-1.918c5.573,-10.989 3.011,-23.707 -4.659,-33.258" style="fill:#fff000;"/></g><path id="Fill-11" d="M133.154,144.106c-0.341,-1.539 -1.226,-2.801 -3.084,-4.113c-3.929,-2.738 -9.439,-3.23 -14.064,-3.495c-2.742,-0.164 -6.722,-0.505 -9.49,0.82c0.341,0.871 0.354,1.766 -0.113,2.624c-0.291,0.53 -0.62,1.06 -0.986,1.578c-1.049,1.501 -2.401,2.964 -3.703,4.327c-0.227,1.615 -0.353,3.268 -0.593,4.807c-1.909,12.453 -3.678,24.805 -4.625,37.384c1.263,-0.076 2.527,-0.127 3.791,-0.177c7.076,-0.316 14.14,-0.48 21.128,-0.669c0.973,-0.012 1.946,-0.038 2.906,-0.075c0.303,0 0.606,-0.013 0.897,-0.026c0.48,-3.646 1.024,-7.267 1.668,-10.875c0.556,-3.18 1.201,-6.347 1.921,-9.501c1.402,-6.094 3.677,-12.061 4.359,-18.319c0.013,-0.152 0.038,-0.291 0.038,-0.429c0.152,-1.514 0.19,-2.763 -0.05,-3.861" style="fill:#ff6496;"/><path id="Fill-13" d="M67.445,160.659c-0.935,1.981 -1.934,3.936 -2.97,5.879c-4.562,8.567 -9.882,16.819 -14.064,25.562c-1.049,2.221 -2.047,4.441 -3.096,6.573c0.101,0.152 0.164,0.316 0.202,0.492c0.202,0.997 0.404,1.981 0.607,2.978c3.272,-0.871 6.735,-0.984 10.26,-0.858c-0.252,-2.511 -0.265,-5.009 0.152,-7.646c0.088,-0.605 0.746,-1.211 1.327,-1.325c2.666,-0.555 5.345,-1.047 8.037,-1.488c1.238,-0.19 2.489,-0.379 3.74,-0.555c-1.479,-9.753 -2.843,-19.506 -4.12,-29.297c-0.012,-0.113 -0.037,-0.214 -0.075,-0.315" style="fill:#ff6496;"/><path id="Fill-15" d="M35.475,144.371c-0.885,1.085 -1.213,2.334 -1.289,3.634c-0.063,1.324 0.126,2.712 0.303,3.999c0,0.025 0.013,0.051 0.013,0.076c0.379,2.939 0.872,5.854 1.402,8.768c0.91,-1.968 1.845,-3.936 2.818,-5.892c1.858,-3.722 3.88,-7.355 6.255,-10.8c0.91,-1.337 1.87,-2.636 2.881,-3.898c-4.448,0.202 -9.439,0.467 -12.383,4.113" style="fill:#ff6496;"/><path id="Fill-17" d="M83.594,143.362c0,0.012 0,0.025 0.013,0.037c-0.013,0 -0.013,0 -0.026,-0.012c0,-0.013 0.013,-0.013 0.013,-0.025m69.626,53.432c-0.733,-12.34 -0.846,-24.199 -5.294,-35.996c-2.022,-5.362 -7.279,-17.903 -14.772,-16.654c0.24,1.097 0.202,2.328 0.05,3.842c0,0.138 -0.025,0.268 -0.038,0.42c-0.682,6.258 -2.956,12.22 -4.359,18.314c-0.72,3.154 -1.365,6.319 -1.921,9.498c-0.644,3.609 -1.188,7.228 -1.668,10.875c-0.29,0.012 -0.594,0.024 -0.897,0.024c-0.96,0.037 -1.933,0.063 -2.906,0.075c-6.988,0.189 -14.052,0.353 -21.128,0.669c-1.264,0.05 -2.528,0.101 -3.791,0.177c0.947,-12.579 2.717,-24.931 4.625,-37.384c0.24,-1.539 0.366,-3.192 0.594,-4.807c1.301,-1.363 2.653,-2.826 3.702,-4.327c0.366,-0.518 0.695,-1.048 0.986,-1.578c0.467,-0.858 0.455,-1.753 0.113,-2.624c-0.935,-2.485 -4.422,-4.794 -6.52,-5.841c-0.227,-0.114 -0.43,-0.215 -0.619,-0.291c-1.049,-0.454 -2.136,-0.416 -3.159,-0.088c-1.163,0.353 -2.262,1.06 -3.197,1.792c-1.807,1.438 -3.576,2.902 -5.333,4.378c-0.897,0.744 -2.11,1.526 -3.02,2.435c-1.504,-0.783 -2.944,-1.653 -4.334,-2.612c-0.569,0.29 -1.15,0.555 -1.731,0.82c-0.708,0.316 -1.39,0.694 -2.022,1.11c-2.098,1.313 -3.842,3.092 -5.32,5.11c-0.758,1.022 -1.428,2.095 -2.06,3.205c-0.189,0.353 -0.366,0.694 -0.556,1.047c-1.213,-0.454 -2.401,-0.896 -3.576,-1.337c-3.551,-1.338 -6.975,-2.7 -10.324,-4.479c-1.099,-0.568 -2.199,-1.199 -3.273,-1.88c-0.417,-0.265 -0.834,-0.53 -1.238,-0.808c-0.644,-0.441 -1.794,-0.328 -2.3,0.291c-0.025,0.025 -0.05,0.063 -0.076,0.088c-1.011,1.262 -1.971,2.561 -2.881,3.898c-2.375,3.445 -4.397,7.078 -6.255,10.8c-0.973,1.956 -1.908,3.924 -2.818,5.892c-0.53,-2.914 -1.023,-5.829 -1.402,-8.768c0,-0.025 -0.013,-0.051 -0.013,-0.076c-0.177,-1.287 -0.366,-2.675 -0.303,-3.999c-3.665,1.854 -7.064,3.86 -9.869,6.951c-3.437,3.76 -4.385,9.816 -5.548,14.56c-2.4,9.753 -4.688,20.692 -3.778,30.911c0,0.126 0,0.265 0.025,0.404c0.026,0.151 0.038,0.303 0.064,0.442c0.075,0.807 0.189,1.614 0.316,2.409c0.025,0.152 0.063,0.442 0.113,0.568c0.379,2.145 0.91,3.534 2.047,6.057l17.843,0c1.946,-1.261 3.715,-2.89 5.674,-4.467c1.112,-0.896 2.274,-1.703 3.462,-2.284c0.114,-0.063 0.227,-0.151 0.329,-0.189c1.061,-0.505 2.148,-0.902 3.26,-1.205c-0.202,-0.997 -0.405,-1.99 -0.607,-2.986c-0.038,-0.178 -0.101,-0.346 -0.202,-0.497c1.049,-2.133 2.047,-4.356 3.096,-6.576c4.183,-8.744 9.502,-16.996 14.064,-25.563c1.036,-1.943 2.035,-3.9 2.97,-5.881c0.038,0.101 0.063,0.202 0.076,0.316c1.276,9.79 2.641,19.543 4.119,29.296c-1.251,0.176 -2.502,0.366 -3.74,0.555c-2.692,0.441 -5.371,0.933 -8.037,1.489c-0.581,0.113 -1.238,0.719 -1.327,1.324c-0.417,2.637 -0.404,5.135 -0.152,7.646c0.127,1.262 0.304,2.523 0.531,3.798c0.177,1.06 0.379,2.132 0.594,3.217c0.051,0.265 0.101,0.694 0.139,0.997c0.051,0.265 0.089,1.01 0.126,1.01l87.697,0c3.816,-3.785 6.128,-7.192 5.749,-13.513" style="fill:#fff;"/><path id="Fill-20" d="M104.671,66.551c1.277,-0.139 2.566,-0.354 3.779,-0.783c0.998,-0.34 3.854,-2.081 1.39,-2.712c-0.708,-0.177 -1.416,-0.328 -2.123,-0.417c0.29,1.123 -0.19,2.524 -1.201,3.104c-1.327,0.732 -2.78,0.025 -3.412,-1.274c-0.278,-0.568 -0.328,-1.161 -0.214,-1.716c-1.732,0.303 -3.4,0.908 -4.979,1.842c-0.025,0.076 -0.063,0.151 -0.114,0.227c-0.834,1.199 6.23,1.804 6.874,1.729" style="fill:#fff;"/><path id="Fill-22" d="M61.708,68.822c1.276,-0.152 2.565,-0.366 3.778,-0.783c0.998,-0.353 3.854,-2.081 1.39,-2.725c-0.96,-0.252 -1.908,-0.416 -2.856,-0.492c0.127,1.085 -0.215,2.259 -1.213,2.826c-1.377,0.808 -2.957,0.227 -3.513,-1.261c-0.151,-0.391 -0.227,-0.795 -0.227,-1.199c-1.416,0.341 -2.806,0.896 -4.12,1.665c-0.025,0.076 -0.063,0.152 -0.113,0.228c-0.834,1.211 6.229,1.816 6.874,1.741" style="fill:#fff;"/><path id="Fill-24" d="M109.663,50.843c-0.67,-0.391 -1.34,-0.782 -2.022,-1.136c-1.251,-0.656 -2.515,-1.337 -3.841,-1.842c-1.921,-0.744 -6.47,-2.498 -8.1,-0.391c1.478,0.593 3.727,0.745 4.966,1.3c3.26,1.463 6.128,4.756 9.49,5.778c2.224,-0.088 0.859,-2.927 -0.493,-3.709" style="fill:#4d4d4d;"/><path id="Fill-26" d="M105.152,62.463c0.025,0.012 0.063,0.025 0.101,0.05c-0.063,-0.012 -0.114,0 -0.165,0c0.026,-0.025 0.038,-0.038 0.064,-0.05m2.287,-0.467c-0.506,-0.795 -1.39,-1.337 -2.313,-1.438c-0.278,-0.038 -0.568,-0.026 -0.859,0.038c-0.025,0 -0.038,0 -0.063,0.012c-0.164,0.038 -0.341,0.089 -0.506,0.177c-0.467,0.214 -0.568,0.643 -0.429,1.022c-0.19,0.29 -0.316,0.618 -0.379,0.946c-0.114,0.555 -0.063,1.148 0.215,1.716c0.631,1.299 2.085,2.006 3.411,1.274c1.011,-0.58 1.491,-1.981 1.201,-3.104c-0.051,-0.227 -0.152,-0.454 -0.278,-0.643" style="fill:#4d4d4d;"/><path id="Fill-28" d="M96.622,128.941l-0.013,0.012c-0.012,0.139 0,0.051 0.013,-0.012" style="fill:#4d4d4d;"/><path id="Fill-30" d="M86.791,99.985c-0.657,-2.132 -2.8,-2.902 -4.847,-1.829c-1.972,1.034 -1.131,2.914 -2.395,4.92l0,0.025c1.264,2.322 2.369,4.303 4.846,3.319c2.035,-0.808 2.952,-4.631 2.396,-6.435" style="fill:#4d4d4d;"/><path id="Fill-32" d="M87.385,80.694c-0.215,-1.35 -0.948,-2.473 -2.666,-2.788c-0.809,-0.152 -1.39,-1.035 -1.39,-1.817c0.012,-0.58 -0.127,-5.943 0.151,-5.968c-1.415,0.139 -2.83,0.278 -4.258,0.429c0.354,2.309 0.91,5.438 -0.038,6.902c-0.897,1.375 -1.479,2.498 -1.377,4.163c0.05,-0.05 0.101,-0.101 0.164,-0.139c2.78,-2.409 6.369,-2.22 9.414,-0.782" style="fill:#4d4d4d;"/><path id="Fill-34" d="M83.581,143.387c0.013,0.012 0.013,0.012 0.026,0.012c-0.013,-0.012 -0.013,-0.025 -0.013,-0.037c0,0.012 -0.013,0.012 -0.013,0.025" style="fill:#4d4d4d;"/><path id="Fill-36" d="M67.634,46.679c-0.05,-0.038 -0.101,-0.075 -0.164,-0.126c-2.224,-0.341 -4.157,0.114 -6.179,0.921c-2.439,1.161 -7.127,3.243 -7.734,6.094c-0.278,1.3 -0.252,4.29 1.896,1.968c0.91,-0.984 1.706,-2.17 2.704,-3.066c2.679,-2.422 5.8,-4.214 9.111,-5.639c0.126,-0.051 0.24,-0.101 0.366,-0.152" style="fill:#4d4d4d;"/><path id="Fill-38" d="M62.807,67.648c0.998,-0.567 1.34,-1.741 1.213,-2.826c-0.05,-0.416 -0.164,-0.833 -0.341,-1.186c-0.177,-0.366 -0.43,-0.643 -0.733,-0.832c-0.493,-0.303 -1.099,-0.392 -1.68,-0.278c-0.329,-0.278 -0.822,-0.328 -1.201,0.088c-0.139,0.152 -0.253,0.316 -0.354,0.48c-0.417,0.631 -0.644,1.35 -0.644,2.094c0,0.404 0.076,0.808 0.227,1.199c0.556,1.488 2.136,2.069 3.513,1.261" style="fill:#4d4d4d;"/><path id="Fill-40" d="M44.131,61.264c0.012,-0.038 0.025,-0.075 0.025,-0.113c-0.013,0.025 -0.025,0.05 -0.038,0.075c0,0.013 0.013,0.026 0.013,0.038" style="fill:#4d4d4d;"/><path id="Fill-42" d="M85.222,144.322c-0.05,0.003 -0.105,0.017 -0.163,0.041c-0.414,0.178 -5.225,7.847 -4.32,7.96c0.568,0.001 2.789,-2.814 4.29,-4.41c0.121,-0.127 0.315,-0.137 0.455,-0.031l2.049,1.548c0.689,0.519 1.996,1.636 2.152,1.557c0.179,-0.196 -3.852,-6.7 -4.463,-6.665" style="fill:#4d4d4d;"/><path id="Fill-44" d="M125,54.948c-0.14,-0.01 -0.23,0.362 -0.283,0.941c-0.164,1.78 -0.128,3.571 -0.063,5.355c0.024,0.652 -0.424,4.443 0.146,4.739c1.411,0.731 3.535,-5.77 2.253,-9.106c-0.346,-0.903 -1.005,-1.843 -2.053,-1.929" style="fill:#4d4d4d;"/><path id="Fill-46" d="M41.106,64.106c-0.106,-0.454 -0.217,-0.74 -0.327,-0.717c-0.824,0.182 -1.245,1 -1.421,1.756c-0.655,2.789 1.741,7.725 2.781,6.991c0.422,-0.298 -0.348,-3.262 -0.4,-3.781c-0.142,-1.426 -0.308,-2.852 -0.633,-4.249" style="fill:#4d4d4d;"/><path id="Fill-48" d="M90.064,123.61c-3.067,0.939 -5.954,1.372 -9.175,1.391c-5.292,0.031 -10.548,-1.36 -14.843,-4.517c-1.459,-1.073 -2.604,-2.254 -4.333,-2.923c-0.343,-0.134 -0.738,-0.244 -1.073,-0.091c-0.52,0.237 -0.182,0.801 0.458,1.424c0.994,0.972 2.717,2.084 3.057,2.319c8.096,5.593 19.866,8.196 29.028,3.655c0.687,-0.342 1.343,-0.743 1.993,-1.149c0.879,-1.426 -3.239,-0.682 -5.112,-0.109" style="fill:#4d4d4d;"/><path id="Fill-50" d="M89.914,133.287c-0.363,0.092 -0.722,0.184 -1.079,0.299c-2.418,0.778 -4.657,1.931 -6.867,3.164c-0.09,0.049 -0.185,0.105 -0.231,0.197c-0.015,0.03 -0.024,0.061 -0.027,0.09c-0.034,0.463 1.597,0.637 1.824,0.653c0.786,0.057 1.674,0.035 2.406,-0.289c1.253,-0.556 2.292,-1.591 3.339,-2.392c0.427,-0.326 0.815,-0.725 1.14,-1.152c0.075,-0.097 0.33,-0.376 0.291,-0.515c-0.074,-0.261 -0.632,-0.097 -0.796,-0.055" style="fill:#4d4d4d;"/><path id="Fill-52" d="M32.505,167.708c-1.209,-0.268 -2.704,3.296 -3.185,4.118c-0.874,1.486 -1.447,3.102 -2.008,4.722c-0.515,1.484 -1.229,3.316 -0.357,4.807c0.213,0.362 1.11,-1.364 1.192,-1.547c1.574,-3.541 3.714,-6.96 4.884,-10.663c0.278,-0.88 -0.028,-1.328 -0.526,-1.437" style="fill:#4d4d4d;"/><path id="Fill-54" d="M130.622,172.36c-0.457,-0.058 -1.109,2.084 -1.684,4.705c-0.506,2.302 -1.009,4.624 -1.116,6.986c-0.03,0.645 -0.321,2.947 0.163,3.424c0.628,0.619 2.604,0.198 3.349,0.056c0.02,-3.132 0.065,-6.252 0.179,-9.385c0.035,-0.95 0.599,-5.593 -0.891,-5.786" style="fill:#4d4d4d;"/><path id="Fill-56" d="M137.969,45.673c-0.872,0.37 -0.217,1.106 0.289,2.001c0.617,1.095 1.14,2.097 1.282,3.398c0.121,1.088 -0.154,1.804 -0.962,3.13c-0.498,0.815 2.183,-0.063 2.476,-1.051c0.64,-2.176 0.544,-4.466 -0.6,-6.476c-0.504,-0.896 -1.451,-1.441 -2.485,-1.002" style="fill:#4d4d4d;"/><path id="Fill-58" d="M145.151,49.242c-0.188,-0.755 -0.768,-1.342 -1.611,-1.229c-0.71,0.096 -0.379,0.763 -0.191,1.518c0.23,0.922 0.41,1.756 0.252,2.734c-0.132,0.817 -0.475,1.284 -1.332,2.089c-0.526,0.495 1.606,0.391 2.018,-0.27c0.903,-1.459 1.294,-3.148 0.864,-4.842" style="fill:#4d4d4d;"/><path id="Fill-60" d="M83.894,107.826c-0.461,0.011 -0.923,-0.022 -1.362,-0.093c-0.126,-0.02 -0.26,-0.043 -0.391,-0.03c-0.018,0.002 -0.036,0.004 -0.052,0.006c-0.515,0.075 -0.005,0.418 0.186,0.525c0.367,0.206 0.906,0.332 1.467,0.328c0.75,-0.005 1.309,-0.202 1.541,-0.54c0.056,-0.079 0.239,-0.342 -0.102,-0.332c-0.426,0.014 -0.84,0.126 -1.287,0.136" style="fill:#4d4d4d;"/></g></svg>