<?xml version="1.0" encoding="UTF-8" standalone="no"?><!DOCTYPE svg PUBLIC "-//W3C//DTD SVG 1.1//EN" "http://www.w3.org/Graphics/SVG/1.1/DTD/svg11.dtd"><svg width="100%" height="100%" viewBox="0 0 72 90" version="1.1" xmlns="http://www.w3.org/2000/svg" xmlns:xlink="http://www.w3.org/1999/xlink" xml:space="preserve" style="fill-rule:evenodd;clip-rule:evenodd;stroke-linejoin:round;stroke-miterlimit:1.41421;"><g id="Page-1"><path id="Fill-1" d="M11.54,32.414c0.475,-1.189 -0.883,-2.289 -1.952,-1.586c-4.199,2.766 -7.192,7.401 -8.539,12.317c-1.725,6.303 -1.093,13.021 0.25,19.417c1.451,6.903 4.172,14.225 10.26,17.789c2.312,1.353 5.19,2.55 7.789,3.228c3.02,0.789 6.566,-0.265 9.688,-0.12c2.777,0.129 5.354,0.731 7.931,1.746c2.526,0.993 4.431,2.86 6.918,3.88c5.524,2.266 11.833,-0.387 15.674,-4.528c3.605,-3.888 5.612,-8.955 7.539,-13.895c1.272,-3.26 0.908,-5.056 -2.591,-5.119c-3.493,-0.063 -7.255,-0.812 -10.628,-1.714c-13.248,-3.544 -22.984,-17.062 -22.525,-30.698c0.035,-1.037 -1.074,-1.72 -1.974,-1.205c-2.883,1.652 -5.392,3.96 -7.261,6.708c-1,1.47 -1.843,3.086 -3.18,4.257c-2.085,1.824 -5.284,2.252 -7.776,1.04c-1.247,-3.72 -1.073,-7.877 0.377,-11.517" style="fill:#4d4d4d;"/><path id="Fill-4" d="M10.902,28.284c-4.199,2.766 -7.192,7.401 -8.539,12.317c-1.725,6.303 -1.093,13.021 0.25,19.416c1.451,6.904 4.172,14.226 10.26,17.79c4.697,2.748 8.631,2.307 13.545,1.69c4.78,-0.598 9.57,1.413 13.846,3.297c5.136,2.262 10.722,4.664 16.178,3.348c7.068,-1.707 23.166,-19.902 10.099,-22.76c-3.759,-0.822 -7.63,-1.103 -11.348,-2.097c-13.248,-3.544 -22.984,-17.063 -22.525,-30.698c0.035,-1.037 -1.074,-1.72 -1.974,-1.205c-2.883,1.652 -5.392,3.96 -7.261,6.708c-1,1.47 -1.843,3.086 -3.18,4.257c-2.085,1.824 -5.284,2.252 -7.776,1.04c-1.247,-3.72 -1.073,-7.877 0.378,-11.517c0.474,-1.189 -0.884,-2.289 -1.953,-1.586Z" style="fill:#4e91ff;"/><path id="Fill-6" d="M30.336,53.334c0.54,1.54 1.634,2.557 2.444,2.274c0.81,-0.285 1.03,-1.762 0.49,-3.302c-0.539,-1.539 -1.633,-2.557 -2.444,-2.274c-0.81,0.285 -1.03,1.763 -0.49,3.302" style="fill:#4d4d4d;"/><path id="Fill-8" d="M14.526,54.645c0.252,1.612 1.144,2.81 1.993,2.677c0.847,-0.132 1.331,-1.546 1.079,-3.158c-0.252,-1.612 -1.144,-2.811 -1.993,-2.677c-0.848,0.132 -1.331,1.546 -1.079,3.158" style="fill:#4d4d4d;"/><path id="Fill-10" d="M64.762,69.841c0.765,-0.222 0.938,-1.255 0.266,-1.683c-1.862,-1.187 -4.023,-1.905 -6.226,-2.057c-0.357,-0.025 -0.686,0.176 -0.866,0.486c-0.834,1.434 -1.968,2.722 -3.021,4.017c-0.241,0.298 -0.076,0.749 0.302,0.812c0.204,0.033 0.414,0.046 0.614,0.058c2.046,0.115 4.065,-0.427 6.041,-0.966c0.929,-0.253 1.944,-0.391 2.89,-0.667" style="fill:#4d4d4d;"/><path id="Fill-12" d="M32.462,16.158c-0.864,-1.744 -1.698,-3.548 -1.925,-5.481c-0.228,-1.933 0.24,-4.044 1.653,-5.382c2.053,-1.942 5.503,-1.65 7.842,-0.063c2.34,1.587 3.803,4.15 5.077,6.673c2.964,5.868 5.098,12.1 7.138,18.335c0.603,1.843 5.874,13.137 1.266,12.814c-3.705,-0.259 -8.122,-6.362 -10.121,-9.013c-4.203,-5.572 -7.833,-11.634 -10.93,-17.883" style="fill:#4d4d4d;"/><path id="Fill-14" d="M56.612,47.946c-0.633,2.895 0.319,6.384 3.139,7.563c7.771,3.248 10.492,-9.798 2.673,-11.724c-3.195,-0.786 -5.212,1.421 -5.812,4.161" style="fill:#4d4d4d;"/><g id="Group-18"><path id="Fill-16" d="M34.773,13.119c-0.865,-1.744 -1.697,-3.548 -1.925,-5.481c-0.227,-1.933 0.241,-4.044 1.654,-5.382c2.052,-1.942 5.503,-1.65 7.842,-0.063c2.339,1.587 3.803,4.15 5.076,6.673c2.965,5.868 5.099,12.1 7.139,18.335c0.603,1.843 5.873,13.137 1.265,12.814c-3.704,-0.259 -8.121,-6.362 -10.12,-9.013c-4.203,-5.572 -7.834,-11.634 -10.931,-17.883" style="fill:#4e91ff;"/></g><path id="Fill-19" d="M58.924,44.907c-0.633,2.895 0.319,6.384 3.139,7.563c7.771,3.248 10.491,-9.798 2.673,-11.724c-3.195,-0.786 -5.213,1.421 -5.812,4.161" style="fill:#4e91ff;"/></g></svg>