<?xml version="1.0" encoding="utf-8"?>
<!-- Generator: Adobe Illustrator 20.1.0, SVG Export Plug-In . SVG Version: 6.00 Build 0)  -->
<svg version="1.1" xmlns="http://www.w3.org/2000/svg" xmlns:xlink="http://www.w3.org/1999/xlink" x="0px" y="0px"
	 viewBox="0 0 117 112.5" style="enable-background:new 0 0 117 112.5;" xml:space="preserve">
<style type="text/css">
	.st0{fill:#4D4D4D;}
	.st1{fill:#4E91FF;}
	.st2{fill:#FFFFFF;}
</style>
<g id="gameBody">
	<g id="dogBody">
		<title>6176A7A1-E4A7-44FC-BA86-C6EECDE35C64</title>
		<desc>Created with sketchtool.</desc>
		<path id="Fill-11" class="st0" d="M82.1,35.9c0.2-0.8-0.8-1.4-1.6-1.7c-1.4-0.5-2.9-1-4.4-1.2c-0.2,0-0.4,0.1-0.5,0.2
			c-1.3,1.6-2.3,3.5-2.9,5.5c-0.1,0.3,0.1,0.7,0.5,0.7c1.9,0.3,3.8-0.7,5.5-1.6C79.8,37.3,81,36.6,82.1,35.9"/>
		<g>
			<g id="Group-3" transform="translate(27.674419, 0.700413)">
				<g id="Clip-2">
				</g>
				<path id="Fill-1" class="st1" d="M11.1,6.8c-1.2,2.4-2.2,4.9-2.9,7.7c-1.3,5.6-1.7,11.7,0.6,17.2c3.1,7.3,10.3,9.2,17,12.2
					c1.5,0.7,3,1.4,4.5,2.2c1.8,0,5.3,2.5,6.9,3.3c1.7,0.8,3.1,1.9,4.8,2.6c4.3,1.9,9.3,1.2,12.1-2.5C57.5,45,70.2,31.1,59.6,27
					c-3.2-1.2-6.8-0.7-10.1-1.8c-5-1.6-8.8-4.5-10.2-9.6c-0.7-2.3-0.9-4.7-1.3-7c-0.3-1.4-0.5-3.1-0.9-4.7c-0.5-1.5-2.4-1.9-3.4-0.7
					c-2,2.5-4.4,5-6.7,6.9C25.9,11,26.6,11,25.2,11c-1,0-2.8-0.5-3.5-1.3c-0.8-0.9-1.1-2.8-1.6-3.9c-0.7-1.7-1.6-3.5-2.8-4.9
					C16.4-0.2,14.7,0,14,1.2C13,3.1,12,4.9,11.1,6.8"/>
			</g>
			<g id="Group-6" transform="translate(12.860465, 20.265630)">
				<path id="Fill-4" class="st1" d="M24,68.1c-1.3-0.2-2.5-0.4-3.5-0.6c-29.2-8.2-2.1-41.2,8.4-52.9c5.4-6,8.3-11.3,16.9-13.2
					C56.3-1,57,2.5,56,11.7C54.4,24.7,46.6,36,45.3,49c-0.6,6.6-1.7,3.8,3.5,6.6c3.8,1.9,11.9,2.5,5.7,7.8
					C49.5,67.8,33,69.2,24,68.1"/>
			</g>
			<path id="Fill-7" class="st1" d="M45.2,54.6c6.2,5.6,13.5,10.7,20.2,15.8c1.9,1.5,5.8,5.5,8.3,4.6c1.6-0.6,4.8-5.2,4.6-6.9
				c-0.3-3-5.8-5.9-8.1-7.4c-7-4.5-13.9-9.4-20.9-14c-3.4-2.2-5.2-3.4-6.8,0.4c-1.3,3-0.7,4.8,1.8,7.4c0.8,0.9,1.7,1.5,2.8,1.9"/>
			<path id="Fill-13" class="st0" d="M49.2,18.3c0.7,0.2,1,1.1,1.2,1.8c0.3,1.4,0.5,2.9,0.6,4.4c0.1,0.7,0.1,1.5,0.2,2.2
				c0,0.9,0,1.8-0.7,2.5c-0.6,0.5-1.6,0.3-2.1-0.2c-1-0.7-1.2-3-1.4-4c-0.2-1.6-0.2-3.2,0.2-4.7c0.1-0.5,0.3-1,0.6-1.5
				C48.1,18.4,48.7,18.2,49.2,18.3"/>
			<path id="Fill-15" class="st0" d="M61.4,18.7c0.2-0.1,0.5-0.1,0.7,0c0.3,0.1,0.5,0.5,0.6,0.8c0.6,1.8,0.8,3.8,0.5,5.7
				c-0.1,0.6-0.3,1.2-0.8,1.5c-0.6,0.3-1.4,0-1.8-0.5c-0.4-0.5-0.6-1.2-0.7-1.9c-0.2-1.2-0.3-2.4-0.1-3.5C60,20,60.5,19,61.4,18.7"
				/>
		</g>
	</g>
</g>
<g id="gameTail">
	<g id="dogTail">
		<g>
			<path id="Fill-9" class="st1" d="M19.8,54.2c1.2-1.5-0.2-3.6-2.1-3.1c-2.5,0.7-4.9,1.9-6.8,3.6C7.6,57.8,6,62.7,7.5,67
				c1.1,3.1,3.9,5.5,7,6.2c1.5,0.3,2.8-1.2,2.2-2.6c-1.2-3-1.3-6.5-0.4-9.6C17,58.5,18.3,56.3,19.8,54.2"/>
		</g>
	</g>
</g>
<g id="gameClick">
	<g id="click">
		<g>
			<path id="arrow" class="st2" d="M114.3,79L87.2,61.2c-0.4-0.3-1-0.3-1.5,0S85,62,85,62.5v31.3c0,0.6,0.3,1.1,0.8,1.3
				c0.5,0.2,1.1,0.2,1.5-0.1l7.7-5.8l7,11.1c0.3,0.4,0.7,0.7,1.2,0.7c0.2,0,0.5-0.1,0.7-0.2l7.2-4.2c0.3-0.2,0.6-0.5,0.7-0.9
				s0-0.8-0.2-1.1L105,84.2l8.9-2.5c0.5-0.2,0.9-0.6,1-1.2C115.1,79.8,114.8,79.2,114.3,79z"/>
		</g>
	</g>
</g>
</svg>
