<?xml version="1.0" encoding="utf-8"?>
<!-- Generator: Adobe Illustrator 20.1.0, SVG Export Plug-In . SVG Version: 6.00 Build 0)  -->
<svg version="1.1" id="圖層_1" xmlns="http://www.w3.org/2000/svg" xmlns:xlink="http://www.w3.org/1999/xlink" x="0px" y="0px"
	 viewBox="0 0 87.7 92.3" style="enable-background:new 0 0 87.7 92.3;" xml:space="preserve">
<style type="text/css">
	.st0{fill:#4D4D4D;}
	.st1{fill:#4E91FF;}
</style>
<g id="gameBody">
	<g id="dogBody">
		<title>6176A7A1-E4A7-44FC-BA86-C6EECDE35C64</title>
		<desc>Created with sketchtool.</desc>
		<path id="Fill-11" class="st0" d="M76.8,37.6c0.2-0.8-0.8-1.4-1.6-1.7c-1.4-0.5-2.9-1-4.4-1.2c-0.2,0-0.4,0.1-0.5,0.2
			c-1.3,1.6-2.3,3.5-2.9,5.5c-0.1,0.3,0.1,0.7,0.5,0.7c1.9,0.3,3.8-0.7,5.5-1.6C74.5,39,75.7,38.3,76.8,37.6"/>
		<g>
			<g id="Group-3" transform="translate(27.674419, 0.700413)">
				<g id="Clip-2">
				</g>
				<path id="Fill-1" class="st1" d="M5.8,8.5c-1.2,2.4-2.2,4.9-2.9,7.7c-1.3,5.6-1.7,11.7,0.6,17.2c3.1,7.3,10.3,9.2,17,12.2
					c1.5,0.7,3,1.4,4.5,2.2c1.8,0,5.3,2.5,6.9,3.3c1.7,0.8,3.1,1.9,4.8,2.6c4.3,1.9,9.3,1.2,12.1-2.5c3.4-4.5,16.1-18.4,5.5-22.5
					c-3.2-1.2-6.8-0.7-10.1-1.8c-5-1.6-8.8-4.5-10.2-9.6c-0.7-2.3-0.9-4.7-1.3-7c-0.3-1.4-0.5-3.1-0.9-4.7c-0.5-1.5-2.4-1.9-3.4-0.7
					c-2,2.5-4.4,5-6.7,6.9c-1.1,0.9-0.4,0.9-1.8,0.9c-1,0-2.8-0.5-3.5-1.3c-0.8-0.9-1.1-2.8-1.6-3.9C14.1,5.8,13.2,4,12,2.6
					c-0.9-1.1-2.6-0.9-3.3,0.3C7.7,4.8,6.7,6.6,5.8,8.5"/>
			</g>
			<g id="Group-6" transform="translate(12.860465, 20.265630)">
				<path id="Fill-4" class="st1" d="M18.7,69.8c-1.3-0.2-2.5-0.4-3.5-0.6C-14,61,13.1,28,23.6,16.3C29,10.3,31.9,5,40.5,3.1
					C51,0.7,51.7,4.2,50.7,13.4c-1.6,13-9.4,24.3-10.7,37.3c-0.6,6.6-1.7,3.8,3.5,6.6c3.8,1.9,11.9,2.5,5.7,7.8
					C44.2,69.5,27.7,70.9,18.7,69.8"/>
			</g>
			<path id="Fill-7" class="st1" d="M39.9,56.3c6.2,5.6,13.5,10.7,20.2,15.8c1.9,1.5,5.8,5.5,8.3,4.6c1.6-0.6,4.8-5.2,4.6-6.9
				c-0.3-3-5.8-5.9-8.1-7.4c-7-4.5-13.9-9.4-20.9-14c-3.4-2.2-5.2-3.4-6.8,0.4c-1.3,3-0.7,4.8,1.8,7.4c0.8,0.9,1.7,1.5,2.8,1.9"/>
			<path id="Fill-13" class="st0" d="M43.9,20c0.7,0.2,1,1.1,1.2,1.8c0.3,1.4,0.5,2.9,0.6,4.4c0.1,0.7,0.1,1.5,0.2,2.2
				c0,0.9,0,1.8-0.7,2.5c-0.6,0.5-1.6,0.3-2.1-0.2c-1-0.7-1.2-3-1.4-4c-0.2-1.6-0.2-3.2,0.2-4.7c0.1-0.5,0.3-1,0.6-1.5
				C42.8,20.1,43.4,19.9,43.9,20"/>
			<path id="Fill-15" class="st0" d="M56.1,20.4c0.2-0.1,0.5-0.1,0.7,0c0.3,0.1,0.5,0.5,0.6,0.8c0.6,1.8,0.8,3.8,0.5,5.7
				c-0.1,0.6-0.3,1.2-0.8,1.5c-0.6,0.3-1.4,0-1.8-0.5c-0.4-0.5-0.6-1.2-0.7-1.9c-0.2-1.2-0.3-2.4-0.1-3.5
				C54.7,21.7,55.2,20.7,56.1,20.4"/>
		</g>
	</g>
</g>
<g id="gameTail">
	<g id="dogTail">
		<g>
			<path id="Fill-9" class="st1" d="M14.5,55.9c1.2-1.5-0.2-3.6-2.1-3.1c-2.5,0.7-4.9,1.9-6.8,3.6c-3.3,3.1-4.9,8-3.4,12.3
				c1.1,3.1,3.9,5.5,7,6.2c1.5,0.3,2.8-1.2,2.2-2.6c-1.2-3-1.3-6.5-0.4-9.6C11.7,60.2,13,58,14.5,55.9"/>
		</g>
	</g>
</g>
</svg>
