<svg id="87e926b7-7314-4526-a33c-972ae40cb272" data-name="圖層 1" xmlns="http://www.w3.org/2000/svg" xmlns:xlink="http://www.w3.org/1999/xlink" viewBox="0 0 87.5 91.9"><defs><mask id="9cbb3bd3-ee93-4dc1-90eb-dc5f6a38afc2" x="28.82" y="0" width="58.65" height="55.12" maskUnits="userSpaceOnUse"><g transform="translate(-0.2 0)"><g id="13b8cb74-00bd-45b1-b8d4-7881c89d65f1" data-name="mask-2"><polygon id="0660cf61-bc6c-4bf3-8b88-de58132aa835" data-name="path-1" points="87.7 55.1 87.7 0 29.1 0 29.1 55.1 87.7 55.1" style="fill:#fff"/></g></g></mask></defs><title>pink-dog-icon</title><g id="4d6bd527-73ba-4079-b4aa-2b263dbee452" data-name="buttom"><g id="79931afd-b7d1-4180-80f5-704c0cee9ef7" data-name="legend"><g id="4b0b8a0f-bb3d-439f-ad74-9dae1b133fb3" data-name="icon"><g id="d00d671f-21c8-4a1d-9de1-a9db618908b2" data-name="Page-1"><g id="685297b5-32f6-4dde-a6e3-ea1bee6ef107" data-name="Group-3"><g style="mask:url(#9cbb3bd3-ee93-4dc1-90eb-dc5f6a38afc2)"><path id="1dd7a466-d784-4cc3-acf3-edb6d8058bda" data-name="Fill-1" d="M33.1,6.8a36.7,36.7,0,0,0-3,8.1c-1.4,5.9-1.7,12.3.6,17.9,3.2,7.6,10.7,9.6,17.6,12.8l4.7,2.3c1.9,0,5.4,2.6,7.2,3.4s3.3,2,5,2.7c4.4,2,9.6,1.3,12.5-2.6s16.7-19.2,5.7-23.5c-3.3-1.3-7.1-.8-10.5-1.9-5.2-1.7-9.1-4.7-10.6-10-0.7-2.4-.9-4.9-1.4-7.4a44.2,44.2,0,0,0-1-4.9,2,2,0,0,0-3.5-.7,57.1,57.1,0,0,1-6.9,7.2c-1.1.9-.4,0.9-1.8,1A5.5,5.5,0,0,1,44.1,10C43.3,9,42.9,7,42.5,5.9A21.2,21.2,0,0,0,39.6.7a2.1,2.1,0,0,0-3.4.3C35.1,3,34.1,4.9,33.1,6.8" transform="translate(-0.2 0)" style="fill:#ff6496"/></g></g><g id="a4e9723b-0afc-47a8-9554-e7c78f04aff8" data-name="Group-6"><path id="f1cb2d70-c621-4b38-bc95-82b17f672ee0" data-name="Fill-4" d="M31.2,91.5l-3.6-.7c-30.2-8.6-2.2-43.1,8.7-55.4,5.6-6.2,8.6-11.8,17.5-13.8,10.9-2.5,11.6,1.2,10.5,10.8-1.6,13.6-9.7,25.5-11,39.1-0.7,6.9-1.8,4,3.7,6.9,3.9,2,12.3,2.6,5.9,8.2s-22.3,6.1-31.6,4.9" transform="translate(-0.2 0)" style="fill:#ff6496"/></g><path id="b808cf38-24da-4f18-a17a-77d9c2d1ce83" data-name="Fill-7" d="M39.7,56.2c6.4,5.9,14,11.2,20.9,16.5,2,1.6,6,5.8,8.6,4.8s5-5.5,4.8-7.3-6-6.1-8.4-7.7C58.3,57.8,51.2,52.7,44,48c-3.6-2.3-5.4-3.6-7,.4s-0.8,5,1.8,7.7a8.3,8.3,0,0,0,2.9,2" transform="translate(-0.2 0)" style="fill:#ff6496"/><path id="6236164e-03bc-46c2-b89c-23aa84489b2d" data-name="Fill-9" d="M13.5,55.8a2,2,0,0,0-2.2-3.2,16.1,16.1,0,0,0-7,3.8C0.9,59.5-.7,64.7.8,69.1a10.2,10.2,0,0,0,7.3,6.5,2,2,0,0,0,2.3-2.8,15.7,15.7,0,0,1-.4-10,20.4,20.4,0,0,1,3.7-7" transform="translate(-0.2 0)" style="fill:#ff6496"/><path id="2d705f23-87ad-4c7a-a806-3a38ce3b7423" data-name="Fill-11" d="M78.1,36.6c0.2-.9-0.8-1.5-1.7-1.8a20.3,20.3,0,0,0-4.6-1.2,0.7,0.7,0,0,0-.6.2,15.1,15.1,0,0,0-3,5.7,0.6,0.6,0,0,0,.5.8c1.9,0.3,3.9-.7,5.7-1.7l3.6-2.1" transform="translate(-0.2 0)" style="fill:#4d4d4d"/><path id="83157400-42e4-4811-b4d1-eedc5fb30ce4" data-name="Fill-13" d="M44,18.1a2.2,2.2,0,0,1,1.2,1.9q0.4,2.3.7,4.6c0.1,0.8.2,1.5,0.2,2.3a3.2,3.2,0,0,1-.7,2.6,1.9,1.9,0,0,1-2.2-.2c-1-.8-1.3-3.1-1.4-4.2a13.8,13.8,0,0,1,.2-4.9,3.6,3.6,0,0,1,.6-1.5,1.5,1.5,0,0,1,1.5-.6" transform="translate(-0.2 0)" style="fill:#4d4d4d"/><path id="1519a816-7fb3-44ce-be30-1b833fb704f7" data-name="Fill-15" d="M56.6,18.6h0.7a1.3,1.3,0,0,1,.6.8,12.8,12.8,0,0,1,.5,5.9,2.1,2.1,0,0,1-.8,1.6,1.5,1.5,0,0,1-1.9-.5,4.1,4.1,0,0,1-.7-2,10.7,10.7,0,0,1-.1-3.7,2.8,2.8,0,0,1,1.6-2.2" transform="translate(-0.2 0)" style="fill:#4d4d4d"/><path id="00fe49b1-a85b-42d4-ba91-db2a49e8b34c" data-name="Fill-17" d="M44.5,78.7c3.5-3.1,7.1-6.1,10.7-9,1.5-1.2,2.9-2.9,4.9-1.7a6.1,6.1,0,0,1,2.1,2.4c0.3,0.5,1.3,1.8.8,2.3a20,20,0,0,1-1.9,1.4L59,75.9l-4.5,3.3a59.1,59.1,0,0,0-5.1,4.5c-0.6.5-1.8,2-2.5,2.2s-2.7-1.8-3.4-2.5-1.7-2.1-.5-3.2l1.5-1.4" transform="translate(-0.2 0)" style="fill:#4d4d4d"/><path id="6d58bc13-8418-4384-a74a-bf4f0857cd04" data-name="Fill-19" d="M57.1,75.9c1.1,1,2,2.1,3,3.2s2.7,2.4,2,3.3-2.4,1.7-3.4,2.6-1.4,1.3-2.2.9a5.6,5.6,0,0,1-1.4-1.3l-1.6-1.9-4.6-5.2a18,18,0,0,0-2.3-2l-2.4-2c-0.6-.5-2-1.1-1.7-1.9a10.2,10.2,0,0,1,2.1-2.2c0.5-.5,1.5-1.9,2.3-2s1.7,0.8,2.3,1.2a22.4,22.4,0,0,1,2.1,2c2,1.7,3.9,3.4,5.8,5.2" transform="translate(-0.2 0)" style="fill:#4d4d4d"/></g></g></g></g></svg>