<?xml version="1.0" encoding="UTF-8"?>
<svg width="40px" height="40px" viewBox="0 0 40 40" version="1.1" xmlns="http://www.w3.org/2000/svg" xmlns:xlink="http://www.w3.org/1999/xlink">
    <!-- Generator: sketchtool 40 (33762) - http://www.bohemiancoding.com/sketch -->
    <title>C1DAFEB8-5398-443E-B76F-004D02122771</title>
    <desc>Created with sketchtool.</desc>
    <defs>
        <polygon id="path-1" points="19.0254772 17.965696 19.0254772 0.092260111 0.00901134332 0.092260111 0.00901134332 17.965696 19.0254772 17.965696"></polygon>
    </defs>
    <g id="mockup" stroke="none" stroke-width="1" fill="none" fill-rule="evenodd">
        <g id="Lai" transform="translate(-982.000000, -503.000000)">
            <g id="Lai-Ending" transform="translate(829.000000, 118.000000)">
                <g id="buttom" transform="translate(0.000000, 370.000000)">
                    <g id="legend" transform="translate(0.000000, 15.000000)">
                        <g id="icon" transform="translate(153.000000, 0.000000)">
                            <circle id="Oval-4" fill="#FFFFFF" cx="20" cy="20" r="20"></circle>
                            <g id="Page-1" transform="translate(6.000000, 5.000000)">
                                <g id="Group-3" transform="translate(9.336100, 0.032241)">
                                    <mask id="mask-2" fill="white">
                                        <use xlink:href="#path-1"></use>
                                    </mask>
                                    <g id="Clip-2"></g>
                                    <path d="M1.32426971,2.30762241 C0.919580913,3.12895021 0.575016598,3.97691701 0.35779668,4.91861826 C-0.0828672199,6.82816183 -0.199755187,8.89305809 0.567547718,10.7377469 C1.59937344,13.2181618 4.02962241,13.8454232 6.28721577,14.8931826 C6.79447718,15.1285768 7.29514108,15.3775394 7.79704979,15.623888 C8.4050166,15.623888 9.56281743,16.4728506 10.1280871,16.7361286 C10.6852656,16.9955477 11.1841867,17.3742199 11.742361,17.6221867 C13.1788755,18.2601535 14.8597469,18.0292407 15.7934813,16.7635145 C16.9319876,15.220195 21.1967178,10.5268755 17.6318216,9.14177178 C16.5580456,8.72451037 15.3331494,8.88758091 14.242195,8.53729046 C12.5656805,7.99890871 11.3019461,7.02546473 10.8149751,5.2936805 C10.5952656,4.51193776 10.5218216,3.70094191 10.3711992,2.90538174 C10.2841867,2.44542324 10.2168423,1.8550083 10.0545187,1.32596266 C9.89754772,0.814095436 9.24327386,0.676170124 8.90356432,1.08982158 C8.21518257,1.92795436 7.4376722,2.78052697 6.65879253,3.43791286 C6.30252697,3.73853527 6.53667635,3.73604564 6.06290041,3.75770539 C5.71846058,3.77339004 5.1296639,3.59152282 4.89090871,3.3216473 C4.62314938,3.01890871 4.51136515,2.37534025 4.35414523,2.00127386 C4.10580498,1.410361 3.82285892,0.827912863 3.42539004,0.333970954 C3.132361,-0.0301369295 2.55800415,0.027746888 2.3303278,0.436045643 C1.97978838,1.0643029 1.6343527,1.67812033 1.32426971,2.30762241" id="Fill-1" fill="#FF6496" mask="url(#mask-2)"></path>
                                </g>
                                <g id="Group-6" transform="translate(4.356846, 6.878714)" fill="#FF6496">
                                    <path d="M5.67026141,22.9136763 C5.22212863,22.8600249 4.82889212,22.7880747 4.51146473,22.6981992 C-5.28384647,19.9253776 3.80017842,8.7193195 7.33781328,4.74786722 C9.14129876,2.72305394 10.1222116,0.921435685 12.9978548,0.262307054 C16.52939,-0.547195021 16.7644108,0.649941909 16.3990581,3.75276349 C15.8795975,8.16463071 13.2631245,12.0081162 12.8341618,16.4278257 C12.6174398,18.6601494 12.2632905,17.7318921 14.019971,18.6513112 C15.2814647,19.3115602 18.0086017,19.4832199 15.9200539,21.3120996 C14.2220041,22.799029 8.6936639,23.2752946 5.67026141,22.9136763" id="Fill-4"></path>
                                </g>
                                <path d="M12.8116058,18.33961 C14.8786183,20.2494025 17.3489502,21.9669959 19.5893651,23.6981577 C20.2399046,24.2009378 21.5228091,25.5697344 22.3768755,25.265751 C22.9050498,25.0777842 23.9862946,23.4906473 23.9315228,22.9080747 C23.8372905,21.9064979 21.9813983,20.916249 21.2062531,20.4125975 C18.8444689,18.8782407 16.5358382,17.2213942 14.1856307,15.6777012 C13.0324357,14.9202324 12.443639,14.5110622 11.9056307,15.8041743 C11.4792822,16.829029 11.6539295,17.4229295 12.5004025,18.3063734 C12.777249,18.5951701 13.0766266,18.8050456 13.453556,18.9587801" id="Fill-7" fill="#FF6496"></path>
                                <path d="M4.3140249,18.2028921 C4.71298755,17.6952573 4.23970954,16.9860871 3.61518672,17.1499046 C2.76510373,17.3728506 1.97029046,17.7790332 1.33394191,18.3822697 C0.23153527,19.4270415 -0.309087137,21.1013154 0.182614108,22.5384523 C0.538257261,23.5782448 1.48195021,24.4006929 2.5353112,24.6391992 C3.0426971,24.753971 3.46493776,24.2264191 3.26925311,23.7445519 C2.85684647,22.7281618 2.82497925,21.5524357 3.12348548,20.4882448 C3.35751037,19.653971 3.77751037,18.8856722 4.3140249,18.2028921" id="Fill-9" fill="#FF6496"></path>
                                <path d="M25.2336971,11.9963527 C25.2988008,11.7157718 24.9674315,11.5203361 24.6956888,11.4248589 C24.2097137,11.254195 23.7170166,11.0820373 23.2058963,11.0295062 C23.137556,11.0224108 23.0680954,11.051166 23.024029,11.1038216 C22.5725353,11.6439461 22.2401701,12.2830332 22.0564357,12.9624523 C22.0269336,13.0713734 22.0965187,13.1933651 22.2079295,13.2116639 C22.8360622,13.3151079 23.4849834,12.9837386 24.0549834,12.6619544 C24.4478465,12.4401286 24.840834,12.2181784 25.2336971,11.9963527" id="Fill-11" fill="#4D4D4D"></path>
                                <path d="M14.1816971,6.00766805 C14.4301618,6.07862241 14.5238963,6.37551037 14.572444,6.6293278 C14.6665519,7.12102905 14.7380041,7.61696266 14.7865519,8.11513693 C14.8108257,8.36360166 14.8353485,8.61430705 14.8423195,8.8640166 C14.8507842,9.17048963 14.8536473,9.48629876 14.6109087,9.71173444 C14.4235643,9.88563485 14.0822365,9.79712863 13.89539,9.65521992 C13.5733568,9.41073859 13.4897054,8.65115353 13.4370498,8.28107054 C13.3614896,7.75053112 13.3800373,7.20604979 13.4970498,6.68273029 C13.5363859,6.50683817 13.589166,6.32770954 13.7036888,6.18841494 C13.8182116,6.04899585 14.0082946,5.95812448 14.1816971,6.00766805" id="Fill-13" fill="#4D4D4D"></path>
                                <path d="M18.2636515,6.1523029 C18.3375934,6.12753112 18.4209959,6.11919087 18.4921992,6.15105809 C18.5967635,6.19773859 18.6474274,6.31512448 18.6842739,6.42354772 C18.893527,7.04022822 18.9545228,7.70657676 18.8605394,8.3510166 C18.8317842,8.5483195 18.773278,8.76616183 18.6013693,8.86724066 C18.4046888,8.98288382 18.1375519,8.88354772 17.9951452,8.70516598 C17.8528631,8.52678423 17.8061826,8.29226141 17.7715768,8.06670124 C17.7110788,7.6709751 17.6743568,7.26491701 17.7519087,6.87217842 C17.8117842,6.56919087 17.9707469,6.25014523 18.2636515,6.1523029" id="Fill-15" fill="#4D4D4D"></path>
                                <path d="M14.3625934,25.6540705 C15.4865353,24.6368091 16.6504357,23.664112 17.8412241,22.7260207 C18.3207261,22.3480954 18.7831743,21.8005021 19.4235062,22.1730747 C19.7261203,22.3490913 19.9259129,22.6553154 20.0943361,22.9528257 C20.191556,23.12461 20.5061203,23.5258133 20.3379461,23.704444 C20.1640456,23.8890498 19.9259129,23.9967261 19.7360788,24.1568091 C19.5077801,24.3492573 19.2771162,24.5387178 19.0397303,24.7209585 C18.5623444,25.0870581 18.0727593,25.4367261 17.5872822,25.7919959 C16.9927593,26.2269336 16.4781535,26.75461 15.9389004,27.2534066 C15.7499378,27.4283029 15.3700207,27.9076805 15.1165768,27.9602116 C14.7935477,28.0271826 14.2394813,27.3736556 14.0187759,27.1614149 C13.7012241,26.8560622 13.4756639,26.470917 13.8614315,26.1131577 C14.0276141,25.9590498 14.194668,25.8060622 14.3625934,25.6540705" id="Fill-17" fill="#4D4D4D"></path>
                                <path d="M18.4520539,24.7406266 C18.7951245,25.0665187 19.1154149,25.4153154 19.4266183,25.7714564 C19.6404772,26.0161867 20.3069502,26.5401286 20.0825104,26.8560622 C19.8234647,27.2205436 19.3051245,27.4189668 18.9676556,27.7027842 C18.791888,27.8505436 18.511805,28.1082199 18.2601037,27.9923278 C18.0971577,27.9172656 17.9124274,27.7180954 17.7921784,27.5862697 C17.6083195,27.3847344 17.4412656,27.1683859 17.258527,26.9657303 C16.7535062,26.4055643 16.2579461,25.8425353 15.7621369,25.2756473 C15.5398133,25.0214564 15.2632158,24.844444 15.0036722,24.6327012 C14.7398963,24.417473 14.4830913,24.1941535 14.2205602,23.977556 C14.0276141,23.8182199 13.5731328,23.6158133 13.685166,23.3546515 C13.788112,23.1146515 14.181971,22.8400456 14.368195,22.6530747 C14.5449585,22.4755643 14.8646266,22.0523278 15.1208091,22.0053983 C15.3858299,21.9569751 15.6778631,22.2783859 15.8802697,22.4105851 C16.1395643,22.5800041 16.3331328,22.8557303 16.5700207,23.0608755 C17.2056224,23.6114564 17.8422199,24.1612905 18.4520539,24.7406266" id="Fill-19" fill="#4D4D4D"></path>
                            </g>
                        </g>
                    </g>
                </g>
            </g>
        </g>
    </g>
</svg>