<?xml version="1.0" encoding="utf-8"?>
<!-- Generator: Adobe Illustrator 18.0.0, SVG Export Plug-In . SVG Version: 6.00 Build 0)  -->
<!DOCTYPE svg PUBLIC "-//W3C//DTD SVG 1.1//EN" "http://www.w3.org/Graphics/SVG/1.1/DTD/svg11.dtd">
<svg version="1.1" id="shelter-tracking" xmlns="http://www.w3.org/2000/svg" xmlns:xlink="http://www.w3.org/1999/xlink" x="0px"
	 y="0px" viewBox="0 0 284 284" enable-background="new 0 0 284 284" xml:space="preserve">
<title>35D44360-DF8E-4175-B586-7F473471891C</title>
<desc>Created with sketchtool.</desc>
<g id="shadow">
	<path id="Fill-1" fill-opacity="0.1" d="M203.1,226c-3.1-6.6-10.8-9.7-18-11.6c-27.9-7.5-57.9-7-85.5,1.4c-6.4,2-12.8,4.4-17.8,8.9
		c-5,4.5-8.2,11.4-6.6,17.9c2.3,9.8,13.7,14.4,23.8,15.5c7.8,0.8,15.7,0.3,23.4-1.3c7.5-1.6,14.7-4.4,22.3-5.2
		c8.5-0.9,17.1,0.6,25.6,1.1c8.5,0.5,17.6,0,24.8-4.6C202.2,243.4,206.7,233.8,203.1,226"/>
</g>
<g id="dog">
	<path id="Fill-3" fill="#4D4D4D" d="M181.3,219.7c-2-0.8-4-1.8-6.4-2.8c-6.7-2.9-13.7-5.4-20.5-8c-7.9-2.9-15.8-4.8-23.9-6.8
		c-8.9-2.2-17.6-4.6-26.6-6.6c-0.7-0.1-1.3-0.3-1.8-0.8c-0.6-0.6-0.6-1.4-0.7-2.2c-0.2-4.9-0.1-11.3,2-15.8
		c1.9-3.9,5.2-7.4,8.4-10.3c6.6-5.9,15-10.3,23.7-11.9c12.5-2.3,27.8,0.2,36.2,10.5c8.7,10.6,12.5,24.3,7.8,37.6
		c-1.8,5.3,2.6,6.1,6.8,6.2c3.9,0.1,6.8,0.6,9.3,4.1c1.3,1.9,1.9,4.5,0.5,6.3c-0.9,1.1-2.4,1.5-3.8,1.8
		C187.8,221.8,184.6,221.1,181.3,219.7"/>
	<path id="Fill-5" fill="#FFF000" d="M110.6,225.7c0.3-0.7,0.6-1.5,0.9-2.3c2.2-5.4,3.2-10.2,3.2-16.2c0-5.3,0.4-10.6,0-15.8
		c-0.1-1.7,0.1-5-1.1-6.3c-1.9-2-6.6-1.2-8.8-0.3c-3.3,1.3-5.9,3.9-8,6.7c-4.5,6.1-7,13.6-8,21.1c-0.9,6.7-4.9,30.2,7.3,29.8
		c3-0.1,5.7-1.9,7.8-4.1C107.6,234.5,108.9,230.3,110.6,225.7"/>
	<path id="Fill-7" fill="#4E91FF" d="M112.6,227.7c0.3-0.7,0.6-1.5,0.9-2.3c2.2-5.4,3.2-10.2,3.2-16.2c0-5.3,0.4-10.6,0-15.8
		c-0.1-1.7,0.1-5-1.1-6.3c-1.9-2-6.6-1.2-8.8-0.3c-3.3,1.3-5.9,3.9-8,6.7c-4.5,6.1-7,13.6-8,21.1c-0.9,6.7-4.9,30.2,7.3,29.8
		c3-0.1,5.7-1.9,7.8-4.1C109.6,236.5,110.9,232.3,112.6,227.7"/>
	<path id="Fill-9" fill="#4E91FF" d="M156.6,207.7c-1-4.2-2-8.4-2.7-12.7c-0.6-3.4-1.6-7.7,1.9-9.9c4-2.6,10.1-2.4,14.2-0.4
		c7.6,3.7,11.1,12.9,13.6,20.3c2.3,7.2,5.9,15.5,5.5,23.1c-0.2,3.8-1.9,7.7-5.3,9.6c-6.7,3.8-15.4,1-18.1-6c-1.4-3.6-3.3-6.5-5-9.9
		C158.5,217.5,157.8,212.5,156.6,207.7"/>
	<path id="Fill-11" fill="#4D4D4D" d="M154.5,211.8c-0.1-0.2-0.1-0.5-0.2-0.7c-0.7-3.2-2.9-11.4,0.4-13.8c1.7-1.2,5.9-1.2,7.9-1.2
		c2.5,0,5.1,0.4,7.3,1.7c2.8,1.6,4.7,4.4,6.5,7.1c2.6,4,5.2,8.1,7.6,12.2c1.9,3.3,5.3,7.4,5.6,11.3c0.4,5.8-2.1,12.9-8.5,14.2
		c-6.8,1.4-14.5,0.6-17.4-6.9c-1.7-4.4-4.6-8.2-6.2-12.6C156.2,219.5,155.4,215.6,154.5,211.8"/>
	<path id="Fill-13" fill="#FFF000" d="M108.2,218.7c0,2.5-0.1,5-0.1,7.4c0,3,0,6.1,1.3,8.7c2.3,4.4,7.7,6.2,12.6,6
		c5-0.2,10.7-3.3,15.5-2.8c4.9,0.6,9,3.4,14.4,3.3c3.3-0.1,6.8-0.8,8.9-3.2c1.9-2.2,2.3-5.2,2.5-8c0.6-8.6-1.8-15-3.4-23.2
		c-1.4-7.2-0.6-14.7-0.8-22.1c-0.1-5-0.8-10.5-2-15.4c-1.1-4.3-6-7.4-9.8-9.2c-4.3-2-9-2.9-13.6-3.5c-4-0.5-7.9-0.8-11.9-0.2
		c-2.3,0.4-4.9,0.2-7.2,0.8c-5.6,1.3-8.8,8.2-9,13.3c-0.2,5.6,2.2,10,4.5,14.8c1,2,0.5,4.3,0.4,6.6c-0.1,2.8-0.3,5.5-0.6,8.2
		c-0.4,3.4-0.9,6.7-1.5,10C108,213.1,108.2,215.8,108.2,218.7"/>
	<path id="Fill-15" fill="#4D4D4D" d="M113.6,221.8c-0.6,2.4-0.5,4.7-0.5,7.3c0,3,0,6.1,1.3,8.7c2.3,4.4,7.7,6.2,12.6,6
		c5-0.2,10.7-3.3,15.5-2.8c4.9,0.6,9,3.4,14.4,3.3c3.3-0.1,6.8-0.8,8.9-3.2c1.9-2.2,2.3-5.2,2.5-8c0.6-8.6-1.8-15-3.4-23.2
		c-1.4-7.2-0.6-14.7-0.8-22.1c-0.1-5-0.8-10.5-2-15.4c-1.1-4.3-6-7.4-9.8-9.2c-4.3-2-9-2.9-13.6-3.5c-4.9-0.7-10.1-1-14.8,0.5
		c-3.5,1.1-4.9,2.2-5.5,5.6c-0.8,3.8-0.7,7.6-0.3,11.5c0.5,4.7,1.6,9.3,1.8,14c0.3,6.6-0.9,13.1-2.7,19.3c-0.9,3.2-2,6.3-3.1,9.4
		C113.9,220.6,113.8,221.2,113.6,221.8"/>
	<path id="Fill-17" fill="#4E91FF" d="M111.2,218.7c0,2.5-0.1,5-0.1,7.4c0,3,0,6.1,1.3,8.7c2.3,4.4,7.7,6.2,12.6,6
		c5-0.2,10.7-3.3,15.5-2.8c4.9,0.6,9,3.4,14.4,3.3c2.9,0,7.4-0.6,9-3.5c4.1-7-0.7-16.2-0.5-23.7c0.1-4.4-0.8-8.5-1.1-12.9
		c-0.4-5.5,0-11-0.1-16.6c-0.1-5-0.8-10.5-2-15.4c-1.1-4.3-6-7.4-9.8-9.2c-4.3-2-9-2.9-13.6-3.5c-4.9-0.7-10.1-1-14.8,0.5
		c-5.5,1.7-7.8,7.2-8.4,12.6c-0.4,3.5-0.1,7.1,0.1,10.6c0.3,6.6,0.1,13.2-0.6,19.8c-0.4,3.4-0.9,6.7-1.5,10
		C111,213.1,111.2,215.8,111.2,218.7"/>
	<path id="Fill-19" fill="#4D4D4D" d="M130.8,224.2c4.2,1.2,8.7,1.6,13.1,1.3c0.8-0.1,1.2-1,0.7-1.7l-4.3-5c-0.5-0.6-1-1.2-1.7-1.4
		c-0.9-0.3-1.8,0.1-2.6,0.5c-2.2,1.1-4.1,2.7-5.7,4.7C129.9,223.2,130.2,224,130.8,224.2"/>
	<path id="Fill-21" fill="#4D4D4D" d="M132.3,163.8c0.4,5.4,0.2,10.7,0.2,16.1c0,3.6,1,7.7-0.4,11.2c-1.6,4-8.2,2.5-10.8,0.1
		c-2.3-2-4.4-4.8-6.1-7.3c-2.3-3.3-3.7-7-3.1-11.1c0.9-5.4,4.2-10.6,7-15.2c1.9-3.2,8.2-4.5,11.3-2.3c2.1,1.5,1.6,4.5,1.8,6.7
		C132.2,162.6,132.3,163.2,132.3,163.8"/>
	<path id="Fill-23" fill="#4E91FF" d="M128,156.1c1,1,1.2,2.6,1.2,4.1l0.8,26.3c0,1,0,2.1-0.5,3c-0.7,1.1-2.1,1.4-3.4,1.2
		c-1.3-0.2-2.4-0.8-3.5-1.5c-4.5-2.6-9.1-5.3-11.9-9.7c-3.1-4.9-3.3-11.4-0.4-16.4c2.8-5,8.5-8.3,14.3-8.2
		C125.8,155,127.2,155.2,128,156.1"/>
	<path id="Fill-25" fill="#4D4D4D" d="M117.6,215.6c-1-2.1-2.2-4.3-4.2-5.5c-5.6-3.1-8.7,2.4-12.2,5.7c-1.3,1.2-2.6,2.3-3.5,3.8
		c-1.4,2.5-2.1,5.5-3.5,8.1c-0.3,0.5-0.6,1-0.9,1.5c-0.3,0.5-0.7,1.2-0.4,1.7c0.2,0.4,0.7,0.6,1.2,0.6c1.4,0.2,2.5-0.1,3.5-0.6
		c1.6-0.2,3.2-0.9,4.5,0c1.6,1,1.5,3,1.9,4.6c0.9,3.8,2,7.8,4.2,11.1c2.3,3.4,6.2,4.4,10.2,4.2c4.5-0.3,7.5-3.9,8.3-8.1
		c1-4.7-1.6-8.9-3.2-13.1C121.7,224.9,119.9,220.2,117.6,215.6"/>
	<path id="Fill-27" fill="#4E91FF" d="M97.6,217.1c1.8-2,3.6-4.1,5.9-5.4c2.3-1.3,5.3-1.8,7.7-0.5c2.1,1.1,3.2,3.4,4.2,5.5
		c3,6.3,4.9,13.4,7.7,19.8c1.1,2.5,1.9,4.7,0.5,7.4c-1.2,2.4-4,4-6.7,4c-2.6,0-5.7-1-7.5-2.9c-3.1-3.5-3-9.9-4.8-14.1
		c-0.4-1-1-2.2-2.1-2.6c-0.9-0.3-1.9-0.1-2.7,0.5c-2.6,1.9-4.3,4.3-8,3.9c-0.5-0.1-1-0.2-1.2-0.6c-0.3-0.5,0.1-1.2,0.4-1.7
		c1.9-3.1,2.9-6.3,4.2-9.7c0.9-2.4,2.6-4.3,3.5-6.7"/>
	<path id="Fill-29" fill="#4D4D4D" d="M147,193.4c-3.6-0.8-5.4-5.3-6.1-8.4c-0.9-4.5-1.4-9.2-0.4-13.7c0.7-3.3,2.6-6.4,5.5-8
		c1.9-1,4-0.6,5.8-1.8c1.9-1.3,3.6-2.1,5.9-1.5c5,1.1,7.4,6,8.1,10.6c0.9,5.5-4.1,10.7-7.7,14.4c-2.2,2.2-4.2,4.5-6.5,6.6
		c-0.6,0.5-1.2,1.1-1.9,1.4C148.7,193.5,147.8,193.6,147,193.4"/>
	<path id="Fill-31" fill="#4E91FF" d="M148.3,190.6c-1.3,0.1-2.6-0.6-3.4-1.7c-0.8-1.1-1.1-2.4-1.4-3.7c-1.6-6.9-1.5-14.2,0.3-21
		c0.6-2.3,1.6-7.5,4.5-8.1c3.5-0.7,9.4,4.2,11.4,6.7c4.9,6.1,5.3,12.7-0.3,18.1c-2.6,2.5-5.2,5.1-7.9,7.6
		C150.6,189.6,149.6,190.5,148.3,190.6"/>
	<path id="Fill-33" fill="#4D4D4D" d="M166.6,216.2c0-0.4,0.1-0.8,0.1-1.2c-1.1,0.2-2-0.1-3,0.4c-1.2,0.6-2.2,1.8-3,2.8
		c-1.4,1.6-2.1,2.8-4.2,3.3c-2.5,0.6-5.1,1.5-7.5,2.4c-1.6,0.6-3.3,1.3-4.3,2.7c-1.7,2.4-0.6,6.3,1.7,8c2.5,1.8,6.5,2.8,9.7,2.3
		c3-0.5,4.9-3.2,6.5-5.7C165.2,226.8,166.1,221.4,166.6,216.2"/>
	<path id="Fill-35" fill="#FFF000" d="M159.6,223.8c1.9-3.7,3.1-7.4,5.8-10.8c1.3-1.6,2.8-3.1,3.7-4.9c1.3-2.8,0-5.3-2-7.4
		c-1.7-1.8-4.5-1.9-6.8-1.2c-4.7,1.4-8.3,5.2-10.5,9.5c-1.1,2.2-2.7,4.1-3.7,6.5c-1.1,2.6-1.8,5.3-2.3,8c-0.2,0.9-0.3,1.9-0.2,2.8
		c0.2,1.6,1.8,3.8,2.8,5.1c2.9,3.7,8,1.7,10-1.7C157.7,227.7,158.6,225.7,159.6,223.8"/>
	<path id="Fill-37" fill="#4E91FF" d="M166.7,219.4c0.1,0.5,0.2,1.1,0.2,1.5c0.5,4.5,1.5,9,3.1,13.2c1.1,2.8,2.9,5.9,5.8,6.2
		c2.6,0.3,4.8-1.8,6.7-3.6c1.4-1.4,2.9-3,3.2-5c0.4-2.2-0.6-4.3-1.6-6.3c-3.3-6.6-6.3-13.5-10.1-19.8c-1.5-2.5-3.5-5.1-6.3-5.8
		c-2-0.5-4.2,0-6,1c-7.6,4.2-11.7,12.4-15.1,20c-1,2.3-2.1,5.9-1.4,8.3c0.4,1.4,1.5,2.6,2.8,3.5c3,2.1,6.8,2.4,9.6-0.3
		c2.9-2.8,3.7-6.6,5.3-10.2c0.4-1,0.9-2.7,1.7-3.4C165.9,217.7,166.4,218.4,166.7,219.4"/>
	<path id="Fill-39" fill="#4D4D4D" d="M126.5,203.5c0.7-1.3,1-2.7,1-4.2c0-0.5-0.1-1.2-0.7-1.3c-0.5-0.1-0.9,0.3-1.2,0.8
		c-1,1.6-1.5,3.6-1.3,5.5c0.2,0.4,0.8,0.6,1.2,0.4C126,204.3,126.3,203.9,126.5,203.5"/>
	<path id="Fill-41" fill="#4D4D4D" d="M147.6,199.7c-0.2-0.9-0.5-1.9-1.1-2.6c-0.2-0.2-0.5-0.5-0.8-0.5c-0.6,0-0.8,0.8-0.8,1.4
		c-0.1,1.4-0.1,2.7-0.2,4.1c0,0.5-0.1,1,0.1,1.5c0.2,0.5,0.5,0.9,1,1c0.9,0.1,1.5-0.9,1.7-1.7C147.8,201.8,147.8,200.7,147.6,199.7"
		/>
	<path id="Fill-43" fill="#4E91FF" d="M167,150.5c-1.8-0.4-2.2-2.9-0.5-3.7c4.7-2.4,10.4-2.8,15.4-1.1c6.6,2.3,11.7,8,13.5,14.7
		c1,3.9,1,8,0,11.9c-0.5,2-3.4,1.9-3.9-0.1c-1.1-5-3.9-9.7-7.7-13.2C179.1,154.6,173.2,151.9,167,150.5"/>
</g>
<g id="tremble">
	<path id="Fill-45" fill="#E6E6E6" d="M91,185.1c-1.9,0.2-3.6,0.5-5.4,1c-0.5,0.2-1.2,0.5-1.1,1.2c0.3,1.5,0.7,2.7,1.6,3.8
		c-1.4,0.2-3.1,0.6-3.5,1.6c-0.6,1.2,0.7,2.8,1.6,4c-1.5,0.6-2.9,1.3-4.2,2.3c-0.5,0.3-0.7,0.8-0.2,1.2c1.5,1.2,3,2.3,2.8,4.5
		c-0.1,1.3,2.6,0.8,2.6-0.2c0.2-2.2-1-3.7-2.6-5c1.1-0.7,2.3-1.2,3.7-1.6c0.5-0.2,1.4-0.7,1-1.4c-0.5-0.8-1.5-1.7-1.3-2.7
		c0.2-1.1,1.3-1,2.5-1.3c0.4-0.1,1.6-0.8,1-1.4c-1.1-1.1-1.7-2.2-2.1-3.6c1.1-0.3,2.2-0.5,3.4-0.6C92.2,186.7,92.8,184.9,91,185.1"
		/>
	<path id="Fill-47" fill="#E6E6E6" d="M207,166.6c-0.8-0.4-2.1-0.6-2.9-1.1c-1.6-1.1-0.3-2.5,0.6-3.9c0.2-0.4,0-0.7-0.4-0.7
		c-2.7-0.4-4-3.1-3.1-5.5c0.3-0.9-2.3-0.5-2.6,0.3c-1.1,2.9,0.5,5.7,3.3,6.5c-0.7,1.3-1.2,2.5-1.6,3.9c-0.1,0.3,0.3,0.5,0.5,0.5
		c1.7,0.3,3.5,0.2,3.1,2.2c-0.2,1.2-1.2,2.6-1.8,3.7c-0.5,1.1,2.1,0.8,2.4,0.1c0.8-1.8,1.7-3.5,2.5-5.3
		C207.4,167,207.4,166.7,207,166.6"/>
	<path id="Fill-49" fill="#E6E6E6" d="M197.3,211.4c-1-0.5-4.1-1.9-3.9-3.4c0.1-0.8,3.2-2.4,3.9-2.8c0.4-0.2,0.7-0.8,0.2-1.1
		c-0.9-0.5-5-1.8-5.4-2.5c-0.7-1.3,0.5-2.3,1.3-3.5c0.7-1.1-1.9-0.9-2.5-0.1c-0.8,1.2-1.7,2.5-2.5,3.7c-0.3,0.4,0.1,0.7,0.4,0.8
		c2,0.7,3.8,1.5,5.7,2.4c-1.6,0.9-3.9,2.4-4.1,3.7c-0.3,2,2.2,2.9,4,3.7c-1.7,1.3-3.5,3.1-2.6,5.3c0.4,1,1.4,1.4,1.7,2.2
		c0.6,1.6-0.2,5-0.1,6.9c0,0.9,2.7,0.4,2.6-0.7c-0.1-2.6,0-4.9,0.4-7.5c0.1-0.3-0.2-0.6-0.5-0.6c-2.9-0.5,0-4.7,1.2-5.5
		C197.4,212.3,197.8,211.8,197.3,211.4"/>
</g>
<g id="left_hand">
	<path id="Fill-51" fill="#FFFFFF" d="M14.6,201.1c0.1-1.7,0.4-3.4,0.7-5c2.1-10.1,6.1-17.7,14.7-23.3c6-3.9,13.2-5.6,20.2-6.8
		c4.6-0.8,10.3-2.4,11-7.1c0.4-3.3-2.3-6.3-5.5-7.2c-3.2-0.9-6.6-0.3-9.7,0.5c-15.5,4-30.4,12.8-39,26.3
		c-8.6,13.5-9.8,32.2-0.7,45.3c2,2.8,4.6,5.5,8.1,6.1c7.9,1.3,9.3-7.9,5.8-13.1c-0.8-1.2-1.8-2.2-2.7-3.4
		C15,209.9,14.3,205.5,14.6,201.1"/>
	<defs>
		<filter id="Adobe_OpacityMaskFilter" filterUnits="userSpaceOnUse" x="16.3" y="246.7" width="19.9" height="36.6">
			<feColorMatrix  type="matrix" values="1 0 0 0 0  0 1 0 0 0  0 0 1 0 0  0 0 0 1 0"/>
		</filter>
	</defs>
	<mask maskUnits="userSpaceOnUse" x="16.3" y="246.7" width="19.9" height="36.6" id="mask-2">
		<g filter="url(#Adobe_OpacityMaskFilter)">
			<polygon id="path-1" fill="#FFFFFF" points="16.3,283.2 36.2,283.2 36.2,246.7 16.3,246.7 			"/>
		</g>
	</mask>
	<path id="Fill-53" mask="url(#mask-2)" fill="#4D4D4D" d="M23.7,282.7c-0.1,0-0.2-0.1-0.3-0.2c-3.4-1.7-5-5.3-5.1-8.9
		c-0.1-4.6-1.1-9.4-1.7-14c-0.5-3.9-0.7-8.4,2.1-11.2c1.4-1.3,3.3-2,5.2-1.7c0.5,0.1,1.1,0.2,1.5,0.6c0.5,0.4,0.7,1.1,1,1.7
		c3.1,8.6,6.1,17.2,9.2,25.8c0.5,1.3,0.9,2.8,0.3,4c-0.4,0.8-1.2,1.4-1.9,1.8C31,282.5,27.1,284.2,23.7,282.7"/>
	<path id="Fill-56" fill="#FF6496" d="M26.4,282.5c-0.1,0-0.2-0.1-0.3-0.2c-3.4-1.7-5-5.3-5.1-8.9c-0.1-4.6-1.1-9.4-1.7-14
		c-0.5-3.9-0.7-8.4,2.1-11.2c1.4-1.3,3.3-2,5.2-1.7c0.5,0.1,1.1,0.2,1.5,0.6c0.5,0.4,0.7,1.1,1,1.7c3.1,8.6,6.1,17.2,9.2,25.8
		c0.5,1.3,0.9,2.8,0.3,4c-0.4,0.8-1.2,1.4-1.9,1.8C33.7,282.3,29.8,284,26.4,282.5"/>
	<path id="Fill-58" fill="#4D4D4D" d="M50.6,276c-0.7,1-1.9,1.5-3.1,1.9c-2,0.7-4,1.4-6,1.5c-2.1,0.1-4.3-0.5-5.7-2
		c-0.6-0.6-1-1.4-1.3-2.1c-3.7-7.3-6-15.3-6.6-23.5c1.4-0.9,2.8-1.9,4.4-2.4c1.6-0.5,3.4-0.6,4.9,0.2c1.7,1,2.6,2.9,3.5,4.7
		c2.4,5.1,5.2,10,8.4,14.7C50.5,271.1,52,273.9,50.6,276"/>
	<path id="Fill-60" fill="#FF6496" d="M53.5,274.8c-0.7,1-1.9,1.5-3.1,1.9c-2,0.7-4,1.4-6,1.5c-2.1,0.1-4.3-0.5-5.7-2
		c-0.6-0.6-1-1.4-1.3-2.1c-3.7-7.3-6-15.3-6.6-23.5c1.4-0.9,2.8-1.9,4.4-2.4c1.6-0.5,3.4-0.6,4.9,0.2c1.7,1,2.6,2.9,3.5,4.7
		c2.4,5.1,5.2,10,8.4,14.7C53.4,270,55,272.8,53.5,274.8"/>
	<path id="Fill-62" fill="#4D4D4D" d="M58.1,238.7c-4.5-1.7-9.4-2.3-14.2-1.8c-1.4,0.2-2.8,0.4-4.1,0.2c-3.7-0.7-5.7-5.2-5.2-8.9
		c0.1-0.9,0.3-1.8,0.8-2.6c1.6-3,5.6-3.6,9-3.9c6.7-0.5,14-0.9,19.5,2.9c1.5,1,2.9,2.4,3.3,4.2c0.5,2-0.4,4.1-1.2,6.1
		c-0.9,2.1-2.3,4.4-4.5,4.6C60.4,239.6,59.2,239.1,58.1,238.7"/>
	<path id="Fill-64" fill="#FF6496" d="M59.9,236.2c-4.5-1.7-9.4-2.3-14.2-1.8c-1.4,0.2-2.8,0.4-4.1,0.2c-3.7-0.7-5.7-5.2-5.2-8.9
		c0.1-0.9,0.3-1.8,0.8-2.6c1.6-3,5.6-3.6,9-3.9c6.7-0.5,14-0.9,19.5,2.9c1.5,1,2.9,2.4,3.3,4.2c0.5,2-0.4,4.1-1.2,6.1
		c-0.9,2.1-2.3,4.4-4.5,4.6C62.1,237.1,61,236.6,59.9,236.2"/>
	<path id="Fill-66" fill="#4D4D4D" d="M63.5,267.7c-3,2.2-6.8,4.6-10.3,3.1c-1.1-0.5-2.1-1.4-2.9-2.3c-6.6-6.9-11.1-15.5-15-24.2
		c-0.2-0.4-0.3-0.8-0.2-1.2c0.1-0.3,0.4-0.6,0.7-0.8c1.6-1.1,3.1-2.1,4.7-3.2c0.3-0.2,0.6-0.4,1-0.4c0.6,0,1,0.5,1.4,0.9
		c6.2,7.4,16,10.8,22.7,17.7c1,1,2,2.2,2.2,3.6C68.3,263.7,65.8,266,63.5,267.7"/>
	<path id="Fill-68" fill="#FF6496" d="M66.3,266.6c-3,2.2-6.8,4.6-10.3,3.1c-1.1-0.5-2.1-1.4-2.9-2.3c-6.6-6.9-11.1-15.5-15-24.2
		c-0.2-0.4-0.3-0.8-0.2-1.2c0.1-0.3,0.4-0.6,0.7-0.8c1.6-1.1,3.1-2.1,4.7-3.2c0.3-0.2,0.6-0.4,1-0.4c0.6,0,1,0.5,1.4,0.9
		c6.2,7.4,16,10.8,22.7,17.7c1,1,2,2.2,2.2,3.6C71.2,262.6,68.6,264.9,66.3,266.6"/>
	<path id="Fill-70" fill="#4D4D4D" d="M47.9,243.5c-3.1,5.5-9,8.8-15,10.9c-5.2,1.8-11.4,2.8-15.9-0.4c-1.1-0.8-2-1.8-2.8-2.9
		c-2.3-3.3-3.2-7.6-2.5-11.5c0.4-2.1,1.2-4,2.2-5.9c3.5-6.9,9.3-13.3,16.9-14.5c6.1-1,12.6,1.8,16.2,6.9
		C50.6,231,50.9,238.1,47.9,243.5"/>
	<path id="Fill-72" fill="#FF6496" d="M45.1,241c-3.1,5.5-9,8.8-15,10.9c-5.2,1.8-11.4,2.8-15.9-0.4c-1.1-0.8-2-1.8-2.8-2.9
		c-2.3-3.3-3.2-7.6-2.5-11.5c0.4-2.1,1.2-4,2.2-5.9c3.5-6.9,9.3-13.3,16.9-14.5c6.1-1,12.6,1.8,16.2,6.9
		C47.7,228.5,48.1,235.6,45.1,241"/>
	<path id="Fill-74" fill="#FF6496" d="M26.5,208.9c-1.3-0.6-2.9-0.6-4.6,0.1c-3.1,1.3-5.9,3.9-8.3,6.2c-3.5,3.5-7,7-10.6,10.4
		c-2.9,2.9-2.1,5.3,0,7.7c1.8,2.2,5.2,1,7.9-0.5c1.2-0.7,2.3-1.5,3.4-2.4c4.4-3.6,9.3-6.3,12.7-10.9c1.2-1.6,2.1-3.3,2.3-5.4
		C29.5,211.7,28.3,209.7,26.5,208.9"/>
</g>
<g id="right_hand">
	<path id="Fill-76" fill="#4D4D4D" d="M236.1,200.2c2.6-2.9,7.4-3,10.8-1.2c3.5,1.8,5.8,5.2,7.7,8.6c2.3,4.1,4,8.7,4.2,13.4
		c0.2,4.7-1.2,9.6-4.5,13c-1.5,1.5-3.4,2.7-5.2,3.9c-1.5,0.9-3.3,1.9-4.9,1.1c1.8-3.3,1.8-7.3,0.8-10.9c-1.1-3.6-3.1-6.8-5.2-9.9
		c-1.9-2.7-4-5.4-5.1-8.6C233.6,206.4,233.8,202.6,236.1,200.2"/>
	<path id="Fill-78" fill="#FF6496" d="M239.7,199.3c2.6-2.9,7.4-3,10.8-1.2c3.5,1.8,5.8,5.2,7.7,8.6c2.3,4.1,4,8.7,4.2,13.4
		c0.2,4.7-1.2,9.6-4.5,13c-1.5,1.5-3.4,2.7-5.2,3.9c-1.5,0.9-3.3,1.9-4.9,1.1c1.8-3.3,1.8-7.3,0.8-10.9c-1.1-3.6-3.1-6.8-5.2-9.9
		c-1.9-2.7-4-5.4-5.1-8.6C237.2,205.5,237.4,201.7,239.7,199.3"/>
	<path id="Fill-80" fill="#4D4D4D" d="M254,201.4c2.5-2.2,6.3-3,9.5-1.6c2.4,1,4.2,3.2,5.3,5.5c1.1,2.4,1.5,5,1.8,7.6
		c1,8.9,1.1,18.8-3.6,26.7c-2.6,4.4-7,8.2-12.2,8.6c-1.1,0.1-2.3,0-3.2-0.5c-1.5-0.9-2.1-2.8-1.9-4.5c0.2-1.7,0.9-3.3,1.5-4.9
		c1.9-5,2.6-10.4,1.9-15.7c-0.7-5.4-2.7-10.8-2-16.2C251.5,204.3,252.6,202.6,254,201.4"/>
	<path id="Fill-82" fill="#FF6496" d="M257.6,202.3c2.5-2.2,6.3-3,9.5-1.6c2.4,1,4.2,3.2,5.3,5.5c1.1,2.4,1.5,5,1.8,7.6
		c1,8.9,1.1,18.8-3.6,26.7c-2.6,4.4-7,8.2-12.2,8.6c-1.1,0.1-2.3,0-3.2-0.5c-1.5-0.9-2.1-2.8-1.9-4.5c0.2-1.7,0.9-3.3,1.5-4.9
		c1.9-5,2.6-10.4,1.9-15.7c-0.7-5.4-2.7-10.8-2-16.2C255.1,205.2,256.2,203.5,257.6,202.3"/>
	<path id="Fill-84" fill="#4D4D4D" d="M263.5,265.8c-0.4,0.7-0.7,1.3-1.2,2c-3,4.6-22.5,12.6-25.4,5.5c3.9-2,7.8-2.6,10.3-6.9
		c4.5-7.7,1.9-18.2-5.9-22.5c-2.2-1.2-4.6-2.5-7.1-2c-2.3,0.5-4,2.3-5.8,3.9c-1.7,1.6-4.1,3.1-6.3,2.4c-6.9-1.9,1.5-12.3,4-14.7
		c3-2.8,7.1-4.2,11.2-4.9c5.1-0.8,10.5-0.6,15.3,1.4c9,3.7,12.4,11.4,13.4,20.8C266.6,255.9,265.9,261.2,263.5,265.8"/>
	<path id="Fill-86" fill="#4D4D4D" d="M253.1,268.6c0.1,0.8,0.1,1.6,0,2.4c-0.2,1.3-0.6,2.8-1.7,3.6c-2.1,1.6-6.5,1.5-9,1.5
		c-7.9-0.1-16.7-2.2-20.1-9.9c-0.6-1.3-1.1-2.8-1-4.2c0.1-1.9,1.2-3.5,2.7-4.7c1.5-1.1,3.3-1.8,5.1-2.2c2.1-0.5,4.5-0.8,6.3,0.5
		c1,0.7,1.6,1.9,2.2,3c1.5,2.8,2.5,5,5.7,5.7c2.9,0.6,6.4-0.7,8.7,1.7C252.5,266.8,252.9,267.7,253.1,268.6"/>
	<path id="Fill-88" fill="#FF6496" d="M261.1,268.2c-0.4,0.7-0.7,1.3-1.2,2c-4.3,6.5-15.6,7.7-22.6,7.7c-7.9-0.1-16.7-2.2-20.1-9.9
		c-0.6-1.3-1.1-2.8-1-4.2c0.1-1.9,1.2-3.5,2.7-4.7c1.5-1.1,3.3-1.8,5.1-2.2c2.1-0.5,4.5-0.8,6.3,0.5c1,0.7,1.6,1.9,2.2,3
		c2.1,4,3.3,7,8.3,4.9c2.7-1.1,5-3.3,5.9-6.1c0.8-2.6,0.4-6.9-0.8-9.3c-0.7-1.4-1.8-2.5-3.1-3.5c-0.5-0.4-1.1-0.8-1.8-1
		c-0.9-0.4-2-0.4-3-0.3c-0.7,0-1.4,0.1-2,0.3c-2.5,1-4.2,4.8-6.3,6.5c-1,0.8-2.3,1-3.6,1.1c-3.8,0.3-9.9,2.5-10.1-3.2
		c-0.1-3.3,2.2-8,4.3-10.6c3.6-4.3,8.9-7.1,14.5-8c5.1-0.8,10.5-0.6,15.3,1.4c9,3.7,12.4,11.4,13.4,20.8
		C264.1,258.4,263.4,263.7,261.1,268.2"/>
</g>
<g id="adoption">
	<path id="Fill-90" fill="#4D4D4D" d="M126.1,23c50.2-34.9,120-8.9,145.8,43.7c19.3,39.4,12.8,82.4-3.9,121.5
		c-17.3-1.9-37.2-0.2-46.1-17.7c-2.1-4.1-4.2-8.3-6.2-12.4c-2.6-5.2-5.3-10.5-9.5-14.6c-2.7-2.6-5.9-4.7-9.1-6.5
		c-7.5-4.2-16.1-7.7-24.6-6.1c-9.9,1.8-17.5,9.8-27.2,12.5c-6.5,1.8-13.3,1.2-20,1.6c-9.2,0.6-18.1,3.4-26.8,6.4
		c-7.1,2.5-15,7.7-22.5,8.2c-6.2-25.9-5.9-51.4,3.1-76.5c4.6-12.7,11.2-24.7,19.7-35.2C105.7,39.4,115.2,30.6,126.1,23"/>
	<path id="Fill-92" fill="#FFFFFF" d="M262.5,96.9c0-0.3-0.1-0.7-0.3-0.9c-0.2-0.2-0.5-0.2-0.7-0.3c-11.8-2.3-24-3-36-1.9
		c-0.6,0.1-1.3,0.1-1.7,0.6c-0.3,0.4-0.4,0.9-0.5,1.4c-1.7,13-2.7,26.2-3.1,39.3c9.7,1.7,19.4,3.2,29.2,4.5c1.4,0.2,2.9,0.4,4.2-0.1
		c2.2-0.9,3.3-3.3,4.1-5.6C261.8,122,263.5,109.4,262.5,96.9"/>
	<path id="Fill-94" fill="#FFFFFF" d="M240.8,88.5c0,4.2-0.6,8.2-1.8,12.2c-0.2,0.6,2.4,0.3,2.6-0.4c1.3-4.1,1.9-8.2,1.8-12.4
		C243.4,87.3,240.8,87.7,240.8,88.5"/>
	<path id="Fill-96" fill="#FFFFFF" d="M247.6,89.6c-0.7,2.4-1.4,4.8-2.1,7.2c-0.3,1,2.3,0.7,2.6-0.3c0.7-2.4,1.4-4.8,2.1-7.2
		C250.5,88.3,247.9,88.6,247.6,89.6"/>
	<path id="Fill-98" fill="#FFFFFF" d="M256.4,118.5c3.5-0.5,6.9-0.1,10.2,1.4c0.8,0.4,3.2-0.8,2.1-1.3c-3.8-1.7-7.8-2.3-11.9-1.6
		C255.4,117.2,254.6,118.8,256.4,118.5"/>
	<path id="Fill-100" fill="#FFFFFF" d="M254.4,123.4c2.7,0.4,5.4,0.9,8.1,1.3c1.3,0.2,2.7-1.6,0.9-1.8c-2.7-0.4-5.4-0.9-8.1-1.3
		C254.1,121.3,252.7,123.1,254.4,123.4"/>
	<path id="Fill-102" fill="#FFFFFF" d="M216.8,121.5c2.9-0.1,5.8,0.2,8.6,0.9c1.4,0.3,2.6-1.6,0.9-2c-3.1-0.7-6.1-1-9.3-0.9
		C215.5,119.5,215.1,121.5,216.8,121.5"/>
	<path id="Fill-104" fill="#FF6496" d="M241.9,111.9c-0.5-2,6.8-4,8.1-4.1c3.1-0.3,8.7,1.4,5.8,5.3c-1.3,1.7-3.1,2.8-4.8,4
		c-2.7,1.8-5.3,3.8-7.7,5.9c-0.9,0.8-4.2,5.2-5.2,5.3c-0.9,0.1-1.3-1.1-1.5-1.9c-1-5.1-5.5-7.9-7.1-12.7c-0.6-1.6-0.7-3.4-0.7-5.1
		c0-1.3,0.1-2.7,0.7-3.8s1.7-2.2,3-2.2c1.5-0.1,2.9,1,4,2.1C238.8,106.7,241.2,108.9,241.9,111.9"/>
	<path id="Fill-106" fill="#FFF000" d="M112.2,101.7c-4-6.5-2.4-14.7-3.1-22.4c-0.1-0.9,0.9-1.6,1.7-1.2c3.2,1.7,7,2.1,10.7,2.4
		c10.7,1,21.6,1.9,32.3,0.8c10.1-1.1,20.2-4,28.5-9.9c0.7-0.5,1.7-0.1,1.9,0.8c1.7,10.7,0.3,21.9-4,31.9c-0.8,1.8-1.8,3.7-3.3,5
		c-1.5,1.2-3.5,1.7-5.4,2.1c-15.7,3.5-32.5,5-47.4-0.9C119.4,108.6,114.8,105.9,112.2,101.7"/>
	<path id="Fill-108" fill="#4D4D4D" d="M121.4,95.3c6.6,1.4,13,1.9,19.6,3c0.1,0,0.2,0,0.3,0.1c0.2,0.2,0.2,0.5,0,0.7
		c-0.2,0.2-0.4,0.2-0.7,0.3c-5.5,1.1-11.4,0.2-17-0.4c-3.1-0.4-6.2-0.9-9.2-1.7c-1.4-0.4-8.2-1.6-8.8-3c-1.1-2.6,0.4-6,3.1-7
		c-0.6,1,0.1,2.3,1,3.1C112.7,93.4,117.2,94.4,121.4,95.3"/>
	<path id="Fill-110" fill="#4D4D4D" d="M169.6,96.5c-0.6,1.1-1.8,1.7-2.9,1.9c-1.2,0.3-2.4,0.3-3.6,0.5c-0.6,0.1-1.2,0.3-1.8,0.5
		c-3.5,0.9-7.2,0.9-10.9,0.9c-0.1-0.8,0.5-1.5,1.2-1.9c0.7-0.4,1.5-0.5,2.3-0.6l11.4-1.6C166.8,95.8,168.4,95.7,169.6,96.5"/>
	<path id="Fill-112" fill="#4D4D4D" d="M179.5,96.9c1.5-0.2,3-0.3,4.4-0.8c1.4-0.5,2.8-1.3,3.6-2.5c0.4-0.5,0.6-1.1,0.6-1.7
		c0-0.6-0.4-1.3-1.1-1.4c-0.5-0.1-1.2,0-1.3-0.5c-1.6,2-3.8,3.5-6.3,4.3c-1.4,0.4-3,0.6-3.9,1.8c-0.1,0.1-0.1,0.2-0.1,0.4
		c0,0.1,0.2,0.2,0.3,0.3C176.9,97.2,178.2,97,179.5,96.9"/>
	<path id="Fill-114" fill="#4D4D4D" d="M127.4,105.5c-0.4-2.5-0.3-5.1-0.2-7.6c0.1-1.6,0.2-3.3,0.7-4.8c0.3-0.8,0.7-1.5,1.4-1.9
		c0.8,3.6,0.8,7.5,0,11.1C129,103.5,128.5,104.9,127.4,105.5"/>
	<path id="Fill-116" fill="#4D4D4D" d="M162.6,100.9c-0.1-1.3-0.1-2.6,0-3.9c0-1.2,0.2-2.5,0.5-3.7c0.1-0.4,1-2.9,0.9-3
		c0.7,0.9,0.8,2.1,0.9,3.2c0.2,3.2,0,6.4-0.5,9.5c-0.1,0.3-0.1,1.5-0.7,1.2c-0.2-0.1-0.3-0.3-0.4-0.5
		C162.9,102.7,162.7,101.8,162.6,100.9"/>
	<path id="Fill-118" fill="#FFF000" d="M113.7,54.6c4.3-2.6,10.2-2.1,14,1c3.9,3.2,5.4,8.9,3.6,13.6C127.3,62.6,121,57.3,113.7,54.6
		"/>
	<path id="Fill-120" fill="#FFF000" d="M172.5,53.7c-6.7,3.2-12.6,8.1-16.9,14.2c-2.1-4.2-0.3-9.6,3.5-12.4
		C162.8,52.7,168,52.4,172.5,53.7"/>
	<path id="Fill-122" fill="#4D4D4D" d="M125,27c-5.2-5.2-7.6-13.1-6.2-20.4c-5.8,2.1-10.1,7.7-10.8,13.8c-0.6,6.1,2.5,12.5,7.7,15.7
		"/>
	<defs>
		<filter id="Adobe_OpacityMaskFilter_1_" filterUnits="userSpaceOnUse" x="219.3" y="-0.1" width="22.2" height="34.9">
			<feColorMatrix  type="matrix" values="1 0 0 0 0  0 1 0 0 0  0 0 1 0 0  0 0 0 1 0"/>
		</filter>
	</defs>
	<mask maskUnits="userSpaceOnUse" x="219.3" y="-0.1" width="22.2" height="34.9" id="mask-4">
		<g filter="url(#Adobe_OpacityMaskFilter_1_)">
			<polygon id="path-3" fill="#FFFFFF" points="241.5,-0.1 219.3,-0.1 219.3,34.8 241.5,34.8 			"/>
		</g>
	</mask>
	<path id="Fill-124" mask="url(#mask-4)" fill="#4D4D4D" d="M219.3,20.7c6.5-5.6,10.6-13,11.7-20.8c5.6,4.6,9.3,10.7,10.2,17
		c1,6.3-0.8,12.7-4.9,17.8"/>
</g>
</svg>
