<?xml version="1.0" encoding="UTF-8" standalone="no"?>
<!DOCTYPE svg PUBLIC "-//W3C//DTD SVG 1.1//EN" "http://www.w3.org/Graphics/SVG/1.1/DTD/svg11.dtd">
<svg width="100%" height="100%" viewBox="0 0 310 297" version="1.1" xmlns="http://www.w3.org/2000/svg" xmlns:xlink="http://www.w3.org/1999/xlink" xml:space="preserve" style="fill-rule:evenodd;clip-rule:evenodd;stroke-linejoin:round;stroke-miterlimit:1.41421;">
    <g id="ps-dog-2" transform="matrix(1,0,0,1,54.973,-1.05431)">
        <path id="Fill-1" d="M144.3,116.6C145.9,127.2 141.6,138.5 133.2,145.2C131.6,146.5 129.8,147.8 129.5,149.8C129.4,150.8 129.7,151.9 130,152.8C132,158.1 135.7,162.8 136.5,168.4C137.5,175.9 133.1,182.9 128.8,189.2C125.5,194 122.2,198.9 118.9,203.7C118.3,204.6 117.4,205.6 116.3,205.5C115.5,205.4 114.9,204.7 114.4,204.1C112.7,202 111,199.9 109.3,197.9C108.2,196.6 107.1,195 107.5,193.3C107.7,192.3 108.5,191.6 109.2,190.9C112.6,187.8 116.8,185.6 120.2,182.5C123.6,179.4 126.3,174.8 125.3,170.2C124.5,166.5 121.4,163.8 119.6,160.4C114.4,151 119.5,139.3 118.4,128.5C117.6,120.1 113.1,110.7 118.1,103.9C121.7,98.9 129.5,98.1 134.8,101.2C140.2,104.5 143.3,110.5 144.3,116.6" style="fill:rgb(77,77,77);fill-rule:nonzero;"/>
        <path id="Fill-3" d="M138.9,203.9C135.4,209.1 131,213.7 128.9,219.5C127.2,224.3 127.2,229.4 127.2,234.5C127.2,241.7 127.2,249 127.2,256.2C127.2,260.9 127.1,266 124.4,269.9C121.7,273.8 115.3,275.5 112,272.1C118.8,254.9 117.4,235.8 115.9,217.4C115.1,206.8 114.2,196.2 113.4,185.6C112.9,178.8 112.3,171.7 114.5,165.2C116.6,158.7 122.2,152.7 129.1,152.1C135.3,151.6 141.4,155.5 144.5,160.8C147.6,166.1 148.3,172.5 147.8,178.6C147,187.6 143.9,196.4 138.9,203.9" style="fill:rgb(77,77,77);fill-rule:nonzero;"/>
        <path id="Fill-5" d="M135.9,98.8C135.9,92.1 134.4,82.4 127.9,78.7C125.3,77.2 122.3,76.7 119.7,75.1C116,72.9 113,69.4 108.7,68.2C104.5,67 99.8,68.4 96.5,71.1C93.2,73.9 91.2,77.8 90,81.8C87.3,90.8 83,100.1 83.8,109.3C84.7,119.8 88.2,130 88.8,140.6C89.7,156.3 84.3,171.8 83.5,187.6C83.3,190.7 83.4,193.8 84.4,196.7C85.3,199.3 87,201.6 88.7,203.8C90.3,205.9 91.8,208 93.4,210.1C94.6,211.7 95.8,213.3 97.6,214.3C102.6,217.1 108.9,213.6 113.5,210.2C122.2,203.8 130.9,197.3 137.5,189C144.1,180.7 148.4,170.2 146.9,159.8C145.8,152.8 142.2,146.4 140,139.6C135.7,126.4 136.8,112.4 135.9,98.8" style="fill:rgb(78,145,255);fill-rule:nonzero;"/>
        <path id="Fill-7" d="M118.8,225.8C115.3,231 110.9,235.6 108.8,241.4C107.1,246.2 107.1,251.3 107.1,256.4C107.1,263.6 107.1,270.9 107.1,278.1C107.1,282.8 107,287.9 104.3,291.8C101.6,295.7 95.2,297.4 91.9,294C98.7,276.8 97.3,257.7 95.8,239.3C95,228.7 94.1,218.1 93.3,207.5C92.8,200.7 92.2,193.6 94.4,187.1C96.5,180.6 102.1,174.6 109,174C115.2,173.5 121.3,177.4 124.4,182.7C127.5,188 128.2,194.4 127.7,200.5C126.9,209.5 123.8,218.3 118.8,225.8" style="fill:rgb(77,77,77);fill-rule:nonzero;"/>
        <path id="Fill-9" d="M113.7,226.9C110.2,232.1 105.8,236.7 103.7,242.5C102,247.3 102,252.4 102,257.5C102,264.7 102,272 102,279.2C102,283.9 101.9,289 99.2,292.9C96.5,296.8 90.1,298.5 86.8,295.1C93.6,277.9 92.2,258.8 90.7,240.4C89.9,229.8 89,219.2 88.2,208.6C87.7,201.8 87.1,194.7 89.3,188.2C91.4,181.7 97,175.7 103.9,175.1C110.1,174.6 116.2,178.5 119.3,183.8C122.4,189.1 123.1,195.5 122.6,201.6C121.9,210.6 118.8,219.4 113.7,226.9" style="fill:rgb(78,145,255);fill-rule:nonzero;"/>
        <path id="Fill-11" d="M116.7,114.8C118.3,125.4 114,136.7 105.6,143.4C104,144.7 102.2,146 101.9,148C101.8,149 102.1,150.1 102.4,151C104.4,156.3 108.1,161 108.9,166.6C109.9,174.1 105.5,181.1 101.2,187.4C97.9,192.2 94.6,197.1 91.3,201.9C90.7,202.8 89.8,203.8 88.7,203.7C87.9,203.6 87.3,202.9 86.8,202.3C85.1,200.2 83.4,198.1 81.7,196.1C80.6,194.8 79.5,193.2 79.9,191.5C80.1,190.5 80.9,189.8 81.6,189.1C85,186 89.2,183.8 92.6,180.7C96,177.6 98.7,173 97.7,168.4C96.9,164.7 93.8,162 92,158.6C86.8,149.2 91.9,137.5 90.8,126.7C90,118.3 85.5,108.9 90.5,102.1C94.1,97.1 101.9,96.3 107.2,99.4C112.6,102.7 115.7,108.7 116.7,114.8" style="fill:rgb(77,77,77);fill-rule:nonzero;"/>
        <path id="Fill-13" d="M110.2,113C111.3,120.3 109.9,131 103.6,135.8C101.3,137.6 98.5,138.7 96.2,140.5C95,141.4 87.4,147.7 87,144.4C86.1,136.6 85.1,128.5 83.6,120.9C82.3,114.4 79.7,106.3 84,100.4C87.6,95.4 95.4,94.6 100.7,97.7C106.1,100.8 109.3,106.8 110.2,113" style="fill:rgb(255,240,0);fill-rule:nonzero;"/>
        <path id="Fill-15" d="M113.4,113C115,123.6 110.7,134.9 102.3,141.6C100.7,142.9 98.9,144.2 98.6,146.2C98.5,147.2 98.8,148.3 99.1,149.2C101.1,154.5 104.8,159.2 105.6,164.8C106.6,172.3 102.2,179.3 97.9,185.6C94.6,190.4 91.3,195.3 88,200.1C87.4,201 86.5,202 85.4,201.9C84.6,201.8 84,201.1 83.5,200.5C81.8,198.4 80.1,196.3 78.4,194.3C77.3,193 76.2,191.4 76.6,189.7C76.8,188.7 77.6,188 78.3,187.3C81.7,184.2 85.9,182 89.3,178.9C92.7,175.8 95.4,171.2 94.4,166.6C93.6,162.9 90.5,160.2 88.7,156.8C83.5,147.4 88.6,135.7 87.5,124.9C86.7,116.5 82.2,107.1 87.2,100.3C90.8,95.3 98.6,94.5 103.9,97.6C109.3,100.8 112.4,106.8 113.4,113" style="fill:rgb(78,145,255);fill-rule:nonzero;"/>
        <path id="Fill-17" d="M124.5,103.6C118,100 114,98 114.2,90C114.3,84.8 115.9,79.5 117.8,74.7C121.5,65.5 129,54.7 140.3,55.8C141.2,55.9 141.8,56.8 141.5,57.7C140.6,60.5 138.8,63 138,65.9C137.2,68.9 138.2,73 140.9,74C141.5,74.2 142.1,74 142.5,73.5C145,70.2 147.7,66.9 151.3,64.7C154.6,62.7 158.9,61.8 162.5,63.2C163.3,63.5 163.7,64.5 163.2,65.3L156.3,77C155.7,78 155.1,79.1 155,80.2C154.9,82.1 156.1,83.8 157.4,85.2C161,89.2 165.2,92.7 169.8,95.5C172.3,97 174.9,98.3 177,100.3C179.1,102.3 180.6,105.2 180,108C179.3,111.8 175.3,114.3 173.2,116.6C173.1,116.7 173.1,116.7 173,116.8C168.3,120.2 162.1,126.6 155.1,126.1C148.6,125.7 144.1,119.8 139.6,115.1C135.1,110.6 130.1,106.7 124.5,103.6" style="fill:rgb(255,240,0);fill-rule:nonzero;"/>
        <path id="Fill-19" d="M128.4,102.1C121.9,98.5 117.9,96.5 118.1,88.5C118.2,83.3 119.8,78 121.7,73.2C125.4,64 132.9,53.2 144.2,54.3C145.1,54.4 145.7,55.3 145.4,56.2C144.5,59 142.7,61.5 141.9,64.4C141.1,67.4 142.1,71.5 144.8,72.5C145.4,72.7 146,72.5 146.4,72C148.9,68.7 151.6,65.4 155.2,63.2C158.5,61.2 162.8,60.3 166.4,61.7C167.2,62 167.6,63 167.1,63.8L160.2,75.6C159.6,76.6 159,77.7 158.9,78.8C158.8,80.7 160,82.4 161.3,83.8C164.9,87.8 169.1,91.3 173.7,94.1C176.2,95.6 178.8,96.9 180.9,98.9C183,100.9 184.5,103.8 183.9,106.6C183.2,110.4 179.2,112.9 177.1,115.2C177,115.3 177,115.3 176.9,115.4C172.2,118.8 166,125.2 159,124.7C152.5,124.3 148,118.4 143.5,113.7C139,109.1 133.9,105.1 128.4,102.1" style="fill:rgb(78,145,255);fill-rule:nonzero;"/>
        <path id="Fill-22" d="M168.2,100.6C168.6,100.3 169.1,100.1 169.5,100.2C169.8,100.3 170.1,100.6 170.3,100.8C171.6,102.3 172.9,103.9 174.2,105.4C174.3,105.5 174.4,105.7 174.4,105.9C174.4,106 174.2,106.1 174.1,106.2C172.9,106.9 171.4,106.8 170,106.6C167.9,106.4 165.8,106.1 163.8,105.9C163.5,105.9 163.2,105.8 163,105.6C162.7,105.3 162.7,104.8 162.9,104.4C163.1,104 163.4,103.8 163.8,103.5C165.3,102.6 166.7,101.6 168.2,100.6" style="fill:rgb(77,77,77);fill-rule:nonzero;"/>
        <path id="Fill-24" d="M136.3,77.6C136.9,77.3 137.7,77.7 138.1,78.3C138.4,78.9 138.4,79.7 138.3,80.4C138.1,81.7 137.8,82.9 137.4,84.2C137.3,84.7 137.1,85.1 136.6,85.4C136.1,85.7 135.3,85.4 135,84.8C134.7,84.3 134.8,83.7 134.8,83.2C134.8,82.6 134.9,81.9 135,81.3C135.1,80.4 135.3,79.6 135.6,78.8C135.7,78.3 135.9,77.9 136.3,77.6" style="fill:rgb(77,77,77);fill-rule:nonzero;"/>
        <path id="Fill-26" d="M151.7,81.8C152.4,81.6 153.1,82.3 153.2,83.1C153.3,83.9 153,84.6 152.8,85.3C152.6,85.9 152.6,86.5 152.2,87C151.9,87.5 151.1,87.8 150.7,87.4C150.1,86 150.3,84.5 150.8,83.1C150.9,82.6 151.2,82 151.7,81.8" style="fill:rgb(77,77,77);fill-rule:nonzero;"/>
        <path id="Fill-61" d="M50.5,158.9C51.5,161.8 53.4,164.3 55.5,166.6C59.1,170.4 63.6,173.4 68.6,174.7C71.8,175.5 75.1,175.6 78.3,174.9C79.7,174.6 79.7,172.7 78.4,172.2C74.9,171.1 71.7,168.6 69.2,165.8C62.4,158.3 58.4,147.5 61.1,138C61.4,136.8 60.2,135.8 59.1,136.4C57.7,137.2 56.5,138.2 55.4,139.4C50.5,144.6 48.1,152.3 50.5,158.9" style="fill:rgb(78,145,255);fill-rule:nonzero;"/>
    </g>
    <g id="hand" transform="matrix(1,0,0,1,54.973,-1.05431)">
        <path id="Fill-28" d="M8,68.1C8.5,68.1 9.1,68.2 9.6,68.3C15,69.3 19.8,72.4 24.9,74.5C34.8,78.5 46.2,78.6 56.2,74.6C60.2,73 64,70.8 68.2,70.1C69.1,70 70,69.9 70.8,70.2C71.9,70.6 72.6,71.7 73,72.8C74.7,77.9 70.8,81.2 66.6,82.7C61.3,84.5 56.4,86.8 50.9,87.9C39.9,90 27.9,89.4 17.7,84.6C13.5,82.7 0.2,79.6 0.1,73.5C0.1,71.4 1.6,69.5 3.5,68.7C4.9,68.1 6.4,68 8,68.1" style="fill:white;fill-rule:nonzero;"/>
        <path id="Fill-30" d="M51.9,21.5C53.6,20.6 55.7,21.1 57.6,21.8C63.5,24.3 68.1,29.7 70.8,35.7C73.5,41.7 74.4,48.2 74.7,54.6C74.8,56.9 74.8,59.3 74.1,61.4C73.4,63.5 71.7,65.4 69.5,65.7C68.3,64.4 68.3,62.5 68.1,60.8C67.3,54.3 62.4,49 58,44C53.6,39 49.1,33.2 49.3,26.7C49.3,24.7 50.1,22.4 51.9,21.5" style="fill:rgb(77,77,77);fill-rule:nonzero;"/>
        <path id="Fill-32" d="M54.4,19C56.1,18.1 58.2,18.6 60.1,19.3C66,21.8 70.6,27.2 73.3,33.2C76,39.2 76.9,45.7 77.2,52.1C77.3,54.4 77.3,56.8 76.6,58.9C75.9,61 74.2,62.9 72,63.2C70.8,61.9 70.8,60 70.6,58.3C69.8,51.8 64.9,46.5 60.5,41.5C56.1,36.5 51.6,30.7 51.8,24.2C51.8,22.2 52.6,19.9 54.4,19" style="fill:rgb(255,100,150);fill-rule:nonzero;"/>
        <path id="Fill-34" d="M74.5,54.3C80.2,52.2 82.5,45.2 83.7,39C85.3,31 86.2,22.5 84.4,14.4C83.5,10.6 81.7,6.6 78.3,5C74.6,3.2 70.1,5.1 67.8,8.5C65.5,11.9 65.2,16.4 65.8,20.6C66.4,24.8 67.9,28.8 69.1,32.9C71,39.4 72,46.1 72.1,52.9C72.1,53.3 72.1,53.6 72.3,53.9C72.7,54.7 73.8,54.6 74.5,54.3" style="fill:rgb(77,77,77);fill-rule:nonzero;"/>
        <path id="Fill-36" d="M78.2,54C83.9,51.9 86.2,44.9 87.4,38.7C89,30.7 89.9,22.2 88.1,14.1C87.2,10.3 85.4,6.3 82,4.7C78.3,3 73.8,4.9 71.5,8.3C69.2,11.7 68.9,16.2 69.5,20.4C70.1,24.6 71.6,28.6 72.8,32.7C74.7,39.2 75.7,45.9 75.8,52.7C75.8,53.1 75.8,53.4 76,53.7C76.4,54.4 77.4,54.3 78.2,54" style="fill:rgb(255,100,150);fill-rule:nonzero;"/>
        <path id="Fill-38" d="M98.5,78.9C98.3,79.9 97.9,80.8 97.2,81.5C95,83.7 91.3,84.7 88.3,85C82.8,85.6 77.2,83.1 72.9,79.8C65.4,74.1 61.6,64.5 65.3,55.5C68,48.8 73.5,42.7 80,39.5C93.1,33 111.7,38.8 113.3,55.1C113.6,58.4 112.7,61.7 111.3,64.7C110.1,67.2 108.3,71.2 105.6,72.4C104.7,72.8 103.6,72.8 102.8,72.2C102.5,72 102.2,71.6 102,71.3C100.6,69.5 99.1,67.7 98.3,65.5C98.1,65.1 98,64.7 98.1,64.2C98.1,63.9 98.3,63.6 98.4,63.2C99.1,61.5 99.9,59.9 100.7,58.3C101.4,56.8 101.6,55.2 100.3,54C99.1,52.8 97.2,52.5 95.5,52.5C91.8,52.6 88.3,54.3 85.7,56.9C83.1,59.5 81.4,62.9 80.6,66.5C80.2,68.3 80,70.3 80.9,72C84.1,78.2 90.9,66.7 95.9,71.1C97.6,72.8 99,76.2 98.5,78.9" style="fill:rgb(77,77,77);fill-rule:nonzero;"/>
        <path id="Fill-40" d="M100.9,81.3C100.7,82.3 100.3,83.2 99.6,83.9C97.4,86.1 93.7,87.1 90.7,87.4C85.2,88 79.6,85.5 75.3,82.2C67.8,76.5 64,66.9 67.7,57.9C70.4,51.2 75.9,45.1 82.4,41.9C95.5,35.4 114.1,41.2 115.7,57.5C116,60.8 115.1,64.1 113.7,67.1C112.5,69.6 110.7,73.6 108,74.8C107.1,75.2 106,75.2 105.2,74.6C104.9,74.4 104.6,74 104.4,73.7C103,71.9 101.5,70.1 100.7,67.9C100.5,67.5 100.4,67.1 100.5,66.6C100.5,66.3 100.7,66 100.8,65.6C101.5,63.9 102.3,62.3 103.1,60.7C103.8,59.2 104,57.6 102.7,56.4C101.5,55.2 99.6,54.9 97.9,54.9C94.2,55 90.7,56.7 88.1,59.3C85.5,61.9 83.8,65.3 83,68.9C82.6,70.7 82.4,72.7 83.3,74.4C86.5,80.6 93.3,69.1 98.3,73.5C100,75.2 101.4,78.5 100.9,81.3" style="fill:rgb(255,100,150);fill-rule:nonzero;"/>
        <path id="Fill-42" d="M68.4,66.2C67.2,65 65.9,63.9 64.5,62.9C63.2,62 61.3,61.2 60.1,62.2C59.6,62.6 59.3,63.1 59.1,63.7C58.3,66 58.5,68.5 59.3,70.8C60.4,74 62.3,76.1 64.3,78.6C66.5,81.4 66.9,85.2 69.3,87.9C69.8,88.5 70.4,89 71.2,89.3C71.7,89.5 72.3,89.6 72.9,89.6C73.7,89.7 74.7,89.7 75.3,89.1C75.9,88.6 76.2,87.8 76.3,87C77.4,79.6 73.4,71.5 68.4,66.2" style="fill:rgb(255,100,150);fill-rule:nonzero;"/>
    </g>
    <g id="wow" transform="matrix(1,0,0,1,54.973,-1.05431)">
        <path id="Fill-44" d="M13.8,8.5C17.2,11.5 21.2,15.6 22.5,20C24.1,25.5 15.9,29.7 11.7,31.1C8.7,32.1 11.4,33.7 13.5,33C18.3,31.4 25.3,27.7 27.1,22.5C29.1,17.1 21.6,9.7 18,6.6C16.8,5.6 12.6,7.4 13.8,8.5" style="fill:rgb(230,230,230);fill-rule:nonzero;"/>
        <path id="Fill-46" d="M26,2.6C27,6.8 28.3,11 30.1,15C31.4,17.7 32.9,19.2 36,18.9C42.5,18.3 49,14.1 53.6,9.7C54.8,8.6 50.3,8.9 49.4,9.8C46.5,12.6 37.8,19.8 35,14.3C32.9,10.3 31.6,5.7 30.6,1.3C30.3,0.1 25.7,1.2 26,2.6" style="fill:rgb(230,230,230);fill-rule:nonzero;"/>
        <path id="Fill-49" d="M20.9,40.9C22.5,39.2 28.6,32.5 30.8,35.3C31.6,36.4 32.6,39 33.2,40.2C34.3,42.5 34.9,45.2 35.7,47.6C36.4,49.7 41,48.5 40.3,46.4C39,42.6 37.7,39.1 36,35.6C35,33.4 34.4,31.1 31.7,30.7C26.3,29.9 20.4,36.2 17.1,39.6C15.1,41.6 19.4,42.4 20.9,40.9" style="fill:rgb(230,230,230);fill-rule:nonzero;"/>
        <path id="Fill-51" d="M54.2,18.2C49.1,19.1 42.9,21.1 39.3,25.1C35.2,29.8 42.6,36.4 45.2,40.1C46.2,41.5 50.6,39.9 49.4,38.2C47.4,35.5 42.4,30.6 43,27.2C43.8,23.4 50,21.7 53.5,21C55.9,20.6 57.3,17.7 54.2,18.2" style="fill:rgb(230,230,230);fill-rule:nonzero;"/>
        <path id="Fill-53" d="M44.2,107.2C45.3,107.6 46.4,108 47.5,108.4C48.6,108.9 50.2,109.2 51,110.1C52.4,111.8 51.6,115.4 51.2,117.4C51,118.3 53.3,118 53.5,117.1C53.7,115.9 54,114.6 54,113.4C54,112.1 54.1,110 53.2,109C52.3,108.1 50.7,107.7 49.5,107.2C48.2,106.7 46.9,106.2 45.6,105.8C44.8,105.6 42.9,106.8 44.2,107.2" style="fill:rgb(230,230,230);fill-rule:nonzero;"/>
        <path id="Fill-55" d="M46.7,101.5C48.6,103 50.4,104.6 52.3,106C53.3,106.7 54.4,107.4 55.6,107.1C58.3,106.6 59.6,103.2 61.2,101.4C62.2,100.3 60.5,98.6 59.5,99.7C58.3,101 57.5,103.2 56,104.2C53.9,105.6 49.9,101.2 48.2,99.8C47.2,98.9 45.5,100.6 46.7,101.5" style="fill:rgb(230,230,230);fill-rule:nonzero;"/>
        <path id="Fill-57" d="M59.7,116.7C59.6,115.8 59.5,114.8 59.4,113.9C59.3,113.1 58.9,111.5 59.2,110.7C59.8,109.2 63.2,108.5 64.6,108.4C66.1,108.3 66.1,105.9 64.6,106C62.2,106.2 59.2,107.1 57.4,108.8C56.5,109.6 56.7,110.6 56.8,111.7C57,113.4 57.1,115 57.3,116.7C57.5,118.2 59.9,118.2 59.7,116.7" style="fill:rgb(230,230,230);fill-rule:nonzero;"/>
    </g>
</svg>
