<?xml version="1.0" encoding="utf-8"?>
<!-- Generator: Adobe Illustrator 20.1.0, SVG Export Plug-In . SVG Version: 6.00 Build 0)  -->
<svg version="1.1" xmlns="http://www.w3.org/2000/svg" xmlns:xlink="http://www.w3.org/1999/xlink" x="0px" y="0px"
	 viewBox="0 0 288.3 262" style="enable-background:new 0 0 288.3 262;" xml:space="preserve">
<style type="text/css">
	.st0{fill:#FFFFFF;}
	.st1{fill-opacity:0.1;}
	.st2{fill:#E6E6E6;}
	.st3{fill:#FFF000;}
	.st4{fill:#4E91FF;}
	.st5{fill:#4D4D4D;}
	.st6{fill:#FF6496;}
</style>
<g id="tnvr-n-bg">
	<g>
		<g>
			<polygon id="path-1" class="st0" points="162.7,0.8 154.7,0.8 154.7,14.3 162.7,14.3 			"/>
		</g>
		<g id="shadow">
			<path id="Fill-1" class="st1" d="M152.8,29.1c5.2,0.6,9.9,1.6,11.9,5.3c3.8,7.3,1.6,18.1,4.2,26.3c2.7,8.3,11,17.3,11.5,25.9
				c0.3,4.9-2.4,9.4-3.2,14.2c-1.9,11.1,6.2,22.3,3.4,33.2c-0.9,3.5-2.9,6.7-4.7,9.9c-6.3,11.5-9.8,24.5-10.3,37.6
				c-0.5,14,3.7,23.2,13,33.6c-4.6,4-10.8,6.1-16.8,5.9c-2.7-0.1-5.5-0.6-8.2-0.3s-5.6,1.6-6.7,4.1c-5.4,12,29.3,30.9,3,35.9
				c-17.7,3.4-33.1-3.7-35.4-22.5c-1.3-10.5-1.4-21.7-6.6-30.9c-3.4-6.1-8.9-11-11.2-17.5c-3.7-10.2,1.1-21.7-0.8-32.4
				c-1.4-8.3-6.8-15.7-7.6-24.1c-0.4-4.3,0.5-8.7,1.6-12.9c3.2-11.7,9.5-22.3,13.6-33.7c1.9-5.2,3.7-9.2,2.8-14.9
				c-0.9-5.6-3.7-10.7-3.9-16.4c-0.2-5.4,2.1-10.6,4.6-15.4c4-7.8,11.6-23.8,23.5-19c2.4,1,4.1,3.2,6.3,4.7
				C140.4,28.4,146.9,28.4,152.8,29.1"/>
		</g>
		<g id="wow">
			<path id="Fill-47" class="st2" d="M115.5,15.5c1.3-5.2-1.5-11.3-7-12.5c-0.9-0.2-1.1,3.3,0.1,3.6c3.2,0.7,6.3,3.9,5.7,7.4
				C114.1,14.9,115,17.5,115.5,15.5"/>
			<path id="Fill-49" class="st2" d="M188.5,47.4c2.5-2.2,5.8-2.9,9-2c0.9,0.2,1.1-3.3-0.1-3.6c-3.4-0.9-6.8,0.2-9.4,2.7
				C187.5,45.1,187.8,48,188.5,47.4"/>
			<path id="Fill-51" class="st2" d="M155.9,13.6c1.1-3.9,3.5-7.2,6.5-9.8c0.6-0.5,0.4-3.4-0.4-2.9c-3.9,2.6-6.3,6.7-7.2,11.3
				C154.6,13,155.4,15.4,155.9,13.6"/>
			<path id="Fill-54" class="st2" d="M161.4,19c0.6-1.3,1.7-2.3,3-2.9c0.5-0.2,0.3-2.1-0.3-1.8c-1.5,0.7-2.6,2-3.3,3.5
				c-0.2,0.4-0.1,0.9,0,1.2C161,19.3,161.2,19.3,161.4,19"/>
			<path id="Fill-56" class="st2" d="M89,48.3c-4.4-3-9.5-3.8-14.6-2.5c-1.1,0.3-0.8,3.6,0.1,3.4c4.9-1.1,9.7-0.5,14.2,1.5
				C89.6,51.1,89.6,48.7,89,48.3"/>
			<path id="Fill-59" class="st2" d="M88.8,55.2c-2.7-0.2-5.2,0.3-7.6,1.4c-0.9,0.4-0.5,3.6,0.4,3.1c2.3-1.2,4.7-1.8,7.3-1.8
				C89.7,57.9,89.6,55.2,88.8,55.2"/>
		</g>
		<g id="dog">
			<path id="Fill-3" class="st3" d="M85.8,146.9c-2,0.7-3.7,1-5.5,2.4c-1.6,1.3-2.9,3-3.9,4.9c-1.7,3.5-2.2,7.4-1.9,11.3
				c0.3,5.9,3.7,11.2,7,15.8c0.7,1,1.7,1.9,2.5,2.8c1.2,1.6,2.4,3,3.8,4.5c1.9,2,3.9,3.9,6.3,5.3c1.8,1,3.7,1.7,5.8,2
				c2,0.3,3.9-0.1,5.8,0.3"/>
			<path id="Fill-5" class="st4" d="M159.5,132c0.2-8.1,0.1-16.3-1.7-24.2c-3.4-15.1-12.4-28-21.4-40c-10.9-14.5-14.5,8.5-17.7,15.7
				c-0.9,1.9-2,3.7-3,5.6c-6.9,13.7-9,27.5-5.7,42.7c0.1,0.6,0.3,1.2,0.4,1.8c1.4,1,2.8,2.1,4,3.4c-1.2-1.2-2.6-2.4-4-3.4
				c1.4,6.6,4,12.8,4.8,19.5c0.1,1.1,0.2,2.3,0.1,3.4c13.9,4.4,28.9,5.2,43.1,2.3c-0.5-2.5-0.2-5.7,0.4-9.6
				c-0.5-0.1-1.1-0.2-1.6-0.4c0.5,0,1,0.1,1.6,0.1C159.1,143.3,159.3,137.7,159.5,132"/>
			<path id="Fill-7" class="st4" d="M173,201.2c-0.4-1-0.5-2.1-0.3-3.3c1.6-7.3,10.8-11.2,15.6-15.4c5.3-4.6,11-9.9,11.8-17.3
				c0.5-4.7-1.1-9.5-3.1-13.6c-0.9-1.7-1.8-3.4-3.2-4.6c-4.1-3.6-10-1.7-14.9,0.3c-6.2,2.6-14.5,8.2-20.7,6
				c-6.2-2.3-10.4-0.8-17-0.8c-9,0-17.9-1.5-26.5-4.5c-1.2,12.6-10.7,3.6-16.4,0.7c-4.2-2.2-9.2-3.5-13.5-1.5
				c-4.5,2-7.3,7.3-7.8,12.7s1.2,10.7,3.7,15.3c3,5.5,7.1,10.1,11.5,14.2c2.3,2.1,12.9,6.4,10.2,11.2c-1.5,2.6-7.6,4.9-10.1,6.3
				c-3.9,2.3-7.9,4.5-11.9,6.5c-0.8,0.4-1.7,0.8-2.2,1.6c-1.2,1.9,0.1,4.4,1.3,6.3c1.3,1.9,2.7,3.8,4.7,4.5c1.3,0.4,2.6,0.2,3.9-0.1
				c4.1-1.1,7.5-4.1,10.8-7c3.8-3.3,7.6-6.7,11.4-10c2.7-2.4,7.4-3.9,8.9-7.5c2-4.9-2.5-9.6-1.1-14.3c0.8-2.6,3.3-4,5.7-4.8
				c7.2-2.6,15.1-3.2,22.6-1.8c7.8,1.5,16.3,7,16.6,15.7c0.1,2.6-1.9,6.3-1.2,8.8c0.6,2.3,4.3,4.7,5.9,6.3c4.6,4.3,9.4,8.3,14.4,12
				c1.1,0.8,2.4,1.6,3.7,1.5c1.2-0.1,2.1-1,3-1.9c1.8-1.7,3.6-3.4,5.4-5.1c0.7-0.7,1.5-1.7,1-2.6c-0.2-0.4-0.5-0.6-0.9-0.8
				C189.9,211.6,175.6,207.7,173,201.2"/>
			<path id="Fill-9" class="st3" d="M133.4,42.5c-0.2-2.7,2.5-6.9,3.3-9c0.3-0.8,0.5-1.6,0.1-2.4c-0.6-1-2-1-3.1-0.8
				c-7,1.4-12.1,6.7-16.1,12.5c-3.8,5.4-7.1,12.2-6.9,19c0,1.5,0.3,3,1,4.3c0.9,1.6,2.4,2.7,3.9,3.8c5.3,3.9,10.5,8,15.2,12.5
				c4.1,3.8,5,9.7,9.7,12.9c1,0.7,2.1,1.3,3.2,1.7c3.8,1.1,7.8-0.7,11.1-2.8c2.9-1.9,5.6-3.6,8.7-5.1c1.9-1,3.9-3.1,4.5-5.2
				c0.8-2.8-1-6.4-2.6-8.6c-3.3-4.5-8.1-9.2-10.8-14.1c-1.8-3.3-2.8-8-2.1-11.7c0.7-4,2.5-7.8,2.4-11.9c0-0.3,0-0.7-0.2-1
				c-0.3-0.4-0.9-0.5-1.5-0.5c-4.9,0.2-9.8,5-12.3,8.9c-0.8,1.2-6.6-0.1-7.2-1.6C133.5,43.1,133.5,42.8,133.4,42.5"/>
			<path id="Fill-11" class="st4" d="M136.1,42.6c0.1-3.4,0.7-6.8,1.8-10.1c0.3-0.8-0.4-1.7-1.3-1.6c-3.1,0.3-6,1.9-8.3,4
				c-6.9,6.1-14.2,17.5-13.8,26.9c0,1.5,0.3,3,1,4.3c0.9,1.6,2.4,2.7,3.9,3.8c5.3,3.9,10.5,8,15.2,12.5c3.6,3.4,4.7,9.1,9.3,11.5
				c2,1,4.3,1.2,6.4,0.4c1.9-0.7,3.4-2.1,5.3-2.9c2.9-1.2,6.2-0.8,9.2-1.7c2.7-0.8,6.3-3,7.1-5.9c0.8-2.8-1-6.4-2.6-8.6
				c-3.3-4.5-8.1-9.2-10.8-14.1c-2.6-4.7-2.4-11.5-3-16.8c-0.2-1.7,0.4-4.6,0.6-6.3c0.1-0.9-0.8-1.6-1.7-1.3c-4,1.7-7.4,4.6-9.8,8.2
				c-0.3,0.5-0.9,0.7-1.5,0.5c-2-0.6-3.9-1.1-6-1.4C136.4,43.9,136,43.3,136.1,42.6C136.1,42.7,136.1,42.6,136.1,42.6"/>
			<path id="Fill-13" class="st5" d="M131.2,53.3c0,0.7-0.4,1.4-0.5,2c-0.1,0.7-0.3,1.9-1.2,2c-0.7,0-1.1-0.9-1-1.7
				c0.1-1,0.4-2,0.8-3c0.1-0.2,0.2-0.5,0.4-0.6c0.5-0.4,1.2,0,1.4,0.5C131.1,52.7,131.2,53,131.2,53.3"/>
			<path id="Fill-15" class="st5" d="M152.6,80.2c-0.6,0.7-1.1,1.5-1.1,2.4c0.5,0.2,1.1,0.1,1.7,0.1c2.6-0.4,5.1-1,7.6-1.9
				c0-1.1-0.5-2.1-1.3-2.9c-0.8-0.7-1.8-1.2-2.9-1.5c-0.1,0-0.2,0-0.2,0c-0.1,0-0.2,0.1-0.3,0.2C154.8,77.7,153.7,78.9,152.6,80.2"
				/>
			<path id="Fill-17" class="st5" d="M144.7,55.8c0.2-0.5,0.4-1.1,0.8-1.5c0.4-0.4,1.1-0.6,1.6-0.3c0.2,1.4,0.1,2.9-0.3,4.2
				c-0.1,0.6-0.3,1.1-0.8,1.5c-0.4,0.4-1.1,0.6-1.6,0.2C143.8,58.8,144.3,57.2,144.7,55.8"/>
			<path id="Fill-19" class="st5" d="M110.1,95.7c3.6-3.6,7.8,0.4,8.9,4.2c1.1,3.6,0.7,7.9-0.5,11.4c-0.8,2.5-2.1,4.6-2.7,7.2
				c-1,4.1-1.9,8.2-3.6,12.1c-4.5,10.4-12-2.3-16.3-5.9c-2.7-2.3-5.2-4.9-6.8-8.1c-1.3-2.6-1.5-6.6,1.1-7.8
				c6.1-2.8,7.7,6.9,12.3,7.4c1.1,0.1,2.1-0.8,2.6-1.8c1.6-2.8,1.7-6.2,1.9-9.4c0.2-3.2,0.7-6.7,2.9-9.1
				C110,95.8,110.1,95.8,110.1,95.7"/>
			<path id="Fill-21" class="st4" d="M109.5,91.8c1.8-0.8,4-1.1,5.8-0.2c2.2,1.1,3.3,3.7,3.6,6.2c0.4,2.8,0.1,5.6-0.8,8.2
				c-0.7,2.1-1.8,4.1-2.8,6.1c-2.3,4.6-4.2,9.5-5.5,14.5c-0.2,0.8-0.4,1.6-0.7,2.3c-0.9,2.5-4.2,2.9-5.7,0.7
				c-4.4-6.6-12.6-10.8-15.2-18.7c-0.5-1.6-0.2-3.4,1-4.6c2-2,4.6-0.8,6.7,0.4c2.2,1.3,4.5,2.5,6.7,3.8
				C99.2,103.8,102.6,94.7,109.5,91.8"/>
			<path id="Fill-23" class="st5" d="M102,136.4c-0.2,0.3-0.5,0.5-0.8,0.6c-3.5,1.9-8.2,1.9-11.8,0.1c-1.3-0.7-2.6-1.6-3-2.9
				c-0.4-1-0.2-2.1-0.1-3.2c0.9-6.5,0.5-14,2.8-20.2c0.5-1.3,1-2.6,2.2-3.2c1-0.6,2.4-0.4,3.4,0.2s1.8,1.6,2.4,2.6
				c2.2,3.6,2.5,7.7,3.1,11.8c0.6,4.4,1.7,8.6,2,13.1C102.2,135.7,102.2,136.1,102,136.4"/>
			<path id="Fill-25" class="st4" d="M99.9,134c-0.2,0.3-0.4,0.5-0.7,0.6c-3.1,1.9-7.1,1.9-10.3,0.1c-1.2-0.7-2.2-1.6-2.6-2.9
				c-0.3-1-0.2-2.1-0.1-3.2c0.6-5.2,1.1-10.4,1.3-15.6c0.1-2.1,0.2-4.2,1.3-6c1.1-1.7,3.6-2.8,5.3-1.6c1.2,0.8,1.6,2.4,1.9,3.8
				c1.7,7.8,3.4,15.7,4,23.6C100,133.3,100.1,133.7,99.9,134"/>
			<path id="Fill-27" class="st5" d="M155.4,108.6c0.8-0.9,1.9-1.6,3.2-2c3.5-1.1,5.5,0.7,6.3,4c0.6,2.5,1,5.1,1.2,7.7
				c0.1,1,0.8,7.5,0.1,7.9c6-3.5,12.6-6,19.4-7.2c1.7-0.3,1.9,3,1.8,4c-0.2,2.3-2.4,4-4.2,5.3c-3,2.4-6.1,4.7-9.3,6.9
				c-1.2,0.9-2.5,1.7-3.9,2.2c-6.1,2-10.5-4.5-13.4-8.9C153.7,123.8,151,113.4,155.4,108.6"/>
			<path id="Fill-29" class="st4" d="M152.7,102.3c3.3-5.6,10.8-3.9,12.9,1.5c2.7,6.8,3.2,13.5,2.9,20.8c6-3.5,12.6-6,19.4-7.3
				c1.8-0.3,2,3.5,1.7,4.7c-0.4,1.7-1,2-2.5,2.7c-4,2-7.9,3.1-11.6,5.8c-2.9,2.1-6.2,4.8-9.6,3.7c-1.6-0.5-2.8-1.9-3.9-3.1
				c-5.7-6.7-10.9-14.7-10.7-23.5C151.5,105.8,151.8,103.9,152.7,102.3"/>
			<path id="Fill-31" class="st3" d="M200,139.7c-1.2,0.7-2.5,1.4-3.8,1.4c-2.1,0.1-4-1.5-5.3-3.2c-1.5-2-2.4-4.3-3.3-6.5
				c-1-2.3-2.3-4.5-3.1-7c-0.3-0.8-0.5-1.4-0.5-2.3c0-1.4-0.1-2.6,1-3.6c0.5-0.5,1.1-0.8,1.7-1.2c0.2-0.1,0.5-0.2,0.7-0.3
				c0.4,0,0.8,0.2,1.2,0.5c1.4,1,2.7,2.8,3.5,4.4c0.6,1.3,1.2,2.7,2.1,3.8c2.3,2.8,4.4,5.8,6.3,8.8c0.8,1.2,1.5,2.9,0.7,4.1
				C201,139.1,200.5,139.4,200,139.7"/>
			<path id="Fill-33" class="st4" d="M201.5,138.7c-1.2,0.7-2.5,1.4-3.8,1.4c-2.1,0.1-4-1.5-5.3-3.2c-1.5-2-2.4-4.3-3.3-6.5
				c-0.8-1.9-1.6-3.9-2.4-5.8c-0.5-1.3-1.1-2.7-1.2-4.1c-0.1-0.9,0.1-1.8,0.6-2.6c0.5-0.7,1.5-1.2,2.4-0.9c0.5,0.2,0.9,0.6,1.3,0.9
				c4.7,4.8,8.8,10,12.4,15.6c0.8,1.2,1.5,2.9,0.7,4.1C202.5,138.1,202,138.4,201.5,138.7"/>
			<path id="Fill-35" class="st4" d="M177.8,191.9C177.8,191.9,177.9,191.9,177.8,191.9c-0.1-0.2-0.3-0.3-0.5-0.4L177.8,191.9z"/>
			<path id="Fill-37" class="st5" d="M124.1,234.7c0,2.2,0.3,4.5,1.1,6.6c2.2,5.6,7.7,9.3,13.3,11.5c4.5,1.8,9.5,3,14.4,2.6
				c2-0.1,2.7-2.8,1-3.9c-5.3-3.3-10-7.5-13.8-12.5c-1.9-2.5-3.6-5.2-4.3-8.3c-1.3-5.2,0.3-10.5,2.6-15.5c0.9-2-1.5-3.8-3.2-2.5
				C128.4,217.8,124.1,226.2,124.1,234.7"/>
			<path id="Fill-39" class="st5" d="M169.4,172c3.7-3.5,5.4-8.1,8.7-11.9c1.7-1.9,3.4-3.9,5.7-5.1c-1.7-0.4-3.5,0-5.1,0.8
				c-6.1,3.2-9.6,10.7-13.3,16.2c-0.3,0.5-0.6,0.9-0.7,1.5c0,0.5,0.3,1.2,0.9,1.2c0.4,0,0.7-0.2,1-0.4
				C167.6,173.5,168.5,172.8,169.4,172"/>
		</g>
	</g>
</g>
<g id="tnvr-n-top">
	<g id="neuter">
		<path id="Fill-41" class="st6" d="M178.4,195c-2,5.3-5.8,9.8-10.4,13.1c-7.2,5.3-16.1,7.6-25,8.7c-5.9,0.7-12,0.9-17.9-0.5
			c-9.9-2.4-18.3-9.4-23.6-18.1c-5.3-8.7-7.6-19-7.8-29.2c-0.1-4.9,0.3-10,2.5-14.5c1.8-3.8,4.8-6.9,8.1-9.5
			c13.5-10.6,33-12.6,48.5-5.3s26.3,23.5,27.5,40.7C180.6,185.3,180.2,190.4,178.4,195"/>
		<path id="Fill-43" class="st0" d="M165.7,192.3c-2.7,4.8-7.7,7.9-12.9,9.7c-4,1.4-8.3,2.2-12.6,2.3c-9.5,0.2-19.2-3.2-25.8-10
			c-6.6-6.8-9.8-17.2-7.2-26.3c3.5-12.3,17.1-20.1,29.7-18.7c12.6,1.4,23.6,11,28.5,22.7C168.1,178.4,169.1,186.1,165.7,192.3"/>
		<path id="Fill-45" class="st6" d="M108.4,189.7c3.7,4.7,4.7,7.2,7.6,12.4c5.6-5.9,11.3-11.9,17.5-17.2
			c10.7-9.1,23.1-16.2,32.8-26.4c-2.8-3.1-3.3-3.6-6.4-6.3c-0.4-0.4-0.9-0.8-1.4-0.8s-0.9,0.3-1.3,0.5
			C140,163.4,123.7,176,108.4,189.7"/>
	</g>
</g>
</svg>
