<?xml version="1.0" encoding="utf-8"?>
<!-- Generator: Adobe Illustrator 18.0.0, SVG Export Plug-In . SVG Version: 6.00 Build 0)  -->
<!DOCTYPE svg PUBLIC "-//W3C//DTD SVG 1.1//EN" "http://www.w3.org/Graphics/SVG/1.1/DTD/svg11.dtd">
<svg version="1.1" id="traffic_accident" xmlns="http://www.w3.org/2000/svg" xmlns:xlink="http://www.w3.org/1999/xlink" x="0px"
	 y="0px" viewBox="0 0 504 348" enable-background="new 0 0 504 348" xml:space="preserve">
<title>traffic-accident</title>
<desc>Created with sketchtool.</desc>
<g id="background">
	<defs>
		<filter id="Adobe_OpacityMaskFilter" filterUnits="userSpaceOnUse" x="34.3" y="100.9" width="469.1" height="228.7">
			<feColorMatrix  type="matrix" values="1 0 0 0 0  0 1 0 0 0  0 0 1 0 0  0 0 0 1 0"/>
		</filter>
	</defs>
	<mask maskUnits="userSpaceOnUse" x="34.3" y="100.9" width="469.1" height="228.7" id="mask-2">
		<g filter="url(#Adobe_OpacityMaskFilter)">
			<polygon id="path-1" fill="#FFFFFF" points="503.3,329.6 503.3,100.9 34.3,100.9 34.3,329.6 			"/>
		</g>
	</mask>
	<path id="Fill-1" mask="url(#mask-2)" fill="#FFFFFF" d="M165.6,310.7C49.3,345.4,1.3,330.9,58.2,278.2
		c57-52.7,197.4-123.6,313.7-158.4C488.2,85,536.3,99.5,479.4,152.2S281.9,275.9,165.6,310.7"/>
	<defs>
		<filter id="Adobe_OpacityMaskFilter_1_" filterUnits="userSpaceOnUse" x="152.5" y="222.8" width="248.1" height="124.6">
			<feColorMatrix  type="matrix" values="1 0 0 0 0  0 1 0 0 0  0 0 1 0 0  0 0 0 1 0"/>
		</filter>
	</defs>
	<mask maskUnits="userSpaceOnUse" x="152.5" y="222.8" width="248.1" height="124.6" id="mask-4">
		<g filter="url(#Adobe_OpacityMaskFilter_1_)">
			<polygon id="path-3" fill="#FFFFFF" points="152.5,347.4 400.6,347.4 400.6,222.8 152.5,222.8 			"/>
		</g>
	</mask>
	<path id="Fill-4" mask="url(#mask-4)" fill="#FFFFFF" d="M221.7,343.4c-61.4,12.1-86.7-4.2-56.4-36.4
		c30.3-32.2,104.6-68.1,166.1-80.2c61.4-12.1,86.7,4.2,56.4,36.4C357.5,295.4,283.2,331.3,221.7,343.4"/>
	<path id="Fill-16" fill="#FF6496" d="M148.5,207.7c-17.4,9.7-36.4,15.7-55.3,21.7c-19.6,6.2-39.3,12.5-58.9,18.7
		c-2.7,0.9-5.5,1.7-8.4,1.5c-2.1-0.2-4.2-1.1-6.1-1.9c-6.6-2.8-13.2-5.6-19.7-8.3c30.5-10.7,61.1-21.3,91.6-32
		c9.4-3.3,18.9-6.6,28.8-7.4S140.9,201.3,148.5,207.7"/>
	<path id="Fill-18" fill="#FF6496" d="M76.4,277.7c-10.7-1.9-21.1-5.7-30.5-11.2c34.1-14.1,68.3-28.3,102.4-42.4
		c3.2-1.3,6.4-2.6,9.8-3.4c5-1.1,10.3-0.7,15.4-0.4c9.7,0.7,19.4,1.3,29.1,2c-36.6,20.2-78.3,30.4-113.7,52.7
		c-1.9,1.2-3.9,2.5-6.1,3C80.7,278.3,78.5,278,76.4,277.7"/>
	<path id="Fill-20" fill="#FF6496" d="M237.8,234.2l25.4,6.4c-39.7,22.4-80,43.8-120.8,64.2c-2.1,1.1-4.3,2.2-6.7,2.4
		c-2.3,0.2-4.6-0.5-6.9-1.1c-8.2-2.4-16.4-4.7-24.6-7.1c39.4-21.8,79.2-42.8,119.4-63.2c2.1-1.1,4.3-2.2,6.7-2.5
		C232.8,233,235.3,233.6,237.8,234.2"/>
	<path id="Fill-22" fill="#FF6496" d="M342,252.8c-21.2,8.8-41.2,20.3-59.5,34c-6.9,5.2-13.6,10.7-20.7,15.7
		c-9.9,6.9-20.4,12.7-31,18.5c-1.4,0.8-2.9,1.6-4.5,1.6c-1.1,0.1-2.3-0.2-3.4-0.5c-9.2-2.5-18.4-5-27.6-7.5
		c36.5-22.8,73.6-44.6,111.3-65.5c1.7-0.9,3.5-1.9,5.4-2.2c2.1-0.3,4.1,0.1,6.2,0.6C326.1,249.3,334,251,342,252.8"/>
	<path id="Fill-24" fill="#FF6496" d="M376,261.6c10.1,1.4,20.2,2.6,30.3,3.5c-28.7,24.4-58.5,47.6-89.1,69.6
		c-1.6,1.1-3.2,2.3-5,2.6c-2.1,0.4-4.3-0.2-6.3-0.8c-10.1-3-20.2-6-30.3-9c24.3-17.5,48.8-34.5,73.4-51.6l18-12.5
		c1.1-0.7,2.1-1.5,3.4-1.9C372.1,261.1,374.1,261.4,376,261.6"/>
</g>
<g id="p1-wow">
	<path id="Fill-7" fill="#4D4D4D" d="M175.7,118.8c-1.6-12.1-7.9-23.7-13.8-34.1c-6.2-11-13-21.6-20.1-32c-2.1-3.1-5.9-3-7.9,0.2
		c-2.3,3.7-1.7,8.4,0.3,12c0.1,0.2,0.2,0.4,0.3,0.6c-0.1,0-0.3-0.1-0.4-0.1c-7.5-1.4-8.3,10-5.1,14.5c2.6,3.7,6.3,6.5,9.5,9.7
		c3.1,3.1,5.9,6.5,8.5,10c5.1,7,8,14.6,11.3,22.6c1,2.3,2.9,4.8,5.4,5.3c1.4,3,4,5.9,7.6,4.3C176,129.6,176.3,123.2,175.7,118.8"/>
	<defs>
		<filter id="Adobe_OpacityMaskFilter_2_" filterUnits="userSpaceOnUse" x="166" y="0.8" width="44.8" height="104.3">
			<feColorMatrix  type="matrix" values="1 0 0 0 0  0 1 0 0 0  0 0 1 0 0  0 0 0 1 0"/>
		</filter>
	</defs>
	<mask maskUnits="userSpaceOnUse" x="166" y="0.8" width="44.8" height="104.3" id="mask-6">
		<g filter="url(#Adobe_OpacityMaskFilter_2_)">
			<polygon id="path-5" fill="#FFFFFF" points="210.9,0.8 166,0.8 166,105.1 210.9,105.1 			"/>
		</g>
	</mask>
	<path id="Fill-9" mask="url(#mask-6)" fill="#4D4D4D" d="M206.7,50.5c-3.4-14.4-7.9-29.2-13.8-42.8c-1-2.2-3-4.6-5.5-4.3
		c-2.9-3-7.6-4-10,0.9c-0.8,1.6-1.4,3.2-1.9,4.9c-2.6-1-5.4-0.1-7.3,3c-2.9,4.7-2.9,12,0.4,16.6c5.9,8.2,10.9,16.7,15.4,25.8
		c1.3,2.6,2.7,5.3,4.1,8.1c2.2,7.3,4.1,14.6,5.9,21.9c0.4,1.7,1.2,3.7,2.3,5.3c0,1.5,0,2.9-0.1,4.4c-0.2,3.8,1.8,9,5.6,10.5
		c4.8,1.9,8.4-3.9,8.7-7.9C211.6,81.2,210.2,65.7,206.7,50.5"/>
	<path id="Fill-12" fill="#4D4D4D" d="M195.1,119.5C195.7,118.2,195.4,119,195.1,119.5 M206.3,123.9c0.1-1.3,0-2.7-0.4-4
		c-0.5-1.8-1.1-3.6-2.6-4.9c-1.7-1.4-3.9-1.3-5.5,0.1c-0.6,0.6-1.1,1.2-1.5,1.9c-1.2,1-2.2,2.6-2.7,4.1c-0.4,1-0.6,2-0.8,3
		c0,0,0,0.1,0,0.1c-0.1,0.3-0.2,0.6-0.3,0.9c0,0,0,0.1,0,0.1c0,0,0,0,0,0c-0.4,1.3-0.7,2.3,0,0c-1.6,3.7-0.9,8.9,1.3,12.1
		c1.9,2.8,5.4,3.8,8,1.4c3.3-3.1,4.9-8.2,4.7-12.7C206.4,125.4,206.4,124.7,206.3,123.9"/>
	<path id="Fill-14" fill="#4D4D4D" d="M182.4,143.4c-0.6-1.9-1.1-4-2.4-5.5c-0.6-0.9-1.3-1.5-2.3-1.9c-1.4-0.5-2.8-0.1-3.8,0.9
		c-2.3,2.2-2.6,5.7-2.1,8.7c0.1,0.3,0.1,0.6,0.2,1c0,0.1,0,0.2,0,0.3c0,1.8,0.4,3.4,0.9,5.1c0.6,2,2.6,4,4.8,4
		c2.2-0.1,4.1-2.2,4.6-4.2c0.4-1.6,0.9-3.1,0.7-4.8C182.8,145.6,182.7,144.6,182.4,143.4"/>
</g>
<g id="shadow_1_">
	<path id="Fill-26" fill-opacity="0.1" d="M353.9,159c-1.6,0.1-3.2-0.5-3.5-2.2c0.8-0.5,8.2-4.2,8.1-4.8c-0.2-1.2-1.6-1.9-2.8-1.8
		c-1.2,0.1-2.3,0.7-3.4,1.3c-1.4,0.8-2.7,1.6-4.1,2.4c-0.7,0.4-1.4,0.8-2.3,0.8c-0.8,0-1.7-0.5-1.8-1.3c2.7-1.3,5.3-2.8,7.7-4.4
		c-0.3-1.1-1.6-1.7-2.7-1.6c-1.1,0.1-2.2,0.7-3.2,1.2c-2.4,1.2-5,2-7.7,2.3c-0.4-0.6-0.9-1.3-1.3-1.9c2.1-1,4.2-2,6.2-2.9
		c0-1-1.1-1.8-2.1-1.9c-1-0.1-2,0.4-2.9,0.9c-1,0.5-2,1-2.9,1.5c-0.4,0.2-0.9,0.4-1.3,0.4c-0.9,0-1.6-0.9-1.8-1.8
		c-0.5-3,1.7-5.2,3.9-6.7c10.6-7,23.3-10.4,36-10.5c6.4-0.1,12.8,0.7,19,2.2c6.2,1.5,11.6,4.3,17.5,6.5c2.8,1,5.9,1.1,8.8,0.7
		c3.6-0.5,7.1-1.6,10.7-2.3c0.6-0.1,1.3-0.2,1.7,0.3c0.7,0.7-0.1,1.8-0.8,2.5c-2.3,2.3-4.5,4.8-6.4,7.5c-0.5,0.7-1,1.5-0.8,2.3
		c0.1,0.5,0.4,0.9,0.7,1.3c1.1,1.3,2.2,2.7,3.3,4c0.4,0.5,0.8,0.9,1.3,1.2c0.6,0.3,1.3,0.2,1.9,0.1c5.4-0.7,10.9-3.6,16-1.8
		c-1.9,2.8-4.3,5.2-7.1,7.1c-3.5,2.4-6.9,4.2-7.5,8.7c-0.4,3.1-0.7,5.5-2.8,8c-6.4,7.8-14.5,13.2-23,18.3
		c-22.8,13.6-45.3,27.6-67.6,42c-11.5,7.4-22.8,14.8-34.2,22.4c-4.8,3.2-10.6,8.8-16,10.8c-4.3,1.5-8.6,0.5-13.1,1.3
		c-3.8,0.7-7,3-10.3,4.9c-3.3,1.9-7.3,3.4-11,2.2c-3.7-1.1-6.2-6.1-3.7-9c0.9-1.1,2.3-1.7,3.6-2.3c9.4-3.9,19.1-7.4,27.7-12.9
		c8.6-5.5,16.1-13.4,18.9-23.2c-45.9,11.4-86.6,37.9-131.2,53.7c-1.2-4,1.1-8.4,4.4-11.1c3.2-2.7,7.3-4.1,11.2-5.7
		c12.5-5.2,23.8-13.3,32.8-23.5c-8.2-1.1-16.2,2-23.9,5.1c-18.5,7.4-37,14.8-55.6,22.3c-4.8,1.9-10.9,3.7-14.7,0.1
		c34.4-17.8,69.3-34.5,104.7-50.1c17-7.5,35.2-10.6,51.5-18.7c20.3-10,41.3-18.2,63.2-24c4.8-1.3,9.7-2.4,14-5
		c3.4-2.1,6.3-5.2,3.1-8.8c-1-1.1-2-1.3-1.4-2.7c0.7-1.6,5.7-3.3,7.3-3.8c0.2-0.1,0.4-0.2,0.5-0.4c0-0.1,0-0.3-0.1-0.4l-0.9-1.6
		c-0.2-0.3-0.4-0.7-0.7-0.8c-0.3-0.1-0.7,0.1-1,0.2c-1.9,1-3.8,1.9-5.7,2.9C355.6,158.7,354.8,158.9,353.9,159"/>
	<path id="Fill-58" fill="#FFFFFF" d="M370.9,141.8c-1.1-0.1-2.3-0.3-2.9-1.2c-1.3-1.7,0.7-4.1,2.6-5.1c4.7-2.5,10.2-3.3,15.4-2.3
		c1.4,0.3,2.8,0.7,3.8,1.6c1.1,0.9,1.7,2.5,1.2,3.8c-0.6,1.6-2.5,2.2-4.2,2.6C381.6,142.2,376.2,142.4,370.9,141.8"/>
	<path id="Fill-60" fill="#FFFFFF" d="M407.7,146.1c1,1,1.7,2.4,1.3,3.7c-0.4,1.2-1.6,1.9-2.7,2.5c-5.8,2.8-12.2,4.2-18.6,4.1
		c-2.4,0-5-0.4-6.8-2c-1.8-1.6-2-5,0-6.3c0.5-0.3,1.1-0.5,1.7-0.6c4.3-1.2,8.3-3.3,12.7-4.2C399.6,142.5,404.6,142.9,407.7,146.1"/>
	<path id="Fill-62" fill="#FFFFFF" d="M352.2,139c-0.9,1.2-3.6,1.8-3.7-0.3c-0.1-1.8,1.4-2.5,2.7-2.3
		C352.4,136.5,353.3,137.5,352.2,139"/>
	<path id="Fill-64" fill="#FFFFFF" d="M359,139.9c0.4,0.1,0.8,0.2,1.2,0.4c1,0.7,1,2.3,0.2,3.2c-0.8,0.9-2,1.3-3.2,1.3
		c-0.7,0-1.4-0.1-1.9-0.5c-0.7-0.6-0.8-1.7-0.7-2.7c0-0.5,0.1-1,0.4-1.3c0.3-0.4,0.9-0.5,1.4-0.5C357.2,139.7,358.1,139.7,359,139.9
		"/>
</g>
<g id="p1-dog">
	<path id="Fill-28" fill="#4D4D4D" d="M113.6,269.2c-0.1-0.6-0.1-1.1-0.1-1.7c-0.1-10.1,3.5-19.4,7.6-28.5c0.3-0.7,0.7-1.4,1.3-1.9
		c0.6-0.5,1.4-0.6,2.2-0.8c6-1.4,9-4.9,12.1-9.9c2.5-4.2,2.7-7.4,3.4-12.3c0.7-5.4,0-10.3,2.4-15.5c4.8-10.4,19.1-16.1,27.8-7.1
		c10.3,10.6,3.1,32.9-8.1,40.2c-7.9,5.2-18,6.9-26.6,10.7c-7.2,3.2-14.6,14.2-14.1,22.3c0.1,1.1,0.3,2.3,0.6,3.4
		c0.4,1.9,0.8,3.7,1.2,5.6c-1.6,0.6-3.4,0.9-5.1,0.5c-1.7-0.4-3.3-1.5-4-3.1C113.8,270.5,113.7,269.9,113.6,269.2"/>
	<path id="Fill-30" fill="#4D4D4D" d="M237.7,240.6c-1-3.5-2.2-7-3.5-10.5c-2.7-7.1-5.4-13.8-5.1-21.6c0.2-5.4-0.9-10,1.5-15.1
		c4-8.4,14.6-16.4,23.4-9.6c4.5,3.5,5.9,9.7,5.6,15.4c-0.3,5.4-1.8,10.8-4.4,15.6c-2.1,3.8-4.9,7.3-6.6,11.4
		c-2.4,5.8-3.1,14-1.6,20.1c0.8,3.3,1.6,6.6,2.4,9.9c1.4,5.7,3.3,11.2,7.2,15.6c1.2,1.4,3.7,2.5,3.6,4.1c-0.2,3.2-5,4.7-7.5,3.7
		c-7-2.7-8.7-10.1-10.2-16.7C240.9,255.5,239.8,247.9,237.7,240.6"/>
	<path id="Fill-32" fill="#4E91FF" d="M162.7,220.9c-9.5-7.1-14.3-26.7-2.3-33c5.2-2.7,12.8-4.6,18.7-5.1
		c11.1-0.8,22.2,1.7,33.2,3.2c9.3,1.3,19.8,0.2,27.4-5.9c6.5-5.2,10.7-13.9,18.4-17.5c3.1-1.5,6.2-4.8,8.9-1.4
		c3.6,4.5,3.6,10.8,4.5,16.2c1.1,6.2,1.3,12.6,0.5,18.9c-0.9,7.9-3.3,15.7-6.9,22.7c-1.7,3.4-3.9,8-6.8,10.5
		c-2.8,2.4-7.3,3.7-10.7,5.1c-4.7,2-6.5,3.3-11.6,2.1c-4-1-7.7-2.7-11.3-4.5c-7.1-3.5-14.1-7.7-22.1-8.8c-6.6-0.9-13.3,0.5-20,1.1
		c-6.7,0.6-13.8,0.3-19.3-3.5C163,221.1,162.8,221,162.7,220.9"/>
	<path id="Fill-34" fill="#4D4D4D" d="M164.8,248.1c-0.7,0-1.3-0.2-1.7-0.7c-0.5-0.6-0.5-1.4-0.6-2.2c-0.1-4,0.8-7.6,0.8-11.6
		c0.2-4.9-1.2-7.9-2.9-12.4c-1.9-5.1-5-9-5.3-14.7c-0.4-6.3,2-10,7.9-12.2c5.3-1.9,11.3-2.8,16.5-0.5c12,5.4,14.4,21.7,8.7,32.3
		c-2.4,4.5-5.9,8.2-9,12.1c-3.2,4.1-7.4,7.4-12.2,9.3C166.4,247.9,165.5,248.2,164.8,248.1"/>
	<path id="Fill-36" fill="#4D4D4D" d="M249.5,193c2,1.4,3.7,3.6,4.9,5.8c2.3,4,3.9,8.4,4.7,12.9c0.4,2,0.5,4.1-0.1,6
		c-0.6,1.8-2,3.3-3.3,4.7c-2.9,3-9.7,10.7-14,11.1c6.6,1.5,13.1-1.9,19.6-3.8c3.8-1.1,14.1,0.5,11.1,6.8c-1.3,2.7-4.5,2.6-6.9,2.5
		c-8.1-0.5-16.8,1.9-24.3,4.7c-3.7,1.4-10.2,0.7-11.8-3.5c-1-2.6,0.1-5.5,1-8.1c1.8-5.5,2.3-11.4,1.6-17.2c-0.6-5-2.2-10.3-0.2-14.9
		c1.3-3,4-5.2,6.8-6.7c2.1-1.2,4.6-2.1,7-1.8c1.6,0.2,3.1,1.1,4.6,1.3c2.1,0.3,3.2,0.3,4.8,2.2c4,4.7,6.9,10.3,8.4,16.2
		c0.6,2.4,1,4.9-0.1,7.1c-0.8,1.8-2.4,3-3.8,4.3c-5.2,4.5-9.9,9.7-13.8,15.3"/>
	<path id="Fill-38" fill="#4E91FF" d="M164.3,282.7c-0.4-0.4-0.7-0.9-1-1.4c-5.5-8.5-7.4-18.3-8.8-28.1c-0.1-0.8-0.2-1.5,0.1-2.3
		c0.3-0.7,0.9-1.3,1.4-1.8c4.3-4.4,5-8.9,4.9-14.8c-0.1-4.9-1.7-7.8-3.7-12.2c-2.3-5-5.5-8.7-6.3-14.4c-1.5-11.4,7.5-23.8,19.7-20.8
		c14.4,3.5,20.2,26.1,14.7,38.3c-3.9,8.6-11.5,15.5-16.8,23.3c-4.4,6.5-4.8,19.8,0,26.4c0.7,0.9,1.5,1.7,2.3,2.5
		c1.3,1.4,2.7,2.7,4,4.1c-1,1.4-2.4,2.6-4.1,3.2c-1.6,0.6-3.6,0.4-5-0.5C165.1,283.6,164.7,283.2,164.3,282.7"/>
	<path id="Fill-40" fill="#FFF000" d="M257.4,195.8c2.3,4,3.9,8.4,4.7,12.9c0.3,2,0.5,4.1-0.1,6c-0.6,1.8-2,3.3-3.3,4.7
		c-2.9,3-9.7,10.7-14,11.1c6.6,1.5,13.1-1.9,19.6-3.8c6.8-2,11.5,0.8,12.1,8.1c0.5,5.3-1.6,10.4-3.7,15.3c-0.7,1.7-1.6,3.5-3.2,4.3
		c-3.1,1.6-6.6-1-9.1-3.4c4.4-2.5,7.5-7.3,8-12.4c-7.6-2.6-15.8,0.4-23.7,2.1c-4.6,1-10.8,0.8-12.5-3.6c-1-2.6,0.1-5.5,1-8.1
		c1.8-5.5,2.3-11.4,1.6-17.2c-0.6-5-2.2-10.3-0.2-14.9c1.3-3,4-5.2,6.8-6.7c2.1-1.2,4.6-2.1,7-1.8
		C252.4,188.8,255.4,192.3,257.4,195.8"/>
	<path id="Fill-42" fill="#4E91FF" d="M261.5,142.9c-0.6-0.1-1-0.6-1.1-1.2c-0.5-4.3-2.3-8.4-5.1-11.6c-0.8-0.9-2.3-0.4-2.4,0.8
		c-1.2,9.2-9.4,22.9-19.9,23.1c-2.6,0.1-5.1-0.6-7.7-0.6c-6.3,0.1-9.3,5.4-7.1,11.1c1.7,4.4,4.4,8.5,7.9,11.7c1,0.9,2.2,1.8,3.5,2.2
		c3,0.9,6.1-0.9,9.2-1.9c2.3-0.8,5.6-1.4,8-0.8c5,1.3-0.7,5.4-2.5,6.6c-0.5,0.4-1.1,0.8-1.2,1.4c-0.2,1,0.9,1.9,1.9,2
		c2.7,0.3,6.5-1.3,8.9-2.4c3.2-1.4,6.1-3.4,8.8-5.5c4.8-3.6,8.6-8.3,12.5-12.8c4.9-5.6,4.6-13.6,3.1-20.4c-0.6-2.9-1.3-8.1-3.6-10.2
		c-3.1-2.8-5.5,1.9-6.2,4.4c-0.4,1.4-0.6,2.7-1.1,4.1c-0.3,0.6-0.9,1-1.6,0.9L261.5,142.9z"/>
	<path id="Fill-44" fill="#FFF000" d="M183.1,211.7c0,2-0.1,4-0.5,5.9c-0.6,2.3-1.6,4.4-2.6,6.5c-2.1,4.2-4.2,8.5-6.8,12.5
		c-1.3,1.9-4.5,7.9-7.1,8.3c-3.4,0.5-2.1-6-2.1-8.3c0.1-6.8-0.3-12.6-4-18.4c-4.1-6.5-9-15-5.6-22.8c2-4.7,7.6-7.4,12.7-6.8
		c5.1,0.6,9.6,4,12.3,8.4C182,201.3,183,206.6,183.1,211.7"/>
	<path id="Fill-46" fill="#FFF000" d="M223.9,220.6c1.1-0.4,1.8-1.4,2.3-2.4c3.7-6.9,0.1-16,3.8-23c1.4-2.6,3.6-4.5,5.7-6.6
		c0.3-0.3,0.6-0.6,0.7-1c0.1-0.7-0.4-1.3-1.1-1.5c-0.6-0.2-1.3,0-2,0.1c-11.8,2.7-24.5,5.5-35.8,1.2c-1.5-0.6-3-1.2-4.5-1.8
		c-7.4-2.8-16-2.6-23.2,0.6c5.7,1,11.3,2.7,16.1,5.9c4.8,3.2,8.6,8,9.8,13.7c0.4,2.1,0.5,4.2,1.2,6.2c0.8,2.2,2.5,4,4.6,5
		c1.5,0.7,3.2,1,4.8,1.3c3,0.5,6.1,1.1,9.1,1.6c2,0.4,4,0.7,6.1,0.8C222.3,220.9,223.2,220.9,223.9,220.6"/>
	<path id="Fill-48" fill="#FFF000" d="M261.5,139.4c-0.6-0.1-1-0.6-1.1-1.2c-0.5-4.3-2.3-8.4-5.1-11.6c-0.8-0.9-2.3-0.4-2.4,0.8
		c-1.2,9.2-9.4,22.9-19.9,23.1c-2.6,0.1-5.1-0.6-7.7-0.6c-6.3,0.1-9.3,5.4-7.1,11.1c1.7,4.4,4.4,8.5,7.9,11.7c1,0.9,2.2,1.8,3.5,2.2
		c3,0.9,6.1-0.9,9.2-1.9c2.3-0.8,5.6-1.4,8-0.8c5,1.3-0.7,5.4-2.5,6.6c-0.5,0.4-1.1,0.8-1.2,1.4c-0.2,1,0.9,1.9,1.9,2
		c2.7,0.3,6.5-1.3,8.9-2.4c3.2-1.4,6.1-3.4,8.8-5.5c4.8-3.6,8.6-8.3,12.5-12.8c6.3-7.4,4-18.4,1.3-27c-1-3-2.7-6.5-5.4-7.7
		c-1-0.4-2,0.3-2,1.4c0.2,3.8-0.4,7.6-1.8,11.1c-0.3,0.6-0.9,1-1.6,0.9L261.5,139.4z"/>
	<path id="Fill-50" fill="#4D4D4D" d="M232.7,160c0.2-2-0.7-4.1-2.2-5.5c-1.9,0.5-3.8,1.2-5.7,1.9c-0.2,0.5,0.1,1.1,0.5,1.4
		s1,0.4,1.5,0.5C228.8,158.8,230.8,159.4,232.7,160"/>
	<path id="Fill-52" fill="#4D4D4D" d="M254.8,149.3c-0.7,0.4-1.5,0.8-2.2,1.2c-0.9,0-1.7-0.3-2.4-0.9c-1.2-1.1-1.2-3.3-0.9-4.7
		c0.5-2.1,2.6-4.4,5-3c1.7,1.1,1.7,2.9,1.2,4.6C255.4,147.2,255.2,148.8,254.8,149.3 M253.6,140.5c-2.8-0.1-5.3,1.9-6,4.6
		c-0.8,3.3,0.8,6.3,4.3,6.4c1.2,0,2.6-0.2,3.6-0.9c1.3-0.9,1.4-2.9,1.8-4.3C258.1,143.4,256.9,140.6,253.6,140.5"/>
	<path id="Fill-54" fill="#4D4D4D" d="M268.3,149.6c0,0.6-0.1,1.3-0.5,1.8c-0.4,0.5-1.1,0.8-1.6,0.5c0.1-1.2,0.2-2.5,0.3-3.7
		c0.2-0.5,1-0.6,1.3-0.2C268.2,148.4,268.3,149,268.3,149.6"/>
	<path id="Fill-56" fill="#FFF000" d="M150.6,184.4c1-5-1.5-10-3.9-14.5c-3.8-7-6.1-13.1-8.2-20.5c-1-3.5-6.8-13.4-12-8.4
		c-6.7,6.3,15.8,35.6,19.9,41C147.4,183.3,148.9,184.8,150.6,184.4"/>
</g>
</svg>
