<?xml version="1.0" encoding="UTF-8" standalone="no"?>
<!DOCTYPE svg PUBLIC "-//W3C//DTD SVG 1.1//EN" "http://www.w3.org/Graphics/SVG/1.1/DTD/svg11.dtd">
<svg width="100%" height="100%" viewBox="0 0 980 648" version="1.1" xmlns="http://www.w3.org/2000/svg" xmlns:xlink="http://www.w3.org/1999/xlink" xml:space="preserve" style="fill-rule:evenodd;clip-rule:evenodd;stroke-linejoin:round;stroke-miterlimit:1.41421;">
    <g id="Layer_1">
        <g style="opacity: 0;">
            <g>
                <path id="box-back" d="M223.82,296.14C219.72,295.14 215.63,294.14 211.54,292.7C202.37,289.46 194.64,282.96 185.67,279.23C173.37,274.12 160.12,271.85 147.55,267.31C138.99,264.22 129.12,255.51 120.55,254.45C136.43,245.29 157.37,239.94 175.5,237.71C194.7,235.35 213.14,229.59 232.34,225.98C256.26,221.49 279.58,214.44 303.34,209.03C326.65,203.71 350.28,201.71 373.4,195.78C401.4,188.6 428.12,180.84 455.65,171.68C474.26,165.48 492.79,161.61 511.73,156.82C532.57,151.55 552.95,144.58 573.81,139.36C592.81,134.6 603.87,140.68 622.13,146.36C646.71,153.99 671.54,159.44 695.82,168.24C723.65,178.34 751.37,187.93 779.56,196.81C804.56,204.68 835.56,208.74 858.33,220.87C855.03,228.71 832.48,234.72 824.6,237.49C799.98,246.15 775.05,254.12 749.6,260.07C728.41,265.07 708.6,272.22 687.38,276.74C633.18,288.25 579.87,303.99 527.26,321.22C500.14,330.1 473.19,339.66 445.94,348.03C430.03,352.92 397.64,373.03 381.44,369.3C369.99,366.64 352.92,349.82 341.57,343.61C307.68,325.08 271.7,313.86 235.57,299.7C231.734,298.261 227.809,297.072 223.82,296.14Z" style="fill:rgb(225,150,0);fill-rule:nonzero;"/>
            </g>
        </g>
        <g>
            <path d="M324.33,576.05C323.75,569.89 329.33,565.05 334.66,561.83C359.76,546.56 389.51,541.38 418.48,536.48C460.26,529.42 502.41,522.34 544.76,524.03C564.49,524.82 584.09,527.51 603.76,529.71C690.6,539.43 779.71,539.76 862.45,567.83C871.37,570.83 882.14,577.98 879.03,586.83C876.74,593.36 868.46,595.06 861.57,595.73C713.57,610.13 564.85,624.55 416.48,615.11C384.77,613.11 349.89,608.42 328.9,584.57C326.69,582.15 324.64,579.32 324.33,576.05Z" style="fill-opacity:0.0980392;fill-rule:nonzero;"/>
            <path d="M544.94,22.81C544.06,18.15 542.94,13.53 541.77,8.88C541.33,7.101 539.72,5.84 537.887,5.84C536.746,5.84 535.659,6.328 534.9,7.18C522.5,21 510.55,35.59 504.26,53C503.02,56.42 501.89,60.12 499.09,62.45C497.058,63.944 494.706,64.943 492.22,65.37C485.875,66.817 479.358,67.366 472.86,67C471.395,67.065 469.95,66.643 468.75,65.8C467.52,64.73 467.22,62.97 466.97,61.36C463.72,39.74 457.57,16.76 442.18,1.83C441.437,1.125 440.451,0.732 439.427,0.732C437.572,0.732 435.948,2.023 435.53,3.83C429.78,27.72 425.1,52.77 421.64,77C418.05,102.14 414.34,127.26 409.84,152.25C405.71,175.19 399.99,197.36 399.35,220.65C398.88,237.4 406.06,258.84 424.74,261.38C438.52,263.25 452.07,254.24 465.68,252.69C480,251 494,256.3 507.86,260.1C519.91,263.41 537.06,267.28 547.5,258.8C556.74,251.29 561.5,235.8 562.19,224.43C562.59,217.3 561.61,210.18 560.63,203.11C558.58,188.35 553.41,174.27 551.53,159.56C549.652,143.774 548.651,127.897 548.53,112C548.29,97.27 548.41,82.55 548.03,67.82C547.77,57.91 546.74,47.95 546.63,38.06C546.517,32.937 545.951,27.834 544.94,22.81Z" style="fill:rgb(78,145,255);fill-rule:nonzero;"/>
            <path d="M432.56,75.15C433.11,59.15 433.64,43.15 435.86,27.31C436.2,24.9 436.86,0.5 437.86,0C433.04,2.64 431.49,8.44 430.37,13.47C417.88,69.41 414.37,127.02 402.53,183.1C400.26,193.87 397.67,204.65 397.14,215.65C396.61,226.65 398.3,238.05 404.04,247.45C408.04,254.02 415.53,259.83 422.91,257.63C430.02,255.51 433.2,247.11 433.55,239.7C434.32,223.09 424.06,206.06 430.98,190.15C434.11,182.96 439.81,175.89 438.98,167.56C438.24,160.05 431.78,154.87 429.05,148.15C427,143.09 427.05,137.46 427.28,132C427.86,112.68 431.91,94.19 432.56,75.15Z" style="fill:rgb(255,240,0);fill-rule:nonzero;"/>
            <path d="M530.11,178.14C524.88,169.95 517.91,163.2 508.5,159.51C506.252,158.647 503.955,157.919 501.62,157.33C484.86,152.98 464.04,148.85 448.01,157.48C435.26,164.35 427.82,177.48 422.44,190.42C416.39,205 406.6,219.71 406.19,236C406.02,242.75 407.63,249.85 414.58,252.14C438.67,259.897 463.533,265.007 488.73,267.38C498.31,268.66 507.96,269.88 517.64,269.85C525.7,269.85 536.76,269.77 543.64,265.05C549.64,260.94 551.77,255.74 550.34,248.68C548.11,237.68 545.86,226.68 543.66,215.68C541.19,203.25 537.28,189.35 530.11,178.14Z" style="fill:rgb(77,77,77);fill-rule:nonzero;"/>
            <path d="M490.36,171.23C474.49,168.82 458.9,165.78 444.67,175.23C429.47,185.34 423.44,201.23 418.83,218.14C418.235,220.036 417.898,222.004 417.83,223.99C417.83,229.11 421.61,233.74 426.31,235.8C436.88,240.44 443.08,233.12 452.66,230.47C462.57,227.73 472.87,226.03 483.18,226.74C490.03,227.21 496.51,229.11 503.31,229.74C509.04,230.15 514.17,232.93 518.92,235.94C523.2,238.66 527.8,240.63 532.15,243.34C533.72,244.34 535.52,245.34 537.31,244.86C537.9,235.91 534.96,225.42 533.2,216.67C531.51,208.29 528.86,199.4 524.85,191.81C517.8,178.58 504.42,173.37 490.36,171.23Z" style="fill:rgb(255,100,150);fill-rule:nonzero;"/>
            <path d="M548.39,260.51C544.09,239.51 536.84,219.91 522.24,207.81C512.56,199.81 499.88,197.06 487.61,195.66C473.84,194.09 459.14,194.08 447.12,201.27C430.12,211.46 423.01,232.98 417.88,252.8C395.189,340.566 383.943,430.899 384.42,521.55C384.42,524.92 384.5,528.44 385.99,531.44C388.55,536.6 394.45,538.7 399.82,540.17C412.52,543.65 425.04,547.72 437.6,551.65C448.86,555.17 461.49,557.25 471.71,563.28C491.25,574.78 516.43,571.89 537.92,567.28C549.92,564.71 560.13,561.49 570.45,554.78C582.45,546.96 587.63,527.06 588.96,513.78C591.32,490.21 588.41,467.78 584.07,444.7C581.19,429.35 577.94,414.21 574.29,398.7C568.51,374.23 561.89,349.92 557.48,325.14C554.22,306.8 553,282.84 548.39,260.51Z" style="fill:rgb(77,77,77);fill-rule:nonzero;"/>
            <path d="M515.54,262.54C514.04,244.87 511.9,227.25 508.96,209.47C506.51,194.62 495.56,194.18 481.76,192.21C466.57,190.04 450.07,190.35 437.05,199.51C418.34,212.67 411.05,231.21 405.44,252.8C385.5,329.8 372.75,410.63 372.28,490.3C372.19,505.02 368.91,521.14 372.28,535.69C375.65,550.09 391.72,561.3 405.07,566.16C424.64,573.27 446.07,572.6 466.17,568.61C488.31,564.21 499.17,550.01 511.05,532.28C522.74,514.83 520.05,492.38 519.79,472.28C519.13,421.82 518.93,371.36 518.24,320.9C518,301.21 517.17,281.85 515.54,262.54Z" style="fill:rgb(255,240,0);fill-rule:nonzero;"/>
            <path d="M533.26,263.15C532.42,257.29 531.5,251.443 530.5,245.61C528.38,233.26 525.73,224.48 520.09,213.53C518.01,209.53 515.84,205.33 512.53,202.42C509.22,199.51 504.84,198 500.6,197C482.6,192.55 461.97,189.54 446.32,201.54C429.16,214.7 422.46,233.24 417.32,254.82C405.006,306.74 396.371,359.464 391.48,412.6C388.947,440.053 387.403,467.58 386.85,495.18C386.48,515.11 386.17,538.79 399.01,555.39C417.9,579.82 457.01,578.22 483.92,575.92C511.39,573.57 534.92,573.83 550.74,547.85C565.4,523.72 561.04,493.27 559.13,466.55C557.78,447.72 554.08,430.33 550.98,411.64C546.92,387.13 542.59,363 540.61,338.29C538.63,313.58 536.84,288.12 533.26,263.15Z" style="fill:rgb(78,145,255);fill-rule:nonzero;"/>
            <path d="M539.47,5.43C538.457,7.281 537.324,9.065 536.08,10.77C534.402,12.723 532.978,14.88 531.84,17.19C527.29,26.19 524.32,34.72 521.05,44.28C519.471,48.884 517.385,53.297 514.83,57.44C513.966,59.047 512.723,60.42 511.21,61.44C509.625,62.213 507.893,62.636 506.13,62.68L497.85,63.48C500.32,59.27 503.63,54.94 505.24,50.33C506.68,46.22 507.64,41.88 509.85,38C513.44,30.63 518.51,24.1 523.54,17.63C527.77,12.25 532.67,6.41 539.47,5.43Z" style="fill:rgb(255,240,0);fill-rule:nonzero;"/>
            <path d="M521.62,502.42C513.62,528.22 489.5,548.23 462.62,551.42C459.122,551.893 455.563,551.599 452.19,550.56C450.18,549.866 448.822,547.961 448.822,545.834C448.822,544.142 449.681,542.561 451.1,541.64C472.82,527.17 485.68,501.39 489.98,475.41C493.98,451.29 491.61,426.7 488.33,402.41C488.298,402.182 488.282,401.952 488.282,401.722C488.282,398.979 490.54,396.722 493.282,396.722C494.509,396.722 495.694,397.173 496.61,397.99C515.21,414.6 523.61,441.56 525.06,466.99C525.75,478.89 525.16,491 521.62,502.42Z" style="fill:rgb(77,77,77);fill-rule:nonzero;"/>
        </g>
        <g id="box-front" style="opacity: 0;">
            <g>
                <path d="M387.51,592.18C387.51,562.73 385.65,533.69 383.31,504.44C382.77,497.67 382.5,490.88 382.38,484.09C377.38,491.95 372.55,499.99 368.01,508.29C360.26,522.47 354.16,547.77 344.01,558.8C313.28,540.8 275.75,539.73 242.43,527.38C209.3,515.1 179,495.58 144.69,487.48C135.53,485.32 126.09,484.11 116.69,482.69C116.02,496.13 115.69,509.55 116.17,522.95C165.4,548.36 219.17,566.55 272.05,583.1C292.78,589.59 316.41,602.86 335.35,613.1C352.54,622.39 371.08,640.62 388.82,645.98C384.81,629.72 387.51,609.28 387.51,592.18Z" style="fill:rgb(245,210,0);fill-rule:nonzero;"/>
                <path d="M242.42,527.38C275.74,539.73 313.27,540.8 344,558.8C354.16,547.8 360.26,522.47 368,508.29C372.53,500 377.34,491.95 382.37,484.09C381.94,460.77 383.26,437.32 381.5,414.09C381,407.46 380.86,400.97 380.95,394.34C381.08,384.73 381.19,375.06 380.95,365.49C380.84,360.57 382.65,346.64 379.59,342.49C376.53,338.34 368.59,338.36 364.13,337.03C357.62,335.1 350.96,332.51 344.58,330.1C334.64,326.35 324.46,322.85 314.34,319.52C290.48,311.67 267.22,303.12 243.55,295.15C202.2,281.23 157.07,270.65 119.17,250.26C119.47,250.93 119.23,254.26 119,255.94C118.75,295.15 123.84,333.79 123.47,372.94C123.12,409.5 118.47,446.12 116.64,482.63C126.03,484.05 135.47,485.26 144.64,487.42C179,495.57 209.29,515.1 242.42,527.38Z" style="fill:rgb(220,180,0);fill-rule:nonzero;"/>
                <path d="M525.14,573.44C512.38,576.72 499.33,579.51 487.23,584.44C483.9,585.8 478.94,589.61 475.52,589.63C467.71,589.68 463.67,580.14 458.35,573.94C446.67,560.34 433.6,547.84 421.57,534.45C406.97,518.21 394.46,499.59 381.57,481.58C383.13,502.15 384.51,522.71 384.52,543.42C384.52,573.48 379.24,619.6 388.83,647.73C408.22,641.36 428.37,634.19 449.38,633.24C509.29,630.54 570.93,612.61 630.14,603.24C673.14,596.44 713.96,581.72 755.81,570.6C794.81,560.24 833.64,540.31 874.81,541.38C874.11,522.66 876.81,503.53 875.31,484.08C874.92,479.08 874.49,474.08 874.06,469.08C822.18,482.92 770.39,498.87 719.39,515.62C655.4,536.63 590.37,556.66 525.14,573.44Z" style="fill:rgb(245,180,0);fill-rule:nonzero;"/>
                <path d="M866.82,307.1C865.38,290.52 864.43,273.8 862.6,257.26C861.6,247.89 862.35,238.77 861.89,229.46C861.735,225.767 861.307,222.09 860.61,218.46C855.61,220.1 850.54,220.9 845.42,222.46C835.93,225.29 826.72,228.79 817.33,231.86C781.65,243.53 744.56,251.23 707.92,260.31C648,275.18 588.26,290.7 528.42,305.85C489.08,315.85 449.13,322.92 409.85,332.85C403.53,334.45 396.92,335.03 390.52,336.25C381.4,337.99 377.75,337.76 377.65,347.53C377.27,385.6 377.2,424.45 380.09,462.43C380.577,468.81 381.067,475.183 381.56,481.55C394.45,499.55 406.96,518.18 421.56,534.42C433.56,547.81 446.66,560.31 458.34,573.91C463.66,580.1 467.71,589.65 475.51,589.6C478.92,589.6 483.89,585.77 487.22,584.41C499.32,579.48 512.37,576.69 525.13,573.41C590.36,556.63 655.4,536.6 719.37,515.59C770.37,498.84 822.17,482.89 874.04,469.05C872.42,450.56 870.62,432.05 869.78,413.52C868.19,378.17 869.94,342.86 866.82,307.1Z" style="fill:rgb(210,150,0);fill-rule:nonzero;"/>
                <path d="M378.22,338.72C380.22,339.72 382.22,340.64 384.22,341.48C379.32,355.59 370.91,369.76 363.81,382.99C352.9,403.32 346.92,426.43 336.68,447.2C333.68,453.2 300.96,519.84 300.68,519.67C277.16,506.13 254.1,492.77 228.08,483.9C152.29,458.08 78,428.68 0,410.41C20.2,386.23 37.76,359.86 56.86,334.51C77.27,307.43 94.65,275.34 116.52,250.18C129.68,262.51 157.43,267.64 174.98,274.51C201.42,284.87 227.31,291.76 254.48,300.01C282.4,308.49 310.21,316.75 338.05,325.13C345.57,327.39 353.45,328.22 360.84,330.67C366.92,332.7 372.5,335.88 378.22,338.72Z" style="fill:rgb(245,210,0);fill-rule:nonzero;"/>
                <path d="M377.83,340.55C377.163,340.69 376.447,340.8 375.68,340.88C381.68,355.06 395.29,366.56 404.23,379.15C420.06,401.43 439.95,419.71 456.5,442.09C471.3,462.09 506.61,519.92 531.44,523.7C546.22,525.95 569.26,509.42 581.95,504.25C635.15,482.55 691.54,466.86 746.21,449.35C818.47,426.21 889.1,397.6 961.21,374.81C973.08,371.06 979.88,372.47 979.06,362.28C977.96,348.63 947.86,322.38 938.49,313.63C920.64,296.97 906.49,274.33 890.4,255.71C882.77,246.86 875.6,238.03 868.82,228.5C867.82,227.14 862.69,217.27 861.16,216.7C857.57,215.37 848.84,219.22 845.38,220.36C824.674,227.303 803.573,233.01 782.19,237.45C756.96,242.71 731.57,247.1 706.19,251.77C660.1,260.3 614.83,273 569.86,286.44C526.6,299.33 482.62,306.18 439,318.33C426.43,321.83 411.83,323.92 399.95,329.33C392.27,332.78 386.41,338.83 377.83,340.55Z" style="fill:rgb(245,180,0);fill-rule:nonzero;"/>
            </g>
        </g>
        <g id="cage" style="opacity: 0;">
            <g transform="matrix(1,0,0,1,-60.0145,-144.732)" >
                <path d="M355.83,262.41C351.05,366.41 347.917,470.497 346.43,574.67C346.017,603.85 345.733,633.033 345.58,662.22C345.58,670.08 360.09,673.55 360.14,665.06C360.7,560.92 362.907,456.807 366.76,352.72C367.84,323.553 369.053,294.393 370.4,265.24C370.76,257.36 356.23,253.87 355.84,262.4L355.83,262.41Z" style="fill:rgb(204,204,204);fill-rule:nonzero;"/>
                <path d="M303.87,183.09C352.61,173.64 400.18,158.92 448.61,148.09C473.24,142.59 497.73,136.46 522.55,131.82C547.37,127.18 572.04,122.69 596.75,117.82C621.16,113.04 645.59,110.06 670.32,107.57C681.62,106.43 692.85,105.31 704,103.13C711.86,101.6 723.1,98.13 730.63,100.03C735.63,101.3 740.71,104.74 745.4,106.83C751.12,109.38 756.86,111.83 762.62,114.32C773.22,118.85 783.86,123.32 794.44,127.88C815.72,137.09 836.25,147.81 857.44,157.11C869.76,162.51 881.59,168.38 893.31,174.97C904.72,181.39 916.86,186.38 929.06,191.07C940.16,195.34 952.06,198.92 962.5,204.7C969.3,208.47 976.6,214 984.75,213.14L985.58,201.03C960.49,206.36 936.71,215.96 912.16,223.15C887.22,230.45 861.45,234.82 835.9,239.33C809.43,244.01 783.23,249.21 757.1,255.53C732.56,261.47 707.3,262.99 682.2,264.82C656.79,266.66 631.38,268.93 606.78,275.92C594.51,279.41 582.45,283.58 570.16,286.92C561.97,289.18 553.74,290.99 545.61,293.44C541.96,294.54 538.29,295.61 534.56,296.39C530.63,297.21 530.23,297.39 527.11,295.61C515.95,289.07 504.76,282.61 493.66,275.94C471.92,262.94 450.28,249.76 428.19,237.37C415.57,230.29 402.8,223.46 389.82,217.05C377.48,210.96 364.82,205.51 352.92,198.59C344.16,193.441 335.721,187.764 327.65,181.59C321.12,176.66 313.35,170.03 304.65,170.92C297,171.71 294.1,184.03 303.82,183.03C300.9,183.33 303.61,183.31 304.9,183.9C306.536,184.705 308.111,185.631 309.61,186.67C313.21,189.01 316.61,191.67 320.04,194.24C327.697,200.073 335.746,205.372 344.13,210.1C355.07,216.34 366.59,221.36 377.89,226.89C388.97,232.32 399.89,238.06 410.71,244.01C433.17,256.37 455.12,269.64 477.11,282.83C488.18,289.47 499.26,296.09 510.42,302.56C514.32,304.82 518.55,308.2 523,309.21C526.28,309.96 529.94,309.3 533.19,308.65C540.26,307.24 546.98,304.65 553.94,302.83C565.55,299.83 577.07,296.89 588.53,293.31C600.66,289.52 612.79,285.79 625.28,283.31C637.518,281.019 649.868,279.38 662.28,278.4C687.62,276.21 713.12,275.34 738.28,271.21C751.28,269.08 763.83,265.51 776.62,262.61C789.41,259.71 802.3,257.25 815.21,254.91C844.38,249.62 873.82,245.16 902.54,237.64C930.24,230.39 956.68,219.04 984.74,213.08C992.1,211.52 995.44,199.92 985.57,200.97C988.16,200.69 986.19,200.92 985.2,200.49C984.58,200.22 983.93,200.02 983.31,199.75C981.63,199.03 980.03,198.13 978.43,197.25C975.65,195.72 972.95,194.03 970.11,192.62C959.86,187.55 948.89,183.8 938.22,179.72C926.96,175.41 915.73,170.97 905.14,165.17C895.14,159.68 885.26,154.23 874.84,149.51C864.06,144.63 853.07,140.17 842.48,134.88C832.34,129.81 822.17,124.88 811.81,120.25C790.39,110.71 768.58,102.06 747.25,92.32C742.79,90.32 738.67,87.76 733.71,87.45C728.732,87.277 723.75,87.612 718.84,88.45C708.51,89.93 698.39,92.45 688.01,93.64C663.52,96.41 638.87,98.07 614.59,102.42C590.31,106.77 565.95,112.2 541.51,116.42C516.61,120.76 492.01,126.06 467.38,131.75C440.25,138.02 413.15,144.13 386.22,151.21C359.29,158.29 332.17,165.65 304.7,171C301.29,171.66 297.56,174.78 297.38,178.46C297.2,182.14 300.66,183.71 303.87,183.09Z" style="fill:rgb(204,204,204);fill-rule:nonzero;"/>
                <path d="M297.16,179.8C297.11,220.8 293.6,261.67 294.1,302.65C294.36,323.81 296.01,344.91 297.1,366.04C298.19,387.17 298.03,408.04 297.97,429.11C297.857,471.417 297.67,513.723 297.41,556.03C297.31,577.51 297.233,598.993 297.18,620.48L297.18,643.29C297.18,645.55 296.57,649.16 297.18,651.29C297.79,653.42 300.18,654.7 301.89,655.77C309.89,660.89 319.14,664.41 327.89,668.02C337.83,672.1 347.89,675.92 357.89,679.74C388.44,691.38 417.74,706.74 447.11,721C466.11,730.26 485.17,739.56 504.29,748.67C508.14,750.5 512.88,753.88 517.06,754.57C521.46,755.3 527.47,752.9 531.8,752.06C542.107,750.06 552.41,748.06 562.71,746.06C603.99,737.907 645.207,729.43 686.36,720.63C727.36,711.83 768.06,701.63 809.7,696.13C850.87,690.68 891.28,682.33 932.05,674.59C942.35,672.59 952.67,670.81 963.05,669.23C965.28,668.89 974.75,667.17 974.81,664.06C976.06,604.55 979.65,545.13 981.54,485.64C982.48,456.11 982.42,426.58 983.14,397.05C983.89,366.61 985.43,336.21 987.14,305.81C989,272.13 991.02,238.45 992.31,204.74C992.31,204.07 978.25,205.9 978.11,209.56C975.8,269.72 971.16,329.78 969.29,389.96C968.37,419.52 968.52,449.1 967.7,478.66C966.87,508.82 965.53,538.97 964.2,569.12C962.74,602.36 961.32,635.6 960.62,668.87L972.38,663.7C943.07,668.17 914.1,674.5 885,680.15C856.58,685.67 828,689.04 799.35,693.35C770.57,697.68 742.35,704.84 713.88,711.03C684.313,717.47 654.707,723.72 625.06,729.78C592.247,736.493 559.397,743.013 526.51,749.34L530.08,749.13C481.17,726.13 433.02,701.45 383.7,679.31C361.6,669.39 337.27,663.55 316.36,651.04C311.18,647.94 311.36,646.75 311.36,640.47C311.36,626.583 311.383,612.7 311.43,598.82C311.51,571.72 311.627,544.62 311.78,517.52C312.05,462.92 314.02,407.97 310.87,353.44C309.16,323.77 307.79,294.28 308.63,264.55C309.47,234.82 311.32,204.87 311.35,174.99C311.35,174.15 297.15,176.26 297.15,179.81L297.16,179.8Z" style="fill:rgb(204,204,204);fill-rule:nonzero;"/>
                <path d="M519.13,298.57C517.75,327.38 521.69,356.03 522.44,384.79C523.21,414.11 522.26,443.55 522.08,472.88C521.727,530.16 521.033,587.433 520,644.7C519.46,677.18 519,709.7 518.77,742.16C518.77,743.9 523.15,746.36 524.38,747.23C526.541,748.527 528.767,749.712 531.05,750.78C531.78,635.22 534.48,519.69 534.81,404.13C534.9,371.77 529.81,339.57 531.38,307.19C531.46,305.51 526.95,302.95 525.77,302.12C525.29,301.79 519.11,298.29 519.1,298.57L519.13,298.57Z" style="fill:rgb(204,204,204);fill-rule:nonzero;"/>
                <path d="M399.14,358.25L394.63,617.82L393.35,691.7C393.35,693.44 398.29,695.45 399.54,696.08C400.01,696.32 406.74,699.14 406.76,698.42L411.27,438.85L412.55,365C412.55,363.26 407.61,361.25 406.36,360.62C405.89,360.38 399.16,357.56 399.14,358.28L399.14,358.25Z" style="fill:rgb(204,204,204);fill-rule:nonzero;"/>
                <path d="M453.9,454C452.567,523.44 453.317,592.877 456.15,662.31C456.97,682.237 457.97,702.157 459.15,722.07C459.4,726.44 473.92,729.44 473.6,723.98C469.6,654.94 467.663,585.82 467.79,516.62C467.837,497.007 468.053,477.397 468.44,457.79C468.54,452.59 454.01,449.92 453.93,454L453.9,454Z" style="fill:rgb(204,204,204);fill-rule:nonzero;"/>
                <path d="M584.38,480C589.093,546.52 592.16,613.127 593.58,679.82C593.98,698.727 594.243,717.637 594.37,736.55C594.37,739.05 609.17,737.71 609.15,733.97C608.677,667.303 606.553,600.66 602.78,534.04C601.707,515.16 600.5,496.287 599.16,477.42C598.97,474.67 584.16,476.47 584.38,480L584.38,480Z" style="fill:rgb(204,204,204);fill-rule:nonzero;"/>
                <path d="M655.87,539.66C654.154,599.648 655.793,659.685 660.78,719.49C661.01,722.29 675.96,721.72 675.78,719.57C670.793,659.765 669.154,599.728 670.87,539.74C670.94,537.37 655.94,537.05 655.87,539.66Z" style="fill:rgb(204,204,204);fill-rule:nonzero;"/>
                <path d="M746.45,365.49C750.057,450.357 751.787,535.273 751.64,620.24C751.593,644.127 751.397,668.017 751.05,691.91C751.276,695.637 753.26,699.044 756.39,701.08C759.16,702.67 761.12,701.43 761.17,698.3C762.383,613.367 761.717,528.437 759.17,443.51C758.45,419.63 757.58,395.757 756.56,371.89C756.302,368.172 754.326,364.779 751.22,362.72C748.59,361.21 746.31,362.3 746.44,365.5L746.45,365.49Z" style="fill:rgb(204,204,204);fill-rule:nonzero;"/>
                <path d="M814.9,288.63L817.32,595.55L818.01,683.24C818.07,691.13 832.23,695.04 832.16,685.99L829.74,379.07L829,291.38C828.94,283.49 814.78,279.58 814.85,288.63L814.9,288.63Z" style="fill:rgb(204,204,204);fill-rule:nonzero;"/>
                <path d="M884.73,252.84C888.91,361.867 891.803,470.92 893.41,580C893.85,610.6 894.183,641.2 894.41,671.8C894.47,679.47 909.41,680.48 909.41,672.89C908.57,563.79 906.417,454.713 902.95,345.66C901.977,315.073 900.897,284.49 899.71,253.91C899.41,246.25 884.46,245.28 884.71,252.82L884.73,252.84Z" style="fill:rgb(204,204,204);fill-rule:nonzero;"/>
                <path d="M527.25,185.52C591.477,172.553 655.143,157.187 718.25,139.42C736.357,134.313 754.407,129.013 772.4,123.52C774.98,122.73 778.77,120.82 777.31,117.52C775.99,114.52 770.59,113.95 767.92,114.77C705.253,133.897 641.92,150.65 577.92,165.03C559.567,169.15 541.167,173.067 522.72,176.78C520.05,177.32 516.42,179.65 517.81,182.78C519.2,185.91 524.43,186.09 527.2,185.53L527.25,185.52Z" style="fill:rgb(204,204,204);fill-rule:nonzero;"/>
                <path d="M656.24,189.51C681.45,174.84 710.75,172.17 738.89,167.03C769.47,161.44 797.7,149.59 826.33,137.89C827.78,137.3 821.51,135.96 821.24,135.89C818.48,135.52 814.67,134.89 811.97,136C797.41,141.95 782.91,148.12 768.11,153.45C753.35,158.683 738.167,162.637 722.73,165.27C695.16,170.12 666.53,173.27 641.88,187.62C640.45,188.45 646.66,189.55 646.97,189.62C649.39,189.95 653.97,190.85 656.24,189.51L656.24,189.51Z" style="fill:rgb(204,204,204);fill-rule:nonzero;"/>
                <path d="M757.66,209.42C800.827,195.42 844.573,183.477 888.9,173.59C891.11,173.1 886.08,169.21 885.65,168.9C883.78,167.52 879.76,164.5 877.15,165.09C832.87,174.99 789.123,186.933 745.91,200.92C743.76,201.62 748.62,205.21 749.16,205.61C750.84,206.85 755.26,210.2 757.66,209.42L757.66,209.42Z" style="fill:rgb(204,204,204);fill-rule:nonzero;"/>
            </g>
        </g>
    </g>
</svg>
