<?xml version="1.0" encoding="utf-8"?>
<svg version="1.1" xmlns="http://www.w3.org/2000/svg" xmlns:xlink="http://www.w3.org/1999/xlink" x="0px" y="0px"
	 viewBox="0 0 612 446" style="enable-background:new 0 0 612 446;" xml:space="preserve">
<g id="Layer_1">
	<g style="opacity:0;">
		<g>
			<path id="box-back" style="fill:#E19600;" d="M139.773,223.102c-2.56-0.624-5.115-1.249-7.669-2.148
				c-5.727-2.023-10.554-6.083-16.156-8.412c-7.681-3.191-15.956-4.609-23.806-7.444c-5.346-1.93-11.509-7.369-16.861-8.031
				c9.917-5.72,22.994-9.061,34.316-10.454c11.99-1.474,23.506-5.071,35.496-7.325c14.938-2.804,29.501-7.207,44.339-10.585
				c14.557-3.322,29.314-4.571,43.752-8.274c17.486-4.484,34.172-9.33,51.364-15.05c11.622-3.872,23.194-6.289,35.021-9.28
				c13.014-3.291,25.741-7.644,38.768-10.904c11.865-2.973,18.772,0.824,30.175,4.371c15.35,4.765,30.856,8.168,46.019,13.664
				c17.38,6.307,34.69,12.296,52.295,17.842c15.612,4.915,34.971,7.45,49.191,15.025c-2.061,4.896-16.143,8.649-21.064,10.379
				c-15.375,5.408-30.943,10.385-46.837,14.101c-13.233,3.122-25.604,7.588-38.856,10.41c-33.847,7.188-67.139,17.017-99.993,27.777
				c-16.936,5.545-33.766,11.516-50.784,16.743c-9.936,3.054-30.163,15.612-40.28,13.283c-7.15-1.661-17.81-12.165-24.898-16.043
				c-21.164-11.572-43.633-18.579-66.196-27.421C144.716,224.426,142.264,223.684,139.773,223.102z"/>
		</g>
	</g>
	<g>
		<path style="fill-opacity:0.098;" d="M202.541,397.903c-0.362-3.847,3.122-6.869,6.451-8.88
			c15.675-9.536,34.253-12.771,52.345-15.831c26.091-4.409,52.413-8.83,78.861-7.775c12.321,0.493,24.561,2.173,36.845,3.547
			c54.231,6.07,109.879,6.276,161.549,23.806c5.57,1.873,12.296,6.339,10.354,11.865c-1.43,4.078-6.601,5.14-10.904,5.558
			c-92.424,8.993-185.299,17.998-277.954,12.103c-19.803-1.249-41.585-4.178-54.693-19.072
			C204.015,401.712,202.734,399.945,202.541,397.903z"/>
		<path style="fill:#4E91FF;" d="M340.309,52.41c-0.55-2.91-1.249-5.795-1.98-8.699c-0.275-1.111-1.28-1.898-2.425-1.898
			c-0.713,0-1.391,0.305-1.865,0.837c-7.744,8.63-15.206,17.742-19.134,28.614c-0.774,2.136-1.48,4.446-3.229,5.901
			c-1.269,0.933-2.738,1.557-4.29,1.824c-3.962,0.904-8.032,1.246-12.09,1.018c-0.915,0.041-1.817-0.223-2.567-0.749
			c-0.768-0.668-0.955-1.767-1.112-2.773c-2.03-13.501-5.87-27.852-15.481-37.176c-0.464-0.44-1.08-0.686-1.719-0.686
			c-1.158,0-2.173,0.806-2.434,1.935c-3.591,14.919-6.513,30.563-8.674,45.694c-2.242,15.7-4.559,31.387-7.369,46.993
			c-2.579,14.326-6.151,28.171-6.551,42.715c-0.294,10.46,4.19,23.849,15.856,25.435c8.605,1.168,17.067-4.459,25.567-5.427
			c8.943-1.055,17.686,2.254,26.341,4.627c7.525,2.067,18.235,4.484,24.755-0.812c5.77-4.69,8.743-14.363,9.174-21.464
			c0.25-4.453-0.362-8.899-0.974-13.314c-1.28-9.217-4.509-18.01-5.683-27.197c-1.173-9.858-1.798-19.773-1.873-29.701
			c-0.15-9.199-0.075-18.391-0.312-27.59c-0.162-6.189-0.806-12.409-0.874-18.585C341.294,58.734,340.941,55.547,340.309,52.41z"/>
		<path style="fill:#FFF000;" d="M270.129,85.096c0.343-9.992,0.674-19.984,2.061-29.876c0.212-1.505,0.625-16.743,1.249-17.055
			c-3.01,1.649-3.978,5.271-4.677,8.412c-7.8,34.934-9.992,70.911-17.386,105.932c-1.418,6.726-3.035,13.458-3.366,20.327
			c-0.331,6.869,0.724,13.989,4.309,19.859c2.498,4.103,7.175,7.731,11.784,6.357c4.44-1.324,6.426-6.57,6.645-11.197
			c0.481-10.373-5.926-21.008-1.605-30.943c1.955-4.49,5.514-8.905,4.996-14.107c-0.462-4.69-4.496-7.925-6.201-12.121
			c-1.28-3.16-1.249-6.676-1.105-10.086C267.194,108.533,269.723,96.986,270.129,85.096z"/>
		<path style="fill:#4D4D4D;" d="M331.048,149.412c-3.266-5.115-7.619-9.33-13.495-11.634c-1.404-0.539-2.838-0.994-4.297-1.361
			c-10.466-2.717-23.468-5.296-33.479,0.094c-7.962,4.29-12.608,12.49-15.968,20.571c-3.778,9.105-9.892,18.291-10.148,28.464
			c-0.106,4.215,0.899,8.649,5.239,10.079c15.044,4.844,30.571,8.035,46.306,9.517c5.983,0.799,12.009,1.561,18.054,1.542
			c5.033,0,11.94-0.05,16.237-2.998c3.747-2.567,5.077-5.814,4.184-10.223c-1.393-6.869-2.798-13.739-4.172-20.608
			C337.968,165.093,335.526,156.412,331.048,149.412z"/>
		<path style="fill:#FF6496;" d="M306.225,145.097c-9.911-1.505-19.646-3.403-28.533,2.498
			c-9.492,6.314-13.258,16.237-16.137,26.797c-0.372,1.184-0.582,2.413-0.624,3.653c0,3.197,2.361,6.089,5.296,7.375
			c6.601,2.898,10.473-1.674,16.455-3.329c6.189-1.711,12.621-2.773,19.059-2.329c4.278,0.294,8.324,1.48,12.571,1.873
			c3.578,0.256,6.782,1.992,9.748,3.872c2.673,1.699,5.545,2.929,8.262,4.621c0.98,0.624,2.105,1.249,3.222,0.949
			c0.368-5.589-1.468-12.14-2.567-17.604c-1.055-5.233-2.71-10.785-5.215-15.525C323.361,149.687,315.005,146.433,306.225,145.097z"
			/>
		<path style="fill:#4D4D4D;" d="M342.464,200.851c-2.685-13.114-7.213-25.354-16.33-32.911c-6.045-4.996-13.964-6.713-21.626-7.588
			c-8.599-0.98-17.779-0.987-25.286,3.503c-10.616,6.364-15.056,19.803-18.26,32.18c-14.17,54.809-21.193,111.221-20.895,167.832
			c0,2.105,0.05,4.303,0.98,6.176c1.599,3.222,5.283,4.534,8.637,5.452c7.931,2.173,15.75,4.715,23.593,7.169
			c7.032,2.198,14.919,3.497,21.301,7.263c12.203,7.182,27.927,5.377,41.347,2.498c7.494-1.605,13.87-3.616,20.315-7.806
			c7.494-4.884,10.729-17.311,11.559-25.604c1.474-14.719-0.344-28.727-3.054-43.14c-1.799-9.586-3.828-19.041-6.108-28.727
			c-3.61-15.281-7.744-30.463-10.498-45.937C346.105,229.759,345.343,214.796,342.464,200.851z"/>
		<path style="fill:#FFF000;" d="M321.949,202.119c-0.937-11.035-2.273-22.038-4.109-33.142c-1.53-9.274-8.368-9.548-16.986-10.779
			c-9.486-1.355-19.79-1.162-27.921,4.559c-11.684,8.218-16.237,19.796-19.74,33.279c-12.452,48.086-20.415,98.563-20.708,148.316
			c-0.056,9.192-2.105,19.259,0,28.346c2.105,8.993,12.14,15.993,20.477,19.028c12.221,4.44,25.604,4.022,38.156,1.53
			c13.826-2.748,20.608-11.615,28.027-22.688c7.3-10.897,5.62-24.917,5.458-37.469c-0.412-31.512-0.537-63.023-0.968-94.535
			C323.486,226.268,322.967,214.178,321.949,202.119z"/>
		<path style="fill:#4E91FF;" d="M333.015,202.5c-0.525-3.66-1.099-7.311-1.724-10.954c-1.324-7.712-2.979-13.195-6.501-20.034
			c-1.299-2.498-2.654-5.121-4.721-6.938c-2.067-1.817-4.802-2.76-7.45-3.385c-11.241-2.779-24.124-4.659-33.897,2.835
			c-10.716,8.218-14.9,19.796-18.11,33.273c-7.69,32.423-13.082,65.349-16.137,98.532c-1.582,17.144-2.546,34.334-2.891,51.57
			c-0.231,12.446-0.425,27.234,7.594,37.601c11.797,15.256,36.22,14.257,53.025,12.821c17.155-1.468,31.849-1.305,41.728-17.529
			c9.155-15.069,6.432-34.085,5.24-50.771c-0.843-11.759-3.154-22.619-5.09-34.291c-2.535-15.306-5.239-30.375-6.476-45.806
			C336.369,233.993,335.251,218.093,333.015,202.5z"/>
		<path style="fill:#FFF000;" d="M336.893,41.556c-0.633,1.156-1.34,2.27-2.117,3.335c-1.048,1.22-1.937,2.567-2.648,4.009
			c-2.841,5.62-4.696,10.947-6.738,16.917c-0.986,2.875-2.289,5.631-3.884,8.218c-0.54,1.004-1.316,1.861-2.261,2.498
			c-0.99,0.483-2.071,0.747-3.172,0.774l-5.171,0.5c1.542-2.629,3.61-5.333,4.615-8.212c0.899-2.567,1.499-5.277,2.879-7.7
			c2.242-4.602,5.408-8.68,8.549-12.721C329.587,45.815,332.647,42.168,336.893,41.556z"/>
		<path style="fill:#4D4D4D;" d="M325.746,351.921c-4.996,16.112-20.059,28.608-36.845,30.6c-2.184,0.295-4.407,0.112-6.513-0.537
			c-1.255-0.433-2.103-1.623-2.103-2.951c0-1.057,0.536-2.044,1.423-2.619c13.564-9.036,21.595-25.136,24.28-41.36
			c2.498-15.063,1.018-30.419-1.03-45.588c-0.02-0.142-0.03-0.286-0.03-0.43c0-1.713,1.41-3.122,3.122-3.122
			c0.766,0,1.506,0.282,2.078,0.792c11.616,10.373,16.861,27.209,17.767,43.09C328.326,337.227,327.957,344.79,325.746,351.921z"/>
	</g>
	<g id="box-front" style="opacity:0;">
		<g>
			<path style="fill:#F5D200;" d="M241.996,407.976c0-18.391-1.162-36.526-2.623-54.793c-0.337-4.228-0.506-8.468-0.581-12.708
				c-3.122,4.908-6.139,9.929-8.974,15.113c-4.84,8.855-8.649,24.655-14.988,31.543c-19.191-11.241-42.628-11.909-63.436-19.621
				c-20.689-7.669-39.611-19.859-61.038-24.917c-5.72-1.349-11.616-2.105-17.486-2.991c-0.418,8.393-0.624,16.774-0.325,25.142
				c30.744,15.868,64.322,27.228,97.345,37.563c12.946,4.053,27.702,12.34,39.53,18.735c10.735,5.802,22.313,17.186,33.391,20.533
				C240.31,431.419,241.996,418.654,241.996,407.976z"/>
			<path style="fill:#DCB400;" d="M151.389,367.509c20.808,7.712,44.245,8.381,63.436,19.621
				c6.345-6.869,10.154-22.688,14.988-31.543c2.829-5.177,5.833-10.204,8.974-15.113c-0.269-14.563,0.556-29.207-0.543-43.714
				c-0.312-4.14-0.4-8.193-0.343-12.334c0.081-6.001,0.15-12.04,0-18.017c-0.069-3.072,1.062-11.772-0.849-14.363
				c-1.911-2.592-6.869-2.579-9.655-3.41c-4.065-1.205-8.225-2.823-12.209-4.328c-6.207-2.342-12.565-4.528-18.885-6.607
				c-14.9-4.902-29.426-10.242-44.208-15.219c-25.823-8.693-54.006-15.3-77.674-28.033c0.187,0.418,0.037,2.498-0.106,3.547
				c-0.156,24.486,3.023,48.617,2.791,73.065c-0.219,22.831-3.122,45.7-4.265,68.5c5.864,0.887,11.759,1.642,17.486,2.991
				C111.784,347.644,130.699,359.84,151.389,367.509z"/>
			<path style="fill:#F5B400;" d="M327.945,396.273c-7.969,2.048-16.118,3.791-23.674,6.869c-2.08,0.849-5.177,3.229-7.313,3.241
				c-4.877,0.031-7.4-5.926-10.722-9.798c-7.294-8.493-15.456-16.299-22.969-24.661c-9.118-10.142-16.93-21.77-24.98-33.017
				c0.974,12.846,1.836,25.685,1.842,38.618c0,18.772-3.297,47.574,2.692,65.141c12.109-3.978,24.692-8.456,37.813-9.049
				c37.413-1.686,75.907-12.883,112.883-18.735c26.853-4.247,52.345-13.439,78.48-20.383c24.355-6.47,48.604-18.916,74.314-18.248
				c-0.437-11.69,1.249-23.637,0.312-35.783c-0.244-3.122-0.512-6.245-0.781-9.367c-32.399,8.643-64.741,18.604-96.59,29.064
				C409.291,373.285,368.68,385.794,327.945,396.273z"/>
			<path style="fill:#D29600;" d="M541.32,229.946c-0.899-10.354-1.493-20.796-2.635-31.125c-0.625-5.851-0.156-11.547-0.443-17.361
				c-0.097-2.306-0.364-4.602-0.799-6.869c-3.122,1.024-6.289,1.524-9.486,2.498c-5.926,1.767-11.678,3.953-17.542,5.87
				c-22.282,7.288-45.444,12.096-68.325,17.767c-37.419,9.286-74.726,18.978-112.096,28.439
				c-24.567,6.245-49.516,10.66-74.046,16.861c-3.947,0.999-8.075,1.361-12.071,2.123c-5.695,1.087-7.975,0.943-8.037,7.044
				c-0.237,23.774-0.281,48.036,1.524,71.754c0.304,3.984,0.61,7.964,0.918,11.94c8.05,11.241,15.862,22.875,24.98,33.017
				c7.494,8.362,15.675,16.168,22.969,24.661c3.322,3.866,5.851,9.829,10.723,9.798c2.13,0,5.233-2.392,7.313-3.241
				c7.556-3.079,15.706-4.821,23.674-6.869c40.735-10.479,81.352-22.987,121.301-36.108c31.849-10.46,64.198-20.421,96.59-29.064
				c-1.012-11.547-2.136-23.106-2.66-34.678C542.176,274.329,543.269,252.278,541.32,229.946z"/>
			<path style="fill:#F5D200;" d="M236.195,249.692c1.249,0.624,2.498,1.199,3.747,1.724c-3.06,8.812-8.312,17.661-12.746,25.923
				c-6.813,12.696-10.548,27.128-16.942,40.099c-1.873,3.747-22.307,45.363-22.482,45.257
				c-14.688-8.456-29.089-16.799-45.338-22.338C95.104,324.232,48.71,305.872,0,294.462c12.615-15.1,23.581-31.568,35.508-47.399
				c12.746-16.911,23.599-36.951,37.257-52.663c8.218,7.7,25.548,10.904,36.508,15.194c16.512,6.47,32.68,10.772,49.647,15.924
				c17.436,5.296,34.803,10.454,52.189,15.687c4.696,1.411,9.617,1.93,14.232,3.46C229.138,245.933,232.622,247.919,236.195,249.692
				z"/>
			<path style="fill:#F5B400;" d="M235.951,250.835c-0.417,0.087-0.864,0.156-1.343,0.206c3.747,8.855,12.246,16.037,17.829,23.899
				c9.886,13.914,22.307,25.329,32.642,39.305c9.242,12.49,31.293,48.604,46.799,50.965c9.23,1.405,23.618-8.918,31.543-12.146
				c33.223-13.551,68.438-23.35,102.579-34.284c45.126-14.451,89.233-32.317,134.265-46.549c7.413-2.342,11.659-1.461,11.147-7.825
				c-0.687-8.524-19.484-24.917-25.336-30.381c-11.147-10.404-19.984-24.542-30.032-36.17c-4.765-5.527-9.242-11.041-13.477-16.992
				c-0.625-0.849-3.828-7.013-4.784-7.369c-2.242-0.831-7.694,1.574-9.854,2.286c-12.931,4.336-26.108,7.9-39.461,10.673
				c-15.756,3.285-31.612,6.026-47.461,8.943c-28.783,5.327-57.053,13.258-85.137,21.651c-27.015,8.05-54.48,12.327-81.721,19.915
				c-7.85,2.186-16.967,3.491-24.386,6.869C244.969,245.983,241.309,249.761,235.951,250.835z"/>
		</g>
	</g>
	<g id="cage" style="opacity:0;">
		<g transform="matrix(1,0,0,1,-60.0145,-144.732)">
			<path style="fill:#CCCCCC;" d="M244.748,256.386c-2.985,64.947-4.942,129.948-5.87,195.003
				c-0.258,18.223-0.435,36.447-0.531,54.674c0,4.909,9.061,7.075,9.093,1.774c0.35-65.034,1.728-130.052,4.134-195.053
				c0.674-18.214,1.432-36.425,2.273-54.63c0.225-4.921-8.849-7.1-9.093-1.774L244.748,256.386z"/>
			<path style="fill:#CCCCCC;" d="M212.3,206.851c30.438-5.901,60.145-15.094,90.389-21.857c15.381-3.435,30.675-7.263,46.175-10.16
				c15.5-2.898,30.906-5.702,46.337-8.743c15.244-2.985,30.5-4.846,45.944-6.401c7.057-0.712,14.07-1.411,21.033-2.773
				c4.908-0.955,11.928-3.122,16.63-1.936c3.122,0.793,6.295,2.941,9.224,4.247c3.572,1.592,7.157,3.122,10.754,4.677
				c6.62,2.829,13.264,5.62,19.871,8.468c13.289,5.752,26.11,12.446,39.343,18.254c7.694,3.372,15.081,7.038,22.4,11.153
				c7.125,4.009,14.707,7.125,22.326,10.054c6.932,2.667,14.363,4.902,20.883,8.512c4.247,2.354,8.805,5.808,13.895,5.271
				l0.518-7.563c-15.668,3.329-30.519,9.324-45.85,13.814c-15.575,4.559-31.668,7.288-47.624,10.104
				c-16.53,2.923-32.892,6.17-49.21,10.117c-15.325,3.709-31.1,4.659-46.774,5.802c-15.868,1.149-31.737,2.567-47.099,6.932
				c-7.663,2.179-15.194,4.784-22.869,6.869c-5.115,1.411-10.254,2.542-15.331,4.072c-2.279,0.687-4.571,1.355-6.901,1.842
				c-2.454,0.512-2.704,0.624-4.652-0.487c-6.969-4.084-13.957-8.118-20.889-12.284c-13.576-8.118-27.09-16.349-40.885-24.087
				c-7.881-4.421-15.856-8.687-23.962-12.69c-7.706-3.803-15.612-7.207-23.044-11.528c-5.471-3.215-10.741-6.761-15.781-10.616
				c-4.078-3.079-8.93-7.219-14.363-6.663c-4.777,0.493-6.588,8.187-0.518,7.563c-1.824,0.187-0.131,0.175,0.674,0.543
				c1.022,0.503,2.005,1.081,2.941,1.73c2.248,1.461,4.371,3.122,6.513,4.727c4.782,3.643,9.808,6.952,15.044,9.904
				c6.832,3.897,14.026,7.032,21.083,10.485c6.919,3.391,13.739,6.976,20.496,10.691c14.026,7.719,27.734,16.006,41.466,24.243
				c6.913,4.147,13.832,8.281,20.802,12.321c2.436,1.411,5.077,3.522,7.856,4.153c2.048,0.468,4.334,0.056,6.364-0.35
				c4.415-0.881,8.612-2.498,12.958-3.635c7.25-1.873,14.444-3.709,21.601-5.945c7.575-2.367,15.15-4.696,22.95-6.245
				c7.642-1.431,15.355-2.454,23.106-3.066c15.825-1.368,31.749-1.911,47.461-4.49c8.118-1.33,15.956-3.56,23.943-5.371
				c7.987-1.811,16.037-3.347,24.099-4.809c18.216-3.304,36.601-6.089,54.537-10.785c17.298-4.528,33.81-11.616,51.333-15.337
				c4.596-0.974,6.682-8.218,0.518-7.563c1.617-0.175,0.387-0.031-0.231-0.3c-0.387-0.169-0.793-0.294-1.18-0.462
				c-1.049-0.45-2.048-1.012-3.047-1.561c-1.736-0.955-3.422-2.011-5.196-2.891c-6.401-3.166-13.252-5.508-19.915-8.056
				c-7.032-2.692-14.045-5.464-20.658-9.086c-6.245-3.428-12.415-6.832-18.922-9.78c-6.732-3.048-13.595-5.833-20.209-9.136
				c-6.332-3.166-12.683-6.245-19.153-9.136c-13.377-5.958-26.997-11.359-40.317-17.442c-2.785-1.249-5.358-2.848-8.456-3.041
				c-3.109-0.108-6.22,0.101-9.286,0.624c-6.451,0.924-12.771,2.498-19.253,3.241c-15.294,1.73-30.687,2.766-45.85,5.483
				c-15.163,2.717-30.375,6.108-45.638,8.743c-15.55,2.71-30.912,6.02-46.293,9.573c-16.942,3.916-33.866,7.731-50.684,12.153
				c-16.818,4.421-33.754,9.018-50.908,12.359c-2.13,0.412-4.459,2.361-4.571,4.659C208.134,206.258,210.295,207.239,212.3,206.851z
				"/>
			<path style="fill:#CCCCCC;" d="M208.109,204.797c-0.031,25.604-2.223,51.127-1.911,76.719
				c0.162,13.214,1.193,26.391,1.873,39.586s0.581,26.229,0.543,39.387c-0.071,26.42-0.187,52.84-0.35,79.26
				c-0.062,13.414-0.111,26.83-0.144,40.248v14.245c0,1.411-0.381,3.666,0,4.996c0.381,1.33,1.873,2.13,2.941,2.798
				c4.996,3.197,10.772,5.396,16.237,7.65c6.207,2.548,12.49,4.933,18.735,7.319c19.078,7.269,37.376,16.861,55.717,25.766
				c11.865,5.783,23.768,11.591,35.708,17.28c2.404,1.143,5.364,3.254,7.975,3.685c2.748,0.456,6.501-1.043,9.205-1.568
				c6.437-1.249,12.871-2.498,19.303-3.747c25.779-5.091,51.518-10.385,77.218-15.881c25.604-5.495,51.021-11.865,77.025-15.3
				c25.71-3.404,50.946-8.618,76.406-13.452c6.432-1.249,12.877-2.361,19.359-3.347c1.393-0.212,7.307-1.286,7.344-3.229
				c0.781-37.163,3.023-74.271,4.203-111.421c0.587-18.441,0.55-36.882,0.999-55.324c0.468-19.009,1.43-37.994,2.498-56.978
				c1.161-21.033,2.423-42.066,3.229-63.117c0-0.418-8.78,0.724-8.868,3.01c-1.443,37.569-4.34,75.076-5.508,112.658
				c-0.574,18.46-0.481,36.932-0.993,55.392c-0.518,18.835-1.355,37.663-2.186,56.491c-0.912,20.758-1.799,41.516-2.236,62.293
				l7.344-3.229c-18.304,2.791-36.395,6.744-54.568,10.273c-17.748,3.447-35.596,5.552-53.488,8.243
				c-17.973,2.704-35.596,7.175-53.375,11.041c-18.464,4.022-36.953,7.925-55.467,11.709c-20.491,4.192-41.006,8.264-61.543,12.215
				l2.229-0.131c-30.544-14.363-60.613-29.776-91.413-43.602c-13.801-6.195-28.995-9.842-42.053-17.654
				c-3.235-1.936-3.122-2.679-3.122-6.601c0-8.672,0.014-17.342,0.044-26.01c0.05-16.924,0.123-33.847,0.219-50.771
				c0.169-34.097,1.399-68.413-0.568-102.466c-1.068-18.529-1.923-36.945-1.399-55.511c0.525-18.566,1.68-37.27,1.699-55.929
				c0-0.525-8.868,0.793-8.868,3.01L208.109,204.797z"/>
			<path style="fill:#CCCCCC;" d="M346.727,278.968c-0.862,17.992,1.599,35.883,2.067,53.844c0.481,18.31-0.112,36.695-0.225,55.011
				c-0.22,35.771-0.654,71.537-1.299,107.3c-0.337,20.283-0.624,40.592-0.768,60.863c0,1.087,2.735,2.623,3.503,3.166
				c1.35,0.81,2.74,1.55,4.165,2.217c0.456-72.166,2.142-144.313,2.348-216.479c0.056-20.208-3.122-40.317-2.142-60.538
				c0.05-1.049-2.766-2.648-3.503-3.166c-0.3-0.206-4.159-2.392-4.165-2.217H346.727z"/>
			<path style="fill:#CCCCCC;" d="M271.795,316.237l-2.816,162.099l-0.799,46.137c0,1.087,3.085,2.342,3.866,2.735
				c0.294,0.15,4.496,1.911,4.509,1.461l2.816-162.099l0.799-46.119c0-1.087-3.085-2.342-3.866-2.735
				c-0.293-0.15-4.496-1.911-4.509-1.461V316.237z"/>
			<path style="fill:#CCCCCC;" d="M305.992,376.032c-0.832,43.365-0.364,86.727,1.405,130.087
				c0.512,12.444,1.137,24.884,1.873,37.32c0.156,2.729,9.224,4.602,9.024,1.193c-2.498-43.115-3.708-86.28-3.628-129.494
				c0.029-12.248,0.164-24.494,0.406-36.739c0.062-3.247-9.011-4.915-9.061-2.367H305.992z"/>
			<path style="fill:#CCCCCC;" d="M387.475,392.269c2.943,41.541,4.859,83.136,5.745,124.786c0.25,11.807,0.414,23.616,0.493,35.427
				c0,1.561,9.242,0.724,9.23-1.611c-0.295-41.633-1.622-83.251-3.978-124.854c-0.67-11.79-1.424-23.576-2.261-35.359
				C396.587,388.94,387.338,390.064,387.475,392.269L387.475,392.269z"/>
			<path style="fill:#CCCCCC;" d="M432.12,429.526c-1.072,37.462-0.048,74.954,3.066,112.302c0.144,1.749,9.48,1.393,9.367,0.05
				c-3.114-37.348-4.138-74.84-3.066-112.302C441.531,428.096,432.164,427.896,432.12,429.526z"/>
			<path style="fill:#CCCCCC;" d="M488.686,320.758c2.253,52.999,3.333,106.028,3.241,159.089
				c-0.029,14.917-0.152,29.836-0.368,44.757c0.141,2.328,1.38,4.455,3.335,5.727c1.73,0.993,2.954,0.219,2.985-1.736
				c0.758-53.04,0.342-106.078-1.249-159.114c-0.45-14.913-0.993-29.821-1.63-44.726c-0.161-2.322-1.395-4.441-3.335-5.727
				c-1.642-0.943-3.066-0.262-2.985,1.736L488.686,320.758z"/>
			<path style="fill:#CCCCCC;" d="M531.433,272.76l1.511,191.668l0.431,54.762c0.037,4.927,8.88,7.369,8.837,1.717L540.7,329.239
				l-0.462-54.762c-0.037-4.927-8.88-7.369-8.837-1.717H531.433z"/>
			<path style="fill:#CCCCCC;" d="M575.041,250.41c2.61,68.086,4.417,136.189,5.421,204.308c0.275,19.109,0.483,38.219,0.624,57.328
				c0.037,4.79,9.367,5.421,9.367,0.681c-0.525-68.132-1.869-136.249-4.034-204.352c-0.608-19.101-1.282-38.2-2.023-57.297
				c-0.187-4.784-9.523-5.389-9.367-0.681L575.041,250.41z"/>
			<path style="fill:#CCCCCC;" d="M351.798,208.369c40.109-8.098,79.868-17.694,119.278-28.789
				c11.308-3.189,22.58-6.499,33.816-9.929c1.611-0.493,3.978-1.686,3.066-3.747c-0.824-1.873-4.197-2.229-5.864-1.717
				c-39.135,11.945-78.686,22.407-118.653,31.387c-11.461,2.573-22.952,5.019-34.472,7.338c-1.667,0.337-3.934,1.792-3.066,3.747
				s4.134,2.067,5.864,1.717L351.798,208.369z"/>
			<path style="fill:#CCCCCC;" d="M432.351,210.861c15.743-9.161,34.041-10.829,51.614-14.039
				c19.097-3.491,36.726-10.891,54.605-18.198c0.906-0.368-3.01-1.205-3.179-1.249c-1.724-0.231-4.103-0.624-5.789,0.069
				c-9.093,3.716-18.148,7.569-27.39,10.897c-9.217,3.268-18.699,5.737-28.339,7.381c-17.217,3.029-35.096,4.996-50.49,13.957
				c-0.893,0.518,2.985,1.205,3.179,1.249C428.073,211.135,430.934,211.698,432.351,210.861L432.351,210.861z"/>
			<path style="fill:#CCCCCC;" d="M495.687,223.294c26.957-8.743,54.276-16.201,81.958-22.375c1.38-0.306-1.761-2.735-2.03-2.929
				c-1.168-0.862-3.678-2.748-5.308-2.379c-27.652,6.182-54.972,13.641-81.958,22.375c-1.343,0.437,1.692,2.679,2.03,2.929
				C491.428,221.689,494.188,223.781,495.687,223.294L495.687,223.294z"/>
		</g>
	</g>
</g>
</svg>
