<?xml version="1.0" encoding="utf-8"?>
<!-- Generator: Adobe Illustrator 18.0.0, SVG Export Plug-In . SVG Version: 6.00 Build 0)  -->
<!DOCTYPE svg PUBLIC "-//W3C//DTD SVG 1.1//EN" "http://www.w3.org/Graphics/SVG/1.1/DTD/svg11.dtd">
<svg version="1.1" xmlns="http://www.w3.org/2000/svg" xmlns:xlink="http://www.w3.org/1999/xlink" x="0px" y="0px"
	 viewBox="0 0 110 103.5" enable-background="new 0 0 110 103.5" xml:space="preserve">
<g id="Layer_1">
	<g>
		<g>
			<path fill="#FFFFFF" d="M40.2,58.1c0.9-9,5.2-17.1,12.2-22.9c6-5,13.7-7.7,21.5-7.7c2.7,0,5.4,0.3,8,0.9
				c-0.9-6.6-6.5-11.6-13.4-11.6h-6.9V15c0-8.3-6.8-15-15.2-15H35.7c-8.3,0-15,6.7-15,15v1.9h-7C6.1,16.9,0,22.8,0,30.3v40.5
				c0,7.5,6.1,13.5,13.6,13.5H49c-0.4-0.4-0.8-0.9-1.2-1.4C42,75.9,39.3,67.1,40.2,58.1z M30.2,15c0-3,2.5-5.4,5.5-5.4h10.8
				c3,0,5.4,2.4,5.4,5.4v1.9H30.2V15z"/>
			<path fill="#FFFFFF" d="M73.9,54c-1.7,0-3.3,0.6-4.7,1.7c-1.5,1.2-2.5,3-2.6,5c-0.2,2,0.4,3.9,1.6,5.4c1.4,1.7,3.5,2.7,5.7,2.7
				c1.7,0,3.3-0.6,4.7-1.7c1.5-1.2,2.5-3,2.6-5c0.2-2-0.4-3.9-1.6-5.4C78.2,55,76.1,54,73.9,54z"/>
			<path fill="#FFFFFF" d="M108.1,89.7L96.5,75.6c2.2-3.5,3.5-7.4,3.9-11.6c0.7-7.1-1.4-14-5.9-19.5c-5.1-6.2-12.6-9.7-20.6-9.7
				c-6.1,0-12.1,2.1-16.9,6c-5.5,4.5-8.9,10.9-9.6,18c-0.7,7.1,1.4,14,5.9,19.5C58.4,84.5,66,88,74,88c3.3,0,6.5-0.6,9.5-1.8
				L95,100.4c1.7,2,4.1,3.1,6.5,3.1c1.9,0,3.8-0.6,5.3-1.9C110.5,98.6,111,93.3,108.1,89.7z M62.7,70.6c-2.5-3-3.6-6.8-3.2-10.7
				c0.4-3.9,2.2-7.4,5.3-9.8c2.6-2.2,5.8-3.3,9.2-3.3c4.4,0,8.5,1.9,11.3,5.3c2.5,3,3.6,6.8,3.2,10.7c-0.4,3.9-2.2,7.4-5.3,9.8
				C80.6,74.8,77.4,76,74,76C69.6,76,65.5,74,62.7,70.6z"/>
		</g>
	</g>
</g>
<g id="Layer_2">
</g>
</svg>
