<?xml version="1.0" encoding="utf-8"?>
<!-- Generator: Adobe Illustrator 18.0.0, SVG Export Plug-In . SVG Version: 6.00 Build 0)  -->
<!DOCTYPE svg PUBLIC "-//W3C//DTD SVG 1.1//EN" "http://www.w3.org/Graphics/SVG/1.1/DTD/svg11.dtd">
<svg version="1.1" xmlns="http://www.w3.org/2000/svg" xmlns:xlink="http://www.w3.org/1999/xlink" x="0px" y="0px"
	 viewBox="0 0 110 94" enable-background="new 0 0 110 94" xml:space="preserve">
<g id="Layer_1">
	<g>
		<g>
			<path fill="#FFFFFF" d="M52.5,74.5h-4.3V45.8c0-2.2-1.7-3.9-3.9-3.9H33.6c-2.2,0-3.9,1.7-3.9,3.9v28.6h-4.3c-1,0-1.9,0.6-2.3,1.5
				c-0.4,0.9-0.3,2,0.4,2.7L35,92.2c1,1.2,2.4,1.8,3.9,1.8s3-0.7,3.9-1.8l11.5-13.6c0.6-0.8,0.8-1.8,0.4-2.7
				C54.4,75.1,53.5,74.5,52.5,74.5z"/>
			<path fill="#FFFFFF" d="M75,43.8c-1-1.2-2.4-1.8-3.9-1.8s-3,0.7-3.9,1.8L55.6,57.3c-0.6,0.8-0.8,1.8-0.4,2.7
				c0.4,0.9,1.3,1.5,2.3,1.5h4.3v28.6c0,2.2,1.7,3.9,3.9,3.9h10.6c2.2,0,3.9-1.7,3.9-3.9V61.5h4.3c1,0,1.9-0.6,2.3-1.5
				c0.4-0.9,0.3-2-0.4-2.7L75,43.8z"/>
			<path fill="#FFFFFF" d="M88,16.8c-0.8-0.1-1.5-0.5-2-1.1c-4.5-6.1-11.7-9.8-19.3-9.8c-0.5,0-1,0-1.5,0c-0.6,0-1.3-0.2-1.8-0.5
				C58.7,1.9,53.1,0,47.2,0c-10.6,0-20,6.1-24.4,15.5c-0.4,0.8-1.2,1.4-2.1,1.5C9,18.6,0,28.7,0,40.8c0,13.3,10.8,24,24,24h1v-19
				c0-4.7,3.8-8.5,8.5-8.5h10.6c4.7,0,8.5,3.8,8.5,8.5v7.6l10.8-12.7c1.9-2.2,4.6-3.4,7.5-3.4c2.9,0,5.6,1.3,7.5,3.4l11.5,13.6
				c1.8,2.1,2.2,5.1,1,7.7c-0.5,1.1-1.2,2-2.1,2.6c11.8-1.5,21-11.6,21-23.8C110,28.2,100.3,17.9,88,16.8z"/>
		</g>
	</g>
</g>
<g id="Layer_2">
</g>
</svg>
