<?xml version="1.0" encoding="utf-8"?>
<!-- Generator: Adobe Illustrator 18.0.0, SVG Export Plug-In . SVG Version: 6.00 Build 0)  -->
<!DOCTYPE svg PUBLIC "-//W3C//DTD SVG 1.1//EN" "http://www.w3.org/Graphics/SVG/1.1/DTD/svg11.dtd">
<svg version="1.1" xmlns="http://www.w3.org/2000/svg" xmlns:xlink="http://www.w3.org/1999/xlink" x="0px" y="0px"
	 viewBox="0 0 110 103.6" enable-background="new 0 0 110 103.6" xml:space="preserve">
<g id="Layer_1">
	<g>
		<g>
			<path fill="#FFFFFF" d="M55,77.3c-3,0-5.9-0.8-8.5-2.4L18.3,57.5v30c0,8.9,16.4,16.1,36.7,16.1c20.3,0,36.7-7.2,36.7-16.1v-30
				L63.5,74.9C61,76.5,58,77.3,55,77.3z"/>
			<path fill="#FFFFFF" d="M107.9,31.2L59.6,1.3C58.2,0.4,56.6,0,55,0c-1.6,0-3.2,0.4-4.6,1.3L2.1,31.2C0.8,32,0,33.4,0,34.9
				c0,1.5,0.8,2.9,2.1,3.7l48.3,29.9c1.4,0.9,3,1.3,4.6,1.3c1.6,0,3.2-0.4,4.6-1.3l48.3-29.9c1.3-0.8,2.1-2.2,2.1-3.7
				C110,33.4,109.2,32,107.9,31.2z"/>
		</g>
		<path fill="#FFFFFF" d="M105.5,99.4c0.9,0,1.7-0.4,2.3-1.1c0.6-0.7,0.8-1.6,0.6-2.5l-1.9-8.8c1.1-1,1.7-2.4,1.7-4
			c0-1.7-0.7-3.1-1.9-4.2V48.4L98.9,53v25.9c-1.2,1-1.9,2.5-1.9,4.2c0,1.6,0.7,3,1.7,4l-1.9,8.8c-0.2,0.9,0,1.8,0.6,2.5
			c0.6,0.7,1.4,1.1,2.3,1.1L105.5,99.4L105.5,99.4z"/>
	</g>
</g>
<g id="Layer_2">
</g>
</svg>
