<?xml version="1.0" encoding="utf-8"?>
<!-- Generator: Adobe Illustrator 18.0.0, SVG Export Plug-In . SVG Version: 6.00 Build 0)  -->
<!DOCTYPE svg PUBLIC "-//W3C//DTD SVG 1.1//EN" "http://www.w3.org/Graphics/SVG/1.1/DTD/svg11.dtd">
<svg version="1.1" xmlns="http://www.w3.org/2000/svg" xmlns:xlink="http://www.w3.org/1999/xlink" x="0px" y="0px"
	 viewBox="0 0 110 94.5" enable-background="new 0 0 110 94.5" xml:space="preserve">
<g id="Layer_1">
	<g>
		<g>
			<path fill="#FFFFFF" d="M69.8,72.7v20.6c0,0.4,0.2,0.8,0.6,1c0.4,0.2,0.8,0.2,1.2-0.1l7.4-5c0.9-0.6,2.1-0.6,3,0l7.4,5
				c0.4,0.2,0.8,0.3,1.2,0.1c0.4-0.2,0.6-0.6,0.6-1V72.7c-3.1,1.9-6.8,3-10.7,3C76.6,75.8,73,74.7,69.8,72.7z"/>
		</g>
		<g>
			<path fill="#FFFFFF" d="M100.3,0H9.7C4.3,0,0,4.3,0,9.7v65.1c0,5.3,4.3,9.7,9.7,9.7h54.7V68c-2.8-3.6-4.6-8.1-4.6-13
				c0-11.5,9.3-20.8,20.7-20.8s20.7,9.3,20.7,20.8c0,4.9-1.7,9.4-4.6,13v16.5h3.6c5.3,0,9.7-4.3,9.7-9.7V9.7
				C110,4.3,105.7,0,100.3,0z M49.6,51.7H11.2c-1.7,0-3.1-1.4-3.1-3.1c0-1.7,1.4-3.1,3.1-3.1h38.3c1.7,0,3.1,1.4,3.1,3.1
				C52.7,50.3,51.3,51.7,49.6,51.7z M49.6,38.9H11.2c-1.7,0-3.1-1.4-3.1-3.1c0-1.7,1.4-3.1,3.1-3.1h38.3c1.7,0,3.1,1.4,3.1,3.1
				C52.7,37.5,51.3,38.9,49.6,38.9z M49.6,26.1H11.2c-1.7,0-3.1-1.4-3.1-3.1c0-1.7,1.4-3.1,3.1-3.1h38.3c1.7,0,3.1,1.4,3.1,3.1
				C52.7,24.8,51.3,26.1,49.6,26.1z"/>
		</g>
		<g>
			<path fill="#FFFFFF" d="M80.6,39.7c-8.4,0-15.3,6.9-15.3,15.3c0,8.5,6.9,15.3,15.3,15.3c8.4,0,15.3-6.9,15.3-15.3
				C95.9,46.5,89,39.7,80.6,39.7z"/>
		</g>
	</g>
</g>
<g id="Layer_2">
</g>
</svg>
