<?xml version="1.0" encoding="utf-8"?>
<!-- Generator: Adobe Illustrator 18.0.0, SVG Export Plug-In . SVG Version: 6.00 Build 0)  -->
<!DOCTYPE svg PUBLIC "-//W3C//DTD SVG 1.1//EN" "http://www.w3.org/Graphics/SVG/1.1/DTD/svg11.dtd">
<svg version="1.1" xmlns="http://www.w3.org/2000/svg" xmlns:xlink="http://www.w3.org/1999/xlink" x="0px" y="0px"
	 viewBox="0 0 261 198.1" enable-background="new 0 0 261 198.1" xml:space="preserve">
<g id="圖層_1">
	<g>
		<g>
			<g>
				<path fill="#898989" d="M160.1,40.3c4.9,0,8.4-4.9,7.2-9.9C163.2,12.9,148.3,0,130.5,0c-17.8,0-32.7,12.9-36.9,30.4
					c-1.2,5,2.3,9.9,7.2,9.9H160.1z"/>
			</g>
			<g>
				<g>
					<g id="XMLID_3_">
						<g>
							<path fill="#5984B5" d="M157.1,129.7l-8.5,3.8c-1.1,0.5-2.2,0.7-3.4,0.8l-2.2,0.1l-1.5-20.1l-0.5-6.1l6.7-40.7v0
								c2.3-1.3,4.3-2.9,6.2-4.7l14.4,7.9c4.1,2.3,6.3,7,5.4,11.6l-9.9,49.3L157.1,129.7z"/>
							<path fill="#FFE3C9" d="M157.1,129.7l6.7,1.7v0c0,0-2.8,7.4-10.2,12.7L157.1,129.7z"/>
							<path fill="#898989" d="M153.6,144.1l-10,41.5l0,0l-13,3.6l-13-3.6l0,0l-10-41.4l-3.5-14.5l8.5,3.8c1.1,0.5,2.2,0.7,3.4,0.8
								l2.2,0.1l12.5,0.3l12.5-0.3l2.2-0.1c1.2,0,2.3-0.3,3.4-0.8l8.5-3.8L153.6,144.1z"/>
							<path fill="#595757" d="M152.2,191.7c0.6,0.5,0.9,1.3,0.7,2l-1,3.1c-0.2,0.8-0.9,1.3-1.7,1.3h-19.6v-8.8v-0.1l13-3.6l0,0.1
								L152.2,191.7z"/>
							<path fill="#EFEFEF" d="M137,114.1l-3.6-36.9l-0.1-0.2l0.6-0.3c0.6-0.4,1-1.2,1-1.9l-0.2-3.1c4.7-0.6,9.2-2.1,13.1-4.4
								l-6.7,40.7l0.5,6.1l-4.4,0.3C137.1,114.4,137.1,114.3,137,114.1z"/>
							<path fill="#E1698A" d="M131.6,78.1l1.7-1l0.1,0.2l3.6,36.9c0,0.1,0,0.3,0,0.4c0,0.5-0.1,1-0.3,1.4l-2.9,8
								c-0.3,0.8-1.1,1.4-1.9,1.4h-1.4h-1.4c-0.9,0-1.7-0.5-1.9-1.4l-2.9-8c-0.2-0.6-0.3-1.2-0.2-1.8l3.6-36.9l0.1-0.2l1.7,1
								C130.1,78.5,131,78.5,131.6,78.1z"/>
							<path fill="#FFE3C9" d="M126.4,71.8c-4.7-0.6-9.2-2.1-13.1-4.5c-2.2-1.3-4.3-2.9-6.2-4.7c-6.3-6.1-10.3-14.7-10.3-24.2
								c0-18.6,15.1-33.6,33.7-33.6s33.6,15.1,33.6,33.6c0,9.5-3.9,18.1-10.3,24.2c-1.9,1.8-3.9,3.4-6.2,4.7v0
								c-3.9,2.3-8.3,3.9-13.1,4.4c-1.3,0.2-2.7,0.3-4.1,0.3C129.1,72,127.8,71.9,126.4,71.8z"/>
							<path fill="#595757" d="M130.5,189.3v8.8h-19.7c-0.8,0-1.5-0.5-1.7-1.3l-1-3.1c-0.2-0.7,0.1-1.6,0.7-2l8.6-6l0-0.1l13,3.6
								V189.3z"/>
							<path fill="#E1698A" d="M127.2,76.7c-0.6-0.4-1-1.2-1-1.9l0.2-3.1c1.3,0.2,2.7,0.3,4.1,0.3c1.4,0,2.8-0.1,4.1-0.3l0.2,3.1
								c0,0.8-0.3,1.5-1,1.9l-0.6,0.3l-1.7,1c-0.7,0.4-1.5,0.4-2.2,0l-1.7-1L127.2,76.7z"/>
							<path fill="#EFEFEF" d="M127.6,77.2l-3.6,36.9l-4.4-0.3l0.4-5.8l-6.7-40.7c3.9,2.3,8.4,3.9,13.1,4.5l-0.2,3.1
								c-0.1,0.8,0.3,1.5,1,1.9l0.5,0.3L127.6,77.2z"/>
							<path fill="#EFEFEF" d="M124.2,116l2.9,8c0.3,0.8,1.1,1.4,1.9,1.4h1.4h1.4c0.9,0,1.7-0.5,1.9-1.4l2.9-8
								c0.2-0.5,0.3-0.9,0.3-1.4l4.4-0.3l1.5,20.1l-12.5,0.3l-12.5-0.3l1.5-20.5l4.4,0.3C123.9,114.8,124,115.4,124.2,116z"/>
							<path fill="#5984B5" d="M103.9,129.7l-6.7,1.7l-9.9-49.3c-0.9-4.6,1.3-9.3,5.4-11.6l14.4-7.9l0,0c1.9,1.8,3.9,3.4,6.2,4.7
								l6.7,40.7l-0.4,5.8l-1.5,20.5l-2.2-0.1c-1.2,0-2.3-0.3-3.4-0.8L103.9,129.7z"/>
							<path fill="#FFE3C9" d="M107.5,144.2c-7.4-5.4-10.2-12.8-10.2-12.8v0l6.7-1.7L107.5,144.2z"/>
						</g>
					</g>
				</g>
				<g>
					<g>
						<path fill="#DBBEAD" d="M137.8,32.5h-29.2c-1.7,0-3.1-1.4-3.1-3.1c0-1.7,1.4-3.1,3.1-3.1h29.2c1.7,0,3.1,1.4,3.1,3.1
							C140.9,31.1,139.5,32.5,137.8,32.5z"/>
					</g>
					<g>
						<path fill="#DBBEAD" d="M120.7,45c-1.7,0-3.1-1.4-3.1-3.1V29.4c0-1.7,1.4-3.1,3.1-3.1c1.7,0,3.1,1.4,3.1,3.1v12.4
							C123.8,43.5,122.4,45,120.7,45z"/>
					</g>
				</g>
				<g>
					
						<line fill="#DBBEAD" stroke="#DBBEAD" stroke-width="3" stroke-linecap="round" stroke-miterlimit="10" x1="113.7" y1="39.2" x2="108.4" y2="54.4"/>
					
						<line fill="#DBBEAD" stroke="#DBBEAD" stroke-width="3" stroke-linecap="round" stroke-miterlimit="10" x1="128.2" y1="39.2" x2="133.5" y2="54.4"/>
				</g>
			</g>
			<path fill="#898989" d="M141.5,4.2c-3.5-1.1-7.2-1.7-11-1.7c-17.2,0-31.6,12.1-35.1,28.3C120.8,19.4,136.2,8.4,141.5,4.2z"/>
		</g>
		<g opacity="0.8">
			<g>
				<path fill="#FFFFFF" d="M116.3,35.5h-9.7c-0.6,0-1-0.4-1-1v-4.9c0-0.6,0.4-1,1-1h9.7c0.6,0,1,0.4,1,1v4.9
					C117.3,35.1,116.8,35.5,116.3,35.5z"/>
				<path fill="#DCDDDD" d="M115.6,36.4h-8.3c-1.4,0-2.6-1.2-2.6-2.6v-3.5c0-1.4,1.2-2.6,2.6-2.6h8.3c1.4,0,2.6,1.2,2.6,2.6v3.5
					C118.1,35.2,117,36.4,115.6,36.4z M107.3,29.4c-0.5,0-0.9,0.4-0.9,0.9v3.5c0,0.5,0.4,0.9,0.9,0.9h8.3c0.5,0,0.9-0.4,0.9-0.9
					v-3.5c0-0.5-0.4-0.9-0.9-0.9H107.3z"/>
			</g>
			<g>
				<path fill="#FFFFFF" d="M134.8,35.5h-9.7c-0.6,0-1-0.4-1-1v-4.9c0-0.6,0.4-1,1-1h9.7c0.6,0,1,0.4,1,1v4.9
					C135.8,35.1,135.3,35.5,134.8,35.5z"/>
				<path fill="#DCDDDD" d="M134,36.4h-8.3c-1.4,0-2.6-1.2-2.6-2.6v-3.5c0-1.4,1.2-2.6,2.6-2.6h8.3c1.4,0,2.6,1.2,2.6,2.6v3.5
					C136.6,35.2,135.5,36.4,134,36.4z M125.8,29.4c-0.5,0-0.9,0.4-0.9,0.9v3.5c0,0.5,0.4,0.9,0.9,0.9h8.3c0.5,0,0.9-0.4,0.9-0.9
					v-3.5c0-0.5-0.4-0.9-0.9-0.9H125.8z"/>
			</g>
		</g>
	</g>
	<g>
		<g>
			<path fill="none" stroke="#FFFFFF" stroke-miterlimit="10" d="M82.6,136H47.3c-5.1,0-9.3,4.2-9.3,9.3s4.2,9.3,9.3,9.3H95"/>
			<path fill="none" stroke="#FFFFFF" stroke-miterlimit="10" d="M166,154.5h47.7c5.1,0,9.3-4.2,9.3-9.3s-4.2-9.3-9.3-9.3h-35.3"/>
		</g>
		<g>
			<path fill="none" stroke="#FFFFFF" stroke-miterlimit="10" d="M181.6,122.4h69.7c5.1,0,9.3-4.2,9.3-9.3c0-5.1-4.2-9.3-9.3-9.3
				h-65.3"/>
			<path fill="none" stroke="#FFFFFF" stroke-miterlimit="10" d="M75.1,103.9H9.8c-5.1,0-9.3,4.2-9.3,9.3c0,5.1,4.2,9.3,9.3,9.3
				h69.7"/>
		</g>
		<g>
			<path fill="none" stroke="#FFFFFF" stroke-miterlimit="10" d="M72.9,71.8H47.3c-5.1,0-9.3,4.2-9.3,9.3s4.2,9.3,9.3,9.3h24.7"/>
			<path fill="none" stroke="#FFFFFF" stroke-miterlimit="10" d="M189.1,90.3h24.7c5.1,0,9.3-4.2,9.3-9.3s-4.2-9.3-9.3-9.3h-25.6"/>
		</g>
	</g>
</g>
<g id="Layer_2">
</g>
</svg>
