<?xml version="1.0" encoding="utf-8"?>
<!-- Generator: Adobe Illustrator 18.0.0, SVG Export Plug-In . SVG Version: 6.00 Build 0)  -->
<!DOCTYPE svg PUBLIC "-//W3C//DTD SVG 1.1//EN" "http://www.w3.org/Graphics/SVG/1.1/DTD/svg11.dtd">
<svg version="1.1" xmlns="http://www.w3.org/2000/svg" xmlns:xlink="http://www.w3.org/1999/xlink" x="0px" y="0px"
	 viewBox="0 0 106.4 244.2" enable-background="new 0 0 106.4 244.2" xml:space="preserve">
<g id="Layer_1">
	<g>
		<g>
			<g>
				<g id="XMLID_32_">
					<g>
						<path fill="#BC313B" d="M99.6,87.6c5.1,2.8,7.7,8.6,6.6,14.2l-4.1,20.5l-12-3l3.6-35L99.6,87.6z"/>
						<polygon fill="#FAE265" points="102.1,122.3 98.9,137.9 88.1,137.9 90.1,119.4 						"/>
						<path fill="#D44963" d="M82.4,174.7l3.5-14.4l2.3-22.3h10.8l-4.9,24.4c0,0-3.5,9-12.5,15.6L82.4,174.7z"/>
						<path fill="#C73E55" d="M93.5,43.1c0.2,0.5,0.2,1,0.2,1.6l-3.2,2.3c0-0.3-0.1-0.6-0.2-0.9l-5.1-9.8c0-0.1,0.1-0.2,0.1-0.4
							l2.5-10.5L93.5,43.1z"/>
						<path fill="#BC313B" d="M82.9,78.4L80.5,86c-0.6,1.8-2.3,3.1-4.3,3.1h-6.9l0.4-3l1.3-4.4c0.7,0.3,1.5,0.2,2.1-0.2l2.1-1.4
							c0.4-0.3,0.8-0.7,0.9-1.2l1.1-3.7c0.1-0.5,0.1-1-0.1-1.4L75.2,69c-0.2-0.6-0.2-1.3,0.1-1.9l4.1-7.4c0.2-0.3,0.4-0.6,0.7-0.8
							l8.4-5.7c0.5-0.3,0.8-0.8,0.9-1.3l1.1-4.1c0.1-0.2,0.1-0.5,0-0.7l3.2-2.3c0,0.4-0.1,0.8-0.2,1.2L82.9,78.4z"/>
						<path fill="#C73E55" d="M88.1,137.9l-2.3,22.3l-10.4,4.6c-1.3,0.6-2.7,0.9-4.2,1l-7.1,0.2l-0.2-32.3l3.5-29l1.9-15.5h6.9
							c1.9,0,3.7-1.3,4.3-3.1l2.5-7.6l10.7,5.9l-3.6,35L88.1,137.9z"/>
						<path fill="#FABC52" d="M90.6,47.1c0,0.2,0,0.5,0,0.7l-1.1,4.1c-0.2,0.5-0.5,1-0.9,1.3l-8.4,5.7c-0.3,0.2-0.5,0.4-0.7,0.8
							l-4.1,7.4C75,67.6,75,68.3,75.2,69l1.9,4.7c0.2,0.5,0.2,1,0.1,1.4L76,78.8c-0.2,0.5-0.5,0.9-0.9,1.2L73,81.5
							c-0.6,0.4-1.4,0.5-2.1,0.2c-0.3-0.1-0.5-0.3-0.8-0.5l-3.7-3.8c-0.2-0.2-0.5-0.4-0.8-0.5l10.6-19.1c0.2-0.3,0.4-0.5,0.6-0.7
							L90.6,47.1z"/>
						<path fill="#FAE265" d="M90.6,47.1l-13.7,10c-0.3,0.2-0.5,0.4-0.6,0.7L65.7,76.8c-0.3-0.1-0.5-0.2-0.8-0.2H42.7
							c-0.3,0-0.6,0.1-0.8,0.2L31.2,57.8c-0.2-0.3-0.4-0.5-0.6-0.7L17,47.1c0-0.3,0.1-0.6,0.2-0.9l5.2-9.8c0,0.1,0.1,0.3,0.2,0.4
							l6.8,10.1c0.4,0.6,1.1,1,1.9,1h22.5h22.5c0.8,0,1.4-0.4,1.9-1L85,36.8c0.1-0.1,0.2-0.2,0.2-0.4l5.1,9.8
							C90.5,46.5,90.6,46.7,90.6,47.1z"/>
						<path fill="#BC313B" d="M75,16.6c0-0.3,0-0.5,0.1-0.8l0.4-1.6l3.7-13.1c0.6,0.5,1.1,1.2,1.3,1.9l7.3,22.4v0L85.3,36
							c0,0.1-0.1,0.3-0.1,0.4l-9.9-19C75.1,17.2,75,16.9,75,16.6z"/>
						<path fill="#BC313B" d="M64.1,166l7.1-0.2c1.4,0,2.9-0.4,4.2-1l10.4-4.6l-3.5,14.4l-29.1,8.6v-3l-29.9-8.8l-2.7-11.2l10.4,4.6
							c1.3,0.6,2.7,0.9,4.2,1l7.1,0.2l10.9,0.3L64.1,166z"/>
						<path fill="#FAEA8A" d="M75.3,17.4l9.9,19c0,0.1-0.1,0.3-0.2,0.4l-6.8,10.1c-0.4,0.6-1.1,1-1.9,1H53.7H31.2
							c-0.7,0-1.4-0.4-1.9-1l-6.8-10.1c-0.1-0.1-0.2-0.3-0.2-0.4l9.9-18.9c0.1-0.3,0.2-0.5,0.2-0.8l0.2,0l9.9-3.4
							c1.3-0.4,2.7,0.4,2.9,1.7l2.3,11.5c0.2,1,1.1,1.8,2.2,1.8h3.7h0.3h3.7c1.1,0,2-0.8,2.2-1.8l2.3-11.5c0.3-1.3,1.6-2.1,2.9-1.7
							l9.8,3.3C75,16.9,75.1,17.2,75.3,17.4z"/>
						<polygon fill="#C73E55" points="81.6,178 78.6,190.1 68.2,187.1 53.2,193.2 53.2,183.3 82.4,174.7 						"/>
						<path fill="#FAE265" d="M79.8,236.3c0.8,0.6,1.1,1.6,0.8,2.5l-1.2,3.8c-0.3,0.9-1.2,1.5-2.1,1.5H53.2v-10.8v-0.2l16-4.4l0,0.2
							L79.8,236.3z"/>
						<path fill="#C73E55" d="M79.2,1.1l-3.7,13.1h0L62.9,6.5c-0.2-0.2-0.5-0.2-0.8-0.3l-8.3-1.3V0h22.5C77.3,0,78.4,0.4,79.2,1.1z"
							/>
						<polygon fill="#FAE265" points="78.6,190.1 75.7,202.1 68.2,204.3 53.2,199.8 53.2,193.2 68.2,187.1 						"/>
						<polygon fill="#BC313B" points="75.7,202.1 69.3,228.8 69.2,228.8 53.2,233.2 53.2,199.8 68.2,204.3 						"/>
						<path fill="#BC313B" d="M75.5,14.2l-0.4,1.6C75,16.1,75,16.3,75,16.6l-9.8-3.3c-1.3-0.4-2.6,0.4-2.9,1.7L60,26.5
							c-0.2,1-1.1,1.8-2.2,1.8h-3.7h-0.3H50c-1.1,0-2-0.8-2.2-1.8l-2.3-11.5c-0.3-1.3-1.6-2.1-2.9-1.7l-9.9,3.4l-0.2,0
							c0-0.3,0-0.6-0.1-0.8L32,14.2l12.6-7.7c0.2-0.2,0.5-0.2,0.8-0.3l8.3-1.3l8.3,1.3c0.3,0,0.6,0.1,0.8,0.3L75.5,14.2L75.5,14.2z"
							/>
						<path fill="#BC313B" d="M70.9,81.7l-1.3,4.4l-0.4,3h-5.1l-1.5-5.7c-0.1-0.3-0.1-0.6,0-0.8c0-0.3,0.1-0.6,0.2-0.8l2.7-4.9
							c0.3,0.1,0.6,0.3,0.8,0.5l3.7,3.8C70.4,81.4,70.7,81.6,70.9,81.7z"/>
						<polygon fill="#BC313B" points="69.3,89.1 67.4,104.6 58.8,98.1 48.2,98.1 39.1,104.6 37.2,89.1 43.3,89.1 64.2,89.1 						
							"/>
						<polygon fill="#D44963" points="67.4,104.6 63.9,133.6 53.7,137.9 42.6,133.6 39.1,104.6 48.2,98.1 58.8,98.1 						"/>
						<path fill="#FABC52" d="M65.7,76.8L63,81.7c-0.2,0.2-0.2,0.5-0.2,0.8l-0.2,0H45l-0.2,0c0-0.3-0.1-0.6-0.2-0.8l-2.7-4.9
							c0.3-0.1,0.6-0.2,0.8-0.2h22.1C65.1,76.7,65.4,76.7,65.7,76.8z"/>
						<path fill="#C73E55" d="M62.7,83.4l1.5,5.7H43.3l1.5-5.7c0.1-0.3,0.1-0.6,0-0.8l0.2,0h17.5l0.2,0
							C62.6,82.8,62.7,83.1,62.7,83.4z"/>
						<polygon fill="#C73E55" points="63.9,133.6 64.1,166 53.2,166.3 42.4,166 42.6,133.6 53.7,137.9 						"/>
						<path fill="#C73E55" d="M53.7,0v4.9l-8.3,1.3c-0.3,0-0.6,0.1-0.8,0.3L32,14.2L28.4,1.1C29.1,0.4,30.2,0,31.3,0H53.7z"/>
						<path fill="#FAE265" d="M53.2,233.4v10.8H29.1c-1,0-1.8-0.6-2.1-1.5l-1.2-3.8c-0.3-0.9,0-1.9,0.8-2.5l10.6-7.3l0-0.2l16,4.4
							V233.4z"/>
						<polygon fill="#BC313B" points="53.2,199.8 53.2,233.2 37.2,228.8 37.2,228.8 30.7,202.1 38.3,204.3 						"/>
						<polygon fill="#FAE265" points="53.2,193.2 53.2,199.8 38.3,204.3 30.7,202.1 27.8,190.1 38.3,187.1 						"/>
						<polygon fill="#C73E55" points="24.9,178 24.1,174.7 53.2,183.3 53.2,193.2 38.3,187.1 27.8,190.1 						"/>
						<polygon fill="#BC313B" points="53.2,180.3 53.2,183.3 24.1,174.7 23.3,171.4 						"/>
						<path fill="#BC313B" d="M44.8,82.5c0.1,0.3,0,0.6,0,0.8l-1.5,5.7h-6.1l-0.4-3l-1.2-4.2c0.6,0,1.2-0.2,1.6-0.7l3.7-3.8
							c0.2-0.2,0.5-0.4,0.8-0.5l2.7,4.9C44.7,82,44.8,82.3,44.8,82.5z"/>
						<path fill="#C73E55" d="M18.3,137.9l-1.9-18.6l-3.6-35l11.6-6.4l2.6,8c0.6,1.8,2.3,3.1,4.3,3.1h5.9l1.9,15.5l3.5,29L42.4,166
							l-7.1-0.2c-1.4,0-2.9-0.4-4.2-1l-10.4-4.6L18.3,137.9z"/>
						<path fill="#FABC52" d="M31.2,57.8l10.6,19.1c-0.3,0.1-0.6,0.3-0.8,0.5l-3.7,3.8c-0.4,0.4-1,0.7-1.6,0.7
							c-0.4,0-0.9-0.1-1.2-0.4L32.4,80c-0.4-0.3-0.7-0.7-0.9-1.2l-1.1-3.7c-0.2-0.5-0.1-1,0-1.4l1.9-4.7c0.2-0.6,0.2-1.3-0.1-1.9
							L28,59.6c-0.2-0.3-0.4-0.6-0.7-0.8L19,53.2c-0.4-0.3-0.8-0.8-0.9-1.3L17,47.8c-0.1-0.2-0.1-0.5,0-0.7l13.6,10
							C30.9,57.2,31.1,57.5,31.2,57.8z"/>
						<path fill="#BC313B" d="M24.4,77.9L14,45.9c-0.1-0.4-0.2-0.8-0.2-1.2l3.2,2.3c0,0.2,0,0.5,0,0.7l1.1,4.1
							c0.1,0.5,0.5,1,0.9,1.3l8.4,5.7c0.3,0.2,0.5,0.4,0.7,0.8l4.1,7.4c0.3,0.6,0.4,1.3,0.1,1.9l-1.9,4.7c-0.2,0.5-0.2,1,0,1.4
							l1.1,3.7c0.2,0.5,0.5,0.9,0.9,1.2l2.1,1.4c0.4,0.2,0.8,0.4,1.2,0.4l1.2,4.2l0.4,3h-5.9c-1.9,0-3.7-1.3-4.3-3.1L24.4,77.9z"/>
						<path fill="#BC313B" d="M32.4,15.8c0.1,0.3,0.1,0.6,0.1,0.8c0,0.3-0.1,0.6-0.2,0.8l-9.9,18.9c-0.1-0.1-0.1-0.2-0.1-0.4
							l-2.5-10.5L27,3.1c0.3-0.8,0.7-1.5,1.3-2L32,14.2L32.4,15.8z"/>
						<path fill="#D44963" d="M24.1,174.7l0.8,3.4c-9-6.6-12.6-15.7-12.6-15.7l-4.9-24.4h10.8l2.3,22.3l2.7,11.2L24.1,174.7z"/>
						<path fill="#C73E55" d="M22.3,36.4l-5.2,9.8C17,46.5,17,46.7,17,47.1l-3.2-2.3c0-0.5,0-1.1,0.2-1.6l5.8-17.6L22.2,36
							C22.2,36.1,22.3,36.3,22.3,36.4z"/>
						<polygon fill="#FAE265" points="16.4,119.4 18.3,137.9 7.5,137.9 4.3,122.3 						"/>
						<path fill="#BC313B" d="M12.8,84.3l3.6,35l-12,3l-4.1-20.5c-1.1-5.7,1.5-11.4,6.6-14.2L12.8,84.3z"/>
					</g>
				</g>
			</g>
			<g>
				<g>
					<path fill="#EAFFFF" d="M46.6,48.7H30.1c-0.6,0-1-0.4-1-1v-2.1c0-0.6,0.4-1,1-1h16.5c0.6,0,1,0.4,1,1v2.1
						C47.6,48.2,47.1,48.7,46.6,48.7z"/>
				</g>
				<g>
					<path fill="#EAFFFF" d="M76.5,48.7H59.9c-0.6,0-1-0.4-1-1v-2.1c0-0.6,0.4-1,1-1h16.5c0.6,0,1,0.4,1,1v2.1
						C77.5,48.2,77,48.7,76.5,48.7z"/>
				</g>
			</g>
			
				<line fill="none" stroke="#727171" stroke-width="3" stroke-linecap="round" stroke-miterlimit="10" x1="43.3" y1="70.5" x2="64.6" y2="70.5"/>
		</g>
		<g>
			
				<circle fill="#FFFFFF" stroke="#FAE265" stroke-width="5" stroke-linecap="round" stroke-miterlimit="10" cx="53.2" cy="130.3" r="17.3"/>
		</g>
	</g>
</g>
<g id="Layer_2">
</g>
</svg>
