<svg xmlns="http://www.w3.org/2000/svg" viewBox="0 0 143.537 120.083"><g opacity=".5" id="圖層_1"><g id="XMLID_1_"><g fill="#d8d8d8"><path d="M101.675 53.043c1.318 5.659.846 11.714-1.867 17.133C94.786 80.21 83.475 85.285 72.583 84.76c-.012 0-.023.006-.035.006-2.888-.012-6.114.105-9.141-.286l.193-1.668c-3.856-1.657-7.082-4.317-9.55-7.607l1.476-.735c.204.274.408.543.618.805 3.967 4.976 9.975 7.391 16.223 7.73 11.417.618 23.323-5.239 27.103-16.545 1.435-4.294 1.528-8.826.525-13.096l1.68-.321zM101.675 53.043l-1.68.321c-1.569-6.662-5.799-12.694-11.761-16.223-6.073-3.395-13.196-3.815-19.694-1.855l-.467-1.581a29.306 29.306 0 0 1 4.638-1.003c-1.913-.187-3.868-.146-5.939.292-7.963 1.668-15.109 6.884-18.446 14.397a22.754 22.754 0 0 0-1.26 3.675l-1.604-.245c1.12-4.486 3.337-8.657 6.715-11.994 4.813-4.743 11.329-7.566 18.049-8.08 4.183-.315 8.43 1.313 12.449 2.316.14.035.257.093.344.163 2.1.525 4.154 1.318 6.096 2.403 6.418 3.804 10.904 10.297 12.56 17.414z"/><path d="M96.308 53.078c.782 3.448 2.013 8.255-.531 11.288-3.337 3.979-7.875-.344-9.824-3.354-1.581-2.596-1.948-4.754-1.05-7.689.636-2.094 1.762-4.48 3.722-5.635 3.915-2.316 6.913 1.995 7.683 5.39zm-.35 7.502c.21-1.873-.315-4.025-.653-5.851-.548-2.969-2.584-8.931-6.825-5.099l-.023.023c2.514 4.247 3.541 9.474 1.738 14.176-.017.047-.041.082-.058.117.461.309.963.438 1.482.531 2.223.397 3.57-1.26 4.054-2.707.134-.403.239-.77.285-1.19zM89.798 67.755c3.413 3.098.321 7.205-2.911 8.832-3.243 1.639-7.852 4.054-11.469 2.176-4.574-2.374-1.383-7.741 1.073-10.291 1.896-1.884 3.588-2.829 6.3-2.823 2.346.006 5.205.473 7.007 2.106zm-4.743 8.249c3.074-1.377 7.35-4.865 3.004-7.864-.093-.064-.204-.123-.303-.181a.665.665 0 0 1-.117.181c-3.29 3.675-8.225 5.88-13.161 5.991h-.023a6.576 6.576 0 0 0-.029.356c-.117 2.485 2.561 3.885 4.754 3.617 1.961-.233 4.102-1.307 5.875-2.1zM86.245 40.996c3.506 4.434-2.129 7.817-5.845 8.785-2.998.694-5.087.403-7.636-1.388-1.785-1.254-3.704-3.074-4.2-5.285-1.003-4.451 4.019-5.974 7.485-5.641 3.4.321 7.898.618 10.196 3.529zm-.834 4.545c.881-2.328-.158-4.399-2.281-5.373-1.552-.712-3.559-.893-5.233-1.149-2.806-.426-9.73-.898-7.759 4.474.029.082.064.152.099.228 5.221-1.645 10.442-.968 14.928 2.281.1-.146.182-.298.246-.461zM75.29 52.343c3.424.163 6.009 2.713 5.956 6.23-.053 3.331-2.952 5.869-6.236 5.723-3.185-.14-6.114-2.788-6.009-6.084.111-3.332 3.145-5.712 6.289-5.869zm-.467 10.611c6.329.607 6.72-9.001.467-9.299-2.508.128-5.011 2.106-4.97 4.795.035 2.439 2.176 4.282 4.503 4.504z"/><path d="M77.857 56.8c1.126 0 1.126 1.75 0 1.75-1.132 0-1.126-1.75 0-1.75zM76.859 59.477c1.132 0 1.126 1.75 0 1.75s-1.126-1.75 0-1.75zM75.354 54.565c1.126 0 1.126 1.75 0 1.75s-1.126-1.75 0-1.75zM73.75 59.716c1.126 0 1.126 1.75 0 1.75-1.126.001-1.126-1.75 0-1.75zM72.548 56.8c1.132 0 1.126 1.75 0 1.75s-1.126-1.75 0-1.75zM65.134 63.234c4.212 2.17 6.767 7.73 4.772 12.367-1.715 3.99-6.364 2.794-8.937.385-2.654-2.479-6.475-6.388-6.02-10.366.612-5.344 6.947-3.955 10.185-2.386zm3.978 9.917c0-.023 0-.041.006-.064-4.836-1.663-7.893-5.244-9.328-10.133-.006-.018-.006-.029-.006-.047-1.062-.047-1.931.315-2.678 1.068-.893.898-.974 2.66-.508 4.404.099.368.368.665.56.986 1.027 1.756 2.514 3.36 3.903 4.836.805.858 1.575 1.581 2.643 2.106 1.307.642 3.611.496 4.69-.613.52-.536.671-1.837.718-2.543z"/><path d="M68.074 33.704l.467 1.581a28.526 28.526 0 0 0-7.263 3.36c-7.21 4.673-11.784 12.659-11.043 21.351.426 5.029 2.287 10.349 5.291 14.473l-1.476.735a27.58 27.58 0 0 1-3.979-7.508 10.083 10.083 0 0 0-1.412 1.803 27.995 27.995 0 0 0 2.17 4.177c2.112 3.296 5.437 6.726 9.13 8.237 1.114.455 2.351.729 3.64.898l-.193 1.668c-1.231-.158-2.427-.403-3.559-.77-3.086-.998-5.944-3.547-8.05-5.927a27.828 27.828 0 0 1-4.142-6.259c-1.359 3.383-1.674 7.479-2.328 10.734-1.009 5.052-3.22 9.94-6.306 14.071-2.958 3.961-6.86 6.965-11.673 8.26-1.954.525-4.585 1.155-6.598.753-1.843-.373-2.322-2.625-2.602-4.288-.105-.613.239-1.033.846-1.108 4.084-.525 7.584-.758 11.107-3.179 4.725-3.249 7.59-7.49 9.41-12.945 1.931-5.775 1.418-14.59 5.688-19.589-.898-4.439-.828-9.071.263-13.411l1.604.245c-.939 3.739-1.009 7.8-.344 11.72a9.824 9.824 0 0 1 1.925-1.155 29.523 29.523 0 0 1-.228-2.695C47.942 46.509 57.06 37 68.074 33.704z"/><path d="M61.954 42.507c5.291-.963 5.793 5.513 5.25 9.065-.834 4.655-5.425 8.715-10.436 8.167-4.323-.478-4.504-5.303-2.958-8.453 1.593-3.254 4.195-8.061 8.144-8.779zm3.862 3.407c-.303-.846-.823-1.534-1.703-1.832-1.773-.613-3.984.385-5.134 1.663-1.359 1.511-2.462 3.395-3.465 5.157-.583 1.021-1.044 1.966-1.225 3.138-.455 2.975 1.832 4.883 4.626 4.218l.204-.053c-.041-5.151 2.439-9.397 6.697-12.291z"/></g></g><g fill="#d8d8d8"><path d="M69.119 33.491l-1.091-1.54c-.323-.456-1.082-.019-.755.442l1.091 1.54c.322.455 1.081.018.755-.442zM66.135 32.623c-.353-.439-.968.184-.619.619a7.966 7.966 0 0 1 1.1 1.855c.222.516.976.071.756-.442a8.784 8.784 0 0 0-1.237-2.032zM64.259 33.392c-.317-.461-1.076-.024-.756.442l1.07 1.556c.317.461 1.076.024.756-.442l-1.07-1.556zM61.979 33.576c-.353-.439-.969.184-.619.619.538.669.987 1.398 1.36 2.17.245.507 1 .064.756-.442a12.23 12.23 0 0 0-1.497-2.347zM60.38 34.94c-.335-.444-1.095-.008-.755.442.467.619.884 1.27 1.25 1.954.266.497 1.021.055.755-.442a14.851 14.851 0 0 0-1.25-1.954zM60.188 38.148l-1.854-2.62c-.323-.456-1.082-.019-.756.442l1.855 2.62c.322.455 1.081.019.755-.442zM58.068 39.135a9.999 9.999 0 0 1-1.524-2.127c-.266-.496-1.022-.055-.756.442.451.84 1.009 1.61 1.661 2.305.386.41 1.004-.209.619-.62zM56.412 40.304a14.766 14.766 0 0 0-1.75-1.847c-.42-.373-1.041.244-.619.619.636.566 1.22 1.181 1.75 1.847.351.44.967-.183.619-.619zM54.53 42.576c.399.399 1.018-.22.619-.619l-1.75-1.75c-.399-.399-1.018.22-.619.619l1.75 1.75zM50.729 42.645a24.521 24.521 0 0 1 2.922 1.84c.455.334.892-.425.442-.756a24.269 24.269 0 0 0-2.922-1.84c-.497-.265-.94.49-.442.756zM49.375 44.535l3.014 1.167c.526.203.753-.642.233-.844l-3.014-1.167c-.525-.203-.753.643-.233.844zM48.379 46.151l2.837 1.123c.524.207.751-.639.232-.844l-2.837-1.123c-.523-.207-.75.639-.232.844zM47.625 48.522l2.428.498c.55.113.785-.731.233-.844l-2.428-.498c-.55-.113-.785.73-.233.844zM46.966 51.046l2.72.309c.559.064.554-.812 0-.875l-2.72-.309c-.559-.063-.554.812 0 .875zM46.282 53.578c.907-.095 1.813-.12 2.723-.076.563.028.561-.848 0-.875a17.558 17.558 0 0 0-2.723.076c-.555.058-.561.934 0 .875zM46.397 56.19l2.237-.483c.55-.119.317-.962-.233-.844l-2.237.483c-.55.119-.317.963.233.844zM46.299 58.914l2.334-.776c.532-.177.304-1.022-.233-.844l-2.334.776c-.532.177-.304 1.022.233.844zM48.597 59.501l-2.354 1.124c-.508.243-.064.997.442.756l2.354-1.124c.508-.244.064-.998-.442-.756zM50.835 69.472l-1.828 1.866c-.395.403.224 1.022.619.619l1.828-1.866c.394-.403-.224-1.023-.619-.619zM51.702 71.505a9.587 9.587 0 0 0-1.517 1.945c-.287.486.469.927.756.442a8.598 8.598 0 0 1 1.38-1.768c.401-.396-.218-1.015-.619-.619zM52.811 73.063c-.44.752-.834 1.527-1.184 2.326-.223.511.53.957.756.442.35-.799.743-1.573 1.184-2.326.285-.488-.471-.929-.756-.442zM53.877 75.296a14.2 14.2 0 0 0-1.111 2.245c-.206.524.64.752.844.233.279-.71.624-1.386 1.023-2.036.295-.481-.461-.921-.756-.442zM55.143 76.853a7.182 7.182 0 0 0-.933 2.143c-.138.546.706.779.844.233a6.405 6.405 0 0 1 .844-1.934c.307-.474-.45-.913-.755-.442zM56.852 78.32l-.704 1.936c-.193.53.652.758.844.233l.704-1.936c.192-.531-.653-.759-.844-.233zM58.417 79.78l-.477 1.656c-.156.542.688.774.844.233l.477-1.656c.156-.542-.689-.774-.844-.233zM60.348 80.652a4.956 4.956 0 0 0-.307 1.575c-.021.563.855.562.875 0 .017-.465.113-.907.276-1.342.198-.529-.648-.757-.844-.233z"/></g></g></svg>