<svg width="29" height="24" viewBox="0 0 29 24" xmlns="http://www.w3.org/2000/svg"><title>icon-twitter</title><g id="Mobile" fill="none" fill-rule="evenodd"><g transform="translate(-211)" id="Sharing-&amp;-Donation" fill="#B3B3B3"><g id="Group-2" transform="translate(163)"><path d="M76.8 2.841a11.54 11.54 0 0 1-3.393.954A6.045 6.045 0 0 0 76.005.444a11.637 11.637 0 0 1-3.754 1.468A5.827 5.827 0 0 0 67.939 0c-3.261 0-5.907 2.713-5.907 6.059 0 .474.051.936.152 1.38-4.91-.254-9.263-2.663-12.18-6.333-.508.898-.799 1.94-.799 3.05a6.099 6.099 0 0 0 2.629 5.042 5.801 5.801 0 0 1-2.678-.756v.075c0 2.936 2.037 5.385 4.742 5.94a5.634 5.634 0 0 1-1.557.213 5.74 5.74 0 0 1-1.112-.107c.752 2.406 2.933 4.159 5.519 4.205a11.667 11.667 0 0 1-7.338 2.595c-.477 0-.949-.027-1.41-.083A16.45 16.45 0 0 0 57.057 24c10.87 0 16.812-9.23 16.812-17.238 0-.263-.005-.527-.015-.785A12.127 12.127 0 0 0 76.8 2.841" id="icon-twitter"/></g></g></g></svg>