<?xml version="1.0" encoding="UTF-8" standalone="no"?><!DOCTYPE svg PUBLIC "-//W3C//DTD SVG 1.1//EN" "http://www.w3.org/Graphics/SVG/1.1/DTD/svg11.dtd"><svg width="100%" height="100%" viewBox="0 0 2116 560" version="1.1" xmlns="http://www.w3.org/2000/svg" xmlns:xlink="http://www.w3.org/1999/xlink" xml:space="preserve" style="fill-rule:evenodd;clip-rule:evenodd;stroke-linecap:round;stroke-miterlimit:10;"><rect x="-1.471" y="-1.076" width="2118.09" height="573.27" style="fill:url(#_Linear1);"/><g id="Layer_1"><g><path d="M263.621,176.266c88.29,-10.93 174.543,43.854 263.154,39.377c51.003,-2.634 100.505,-24.759 151.507,-25.812c50.145,-1.054 98.897,18.437 147.864,32.265c199.83,56.496 408.232,19.754 611.063,-17.12c41.573,-7.639 83.36,-15.277 123.541,-30.817c42.323,-16.461 82.932,-41.615 126.97,-47.673c50.895,-6.979 101.576,12.116 152.685,15.804c81.325,5.794 160.936,-27.656 242.261,-33.977c8.786,-0.659 18.644,-0.527 24.751,7.243c4.607,5.926 5.679,14.749 6.536,22.914l20.144,196.092c0.857,8.56 1.607,17.91 -2.572,24.89c-3.964,6.717 -11.143,8.955 -17.786,10.536c-111.112,26.47 -225.546,2.897 -338.48,-5.795c-103.504,-8.033 -207.437,-3.556 -311.049,0.132c-492.236,17.778 -985.115,19.227 -1476.6,-17.779c1.071,-22.915 -5.893,-95.214 15,-104.038c10.394,-4.346 31.287,3.819 43.074,3.029c14.465,-1.185 28.715,-3.819 42.752,-8.165c59.145,-16.988 114.219,-53.599 175.186,-61.106Z" style="fill:#7382a0;fill-rule:nonzero;"/><rect x="-56" y="277.539" width="2235.1" height="286.433" style="fill:#4d4d4d;"/><rect x="276.371" y="57.611" width="43.502" height="233.756" style="fill:#4d4d4d;"/><rect x="1691.04" y="57.611" width="43.502" height="233.756" style="fill:#4d4d4d;"/><rect x="1755.33" y="12.835" width="43.502" height="270.894" style="fill:#4d4d4d;"/><rect x="439.236" y="97.119" width="43.502" height="233.756" style="fill:#4d4d4d;"/><rect x="498.917" y="3.616" width="55.074" height="295.915" style="fill:#4d4d4d;"/><rect x="1330.38" y="156.644" width="64.717" height="142.887" style="fill:#4d4d4d;"/><rect x="1220.34" y="213.667" width="64.717" height="112.861" style="fill:#4d4d4d;"/><rect x="660.281" y="151.64" width="57.86" height="148.024" style="fill:#4d4d4d;"/><rect x="613.136" y="196.152" width="57.86" height="148.024" style="fill:#4d4d4d;"/><rect x="1557.64" y="112.132" width="48.002" height="179.235" style="fill:#4d4d4d;"/><rect x="1834.08" y="112.132" width="48.002" height="179.235" style="fill:#4d4d4d;"/><rect x="1510.5" y="156.644" width="57.86" height="148.024" style="fill:#4d4d4d;"/><rect x="1781.58" y="156.644" width="57.86" height="148.024" style="fill:#4d4d4d;"/><rect x="311.409" y="110.42" width="43.502" height="233.756" style="fill:#4d4d4d;"/><rect x="188.832" y="206.951" width="41.788" height="126.426" style="fill:#4d4d4d;"/><rect x="1418.24" y="182.719" width="41.788" height="126.426" style="fill:#4d4d4d;"/><rect x="1955.05" y="182.719" width="41.788" height="126.426" style="fill:#4d4d4d;"/><rect x="2012.91" y="148.216" width="41.788" height="145.653" style="fill:#4d4d4d;"/><rect x="812.431" y="182.719" width="41.788" height="126.426" style="fill:#4d4d4d;"/><rect x="385.983" y="217.618" width="41.788" height="126.426" style="fill:#4d4d4d;"/><rect x="746.857" y="217.618" width="41.788" height="126.426" style="fill:#4d4d4d;"/><rect x="846.504" y="217.618" width="41.788" height="126.426" style="fill:#4d4d4d;"/><rect x="1592.79" y="192.201" width="47.788" height="144.599" style="fill:#4d4d4d;"/><rect x="136.33" y="192.201" width="41.788" height="116.944" style="fill:#4d4d4d;"/><rect x="104.721" y="162.307" width="41.788" height="126.426" style="fill:#4d4d4d;"/><path d="M622.03,217.355l10.714,0" style="fill:none;stroke:#fff000;stroke-width:2.4px;"/><path d="M629.101,225.52l0,-13.17" style="fill:none;stroke:#fff000;stroke-width:2.4px;"/><path d="M333.16,249.093l10.714,0" style="fill:none;stroke:#fff000;stroke-width:2.4px;"/><path d="M340.124,257.258l0,-13.169" style="fill:none;stroke:#fff000;stroke-width:2.4px;"/><path d="M130.972,268.584l10.715,0" style="fill:none;stroke:#fff000;stroke-width:2.4px;"/><path d="M138.044,276.749l0,-13.17" style="fill:none;stroke:#fff000;stroke-width:2.4px;"/><path d="M2023.09,200.103l10.715,0" style="fill:none;stroke:#fff000;stroke-width:2.4px;"/><path d="M2030.16,208.268l0,-13.169" style="fill:none;stroke:#fff000;stroke-width:2.4px;"/><path d="M120.257,181.007l10.715,0" style="fill:none;stroke:#fff000;stroke-width:2.4px;"/><path d="M127.329,189.304l0,-13.169" style="fill:none;stroke:#fff000;stroke-width:2.4px;"/><path d="M1983.02,237.767l-10.715,0" style="fill:none;stroke:#fff000;stroke-width:2.4px;"/><path d="M1975.95,245.932l0,-13.169" style="fill:none;stroke:#fff000;stroke-width:2.4px;"/><path d="M1777.08,36.54l-10.715,0" style="fill:none;stroke:#fff000;stroke-width:2.4px;"/><path d="M1770.12,44.705l0,-13.17" style="fill:none;stroke:#fff000;stroke-width:2.4px;"/><path d="M694.569,261.999l-10.715,0" style="fill:none;stroke:#fff000;stroke-width:2.4px;"/><path d="M687.604,270.164l0,-13.169" style="fill:none;stroke:#fff000;stroke-width:2.4px;"/><path d="M1357.06,225.652l-10.715,0" style="fill:none;stroke:#fff000;stroke-width:2.4px;"/><path d="M1349.99,233.817l0,-13.17" style="fill:none;stroke:#fff000;stroke-width:2.4px;"/><path d="M531.811,165.204l-10.714,0" style="fill:none;stroke:#fff000;stroke-width:2.4px;"/><path d="M524.847,173.369l0,-13.169" style="fill:none;stroke:#fff000;stroke-width:2.4px;"/><path d="M863.326,258.575l-10.715,0" style="fill:none;stroke:#fff000;stroke-width:2.4px;"/><path d="M856.361,250.41l0,13.169" style="fill:none;stroke:#fff000;stroke-width:2.4px;"/><path d="M1244.13,234.475l-10.715,0" style="fill:none;stroke:#fff000;stroke-width:2.4px;"/><path d="M1237.06,226.31l0,13.169" style="fill:none;stroke:#fff000;stroke-width:2.4px;"/><path d="M1550.14,250.673l-10.715,0" style="fill:none;stroke:#fff000;stroke-width:2.4px;"/><path d="M1543.18,242.508l0,13.17" style="fill:none;stroke:#fff000;stroke-width:2.4px;"/><path d="M1839.44,227.232l10.715,0" style="fill:none;stroke:#fff000;stroke-width:2.4px;"/><path d="M1846.51,218.935l0,13.169" style="fill:none;stroke:#fff000;stroke-width:2.4px;"/><path d="M1576.29,168.497l10.715,0" style="fill:none;stroke:#fff000;stroke-width:2.4px;"/><path d="M1583.36,160.2l0,13.169" style="fill:none;stroke:#fff000;stroke-width:2.4px;"/><path d="M314.516,149.928l10.715,0" style="fill:none;stroke:#fff000;stroke-width:2.4px;"/><path d="M321.588,141.631l0,13.169" style="fill:none;stroke:#fff000;stroke-width:2.4px;"/><rect x="-56" y="374.992" width="2235.1" height="188.98" style="fill:#7382a0;fill-opacity:0.5;"/><rect x="-54.715" y="451.243" width="2233.71" height="112.73" style="fill:#7382a0;"/></g></g><defs><linearGradient id="_Linear1" x1="0" y1="0" x2="1" y2="0" gradientUnits="userSpaceOnUse" gradientTransform="matrix(2.04861e-14,-573.232,334.563,3.51003e-14,1057.57,572.155)"><stop offset="0%" style="stop-color:#fff;stop-opacity:0.501961"/><stop offset="100%" style="stop-color:#fff;stop-opacity:0"/></linearGradient></defs></svg>