<?xml version="1.0" encoding="UTF-8"?>
<svg width="71px" height="85px" viewBox="0 0 71 85" version="1.1" xmlns="http://www.w3.org/2000/svg" xmlns:xlink="http://www.w3.org/1999/xlink">
    <!-- Generator: sketchtool 40 (33762) - http://www.bohemiancoding.com/sketch -->
    <title>82E11C22-5191-4898-86AB-C959AD3F3067</title>
    <desc>Created with sketchtool.</desc>
    <defs></defs>
    <g id="Symbols" stroke="none" stroke-width="1" fill="none" fill-rule="evenodd">
        <g id="info-box-icon">
            <g id="icon">
                <g>
                    <g id="Group-3" transform="translate(0.000000, 25.539692)" fill="#FFF000">
                        <path d="M9.28055644,0.306402963 C5.215952,3.01519556 2.31863644,7.55482519 1.01545422,12.369477 C-0.654465778,18.5424919 -0.0429457778,25.1227511 1.25762311,31.3865585 C2.66185422,38.148403 5.29522311,45.3192548 11.1882898,48.8099215 C13.4261742,50.1347881 16.2111164,51.3071585 18.7268853,51.9717956 C21.6503342,52.7439733 25.082512,51.7117585 28.1043964,51.853677 C30.7917742,51.9806104 33.2857653,52.5703215 35.7806276,53.5637511 C38.2249653,54.5369067 40.0691076,56.3650993 42.4759876,57.3638178 C47.8228676,59.5833881 53.9293564,56.9856622 57.6472587,52.9290844 C61.1369298,49.1210844 63.0786364,44.1583437 64.9445564,39.3198919 C66.1754364,36.1271659 65.8235076,34.3686104 62.4366276,34.3069067 C59.0558453,34.245203 55.4146009,33.5109289 52.1496764,32.6276844 C39.3269209,29.1572919 29.9032409,15.9165585 30.3475076,2.56123259 C30.3814809,1.54576593 29.308272,0.876721481 28.4371609,1.38181037 C25.6461209,2.99932889 24.9758017,5.71836394 23.1665039,8.4095269 C22.1986995,9.84898616 19.6250009,10.9740919 18.3314009,12.1208993 C16.3130364,13.9076622 13.2162364,14.3263659 10.8050009,13.1390104 C9.59764089,9.49584741 9.76576533,5.42428444 11.1699964,1.85957333 C11.629072,0.695136296 10.3145653,-0.382915556 9.28055644,0.306402963 Z" id="Fill-1"></path>
                    </g>
                    <path d="M13.4419058,24.9074933 C13.9009813,23.7430563 12.5864747,22.6650044 11.5524658,23.354323 C7.48786133,26.0631156 4.59054578,30.6027452 3.28736356,35.417397 C1.61744356,41.5904119 2.22896356,48.1706711 3.52953244,54.4344785 C4.93376356,61.196323 7.56713244,68.3671748 13.4601991,71.8578415 C18.0056569,74.5490044 21.8141547,74.1170785 26.5695502,73.5132637 C31.1968924,72.9270785 35.8329458,74.8971896 39.9715947,76.7421304 C44.9430258,78.9581748 50.3491413,81.3108489 55.6298169,80.0212415 C62.4715236,78.3499526 78.053088,60.5290415 65.4054258,57.7294563 C61.7667947,56.9246637 58.0201458,56.6496415 54.4215858,55.6756044 C41.5988302,52.2052119 32.1751502,38.9644785 32.6194169,25.6091526 C32.6533902,24.5936859 31.5801813,23.9246415 30.7090702,24.4297304 C27.9180302,26.0472489 25.4902436,28.3082489 23.6809458,30.9994119 C22.7131413,32.4388711 21.8969102,34.0220119 20.6033102,35.1688193 C18.5849458,36.9555822 15.4881458,37.3742859 13.0769102,36.1869304 C11.8695502,32.5437674 12.0376747,28.4722044 13.4419058,24.9074933" id="Fill-4" fill="#4E91FF"></path>
                    <path d="M30.3622809,47.8890378 C30.8849476,49.3972526 31.9433476,50.3933267 32.7282187,50.11566 C33.5122187,49.8371119 33.7247698,48.3897193 33.2021031,46.8815044 C32.6803076,45.3741711 31.6210364,44.3772156 30.8361653,44.6548822 C30.0521653,44.9334304 29.8396142,46.380823 30.3622809,47.8890378" id="Fill-6" fill="#4D4D4D"></path>
                    <path d="M15.0598204,49.1722985 C15.3037316,50.7510319 16.1670027,51.9251652 16.9884604,51.7947059 C17.8090471,51.6651281 18.2768338,50.2803207 18.0329227,48.7015874 C17.7890116,47.1228541 16.9257404,45.9487207 16.1042827,46.07918 C15.283696,46.2087578 14.8159093,47.5935652 15.0598204,49.1722985" id="Fill-8" fill="#4D4D4D"></path>
                    <path d="M63.6832391,64.0563778 C64.4236836,63.8386519 64.5909369,62.8267111 63.941088,62.4080074 C62.1387591,61.2453333 60.0472213,60.5419111 57.9147413,60.3929407 C57.5689102,60.3682593 57.2500836,60.5657111 57.0758613,60.8689407 C56.2692124,62.2731407 55.1716124,63.5345407 54.1524124,64.8029926 C53.9189547,65.094763 54.078368,65.5363852 54.4442347,65.5980889 C54.6419769,65.6307037 54.8449458,65.6439259 55.0392036,65.6553852 C57.0192391,65.7682148 58.9731413,65.2366815 60.8861013,64.7095556 C61.785088,64.4618593 62.7677013,64.3261111 63.6832391,64.0563778" id="Fill-10" fill="#4D4D4D"></path>
                    <path d="M62.8804231,6.62248222 C65.0947876,9.12677111 66.4911787,12.4605341 66.2925653,15.8145711 C66.1070187,18.9500007 64.5930276,21.8289193 63.0659698,24.5632748 C61.2732231,27.7762748 58.888992,31.3744822 60.0763164,35.0696526 C60.7618809,37.2010748 60.700032,37.9882378 58.4647609,38.8177119 C56.7591253,39.4506156 54.7878009,39.6533563 53.1379164,38.7427859 C52.8931342,38.6079193 52.6500942,38.4404378 52.5159431,38.1927415 C52.3730809,37.9291785 52.3730809,37.6144896 52.3756942,37.3139044 C52.397472,35.1481044 52.1727253,32.9012081 52.750272,30.7909415 C53.9402098,26.4417119 57.6093298,22.9016822 57.6319787,18.2042674 C57.6554987,13.4962748 52.9001031,9.38151926 48.3076053,10.1351859 C47.4608853,10.27446 46.6089387,10.5671119 45.9817387,11.1594674 C45.3144676,11.7888452 44.9642809,12.6932452 44.7735076,13.5950007 C43.7647609,18.3743933 50.1735253,23.3089267 45.6454898,26.6867637 C42.0687076,29.3550081 37.5946809,27.8591341 36.2287787,23.8157785 C33.1476587,14.6915637 39.4196587,3.17941556 48.8337564,1.76640074 C53.9036231,1.0065637 59.4238542,2.71311185 62.8804231,6.62248222" id="Fill-12" fill="#FFF000"></path>
                    <path d="M62.5947858,51.8977511 C63.8021458,51.35564 64.8910347,50.4574104 65.4633547,49.2515437 C67.8615236,44.1988919 59.0031947,41.0890252 55.8210258,44.0675511 C51.165808,48.4255956 57.8568124,54.0238844 62.5947858,51.8977511" id="Fill-14" fill="#FFF000"></path>
                    <path d="M65.7738187,5.03246593 C67.9881831,7.53675481 69.3845742,10.8705178 69.1859609,14.2245548 C69.0004142,17.3599844 67.4864231,20.238903 65.9593653,22.9732585 C64.1666187,26.1862585 61.7823876,29.7844659 62.969712,33.4796363 C63.6552764,35.6110585 63.5934276,36.3982215 61.3581564,37.2276956 C59.6525209,37.8605993 57.6811964,38.06334 56.031312,37.1527696 C55.7865298,37.017903 55.5434898,36.8504215 55.4093387,36.6027252 C55.2664764,36.3391622 55.2664764,36.0244733 55.2690898,35.7238881 C55.2908676,33.5580881 55.0661209,31.3111919 55.6436676,29.2009252 C56.8336053,24.8516956 60.5027253,21.3116659 60.5253742,16.6142511 C60.5488942,11.9062585 55.7934987,7.79150296 51.2010009,8.54516963 C50.3542809,8.6844437 49.5023342,8.97709556 48.8751342,9.56945111 C48.2078631,10.1988289 47.8576764,11.1032289 47.6669031,12.0049844 C46.6581564,16.784377 53.0669209,21.7189104 48.5388853,25.0967474 C44.9621031,27.7649919 40.4880764,26.2691178 39.1221742,22.2257622 C36.0410542,13.1015474 42.3130542,1.58939926 51.727152,0.176384444 C56.7970187,-0.583452593 62.3172498,1.12309556 65.7738187,5.03246593" id="Fill-16" fill="#4E91FF"></path>
                    <path d="M65.4882684,50.3077348 C66.6956284,49.7656237 67.7845173,48.8673941 68.3568373,47.6615274 C70.7550062,42.6088756 61.8966773,39.4990089 58.7145084,42.4775348 C54.0592907,46.8355793 60.7502951,52.4338681 65.4882684,50.3077348" id="Fill-18" fill="#4E91FF"></path>
                </g>
            </g>
        </g>
    </g>
</svg>