<?xml version="1.0" encoding="UTF-8"?>
<svg width="46px" height="85px" viewBox="0 0 46 85" version="1.1" xmlns="http://www.w3.org/2000/svg" xmlns:xlink="http://www.w3.org/1999/xlink">
    <!-- Generator: sketchtool 40 (33762) - http://www.bohemiancoding.com/sketch -->
    <title>EC1B00D1-A1AC-4779-88D9-E1EB7551E208</title>
    <desc>Created with sketchtool.</desc>
    <defs></defs>
    <g id="mockup" stroke="none" stroke-width="1" fill="none" fill-rule="evenodd">
        <g id="GOVERNMENT" transform="translate(-489.000000, -4609.000000)">
            <g id="Page-1-Copy-59" transform="translate(489.000000, 4610.000000)">
                <path d="M15,78.9053 C15,81.2173 11.642,83.0923 7.5,83.0923 C3.358,83.0923 0,81.2173 0,78.9053 C0,76.5933 3.358,74.7183 7.5,74.7183 C11.642,74.7183 15,76.5933 15,78.9053" id="Fill-1" fill-opacity="0.15" fill="#000000"></path>
                <path d="M45.1368,61.9187 C45.1368,64.2307 41.7788,66.1057 37.6368,66.1057 C33.4948,66.1057 30.1368,64.2307 30.1368,61.9187 C30.1368,59.6067 33.4948,57.7317 37.6368,57.7317 C41.7788,57.7317 45.1368,59.6067 45.1368,61.9187" id="Fill-3" fill-opacity="0.15" fill="#000000"></path>
                <path d="M37.6368,62.084 C34.8748,62.084 32.6368,59.846 32.6368,57.084 L32.6368,52.626 C32.6368,51.624 32.0128,51.114 31.6408,50.899 C31.2698,50.685 30.5168,50.4 29.6478,50.899 C27.2538,52.28 24.1968,51.459 22.8178,49.069 C21.4368,46.678 22.2558,43.62 24.6478,42.239 C28.4038,40.071 32.8868,40.073 36.6408,42.239 C40.3958,44.407 42.6368,48.29 42.6368,52.626 L42.6368,57.084 C42.6368,59.846 40.3988,62.084 37.6368,62.084" id="Fill-5" fill="#4D4D4D"></path>
                <path d="M37.6368,62.084 C34.8748,62.084 32.6368,59.846 32.6368,57.084 L32.6368,52.626 C32.6368,51.624 32.0128,51.114 31.6408,50.899 C31.2698,50.685 30.5168,50.4 29.6478,50.899 C27.2538,52.28 24.1968,51.459 22.8178,49.069 C21.4368,46.678 22.2558,43.62 24.6478,42.239 C28.4038,40.071 32.8868,40.073 36.6408,42.239 C40.3958,44.407 42.6368,48.29 42.6368,52.626 L42.6368,57.084 C42.6368,59.846 40.3988,62.084 37.6368,62.084 L37.6368,62.084 Z" id="Stroke-7" stroke="#FFFFFF" stroke-width="2"></path>
                <path d="M37.5841,40.4585 L35.1261,27.5795 C35.6701,26.2075 35.6261,24.6165 34.8301,23.2395 C33.4501,20.8475 30.3911,20.0275 28.0001,21.4095 L15.0001,28.9155 C14.6681,29.1065 13.9371,29.1065 13.6051,28.9155 C13.2721,28.7235 12.7091,28.4315 12.7091,28.0485 L12.7091,19.9335 C12.7091,17.1715 10.4711,14.9335 7.7091,14.9335 C4.9471,14.9335 2.7091,17.1715 2.7091,19.9335 L2.7091,28.0485 C2.7091,32.0255 4.9471,35.5865 8.3911,37.5755 C9.0781,37.9725 9.7091,38.2675 10.7091,38.5055 L10.7091,50.0405 L8.8871,50.9875 C5.1891,53.1235 2.7091,57.1025 2.7091,61.3735 L2.7091,73.9055 C2.7091,76.6665 4.9471,78.9055 7.7091,78.9055 C10.4711,78.9055 12.7091,76.6665 12.7091,73.9055 L12.7091,61.3735 C12.7091,60.6635 13.4861,60.0015 14.1011,59.6475 L21.5671,55.4505 L28.4071,54.0275 C31.0591,53.4685 33.4611,51.9485 35.0621,49.7615 L35.6311,49.0175 C37.4331,46.5545 38.1561,43.4555 37.5841,40.4585" id="Fill-9" fill="#4E91FF"></path>
                <path d="M37.5841,40.4585 L35.1261,27.5795 C35.6701,26.2075 35.6261,24.6165 34.8301,23.2395 C33.4501,20.8475 30.3911,20.0275 28.0001,21.4095 L15.0001,28.9155 C14.6681,29.1065 13.9371,29.1065 13.6051,28.9155 C13.2721,28.7235 12.7091,28.4315 12.7091,28.0485 L12.7091,19.9335 C12.7091,17.1715 10.4711,14.9335 7.7091,14.9335 C4.9471,14.9335 2.7091,17.1715 2.7091,19.9335 L2.7091,28.0485 C2.7091,32.0255 4.9471,35.5865 8.3911,37.5755 C9.0781,37.9725 9.7091,38.2675 10.7091,38.5055 L10.7091,50.0405 L8.8871,50.9875 C5.1891,53.1235 2.7091,57.1025 2.7091,61.3735 L2.7091,73.9055 C2.7091,76.6665 4.9471,78.9055 7.7091,78.9055 C10.4711,78.9055 12.7091,76.6665 12.7091,73.9055 L12.7091,61.3735 C12.7091,60.6635 13.4861,60.0015 14.1011,59.6475 L21.5671,55.4505 L28.4071,54.0275 C31.0591,53.4685 33.4611,51.9485 35.0621,49.7615 L35.6311,49.0175 C37.4331,46.5545 38.1561,43.4555 37.5841,40.4585 L37.5841,40.4585 Z" id="Stroke-11" stroke="#FFFFFF" stroke-width="2"></path>
                <path d="M30.505,30.7403 C28.776,30.7403 27.096,29.8433 26.169,28.2383 C24.789,25.8463 25.609,22.7893 28.001,21.4083 C28.309,21.2303 28.5,20.8993 28.5,20.5433 L28.5,5.5003 C28.5,2.7383 30.738,0.5003 33.5,0.5003 C36.262,0.5003 38.5,2.7383 38.5,5.5003 L38.5,20.5433 C38.5,24.4613 36.393,28.1123 32.999,30.0703 C32.212,30.5243 31.353,30.7403 30.505,30.7403" id="Fill-13" fill="#4D4D4D"></path>
                <path d="M30.505,30.7403 C28.776,30.7403 27.096,29.8433 26.169,28.2383 C24.789,25.8463 25.609,22.7893 28.001,21.4083 C28.309,21.2303 28.5,20.8993 28.5,20.5433 L28.5,5.5003 C28.5,2.7383 30.738,0.5003 33.5,0.5003 C36.262,0.5003 38.5,2.7383 38.5,5.5003 L38.5,20.5433 C38.5,24.4613 36.393,28.1123 32.999,30.0703 C32.212,30.5243 31.353,30.7403 30.505,30.7403 L30.505,30.7403 Z" id="Stroke-15" stroke="#FFFFFF" stroke-width="2"></path>
                <path d="M32,36.0473 C25.823,36.0473 20.816,31.0403 20.816,24.8643 C20.816,18.6883 25.823,13.6813 32,13.6813 C38.176,13.6813 43.183,18.6883 43.183,24.8643 C43.183,31.0403 38.176,36.0473 32,36.0473 Z" id="Fill-17" fill="#4E91FF"></path>
                <path d="M43.183,24.8643 C43.183,31.0403 38.176,36.0473 32,36.0473 C25.823,36.0473 20.816,31.0403 20.816,24.8643 C20.816,18.6883 25.823,13.6813 32,13.6813 C38.176,13.6813 43.183,18.6883 43.183,24.8643 L43.183,24.8643 Z" id="Stroke-19" stroke="#FFFFFF" stroke-width="2"></path>
            </g>
        </g>
    </g>
</svg>