<?xml version="1.0" encoding="utf-8"?>
<!-- Generator: Adobe Illustrator 20.1.0, SVG Export Plug-In . SVG Version: 6.00 Build 0)  -->
<svg version="1.1" id="圖層_1" xmlns="http://www.w3.org/2000/svg" xmlns:xlink="http://www.w3.org/1999/xlink" x="0px" y="0px"
	 viewBox="0 0 291 201.5" style="enable-background:new 0 0 291 201.5;" xml:space="preserve">
<style type="text/css">
	.st0{opacity:0.15;}
	.st1{filter:url(#Adobe_OpacityMaskFilter);}
	.st2{fill:#FFFFFF;}
	.st3{mask:url(#mask-4);}
</style>
<title>5AA0D598-4683-4256-AF21-3A4B2C1BC446</title>
<desc>Created with sketchtool.</desc>
<g id="Page-1" transform="translate(-63.000000, 339.000000)" class="st0">
	<path id="Fill-43" d="M115.5-182.6c-1.9,0.7-3.5,2-5.1,3.2c-2,1.6-4.2,3.5-4.2,6c0,2.4,1.8,4.2,2.8,6.4c0.9,2.1,1.2,4.5,2.7,6.2
		c1.1,1.1,2.8,1.7,4.4,1.4c1.6-0.3,2.9-1.4,3.5-2.9c1-2.5-0.2-5.3,0.3-7.9c0.4-2.1,1.8-3.8,2.6-5.8
		C124.7-181.3,120.2-184.4,115.5-182.6"/>
	<path id="Fill-45" d="M108.3-192.6c-0.8-0.1-1.8-0.1-2.5,0.4c-2.3,1.7,0.5,4.6,1.9,5.8c1.6,1.4,7.2,3.8,7.9,0.6
		C116.6-189.7,111.2-192.2,108.3-192.6"/>
	<path id="Fill-47" d="M94.8-186.2c-1.6,0.4-3.4,1.5-3.4,3.2c0,1.4,1.1,2.5,2.2,3.3c1.7,1.1,3.6,1.7,5.4,2.3c3.4,1,8.8,0,6.4-4.6
		C103.6-185.6,98.6-187.1,94.8-186.2"/>
	<path id="Fill-49" d="M93.1-173.5c-1,0-2.1,0.1-2.8,0.8c-0.7,0.7-0.9,1.8-0.6,2.8c0.3,1,0.9,1.8,1.6,2.5c1.7,1.8,4,3.1,6.4,3.2
		c2.9,0.1,7.7-3,5.7-6.4C101.8-173.2,95.7-173.5,93.1-173.5"/>
	<g id="Group-53" transform="translate(395.931142, 159.277896)">
		<g id="Clip-52">
		</g>
		<defs>
			<filter id="Adobe_OpacityMaskFilter" filterUnits="userSpaceOnUse" x="-297.6" y="-322" width="11.1" height="7.2">
				<feColorMatrix  type="matrix" values="1 0 0 0 0  0 1 0 0 0  0 0 1 0 0  0 0 0 1 0"/>
			</filter>
		</defs>
		<mask maskUnits="userSpaceOnUse" x="-297.6" y="-322" width="11.1" height="7.2" id="mask-4">
			<g class="st1">
				<polygon id="path-3" class="st2" points="-297.6,-314.8 -286.5,-314.8 -286.5,-322 -297.6,-322 				"/>
			</g>
		</mask>
		<path id="Fill-51" class="st3" d="M-288-316.2c0.1-0.1,0.3-0.2,0.4-0.2c1.5-1,1.5-3.8-0.1-4.6c-1.8-0.9-3.2-1.4-5.1-0.6
			c-1.2,0.5-2.3,1.4-3.3,2.2c-0.6,0.5-1.2,1.1-1.4,1.8c-0.1,0.8,0.3,1.5,0.9,2c0.6,0.5,1.4,0.6,2.2,0.7
			C-292.4-314.7-289.9-315.1-288-316.2"/>
	</g>
	<path id="Fill-64" d="M261.2-206.5c-1.9,0.7-3.5,2-5.1,3.2c-2,1.6-4.2,3.5-4.2,6c0,2.4,1.8,4.2,2.8,6.4c0.9,2.1,1.2,4.5,2.7,6.2
		c1.1,1.1,2.8,1.7,4.4,1.4c1.6-0.3,2.9-1.4,3.5-2.9c1-2.5-0.2-5.3,0.3-7.9c0.4-2.1,1.8-3.8,2.6-5.8
		C270.4-205.3,266-208.4,261.2-206.5"/>
	<path id="Fill-66" d="M254.1-216.6c-0.8-0.1-1.8-0.1-2.5,0.4c-2.3,1.7,0.5,4.6,1.9,5.8c1.6,1.4,7.2,3.8,7.9,0.6
		C262.4-213.7,257-216.1,254.1-216.6"/>
	<path id="Fill-68" d="M240.6-210.1c-1.6,0.4-3.4,1.5-3.4,3.2c0,1.4,1.1,2.5,2.2,3.3c1.7,1.1,3.6,1.7,5.4,2.3c3.4,1,8.8,0,6.4-4.6
		C249.4-209.6,244.3-211.1,240.6-210.1"/>
	<path id="Fill-70" d="M238.9-197.5c-1,0-2.1,0.1-2.8,0.8c-0.7,0.7-0.9,1.8-0.6,2.8c0.3,1,0.9,1.8,1.6,2.5c1.7,1.8,4,3.1,6.4,3.2
		c2.9,0.1,7.7-3,5.7-6.4C247.6-197.1,241.5-197.4,238.9-197.5"/>
	<path id="Fill-72" d="M253.7-180.9c0.1-0.1,0.3-0.2,0.4-0.2c1.5-1,1.5-3.8-0.1-4.6c-1.8-0.9-3.2-1.4-5.1-0.6
		c-1.2,0.5-2.3,1.4-3.3,2.2c-0.6,0.5-1.2,1.1-1.4,1.8c-0.1,0.8,0.3,1.5,0.9,2c0.6,0.5,1.4,0.6,2.2,0.7
		C249.3-179.3,251.8-179.8,253.7-180.9"/>
	<path id="Fill-74" d="M165.3-294.3c-1.9-0.7-3.5-2-5.1-3.2c-2-1.6-4.2-3.5-4.2-6c0-2.4,1.8-4.2,2.8-6.4c0.9-2.1,1.2-4.5,2.7-6.2
		c1.1-1.1,2.8-1.7,4.4-1.4c1.6,0.3,2.9,1.4,3.5,2.9c1,2.5-0.2,5.3,0.3,7.9c0.4,2.1,1.8,3.8,2.6,5.8
		C174.4-295.6,170-292.5,165.3-294.3"/>
	<path id="Fill-76" d="M158.1-284.3c-0.8,0.1-1.8,0.1-2.5-0.4c-2.3-1.7,0.5-4.6,1.9-5.8c1.6-1.4,7.2-3.8,7.9-0.6
		C166.4-287.2,161-284.7,158.1-284.3"/>
	<path id="Fill-78" d="M144.6-290.8c-1.6-0.4-3.4-1.5-3.4-3.2c0-1.4,1.1-2.5,2.2-3.3c1.7-1.1,3.6-1.7,5.4-2.3c3.4-1,8.8,0,6.4,4.6
		C153.4-291.3,148.3-289.8,144.6-290.8"/>
	<path id="Fill-80" d="M142.9-303.4c-1,0-2.1-0.1-2.8-0.8c-0.7-0.7-0.9-1.8-0.6-2.8c0.3-1,0.9-1.8,1.6-2.5c1.7-1.8,4-3.1,6.4-3.2
		c2.9-0.1,7.7,3,5.7,6.4C151.6-303.8,145.5-303.4,142.9-303.4"/>
	<g id="Group-84" transform="translate(445.722483, 0.059258)">
		<path id="Fill-82" d="M-288-320.1c0.1,0.1,0.3,0.2,0.4,0.2c1.5,1,1.5,3.8-0.1,4.6c-1.8,0.9-3.2,1.4-5.1,0.6
			c-1.2-0.5-2.3-1.4-3.3-2.2c-0.6-0.5-1.2-1.1-1.4-1.8c-0.1-0.8,0.3-1.5,0.9-2c0.6-0.5,1.4-0.6,2.2-0.7
			C-292.4-321.6-289.9-321.2-288-320.1"/>
	</g>
	<path id="Fill-96" d="M311-270.4c-1.9-0.7-3.5-2-5.1-3.2c-2-1.6-4.2-3.5-4.2-6c0-2.4,1.8-4.2,2.8-6.4c0.9-2.1,1.2-4.5,2.7-6.2
		c1.1-1.1,2.8-1.7,4.4-1.4c1.6,0.3,2.9,1.4,3.5,2.9c1,2.5-0.2,5.3,0.3,7.9c0.4,2.1,1.8,3.8,2.6,5.8
		C320.2-271.6,315.8-268.6,311-270.4"/>
	<path id="Fill-98" d="M303.9-260.4c-0.8,0.1-1.8,0.1-2.5-0.4c-2.3-1.7,0.5-4.6,1.9-5.8c1.6-1.4,7.2-3.8,7.9-0.6
		C312.2-263.3,306.8-260.8,303.9-260.4"/>
	<path id="Fill-100" d="M290.4-266.8c-1.6-0.4-3.4-1.5-3.4-3.2c0-1.4,1.1-2.5,2.2-3.3c1.7-1.1,3.6-1.7,5.4-2.3c3.4-1,8.8,0,6.4,4.6
		C299.2-267.4,294.1-265.9,290.4-266.8"/>
	<path id="Fill-102" d="M288.7-279.5c-1,0-2.1-0.1-2.8-0.8c-0.7-0.7-0.9-1.8-0.6-2.8c0.3-1,0.9-1.8,1.6-2.5c1.7-1.8,4-3.1,6.4-3.2
		c2.9-0.1,7.7,3,5.7,6.4C297.4-279.8,291.2-279.5,288.7-279.5"/>
	<path id="Fill-104" d="M303.5-296.1c0.1,0.1,0.3,0.2,0.4,0.2c1.5,1,1.5,3.8-0.1,4.6c-1.8,0.9-3.2,1.4-5.1,0.6
		c-1.2-0.5-2.3-1.4-3.3-2.2c-0.6-0.5-1.2-1.1-1.4-1.8c-0.1-0.8,0.3-1.5,0.9-2c0.6-0.5,1.4-0.6,2.2-0.7
		C299.1-297.6,301.6-297.1,303.5-296.1"/>
</g>
</svg>
