<svg xmlns="http://www.w3.org/2000/svg" viewBox="0 0 288.33 262"><defs><style>.cls-1{fill:#fff;}.cls-2{fill-opacity:0.1;}.cls-3{fill:#e6e6e6;}.cls-4{fill:#fff000;}.cls-5{fill:#4e91ff;}.cls-6{fill:#4d4d4d;}.cls-7{fill:#ff6496;}</style></defs><title>tnvr-n</title><g id="tnvr-n-bg"><g id="mask-2"><polygon id="path-1" class="cls-1" points="162.67 0.8 154.67 0.8 154.67 14.3 162.67 14.3 162.67 0.8"/></g><g id="shadow"><path id="Fill-1" class="cls-2" d="M152.77,29.1c5.2.6,9.9,1.6,11.9,5.3,3.8,7.3,1.6,18.1,4.2,26.3s11,17.3,11.5,25.9c.3,4.9-2.4,9.4-3.2,14.2-1.9,11.1,6.2,22.3,3.4,33.2-.9,3.5-2.9,6.7-4.7,9.9a85.33,85.33,0,0,0-10.3,37.6c-.5,14,3.7,23.2,13,33.6a24.7,24.7,0,0,1-16.8,5.9c-2.7-.1-5.5-.6-8.2-.3s-5.6,1.6-6.7,4.1c-5.4,12,29.3,30.9,3,35.9-17.7,3.4-33.1-3.7-35.4-22.5-1.3-10.5-1.4-21.7-6.6-30.9-3.4-6.1-8.9-11-11.2-17.5-3.7-10.2,1.1-21.7-.8-32.4-1.4-8.3-6.8-15.7-7.6-24.1-.4-4.3.5-8.7,1.6-12.9,3.2-11.7,9.5-22.3,13.6-33.7,1.9-5.2,3.7-9.2,2.8-14.9s-3.7-10.7-3.9-16.4c-.2-5.4,2.1-10.6,4.6-15.4,4-7.8,11.6-23.8,23.5-19,2.4,1,4.1,3.2,6.3,4.7,3.6,2.7,10.1,2.7,16,3.4"/></g><g id="wow"><path id="Fill-47" class="cls-3" d="M115.47,15.5c1.3-5.2-1.5-11.3-7-12.5-.9-.2-1.1,3.3.1,3.6,3.2.7,6.3,3.9,5.7,7.4-.2.9.7,3.5,1.2,1.5"/><path id="Fill-49" class="cls-3" d="M188.47,47.4a9.51,9.51,0,0,1,9-2c.9.2,1.1-3.3-.1-3.6a9.79,9.79,0,0,0-9.4,2.7c-.5.6-.2,3.5.5,2.9"/><path id="Fill-51" class="cls-3" d="M155.87,13.6a20.46,20.46,0,0,1,6.5-9.8c.6-.5.4-3.4-.4-2.9a17.28,17.28,0,0,0-7.2,11.3c-.2.8.6,3.2,1.1,1.4"/><path id="Fill-54" class="cls-3" d="M161.37,19a6,6,0,0,1,3-2.9c.5-.2.3-2.1-.3-1.8a7,7,0,0,0-3.3,3.5,1.65,1.65,0,0,0,0,1.2q.3.45.6,0"/><path id="Fill-56" class="cls-3" d="M89,48.3a17.6,17.6,0,0,0-14.6-2.5c-1.1.3-.8,3.6.1,3.4a22.33,22.33,0,0,1,14.2,1.5c.9.4.9-2,.3-2.4"/><path id="Fill-59" class="cls-3" d="M88.77,55.2a15.18,15.18,0,0,0-7.6,1.4c-.9.4-.5,3.6.4,3.1a15.47,15.47,0,0,1,7.3-1.8c.8,0,.7-2.7-.1-2.7"/></g><g id="dog"><path id="Fill-3" class="cls-4" d="M85.77,146.9c-2,.7-3.7,1-5.5,2.4a15.66,15.66,0,0,0-3.9,4.9,21.85,21.85,0,0,0-1.9,11.3c.3,5.9,3.7,11.2,7,15.8a33.29,33.29,0,0,0,2.5,2.8,53.25,53.25,0,0,0,3.8,4.5,29.07,29.07,0,0,0,6.3,5.3,16.66,16.66,0,0,0,5.8,2c2,.3,3.9-.1,5.8.3"/><path id="Fill-5" class="cls-5" d="M159.47,132c.2-8.1.1-16.3-1.7-24.2-3.4-15.1-12.4-28-21.4-40-10.9-14.5-14.5,8.5-17.7,15.7-.9,1.9-2,3.7-3,5.6-6.9,13.7-9,27.5-5.7,42.7.1.6.3,1.2.4,1.8a25.72,25.72,0,0,1,4,3.4,32.64,32.64,0,0,0-4-3.4c1.4,6.6,4,12.8,4.8,19.5a19.33,19.33,0,0,1,.1,3.4,86.37,86.37,0,0,0,43.1,2.3c-.5-2.5-.2-5.7.4-9.6a9.36,9.36,0,0,1-1.6-.4c.5,0,1,.1,1.6.1.3-5.6.5-11.2.7-16.9"/><path id="Fill-7" class="cls-5" d="M173,201.2a6.05,6.05,0,0,1-.3-3.3c1.6-7.3,10.8-11.2,15.6-15.4,5.3-4.6,11-9.9,11.8-17.3.5-4.7-1.1-9.5-3.1-13.6a15.17,15.17,0,0,0-3.2-4.6c-4.1-3.6-10-1.7-14.9.3-6.2,2.6-14.5,8.2-20.7,6s-10.4-.8-17-.8a80.19,80.19,0,0,1-26.5-4.5c-1.2,12.6-10.7,3.6-16.4.7-4.2-2.2-9.2-3.5-13.5-1.5-4.5,2-7.3,7.3-7.8,12.7s1.2,10.7,3.7,15.3a56.89,56.89,0,0,0,11.5,14.2c2.3,2.1,12.9,6.4,10.2,11.2-1.5,2.6-7.6,4.9-10.1,6.3-3.9,2.3-7.9,4.5-11.9,6.5a5,5,0,0,0-2.2,1.6c-1.2,1.9.1,4.4,1.3,6.3s2.7,3.8,4.7,4.5a7.38,7.38,0,0,0,3.9-.1c4.1-1.1,7.5-4.1,10.8-7,3.8-3.3,7.6-6.7,11.4-10,2.7-2.4,7.4-3.9,8.9-7.5,2-4.9-2.5-9.6-1.1-14.3.8-2.6,3.3-4,5.7-4.8a43.47,43.47,0,0,1,22.6-1.8c7.8,1.5,16.3,7,16.6,15.7.1,2.6-1.9,6.3-1.2,8.8.6,2.3,4.3,4.7,5.9,6.3a163.48,163.48,0,0,0,14.4,12,6,6,0,0,0,3.7,1.5,5.18,5.18,0,0,0,3-1.9l5.4-5.1c.7-.7,1.5-1.7,1-2.6a1.76,1.76,0,0,0-.9-.8c-4.4-2.6-18.7-6.5-21.3-13"/><path id="Fill-9" class="cls-4" d="M133.37,42.5c-.2-2.7,2.5-6.9,3.3-9a2.88,2.88,0,0,0,.1-2.4c-.6-1-2-1-3.1-.8-7,1.4-12.1,6.7-16.1,12.5-3.8,5.4-7.1,12.2-6.9,19a9.07,9.07,0,0,0,1,4.3,12.87,12.87,0,0,0,3.9,3.8,153,153,0,0,1,15.2,12.5c4.1,3.8,5,9.7,9.7,12.9a14.09,14.09,0,0,0,3.2,1.7c3.8,1.1,7.8-.7,11.1-2.8a76.05,76.05,0,0,1,8.7-5.1,9.58,9.58,0,0,0,4.5-5.2c.8-2.8-1-6.4-2.6-8.6-3.3-4.5-8.1-9.2-10.8-14.1a19.08,19.08,0,0,1-2.1-11.7c.7-4,2.5-7.8,2.4-11.9a1.8,1.8,0,0,0-.2-1,1.84,1.84,0,0,0-1.5-.5c-4.9.2-9.8,5-12.3,8.9-.8,1.2-6.6-.1-7.2-1.6a3.18,3.18,0,0,1-.3-.9"/><path id="Fill-11" class="cls-5" d="M136.07,42.6a35.2,35.2,0,0,1,1.8-10.1,1.23,1.23,0,0,0-1.3-1.6,14.74,14.74,0,0,0-8.3,4c-6.9,6.1-14.2,17.5-13.8,26.9a9.07,9.07,0,0,0,1,4.3,12.87,12.87,0,0,0,3.9,3.8,153,153,0,0,1,15.2,12.5c3.6,3.4,4.7,9.1,9.3,11.5a7.94,7.94,0,0,0,6.4.4c1.9-.7,3.4-2.1,5.3-2.9,2.9-1.2,6.2-.8,9.2-1.7,2.7-.8,6.3-3,7.1-5.9s-1-6.4-2.6-8.6c-3.3-4.5-8.1-9.2-10.8-14.1-2.6-4.7-2.4-11.5-3-16.8-.2-1.7.4-4.6.6-6.3a1.27,1.27,0,0,0-1.7-1.3,22.38,22.38,0,0,0-9.8,8.2,1.24,1.24,0,0,1-1.5.5,40.24,40.24,0,0,0-6-1.4,1.17,1.17,0,0,1-1-1.4h0"/><path id="Fill-13" class="cls-6" d="M131.17,53.3a11.7,11.7,0,0,1-.5,2c-.1.7-.3,1.9-1.2,2-.7,0-1.1-.9-1-1.7a11.14,11.14,0,0,1,.8-3c.1-.2.2-.5.4-.6a1,1,0,0,1,1.4.5c0,.2.1.5.1.8"/><path id="Fill-15" class="cls-6" d="M152.57,80.2a3.81,3.81,0,0,0-1.1,2.4,4.73,4.73,0,0,0,1.7.1,40.26,40.26,0,0,0,7.6-1.9,4.11,4.11,0,0,0-1.3-2.9,7.3,7.3,0,0,0-2.9-1.5h-.2c-.1,0-.2.1-.3.2a29.77,29.77,0,0,0-3.5,3.6"/><path id="Fill-17" class="cls-6" d="M144.67,55.8a4.35,4.35,0,0,1,.8-1.5,1.38,1.38,0,0,1,1.6-.3,9.87,9.87,0,0,1-.3,4.2,2.24,2.24,0,0,1-.8,1.5,1.23,1.23,0,0,1-1.6.2c-.6-1.1-.1-2.7.3-4.1"/><path id="Fill-19" class="cls-6" d="M110.07,95.7c3.6-3.6,7.8.4,8.9,4.2a19.28,19.28,0,0,1-.5,11.4c-.8,2.5-2.1,4.6-2.7,7.2a73.11,73.11,0,0,1-3.6,12.1c-4.5,10.4-12-2.3-16.3-5.9a26.5,26.5,0,0,1-6.8-8.1c-1.3-2.6-1.5-6.6,1.1-7.8,6.1-2.8,7.7,6.9,12.3,7.4a2.91,2.91,0,0,0,2.6-1.8c1.6-2.8,1.7-6.2,1.9-9.4s.7-6.7,2.9-9.1c.1-.1.2-.1.2-.2"/><path id="Fill-21" class="cls-5" d="M109.47,91.8a6.93,6.93,0,0,1,5.8-.2c2.2,1.1,3.3,3.7,3.6,6.2a17.47,17.47,0,0,1-.8,8.2,47.83,47.83,0,0,1-2.8,6.1,74.65,74.65,0,0,0-5.5,14.5,15.46,15.46,0,0,1-.7,2.3,3.21,3.21,0,0,1-5.7.7c-4.4-6.6-12.6-10.8-15.2-18.7a4.56,4.56,0,0,1,1-4.6c2-2,4.6-.8,6.7.4s4.5,2.5,6.7,3.8c-3.4-6.7,0-15.8,6.9-18.7"/><path id="Fill-23" class="cls-6" d="M102,136.4a1.56,1.56,0,0,1-.8.6,13.24,13.24,0,0,1-11.8.1c-1.3-.7-2.6-1.6-3-2.9a6.89,6.89,0,0,1-.1-3.2c.9-6.5.5-14,2.8-20.2.5-1.3,1-2.6,2.2-3.2a3.45,3.45,0,0,1,3.4.2,7.49,7.49,0,0,1,2.4,2.6c2.2,3.6,2.5,7.7,3.1,11.8.6,4.4,1.7,8.6,2,13.1a2,2,0,0,1-.2,1.1"/><path id="Fill-25" class="cls-5" d="M99.87,134a1.34,1.34,0,0,1-.7.6,10.25,10.25,0,0,1-10.3.1,5.26,5.26,0,0,1-2.6-2.9,8.55,8.55,0,0,1-.1-3.2c.6-5.2,1.1-10.4,1.3-15.6.1-2.1.2-4.2,1.3-6s3.6-2.8,5.3-1.6c1.2.8,1.6,2.4,1.9,3.8,1.7,7.8,3.4,15.7,4,23.6,0,.5.1.9-.1,1.2"/><path id="Fill-27" class="cls-6" d="M155.37,108.6a7,7,0,0,1,3.2-2c3.5-1.1,5.5.7,6.3,4a49.37,49.37,0,0,1,1.2,7.7c.1,1,.8,7.5.1,7.9a59.08,59.08,0,0,1,19.4-7.2c1.7-.3,1.9,3,1.8,4-.2,2.3-2.4,4-4.2,5.3q-4.5,3.6-9.3,6.9a15,15,0,0,1-3.9,2.2c-6.1,2-10.5-4.5-13.4-8.9-2.9-4.7-5.6-15.1-1.2-19.9"/><path id="Fill-29" class="cls-5" d="M152.67,102.3c3.3-5.6,10.8-3.9,12.9,1.5,2.7,6.8,3.2,13.5,2.9,20.8a61.62,61.62,0,0,1,19.4-7.3c1.8-.3,2,3.5,1.7,4.7-.4,1.7-1,2-2.5,2.7-4,2-7.9,3.1-11.6,5.8-2.9,2.1-6.2,4.8-9.6,3.7-1.6-.5-2.8-1.9-3.9-3.1-5.7-6.7-10.9-14.7-10.7-23.5a13.9,13.9,0,0,1,1.4-5.3"/><path id="Fill-31" class="cls-4" d="M200,139.7a8,8,0,0,1-3.8,1.4c-2.1.1-4-1.5-5.3-3.2a28.43,28.43,0,0,1-3.3-6.5,74.09,74.09,0,0,1-3.1-7,5.93,5.93,0,0,1-.5-2.3c0-1.4-.1-2.6,1-3.6a10.38,10.38,0,0,1,1.7-1.2c.2-.1.5-.2.7-.3a2.08,2.08,0,0,1,1.2.5,12.65,12.65,0,0,1,3.5,4.4,17.55,17.55,0,0,0,2.1,3.8,88.48,88.48,0,0,1,6.3,8.8c.8,1.2,1.5,2.9.7,4.1a2.58,2.58,0,0,1-1.2,1.1"/><path id="Fill-33" class="cls-5" d="M201.47,138.7a8,8,0,0,1-3.8,1.4c-2.1.1-4-1.5-5.3-3.2a28.43,28.43,0,0,1-3.3-6.5c-.8-1.9-1.6-3.9-2.4-5.8a14.84,14.84,0,0,1-1.2-4.1,4,4,0,0,1,.6-2.6,2.24,2.24,0,0,1,2.4-.9,6,6,0,0,1,1.3.9,97.67,97.67,0,0,1,12.4,15.6c.8,1.2,1.5,2.9.7,4.1a4.86,4.86,0,0,1-1.4,1.1"/><path id="Fill-35" class="cls-5" d="M177.77,191.9h0a1,1,0,0,0-.5-.4Z"/><path id="Fill-37" class="cls-6" d="M124.07,234.7a18.68,18.68,0,0,0,1.1,6.6c2.2,5.6,7.7,9.3,13.3,11.5a32.34,32.34,0,0,0,14.4,2.6,2.13,2.13,0,0,0,1-3.9,51.4,51.4,0,0,1-13.8-12.5,22,22,0,0,1-4.3-8.3c-1.3-5.2.3-10.5,2.6-15.5a2.1,2.1,0,0,0-3.2-2.5,28,28,0,0,0-11.1,22"/><path id="Fill-39" class="cls-6" d="M169.37,172c3.7-3.5,5.4-8.1,8.7-11.9,1.7-1.9,3.4-3.9,5.7-5.1a7.62,7.62,0,0,0-5.1.8c-6.1,3.2-9.6,10.7-13.3,16.2a4.13,4.13,0,0,0-.7,1.5c0,.5.3,1.2.9,1.2a1.78,1.78,0,0,0,1-.4c1-.8,1.9-1.5,2.8-2.3"/></g></g><g id="tnvr-n-top"><g id="neuter"><path id="Fill-41" class="cls-7" d="M178.37,195A29,29,0,0,1,168,208.1c-7.2,5.3-16.1,7.6-25,8.7-5.9.7-12,.9-17.9-.5-9.9-2.4-18.3-9.4-23.6-18.1s-7.6-19-7.8-29.2c-.1-4.9.3-10,2.5-14.5a27.42,27.42,0,0,1,8.1-9.5c13.5-10.6,33-12.6,48.5-5.3s26.3,23.5,27.5,40.7a34.46,34.46,0,0,1-1.9,14.6"/><path id="Fill-43" class="cls-1" d="M165.67,192.3c-2.7,4.8-7.7,7.9-12.9,9.7a41.28,41.28,0,0,1-12.6,2.3c-9.5.2-19.2-3.2-25.8-10s-9.8-17.2-7.2-26.3c3.5-12.3,17.1-20.1,29.7-18.7s23.6,11,28.5,22.7c2.7,6.4,3.7,14.1.3,20.3"/><path id="Fill-45" class="cls-7" d="M108.37,189.7c3.7,4.7,4.7,7.2,7.6,12.4a236.69,236.69,0,0,1,17.5-17.2c10.7-9.1,23.1-16.2,32.8-26.4a54.34,54.34,0,0,0-6.4-6.3,2.25,2.25,0,0,0-1.4-.8,3,3,0,0,0-1.3.5,438.09,438.09,0,0,0-48.8,37.8"/></g></g></svg>