<?xml version="1.0" encoding="utf-8"?>
<!-- Generator: Adobe Illustrator 18.0.0, SVG Export Plug-In . SVG Version: 6.00 Build 0)  -->
<!DOCTYPE svg PUBLIC "-//W3C//DTD SVG 1.1//EN" "http://www.w3.org/Graphics/SVG/1.1/DTD/svg11.dtd">
<svg version="1.1" xmlns="http://www.w3.org/2000/svg" xmlns:xlink="http://www.w3.org/1999/xlink" x="0px" y="0px"
	 viewBox="0 0 175.2 164.9" enable-background="new 0 0 175.2 164.9" xml:space="preserve">
<g id="圖層_1">
	<g>
		<circle fill="#3E3A39" stroke="#3E3A39" stroke-width="10" stroke-miterlimit="10" cx="92.7" cy="82.5" r="77.5"/>
		<circle fill="#C9CACA" stroke="#3E3A39" stroke-width="10" stroke-miterlimit="10" cx="82.5" cy="82.5" r="77.5"/>
		
			<line fill="none" stroke="#3E3A39" stroke-width="6" stroke-linecap="round" stroke-miterlimit="10" x1="82.5" y1="16.6" x2="82.5" y2="28.1"/>
		
			<line fill="none" stroke="#3E3A39" stroke-width="3" stroke-linecap="round" stroke-miterlimit="10" x1="114.9" y1="26.5" x2="110.3" y2="34.4"/>
		
			<line fill="none" stroke="#3E3A39" stroke-width="3" stroke-linecap="round" stroke-miterlimit="10" x1="138.6" y1="50.3" x2="130.6" y2="54.8"/>
		
			<line fill="none" stroke="#3E3A39" stroke-width="6" stroke-linecap="round" stroke-miterlimit="10" x1="148.3" y1="82.5" x2="136.8" y2="82.5"/>
		
			<line fill="none" stroke="#3E3A39" stroke-width="3" stroke-linecap="round" stroke-miterlimit="10" x1="138.5" y1="114.8" x2="130.5" y2="110.2"/>
		
			<line fill="none" stroke="#3E3A39" stroke-width="3" stroke-linecap="round" stroke-miterlimit="10" x1="114.8" y1="138.5" x2="110.2" y2="130.6"/>
		
			<line fill="none" stroke="#3E3A39" stroke-width="6" stroke-linecap="round" stroke-miterlimit="10" x1="82.5" y1="148.3" x2="82.5" y2="136.8"/>
		
			<line fill="none" stroke="#3E3A39" stroke-width="3" stroke-linecap="round" stroke-miterlimit="10" x1="50" y1="138.5" x2="54.6" y2="130.5"/>
		
			<line fill="none" stroke="#3E3A39" stroke-width="3" stroke-linecap="round" stroke-miterlimit="10" x1="26.3" y1="114.7" x2="34.3" y2="110.1"/>
		
			<line fill="none" stroke="#3E3A39" stroke-width="6" stroke-linecap="round" stroke-miterlimit="10" x1="16.6" y1="82.5" x2="28.1" y2="82.5"/>
		
			<line fill="none" stroke="#3E3A39" stroke-width="3" stroke-linecap="round" stroke-miterlimit="10" x1="26.4" y1="50.1" x2="34.4" y2="54.7"/>
		
			<line fill="none" stroke="#3E3A39" stroke-width="3" stroke-linecap="round" stroke-miterlimit="10" x1="50.1" y1="26.4" x2="54.7" y2="34.3"/>
		<polygon opacity="0.15" points="122.5,117.5 110.3,154 80.3,159.9 52.3,153.8 30.6,140 61,49.1 82.5,82.5 		"/>
		<circle fill="none" stroke="#3E3A39" stroke-width="10" stroke-miterlimit="10" cx="82.5" cy="82.5" r="77.5"/>
		
			<circle fill="#C9CACA" stroke="#3E3A39" stroke-width="3" stroke-linecap="round" stroke-miterlimit="10" cx="82.5" cy="82.5" r="4.6"/>
		<path fill="#3E3A39" d="M79.4,79.8c0,0-0.5-0.3-1.3-1c-0.4-0.3-0.9-0.7-1.4-1.2c-0.5-0.5-1.1-1-1.7-1.7c-0.6-0.6-1.2-1.3-1.8-2
			c-0.6-0.7-1.3-1.5-1.9-2.4c-1.2-1.7-2.3-3.7-3.4-5.6c-0.5-1-1.1-2-1.5-3c-0.5-1-0.9-2-1.4-3c-0.9-1.9-1.8-3.7-2.5-5.2
			c-1.5-3-2.5-5.1-2.5-5.1c-0.3-0.6,0-1.3,0.5-1.6c0.5-0.2,1.1-0.1,1.4,0.3c0,0,1.4,1.7,3.6,4.4c1.1,1.3,2.3,2.8,3.7,4.4
			c0.7,0.8,1.4,1.6,2.1,2.5c0.7,0.8,1.4,1.7,2.1,2.6c1.3,1.8,2.7,3.6,3.7,5.4c0.5,0.9,1,1.8,1.4,2.7c0.4,0.9,0.8,1.7,1.1,2.5
			c0.3,0.8,0.6,1.5,0.8,2.2c0.2,0.7,0.4,1.3,0.5,1.7c0.3,1,0.4,1.6,0.4,1.6c0.1,0.7-0.3,1.3-1,1.4C80,80.1,79.6,80,79.4,79.8z"/>
		<path fill="#3E3A39" d="M86.1,84.2c0,0,0.8,0.3,2,1c0.6,0.3,1.4,0.8,2.2,1.3c0.8,0.5,1.8,1.1,2.8,1.8c1,0.7,2.1,1.4,3.1,2.2
			c1.1,0.8,2.2,1.7,3.4,2.7c1.1,1,2.2,2,3.3,3.1c1.1,1.1,2.3,2.2,3.4,3.3c2.3,2.2,4.6,4.4,6.7,6.5c1.1,1,2.1,2,3.1,2.9
			c1,0.9,2,1.8,2.8,2.6c3.5,3.2,6,5.2,6,5.2c0.4,0.4,0.5,1,0.1,1.4c-0.4,0.4-1,0.5-1.4,0.1c0,0-2.4-2-6.2-4.9c-0.9-0.7-2-1.5-3-2.3
			c-1.1-0.8-2.2-1.7-3.4-2.6c-2.4-1.8-5-3.6-7.5-5.5c-1.3-0.9-2.6-1.9-3.8-2.8c-1.3-0.9-2.5-1.8-3.7-2.7c-1.1-0.9-2.2-1.9-3.2-2.8
			c-1-0.9-1.9-1.8-2.7-2.7c-0.8-0.8-1.6-1.7-2.2-2.4c-0.6-0.7-1.2-1.4-1.6-1.9c-0.9-1.1-1.3-1.8-1.3-1.8c-0.3-0.5-0.2-1.1,0.3-1.4
			C85.4,84.1,85.8,84.1,86.1,84.2z"/>
	</g>
</g>
<g id="Layer_2">
</g>
</svg>
