<?xml version="1.0" encoding="UTF-8" standalone="no"?>
<svg width="180px" height="180px" viewBox="0 0 180 180" version="1.1" xmlns="http://www.w3.org/2000/svg" xmlns:xlink="http://www.w3.org/1999/xlink">
    <!-- Generator: Sketch 39.1 (31720) - http://www.bohemiancoding.com/sketch -->
    <title>icon_Boxing</title>
    <desc>Created with Sketch.</desc>
    <defs>
        <ellipse id="path-1" cx="90.4440559" cy="90.0471698" rx="74.4440559" ry="74.0471698"></ellipse>
        <filter x="-50%" y="-50%" width="200%" height="200%" filterUnits="objectBoundingBox" id="filter-2">
            <feOffset dx="0" dy="4" in="SourceAlpha" result="shadowOffsetOuter1"></feOffset>
            <feColorMatrix values="0 0 0 0 1   0 0 0 0 1   0 0 0 0 1  0 0 0 1 0" type="matrix" in="shadowOffsetOuter1"></feColorMatrix>
        </filter>
    </defs>
    <g id="Page-1" stroke="none" stroke-width="1" fill="none" fill-rule="evenodd">
        <g id="icon_Boxing">
            <g id="Oval-2">
                <use fill="black" fill-opacity="1" filter="url(#filter-2)" xlink:href="#path-1"></use>
                <use fill="#B1F3F8" fill-rule="evenodd" xlink:href="#path-1"></use>
            </g>
            <g id="Page-1" transform="translate(15.000000, 29.000000)">
                <g id="Group-5" transform="translate(6.000000, 83.106000)">
                    <path d="M53.0695,38.0612 L40.1295,51.0112 C37.3095,53.8312 32.7295,53.8312 29.9095,51.0112 L6.1595,27.2612 L24.2095,9.2012 L53.0695,38.0612 Z" id="Fill-1" fill="#FFFFFF"></path>
                    <path d="M24.2095,9.2012 L6.1595,27.2612 L2.6195,23.7112 C-0.2005,20.8912 -0.2005,16.3212 2.6195,13.5012 L15.5595,0.5512 L24.2095,9.2012 Z" id="Fill-3" fill="#FFBE64"></path>
                </g>
                <path d="M72.9402,5.1994 C76.5142,1.2114 82.0362,-0.4136 87.2012,1.0034 L87.2012,1.0034 C89.5652,1.6524 91.7192,2.9044 93.4522,4.6384 L132.1612,43.3474 C141.8322,53.0184 141.0382,68.9254 130.4512,77.5844 L84.8042,114.9224 C77.3362,121.0304 66.4552,120.4874 59.6332,113.6654 L31.9382,85.9704 C26.7002,80.7324 22.6762,74.4064 20.1522,67.4404 L19.8732,66.6714 C17.0112,58.7704 18.5202,49.9464 23.8452,43.4454 L35.0062,29.8204 C39.2042,24.6954 46.9142,24.3274 51.5822,29.0294 L51.5832,29.0304" id="Fill-6" fill="#FF5050"></path>
                <path d="M67.5733,20.0596 L39.0173,53.4326" id="Stroke-8" stroke="#000000" stroke-width="5" stroke-linecap="round" stroke-linejoin="round"></path>
                <path d="M43.5712,46.1107 L42.3962,44.0577 C40.0032,39.8777 40.5572,34.6347 43.7722,31.0477 L66.9362,5.1997 C70.5102,1.2107 76.0322,-0.4133 81.1972,1.0037 L81.1972,1.0037 C83.5612,1.6527 85.7152,2.9047 87.4492,4.6387 L126.1582,43.3477 C135.8292,53.0187 135.0342,68.9257 124.4482,77.5847 L78.8002,114.9227 C71.3322,121.0307 60.4512,120.4877 53.6292,113.6647 L25.9342,85.9707 C20.6962,80.7317 16.6722,74.4067 14.1492,67.4407 L13.8702,66.6717 C11.0072,58.7707 12.5162,49.9457 17.8412,43.4447 L29.0022,29.8197 C33.2002,24.6947 40.9112,24.3267 45.5782,29.0287 L45.5802,29.0307" id="Stroke-10" stroke="#000000" stroke-width="5" stroke-linecap="round" stroke-linejoin="round"></path>
                <path d="M53.0666,121.1717 L40.1256,134.1127 C37.3056,136.9327 32.7316,136.9327 29.9106,134.1127 L2.6156,106.8177 C-0.2054,103.9967 -0.2054,99.4227 2.6156,96.6017 L15.5566,83.6617" id="Stroke-12" stroke="#000000" stroke-width="5" stroke-linecap="round" stroke-linejoin="round"></path>
                <path d="M23.0605,93.4611 L11.0145,105.5071" id="Stroke-14" stroke="#000000" stroke-width="3" stroke-linecap="round"></path>
                <path d="M24.5173,113.4576 L41.5163,117.4016" id="Stroke-16" stroke="#000000" stroke-width="3" stroke-linecap="round"></path>
                <path d="M34.9886,123.9288 L31.0446,106.9298" id="Stroke-18" stroke="#000000" stroke-width="3" stroke-linecap="round"></path>
                <path d="M108.7703,79.019 L91.1943,93.395" id="Stroke-20" stroke="#000000" stroke-width="3" stroke-linecap="round"></path>
                <path d="M95.9858,26.7657 L115.6488,46.4287 C120.1168,50.8967 121.8258,57.0087 120.8778,62.7357 C120.5208,64.8917 119.7878,66.9927 118.6838,68.9307 C118.1338,69.8967 117.4928,70.8217 116.7598,71.6927" id="Stroke-22" stroke="#000000" stroke-width="3" stroke-linecap="round"></path>
                <path d="M128.7606,33.1918 L133.8816,38.3128 C146.4156,50.8468 145.3866,71.4638 131.6656,82.6878 L103.7666,105.5068" id="Stroke-24" stroke="#000000" stroke-width="3" stroke-linecap="round"></path>
                <path d="M53.2951,134.169 L44.9871,142.477 C39.4821,147.982 30.5551,147.982 25.0491,142.477 L3.5031,120.931" id="Stroke-26" stroke="#000000" stroke-width="3" stroke-linecap="round"></path>
            </g>
        </g>
    </g>
</svg>