<svg id="圖層_1" xmlns="http://www.w3.org/2000/svg" viewBox="0 0 30 30"><style>.st0{fill:#d5c6b3}</style><path class="st0" d="M7.9 15.7c-1.3-.1-2.4-.7-3.3-1.6-.8-.9-1.3-2-1.3-3.2 0-1.3.4-2.3 1.3-3.2.8-.9 1.9-1.3 3.1-1.3 1.4 0 2.6.6 3.6 1.7s1.5 2.5 1.5 4.1c0 4.9-2.7 8.7-8.1 11.4l-1.5-2.7c3.2-1.5 4.7-3.2 4.7-5.2zm13.7 0c-1.3-.1-2.4-.7-3.2-1.6-.8-.9-1.3-2-1.3-3.2 0-1.3.4-2.3 1.3-3.2.8-.9 1.9-1.3 3.1-1.3 1.4 0 2.6.6 3.6 1.7s1.5 2.5 1.5 4.1c0 4.9-2.7 8.7-8.1 11.4L17 20.9c3.1-1.5 4.6-3.2 4.6-5.2z"/></svg>