<svg id="圖層_1" xmlns="http://www.w3.org/2000/svg" viewBox="0 0 39.4 39.4"><style>.st0{fill:#fff}.st1{fill:#27ffc6}</style><path class="st0" d="M0 19.7c0 10.9 8.8 19.7 19.7 19.7 10.9 0 19.7-8.8 19.7-19.7C39.4 8.8 30.6 0 19.7 0 8.8 0 0 8.8 0 19.7z"/><title>right_btn_active</title><path id="XMLID_1_" class="st1" d="M8.2 20.6c-.6 0-1-.4-1-1s.4-1 1-1h15c.6 0 1 .4 1 1s-.4 1-1 1h-15zm17.6-7.8l6 6c.4.4.4 1 0 1.4l-6 6c-.3.4-1 .5-1.4.2-.4-.3-.5-1-.2-1.4l.2-.2 5.3-5.3-5.3-5.3c-.4-.4-.4-1.1.1-1.4s1-.4 1.3 0z"/></svg>