<?xml version="1.0" encoding="UTF-8" standalone="no"?><!DOCTYPE svg PUBLIC "-//W3C//DTD SVG 1.1//EN" "http://www.w3.org/Graphics/SVG/1.1/DTD/svg11.dtd"><svg width="100%" height="100%" viewBox="0 0 2086 842" version="1.1" xmlns="http://www.w3.org/2000/svg" xmlns:xlink="http://www.w3.org/1999/xlink" xml:space="preserve" style="fill-rule:evenodd;clip-rule:evenodd;stroke-linejoin:round;stroke-miterlimit:1.41421;"><path d="M1246.21,460.4c0,225.58 -163.44,340.3 -389,340.3c-225.56,0 -427.88,-114.7 -427.88,-340.3c0,-225.6 182.86,-408.4 408.44,-408.4c225.58,0 408.44,182.82 408.44,408.4Z" style="fill:#ebab99;fill-opacity:0.847826;fill-rule:nonzero;"/><path d="M2079.3,484.69c3.1,1.08 5.3,0.36 6.6,-2.16c-5.22,-11.17 -8,-36.88 -0.31,-41.83c-21,4.11 -25.44,-23.23 -41.45,-31c-22.36,-10.83 -44.66,6.47 -62.58,18.34c-5,-7.14 -8,-15.54 -12.42,-22.86c-7.19,6.53 -13.21,20 -23.87,14.63c-3.79,-1.9 -13.38,-31.3 -17,-30.65c-14.12,2.48 -14.81,10.78 -19.63,22.3c-3.6,-4.24 -17.47,-49.21 -15.17,-52.37c-14.39,19.8 -26.46,35.42 -33.62,59c1.8,-5.93 -12.3,-40.93 -15.52,-47.43c-6.35,-12.8 -19.28,-28.3 -30.59,-37c5.12,19.62 12.76,38.37 13.54,58.89c0.11,2.77 -4.76,45.35 -16.25,36c-9.21,-7.49 -14.18,-24 -27.43,-21.26c-0.31,16.65 1.58,35 -14,29c-9.47,-3.62 -11.84,-14.42 -20.18,-19.12c-12.87,-7.25 -22.16,1.62 -34.78,1.53c-13.75,-0.1 -14.37,-1.15 -13.28,-16.18c0.31,-4.25 5.27,-33.09 11.16,-32.93c-18.6,-0.51 -36.45,11.52 -50.37,22.28c-3.56,2.75 -40.9,46.11 -33.07,46.43c-7.64,-0.31 -12.34,-7.46 -14.22,-15.68c-9.55,6.45 -21.08,11.79 -32,16.46c-4.57,-7.58 -6.17,-18.11 -5.37,-27.47c-11,2.69 -20.81,8.67 -31.49,11.17c8.71,-25.94 -11.27,-59.52 -20.34,-83.5c-2.31,24.61 0.39,67.47 -22.31,83.33c4.7,-4.88 -0.55,-24.32 0.09,-35.33c-14.26,21.86 -50.45,20 -69.81,36.71c-1.16,-11.87 4,-23.27 9.68,-33.26c-26.12,1.75 -48.09,13.19 -62.22,35.81c-5.56,-15.53 -5.09,-29.79 -6,-46.06c-16.15,4.58 -25.76,13.72 -25.84,31.35c-4.06,-28.88 -49,-49.71 -67.87,-68.93c6.62,6.76 11.73,32.64 14.7,42c3.52,11.1 10.62,32.1 -2.82,39.1c-6.37,-11.85 -13.17,-23.43 -20.71,-35c-7.29,6.67 -43.79,27.16 -43.35,37.9c-0.2,-4.9 3,-21.21 5.94,-29.76c-14.83,3.28 -26.94,13.35 -36.52,24.4c-5.37,-37.12 -33.25,-75.57 -61.16,-100.62c-0.9,33.87 6,78.1 -9.66,109.11c-8.18,-34.86 -60.68,-37 -77.79,-3.88c3.75,-11.78 7.59,-23.32 9.17,-35.55c-13.36,4.17 -29.43,10.7 -27.87,27.52c2.08,-51.36 -35.88,-93.12 -66.31,-129.12c-5.9,14.87 -2,32 -3.45,47.93c-2,21.89 -14,34.54 -24.26,51.84c-13.19,-16.09 -17.5,-40 -20.41,-60.13c-10.46,24.66 -18.88,92.76 -47.73,101.84c0.17,-3.12 -2.85,-9.25 -2.16,-13.52c-9,0.45 -17.89,6 -25.42,11.06c2.09,-12.83 6.09,-26.82 5.72,-40.3c-11.17,2.31 -24,6.81 -30.21,16.6c2.3,-28.44 16.93,-43.69 37.79,-61.4c-43.93,2.4 -65.47,56.36 -101.3,71.71c1.41,-14 -9.8,-32.24 -17.87,-42c-0.73,15.64 -3.1,28.86 -12.55,41.51c-0.303,-8.746 -3.711,-17.105 -9.61,-23.57c-17.86,13.13 -34.6,23.43 -42.37,45.43c2,-5.6 0.28,-15.15 0.87,-21.23c0.807,-8.409 2.143,-16.759 4,-25c3.55,-15.66 12.4,-27.47 19.89,-41.58c-18.59,7.48 -33.84,17.94 -49.46,30.46c-13,10.47 -27,24.85 -25.07,43c-4.16,-15 -11.12,-29 -10.38,-45.06c-16.47,3.09 -41.81,17.14 -45.78,33.56c-0.54,-14 -7.2,-25.56 -9.9,-38.85c-2.6,-12.83 -10.09,-24.9 -16,-36.52c-2.436,-4.428 -5.152,-8.697 -8.13,-12.78c-2.19,-3.18 -7.16,-6.2 -8.27,-9.93c3,10.09 3.21,20.72 3.14,31.17c-0.06,9 -1.9,17.64 -2.22,26.73c-0.34,9.85 1.49,31.09 -6.82,38.39c-14.36,12.61 -20.9,-12.77 -34.29,-17.8c-3.63,7.92 -4.51,23.79 -15.53,21.14c-3.09,-0.74 -17.29,-21.56 -16.5,-24.65c-4.12,16.11 -19.76,27.09 -25.4,43.06c-13.1,-41 -0.16,-72.07 27.09,-106.07c-35.76,13.93 -64.63,31.63 -80.66,73.68c-3.54,-12.22 -3.4,-33.72 -14.65,-39.72c-5,13.18 -8.45,29.17 -17.33,40.28c-4.33,-13.86 -10.66,-26.62 -24,-33.56c-4.66,13.23 -11,27.5 -12.41,41.48c-1.55,-37.47 12.31,-60.79 37.73,-87.59c-32.12,5.27 -82.7,36.87 -89.41,71.51c-1.72,-10.58 0.89,-21 3.46,-31c-19.08,9.32 -35.55,33.43 -43.92,53.11c2.13,-29.33 -14.6,-57.26 -33.7,-77.6c7.07,24.25 13.34,50.52 11.42,75.95c-33.31,-13.48 -38.14,-88.88 -39.94,-117.84c-12.94,34.85 -27.4,106.76 -64.32,124.33c-14.64,-10.46 -20,-30.5 -31.2,-44.23c-6.3,29.32 -27.45,68.37 -28.22,93.85l0,30l2054.04,-12Z" style="fill:#4d4d4d;fill-rule:nonzero;"/><rect x="0" y="450.9" width="2085.98" height="217.54" style="fill:#4d4d4d;"/><rect x="0" y="524.97" width="2085.98" height="137.45" style="fill:#7382a0;fill-opacity:0.5;"/><rect x="1.17" y="582.84" width="2084.72" height="258.69" style="fill:#7382a0;"/><path d="M683,173.64l0.26,0.14c-0.11,-0.15 -0.2,-0.21 -0.26,-0.14Z" style="fill:#c8735a;fill-rule:nonzero;"/><path d="M593.94,611.18c95.34,0.18 190.87,8.11 285.91,-0.19c18.65,-1.63 36.67,-0.45 55.5,-1.81c22.6,-1.63 45.22,-1.13 67.87,-1.13c42.39,0 85.7,4.25 127.36,-2.18c16.22,-2.5 90.85,-6.32 94.27,19.35c4,29.92 -130.17,28.15 -147.2,28.34c-66.57,0.74 -133.76,0.87 -200.15,-2.77c-66.39,-3.64 -133.72,2.8 -200.25,2.8c-29.3,0 -58.69,-3.9 -88,-3.28c-14.24,0.3 -44.85,-1.19 -28.67,-27.82c10.57,-17.39 37,-7.76 52.92,-7.76" style="fill-opacity:0.1;fill-rule:nonzero;"/><path d="M600.52,558.44c-0.42,-114.71 -2.87,-228.86 -2,-344.68c0.35,-46 1.84,-92.14 1.81,-138.11c0,-11.57 -2.85,-61.35 0.56,-68.71c3.62,-7.79 11.34,-7.36 16,-6.26c10.72,2.51 9,0.09 11.16,16.1c3.44,25.18 0.78,74.71 0.51,102.32c-0.78,79.9 -5.74,158.23 -4.34,237.66c1.53,87.28 5.74,174.5 2.87,262.11c-0.21,6.52 -2.86,11.9 -6.17,12.4c-4.65,0.71 -9.29,2 -14,2.36c-3.62,0.23 -6.54,-5.4 -6.51,-12.52c0.16,-20.927 0.197,-41.817 0.11,-62.67Z" style="fill:#fff;fill-rule:nonzero;"/><path d="M608.61,558.37c-0.42,-114.71 -2.87,-228.86 -2,-344.68c0.35,-46 1.84,-92.14 1.81,-138.11c0,-11.57 -2.85,-61.35 0.56,-68.71c3.62,-7.79 11.34,-7.36 16.02,-6.26c10.72,2.51 9,0.09 11.16,16.1c3.44,25.18 0.78,74.71 0.51,102.32c-0.78,79.9 -5.74,158.23 -4.34,237.66c1.53,87.28 5.74,174.5 2.87,262.11c-0.21,6.52 -2.86,11.9 -6.17,12.4c-4.65,0.71 -9.29,2 -14,2.36c-3.62,0.23 -6.54,-5.4 -6.51,-12.52c0.147,-20.92 0.177,-41.81 0.09,-62.67Z" style="fill:#5e6c99;fill-rule:nonzero;"/><path d="M549.1,42.8l9.9,72.2c-0.78,-9.39 154.17,-14.06 166.23,-26l46.77,-46.2l-56.65,-28c-37.53,6.31 -74.09,7.8 -111.35,17.27c-4.41,1.14 -54.84,11.18 -54.9,10.73Z" style="fill:#fff;fill-rule:nonzero;"/><path d="M556.14,46.85l10.12,72.15c-0.79,-9.39 156.77,-14.06 169,-26l47.48,-46.18l-57.6,-28c-38.14,6.38 -75.32,7.86 -113.24,17.33c-4.42,1.1 -55.7,11.15 -55.76,10.7Z" style="fill:#5e6c99;fill-rule:nonzero;"/><path d="M689.51,168.66c-8.57,27.48 -11.15,56.24 -16.74,84.37c-45.34,-6.58 -89.84,-9.84 -134.75,-18.9c-6.62,-1.33 -39.86,-1.73 -43.85,-7l-39.84,-52.69l56.54,-35.34c4.62,-2.89 31.45,3.7 37.57,5.09c27.32,6.19 50,12.45 77.65,14.18c3.91,0.25 63.31,10.63 63.42,10.29Z" style="fill:#fff;fill-rule:nonzero;"/><path d="M692.21,173.27c-8.35,26.77 -10.87,54.79 -16.3,82.2c-44.17,-6.41 -87.52,-9.58 -131.27,-18.41c-6.44,-1.3 -38.83,-1.69 -42.71,-6.82l-38.81,-51.33l55.08,-34.42c4.5,-2.81 30.64,3.6 36.6,5c26.61,6 48.74,12.13 75.65,13.82c3.73,0.18 61.65,10.32 61.76,9.96Z" style="fill:#5e6c99;fill-rule:nonzero;"/></svg>