<?xml version="1.0" encoding="UTF-8" standalone="no"?>
<svg width="180px" height="180px" viewBox="0 0 180 180" version="1.1" xmlns="http://www.w3.org/2000/svg" xmlns:xlink="http://www.w3.org/1999/xlink">
    <!-- Generator: Sketch 39.1 (31720) - http://www.bohemiancoding.com/sketch -->
    <title>icon_Swimming</title>
    <desc>Created with Sketch.</desc>
    <defs>
        <ellipse id="path-1" cx="90.4440559" cy="90.0471698" rx="74.4440559" ry="74.0471698"></ellipse>
        <filter x="-50%" y="-50%" width="200%" height="200%" filterUnits="objectBoundingBox" id="filter-2">
            <feOffset dx="0" dy="4" in="SourceAlpha" result="shadowOffsetOuter1"></feOffset>
            <feColorMatrix values="0 0 0 0 1   0 0 0 0 1   0 0 0 0 1  0 0 0 1 0" type="matrix" in="shadowOffsetOuter1"></feColorMatrix>
        </filter>
    </defs>
    <g id="Page-1" stroke="none" stroke-width="1" fill="none" fill-rule="evenodd">
        <g id="icon_Swimming">
            <g id="Oval-2">
                <use fill="black" fill-opacity="1" filter="url(#filter-2)" xlink:href="#path-1"></use>
                <use fill="#B1F3F8" fill-rule="evenodd" xlink:href="#path-1"></use>
            </g>
            <g id="Page-1" transform="translate(19.000000, 18.000000)">
                <g id="Group-15" transform="translate(6.000000, 0.372000)">
                    <path d="M47.8243,81.8274 L16.2593,81.8274 C10.8643,81.8274 6.4863,77.4594 6.4863,72.0544 L6.4863,58.7644 C6.4863,43.5184 12.3013,29.6324 21.8393,19.1944 L47.8243,81.8274 Z" id="Fill-1" fill="#FFFFFF"></path>
                    <path d="M116.5354,19.2047 L90.5404,81.8277 L47.8244,81.8277 L21.8394,19.1947 C32.5694,7.4777 47.9804,0.1287 65.1214,0.1287 L73.2524,0.1287 C90.3934,0.1287 105.8144,7.4877 116.5354,19.2047" id="Fill-3" fill="#FF5050"></path>
                    <path d="M116.5354,19.2047 C126.0734,29.6317 131.8884,43.5187 131.8884,58.7637 L131.8884,72.0547 C131.8884,77.4587 127.5104,81.8277 122.1154,81.8277 L90.5404,81.8277 L116.5354,19.2047 Z" id="Fill-5" fill="#FFFFFF"></path>
                    <path d="M125.3111,118.8655 L125.3111,115.4455 C125.3111,113.5005 124.1771,111.7215 122.4091,110.9005 L117.7571,108.7415 C114.4441,107.1975 110.8281,106.3955 107.1731,106.3955 L95.8861,106.3955 C90.8141,106.3955 86.6901,110.5095 86.6901,115.5915 L86.6901,118.6895 C86.6901,123.7715 90.8141,127.8855 95.8861,127.8855 L107.3391,127.8855 C111.0721,127.8855 114.7571,127.0545 118.1181,125.4525 L122.4481,123.3905 C124.1971,122.5595 125.3111,120.8005 125.3111,118.8655 M137.6831,117.1745 L137.6831,117.1845 C137.6831,121.5825 135.3281,125.6375 131.5071,127.8075 L127.0021,130.3675 C122.2131,133.0945 116.7991,134.5305 111.2871,134.5305 L94.0491,134.5305 C86.6601,134.5305 80.6701,128.5405 80.6701,121.1525 L80.6701,113.1295 C80.6701,105.7405 86.6601,99.7505 94.0491,99.7505 L111.0431,99.7505 C116.4471,99.7505 121.7641,101.1385 126.4931,103.7665 L131.3991,106.4935 C135.2791,108.6535 137.6831,112.7385 137.6831,117.1745" id="Fill-7" fill="#FFBE64"></path>
                    <path d="M125.3111,115.4451 L125.3111,118.8651 C125.3111,120.8001 124.1971,122.5591 122.4481,123.3901 L118.1181,125.4521 C114.7571,127.0551 111.0721,127.8851 107.3391,127.8851 L95.8861,127.8851 C90.8141,127.8851 86.6901,123.7711 86.6901,118.6891 L86.6901,115.5921 C86.6901,110.5101 90.8141,106.3961 95.8861,106.3961 L107.1731,106.3961 C110.8281,106.3961 114.4441,107.1971 117.7571,108.7411 L122.4091,110.9011 C124.1771,111.7221 125.3111,113.5001 125.3111,115.4451" id="Fill-9" fill="#FFFFFF"></path>
                    <path d="M51.362,118.6896 L51.362,115.5916 C51.362,110.5096 47.238,106.3956 42.156,106.3956 L30.879,106.3956 C27.214,106.3956 23.608,107.1966 20.285,108.7416 L15.643,110.9006 C13.874,111.7216 12.741,113.5006 12.741,115.4456 L12.741,118.8656 C12.741,120.8006 13.855,122.5596 15.604,123.3906 L19.924,125.4526 C23.295,127.0546 26.979,127.8856 30.713,127.8856 L42.156,127.8856 C47.238,127.8856 51.362,123.7716 51.362,118.6896 M57.382,113.1286 L57.382,121.1526 C57.382,128.5406 51.391,134.5306 44.003,134.5306 L26.764,134.5306 C21.253,134.5306 15.839,133.0946 11.05,130.3676 L6.545,127.8076 C2.724,125.6376 0.369,121.5826 0.369,117.1846 L0.369,117.1746 C0.369,112.7376 2.773,108.6536 6.643,106.4936 L11.558,103.7666 C16.278,101.1376 21.604,99.7506 27.009,99.7506 L44.003,99.7506 C51.391,99.7506 57.382,105.7406 57.382,113.1286" id="Fill-11" fill="#FFBE64"></path>
                    <path d="M51.362,115.5917 L51.362,118.6897 C51.362,123.7717 47.238,127.8857 42.156,127.8857 L30.713,127.8857 C26.979,127.8857 23.295,127.0547 19.924,125.4527 L15.604,123.3907 C13.855,122.5597 12.741,120.8007 12.741,118.8657 L12.741,115.4447 C12.741,113.5007 13.874,111.7217 15.643,110.9007 L20.285,108.7407 C23.608,107.1967 27.214,106.3957 30.879,106.3957 L42.156,106.3957 C47.238,106.3957 51.362,110.5097 51.362,115.5917" id="Fill-13" fill="#FFFFFF"></path>
                </g>
                <path d="M91.6692,143.872 L113.9532,143.872 C121.0792,143.872 128.0822,141.818 134.2762,137.911 L140.0952,134.24" id="Stroke-16" stroke="#000000" stroke-width="3" stroke-linecap="round"></path>
                <path d="M96.0247,127.9358 L107.4717,127.9358 C111.2027,127.9358 114.8867,127.1038 118.2557,125.4998 L122.5827,123.4398 C124.3297,122.6088 125.4427,120.8458 125.4427,118.9098 L125.4427,115.4948 C125.4427,113.5438 124.3117,111.7698 122.5427,110.9468 L117.8947,108.7828 C114.5787,107.2388 110.9647,106.4388 107.3067,106.4388 L96.0247,106.4388 C90.9447,106.4388 86.8257,110.5578 86.8257,115.6378 L86.8257,118.7368 C86.8257,123.8178 90.9447,127.9358 96.0247,127.9358 L96.0247,127.9358 Z" id="Stroke-18" stroke="#000000" stroke-width="5" stroke-linecap="round" stroke-linejoin="round"></path>
                <path d="M94.1841,134.5748 L111.4191,134.5748 C116.9311,134.5748 122.3471,133.1418 127.1381,130.4158 L131.6381,127.8538 C135.4581,125.6798 137.8171,121.6238 137.8171,117.2288 L137.8171,117.2248 C137.8171,112.7878 135.4131,108.6988 131.5361,106.5418 L126.6271,103.8098 C121.9011,101.1798 116.5821,99.7998 111.1741,99.7998 L94.1841,99.7998 C86.7951,99.7998 80.8051,105.7898 80.8051,113.1788 L80.8051,121.1958 C80.8051,128.5848 86.7951,134.5748 94.1841,134.5748 L94.1841,134.5748 Z" id="Stroke-20" stroke="#000000" stroke-width="5" stroke-linecap="round" stroke-linejoin="round"></path>
                <path d="M42.2926,127.9358 L30.8456,127.9358 C27.1146,127.9358 23.4306,127.1038 20.0616,125.4998 L15.7346,123.4398 C13.9876,122.6088 12.8746,120.8458 12.8746,118.9098 L12.8746,115.4948 C12.8746,113.5438 14.0056,111.7698 15.7746,110.9468 L20.4226,108.7828 C23.7386,107.2388 27.3526,106.4388 31.0106,106.4388 L42.2926,106.4388 C47.3726,106.4388 51.4916,110.5578 51.4916,115.6378 L51.4916,118.7368 C51.4916,123.8178 47.3726,127.9358 42.2926,127.9358 L42.2926,127.9358 Z" id="Stroke-22" stroke="#000000" stroke-width="5" stroke-linecap="round" stroke-linejoin="round"></path>
                <path d="M44.1333,134.5748 L26.8983,134.5748 C21.3863,134.5748 15.9703,133.1418 11.1793,130.4158 L6.6793,127.8538 C2.8593,125.6798 0.5003,121.6238 0.5003,117.2288 L0.5003,117.2248 C0.5003,112.7878 2.9043,108.6988 6.7813,106.5418 L11.6903,103.8098 C16.4163,101.1798 21.7353,99.7998 27.1433,99.7998 L44.1333,99.7998 C51.5223,99.7998 57.5123,105.7898 57.5123,113.1788 L57.5123,121.1958 C57.5123,128.5848 51.5223,134.5748 44.1333,134.5748 L44.1333,134.5748 Z" id="Stroke-24" stroke="#000000" stroke-width="5" stroke-linecap="round" stroke-linejoin="round"></path>
                <path d="M64.9239,122.1609 L73.3939,122.1609" id="Stroke-26" stroke="#000000" stroke-width="5" stroke-linecap="round" stroke-linejoin="round"></path>
                <path d="M122.0846,82.2017 L16.2326,82.2017 C10.8356,82.2017 6.4606,77.8267 6.4606,72.4287 L6.4606,59.1357 C6.4606,26.7527 32.7126,0.5007 65.0956,0.5007 L73.2216,0.5007 C105.6056,0.5007 131.8576,26.7527 131.8576,59.1357 L131.8576,72.4287 C131.8576,77.8267 127.4816,82.2017 122.0846,82.2017 L122.0846,82.2017 Z" id="Stroke-28" stroke="#000000" stroke-width="5" stroke-linecap="round" stroke-linejoin="round"></path>
                <path d="M26.6724,31.2949 L43.9154,72.8439" id="Stroke-30" stroke="#000000" stroke-width="5" stroke-linecap="round" stroke-linejoin="round"></path>
                <path d="M111.645,31.2949 L94.402,72.8439" id="Stroke-32" stroke="#000000" stroke-width="5" stroke-linecap="round" stroke-linejoin="round"></path>
                <path d="M124.4675,11.3787 C134.7585,23.7167 140.9505,39.5927 140.9505,56.9157 L140.9505,78.9447 C140.9505,85.4927 135.6425,90.8007 129.0945,90.8007 L116.3225,90.8007" id="Stroke-34" stroke="#000000" stroke-width="3" stroke-linecap="round"></path>
                <path d="M17.9455,90.801 L41.7255,90.801" id="Stroke-36" stroke="#000000" stroke-width="3" stroke-linecap="round"></path>
            </g>
        </g>
    </g>
</svg>