<?xml version="1.0" encoding="UTF-8" standalone="no"?>
<svg width="180px" height="225px" viewBox="0 0 180 225" version="1.1" xmlns="http://www.w3.org/2000/svg" xmlns:xlink="http://www.w3.org/1999/xlink">
    <!-- Generator: Sketch 39.1 (31720) - http://www.bohemiancoding.com/sketch -->
    <title>icon_Shooting_shadow</title>
    <desc>Created with Sketch.</desc>
    <defs>
        <ellipse id="path-1" cx="90.4440559" cy="90.0471698" rx="74.4440559" ry="74.0471698"></ellipse>
        <filter x="-50%" y="-50%" width="200%" height="200%" filterUnits="objectBoundingBox" id="filter-2">
            <feOffset dx="0" dy="4" in="SourceAlpha" result="shadowOffsetOuter1"></feOffset>
            <feColorMatrix values="0 0 0 0 1   0 0 0 0 1   0 0 0 0 1  0 0 0 1 0" type="matrix" in="shadowOffsetOuter1"></feColorMatrix>
        </filter>
    </defs>
    <g id="Page-2" stroke="none" stroke-width="1" fill="none" fill-rule="evenodd">
        <g id="icon_Shooting_shadow">
            <g id="Oval-2">
                <use fill="black" fill-opacity="1" filter="url(#filter-2)" xlink:href="#path-1"></use>
                <use fill="#B1F3F8" fill-rule="evenodd" xlink:href="#path-1"></use>
            </g>
            <g id="Page-1" transform="translate(4.000000, 8.000000)">
                <g id="Group-17" transform="translate(7.000000, 0.259000)">
                    <polygon id="Fill-1" fill="#FF5050" points="101.6602 113.8056 100.1602 115.3056 96.6202 111.7656 131.7302 76.6556 135.2702 80.1956"></polygon>
                    <path d="M131.7302,76.6556 L96.6202,111.7656 L100.1602,115.3056 L102.2102,117.3556 L101.6102,121.0656 C101.1802,123.7656 101.7702,126.5356 103.2602,128.8256 L110.8002,140.3756 C111.3102,141.1656 111.2002,142.2156 110.5402,142.8856 L101.0302,152.3856 C100.1102,153.3056 98.5802,153.1156 97.9002,152.0056 L90.7302,140.1456 C88.0002,135.6156 86.5502,130.4256 86.5502,125.1356 L86.5502,123.1456 L86.5502,118.3056 L139.3702,65.4756 C140.8402,64.0156 143.2102,64.0156 144.6802,65.4756 L144.6802,65.4856 C146.1502,66.9456 146.1502,69.3256 144.6802,70.7856 L135.2702,80.1956 L131.7302,76.6556 Z" id="Fill-3" fill="#FFFFFF"></path>
                    <polygon id="Fill-5" fill="#FF5050" points="137.3202 82.2456 102.2102 117.3556 100.1602 115.3056 101.6602 113.8056 135.2702 80.1956"></polygon>
                    <path d="M139.9702,1.7656 C140.7902,2.5856 141.2002,3.6656 141.2002,4.7456 C141.2002,5.8156 140.7902,6.8956 139.9702,7.7156 L87.4302,60.2556 L87.4302,60.3656 C86.7102,60.3956 86.0102,60.6756 85.4602,61.2256 L80.3102,66.3756 L74.9702,61.0356 L74.8602,60.9256 L134.0202,1.7656 C135.6602,0.1256 138.3302,0.1256 139.9702,1.7656" id="Fill-7" fill="#FFFFFF"></path>
                    <path d="M95.7702,67.3856 C96.9102,68.5356 96.9102,70.3856 95.7702,71.5256 L68.3202,98.9756 C67.1802,100.1156 65.3302,100.1156 64.1902,98.9756 L58.4702,93.2556 L58.0202,92.8056 C56.8802,91.6656 56.8802,89.8056 58.0202,88.6656 L80.3102,66.3756 L85.4602,61.2256 C86.0102,60.6756 86.7102,60.3956 87.4302,60.3656 C88.2202,60.3356 89.0002,60.6256 89.6002,61.2256 L95.7702,67.3856 Z" id="Fill-9" fill="#FFFFFF"></path>
                    <path d="M80.3102,66.3756 L58.0202,88.6656 C56.8802,89.8056 56.8802,91.6656 58.0202,92.8056 L58.4702,93.2556 L50.2002,101.5256 C48.9502,102.7756 46.9802,102.8456 45.8102,101.6756 L43.9602,99.8256 L38.5502,92.8856 C38.6002,92.1456 38.9302,91.4156 39.5102,90.8356 L69.3102,61.0356 C70.8302,59.5056 73.2902,59.4656 74.8602,60.9256 L74.9702,61.0356 L80.3102,66.3756 Z" id="Fill-11" fill="#FF5050"></path>
                    <path d="M38.5502,92.8856 L43.9602,99.8256 L39.3602,95.2256 C38.7302,94.5956 38.4602,93.7356 38.5502,92.8856" id="Fill-13" fill="#FFFFFF"></path>
                    <path d="M39.3602,95.2256 L43.9602,99.8256 L41.2602,107.5956 L38.5002,117.7756 C38.2502,118.6956 38.2702,119.6556 38.5402,120.5556 L40.5002,127.1256 C40.8702,128.3656 40.7502,129.7056 40.1702,130.8656 L22.7502,165.3956 C22.3202,166.2756 21.4302,166.7956 20.4902,166.7956 C20.2602,166.7956 20.0302,166.7556 19.8002,166.6956 C12.5602,164.6656 6.1602,160.3656 1.5402,154.4356 L1.1102,153.8856 C0.3202,152.8756 0.4102,151.4356 1.3202,150.5356 L27.7902,124.0556 C28.4102,123.4356 28.8602,122.6656 29.1002,121.8156 L34.7202,101.4356 C34.7702,101.2356 34.8402,101.0456 34.9302,100.8556 L38.5402,92.8756 L38.5502,92.8856 C38.4602,93.7356 38.7302,94.5956 39.3602,95.2256" id="Fill-15" fill="#FFBE64"></path>
                </g>
                <path d="M36.5195,101.1047 L30.8145,121.7847 C30.5805,122.6317 30.1315,123.4037 29.5105,124.0257 L3.0355,150.4997 C2.1295,151.4057 2.0405,152.8457 2.8295,153.8567 L3.2565,154.4047 C7.8805,160.3337 14.2795,164.6287 21.5175,166.6637 L21.5175,166.6637 C22.6865,166.9927 23.9245,166.4477 24.4715,165.3627 L41.8845,130.8337 C42.4685,129.6747 42.5875,128.3367 42.2165,127.0937 L40.2545,120.5267 C39.9845,119.6217 39.9715,118.6587 40.2185,117.7467 L42.9755,107.5607" id="Stroke-18" stroke="#000000" stroke-width="5" stroke-linecap="round" stroke-linejoin="round"></path>
                <path d="M54.2001,99.2098 L51.7691,101.6408 C50.5971,102.8128 48.6971,102.8128 47.5261,101.6408 L41.0791,95.1938 C39.9071,94.0228 39.9071,92.1228 41.0791,90.9518 L71.5131,60.5168" id="Stroke-20" stroke="#000000" stroke-width="5" stroke-linecap="round" stroke-linejoin="round"></path>
                <path d="M80.6219,56.8478 L135.7369,1.7328 C137.3799,0.0888 140.0449,0.0888 141.6879,1.7328 C143.3319,3.3758 143.3319,6.0408 141.6879,7.6838 L94.6039,54.7678" id="Stroke-22" stroke="#000000" stroke-width="5" stroke-linecap="round" stroke-linejoin="round"></path>
                <path d="M97.4888,71.4931 L70.0438,98.9381 C68.9008,100.0811 67.0488,100.0811 65.9068,98.9381 L59.7378,92.7701 C58.5958,91.6271 58.5958,89.7751 59.7378,88.6331 L87.1838,61.1881 C88.3258,60.0451 90.1778,60.0451 91.3198,61.1881 L97.4888,67.3561 C98.6308,68.4991 98.6308,70.3511 97.4888,71.4931 L97.4888,71.4931 Z" id="Stroke-24" stroke="#000000" stroke-width="5" stroke-linecap="round" stroke-linejoin="round"></path>
                <path d="M66.035,84.9234 L69.576,88.4644" id="Stroke-26" stroke="#000000" stroke-width="3" stroke-linecap="round"></path>
                <path d="M70.1045,80.8539 L73.6455,84.3949" id="Stroke-28" stroke="#000000" stroke-width="3" stroke-linecap="round"></path>
                <path d="M74.174,76.7844 L77.715,80.3254" id="Stroke-30" stroke="#000000" stroke-width="3" stroke-linecap="round"></path>
                <path d="M100.1052,59.2672 L135.9952,23.3772" id="Stroke-32" stroke="#000000" stroke-width="5" stroke-linecap="round" stroke-linejoin="round"></path>
                <path d="M0.5,138.0259 L18.058,120.5209 C20.516,118.0709 22.294,115.0219 23.217,111.6759 L25.617,102.9779" id="Stroke-34" stroke="#000000" stroke-width="3" stroke-linecap="round"></path>
                <path d="M42.2876,76.3554 L51.6236,67.0194" id="Stroke-36" stroke="#000000" stroke-width="3" stroke-linecap="round"></path>
                <path d="M55.792,108.6764 L55.792,108.6764 C56.99,113.1914 54.311,117.8254 49.8,119.0394 L49.292,119.1764" id="Stroke-38" stroke="#000000" stroke-width="5" stroke-linecap="round" stroke-linejoin="round"></path>
                <path d="M77.2436,122.2911 L137.0906,62.4441 C138.5546,60.9801 140.9296,60.9801 142.3936,62.4441 L142.4006,62.4511 C143.8646,63.9151 143.8646,66.2901 142.4006,67.7541 L99.3796,110.7751" id="Stroke-40" stroke="#000000" stroke-width="5" stroke-linecap="round" stroke-linejoin="round"></path>
                <polygon id="Stroke-42" stroke="#000000" stroke-width="5" stroke-linecap="round" stroke-linejoin="round" points="140.0366 81.2127 104.9266 116.3227 99.3376 110.7337 134.4476 75.6237"></polygon>
                <path d="M89.2679,122.1142 L89.2679,124.1052 C89.2679,129.3942 90.7139,134.5812 93.4499,139.1072 L100.6209,150.9712 C101.2929,152.0822 102.8289,152.2682 103.7469,151.3502 L113.2519,141.8452 C113.9209,141.1772 114.0299,140.1312 113.5129,139.3392 L103.6579,124.2282" id="Stroke-44" stroke="#000000" stroke-width="5" stroke-linecap="round" stroke-linejoin="round"></path>
                <path d="M117.6852,113.4825 L117.9452,113.9705 C120.3672,118.5105 118.8042,124.1525 114.3922,126.7995 L114.3912,126.8005" id="Stroke-46" stroke="#000000" stroke-width="5" stroke-linecap="round" stroke-linejoin="round"></path>
                <path d="M92.6692,134.9034 L97.1672,130.4054" id="Stroke-48" stroke="#000000" stroke-width="3" stroke-linecap="round"></path>
                <path d="M95.8406,140.5228 L100.3386,136.0248" id="Stroke-50" stroke="#000000" stroke-width="3" stroke-linecap="round"></path>
                <path d="M99.0119,146.1423 L103.5099,141.6443" id="Stroke-52" stroke="#000000" stroke-width="3" stroke-linecap="round"></path>
                <path d="M85.8461,143.8929 L93.9191,157.2479 C97.2771,162.8029 104.9571,163.7359 109.5481,159.1449 L114.8231,153.8699" id="Stroke-54" stroke="#000000" stroke-width="3" stroke-linecap="round"></path>
                <path d="M126.1241,106.922 L141.2271,91.819" id="Stroke-56" stroke="#000000" stroke-width="3" stroke-linecap="round"></path>
            </g>
            <ellipse id="Oval-3-Copy-2" fill-opacity="0.2" fill="#000000" cx="90" cy="214" rx="35" ry="11"></ellipse>
        </g>
    </g>
</svg>