<?xml version="1.0" encoding="UTF-8" standalone="no"?>
<svg width="180px" height="225px" viewBox="0 0 180 225" version="1.1" xmlns="http://www.w3.org/2000/svg" xmlns:xlink="http://www.w3.org/1999/xlink">
    <!-- Generator: Sketch 39.1 (31720) - http://www.bohemiancoding.com/sketch -->
    <title>icon_Wrestling_shadow</title>
    <desc>Created with Sketch.</desc>
    <defs>
        <ellipse id="path-1" cx="90.4440559" cy="90.0471698" rx="74.4440559" ry="74.0471698"></ellipse>
        <filter x="-50%" y="-50%" width="200%" height="200%" filterUnits="objectBoundingBox" id="filter-2">
            <feOffset dx="0" dy="4" in="SourceAlpha" result="shadowOffsetOuter1"></feOffset>
            <feColorMatrix values="0 0 0 0 1   0 0 0 0 1   0 0 0 0 1  0 0 0 1 0" type="matrix" in="shadowOffsetOuter1"></feColorMatrix>
        </filter>
    </defs>
    <g id="Page-2" stroke="none" stroke-width="1" fill="none" fill-rule="evenodd">
        <g id="icon_Wrestling_shadow">
            <g id="Oval-2">
                <use fill="black" fill-opacity="1" filter="url(#filter-2)" xlink:href="#path-1"></use>
                <use fill="#B1F3F8" fill-rule="evenodd" xlink:href="#path-1"></use>
            </g>
            <g id="Page-1" transform="translate(33.000000, 9.000000)">
                <g id="Group-7" transform="translate(15.000000, 0.299000)">
                    <path d="M95.594,134.227 L95.594,153.117 C95.594,155.617 93.554,157.647 91.054,157.647 L85.464,157.647 L85.464,134.227 C85.464,133.517 85.304,132.817 84.984,132.187 L77.484,117.277 C75.544,113.437 74.614,109.167 74.784,104.867 L75.294,91.187 C75.494,86.007 77.264,81.007 80.374,76.867 C82.024,74.657 83.294,72.217 84.154,69.637 C85.014,67.057 85.464,64.337 85.464,61.587 L85.464,37.827 L85.724,37.687 C87.884,41.617 90.704,45.217 94.104,48.307 C95.054,49.167 95.594,50.387 95.594,51.657 L95.594,61.587 C95.594,67.097 93.804,72.457 90.494,76.867 C88.944,78.937 87.724,81.217 86.864,83.637 C86.014,86.057 85.524,88.597 85.424,91.187 L84.904,104.867 C84.744,109.167 85.674,113.437 87.604,117.277 L95.104,132.187 C95.424,132.817 95.594,133.517 95.594,134.227" id="Fill-1" fill="#FF5050"></path>
                    <path d="M85.724,37.687 L85.464,37.827 L85.464,61.587 C85.464,64.337 85.014,67.057 84.154,69.637 C83.294,72.217 82.024,74.657 80.374,76.867 C77.264,81.007 75.494,86.007 75.294,91.187 L74.784,104.867 C74.614,109.167 75.544,113.437 77.484,117.277 L84.984,132.187 C85.304,132.817 85.464,133.517 85.464,134.227 L85.464,157.647 L57.024,157.647 C54.514,157.647 52.484,155.617 52.484,153.117 L52.484,139.957 C52.484,137.447 50.454,135.417 47.944,135.417 C46.694,135.417 45.564,135.927 44.734,136.747 C43.914,137.567 43.404,138.697 43.404,139.957 L43.404,153.117 C43.404,155.617 41.374,157.647 38.874,157.647 L10.594,157.647 L10.594,134.227 C10.594,133.517 10.764,132.817 11.084,132.187 L18.584,117.277 C20.514,113.437 21.444,109.167 21.284,104.867 L20.764,91.187 C20.564,86.007 18.794,81.007 15.684,76.867 C14.034,74.657 12.764,72.217 11.904,69.637 C11.044,67.057 10.594,64.337 10.594,61.587 L10.594,36.887 C11.004,36.097 11.394,35.297 11.754,34.487 C14.044,29.297 15.274,23.617 15.274,17.817 L15.274,4.737 C15.274,2.237 17.304,0.197 19.814,0.197 L23.894,0.197 C26.404,0.197 28.434,2.237 28.434,4.737 L28.434,32.487 C28.434,33.877 29.064,35.187 30.154,36.047 L33.314,38.537 C41.894,45.327 54.004,45.327 62.574,38.537 L65.734,36.047 C66.824,35.187 67.464,33.877 67.464,32.487 L67.464,4.737 C67.464,2.237 69.494,0.197 71.994,0.197 L76.084,0.197 C78.584,0.197 80.614,2.237 80.614,4.737 L80.614,17.817 C80.614,24.837 82.404,31.667 85.724,37.687" id="Fill-3" fill="#FFFFFF"></path>
                    <path d="M21.284,104.867 C21.444,109.167 20.514,113.437 18.584,117.277 L11.084,132.187 C10.764,132.817 10.594,133.517 10.594,134.227 L10.594,157.647 L4.844,157.647 C2.334,157.647 0.304,155.617 0.304,153.117 L0.304,134.227 C0.304,133.517 0.464,132.817 0.784,132.187 L8.284,117.277 C10.224,113.437 11.144,109.167 10.984,104.867 L10.464,91.187 C10.274,86.007 8.504,81.007 5.394,76.867 C3.744,74.657 2.464,72.217 1.604,69.637 C0.744,67.057 0.304,64.337 0.304,61.587 L0.304,51.657 C0.304,50.387 0.844,49.167 1.784,48.307 C5.414,45.007 8.374,41.137 10.594,36.887 L10.594,61.587 C10.594,64.337 11.044,67.057 11.904,69.637 C12.764,72.217 14.034,74.657 15.684,76.867 C18.794,81.007 20.564,86.007 20.764,91.187 L21.284,104.867 Z" id="Fill-5" fill="#FF5050"></path>
                </g>
                <path d="M56.8915,71.0677 L54.1645,79.3337 C53.7105,80.7077 52.4265,81.6367 50.9795,81.6367 L46.6745,81.6367 C45.2545,81.6367 43.9885,80.7427 43.5135,79.4047 L37.1775,61.5487 C36.4025,59.3657 38.0215,57.0727 40.3375,57.0727 L41.9115,57.0727 C43.4225,57.0727 44.7465,58.0827 45.1465,59.5397 L47.2475,67.2037 L47.9175,69.7107 C48.3535,71.3447 50.6625,71.3807 51.1425,69.7587 C51.3995,68.8927 51.6655,68.0147 51.9365,67.1317 L54.3115,59.4377 C54.7455,58.0317 56.0455,57.0727 57.5165,57.0727 L61.3315,57.0727 C62.8305,57.0727 64.1485,58.0677 64.5575,59.5097 L66.8065,67.4237 C66.9635,67.9757 67.1135,68.5197 67.2555,69.0557 C67.6995,70.7257 70.0625,70.7287 70.4995,69.0567 L71.0035,67.1317 L73.2835,59.4697 C73.7075,58.0477 75.0145,57.0727 76.4985,57.0727 L77.5545,57.0727 C79.9095,57.0727 81.5315,59.4367 80.6835,61.6347 L73.7925,79.4897 C73.2935,80.7837 72.0495,81.6367 70.6635,81.6367 L66.4865,81.6367 C64.9985,81.6367 63.6885,80.6557 63.2685,79.2277 L60.8705,71.0677 C60.7465,70.6337 60.6255,70.2047 60.5085,69.7777 C60.0605,68.1467 57.7605,68.1207 57.2825,69.7427 L56.8915,71.0677 Z" id="Fill-8" fill="#FFBE64"></path>
                <path d="M71.5782,38.8408 L74.7362,36.3438 C75.8252,35.4838 76.4602,34.1718 76.4602,32.7848 L76.4602,5.0368 C76.4602,2.5308 78.4912,0.4998 80.9972,0.4998 L85.0792,0.4998 C87.5852,0.4998 89.6172,2.5308 89.6172,5.0368 L89.6172,18.1158 C89.6172,29.7248 94.5142,40.7948 103.1042,48.6028 L103.1042,48.6028 C104.0502,49.4628 104.5892,50.6818 104.5892,51.9608 L104.5892,61.8828 C104.5892,67.3928 102.8022,72.7548 99.4972,77.1638 L99.4962,77.1648 C96.3882,81.3098 94.6182,86.3048 94.4222,91.4818 L93.9052,105.1668 C93.7422,109.4658 94.6712,113.7358 96.6052,117.5788 L104.1052,132.4838 C104.4232,133.1158 104.5892,133.8148 104.5892,134.5228 L104.5892,153.4128 C104.5892,155.9188 102.5582,157.9508 100.0522,157.9508 L66.0202,157.9508 C63.5142,157.9508 61.4832,155.9188 61.4832,153.4128 L61.4832,140.2518 C61.4832,137.7458 59.4512,135.7148 56.9452,135.7148 L56.9452,135.7148 L56.9452,135.7148 C54.4392,135.7148 52.4072,137.7458 52.4072,140.2518 L52.4072,153.4128 C52.4072,155.9188 50.3762,157.9508 47.8702,157.9508 L13.8392,157.9508 C11.3332,157.9508 9.3012,155.9188 9.3012,153.4128 L9.3012,134.5228 C9.3012,133.8148 9.4672,133.1158 9.7852,132.4838 L17.2852,117.5788 C19.2192,113.7358 20.1482,109.4658 19.9852,105.1668 L19.4682,91.4818 C19.2722,86.3048 17.5022,81.3098 14.3942,77.1648 L14.3932,77.1638 C11.0882,72.7548 9.3012,67.3928 9.3012,61.8828 L9.3012,51.9608 C9.3012,50.6818 9.8402,49.4628 10.7862,48.6028 L10.7862,48.6028 C19.3762,40.7948 24.2732,29.7248 24.2732,18.1158 L24.2732,5.0368 C24.2732,2.5308 26.3052,0.4998 28.8112,0.4998 L32.8932,0.4998 C35.3992,0.4998 37.4302,2.5308 37.4302,5.0368 L37.4302,32.7848 C37.4302,34.1718 38.0652,35.4838 39.1542,36.3438 L42.3122,38.8408 C50.8892,45.6218 63.0012,45.6218 71.5782,38.8408 L71.5782,38.8408 Z" id="Stroke-10" stroke="#000000" stroke-width="5" stroke-linecap="round" stroke-linejoin="round"></path>
                <path d="M19.5953,148.9451 L19.5953,134.5231 C19.5953,133.8151 19.7613,133.1161 20.0793,132.4831 L27.5793,117.5791 C29.5133,113.7361 30.4423,109.4651 30.2793,105.1661 L29.7623,91.4831 C29.5663,86.3051 27.7963,81.3101 24.6873,77.1641 L24.6873,77.1641 C21.3823,72.7551 19.5953,67.3931 19.5953,61.8831 L19.5953,55.1741" id="Stroke-12" stroke="#000000" stroke-width="5" stroke-linecap="round" stroke-linejoin="round"></path>
                <path d="M94.4644,148.9451 L94.4644,134.5231 C94.4644,133.8151 94.2984,133.1161 93.9804,132.4831 L86.4804,117.5791 C84.5464,113.7361 83.6174,109.4651 83.7804,105.1661 L84.2974,91.4831 C84.4934,86.3051 86.2634,81.3101 89.3724,77.1641 L89.3724,77.1641 C92.6774,72.7551 94.4644,67.3931 94.4644,61.8831 L94.4644,56.1361" id="Stroke-14" stroke="#000000" stroke-width="5" stroke-linecap="round" stroke-linejoin="round"></path>
                <path d="M40.0141,103.3549 L72.9871,103.3549" id="Stroke-16" stroke="#000000" stroke-width="5" stroke-linecap="round" stroke-linejoin="round"></path>
                <path d="M40.0141,115.7575 L72.9871,115.7575" id="Stroke-18" stroke="#000000" stroke-width="5" stroke-linecap="round" stroke-linejoin="round"></path>
                <path d="M103.0867,86.1466 L102.5107,101.3896 C102.3297,106.1786 103.3637,110.9356 105.5187,115.2166 L111.1297,126.3686 C113.2877,130.6576 114.4117,135.3926 114.4117,140.1946" id="Stroke-20" stroke="#000000" stroke-width="3" stroke-linecap="round"></path>
                <path d="M97.7337,17.8483 C97.7337,26.5153 101.3897,34.7793 107.8027,40.6093 L107.8047,40.6103 C112.0127,44.4363 114.4117,49.8593 114.4117,55.5473 L114.4117,59.9063" id="Stroke-22" stroke="#000000" stroke-width="3" stroke-linecap="round"></path>
                <path d="M37.6671,165.799 L9.1521,165.799 C4.9051,165.799 1.4621,162.356 1.4621,158.109 L1.4621,144.331" id="Stroke-24" stroke="#000000" stroke-width="3" stroke-linecap="round"></path>
                <path d="M0.5,53.975 L0.5,61.43 C0.5,67.478 1.963,73.436 4.765,78.795 L7.869,84.734" id="Stroke-26" stroke="#000000" stroke-width="3" stroke-linecap="round"></path>
                <path d="M75.5533,52.0728 L74.4973,52.0728 C71.2323,52.0728 68.2643,54.0188 66.9143,56.9258 C65.5653,54.0148 62.6073,52.0728 59.3303,52.0728 L55.5153,52.0728 C52.0133,52.0728 48.9433,54.2078 47.7123,57.4408 C46.4873,54.2428 43.3873,52.0728 39.9103,52.0728 L38.3363,52.0728 C35.6263,52.0728 33.0753,53.3948 31.5123,55.6078 C29.9493,57.8218 29.5573,60.6678 30.4643,63.2208 L36.8003,81.0768 C37.9803,84.4018 41.1443,86.6368 44.6733,86.6368 L48.9783,86.6368 C52.4163,86.6368 55.4683,84.5498 56.7323,81.3918 C57.9903,84.5158 61.0723,86.6368 64.4853,86.6368 L68.6623,86.6368 C72.0893,86.6368 75.2213,84.4878 76.4553,81.2908 L83.3473,63.4348 C84.3393,60.8638 84.0013,57.9728 82.4423,55.7008 C80.8833,53.4288 78.3083,52.0728 75.5533,52.0728 M75.5533,57.0728 C77.9083,57.0728 79.5303,59.4368 78.6823,61.6348 L71.7913,79.4898 C71.2923,80.7838 70.0483,81.6368 68.6623,81.6368 L64.4853,81.6368 C62.9973,81.6368 61.6873,80.6558 61.2673,79.2278 L58.8693,71.0678 C58.7453,70.6338 58.6243,70.2048 58.5073,69.7778 C58.2803,68.9548 57.5833,68.5408 56.8853,68.5408 C56.2013,68.5408 55.5183,68.9398 55.2813,69.7428 L54.8903,71.0678 L52.1633,79.3338 C51.7093,80.7078 50.4253,81.6368 48.9783,81.6368 L44.6733,81.6368 C43.2533,81.6368 41.9873,80.7428 41.5123,79.4038 L35.1763,61.5488 C34.4013,59.3658 36.0203,57.0728 38.3363,57.0728 L39.9103,57.0728 C41.4213,57.0728 42.7453,58.0828 43.1453,59.5398 L45.2463,67.2038 L45.9163,69.7108 C46.1373,70.5388 46.8383,70.9558 47.5393,70.9558 C48.2223,70.9558 48.9043,70.5598 49.1413,69.7588 C49.3973,68.8928 49.6643,68.0148 49.9353,67.1308 L52.3103,59.4378 C52.7443,58.0318 54.0433,57.0728 55.5153,57.0728 L59.3303,57.0728 C60.8293,57.0728 62.1473,58.0678 62.5563,59.5098 L64.8053,67.4238 C64.9623,67.9758 65.1123,68.5188 65.2543,69.0558 C65.4763,69.8908 66.1783,70.3098 66.8793,70.3098 C67.5803,70.3098 68.2793,69.8918 68.4983,69.0568 L69.0013,67.1308 L71.2823,59.4698 C71.7063,58.0478 73.0133,57.0728 74.4973,57.0728 L75.5533,57.0728" id="Fill-28" fill="#000000"></path>
            </g>
            <ellipse id="Oval-3-Copy-2" fill-opacity="0.2" fill="#000000" cx="90" cy="214" rx="35" ry="11"></ellipse>
        </g>
    </g>
</svg>