<?xml version="1.0" encoding="UTF-8" standalone="no"?>
<svg width="180px" height="180px" viewBox="0 0 180 180" version="1.1" xmlns="http://www.w3.org/2000/svg" xmlns:xlink="http://www.w3.org/1999/xlink">
    <!-- Generator: Sketch 39.1 (31720) - http://www.bohemiancoding.com/sketch -->
    <title>icon_Equestrian</title>
    <desc>Created with Sketch.</desc>
    <defs>
        <ellipse id="path-1" cx="90.4440559" cy="90.0471698" rx="74.4440559" ry="74.0471698"></ellipse>
        <filter x="-50%" y="-50%" width="200%" height="200%" filterUnits="objectBoundingBox" id="filter-2">
            <feOffset dx="0" dy="4" in="SourceAlpha" result="shadowOffsetOuter1"></feOffset>
            <feColorMatrix values="0 0 0 0 1   0 0 0 0 1   0 0 0 0 1  0 0 0 1 0" type="matrix" in="shadowOffsetOuter1"></feColorMatrix>
        </filter>
    </defs>
    <g id="Page-1" stroke="none" stroke-width="1" fill="none" fill-rule="evenodd">
        <g id="icon_Equestrian">
            <g id="Oval-2">
                <use fill="black" fill-opacity="1" filter="url(#filter-2)" xlink:href="#path-1"></use>
                <use fill="#B1F3F8" fill-rule="evenodd" xlink:href="#path-1"></use>
            </g>
            <g id="Page-1" transform="translate(15.000000, 25.000000)">
                <g id="Group-15" transform="translate(17.000000, 0.118000)">
                    <path d="M88.0056,93.1102 L74.0166,93.1102 L64.8696,93.1102 L64.8696,70.8882 L89.3296,70.8882 C92.2996,70.8882 94.7096,68.4782 94.7096,65.5082 L94.7096,33.1712 C94.9246,33.1602 95.1406,33.1602 95.3556,33.1602 L128.7146,33.1602 L128.7146,69.4362 C128.7146,82.5102 118.1156,93.1102 105.0406,93.1102 L99.8426,93.1102 L88.0056,93.1102 Z" id="Fill-1" fill="#FFFFFF"></path>
                    <path d="M99.8428,93.1102 L99.8428,130.2572 C99.8428,131.4412 98.8748,132.4102 97.6908,132.4102 L90.1578,132.4102 C88.9638,132.4102 88.0058,131.4412 88.0058,130.2572 L88.0058,93.1102 L99.8428,93.1102 Z" id="Fill-3" fill="#FFBE64"></path>
                    <path d="M95.3554,33.1601 C95.1404,33.1601 94.9254,33.1601 94.7094,33.1711 L94.7094,33.1601 L94.7094,30.9971 L94.7094,28.0481 C94.7094,23.8951 98.0884,20.5161 102.2424,20.5161 L121.1824,20.5161 C125.3464,20.5161 128.7144,23.8951 128.7144,28.0481 L128.7144,33.1601 L95.3554,33.1601 Z" id="Fill-5" fill="#FFFFFF"></path>
                    <path d="M94.7097,33.1709 L94.7097,65.5079 C94.7097,68.4779 92.2997,70.8889 89.3287,70.8889 L64.8687,70.8889 L35.8137,70.8889 L26.1717,70.8889 C23.2017,70.8889 20.7917,68.4779 20.7917,65.5079 L20.7917,33.2889 C23.1917,33.6119 25.4727,34.5479 27.4207,36.0329 L28.2597,36.6789 C32.5747,39.9829 37.8587,41.7689 43.3037,41.7689 L70.9927,41.7689 C76.6637,41.7689 82.1517,39.8319 86.5527,36.2699 C87.8007,35.2689 89.1997,34.4839 90.6847,33.9569 C91.9657,33.5049 93.3327,33.2359 94.7097,33.1709" id="Fill-7" fill="#FF5050"></path>
                    <path d="M64.8692,93.1102 L64.8692,112.4912 C64.8692,115.4612 62.4592,117.8712 59.4882,117.8712 L41.1952,117.8712 C38.2242,117.8712 35.8142,115.4612 35.8142,112.4912 L35.8142,93.1102 L35.8142,70.8882 L64.8692,70.8882 L64.8692,93.1102 Z" id="Fill-9" fill="#FF5050"></path>
                    <path d="M35.8142,70.8885 L35.8142,93.1105 L26.4412,93.1105 L24.4612,93.1105 C11.3862,93.1105 0.7872,82.5105 0.7872,69.4355 L0.7872,33.1605 L8.0722,33.1605 L18.9192,33.1605 C19.4252,33.1605 19.9202,33.1925 20.4152,33.2465 C20.5442,33.2565 20.6622,33.2675 20.7912,33.2895 L20.7912,65.5075 C20.7912,68.4785 23.2022,70.8885 26.1722,70.8885 L35.8142,70.8885 Z" id="Fill-11" fill="#FFFFFF"></path>
                    <path d="M20.4258,6.5586 L20.4258,33.1166 L20.4148,33.2466 C19.9198,33.1926 19.4248,33.1596 18.9188,33.1596 L8.0718,33.1596 L8.0718,33.1166 L8.0718,6.5586 C8.0718,3.1476 10.8378,0.3816 14.2488,0.3816 C15.9598,0.3816 17.4988,1.0706 18.6178,2.1896 C19.7368,3.3086 20.4258,4.8586 20.4258,6.5586" id="Fill-13" fill="#FFFFFF"></path>
                </g>
                <path d="M84.5884,93.2261 L115.6134,93.2261 C128.6884,93.2261 139.2884,82.6271 139.2884,69.5521 L139.2884,33.2711 L105.9264,33.2711 C102.7254,33.2711 99.6204,34.3691 97.1314,36.3811 L97.1304,36.3821 C92.7254,39.9431 87.2334,41.8851 81.5694,41.8851 L53.8724,41.8851 C48.4354,41.8851 43.1494,40.0951 38.8314,36.7911 L37.9944,36.1501 C35.5534,34.2831 32.5664,33.2711 29.4934,33.2711 L11.3594,33.2711 L11.3594,69.5521 C11.3594,82.6271 21.9594,93.2261 35.0344,93.2261 L37.0104,93.2261" id="Stroke-16" stroke="#000000" stroke-width="5" stroke-linecap="round" stroke-linejoin="round"></path>
                <path d="M105.2859,42.9619 L105.2859,65.6189 C105.2859,68.5909 102.8769,70.9999 99.9049,70.9999 L36.7439,70.9999 C33.7729,70.9999 31.3639,68.5909 31.3639,65.6189 L31.3639,42.9619" id="Stroke-18" stroke="#000000" stroke-width="5" stroke-linecap="round"></path>
                <path d="M18.6477,33.2316 L18.6477,6.6766 C18.6477,3.2646 21.4127,0.4996 24.8237,0.4996 L24.8237,0.4996 C28.2357,0.4996 31.0007,3.2646 31.0007,6.6766 L31.0007,33.2316" id="Stroke-20" stroke="#000000" stroke-width="5" stroke-linecap="round" stroke-linejoin="round"></path>
                <path d="M105.2859,33.2708 L105.2859,28.1668 C105.2859,24.0068 108.6589,20.6348 112.8189,20.6348 L131.7549,20.6348 C135.9159,20.6348 139.2879,24.0068 139.2879,28.1668 L139.2879,33.2708" id="Stroke-22" stroke="#000000" stroke-width="5" stroke-linecap="round" stroke-linejoin="round"></path>
                <path d="M75.4424,70.9995 L75.4424,112.6075 C75.4424,115.5785 73.0334,117.9875 70.0614,117.9875 L51.7684,117.9875 C48.7964,117.9875 46.3874,115.5785 46.3874,112.6075 L46.3874,70.9995" id="Stroke-24" stroke="#000000" stroke-width="5" stroke-linecap="round"></path>
                <path d="M46.3874,145.618 L75.3244,145.618" id="Stroke-26" stroke="#000000" stroke-width="5" stroke-linecap="round" stroke-linejoin="round"></path>
                <polyline id="Stroke-28" stroke="#000000" stroke-width="3" stroke-linecap="round" points="46.3874 137.7258 60.8554 127.3238 75.3244 137.7258"></polyline>
                <path d="M60.8557,127.3234 L60.8557,99.7034" id="Stroke-30" stroke="#000000" stroke-width="3" stroke-linecap="round"></path>
                <path d="M110.4126,99.7033 L110.4126,130.3723 C110.4126,131.5613 109.4486,132.5243 108.2606,132.5243 L100.7276,132.5243 C99.5386,132.5243 98.5756,131.5613 98.5756,130.3723 L98.5756,99.7033" id="Stroke-32" stroke="#000000" stroke-width="3" stroke-linecap="round"></path>
                <path d="M104.494,116.114 L104.494,123.736" id="Stroke-34" stroke="#000000" stroke-width="3" stroke-linecap="round"></path>
                <path d="M0.5,64.4923 L0.5,70.8843 C0.5,84.0353 8.363,95.3483 19.643,100.3813" id="Stroke-36" stroke="#000000" stroke-width="3" stroke-linecap="round"></path>
                <path d="M117.8645,103.168 C135.6945,103.168 150.1475,88.714 150.1475,70.885 L150.1475,46.916" id="Stroke-38" stroke="#000000" stroke-width="3" stroke-linecap="round"></path>
            </g>
        </g>
    </g>
</svg>