<?xml version="1.0" encoding="UTF-8"?>
<svg width="179px" height="33px" viewBox="0 0 179 33" version="1.1" xmlns="http://www.w3.org/2000/svg" xmlns:xlink="http://www.w3.org/1999/xlink">
    <!-- Generator: sketchtool 41.2 (35397) - http://www.bohemiancoding.com/sketch -->
    <title>683E0416-2554-46D3-8458-97AFD407DBA3</title>
    <desc>Created with sketchtool.</desc>
    <defs></defs>
    <g id="spec" stroke="none" stroke-width="1" fill="none" fill-rule="evenodd">
        <g id="Desktop-HD---Ending_hover" transform="translate(-1005.000000, -659.000000)">
            <g id="logo-navbar" transform="translate(1005.000000, 659.000000)">
                <g id="Typography" transform="translate(36.844826, 5.060844)" fill="#FFFFFF">
                    <g id="Group">
                        <path d="M64.5880664,3.39927426 C64.5880664,3.39927426 65.3211839,3.0725335 65.5041484,2.27576681 L67.131619,2.27576681 L67.131619,3.64472521 L64.5068188,3.64472521 L64.5880664,3.39927426 L64.5880664,3.39927426 Z" id="Fill-8"></path>
                        <path d="M69.6985067,7.78196547 C69.6985067,7.78196547 70.4309944,7.4549084 70.6142738,6.65750912 L72.2423743,6.65750912 L72.2423743,8.02678382 L69.6175741,8.02678382 L69.6985067,7.78196547 Z" id="Fill-10"></path>
                        <path d="M66.6236328,11.6589834 C66.6236328,11.6589834 67.3554907,11.3312938 67.5393999,10.5345271 L69.1668705,10.5345271 L69.1668705,11.9044344 L66.5417554,11.9044344 L66.6236328,11.6589834 Z" id="Fill-12"></path>
                        <polygon id="Fill-14" points="55.776768 3.89653385 67.1259191 3.89653385 67.1259191 3.38443966 55.776768 3.38443966"></polygon>
                        <polygon id="Fill-16" points="53.5100239 8.26530774 72.2482946 8.26530774 72.2482946 7.75384615 53.5100239 7.75384615"></polygon>
                        <polygon id="Fill-17" points="59.5806026 12.1621579 68.4151731 12.1621579 68.4151731 11.6108422 59.5806026 11.6108422"></polygon>
                        <polygon id="Fill-18" points="58.612245 16.018205 68.4869733 16.018205 68.4869733 15.5061108 58.612245 15.5061108"></polygon>
                        <polygon id="Fill-19" points="58.612245 19.5282168 68.4869733 19.5282168 68.4869733 19.0158064 58.612245 19.0158064"></polygon>
                        <polygon id="Fill-20" points="57.8117361 21.6408031 59.4036215 21.6408031 59.4036215 12.5066116 57.8117361 12.5066116"></polygon>
                        <polygon id="Fill-21" points="67.535621 21.6765453 69.1747433 21.6765453 69.1747433 11.7250275 67.535621 11.7250275"></polygon>
                        <polygon id="Fill-22" points="60.9507893 8.24632957 62.6132152 8.24632957 62.6132152 0.380195932 60.9507893 0.380195932"></polygon>
                        <path d="M68.9673416,1.65590827 C68.9673416,1.65590827 64.6886181,10.1872266 52.0127384,15.2600905 L52.1742888,15.7124035 C52.1742888,15.7124035 64.5264379,12.1903721 70.4792391,2.59311339 L68.9673416,1.65590827 Z" id="Fill-23"></path>
                        <path d="M44.7545596,3.49935246 C44.7545596,3.49935246 45.4867325,3.17229539 45.6700118,2.37552871 L47.2977974,2.37552871 L47.2977974,3.74480341 L44.6723673,3.74480341 L44.7545596,3.49935246 Z" id="Fill-36"></path>
                        <path d="M44.1852913,16.1698405 C44.1852913,16.1698405 44.9177791,15.8421509 45.1013734,15.0453842 L46.7291589,15.0453842 L46.7291589,16.4146589 L44.1034139,16.4146589 L44.1852913,16.1698405 Z" id="Fill-37"></path>
                        <polygon id="Fill-38" points="33.9860452 4.01831042 47.2889168 4.01831042 47.2889168 3.50684883 33.9860452 3.50684883"></polygon>
                        <polygon id="Fill-39" points="35.4267724 5.87247727 45.3698367 5.87247727 45.3698367 5.32116153 35.4267724 5.32116153"></polygon>
                        <polygon id="Fill-40" points="35.4503909 7.79717963 45.3937701 7.79717963 45.3937701 7.28508545 35.4503909 7.28508545"></polygon>
                        <polygon id="Fill-41" points="35.4267724 9.61339015 45.3698367 9.61339015 45.3698367 9.10129596 35.4267724 9.10129596"></polygon>
                        <polygon id="Fill-42" points="35.4267724 11.4786276 45.3698367 11.4786276 45.3698367 10.9665334 35.4267724 10.9665334"></polygon>
                        <polygon id="Fill-43" points="26.6265274 8.02776435 31.7063897 8.02776435 31.7063897 7.51567017 26.6265274 7.51567017"></polygon>
                        <polygon id="Fill-44" points="30.3154188 11.9239819 31.9800491 11.9239819 31.9800491 7.48182577 30.3154188 7.48182577"></polygon>
                        <path d="M45.2785749,3.50428678 C45.2785749,3.50428678 45.8577,3.24586742 46.00256,2.61547599 L47.2886649,2.61547599 L47.2886649,3.69818038 L45.2137029,3.69818038 L45.2785749,3.50428678 Z" id="Fill-45"></path>
                        <path d="M29.9690145,7.49621755 C29.9690145,7.49621755 30.5481395,7.23779818 30.6929995,6.60772306 L31.9787895,6.60772306 L31.9787895,7.69011115 L29.9041424,7.69011115 L29.9690145,7.49621755 Z" id="Fill-46"></path>
                        <polygon id="Fill-47" points="27.8886989 16.5869174 46.7286865 16.5869174 46.7286865 16.0748232 27.8886989 16.0748232"></polygon>
                        <path d="M44.7011819,16.0723876 C44.7011819,16.0723876 45.280307,15.8146009 45.425167,15.1838932 L46.7119016,15.1838932 L46.7119016,16.2669139 L44.6363098,16.2669139 L44.7011819,16.0723876 Z" id="Fill-48"></path>
                        <path d="M43.7452319,5.3536142 C43.7452319,5.3536142 44.3514395,5.08317533 44.5038574,4.42336775 L45.8510554,4.42336775 L45.8510554,5.55668058 L43.6778405,5.55668058 L43.7452319,5.3536142 Z" id="Fill-49"></path>
                        <path d="M30.2940677,7.5115266 C30.2940677,7.5115266 30.7790338,7.29391029 30.9009051,6.76568466 L31.9801121,6.76568466 L31.9801121,7.67410623 L30.2392728,7.67410623 L30.2940677,7.5115266 Z" id="Fill-50"></path>
                        <path d="M28.2262227,1.88525941 L28.4913795,1.4734332 C28.4913795,1.4734332 30.9039283,2.055114 31.9900634,4.16295567 L30.7351349,5.06030664 C30.7351349,5.06030664 29.3595947,2.4429012 28.2262227,1.88525941" id="Fill-51"></path>
                        <path d="M35.8261136,0.465755832 L36.0572598,0.182032245 C36.0572598,0.182032245 37.649775,0.362641128 38.7793681,2.06498265 L37.3934358,2.8127224 C37.3934358,2.8127224 36.8794977,1.26568554 35.8261136,0.465755832" id="Fill-52"></path>
                        <path d="M41.8608237,0.68011422 C41.8608237,0.68011422 41.0968447,3.21907657 40.8071247,3.69511224 L41.2546161,3.69511224 C41.2546161,3.69511224 42.7822593,2.10853754 43.8088758,0.732620481 L41.8608237,0.68011422 Z" id="Fill-53"></path>
                        <polygon id="Fill-54" points="27.1647768 12.9161604 30.4458558 11.413406 30.6873941 11.8261811 28.2263487 14.7336362"></polygon>
                        <path d="M31.8933851,10.9800395 C31.8933851,10.9800395 32.6573641,12.8626736 37.3536623,12.97591 C37.3536623,12.97591 43.4910026,13.2991715 46.5875425,12.7494372 L46.5875425,14.0817045 C46.5875425,14.0817045 33.5580154,15.5360647 31.6767249,11.4159048 L31.8933851,10.9800395 Z" id="Fill-55"></path>
                        <polygon id="Fill-56" points="34.7065663 12.1276809 36.3227 12.1276809 36.3227 4.60694987 34.7065663 4.60694987"></polygon>
                        <polygon id="Fill-57" points="44.2071778 12.1548829 45.84693 12.1548829 45.84693 5.34773097 44.2071778 5.34773097"></polygon>
                        <path d="M33.4528974,17.9655863 L33.7177393,17.698943 C33.7177393,17.698943 35.6002895,18.1344919 36.7097281,19.783062 L35.4557444,20.8730413 C35.4557444,20.8730413 33.9589627,18.1344919 33.4528974,17.9655863" id="Fill-58"></path>
                        <path d="M40.7200197,14.822454 L42.3569377,14.822454 L42.3569377,20.2786768 C42.3569377,20.8182893 42.2284532,21.3405052 41.7894644,21.6640829 C41.5425726,21.8465896 41.0481591,22.0936221 40.7300969,22.001578 C40.3137819,21.880434 40.3912505,21.3461987 40.1679772,21.0675359 C39.9321073,20.7740069 39.3687279,20.7025225 39.01697,20.7025225 L39.0301963,20.3583851 L40.0338242,20.3583851 C40.0338242,20.3583851 40.7395443,20.4643465 40.7395443,19.7744902 C40.7395443,19.0855827 40.7200197,14.822454 40.7200197,14.822454" id="Fill-59"></path>
                        <polygon id="Fill-84" points="0.848375733 4.68855599 11.1129663 4.68855599 11.1129663 4.18152265 0.848375733 4.18152265"></polygon>
                        <polygon id="Fill-85" points="12.7621659 2.67908448 19.0207477 2.67908448 19.0207477 2.17173483 12.7621659 2.17173483"></polygon>
                        <polygon id="Fill-86" points="13.1444703 11.0908404 20.3925089 11.0908404 20.3925089 10.6233449 13.1444703 10.6233449"></polygon>
                        <polygon id="Fill-87" points="4.7498334 8.2722664 6.39871808 8.2722664 6.39871808 0.7645038 4.7498334 0.7645038"></polygon>
                        <polygon id="Fill-88" points="12.1477706 21.7113386 13.6795076 21.7113386 13.6795076 0.994455915 12.1477706 0.994455915"></polygon>
                        <polygon id="Fill-89" points="4.7498334 21.8343804 6.39871808 21.8343804 6.39871808 12.1567807 4.7498334 12.1567807"></polygon>
                        <path d="M8.59813374,4.17690463 C8.59813374,4.17690463 9.32306356,3.85301059 9.50445347,3.06415147 L11.1161784,3.06415147 L11.1161784,4.41982515 L8.51720109,4.41982515 L8.59813374,4.17690463 Z" id="Fill-90"></path>
                        <path d="M8.59813374,15.8113746 C8.59813374,15.8113746 9.32306356,15.4874806 9.50445347,14.6979888 L11.1161784,14.6979888 L11.1161784,16.0546114 L8.51720109,16.0546114 L8.59813374,15.8113746 Z" id="Fill-91"></path>
                        <path d="M17.379106,2.22471555 C17.379106,2.22471555 18.1046656,1.90082151 18.2866854,1.11164609 L19.8977805,1.11164609 L19.8977805,2.46763608 L17.2981733,2.46763608 L17.379106,2.22471555 Z" id="Fill-92"></path>
                        <path d="M8.67594876,11.8815341 C8.67594876,11.8815341 9.40087858,11.55764 9.58195357,10.7675157 L11.1939934,10.7675157 L11.1939934,12.1244546 L8.5950161,12.1244546 L8.67594876,11.8815341 Z" id="Fill-93"></path>
                        <path d="M8.64241052,7.96434565 C8.64241052,7.96434565 9.36765525,7.64045161 9.54936007,6.8515925 L11.1604552,6.8515925 L11.1604552,8.20631727 L8.56147786,8.20631727 L8.64241052,7.96434565 Z" id="Fill-94"></path>
                        <polygon id="Fill-95" points="0.0321211302 8.4784958 11.1583138 8.4784958 11.1583138 7.97114616 0.0321211302 7.97114616"></polygon>
                        <polygon id="Fill-96" points="0.0947888254 12.371234 11.1844516 12.371234 11.1844516 11.8642007 0.0947888254 11.8642007"></polygon>
                        <path d="M9.19120947,11.8392128 C9.19120947,11.8392128 9.76498103,11.5823749 9.90732173,10.9589421 L11.1814599,10.9589421 L11.1814599,12.0305759 L9.12696721,12.0305759 L9.19120947,11.8392128 Z" id="Fill-97"></path>
                        <polygon id="Fill-98" points="0.85530382 16.2238018 11.1186347 16.2238018 11.1186347 15.7161358 0.85530382 15.7161358"></polygon>
                        <path d="M2.38521436,9.04284321 L2.73571257,8.83534859 C2.73571257,8.83534859 4.05771752,10.1790028 4.6466049,11.3948706 L3.357036,11.9547265 C3.357036,11.9547265 2.70453618,9.37938936 2.38521436,9.04284321" id="Fill-99"></path>
                        <path d="M7.29159103,8.67463515 L9.25066505,9.45969863 C9.25066505,9.45969863 7.41818607,11.4271019 6.81323812,11.9063006 L6.55847347,11.7465677 C6.55847347,11.7465677 7.06831768,10.1783385 7.29159103,8.67463515" id="Fill-100"></path>
                        <path d="M18.2981482,2.16926767 L18.2981482,7.40692527 L18.2981482,7.77984624 C18.2981482,7.77984624 18.3838046,8.52632078 17.7549232,8.52632078 L17.0980146,8.52632078 L17.0980146,8.89797654 C17.0980146,8.89797654 18.0405493,8.95649255 18.0405493,9.50211484 C18.0405493,10.0464719 19.8979065,10.4481764 19.8979065,7.77984624 L19.8979065,2.11170057 L18.2981482,2.16926767 Z" id="Fill-101"></path>
                        <path d="M18.7420811,10.6047463 C18.7420811,10.6047463 18.1840552,17.2515328 14.1210472,21.8727163 L14.2920449,22.1539094 C14.2920449,22.1539094 19.5747112,17.5757431 20.4312747,10.749613 L18.7420811,10.6047463 Z" id="Fill-102"></path>
                        <path d="M14.632214,11.714115 C14.632214,11.714115 15.7791273,17.8257172 21.4173304,20.3453851 L20.1271317,22.0005975 C20.1271317,22.0005975 15.3250227,19.6327549 14.273843,11.7859157 L14.632214,11.714115 Z" id="Fill-103"></path>
                    </g>
                    <g id="Group" transform="translate(78.728260, 2.530422)">
                        <polygon id="Fill-305" points="1.78936739 5.89556737 2.61632904 5.89556737 2.61632904 0.797399288 1.07357005 0.797399288 1.07357005 1.82411809 0.264873359 1.82411809 0.264873359 0.0316302772 5.89803784 0.0316302772 5.89803784 1.82411809 5.08934115 1.82411809 5.08934115 0.797399288 3.54658216 0.797399288 3.54658216 5.89556737 4.37354381 5.89556737 4.37354381 6.62401265 1.78936739 6.62401265"></polygon>
                        <polygon id="Fill-306" points="8.51801986 5.89556737 9.33616395 5.89556737 9.33616395 0.750586478 8.51801986 0.750586478 8.51801986 0.0316302772 11.0930638 0.0316302772 11.0930638 0.750586478 10.2654723 0.750586478 10.2654723 2.94509511 13.6681077 2.94509511 13.6681077 0.750586478 12.8411461 0.750586478 12.8411461 0.0316302772 15.4158751 0.0316302772 15.4158751 0.750586478 14.597731 0.750586478 14.597731 5.89556737 15.4158751 5.89556737 15.4158751 6.62401265 12.8411461 6.62401265 12.8411461 5.89556737 13.6681077 5.89556737 13.6681077 3.71054782 10.2654723 3.71054782 10.2654723 5.89556737 11.0930638 5.89556737 11.0930638 6.62401265 8.51801986 6.62401265"></polygon>
                        <polygon id="Fill-307" points="18.2587841 5.89556737 19.0769282 5.89556737 19.0769282 0.750586478 18.2587841 0.750586478 18.2587841 0.0316302772 23.0089324 0.0316302772 23.0089324 1.562852 22.2005506 1.562852 22.2005506 0.797399288 20.0062366 0.797399288 20.0062366 2.91631156 22.3302948 2.91631156 22.3302948 3.68239687 20.0062366 3.68239687 20.0062366 5.85855994 22.3583221 5.85855994 22.3583221 5.06432368 23.1670187 5.06432368 23.1670187 6.62401265 18.2587841 6.62401265"></polygon>
                        <path d="M3.29213242,14.5835505 C4.00792976,14.5835505 4.4821888,14.1170039 4.4821888,13.3420621 C4.4821888,12.8287027 4.27749533,12.473811 3.8687382,12.3058542 C3.65459733,12.222034 3.37589929,12.184394 3.0597266,12.184394 L1.97201695,12.184394 L1.97201695,14.5835505 L3.29213242,14.5835505 Z M0.224249577,17.2825621 L1.04270857,17.2825621 L1.04270857,12.1375812 L0.224249577,12.1375812 L0.224249577,11.418625 L3.06917399,11.418625 C3.53398564,11.418625 3.91503042,11.4372868 4.27749533,11.5581145 C4.96558032,11.7921785 5.42062967,12.3713289 5.42062967,13.267731 C5.42062967,14.2201186 4.90039332,14.9008022 4.06335446,15.1162044 L4.06335446,15.1348662 C4.06335446,15.1348662 4.2308882,15.2281755 4.34236741,15.4429451 L5.27230562,17.0674762 C5.37465236,17.2455546 5.49557897,17.2825621 5.72766988,17.2825621 L5.92291597,17.2825621 L5.92291597,18.0110073 L5.36520497,18.0110073 C4.80749398,18.0110073 4.67711998,17.9085252 4.45447646,17.5156772 L3.44077138,15.7137003 C3.27355255,15.4337723 3.15262595,15.3499521 2.7530013,15.3499521 L1.97201695,15.3499521 L1.97201695,17.2825621 L2.78071364,17.2825621 L2.78071364,18.0110073 L0.224249577,18.0110073 L0.224249577,17.2825621 Z" id="Fill-308"></path>
                        <polygon id="Fill-309" points="8.56154085 17.2826253 9.37968493 17.2826253 9.37968493 12.1376444 8.56154085 12.1376444 8.56154085 11.4186882 13.3116892 11.4186882 13.3116892 12.9499099 12.5033074 12.9499099 12.5033074 12.1844572 10.3089933 12.1844572 10.3089933 14.3033695 12.6333665 14.3033695 12.6333665 15.0694548 10.3089933 15.0694548 10.3089933 17.2456179 12.6613937 17.2456179 12.6613937 16.4513816 13.4700904 16.4513816 13.4700904 18.0110706 8.56154085 18.0110706"></polygon>
                        <path d="M19.2598297,14.7707385 C19.5574225,14.7707385 19.7901432,14.7236094 19.9942069,14.6404217 C20.4127263,14.4534868 20.6545795,14.0328041 20.6545795,13.4634591 C20.6545795,12.9311216 20.4404387,12.5392224 20.0685264,12.343431 C19.8644627,12.2311435 19.5854497,12.1843307 19.269592,12.1843307 L18.0420609,12.1843307 L18.0420609,14.7707385 L19.2598297,14.7707385 Z M16.2942936,17.2824988 L17.1127525,17.2824988 L17.1127525,12.1378342 L16.2942936,12.1378342 L16.2942936,11.4185617 L19.3530439,11.4185617 C19.7526686,11.4185617 20.1522932,11.447029 20.4779133,11.5960076 C21.1565509,11.8854246 21.5933353,12.5860352 21.5933353,13.4634591 C21.5933353,14.3876958 21.1096289,15.134803 20.3569867,15.3963854 C20.0499465,15.5086728 19.7340887,15.5365075 19.3713089,15.5365075 L18.0420609,15.5365075 L18.0420609,17.2824988 L18.8696524,17.2824988 L18.8696524,18.0109441 L16.2942936,18.0109441 L16.2942936,17.2824988 Z" id="Fill-310"></path>
                        <path d="M27.5505768,17.2915767 C28.8798247,17.2915767 29.9584019,16.1525704 29.9584019,14.6678452 C29.9584019,13.2296165 28.8798247,12.1285665 27.5505768,12.1285665 C26.2118814,12.1285665 25.1333043,13.2296165 25.1333043,14.6678452 C25.1333043,16.1525704 26.2118814,17.2915767 27.5505768,17.2915767 M27.5505768,11.3068119 C29.4469831,11.3068119 30.9251849,12.772559 30.9251849,14.6678452 C30.9251849,16.6102605 29.4469831,18.1225041 27.5505768,18.1225041 C25.645038,18.1225041 24.1759686,16.6102605 24.1759686,14.6678452 C24.1759686,12.772559 25.645038,11.3068119 27.5505768,11.3068119" id="Fill-311"></path>
                        <path d="M36.7241196,14.5835505 C37.439917,14.5835505 37.9138611,14.1170039 37.9138611,13.3420621 C37.9138611,12.8287027 37.7094825,12.473811 37.3007254,12.3058542 C37.0865845,12.222034 36.8078865,12.184394 36.4917138,12.184394 L35.4040042,12.184394 L35.4040042,14.5835505 L36.7241196,14.5835505 Z M33.6565517,17.2825621 L34.4743809,17.2825621 L34.4743809,12.1375812 L33.6565517,12.1375812 L33.6565517,11.418625 L36.5011612,11.418625 C36.9656579,11.418625 37.3467027,11.4372868 37.7094825,11.5581145 C38.3975675,11.7921785 38.8529318,12.3713289 38.8529318,13.267731 C38.8529318,14.2201186 38.3323805,14.9008022 37.4956566,15.1162044 L37.4956566,15.1348662 C37.4956566,15.1348662 37.6628754,15.2281755 37.7746695,15.4429451 L38.7039779,17.0674762 C38.8066396,17.2455546 38.9275662,17.2825621 39.1596571,17.2825621 L39.3549032,17.2825621 L39.3549032,18.0110073 L38.7975071,18.0110073 C38.2394812,18.0110073 38.1087923,17.9085252 37.8861488,17.5156772 L36.8730735,15.7137003 C36.7055398,15.4337723 36.5849281,15.3499521 36.1849885,15.3499521 L35.4040042,15.3499521 L35.4040042,17.2825621 L36.2127009,17.2825621 L36.2127009,18.0110073 L33.6565517,18.0110073 L33.6565517,17.2825621 Z" id="Fill-312"></path>
                        <polygon id="Fill-313" points="43.257778 17.2826253 44.0850545 17.2826253 44.0850545 12.1844572 42.5419806 12.1844572 42.5419806 13.211176 41.7332839 13.211176 41.7332839 11.4186882 47.3664484 11.4186882 47.3664484 13.211176 46.5580666 13.211176 46.5580666 12.1844572 45.0149927 12.1844572 45.0149927 17.2826253 45.8422693 17.2826253 45.8422693 18.0110706 43.257778 18.0110706"></polygon>
                        <polygon id="Fill-314" points="49.9865879 17.2826253 50.804732 17.2826253 50.804732 12.1376444 49.9865879 12.1376444 49.9865879 11.4186882 54.7370511 11.4186882 54.7370511 12.9499099 53.9280395 12.9499099 53.9280395 12.1844572 51.7343553 12.1844572 51.7343553 14.3033695 54.0580986 14.3033695 54.0580986 15.0694548 51.7343553 15.0694548 51.7343553 17.2456179 54.0864408 17.2456179 54.0864408 16.4513816 54.8951375 16.4513816 54.8951375 18.0110706 49.9865879 18.0110706"></polygon>
                        <path d="M60.787129,14.5835505 C61.5029263,14.5835505 61.9768704,14.1170039 61.9768704,13.3420621 C61.9768704,12.8287027 61.7724919,12.473811 61.3634198,12.3058542 C61.1495939,12.222034 60.8708958,12.184394 60.5547231,12.184394 L59.4670135,12.184394 L59.4670135,14.5835505 L60.787129,14.5835505 Z M57.719561,17.2825621 L58.5373902,17.2825621 L58.5373902,12.1375812 L57.719561,12.1375812 L57.719561,11.418625 L60.5638556,11.418625 C61.0289822,11.418625 61.409712,11.4372868 61.7724919,11.5581145 C62.459947,11.7921785 62.9159411,12.3713289 62.9159411,13.267731 C62.9159411,14.2201186 62.3953899,14.9008022 61.558351,15.1162044 L61.558351,15.1348662 C61.558351,15.1348662 61.7255698,15.2281755 61.8376789,15.4429451 L62.7669873,17.0674762 C62.8696489,17.2455546 62.9902606,17.2825621 63.2226664,17.2825621 L63.4175976,17.2825621 L63.4175976,18.0110073 L62.8602015,18.0110073 C62.3018607,18.0110073 62.1718016,17.9085252 61.9488432,17.5156772 L60.9360828,15.7137003 C60.7685491,15.4337723 60.6476225,15.3499521 60.2479978,15.3499521 L59.4670135,15.3499521 L59.4670135,17.2825621 L60.2760251,17.2825621 L60.2760251,18.0110073 L57.719561,18.0110073 L57.719561,17.2825621 Z" id="Fill-315"></path>
                    </g>
                </g>
                <g id="Icon">
                    <polygon id="Fill-1" fill="#C71B0A" points="30.546565 26.5694329 18.5798694 23.7227079 18.5798694 8.85647762 30.546565 5.37714712"></polygon>
                    <polygon id="Fill-2" fill="#E62112" points="0 32.5791855 18.8947825 23.7227079 18.8947825 8.85647762 0 0"></polygon>
                </g>
            </g>
        </g>
    </g>
</svg>