<?xml version="1.0" encoding="UTF-8" standalone="no"?>
<!DOCTYPE svg PUBLIC "-//W3C//DTD SVG 1.1//EN" "http://www.w3.org/Graphics/SVG/1.1/DTD/svg11.dtd">
<svg width="100%" height="100%" viewBox="0 0 1196 438" version="1.1" xmlns="http://www.w3.org/2000/svg" xmlns:xlink="http://www.w3.org/1999/xlink" xml:space="preserve" style="fill-rule:evenodd;clip-rule:evenodd;stroke-linejoin:round;">
    <g id="map2" transform="matrix(1,0,0,1,1,-6)">
        <g id="path" transform="matrix(1,0,0,1,0,9)">
            <path id="Fill-15" d="M1047.3,422C1048.5,421 1048.5,416.1 1049.2,415.3C1050,414.5 1053.5,410.2 1054,409.4C1054.6,408.6 1055.6,407 1057.1,407.8C1058.7,408.6 1063.3,410 1064.7,410C1066.1,410 1069.9,409.8 1069.9,409.8C1069.9,409.8 1074.2,407.1 1074.7,406.3C1075.3,405.5 1078,403.2 1078.8,405.3C1079.6,407.5 1081.9,406.9 1083.5,406.9C1085.1,406.9 1086,405.9 1086,404.7C1086,403.5 1086.6,401.6 1087.9,401C1089.3,400.4 1088.9,397.7 1088.3,396.1C1087.7,394.5 1086,390.2 1087.3,388.9C1088.7,387.5 1089.6,385.2 1089.6,384C1089.6,382.8 1090,379.7 1092.1,379.5C1094.2,379.3 1096,377.1 1096.9,379.9C1097.9,382.6 1098.5,383.2 1099.6,383C1100.8,382.8 1103.5,382 1104.1,383C1104.7,384 1106.8,384.6 1107.6,384.6C1108.4,384.6 1109.9,384 1111.3,383.2C1112.7,382.4 1115,379.9 1115.6,378.3C1116.2,376.7 1119.3,368.9 1119.7,368.1C1120.1,367.3 1120.1,365.7 1119.1,364.4C1118.1,363 1118.1,360.9 1117.9,359.9C1117.7,358.9 1115.6,356.6 1115.6,355.8C1115.6,355 1115.8,350.1 1115.8,349.1C1115.8,348.1 1114.6,346.7 1113.5,346.7C1112.3,346.7 1111,347.1 1109,347.1C1107.1,347.1 1107.1,348.5 1105.7,346.7C1104.3,344.9 1102,343.4 1100.3,342.4C1098.6,341.4 1097.4,341.2 1097.8,339.1C1098.2,336.9 1099.2,335.4 1098.4,334C1097.6,332.6 1098.4,326.4 1098.8,325C1099.2,323.6 1098.8,321.1 1098,320.3C1097.2,319.5 1092.2,317 1092,314C1091.8,311 1091.2,304.2 1091.2,303.2C1091.2,302.2 1091.4,300.3 1090.8,299.5C1090.2,298.7 1089.8,297.5 1089.8,296.4C1089.8,295.2 1088.8,294 1087.9,292.9C1086.9,291.7 1086.5,289.6 1086.5,288.8C1086.5,288 1086.3,286.6 1087.3,285.1C1088.3,283.5 1089.4,280.4 1089.4,280.4C1089.4,280.4 1090.4,276.1 1090.2,274.9C1090,273.7 1090,269.2 1090,269.2C1090,269.2 1091.6,266.8 1090,265.7C1088.4,264.5 1088.4,262.6 1089,261.8C1089.6,261 1092.3,257.1 1094,257.3C1095.7,257.5 1098.7,256.9 1098.7,256.9C1098.7,256.9 1099.7,256.3 1099.9,255.5C1100.1,254.7 1101.8,253.5 1103.4,256.5C1105,259.4 1107.1,261 1107.1,261C1107.1,261 1109.8,262.4 1111.4,262.4C1113,262.4 1115.7,263.2 1117,264.4C1118.4,265.6 1127.9,270.1 1130.2,271.1C1132.5,272.1 1134.5,272.7 1136.4,272.5C1138.3,272.3 1138.5,271.5 1140.1,273.3C1141.7,275.1 1144,277 1145.1,277.2C1146.3,277.4 1147.6,275.9 1147.6,275.9L1150.2,275.8C1150.1,274.1 1149.7,272.2 1148.5,270.9C1150.3,268.2 1149.5,264.8 1145.9,264.6C1146.3,263.9 1146.7,263.2 1146.8,262.6C1147.3,261.8 1147.8,260.9 1148,260C1148.9,260.1 1149.8,259.9 1150.6,259.4C1152.7,260.7 1154.1,259.7 1155.1,257.2C1156.3,256.9 1157.4,256.2 1158.5,255.7C1159.3,255.5 1160.5,255 1161.1,254.7C1161.8,254.4 1162.4,254.1 1162.4,254.1C1163.8,253.2 1165,251.8 1165.6,250.2C1167.7,250.6 1170.6,249.3 1170.5,246.7C1173.2,246.2 1174.7,244 1173.7,241.2C1174,240.9 1174.3,240.5 1174.5,240.2C1175.8,241 1177.4,241.2 1178.8,240.3C1180.8,244 1183.8,243.2 1186.7,240.8C1189.4,241.1 1192.7,239 1191.9,236C1192.6,236 1193,235.9 1193,235.9L1192.6,233.3C1192.6,233.3 1193.4,230.9 1193.2,229.6C1193,228.2 1192,226.5 1192,226.5C1192,226.5 1190.3,220.8 1189.3,220C1188.3,219.2 1184.8,218.6 1184.5,217.5C1184.1,216.3 1182.9,211.2 1182.9,211.2C1182.9,211.2 1181.2,210.4 1180.2,210.4C1179.2,210.4 1176.3,209.2 1176.3,209.2C1176.3,209.2 1178.2,206.1 1177.1,204.9C1175.9,203.7 1170.9,202.7 1169.9,202C1168.9,201.2 1168.2,200 1168.9,198.5C1169.7,196.9 1167.5,194.4 1170.6,194.2C1173.7,194 1174.9,193.4 1175.1,191.8C1175.3,190.2 1176.3,188.9 1176.5,188.1C1176.7,187.3 1175.5,184.4 1175.7,183.2C1175.9,182 1176.5,180.8 1176.5,179.5C1176.5,178.1 1177.3,176.2 1179.2,177.3C1181.1,178.5 1183.5,178.1 1184,177.3C1184.6,176.5 1186.7,174.2 1185.6,172.4C1184.4,170.6 1184.2,169.9 1184.6,168.7C1185,167.5 1185.8,165.2 1187.3,166.9C1188.9,168.7 1189.6,167.9 1189.8,166.7C1189.9,166.3 1190.2,165 1190.7,163.4C1189.4,162.7 1188.2,161.9 1186.9,161.2C1184.7,159.8 1183.1,157.4 1181.2,155.6C1179.9,154.4 1178.5,153.5 1177.2,152.3C1174.5,149.9 1171.9,147.2 1169.1,144.8C1167.9,143.8 1166.4,142.8 1165.1,141.9C1165,141.8 1164.2,141.3 1164.2,141.3C1162.3,140.8 1158.6,139.1 1156.7,140.3C1155.6,140 1152.9,137.9 1152.1,138.2L1151.2,139.3L1150.2,139.2L1149.5,139.7L1148.9,141.5L1147.4,142.3C1147.2,143.4 1146.6,146.9 1146.1,147.7C1145.8,148 1144.9,148.6 1144.4,148.5L1144,148.3C1142.8,149 1141.8,150 1140.6,150.6L1139.7,150.5L1139.2,150L1137.9,150.6L1137.4,151.8C1136,151.7 1131.5,153.2 1130.8,154.3L1130.1,153.8C1127.8,154.4 1124.9,153.5 1122.6,153.1C1122.4,153.1 1121.9,153.2 1121.8,153.1C1119.6,152.3 1117.8,152 1116.3,150.2C1115,150 1113.8,151 1112.5,151L1110.7,150.1C1109.9,150.4 1109.1,150.8 1108.3,151C1108.1,151.1 1107.6,151 1107.5,151C1106.9,151.3 1106.3,151.9 1105.6,152.2C1104,152.8 1097.9,153.6 1096.5,152.8C1096.4,152.7 1095.3,151.7 1095.1,151.5L1094.7,153.6L1093.8,153.8L1093.4,151.4L1094.7,149.9C1094.6,149.6 1094.5,149.3 1094.4,149L1095,147.8L1094.4,147.1C1094.4,148.3 1092.1,149.3 1091.2,149.5L1091.1,150L1091.4,150.6L1089.8,151.1C1089.3,150.9 1088.1,150.3 1087.8,150C1087,149.1 1083.4,145.1 1083.6,144C1082.8,143.4 1080.2,139.5 1080.1,138.5L1081.7,136.9L1081.4,136.4L1079.6,137.7C1079.2,136.9 1078.8,135.9 1078.6,135C1078.8,134.5 1079.5,133.9 1079.9,133.7L1078.4,134L1077.9,132.7L1079.4,132.4L1079,131.6L1077.9,131.9C1077.6,131.8 1077,131.3 1076.8,131L1076.9,130.1C1076.5,129.7 1076.3,128.7 1076.3,128.2L1076.9,127.7L1076.8,127.2L1075.5,127.6C1075.2,126.5 1075.1,125.2 1075.1,124.1L1075.6,123.8C1074.7,121.6 1074.1,119.2 1073.5,116.9L1072.9,116.9L1072,115.9C1072,115.5 1072.1,114.1 1072.5,113.9L1072.1,113.7C1072.1,113.1 1071.7,112.2 1071.2,111.9L1071,109.8L1072.1,109.9C1072,109.7 1071.7,107.9 1071.6,107.8C1071.5,107.6 1069.3,104.8 1069,104.6L1067.5,104.4C1067.4,104.1 1066.5,103.5 1066.2,103.3C1065.6,103.5 1064,102.8 1063.5,102.5L1065.8,101.5L1066.1,100.7L1064.1,100.5L1063.9,101.5C1062.6,101.5 1061.3,101.5 1060,101.4C1059,101.3 1058.1,100.9 1057,101L1055.6,101C1054.6,100.7 1053.5,99.8 1052.6,99.4C1050.6,98.6 1048.5,97.9 1046.5,97.1C1037.8,100.7 1036.4,94.5 1028.4,101.8C1025.8,101 1022.6,101.7 1020.2,102.8C1019.3,103.2 1018.4,104.2 1017.5,104.8C1016.3,104.4 1014.1,104.4 1013,104.9L1011.2,105.8C1009.3,106.9 1010.1,109.9 1009.2,110.6C1007.5,111.8 1005.6,112.3 1005.2,114.7L1003.3,114.3L1002.5,115L1001.7,115.1L1001.2,115.6C1001.2,116.5 1001,116.9 1001.5,117.7L1004.2,117.7L1004.5,118.1C1004.4,119.6 1003.8,121.7 1002.3,122.4L1001.5,121.7L1001,121.7C1001,122.2 1000.6,123.6 1000.1,123.9L999.1,123.8L999.1,125.2L998.8,125.5L997.5,125.5L997.4,126C998.9,126.9 1000.4,128.1 1000.6,130C1000.6,130.4 1000.3,131 1000,131.3C999.5,131.6 998.2,131.3 997.7,131.2L997.4,131.7L999.3,134.3C998.9,135.8 998.3,137.2 996.6,137.3C996,138 996.6,140.7 997,141.5L996.7,142.1C997.8,144.3 996.4,145.6 995.8,147.5C995.4,148.9 995.2,150.4 994.7,151.8C994.1,153.6 991.5,156.2 992.8,158.4L992.1,159.6L992.6,161.1L992.3,161.6L991.2,161.5L990.5,161.9C988.9,162.1 988.2,160.3 986,161.5C985.5,161.3 983.9,160.6 983.4,160.7L982.5,161.3L982.3,161.9L982.6,162.5C983.2,162.5 983.8,162.5 984.4,162.4C985.9,162.9 988.1,163.2 988.5,164.9C988,166.1 988.9,166.9 988.6,167.9L987,167.1L987.4,165.9L987,165.2L987.3,164.6L986.5,164.1L986.1,164.6L984.9,164.8C984.9,165.7 985.2,166.8 985.5,167.7L986.2,168.1L986.4,168.7C986,169.6 985.4,170.5 985,171.4C984.9,171.6 984.9,172.3 984.8,172.5C984.1,173.9 982.6,174.7 982.3,176.5C982,176.8 981.4,177.3 981,177.2L980.1,180.2L976.6,178L976.2,179C977.2,179.2 978.7,180.1 979.3,180.9L978.4,182.1L976.7,182.5L977,183.4L976.5,184.5L975.5,184.9L975.2,185.3L974.7,185.1L974.1,185.2L973,187.8L972.2,187.7L971.7,187.2L971.4,187.6L972.9,189.9L972.8,190.3C972,190.1 971,190 970.2,190.1C969.6,190.4 969,191.2 968.7,191.8L968.7,193.5C968.3,193.8 967.6,194.5 967.5,195L967.7,195.8L967.4,196.4L966.1,196.5C965.9,197.3 963.1,199.5 962.3,200.3L961.2,200.4L959.4,199.3L959.1,199.9L957,199.5L956.3,200L955.7,199.5L955.2,199.7L953.9,201.8L952.4,201.6L952.4,202.1C951.5,202.2 950.4,203.2 949.9,203.9L948.2,203.5C948.2,203.5 944.4,202.2 942.5,201.6C940.6,201 940.6,200 939.2,198.9C937.8,197.7 935.3,196.7 935.3,196.7C935.3,196.7 934.9,196.4 934.4,196.1L934.7,195.7L934.1,195.2C934,195.3 933.9,195.5 933.7,195.6C932.8,195.1 931.8,194.6 931,194.5C929.4,194.3 928.5,193.3 927.1,193.3C925.7,193.3 923.8,190.9 922.8,190C921.8,189 921.1,186.3 920.7,185.1C920.3,183.9 916.2,183.1 914.5,183.1C912.8,183.1 912.5,182.4 912.5,182.4C912.1,182 910.3,182 909.7,182.1L909.3,181.8L908.3,182L908.2,182.4L908.6,183.3L908.3,184.6C907.5,185.5 906.3,186.3 905.3,186.9C899.1,190.6 900.8,188.4 894.7,189.8C893.9,190 893.1,190.5 892.3,190.6C891.2,190.8 890,190.5 888.9,190.7C885.9,191.2 884.1,193.3 881.5,194.4C880.9,194.6 877.6,194.5 877.2,194.4L873.3,194.1C870.9,193.7 868.6,192.8 866.2,192.6C865.2,192.5 862.4,193.2 861.1,193.3C858.1,193.5 855.1,193 852.1,192.6C851.7,192.5 851.2,192.6 850.8,192.6C849.9,192 844.1,190.6 843.7,190.2C843,189.5 842.8,188.6 841.8,188.2C841.6,188.2 840,188.1 839.9,188.1C836.4,187.1 832.9,186.2 829.5,185.1C827.9,184.5 826.2,183.6 824.6,183C821.9,181.9 818.4,182.3 816.4,181.3C816.1,181.8 815.6,182.5 815.1,182.8L814.4,182.7L814.1,182.3L814.1,180C813.3,179.9 811.3,179.9 810.6,180.5L809.8,182.2L809.3,182L809.7,180.7L808.8,180.5L809.6,179.4C808.3,179.1 807,178.9 805.8,178.6C804.7,178.3 803.4,177.6 802.2,177.4C800.8,176.8 795.9,173.1 794.3,171.4C792.7,169.6 793.7,167.7 793.7,167.7C793.7,167.7 790,169.5 788.7,170.8C788.1,171.4 787.8,172 787.7,172.4C786.3,173.6 782.3,174.5 781.3,175.1C779.2,176.5 777,178.2 774.6,179.2C772.8,179.9 770.7,180.1 768.9,180.7C767.7,181.1 766.7,182 765.4,182.2C761.6,182.9 757.7,183 753.9,183.4C750.8,183.7 747.7,184.1 744.6,184.4C742.3,184.6 739.9,182.4 738,182.6C736.7,182.7 734.9,183.4 733.7,183.4C733.6,183.4 728.3,182.2 728.1,182.2C726.7,181.7 725.3,180.4 723.8,180.3L722.8,180.8C721.6,180.4 720.1,180.7 719.6,180.5C716.2,178.7 713.1,176.8 709.9,174.7L710.1,173.3C710.1,173.3 709.9,171.5 709.3,170.8C708.7,170 708.7,169.8 708.7,168.4C708.7,167 707.5,167.2 706.6,168C705.6,168.8 704.3,168.4 702.7,167.2C701.1,166 701.3,167.4 701.3,168.6C701.3,169.8 700.8,169.3 700.8,169.3C700.2,169.2 699.5,169.1 698.8,169.1C698,170 697.1,170.5 696,170.9L693.6,171L692.3,170.2L691.8,171.1L692,171.5L693.7,172.4L694.1,173.2L693.1,173.5L693,174C693.2,174.5 694.6,175 695,175.1L695.1,175.9C693.8,175.9 693.4,176.6 692.4,177C691.9,177.2 691.3,177.2 690.9,177.3C690.6,177.4 689.4,178.2 689.2,178.3C687.8,178.7 686.1,178.8 684.7,179.1C683.8,179.3 681,177.6 680.5,177.4C678.8,176 676.3,175.2 673.8,174.8L674,174.3C674,173.4 672.6,171.4 672,170.7L671.5,170.5C671.5,170.5 669.5,168.4 668.9,167.2C668.3,166 667.9,165.2 667.5,163.7C667.1,162.1 665.4,161.7 664.6,162.3C663.8,162.9 663.6,163.9 663.2,164.8C662.8,165.8 660.7,165.6 660.5,166.4C660.3,167.2 660.1,168.6 660.5,169.3C660.6,169.5 660.7,169.8 660.7,170.1L660.4,170.3C660.3,170.9 659.8,172.4 659.2,172.8C656.7,173.5 651.3,175.2 649.1,175.1C648.6,175.1 645.6,173.9 644.8,173.8C644.4,173.7 642.3,174.3 641.8,174.2C639.5,173.7 636.7,169.3 635.4,167.6L634.6,167.2L634,165.8L635.1,164.9C634.9,164.6 634.5,164.3 634.1,164.3L633.6,165C632.7,165.2 631.2,165 630.6,164.2L630.1,164.9L630.4,165.4C629.8,167.1 627.2,167.8 625.7,166.8C624.5,166 623,165.2 622,164.3C621.1,163.5 621,161.8 620.4,160.9C619.4,159.3 618,157.7 616.8,156.2C616.7,155.6 617.2,154.7 617.5,154.3C617,153.8 616,153.1 615.2,153.1C615,152.8 614.2,151.1 614.2,150.8C613.7,147.6 613.1,144.7 612.2,141.6C612.1,141.4 612.3,140.8 612.3,140.6C612.1,139.7 611.5,138.9 611.3,138C611.3,137.8 611.5,136.6 611.5,136.3C611.2,134.3 610.1,132.3 610.2,130.2C610.2,129.5 610.6,128.7 610.6,128.1C610.5,126.4 610,125.2 610.1,123.4C610.2,121.8 610.4,120 610.3,118.3C610.3,117.6 609.9,116.9 609.8,116.2C609.7,115.3 610.3,114.7 609.7,113.6L610.2,113L611.3,112.7L611,111.9C610.3,111.1 609.3,111.3 608.4,111.1C606,110.4 603.6,108.7 601.4,107.5C600.2,106.8 599.5,105.9 598.4,105.1C598.2,104.9 597.4,104.8 597.1,104.6C596.5,104.2 596,103.6 595.5,103.2C594.1,102.1 592.6,101.2 591.3,100.1C587.3,96.7 584.7,91.2 582,86.8C581.7,86.3 581.3,85.8 580.9,85.3L580.3,82.1C580.3,82.1 580.3,80.3 581.3,79.6C582.3,78.8 581.7,77.4 580.5,76.5C579.3,75.5 579.1,74.7 581.5,73.2C583.8,71.6 580.5,71.4 579.2,71.8C577.8,72.2 577.6,69.6 577.5,68.1C577.3,66.5 576.5,67.9 576.1,68.7C575.7,69.5 575.1,73.6 575.1,75.4C575.1,76.4 574.3,76.5 573.6,76.3C572.7,74.8 571.8,73.1 570.8,71.7C570.6,71.5 570.5,71.5 570.3,71.3C569.2,70.5 568.8,69.6 567.9,68.8C567.8,68.7 566.9,68.3 566.8,68.2C563.9,68.3 564.2,69 561.8,70.1C561.6,70.2 559,70.3 558.7,70.3C556.9,69.2 555.7,67.8 554.6,66.1L554.2,65.8L553.9,66L553.8,66.5L555.3,68.8L555.3,69.4L554.7,70.5L554,70.6L553.2,70.2L552.7,70.5L551.2,68.8L550.9,68.8L550.7,69.1L551.1,70.7L550.5,70.6L549.9,70.9L549.7,71.9L550.5,72L550.6,72.8L549.6,74.3L546.4,74.6L545.9,75.6L545.3,75.5L545.1,75.9L544.2,76.3L544.7,77.1C545.4,77.2 546.6,77.6 547.2,78.1L547.6,78.8L548.4,78.7L548.4,78L549,77.8L549.5,78.2L549.4,78.8L550.7,79L550.7,79.6L550.3,80L549.3,79.7L548.5,80C548.4,80.4 548.7,81.2 548.9,81.5L548.5,82L547.8,81.9L547.3,81.3L546.5,81.1C545.1,82.2 544,83.5 542.2,84.1C541.8,84.2 540.6,84.1 540.1,84.2C539.8,84.3 538.4,85 538.2,85C534.5,85.1 532,83.9 528.7,82.7C525.6,81.5 522.1,80.7 519.3,78.8C519.1,78.7 518.5,77.8 518.2,77.6C517.9,77.3 514.9,75.5 514.4,75.4C514.1,75.3 513.1,75.4 512.9,75.3C512,75 511.2,74.2 510.4,73.8C509.7,73.5 508.8,73.3 508.1,73.1C505.6,71.4 503.3,70.1 500.8,68.7C500.7,68.6 500.4,68.7 500.3,68.7C500.1,68.6 499.4,68.2 499.2,68.2L490.7,66.9C491.1,66.3 491.7,65.6 492.1,65.5C492.9,65.3 493.7,65.5 493.8,64.7C494,63.9 493.8,63.3 492.4,63.3C491,63.3 491.4,61.9 492.2,60.9C493,59.9 492.2,59.5 490.8,58.5C489.4,57.5 488.9,59.3 488.9,60.5C488.9,61.7 488.9,62.1 487.9,62.9C487.4,63.3 486.4,63.6 485.6,63.9C484.4,62 485.5,60 484.5,59.3C482.1,60.4 480.5,59 479,57.2C478.4,57.1 477.5,57.3 476.9,57.4L476.6,57.8C476.9,58.3 478,58.7 478.5,58.8C478.8,59.4 478.3,61.6 477.6,61.8L476.6,61.6L475.8,60.8C475.1,60.5 470.2,60.9 468.9,60.9C467.9,64.8 466.2,64.4 464.5,66.7C462.6,67.4 462.5,67 460.6,67.4C460.4,67.4 457.5,65.2 457.3,65.2C456.7,65.4 457,68.3 456.4,68.5C455.6,68.8 454.8,69.3 454,69.7C450.2,71.2 448.6,70.6 445.7,68C445.3,67.7 445,67.6 444.7,67.1C444.6,67 443.7,64.1 443.6,63.8C443.4,63.8 441.4,63.5 441.3,63.5C438.7,62.2 438.5,59.3 435.1,57.8C433.2,57 431.2,56.8 429.3,56.3C427.4,55.8 426.3,54.9 424.9,54.3C424.3,54 423.5,54 422.8,53.8C422.1,53.5 421.4,52.9 420.6,52.6C420.4,52.5 419.6,52.6 419.4,52.6C415.3,51.1 414.4,49.7 411.9,46.2C411.3,45.4 410.1,44 409.6,43.1C407.3,39 405.8,34.5 403.4,30.4C402.6,29 401.2,27.6 400.2,26.3L399.9,25.1C399,24.1 395.7,20.2 394.9,19.8C393.5,19.1 391.7,18.5 391,16.9C388,15.8 384.1,15.2 380.9,15.5C380.7,15.5 379.8,16.1 379.5,16.1C378.9,16.2 378.2,16 377.6,16.1C376.9,16.2 376,16.8 375.2,17C374.3,17.2 372.7,17.4 371.8,17.8C371.3,18 366.4,20.5 366.2,20.6C365.4,20.8 365,20.6 364.2,20.7C362.7,20.7 359.5,21.1 358,20.5C355.7,19.7 351.8,17.2 350.4,15.1C349.9,14.3 348.9,12.5 348,12C340.8,12.3 339.4,11.7 333.3,7.8C332.9,8.3 331.7,9.6 331.1,9.8C330.9,10.1 331.1,11.3 331.2,11.7L332.9,13.4C333,14.1 333.6,17.2 333.3,17.7C332.9,17.9 332.4,18.1 332,18.3L331.8,20.7L330.9,22C331.1,22.2 331,23.2 331,23.5L329.9,24.7C329,24.7 328.1,24.7 327.2,24.6L326.5,25.4L328.4,27.8L328.2,28.5L329.1,29.6L330.7,28.8C331.8,29.4 333,31.2 333.3,32.4L334,32.6C334.5,32.6 335.3,31.9 335.7,31.6L336.3,31.8C336.1,32.9 335,33.9 334.1,34.2L333.2,33.9L332.3,34.9L329.5,33.8L329.2,34.3C330.9,36.1 331.1,36.2 332.2,38.2C331.3,38.3 330.1,38.4 329.2,38.7C328.9,38.8 328.1,39.5 327.8,39.6C325.9,40.2 323.8,40.6 321.9,41L321.1,44.3L320.7,44.2C320.4,43.7 320.8,42 320.9,41.5L320,41.1C319.5,41.5 310.4,41.9 309,42L307.8,41.3L306.9,41.6L306.5,43.1C304.4,44.5 301,46.6 298.3,46.2C297.1,46 296,45.6 294.8,45.4C294.4,45.1 294.3,44.3 294.3,43.9L293.9,43.6C292.9,44.1 291.6,44.1 290.5,44.4C289.3,44.1 287.9,42.7 286.9,42.9C285,43.3 283.5,43.5 281.6,42.8C280.5,42.4 280.5,42 279.9,41.3C277.6,38.6 276.3,36.9 276.2,32.9L277,32C276.4,31.2 276.2,29.6 276.4,28.6L271.7,26C271.1,25.8 266.6,27.8 265.8,28.1C264.3,27.9 263.2,26.3 261.9,26.4C261.1,27.1 257.6,28.8 256.6,28L256.6,27.6L257,27L256.5,26.9C255.6,27.2 254.3,28.1 254.2,29.2L253.5,29.8C251.8,29.9 251,29.1 249.6,28.5C247.3,27.7 247.1,28.2 245.8,25.6L245,25.4C240.6,27.1 241.4,33.3 233,31.5C231.2,31.1 229.9,30.8 228.3,29.9C226.5,29 224.3,28.9 223.3,26.9C222.4,26.3 221.1,26.7 220.1,26.6C219.6,26.5 219.1,26.2 218.7,26.1C217,25.7 214.4,25.9 213.1,24.4C212.2,24.3 210.8,24.8 210,25.2L209.6,24.8L209.6,24.2L211.7,24L212,23.7L211.9,23.4C210.7,23.5 208.4,22.4 207.6,21.5C207.4,21.3 206.9,20.4 206.7,20.2C205.7,19.4 204.4,19 203.4,18.2C203,17.9 202.7,17.4 202.3,17.1C200.7,15.9 198.5,14.6 196.7,13.7L196,12.5L195,12C194.5,12.3 193.9,12.5 193.5,12.9C192.2,14.1 191.6,15.3 189.8,15.9C189.6,16.4 189.5,17.1 189.5,17.6L190.1,18.2C190.2,19.7 189.8,21.8 188.4,22.7L186.7,22.4L185.6,23.5L186.4,24.8L186.9,24.8L187.1,25.4L186.8,26C186.1,26.5 184.1,28 183.3,28C180.2,27.9 180.6,28.7 178,29.3C176.9,28.9 175.9,28.1 174.8,27.6C173.9,27.2 172.8,27.3 171.9,26.9C170.5,26.4 169,25.8 167.7,25.1C166.3,24.4 166,22.2 164.7,21.8L164.9,21.2L163.7,19.5C165.3,18 164.6,17.7 165.2,15.9C165.3,15.4 165.9,15.1 165.8,14.5L165,13.6L165,12.5L166.3,11.5L166.6,10.5L166.3,9.4L165,8.8L164.7,6.6L163,5.9L160.5,2.1C159.7,1.7 159.1,1.4 158.6,1C156.7,1.4 154.5,1.3 153,-0.1C153.1,0.6 152.6,1.6 152.1,2C151.5,1.9 150.2,1.9 149.6,2.3C148.9,3.7 147.7,5 146.6,6L146.5,7.3C146.1,7.9 145.6,8.5 145.1,9.1C145,9.6 145.7,12.6 145.9,13.2C145.3,13.8 144.9,15.3 145.1,16.1L144.7,16.6L145.6,17.7L145.2,17.9L144.2,19.5C143.6,19.5 142.6,21 142.4,21.5L143.3,22.1L143.4,22.8L142.9,22.9L141.9,22.1L141.5,22L141,23L140.3,23.3L139.8,25L139.3,25.3L138.4,24.9L137.6,25.8L137.9,26.5L137.4,27L136.9,26.9L136.4,27.7L135.3,27.4C134.8,27.6 134.7,28.3 134.4,28.6C134.2,28.8 132.1,30.3 132,30.4C129.5,34.2 128.9,33.6 124.5,35.6L123.5,37.9C124.3,38.9 123.7,42.6 123.3,43.7L122.8,44.1L122.3,44.1C121.8,45.2 120.1,49 119,49.6C118.8,50.8 118.7,52.4 118.3,53.6C118.1,54.3 117.4,55 117.1,55.7C116.1,57.9 115.3,60.2 114.4,62.4C114.2,62.9 114.3,64.6 114.4,65.2C114.1,65.7 113.3,67.2 113.3,67.8C115.6,72.6 112.1,74.7 113.9,78L115.7,78.1L116,78.7C115.7,79.2 115.7,80.3 115.9,80.9L115.5,81.6L114,81.8C113.7,82.1 113.7,83.4 113.7,83.8C113.5,86.5 112.7,89.1 112,91.6L112.8,92.5L111.7,94L112.7,94.5C113.3,95 113.2,96 113.3,96.7C113.8,101.6 111.8,107 109.9,111.4C109.2,113.1 107.4,114.4 106.1,115.7C103.5,118.3 102.5,119.5 98.9,118.7L97.5,119.6L97,119.6L96.4,119L95.7,120.7C94.9,121 93.2,121.6 92.3,121.4C92,120.9 91.2,120.4 90.7,120.3L89.4,120.5C88.2,120.4 87.5,118.1 85.4,117.7L85.1,116.9C85.7,116.2 86.2,114.9 86.3,114L86,113.2L86.5,112.1C86.5,111.6 84.7,110.4 84.3,110.1L84.2,111.6L83.5,112.4L81.7,111.6C81,112.1 80.5,113.3 80.9,114.2L79,115.7C78.2,119 76.9,119.8 75.8,122.6C75.6,123.3 75.9,124.3 75.6,125C74.9,127.4 74.2,127.3 75.1,130.2L76.4,131.4L76.4,132.1L75.9,132.9C74.1,135.6 75.2,135 74.5,137.6C74.2,138.7 71.8,142.2 70.8,142.9C70.3,143.2 69.6,143.5 69.1,143.7C67.8,144.4 66.6,146.2 66,147.5L66.1,148.9L65.8,149.4L64.4,149.1C64.3,150.2 62.1,152.6 61.4,153.2C60.7,153.8 59.6,154.1 58.8,154.7C58.5,155 58,155.8 57.7,156.1C57.1,156.6 55.7,157.1 54.6,158.2L54.2,159.3C54.1,161.2 55.9,160.4 54.9,163.4C54.7,163.9 54.3,164.6 53.8,164.8C53.6,165.3 53.8,166.2 54.1,166.6C53.4,167.4 52.6,169.6 51.9,170L51.7,170.7L51,171.2L50.4,171.2C50,171.7 49.9,172.9 50,173.5L48.4,175.1L48,175L47,175.9L46.4,175.8L45.7,175.1L44.8,175.4L44.3,174.8L43.6,174.9C43.1,174.8 42.5,173.6 42.3,173.2L41.6,173.3L41.5,172.5C42,172.4 42.6,171.2 42.7,170.8L41.8,170.6L41.4,170.2L41.7,166.8L41.4,166.6L40.6,167.5L40.3,167.4L40.2,166.3L39.9,166.2L39.2,166.8L38.8,166.3L37.9,166.5L37.4,166L38,164.7C37.8,163.2 36.8,162.6 35.8,161.8L35.3,161.9L35,161.1L33.1,160.6L32.8,159.7L33.6,157.4L34.6,157.3L35.4,157.6L36,157.1C35.4,156.5 34.9,155.4 34.8,154.6L33.9,154.6C33,153.7 33.8,150.3 33.3,148.7L32.5,148.1L31.7,148.2C30.5,147.2 29.9,144.7 30.2,143.3L29.1,142.6L28.1,143.8C27.4,144.2 25.1,145.2 24.3,144.9L22,146.6C21.1,147.9 22.3,149.8 21.7,150.5L22.7,151.8L21.2,152.4L19.2,155.3C15.5,155.5 13.7,158.5 11.3,160.9L10.8,163.2L10.1,163.8L9,164.1C8.7,163.9 5.6,163.8 4.8,163.6C4.4,163.1 2.8,161.2 2.2,161.2L1.6,161.3L1,162.2L1.2,163.2L0,164.7C1.2,164.8 0.7,164.9 1.7,164.5C2.4,164.8 3.2,165.5 3.7,166.1L4,167.3L4.7,167.8L4.8,169.2L6.2,170.2L6.5,170.9L5.9,172L6.2,172.6L5.9,173.4L6.2,174L5.5,174.6L5.6,174.9L6.4,175.1L6.7,176.2L5.8,178L6.4,178.6L7.2,178.7L7.8,178.2L9.1,178L10.2,179.1L11,178.2L11.7,178.9L12.2,179C12.2,178.2 12.7,176.6 13.5,176.2L14.5,175.9C14.3,174.7 16,172.3 16.8,171.5C24.2,172 29.1,172.6 36.1,176L36.8,177.4L37.4,177.4L37.8,178L37.3,178.5L36.8,178.5L36.4,179.3C36.5,179.9 37.5,180.6 38,180.8C38.4,180.7 39.5,180.3 39.8,179.9L39.1,178.7L39.9,178.1L40.4,178.1L41.2,177.7C43,177.5 45.3,178.7 46.8,179.7C47.7,180.3 48,181.4 49.2,181.7L49.7,182.8C50.4,183.2 51.5,183.5 52.3,183.5L53.2,182.5C55,182.6 57.5,182.6 59.2,183.1C59.3,183.1 60.9,184.1 61.1,184.2L61.7,184.2L64.6,181.9C67.2,181.9 69.6,180.3 72.2,180.5L73.8,179.2C74.4,179.2 75.3,179.2 75.9,179.1C76.4,179 76.8,178.5 77.3,178.4C78.9,179.6 81.2,177.9 82.3,178.7L83,179.5C83.3,178.7 84.6,177.5 85.3,177.1L86.3,178.1C88.4,178 90.7,177.7 92.8,177.8C93,177.8 94.1,178.3 94.4,178.4C97.3,178.9 101.1,178.3 103.4,180.6C104.5,180.6 105.1,179.9 105.9,179.8C109.3,179.1 112.7,178.2 116.1,177.5C117,177.3 117.9,177.4 118.8,177.2C119.3,177.1 119.9,176.6 120.5,176.6C121.4,176.4 123.9,177.9 124.2,178.7C125.1,179 126.3,179.1 127,178.3L126.8,177.9L126.4,177.8C126.5,177 126.9,175.2 127.7,174.8C130.7,173 136.1,173.9 139.5,173.8C140.4,173.8 141.1,173.3 142.2,173.5C143.2,173.7 144.1,174 145.1,174.2C146.4,174.4 147.8,174.3 149.1,174.5C151.1,174.9 153.2,176 155,176.8C155.6,177.1 156.1,177 156.6,177.5L160.3,181.9C162.8,184.9 165.5,187.1 168.9,188.8C169.3,189 170.4,189 170.8,189.2C173,190.1 174.9,191.5 177.3,191.9C178.1,192 179.1,191.7 179.9,191.8C180,191.8 183.5,193 183.7,193C184.1,193.2 184.7,193.9 185.1,194.1C186.1,194.7 187.7,195 188.6,195.6C188.7,195.7 190.6,197.9 190.8,198.1L190.6,199.2L189.8,199.8L189.7,200.6C190.3,201.3 192.7,201.8 193.7,202L194.5,203.7L195.6,204L196.1,204.7L196.8,204.8C197.5,203.6 200.2,204.4 201.1,204.7C201.3,205.2 202,205.8 202.4,206.1L202.7,207.3L203.9,207.2L204.3,206.5L204.9,206.2L205.4,206.7L206.3,206.9L207.4,206.2L208.9,207L209.4,208.1C210.3,208.1 211.9,207.7 212.6,207.1C214.3,207.9 215.5,206.3 217.1,206.5C218.2,203.6 221.3,205 222.1,203.5L222.1,202.4C223.2,200.7 225.7,200.8 227.3,200.1L228.4,200.9L230.4,200.6L232.7,202L234,201.9L234.1,201.6C236.5,202.7 237.3,201.9 239.3,202.1C240.1,202.2 240.9,202.7 241.9,202.8C243.2,204.1 244.4,205.2 246,206.2C245.9,206.8 246.6,208.1 247,208.6L246.2,210C246.7,211.7 247.1,213.4 247.6,215.1L247.3,216.6L247.8,218L247.5,218.6C246.4,219.2 244.9,220.4 244.1,221.4C243.6,222 243.7,223 243,223.6C241.8,224.6 240.4,226 239.1,226.8C238.1,227.5 236.6,227.3 235.6,228.3C235.3,229.7 234.7,229.6 234,230.4C233.2,231.4 232.3,232.8 230.9,233.1C229.9,234.4 229.9,236.3 228.8,237.4C229.6,238.1 230.4,239.1 230.7,240.1L232.9,241.3L231.3,243.5C230.3,243.8 229,243.7 228.3,244.5L227.9,244.4L227.4,243.2C226.4,242.9 225,244.7 223.9,244.4L222.6,243.4L221.5,244.2L220.8,243.9L220.3,244.6L220.5,245.2L219.9,246.1L220.2,246.8L219.6,248.5L218.3,249.1L218.4,251.9C218,252.2 217.3,253 217.3,253.5L216,252.9L215.9,253.5L217,254.6C217.4,255.8 218.2,257.9 217.3,259.1L215.4,260.4L215.2,261L216.1,263L217,263.6L215.7,265.3L217.1,267.6L217.8,267.7L218.5,267.2L218.7,268.7L219.5,269.2C220.8,270.9 221.3,274.5 220.3,276.5L221.5,278.8L222,279L222.5,278.2L222.3,277C223,275.6 225.8,274.4 227.3,275.1C228.1,275.4 228.8,276.1 229.6,276.4C231.3,277 233.2,277.4 234.9,277.8C235.3,277.9 235.8,277.8 236.1,277.9C236.4,278 237,278.5 237.2,278.7C239,280.5 241.9,282.7 244,284.1C245.5,285.1 247.8,284.6 248.9,286C249.4,286.2 250.3,285.9 250.7,285.7C252.9,286.6 253.1,285.2 254.7,285.1C255.2,285.1 263.2,286 263.8,286.1C263.9,286.1 264.8,286.7 264.9,286.8C265.4,286.8 266.2,286.2 266.5,285.9L270.5,286.3L270.9,286.6L270.6,287C269.4,287.4 268.1,286.1 266.6,287C267.8,288.2 270.8,287.4 272.1,287.4C274.2,287.4 277.5,288.1 279.6,288.3L285.5,288.8C286.7,288.9 288,288.5 289.2,288.5C289.9,288.5 290.6,288.8 291.3,288.8C292,288.8 292.7,288.7 293.4,288.8C294.8,288.8 304.5,289.3 305.7,288.6L306.4,289C309.1,289.1 311.7,289.5 314.4,289.7C314.9,289.8 315.6,289.6 316.1,289.7C318.5,290.1 321,290.6 323.4,290.8C325,290.9 327,290.7 328.6,290.6C329.3,290.6 329.9,291 330.6,291C334.3,291.1 338.1,291.1 341.8,291.7C344.7,291.1 349.6,293.8 351.4,293.2L351.7,293.6C355.1,293.7 358.2,295.1 361.5,295.7C363.2,296 365,296.2 366.7,296.6C367.4,296.8 368.1,297.3 368.8,297.4C368.9,297.4 369.9,297.2 370,297.2C371.1,298.6 374,298.4 375.6,298.6C376.2,298.7 376.8,299.1 377.5,299.1C382.4,299.7 387.5,299.8 392.5,300.2C394.7,300.4 396.9,300.7 399,300.9C399.6,301 401.3,300.2 401.8,299.9L403.2,300L404.9,301.5C407.2,301.3 407.5,301.9 408.9,302.2C409.9,302.4 411.1,302.2 412.1,302.4C413.5,302.7 415.1,303.6 416.3,304.3C416.5,304.4 417.2,305.8 418,306.2L418,307.7L418.6,308L419.6,307C420.6,306.8 421.1,307.6 421.9,307.8C422.6,308 423.6,307.8 424.3,308.1C425.4,308.5 426.5,309.3 427.5,309.8C428.7,310.4 430,310.2 431.2,310.6C432.4,311 433.6,311.8 434.8,312.3C436.2,312.9 438,313.1 439.5,313.4L441.3,315.3L441.9,315.4C442.8,315.8 443.8,317 443.9,318C446.5,319.9 449.6,320.6 452.1,322.8C452.9,323.5 454.4,325.3 454.9,326.3C455.3,327.1 455,328.1 455.9,328.8L455.3,329.7L456.7,331.3C458.2,331.3 464.6,330.8 465.6,331.7L466.9,331.4L467.6,332.2C468.7,332.5 474.5,334.1 475.2,333.7C475.9,334.4 476.8,334.7 477.7,334.7L478.5,335.9C480.2,336.1 481.3,337.1 482.7,338C482.8,338.8 483.1,339.7 483.2,340.5C483.3,341.3 482.7,342.1 483.3,342.9L484.9,344L485.6,343.4C486.4,344.3 488.2,344.9 489.3,344.9L490.3,344C491.7,344.3 493.3,344.4 494.6,344.2L496.2,343.2L496.8,341.9L497.4,342.7C498.6,343.2 500.1,343.1 501.2,342.4C501.9,342.5 502.8,343 503.3,343.5C505.4,343.4 506.4,344.1 508.2,344.4C509.3,344.6 510.5,344.6 511.6,344.7C511.6,344.7 512.2,345.1 512.3,345.2L513.1,344.9C514.6,345.6 516.3,346.6 517.9,347C518.1,347.1 519.2,347 519.6,347.1C521.2,347.4 523.1,348.8 524.3,349.8L527.1,349.8L527.8,350.3C531.8,350.2 534.2,351.4 538,352.4C538.9,352.7 540,353.1 541,353.2C542.7,353.5 544.6,353.3 546.3,353.6C547.2,353.8 548.2,354.4 549.1,354.6C550.6,354.9 552.2,354.7 553.7,354.9C554.7,355 555.7,355.3 556.7,355.5C557.2,355.6 557.7,355.5 558.2,355.5C559,355.6 561.1,356.5 561.5,356.5C562.2,356.6 565.5,356.7 565.8,357.3L566.4,357.2L567.1,357.9C568.6,357.9 570.4,357.7 572,357.8C573.2,357.9 574.5,358.7 575.8,358.7C577,358.8 578,357.6 579.3,358.4C581,357.5 585.3,357.9 587.1,358.2C588.5,358.4 589.8,359.1 591.2,359C592.2,358.9 593.3,358.8 594.3,358.6L595.6,357.1C596,357.4 599,356.6 599.6,356.4C600.4,355 601.5,355 602.7,354.3C604,353.5 603.8,352 604.9,351.4C604.7,350.5 605.4,348.1 605.6,347.3C605.5,346.4 604.7,345.1 603.9,344.7C603.9,344 604.5,342.9 605,342.3L604.2,341.1C604,341.1 603.5,340.8 603.4,340.6L603.7,340.2L603.7,339.1L604.3,339.1L604.8,340.4L605.3,340.6L605.6,338.8C608.3,336.2 614.2,334.4 617.8,334.2L618.3,334.5L619.1,334.4L619.7,333.7C621.6,332.9 621.5,333.6 623.1,333.9C623.8,334.1 624.9,334.2 625.7,334.2C626,334.2 626.6,334 626.9,334C627.9,334.1 629.4,334.3 630.4,334.5C631,334.7 631.2,335.5 632.6,335.3L633.1,335.7C633.3,336.4 633.2,336.9 633,337.6C632.6,337.8 631.9,338.5 631.8,339L632,340.1L632.7,340.6L633,340.5C634,340.8 635.2,341.6 635.9,342.4L636.6,342.1L636.8,341.2L637.2,341L637.4,340.5L637.3,339.6C636.9,338.8 635.1,337.9 634.4,337.6L634.1,336.9L634.2,336.4L636.6,333.6C638,333.1 639.7,332.5 641.2,332.5C642,333.2 643.3,332.7 644.2,332.9C645.7,333.2 646.3,334 648.6,333.9C649.8,335.2 651.3,335 652.6,336.1L653.3,336.1L653.9,335.3L654.3,335.6L655,335.3L655.2,334.1L657,333.1L657.5,333.4L658.3,334.7L658.9,334C658.6,333.6 658,332.6 658.1,332.1L658.4,331.6L659.4,331C659.9,331 660.7,331.8 660.9,332.1L661.4,331.7L660.6,330.6L660.6,330L661.3,328.9L661.1,328.1L661.3,327.8L661.7,327.9L662.3,327.5C662.8,326.5 664.1,323.7 664,322.6C664.5,323 664.8,324.4 664.7,325L665.4,325.1C665.3,324.1 665.5,322.8 666,322C666.7,322.5 668.4,322.3 669.2,322.1L669.5,322.4L670.4,322.4L670.8,322.1L671.4,320.5C671.7,320.5 672.5,320.5 672.7,320.7L673.3,320.4L673.5,320L673.8,320.2L672.6,323.4C673,324 673,326 673,326.7L673.9,327.9C673.6,330.4 674.4,333 675.2,335.3L676.6,335.8C676.6,336.2 676.7,336.9 677,337.2L678.6,337.5L679.4,338.3C680.5,338.7 682.5,338.6 683.6,338L685.8,340.5L688.5,340.3L688.8,339.9L688.6,338.8C689,338.8 689.6,339.4 689.8,339.7L690.1,339.2L689.9,338.2L690.3,337.8C691.7,339.8 697.4,346.6 700.1,346.7L700.6,346.1C700.2,343.9 702.8,342.4 702.9,340.3C706.4,337.2 707.9,336 712.7,336.2L713.6,335.3C716.2,334.8 718.9,334.8 721.5,335C723.3,335.2 726.2,336.1 727.9,335L728.4,335.5C733.2,336.5 738.1,335.9 742.9,336.4C747.5,336.9 752.1,338.6 756.7,339.1C758.2,339.3 759.9,339.1 761.4,339.1L762,339.1L762,340C763.1,340.6 766.8,341.4 767.9,340.9L769,341.6L769,342.2L768.2,343.6C768.6,344.6 767.5,345.6 767.9,346.8C768.3,347.5 769.2,347.5 769.7,347.9C770.5,348.5 770.5,349.1 772.2,349.7L772.7,351.4L773.9,350.7L774.8,350.7L775.5,351.3L776.6,351.4L777.1,351.1L777.5,349.9L778.4,350.1C779.1,349.6 780.7,350.2 782.1,349.4L783.2,348C783.3,348.1 784,348.4 784.1,348.4C789.7,349 795.4,349.4 800.9,350.3C802.4,350.6 804.4,351.5 805.9,352C806,352 806.2,352.1 806.3,352.1C807.1,352.1 808,352 808.7,352.2C809.3,352.3 809.9,352.7 810.4,352.8C811.4,353 812.5,352.9 813.5,353C814.1,352.4 814.7,351.1 814.8,350.2L815.1,351.2L814.6,352.9L814.9,353.6C815,353.7 815.4,353.8 815.6,353.9C817.6,354.2 819.6,354.3 821.6,354.7C822.6,354.9 823.7,355.4 824.7,355.7C826.5,356.1 828.4,356.4 830.2,356.8C833.3,357.5 836.3,358.5 839.3,359.2C841.5,359.7 843.8,360 846,360.4C846.1,360.4 846.9,360.8 847,360.9L848.6,360.2L848.9,361.1C852.4,363.5 857.2,362.6 860.9,364.4L860.7,362.8L861.4,362C861.9,364.1 862.6,365.2 864.9,366C868.3,367.2 871.9,368.3 875.3,369.5C878.2,370.6 881.1,372.5 884,373.5C884.8,373.8 885.9,373.6 886.6,373.9C887.6,374.3 888.5,375.2 889.4,375.6C889.6,375.7 890.8,375.6 891,375.7C892.1,376.1 892.7,376.8 893.7,377.3C894.1,377.5 894.6,377.6 895,377.8C896.2,378.4 897.5,379 898.7,379.6L899,379.7C901,380.5 909.4,384.6 911.5,384.5C912,385.6 917.3,388.7 918.6,389.6C918.6,389.6 921.3,388.7 920.2,390L920.4,390.4C921.8,391.5 923.5,391.2 925,391.8C925.9,392.2 926.2,393.2 927.3,393.4C927.9,393.5 928.6,393.4 929.2,393.6C930.1,393.9 930.9,394.5 931.7,394.8C933.2,395.3 935,395.3 936.5,395.8C937.6,396.2 943.7,398.3 944.6,399.2C944.7,399.4 945.4,401.8 945.5,401.9C945.7,402.3 946,402.4 946.3,402.7C947.5,403.8 948.5,405.1 949.6,406.2C949.7,406.3 950.3,406.6 950.5,406.7L951.9,406.6C952.1,406.7 953.2,407.4 953.4,407.4C953.7,407.5 955.2,407.6 955.4,407.6C956.6,408.1 961.2,410.3 961.5,411.7L964.4,412C964.7,412.3 965.9,413.4 966.4,413.4C966.7,413.4 969.2,413.4 969.3,413.4C969.6,413.5 971.5,414.6 971.9,414.8C972.5,415.1 973.4,415 974,415.2C975,415.6 977.3,417 978,417.2C978.5,417.3 981.2,417.6 981.8,417.3C984,418.8 986.6,417.7 989.3,420.5C993.3,419.7 998.4,425 1000.2,424.5L1001.1,425.3C1003.2,425 1006.2,428.6 1011.3,427.8L1011.2,429.4L1010.6,430.2L1011.1,430.5C1011.9,429.9 1013.1,430.2 1014.1,430.2L1015.4,429.2C1016.3,429 1017,429.5 1017.8,429.7C1018.7,429.9 1019.2,429.4 1019.9,429.4C1021.3,429.3 1023.6,430.1 1024.8,429.8C1024.9,429.8 1027,428.8 1027.2,428.6L1027.6,428.9L1027.3,429.5L1027.7,430.1C1029.5,430.1 1031,430.6 1032.7,431.1C1034.3,431.7 1035,431 1035.7,431.1C1037.3,431.3 1039.1,431.4 1040.7,431.7C1041.5,431.8 1042.3,432.3 1043.1,432.5C1044,432.7 1044.6,432.2 1045.7,433C1046.3,432.6 1047.5,432.4 1048.2,432.6C1048.3,432.7 1048.4,432.7 1048.4,432.8C1047.4,430.7 1046.6,428.9 1046.7,428.2C1045.4,426.5 1046.2,423 1047.3,422" style="fill:white;fill-opacity:0.298039;fill-rule:nonzero;"/>
            <path id="Page-1" d="M410,233.8C409.7,232.9 410.1,231.5 410.5,230.7C411,229.7 411.7,229.5 412.4,228.9C412.8,228.5 413.1,227.8 413.4,227.3C414.4,225.9 415.7,224.2 417,223.2C418.1,222.3 421,221.5 421.7,220.3C423.5,217.4 422.1,212.2 426,210.7C427.3,210.2 430.3,210.8 431.8,210.8C434.5,210.9 438.1,210.4 440.7,209.6C441.3,209.4 443.2,208.1 443.7,207.6C444.8,206.6 446.2,205.2 445.8,203.5L445.3,202.7C443.7,202.6 442.3,202.3 440.7,202.6C439.5,202.9 438,203.7 436.8,203.7C436,203.7 435.6,203.2 434.9,203.1C434.5,203 434,203.1 433.6,203.1C432.1,203 429.9,202.4 428.7,201.5C427.9,201 427.4,199.9 426.8,199.2C426,198.4 425.1,197.8 424.4,197C421.6,193.8 421.8,193.6 417.8,191.9C417.1,191.6 416.3,190.9 415.6,190.7C414.5,190.5 413.3,190.9 412.2,191C411.4,191.1 410.5,190.9 409.7,190.9C405.6,190.9 400.5,192.1 397.3,188.7C397.2,188.6 397,188.1 396.9,187.9C395.8,186.4 394.4,185.1 394.1,183.1C394,182.1 394,180.8 393.7,179.9C393.3,178.8 390.4,176.9 389.6,175.2C388.6,173.2 389.2,170.9 388.3,168.9C386.7,165.3 382.9,165.5 385.1,160.5C385,158.5 383.2,159.5 384.5,155.7C385.5,154.5 388.2,155.6 389.7,154.6C390.5,153.4 390.1,152.3 391.4,151C392.5,149.8 397.4,149.7 396.3,146.1C395.5,143.7 389.4,142.8 387.9,140.8C387.6,140.3 387.6,139.8 387.4,139.3" style="fill:none;stroke:rgb(220,220,220);stroke-width:1px;"/>
            <path id="Fill-3" d="M389,115.4C387.1,115.5 386.8,116.5 387.9,117.3C389.1,118.1 390.2,119.5 389.7,120.2C389.2,120.9 388.9,121.7 387.4,121.1C385.9,120.5 385.3,121.5 384.6,122.3C383.9,123.1 382.7,125.2 382.9,125.7C383.1,126.2 383.5,132.4 383.4,133.8C383.3,135.1 382.7,136.5 382.6,137C382.4,137.5 382.8,140.2 383,141.1C383.2,142 385.1,142.7 385.7,142.7C386.4,142.7 388.5,142.3 387.6,140C386.7,137.7 385.4,134.9 386,133.9C386.7,133 387.5,130.8 387.2,129.7C387,128.6 385,127.4 387.4,127.2C389.9,127 389.9,125.7 390.6,125C391.3,124.3 392.1,124.2 393.9,125.3C395.7,126.4 396.9,128.4 397.5,127.4C398.1,126.4 397.7,125.7 399.5,125.8C401.3,126 402.1,125.4 401.7,127C401.4,128.7 400.3,129.8 402.9,130.2C405.5,130.6 405,126.2 404.1,125.1C403.3,124 402.5,121 401.9,120.8C401.2,120.6 398.3,119.5 398.2,119.2C398.1,118.9 393.5,116.5 392.8,115.9C392.3,115.3 390.9,115.3 389,115.4" style="fill:rgb(220,220,220);fill-rule:nonzero;"/>
            <path id="Stroke-5" d="M389,115.4C387.1,115.5 386.8,116.5 387.9,117.3C389.1,118.1 390.2,119.5 389.7,120.2C389.2,120.9 388.9,121.7 387.4,121.1C385.9,120.5 385.3,121.5 384.6,122.3C383.9,123.1 382.7,125.2 382.9,125.7C383.1,126.2 383.5,132.4 383.4,133.8C383.3,135.1 382.7,136.5 382.6,137C382.4,137.5 382.8,140.2 383,141.1C383.2,142 385.1,142.7 385.7,142.7C386.4,142.7 388.5,142.3 387.6,140C386.7,137.7 385.4,134.9 386,133.9C386.7,133 387.5,130.8 387.2,129.7C387,128.6 385,127.4 387.4,127.2C389.9,127 389.9,125.7 390.6,125C391.3,124.3 392.1,124.2 393.9,125.3C395.7,126.4 396.9,128.4 397.5,127.4C398.1,126.4 397.7,125.7 399.5,125.8C401.3,126 402.1,125.4 401.7,127C401.4,128.7 400.3,129.8 402.9,130.2C405.5,130.6 405,126.2 404.1,125.1C403.3,124 402.5,121 401.9,120.8C401.2,120.6 398.3,119.5 398.2,119.2C398.1,118.9 393.5,116.5 392.8,115.9C392.3,115.3 390.9,115.3 389,115.4Z" style="fill:none;stroke:rgb(220,220,220);stroke-width:1px;"/>
            <path id="Stroke-7" d="M1035.1,255.8C1035.9,255.3 1036.6,254.6 1036.8,253.7C1037,252.8 1037,251.4 1037,250.4C1037,249.2 1037.5,247.9 1037.3,246.7L1036.6,246.1C1036.1,244.6 1036.6,242.9 1036.5,241.4C1036.3,239 1035.6,237.4 1036.6,234.7C1037.1,233.3 1038.5,231.7 1038.5,230.2C1038.7,226.2 1035.9,222.8 1035.8,220.1C1035.7,217.3 1037.4,217.5 1035.9,214C1034,213 1031.9,213.3 1029.9,212.6C1028.7,212.2 1027.7,211.2 1026.4,211C1025,210.7 1023.2,211 1022,210.2L1021.7,209.1C1022.7,206.7 1021.4,203.7 1022.5,201.3C1022.8,200.7 1023.3,200.4 1023.7,199.9C1024.2,199.2 1025.6,196.5 1025.7,195.6C1024.7,192.3 1021.6,192.9 1020.2,190.7L1020,190C1019.8,189.5 1019.9,189.1 1019.8,188.6C1019.6,188 1019.2,187.4 1019,186.8C1018,185.6 1014.7,186.1 1013,185.3C1011.7,184.6 1010.7,183.3 1009.4,182.6C1007.6,181.5 1005.5,180.3 1003.9,178.9C1003.1,178.1 1002.6,176.9 1001.7,176.2C1000.6,175.3 998.2,175.1 996.8,174.7C995.8,174.4 994.4,173.5 993.5,172.9C991.5,171.5 990.9,169 988.3,167.9" style="fill:none;stroke:rgb(220,220,220);stroke-width:1.42px;"/>
            <path id="Stroke-9" d="M969.6,290.5C970.1,289.5 971.5,288.5 972.4,287.8C973.3,287.1 973.9,285.9 975,285.4C977.1,284.5 979.5,285.7 981.6,285.1C983.4,284.6 984.4,282.7 986.2,282C988.6,281 991.7,281.2 993.6,279.3C994.3,276.7 994.5,276 996.7,274.7C997.9,272.9 998.2,270.5 999.5,268.8C1001.5,266.3 1004.2,266.6 1006.6,265.3C1008.6,264.2 1010.1,262.2 1012.6,262.2C1012.6,262.2 1015.6,262.3 1016.4,263.6" style="fill:none;stroke:rgb(220,220,220);stroke-width:1px;"/>
            <path id="Fill-11" d="M1015.5,263.9C1015.5,263.9 1017.4,263.1 1018.4,263.1C1019.4,263.1 1020.3,262 1020.5,261.3C1020.7,260.6 1021.8,259.8 1020.6,260.2C1019.4,260.6 1019,260.2 1018.8,259.5C1018.6,258.8 1018.5,258.3 1019.4,258.1C1020.3,257.9 1022,256.1 1022.6,256.1C1023.2,256.1 1024.2,256.3 1024.8,256.3C1025.5,256.3 1026.7,256.1 1027.4,255.6C1028.1,255.1 1030.4,254.5 1031.4,254.6C1032.4,254.7 1032.9,254.5 1033.4,254.7C1034,254.9 1035,254.9 1035.6,256.4C1036.2,257.9 1037.2,257.9 1037.2,258.5C1037.2,259.1 1037.8,260.3 1036.3,259.6C1034.8,258.9 1033.8,259.2 1034.5,259.9C1035.2,260.6 1035.6,261.1 1035.9,261.8C1036.2,262.5 1036.7,263.3 1036.6,264.4C1036.5,265.6 1036.5,266.1 1037.3,266.1C1038.1,266.1 1038.8,265.9 1038.8,266.6C1038.8,267.3 1038.6,268.1 1038,268.7C1037.4,269.3 1035.5,270.6 1035.5,271C1035.5,271.5 1035,272.1 1034.6,272.5C1034.2,272.9 1032.9,273.8 1033.1,272.9C1033.4,272 1033.7,271.2 1033.1,271C1032.5,270.8 1032.1,271.5 1031.1,270.7C1030,269.9 1029.1,268.9 1030,268.8C1030.9,268.7 1031.8,268.5 1032.4,268.3C1033,268.1 1034.1,267 1033.1,267C1032.1,267 1030.6,267.6 1029.8,267C1029,266.4 1026.1,265.6 1026.9,264.9C1027.7,264.2 1028.1,264.1 1028,263.3C1027.9,262.5 1027.3,262 1027.9,261.2C1028.5,260.4 1028.6,259.7 1027.5,259.5C1026.4,259.3 1025.4,259.6 1025.8,260.6C1026.2,261.6 1025.5,262.5 1025.5,262.9C1025.5,263.3 1025.7,264.1 1024.9,264.1C1024.1,264.1 1023.7,264.3 1023.7,264.8C1023.7,265.3 1023.7,267.2 1023.1,267.2C1022.5,267.2 1022.5,267.5 1021.7,266.9C1020.9,266.3 1020.3,266.3 1019.8,266.4C1019.2,266.5 1016.6,267.1 1016,266.1C1015.4,265.1 1015.5,264.9 1014.6,264.7C1013.7,264.5 1013,264 1013.8,263.8C1014.8,263.8 1015.5,263.9 1015.5,263.9" style="fill:rgb(220,220,220);fill-rule:nonzero;"/>
            <path id="Stroke-13" d="M1015.5,263.9C1015.5,263.9 1017.4,263.1 1018.4,263.1C1019.4,263.1 1020.3,262 1020.5,261.3C1020.7,260.6 1021.8,259.8 1020.6,260.2C1019.4,260.6 1019,260.2 1018.8,259.5C1018.6,258.8 1018.5,258.3 1019.4,258.1C1020.3,257.9 1022,256.1 1022.6,256.1C1023.2,256.1 1024.2,256.3 1024.8,256.3C1025.5,256.3 1026.7,256.1 1027.4,255.6C1028.1,255.1 1030.4,254.5 1031.4,254.6C1032.4,254.7 1032.9,254.5 1033.4,254.7C1034,254.9 1035,254.9 1035.6,256.4C1036.2,257.9 1037.2,257.9 1037.2,258.5C1037.2,259.1 1037.8,260.3 1036.3,259.6C1034.8,258.9 1033.8,259.2 1034.5,259.9C1035.2,260.6 1035.6,261.1 1035.9,261.8C1036.2,262.5 1036.7,263.3 1036.6,264.4C1036.5,265.6 1036.5,266.1 1037.3,266.1C1038.1,266.1 1038.8,265.9 1038.8,266.6C1038.8,267.3 1038.6,268.1 1038,268.7C1037.4,269.3 1035.5,270.6 1035.5,271C1035.5,271.5 1035,272.1 1034.6,272.5C1034.2,272.9 1032.9,273.8 1033.1,272.9C1033.4,272 1033.7,271.2 1033.1,271C1032.5,270.8 1032.1,271.5 1031.1,270.7C1030,269.9 1029.1,268.9 1030,268.8C1030.9,268.7 1031.8,268.5 1032.4,268.3C1033,268.1 1034.1,267 1033.1,267C1032.1,267 1030.6,267.6 1029.8,267C1029,266.4 1026.1,265.6 1026.9,264.9C1027.7,264.2 1028.1,264.1 1028,263.3C1027.9,262.5 1027.3,262 1027.9,261.2C1028.5,260.4 1028.6,259.7 1027.5,259.5C1026.4,259.3 1025.4,259.6 1025.8,260.6C1026.2,261.6 1025.5,262.5 1025.5,262.9C1025.5,263.3 1025.7,264.1 1024.9,264.1C1024.1,264.1 1023.7,264.3 1023.7,264.8C1023.7,265.3 1023.7,267.2 1023.1,267.2C1022.5,267.2 1022.5,267.5 1021.7,266.9C1020.9,266.3 1020.3,266.3 1019.8,266.4C1019.2,266.5 1016.6,267.1 1016,266.1C1015.4,265.1 1015.5,264.9 1014.6,264.7C1013.7,264.5 1013,264 1013.8,263.8C1014.8,263.8 1015.5,263.9 1015.5,263.9Z" style="fill:none;stroke:rgb(220,220,220);stroke-width:1px;"/>
            <path id="Stroke-17" d="M1047.3,422C1048.5,421 1048.5,416.1 1049.2,415.3C1050,414.5 1053.5,410.2 1054,409.4C1054.6,408.6 1055.6,407 1057.1,407.8C1058.7,408.6 1063.3,410 1064.7,410C1066.1,410 1069.9,409.8 1069.9,409.8C1069.9,409.8 1074.2,407.1 1074.7,406.3C1075.3,405.5 1078,403.2 1078.8,405.3C1079.6,407.5 1081.9,406.9 1083.5,406.9C1085.1,406.9 1086,405.9 1086,404.7C1086,403.5 1086.6,401.6 1087.9,401C1089.3,400.4 1088.9,397.7 1088.3,396.1C1087.7,394.5 1086,390.2 1087.3,388.9C1088.7,387.5 1089.6,385.2 1089.6,384C1089.6,382.8 1090,379.7 1092.1,379.5C1094.2,379.3 1096,377.1 1096.9,379.9C1097.9,382.6 1098.5,383.2 1099.6,383C1100.8,382.8 1103.5,382 1104.1,383C1104.7,384 1106.8,384.6 1107.6,384.6C1108.4,384.6 1109.9,384 1111.3,383.2C1112.7,382.4 1115,379.9 1115.6,378.3C1116.2,376.7 1119.3,368.9 1119.7,368.1C1120.1,367.3 1120.1,365.7 1119.1,364.4C1118.1,363 1118.1,360.9 1117.9,359.9C1117.7,358.9 1115.6,356.6 1115.6,355.8C1115.6,355 1115.8,350.1 1115.8,349.1C1115.8,348.1 1114.6,346.7 1113.5,346.7C1112.3,346.7 1111,347.1 1109,347.1C1107.1,347.1 1107.1,348.5 1105.7,346.7C1104.3,344.9 1102,343.4 1100.3,342.4C1098.6,341.4 1097.4,341.2 1097.8,339.1C1098.2,336.9 1099.2,335.4 1098.4,334C1097.6,332.6 1098.4,326.4 1098.8,325C1099.2,323.6 1098.8,321.1 1098,320.3C1097.2,319.5 1092.2,317 1092,314C1091.8,311 1091.2,304.2 1091.2,303.2C1091.2,302.2 1091.4,300.3 1090.8,299.5C1090.2,298.7 1089.8,297.5 1089.8,296.4C1089.8,295.2 1088.8,294 1087.9,292.9C1086.9,291.7 1086.5,289.6 1086.5,288.8C1086.5,288 1086.3,286.6 1087.3,285.1C1088.3,283.5 1089.4,280.4 1089.4,280.4C1089.4,280.4 1090.4,276.1 1090.2,274.9C1090,273.7 1090,269.2 1090,269.2C1090,269.2 1091.6,266.8 1090,265.7C1088.4,264.5 1088.4,262.6 1089,261.8C1089.6,261 1092.3,257.1 1094,257.3C1095.7,257.5 1098.7,256.9 1098.7,256.9C1098.7,256.9 1099.7,256.3 1099.9,255.5C1100.1,254.7 1101.8,253.5 1103.4,256.5C1105,259.4 1107.1,261 1107.1,261C1107.1,261 1109.8,262.4 1111.4,262.4C1113,262.4 1115.7,263.2 1117,264.4C1118.4,265.6 1127.9,270.1 1130.2,271.1C1132.5,272.1 1134.5,272.7 1136.4,272.5C1138.3,272.3 1138.5,271.5 1140.1,273.3C1141.7,275.1 1144,277 1145.1,277.2C1146.3,277.4 1147.6,275.9 1147.6,275.9L1150.2,275.8C1150.1,274.1 1149.7,272.2 1148.5,270.9C1150.3,268.2 1149.5,264.8 1145.9,264.6C1146.3,263.9 1146.7,263.2 1146.8,262.6C1147.3,261.8 1147.8,260.9 1148,260C1148.9,260.1 1149.8,259.9 1150.6,259.4C1152.7,260.7 1154.1,259.7 1155.1,257.2C1156.3,256.9 1157.4,256.2 1158.5,255.7C1159.3,255.5 1160.5,255 1161.1,254.7C1161.8,254.4 1162.4,254.1 1162.4,254.1C1163.8,253.2 1165,251.8 1165.6,250.2C1167.7,250.6 1170.6,249.3 1170.5,246.7C1173.2,246.2 1174.7,244 1173.7,241.2C1174,240.9 1174.3,240.5 1174.5,240.2C1175.8,241 1177.4,241.2 1178.8,240.3C1180.8,244 1183.8,243.2 1186.7,240.8C1189.4,241.1 1192.7,239 1191.9,236C1192.6,236 1193,235.9 1193,235.9L1192.6,233.3C1192.6,233.3 1193.4,230.9 1193.2,229.6C1193,228.2 1192,226.5 1192,226.5C1192,226.5 1190.3,220.8 1189.3,220C1188.3,219.2 1184.8,218.6 1184.5,217.5C1184.1,216.3 1182.9,211.2 1182.9,211.2C1182.9,211.2 1181.2,210.4 1180.2,210.4C1179.2,210.4 1176.3,209.2 1176.3,209.2C1176.3,209.2 1178.2,206.1 1177.1,204.9C1175.9,203.7 1170.9,202.7 1169.9,202C1168.9,201.2 1168.2,200 1168.9,198.5C1169.7,196.9 1167.5,194.4 1170.6,194.2C1173.7,194 1174.9,193.4 1175.1,191.8C1175.3,190.2 1176.3,188.9 1176.5,188.1C1176.7,187.3 1175.5,184.4 1175.7,183.2C1175.9,182 1176.5,180.8 1176.5,179.5C1176.5,178.1 1177.3,176.2 1179.2,177.3C1181.1,178.5 1183.5,178.1 1184,177.3C1184.6,176.5 1186.7,174.2 1185.6,172.4C1184.4,170.6 1184.2,169.9 1184.6,168.7C1185,167.5 1185.8,165.2 1187.3,166.9C1188.9,168.7 1189.6,167.9 1189.8,166.7C1189.9,166.3 1190.2,165 1190.7,163.4C1189.4,162.7 1188.2,161.9 1186.9,161.2C1184.7,159.8 1183.1,157.4 1181.2,155.6C1179.9,154.4 1178.5,153.5 1177.2,152.3C1174.5,149.9 1171.9,147.2 1169.1,144.8C1167.9,143.8 1166.4,142.8 1165.1,141.9C1165,141.8 1164.2,141.3 1164.2,141.3C1162.3,140.8 1158.6,139.1 1156.7,140.3C1155.6,140 1152.9,137.9 1152.1,138.2L1151.2,139.3L1150.2,139.2L1149.5,139.7L1148.9,141.5L1147.4,142.3C1147.2,143.4 1146.6,146.9 1146.1,147.7C1145.8,148 1144.9,148.6 1144.4,148.5L1144,148.3C1142.8,149 1141.8,150 1140.6,150.6L1139.7,150.5L1139.2,150L1137.9,150.6L1137.4,151.8C1136,151.7 1131.5,153.2 1130.8,154.3L1130.1,153.8C1127.8,154.4 1124.9,153.5 1122.6,153.1C1122.4,153.1 1121.9,153.2 1121.8,153.1C1119.6,152.3 1117.8,152 1116.3,150.2C1115,150 1113.8,151 1112.5,151L1110.7,150.1C1109.9,150.4 1109.1,150.8 1108.3,151C1108.1,151.1 1107.6,151 1107.5,151C1106.9,151.3 1106.3,151.9 1105.6,152.2C1104,152.8 1097.9,153.6 1096.5,152.8C1096.4,152.7 1095.3,151.7 1095.1,151.5L1094.7,153.6L1093.8,153.8L1093.4,151.4L1094.7,149.9C1094.6,149.6 1094.5,149.3 1094.4,149L1095,147.8L1094.4,147.1C1094.4,148.3 1092.1,149.3 1091.2,149.5L1091.1,150L1091.4,150.6L1089.8,151.1C1089.3,150.9 1088.1,150.3 1087.8,150C1087,149.1 1083.4,145.1 1083.6,144C1082.8,143.4 1080.2,139.5 1080.1,138.5L1081.7,136.9L1081.4,136.4L1079.6,137.7C1079.2,136.9 1078.8,135.9 1078.6,135C1078.8,134.5 1079.5,133.9 1079.9,133.7L1078.4,134L1077.9,132.7L1079.4,132.4L1079,131.6L1077.9,131.9C1077.6,131.8 1077,131.3 1076.8,131L1076.9,130.1C1076.5,129.7 1076.3,128.7 1076.3,128.2L1076.9,127.7L1076.8,127.2L1075.5,127.6C1075.2,126.5 1075.1,125.2 1075.1,124.1L1075.6,123.8C1074.7,121.6 1074.1,119.2 1073.5,116.9L1072.9,116.9L1072,115.9C1072,115.5 1072.1,114.1 1072.5,113.9L1072.1,113.7C1072.1,113.1 1071.7,112.2 1071.2,111.9L1071,109.8L1072.1,109.9C1072,109.7 1071.7,107.9 1071.6,107.8C1071.5,107.6 1069.3,104.8 1069,104.6L1067.5,104.4C1067.4,104.1 1066.5,103.5 1066.2,103.3C1065.6,103.5 1064,102.8 1063.5,102.5L1065.8,101.5L1066.1,100.7L1064.1,100.5L1063.9,101.5C1062.6,101.5 1061.3,101.5 1060,101.4C1059,101.3 1058.1,100.9 1057,101L1055.6,101C1054.6,100.7 1053.5,99.8 1052.6,99.4C1050.6,98.6 1048.5,97.9 1046.5,97.1C1037.8,100.7 1036.4,94.5 1028.4,101.8C1025.8,101 1022.6,101.7 1020.2,102.8C1019.3,103.2 1018.4,104.2 1017.5,104.8C1016.3,104.4 1014.1,104.4 1013,104.9L1011.2,105.8C1009.3,106.9 1010.1,109.9 1009.2,110.6C1007.5,111.8 1005.6,112.3 1005.2,114.7L1003.3,114.3L1002.5,115L1001.7,115.1L1001.2,115.6C1001.2,116.5 1001,116.9 1001.5,117.7L1004.2,117.7L1004.5,118.1C1004.4,119.6 1003.8,121.7 1002.3,122.4L1001.5,121.7L1001,121.7C1001,122.2 1000.6,123.6 1000.1,123.9L999.1,123.8L999.1,125.2L998.8,125.5L997.5,125.5L997.4,126C998.9,126.9 1000.4,128.1 1000.6,130C1000.6,130.4 1000.3,131 1000,131.3C999.5,131.6 998.2,131.3 997.7,131.2L997.4,131.7L999.3,134.3C998.9,135.8 998.3,137.2 996.6,137.3C996,138 996.6,140.7 997,141.5L996.7,142.1C997.8,144.3 996.4,145.6 995.8,147.5C995.4,148.9 995.2,150.4 994.7,151.8C994.1,153.6 991.5,156.2 992.8,158.4L992.1,159.6L992.6,161.1L992.3,161.6L991.2,161.5L990.5,161.9C988.9,162.1 988.2,160.3 986,161.5C985.5,161.3 983.9,160.6 983.4,160.7L982.5,161.3L982.3,161.9L982.6,162.5C983.2,162.5 983.8,162.5 984.4,162.4C985.9,162.9 988.1,163.2 988.5,164.9C988,166.1 988.9,166.9 988.6,167.9L987,167.1L987.4,165.9L987,165.2L987.3,164.6L986.5,164.1L986.1,164.6L984.9,164.8C984.9,165.7 985.2,166.8 985.5,167.7L986.2,168.1L986.4,168.7C986,169.6 985.4,170.5 985,171.4C984.9,171.6 984.9,172.3 984.8,172.5C984.1,173.9 982.6,174.7 982.3,176.5C982,176.8 981.4,177.3 981,177.2L980.1,180.2L976.6,178L976.2,179C977.2,179.2 978.7,180.1 979.3,180.9L978.4,182.1L976.7,182.5L977,183.4L976.5,184.5L975.5,184.9L975.2,185.3L974.7,185.1L974.1,185.2L973,187.8L972.2,187.7L971.7,187.2L971.4,187.6L972.9,189.9L972.8,190.3C972,190.1 971,190 970.2,190.1C969.6,190.4 969,191.2 968.7,191.8L968.7,193.5C968.3,193.8 967.6,194.5 967.5,195L967.7,195.8L967.4,196.4L966.1,196.5C965.9,197.3 963.1,199.5 962.3,200.3L961.2,200.4L959.4,199.3L959.1,199.9L957,199.5L956.3,200L955.7,199.5L955.2,199.7L953.9,201.8L952.4,201.6L952.4,202.1C951.5,202.2 950.4,203.2 949.9,203.9L948.2,203.5C948.2,203.5 944.4,202.2 942.5,201.6C940.6,201 940.6,200 939.2,198.9C937.8,197.7 935.3,196.7 935.3,196.7C935.3,196.7 934.9,196.4 934.4,196.1L934.7,195.7L934.1,195.2C934,195.3 933.9,195.5 933.7,195.6C932.8,195.1 931.8,194.6 931,194.5C929.4,194.3 928.5,193.3 927.1,193.3C925.7,193.3 923.8,190.9 922.8,190C921.8,189 921.1,186.3 920.7,185.1C920.3,183.9 916.2,183.1 914.5,183.1C912.8,183.1 912.5,182.4 912.5,182.4C912.1,182 910.3,182 909.7,182.1L909.3,181.8L908.3,182L908.2,182.4L908.6,183.3L908.3,184.6C907.5,185.5 906.3,186.3 905.3,186.9C899.1,190.6 900.8,188.4 894.7,189.8C893.9,190 893.1,190.5 892.3,190.6C891.2,190.8 890,190.5 888.9,190.7C885.9,191.2 884.1,193.3 881.5,194.4C880.9,194.6 877.6,194.5 877.2,194.4L873.3,194.1C870.9,193.7 868.6,192.8 866.2,192.6C865.2,192.5 862.4,193.2 861.1,193.3C858.1,193.5 855.1,193 852.1,192.6C851.7,192.5 851.2,192.6 850.8,192.6C849.9,192 844.1,190.6 843.7,190.2C843,189.5 842.8,188.6 841.8,188.2C841.6,188.2 840,188.1 839.9,188.1C836.4,187.1 832.9,186.2 829.5,185.1C827.9,184.5 826.2,183.6 824.6,183C821.9,181.9 818.4,182.3 816.4,181.3C816.1,181.8 815.6,182.5 815.1,182.8L814.4,182.7L814.1,182.3L814.1,180C813.3,179.9 811.3,179.9 810.6,180.5L809.8,182.2L809.3,182L809.7,180.7L808.8,180.5L809.6,179.4C808.3,179.1 807,178.9 805.8,178.6C804.7,178.3 803.4,177.6 802.2,177.4C800.8,176.8 795.9,173.1 794.3,171.4C792.7,169.6 793.7,167.7 793.7,167.7C793.7,167.7 790,169.5 788.7,170.8C788.1,171.4 787.8,172 787.7,172.4C786.3,173.6 782.3,174.5 781.3,175.1C779.2,176.5 777,178.2 774.6,179.2C772.8,179.9 770.7,180.1 768.9,180.7C767.7,181.1 766.7,182 765.4,182.2C761.6,182.9 757.7,183 753.9,183.4C750.8,183.7 747.7,184.1 744.6,184.4C742.3,184.6 739.9,182.4 738,182.6C736.7,182.7 734.9,183.4 733.7,183.4C733.6,183.4 728.3,182.2 728.1,182.2C726.7,181.7 725.3,180.4 723.8,180.3L722.8,180.8C721.6,180.4 720.1,180.7 719.6,180.5C716.2,178.7 713.1,176.8 709.9,174.7L710.1,173.3C710.1,173.3 709.9,171.5 709.3,170.8C708.7,170 708.7,169.8 708.7,168.4C708.7,167 707.5,167.2 706.6,168C705.6,168.8 704.3,168.4 702.7,167.2C701.1,166 701.3,167.4 701.3,168.6C701.3,169.8 700.8,169.3 700.8,169.3C700.2,169.2 699.5,169.1 698.8,169.1C698,170 697.1,170.5 696,170.9L693.6,171L692.3,170.2L691.8,171.1L692,171.5L693.7,172.4L694.1,173.2L693.1,173.5L693,174C693.2,174.5 694.6,175 695,175.1L695.1,175.9C693.8,175.9 693.4,176.6 692.4,177C691.9,177.2 691.3,177.2 690.9,177.3C690.6,177.4 689.4,178.2 689.2,178.3C687.8,178.7 686.1,178.8 684.7,179.1C683.8,179.3 681,177.6 680.5,177.4C678.8,176 676.3,175.2 673.8,174.8L674,174.3C674,173.4 672.6,171.4 672,170.7L671.5,170.5C671.5,170.5 669.5,168.4 668.9,167.2C668.3,166 667.9,165.2 667.5,163.7C667.1,162.1 665.4,161.7 664.6,162.3C663.8,162.9 663.6,163.9 663.2,164.8C662.8,165.8 660.7,165.6 660.5,166.4C660.3,167.2 660.1,168.6 660.5,169.3C660.6,169.5 660.7,169.8 660.7,170.1L660.4,170.3C660.3,170.9 659.8,172.4 659.2,172.8C656.7,173.5 651.3,175.2 649.1,175.1C648.6,175.1 645.6,173.9 644.8,173.8C644.4,173.7 642.3,174.3 641.8,174.2C639.5,173.7 636.7,169.3 635.4,167.6L634.6,167.2L634,165.8L635.1,164.9C634.9,164.6 634.5,164.3 634.1,164.3L633.6,165C632.7,165.2 631.2,165 630.6,164.2L630.1,164.9L630.4,165.4C629.8,167.1 627.2,167.8 625.7,166.8C624.5,166 623,165.2 622,164.3C621.1,163.5 621,161.8 620.4,160.9C619.4,159.3 618,157.7 616.8,156.2C616.7,155.6 617.2,154.7 617.5,154.3C617,153.8 616,153.1 615.2,153.1C615,152.8 614.2,151.1 614.2,150.8C613.7,147.6 613.1,144.7 612.2,141.6C612.1,141.4 612.3,140.8 612.3,140.6C612.1,139.7 611.5,138.9 611.3,138C611.3,137.8 611.5,136.6 611.5,136.3C611.2,134.3 610.1,132.3 610.2,130.2C610.2,129.5 610.6,128.7 610.6,128.1C610.5,126.4 610,125.2 610.1,123.4C610.2,121.8 610.4,120 610.3,118.3C610.3,117.6 609.9,116.9 609.8,116.2C609.7,115.3 610.3,114.7 609.7,113.6L610.2,113L611.3,112.7L611,111.9C610.3,111.1 609.3,111.3 608.4,111.1C606,110.4 603.6,108.7 601.4,107.5C600.2,106.8 599.5,105.9 598.4,105.1C598.2,104.9 597.4,104.8 597.1,104.6C596.5,104.2 596,103.6 595.5,103.2C594.1,102.1 592.6,101.2 591.3,100.1C587.3,96.7 584.7,91.2 582,86.8C581.7,86.3 581.3,85.8 580.9,85.3L580.3,82.1C580.3,82.1 580.3,80.3 581.3,79.6C582.3,78.8 581.7,77.4 580.5,76.5C579.3,75.5 579.1,74.7 581.5,73.2C583.8,71.6 580.5,71.4 579.2,71.8C577.8,72.2 577.6,69.6 577.5,68.1C577.3,66.5 576.5,67.9 576.1,68.7C575.7,69.5 575.1,73.6 575.1,75.4C575.1,76.4 574.3,76.5 573.6,76.3C572.7,74.8 571.8,73.1 570.8,71.7C570.6,71.5 570.5,71.5 570.3,71.3C569.2,70.5 568.8,69.6 567.9,68.8C567.8,68.7 566.9,68.3 566.8,68.2C563.9,68.3 564.2,69 561.8,70.1C561.6,70.2 559,70.3 558.7,70.3C556.9,69.2 555.7,67.8 554.6,66.1L554.2,65.8L553.9,66L553.8,66.5L555.3,68.8L555.3,69.4L554.7,70.5L554,70.6L553.2,70.2L552.7,70.5L551.2,68.8L550.9,68.8L550.7,69.1L551.1,70.7L550.5,70.6L549.9,70.9L549.7,71.9L550.5,72L550.6,72.8L549.6,74.3L546.4,74.6L545.9,75.6L545.3,75.5L545.1,75.9L544.2,76.3L544.7,77.1C545.4,77.2 546.6,77.6 547.2,78.1L547.6,78.8L548.4,78.7L548.4,78L549,77.8L549.5,78.2L549.4,78.8L550.7,79L550.7,79.6L550.3,80L549.3,79.7L548.5,80C548.4,80.4 548.7,81.2 548.9,81.5L548.5,82L547.8,81.9L547.3,81.3L546.5,81.1C545.1,82.2 544,83.5 542.2,84.1C541.8,84.2 540.6,84.1 540.1,84.2C539.8,84.3 538.4,85 538.2,85C534.5,85.1 532,83.9 528.7,82.7C525.6,81.5 522.1,80.7 519.3,78.8C519.1,78.7 518.5,77.8 518.2,77.6C517.9,77.3 514.9,75.5 514.4,75.4C514.1,75.3 513.1,75.4 512.9,75.3C512,75 511.2,74.2 510.4,73.8C509.7,73.5 508.8,73.3 508.1,73.1C505.6,71.4 503.3,70.1 500.8,68.7C500.7,68.6 500.4,68.7 500.3,68.7C500.1,68.6 499.4,68.2 499.2,68.2L490.7,66.9C491.1,66.3 491.7,65.6 492.1,65.5C492.9,65.3 493.7,65.5 493.8,64.7C494,63.9 493.8,63.3 492.4,63.3C491,63.3 491.4,61.9 492.2,60.9C493,59.9 492.2,59.5 490.8,58.5C489.4,57.5 488.9,59.3 488.9,60.5C488.9,61.7 488.9,62.1 487.9,62.9C487.4,63.3 486.4,63.6 485.6,63.9C484.4,62 485.5,60 484.5,59.3C482.1,60.4 480.5,59 479,57.2C478.4,57.1 477.5,57.3 476.9,57.4L476.6,57.8C476.9,58.3 478,58.7 478.5,58.8C478.8,59.4 478.3,61.6 477.6,61.8L476.6,61.6L475.8,60.8C475.1,60.5 470.2,60.9 468.9,60.9C467.9,64.8 466.2,64.4 464.5,66.7C462.6,67.4 462.5,67 460.6,67.4C460.4,67.4 457.5,65.2 457.3,65.2C456.7,65.4 457,68.3 456.4,68.5C455.6,68.8 454.8,69.3 454,69.7C450.2,71.2 448.6,70.6 445.7,68C445.3,67.7 445,67.6 444.7,67.1C444.6,67 443.7,64.1 443.6,63.8C443.4,63.8 441.4,63.5 441.3,63.5C438.7,62.2 438.5,59.3 435.1,57.8C433.2,57 431.2,56.8 429.3,56.3C427.4,55.8 426.3,54.9 424.9,54.3C424.3,54 423.5,54 422.8,53.8C422.1,53.5 421.4,52.9 420.6,52.6C420.4,52.5 419.6,52.6 419.4,52.6C415.3,51.1 414.4,49.7 411.9,46.2C411.3,45.4 410.1,44 409.6,43.1C407.3,39 405.8,34.5 403.4,30.4C402.6,29 401.2,27.6 400.2,26.3L399.9,25.1C399,24.1 395.7,20.2 394.9,19.8C393.5,19.1 391.7,18.5 391,16.9C388,15.8 384.1,15.2 380.9,15.5C380.7,15.5 379.8,16.1 379.5,16.1C378.9,16.2 378.2,16 377.6,16.1C376.9,16.2 376,16.8 375.2,17C374.3,17.2 372.7,17.4 371.8,17.8C371.3,18 366.4,20.5 366.2,20.6C365.4,20.8 365,20.6 364.2,20.7C362.7,20.7 359.5,21.1 358,20.5C355.7,19.7 351.8,17.2 350.4,15.1C349.9,14.3 348.9,12.5 348,12C340.8,12.3 339.4,11.7 333.3,7.8C332.9,8.3 331.7,9.6 331.1,9.8C330.9,10.1 331.1,11.3 331.2,11.7L332.9,13.4C333,14.1 333.6,17.2 333.3,17.7C332.9,17.9 332.4,18.1 332,18.3L331.8,20.7L330.9,22C331.1,22.2 331,23.2 331,23.5L329.9,24.7C329,24.7 328.1,24.7 327.2,24.6L326.5,25.4L328.4,27.8L328.2,28.5L329.1,29.6L330.7,28.8C331.8,29.4 333,31.2 333.3,32.4L334,32.6C334.5,32.6 335.3,31.9 335.7,31.6L336.3,31.8C336.1,32.9 335,33.9 334.1,34.2L333.2,33.9L332.3,34.9L329.5,33.8L329.2,34.3C330.9,36.1 331.1,36.2 332.2,38.2C331.3,38.3 330.1,38.4 329.2,38.7C328.9,38.8 328.1,39.5 327.8,39.6C325.9,40.2 323.8,40.6 321.9,41L321.1,44.3L320.7,44.2C320.4,43.7 320.8,42 320.9,41.5L320,41.1C319.5,41.5 310.4,41.9 309,42L307.8,41.3L306.9,41.6L306.5,43.1C304.4,44.5 301,46.6 298.3,46.2C297.1,46 296,45.6 294.8,45.4C294.4,45.1 294.3,44.3 294.3,43.9L293.9,43.6C292.9,44.1 291.6,44.1 290.5,44.4C289.3,44.1 287.9,42.7 286.9,42.9C285,43.3 283.5,43.5 281.6,42.8C280.5,42.4 280.5,42 279.9,41.3C277.6,38.6 276.3,36.9 276.2,32.9L277,32C276.4,31.2 276.2,29.6 276.4,28.6L271.7,26C271.1,25.8 266.6,27.8 265.8,28.1C264.3,27.9 263.2,26.3 261.9,26.4C261.1,27.1 257.6,28.8 256.6,28L256.6,27.6L257,27L256.5,26.9C255.6,27.2 254.3,28.1 254.2,29.2L253.5,29.8C251.8,29.9 251,29.1 249.6,28.5C247.3,27.7 247.1,28.2 245.8,25.6L245,25.4C240.6,27.1 241.4,33.3 233,31.5C231.2,31.1 229.9,30.8 228.3,29.9C226.5,29 224.3,28.9 223.3,26.9C222.4,26.3 221.1,26.7 220.1,26.6C219.6,26.5 219.1,26.2 218.7,26.1C217,25.7 214.4,25.9 213.1,24.4C212.2,24.3 210.8,24.8 210,25.2L209.6,24.8L209.6,24.2L211.7,24L212,23.7L211.9,23.4C210.7,23.5 208.4,22.4 207.6,21.5C207.4,21.3 206.9,20.4 206.7,20.2C205.7,19.4 204.4,19 203.4,18.2C203,17.9 202.7,17.4 202.3,17.1C200.7,15.9 198.5,14.6 196.7,13.7L196,12.5L195,12C194.5,12.3 193.9,12.5 193.5,12.9C192.2,14.1 191.6,15.3 189.8,15.9C189.6,16.4 189.5,17.1 189.5,17.6L190.1,18.2C190.2,19.7 189.8,21.8 188.4,22.7L186.7,22.4L185.6,23.5L186.4,24.8L186.9,24.8L187.1,25.4L186.8,26C186.1,26.5 184.1,28 183.3,28C180.2,27.9 180.6,28.7 178,29.3C176.9,28.9 175.9,28.1 174.8,27.6C173.9,27.2 172.8,27.3 171.9,26.9C170.5,26.4 169,25.8 167.7,25.1C166.3,24.4 166,22.2 164.7,21.8L164.9,21.2L163.7,19.5C165.3,18 164.6,17.7 165.2,15.9C165.3,15.4 165.9,15.1 165.8,14.5L165,13.6L165,12.5L166.3,11.5L166.6,10.5L166.3,9.4L165,8.8L164.7,6.6L163,5.9L160.5,2.1C159.7,1.7 159.1,1.4 158.6,1C156.7,1.4 154.5,1.3 153,-0.1C153.1,0.6 152.6,1.6 152.1,2C151.5,1.9 150.2,1.9 149.6,2.3C148.9,3.7 147.7,5 146.6,6L146.5,7.3C146.1,7.9 145.6,8.5 145.1,9.1C145,9.6 145.7,12.6 145.9,13.2C145.3,13.8 144.9,15.3 145.1,16.1L144.7,16.6L145.6,17.7L145.2,17.9L144.2,19.5C143.6,19.5 142.6,21 142.4,21.5L143.3,22.1L143.4,22.8L142.9,22.9L141.9,22.1L141.5,22L141,23L140.3,23.3L139.8,25L139.3,25.3L138.4,24.9L137.6,25.8L137.9,26.5L137.4,27L136.9,26.9L136.4,27.7L135.3,27.4C134.8,27.6 134.7,28.3 134.4,28.6C134.2,28.8 132.1,30.3 132,30.4C129.5,34.2 128.9,33.6 124.5,35.6L123.5,37.9C124.3,38.9 123.7,42.6 123.3,43.7L122.8,44.1L122.3,44.1C121.8,45.2 120.1,49 119,49.6C118.8,50.8 118.7,52.4 118.3,53.6C118.1,54.3 117.4,55 117.1,55.7C116.1,57.9 115.3,60.2 114.4,62.4C114.2,62.9 114.3,64.6 114.4,65.2C114.1,65.7 113.3,67.2 113.3,67.8C115.6,72.6 112.1,74.7 113.9,78L115.7,78.1L116,78.7C115.7,79.2 115.7,80.3 115.9,80.9L115.5,81.6L114,81.8C113.7,82.1 113.7,83.4 113.7,83.8C113.5,86.5 112.7,89.1 112,91.6L112.8,92.5L111.7,94L112.7,94.5C113.3,95 113.2,96 113.3,96.7C113.8,101.6 111.8,107 109.9,111.4C109.2,113.1 107.4,114.4 106.1,115.7C103.5,118.3 102.5,119.5 98.9,118.7L97.5,119.6L97,119.6L96.4,119L95.7,120.7C94.9,121 93.2,121.6 92.3,121.4C92,120.9 91.2,120.4 90.7,120.3L89.4,120.5C88.2,120.4 87.5,118.1 85.4,117.7L85.1,116.9C85.7,116.2 86.2,114.9 86.3,114L86,113.2L86.5,112.1C86.5,111.6 84.7,110.4 84.3,110.1L84.2,111.6L83.5,112.4L81.7,111.6C81,112.1 80.5,113.3 80.9,114.2L79,115.7C78.2,119 76.9,119.8 75.8,122.6C75.6,123.3 75.9,124.3 75.6,125C74.9,127.4 74.2,127.3 75.1,130.2L76.4,131.4L76.4,132.1L75.9,132.9C74.1,135.6 75.2,135 74.5,137.6C74.2,138.7 71.8,142.2 70.8,142.9C70.3,143.2 69.6,143.5 69.1,143.7C67.8,144.4 66.6,146.2 66,147.5L66.1,148.9L65.8,149.4L64.4,149.1C64.3,150.2 62.1,152.6 61.4,153.2C60.7,153.8 59.6,154.1 58.8,154.7C58.5,155 58,155.8 57.7,156.1C57.1,156.6 55.7,157.1 54.6,158.2L54.2,159.3C54.1,161.2 55.9,160.4 54.9,163.4C54.7,163.9 54.3,164.6 53.8,164.8C53.6,165.3 53.8,166.2 54.1,166.6C53.4,167.4 52.6,169.6 51.9,170L51.7,170.7L51,171.2L50.4,171.2C50,171.7 49.9,172.9 50,173.5L48.4,175.1L48,175L47,175.9L46.4,175.8L45.7,175.1L44.8,175.4L44.3,174.8L43.6,174.9C43.1,174.8 42.5,173.6 42.3,173.2L41.6,173.3L41.5,172.5C42,172.4 42.6,171.2 42.7,170.8L41.8,170.6L41.4,170.2L41.7,166.8L41.4,166.6L40.6,167.5L40.3,167.4L40.2,166.3L39.9,166.2L39.2,166.8L38.8,166.3L37.9,166.5L37.4,166L38,164.7C37.8,163.2 36.8,162.6 35.8,161.8L35.3,161.9L35,161.1L33.1,160.6L32.8,159.7L33.6,157.4L34.6,157.3L35.4,157.6L36,157.1C35.4,156.5 34.9,155.4 34.8,154.6L33.9,154.6C33,153.7 33.8,150.3 33.3,148.7L32.5,148.1L31.7,148.2C30.5,147.2 29.9,144.7 30.2,143.3L29.1,142.6L28.1,143.8C27.4,144.2 25.1,145.2 24.3,144.9L22,146.6C21.1,147.9 22.3,149.8 21.7,150.5L22.7,151.8L21.2,152.4L19.2,155.3C15.5,155.5 13.7,158.5 11.3,160.9L10.8,163.2L10.1,163.8L9,164.1C8.7,163.9 5.6,163.8 4.8,163.6C4.4,163.1 2.8,161.2 2.2,161.2L1.6,161.3L1,162.2L1.2,163.2L0,164.7C1.2,164.8 0.7,164.9 1.7,164.5C2.4,164.8 3.2,165.5 3.7,166.1L4,167.3L4.7,167.8L4.8,169.2L6.2,170.2L6.5,170.9L5.9,172L6.2,172.6L5.9,173.4L6.2,174L5.5,174.6L5.6,174.9L6.4,175.1L6.7,176.2L5.8,178L6.4,178.6L7.2,178.7L7.8,178.2L9.1,178L10.2,179.1L11,178.2L11.7,178.9L12.2,179C12.2,178.2 12.7,176.6 13.5,176.2L14.5,175.9C14.3,174.7 16,172.3 16.8,171.5C24.2,172 29.1,172.6 36.1,176L36.8,177.4L37.4,177.4L37.8,178L37.3,178.5L36.8,178.5L36.4,179.3C36.5,179.9 37.5,180.6 38,180.8C38.4,180.7 39.5,180.3 39.8,179.9L39.1,178.7L39.9,178.1L40.4,178.1L41.2,177.7C43,177.5 45.3,178.7 46.8,179.7C47.7,180.3 48,181.4 49.2,181.7L49.7,182.8C50.4,183.2 51.5,183.5 52.3,183.5L53.2,182.5C55,182.6 57.5,182.6 59.2,183.1C59.3,183.1 60.9,184.1 61.1,184.2L61.7,184.2L64.6,181.9C67.2,181.9 69.6,180.3 72.2,180.5L73.8,179.2C74.4,179.2 75.3,179.2 75.9,179.1C76.4,179 76.8,178.5 77.3,178.4C78.9,179.6 81.2,177.9 82.3,178.7L83,179.5C83.3,178.7 84.6,177.5 85.3,177.1L86.3,178.1C88.4,178 90.7,177.7 92.8,177.8C93,177.8 94.1,178.3 94.4,178.4C97.3,178.9 101.1,178.3 103.4,180.6C104.5,180.6 105.1,179.9 105.9,179.8C109.3,179.1 112.7,178.2 116.1,177.5C117,177.3 117.9,177.4 118.8,177.2C119.3,177.1 119.9,176.6 120.5,176.6C121.4,176.4 123.9,177.9 124.2,178.7C125.1,179 126.3,179.1 127,178.3L126.8,177.9L126.4,177.8C126.5,177 126.9,175.2 127.7,174.8C130.7,173 136.1,173.9 139.5,173.8C140.4,173.8 141.1,173.3 142.2,173.5C143.2,173.7 144.1,174 145.1,174.2C146.4,174.4 147.8,174.3 149.1,174.5C151.1,174.9 153.2,176 155,176.8C155.6,177.1 156.1,177 156.6,177.5L160.3,181.9C162.8,184.9 165.5,187.1 168.9,188.8C169.3,189 170.4,189 170.8,189.2C173,190.1 174.9,191.5 177.3,191.9C178.1,192 179.1,191.7 179.9,191.8C180,191.8 183.5,193 183.7,193C184.1,193.2 184.7,193.9 185.1,194.1C186.1,194.7 187.7,195 188.6,195.6C188.7,195.7 190.6,197.9 190.8,198.1L190.6,199.2L189.8,199.8L189.7,200.6C190.3,201.3 192.7,201.8 193.7,202L194.5,203.7L195.6,204L196.1,204.7L196.8,204.8C197.5,203.6 200.2,204.4 201.1,204.7C201.3,205.2 202,205.8 202.4,206.1L202.7,207.3L203.9,207.2L204.3,206.5L204.9,206.2L205.4,206.7L206.3,206.9L207.4,206.2L208.9,207L209.4,208.1C210.3,208.1 211.9,207.7 212.6,207.1C214.3,207.9 215.5,206.3 217.1,206.5C218.2,203.6 221.3,205 222.1,203.5L222.1,202.4C223.2,200.7 225.7,200.8 227.3,200.1L228.4,200.9L230.4,200.6L232.7,202L234,201.9L234.1,201.6C236.5,202.7 237.3,201.9 239.3,202.1C240.1,202.2 240.9,202.7 241.9,202.8C243.2,204.1 244.4,205.2 246,206.2C245.9,206.8 246.6,208.1 247,208.6L246.2,210C246.7,211.7 247.1,213.4 247.6,215.1L247.3,216.6L247.8,218L247.5,218.6C246.4,219.2 244.9,220.4 244.1,221.4C243.6,222 243.7,223 243,223.6C241.8,224.6 240.4,226 239.1,226.8C238.1,227.5 236.6,227.3 235.6,228.3C235.3,229.7 234.7,229.6 234,230.4C233.2,231.4 232.3,232.8 230.9,233.1C229.9,234.4 229.9,236.3 228.8,237.4C229.6,238.1 230.4,239.1 230.7,240.1L232.9,241.3L231.3,243.5C230.3,243.8 229,243.7 228.3,244.5L227.9,244.4L227.4,243.2C226.4,242.9 225,244.7 223.9,244.4L222.6,243.4L221.5,244.2L220.8,243.9L220.3,244.6L220.5,245.2L219.9,246.1L220.2,246.8L219.6,248.5L218.3,249.1L218.4,251.9C218,252.2 217.3,253 217.3,253.5L216,252.9L215.9,253.5L217,254.6C217.4,255.8 218.2,257.9 217.3,259.1L215.4,260.4L215.2,261L216.1,263L217,263.6L215.7,265.3L217.1,267.6L217.8,267.7L218.5,267.2L218.7,268.7L219.5,269.2C220.8,270.9 221.3,274.5 220.3,276.5L221.5,278.8L222,279L222.5,278.2L222.3,277C223,275.6 225.8,274.4 227.3,275.1C228.1,275.4 228.8,276.1 229.6,276.4C231.3,277 233.2,277.4 234.9,277.8C235.3,277.9 235.8,277.8 236.1,277.9C236.4,278 237,278.5 237.2,278.7C239,280.5 241.9,282.7 244,284.1C245.5,285.1 247.8,284.6 248.9,286C249.4,286.2 250.3,285.9 250.7,285.7C252.9,286.6 253.1,285.2 254.7,285.1C255.2,285.1 263.2,286 263.8,286.1C263.9,286.1 264.8,286.7 264.9,286.8C265.4,286.8 266.2,286.2 266.5,285.9L270.5,286.3L270.9,286.6L270.6,287C269.4,287.4 268.1,286.1 266.6,287C267.8,288.2 270.8,287.4 272.1,287.4C274.2,287.4 277.5,288.1 279.6,288.3L285.5,288.8C286.7,288.9 288,288.5 289.2,288.5C289.9,288.5 290.6,288.8 291.3,288.8C292,288.8 292.7,288.7 293.4,288.8C294.8,288.8 304.5,289.3 305.7,288.6L306.4,289C309.1,289.1 311.7,289.5 314.4,289.7C314.9,289.8 315.6,289.6 316.1,289.7C318.5,290.1 321,290.6 323.4,290.8C325,290.9 327,290.7 328.6,290.6C329.3,290.6 329.9,291 330.6,291C334.3,291.1 338.1,291.1 341.8,291.7C344.7,291.1 349.6,293.8 351.4,293.2L351.7,293.6C355.1,293.7 358.2,295.1 361.5,295.7C363.2,296 365,296.2 366.7,296.6C367.4,296.8 368.1,297.3 368.8,297.4C368.9,297.4 369.9,297.2 370,297.2C371.1,298.6 374,298.4 375.6,298.6C376.2,298.7 376.8,299.1 377.5,299.1C382.4,299.7 387.5,299.8 392.5,300.2C394.7,300.4 396.9,300.7 399,300.9C399.6,301 401.3,300.2 401.8,299.9L403.2,300L404.9,301.5C407.2,301.3 407.5,301.9 408.9,302.2C409.9,302.4 411.1,302.2 412.1,302.4C413.5,302.7 415.1,303.6 416.3,304.3C416.5,304.4 417.2,305.8 418,306.2L418,307.7L418.6,308L419.6,307C420.6,306.8 421.1,307.6 421.9,307.8C422.6,308 423.6,307.8 424.3,308.1C425.4,308.5 426.5,309.3 427.5,309.8C428.7,310.4 430,310.2 431.2,310.6C432.4,311 433.6,311.8 434.8,312.3C436.2,312.9 438,313.1 439.5,313.4L441.3,315.3L441.9,315.4C442.8,315.8 443.8,317 443.9,318C446.5,319.9 449.6,320.6 452.1,322.8C452.9,323.5 454.4,325.3 454.9,326.3C455.3,327.1 455,328.1 455.9,328.8L455.3,329.7L456.7,331.3C458.2,331.3 464.6,330.8 465.6,331.7L466.9,331.4L467.6,332.2C468.7,332.5 474.5,334.1 475.2,333.7C475.9,334.4 476.8,334.7 477.7,334.7L478.5,335.9C480.2,336.1 481.3,337.1 482.7,338C482.8,338.8 483.1,339.7 483.2,340.5C483.3,341.3 482.7,342.1 483.3,342.9L484.9,344L485.6,343.4C486.4,344.3 488.2,344.9 489.3,344.9L490.3,344C491.7,344.3 493.3,344.4 494.6,344.2L496.2,343.2L496.8,341.9L497.4,342.7C498.6,343.2 500.1,343.1 501.2,342.4C501.9,342.5 502.8,343 503.3,343.5C505.4,343.4 506.4,344.1 508.2,344.4C509.3,344.6 510.5,344.6 511.6,344.7C511.6,344.7 512.2,345.1 512.3,345.2L513.1,344.9C514.6,345.6 516.3,346.6 517.9,347C518.1,347.1 519.2,347 519.6,347.1C521.2,347.4 523.1,348.8 524.3,349.8L527.1,349.8L527.8,350.3C531.8,350.2 534.2,351.4 538,352.4C538.9,352.7 540,353.1 541,353.2C542.7,353.5 544.6,353.3 546.3,353.6C547.2,353.8 548.2,354.4 549.1,354.6C550.6,354.9 552.2,354.7 553.7,354.9C554.7,355 555.7,355.3 556.7,355.5C557.2,355.6 557.7,355.5 558.2,355.5C559,355.6 561.1,356.5 561.5,356.5C562.2,356.6 565.5,356.7 565.8,357.3L566.4,357.2L567.1,357.9C568.6,357.9 570.4,357.7 572,357.8C573.2,357.9 574.5,358.7 575.8,358.7C577,358.8 578,357.6 579.3,358.4C581,357.5 585.3,357.9 587.1,358.2C588.5,358.4 589.8,359.1 591.2,359C592.2,358.9 593.3,358.8 594.3,358.6L595.6,357.1C596,357.4 599,356.6 599.6,356.4C600.4,355 601.5,355 602.7,354.3C604,353.5 603.8,352 604.9,351.4C604.7,350.5 605.4,348.1 605.6,347.3C605.5,346.4 604.7,345.1 603.9,344.7C603.9,344 604.5,342.9 605,342.3L604.2,341.1C604,341.1 603.5,340.8 603.4,340.6L603.7,340.2L603.7,339.1L604.3,339.1L604.8,340.4L605.3,340.6L605.6,338.8C608.3,336.2 614.2,334.4 617.8,334.2L618.3,334.5L619.1,334.4L619.7,333.7C621.6,332.9 621.5,333.6 623.1,333.9C623.8,334.1 624.9,334.2 625.7,334.2C626,334.2 626.6,334 626.9,334C627.9,334.1 629.4,334.3 630.4,334.5C631,334.7 631.2,335.5 632.6,335.3L633.1,335.7C633.3,336.4 633.2,336.9 633,337.6C632.6,337.8 631.9,338.5 631.8,339L632,340.1L632.7,340.6L633,340.5C634,340.8 635.2,341.6 635.9,342.4L636.6,342.1L636.8,341.2L637.2,341L637.4,340.5L637.3,339.6C636.9,338.8 635.1,337.9 634.4,337.6L634.1,336.9L634.2,336.4L636.6,333.6C638,333.1 639.7,332.5 641.2,332.5C642,333.2 643.3,332.7 644.2,332.9C645.7,333.2 646.3,334 648.6,333.9C649.8,335.2 651.3,335 652.6,336.1L653.3,336.1L653.9,335.3L654.3,335.6L655,335.3L655.2,334.1L657,333.1L657.5,333.4L658.3,334.7L658.9,334C658.6,333.6 658,332.6 658.1,332.1L658.4,331.6L659.4,331C659.9,331 660.7,331.8 660.9,332.1L661.4,331.7L660.6,330.6L660.6,330L661.3,328.9L661.1,328.1L661.3,327.8L661.7,327.9L662.3,327.5C662.8,326.5 664.1,323.7 664,322.6C664.5,323 664.8,324.4 664.7,325L665.4,325.1C665.3,324.1 665.5,322.8 666,322C666.7,322.5 668.4,322.3 669.2,322.1L669.5,322.4L670.4,322.4L670.8,322.1L671.4,320.5C671.7,320.5 672.5,320.5 672.7,320.7L673.3,320.4L673.5,320L673.8,320.2L672.6,323.4C673,324 673,326 673,326.7L673.9,327.9C673.6,330.4 674.4,333 675.2,335.3L676.6,335.8C676.6,336.2 676.7,336.9 677,337.2L678.6,337.5L679.4,338.3C680.5,338.7 682.5,338.6 683.6,338L685.8,340.5L688.5,340.3L688.8,339.9L688.6,338.8C689,338.8 689.6,339.4 689.8,339.7L690.1,339.2L689.9,338.2L690.3,337.8C691.7,339.8 697.4,346.6 700.1,346.7L700.6,346.1C700.2,343.9 702.8,342.4 702.9,340.3C706.4,337.2 707.9,336 712.7,336.2L713.6,335.3C716.2,334.8 718.9,334.8 721.5,335C723.3,335.2 726.2,336.1 727.9,335L728.4,335.5C733.2,336.5 738.1,335.9 742.9,336.4C747.5,336.9 752.1,338.6 756.7,339.1C758.2,339.3 759.9,339.1 761.4,339.1L762,339.1L762,340C763.1,340.6 766.8,341.4 767.9,340.9L769,341.6L769,342.2L768.2,343.6C768.6,344.6 767.5,345.6 767.9,346.8C768.3,347.5 769.2,347.5 769.7,347.9C770.5,348.5 770.5,349.1 772.2,349.7L772.7,351.4L773.9,350.7L774.8,350.7L775.5,351.3L776.6,351.4L777.1,351.1L777.5,349.9L778.4,350.1C779.1,349.6 780.7,350.2 782.1,349.4L783.2,348C783.3,348.1 784,348.4 784.1,348.4C789.7,349 795.4,349.4 800.9,350.3C802.4,350.6 804.4,351.5 805.9,352C806,352 806.2,352.1 806.3,352.1C807.1,352.1 808,352 808.7,352.2C809.3,352.3 809.9,352.7 810.4,352.8C811.4,353 812.5,352.9 813.5,353C814.1,352.4 814.7,351.1 814.8,350.2L815.1,351.2L814.6,352.9L814.9,353.6C815,353.7 815.4,353.8 815.6,353.9C817.6,354.2 819.6,354.3 821.6,354.7C822.6,354.9 823.7,355.4 824.7,355.7C826.5,356.1 828.4,356.4 830.2,356.8C833.3,357.5 836.3,358.5 839.3,359.2C841.5,359.7 843.8,360 846,360.4C846.1,360.4 846.9,360.8 847,360.9L848.6,360.2L848.9,361.1C852.4,363.5 857.2,362.6 860.9,364.4L860.7,362.8L861.4,362C861.9,364.1 862.6,365.2 864.9,366C868.3,367.2 871.9,368.3 875.3,369.5C878.2,370.6 881.1,372.5 884,373.5C884.8,373.8 885.9,373.6 886.6,373.9C887.6,374.3 888.5,375.2 889.4,375.6C889.6,375.7 890.8,375.6 891,375.7C892.1,376.1 892.7,376.8 893.7,377.3C894.1,377.5 894.6,377.6 895,377.8C896.2,378.4 897.5,379 898.7,379.6L899,379.7C901,380.5 909.4,384.6 911.5,384.5C912,385.6 917.3,388.7 918.6,389.6C918.6,389.6 921.3,388.7 920.2,390L920.4,390.4C921.8,391.5 923.5,391.2 925,391.8C925.9,392.2 926.2,393.2 927.3,393.4C927.9,393.5 928.6,393.4 929.2,393.6C930.1,393.9 930.9,394.5 931.7,394.8C933.2,395.3 935,395.3 936.5,395.8C937.6,396.2 943.7,398.3 944.6,399.2C944.7,399.4 945.4,401.8 945.5,401.9C945.7,402.3 946,402.4 946.3,402.7C947.5,403.8 948.5,405.1 949.6,406.2C949.7,406.3 950.3,406.6 950.5,406.7L951.9,406.6C952.1,406.7 953.2,407.4 953.4,407.4C953.7,407.5 955.2,407.6 955.4,407.6C956.6,408.1 961.2,410.3 961.5,411.7L964.4,412C964.7,412.3 965.9,413.4 966.4,413.4C966.7,413.4 969.2,413.4 969.3,413.4C969.6,413.5 971.5,414.6 971.9,414.8C972.5,415.1 973.4,415 974,415.2C975,415.6 977.3,417 978,417.2C978.5,417.3 981.2,417.6 981.8,417.3C984,418.8 986.6,417.7 989.3,420.5C993.3,419.7 998.4,425 1000.2,424.5L1001.1,425.3C1003.2,425 1006.2,428.6 1011.3,427.8L1011.2,429.4L1010.6,430.2L1011.1,430.5C1011.9,429.9 1013.1,430.2 1014.1,430.2L1015.4,429.2C1016.3,429 1017,429.5 1017.8,429.7C1018.7,429.9 1019.2,429.4 1019.9,429.4C1021.3,429.3 1023.6,430.1 1024.8,429.8C1024.9,429.8 1027,428.8 1027.2,428.6L1027.6,428.9L1027.3,429.5L1027.7,430.1C1029.5,430.1 1031,430.6 1032.7,431.1C1034.3,431.7 1035,431 1035.7,431.1C1037.3,431.3 1039.1,431.4 1040.7,431.7C1041.5,431.8 1042.3,432.3 1043.1,432.5C1044,432.7 1044.6,432.2 1045.7,433C1046.3,432.6 1047.5,432.4 1048.2,432.6C1048.3,432.7 1048.4,432.7 1048.4,432.8C1047.4,430.7 1046.6,428.9 1046.7,428.2C1045.4,426.5 1046.2,423 1047.3,422Z" style="fill:none;stroke:rgb(220,220,220);stroke-width:2px;stroke-linecap:round;"/>
            <path id="Stroke-19" d="M398.4,119.3C398.8,119.1 399.3,119 399.7,118.8C400.2,118.5 400.4,117.9 401,117.7C402,116.6 400.6,114.7 402.9,111.8L402.7,110.6C402,110 400.4,108.9 400.2,107.9C400,106.8 400.6,105.5 400.5,104.4C400.4,103 399.3,102.3 398.7,101.2C398.4,100.7 398.4,100 398.1,99.4C397.8,98.9 397.3,98.5 397.1,98C396.5,96.8 396.5,95.3 396,94C395.2,91.7 393.7,92 392.3,91.2C391.5,90.7 390.1,89.6 389.6,88.9C387.6,86.5 389.5,84.3 387.8,82.1C387.5,81.6 386.9,81.3 386.5,80.9C385.7,79.8 384.5,77 383.7,76.1C383.2,75.5 382.5,74.8 382,74.1C381.9,74 381.6,73.3 381.6,73.2C381.1,71.6 381,69.8 380.3,68.2C380.2,68.1 379.9,67.4 379.9,67.3C379.7,66 379.8,64 380.4,62.8C380.8,61.9 383,60.2 383.8,58.8C384.2,56.3 381.4,53 380.6,50.7C379.9,48.6 380.9,46 380,44.2C379.9,44 379.7,43.7 379.5,43.5C379.3,43.3 379.1,43.1 378.9,42.9C377.7,42.5 376.8,43.1 375.6,43.1C374.7,42.4 372.9,40.7 372,40.4C369.9,39.5 369.4,40.8 367.2,38.9C366.7,38.5 366.2,38.2 365.8,37.7C364.2,37.4 362.1,37.1 360.6,36.4C359.6,35.9 358.9,34.5 357.9,34C357.6,33.9 357.2,33.9 356.9,33.7C356.3,33.5 355.8,32.9 355.3,32.7C355,32.6 354.6,32.6 354.3,32.5C354,32.3 350.2,28.7 349.8,28.2C349,27.2 348.6,26 348.1,24.9C347.7,24.1 344.5,20.8 343.7,20.3C341.5,18.8 338.7,19.9 336.6,17.1C334.5,14.4 334.8,9.8 333.1,8.1" style="fill:none;stroke:rgb(220,220,220);stroke-width:1px;"/>
            <g id="darkline" transform="matrix(1,0,0,1,218,40)">
                <path id="Stroke-25" d="M0.5,164.6C0.5,164.6 -0.3,163.8 0.5,162.6C1.3,161.4 1.3,160.4 0.7,159.7C0.1,159 -0.5,157.3 0.7,156.6C1.9,155.8 2.6,154.6 1.7,153.3C0.7,151.9 0.9,150.4 1.7,149.8C2.5,149.2 4.8,148.4 5.4,147.4C6,146.4 5.6,145.4 6.6,144.9C7.6,144.3 8,144.1 8,143.1C8,142.1 8.4,140.2 8.6,139C8.8,137.8 8.2,135.3 9.8,135.5C11.4,135.7 11.7,135.7 11.9,134.5C12.1,133.3 12.1,132.5 13.1,132.5C14.1,132.5 17.8,131.7 17.8,131.7C17.8,131.7 19.2,130.7 19.2,129.7C19.2,128.7 19.2,127.7 20,127.5C20.8,127.3 23.5,125.9 23.5,125.9C23.5,125.9 22.3,123.7 21.6,123.7C20.8,123.7 20.2,124.1 19.9,122.9C19.5,121.7 18.3,120.2 18,119.4C17.6,118.6 16.8,118.2 16.1,118.6C15.3,119 14.7,118.6 14.7,118.6L11,114.1L9.6,113.5L8.1,113.5L7.1,109.4C7.1,109.4 7.3,108.4 7.5,107.4C7.7,106.4 8.3,105.8 7.9,104.7C7.5,103.5 7.3,99.4 7.3,99.4C7.3,99.4 7.1,97 7.5,96C7.9,95 7.9,91.7 7.9,91.7C7.9,91.7 5.8,89.7 5.6,88.6C5.4,87.4 5.4,85.3 4.2,84.1C3,82.9 2.6,82.1 2.6,82.1C2.6,82.1 1,77.6 2,76.2C3,74.8 3.6,72.3 3.6,72.3L3.6,69.8C3.6,69.8 2.6,66.7 5.3,67.4C8,68.2 8.4,68.2 9.4,67.4C10.4,66.6 12.1,64.7 12.1,64.7C12.1,64.7 13.5,61.6 12.3,60.4C11.1,59.2 10.7,59.8 10.6,58.6C10.4,57.4 8.5,52.5 8.3,51.7C8.1,51 8.1,49 8.1,49C8.1,49 10,45.9 11.4,45.3C12.8,44.7 13.5,43.7 14.1,42.9C14.7,42.1 14.9,41.9 15.8,41.9C16.8,41.9 19.5,43.3 19.5,44.4C19.5,45.6 20.1,48.7 20.1,48.7C20.1,48.7 20.5,50.3 21.5,50.1C22.5,50 25,50 25,50C25,50 26.7,50.2 26.7,49C26.7,47.8 26.7,46.3 25.5,46.3C24.3,46.3 23.8,46.3 24,45.3C24.2,44.3 23.2,43.9 24.8,44.9C26.4,45.9 27.9,46.5 28.7,46.5C29.5,46.5 32,47.5 32,47.5L34.7,47.5C34.7,47.5 35.5,48.5 36.1,49.3C36.7,50.1 37.5,50.9 37.5,50.9C37.5,50.9 39.1,51.3 39.8,51.3C40.5,51.3 58.4,50.9 59.2,50.9C60,50.9 66.2,51.3 67,51.3C67.8,51.3 70.1,51.5 70.1,50.5C70.1,49.5 70.3,48.3 70.5,47.4C70.7,46.5 71.3,43.5 71.3,43.5L69,37.5C69,37.5 68.8,36.9 67.8,36.5C66.8,36.1 66.8,35.9 66.8,34.9C66.8,33.9 67.2,31.8 66.8,31C66.4,30.2 65.2,28.1 65.2,28.1C65.2,28.1 64.2,26.7 63.5,26.7L61.4,26.7C61.4,26.7 60.4,24.9 61,23.6C61.6,22.2 61.6,21.4 61.4,20.7C61.2,20 61.2,18.2 60.4,18.2C59.6,18.2 57.5,17.6 57.5,17.6L55.2,16.2L54.4,14L53.9,10C53.9,10 54.1,6.7 54.7,5.7C55.3,4.7 56.1,4.1 55.3,3.5C54.5,2.9 53.9,2.3 55.5,2.3C57.1,2.3 59,2.1 59,2.1L61.5,0.5" style="fill:none;stroke:rgb(50,50,50);stroke-width:2px;"/>
                <path id="Stroke-26" d="M71.1,42.5C71.1,42.5 74.2,42.7 75.2,42.3C76.2,41.9 77.3,42.3 76.9,43.3C76.5,44.3 75.2,45.6 75.2,46.4C75.2,47.2 75.2,48.2 74.6,49.1C74,50.1 74.2,50.3 75.2,51.1C76.2,51.9 77.3,51.9 77.9,51.1C78.5,50.3 78.9,49.9 79.8,49.9C80.7,49.9 81.9,49.7 81.9,49.7C81.9,49.7 81.9,48.9 82.9,48.3C83.9,47.7 84.1,47.3 85,47.9C86,48.5 86.4,48.7 86.6,49.7C86.8,50.7 89.3,51.3 90.1,51.5C90.9,51.7 92.8,53.5 92.8,53.5C92.8,53.5 94.9,54.1 95.3,53.3C95.7,52.5 96.5,50.2 96.5,50.2C96.5,50.2 96.9,47.5 96.9,46.7C96.9,45.9 97.3,45.3 97.7,44.5C98.1,43.7 98.5,40.8 98.5,40.8L96.4,39.6C96.4,39.6 96,38 96.2,37.3C96.4,36.5 95.8,35.5 95.8,35.5C95.8,35.5 95,32.6 96,32.6C97,32.6 102.8,31.8 102.8,31.8L103,27.7L107.5,20.1L107.5,0" style="fill:none;stroke:rgb(50,50,50);stroke-width:2px;"/>
                <path id="Stroke-27" d="M435.8,299.2L440.2,294.7L439.6,292.2L437.1,290.5C437.1,290.5 433.4,287.2 433.4,285.8C433.4,284.4 429.7,283.4 429.7,283.4C429.7,283.4 431.3,280.5 431.8,279.7C432.3,278.9 433,277.5 433,277.5C433,277.5 432.6,275.7 433,274.2C433.4,272.6 433.4,272.2 432.4,271.3C431.4,270.4 432.4,268.6 431.2,267.4C430,266.2 430.4,263.7 429.6,262.5C428.8,261.3 426.7,260.7 426.9,259.6C427.1,258.4 427.9,257.8 426.7,256.7C425.5,255.6 425.9,252.6 425.9,252.6C425.9,252.6 429,249.7 427.5,248.5C425.9,247.3 423.2,246.5 423.2,246.5C423.2,246.5 424.2,244 422.8,243.6C421.4,243.2 421.1,243.4 421.1,242C421.1,240.6 420.1,240 420.1,239.1C420.1,238.1 419.3,236.4 418.5,235.8C417.7,235.2 417.1,235 416.9,233.6C416.7,232.2 414.6,232.2 413.8,232.4C413,232.6 408.8,234 408,233.8C407.2,233.6 404.9,234 404.9,234L402.8,234.8C402.8,234.8 401.6,233.2 401.2,232.4C400.8,231.6 400.8,231.6 399.6,231.8C398.4,232 397.1,231 397.7,229.8C398.3,228.6 398.9,228.2 398.5,227.1C398.1,225.9 397.5,223.6 397.5,223.6C397.5,223.6 397.1,222 398.3,221.1C399.5,220.1 400,220.1 399.9,218.9C399.7,217.7 399.5,216.4 401.5,216C403.4,215.6 402.1,212.5 402.1,211.7L402.1,207.8L399.8,206.2C399.8,206.2 399.2,204.8 399.2,204C399.2,203.2 398.2,200.1 399.8,199.9C401.4,199.7 402.7,197.9 403.7,197.7C404.7,197.5 406.8,197.5 406.8,197.5C406.8,197.5 408.9,194.4 409.9,194.4C410.9,194.4 414.2,195.2 414.2,195.2L416.9,197.4L419.6,198.4L423.9,197.4C423.9,197.4 427.2,193.3 428,192.5C428.8,191.7 428.6,190.7 431.1,190.7C433.6,190.7 437.1,190.9 437.1,190.9C437.1,190.9 439.2,188.2 438.7,186.6C438.1,185 437.5,184.1 438.9,182.9C440.3,181.7 439.5,179.8 439.1,179C438.7,178.2 438.3,175.5 440.3,174.9C442.2,174.3 441.9,171.8 441.9,171.8C441.9,171.8 441.7,170 440.5,169.1C439.3,168.1 438.8,167.9 437,167.3C435.3,166.7 435.1,166.3 435.1,164.9C435.1,163.5 435.7,160 435.7,159.2C435.7,158.4 436.1,157.8 435.1,156.8C434.1,155.8 434.5,152.9 435.9,151.3C437.3,149.7 437.8,148.4 439.2,147.8C440.6,147.2 443.7,144.3 444,143.1C444.4,141.9 445,140.6 445.7,139.8C446.5,139 447.1,138.4 447.1,138.4C447.1,138.4 447.3,134.9 447.3,133.1L447.3,127L447.9,122.1" style="fill:none;stroke:rgb(50,50,50);stroke-width:2px;"/>
                <path id="Stroke-28" d="M669.7,335.2C669.7,335.2 671.4,332.3 671.4,330.3C671.4,328.3 671.2,326.8 672,325.6C672.8,324.4 674.5,321.7 677,319.7C679.5,317.7 683.2,311.9 684,310.7C684.8,309.5 687.1,308.5 686.9,306.4C686.7,304.2 686.7,302.7 686.7,301.9C686.7,301.1 686.7,300.7 687.1,299.7C687.5,298.7 687.5,297.7 686.7,297L684.4,294.6C684.4,294.6 684.6,294.4 686,292.6C687.4,290.8 688.3,289.5 689.3,289.3C690.3,289.1 693.6,289.1 694.5,289.1C695.5,289.1 698.6,288.9 699.3,289.5C700.1,290.1 701.8,290.3 702.6,289.7C703.4,289.1 705.1,289.7 705.1,289.7C705.1,289.7 707,289.7 708.4,289.3C709.8,288.9 712.7,291.3 712.5,292C712.3,292.8 711.5,296.1 711.5,296.1C711.5,296.1 711.7,298.5 712.9,298.5C714.1,298.5 715.2,297.1 715.8,296.3C716.4,295.5 716.8,295.3 717.5,293.2C718.2,291.1 718.3,289.9 719.6,289.9C721,289.9 723.9,288.9 723.9,288.9C723.9,288.9 728.4,284.4 729.5,283.4C730.6,282.4 732.6,279.9 732.6,279.9C732.6,279.9 740,275 741.1,274C742.3,273 743.8,270.9 743.8,270.9C743.8,270.9 746.3,267.8 746.5,272.3C746.7,276.8 747.5,279.7 748.2,281.1C749,282.5 749,286.2 749,286.2L753.3,304.4L753.7,310.7C753.7,310.7 755.6,311.1 756.8,312.5C758,313.9 758.2,314.3 759.1,315C760.1,315.8 761.8,316.6 763.8,315.2C765.7,313.8 767.3,314.6 768.1,315.2C768.9,315.8 768.9,318.1 770,318.1C771.1,318.1 771.7,318.9 772.9,317.7C774.1,316.5 775.4,316.3 776.6,316.7C777.8,317.1 778.3,318.1 779.9,316.9C781.5,315.7 781.6,314.9 782.6,315.9C783.6,316.9 785.1,314.9 785.9,316.1C786.7,317.3 788.2,318.5 789.4,318.5C790.6,318.5 791.9,318.1 792.5,317.1C793.1,316.1 795.6,315.3 797.3,317.1C799,318.9 800.6,320.6 800.6,320.6C800.6,320.6 802.2,322.4 802.7,320.8C803.3,319.2 803.9,318.8 805,319.2C806.2,319.6 807.7,319.4 806.9,321C806.1,322.6 806.1,324.7 806.1,325.7C806.1,326.7 806.3,332 805.3,332.8C804.3,333.6 803.6,336.5 803.6,337.5C803.6,338.5 805,344 804,344.9C803,345.9 803,347.4 803.2,348.2C803.4,349 803.6,352.3 802.4,353.3C801.2,354.3 800.5,356.6 800.5,357.6C800.5,358.6 803.6,364.3 803.6,364.3C803.6,364.3 805.2,369.2 805.5,370C805.9,370.8 807.4,375.5 807.1,376.5C806.7,377.5 806.1,380.2 806.1,380.2C806.1,380.2 805.5,383.7 806.9,384.1C808.3,384.5 809.4,383.9 810,382.7C810.6,381.5 811.4,379.4 812.7,379.8C814.1,380.2 815,381.6 814.3,381.8C813.5,382 812.9,385.1 812.9,385.1L812.7,387.3C812.7,387.3 815.6,385.3 815.6,387.1C815.6,388.9 816,391.5 816,391.5" style="fill:none;stroke:rgb(50,50,50);stroke-width:2px;"/>
            </g>
        </g>
        <g transform="matrix(1,0,0,1,496,225)">
            <text x="0px" y="0px" style="font-family:'ArialMT', 'Arial', sans-serif;font-size:20px;fill:white;">3<tspan x="11.323px 22.646px 33.969px " y="0px 0px 0px ">27k</tspan></text>
        </g>
        <g transform="matrix(1,0,0,1,543.28,225)">
            <text x="0px" y="0px" style="font-family:'ArialMT', 'Arial', sans-serif;font-size:20px;fill:white;">m</text>
        </g>
        <g transform="matrix(1,0,0,1,466,261)">
            <text x="0px" y="0px" style="font-family:'MalgunGothic', 'Malgun Gothic', sans-serif;font-size:15px;fill:rgb(40,40,40);"></text>
        </g>
        <g transform="matrix(1,0,0,1,794,283)">
            <text x="0px" y="0px" style="font-family:'MalgunGothic', 'Malgun Gothic', sans-serif;font-size:15px;fill:rgb(40,40,40);"></text>
        </g>
        <g transform="matrix(1,0,0,1,145.375,130)">
            <text x="0px" y="0px" style="font-family:'MalgunGothic', 'Malgun Gothic', sans-serif;font-size:15px;fill:rgb(40,40,40);"></text>
        </g>
        <g transform="matrix(1,0,0,1,931,392)">
            <text x="0px" y="0px" style="font-family:'MalgunGothic', 'Malgun Gothic', sans-serif;font-size:15px;fill:rgb(40,40,40);"></text>
        </g>
        <g transform="matrix(1,0,0,1,248,23)">
            <text x="0px" y="0px" style="font-family:'MalgunGothic', 'Malgun Gothic', sans-serif;font-size:20px;fill:white;"><tspan x="20.2px 40.4px " y="0px 0px "></tspan></text>
        </g>
        <g transform="matrix(1,0,0,1,696,235)">
            <text x="0px" y="0px" style="font-family:'MalgunGothic', 'Malgun Gothic', sans-serif;font-size:20px;fill:white;"><tspan x="20.2px " y="0px "></tspan></text>
        </g>
    </g>
    <path id="line-journey" d="M302,65.1L301.9,65.5L301.9,66.2L302,66.3L302,68.5L301.9,68.7L302,68.8L302,69.9L301.9,70.1L301.9,70.4L301.8,70.6L301.8,71L301.7,71.1L301.6,71.3L301.5,71.5L301.4,71.7L301.3,71.9L301.2,72L301,72.2L300.7,72.4L300.4,72.6L300,72.9L300,72.7L300.2,72.9L300.3,73.1L300.5,73.3L300.7,73.7L301.1,74.2L301.2,74.4L301.6,75L301.8,75.2L302,75.3L302.5,75.7L302.7,75.8L303.7,76.4L304.1,76.6L304.7,76.7L305.3,76.9L305.7,77L306.3,77L306.9,76.9L308.9,76.9L309.4,77L309.8,77.1L310.1,77.3L310.5,77.4L311.1,77.5L311.6,77.6L312.2,77.7L312.7,77.6L313.1,77.4L313.6,77.1L314.2,77.1L314.5,77.2L314.7,77.4L314.9,77.5L315.3,78.3L315.7,78.7L316.1,78.9L316.4,79.1L317.1,79.3L317.9,79.5L319.5,79.5L320.4,79.4L322.5,79.3L323.9,79.3L324.8,79.2L325.4,79.2L325.9,79L326.2,78.9L326.5,78.8L326.7,78.6L327,78.5L327.3,78.3L327.6,78.1L327.9,78L328.5,77.9L329.1,77.9L329.4,78.1L329.8,78.2L330.5,78.6L330.8,78.7L331.3,78.9L331.9,79.1L333,79.5L333.5,79.7L334.4,80L335.4,80.3L336.3,80.6L337.4,81L339.1,81.6L339.5,81.8L340.1,82L341.1,82.5L342,82.8L343.3,83.2L343.7,83.3L345.8,84L346.5,84.2L347.9,84.7L348.4,84.9L348.9,85L349.6,85.4L350.1,85.6L350.6,85.9L351.4,86.4L352.1,86.8L352.3,86.9L352.9,87.3L353.2,87.4L353.6,87.7L355.3,88.7L355.6,88.8L356.5,89.4L357.1,89.7L357.7,90.1L358,90.2L359.3,90.9L360.1,91.4L360.5,91.6L360.9,91.7L361.9,92.1L363.8,92.8L364.2,92.9L364.7,93.1L365.2,93.4L365.5,93.6L365.7,93.7L366.2,94.2L366.4,94.3L366.8,94.7L367.1,94.8L367.5,95L368,95.2L368.4,95.3L369.1,95.5L369.9,95.6L371.6,96L372.3,96.1L372.9,96.1L373.4,96L374.1,95.9L374.6,95.7L375.4,95.4L375.7,95.2L376.2,95.1L376.9,95L378.3,95L379.2,95.1L379.9,95.1L380.8,95.2L382.7,95.3L384.1,95.3L385.5,95.4L386.1,95.5L386.7,95.5L387.4,95.7L388.3,95.8L388.9,96L389.6,96.2L389.9,96.3L390.5,96.6L391,96.8L392.2,97.4L395.1,99L395.7,99.4L398.8,101.1L399.3,101.4L400,101.8L400.2,101.9L400.4,102.1L400.8,102.2L401.4,102.6L401.6,102.8L401.8,102.9L402,103.1L402.1,103.3L402.3,103.6L402.4,103.8L402.6,104L402.6,104.1L402.7,104.3L402.8,104.6L403.1,105.4L403.1,105.5L403.2,105.8L403.3,106L403.4,106.1L403.6,106.5L404,106.9L404.1,107.1L404.4,107.3L404.8,107.5L405,107.7L405.4,107.8L405.9,108L406.2,108.2L406.8,108.4L408.5,109.1L408.9,109.2L409.5,109.4L409.9,109.6L410.5,109.8L411.3,110.1L412.2,110.3L412.5,110.4L412.6,110.6L412.9,110.7L413.1,110.5L413.5,110.4L414,110.6L414.4,110.8L414.4,110.5L414.4,110.3L414.4,110.2L414.5,109.9L414.5,109.7L414.6,109.5L414.7,109.2L414.8,108.8L414.8,108.6L414.8,108.5L414.6,108.2L414.5,108L414.5,107.9L414.9,107.2L415.1,106.9L415.1,106.8L415.2,106.6L415.2,106.4L415.2,106.2L415.3,106L415.3,105.9L415.4,105.7L415.5,105.6L415.5,105.4L415.7,105.2L416,105L416.2,104.9L416.3,104.7L416.4,104.5L416.5,104.2L416.6,104.1L416.7,103.9L417,103.7L417.2,103.6L417.3,103.4L417.4,103.1L417.5,102.9L417.6,102.8L417.9,102.6L418.2,102.3L418.4,102.1L418.6,101.9L418.7,101.8L418.9,101.6L419.1,101.4L419.4,101.2L419.5,101L419.6,100.8L419.7,100.6L419.9,100.5L420.1,100.3L420.3,100.2L420.5,100L420.6,99.8L420.8,99.6L421,99.5L421.2,99.3L421.3,99.2L421.6,99L421.8,98.9L421.9,98.7L422.2,98.4L422.3,98.2L422.4,98.1L422.7,98L423.1,97.8L423.7,97.8L424,97.6L424.5,97.5L424.8,97.6L424.9,97.8L425.1,98L425.4,98.2L425.8,98.4L426.4,98.6L426.8,98.8L427.3,99L427.7,99.1L428.2,99.3L428.7,99.4L429.4,99.5L430,99.5L430.9,99.6L431.7,99.7L432.3,99.9L432.7,100L433.4,100.2L433.9,100.3L435,100.6L435.5,100.6L435.7,100.5L436.3,99.9L436.7,99.6L438.1,99L438.5,98.8L438.8,98.6L439,98.5L439.2,98.3L440.3,97.6L440.5,97.4L441,96.9L441.9,96.1L442.1,95.9L442.4,95.8L442.7,95.6L443,95.4L443.1,95.2L443.3,95.1L443.9,94.5L444.1,94.3L444.3,94.1L444.7,93.9L444.9,93.7L445.4,93.7L446,93.6L446.3,93.5L446.6,93.2L446.9,93L447.1,92.8L447.3,92.7L447.5,92.5L447.7,92.4L448,92.2L448.3,92L448.4,91.9L448.6,91.7L449,91.3L449.4,90.9L450.1,90.1L450.3,89.9L450.8,89.8L451.7,89.8L451.9,89.6L452.4,89.2L453,88.9L454.2,88.4L454.7,88.2L455.1,88.1L455.7,87.9L456.8,87.6L457.7,87.4L458.7,87.2L459.4,87L460,86.9L460.9,86.7L461.7,86.5L462.2,86.3L464.3,85.8L464.7,85.7L465.5,85.6L466.4,85.3L466.8,85.2L467.4,85.1L468,84.9L468.4,84.8L469.2,84.7L469.7,84.5L470.8,84.3L471.5,84.1L472.4,83.9L473.2,83.8L473.7,83.7L473.9,83.6L474.3,83.3L474.8,83.4L475.4,83.2L476,83.1L476.5,83L477.1,82.9L477.8,82.9L480.3,83.4L481.1,83.6L481.7,83.8L482.2,84L483.1,84.3L483.6,84.5L484.3,84.7L485.3,85L486.5,85.4L486.9,85.5L486.1,86.7L486.1,86.6L487.1,86.1L487.2,86.1L487.2,86L487.3,85.9L487.4,85.8L487.5,85.9L487.6,85.9L487.8,86L487.9,86L488.5,86.3L488.6,86.4L488.7,86.4L488.9,86.5L489,86.6L489.1,86.6L489.3,86.7L489.4,86.7L490,86.9L491.4,87.1L492,87.3L492.3,87.3L493.4,87.6L494,87.7L494.4,87.8L494.8,87.8L495.8,88L496.4,88.1L498.4,88.1L499.2,88.2L499.3,88.2L499.4,88.3L499.9,88.3L500.2,88.4L500.3,88.4L501,88.6L501.9,88.7L502,88.8L502.6,88.8L503,88.9L503.6,88.9L504,89L506.7,89L506.9,88.9L508.6,88.9L508.9,88.8L509.6,88.8L509.7,88.7L510.3,88.7L510.8,88.6L512.1,88.6L512.8,88.7L513.2,88.7L513.3,88.8L514.6,89.1L514.8,89.1L514.9,89.2L515.3,89.3L516.2,89.5L516.3,89.5L516.4,89.6L516.6,89.7L517.5,90.3L517.7,90.4L517.7,90.5L517.9,90.5L518.1,90.7L518.3,90.8L518.4,90.8L518.6,91L518.7,91L518.7,91.2L518.8,91.2L518.8,91.3L518.9,91.3L519,91.4L519.1,91.4L519.3,91.5L519.5,91.7L519.6,91.7L519.6,91.8L520,92.2L520.1,92.2L520.1,92.3L520.3,92.6L520.6,93.1L520.7,93.2L520.8,93.2L521.1,93.7L521.2,93.8L521.5,94L522.1,94.6L522.2,94.8L522.4,95L522.6,95.3L522.7,95.4L522.7,95.5L522.8,95.5L522.8,95.7L523.3,96.2L523.3,96.3L523.4,96.4L523.5,96.4L523.5,96.5L523.6,96.5L523.7,96.6L523.7,96.7L523.8,96.8L524,97.1L524.2,97.2L524.7,97.7L525,97.9L525,98L525.9,98.9L526,99.1L526.1,99.1L526.1,99.2L526.3,99.5L526.5,99.7L526.7,100L526.8,100L526.8,100.1L526.9,100.1L527.4,100.6L527.8,100.8L527.8,100.9L527.9,100.9L528.1,101L528.3,101L528.6,101.3L528.7,101.3L528.8,101.4L529.1,101.6L529.1,101.7L529.2,101.7L529.5,101.9L529.8,102.2L530,102.3L530.3,102.5L530.3,102.6L530.6,102.7L530.7,102.8L530.8,102.8L531.1,102.9L531.2,103L531.4,103L531.5,103.1L532.1,103.2L532.1,103.3L532.3,103.3L532.6,103.5L532.6,103.6L532.7,103.7L532.8,103.7L532.9,103.8L533.1,103.8L533.4,104L533.6,104.1L533.7,104.1L533.9,104.2L534,104.3L534.1,104.3L534.6,104.5L534.7,104.5L534.7,104.4L534.9,104.4L535,104.3L535.1,104.3L535.3,104.2L535.5,104.1L535.7,104L535.8,103.9L537.4,103.9L537.8,104L537.9,104L538.1,104.1L539.1,104.1L539.4,104.2L539.9,104.2L540.9,104.3L541.7,104.3L541.8,104.4L542,104.4L542.4,104.7L542.5,104.7L542.5,104.8L542.6,104.8L543.3,105L543.4,105.1L543.6,105.1L543.8,105.2L544,105.2L544.6,105.4L544.7,105.5L544.9,105.5L546,105.7L546.4,105.8L546.5,105.9L546.9,105.9L547,106L547.2,106L547.2,106.1L547.8,106.1L548.3,106.2L548.4,106.2L548.7,106.3L549.1,106.3L549.5,106.2L550.7,106.2L551.1,106.3L551.5,106.3L551.9,106.2L552.2,106.2L552.5,106.1L552.7,106.1L552.9,106L553,105.9L553.2,105.8L553.4,105.7L553.5,105.6L553.8,105.6L553.9,105.5L554.1,105.5L554.1,105.6L554.4,105.6L554.6,105.8L554.7,105.8L554.9,106L554.9,106.1L555,106.2L555,106.6L555.1,106.7L555.1,109.4L555.2,110.8L555.2,113L555.3,113.2L555.3,113.5L555.4,113.7L555.4,113.9L555.5,114.1L555.6,114.2L555.6,114.4L555.8,114.6L556.2,115.3L556.5,115.8L556.7,116.1L556.8,116.2L556.9,116.4L556.9,116.5L557,116.5L557.2,116.8L557.7,117.3L557.8,117.3L557.9,117.4L558,117.4L558,117.7L558.1,117.7L558.1,117.8L558.2,117.8L558.2,118.1L558.3,118.3L558.4,118.7L558.5,118.8L558.5,118.9L558.6,119.2L558.6,119.5L558.8,120.3L558.8,120.5L558.9,120.5L558.9,120.6L559.1,120.8L559.3,120.8L559.3,120.9L559.9,120.9L560.4,121L560.7,121L560.9,121.1L561.1,121.1L561.1,121.2L561.2,121.2L561.4,121.4L561.4,121.5L561.5,121.7L562.4,123.1L562.5,123.2L562.8,123.4L563,123.5L563.3,123.8L563.4,123.8L564.4,124.5L565.2,125.2L565.3,125.2L565.4,125.3L565.8,125.3L565.9,125.4L566.1,125.4L566.3,125.6L566.5,125.6L566.7,125.8L567.3,126L567.4,126L567.5,126.1L567.8,126.3L568.1,126.6L568.2,126.6L568.2,126.7L568.4,126.8L568.5,126.9L568.5,127L568.6,127L568.6,127.1L568.8,127.5L568.8,127.6L569,127.8L569.2,128.2L569.2,128.3L569.3,128.6L569.4,128.7L569.5,129.1L569.5,129.4L569.6,129.5L569.6,130.4L569.5,130.6L569.5,130.9L569.4,131L569.4,131.1L569.3,131.2L569.3,131.4L569.2,131.7L569.2,132.5L569.3,132.5L569.3,133.9L569.2,134.3L569.2,135.6L569.3,135.8L569.3,135.9L569.4,136.4L569.4,136.7L569.5,136.8L569.5,137L569.6,137.3L569.6,137.4L569.7,137.6L569.7,137.8L569.8,137.9L570,138.4L570,138.5L570.3,139L571.3,141.3L571.9,142.5L571.9,142.6L572.8,144.5L573.1,144.8L573.2,144.8L573.3,144.9L573.8,145.3L573.9,145.3L573.9,145.5L574,145.5L574,145.6L574.1,145.8L574.3,146.3L574.4,146.5L574.5,146.8L574.5,146.9L574.6,147L574.6,147.1L574.7,147.2L574.7,147.3L574.8,147.5L574.8,147.6L574.9,147.6L574.9,147.7L575,147.8L575.3,148L575.4,148L575.7,148.2L575.8,148.2L575.9,148.3L575.9,148.4L576.4,148.9L576.4,149L576.5,149.1L576.6,149.1L576.9,149.5L576.9,149.6L577.2,149.9L577.4,150.2L578.1,150.9L578.2,150.9L578.2,151L578.3,151.1L578.5,151.1L578.9,151.3L579.2,151.5L579.7,151.7L579.9,151.8L580.1,151.8L580.3,152L580.5,152L580.5,152.1L580.6,152.2L580.6,152.3L580.7,152.4L580.7,152.5L580.8,152.6L581,153.1L581.2,153.4L581.3,153.5L581.3,153.6L581.5,154L582.3,155.5L582.3,155.6L582.5,155.9L582.6,156L582.8,156.5L582.9,156.6L583,156.8L583,156.9L583.1,157.2L583.2,157.2L583.2,157.3L583.3,157.4L583.3,157.6L583.4,157.7L583.4,157.9L583.5,158L583.5,158.6L583.6,158.8L583.8,159.4L583.8,159.6L583.9,159.8L583.9,160.1L584,160.1L584,160L584,159.9L583.9,159.9L583.9,159.8L583.9,159.6L583.8,159.5L583.8,159.4L583.8,159.3L583.7,159.1L583.8,159L586.7,159L587.4,159.1L587.9,159.1L588,159.2L588.2,159.2L588.6,159.3L589,159.3L589.3,159.4L589.6,159.4L590.1,159.6L591.3,159.8L591.9,160L592.1,160L592.6,160.1L592.7,160.1L592.9,160.2L593.3,160.3L593.5,160.5L593.7,160.5L593.8,160.7L594.3,161L594.4,161L594.5,161.1L594.7,161.2L594.8,161.4L595,161.5L595.2,161.7L595.3,161.7L596.2,162.4L596.5,162.7L596.6,162.7L596.8,162.9L596.9,162.9L597.2,163.2L597.6,163.4L597.6,163.5L597.7,163.5L598.2,164L598.4,164.4L598.5,164.4L598.6,164.7L598.8,164.9L598.8,165L598.9,165.1L598.9,165.2L599.1,165.5L599.7,167.3L600,168L600.1,168.1L600.6,169.5L600.9,170.1L600.9,170.3L601.1,170.6L601.2,170.8L601.2,171L601.6,171.6L601.7,171.9L601.8,172.1L602.3,172.6L602.5,172.9L603.1,173.5L603.3,173.6L603.5,173.8L603.6,173.8L604.1,174.1L604.2,174.2L604.5,174.3L604.6,174.4L604.7,174.4L604.8,174.5L604.9,174.5L605.3,174.7L605.5,174.7L605.7,174.8L606,174.8L606.3,174.9L606.4,174.9L606.9,175L607.7,175L608,175.1L608.5,175.1L608.9,175.2L609,175.3L609.4,175.4L609.7,175.5L610.2,175.6L610.6,175.8L610.9,176L613.6,177.4L613.9,177.6L614.2,177.7L614.3,177.8L614.6,177.9L618.9,179.5L619,179.5L619.2,179.6L619.5,179.7L620,179.8L620.1,179.8L620.4,179.9L620.5,180L620.6,180L620.8,180.2L620.9,180.2L621.1,180.4L621.2,180.4L621.2,180.5L621.4,180.7L621.5,180.9L621.6,181L621.6,181.2L621.8,181.6L621.9,182.2L622,182.6L622.1,183.1L622.3,183.5L622.3,183.6L622.4,183.8L622.6,184.4L623.2,185.3L624.1,186.2L624.7,186.5L625,186.7L625.6,186.9L625.8,187L625.9,187.1L626,187.1L626,187.2L626.1,187.2L626.5,187.6L626.5,187.7L626.6,187.8L627,188.4L627,188.5L627.1,188.6L627.2,188.6L627.9,189.3L628.1,189.4L628.2,189.5L630.7,191.6L631,191.9L631.5,192.3L633.1,193.7L633.5,194.1L633.8,194.2L634.1,194.5L634.3,194.6L634.5,194.6L634.6,194.7L636.1,195.4L636.4,195.6L637,195.9L637.3,196L637.4,196L637.8,196.2L637.9,196.2L638.1,196.3L638.4,196.3L638.4,196.4L638.9,196.4L640.5,196.6L640.7,196.7L642.2,196.8L644.6,196.9L644.7,196.9L645.5,197L645.9,197L648.3,197.2L651.6,197.4L652.1,197.4L653.8,197.5L653.9,197.5L654.6,197.6L655.2,197.6L656.9,197.7L657.5,197.7L657.6,197.6L657.8,197.6L658.6,197.3L658.9,197.1L659.9,197.1L660.1,197.3L660.3,197.4L660.6,197.6L660.7,197.7L660.9,197.8L661.1,198L661.5,198.2L661.8,198.2L661.9,198.3L662.6,198.3L662.9,198.4L665,198.4L666.2,198.2L666.6,198.2L667.2,198.1L669.6,198.1L670.3,198.2L670.6,198.3L671,198.4L671.7,198.6L672.8,199L673.2,199.1L673.6,199.3L674.2,199.4L674.7,199.5L675.1,199.6L675.8,199.6L677.7,199.7L682.8,199.7L684,199.6L684.4,199.6L684.6,199.5L685.8,199.4L687.7,199.1L688,199.1L688.9,199.2L689.4,199.2L690,199L690.4,198.8L690.7,198.7L690.9,198.7L691.2,198.6L692,198.4L692.2,198.3L692.3,198.3L692.9,198.2L693.6,198.2L693.8,198.1L698.7,198.1L700.4,197.9L701.1,197.8L701.7,197.8L701.8,197.9L701.9,197.9L702.1,198.1L702.2,198.1L702.2,198L702.3,198L702.4,197.8L702.4,197.7L702.4,197.5L702.5,197.5L702.7,196.6L702.8,196.4L702.9,195.8L703,195.2L703,194.5L703.1,194.1L703.1,194L703.6,194L703.8,194.1L704.4,194.1L704.6,194.2L705.1,194.2L705.3,194.3L706,194.3L706.4,194.4L706.9,194.4L707.1,194.3L707.8,194.3L708.2,194.2L708.4,194.2L708.5,194.1L708.8,194.1L708.9,194L709.3,194L709.4,193.9L709.8,193.8L710,193.8L710.1,193.7L710.3,193.7L710.5,193.6L710.7,193.6L710.9,193.5L711,193.4L711.3,193.3L711.5,193.3L711.6,193.2L711.7,193.2L711.8,193.1L711.9,193L712.1,193L712.3,192.8L712.5,192.8L712.5,192.7L712.8,192.6L713.1,192.5L713.2,192.5L713.2,192.9L713.3,193L713.3,193.2L713.4,193.2L713.4,193.3L713.5,193.4L713.7,193.5L713.8,193.5L714,193.6L714.1,193.6L714.2,193.7L714.4,193.7L714.4,193.9L714.3,194L714.3,194.3L714.2,194.6L714.1,194.6L714,194.6L714,194.5" style="fill:none;stroke:rgb(199,27,10);stroke-width:3px;stroke-linecap:round;"/>
    <path id="react-j-end" d="M708.2,202.3L720.6,202.3L720.6,189.8L708.2,189.8L708.2,202.3Z" style="fill-rule:nonzero;"/>
    <path id="rect-j-start" d="M294.2,71.3L306.6,71.3L306.6,58.9L294.2,58.9L294.2,71.3Z" style="fill-rule:nonzero;"/>
</svg>
