<?xml version="1.0" encoding="UTF-8" standalone="no"?>
<!DOCTYPE svg PUBLIC "-//W3C//DTD SVG 1.1//EN" "http://www.w3.org/Graphics/SVG/1.1/DTD/svg11.dtd">
<svg width="100%" height="100%" viewBox="0 0 279 150" version="1.1" xmlns="http://www.w3.org/2000/svg" xmlns:xlink="http://www.w3.org/1999/xlink" xml:space="preserve" style="fill-rule:evenodd;clip-rule:evenodd;stroke-linecap:round;stroke-linejoin:round;">
    <g id="map2-m" transform="matrix(1,0,0,1,0,-6)">
        <g transform="matrix(1,0,0,1,97,116)">
            <text x="0px" y="0px" style="font-family:'ArialMT', 'Arial', sans-serif;font-size:20px;fill:white;">3<tspan x="11.323px 22.646px 33.969px " y="0px 0px 0px ">27k</tspan></text>
        </g>
        <g transform="matrix(1,0,0,1,144.28,116)">
            <text x="0px" y="0px" style="font-family:'ArialMT', 'Arial', sans-serif;font-size:20px;fill:white;">m</text>
        </g>
        <g transform="matrix(1,0,0,1,0,23)">
            <text x="0px" y="0px" style="font-family:'MalgunGothic', 'Malgun Gothic', sans-serif;font-size:20px;fill:white;">雅<tspan x="20.2px 40.4px " y="0px 0px ">加達</tspan></text>
        </g>
        <g transform="matrix(1,0,0,1,239,154)">
            <text x="0px" y="0px" style="font-family:'MalgunGothic', 'Malgun Gothic', sans-serif;font-size:20px;fill:white;">直<tspan x="20.2px " y="0px ">葛</tspan></text>
        </g>
    </g>
    <path id="line-journey" d="M22.5,38.2L22.5,40.2L22.4,40.3L22.5,40.4L22.5,41.2L22.4,41.3L22.4,41.7L22.3,41.8L22.3,41.9L22.2,42.1L22.1,42.2L22.1,42.3L22,42.3L21.9,42.5L21.7,42.6L21.6,42.7L21.3,42.9L21.3,42.8L21.6,43.1L21.6,43.2L21.7,43.3L22,43.7L22,43.8L22.3,44.1L22.4,44.3L22.5,44.3L22.8,44.5L22.9,44.6L23.5,45L24.1,45.2L24.5,45.3L26.9,45.3L27.2,45.4L27.3,45.5L27.6,45.6L27.9,45.6L28.2,45.7L28.9,45.7L29.2,45.6L29.5,45.4L29.8,45.4L30,45.5L30.3,45.8L30.4,45.8L30.4,46L30.6,46.2L30.7,46.4L30.9,46.5L31.2,46.6L31.6,46.7L32,46.9L32.4,46.9L33,46.8L33.5,46.8L34.8,46.7L36.1,46.7L36.5,46.6L36.8,46.6L37,46.5L37.2,46.4L37.3,46.3L37.5,46.2L37.6,46.1L37.8,46L38,45.9L38.7,45.9L39,46L39.1,46.1L39.6,46.3L39.8,46.4L40.4,46.6L41.1,46.8L41.4,46.9L41.9,47.1L43.7,47.7L44.8,48.1L45,48.2L45.3,48.3L45.9,48.6L46.3,48.7L46.5,48.8L47.2,49.1L47.5,49.1L48.8,49.5L49.2,49.7L50,49.9L50.6,50.1L51.1,50.4L51.3,50.5L51.6,50.7L52.1,50.9L52.5,51.2L52.7,51.3L52.8,51.4L53.4,51.7L54.5,52.3L54.7,52.4L55.2,52.7L55.5,52.9L55.7,53L55.9,53.2L56.1,53.3L56.8,53.7L57.3,53.9L57.6,54.1L57.8,54.2L58.4,54.4L59.5,54.8L60.4,55.1L60.8,55.5L61,55.6L61.1,55.7L61.3,55.8L61.5,56L62.1,56.2L62.3,56.3L62.7,56.4L63.2,56.5L64.3,56.7L64.7,56.8L65,56.8L65.3,56.7L65.7,56.7L66,56.5L66.5,56.3L66.7,56.3L67,56.2L67.4,56.1L68.3,56.1L68.8,56.2L69.7,56.2L70.9,56.3L71.8,56.3L72.5,56.4L73.3,56.4L73.7,56.5L74.2,56.6L75,56.8L75.6,57.1L76.2,57.3L76.6,57.6L78.3,58.5L78.7,58.7L80.5,59.8L80.9,60L81.2,60.2L81.4,60.3L81.5,60.3L81.7,60.5L82.1,60.7L82.5,61.1L82.7,61.2L82.7,61.4L82.8,61.5L82.8,61.6L83,61.8L83.1,62.3L83.1,62.4L83.2,62.6L83.2,62.7L83.4,62.9L83.4,63L83.5,63.1L83.7,63.2L83.8,63.3L83.9,63.5L84.5,63.8L84.8,63.9L85,64L85.4,64.1L86.4,64.5L86.6,64.6L86.9,64.8L87.2,64.9L88,65.1L88.6,65.3L88.8,65.4L88.9,65.5L89,65.5L89.1,65.4L89.4,65.4L89.6,65.5L89.9,65.6L89.9,65.4L89.9,65.3L89.9,65.2L90,65.1L90,64.9L90,64.8L90.1,64.6L90.1,64.4L90.1,64.3L90.1,64.2L90,64L90,63.9L90,63.8L90.2,63.4L90.3,63.3L90.3,63.2L90.4,63.1L90.4,62.9L90.4,62.8L90.4,62.7L90.5,62.6L90.5,62.5L90.6,62.3L90.7,62.2L90.9,62.1L91,62L91.1,61.9L91.1,61.8L91.2,61.6L91.2,61.5L91.3,61.4L91.4,61.3L91.6,61.3L91.6,61.1L91.7,61L91.7,60.9L91.8,60.8L92,60.7L92.2,60.5L92.3,60.4L92.4,60.3L92.5,60.2L92.6,60.1L92.7,60L92.9,59.8L93,59.7L93,59.6L93.1,59.5L93.2,59.4L93.3,59.3L93.4,59.2L93.5,59.1L93.6,59L93.8,58.9L93.9,58.8L94,58.7L94.1,58.6L94.2,58.5L94.3,58.4L94.4,58.4L94.6,58.1L94.6,58L94.7,58L94.9,57.9L95.1,57.8L95.5,57.8L95.7,57.7L95.9,57.6L96.1,57.7L96.3,57.9L97.3,58.4L97.7,58.5L97.9,58.6L98.5,58.8L99.3,58.8L99.8,58.9L100.3,58.9L100.9,59.1L101.3,59.2L101.6,59.3L102.3,59.4L102.6,59.5L102.7,59.4L103,59.1L103.3,58.9L104.1,58.5L104.4,58.4L104.5,58.3L104.6,58.2L104.8,58.1L105.4,57.6L105.5,57.5L105.9,57.2L106.4,56.8L106.5,56.7L106.7,56.6L106.9,56.5L107,56.3L107.1,56.2L107.2,56.2L107.6,55.8L107.7,55.7L107.8,55.6L108,55.4L108.2,55.4L108.5,55.3L108.9,55.3L109,55.2L109.2,55L109.4,54.9L109.5,54.8L109.6,54.7L109.8,54.6L109.9,54.6L110.1,54.4L110.2,54.3L110.3,54.3L110.4,54.1L110.6,53.9L110.9,53.6L111.3,53.2L111.4,53.1L111.8,53L112.3,53L112.4,52.9L112.7,52.6L113,52.5L113.8,52.2L114.1,52L114.3,52L114.6,51.9L115.3,51.7L115.9,51.6L116.5,51.4L116.9,51.3L117.2,51.3L117.8,51.1L118.3,51L118.6,50.9L119.8,50.6L120,50.6L120.5,50.5L121.1,50.3L121.4,50.3L121.7,50.2L122,50.1L122.3,50L122.7,49.9L123,49.8L123.7,49.7L124.1,49.6L124.7,49.5L125.2,49.4L125.5,49.4L125.6,49.3L125.8,49.1L126.1,49.2L126.5,49.1L126.8,49L127.2,48.9L128.2,48.9L128.5,49L129.1,49.1L129.4,49.2L129.9,49.3L130.3,49.4L130.6,49.5L131.1,49.7L131.4,49.8L131.8,50L132.4,50.1L133.1,50.4L133.4,50.5L132.9,51.1L133.5,50.8L133.6,50.8L133.6,50.7L133.6,50.6L133.8,50.7L133.9,50.7L134.3,50.9L134.4,51L134.6,51L134.6,51.1L134.8,51.1L134.9,51.2L135.3,51.2L136.1,51.4L136.4,51.5L136.6,51.5L137.3,51.7L137.6,51.7L137.9,51.8L138.1,51.8L138.7,51.9L139.1,52L140.2,52L140.8,52.1L141.2,52.1L141.4,52.2L142.4,52.4L143,52.4L143.1,52.5L146.1,52.5L146.4,52.4L147.1,52.4L147.4,52.3L148.9,52.3L149.1,52.4L149.2,52.4L150,52.6L150.1,52.6L150.4,52.7L150.9,52.8L151,52.8L151,52.9L151.2,52.9L151.2,53L151.7,53.3L151.8,53.4L151.9,53.4L152,53.5L152.1,53.5L152.2,53.6L152.3,53.6L152.5,53.8L152.5,53.9L152.7,53.9L152.7,54L152.8,54L153.4,54.6L153.6,55L153.7,55L153.7,55.1L153.9,55.3L153.9,55.4L154,55.4L154.7,56.1L154.8,56.3L154.8,56.4L154.9,56.4L154.9,56.5L155.1,56.7L155.2,56.9L155.3,56.9L155.3,57L155.4,57L155.4,57.1L155.8,57.5L155.9,57.5L155.9,57.6L156.1,57.7L156.2,57.9L156.3,57.9L156.4,58.1L156.5,58.1L156.5,58.2L156.8,58.5L156.8,58.6L156.9,58.6L157,58.8L157.3,59.1L157.3,59.2L157.4,59.2L157.7,59.5L157.8,59.5L158,59.7L158.2,59.7L158.2,59.8L158.3,59.8L158.4,59.9L158.5,59.9L158.5,60L158.7,60.1L158.9,60.3L159,60.3L159.2,60.5L159.4,60.6L159.4,60.7L159.6,60.7L159.6,60.8L159.7,60.8L159.9,60.9L160.1,60.9L160.1,61L160.5,61.1L160.6,61.1L160.8,61.2L160.8,61.3L160.9,61.3L161,61.4L161.1,61.4L161.3,61.5L161.4,61.5L161.4,61.6L161.5,61.6L161.6,61.7L161.7,61.7L162,61.8L162.1,61.8L162.2,61.7L162.3,61.7L162.4,61.6L162.5,61.5L162.7,61.5L162.9,61.4L163.7,61.4L163.9,61.5L164.1,61.5L164.3,61.6L165.2,61.6L165.7,61.7L166.3,61.7L166.4,61.8L166.6,61.9L166.7,62L166.8,62L167.2,62.1L167.3,62.2L167.6,62.2L168,62.4L168.2,62.4L168.8,62.5L169,62.6L169.1,62.6L169.3,62.7L169.7,62.7L169.8,62.8L170.2,62.8L170.4,62.9L170.7,62.9L170.9,62.8L171.7,62.8L171.9,62.9L172.1,62.9L172.4,62.8L172.8,62.8L172.9,62.7L173,62.7L173.1,62.6L173.2,62.6L173.3,62.5L173.4,62.5L173.5,62.4L173.7,62.4L173.8,62.5L173.9,62.5L174,62.6L174.1,62.6L174.1,62.7L174.2,62.7L174.2,63.3L174.3,63.3L174.3,66.7L174.4,66.7L174.4,67.3L174.5,67.4L174.5,67.6L174.6,67.6L174.6,67.7L174.9,68.3L175.1,68.6L175.2,68.8L175.3,68.8L175.3,68.9L175.4,69L175.5,69.2L175.7,69.4L175.8,69.4L175.9,69.5L176,69.5L176,69.7L176.1,69.7L176.1,69.9L176.2,69.9L176.2,70L176.3,70.3L176.3,70.6L176.4,70.7L176.4,70.8L176.5,71.3L176.5,71.4L176.6,71.4L176.6,71.5L176.7,71.6L177,71.6L177.1,71.7L177.7,71.7L177.8,71.8L177.9,71.8L178.1,72L178.1,72.1L178.6,72.9L178.7,72.9L178.7,73L178.9,73.1L179.2,73.4L179.3,73.4L179.8,73.8L180.4,74.2L180.5,74.2L180.6,74.3L180.9,74.3L180.9,74.4L181,74.4L181.1,74.5L181.2,74.5L181.6,74.7L181.7,74.7L181.9,74.9L182.1,75L182.1,75.1L182.2,75.2L182.3,75.2L182.3,75.3L182.4,75.4L182.5,75.6L182.6,75.7L182.7,76L182.8,76.1L182.8,76.3L182.9,76.6L182.9,76.8L183,76.8L183,77.2L182.9,77.2L182.9,77.7L182.8,77.8L182.8,77.9L182.7,78.1L182.7,78.4L182.8,78.6L182.8,79.4L182.7,79.7L182.7,80.2L182.8,80.4L182.8,80.6L182.9,80.9L182.9,81.3L183,81.5L183,81.7L183.1,81.8L183.2,82.1L183.2,82.2L183.4,82.5L184,83.9L184.1,84.1L184.2,84.2L184.2,84.3L184.4,84.6L184.9,85.7L184.9,85.8L185,85.8L185,85.9L185.1,86L185.2,86L185.5,86.2L185.5,86.3L185.6,86.3L185.6,86.4L185.7,86.5L185.8,86.8L185.8,87L185.9,87.1L185.9,87.2L186,87.3L186,87.5L186.1,87.5L186.1,87.7L186.2,87.7L186.4,87.8L186.4,87.9L186.6,88L186.7,88L187,88.3L187,88.4L187.1,88.5L187.3,88.8L187.4,88.8L187.5,89L187.7,89.2L188,89.6L188.1,89.6L188.1,89.7L188.3,89.7L188.6,89.9L189,90.1L189.1,90.1L189.2,90.2L189.4,90.2L189.5,90.3L189.5,90.4L189.6,90.4L189.6,90.6L189.7,90.6L189.8,90.9L189.9,91.1L190.1,91.3L190.1,91.5L190.6,92.4L190.7,92.6L190.7,92.7L190.9,93L191,93.1L191,93.2L191.1,93.4L191.2,93.5L191.2,93.7L191.3,93.8L191.3,94.2L191.4,94.3L191.4,94.5L191.5,94.7L191.5,95L191.6,95L191.6,95.1L191.6,95L191.5,94.9L191.5,94.8L191.5,94.7L191.5,94.6L191.4,94.5L194,94.5L194,94.6L194.4,94.6L194.6,94.7L194.9,94.7L195.3,94.8L196,95L196.3,95L196.5,95.1L196.8,95.1L196.9,95.2L197.2,95.3L197.3,95.3L197.4,95.4L197.5,95.4L197.8,95.7L197.9,95.7L198.1,95.9L198.2,95.9L198.3,96L198.3,96.1L198.4,96.1L198.9,96.5L199.1,96.6L199.3,96.8L199.4,96.8L199.5,96.9L199.5,97L199.6,97L199.8,97.1L199.8,97.2L199.9,97.2L200,97.3L200.1,97.5L200.2,97.5L200.2,97.6L200.3,97.7L200.4,97.9L200.5,98L200.5,98.1L200.6,98.2L200.6,98.4L201.2,99.9L201.6,100.8L201.7,101.1L201.8,101.2L201.8,101.4L201.9,101.5L201.9,101.7L202,101.8L202.2,102.2L202.6,102.6L202.7,102.8L202.9,102.9L202.9,103L203.1,103.1L203.2,103.2L203.2,103.3L203.3,103.3L203.4,103.4L203.6,103.5L203.7,103.6L203.9,103.6L204,103.7L204.1,103.7L204.2,103.8L204.4,103.8L204.5,103.9L204.6,103.9L204.8,104L205.5,104L205.8,104.1L206.3,104.1L206.5,104.2L206.6,104.2L206.8,104.3L207,104.3L207.3,104.4L207.4,104.5L207.5,104.5L207.8,104.6L209.3,105.5L209.7,105.7L209.8,105.7L210,105.8L212.5,106.7L212.6,106.7L212.7,106.8L212.9,106.8L213.2,106.9L213.3,106.9L213.4,107L213.6,107L214,107.4L214,107.5L214.2,107.7L214.2,107.9L214.3,108L214.3,108.3L214.6,109.2L214.6,109.3L214.8,109.7L214.8,109.8L215,110.1L215.1,110.2L215.2,110.4L215.3,110.4L215.4,110.6L215.5,110.6L215.6,110.7L215.7,110.7L215.9,110.9L216,110.9L216.4,111.1L216.5,111.2L216.6,111.2L216.8,111.3L216.9,111.4L217,111.4L217,111.5L217.1,111.6L217.1,111.7L217.2,111.7L217.4,112.1L217.4,112.2L217.5,112.2L217.5,112.3L217.9,112.5L217.9,112.6L218,112.7L218.1,112.7L219.6,114L219.8,114.1L220.1,114.4L221.1,115.3L221.4,115.6L221.6,115.6L221.8,115.8L221.9,115.8L222.9,116.3L223,116.4L223.3,116.5L223.4,116.5L223.5,116.6L223.6,116.6L223.8,116.7L223.9,116.8L224.3,116.8L224.4,116.9L224.5,116.9L225.5,117L225.6,117L226.5,117.1L228,117.2L228.7,117.2L229.4,117.3L230.2,117.3L232.1,117.4L232.2,117.4L232.4,117.5L233.5,117.5L233.9,117.6L235.3,117.6L235.4,117.7L235.5,117.7L235.6,117.6L235.8,117.6L236.3,117.4L236.5,117.3L237.2,117.3L237.2,117.4L237.4,117.4L237.5,117.6L237.6,117.6L237.8,117.8L237.9,117.8L237.9,117.9L238.2,117.9L238.3,118L238.9,118L239.2,118.1L239.8,118.1L240.1,118L241,118L241,117.9L242.9,117.9L243.3,118L243.8,118L244.2,118.2L244.9,118.4L245.1,118.5L245.7,118.7L246,118.7L246.3,118.8L251.8,118.8L252,118.7L252.6,118.7L253.8,118.5L254.8,118.5L255.2,118.4L255.4,118.3L255.6,118.2L255.9,118.2L256.4,118.1L256.5,118L256.9,118L257.3,117.9L260.4,117.9L261.4,117.8L261.8,117.7L262.3,117.7L262.3,117.8L262.4,117.8L262.4,117.9L262.5,117.9L262.5,117.8L262.6,117.7L262.6,117.6L262.6,117.5L262.8,117L262.8,116.9L262.9,116.5L262.9,116.1L263,115.7L263,115.5L263,115.4L263.3,115.4L263.5,115.5L264,115.5L264.2,115.6L265.9,115.6L266.1,115.5L266.5,115.5L266.7,115.4L266.8,115.4L267,115.3L267.2,115.3L267.3,115.2L267.6,115.2L267.7,115.1L267.8,115.1L268,115L268.1,115L268.2,114.9L268.3,114.9L268.4,114.8L268.6,114.7L268.7,114.7L268.9,114.6L269,114.5L269.1,114.5L269.1,114.8L269.2,114.9L269.2,115L269.3,115L269.5,115.2L269.8,115.2L269.8,115.4L269.7,115.5L269.7,115.8L269.6,115.8L269.6,115.7" style="fill:none;stroke:rgb(199,27,10);stroke-width:1.8px;"/>
    <path id="rect-j-end" d="M266.1,120.4L273.5,120.4L273.5,112.9L266.1,112.9L266.1,120.4Z" style="fill:white;fill-rule:nonzero;"/>
    <path id="rect-j-start" d="M17.8,41.9L25.3,41.9L25.3,34.5L17.8,34.5L17.8,41.9Z" style="fill:white;fill-rule:nonzero;"/>
</svg>
