<?xml version="1.0" encoding="utf-8"?>
<!-- Generator: Adobe Illustrator 18.0.0, SVG Export Plug-In . SVG Version: 6.00 Build 0)  -->
<!DOCTYPE svg PUBLIC "-//W3C//DTD SVG 1.1//EN" "http://www.w3.org/Graphics/SVG/1.1/DTD/svg11.dtd">
<svg version="1.1" xmlns="http://www.w3.org/2000/svg" xmlns:xlink="http://www.w3.org/1999/xlink" x="0px" y="0px"
	 viewBox="0 0 110 119.1" enable-background="new 0 0 110 119.1" xml:space="preserve">
<g id="Layer_1">
	<g>
		<g id="icons_3_">
			<g>
				<path fill="#FFFFFF" d="M31.7,72.1c-4.9-5.6-5.6-14.5-9-18.7c-2.8-3.6-7.3-1.8-7.8,1.3c-0.8,4.8,4.4,19.1,7,23.6
					c0.7,1.1-0.5,3.2-2.5,1.4c-2-1.8-10-20.2-6.9-32.4c1.5-6-2.4-12.2-7.5-9C0,41.5-3,67.7,4.5,83c6.3,12.9,19.7,21.5,22,23
					c1.6,1,2.2,6.8,2.5,10.3c0.1,1.7,0.6,2.8,2.5,2.8c2.1,0,6.3,0,12.1,0c3,0,3.1-1.8,3.1-2.7C46.7,93.6,47.9,90.7,31.7,72.1z"/>
				<path fill="#FFFFFF" d="M78.3,72.1c4.9-5.6,5.6-14.5,9-18.7c2.8-3.6,7.3-1.8,7.8,1.3c0.8,4.8-4.4,19.1-7,23.6
					c-0.7,1.1,0.5,3.2,2.5,1.4c2-1.8,10-20.2,6.9-32.4c-1.5-6,2.4-12.2,7.5-9c5.1,3.1,8,29.3,0.5,44.7c-6.3,12.9-19.7,21.5-22,23
					c-1.6,1-2.2,6.8-2.5,10.3c-0.1,1.7-0.6,2.8-2.5,2.8c-2.1,0-6.3,0-12.1,0c-3,0-3.1-1.8-3.1-2.7C63.3,93.6,62.1,90.7,78.3,72.1z"
					/>
				<path fill="#FFFFFF" d="M70.7,0c-6.2,0-11.9,2.5-16,6.5C50.6,2.5,45,0,38.8,0C26.1,0,15.9,10.3,15.9,22.9
					c0,4.9,1.6,9.5,4.2,13.2c1,1.6,2.3,3.1,3.7,4.4l23.8,23.8c2.4,2.4,4.8,4.8,7.1,4.8c0,0,0,0,0.1,0c0,0,0,0,0.1,0
					c2.4,0,4.8-2.4,7.1-4.8l23.8-23.8c1.4-1.3,2.7-2.8,3.7-4.4c2.6-3.7,4.2-8.3,4.2-13.2C93.7,10.3,83.4,0,70.7,0z"/>
			</g>
		</g>
	</g>
</g>
<g id="Layer_2">
</g>
</svg>
