<?xml version="1.0" encoding="utf-8"?>
<!-- Generator: Adobe Illustrator 18.0.0, SVG Export Plug-In . SVG Version: 6.00 Build 0)  -->
<!DOCTYPE svg PUBLIC "-//W3C//DTD SVG 1.1//EN" "http://www.w3.org/Graphics/SVG/1.1/DTD/svg11.dtd">
<svg version="1.1" xmlns="http://www.w3.org/2000/svg" xmlns:xlink="http://www.w3.org/1999/xlink" x="0px" y="0px"
	 viewBox="0 0 110 106.4" enable-background="new 0 0 110 106.4" xml:space="preserve">
<g id="Layer_1">
	<path fill="#FFFFFF" d="M106.5,47.5h-0.2L93.5,25.4h6.7c2,0,3.5-1.6,3.5-3.5v-5c0-2-1.6-3.5-3.5-3.5H58.5V3.5c0-2-1.6-3.5-3.5-3.5
		c-1.9,0-3.5,1.6-3.5,3.5v9.8H9.8c-1.9,0-3.5,1.6-3.5,3.5v5c0,2,1.6,3.5,3.5,3.5h6.7L3.8,47.5H3.5c-1.9,0-3.5,1.6-3.5,3.5
		c0,12,9.7,21.7,21.7,21.7s21.7-9.7,21.7-21.7c0-2-1.6-3.5-3.5-3.5h-0.2L26.9,25.4h24.5v64.8H39.9c-4.5,0-8.1,3.6-8.1,8.1
		s3.6,8.1,8.1,8.1h30.1c4.5,0,8.1-3.6,8.1-8.1s-3.6-8.1-8.1-8.1H58.5V25.4h24.5L70.3,47.5h-0.2c-2,0-3.5,1.6-3.5,3.5
		c0,12,9.7,21.7,21.7,21.7c12,0,21.7-9.7,21.7-21.7C110,49.1,108.4,47.5,106.5,47.5z M11.9,47.5l9.8-17l9.8,17L11.9,47.5L11.9,47.5z
		 M88.3,30.5l9.8,17H78.4L88.3,30.5z"/>
</g>
<g id="Layer_2">
</g>
</svg>
