<?xml version="1.0" encoding="utf-8"?>
<!-- Generator: Adobe Illustrator 18.0.0, SVG Export Plug-In . SVG Version: 6.00 Build 0)  -->
<!DOCTYPE svg PUBLIC "-//W3C//DTD SVG 1.1//EN" "http://www.w3.org/Graphics/SVG/1.1/DTD/svg11.dtd">
<svg version="1.1" xmlns="http://www.w3.org/2000/svg" xmlns:xlink="http://www.w3.org/1999/xlink" x="0px" y="0px"
	 viewBox="0 0 271.1 259.3" enable-background="new 0 0 271.1 259.3" xml:space="preserve">
<g id="Layer_1">
	<g>
		<g>
			<g>
				<g>
					<g>
						<g id="XMLID_38_">
							<g>
								<path fill="#FFE3C9" d="M266.7,136.9l-8,40.2c0,0-3.5,9.1-12.5,15.7l4.3-17.8l4.2-41L266.7,136.9z"/>
								<path fill="#BDFFFF" d="M264.2,102c5.1,2.8,7.8,8.6,6.6,14.3l-4.1,20.6l-12-3l3.6-35.2l0-0.1L264.2,102z"/>
								<path fill="#00D4C7" d="M254.7,133.9l-4.2,41l-10.5,4.6c-1.3,0.6-2.8,0.9-4.2,1l-7.2,0.2l-0.2-32.5l6.5-54.6
									c1.9-1.6,3.6-3.4,5.1-5.4l18.3,10.4l0,0.1L254.7,133.9z"/>
								<path fill="#008BAD" d="M189.2,192.8l-4.3-17.9l10.5,4.6c1.3,0.6,2.8,0.9,4.2,1l7.2,0.2l10.9,0.3l10.9-0.3l7.2-0.2
									c1.4,0,2.9-0.4,4.2-1l10.5-4.6l-4.3,17.8l-12.4,51.1l0,0l-16.1,4.4l-16.1-4.4l0,0L189.2,192.8z"/>
								<path fill="#EFEFEF" d="M244.4,251.4c0.8,0.6,1.1,1.6,0.8,2.5l-1.2,3.8c-0.3,0.9-1.2,1.6-2.1,1.6h-24.2v-10.8v-0.2l16.1-4.4
									l0,0.2L244.4,251.4z"/>
								<path fill="#FFE3C9" d="M201.6,103.4c-7-1-13.4-3.8-18.8-7.8C172.7,88,166.2,76,166.2,62.4c0-22.9,18.6-41.5,41.5-41.5
									s41.5,18.6,41.5,41.5c0,9.8-3.4,18.8-9.1,25.9c-1.5,1.9-3.2,3.7-5.1,5.4c-7.3,6.4-16.8,10.2-27.3,10.2
									C205.6,103.9,203.6,103.7,201.6,103.4z"/>
								<path fill="#BDFFFF" d="M234.9,93.6l-6.5,54.6l0.2,32.5l-10.9,0.3l-10.9-0.3l0.2-32.5l-5.4-44.8c2,0.3,4,0.4,6,0.4
									C218.1,103.9,227.6,100,234.9,93.6z"/>
								<path fill="#EFEFEF" d="M217.7,248.4v10.8h-24.2c-1,0-1.8-0.6-2.1-1.6l-1.2-3.8c-0.3-0.9,0-2,0.8-2.5l10.6-7.4l0-0.2
									l16.1,4.4V248.4z"/>
								<path fill="#00D4C7" d="M180.7,133.9l-3.6-35.2l5.7-3.2c5.4,4.1,11.8,6.8,18.8,7.8l5.4,44.8l-0.2,32.5l-7.2-0.2
									c-1.4,0-2.9-0.4-4.2-1l-10.5-4.6L180.7,133.9z"/>
								<path fill="#FFE3C9" d="M184.9,175l4.3,17.9c-9.1-6.6-12.6-15.8-12.6-15.8l-8-40.2l12.1-3L184.9,175z"/>
								<path fill="#BDFFFF" d="M177.1,98.7l3.6,35.2l-12.1,3l-4.1-20.6c-1.1-5.7,1.6-11.5,6.6-14.3L177.1,98.7z"/>
							</g>
						</g>
					</g>
					<path fill="#898989" d="M160.8,19.9c-1.3-1.8-4.1-1.3-4.6,0.9c-1.6,6.6-2.2,17.4,6.2,25.8c12.5,12.5,35-1.3,46.6-10.1
						c4.4-3.3,5.6-9.4,3-14.2l-0.2-0.4c-3-5.5-10-7.4-15.4-4.2C185.7,24.1,169.1,31.3,160.8,19.9z"/>
					<g>
						<g>
							<path fill="#DBBEAD" d="M212.7,51.4l-31.6,17.3c-1.9,1-4.2,0.3-5.3-1.5c-1-1.9-0.3-4.2,1.5-5.3L209,44.6
								c1.9-1,4.2-0.3,5.3,1.5S214.6,50.4,212.7,51.4z"/>
						</g>
						<g>
							<path fill="#DBBEAD" d="M201.6,75c-1.9,1-4.2,0.3-5.3-1.5L189,60c-1-1.9-0.3-4.2,1.5-5.3s4.2-0.3,5.3,1.5l7.4,13.4
								C204.2,71.6,203.5,73.9,201.6,75z"/>
						</g>
					</g>
				</g>
				
					<line fill="none" stroke="#727171" stroke-width="4" stroke-linecap="round" stroke-miterlimit="10" x1="254.3" y1="21.8" x2="254.3" y2="49.2"/>
				
					<line fill="none" stroke="#727171" stroke-width="4" stroke-linecap="round" stroke-miterlimit="10" x1="241.3" y1="2" x2="241.3" y2="39.9"/>
				
					<line fill="none" stroke="#727171" stroke-width="4" stroke-linecap="round" stroke-miterlimit="10" x1="230.1" y1="16.9" x2="230.1" y2="54"/>
			</g>
		</g>
		<g>
			<g>
				<g id="XMLID_37_">
					<g>
						<path fill="#595757" d="M20.6,175.2l10.5,4.6c1.3,0.6,2.7,0.9,4.2,1l2.7,0.1l1.9-24.7l0.6-7.6l-8.2-50.1v0
							c-2.8-1.6-5.3-3.6-7.6-5.8l-17.7,9.8c-5.1,2.8-7.8,8.6-6.6,14.3l12.1,60.6L20.6,175.2z"/>
						<path fill="#FFE3C9" d="M20.6,175.2l-8.2,2.1v0c0,0,3.5,9,12.5,15.6L20.6,175.2z"/>
						<path fill="#898989" d="M53.3,248.3l16-4.4l0,0L86,175.2l-10.5,4.6c-1.3,0.6-2.7,0.9-4.2,1l-2.7,0.1l-15.3,0.4L38,180.8
							l-2.7-0.1c-1.4,0-2.9-0.4-4.2-1l-10.5-4.6l4.3,17.8l12.3,51l0,0L53.3,248.3z"/>
						<path fill="#595757" d="M26.7,251.4c-0.8,0.6-1.2,1.6-0.9,2.5l1.2,3.8c0.3,0.9,1.2,1.6,2.1,1.6h24.1v-10.8v-0.2l-16-4.4l0,0.2
							L26.7,251.4z"/>
						<path fill="#B5B5B6" d="M45.3,156l4.5-45.3l0.1-0.2l-0.7-0.4c-0.8-0.5-1.3-1.4-1.2-2.3l0.3-3.8c-5.8-0.7-11.3-2.6-16.1-5.5
							l8.2,50.1l-0.6,7.6l5.4,0.4C45.2,156.3,45.2,156.2,45.3,156z"/>
						<path fill="#898989" d="M49.7,110.7L45.3,156c0,0.2,0,0.3,0,0.5c0,0.6,0.1,1.2,0.3,1.8l3.6,9.8c0.4,1,1.3,1.7,2.4,1.7h1.7H55
							c1.1,0,2-0.7,2.4-1.7l3.6-9.8c0.3-0.7,0.4-1.5,0.3-2.3l-4.5-45.3l-0.1-0.2l-2.1,1.3c-0.8,0.5-1.9,0.5-2.7,0l-2-1.2L49.7,110.7
							z"/>
						<path fill="#FFE3C9" d="M48.2,103.9c1.6,0.2,3.3,0.3,5,0.3c1.7,0,3.4-0.1,5-0.3c5.8-0.7,11.3-2.6,16.1-5.5
							c2.7-1.6,5.3-3.6,7.6-5.8c7.8-7.5,12.7-18.1,12.7-29.7c0-22.9-18.5-41.4-41.4-41.4S11.9,40,11.9,62.9
							c0,11.7,4.8,22.3,12.6,29.8c2.3,2.2,4.8,4.2,7.6,5.8v0C37,101.3,42.4,103.2,48.2,103.9z"/>
						<path fill="#595757" d="M53.3,248.4v10.8h24.2c1,0,1.8-0.6,2.1-1.6l1.2-3.8c0.3-0.9-0.1-1.9-0.9-2.5L69.3,244l0-0.2l-16,4.4
							V248.4z"/>
						<path fill="#898989" d="M51.9,111.7c0.8,0.5,1.9,0.5,2.7,0l2.1-1.3l0.7-0.4c0.8-0.5,1.3-1.4,1.2-2.3l-0.2-3.8
							c-1.6,0.2-3.3,0.3-5,0.3c-1.7,0-3.4-0.1-5-0.3l-0.3,3.8c0,0.9,0.4,1.8,1.2,2.3l0.7,0.4L51.9,111.7z"/>
						<path fill="#B5B5B6" d="M56.8,110.7l4.5,45.3l5.4-0.4l-0.5-7.1l8.2-50.1c-4.8,2.9-10.3,4.8-16.1,5.5l0.2,3.8
							c0.1,0.9-0.4,1.8-1.2,2.3l-0.7,0.4L56.8,110.7z"/>
						<path fill="#B5B5B6" d="M68.6,180.8l-1.9-25.2l-5.4,0.4c0.1,0.8,0,1.6-0.3,2.3l-3.6,9.8c-0.4,1-1.3,1.7-2.4,1.7h-1.8h-1.7
							c-1.1,0-2-0.7-2.4-1.7l-3.6-9.8c-0.2-0.6-0.3-1.2-0.3-1.8l-5.4-0.4L38,180.8l15.3,0.4L68.6,180.8z"/>
						<path fill="#595757" d="M74.4,98.4l-8.2,50.1l0.5,7.1l1.9,25.2l2.7-0.1c1.4,0,2.9-0.4,4.2-1l10.5-4.6l1.5-14.3
							c0,0,12.2,2.8,22.1,4.7l3.2-11.7L99.5,151l6.9-34.4c1.1-5.7-1.6-11.5-6.6-14.3L82,92.6l0,0C79.7,94.8,77.2,96.8,74.4,98.4z"/>
						<path fill="#FFE3C9" d="M112.8,153.9l-3.2,11.7c1.8,0.3,3.6,0.7,5.2,0.9c10.2,1.7,16.9-8.5,16.9-8.5L112.8,153.9z"/>
					</g>
				</g>
			</g>
			<g>
				<g>
					<path fill="#DBBEAD" d="M44.4,55.7h35.9c2.1,0,3.9-1.7,3.9-3.9S82.4,48,80.3,48H44.4c-2.1,0-3.9,1.7-3.9,3.9
						S42.3,55.7,44.4,55.7z"/>
				</g>
				<g>
					<path fill="#DBBEAD" d="M65.4,71c2.1,0,3.9-1.7,3.9-3.9V51.8c0-2.1-1.7-3.9-3.9-3.9c-2.1,0-3.9,1.7-3.9,3.9v15.3
						C61.5,69.2,63.3,71,65.4,71z"/>
				</g>
				<path fill="#898989" d="M42.6,81.9H80c1.8,0,3.1-1.5,2.8-3.1L81,70.3c-0.3-1.2-1.4-2.1-2.8-2.1H44.3c-1.4,0-2.6,0.9-2.8,2.1
					l-1.8,8.5C39.4,80.4,40.8,81.9,42.6,81.9z"/>
			</g>
		</g>
	</g>
</g>
<g id="Layer_2">
</g>
</svg>
