<?xml version="1.0" encoding="utf-8"?>
<!-- Generator: Adobe Illustrator 18.0.0, SVG Export Plug-In . SVG Version: 6.00 Build 0)  -->
<!DOCTYPE svg PUBLIC "-//W3C//DTD SVG 1.1//EN" "http://www.w3.org/Graphics/SVG/1.1/DTD/svg11.dtd">
<svg version="1.1" xmlns="http://www.w3.org/2000/svg" xmlns:xlink="http://www.w3.org/1999/xlink" x="0px" y="0px"
	 viewBox="0 0 115.9 268" enable-background="new 0 0 115.9 268" xml:space="preserve">
<g id="Layer_1">
	<g>
		<ellipse opacity="0.2" cx="62.5" cy="256.1" rx="36.5" ry="11.9"/>
		<g>
			<g>
				<g>
					<g id="XMLID_33_">
						<g>
							<path fill="#BDFFFF" d="M109,102c5.1,2.8,7.8,8.6,6.6,14.3l-4.1,20.6l-12-3l3.6-35.2l0-0.1L109,102z"/>
							<path fill="#FFE3C9" d="M111.5,136.9l-8,40.2c0,0-3.5,9.1-12.5,15.7l4.3-17.8l4.2-41L111.5,136.9z"/>
							<path fill="#00D4C7" d="M99.5,133.9l-4.2,41l-10.5,4.6c-1.3,0.6-2.8,0.9-4.2,1l-7.2,0.2l-0.2-32.5l6.5-54.6
								c1.9-1.6,3.6-3.4,5.1-5.4l18.3,10.4l0,0.1L99.5,133.9z"/>
							<path fill="#008BAD" d="M91,192.8l-12.4,51.1l0,0l-16.1,4.4l-16.1-4.4l0,0l-12.3-51L29.7,175l10.5,4.6c1.3,0.6,2.8,0.9,4.2,1
								l7.2,0.2l10.9,0.3l10.9-0.3l7.2-0.2c1.4,0,2.9-0.4,4.2-1l10.5-4.6L91,192.8z"/>
							<path fill="#EFEFEF" d="M89.2,251.4c0.8,0.6,1.1,1.6,0.8,2.5l-1.2,3.8c-0.3,0.9-1.2,1.6-2.1,1.6H62.5v-10.8v-0.2l16.1-4.4
								l0,0.2L89.2,251.4z"/>
							<path fill="#FFE3C9" d="M27.6,95.6C17.5,88,11,76,11,62.4c0-22.9,18.6-41.5,41.5-41.5s41.5,18.6,41.5,41.5
								c0,9.8-3.4,18.8-9.1,25.9c-1.5,1.9-3.2,3.7-5.1,5.4c-7.3,6.4-16.8,10.2-27.3,10.2c-2,0-4.1-0.2-6-0.4
								C39.4,102.4,33,99.7,27.6,95.6z"/>
							<path fill="#BDFFFF" d="M79.8,93.6l-6.5,54.6l0.2,32.5L62.5,181l-10.9-0.3l0.2-32.5l-5.4-44.8c2,0.3,4,0.4,6,0.4
								C62.9,103.9,72.5,100,79.8,93.6z"/>
							<path fill="#EFEFEF" d="M62.5,248.4v10.8H38.3c-1,0-1.8-0.6-2.1-1.6l-1.2-3.8c-0.3-0.9,0-2,0.8-2.5l10.6-7.4l0-0.2l16.1,4.4
								V248.4z"/>
							<path fill="#00D4C7" d="M25.5,133.9l-3.6-35.2l5.7-3.2c5.4,4.1,11.8,6.8,18.8,7.8l5.4,44.8l-0.2,32.5l-7.2-0.2
								c-1.4,0-2.9-0.4-4.2-1L29.7,175L25.5,133.9z"/>
							<path fill="#FFE3C9" d="M29.7,175l4.3,17.9c-9.1-6.6-12.6-15.8-12.6-15.8l-8-40.2l12.1-3L29.7,175z"/>
							<path fill="#BDFFFF" d="M21.9,98.8l3.6,35.2l-12.1,3l-4.1-20.6c-1.1-5.7,1.6-11.5,6.6-14.3L21.9,98.8z"/>
						</g>
					</g>
				</g>
				<path fill="#898989" d="M5.6,19.9c-1.3-1.8-4.1-1.3-4.6,0.9c-1.6,6.6-2.2,17.4,6.2,25.8c12.5,12.5,35-1.3,46.6-10.1
					c4.4-3.3,5.6-9.4,3-14.2l-0.2-0.4c-3-5.5-10-7.4-15.4-4.2C30.5,24.1,13.9,31.3,5.6,19.9z"/>
				<g>
					<g>
						<path fill="#DBBEAD" d="M57.5,51.4L26,68.7c-1.9,1-4.2,0.3-5.3-1.5c-1-1.9-0.3-4.2,1.5-5.3l31.6-17.3c1.9-1,4.2-0.3,5.3,1.5
							S59.4,50.4,57.5,51.4z"/>
					</g>
					<g>
						<path fill="#DBBEAD" d="M46.4,75c-1.9,1-4.2,0.3-5.3-1.5L33.8,60c-1-1.9-0.3-4.2,1.5-5.3s4.2-0.3,5.3,1.5L48,69.7
							C49,71.6,48.3,73.9,46.4,75z"/>
					</g>
				</g>
			</g>
			
				<line fill="none" stroke="#727171" stroke-width="4" stroke-linecap="round" stroke-miterlimit="10" x1="99.1" y1="21.8" x2="99.1" y2="49.2"/>
			
				<line fill="none" stroke="#727171" stroke-width="4" stroke-linecap="round" stroke-miterlimit="10" x1="86.2" y1="2" x2="86.2" y2="39.9"/>
			
				<line fill="none" stroke="#727171" stroke-width="4" stroke-linecap="round" stroke-miterlimit="10" x1="74.9" y1="16.9" x2="74.9" y2="54"/>
		</g>
	</g>
</g>
<g id="Layer_2">
</g>
</svg>
