<?xml version="1.0" encoding="utf-8"?>
<!-- Generator: Adobe Illustrator 18.0.0, SVG Export Plug-In . SVG Version: 6.00 Build 0)  -->
<!DOCTYPE svg PUBLIC "-//W3C//DTD SVG 1.1//EN" "http://www.w3.org/Graphics/SVG/1.1/DTD/svg11.dtd">
<svg version="1.1" xmlns="http://www.w3.org/2000/svg" xmlns:xlink="http://www.w3.org/1999/xlink" x="0px" y="0px"
	 viewBox="0 0 168.1 195.6" enable-background="new 0 0 168.1 195.6" xml:space="preserve">
<g id="圖層_1">
	<g>
		<g>
			<g>
				<g>
					<g>
						<rect x="104.7" y="69.3" fill="#898989" width="8.3" height="19.6"/>
					</g>
					<g id="XMLID_19_">
						<g>
							<path fill="#EBF0ED" d="M156,112.9l-2.3,13.1l0.3,11.7l0.1,4.9l-0.2,0l-13.3,3.7c-0.9,0.3-1.9-0.4-1.9-1.4l-0.1-1.8
								l-1.5-22.1l5.7-34.5l0,0c3.2-1.4,6-3.3,8.5-5.7l0,0l12.2,6.7c3.5,1.9,5.3,5.9,4.5,9.8l-3.6,17.9h0L156,112.9z"/>
							<polygon fill="#FFE3C9" points="164.4,115.3 159.6,139.2 154,137.8 153.7,126 156,112.9 164.3,115.3 							"/>
							<path fill="#FFE3C9" d="M154,137.8l5.6,1.4v0c0,0-2,5.1-7,9.5l-0.3-0.1l1.6-5.9l0.2,0L154,137.8z"/>
							<path fill="#6497C0" d="M142.5,185.2l-11.1,3l-11.1-3l-9.8-36.5l-1.6-6l13.4,3.7c0.9,0.3,1.9-0.4,1.9-1.4l0.1-1.8h14.2h0
								l0.1,1.8c0.1,1,1,1.6,1.9,1.4l13.3-3.7l-1.6,5.9L142.5,185.2z"/>
							<path fill="#FFE3C9" d="M120.3,86.7c-3.2-1.4-6.1-3.3-8.6-5.7c-5.4-5.2-8.7-12.4-8.7-20.5c0-15.7,12.8-28.5,28.5-28.5
								c15.7,0,28.5,12.7,28.5,28.5c0,8-3.3,15.3-8.7,20.5c-2.4,2.4-5.3,4.3-8.5,5.7c-3.5,1.5-7.3,2.3-11.3,2.3
								C127.5,88.9,123.7,88.1,120.3,86.7z"/>
							<path fill="#9FA0A0" d="M149.8,190.2c0.5,0.4,0.8,1.1,0.6,1.7l-0.8,2.6c-0.2,0.6-0.8,1.1-1.4,1.1h-16.6v-7.4l11.1-3
								L149.8,190.2z"/>
							<path fill="#769279" d="M142.8,86.6l-5.7,34.5l1.5,22.1h0h-14.2l1.5-22.1l-5.7-34.4c3.4,1.5,7.2,2.3,11.2,2.3
								C135.5,88.9,139.3,88.1,142.8,86.6L142.8,86.6z"/>
							<path fill="#9FA0A0" d="M131.4,188.2v7.4h-16.6c-0.7,0-1.3-0.4-1.4-1.1l-0.9-2.6c-0.2-0.6,0-1.3,0.6-1.7l7.3-5.1L131.4,188.2
								z"/>
							<path fill="#EBF0ED" d="M107,112.9l-8.5,2.5l-3.6-17.9c-0.8-3.9,1.1-7.9,4.6-9.8l12.2-6.7l0,0c2.5,2.4,5.4,4.4,8.6,5.7
								l5.7,34.4l-1.5,22.1l-0.1,1.8c-0.1,1-1,1.6-1.9,1.4l-13.4-3.7l0.4-16.7L107,112.9z"/>
							<path fill="#FFE3C9" d="M108.9,142.7l1.6,6l-0.3,0.1c-5-4.4-7-9.6-7-9.6l-4.8-23.9l8.5-2.5l2.3,13.2L108.9,142.7z"/>
						</g>
					</g>
					<g>
						<g>
							<g>
								<path fill="#DBBEAD" d="M137.4,55.5h-24.7c-1.5,0-2.7-1.2-2.7-2.7c0-1.5,1.2-2.7,2.7-2.7h24.7c1.5,0,2.7,1.2,2.7,2.7
									C140.1,54.3,138.9,55.5,137.4,55.5z"/>
							</g>
						</g>
						<g>
							<g>
								<path fill="#DBBEAD" d="M123,66c-1.5,0-2.7-1.2-2.7-2.7V52.8c0-1.5,1.2-2.7,2.7-2.7s2.7,1.2,2.7,2.7v10.5
									C125.7,64.8,124.5,66,123,66z"/>
							</g>
						</g>
					</g>
					<g>
						<path fill="#898989" d="M101.4,59.7"/>
					</g>
					<g>
						<path fill="#898989" d="M101.4,59.7v37.8c0,1.5,0.4,3,1.3,4.2l1.5,2.2c0.8,1.3,2.8,0.7,2.8-0.8V60.3c0-10.8,8.4-20,19.2-20.2
							c11-0.2,19.9,8.6,19.9,19.5v45.9c0,1.2,1.2,1.9,2.3,1.3l9.2-5c2.5-1.3,4-3.9,4-6.7V59.7v0v0c0-16.6-13.4-30-30-30
							C114.9,29.6,101.4,43.1,101.4,59.7"/>
					</g>
				</g>
			</g>
			<g>
				<g>
					<g>
						<rect x="9.5" y="68.3" fill="#898989" width="10.6" height="19.3"/>
					</g>
					<g id="XMLID_20_">
						<g>
							<path fill="#4DB3D7" d="M59.3,137.8l0.1,4.9l-0.2,0l-13.3,3.7c-0.9,0.3-1.9-0.4-1.9-1.4l-0.1-1.8l-1.5-22.1l5-30.5l0.7-4l0,0
								c3.2-1.4,6-3.3,8.5-5.7l0,0l12.2,6.7c3.5,1.9,5.3,5.9,4.5,9.8l-8.3,41.7L59.3,137.8z"/>
							<path fill="#FFE3C9" d="M59.3,137.8l5.6,1.4v0c0,0-2,5.1-7,9.5l1.3-6l0.2,0L59.3,137.8z"/>
							<path fill="#886071" d="M59.2,142.7l-1.3,6l-6.6,29.4h-3.5H36.7H25.7h-3.5l-6.6-29.4l-1.4-6.1l13.4,3.7
								c0.9,0.3,1.9-0.4,1.9-1.4l0.1-1.8h14.2h0L44,145c0.1,1,1,1.6,1.9,1.4L59.2,142.7z"/>
							<path fill="#FFE3C9" d="M25.6,86.7c-3.2-1.4-6.1-3.3-8.6-5.7c-5.4-5.2-8.7-12.4-8.7-20.5C8.2,44.7,21,32,36.7,32
								c15.7,0,28.5,12.7,28.5,28.5c0,8-3.3,15.3-8.7,20.5c-2.4,2.4-5.3,4.3-8.5,5.7c-3.5,1.5-7.3,2.3-11.3,2.3
								C32.8,88.9,29,88.1,25.6,86.7z"/>
							<path fill="#595757" d="M55.1,190.2c0.5,0.4,0.8,1.1,0.6,1.7l-0.8,2.6c-0.2,0.6-0.8,1.1-1.4,1.1H36.7v-7.4l11.1-3L55.1,190.2
								z"/>
							<path fill="#FFFFFF" d="M48,86.6l-0.7,4L42,95.8c-0.7,0.7-1.9,0.5-2.4-0.3l-2.9-5v-1.5C40.7,88.9,44.6,88.1,48,86.6L48,86.6z
								"/>
							<polygon fill="#FFE3C9" points="47.8,178.1 47.8,185.2 36.7,188.2 36.7,178.1 							"/>
							<path fill="#FFD1C7" d="M47.4,90.6l-5,30.5l1.5,22.1h0H29.7l1.5-22.1l-5-30.5l5.2,5.2c0.7,0.7,1.9,0.6,2.4-0.3l2.9-5l2.9,5
								c0.5,0.9,1.7,1,2.4,0.3L47.4,90.6z"/>
							<path fill="#595757" d="M36.7,188.2v7.4H20.1c-0.7,0-1.3-0.4-1.4-1.1l-0.9-2.6c-0.2-0.6,0-1.3,0.6-1.7l7.3-5.1L36.7,188.2z"
								/>
							<polygon fill="#FFE3C9" points="36.7,178.1 36.7,188.2 25.7,185.2 25.7,178.1 							"/>
							<path fill="#FFFFFF" d="M36.7,88.9v1.5l-2.9,5c-0.5,0.9-1.7,1-2.4,0.3l-5.2-5.2l-0.6-3.9C29,88.1,32.8,88.9,36.7,88.9z"/>
							<path fill="#4DB3D7" d="M14.3,137.7h-0.1l-5.7,1.4L0.2,97.5c-0.8-3.9,1.1-7.9,4.6-9.8l12.2-6.7l0,0c2.5,2.4,5.4,4.4,8.6,5.7
								l0.6,3.9l5,30.5l-1.5,22.1l-0.1,1.8c-0.1,1-1,1.6-1.9,1.4l-13.4-3.7L14.3,137.7z"/>
							<path fill="#FFE3C9" d="M14.2,142.7l1.4,6.1c-5-4.4-7-9.6-7-9.6v0l5.7-1.4h0.1L14.2,142.7z"/>
						</g>
					</g>
					<g>
						<g>
							<g>
								<path fill="#DBBEAD" d="M42.7,55.5H18c-1.5,0-2.7-1.2-2.7-2.7c0-1.5,1.2-2.7,2.7-2.7h24.7c1.5,0,2.7,1.2,2.7,2.7
									C45.4,54.3,44.2,55.5,42.7,55.5z"/>
							</g>
						</g>
						<g>
							<g>
								<path fill="#DBBEAD" d="M28.3,66c-1.5,0-2.7-1.2-2.7-2.7V52.8c0-1.5,1.2-2.7,2.7-2.7c1.5,0,2.7,1.2,2.7,2.7v10.5
									C30.9,64.8,29.7,66,28.3,66z"/>
							</g>
						</g>
					</g>
					<g>
						<path fill="#898989" d="M6.8,60.3V76l-5.3,9c-0.9,1.6-0.3,3.6,1.4,4.3l3,1.3c3,1.3,6.4-0.9,6.4-4.2V60.9
							c0-10.8,8.4-20,19.2-20.2c11-0.2,19.9,8.6,19.9,19.5v27.3c0,3,2.8,5.2,5.7,4.4l12.8-3.2c2-0.5,2.9-2.8,1.9-4.5L66.8,76V60.3v0
							c0-16.6-13.4-30-30-30C20.2,30.3,6.8,43.7,6.8,60.3"/>
					</g>
					<g opacity="0.8">
						<g>
							<g>
								<path fill="#FFFFFF" d="M23.7,58.5h-6.5c-1.2,0-2.1-0.9-2.1-2.1v-2.2c0-1.2,0.9-2.1,2.1-2.1h6.5c1.2,0,2.1,0.9,2.1,2.1v2.2
									C25.8,57.6,24.9,58.5,23.7,58.5z"/>
							</g>
							<g>
								<path fill="#FFFFFF" d="M39.4,58.5h-6.5c-1.2,0-2.1-0.9-2.1-2.1v-2.2c0-1.2,0.9-2.1,2.1-2.1h6.5c1.2,0,2.1,0.9,2.1,2.1v2.2
									C41.4,57.6,40.5,58.5,39.4,58.5z"/>
							</g>
						</g>
						<g>
							<g>
								<path fill="#FFFFFF" d="M23.7,58.5h-6.5c-1.2,0-2.1-0.9-2.1-2.1v-2.2c0-1.2,0.9-2.1,2.1-2.1h6.5c1.2,0,2.1,0.9,2.1,2.1v2.2
									C25.8,57.6,24.9,58.5,23.7,58.5z"/>
								<path fill="#DCDDDD" d="M22.6,59.3h-4.3c-2.2,0-3.9-1.8-3.9-3.9c0-2.2,1.8-3.9,3.9-3.9h4.3c2.2,0,3.9,1.8,3.9,3.9
									C26.6,57.5,24.8,59.3,22.6,59.3z M18.3,52.9c-1.3,0-2.4,1.1-2.4,2.4c0,1.3,1.1,2.4,2.4,2.4h4.3c1.3,0,2.4-1.1,2.4-2.4
									c0-1.3-1.1-2.4-2.4-2.4H18.3z"/>
							</g>
							<g>
								<path fill="#FFFFFF" d="M39.4,58.5h-6.5c-1.2,0-2.1-0.9-2.1-2.1v-2.2c0-1.2,0.9-2.1,2.1-2.1h6.5c1.2,0,2.1,0.9,2.1,2.1v2.2
									C41.4,57.6,40.5,58.5,39.4,58.5z"/>
								<path fill="#DCDDDD" d="M38.3,59.3h-4.3c-2.2,0-3.9-1.8-3.9-3.9c0-2.2,1.8-3.9,3.9-3.9h4.3c2.2,0,3.9,1.8,3.9,3.9
									C42.2,57.5,40.4,59.3,38.3,59.3z M33.9,52.9c-1.3,0-2.4,1.1-2.4,2.4c0,1.3,1.1,2.4,2.4,2.4h4.3c1.3,0,2.4-1.1,2.4-2.4
									c0-1.3-1.1-2.4-2.4-2.4H33.9z"/>
							</g>
						</g>
						<g>
							<g>
								<path fill="#727171" d="M22.6,59.3h-4.3c-2.2,0-3.9-1.8-3.9-3.9c0-2.2,1.8-3.9,3.9-3.9h4.3c2.2,0,3.9,1.8,3.9,3.9
									C26.6,57.5,24.8,59.3,22.6,59.3z M18.3,52.9c-1.3,0-2.4,1.1-2.4,2.4c0,1.3,1.1,2.4,2.4,2.4h4.3c1.3,0,2.4-1.1,2.4-2.4
									c0-1.3-1.1-2.4-2.4-2.4H18.3z"/>
							</g>
							<g>
								<path fill="#727171" d="M38.3,59.3h-4.3c-2.2,0-3.9-1.8-3.9-3.9c0-2.2,1.8-3.9,3.9-3.9h4.3c2.2,0,3.9,1.8,3.9,3.9
									C42.2,57.5,40.4,59.3,38.3,59.3z M33.9,52.9c-1.3,0-2.4,1.1-2.4,2.4c0,1.3,1.1,2.4,2.4,2.4h4.3c1.3,0,2.4-1.1,2.4-2.4
									c0-1.3-1.1-2.4-2.4-2.4H33.9z"/>
							</g>
						</g>
					</g>
				</g>
			</g>
		</g>
		<g>
			<g>
				<g>
					<g id="XMLID_21_">
						<g>
							<path fill="#BDFFFF" d="M121.7,68.6c4.1,2.3,6.3,6.9,5.3,11.5l-3.3,16.6l-9.7-2.4l2.9-28.4L121.7,68.6z"/>
							<path fill="#FFE3C9" d="M123.7,96.8l-6.5,32.5c0,0-2.8,7.3-10.1,12.7l3.5-14.4l3.4-33.1L123.7,96.8z"/>
							<path fill="#00D4C7" d="M114,94.4l-3.4,33.1l-8.5,3.8c-1.1,0.5-2.2,0.7-3.4,0.8l-5.8,0.2L92.7,106l4.6-38.6
								c3.7-1.6,7.1-3.9,10-6.7l0,0l9.5,5.3L114,94.4z"/>
							<path fill="#008BAD" d="M61.1,142l-3.5-14.4l8.5,3.8c1.1,0.5,2.2,0.7,3.4,0.8l5.8,0.2l8.8,0.2l8.8-0.2l5.8-0.2
								c1.2,0,2.3-0.3,3.4-0.8l8.5-3.8l-3.5,14.4l-10,41.2l0,0l-13,3.6l-13-3.6l0,0L61.1,142z"/>
							<path fill="#FFE3C9" d="M84.1,3.1c18.5,0,33.5,15,33.5,33.5c0,9.5-3.9,18-10.2,24.1c-2.9,2.8-6.2,5.1-10,6.7
								c-4.1,1.8-8.6,2.7-13.3,2.7c-4.7,0-9.2-1-13.3-2.7c-3.7-1.6-7.1-3.9-10-6.7c-6.3-6.1-10.2-14.6-10.2-24.1
								C50.6,18.1,65.6,3.1,84.1,3.1z"/>
							<path fill="#EFEFEF" d="M105.6,189.3c0.6,0.4,0.9,1.3,0.7,2l-1,3.1c-0.2,0.8-0.9,1.3-1.7,1.3H84.1v-8.8v-0.1l13-3.6l0,0.1
								L105.6,189.3z"/>
							<path fill="#BDFFFF" d="M97.4,67.4L92.7,106l0.1,26.2l-8.8,0.2l-8.8-0.2l0.2-26.2l-4.6-38.6c4.1,1.8,8.6,2.7,13.3,2.7
								C88.8,70.1,93.3,69.1,97.4,67.4z"/>
							<path fill="#EFEFEF" d="M84.1,186.9v8.8H64.5c-0.8,0-1.5-0.5-1.7-1.3l-1-3.1c-0.2-0.8,0-1.6,0.7-2l8.6-6l0-0.1l13,3.6V186.9z
								"/>
							<path fill="#00D4C7" d="M54.2,94.4L51.3,66l9.5-5.3l0,0c2.9,2.8,6.2,5.1,10,6.7l4.6,38.6l-0.2,26.2l-5.8-0.2
								c-1.2,0-2.3-0.3-3.4-0.8l-8.5-3.8L54.2,94.4z"/>
							<path fill="#FFE3C9" d="M57.6,127.5l3.5,14.4c-7.3-5.3-10.2-12.7-10.2-12.7l-6.5-32.5l9.8-2.4L57.6,127.5z"/>
							<path fill="#BDFFFF" d="M51.3,66l2.9,28.4l-9.8,2.4l-3.3-16.6c-0.9-4.6,1.3-9.3,5.4-11.5L51.3,66z"/>
						</g>
					</g>
				</g>
				<g>
					<g>
						<g>
							<path fill="#DBBEAD" d="M91.9,30.8H62.9c-1.7,0-3.1-1.4-3.1-3.1c0-1.7,1.4-3.1,3.1-3.1h29.1c1.7,0,3.1,1.4,3.1,3.1
								C95.1,29.4,93.7,30.8,91.9,30.8z"/>
						</g>
					</g>
					<g>
						<g>
							<path fill="#DBBEAD" d="M74.9,43.2c-1.7,0-3.1-1.4-3.1-3.1V27.7c0-1.7,1.4-3.1,3.1-3.1c1.7,0,3.1,1.4,3.1,3.1v12.4
								C78.1,41.8,76.7,43.2,74.9,43.2z"/>
						</g>
					</g>
				</g>
				<g opacity="0.8">
					<g>
						<path fill="#FFFFFF" d="M70.4,34.2H60.1c-0.6,0-1-0.4-1-1v-5.3c0-0.6,0.4-1,1-1h10.3c0.6,0,1,0.4,1,1v5.3
							C71.4,33.7,71,34.2,70.4,34.2z"/>
						<path fill="#727171" d="M69.6,35.1h-8.7c-1.5,0-2.7-1.2-2.7-2.7v-3.7c0-1.5,1.2-2.7,2.7-2.7h8.7c1.5,0,2.7,1.2,2.7,2.7v3.7
							C72.3,33.9,71.1,35.1,69.6,35.1z M60.9,27.8c-0.5,0-0.9,0.4-0.9,0.9v3.7c0,0.5,0.4,0.9,0.9,0.9h8.7c0.5,0,0.9-0.4,0.9-0.9
							v-3.7c0-0.5-0.4-0.9-0.9-0.9H60.9z"/>
					</g>
					<g>
						<path fill="#FFFFFF" d="M89.8,34.2H79.5c-0.6,0-1-0.4-1-1v-5.3c0-0.6,0.4-1,1-1h10.3c0.6,0,1,0.4,1,1v5.3
							C90.8,33.7,90.3,34.2,89.8,34.2z"/>
						<path fill="#727171" d="M89,35.1h-8.7c-1.5,0-2.7-1.2-2.7-2.7v-3.7c0-1.5,1.2-2.7,2.7-2.7H89c1.5,0,2.7,1.2,2.7,2.7v3.7
							C91.7,33.9,90.5,35.1,89,35.1z M80.3,27.8c-0.5,0-0.9,0.4-0.9,0.9v3.7c0,0.5,0.4,0.9,0.9,0.9H89c0.5,0,0.9-0.4,0.9-0.9v-3.7
							c0-0.5-0.4-0.9-0.9-0.9H80.3z"/>
					</g>
				</g>
				<g>
					<g>
						<path fill="#898989" d="M113.9,19c0,3.4-3.9,5.2-6.5,3.1c-6.5-5.4-14.8-8.7-24-8.7c-2.5,0-4.9,0.2-7.2,0.7
							c-2.5,0.5-4.8-1.4-4.8-3.9V5c0-1.8,1.2-3.5,3-3.9c2.9-0.7,5.9-1.1,9-1.1c12.1,0,22.9,5.8,29.7,14.7c0.5,0.7,0.8,1.6,0.8,2.4
							V19z"/>
					</g>
					<g>
						<path fill="#898989" d="M61.8,6.9c-1.9,1.4-3.7,2.9-5.3,4.6c-0.7,0.7-1.1,1.7-1.1,2.7V17c0,3.2,3.7,5.2,6.3,3.3
							c1.4-1,2.8-1.9,4.3-2.7c1.3-0.7,2.1-2,2.1-3.5v-4C68.1,6.9,64.4,5,61.8,6.9z"/>
					</g>
				</g>
			</g>
		</g>
	</g>
</g>
<g id="Layer_2">
</g>
</svg>
