<?xml version="1.0" encoding="utf-8"?>
<!-- Generator: Adobe Illustrator 18.0.0, SVG Export Plug-In . SVG Version: 6.00 Build 0)  -->
<!DOCTYPE svg PUBLIC "-//W3C//DTD SVG 1.1//EN" "http://www.w3.org/Graphics/SVG/1.1/DTD/svg11.dtd">
<svg version="1.1" xmlns="http://www.w3.org/2000/svg" xmlns:xlink="http://www.w3.org/1999/xlink" x="0px" y="0px"
	 viewBox="0 0 113.3 210.2" enable-background="new 0 0 113.3 210.2" xml:space="preserve">
<g id="圖層_1">
	<g>
		<g id="XMLID_10_">
			<g>
				<path fill="#FFE3C9" d="M106.2,19c9,5.9,6.9,17.8,6.9,17.8l-9.3,41.8l-13.1-2.1L106.2,19z"/>
				<path fill="#BDFFFF" d="M90.5,76.5l13.1,2.1l-4,17.9c-0.8,3.7-3.2,6.8-6.6,8.5l-6.4,3.2l2.9-28.4l0.3-0.9L90.5,76.5z"/>
				<path fill="#00D4C7" d="M86.7,108.2l-3.4,33.5l-8.5,3.8c-1.1,0.5-2.2,0.7-3.4,0.8l-5.8,0.2l-0.2-26.4L70,81.3
					c4.1-1.7,7.7-4.3,10.7-7.4l0.1,0.1l9.1,5l-0.3,0.9L86.7,108.2z"/>
				<path fill="#008BAD" d="M56.6,201.2l-13-3.6l0,0L30,141.7l8.5,3.8c1.1,0.5,2.2,0.7,3.4,0.8l5.8,0.2l8.9,0.2l8.9-0.2l5.8-0.2
					c1.2,0,2.3-0.3,3.4-0.8l8.5-3.8l-13.5,55.9l0,0L56.6,201.2z"/>
				<path fill="#FFE3C9" d="M56.6,16.7c18.6,0,33.7,15.1,33.7,33.7c0,9.1-3.6,17.4-9.6,23.5c-3,3.1-6.7,5.7-10.7,7.4
					c-4.1,1.8-8.6,2.8-13.3,2.8c-4.8,0-9.3-1-13.4-2.8c-3.7-1.6-7.1-3.9-10-6.7C26.9,68.5,23,59.9,23,50.4
					C23,31.8,38,16.7,56.6,16.7z"/>
				<path fill="#EFEFEF" d="M78.3,203.8c0.6,0.5,0.9,1.3,0.7,2l-1,3.1c-0.2,0.8-0.9,1.3-1.7,1.3H56.6v-8.8v-0.1l13-3.6l0,0.1
					L78.3,203.8z"/>
				<path fill="#BDFFFF" d="M70,81.3l-4.7,38.8l0.2,26.4l-8.9,0.2l-8.9-0.2l0.1-26.4l-4.7-38.8c4.1,1.8,8.6,2.8,13.4,2.8
					C61.4,84,65.9,83.1,70,81.3z"/>
				<path fill="#EFEFEF" d="M56.6,201.4v8.8H37c-0.8,0-1.5-0.5-1.7-1.3l-1-3.1c-0.3-0.8,0-1.6,0.7-2l8.6-6l0-0.1l13,3.6V201.4z"/>
				<path fill="#00D4C7" d="M26.6,108.2l-2.9-28.4l9.6-5.3l0,0c2.9,2.8,6.3,5.1,10,6.7l4.7,38.8l-0.1,26.4l-5.8-0.2
					c-1.2,0-2.3-0.3-3.4-0.8l-8.5-3.8L26.6,108.2z"/>
				<path fill="#BDFFFF" d="M23.7,79.9l2.9,28.4l-6.4-3.3c-3.4-1.7-5.8-4.8-6.6-8.5l-4-17.9l13.1-2.1L23.7,79.9z"/>
				<path fill="#FFE3C9" d="M7.1,19l15.6,57.5L9.6,78.6L0.2,36.7C0.2,36.7-1.9,24.8,7.1,19z"/>
			</g>
		</g>
		<path fill="#898989" d="M39.8,1.9c-0.2-1.8-2.4-2.5-3.7-1.2c-3.7,4.1-8.4,11.5-5.7,20.8c4,13.8,25.4,12.7,37.1,11
			c4.4-0.6,7.7-4.5,7.7-8.9v-0.4c0-5.1-4.2-9.2-9.3-9C55.9,14.6,41.3,13.2,39.8,1.9z"/>
		<g>
			<g>
				<path fill="#DBBEAD" d="M64.5,44.5H35.3c-1.7,0-3.1-1.4-3.1-3.1c0-1.7,1.4-3.1,3.1-3.1h29.2c1.7,0,3.1,1.4,3.1,3.1
					C67.7,43.1,66.3,44.5,64.5,44.5z"/>
			</g>
			<g>
				<path fill="#DBBEAD" d="M47.4,57c-1.7,0-3.1-1.4-3.1-3.1V41.4c0-1.7,1.4-3.1,3.1-3.1s3.1,1.4,3.1,3.1v12.4
					C50.6,55.6,49.2,57,47.4,57z"/>
			</g>
		</g>
	</g>
</g>
<g id="Layer_2">
</g>
</svg>
