<?xml version="1.0" encoding="utf-8"?>
<!-- Generator: Adobe Illustrator 18.0.0, SVG Export Plug-In . SVG Version: 6.00 Build 0)  -->
<!DOCTYPE svg PUBLIC "-//W3C//DTD SVG 1.1//EN" "http://www.w3.org/Graphics/SVG/1.1/DTD/svg11.dtd">
<svg version="1.1" xmlns="http://www.w3.org/2000/svg" xmlns:xlink="http://www.w3.org/1999/xlink" x="0px" y="0px"
	 viewBox="0 0 25.6 20.8" enable-background="new 0 0 25.6 20.8" xml:space="preserve">
<g id="圖層_1">
	<g>
		<path fill="#FFFFFF" d="M25.6,2.5c-0.9,0.4-2,0.7-3,0.8c1.1-0.7,1.9-1.7,2.3-2.9c-1,0.6-2.1,1-3.3,1.3c-1-1-2.3-1.7-3.8-1.7
			c-2.9,0-5.3,2.4-5.3,5.3c0,0.4,0,0.8,0.1,1.2C8.2,6.2,4.4,4.1,1.8,1C1.3,1.7,1.1,2.6,1.1,3.6C1.1,5.4,2,7,3.4,8
			C2.5,7.9,1.7,7.7,1,7.3c0,0,0,0,0,0.1c0,2.5,1.8,4.7,4.2,5.2c-0.4,0.1-0.9,0.2-1.4,0.2c-0.3,0-0.7,0-1-0.1
			c0.7,2.1,2.6,3.6,4.9,3.6c-1.8,1.4-4.1,2.2-6.5,2.2c-0.4,0-0.8,0-1.3-0.1c2.3,1.5,5.1,2.4,8.1,2.4c9.7,0,14.9-8,14.9-14.9
			c0-0.2,0-0.5,0-0.7C24,4.4,24.9,3.5,25.6,2.5z"/>
	</g>
</g>
<g id="Layer_2">
</g>
</svg>
