<?xml version="1.0" encoding="utf-8"?>
<!-- Generator: Adobe Illustrator 18.0.0, SVG Export Plug-In . SVG Version: 6.00 Build 0)  -->
<!DOCTYPE svg PUBLIC "-//W3C//DTD SVG 1.1//EN" "http://www.w3.org/Graphics/SVG/1.1/DTD/svg11.dtd">
<svg version="1.1" id="圖層_1" xmlns="http://www.w3.org/2000/svg" xmlns:xlink="http://www.w3.org/1999/xlink" x="0px" y="0px"
	 viewBox="0 0 55 55" style="enable-background:new 0 0 55 55;" xml:space="preserve">
<style type="text/css">
	.st0{fill:#27FFC6;}
</style>
<g>
	<g>
		<path class="st0" d="M17.2,30.4L17.2,30.4c3.2-0.3,6-1,8.3-1.9c3.2-1.2,5.5-2.9,6.9-5l0.7-1l-1,0.7c-2,1.3-4.6,2.2-7.7,2.4
			c-2.6,0.2-5.6,0.1-8.8-0.4c-0.2,0-0.5-0.1-0.8-0.1L14.3,25c-0.4-0.1-0.8,0.1-1,0.5L13,26c-0.2,0.3-0.1,0.7,0.1,1
			c0.2,0.2,0.4,0.5,0.4,0.5S15,29.3,17.2,30.4L17.2,30.4z M17.2,30.4"/>
		<path class="st0" d="M39.7,19.5c-0.8-0.6-1.7-0.8-2.1-0.8c-0.1,0-0.1,0-0.2,0c0-0.4-0.2-2.5-0.3-4c-0.1-0.7-0.8-1.1-1.4-0.7
			L33.8,15c-0.5,0.3-0.7,0.9-0.4,1.4c0.5,1.1,1.4,3.1,1.7,4.9c0.3,1.6,0.1,3.3-0.4,4.8c-0.8,2.5-2.6,4.9-5.3,7.1
			c-1.5,1.2-3,2.3-4.7,3.2c-0.8,0.5-1.7,0.9-2.5,1.3c-0.1,0-1.1,0.4-1.8,0.7c-0.4,0.1-0.7,0.5-0.6,0.9l0,0.4c0,0.4,0.3,0.8,0.7,0.9
			c1,0.3,3.2,0.7,6.2,0.6c1.7-0.1,3.3-0.6,4.9-1.2c2.6-1.1,6.3-3.2,8.7-7.2c1.1-1.8,1.7-3.7,1.9-5.8c0.2-2-0.1-3.6-0.4-4.6
			C41.4,21.2,40.7,20.2,39.7,19.5L39.7,19.5z M39.7,19.5"/>
		<path class="st0" d="M15.1,34.1c0.4,0.3,1,0.8,1.7,1.2c1.3,0.7,2.7,1.1,4.2,1.4l0.1,0l0.1,0c1.2-0.5,2.3-1.1,3.4-1.7
			c1.3-0.8,2.5-1.6,3.6-2.4c1-0.8,1.9-1.6,2.7-2.5c0.7-0.8,1.3-1.7,1.8-2.6c0.2-0.4,0.4-0.9,0.6-1.4c0.2-0.5,0.3-1,0.4-1.5
			c0-0.1,0.1-0.2,0.1-0.3l-0.8,1c-1.6,2-4.1,3.6-7.2,4.7c-2.1,0.8-4.2,1.2-6.4,1.6c-1.2,0.2-2.3,0.3-3.5,0.3c-0.5,0-0.9,0.3-0.9,0.8
			l-0.1,0.6C14.7,33.5,14.8,33.9,15.1,34.1L15.1,34.1z M15.1,34.1"/>
	</g>
</g>
</svg>
