<?xml version="1.0" encoding="utf-8"?>
<!-- Generator: Adobe Illustrator 18.0.0, SVG Export Plug-In . SVG Version: 6.00 Build 0)  -->
<!DOCTYPE svg PUBLIC "-//W3C//DTD SVG 1.1//EN" "http://www.w3.org/Graphics/SVG/1.1/DTD/svg11.dtd">
<svg version="1.1" id="圖層_1" xmlns="http://www.w3.org/2000/svg" xmlns:xlink="http://www.w3.org/1999/xlink" x="0px" y="0px"
	 viewBox="0 0 50 50" style="enable-background:new 0 0 50 50;" xml:space="preserve">
<style type="text/css">
	.st0{fill:#FFFFFF;}
</style>
<path class="st0" d="M25,11.3c-7.4,0-13.4,6-13.4,13.4c0,7.4,6,13.4,13.4,13.4s13.4-6,13.4-13.4C38.4,17.3,32.4,11.3,25,11.3z
	 M27.6,18.9h-1.8c-1.3,0-1.6,0.6-1.6,1.6v2.1h3.3l-0.4,3.3h-2.9v8.5v0.1h-3.5V26h-2.9v-3.3h2.9v-2.5c0-2.8,1.8-4.4,4.3-4.4
	c1.2,0,2.3,0.1,2.6,0.1V18.9z"/>
</svg>
