<?xml version="1.0" encoding="utf-8"?>
<!-- Generator: Adobe Illustrator 18.0.0, SVG Export Plug-In . SVG Version: 6.00 Build 0)  -->
<!DOCTYPE svg PUBLIC "-//W3C//DTD SVG 1.1//EN" "http://www.w3.org/Graphics/SVG/1.1/DTD/svg11.dtd">
<svg version="1.1" id="圖層_1" xmlns="http://www.w3.org/2000/svg" xmlns:xlink="http://www.w3.org/1999/xlink" x="0px" y="0px"
	 viewBox="0 0 50 50" style="enable-background:new 0 0 50 50;" xml:space="preserve">
<style type="text/css">
	.st0{fill:#FFFFFF;}
</style>
<g>
	<path class="st0" d="M21.3,27.7c-2,0.1-3.6,1.4-3.5,2.9c0.1,1.5,1.8,2.5,3.8,2.4c2.1-0.2,3.6-1.5,3.5-2.9
		C25,28.6,23.3,27.6,21.3,27.7z"/>
	<path class="st0" d="M23.5,20c-0.4-1.7-1.8-2.8-3-2.5c-1.3,0.4-1.9,2-1.4,3.7s1.8,2.8,3,2.5C23.4,23.3,24,21.7,23.5,20z"/>
	<path class="st0" d="M25,11.3c-7.4,0-13.4,6-13.4,13.4c0,7.4,6,13.4,13.4,13.4s13.4-6,13.4-13.4C38.4,17.3,32.4,11.3,25,11.3z
		 M20.9,34.1c0,0-5.1,0.2-5.1-3.6c0-3.9,5.7-3.7,6-3.7c-0.1-0.9-0.7-0.8-0.7-1.2c0-0.5,0-1.1,0-1.1s-4.3,0.5-4.3-3.7s5-4.3,5-4.3
		s4.5,0,4.9,0c0,0.8-2.2,0.5-2.2,0.9c1.3,0.6,1.4,1.6,1.4,3.2c0,2.7-2.5,3.1-2.5,4.2c0,1.2,3.3,2.1,3.4,4.8
		C26.8,34.4,20.9,34.1,20.9,34.1z M32.5,21.1v3.4h-1v-3.4h-3.4v-1h3.4v-3.5h1v3.5h3.4v1H32.5z"/>
</g>
</svg>
