<?xml version="1.0" encoding="utf-8"?>
<!-- Generator: Adobe Illustrator 18.0.0, SVG Export Plug-In . SVG Version: 6.00 Build 0)  -->
<!DOCTYPE svg PUBLIC "-//W3C//DTD SVG 1.1//EN" "http://www.w3.org/Graphics/SVG/1.1/DTD/svg11.dtd">
<svg version="1.1" id="圖層_1" xmlns="http://www.w3.org/2000/svg" xmlns:xlink="http://www.w3.org/1999/xlink" x="0px" y="0px"
	 viewBox="0 0 55 55" style="enable-background:new 0 0 55 55;" xml:space="preserve">
<style type="text/css">
	.st0{fill:#27FFC6;}
</style>
<g>
	<path class="st0" d="M40.3,39H14.7c-0.7,0-1.3,0.6-1.3,1.3c0,0.7,0.6,1.3,1.3,1.3h25.6c0.7,0,1.3-0.6,1.3-1.3
		C41.6,39.6,41,39,40.3,39L40.3,39z M40.3,39"/>
	<path class="st0" d="M16.3,35.7c-0.7,0-1.3,0.6-1.3,1.3c0,0.7,0.6,1.3,1.3,1.3h22.4c0.7,0,1.3-0.6,1.3-1.3c0-0.7-0.6-1.3-1.3-1.3
		h-0.3V24.2h0.3c0.4,0,0.6-0.3,0.6-0.6c0-0.4-0.3-0.6-0.6-0.6H16.3c-0.4,0-0.6,0.3-0.6,0.6c0,0.4,0.3,0.6,0.6,0.6h0.3v11.5H16.3z
		 M35.8,24.2v11.5H32V24.2H35.8z M29.4,24.2v11.5h-3.8V24.2H29.4z M19.2,24.2H23v11.5h-3.8V24.2z M19.2,24.2"/>
	<path class="st0" d="M14.7,21.7h25.6c0.7,0,1.3-0.6,1.3-1.3c0-0.6-0.4-1-0.9-1.2L28,13.5c-0.3-0.1-0.7-0.1-1,0l-12.8,5.8
		c-0.6,0.2-0.9,0.8-0.7,1.4C13.6,21.3,14.1,21.7,14.7,21.7L14.7,21.7z M14.7,21.7"/>
</g>
</svg>
