<?xml version="1.0" encoding="utf-8"?>
<!-- Generator: Adobe Illustrator 18.0.0, SVG Export Plug-In . SVG Version: 6.00 Build 0)  -->
<!DOCTYPE svg PUBLIC "-//W3C//DTD SVG 1.1//EN" "http://www.w3.org/Graphics/SVG/1.1/DTD/svg11.dtd">
<svg version="1.1" id="圖層_1" xmlns="http://www.w3.org/2000/svg" xmlns:xlink="http://www.w3.org/1999/xlink" x="0px" y="0px"
	 viewBox="0 0 50 50" style="enable-background:new 0 0 50 50;" xml:space="preserve">
<style type="text/css">
	.st0{fill:#FFFFFF;}
</style>
<g>
	<g>
		<path class="st0" d="M40.2,22.9c0-6.8-6.8-12.3-15.2-12.3c-8.3,0-15.2,5.6-15.2,12.3C9.8,29,15.2,34,22.5,35
			c0.5,0.2,1.2,0.3,1.4,0.7c0.2,0.3,0.2,1,0,1.4c0,0-0.2,1-0.2,1.4c0,0.3-0.3,1.5,1.4,0.8s8.8-5.1,12-8.8l0,0
			C39.2,28.1,40.2,25.6,40.2,22.9z M19.1,26.9h-3c-0.5,0-0.8-0.3-0.8-0.8v-5.9c0-0.5,0.3-0.8,0.8-0.8s0.8,0.3,0.8,0.8v5.2h2.2
			c0.5,0,0.8,0.3,0.8,0.8C19.9,26.6,19.6,26.9,19.1,26.9z M22.3,26.1c0,0.5-0.3,0.8-0.8,0.8c-0.5,0-0.8-0.3-0.8-0.8v-5.9
			c0-0.5,0.3-0.8,0.8-0.8c0.5,0,0.8,0.3,0.8,0.8V26.1z M29.4,26.1c0,0.3-0.2,0.7-0.5,0.7h-0.2c-0.2,0-0.5-0.2-0.7-0.3l-3-4.1v3.7
			c0,0.5-0.3,0.8-0.8,0.8s-0.8-0.3-0.8-0.8v-5.9c0-0.3,0.2-0.7,0.5-0.7H24c0.2,0,0.5,0.2,0.7,0.3l3,4.2v-3.9c0-0.5,0.3-0.8,0.8-0.8
			c0.5,0,0.8,0.3,0.8,0.8V26.1z M34.3,22.4c0.5,0,0.8,0.3,0.8,0.8s-0.3,0.8-0.8,0.8h-2.2v1.4h2.2c0.5,0,0.8,0.3,0.8,0.8
			s-0.3,0.8-0.8,0.8h-3c-0.5,0-0.8-0.3-0.8-0.8v-3l0,0l0,0v-3c0-0.5,0.3-0.8,0.8-0.8h3c0.5,0,0.8,0.3,0.8,0.8S34.8,21,34.3,21h-2.2
			v1.4H34.3z"/>
	</g>
</g>
</svg>
