<?xml version="1.0" encoding="utf-8"?>
<!-- Generator: Adobe Illustrator 18.0.0, SVG Export Plug-In . SVG Version: 6.00 Build 0)  -->
<!DOCTYPE svg PUBLIC "-//W3C//DTD SVG 1.1//EN" "http://www.w3.org/Graphics/SVG/1.1/DTD/svg11.dtd">
<svg version="1.1" id="圖層_1" xmlns="http://www.w3.org/2000/svg" xmlns:xlink="http://www.w3.org/1999/xlink" x="0px" y="0px"
	 viewBox="0 0 55 55" style="enable-background:new 0 0 55 55;" xml:space="preserve">
<style type="text/css">
	.st0{fill:none;stroke:#27FFC6;stroke-miterlimit:10;}
</style>
<g>
	<g>
		<path class="st0" d="M13.9,42.9c0,0-1-9,5.6-11.6c1.1-0.4,2.4-0.7,4-0.7h4.2h4.2c1.6,0,2.9,0.3,4,0.7c6.6,2.6,5.6,11.6,5.6,11.6
			H13.9z"/>
	</g>
	<g>
		<path class="st0" d="M27.6,12.9c-2.5,0-4.7,1.2-6,3.2h11.9C32.3,14.1,30.1,12.9,27.6,12.9z"/>
		<path class="st0" d="M20.4,19.9c0,4,3.2,7,7.2,7s7.2-2.9,7.2-6.9c0-0.4,0-1-0.1-1H20.5C20.5,19.1,20.4,19.5,20.4,19.9z"/>
	</g>
	<polygon class="st0" points="19,15.7 14.6,13.1 14.4,15.8 	"/>
	<polygon class="st0" points="19,17.5 13.6,20.1 15.5,22.3 	"/>
</g>
</svg>
