<?xml version="1.0" encoding="utf-8"?>
<!-- Generator: Adobe Illustrator 16.0.0, SVG Export Plug-In . SVG Version: 6.00 Build 0)  -->
<!DOCTYPE svg PUBLIC "-//W3C//DTD SVG 1.1//EN" "http://www.w3.org/Graphics/SVG/1.1/DTD/svg11.dtd">
<svg version="1.1" id="圖層_1" xmlns="http://www.w3.org/2000/svg" xmlns:xlink="http://www.w3.org/1999/xlink" x="0px" y="0px"
	 width="124.25px" height="50px" viewBox="0 0 124.25 50" enable-background="new 0 0 124.25 50" xml:space="preserve">
<polygon fill="#FFFFFF" points="41.079,35.9 28.197,32.878 28.197,16.774 41.079,13.217 "/>
<polygon fill="#FFFFFF" points="8.471,42.074 28.599,32.878 28.599,16.774 8.471,7.579 "/>
<g>
	<g>
		<path fill="#FFFFFF" d="M111.646,13.54c0,0,0.664-0.294,0.831-1.014h1.474v1.236h-2.378L111.646,13.54z"/>
		<path fill="#FFFFFF" d="M116.275,17.493c0,0,0.664-0.295,0.83-1.015h1.475v1.235h-2.377L116.275,17.493z"/>
		<path fill="#FFFFFF" d="M113.49,20.99c0,0,0.663-0.295,0.829-1.014h1.476v1.235h-2.379L113.49,20.99z"/>
		<rect x="103.663" y="13.526" fill="#FFFFFF" width="10.282" height="0.462"/>
		<rect x="101.609" y="17.467" fill="#FFFFFF" width="16.977" height="0.461"/>
		<rect x="107.109" y="20.946" fill="#FFFFFF" width="8.004" height="0.499"/>
		<rect x="106.232" y="24.46" fill="#FFFFFF" width="8.945" height="0.462"/>
		<rect x="106.232" y="27.626" fill="#FFFFFF" width="8.945" height="0.462"/>
		<rect x="105.506" y="21.754" fill="#FFFFFF" width="1.443" height="8.24"/>
		<rect x="114.316" y="21.05" fill="#FFFFFF" width="1.484" height="8.976"/>
		<rect x="108.351" y="10.816" fill="#FFFFFF" width="1.506" height="7.096"/>
		<path fill="#FFFFFF" d="M115.613,11.967c0,0-3.877,7.695-15.359,12.271l0.146,0.408c0,0,11.19-3.177,16.583-11.833L115.613,11.967
			z"/>
	</g>
	<g>
		<path fill="#FFFFFF" d="M92.536,13.63c0,0,0.663-0.295,0.829-1.014h1.475v1.235h-2.379L92.536,13.63z"/>
		<path fill="#FFFFFF" d="M92.02,25.06c0,0,0.664-0.297,0.83-1.015h1.476v1.234h-2.379L92.02,25.06z"/>
		<rect x="82.78" y="13.637" fill="#FFFFFF" width="12.052" height="0.461"/>
		<rect x="84.086" y="15.274" fill="#FFFFFF" width="9.008" height="0.497"/>
		<rect x="84.107" y="17.045" fill="#FFFFFF" width="9.008" height="0.462"/>
		<rect x="84.086" y="18.683" fill="#FFFFFF" width="9.008" height="0.462"/>
		<rect x="84.086" y="20.365" fill="#FFFFFF" width="9.008" height="0.462"/>
		<rect x="76.112" y="17.253" fill="#FFFFFF" width="4.603" height="0.461"/>
		<rect x="79.455" y="17.222" fill="#FFFFFF" width="1.508" height="4.007"/>
		<path fill="#FFFFFF" d="M93.011,13.635c0,0,0.524-0.233,0.656-0.803h1.165v0.977h-1.88L93.011,13.635z"/>
		<path fill="#FFFFFF" d="M79.141,17.235c0,0,0.525-0.234,0.656-0.802h1.165v0.977h-1.88L79.141,17.235z"/>
		<rect x="77.256" y="24.973" fill="#FFFFFF" width="17.068" height="0.461"/>
		<path fill="#FFFFFF" d="M92.488,24.971c0,0,0.523-0.231,0.655-0.801h1.165v0.976h-1.88L92.488,24.971z"/>
		<path fill="#FFFFFF" d="M91.622,15.303c0,0,0.55-0.244,0.687-0.839h1.221v1.022h-1.969L91.622,15.303z"/>
		<path fill="#FFFFFF" d="M79.436,17.249c0,0,0.439-0.195,0.549-0.672h0.979v0.819h-1.576L79.436,17.249z"/>
		<path fill="#FFFFFF" d="M77.562,12.174l0.24-0.371c0,0,2.186,0.524,3.17,2.426l-1.138,0.809
			C79.835,15.038,78.589,12.677,77.562,12.174z"/>
		<path fill="#FFFFFF" d="M84.447,10.893l0.209-0.254c0,0,1.443,0.162,2.467,1.698l-1.256,0.674
			C85.867,13.011,85.402,11.615,84.447,10.893z"/>
		<path fill="#FFFFFF" d="M89.914,11.087c0,0-0.691,2.289-0.954,2.719h0.405c0,0,1.384-1.431,2.314-2.672L89.914,11.087z"/>
		<polygon fill="#FFFFFF" points="76.601,22.124 79.572,20.769 79.791,21.14 77.562,23.763 		"/>
		<path fill="#FFFFFF" d="M80.885,20.378c0,0,0.691,1.698,4.947,1.8c0,0,5.559,0.291,8.364-0.204v1.202
			c0,0-11.804,1.312-13.508-2.405L80.885,20.378z"/>
		<rect x="83.433" y="14.629" fill="#FFFFFF" width="1.464" height="6.783"/>
		<rect x="92.04" y="15.298" fill="#FFFFFF" width="1.485" height="6.139"/>
		<path fill="#FFFFFF" d="M82.297,26.679l0.24-0.241c0,0,1.705,0.393,2.711,1.881l-1.136,0.982
			C84.112,29.301,82.756,26.83,82.297,26.679z"/>
		<path fill="#FFFFFF" d="M88.881,23.843h1.483c0,0,0,4.909,0,4.922c0,0.486-0.116,0.957-0.515,1.249
			c-0.224,0.164-0.672,0.388-0.959,0.304c-0.377-0.108-0.308-0.591-0.51-0.843c-0.213-0.265-0.725-0.329-1.043-0.329l0.012-0.31
			h0.91c0,0,0.639,0.095,0.639-0.526S88.881,23.843,88.881,23.843z"/>
	</g>
	<g>
		<rect x="51.332" y="14.245" fill="#FFFFFF" width="9.3" height="0.458"/>
		<rect x="62.126" y="12.432" fill="#FFFFFF" width="5.669" height="0.458"/>
		<rect x="62.472" y="20.056" fill="#FFFFFF" width="6.567" height="0.422"/>
		<rect x="54.866" y="11.163" fill="#FFFFFF" width="1.494" height="6.773"/>
		<rect x="61.569" y="11.372" fill="#FFFFFF" width="1.388" height="18.685"/>
		<rect x="54.866" y="21.438" fill="#FFFFFF" width="1.494" height="8.729"/>
		<path fill="#FFFFFF" d="M58.353,14.242c0,0,0.657-0.292,0.821-1.004h1.46v1.223H58.28L58.353,14.242z"/>
		<path fill="#FFFFFF" d="M58.353,24.735c0,0,0.657-0.292,0.821-1.005h1.46v1.224H58.28L58.353,24.735z"/>
		<path fill="#FFFFFF" d="M66.309,12.48c0,0,0.657-0.291,0.822-1.003h1.459v1.222h-2.354L66.309,12.48z"/>
		<path fill="#FFFFFF" d="M58.424,21.19c0,0,0.656-0.292,0.821-1.005h1.46v1.224h-2.354L58.424,21.19z"/>
		<path fill="#FFFFFF" d="M58.393,17.658c0,0,0.658-0.293,0.822-1.004h1.459v1.222H58.32L58.393,17.658z"/>
		<rect x="50.593" y="17.664" fill="#FFFFFF" width="10.08" height="0.457"/>
		<rect x="50.649" y="21.175" fill="#FFFFFF" width="10.047" height="0.457"/>
		<path fill="#FFFFFF" d="M58.891,21.152c0,0,0.52-0.231,0.648-0.794h1.155v0.967h-1.862L58.891,21.152z"/>
		<rect x="51.338" y="24.649" fill="#FFFFFF" width="9.298" height="0.458"/>
		<path fill="#FFFFFF" d="M52.725,18.63l0.317-0.187c0,0,1.198,1.211,1.731,2.308l-1.168,0.505
			C53.605,21.256,53.014,18.934,52.725,18.63z"/>
		<path fill="#FFFFFF" d="M57.169,18.298l1.775,0.708c0,0-1.661,1.774-2.208,2.207l-0.231-0.144
			C56.505,21.069,56.967,19.655,57.169,18.298z"/>
		<path fill="#FFFFFF" d="M67.142,12.431v4.725v0.335c0,0,0.077,0.674-0.493,0.674h-0.594v0.333c0,0,0.854,0.054,0.854,0.546
			c0,0.49,1.682,0.853,1.682-1.554c0-2.408,0-5.113,0-5.113L67.142,12.431z"/>
		<path fill="#FFFFFF" d="M67.543,20.04c0,0-0.506,5.993-4.186,10.163l0.154,0.253c0,0,4.786-4.13,5.563-10.286L67.543,20.04z"/>
		<path fill="#FFFFFF" d="M63.82,21.04c0,0,1.04,5.513,6.147,7.786l-1.168,1.492c0,0-4.352-2.136-5.304-9.215L63.82,21.04z"/>
	</g>
	<g>
		<path fill="#FFFFFF" d="M53.112,37.818h0.543v-3.34h-1.015v0.673h-0.532v-1.174h3.705v1.174h-0.532v-0.673h-1.015v3.34h0.544
			v0.477h-1.699V37.818z"/>
		<path fill="#FFFFFF" d="M57.537,37.818h0.538v-3.369h-0.538v-0.472h1.694v0.472h-0.544v1.437h2.238v-1.437H60.38v-0.472h1.693
			v0.472h-0.538v3.369h0.538v0.477H60.38v-0.477h0.544v-1.432h-2.238v1.432h0.544v0.477h-1.694V37.818z"/>
		<path fill="#FFFFFF" d="M63.943,37.818h0.538v-3.369h-0.538v-0.472h3.125v1.003h-0.532v-0.502h-1.443v1.389h1.528v0.502h-1.528
			v1.425h1.547v-0.521h0.532v1.021h-3.229V37.818z"/>
		<path fill="#FFFFFF" d="M76.098,37.818h0.537v-3.369h-0.537v-0.472h1.871c0.305,0,0.557,0.013,0.795,0.093
			c0.451,0.152,0.752,0.531,0.752,1.118c0,0.623-0.343,1.071-0.895,1.211v0.013c0,0,0.111,0.061,0.185,0.201l0.612,1.063
			c0.066,0.117,0.146,0.142,0.299,0.142h0.129v0.477h-0.367c-0.367,0-0.453-0.067-0.6-0.324l-0.666-1.18
			c-0.109-0.184-0.189-0.238-0.453-0.238h-0.514v1.266h0.533v0.477h-1.682V37.818z M78.115,36.051c0.471,0,0.783-0.306,0.783-0.812
			c0-0.336-0.135-0.569-0.404-0.68c-0.141-0.055-0.324-0.08-0.532-0.08h-0.716v1.572H78.115z"/>
		<path fill="#FFFFFF" d="M81.58,37.818h0.539v-3.369H81.58v-0.472h3.125v1.003h-0.531v-0.502H82.73v1.389h1.528v0.502H82.73v1.425
			h1.547v-0.521h0.531v1.021H81.58V37.818z"/>
		<path fill="#FFFFFF" d="M86.666,37.818h0.539v-3.369h-0.539v-0.472h2.013c0.263,0,0.525,0.019,0.739,0.117
			c0.446,0.188,0.734,0.647,0.734,1.222c0,0.605-0.318,1.096-0.814,1.266c-0.201,0.074-0.408,0.094-0.647,0.094h-0.874v1.143h0.544
			v0.477h-1.694V37.818z M88.617,36.173c0.195,0,0.349-0.03,0.482-0.085c0.275-0.122,0.435-0.398,0.435-0.771
			c0-0.348-0.141-0.605-0.386-0.734c-0.134-0.072-0.316-0.104-0.525-0.104h-0.807v1.694H88.617z"/>
		<path fill="#FFFFFF" d="M94.07,33.904c1.247,0,2.219,0.96,2.219,2.201c0,1.271-0.972,2.263-2.219,2.263
			c-1.254,0-2.22-0.991-2.22-2.263C91.851,34.864,92.816,33.904,94.07,33.904z M94.07,37.823c0.874,0,1.584-0.745,1.584-1.718
			c0-0.941-0.71-1.663-1.584-1.663c-0.881,0-1.59,0.722-1.59,1.663C92.48,37.078,93.189,37.823,94.07,37.823z"/>
		<path fill="#FFFFFF" d="M98.086,37.818h0.539v-3.369h-0.539v-0.472h1.871c0.306,0,0.557,0.013,0.795,0.093
			c0.452,0.152,0.752,0.531,0.752,1.118c0,0.623-0.343,1.071-0.893,1.211v0.013c0,0,0.109,0.061,0.184,0.201l0.611,1.063
			c0.066,0.117,0.146,0.142,0.299,0.142h0.129v0.477h-0.367c-0.367,0-0.453-0.067-0.6-0.324l-0.666-1.18
			c-0.109-0.184-0.189-0.238-0.452-0.238h-0.514v1.266h0.532v0.477h-1.682V37.818z M100.104,36.051c0.471,0,0.783-0.306,0.783-0.812
			c0-0.336-0.135-0.569-0.404-0.68c-0.141-0.055-0.324-0.08-0.531-0.08h-0.716v1.572H100.104z"/>
		<path fill="#FFFFFF" d="M104.4,37.818h0.545v-3.34h-1.016v0.673h-0.531v-1.174h3.705v1.174h-0.532v-0.673h-1.015v3.34h0.544v0.477
			h-1.7V37.818z"/>
		<path fill="#FFFFFF" d="M108.827,37.818h0.538v-3.369h-0.538v-0.472h3.124v1.003h-0.532v-0.502h-1.442v1.389h1.527v0.502h-1.527
			v1.425h1.547v-0.521h0.531v1.021h-3.228V37.818z"/>
		<path fill="#FFFFFF" d="M113.912,37.818h0.539v-3.369h-0.539v-0.472h1.871c0.306,0,0.557,0.013,0.795,0.093
			c0.453,0.152,0.752,0.531,0.752,1.118c0,0.623-0.342,1.071-0.893,1.211v0.013c0,0,0.109,0.061,0.184,0.201l0.611,1.063
			c0.067,0.117,0.147,0.142,0.3,0.142h0.128v0.477h-0.367c-0.366,0-0.452-0.067-0.598-0.324l-0.667-1.18
			c-0.11-0.184-0.19-0.238-0.452-0.238h-0.515v1.266h0.532v0.477h-1.682V37.818z M115.93,36.051c0.472,0,0.783-0.306,0.783-0.812
			c0-0.336-0.135-0.569-0.403-0.68c-0.141-0.055-0.324-0.08-0.532-0.08h-0.716v1.572H115.93z"/>
	</g>
</g>
</svg>
