<?xml version="1.0" encoding="utf-8"?>
<!-- Generator: Adobe Illustrator 18.0.0, SVG Export Plug-In . SVG Version: 6.00 Build 0)  -->
<!DOCTYPE svg PUBLIC "-//W3C//DTD SVG 1.1//EN" "http://www.w3.org/Graphics/SVG/1.1/DTD/svg11.dtd">
<svg version="1.1" id="圖層_1" xmlns="http://www.w3.org/2000/svg" xmlns:xlink="http://www.w3.org/1999/xlink" x="0px" y="0px"
	 viewBox="0 0 55 55" style="enable-background:new 0 0 55 55;" xml:space="preserve">
<style type="text/css">
	.st0{fill:#27FFC6;}
</style>
<g>
	<path class="st0" d="M17.6,35.2c0.3,0.9,1.1,1.1,0,1.4L14.8,38l-2.8-2.8c-0.4-1.1,0.1-1.8,1.4-2.8l2.8,1.4
		C16.5,34.2,17.5,34.9,17.6,35.2L17.6,35.2z"/>
	<path class="st0" d="M16.7,22.5c-0.9-0.4-1.9-0.3-2.8,0c-0.5,0.2-0.8,0.9-1.4,1.4v4.3l4.3-1.4c1.2-1.3,1.7-2,1.4-2.8
		C17.9,23.2,17.5,22.9,16.7,22.5L16.7,22.5z"/>
	<path class="st0" d="M25.9,28.2l-0.3,0c-0.2,0.1-1.4-1-2.8-1.4c-0.7-0.3-0.7,0.3-1.4,0c-1,0.3-1.2,1.2-1.4,2.8
		c-0.2,1.6-0.6,4,0,5.7c0.2,0.4,0.9,0.9,1.4,1.4l1.4,1.4h1.4c1.8-0.8,2.5-2.7,2.8-2.8c0.7-0.4,1.2-1.6,1.4-2.8
		c0.2-1.3,0.4-1.7,0-2.8C28,28.2,26.8,27.9,25.9,28.2L25.9,28.2z"/>
	<path class="st0" d="M29.7,36.6v2.8c0.7,0.6,1.4,1.2,2.8,1.4l2.8-1.4L34,35.2L29.7,36.6z"/>
	<path class="st0" d="M40.3,16.1c-1.9-2.1-2.9-2.4-5.7-1.4h-1.4c-1.3,1.2-1.9,2.1-2.8,4.3c-0.9,2.1-1.8,4.5-1.4,5.7
		c0,0.1,1.2,1.3,2.8,2.8c1.8,1.5,2.6,2.4,2.8,2.8l5.7-1.4c0.6-0.2,3-5.3,2.8-5.7C42,19.7,41.5,17.4,40.3,16.1L40.3,16.1z"/>
</g>
</svg>
