<?xml version="1.0" encoding="utf-8"?>
<!-- Generator: Adobe Illustrator 18.0.0, SVG Export Plug-In . SVG Version: 6.00 Build 0)  -->
<!DOCTYPE svg PUBLIC "-//W3C//DTD SVG 1.1//EN" "http://www.w3.org/Graphics/SVG/1.1/DTD/svg11.dtd">
<svg version="1.1" id="圖層_1" xmlns="http://www.w3.org/2000/svg" xmlns:xlink="http://www.w3.org/1999/xlink" x="0px" y="0px"
	 viewBox="0 0 55 55" style="enable-background:new 0 0 55 55;" xml:space="preserve">
<style type="text/css">
	.st0{fill:none;stroke:#27FFC6;stroke-miterlimit:10;}
</style>
<g>
	<path class="st0" d="M23.4,35.1l-0.2,3.4l5.7-1l-2.4-2.4H23.4z M23.4,35.1"/>
	<path class="st0" d="M14.1,30.5L18,32c0.3,0.1,0.4,0.4,0.4,0.6v1.1h3.7l0.3-4.1l-8-2.5L14.1,30.5z M14.1,30.5"/>
	<path class="st0" d="M18.9,17.2v5.1c0,0.2-0.1,0.4-0.2,0.5l-3.4,3.4l7.1,2.2l-0.3-10.4L18.9,17.2z M18.9,17.2"/>
	<path class="st0" d="M23.7,29.7l-0.3,4.1h3.2c0.2,0,0.4,0.1,0.5,0.2l3.3,3.3l1.5-0.2l-0.5-8.9L23.7,29.7z M23.7,29.7"/>
	<path class="st0" d="M36.8,23.1L40,28l0.7,0.1l0.5-9.2c0-0.4-0.2-0.7-0.6-0.8l-7.7-1.8l-0.1,5.6l3.6,0.9
		C36.5,22.9,36.7,23,36.8,23.1L36.8,23.1z M36.8,23.1"/>
	<path class="st0" d="M17.1,34.5v-1.3l-3-1.2l-0.2,3c0,0.3,0.2,0.7,0.5,0.8l7.5,2.9l0.2-3.4h-4.3C17.4,35.1,17.1,34.8,17.1,34.5
		L17.1,34.5z M17.1,34.5"/>
	<path class="st0" d="M41.2,37.9l-0.4-8.4l-8-1.4l0.5,8.9l7,1.7c0.1,0,0.1,0,0.2,0h0C40.8,38.8,41.2,38.4,41.2,37.9
		C41.2,38,41.2,37.9,41.2,37.9L41.2,37.9z M41.2,37.9"/>
	<path class="st0" d="M31.5,21.6l0.1-5.3l-3.2,0.6v2.8l1.4,1.4L31.5,21.6z M31.5,21.6"/>
	<path class="st0" d="M17.5,21.9v-5.1l-2.8-0.6c-0.2-0.1-0.5,0-0.7,0.2c-0.2,0.2-0.3,0.4-0.3,0.6l0.5,8.1L17.5,21.9z M17.5,21.9"/>
	<path class="st0" d="M31.4,26.7l0-3.7l-2.2-0.6c-0.1,0-0.2-0.1-0.3-0.2l-1.7-1.7c-0.1-0.1-0.2-0.3-0.2-0.5v-2.9l-3.6,0.7l0.3,10.4
		L31.4,26.7z M31.4,26.7"/>
	<path class="st0" d="M35.8,24.1l-3-0.8l-0.1,3.4l5.4,1L35.8,24.1z M35.8,24.1"/>
</g>
</svg>
