<?xml version="1.0" encoding="utf-8"?>
<!-- Generator: Adobe Illustrator 18.0.0, SVG Export Plug-In . SVG Version: 6.00 Build 0)  -->
<!DOCTYPE svg PUBLIC "-//W3C//DTD SVG 1.1//EN" "http://www.w3.org/Graphics/SVG/1.1/DTD/svg11.dtd">
<svg version="1.1" id="圖層_1" xmlns="http://www.w3.org/2000/svg" xmlns:xlink="http://www.w3.org/1999/xlink" x="0px" y="0px"
	 viewBox="0 0 55 55" style="enable-background:new 0 0 55 55;" xml:space="preserve">
<style type="text/css">
	.st0{fill:#27FFC6;}
</style>
<g>
	<path class="st0" d="M11.2,31.6V16.7c0-0.8,0.7-1.5,1.5-1.5h14.9c0.8,0,1.5,0.7,1.5,1.5v14.9c0,0.3-0.2,0.5-0.5,0.5H11.7
		C11.4,32.1,11.2,31.9,11.2,31.6L11.2,31.6z M23.2,36.7c0,1.7-1.4,3.1-3.1,3.1S17,38.4,17,36.7c0-1.7,1.4-3.1,3.1-3.1
		S23.2,35,23.2,36.7L23.2,36.7z M21.7,36.7c0-0.9-0.7-1.6-1.6-1.6c-0.9,0-1.6,0.7-1.6,1.6c0,0.9,0.7,1.6,1.6,1.6
		C21,38.3,21.7,37.6,21.7,36.7L21.7,36.7z M17.4,33.6h-7c-0.3,0-0.5,0.2-0.5,0.5v1.5c0,0.3,0.2,0.5,0.5,0.5H16
		C16.2,35.1,16.7,34.2,17.4,33.6L17.4,33.6z M39.5,36.7c0,1.7-1.4,3.1-3.1,3.1c-1.7,0-3.1-1.4-3.1-3.1c0-1.7,1.4-3.1,3.1-3.1
		C38.1,33.6,39.5,35,39.5,36.7L39.5,36.7z M38,36.7c0-0.9-0.7-1.6-1.6-1.6c-0.9,0-1.6,0.7-1.6,1.6c0,0.9,0.7,1.6,1.6,1.6
		C37.3,38.3,38,37.6,38,36.7L38,36.7z M45,34.1v1.5c0,0.3-0.2,0.5-0.5,0.5h-4.1c-0.3-2-2-3.5-4.1-3.5c-2.1,0-3.8,1.5-4.1,3.5h-8.2
		c-0.1-1-0.7-1.9-1.4-2.5h7.7V19.3c0-0.6,0.4-1,1-1h4.7c1.3,0,2.6,0.7,3.3,1.8l3,4.5c0.4,0.7,0.7,1.4,0.7,2.2v6.8h1.2
		C44.8,33.6,45,33.8,45,34.1L45,34.1z M40,24.7l-2.4-3.5c-0.1-0.1-0.2-0.2-0.4-0.2h-3.8c-0.3,0-0.5,0.2-0.5,0.5V25
		c0,0.3,0.2,0.5,0.5,0.5h6.2C40,25.5,40.2,25,40,24.7L40,24.7z M40,24.7"/>
</g>
</svg>
