<?xml version="1.0" encoding="UTF-8"?>
<svg width="416px" height="277px" viewBox="0 0 416 277" version="1.1" xmlns="http://www.w3.org/2000/svg" xmlns:xlink="http://www.w3.org/1999/xlink">
    <!-- Generator: sketchtool 40 (33762) - http://www.bohemiancoding.com/sketch -->
    <title>B4138C07-0880-46F5-AA0F-D9F3E2A0CE58</title>
    <desc>Created with sketchtool.</desc>
    <defs></defs>
    <g id="mockup" stroke="none" stroke-width="1" fill="none" fill-rule="evenodd">
        <g id="OWNERS" transform="translate(-160.000000, -1400.000000)" fill="#FFFFFF">
            <g id="Page-1" transform="translate(368.000000, 1538.500000) scale(-1, 1) translate(-368.000000, -1538.500000) translate(160.000000, 1400.000000)">
                <path d="M1.7966,1.67202211 C54.1866,0.0754442211 106.5272,-0.209907538 159.0602,0.124162814 C212.6735,0.466584925 266.2842,1.0734794 319.8923,1.84323317 C348.686,2.25664523 377.4784,2.71599196 406.2708,3.20735377 C409.4363,3.2616402 413.1361,3.61937387 414.83,6.48263518 C415.8024,8.12514774 415.8271,10.1880322 415.8219,12.131208 C415.6204,89.2833638 415.4189,166.436912 415.2174,243.590459 C415.1966,251.299133 414.9249,259.751113 410.1539,265.52357 C405.5376,271.109505 398.0392,272.544615 391.1232,273.443821 C367.3683,276.529796 343.4041,277.216032 319.4958,276.804012 C254.1019,275.672349 187.9748,274.061851 122.9566,275.396741 C94.9351,275.97162 66.5561,277.263359 39.2145,270.668253 C36.5911,270.036304 33.8988,269.288821 31.7733,267.525208 C27.0075,263.569258 26.6708,256.129233 26.7514,249.673324 C27.2324,211.253841 27.0712,172.828791 26.7072,134.409309 C26.5083,113.419947 27.4521,92.4347608 27.0166,71.446791 C26.6487,53.7201829 27.482,36.9039166 16.1525,22.4999166 C11.2463,16.2625447 4.8919,11.3016 0.3731,4.81506734 C-0.5161,3.53724824 0.2756,1.71795678 1.7628,1.67341407 C1.7745,1.67202211 1.7849,1.67202211 1.7966,1.67202211" id="Fill-1"></path>
            </g>
        </g>
    </g>
</svg>