<?xml version="1.0" encoding="UTF-8" standalone="no"?>
<!DOCTYPE svg PUBLIC "-//W3C//DTD SVG 1.1//EN" "http://www.w3.org/Graphics/SVG/1.1/DTD/svg11.dtd">
<svg width="100%" height="100%" viewBox="0 0 271 263" version="1.1" xmlns="http://www.w3.org/2000/svg" xmlns:xlink="http://www.w3.org/1999/xlink" xml:space="preserve" style="fill-rule:evenodd;clip-rule:evenodd;stroke-linejoin:round;stroke-miterlimit:1.41421;">
    <g id="Artboard1" transform="matrix(1.0837,0,0,0.992439,30.2937,3.90101)">
        <rect x="-16.881" y="-3.427" width="227" height="264.5" style="fill:none;"/>
        <clipPath id="_clip1">
            <rect x="-16.881" y="-3.427" width="227" height="264.5"/>
        </clipPath>
        <g clip-path="url(#_clip1)">
            <g id="Fill-1" transform="matrix(0.922764,0,0,1.00762,10.6921,-1.98913)">
                <path d="M189.3,222.5C195.4,239.5 188.2,248.3 173.1,253.9C158.9,259.2 143.6,261.3 128.5,261.5C109,261.8 90.5,257.1 71.2,255.8C60.6,255.1 41.6,255.1 39.2,240.8C37.2,228.7 54.2,221 55.3,208.8C56.5,195.5 40.1,186.8 44.5,173C46.9,165.6 51.9,165.1 57.6,161.6C65.1,157 69,147.8 76.2,143.6C83.3,139.4 93,138.8 101.1,138.9C110.7,139 120.9,138.2 130.5,139.8C138.4,141.2 146.3,144.6 151.5,150.8C157.2,157.5 159,166.5 161.5,174.9C166.1,190.5 179.1,200.9 186.2,215.6C187.5,217.9 188.5,220.2 189.3,222.5" style="fill-opacity:0.0980392;fill-rule:nonzero;"/>
            </g>
            <g id="p3-dog" transform="matrix(0.922764,0,0,1.00762,10.6921,-1.98913)">
                <path id="Fill-3" d="M67.4,168.1C79.3,164.9 75.2,152.1 72.9,142.7C70.4,132.5 65.2,122.8 55.5,117.9C48.2,114.2 38,115.1 34.8,123.8C31.1,134 40.6,145.1 47.3,151.7C49.3,153.7 52.2,154.9 53.5,157.5C55.1,160.8 52.7,163 49.6,163.9C46.6,164.8 43.2,164 40.2,165C37.6,165.8 33.8,167.7 34.6,170.9C38.1,184.9 59.9,170.1 67.4,168.1" style="fill:rgb(255,240,0);fill-rule:nonzero;"/>
                <path id="Fill-5" d="M71.7,168.2C83.6,165 79.5,152.2 77.2,142.8C74.7,132.6 69.5,122.9 59.8,118C52.5,114.3 42.3,115.2 39.1,123.9C35.4,134.1 44.9,145.2 51.6,151.8C54.7,154.8 62.5,158.7 58.3,163.2C55.5,166.1 48.7,166.2 45,167.3C41.5,168.3 35.3,170.6 39.9,174.5C47.8,181.4 63.6,170.3 71.7,168.2" style="fill:rgb(78,145,255);fill-rule:nonzero;"/>
                <path id="Fill-7" d="M105,163.7C100.4,155.9 102,143.1 102.8,134.5C103.7,125.1 111.1,111.9 122.6,114.2C125.3,114.7 127.7,116 129.4,118.1C131.6,120.7 131.3,123.6 131.1,126.9C130.7,134.2 128.7,141.4 125.3,147.8C124.4,149.5 123.3,151.2 122.8,153.1C122.3,155 122.3,157.1 123.4,158.8C127.1,164.4 140.3,157.4 141.9,166.2C142.8,171.2 131.1,169 127.6,168.9C119.5,168.7 112,166.4 104.6,163.3C104.6,162.8 105.3,164.1 105,163.7" style="fill:rgb(77,77,77);fill-rule:nonzero;"/>
                <path id="Fill-9" d="M104.3,159.7C103.9,160.4 103.4,161 102.8,161.5C99.6,164.5 92.3,161 88.1,161.5C83.8,162 78.2,165.9 74,165C64.7,162.9 63.4,137.8 63.1,130.4C62.6,116.2 63.3,101.3 68.1,87.8C71,79.5 75.1,63.6 83.7,59.3C91.8,55.3 99.2,65.1 102.5,71.3C108.8,83 111.1,96.2 111.3,109.3C111.4,115.8 111,122.4 110.5,128.9C110.2,131.9 108.9,134.4 108.3,137.4C107.6,140.7 107.5,144.1 107.2,147.4C107,151 106.5,156.2 104.3,159.7" style="fill:rgb(78,145,255);fill-rule:nonzero;"/>
                <path id="Fill-11" d="M75.9,115.4C76.2,115.7 76.6,116 76.8,116.3C79.3,119.7 78.2,124.4 78.1,128.3C78,133.4 78,138.5 78,143.6C78.1,152.2 78.1,160.9 78.7,169.5C78.9,172.3 80.3,174.9 79.2,177.7C78.2,180.3 75.9,182.1 73.1,180.8C70,179.5 69,176.5 69.6,173.3C70.5,168.3 71.7,163.2 71.6,158C71.3,149.8 69.1,142.1 67.8,134.1C66.9,128.8 65.2,117.2 72.3,114.6C73.6,114.2 74.9,114.6 75.9,115.4" style="fill:rgb(77,77,77);fill-rule:nonzero;"/>
                <path id="Fill-13" d="M71.6,90.2C72.8,90.9 73.8,91.9 74.5,93.3C78.2,100.8 75.8,109.8 74.2,117.5C72.7,124.6 73.2,132.5 72.9,139.6C72.6,147.7 72.4,155.8 72.5,163.9C72.5,168.7 74.4,174.1 73.5,179C72.9,182.5 70.8,182.6 67.8,182.8C65.8,182.9 62.7,183 62,180.6C61.2,178 63.2,172.7 63.5,169.9C64,165.2 65.3,160.6 65.3,155.9C65.4,147.7 64.1,140.1 62.9,132.3C61.9,125.4 60.8,118.4 60.6,111.4C60.5,106 60,97.6 62.5,92.7C64.7,89 68.6,88.5 71.6,90.2" style="fill:rgb(255,240,0);fill-rule:nonzero;"/>
                <path id="Fill-15" d="M78.5,86.3C80.1,95.9 79.4,107.7 77.4,117.4C75.9,124.5 76.4,132.4 76.1,139.5C75.8,147.6 75.6,155.7 75.7,163.8C75.7,168.6 77.6,174 76.7,178.9C76.1,182.4 74,182.5 71,182.7C69,182.8 65.9,182.9 65.2,180.5C64.4,177.9 66.4,172.6 66.7,169.8C67.2,165.1 68.5,160.5 68.5,155.8C68.6,147.6 67.3,140 66.1,132.2C64.9,124.4 63.5,116.5 64.1,108.3C64.7,100.3 64.2,91.7 67.6,84.2C71.7,75.5 77.1,77.6 78.5,86.3" style="fill:rgb(78,145,255);fill-rule:nonzero;"/>
                <path id="Fill-17" d="M109.2,179.7C108.4,180.2 107.6,180.6 107,180.7C103,181.6 101.9,177.1 101.1,173.6C99.9,168.4 98.5,163.8 98.4,158.3C98.4,142.9 99.6,127.6 100.7,112.2C100.8,110.4 101,108.5 101.8,106.8C102.6,105.1 104.3,103.8 106.2,103.9C108.4,104 109.9,106.1 110.7,108.1C112.4,112.9 112.4,116 111.5,121C109.9,130.5 106.9,139.6 105.8,149.1C104.8,157.3 105.1,164.5 109,171.4C109.6,172.5 112.1,174.8 112,176.3C112,177.6 110.6,178.9 109.2,179.7" style="fill:rgb(77,77,77);fill-rule:nonzero;"/>
                <path id="Fill-19" d="M112.1,179.7C111.3,180.2 110.5,180.6 109.9,180.7C105.9,181.6 104.8,177.1 104,173.6C102.8,168.4 101.4,163.8 101.3,158.3C101.3,152.4 101.6,146.5 101.9,140.5C102.2,135 101.8,129.4 102,123.9C102.1,119.4 102.5,115.1 102.4,110.5C102.1,101.8 101.6,93.1 102.6,84.5C102.9,82 103.8,78.9 105.9,78.8C106.9,78.8 107.9,79.5 108.6,80.3C114,86 115.6,95.3 115.8,104C115.9,109.7 115.4,115.4 114.5,120.9C112.9,130.4 109.9,139.5 108.8,149C107.8,157.2 108.1,164.4 112,171.3C112.6,172.4 115.1,174.7 115,176.2C114.9,177.7 113.5,178.9 112.1,179.7" style="fill:rgb(78,145,255);fill-rule:nonzero;"/>
                <path id="Fill-21" d="M81.3,77.4C80.7,77.3 80,77.2 79.4,77.1C76.2,76.5 72.8,75.8 70.6,73.5C68.6,71.4 68.1,68.2 68.4,65.3C68.7,62.4 69.7,59.7 70.6,56.9C73.3,48.5 72.8,38.9 82.4,35.2C89.3,32.6 95.6,39.6 99.4,44.7C101.8,47.9 102.4,51.9 104.9,55C106.2,56.6 107.7,58 108.9,59.6C112.3,64.1 110,71 104.6,72.8C99,74.7 93,72.5 87.7,75.2C86.3,75.9 85.1,76.9 83.6,77.3C82.8,77.4 82.1,77.4 81.3,77.4" style="fill:rgb(77,77,77);fill-rule:nonzero;"/>
                <path id="Fill-23" d="M84.4,67.7C84.1,72.7 85.5,76.5 82.4,80.6C80.3,83.4 79.3,86.3 82.3,89C87.1,93.4 91.2,89.7 92.8,84.2C93.9,80.2 94.6,74.4 93,70.5C92.3,68.8 91,67.5 90.5,65.8" style="fill:white;fill-rule:nonzero;"/>
                <path id="Fill-25" d="M86.1,67.8C85.8,72.8 87.2,76.6 84.1,80.7C82,83.6 81,86.4 84,89.1C88.8,93.5 92.9,89.8 94.5,84.3C95.6,80.3 96.3,74.5 94.7,70.6C94,68.9 92.7,67.6 92.2,65.9" style="fill:rgb(255,100,150);fill-rule:nonzero;"/>
                <path id="Fill-27" d="M79.2,73.9C78.6,73.8 77.9,73.7 77.3,73.6C74.1,73 70.7,72.3 68.5,70C66.5,67.9 66,64.7 66.3,61.8C66.6,58.9 67.6,56.2 68.5,53.4C70.8,46.2 73.5,37 71.7,29.4C70.1,23 67.8,16.9 67.2,10.3C67.1,8.7 68.7,7.5 70.2,8.1C74.8,10.2 78.8,13.7 81.4,18.1C81.9,18.9 82.9,19.4 83.8,19.1L90.9,17.1C91.6,16.9 92.3,16.7 92.8,16.2C93.3,15.7 93.6,14.9 93.8,14.2C95.2,9.7 97.8,4.8 101.4,1.4C102.6,0.2 104.7,0.9 105,2.5C106.5,9.8 103.6,17.8 102.6,24.9C101.3,34 105.6,43.5 108.9,51.7C110.8,56.5 112.8,62.3 109.8,66.5C107.3,70 102.5,70.7 98.2,70.5C93.9,70.4 89.4,69.7 85.6,71.7C84.2,72.4 83,73.4 81.5,73.8C80.8,74 80,74 79.2,73.9" style="fill:rgb(78,145,255);fill-rule:nonzero;"/>
                <path id="Fill-30" d="M88.5,53.2C86.2,54.3 83.7,56.6 82.4,58.7C84.1,59.5 89.8,58.1 91.5,57.2C94.6,55.5 90.2,54 88.5,53.2" style="fill:rgb(77,77,77);fill-rule:nonzero;"/>
                <path id="Fill-32" d="M95.8,41.7C95.9,37.9 96.1,34.1 96.2,30.3C96.3,25.9 96.9,11.4 103,10.4C111,9.1 102.5,26.3 102.5,28.9C105.3,25.3 107.2,19.6 112.2,18.3C116.4,17.2 115.3,20 113.5,22.5C111.5,25.2 109.5,28 107.5,30.7C105.7,33.2 103.1,34.7 100.9,36.9C99.8,38 95.6,40.4 95.8,41.7" style="fill:rgb(255,100,150);fill-rule:nonzero;"/>
                <path id="Fill-34" d="M78,42.9C76.9,37.8 76.9,31 76.6,25.6C76.5,22.2 75.9,12.8 79.7,10.3C84.4,7.1 81.6,26.2 81.7,28.5C83.1,24.6 83.9,17.2 88.9,15.7C92.2,14.7 92.2,17.8 91.4,20.5C89.1,28.7 80.7,34.6 78.5,43.1C78.8,42.8 77.8,43.3 78,42.9" style="fill:rgb(255,100,150);fill-rule:nonzero;"/>
                <path id="Fill-58" d="M44.1,110.6C45.1,111.7 46.9,111 46.9,109.6C47,102.6 44,95.5 38.8,90.9C32.6,85.4 23.5,83.4 15.6,85.9C8.6,88.1 2.8,93.7 0.1,100.5C-0.4,101.7 0.8,103 2.1,102.6C6.9,101.1 11.2,97.9 16.1,96.8C22,95.5 28.3,97.5 33.4,100.9C37.5,103.4 40.9,106.9 44.1,110.6" style="fill:rgb(77,77,77);fill-rule:nonzero;"/>
                <path id="Fill-61" d="M51.9,106.3C52.4,107.7 50.9,109 49.6,108.2C42.5,104 38.2,95.1 39.9,87C41.6,78.9 49.1,72.5 57.2,71.4C58.7,71.2 59.6,73 58.6,74.1C54.6,78.2 51.7,83.5 50.6,89.2C49.4,94.9 49.8,100.9 51.9,106.3" style="fill:rgb(78,145,255);fill-rule:nonzero;"/>
            </g>
            <g id="p3-poison_food" transform="matrix(0.922764,0,0,1.00762,10.6921,-1.98913)">
                <path id="Fill-36" d="M49.8,186.3C73,169.3 104.3,168.8 131.1,177.8C138.8,180.4 146.7,184 151.9,190.5C154.9,194.2 156.8,198.7 158.7,203.1C160.3,206.9 162.6,210.4 164.4,214C166.3,217.9 166.1,223 165.9,227.3C165.8,229.5 165.5,231.8 164.3,233.6C163.3,235.1 161.8,236.1 160.3,237.2C156.1,240 151.4,244 146.6,245.4C141.1,247 134.8,247.5 129,248.2C116.9,249.7 104.7,250.4 92.6,249.7C87.4,249.4 82.2,247.5 77.1,247.5C70,247.5 63,248.8 55.8,248.4C48.7,248.1 35.9,246.2 31.8,239.1C29.8,235.7 31.2,231.7 32.2,228.2C33.9,222.4 35.8,216.6 37.8,210.9C40.9,202.4 42.2,191.9 49.8,186.3" style="fill:white;fill-rule:nonzero;"/>
                <path id="Fill-38" d="M53.6,188C76.7,171.9 108,171.5 134.8,180.2C142.6,182.7 150.4,186.1 155.6,192.4C158.6,196 160.5,200.3 162.4,204.5C165.8,212.1 169.3,219.7 172.7,227.3C173.5,229.2 174.4,231.3 173.9,233.3C173.3,235.6 170.9,237 168.8,238.1C155.3,245.1 140.3,250.5 125.5,254.1C116.3,256.3 107.4,256.3 97.9,256.5C89.2,256.7 80.4,256.1 71.8,254.6C59.5,252.5 46.8,249.8 36.1,243C34.5,242 32.8,240.7 32.3,238.8C31.9,237.2 32.4,235.6 32.9,234C36,224.9 39.1,215.8 42.2,206.7C44.9,198.9 46.5,193 53.6,188" style="fill:rgb(77,77,77);fill-rule:nonzero;"/>
                <path id="Fill-40" d="M136.1,188.8C139.6,190.4 143.4,194 141.7,197.5C140.9,199.2 139,200 137.3,200.7C116.7,208.7 93.6,210 72.3,204.3C68.2,203.2 64,201.8 61.1,198.7C60.5,198.1 60,197.4 60.1,196.5C60.2,195.8 60.7,195.2 61.3,194.8C72.7,184.8 89.1,183.2 104.3,183.4C115.1,183.4 126.2,184.2 136.1,188.8" style="fill:white;fill-rule:nonzero;"/>
                <path id="Fill-42" d="M70.2,201C75.5,194.4 84.5,192.1 93,191.2C105.1,189.8 117.6,190.4 129.1,194.4C131.7,195.3 134.9,197.3 134.2,200C123.6,202.5 113,205 102.2,205.7C91.3,206.5 80.1,205.4 70.2,201" style="fill:rgb(255,100,150);fill-rule:nonzero;"/>
                <path id="Fill-44" d="M92.7,234.7C91.8,232.9 91.6,230.8 91.7,228.8C92.2,222.2 96.7,215.9 103,213.9C109.3,211.9 116.9,214.8 120,220.7C120.7,222 121.1,223.4 121.2,224.9C121.3,226.9 120.6,228.9 119.7,230.8C117.6,235.2 114.3,238.9 110.2,241.6C110.2,244.1 110.3,246.5 110.3,249C104.7,251.3 97.9,250.5 93,246.9C92.9,244.8 95,243.1 95.2,241C95.5,238.6 93.7,236.7 92.7,234.7" style="fill:white;fill-rule:nonzero;"/>
                <path id="Fill-46" d="M97,229.1C98.7,229.5 100.5,228.8 101.7,227.5C102.9,226.2 103.5,224.5 103.7,222.8C103.8,222 103.8,221.1 103.4,220.4C103,219.7 102.3,219.1 101.5,219.1C100.9,219.2 100.4,219.5 99.9,219.9C97.9,221.6 96.4,223.9 95.6,226.3C95.4,226.8 95.3,227.3 95.4,227.8C95.7,228.6 96.4,229 97,229.1" style="fill:rgb(77,77,77);fill-rule:nonzero;"/>
                <path id="Fill-48" d="M111.6,231.4C112.1,231.5 112.6,231.4 113.1,231.2C115,230.5 116.1,228.3 116.1,226.2C116.1,224.1 115.1,222.2 114,220.5C113.7,220.1 113.4,219.7 113,219.5C112.1,219.1 111,219.7 110.5,220.6C110,221.5 110,222.5 109.9,223.5C109.7,225 109.1,226.4 109.2,227.9C109.2,229.6 110.1,231.2 111.6,231.4" style="fill:rgb(77,77,77);fill-rule:nonzero;"/>
                <path id="Fill-50" d="M104.5,237.2C104.7,237.2 104.9,237.2 105.1,237.1C105.3,237 105.4,236.6 105.4,236.4C105.5,235 105.3,233.6 104.8,232.3C104,231.9 103.1,232.7 102.6,233.4C101.9,234.2 101.2,235.1 100.8,236.1C100.7,236.3 100.6,236.5 100.7,236.7C100.8,236.9 101,236.9 101.2,236.9C102.3,237 103.4,237.1 104.5,237.2" style="fill:rgb(77,77,77);fill-rule:nonzero;"/>
                <path id="Fill-52" d="M96.9,243.7C96.3,246.2 95.8,248.7 95.5,251.2C95.3,252.4 97.9,252.1 98,251C98.4,248.5 98.8,246 99.4,243.5C99.7,242.3 97.2,242.7 96.9,243.7" style="fill:rgb(77,77,77);fill-rule:nonzero;"/>
                <path id="Fill-54" d="M100.9,244.8C100.8,247.3 100.6,249.7 100.5,252.2C100.5,252.6 102.9,252.3 103,251.5C103.1,249 103.3,246.6 103.4,244.1C103.4,243.8 100.9,244.1 100.9,244.8" style="fill:rgb(77,77,77);fill-rule:nonzero;"/>
                <path id="Fill-56" d="M105.5,244.9C105.5,247.2 105.6,249.4 105.7,251.7C105.8,252.5 108.3,252 108.2,251C108.1,248.9 108,246.7 108,244.6C108,243.5 105.5,244.1 105.5,244.9" style="fill:rgb(77,77,77);fill-rule:nonzero;"/>
            </g>
            <g id="waving" transform="matrix(0.922764,0,0,1.00762,10.6921,-1.98913)">
                <path id="Fill-63" d="M25.4,104.1C29.3,95.8 38.1,92.3 46.2,89.2C47,88.9 46.7,86.8 45.8,87.2C37.2,90.5 28.5,94.4 24.6,103.4C24.2,104 25,105 25.4,104.1" style="fill:rgb(230,230,230);fill-rule:nonzero;"/>
                <path id="Fill-65" d="M26.8,89.6C32.8,84.6 40.3,82.5 48,83.5C48.7,83.6 48.7,81.9 48,81.8C40,81 32.5,83.6 26.6,89.1C26.5,89.2 26.6,89.8 26.8,89.6" style="fill:rgb(230,230,230);fill-rule:nonzero;"/>
            </g>
        </g>
    </g>
    <g id="Artboard2" transform="matrix(1.05049,0,0,1,5.25243,0.5)">
        <rect x="-5" y="-0.5" width="257.5" height="262.5" style="fill:none;"/>
    </g>
</svg>
