<?xml version="1.0" encoding="UTF-8" standalone="no"?><!DOCTYPE svg PUBLIC "-//W3C//DTD SVG 1.1//EN" "http://www.w3.org/Graphics/SVG/1.1/DTD/svg11.dtd"><svg width="100%" height="100%" viewBox="0 0 1299 1195" version="1.1" xmlns="http://www.w3.org/2000/svg" xmlns:xlink="http://www.w3.org/1999/xlink" xml:space="preserve" style="fill-rule:evenodd;clip-rule:evenodd;stroke-linejoin:round;stroke-miterlimit:1.41421;"><path id="Fill-1" d="M912.822,949.147c-12.917,-27.5 -45,-40.417 -75,-48.334c-116.25,-31.25 -241.25,-29.166 -356.25,5.834c-26.667,8.333 -53.333,18.333 -74.167,37.083c-20.833,18.75 -34.166,47.5 -27.5,74.583c9.584,40.834 57.084,60 99.167,64.584c32.5,3.333 65.417,1.25 97.5,-5.417c31.25,-6.667 61.25,-18.333 92.917,-21.667c35.416,-3.75 71.25,2.5 106.666,4.584c35.417,2.083 73.334,0 103.334,-19.167c29.583,-19.583 48.333,-59.583 33.333,-92.083" style="fill-opacity:0.0980392;fill-rule:nonzero;"/><g id="ps-dog-3"><path id="Fill-3" d="M821.989,922.897c-8.334,-3.334 -16.667,-7.5 -26.667,-11.667c-27.917,-12.083 -57.083,-22.5 -85.417,-33.333c-32.916,-12.084 -65.833,-20 -99.583,-28.334c-37.083,-9.166 -73.333,-19.166 -110.833,-27.5c-2.917,-0.416 -5.417,-1.25 -7.5,-3.333c-2.5,-2.5 -2.5,-5.833 -2.917,-9.167c-0.833,-20.416 -0.417,-47.083 8.333,-65.833c7.917,-16.25 21.667,-30.833 35,-42.917c27.5,-24.583 62.5,-42.916 98.75,-49.583c52.084,-9.583 115.834,0.833 150.834,43.75c36.25,44.167 52.083,101.25 32.5,156.667c-7.5,22.083 10.833,25.416 28.333,25.833c16.25,0.417 28.333,2.5 38.75,17.083c5.417,7.917 7.917,18.75 2.083,26.25c-3.75,4.584 -10,6.25 -15.833,7.5c-18.75,3.334 -32.083,0.417 -45.833,-5.416" style="fill:#4d4d4d;fill-rule:nonzero;"/><path id="Fill-5" d="M527.405,947.897c1.25,-2.917 2.5,-6.25 3.75,-9.584c9.167,-22.5 13.334,-42.5 13.334,-67.5c0,-22.083 1.666,-44.166 0,-65.833c-0.417,-7.083 0.416,-20.833 -4.584,-26.25c-7.916,-8.333 -27.5,-5 -36.666,-1.25c-13.75,5.417 -24.584,16.25 -33.334,27.917c-18.75,25.416 -29.166,56.666 -33.333,87.916c-3.75,27.917 -20.417,125.834 30.417,124.167c12.5,-0.417 23.75,-7.917 32.5,-17.083c15.416,-15.834 20.833,-33.334 27.916,-52.5" style="fill:#fff000;fill-rule:nonzero;"/><path id="Fill-7" d="M535.739,956.23c1.25,-2.917 2.5,-6.25 3.75,-9.583c9.166,-22.5 13.333,-42.5 13.333,-67.5c0,-22.084 1.667,-44.167 0,-65.834c-0.417,-7.083 0.417,-20.833 -4.583,-26.25c-7.917,-8.333 -27.5,-5 -36.667,-1.25c-13.75,5.417 -24.583,16.25 -33.333,27.917c-18.75,25.417 -29.167,56.667 -33.334,87.917c-3.75,27.916 -20.416,125.833 30.417,124.166c12.5,-0.416 23.75,-7.916 32.5,-17.083c15.417,-15.833 20.833,-33.333 27.917,-52.5" style="fill:#4e91ff;fill-rule:nonzero;"/><path id="Fill-9" d="M719.072,872.897c-4.167,-17.5 -8.333,-35 -11.25,-52.917c-2.5,-14.167 -6.667,-32.083 7.917,-41.25c16.666,-10.833 42.083,-10 59.166,-1.667c31.667,15.417 46.25,53.75 56.667,84.584c9.583,30 24.583,64.583 22.917,96.25c-0.834,15.833 -7.917,32.083 -22.084,40c-27.916,15.833 -64.166,4.166 -75.416,-25c-5.834,-15 -13.75,-27.084 -20.834,-41.25c-9.166,-17.917 -12.083,-38.75 -17.083,-58.75" style="fill:#4e91ff;fill-rule:nonzero;"/><path id="Fill-11" d="M710.322,889.98c-0.417,-0.833 -0.417,-2.083 -0.833,-2.917c-2.917,-13.333 -12.084,-47.5 1.666,-57.5c7.084,-5 24.584,-5 32.917,-5c10.417,0 21.25,1.667 30.417,7.084c11.666,6.666 19.583,18.333 27.083,29.583c10.833,16.667 21.667,33.75 31.667,50.833c7.916,13.75 22.083,30.834 23.333,47.084c1.667,24.166 -8.75,53.75 -35.417,59.166c-28.333,5.834 -60.416,2.5 -72.5,-28.75c-7.083,-18.333 -19.166,-34.166 -25.833,-52.5c-5.417,-15 -8.75,-31.25 -12.5,-47.083" style="fill:#4d4d4d;fill-rule:nonzero;"/><path id="Fill-13" d="M517.405,918.73c0,10.417 -0.416,20.833 -0.416,30.833c0,12.5 0,25.417 5.416,36.25c9.584,18.334 32.084,25.834 52.5,25c20.834,-0.833 44.584,-13.75 64.584,-11.666c20.416,2.5 37.5,14.166 60,13.75c13.75,-0.417 28.333,-3.334 37.083,-13.334c7.917,-9.166 9.583,-21.666 10.417,-33.333c2.5,-35.833 -7.5,-62.5 -14.167,-96.667c-5.833,-30 -2.5,-61.25 -3.333,-92.083c-0.417,-20.833 -3.334,-43.75 -8.334,-64.167c-4.583,-17.916 -25,-30.833 -40.833,-38.333c-17.917,-8.333 -37.5,-12.083 -56.667,-14.583c-16.666,-2.084 -32.916,-3.334 -49.583,-0.834c-9.583,1.667 -20.417,0.834 -30,3.334c-23.333,5.416 -36.667,34.166 -37.5,55.416c-0.833,23.334 9.167,41.667 18.75,61.667c4.167,8.333 2.083,17.917 1.667,27.5c-0.417,11.667 -1.25,22.917 -2.5,34.167c-1.667,14.166 -3.75,27.916 -6.25,41.666c-1.667,12.084 -0.834,23.334 -0.834,35.417" style="fill:#fff000;fill-rule:nonzero;"/><path id="Fill-15" d="M539.905,931.647c-2.5,10 -2.083,19.583 -2.083,30.416c0,12.5 0,25.417 5.417,36.25c9.583,18.334 32.083,25.834 52.5,25c20.833,-0.833 44.583,-13.75 64.583,-11.666c20.417,2.5 37.5,14.166 60,13.75c13.75,-0.417 28.333,-3.334 37.083,-13.334c7.917,-9.166 9.584,-21.666 10.417,-33.333c2.5,-35.833 -7.5,-62.5 -14.167,-96.667c-5.833,-30 -2.5,-61.25 -3.333,-92.083c-0.417,-20.833 -3.333,-43.75 -8.333,-64.167c-4.584,-17.916 -25,-30.833 -40.834,-38.333c-17.916,-8.333 -37.5,-12.083 -56.666,-14.583c-20.417,-2.917 -42.084,-4.167 -61.667,2.083c-14.583,4.583 -20.417,9.167 -22.917,23.333c-3.333,15.834 -2.916,31.667 -1.25,47.917c2.084,19.583 6.667,38.75 7.5,58.333c1.25,27.5 -3.75,54.584 -11.25,80.417c-3.75,13.333 -8.333,26.25 -12.916,39.167c-0.834,2.5 -1.25,5 -2.084,7.5" style="fill:#4d4d4d;fill-rule:nonzero;"/><path id="Fill-17" d="M529.905,918.73c0,10.417 -0.416,20.833 -0.416,30.833c0,12.5 0,25.417 5.416,36.25c9.584,18.334 32.084,25.834 52.5,25c20.834,-0.833 44.584,-13.75 64.584,-11.666c20.416,2.5 37.5,14.166 60,13.75c12.083,0 30.833,-2.5 37.5,-14.584c17.083,-29.166 -2.917,-67.5 -2.084,-98.75c0.417,-18.333 -3.333,-35.416 -4.583,-53.75c-1.667,-22.916 0,-45.833 -0.417,-69.166c-0.416,-20.834 -3.333,-43.75 -8.333,-64.167c-4.583,-17.917 -25,-30.833 -40.833,-38.333c-17.917,-8.334 -37.5,-12.084 -56.667,-14.584c-20.417,-2.916 -42.083,-4.166 -61.667,2.084c-22.916,7.083 -32.5,30 -35,52.5c-1.666,14.583 -0.416,29.583 0.417,44.166c1.25,27.5 0.417,55 -2.5,82.5c-1.667,14.167 -3.75,27.917 -6.25,41.667c-2.5,12.917 -1.667,24.167 -1.667,36.25" style="fill:#4e91ff;fill-rule:nonzero;"/><path id="Fill-19" d="M611.572,941.647c17.5,5 36.25,6.666 54.583,5.416c3.334,-0.416 5,-4.166 2.917,-7.083l-17.917,-20.833c-2.083,-2.5 -4.166,-5 -7.083,-5.834c-3.75,-1.25 -7.5,0.417 -10.833,2.084c-9.167,4.583 -17.084,11.25 -23.75,19.583c-1.667,2.5 -0.417,5.833 2.083,6.667" style="fill:#4d4d4d;fill-rule:nonzero;"/><path id="Fill-21" d="M617.822,689.98c1.667,22.5 0.833,44.583 0.833,67.083c0,15 4.167,32.084 -1.666,46.667c-6.667,16.667 -34.167,10.417 -45,0.417c-9.584,-8.334 -18.334,-20 -25.417,-30.417c-9.583,-13.75 -15.417,-29.167 -12.917,-46.25c3.75,-22.5 17.5,-44.167 29.167,-63.333c7.917,-13.334 34.167,-18.75 47.083,-9.584c8.75,6.25 6.667,18.75 7.5,27.917c0,2.5 0.417,5 0.417,7.5" style="fill:#4d4d4d;fill-rule:nonzero;"/><path id="Fill-23" d="M599.905,657.897c4.167,4.166 5,10.833 5,17.083l3.334,109.583c0,4.167 0,8.75 -2.084,12.5c-2.916,4.584 -8.75,5.834 -14.166,5c-5.417,-0.833 -10,-3.333 -14.584,-6.25c-18.75,-10.833 -37.916,-22.083 -49.583,-40.416c-12.917,-20.417 -13.75,-47.5 -1.667,-68.334c11.667,-20.833 35.417,-34.583 59.584,-34.166c5,0.416 10.833,1.25 14.166,5" style="fill:#4e91ff;fill-rule:nonzero;"/><path id="Fill-25" d="M556.572,905.813c-4.167,-8.75 -9.167,-17.916 -17.5,-22.916c-23.333,-12.917 -36.25,10 -50.833,23.75c-5.417,5 -10.834,9.583 -14.584,15.833c-5.833,10.417 -8.75,22.917 -14.583,33.75c-1.25,2.083 -2.5,4.167 -3.75,6.25c-1.25,2.083 -2.917,5 -1.667,7.083c0.834,1.667 2.917,2.5 5,2.5c5.834,0.834 10.417,-0.416 14.584,-2.5c6.666,-0.833 13.333,-3.75 18.75,0c6.666,4.167 6.25,12.5 7.916,19.167c3.75,15.833 8.334,32.5 17.5,46.25c9.584,14.167 25.834,18.333 42.5,17.5c18.75,-1.25 31.25,-16.25 34.584,-33.75c4.166,-19.583 -6.667,-37.083 -13.334,-54.583c-7.5,-19.584 -15,-39.167 -24.583,-58.334" style="fill:#4d4d4d;fill-rule:nonzero;"/><path id="Fill-27" d="M473.239,912.063c7.5,-8.333 15,-17.083 24.583,-22.5c9.583,-5.416 22.083,-7.5 32.083,-2.083c8.75,4.583 13.334,14.167 17.5,22.917c12.5,26.25 20.417,55.833 32.084,82.5c4.583,10.416 7.916,19.583 2.083,30.833c-5,10 -16.667,16.667 -27.917,16.667c-10.833,0 -23.75,-4.167 -31.25,-12.084c-12.916,-14.583 -12.5,-41.25 -20,-58.75c-1.666,-4.166 -4.166,-9.166 -8.75,-10.833c-3.75,-1.25 -7.916,-0.417 -11.25,2.083c-10.833,7.917 -17.916,17.917 -33.333,16.25c-2.083,-0.416 -4.167,-0.833 -5,-2.5c-1.25,-2.083 0.417,-5 1.667,-7.083c7.916,-12.917 12.083,-26.25 17.5,-40.417c3.75,-10 10.833,-17.916 14.583,-27.916" style="fill:#4e91ff;fill-rule:nonzero;"/><path id="Fill-29" d="M679.072,813.313c-15,-3.333 -22.5,-22.083 -25.417,-35c-3.75,-18.75 -5.833,-38.333 -1.666,-57.083c2.916,-13.75 10.833,-26.667 22.916,-33.333c7.917,-4.167 16.667,-2.5 24.167,-7.5c7.917,-5.417 15,-8.75 24.583,-6.25c20.834,4.583 30.834,25 33.75,44.166c3.75,22.917 -17.083,44.584 -32.083,60c-9.167,9.167 -17.5,18.75 -27.083,27.5c-2.5,2.084 -5,4.584 -7.917,5.834c-4.167,2.083 -7.917,2.5 -11.25,1.666" style="fill:#4d4d4d;fill-rule:nonzero;"/><path id="Fill-31" d="M684.489,801.647c-5.417,0.416 -10.834,-2.5 -14.167,-7.084c-3.333,-4.583 -4.583,-10 -5.833,-15.416c-6.667,-28.75 -6.25,-59.167 1.25,-87.5c2.5,-9.584 6.666,-31.25 18.75,-33.75c14.583,-2.917 39.166,17.5 47.5,27.916c20.416,25.417 22.083,52.917 -1.25,75.417c-10.834,10.417 -21.667,21.25 -32.917,31.667c-3.75,4.583 -7.917,8.333 -13.333,8.75" style="fill:#4e91ff;fill-rule:nonzero;"/><path id="Fill-33" d="M760.739,908.313c0,-1.666 0.416,-3.333 0.416,-5c-4.583,0.834 -8.333,-0.416 -12.5,1.667c-5,2.5 -9.166,7.5 -12.5,11.667c-5.833,6.666 -8.75,11.666 -17.5,13.75c-10.416,2.5 -21.25,6.25 -31.25,10c-6.666,2.5 -13.75,5.416 -17.916,11.25c-7.084,10 -2.5,26.25 7.083,33.333c10.417,7.5 27.083,11.667 40.417,9.583c12.5,-2.083 20.416,-13.333 27.083,-23.75c10.833,-18.333 14.583,-40.833 16.667,-62.5" style="fill:#4d4d4d;fill-rule:nonzero;"/><path id="Fill-35" d="M731.572,939.98c7.917,-15.417 12.917,-30.833 24.167,-45c5.416,-6.667 11.666,-12.917 15.416,-20.417c5.417,-11.666 0,-22.083 -8.333,-30.833c-7.083,-7.5 -18.75,-7.917 -28.333,-5c-19.584,5.833 -34.584,21.667 -43.75,39.583c-4.584,9.167 -11.25,17.084 -15.417,27.084c-4.583,10.833 -7.5,22.083 -9.583,33.333c-0.834,3.75 -1.25,7.917 -0.834,11.667c0.834,6.666 7.5,15.833 11.667,21.25c12.083,15.416 33.333,7.083 41.667,-7.084c5.416,-8.333 9.166,-16.666 13.333,-24.583" style="fill:#fff000;fill-rule:nonzero;"/><path id="Fill-37" d="M761.155,921.647c0.417,2.083 0.834,4.583 0.834,6.25c2.083,18.75 6.25,37.5 12.916,55c4.584,11.666 12.084,24.583 24.167,25.833c10.833,1.25 20,-7.5 27.917,-15c5.833,-5.833 12.083,-12.5 13.333,-20.833c1.667,-9.167 -2.5,-17.917 -6.667,-26.25c-13.75,-27.5 -26.25,-56.25 -42.083,-82.5c-6.25,-10.417 -14.583,-21.25 -26.25,-24.167c-8.333,-2.083 -17.5,0 -25,4.167c-31.667,17.5 -48.75,51.666 -62.917,83.333c-4.166,9.583 -8.75,24.583 -5.833,34.583c1.667,5.834 6.25,10.834 11.667,14.584c12.5,8.75 28.333,10 40,-1.25c12.083,-11.667 15.416,-27.5 22.083,-42.5c1.667,-4.167 3.75,-11.25 7.083,-14.167c5.417,-4.167 7.5,-1.25 8.75,2.917" style="fill:#4e91ff;fill-rule:nonzero;"/><path id="Fill-39" d="M593.655,855.397c2.917,-5.417 4.167,-11.25 4.167,-17.5c0,-2.084 -0.417,-5 -2.917,-5.417c-2.083,-0.417 -3.75,1.25 -5,3.333c-4.166,6.667 -6.25,15 -5.416,22.917c0.833,1.667 3.333,2.5 5,1.667c2.083,-1.667 3.333,-3.334 4.166,-5" style="fill:#4d4d4d;fill-rule:nonzero;"/><path id="Fill-41" d="M681.572,839.563c-0.833,-3.75 -2.083,-7.916 -4.583,-10.833c-0.834,-0.833 -2.084,-2.083 -3.334,-2.083c-2.5,0 -3.333,3.333 -3.333,5.833c-0.417,5.833 -0.417,11.25 -0.833,17.083c0,2.084 -0.417,4.167 0.416,6.25c0.834,2.084 2.084,3.75 4.167,4.167c3.75,0.417 6.25,-3.75 7.083,-7.083c1.25,-4.584 1.25,-9.167 0.417,-13.334" style="fill:#4d4d4d;fill-rule:nonzero;"/><path id="Fill-43" d="M762.405,634.563c-7.5,-1.666 -9.166,-12.083 -2.083,-15.416c19.583,-10 43.333,-11.667 64.167,-4.584c27.5,9.584 48.75,33.334 56.25,61.25c4.166,16.25 4.166,33.334 0,49.584c-2.084,8.333 -14.167,7.916 -16.25,-0.417c-4.584,-20.833 -16.25,-40.417 -32.084,-55c-19.583,-18.333 -44.166,-29.583 -70,-35.417" style="fill:#4e91ff;fill-rule:nonzero;"/></g><g id="tremble"><path id="Fill-45" d="M445.739,778.73c-7.917,0.833 -15,2.083 -22.5,4.167c-2.084,0.833 -5,2.083 -4.584,5c1.25,6.25 2.917,11.25 6.667,15.833c-5.833,0.833 -12.917,2.5 -14.583,6.667c-2.5,5 2.916,11.666 6.666,16.666c-6.25,2.5 -12.083,5.417 -17.5,9.584c-2.083,1.25 -2.916,3.333 -0.833,5c6.25,5 12.5,9.583 11.667,18.75c-0.417,5.416 10.833,3.333 10.833,-0.834c0.833,-9.166 -4.167,-15.416 -10.833,-20.833c4.583,-2.917 9.583,-5 15.416,-6.667c2.084,-0.833 5.834,-2.916 4.167,-5.833c-2.083,-3.333 -6.25,-7.083 -5.417,-11.25c0.834,-4.583 5.417,-4.167 10.417,-5.417c1.667,-0.416 6.667,-3.333 4.167,-5.833c-4.584,-4.583 -7.084,-9.167 -8.75,-15c4.583,-1.25 9.166,-2.083 14.166,-2.5c5.834,-0.833 8.334,-8.333 0.834,-7.5" style="fill:#e6e6e6;fill-rule:nonzero;"/><path id="Fill-47" d="M929.072,701.647c-3.333,-1.667 -8.75,-2.5 -12.083,-4.584c-6.667,-4.583 -1.25,-10.416 2.5,-16.25c0.833,-1.666 0,-2.916 -1.667,-2.916c-11.25,-1.667 -16.667,-12.917 -12.917,-22.917c1.25,-3.75 -9.583,-2.083 -10.833,1.25c-4.583,12.083 2.083,23.75 13.75,27.083c-2.917,5.417 -5,10.417 -6.667,16.25c-0.416,1.25 1.25,2.084 2.084,2.084c7.083,1.25 14.583,0.833 12.916,9.166c-0.833,5 -5,10.834 -7.5,15.417c-2.083,4.583 8.75,3.333 10,0.417c3.334,-7.5 7.084,-14.584 10.417,-22.084c1.667,-1.25 1.667,-2.5 0,-2.916" style="fill:#e6e6e6;fill-rule:nonzero;"/><path id="Fill-49" d="M888.655,888.313c-4.166,-2.083 -17.083,-7.916 -16.25,-14.166c0.417,-3.334 13.334,-10 16.25,-11.667c1.667,-0.833 2.917,-3.333 0.834,-4.583c-3.75,-2.084 -20.834,-7.5 -22.5,-10.417c-2.917,-5.417 2.083,-9.583 5.416,-14.583c2.917,-4.584 -7.916,-3.75 -10.416,-0.417c-3.334,5 -7.084,10.417 -10.417,15.417c-1.25,1.666 0.417,2.916 1.667,3.333c8.333,2.917 15.833,6.25 23.75,10c-6.667,3.75 -16.25,10 -17.084,15.417c-1.25,8.333 9.167,12.083 16.667,15.416c-7.083,5.417 -14.583,12.917 -10.833,22.084c1.666,4.166 5.833,5.833 7.083,9.166c2.5,6.667 -0.833,20.834 -0.417,28.75c0,3.75 11.25,1.667 10.834,-2.916c-0.417,-10.834 0,-20.417 1.666,-31.25c0.417,-1.25 -0.833,-2.5 -2.083,-2.5c-12.083,-2.084 0,-19.584 5,-22.917c1.25,-0.417 2.917,-2.5 0.833,-4.167" style="fill:#e6e6e6;fill-rule:nonzero;"/></g><g id="left_hand"><path id="Fill-51" d="M127.405,845.397c0.417,-7.084 1.667,-14.167 2.917,-20.834c8.75,-42.083 25.417,-73.75 61.25,-97.083c25,-16.25 55,-23.333 84.167,-28.333c19.166,-3.334 42.916,-10 45.833,-29.584c1.667,-13.75 -9.583,-26.25 -22.917,-30c-13.333,-3.75 -27.5,-1.25 -40.416,2.084c-64.584,16.666 -126.667,53.333 -162.5,109.583c-35.834,56.25 -40.834,134.167 -2.917,188.75c8.333,11.667 19.167,22.917 33.75,25.417c32.917,5.416 38.75,-32.917 24.167,-54.584c-3.334,-5 -7.5,-9.166 -11.25,-14.166c-10.417,-14.584 -13.334,-32.917 -12.084,-51.25" style="fill:#fff;fill-rule:nonzero;"/><path id="Fill-53" d="M165.322,1185.4c-0.417,0 -0.833,-0.417 -1.25,-0.834c-14.167,-7.083 -20.833,-22.083 -21.25,-37.083c-0.417,-19.167 -4.583,-39.167 -7.083,-58.333c-2.084,-16.25 -2.917,-35 8.75,-46.667c5.833,-5.417 13.75,-8.333 21.666,-7.083c2.084,0.416 4.584,0.833 6.25,2.5c2.084,1.666 2.917,4.583 4.167,7.083c12.917,35.833 25.417,71.667 38.333,107.5c2.084,5.417 3.75,11.667 1.25,16.667c-1.666,3.333 -5,5.833 -7.916,7.5c-12.5,7.916 -28.75,15 -42.917,8.75" style="fill:#4d4d4d;fill-rule:nonzero;"/><path id="Fill-56" d="M176.572,1184.56c-0.417,0 -0.833,-0.416 -1.25,-0.833c-14.167,-7.083 -20.833,-22.083 -21.25,-37.083c-0.417,-19.167 -4.583,-39.167 -7.083,-58.334c-2.084,-16.25 -2.917,-35 8.75,-46.666c5.833,-5.417 13.75,-8.334 21.666,-7.084c2.084,0.417 4.584,0.834 6.25,2.5c2.084,1.667 2.917,4.584 4.167,7.084c12.917,35.833 25.417,71.666 38.333,107.5c2.084,5.416 3.75,11.666 1.25,16.666c-1.666,3.334 -5,5.834 -7.916,7.5c-12.5,7.917 -28.75,15 -42.917,8.75" style="fill:#ff6496;fill-rule:nonzero;"/><path id="Fill-58" d="M277.405,1157.48c-2.916,4.167 -7.916,6.25 -12.916,7.917c-8.334,2.916 -16.667,5.833 -25,6.25c-8.75,0.416 -17.917,-2.084 -23.75,-8.334c-2.5,-2.5 -4.167,-5.833 -5.417,-8.75c-15.417,-30.416 -25,-63.75 -27.5,-97.916c5.833,-3.75 11.667,-7.917 18.333,-10c6.667,-2.084 14.167,-2.5 20.417,0.833c7.083,4.167 10.833,12.083 14.583,19.583c10,21.25 21.667,41.667 35,61.25c5.834,8.75 12.084,20.417 6.25,29.167" style="fill:#4d4d4d;fill-rule:nonzero;"/><path id="Fill-60" d="M289.489,1152.48c-2.917,4.167 -7.917,6.25 -12.917,7.917c-8.333,2.916 -16.667,5.833 -25,6.25c-8.75,0.416 -17.917,-2.084 -23.75,-8.334c-2.5,-2.5 -4.167,-5.833 -5.417,-8.75c-15.416,-30.416 -25,-63.75 -27.5,-97.916c5.834,-3.75 11.667,-7.917 18.334,-10c6.666,-2.084 14.166,-2.5 20.416,0.833c7.084,4.167 10.834,12.083 14.584,19.583c10,21.25 21.666,41.667 35,61.25c5.833,9.167 12.5,20.834 6.25,29.167" style="fill:#ff6496;fill-rule:nonzero;"/><path id="Fill-62" d="M308.655,1002.06c-18.75,-7.083 -39.166,-9.583 -59.166,-7.5c-5.834,0.834 -11.667,1.667 -17.084,0.834c-15.416,-2.917 -23.75,-21.667 -21.666,-37.084c0.416,-3.75 1.25,-7.5 3.333,-10.833c6.667,-12.5 23.333,-15 37.5,-16.25c27.917,-2.083 58.333,-3.75 81.25,12.083c6.25,4.167 12.083,10 13.75,17.5c2.083,8.334 -1.667,17.084 -5,25.417c-3.75,8.75 -9.583,18.333 -18.75,19.167c-4.583,0.416 -9.583,-1.667 -14.167,-3.334" style="fill:#4d4d4d;fill-rule:nonzero;"/><path id="Fill-64" d="M316.155,991.647c-18.75,-7.084 -39.166,-9.584 -59.166,-7.5c-5.834,0.833 -11.667,1.666 -17.084,0.833c-15.416,-2.917 -23.75,-21.667 -21.666,-37.083c0.416,-3.75 1.25,-7.5 3.333,-10.834c6.667,-12.5 23.333,-15 37.5,-16.25c27.917,-2.083 58.333,-3.75 81.25,12.084c6.25,4.166 12.083,10 13.75,17.5c2.083,8.333 -1.667,17.083 -5,25.416c-3.75,8.75 -9.583,18.334 -18.75,19.167c-5,0.417 -9.583,-1.667 -14.167,-3.333" style="fill:#ff6496;fill-rule:nonzero;"/><path id="Fill-66" d="M331.155,1122.9c-12.5,9.166 -28.333,19.166 -42.916,12.916c-4.584,-2.083 -8.75,-5.833 -12.084,-9.583c-27.5,-28.75 -46.25,-64.583 -62.5,-100.833c-0.833,-1.667 -1.25,-3.334 -0.833,-5c0.417,-1.25 1.667,-2.5 2.917,-3.334c6.666,-4.583 12.916,-8.75 19.583,-13.333c1.25,-0.833 2.5,-1.667 4.167,-1.667c2.5,0 4.166,2.084 5.833,3.75c25.833,30.834 66.667,45 94.583,73.75c4.167,4.167 8.334,9.167 9.167,15c2.083,11.667 -8.333,21.25 -17.917,28.334" style="fill:#4d4d4d;fill-rule:nonzero;"/><path id="Fill-68" d="M342.822,1118.31c-12.5,9.167 -28.333,19.167 -42.917,12.917c-4.583,-2.083 -8.75,-5.833 -12.083,-9.583c-27.5,-28.75 -46.25,-64.584 -62.5,-100.834c-0.833,-1.666 -1.25,-3.333 -0.833,-5c0.416,-1.25 1.666,-2.5 2.916,-3.333c6.667,-4.583 12.917,-8.75 19.584,-13.333c1.25,-0.834 2.5,-1.667 4.166,-1.667c2.5,0 4.167,2.083 5.834,3.75c25.833,30.833 66.666,45 94.583,73.75c4.167,4.167 8.333,9.167 9.167,15c2.5,11.667 -8.334,21.25 -17.917,28.333" style="fill:#ff6496;fill-rule:nonzero;"/><path id="Fill-70" d="M266.155,1022.06c-12.916,22.917 -37.5,36.667 -62.5,45.417c-21.666,7.5 -47.5,11.667 -66.25,-1.667c-4.583,-3.333 -8.333,-7.5 -11.666,-12.083c-9.584,-13.75 -13.334,-31.667 -10.417,-47.917c1.667,-8.75 5,-16.666 9.167,-24.583c14.583,-28.75 38.75,-55.417 70.416,-60.417c25.417,-4.166 52.5,7.5 67.5,28.75c15,20.417 16.25,50 3.75,72.5" style="fill:#4d4d4d;fill-rule:nonzero;"/><path id="Fill-72" d="M254.489,1011.65c-12.917,22.916 -37.5,36.666 -62.5,45.416c-21.667,7.5 -47.5,11.667 -66.25,-1.666c-4.584,-3.334 -8.334,-7.5 -11.667,-12.084c-9.583,-13.75 -13.333,-31.666 -10.417,-47.916c1.667,-8.75 5,-16.667 9.167,-24.584c14.583,-28.75 38.75,-55.416 70.417,-60.416c25.416,-4.167 52.5,7.5 67.5,28.75c14.583,20.416 16.25,50 3.75,72.5" style="fill:#ff6496;fill-rule:nonzero;"/><path id="Fill-74" d="M176.989,877.897c-5.417,-2.5 -12.084,-2.5 -19.167,0.416c-12.917,5.417 -24.583,16.25 -34.583,25.834c-14.584,14.583 -29.167,29.166 -44.167,43.333c-12.083,12.083 -8.75,22.083 0,32.083c7.5,9.167 21.667,4.167 32.917,-2.083c5,-2.917 9.583,-6.25 14.166,-10c18.334,-15 38.75,-26.25 52.917,-45.417c5,-6.666 8.75,-13.75 9.583,-22.5c0.834,-10 -4.166,-18.333 -11.666,-21.666" style="fill:#ff6496;fill-rule:nonzero;"/></g><g id="right_hand"><path id="Fill-76" d="M1050.32,841.647c10.833,-12.084 30.833,-12.5 45,-5c14.583,7.5 24.167,21.666 32.083,35.833c9.584,17.083 16.667,36.25 17.5,55.833c0.834,19.584 -5,40 -18.75,54.167c-6.25,6.25 -14.166,11.25 -21.666,16.25c-6.25,3.75 -13.75,7.917 -20.417,4.583c7.5,-13.75 7.5,-30.416 3.333,-45.416c-4.583,-15 -12.916,-28.334 -21.666,-41.25c-7.917,-11.25 -16.667,-22.5 -21.25,-35.834c-4.584,-13.333 -3.75,-29.166 5.833,-39.166" style="fill:#4d4d4d;fill-rule:nonzero;"/><path id="Fill-78" d="M1065.32,837.897c10.833,-12.084 30.833,-12.5 45,-5c14.583,7.5 24.167,21.666 32.083,35.833c9.584,17.083 16.667,36.25 17.5,55.833c0.834,19.584 -5,40 -18.75,54.167c-6.25,6.25 -14.166,11.25 -21.666,16.25c-6.25,3.75 -13.75,7.917 -20.417,4.583c7.5,-13.75 7.5,-30.416 3.333,-45.416c-4.583,-15 -12.916,-28.334 -21.666,-41.25c-7.917,-11.25 -16.667,-22.5 -21.25,-35.834c-4.584,-13.333 -3.75,-29.166 5.833,-39.166" style="fill:#ff6496;fill-rule:nonzero;"/><path id="Fill-80" d="M1124.9,846.647c10.417,-9.167 26.25,-12.5 39.584,-6.667c10,4.167 17.5,13.333 22.083,22.917c4.583,10 6.25,20.833 7.5,31.666c4.167,37.084 4.583,78.334 -15,111.25c-10.833,18.334 -29.167,34.167 -50.833,35.834c-4.584,0.416 -9.584,0 -13.334,-2.084c-6.25,-3.75 -8.75,-11.666 -7.916,-18.75c0.833,-7.083 3.75,-13.75 6.25,-20.416c7.916,-20.834 10.833,-43.334 7.916,-65.417c-2.916,-22.5 -11.25,-45 -8.333,-67.5c1.667,-8.75 6.25,-15.833 12.083,-20.833" style="fill:#4d4d4d;fill-rule:nonzero;"/><path id="Fill-82" d="M1139.9,850.397c10.417,-9.167 26.25,-12.5 39.584,-6.667c10,4.167 17.5,13.333 22.083,22.917c4.583,10 6.25,20.833 7.5,31.666c4.167,37.084 4.583,78.334 -15,111.25c-10.833,18.334 -29.167,34.167 -50.833,35.834c-4.584,0.416 -9.584,0 -13.334,-2.084c-6.25,-3.75 -8.75,-11.666 -7.916,-18.75c0.833,-7.083 3.75,-13.75 6.25,-20.416c7.916,-20.834 10.833,-43.334 7.916,-65.417c-2.916,-22.5 -11.25,-45 -8.333,-67.5c1.667,-8.75 6.25,-15.833 12.083,-20.833" style="fill:#ff6496;fill-rule:nonzero;"/><path id="Fill-84" d="M1164.49,1114.98c-1.667,2.917 -2.917,5.417 -5,8.333c-12.5,19.167 -93.75,52.5 -105.834,22.917c16.25,-8.333 32.5,-10.833 42.917,-28.75c18.75,-32.083 7.917,-75.833 -24.583,-93.75c-9.167,-5 -19.167,-10.417 -29.584,-8.333c-9.583,2.083 -16.666,9.583 -24.166,16.25c-7.084,6.666 -17.084,12.916 -26.25,10c-28.75,-7.917 6.25,-51.25 16.666,-61.25c12.5,-11.667 29.584,-17.5 46.667,-20.417c21.25,-3.333 43.75,-2.5 63.75,5.833c37.5,15.417 51.667,47.5 55.833,86.667c2.5,21.25 -0.416,43.333 -10.416,62.5" style="fill:#4d4d4d;fill-rule:nonzero;"/><path id="Fill-86" d="M1121.15,1126.65c0.417,3.333 0.417,6.666 0,10c-0.833,5.416 -2.5,11.666 -7.083,15c-8.75,6.666 -27.083,6.25 -37.5,6.25c-32.917,-0.417 -69.583,-9.167 -83.75,-41.25c-2.5,-5.417 -4.583,-11.667 -4.167,-17.5c0.417,-7.917 5,-14.584 11.25,-19.584c6.25,-4.583 13.75,-7.5 21.25,-9.166c8.75,-2.084 18.75,-3.334 26.25,2.083c4.167,2.917 6.667,7.917 9.167,12.5c6.25,11.667 10.417,20.833 23.75,23.75c12.083,2.5 26.667,-2.917 36.25,7.083c2.083,3.334 3.75,7.084 4.583,10.834" style="fill:#4d4d4d;fill-rule:nonzero;"/><path id="Fill-88" d="M1154.49,1124.98c-1.667,2.917 -2.917,5.417 -5,8.333c-17.917,27.084 -65,32.084 -94.167,32.084c-32.917,-0.417 -69.583,-9.167 -83.75,-41.25c-2.5,-5.417 -4.583,-11.667 -4.167,-17.5c0.417,-7.917 5,-14.584 11.25,-19.584c6.25,-4.583 13.75,-7.5 21.25,-9.166c8.75,-2.084 18.75,-3.334 26.25,2.083c4.167,2.917 6.667,7.917 9.167,12.5c8.75,16.667 13.75,29.167 34.583,20.417c11.25,-4.584 20.834,-13.75 24.584,-25.417c3.333,-10.833 1.666,-28.75 -3.334,-38.75c-2.916,-5.833 -7.5,-10.417 -12.916,-14.583c-2.084,-1.667 -4.584,-3.334 -7.5,-4.167c-3.75,-1.667 -8.334,-1.667 -12.5,-1.25c-2.917,0 -5.834,0.417 -8.334,1.25c-10.416,4.167 -17.5,20 -26.25,27.083c-4.166,3.334 -9.583,4.167 -15,4.584c-15.833,1.25 -41.25,10.416 -42.083,-13.334c-0.417,-13.75 9.167,-33.333 17.917,-44.166c15,-17.917 37.083,-29.584 60.416,-33.334c21.25,-3.333 43.75,-2.5 63.75,5.834c37.5,15.416 51.667,47.5 55.834,86.666c2.5,20.834 -0.417,42.917 -10,61.667" style="fill:#ff6496;fill-rule:nonzero;"/></g><g id="adoption"><path id="Fill-90" d="M591.989,103.313c209.166,-145.416 500,-37.083 607.5,182.084c80.416,164.166 53.333,343.333 -16.25,506.25c-72.084,-7.917 -155,-0.834 -192.084,-73.75c-8.75,-17.084 -17.5,-34.584 -25.833,-51.667c-10.833,-21.667 -22.083,-43.75 -39.583,-60.833c-11.25,-10.834 -24.584,-19.584 -37.917,-27.084c-31.25,-17.5 -67.083,-32.083 -102.5,-25.416c-41.25,7.5 -72.917,40.833 -113.333,52.083c-27.084,7.5 -55.417,5 -83.334,6.667c-38.333,2.5 -75.416,14.166 -111.666,26.666c-29.584,10.417 -62.5,32.084 -93.75,34.167c-25.834,-107.917 -24.584,-214.167 12.916,-318.75c19.167,-52.917 46.667,-102.917 82.084,-146.667c28.75,-35.416 68.333,-72.083 113.75,-103.75" style="fill:#4d4d4d;fill-rule:nonzero;"/><path id="Fill-92" d="M1160.32,411.23c0,-1.25 -0.417,-2.917 -1.25,-3.75c-0.833,-0.833 -2.083,-0.833 -2.917,-1.25c-49.166,-9.583 -100,-12.5 -150,-7.917c-2.5,0.417 -5.416,0.417 -7.083,2.5c-1.25,1.667 -1.667,3.75 -2.083,5.834c-7.084,54.166 -11.25,109.166 -12.917,163.75c40.417,7.083 80.833,13.333 121.667,18.75c5.833,0.833 12.083,1.666 17.5,-0.417c9.166,-3.75 13.75,-13.75 17.083,-23.333c17.083,-49.584 24.167,-102.084 20,-154.167" style="fill:#fff;fill-rule:nonzero;"/><path id="Fill-94" d="M1069.9,376.23c0,17.5 -2.5,34.167 -7.5,50.833c-0.833,2.5 10,1.25 10.834,-1.666c5.416,-17.084 7.916,-34.167 7.5,-51.667c0,-2.5 -10.834,-0.833 -10.834,2.5" style="fill:#fff;fill-rule:nonzero;"/><path id="Fill-96" d="M1098.24,380.813c-2.917,10 -5.834,20 -8.75,30c-1.25,4.167 9.583,2.917 10.833,-1.25c2.917,-10 5.833,-20 8.75,-30c1.25,-4.166 -9.583,-2.916 -10.833,1.25" style="fill:#fff;fill-rule:nonzero;"/><path id="Fill-98" d="M1134.9,501.23c14.584,-2.083 28.75,-0.417 42.5,5.833c3.334,1.667 13.334,-3.333 8.75,-5.416c-15.833,-7.084 -32.5,-9.584 -49.583,-6.667c-5.833,0.833 -9.167,7.5 -1.667,6.25" style="fill:#fff;fill-rule:nonzero;"/><path id="Fill-100" d="M1126.57,521.647c11.25,1.666 22.5,3.75 33.75,5.416c5.417,0.834 11.25,-6.666 3.75,-7.5c-11.25,-1.666 -22.5,-3.75 -33.75,-5.416c-5,-1.25 -10.833,6.25 -3.75,7.5" style="fill:#fff;fill-rule:nonzero;"/><path id="Fill-102" d="M969.905,513.73c12.084,-0.417 24.167,0.833 35.834,3.75c5.833,1.25 10.833,-6.667 3.75,-8.333c-12.917,-2.917 -25.417,-4.167 -38.75,-3.75c-6.25,0 -7.917,8.333 -0.834,8.333" style="fill:#fff;fill-rule:nonzero;"/><path id="Fill-104" d="M1074.49,473.73c-2.084,-8.333 28.333,-16.667 33.75,-17.083c12.916,-1.25 36.25,5.833 24.166,22.083c-5.416,7.083 -12.916,11.667 -20,16.667c-11.25,7.5 -22.083,15.833 -32.083,24.583c-3.75,3.333 -17.5,21.667 -21.667,22.083c-3.75,0.417 -5.416,-4.583 -6.25,-7.916c-4.166,-21.25 -22.916,-32.917 -29.583,-52.917c-2.5,-6.667 -2.917,-14.167 -2.917,-21.25c0,-5.417 0.417,-11.25 2.917,-15.833c2.5,-4.584 7.083,-9.167 12.5,-9.167c6.25,-0.417 12.083,4.167 16.667,8.75c9.583,8.333 19.583,17.5 22.5,30" style="fill:#ff6496;fill-rule:nonzero;"/><path id="Fill-106" d="M534.072,431.23c-16.667,-27.083 -10,-61.25 -12.917,-93.333c-0.416,-3.75 3.75,-6.667 7.084,-5c13.333,7.083 29.166,8.75 44.583,10c44.583,4.166 90,7.916 134.583,3.333c42.084,-4.583 84.167,-16.667 118.75,-41.25c2.917,-2.083 7.084,-0.417 7.917,3.333c7.083,44.584 1.25,91.25 -16.667,132.917c-3.333,7.5 -7.5,15.417 -13.75,20.833c-6.25,5 -14.583,7.084 -22.5,8.75c-65.416,14.584 -135.416,20.834 -197.5,-3.75c-19.583,-7.083 -38.75,-18.333 -49.583,-35.833" style="fill:#fff000;fill-rule:nonzero;"/><path id="Fill-108" d="M572.405,404.563c27.5,5.834 54.167,7.917 81.667,12.5c0.417,0 0.833,0 1.25,0.417c0.833,0.833 0.833,2.083 0,2.917c-0.833,0.833 -1.667,0.833 -2.917,1.25c-22.916,4.583 -47.5,0.833 -70.833,-1.667c-12.917,-1.667 -25.833,-3.75 -38.333,-7.083c-5.834,-1.667 -34.167,-6.667 -36.667,-12.5c-4.583,-10.834 1.667,-25 12.917,-29.167c-2.5,4.167 0.416,9.583 4.166,12.917c12.5,12.5 31.25,16.666 48.75,20.416" style="fill:#4d4d4d;fill-rule:nonzero;"/><path id="Fill-110" d="M773.239,409.563c-2.5,4.584 -7.5,7.084 -12.084,7.917c-5,1.25 -10,1.25 -15,2.083c-2.5,0.417 -5,1.25 -7.5,2.084c-14.583,3.75 -30,3.75 -45.416,3.75c-0.417,-3.334 2.083,-6.25 5,-7.917c2.916,-1.667 6.25,-2.083 9.583,-2.5l47.5,-6.667c6.25,-1.666 12.917,-2.083 17.917,1.25" style="fill:#4d4d4d;fill-rule:nonzero;"/><path id="Fill-112" d="M814.489,411.23c6.25,-0.833 12.5,-1.25 18.333,-3.333c5.833,-2.084 11.667,-5.417 15,-10.417c1.667,-2.083 2.5,-4.583 2.5,-7.083c0,-2.5 -1.667,-5.417 -4.583,-5.834c-2.084,-0.416 -5,0 -5.417,-2.083c-6.667,8.333 -15.833,14.583 -26.25,17.917c-5.833,1.666 -12.5,2.5 -16.25,7.5c-0.417,0.416 -0.417,0.833 -0.417,1.666c0,0.417 0.834,0.834 1.25,1.25c5,1.667 10.417,0.834 15.834,0.417" style="fill:#4d4d4d;fill-rule:nonzero;"/><path id="Fill-114" d="M597.405,447.063c-1.666,-10.416 -1.25,-21.25 -0.833,-31.666c0.417,-6.667 0.833,-13.75 2.917,-20c1.25,-3.334 2.916,-6.25 5.833,-7.917c3.333,15 3.333,31.25 0,46.25c-1.25,5 -3.333,10.833 -7.917,13.333" style="fill:#4d4d4d;fill-rule:nonzero;"/><path id="Fill-116" d="M744.072,427.897c-0.417,-5.417 -0.417,-10.834 0,-16.25c0,-5 0.833,-10.417 2.083,-15.417c0.417,-1.667 4.167,-12.083 3.75,-12.5c2.917,3.75 3.334,8.75 3.75,13.333c0.834,13.334 0,26.667 -2.083,39.584c-0.417,1.25 -0.417,6.25 -2.917,5c-0.833,-0.417 -1.25,-1.25 -1.666,-2.084c-1.667,-4.166 -2.5,-7.916 -2.917,-11.666" style="fill:#4d4d4d;fill-rule:nonzero;"/><path id="Fill-118" d="M540.322,234.98c17.917,-10.833 42.5,-8.75 58.333,4.167c16.25,13.333 22.5,37.083 15,56.666c-16.666,-27.5 -42.916,-49.583 -73.333,-60.833" style="fill:#fff000;fill-rule:nonzero;"/><path id="Fill-120" d="M785.322,231.23c-27.917,13.333 -52.5,33.75 -70.417,59.167c-8.75,-17.5 -1.25,-40 14.584,-51.667c15.416,-11.667 37.083,-12.917 55.833,-7.5" style="fill:#fff000;fill-rule:nonzero;"/><path id="Fill-122" d="M587.405,119.98c-21.666,-21.667 -31.666,-54.583 -25.833,-85c-24.167,8.75 -42.083,32.083 -45,57.5c-2.5,25.417 10.417,52.083 32.083,65.417" style="fill:#4d4d4d;fill-rule:nonzero;"/><path id="Fill-124" d="M980.322,93.73c27.083,-23.333 44.167,-54.167 48.75,-86.667c23.333,19.167 38.75,44.584 42.5,70.834c4.167,26.25 -3.333,52.916 -20.417,74.166" style="fill:#4d4d4d;fill-rule:nonzero;"/></g></svg>
