<?xml version="1.0" encoding="utf-8"?>
<!-- Generator: Adobe Illustrator 18.0.0, SVG Export Plug-In . SVG Version: 6.00 Build 0)  -->
<!DOCTYPE svg PUBLIC "-//W3C//DTD SVG 1.1//EN" "http://www.w3.org/Graphics/SVG/1.1/DTD/svg11.dtd">
<svg version="1.1" id="tnvr-v" xmlns="http://www.w3.org/2000/svg" xmlns:xlink="http://www.w3.org/1999/xlink" x="0px" y="0px"
	 viewBox="0 0 319 283" enable-background="new 0 0 319 283" xml:space="preserve">
<title>DF357C7E-E0DF-469D-9656-1B070CF8552F</title>
<desc>Created with sketchtool.</desc>
<g id="tnvr-v-syringe">
	<path id="Fill-21" fill="#FFFFFF" d="M6.7,215.5c3.3-3,6.5-5.9,9.8-8.9c4.7,5.9,9.4,11.7,14.1,17.6c15.6-12,30.6-25,44.7-38.8
		c8.5,10.8,16.9,21.6,25.4,32.4c-15.4,9.6-29.5,21.3-41.7,34.8c6.1,4.9,11.6,10.4,16.4,16.5c-3.3,3.3-7.1,5.5-10.4,8.7
		c-8.6-6.4-14.5-15.2-21.7-22.9C40.1,251.6,6.7,215.5,6.7,215.5"/>
	<path id="Fill-23" fill="#FFFFFF" d="M22.5,264.2c2.6,4,5.6,7.7,8.8,11.2c-2.9,2-5.5,4.3-8,6.8c-8.3-9.4-16.1-19.4-23.2-29.8
		c1.7-1.5,3.4-2.9,5.2-4.3c0.6-0.5,1.2-1,2-0.9c0.7,0.1,1.2,0.7,1.6,1.2c2.5,3.3,5.1,6.5,7.6,9.8c4.7-3.6,9.2-7.4,13.6-11.3
		c0.3-0.2,5.6,5.8,6.1,6.5c0.2,0.3,0.4,0.6,0.3,0.9c-0.1,0.2-0.2,0.3-0.3,0.4C31.5,257.8,26.6,260.6,22.5,264.2"/>
	<path id="Fill-25" fill="#FF6496" d="M66,238.6c-0.1-0.1,0.1-0.2,0.1-0.1c-2.7-2.8-3.5-6.8-4.6-10.4c-1.2-3.8-3.1-7.7-6.3-10.1
		c-1.8-1.4-3.9-2.4-6-3.4c0.4,0.2,2.9-1.7,3.3-2c1.2-0.8,2.4-1.6,3.6-2.5c2.1-1.5,4.2-3,6.2-4.6c4.5-3.6,8.8-7.5,12.9-11.4
		c6,7.6,11.8,15.3,17.5,23.2C83.5,223.9,74.9,231.4,66,238.6"/>
	<path id="Fill-27" fill="#4D4D4D" d="M67.4,245c-4.1-4.7-8.2-9.3-12.4-13.9c-1.6-1.7-6.5,0.4-4.8,2.3c4.2,4.6,8.4,9.2,12.4,13.9
		C64.1,249,69.1,246.9,67.4,245"/>
	<path id="Fill-29" fill="#4D4D4D" d="M76.9,236.5c-5-4.7-9.6-9.7-13.9-15c-1.3-1.6-6.3,0.4-4.8,2.1c4.3,5.3,9,10.3,13.9,15
		C73.6,240,78.5,238,76.9,236.5"/>
	<path id="Fill-31" fill="#4D4D4D" d="M84.4,229.6c-3.9-3.7-7.5-7.6-10.9-11.7c-1.6-1.9-6.5,0.2-4.8,2.4c3.6,4.4,7.5,8.6,11.7,12.5
		C82.3,234.5,86.7,231.8,84.4,229.6"/>
	<path id="Fill-33" fill="#4D4D4D" d="M94.2,223.6c-4-4.4-7.9-8.8-11.9-13.2c-0.8-0.9-5.6,1-4.9,1.7c4,4.4,7.9,8.8,11.9,13.2
		C90.1,226.2,94.9,224.4,94.2,223.6"/>
	<path id="Fill-35" fill="#FFFFFF" d="M94,197.8c10-9,20.6-17.3,30.9-25.9c1.1-0.9-3.7-0.5-4.7,0.3c-10.3,8.6-20.9,16.9-30.9,25.9
		C88.1,199.1,93,198.7,94,197.8"/>
	<path id="Fill-37" fill="#FF6496" d="M124.5,177.3c1.6,4.6-7.9,13.3-1.8,15.8c3.7,1.5,4.7-2.2,5.6-5.3
		C129.7,183.3,127.6,180.6,124.5,177.3"/>
	<path id="Fill-39" fill="#FF6496" d="M130.1,179.7c1.7,0.5,3.1,2.9,3.4,4.5c0.2,1.1,0.5,3.2,2.3,2.3c1.6-0.8,1.5-3.7,0.7-5
		C135.4,179.9,133,179.6,130.1,179.7"/>
</g>
<g id="tnvr-v-wow">
	<path id="Fill-41" fill="#E6E6E6" d="M186.3,27.5c3.3,4.8,7,9.3,10.9,13.8c1,1.2,1.7-1,1.1-1.8c-3.5-4.8-7-9.6-11-14
		C186.4,24.5,185.9,26.9,186.3,27.5L186.3,27.5z"/>
	<path id="Fill-43" fill="#E6E6E6" d="M199.1,26.2c1.5,5.1,3.9,10.1,6.3,14.9c0.8,1.6,1.9-0.3,1.5-1.4c-1.9-4.9-3.8-10.1-6.5-14.7
		C199.7,24.1,198.9,25.6,199.1,26.2L199.1,26.2z"/>
	<defs>
		<filter id="Adobe_OpacityMaskFilter" filterUnits="userSpaceOnUse" x="234.2" y="0.9" width="4.1" height="16.3">
			<feColorMatrix  type="matrix" values="1 0 0 0 0  0 1 0 0 0  0 0 1 0 0  0 0 0 1 0"/>
		</filter>
	</defs>
	<mask maskUnits="userSpaceOnUse" x="234.2" y="0.9" width="4.1" height="16.3" id="mask-2">
		<g filter="url(#Adobe_OpacityMaskFilter)">
			<polygon id="path-1" fill="#FFFFFF" points="238.3,0.9 234.2,0.9 234.2,17.2 238.3,17.2 			"/>
		</g>
	</mask>
	<path id="Fill-45" mask="url(#mask-2)" fill="#E6E6E6" d="M234.2,3.1c0.6,4.4,1.4,8.7,2.2,13.1c0.3,1.6,2,1.1,1.9-0.4
		c-0.5-4.6-1.1-9.1-1.8-13.7C236.1-0.3,234,1.3,234.2,3.1"/>
	<path id="Fill-48" fill="#E6E6E6" d="M244.6,7.7c-1.4,4.1-2.3,8.2-2.8,12.6c-0.2,1.7,1.6,2.9,2,0.8c0.8-3.9,1.7-7.8,2.9-11.6
		C247.2,7.9,245.4,5.4,244.6,7.7L244.6,7.7z"/>
	<path id="Fill-50" fill="#E6E6E6" d="M152.7,89c6.7,1.2,13.5,2,20.1,3.6c1.6,0.4,1.8-2.8,0.5-3.3c-6.5-2.3-13.8-3.9-20.7-3.3
		C151.3,86.2,151.5,88.7,152.7,89L152.7,89z"/>
	<path id="Fill-52" fill="#E6E6E6" d="M167.5,78c5.3,3,10.8,5.5,16.1,8.5c1.4,0.8,1.5-2.4,0.8-3c-4.4-4.1-10.4-7.9-16.3-9.1
		C166.1,74,166.2,77.3,167.5,78L167.5,78z"/>
	<path id="Fill-54" fill="#E6E6E6" d="M284,87.6c10.9-4.8,22.2-8.6,33.6-12c1.3-0.4,0.9-3.5-0.6-3.1c-11.6,2.8-22.8,7-33.6,12.3
		C282.3,85.3,282.6,88.2,284,87.6L284,87.6z"/>
	<path id="Fill-56" fill="#E6E6E6" d="M279,98.2c5-1.8,10.1-3.1,15.4-3.8c1.5-0.2,1.4-3.5-0.1-3.3c-5.6,0.5-10.9,1.9-15.9,4.5
		C277.5,96,277.7,98.6,279,98.2L279,98.2z"/>
</g>
<g id="tnvr-v-dog">
	<path id="Fill-1" fill="#4D4D4D" d="M132.5,144.7c0.3-1.1,0.7-2.1,1.2-3.2c3.3-7.7,9-14.1,15.1-19.9c4.2-3.9,9.7-10,15.3-11.5
		c7.6-2.1,15.8-1.5,23.6-2.6c9.7-1.4,18.9-5.1,27-10.6c4-2.8,7.7-6,11-9.6c1.6-1.7,2.9-4.2,4.5-5.7c1.7-1.6,4.1-2.2,6.4-3
		c2.4-0.9,5.2-1.8,7.4-0.5c2,1.2,2.7,3.8,2.9,6.1c1.2,10.3-1.5,20.6-4.5,30.5c-3.5,11.5-7.5,23-14.6,32.9c-3.3,4.7-4.6,7.1-10.5,8.5
		c-6.3,1.5-12.9,1.3-19.3,2.7c-15.1,3.3-29.5,20.2-45.3,18.6C135.6,175.7,127.9,159.6,132.5,144.7"/>
	<path id="Fill-3" fill="#4E91FF" d="M131.6,138.4c0.3-1.1,0.7-2.1,1.2-3.2c7.7-18,25.2-27.2,43.4-31.6c9.4-2.3,20.2-3.8,29-7.7
		c9.2-4.1,17-10.8,24.7-17.2c4-3.3,8.3-6.6,13.3-7.4c5.1-0.8,11.1,1.7,12.3,6.7c0.8,3.3-0.6,6.6-1.7,9.8c-3.2,8.7-4.6,17.5-4.8,26.7
		c-0.1,6.8-3.5,15.2-8.2,20.2c-4.7,5-10.6,9-16.5,12.3c-8.8,4.9-17.6,3.5-27.1,5.6c-15.1,3.3-29.5,20.2-45.3,18.6
		C134.7,169.4,127,153.3,131.6,138.4"/>
	<path id="Fill-5" fill="#4D4D4D" d="M136.4,151.6c4.1-16.5,21.5-27.2,36.6-32.2c4.8-1.6,14.6-5.4,18.4-0.9c3.3,3.9,3.8,9.7,5,14.4
		c1.2,4.9,5.6,7.3,10.5,8.4c4.8,1,15.7-0.6,18,5.1c2.2,5.6-3.3,7.7-6.4,10.7c-4.1,3.9-8.2,7.7-12.7,11.2c-5.1,4-10.4,7.7-15.7,11.3
		c-2.7,1.8-5.5,3.6-8.3,5.3c-2.5,1.6-4.7,3.4-7.7,4.1c-2.2,0.6-4.7,0.4-6.5-0.9c-1.7-1.2-2.6-3.2-2.9-5.3c-0.3-2.2-0.5-5.6,0.7-7.5
		c1.5-2.3,3.9-3.9,5-6.5c-1.6-0.5-4.4,2.5-5.8,3.3c-2.4,1.5-5,2.6-7.8,3.2C144,177.8,133.5,163.4,136.4,151.6"/>
	<path id="Fill-7" fill="#4E91FF" d="M131.8,147.9c4.9-19.5,30.7-32.9,49.2-35c1.3-0.1,2.6-0.2,3.8,0.3c1.3,0.5,2.2,1.7,2.9,2.8
		c4.8,7.9,2.6,18,0.3,27c-1.6,6.1-6.6,15.2-5,21.5c3-0.9,6.2-4.8,8.4-7c4.5-4.4,9.7-8,15.5-10.6c0.7-0.3,1.4-0.6,2.2-0.6
		c0.7,0,1.3,0.3,1.9,0.8c1.7,1.4,2.2,3.9,1.6,6c-0.9,3.5-2.9,5.2-5.6,7.4c-2.1,1.7-4.5,3.1-6.4,5c-2.1,2-4.2,3.9-6.5,5.8
		c-4.4,3.7-9.2,7-14.1,9.9c-3.4,2-7,3.9-11,4.2c-2.1,0.2-3.7-0.2-4.9-2c-0.9-1.5-1.1-3.4-0.9-5.1c0.3-2.4,1.2-4.6,1.9-6.9
		c0.6-1.9,1.4-4.8,0.3-6.7c-2.1,0.5-4.5,2.9-6.3,4.1c-2.1,1.3-4.4,2.4-6.9,2.9C139.4,174.1,128.8,159.7,131.8,147.9"/>
	<path id="Fill-9" fill="#4D4D4D" d="M217.9,53.9c2.9,0.8,5.9,1.4,8.8,1.8c1.5,0.2,2.9,0.4,4.4,0.1c1.4-0.2,2.9-0.9,3.7-2.2
		c0.6-0.9,0.8-2.1,1.4-3.1c0.8-1.5,2.7-2.7,4.4-2.6c1.5,0,2.1,1,3.2,1.9c3.4,3,6.9,2.2,10.9,1.3c3.1-0.7,6-1.8,8.9-2.8
		c3.3-1.1,6.5-2.4,9.7-3.7c0.1,0,0.2-0.1,0.4-0.1c8.3-1.8,11,5.2,10.8,12.2c-0.2,8-3.1,16.5-9.8,21.2c-3.4,2.4-7.5,1.5-11.4,2.7
		c-5.7,1.7-11,4.6-16.5,6.9c-1.4,0.6-3.8,0.9-5.3,0.7c-11.7-1.3-18.1-9.4-22.7-18.6c-2-4.1-3.6-8.5-5.7-12.5
		c-0.7-1.3-0.8-3.2,0.5-3.9c0.8-0.4,1.7-0.1,2.5,0.1C216.6,53.6,217.2,53.7,217.9,53.9"/>
	<path id="Fill-11" fill="#4E91FF" d="M218.1,51.2c3.4,0.4,6.8,0.7,10.1,1.1c1,0.1,2.2,0.1,2.6-0.8c0.3-0.6,0-1.3-0.3-1.9l-3.6-7.1
		c-0.6-1.1,0.2-2.5,1.5-2.6c4-0.3,8.1,1.6,11.7,3.6c2.9,1.6,6.2,3.8,9.5,4.3c1.8,0.3,4.1-0.6,5.8-1c3.1-0.7,6-1.8,8.9-2.8
		c3.3-1.1,6.5-2.4,9.7-3.7c0.1,0,0.2-0.1,0.4-0.1c8.3-1.8,11,5.2,10.8,12.2c-0.2,8-3.1,16.5-9.8,21.2c-3.4,2.4-7.5,1.5-11.4,2.7
		c-5.7,1.7-11,4.6-16.5,6.9c-1.4,0.6-3.8,0.9-5.3,0.7c-11.7-1.3-18.1-9.4-22.7-18.6c-1.9-3.9-3.8-7.8-5.7-11.7
		c-0.6-1.3,0.4-2.7,1.8-2.6L218.1,51.2z"/>
	<path id="Fill-13" fill="#4D4D4D" d="M267.4,53.4c-0.2,0.6-0.3,1.3,0.2,1.7c0.3,0.2,0.6,0.1,0.9,0.1c1.8-0.4,3.4-1.4,4.7-2.7
		c1.3-1.3,2.4-2.8,3.4-4.3c0.3-0.4,0.6-0.9,0.4-1.4c-0.2-0.5-0.9-0.7-1.5-0.7c-1.5-0.1-5.2-0.3-6.3,0.9
		C268.2,48.1,267.9,51.8,267.4,53.4"/>
	<path id="Fill-15" fill="#4D4D4D" d="M240.1,67c-2.1,2.7-4.5,0.3-5.4-2c-0.7-1.8-1.1-4.6,0.4-6.1c1.5-1.4,3.9-0.3,5,1
		C241.4,61.9,241.5,65.1,240.1,67 M242.6,59.1c0-0.1-0.1-0.1-0.1-0.2c0-0.1-0.1-0.1-0.1-0.2c-2-2.3-5.4-2.9-8.1-1.4
		c-3.4,1.9-3.3,6.3-1.7,9.4c1.6,3.3,5.1,4.3,8.2,2.4C244,67.1,244.5,62.2,242.6,59.1"/>
	<path id="Fill-17" fill="#4D4D4D" d="M248.2,57.2c-0.8-0.7-1.4-1.7-1.6-2.8c-0.1-0.4-0.1-0.9,0.2-1.1c0.5-0.4,1.2,0.1,1.7,0.6
		c0.5,0.6,1.1,1.3,1.5,2c0.4,0.6,0.8,1.5,0.2,2.1c-0.3,0.3-0.9,0.3-1.2,0.1c-0.4-0.2-0.6-0.6-0.8-1"/>
	<path id="Fill-19" fill="#4D4D4D" d="M93.3,115.5c-1.9-2.3-3.7-4.9-4.7-8.1c-1-3.1-0.6-6.9,1.2-7.8c1.7-0.8,3.8,0.9,5.6,2.5
		c4.1,3.6,33.8,33.3,30.8,37.8c-1.8,2.5-11.1-4.1-13.4-5.6C106,129.5,99.3,123,93.3,115.5"/>
	<path id="Fill-58" fill="#FFF000" d="M227.7,115c6.1-0.3,13.6,4.3,14.3,10.6c0.6,6.1-6.7,13.2-10.9,16.7c-1.4,1.1-2.8,2.2-4.1,3.3
		c-1.4,1.2-4.6,2.1-4.6,4c0,1,1.5,2.8,1.9,3.6c2.3,4.4,5.4,8.5,7.9,12.8c0.6,1.1,1.2,2.2,1.5,3.3c0.3,1.2,0.4,2.5-0.1,3.6
		c-1,2.1-3,3.5-4.8,4.8c-1.8,1.3-2.8,2.7-4.3,4.2c-3,3-8.4,3-11.7,0.6c-1.4-1-2.5-2.4-2.5-4.1c0-1.7,1.2-3.1,2.5-4.2
		c2.3-1.9,6.4-2.3,8.1-4.6c1.2-1.7-0.5-5.4-1.3-7.1c-1.3-2.6-3.4-5.1-5.4-7.2c-1.7-1.9-3.9-3.6-4.3-6.3c-0.3-2.2,0.8-4.4,1.9-6.3
		c3.2-5.5,1.7-12.9,4.3-18.8c1.9-4.1,5.3-7.8,9.8-8.8C226.5,115.1,227.1,115.1,227.7,115"/>
	<path id="Fill-60" fill="#4D4D4D" d="M234.8,105.9c6.8-1.9,10.9,3.2,12.6,9.2c1.4,5,1.5,10.7,0.2,15.7c-1.4,5.2-4.8,8.6-8.8,12
		c-1.4,1.1-2.8,2.2-4.1,3.3c-1.4,1.2-4.6,2.1-4.6,4c0,1,1.5,2.8,1.9,3.6c2.3,4.4,5.4,8.5,7.9,12.8c8.6,15.2-17.5,18.7-26.7,17.7
		c-1.5-0.2-3.1-0.5-4.2-1.5c-1.8-1.9-1.6-8.7,0.6-10.4c1.5-1.2,4.8,0.3,6.3,0.5c3,0.3,10.7,0.2,12.7-2.6c1.2-1.7-0.5-5.4-1.3-7.1
		c-1.3-2.6-3.4-5.1-5.4-7.2c-1.7-1.9-3.9-3.6-4.3-6.3c-0.3-2.2,0.8-4.4,1.9-6.3c1.3-2.2,1.6-4.9,2.1-7.3c1.3-7,0.5-14.7,3.4-21.3
		C226.6,110.9,230.4,107.1,234.8,105.9"/>
	<path id="Fill-62" fill="#4E91FF" d="M230.8,104.7c6.8-1.9,10.9,3.2,12.6,9.2c1.4,5,1.5,10.7,0.2,15.7c-1.4,5.2-4.8,8.6-8.8,12
		c-1.4,1.1-2.8,2.2-4.1,3.3c-1.4,1.2-4.6,2.1-4.6,4c0,1,1.5,2.8,1.9,3.6c2.3,4.4,5.4,8.5,7.9,12.8c0.6,1.1,1.2,2.2,1.5,3.3
		c0.3,1.2,0.4,2.5-0.1,3.6c-2.1,4.6-9.4,8.2-14,9.6c-3.9,1.1-7.8,2.3-11.8,2.5c-1.1,0.1-2.2,0-3.2-0.4c-3.2-1.6-6.2-10.2-2.8-12.8
		c1.5-1.2,4.8,0.3,6.3,0.5c3,0.3,10.7,0.2,12.7-2.6c1.2-1.7-0.5-5.4-1.3-7.1c-1.3-2.6-3.4-5.1-5.4-7.2c-1.7-1.9-3.9-3.6-4.3-6.3
		c-0.3-2.2,0.8-4.4,1.9-6.3c1.3-2.2,1.6-4.9,2.1-7.3c1.3-7,0.5-14.7,3.4-21.3C222.6,109.7,226.5,105.9,230.8,104.7"/>
</g>
<g id="shadow">
	<path id="Fill-64" fill-opacity="0.1" d="M173.3,218.1c-1.4,0.1-2.7,0.2-4,0.3c-12.2,0.9-24.7,3.6-34.6,11.2
		c-20.2,15.4,18.2,13.6,26.6,14.2c5.1,0.4,10.7,1.6,15.7,3c4.5,1.3,8.6,4.3,13.3,5.1c5.2,0.9,10.2-0.8,15.1-1.9
		c6.4-1.4,13-1.8,19.5-3.2c7.1-1.6,9.3-6,5.3-12.4c-5.3-8.5-16.6-9.6-25.3-12.5c-5.8-1.9-12.1-2-18-3.4
		C182.6,217.5,177.8,217.7,173.3,218.1"/>
</g>
</svg>
