<?xml version="1.0" encoding="UTF-8" standalone="no"?>
<!DOCTYPE svg PUBLIC "-//W3C//DTD SVG 1.1//EN" "http://www.w3.org/Graphics/SVG/1.1/DTD/svg11.dtd">
<svg width="100%" height="100%" viewBox="0 0 504 348" version="1.1" xmlns="http://www.w3.org/2000/svg" xmlns:xlink="http://www.w3.org/1999/xlink" xml:space="preserve" style="fill-rule:evenodd;clip-rule:evenodd;stroke-linejoin:round;stroke-miterlimit:1.41421;">
    <g id="background">
        <path id="Fill-1" d="M165.6,310.7C49.3,345.4 1.3,330.9 58.2,278.2C115.2,225.5 255.6,154.6 371.9,119.8C488.2,85 536.3,99.5 479.4,152.2C422.5,204.9 281.9,275.9 165.6,310.7" style="fill:white;fill-rule:nonzero;"/>
        <path id="Fill-4" d="M221.7,343.4C160.3,355.5 135,339.2 165.3,307C195.6,274.8 269.9,238.9 331.4,226.8C392.8,214.7 418.1,231 387.8,263.2C357.5,295.4 283.2,331.3 221.7,343.4" style="fill:white;fill-rule:nonzero;"/>
        <path id="Fill-16" d="M148.5,207.7C131.1,217.4 112.1,223.4 93.2,229.4C73.6,235.6 53.9,241.9 34.3,248.1C31.6,249 28.8,249.8 25.9,249.6C23.8,249.4 21.7,248.5 19.8,247.7C13.2,244.9 6.6,242.1 0.1,239.4C30.6,228.7 61.2,218.1 91.7,207.4C101.1,204.1 110.6,200.8 120.5,200C130.4,199.2 140.9,201.3 148.5,207.7" style="fill:rgb(255,100,150);fill-rule:nonzero;"/>
        <path id="Fill-18" d="M76.4,277.7C65.7,275.8 55.3,272 45.9,266.5C80,252.4 114.2,238.2 148.3,224.1C151.5,222.8 154.7,221.5 158.1,220.7C163.1,219.6 168.4,220 173.5,220.3C183.2,221 192.9,221.6 202.6,222.3C166,242.5 124.3,252.7 88.9,275C87,276.2 85,277.5 82.8,278C80.7,278.3 78.5,278 76.4,277.7" style="fill:rgb(255,100,150);fill-rule:nonzero;"/>
        <path id="Fill-20" d="M237.8,234.2L263.2,240.6C223.5,263 183.2,284.4 142.4,304.8C140.3,305.9 138.1,307 135.7,307.2C133.4,307.4 131.1,306.7 128.8,306.1C120.6,303.7 112.4,301.4 104.2,299C143.6,277.2 183.4,256.2 223.6,235.8C225.7,234.7 227.9,233.6 230.3,233.3C232.8,233 235.3,233.6 237.8,234.2" style="fill:rgb(255,100,150);fill-rule:nonzero;"/>
        <path id="Fill-22" d="M342,252.8C320.8,261.6 300.8,273.1 282.5,286.8C275.6,292 268.9,297.5 261.8,302.5C251.9,309.4 241.4,315.2 230.8,321C229.4,321.8 227.9,322.6 226.3,322.6C225.2,322.7 224,322.4 222.9,322.1C213.7,319.6 204.5,317.1 195.3,314.6C231.8,291.8 268.9,270 306.6,249.1C308.3,248.2 310.1,247.2 312,246.9C314.1,246.6 316.1,247 318.2,247.5C326.1,249.3 334,251 342,252.8" style="fill:rgb(255,100,150);fill-rule:nonzero;"/>
        <path id="Fill-24" d="M376,261.6C386.1,263 396.2,264.2 406.3,265.1C377.6,289.5 347.8,312.7 317.2,334.7C315.6,335.8 314,337 312.2,337.3C310.1,337.7 307.9,337.1 305.9,336.5C295.8,333.5 285.7,330.5 275.6,327.5C299.9,310 324.4,293 349,275.9L367,263.4C368.1,262.7 369.1,261.9 370.4,261.5C372.1,261.1 374.1,261.4 376,261.6" style="fill:rgb(255,100,150);fill-rule:nonzero;"/>
    </g>
    <g id="p1-wow">
        <path id="Fill-7" d="M175.7,118.8C174.1,106.7 167.8,95.1 161.9,84.7C155.7,73.7 148.9,63.1 141.8,52.7C139.7,49.6 135.9,49.7 133.9,52.9C131.6,56.6 132.2,61.3 134.2,64.9C134.3,65.1 134.4,65.3 134.5,65.5C134.4,65.5 134.2,65.4 134.1,65.4C126.6,64 125.8,75.4 129,79.9C131.6,83.6 135.3,86.4 138.5,89.6C141.6,92.7 144.4,96.1 147,99.6C152.1,106.6 155,114.2 158.3,122.2C159.3,124.5 161.2,127 163.7,127.5C165.1,130.5 167.7,133.4 171.3,131.8C176,129.6 176.3,123.2 175.7,118.8" style="fill:rgb(77,77,77);fill-rule:nonzero;"/>
        <path id="Fill-9" d="M206.7,50.5C203.3,36.1 198.8,21.3 192.9,7.7C191.9,5.5 189.9,3.1 187.4,3.4C184.5,0.4 179.8,-0.6 177.4,4.3C176.6,5.9 176,7.5 175.5,9.2C172.9,8.2 170.1,9.1 168.2,12.2C165.3,16.9 165.3,24.2 168.6,28.8C174.5,37 179.5,45.5 184,54.6C185.3,57.2 186.7,59.9 188.1,62.7C190.3,70 192.2,77.3 194,84.6C194.4,86.3 195.2,88.3 196.3,89.9C196.3,91.4 196.3,92.8 196.2,94.3C196,98.1 198,103.3 201.8,104.8C206.6,106.7 210.2,100.9 210.5,96.9C211.6,81.2 210.2,65.7 206.7,50.5" style="fill:rgb(77,77,77);fill-rule:nonzero;"/>
        <path id="Fill-12" d="M195.1,119.5C195.7,118.2 195.4,119 195.1,119.5M206.3,123.9C206.4,122.6 206.3,121.2 205.9,119.9C205.4,118.1 204.8,116.3 203.3,115C201.6,113.6 199.4,113.7 197.8,115.1C197.2,115.7 196.7,116.3 196.3,117C195.1,118 194.1,119.6 193.6,121.1C193.2,122.1 193,123.1 192.8,124.1L192.8,124.2C192.7,124.5 192.6,124.8 192.5,125.1L192.5,125.2C192.1,126.5 191.8,127.5 192.5,125.2C190.9,128.9 191.6,134.1 193.8,137.3C195.7,140.1 199.2,141.1 201.8,138.7C205.1,135.6 206.7,130.5 206.5,126C206.4,125.4 206.4,124.7 206.3,123.9" style="fill:rgb(77,77,77);fill-rule:nonzero;"/>
        <path id="Fill-14" d="M182.4,143.4C181.8,141.5 181.3,139.4 180,137.9C179.4,137 178.7,136.4 177.7,136C176.3,135.5 174.9,135.9 173.9,136.9C171.6,139.1 171.3,142.6 171.8,145.6C171.9,145.9 171.9,146.2 172,146.6C172,146.7 172,146.8 172,146.9C172,148.7 172.4,150.3 172.9,152C173.5,154 175.5,156 177.7,156C179.9,155.9 181.8,153.8 182.3,151.8C182.7,150.2 183.2,148.7 183,147C182.8,145.6 182.7,144.6 182.4,143.4" style="fill:rgb(77,77,77);fill-rule:nonzero;"/>
    </g>
    <g id="shadow_1_">
        <path id="Fill-26" d="M353.9,159C352.3,159.1 350.7,158.5 350.4,156.8C351.2,156.3 358.6,152.6 358.5,152C358.3,150.8 356.9,150.1 355.7,150.2C354.5,150.3 353.4,150.9 352.3,151.5C350.9,152.3 349.6,153.1 348.2,153.9C347.5,154.3 346.8,154.7 345.9,154.7C345.1,154.7 344.2,154.2 344.1,153.4C346.8,152.1 349.4,150.6 351.8,149C351.5,147.9 350.2,147.3 349.1,147.4C348,147.5 346.9,148.1 345.9,148.6C343.5,149.8 340.9,150.6 338.2,150.9C337.8,150.3 337.3,149.6 336.9,149C339,148 341.1,147 343.1,146.1C343.1,145.1 342,144.3 341,144.2C340,144.1 339,144.6 338.1,145.1C337.1,145.6 336.1,146.1 335.2,146.6C334.8,146.8 334.3,147 333.9,147C333,147 332.3,146.1 332.1,145.2C331.6,142.2 333.8,140 336,138.5C346.6,131.5 359.3,128.1 372,128C378.4,127.9 384.8,128.7 391,130.2C397.2,131.7 402.6,134.5 408.5,136.7C411.3,137.7 414.4,137.8 417.3,137.4C420.9,136.9 424.4,135.8 428,135.1C428.6,135 429.3,134.9 429.7,135.4C430.4,136.1 429.6,137.2 428.9,137.9C426.6,140.2 424.4,142.7 422.5,145.4C422,146.1 421.5,146.9 421.7,147.7C421.8,148.2 422.1,148.6 422.4,149C423.5,150.3 424.6,151.7 425.7,153C426.1,153.5 426.5,153.9 427,154.2C427.6,154.5 428.3,154.4 428.9,154.3C434.3,153.6 439.8,150.7 444.9,152.5C443,155.3 440.6,157.7 437.8,159.6C434.3,162 430.9,163.8 430.3,168.3C429.9,171.4 429.6,173.8 427.5,176.3C421.1,184.1 413,189.5 404.5,194.6C381.7,208.2 359.2,222.2 336.9,236.6C325.4,244 314.1,251.4 302.7,259C297.9,262.2 292.1,267.8 286.7,269.8C282.4,271.3 278.1,270.3 273.6,271.1C269.8,271.8 266.6,274.1 263.3,276C260,277.9 256,279.4 252.3,278.2C248.6,277.1 246.1,272.1 248.6,269.2C249.5,268.1 250.9,267.5 252.2,266.9C261.6,263 271.3,259.5 279.9,254C288.5,248.5 296,240.6 298.8,230.8C252.9,242.2 212.2,268.7 167.6,284.5C166.4,280.5 168.7,276.1 172,273.4C175.2,270.7 179.3,269.3 183.2,267.7C195.7,262.5 207,254.4 216,244.2C207.8,243.1 199.8,246.2 192.1,249.3C173.6,256.7 155.1,264.1 136.5,271.6C131.7,273.5 125.6,275.3 121.8,271.7C156.2,253.9 191.1,237.2 226.5,221.6C243.5,214.1 261.7,211 278,202.9C298.3,192.9 319.3,184.7 341.2,178.9C346,177.6 350.9,176.5 355.2,173.9C358.6,171.8 361.5,168.7 358.3,165.1C357.3,164 356.3,163.8 356.9,162.4C357.6,160.8 362.6,159.1 364.2,158.6C364.4,158.5 364.6,158.4 364.7,158.2C364.7,158.1 364.7,157.9 364.6,157.8L363.7,156.2C363.5,155.9 363.3,155.5 363,155.4C362.7,155.3 362.3,155.5 362,155.6C360.1,156.6 358.2,157.5 356.3,158.5C355.6,158.7 354.8,158.9 353.9,159" style="fill-opacity:0.0980392;fill-rule:nonzero;"/>
        <path id="Fill-58" d="M370.9,141.8C369.8,141.7 368.6,141.5 368,140.6C366.7,138.9 368.7,136.5 370.6,135.5C375.3,133 380.8,132.2 386,133.2C387.4,133.5 388.8,133.9 389.8,134.8C390.9,135.7 391.5,137.3 391,138.6C390.4,140.2 388.5,140.8 386.8,141.2C381.6,142.2 376.2,142.4 370.9,141.8" style="fill:white;fill-rule:nonzero;"/>
        <path id="Fill-60" d="M407.7,146.1C408.7,147.1 409.4,148.5 409,149.8C408.6,151 407.4,151.7 406.3,152.3C400.5,155.1 394.1,156.5 387.7,156.4C385.3,156.4 382.7,156 380.9,154.4C379.1,152.8 378.9,149.4 380.9,148.1C381.4,147.8 382,147.6 382.6,147.5C386.9,146.3 390.9,144.2 395.3,143.3C399.6,142.5 404.6,142.9 407.7,146.1" style="fill:white;fill-rule:nonzero;"/>
        <path id="Fill-62" d="M352.2,139C351.3,140.2 348.6,140.8 348.5,138.7C348.4,136.9 349.9,136.2 351.2,136.4C352.4,136.5 353.3,137.5 352.2,139" style="fill:white;fill-rule:nonzero;"/>
        <path id="Fill-64" d="M359,139.9C359.4,140 359.8,140.1 360.2,140.3C361.2,141 361.2,142.6 360.4,143.5C359.6,144.4 358.4,144.8 357.2,144.8C356.5,144.8 355.8,144.7 355.3,144.3C354.6,143.7 354.5,142.6 354.6,141.6C354.6,141.1 354.7,140.6 355,140.3C355.3,139.9 355.9,139.8 356.4,139.8C357.2,139.7 358.1,139.7 359,139.9" style="fill:white;fill-rule:nonzero;"/>
    </g>
    <g id="p1-dog">
        <path id="Fill-28" d="M113.6,269.2C113.5,268.6 113.5,268.1 113.5,267.5C113.4,257.4 117,248.1 121.1,239C121.4,238.3 121.8,237.6 122.4,237.1C123,236.6 123.8,236.5 124.6,236.3C130.6,234.9 133.6,231.4 136.7,226.4C139.2,222.2 139.4,219 140.1,214.1C140.8,208.7 140.1,203.8 142.5,198.6C147.3,188.2 161.6,182.5 170.3,191.5C180.6,202.1 173.4,224.4 162.2,231.7C154.3,236.9 144.2,238.6 135.6,242.4C128.4,245.6 121,256.6 121.5,264.7C121.6,265.8 121.8,267 122.1,268.1C122.5,270 122.9,271.8 123.3,273.7C121.7,274.3 119.9,274.6 118.2,274.2C116.5,273.8 114.9,272.7 114.2,271.1C113.8,270.5 113.7,269.9 113.6,269.2" style="fill:rgb(77,77,77);fill-rule:nonzero;"/>
        <path id="Fill-30" d="M237.7,240.6C236.7,237.1 235.5,233.6 234.2,230.1C231.5,223 228.8,216.3 229.1,208.5C229.3,203.1 228.2,198.5 230.6,193.4C234.6,185 245.2,177 254,183.8C258.5,187.3 259.9,193.5 259.6,199.2C259.3,204.6 257.8,210 255.2,214.8C253.1,218.6 250.3,222.1 248.6,226.2C246.2,232 245.5,240.2 247,246.3C247.8,249.6 248.6,252.9 249.4,256.2C250.8,261.9 252.7,267.4 256.6,271.8C257.8,273.2 260.3,274.3 260.2,275.9C260,279.1 255.2,280.6 252.7,279.6C245.7,276.9 244,269.5 242.5,262.9C240.9,255.5 239.8,247.9 237.7,240.6" style="fill:rgb(77,77,77);fill-rule:nonzero;"/>
        <path id="Fill-32" d="M162.7,220.9C153.2,213.8 148.4,194.2 160.4,187.9C165.6,185.2 173.2,183.3 179.1,182.8C190.2,182 201.3,184.5 212.3,186C221.6,187.3 232.1,186.2 239.7,180.1C246.2,174.9 250.4,166.2 258.1,162.6C261.2,161.1 264.3,157.8 267,161.2C270.6,165.7 270.6,172 271.5,177.4C272.6,183.6 272.8,190 272,196.3C271.1,204.2 268.7,212 265.1,219C263.4,222.4 261.2,227 258.3,229.5C255.5,231.9 251,233.2 247.6,234.6C242.9,236.6 241.1,237.9 236,236.7C232,235.7 228.3,234 224.7,232.2C217.6,228.7 210.6,224.5 202.6,223.4C196,222.5 189.3,223.9 182.6,224.5C175.9,225.1 168.8,224.8 163.3,221C163,221.1 162.8,221 162.7,220.9" style="fill:rgb(78,145,255);fill-rule:nonzero;"/>
        <path id="Fill-34" d="M164.8,248.1C164.1,248.1 163.5,247.9 163.1,247.4C162.6,246.8 162.6,246 162.5,245.2C162.4,241.2 163.3,237.6 163.3,233.6C163.5,228.7 162.1,225.7 160.4,221.2C158.5,216.1 155.4,212.2 155.1,206.5C154.7,200.2 157.1,196.5 163,194.3C168.3,192.4 174.3,191.5 179.5,193.8C191.5,199.2 193.9,215.5 188.2,226.1C185.8,230.6 182.3,234.3 179.2,238.2C176,242.3 171.8,245.6 167,247.5C166.4,247.9 165.5,248.2 164.8,248.1" style="fill:rgb(77,77,77);fill-rule:nonzero;"/>
        <path id="Fill-36" d="M249.5,193C251.5,194.4 253.2,196.6 254.4,198.8C256.7,202.8 258.3,207.2 259.1,211.7C259.5,213.7 259.6,215.8 259,217.7C258.4,219.5 257,221 255.7,222.4C252.8,225.4 246,233.1 241.7,233.5C248.3,235 254.8,231.6 261.3,229.7C265.1,228.6 275.4,230.2 272.4,236.5C271.1,239.2 267.9,239.1 265.5,239C257.4,238.5 248.7,240.9 241.2,243.7C237.5,245.1 231,244.4 229.4,240.2C228.4,237.6 229.5,234.7 230.4,232.1C232.2,226.6 232.7,220.7 232,214.9C231.4,209.9 229.8,204.6 231.8,200C233.1,197 235.8,194.8 238.6,193.3C240.7,192.1 243.2,191.2 245.6,191.5C247.2,191.7 248.7,192.6 250.2,192.8C252.3,193.1 253.4,193.1 255,195C259,199.7 261.9,205.3 263.4,211.2C264,213.6 264.4,216.1 263.3,218.3C262.5,220.1 260.9,221.3 259.5,222.6C254.3,227.1 249.6,232.3 245.7,237.9" style="fill:rgb(77,77,77);fill-rule:nonzero;"/>
        <path id="Fill-38" d="M164.3,282.7C163.9,282.3 163.6,281.8 163.3,281.3C157.8,272.8 155.9,263 154.5,253.2C154.4,252.4 154.3,251.7 154.6,250.9C154.9,250.2 155.5,249.6 156,249.1C160.3,244.7 161,240.2 160.9,234.3C160.8,229.4 159.2,226.5 157.2,222.1C154.9,217.1 151.7,213.4 150.9,207.7C149.4,196.3 158.4,183.9 170.6,186.9C185,190.4 190.8,213 185.3,225.2C181.4,233.8 173.8,240.7 168.5,248.5C164.1,255 163.7,268.3 168.5,274.9C169.2,275.8 170,276.6 170.8,277.4C172.1,278.8 173.5,280.1 174.8,281.5C173.8,282.9 172.4,284.1 170.7,284.7C169.1,285.3 167.1,285.1 165.7,284.2C165.1,283.6 164.7,283.2 164.3,282.7" style="fill:rgb(78,145,255);fill-rule:nonzero;"/>
        <path id="Fill-40" d="M257.4,195.8C259.7,199.8 261.3,204.2 262.1,208.7C262.4,210.7 262.6,212.8 262,214.7C261.4,216.5 260,218 258.7,219.4C255.8,222.4 249,230.1 244.7,230.5C251.3,232 257.8,228.6 264.3,226.7C271.1,224.7 275.8,227.5 276.4,234.8C276.9,240.1 274.8,245.2 272.7,250.1C272,251.8 271.1,253.6 269.5,254.4C266.4,256 262.9,253.4 260.4,251C264.8,248.5 267.9,243.7 268.4,238.6C260.8,236 252.6,239 244.7,240.7C240.1,241.7 233.9,241.5 232.2,237.1C231.2,234.5 232.3,231.6 233.2,229C235,223.5 235.5,217.6 234.8,211.8C234.2,206.8 232.6,201.5 234.6,196.9C235.9,193.9 238.6,191.7 241.4,190.2C243.5,189 246,188.1 248.4,188.4C252.4,188.8 255.4,192.3 257.4,195.8" style="fill:rgb(255,240,0);fill-rule:nonzero;"/>
        <path id="Fill-42" d="M261.5,142.9C260.9,142.8 260.5,142.3 260.4,141.7C259.9,137.4 258.1,133.3 255.3,130.1C254.5,129.2 253,129.7 252.9,130.9C251.7,140.1 243.5,153.8 233,154C230.4,154.1 227.9,153.4 225.3,153.4C219,153.5 216,158.8 218.2,164.5C219.9,168.9 222.6,173 226.1,176.2C227.1,177.1 228.3,178 229.6,178.4C232.6,179.3 235.7,177.5 238.8,176.5C241.1,175.7 244.4,175.1 246.8,175.7C251.8,177 246.1,181.1 244.3,182.3C243.8,182.7 243.2,183.1 243.1,183.7C242.9,184.7 244,185.6 245,185.7C247.7,186 251.5,184.4 253.9,183.3C257.1,181.9 260,179.9 262.7,177.8C267.5,174.2 271.3,169.5 275.2,165C280.1,159.4 279.8,151.4 278.3,144.6C277.7,141.7 277,136.5 274.7,134.4C271.6,131.6 269.2,136.3 268.5,138.8C268.1,140.2 267.9,141.5 267.4,142.9C267.1,143.5 266.5,143.9 265.8,143.8L261.5,142.9Z" style="fill:rgb(78,145,255);fill-rule:nonzero;"/>
        <path id="Fill-44" d="M183.1,211.7C183.1,213.7 183,215.7 182.6,217.6C182,219.9 181,222 180,224.1C177.9,228.3 175.8,232.6 173.2,236.6C171.9,238.5 168.7,244.5 166.1,244.9C162.7,245.4 164,238.9 164,236.6C164.1,229.8 163.7,224 160,218.2C155.9,211.7 151,203.2 154.4,195.4C156.4,190.7 162,188 167.1,188.6C172.2,189.2 176.7,192.6 179.4,197C182,201.3 183,206.6 183.1,211.7" style="fill:rgb(255,240,0);fill-rule:nonzero;"/>
        <path id="Fill-46" d="M223.9,220.6C225,220.2 225.7,219.2 226.2,218.2C229.9,211.3 226.3,202.2 230,195.2C231.4,192.6 233.6,190.7 235.7,188.6C236,188.3 236.3,188 236.4,187.6C236.5,186.9 236,186.3 235.3,186.1C234.7,185.9 234,186.1 233.3,186.2C221.5,188.9 208.8,191.7 197.5,187.4C196,186.8 194.5,186.2 193,185.6C185.6,182.8 177,183 169.8,186.2C175.5,187.2 181.1,188.9 185.9,192.1C190.7,195.3 194.5,200.1 195.7,205.8C196.1,207.9 196.2,210 196.9,212C197.7,214.2 199.4,216 201.5,217C203,217.7 204.7,218 206.3,218.3C209.3,218.8 212.4,219.4 215.4,219.9C217.4,220.3 219.4,220.6 221.5,220.7C222.3,220.9 223.2,220.9 223.9,220.6" style="fill:rgb(255,240,0);fill-rule:nonzero;"/>
        <path id="Fill-48" d="M261.5,139.4C260.9,139.3 260.5,138.8 260.4,138.2C259.9,133.9 258.1,129.8 255.3,126.6C254.5,125.7 253,126.2 252.9,127.4C251.7,136.6 243.5,150.3 233,150.5C230.4,150.6 227.9,149.9 225.3,149.9C219,150 216,155.3 218.2,161C219.9,165.4 222.6,169.5 226.1,172.7C227.1,173.6 228.3,174.5 229.6,174.9C232.6,175.8 235.7,174 238.8,173C241.1,172.2 244.4,171.6 246.8,172.2C251.8,173.5 246.1,177.6 244.3,178.8C243.8,179.2 243.2,179.6 243.1,180.2C242.9,181.2 244,182.1 245,182.2C247.7,182.5 251.5,180.9 253.9,179.8C257.1,178.4 260,176.4 262.7,174.3C267.5,170.7 271.3,166 275.2,161.5C281.5,154.1 279.2,143.1 276.5,134.5C275.5,131.5 273.8,128 271.1,126.8C270.1,126.4 269.1,127.1 269.1,128.2C269.3,132 268.7,135.8 267.3,139.3C267,139.9 266.4,140.3 265.7,140.2L261.5,139.4Z" style="fill:rgb(255,240,0);fill-rule:nonzero;"/>
        <path id="Fill-50" d="M232.7,160C232.9,158 232,155.9 230.5,154.5C228.6,155 226.7,155.7 224.8,156.4C224.6,156.9 224.9,157.5 225.3,157.8C225.7,158.1 226.3,158.2 226.8,158.3C228.8,158.8 230.8,159.4 232.7,160" style="fill:rgb(77,77,77);fill-rule:nonzero;"/>
        <path id="Fill-52" d="M254.8,149.3C254.1,149.7 253.3,150.1 252.6,150.5C251.7,150.5 250.9,150.2 250.2,149.6C249,148.5 249,146.3 249.3,144.9C249.8,142.8 251.9,140.5 254.3,141.9C256,143 256,144.8 255.5,146.5C255.4,147.2 255.2,148.8 254.8,149.3M253.6,140.5C250.8,140.4 248.3,142.4 247.6,145.1C246.8,148.4 248.4,151.4 251.9,151.5C253.1,151.5 254.5,151.3 255.5,150.6C256.8,149.7 256.9,147.7 257.3,146.3C258.1,143.4 256.9,140.6 253.6,140.5" style="fill:rgb(77,77,77);fill-rule:nonzero;"/>
        <path id="Fill-54" d="M268.3,149.6C268.3,150.2 268.2,150.9 267.8,151.4C267.4,151.9 266.7,152.2 266.2,151.9C266.3,150.7 266.4,149.4 266.5,148.2C266.7,147.7 267.5,147.6 267.8,148C268.2,148.4 268.3,149 268.3,149.6" style="fill:rgb(77,77,77);fill-rule:nonzero;"/>
        <path id="Fill-56" d="M150.6,184.4C151.6,179.4 149.1,174.4 146.7,169.9C142.9,162.9 140.6,156.8 138.5,149.4C137.5,145.9 131.7,136 126.5,141C119.8,147.3 142.3,176.6 146.4,182C147.4,183.3 148.9,184.8 150.6,184.4" style="fill:rgb(255,240,0);fill-rule:nonzero;"/>
    </g>
</svg>
