<?xml version="1.0" encoding="UTF-8" standalone="no"?>
<!DOCTYPE svg PUBLIC "-//W3C//DTD SVG 1.1//EN" "http://www.w3.org/Graphics/SVG/1.1/DTD/svg11.dtd">
<svg width="100%" height="100%" viewBox="0 0 556 619" version="1.1" xmlns="http://www.w3.org/2000/svg" xmlns:xlink="http://www.w3.org/1999/xlink" xml:space="preserve" style="fill-rule:evenodd;clip-rule:evenodd;stroke-linejoin:round;stroke-miterlimit:1.41421;">
    <g id="Layer_1">
        <path d="M0,576.05C-0.58,569.89 5,565.05 10.33,561.83C35.43,546.56 65.18,541.38 94.15,536.48C136,529.42 178.13,522.34 220.47,524C240.2,524.79 259.8,527.48 279.47,529.68C366.31,539.4 455.42,539.73 538.16,567.8C547.08,570.8 557.85,577.95 554.74,586.8C552.45,593.33 544.17,595.03 537.28,595.7C389.28,610.1 240.56,624.52 92.19,615.08C60.48,613.08 25.6,608.39 4.61,584.54C2.4,582.15 0.35,579.32 0,576.05Z" style="fill-opacity:0.1;fill-rule:nonzero;"/>
        <path d="M220.65,22.81C219.77,18.15 218.65,13.53 217.48,8.88C217.04,7.101 215.43,5.84 213.597,5.84C212.456,5.84 211.369,6.328 210.61,7.18C198.21,21 186.26,35.59 180,53C178.76,56.42 177.63,60.12 174.83,62.45C172.798,63.944 170.446,64.943 167.96,65.37C161.608,66.819 155.084,67.368 148.58,67C147.115,67.065 145.67,66.643 144.47,65.8C143.24,64.73 142.94,62.97 142.69,61.36C139.44,39.74 133.29,16.76 117.9,1.83C117.157,1.125 116.171,0.732 115.147,0.732C113.292,0.732 111.668,2.023 111.25,3.83C105.49,27.72 100.81,52.77 97.35,77C93.76,102.14 90.05,127.26 85.55,152.25C81.42,175.19 75.7,197.36 75.06,220.65C74.59,237.4 81.77,258.84 100.45,261.38C114.23,263.25 127.78,254.24 141.39,252.69C155.73,251.06 169.75,256.32 183.57,260.12C195.62,263.43 212.77,267.3 223.21,258.82C232.45,251.31 237.21,235.82 237.9,224.45C238.3,217.32 237.32,210.2 236.34,203.13C234.29,188.37 229.12,174.29 227.24,159.58C225.362,143.794 224.361,127.917 224.24,112.02C224,97.29 224.12,82.57 223.74,67.84C223.48,57.93 222.45,47.97 222.34,38.08C222.228,32.95 221.663,27.84 220.65,22.81L220.65,22.81Z" style="fill:rgb(78,145,255);fill-rule:nonzero;"/>
        <path d="M108.27,75.15C108.82,59.15 109.35,43.15 111.57,27.31C111.91,24.9 112.57,0.5 113.57,0C108.75,2.64 107.2,8.44 106.08,13.47C93.54,69.41 90,127 78.19,183.11C75.92,193.88 73.33,204.66 72.8,215.66C72.27,226.66 73.96,238.06 79.7,247.46C83.7,254.03 91.19,259.84 98.57,257.64C105.68,255.52 108.86,247.12 109.21,239.71C109.98,223.1 99.72,206.07 106.64,190.16C109.77,182.97 115.47,175.9 114.64,167.57C113.9,160.06 107.44,154.88 104.71,148.16C102.66,143.1 102.71,137.47 102.94,132.01C103.57,112.68 107.62,94.19 108.27,75.15Z" style="fill:rgb(255,240,0);fill-rule:nonzero;"/>
        <path d="M205.82,178.14C200.59,169.95 193.62,163.2 184.21,159.51C181.962,158.647 179.665,157.919 177.33,157.33C160.57,152.98 139.75,148.85 123.72,157.48C110.97,164.35 103.53,177.48 98.15,190.42C92.1,205 82.31,219.71 81.9,236C81.73,242.75 83.34,249.85 90.29,252.14C114.38,259.897 139.243,265.007 164.44,267.38C174.02,268.66 183.67,269.88 193.35,269.85C201.41,269.85 212.47,269.77 219.35,265.05C225.35,260.94 227.48,255.74 226.05,248.68C223.82,237.68 221.57,226.68 219.37,215.68C216.9,203.25 213,189.35 205.82,178.14Z" style="fill:rgb(77,77,77);fill-rule:nonzero;"/>
        <path d="M166.07,171.23C150.2,168.82 134.61,165.78 120.38,175.23C105.18,185.34 99.15,201.23 94.54,218.14C93.945,220.036 93.608,222.004 93.54,223.99C93.54,229.11 97.32,233.74 102.02,235.8C112.59,240.44 118.79,233.12 128.37,230.47C138.28,227.73 148.58,226.03 158.89,226.74C165.74,227.21 172.22,229.11 179.02,229.74C184.75,230.15 189.88,232.93 194.63,235.94C198.91,238.66 203.51,240.63 207.86,243.34C209.43,244.34 211.23,245.34 213.02,244.86C213.61,235.91 210.67,225.42 208.91,216.67C207.22,208.29 204.57,199.4 200.56,191.81C193.51,178.58 180.13,173.37 166.07,171.23Z" style="fill:rgb(255,100,150);fill-rule:nonzero;"/>
        <path d="M224.1,260.51C219.8,239.51 212.55,219.91 197.95,207.81C188.27,199.81 175.59,197.06 163.32,195.66C149.55,194.09 134.85,194.08 122.83,201.27C105.83,211.46 98.72,232.98 93.59,252.8C70.899,340.566 59.653,430.899 60.13,521.55C60.13,524.92 60.21,528.44 61.7,531.44C64.26,536.6 70.16,538.7 75.53,540.17C88.23,543.65 100.75,547.72 113.31,551.65C124.57,555.17 137.2,557.25 147.42,563.28C166.96,574.78 192.14,571.89 213.63,567.28C225.63,564.71 235.84,561.49 246.16,554.78C258.16,546.96 263.34,527.06 264.67,513.78C267.03,490.21 264.12,467.78 259.78,444.7C256.9,429.35 253.65,414.21 250,398.7C244.22,374.23 237.6,349.92 233.19,325.14C229.93,306.8 228.68,282.84 224.1,260.51Z" style="fill:rgb(77,77,77);fill-rule:nonzero;"/>
        <path d="M191.25,262.54C189.75,244.87 187.61,227.25 184.67,209.47C182.22,194.62 171.27,194.18 157.47,192.21C142.28,190.04 125.78,190.35 112.76,199.51C94.05,212.67 86.76,231.21 81.15,252.8C61.21,329.8 48.46,410.63 47.99,490.3C47.9,505.02 44.62,521.14 47.99,535.69C51.36,550.09 67.43,561.3 80.78,566.16C100.35,573.27 121.78,572.6 141.88,568.61C164.02,564.21 174.88,550.01 186.76,532.28C198.45,514.83 195.76,492.38 195.5,472.28C194.84,421.82 194.64,371.36 193.95,320.9C193.74,301.21 192.89,281.85 191.25,262.54Z" style="fill:rgb(255,240,0);fill-rule:nonzero;"/>
        <path d="M209,263.15C208.16,257.29 207.24,251.443 206.24,245.61C204.12,233.26 201.47,224.48 195.83,213.53C193.75,209.53 191.58,205.33 188.27,202.42C184.96,199.51 180.58,198.02 176.34,196.98C158.34,192.53 137.71,189.52 122.06,201.52C104.9,214.68 98.2,233.22 93.06,254.8C80.736,306.719 72.091,359.444 67.19,412.58C64.657,440.033 63.113,467.56 62.56,495.16C62.19,515.09 61.88,538.77 74.72,555.37C93.61,579.8 132.72,578.2 159.63,575.9C187.1,573.55 210.63,573.81 226.45,547.83C241.11,523.7 236.75,493.25 234.84,466.53C233.49,447.7 229.79,430.31 226.69,411.62C222.63,387.11 218.3,362.98 216.32,338.27C214.34,313.56 212.55,288.12 209,263.15Z" style="fill:rgb(78,145,255);fill-rule:nonzero;"/>
        <path d="M215.18,5.43C214.167,7.281 213.034,9.065 211.79,10.77C210.112,12.723 208.688,14.88 207.55,17.19C203,26.19 200.03,34.72 196.76,44.28C195.181,48.884 193.095,53.297 190.54,57.44C189.676,59.047 188.433,60.42 186.92,61.44C185.335,62.213 183.603,62.636 181.84,62.68L173.56,63.48C176,59.32 179.35,55 181,50.37C182.44,46.26 183.4,41.92 185.61,38.04C189.2,30.67 194.27,24.14 199.3,17.67C203.48,12.25 208.38,6.41 215.18,5.43Z" style="fill:rgb(255,240,0);fill-rule:nonzero;"/>
        <path d="M197.33,502.42C189.33,528.22 165.21,548.23 138.33,551.42C134.832,551.893 131.273,551.599 127.9,550.56C125.89,549.866 124.532,547.961 124.532,545.834C124.532,544.142 125.391,542.561 126.81,541.64C148.53,527.17 161.39,501.39 165.69,475.41C169.69,451.29 167.32,426.7 164.04,402.41C164.008,402.182 163.992,401.952 163.992,401.722C163.992,398.979 166.25,396.722 168.992,396.722C170.219,396.722 171.404,397.173 172.32,397.99C190.92,414.6 199.32,441.56 200.77,466.99C201.46,478.89 200.88,491 197.33,502.42Z" style="fill:rgb(77,77,77);fill-rule:nonzero;"/>
    </g>
</svg>
