<?xml version="1.0" encoding="utf-8"?>
<!-- Generator: Adobe Illustrator 19.2.0, SVG Export Plug-In . SVG Version: 6.00 Build 0)  -->
<svg version="1.1" id="Layer_1" xmlns="http://www.w3.org/2000/svg" xmlns:xlink="http://www.w3.org/1999/xlink" x="0px" y="0px"
	 width="117px" height="25px" viewBox="0 0 117 25" style="enable-background:new 0 0 117 25;" xml:space="preserve">
<style type="text/css">
	.st0{fill:#FFFFFF;}
	.st1{filter:url(#Adobe_OpacityMaskFilter);}
	.st2{mask:url(#mask-2_1_);}
</style>
<title>back to home</title>
<desc>Created with Sketch.</desc>
<g id="spec">
	<g id="Mobile---no-audio" transform="translate(-8.000000, -15.000000)">
		<g id="back-to-home" transform="translate(9.000000, 15.000000)">
			<g id="title" transform="translate(17.000000, 0.000000)">
				<g id="Fill-1">
					<path class="st0" d="M74.182,20.606c-2.004,0.51-4.001,1.056-6.02,1.499c-0.388,0.085-0.892-0.175-1.295-0.374
						c-3.155-1.556-6.303-3.126-9.442-4.712c-1.831-0.924-3.63-1.527-5.677-0.488c-0.406,0.206-1.196-0.343-1.808-0.544
						c0.017-0.167,0.035-0.334,0.052-0.502c0.876-0.134,1.752-0.373,2.629-0.376c1.015-0.003,1.86-0.265,2.642-0.902
						c2.786-2.266,5.589-4.51,8.392-6.756c0.298-0.239,0.634-0.432,0.952-0.647c-0.092-0.116-0.184-0.231-0.276-0.347
						c-0.459,0.146-0.922,0.28-1.377,0.439c-2.747,0.956-5.494,1.912-8.237,2.878c-1.217,0.429-2.068,0.185-2.964-0.885
						c3.225-0.806,6.451-1.612,9.878-2.469c-1.508-1.438-2.793-2.663-4.209-4.012c3.033-0.348,4.512,0.824,4.823,3.701
						c0.814-0.312,1.674-0.489,2.355-0.937c1.214-0.8,2.182-0.48,3.17,0.341c0.377,0.314,0.8,0.572,1.241,0.883
						c-4.764,3.01-9.222,5.826-13.839,8.743c6.2,2.563,12.304,4.805,18.99,4.931C74.168,20.249,74.175,20.427,74.182,20.606"/>
				</g>
				<g id="Fill-3">
					<path class="st0" d="M13.052,9.115v9.483c2.534-0.298,2.534-0.298,2.501-2.618c-0.002-0.178,0.067-0.422-0.022-0.519
						c-0.205-0.221-0.465-0.453-0.745-0.53c-0.472-0.13-0.977-0.143-1.468-0.206c0.008-0.115,0.016-0.23,0.024-0.345
						c0.628-0.2,1.446-0.229,1.827-0.651c0.344-0.382,0.211-1.195,0.29-1.841c-1.572,0.04-1.572,0.04-1.964-0.489
						c2.15-0.86,2.237-0.994,1.618-2.662C14.449,8.859,13.767,8.984,13.052,9.115 M11.234,9.708
						c-0.518,0.646-0.974,1.215-1.43,1.784c-0.057-0.027-0.114-0.053-0.171-0.08c0.033-0.169,0.044-0.348,0.104-0.507
						c0.791-2.091,1.639-4.163,2.363-6.277c0.308-0.901,0.36-1.889,0.537-2.89c1.536-0.116,2.356,0.958,1.638,2.426
						c-0.484,0.989-1.04,1.943-1.528,2.931c-0.108,0.219-0.182,0.625-0.065,0.746c0.173,0.18,0.542,0.278,0.807,0.247
						c1.838-0.216,2.835-1.848,2.509-4.06c-0.036-0.243-0.115-0.479-0.275-1.125c0.829,0.393,1.532,0.557,1.949,0.995
						c0.221,0.233,0.039,0.975-0.129,1.424c-0.231,0.618-0.621,1.176-1.101,2.047c0.869-0.268,1.461-0.439,2.043-0.637
						c0.162-0.055,0.309-0.286,0.444-0.271c0.508,0.056,1.014,0.159,1.507,0.296c0.098,0.027,0.201,0.409,0.185,0.418
						c-0.356,0.198-0.711,0.432-1.099,0.527c-0.858,0.212-1.735,0.352-2.719,0.544c0.063,0.718,0.123,1.398,0.191,2.169
						c0.948-0.384,1.803-0.926,2.745,0.209c-0.532,0.176-0.948,0.349-1.381,0.451c-1.62,0.382-1.659,0.432-1.322,2.113
						c0.697-0.078,1.392-0.207,2.087-0.204c0.207,0.001,0.412,0.37,0.617,0.571c-0.222,0.133-0.429,0.336-0.668,0.389
						c-2.22,0.495-2.224,0.487-2.162,2.758c0.008,0.28,0.045,0.559,0.084,1.031c0.663-0.183,1.372-0.194,1.821-0.541
						c0.893-0.691,1.614-0.211,2.368,0.124c0.209,0.093,0.31,0.428,0.461,0.652c-0.252,0.154-0.488,0.403-0.758,0.447
						c-2.346,0.38-4.692,0.765-7.05,1.054c-0.776,0.095-0.947,0.429-0.904,1.102c0.034,0.532,0.063,1.077-0.018,1.599
						c-0.053,0.339-0.307,0.647-0.47,0.969c-0.281-0.236-0.735-0.426-0.81-0.716c-0.235-0.902-0.456-1.842-0.448-2.765
						c0.026-3.162,0.153-6.322,0.232-9.484C11.418,10.053,11.324,9.931,11.234,9.708"/>
				</g>
				<g id="Fill-5">
					<path class="st0" d="M32.461,12.52c2.023-0.587,3.95-0.986,5.734-1.728c0.934-0.389,1.723-0.539,2.625-0.231
						c0.333,0.114,0.629,0.336,0.941,0.508c-0.009,0.122-0.018,0.243-0.027,0.365c-1.315,0.24-2.63,0.479-3.906,0.712
						c0.041,0.908,0.079,1.749,0.124,2.739c1.518-0.052,3.024-0.295,4.458-0.897c1-0.419,2.24,0.001,2.839,1.153
						c-0.42,0.104-0.797,0.25-1.185,0.286c-1.803,0.169-3.607,0.327-5.413,0.45c-0.762,0.052-0.912,0.469-0.928,1.133
						c-0.043,1.849-0.095,3.7-0.227,5.544c-0.055,0.777-0.32,1.539-0.725,2.29c-1.181-2.729-0.353-5.612-0.797-8.488
						c-1.178,0.214-2.31,0.455-3.454,0.615c-0.652,0.091-1.335-0.016-1.98,0.098c-0.332,0.058-0.693,0.345-0.906,0.63
						c-1.149,1.533-2.244,3.105-3.385,4.643c-0.221,0.299-0.563,0.508-0.971,0.69c2.353-3.838,4.266-7.805,4.555-12.343
						c-0.642-0.22-1.144-0.385-1.64-0.568c-0.081-0.03-0.134-0.134-0.321-0.332c2.201-0.382,4.278-0.761,6.361-1.099
						c1.96-0.318,3.929-0.585,5.889-0.899c0.343-0.055,0.683-0.2,0.994-0.361c1.068-0.554,2.592-0.171,3.571,1.091
						c-0.579,0.117-1.045,0.246-1.52,0.3c-3.946,0.444-7.894,0.873-11.841,1.312c-0.1,0.011-0.194,0.079-0.38,0.158
						c1.436,2.128-0.16,4.027-0.528,6.235c1.844-0.373,3.597-0.624,5.262-1.152c0.335-0.106,0.469-1.272,0.451-1.942
						c-0.019-0.685-0.597-0.911-1.261-0.718C34.084,12.939,33.31,13.112,32.461,12.52"/>
				</g>
				<g id="Fill-7">
					<path class="st0" d="M5.748,19.654c2.515-0.354,2.108,0.071,2.454-2.405c0.121-0.865,0.132-1.745,0.193-2.617
						c-2.152-0.121-3.323,0.688-3.94,2.633c1.293-0.134,1.502-0.326,1.546-1.673c0.55,0.297,1.176,0.437,1.409,0.818
						c0.242,0.394,0.102,1.022,0.011,1.631c-0.992-0.779-1.684-0.258-2.389,0.233c-0.291,0.203-0.588,0.471-0.914,0.527
						c-0.283,0.049-0.691-0.078-0.892-0.279c-0.146-0.146-0.133-0.573-0.039-0.815c0.219-0.563,0.53-1.09,0.868-1.758
						c-2.094,0.302-2.091,0.302-2.022,2.077c0.039,0.994,0.084,1.989,0.082,2.984c0,0.206-0.198,0.584-0.302,0.583
						c-0.243-0.001-0.603-0.122-0.704-0.308c-0.226-0.417-0.434-0.899-0.451-1.362c-0.056-1.469-0.021-2.943-0.021-4.398
						c0.808-0.119,1.829-0.205,2.81-0.448c0.354-0.088,0.729-0.507,0.878-0.865c0.122-0.294-0.025-0.744-0.169-1.073
						c-0.033-0.074-0.573,0.019-0.85,0.12c-1.545,0.561-2.092,0.164-2.054-1.518c0.014-0.605,0.054-1.21,0.037-1.814
						c-0.017-0.591-0.09-1.181-0.145-1.838c0.869,0.049,1.361,0.387,1.357,1.337c-0.004,0.879,0.08,1.759,0.136,2.839
						c1.738-0.456,3.335-0.86,4.917-1.313c0.158-0.045,0.303-0.386,0.329-0.604C8.002,9.335,8.077,8.317,8.17,7.29
						c1.225-0.016,1.74,0.57,1.418,1.778c-0.228,0.857-0.481,1.71-0.771,2.548c-0.117,0.339-0.364,0.633-0.578,0.992
						c-0.789-0.974-1.241-0.961-2.871-0.042c0.244,0.536,0.488,1.071,0.789,1.735c0.605-0.231,1.288-0.42,1.902-0.743
						c0.829-0.436,1.408,0.014,1.872,0.525c0.207,0.228,0.114,0.779,0.069,1.174c-0.139,1.235-0.257,2.478-0.505,3.693
						c-0.197,0.967-0.573,1.896-0.936,3.054C7.475,21.098,6.668,20.423,5.748,19.654"/>
				</g>
				<g id="Fill-9">
					<path class="st0" d="M84.294,13.828c-0.173,0-0.282-0.021-0.38,0.004c-0.648,0.165-1.295,0.335-1.939,0.514
						c-1.391,0.387-1.555,0.721-1.039,2.307c0.727-0.215,1.465-0.413,2.189-0.652C84.605,15.511,84.626,15.458,84.294,13.828
						 M84.35,12.813v-2.078c-0.789,0.169-1.473,0.316-2.158,0.462c-1.462,0.31-1.719,0.777-1.276,2.461
						C82.021,13.386,83.134,13.112,84.35,12.813 M85.424,23.62c-1-0.958-1.931-1.85-2.794-2.676
						c1.763-0.112,1.763-0.112,1.767-2.198c0.002-0.741,0-1.482,0-2.415c-1.265,0.546-2.403,1.008-3.506,1.543
						c-0.164,0.08-0.215,0.49-0.236,0.753c-0.078,1.028-0.085,2.062-0.2,3.084c-0.038,0.336-0.325,0.644-0.499,0.964
						c-0.259-0.254-0.677-0.471-0.747-0.77c-0.172-0.739-0.284-1.52-0.243-2.274c0.166-3.103,0.398-6.202,0.617-9.467
						c-0.19,0.111-0.111,0.033-0.076,0.049c1.589,0.749,2.985,0,4.465-0.455c0.596-0.183,1.419,0.107,2.036,0.4
						c0.211,0.1,0.14,0.863,0.142,1.323c0.014,2.912-0.04,5.826,0.039,8.736C86.225,21.504,86.118,22.682,85.424,23.62"/>
				</g>
				<g id="Group-13" transform="translate(76.168224, 0.079439)">
					<g id="Clip-12">
					</g>
					<defs>
						<filter id="Adobe_OpacityMaskFilter" filterUnits="userSpaceOnUse" x="0.191" y="0.154" width="22.314" height="8.343">
							<feColorMatrix  type="matrix" values="1 0 0 0 0  0 1 0 0 0  0 0 1 0 0  0 0 0 1 0"/>
						</filter>
					</defs>
					<mask maskUnits="userSpaceOnUse" x="0.191" y="0.154" width="22.314" height="8.343" id="mask-2_1_">
						<g class="st1">
							<polygon id="path-1_1_" class="st0" points="22.505,8.497 22.505,0.154 0.191,0.154 0.191,8.497 							"/>
						</g>
					</mask>
					<g id="Fill-11" class="st2">
						<path class="st0" d="M0.191,7.573c1.736-0.252,3.19-0.46,4.644-0.674C6.799,6.61,8.766,6.34,10.722,6.004
							c0.334-0.057,0.709-0.342,0.909-0.63c0.588-0.844,1.18-1.704,1.612-2.631C13.588,2,13.701,1.149,13.96,0.184
							c0.785-0.186,2.093,0.501,2.237,1.512c0.047,0.329-0.243,0.795-0.513,1.063c-0.97,0.964-1.998,1.869-3.004,2.797
							c0.044,0.129,0.088,0.258,0.132,0.386c2.148-0.425,4.305-0.809,6.438-1.297c0.713-0.163,2.748,0.314,3.101,0.96
							c0.263,0.482,0.233,0.915-0.456,0.985c-0.282,0.028-0.569,0.021-0.853,0.011C14.967,6.374,8.995,7.174,3.074,8.435
							C2.026,8.659,1.253,8.254,0.191,7.573"/>
					</g>
				</g>
				<g id="Fill-14">
					<path class="st0" d="M30.423,2.391c1.002,0.412,1.027,0.475,1.043,3.109c1.154-0.178,2.289-0.333,3.413-0.55
						c0.149-0.029,0.35-0.382,0.334-0.568c-0.105-1.179-0.265-2.354-0.406-3.531c-0.016-0.138-0.028-0.277-0.042-0.411
						c1.628-0.398,2.706,0.549,2.416,2.088c-0.124,0.658-0.241,1.318-0.393,2.155c1.281-0.109,2.502-0.065,3.637-0.356
						c0.937-0.24,0.61-1.276,0.683-1.998c0.025-0.251-0.146-0.522-0.231-0.795c1.494-0.14,2.35,0.834,1.954,2.156
						c-0.162,0.543-0.296,1.11-0.561,1.603c-0.234,0.433-0.633,0.777-0.959,1.161c-0.282-0.347-0.563-0.694-1.024-1.262
						c-0.803,0.123-1.887,0.21-2.929,0.467c-2.161,0.532-4.293,1.176-6.452,1.718c-0.337,0.085-0.875-0.01-1.094-0.238
						c-0.261-0.272-0.446-0.814-0.37-1.177C29.693,4.774,30.076,3.617,30.423,2.391"/>
				</g>
				<g id="Fill-16">
					<path class="st0" d="M94.363,24.846c-1.22-1.243-2.373-2.418-3.582-3.65c0.605,0.158,1.201,0.316,1.798,0.471
						c0.709,0.184,1.171,0.068,1.169-0.82c-0.008-3.487,0.049-6.975-0.018-10.461c-0.012-0.646-0.484-1.284-0.744-1.926
						c1.305-0.498,2.451,0.22,2.451,1.573c-0.002,3.984,0,7.968-0.031,11.952C95.397,23.058,95.083,24.054,94.363,24.846"/>
				</g>
				<g id="Fill-18">
					<path class="st0" d="M3.765,1.948C4.405,2.159,5.24,2.196,5.63,2.631c0.38,0.425,0.306,1.257,0.483,2.179
						C6.79,4.489,7.494,3.933,8.244,3.864c0.703-0.065,1.453,0.384,2.183,0.607c-0.016,0.174-0.032,0.347-0.048,0.521
						C9.109,5.218,7.84,5.445,6.405,5.701c0.757,0.835,1.078,1.586,0.258,2.415c-0.09,0.091,0.096,0.487,0.194,0.725
						c0.202,0.493,0.431,0.975,0.649,1.462c-0.095,0.095-0.189,0.19-0.284,0.285c-0.389-0.16-0.852-0.236-1.152-0.498
						c-0.567-0.495-0.964-0.398-1.425,0.118c-0.372,0.416-0.815,0.769-1.441,1.01c0.41-0.737,0.82-1.473,1.265-2.271
						C4.021,8.556,3.585,8.174,2.903,7.579c0.675,0.059,1.044,0.136,1.405,0.11c0.337-0.023,0.85-0.057,0.957-0.261
						c0.17-0.321,0.19-0.851,0.029-1.168C5.202,6.077,4.609,6.037,4.277,6.106C3.376,6.291,2.505,6.631,1.602,6.786
						C1.089,6.875,0.535,6.722,0,6.677c0-0.137,0-0.274,0.001-0.411c1.219-0.322,2.422-0.745,3.661-0.935
						C4.734,5.167,4.763,4.66,4.423,3.885c-0.238-0.543-0.531-1.061-0.8-1.59C3.671,2.179,3.718,2.063,3.765,1.948"/>
				</g>
				<g id="Fill-20">
					<path class="st0" d="M90.022,18.43c-0.693-0.692-0.968-1.553-0.961-2.548c0.013-1.901,0.004-3.802,0.004-5.689
						c0.977,0.117,1.434,0.579,1.459,1.604c0.042,1.742,0.096,3.484,0.107,5.227c0.003,0.461-0.136,0.922-0.211,1.383
						C90.288,18.414,90.155,18.422,90.022,18.43"/>
				</g>
				<g id="Fill-22">
					<path class="st0" d="M82.488,1.245c1.029,1.535,2.221,1.649,3.612,0.638c0.028,0.09,0.056,0.18,0.084,0.27
						c-0.383,0.89-0.724,1.802-1.181,2.652c-0.102,0.189-0.679,0.316-0.918,0.207C82.955,4.497,82.218,2.85,82.488,1.245"/>
				</g>
			</g>
			<g id="back">
				<polygon class="st0" points="7.293,20.778 -0.485,13 7.293,5.222 8.707,6.636 2.343,13 8.707,19.364 				"/>
			</g>
		</g>
	</g>
</g>
</svg>
