<?xml version="1.0" encoding="UTF-8"?>
<svg width="22px" height="24px" viewBox="0 0 22 24" version="1.1" xmlns="http://www.w3.org/2000/svg" xmlns:xlink="http://www.w3.org/1999/xlink">
    <!-- Generator: sketchtool 41.2 (35397) - http://www.bohemiancoding.com/sketch -->
    <title>25C29994-A2FD-469E-9054-7569F11AF649</title>
    <desc>Created with sketchtool.</desc>
    <defs></defs>
    <g id="spec" stroke="none" stroke-width="1" fill="none" fill-rule="evenodd">
        <g id="Desktop-HD---Ending" transform="translate(-260.000000, -411.000000)">
            <g id="Topics" transform="translate(240.000000, 177.000000)">
                <g id="topics-title" transform="translate(20.000000, 216.000000)">
                    <g id="back-to-topics" transform="translate(0.000000, 18.000000)">
                        <rect id="Rectangle-6" fill="#C71B0A" x="0" y="0" width="22" height="24"></rect>
                        <path d="M17,7 L18,7 L18,5 L17,5 L5,5 L4,5 L4,7 L5,7 L17,7 Z M17,13 L18,13 L18,11 L17,11 L5,11 L4,11 L4,13 L5,13 L17,13 Z M12,19 L13,19 L13,17 L12,17 L5,17 L4,17 L4,19 L5,19 L12,19 Z" id="Combined-Shape" fill="#FFFFFF"></path>
                    </g>
                </g>
            </g>
        </g>
    </g>
</svg>