<?xml version="1.0" encoding="utf-8"?>
<!-- Generator: Adobe Illustrator 19.2.0, SVG Export Plug-In . SVG Version: 6.00 Build 0)  -->
<svg version="1.1" id="Layer_1" xmlns="http://www.w3.org/2000/svg" xmlns:xlink="http://www.w3.org/1999/xlink" x="0px" y="0px"
	 width="25.511px" height="15px" viewBox="0 0 25.511 15" style="enable-background:new 0 0 25.511 15;" xml:space="preserve">
<style type="text/css">
	.st0{fill:#FFFFFF;}
</style>
<g>
	<path class="st0" d="M11.353,14.374C10.748,14.676,9.389,15,7.619,15C2.59,15,0,11.87,0,7.727C0,2.763,3.54,0,7.942,0
		c1.706,0,3,0.345,3.583,0.648l-0.669,2.611C10.187,2.979,9.259,2.72,8.094,2.72c-2.611,0-4.64,1.575-4.64,4.813
		c0,2.914,1.727,4.748,4.662,4.748c0.993,0,2.094-0.216,2.741-0.475L11.353,14.374z"/>
	<path class="st0" d="M16.814,0.237v5.59h5.417v-5.59h3.28v14.547h-3.28V8.698h-5.417v6.086h-3.302V0.237H16.814z"/>
</g>
</svg>
