<?xml version="1.0" encoding="UTF-8" standalone="no"?><!DOCTYPE svg PUBLIC "-//W3C//DTD SVG 1.1//EN" "http://www.w3.org/Graphics/SVG/1.1/DTD/svg11.dtd"><svg width="100%" height="100%" viewBox="0 0 279 150" version="1.1" xmlns="http://www.w3.org/2000/svg" xmlns:xlink="http://www.w3.org/1999/xlink" xml:space="preserve" style="fill-rule:evenodd;clip-rule:evenodd;stroke-linecap:round;stroke-linejoin:round;"><g id="journeyLength"><g><text x="97px" y="106px" style="font-family:'ArialMT', 'Arial', sans-serif;font-size:20px;fill:#fff;">3</text><text x="108.323px" y="106px" style="font-family:'ArialMT', 'Arial', sans-serif;font-size:20px;fill:#fff;">27k</text></g><text x="141.28px" y="106px" style="font-family:'ArialMT', 'Arial', sans-serif;font-size:20px;fill:#fff;">m</text></g><g id="map2.2e..-m"><g><text x="6.146px" y="11.241px" style="font-family:'MalgunGothic', 'Malgun Gothic', sans-serif;font-size:13px;fill:#fff;">雅加達</text></g><g><text x="0.517px" y="26.654px" style="font-family:'MalgunGothic', 'Malgun Gothic', sans-serif;font-size:16px;fill:#fff;">J<tspan x="6.048px 14.369px " y="26.654px 26.654px ">ak</tspan>ar<tspan x="36.939px 42.455px " y="26.654px 26.654px ">ta</tspan></text></g><g><text x="241.351px" y="145.813px" style="font-family:'MalgunGothic', 'Malgun Gothic', sans-serif;font-size:16px;fill:#fff;">T<tspan x="248.109px 256.672px " y="145.813px 145.813px ">eg</tspan>al</text></g><g><text x="246.957px" y="130.692px" style="font-family:'MalgunGothic', 'Malgun Gothic', sans-serif;font-size:13px;fill:#fff;">直葛</text></g></g><path id="lineJourney" d="M22.5,34.2l0,2l-0.1,0.1l0.1,0.1l0,0.8l-0.1,0.1l0,0.4l-0.1,0.1l0,0.1l-0.1,0.2l-0.1,0.1l0,0.1l-0.1,0l-0.1,0.2l-0.2,0.1l-0.1,0.1l-0.3,0.2l0,-0.1l0.3,0.3l0,0.1l0.1,0.1l0.3,0.4l0,0.1l0.3,0.3l0.1,0.2l0.1,0l0.3,0.2l0.1,0.1l0.6,0.4l0.6,0.2l0.4,0.1l2.4,0l0.3,0.1l0.1,0.1l0.3,0.1l0.3,0l0.3,0.1l0.7,0l0.3,-0.1l0.3,-0.2l0.3,0l0.2,0.1l0.3,0.3l0.1,0l0,0.2l0.2,0.2l0.1,0.2l0.2,0.1l0.3,0.1l0.4,0.1l0.4,0.2l0.4,0l0.6,-0.1l0.5,0l1.3,-0.1l1.3,0l0.4,-0.1l0.3,0l0.2,-0.1l0.2,-0.1l0.1,-0.1l0.2,-0.1l0.1,-0.1l0.2,-0.1l0.2,-0.1l0.7,0l0.3,0.1l0.1,0.1l0.5,0.2l0.2,0.1l0.6,0.2l0.7,0.2l0.3,0.1l0.5,0.2l1.8,0.6l1.1,0.4l0.2,0.1l0.3,0.1l0.6,0.3l0.4,0.1l0.2,0.1l0.7,0.3l0.3,0l1.3,0.4l0.4,0.2l0.8,0.2l0.6,0.2l0.5,0.3l0.2,0.1l0.3,0.2l0.5,0.2l0.4,0.3l0.2,0.1l0.1,0.1l0.6,0.3l1.1,0.6l0.2,0.1l0.5,0.3l0.3,0.2l0.2,0.1l0.2,0.2l0.2,0.1l0.7,0.4l0.5,0.2l0.3,0.2l0.2,0.1l0.6,0.2l1.1,0.4l0.9,0.3l0.4,0.4l0.2,0.1l0.1,0.1l0.2,0.1l0.2,0.2l0.6,0.2l0.2,0.1l0.4,0.1l0.5,0.1l1.1,0.2l0.4,0.1l0.3,0l0.3,-0.1l0.4,0l0.3,-0.2l0.5,-0.2l0.2,0l0.3,-0.1l0.4,-0.1l0.9,0l0.5,0.1l0.9,0l1.2,0.1l0.9,0l0.7,0.1l0.8,0l0.4,0.1l0.5,0.1l0.8,0.2l0.6,0.3l0.6,0.2l0.4,0.3l1.7,0.9l0.4,0.2l1.8,1.1l0.4,0.2l0.3,0.2l0.2,0.1l0.1,0l0.2,0.2l0.4,0.2l0.4,0.4l0.2,0.1l0,0.2l0.1,0.1l0,0.1l0.2,0.2l0.1,0.5l0,0.1l0.1,0.2l0,0.1l0.2,0.2l0,0.1l0.1,0.1l0.2,0.1l0.1,0.1l0.1,0.2l0.6,0.3l0.3,0.1l0.2,0.1l0.4,0.1l1,0.4l0.2,0.1l0.3,0.2l0.3,0.1l0.8,0.2l0.6,0.2l0.2,0.1l0.1,0.1l0.1,0l0.1,-0.1l0.3,0l0.2,0.1l0.3,0.1l0,-0.2l0,-0.1l0,-0.1l0.1,-0.1l0,-0.2l0,-0.1l0.1,-0.2l0,-0.2l0,-0.1l0,-0.1l-0.1,-0.2l0,-0.1l0,-0.1l0.2,-0.4l0.1,-0.1l0,-0.1l0.1,-0.1l0,-0.2l0,-0.1l0,-0.1l0.1,-0.1l0,-0.1l0.1,-0.2l0.1,-0.1l0.2,-0.1l0.1,-0.1l0.1,-0.1l0,-0.1l0.1,-0.2l0,-0.1l0.1,-0.1l0.1,-0.1l0.2,0l0,-0.2l0.1,-0.1l0,-0.1l0.1,-0.1l0.2,-0.1l0.2,-0.2l0.1,-0.1l0.1,-0.1l0.1,-0.1l0.1,-0.1l0.1,-0.1l0.2,-0.2l0.1,-0.1l0,-0.1l0.1,-0.1l0.1,-0.1l0.1,-0.1l0.1,-0.1l0.1,-0.1l0.1,-0.1l0.2,-0.1l0.1,-0.1l0.1,-0.1l0.1,-0.1l0.1,-0.1l0.1,-0.1l0.1,0l0.2,-0.3l0,-0.1l0.1,0l0.2,-0.1l0.2,-0.1l0.4,0l0.2,-0.1l0.2,-0.1l0.2,0.1l0.2,0.2l1,0.5l0.4,0.1l0.2,0.1l0.6,0.2l0.8,0l0.5,0.1l0.5,0l0.6,0.2l0.4,0.1l0.3,0.1l0.7,0.1l0.3,0.1l0.1,-0.1l0.3,-0.3l0.3,-0.2l0.8,-0.4l0.3,-0.1l0.1,-0.1l0.1,-0.1l0.2,-0.1l0.6,-0.5l0.1,-0.1l0.4,-0.3l0.5,-0.4l0.1,-0.1l0.2,-0.1l0.2,-0.1l0.1,-0.2l0.1,-0.1l0.1,0l0.4,-0.4l0.1,-0.1l0.1,-0.1l0.2,-0.2l0.2,0l0.3,-0.1l0.4,0l0.1,-0.1l0.2,-0.2l0.2,-0.1l0.1,-0.1l0.1,-0.1l0.2,-0.1l0.1,0l0.2,-0.2l0.1,-0.1l0.1,0l0.1,-0.2l0.2,-0.2l0.3,-0.3l0.4,-0.4l0.1,-0.1l0.4,-0.1l0.5,0l0.1,-0.1l0.3,-0.3l0.3,-0.1l0.8,-0.3l0.3,-0.2l0.2,0l0.3,-0.1l0.7,-0.2l0.6,-0.1l0.6,-0.2l0.4,-0.1l0.3,0l0.6,-0.2l0.5,-0.1l0.3,-0.1l1.2,-0.3l0.2,0l0.5,-0.1l0.6,-0.2l0.3,0l0.3,-0.1l0.3,-0.1l0.3,-0.1l0.4,-0.1l0.3,-0.1l0.7,-0.1l0.4,-0.1l0.6,-0.1l0.5,-0.1l0.3,0l0.1,-0.1l0.2,-0.2l0.3,0.1l0.4,-0.1l0.3,-0.1l0.4,-0.1l1,0l0.3,0.1l0.6,0.1l0.3,0.1l0.5,0.1l0.4,0.1l0.3,0.1l0.5,0.2l0.3,0.1l0.4,0.2l0.6,0.1l0.7,0.3l0.3,0.1l-0.5,0.6l0.6,-0.3l0.1,0l0,-0.1l0,-0.1l0.2,0.1l0.1,0l0.4,0.2l0.1,0.1l0.2,0l0,0.1l0.2,0l0.1,0.1l0.4,0l0.8,0.2l0.3,0.1l0.2,0l0.7,0.2l0.3,0l0.3,0.1l0.2,0l0.6,0.1l0.4,0.1l1.1,0l0.6,0.1l0.4,0l0.2,0.1l1,0.2l0.6,0l0.1,0.1l3,0l0.3,-0.1l0.7,0l0.3,-0.1l1.5,0l0.2,0.1l0.1,0l0.8,0.2l0.1,0l0.3,0.1l0.5,0.1l0.1,0l0,0.1l0.2,0l0,0.1l0.5,0.3l0.1,0.1l0.1,0l0.1,0.1l0.1,0l0.1,0.1l0.1,0l0.2,0.2l0,0.1l0.2,0l0,0.1l0.1,0l0.6,0.6l0.2,0.4l0.1,0l0,0.1l0.2,0.2l0,0.1l0.1,0l0.7,0.7l0.1,0.2l0,0.1l0.1,0l0,0.1l0.2,0.2l0.1,0.2l0.1,0l0,0.1l0.1,0l0,0.1l0.4,0.4l0.1,0l0,0.1l0.2,0.1l0.1,0.2l0.1,0l0.1,0.2l0.1,0l0,0.1l0.3,0.3l0,0.1l0.1,0l0.1,0.2l0.3,0.3l0,0.1l0.1,0l0.3,0.3l0.1,0l0.2,0.2l0.2,0l0,0.1l0.1,0l0.1,0.1l0.1,0l0,0.1l0.2,0.1l0.2,0.2l0.1,0l0.2,0.2l0.2,0.1l0,0.1l0.2,0l0,0.1l0.1,0l0.2,0.1l0.2,0l0,0.1l0.4,0.1l0.1,0l0.2,0.1l0,0.1l0.1,0l0.1,0.1l0.1,0l0.2,0.1l0.1,0l0,0.1l0.1,0l0.1,0.1l0.1,0l0.3,0.1l0.1,0l0.1,-0.1l0.1,0l0.1,-0.1l0.1,-0.1l0.2,0l0.2,-0.1l0.8,0l0.2,0.1l0.2,0l0.2,0.1l0.9,0l0.5,0.1l0.6,0l0.1,0.1l0.2,0.1l0.1,0.1l0.1,0l0.4,0.1l0.1,0.1l0.3,0l0.4,0.2l0.2,0l0.6,0.1l0.2,0.1l0.1,0l0.2,0.1l0.4,0l0.1,0.1l0.4,0l0.2,0.1l0.3,0l0.2,-0.1l0.8,0l0.2,0.1l0.2,0l0.3,-0.1l0.4,0l0.1,-0.1l0.1,0l0.1,-0.1l0.1,0l0.1,-0.1l0.1,0l0.1,-0.1l0.2,0l0.1,0.1l0.1,0l0.1,0.1l0.1,0l0,0.1l0.1,0l0,0.6l0.1,0l0,3.4l0.1,0l0,0.6l0.1,0.1l0,0.2l0.1,0l0,0.1l0.3,0.6l0.2,0.3l0.1,0.2l0.1,0l0,0.1l0.1,0.1l0.1,0.2l0.2,0.2l0.1,0l0.1,0.1l0.1,0l0,0.2l0.1,0l0,0.2l0.1,0l0,0.1l0.1,0.3l0,0.3l0.1,0.1l0,0.1l0.1,0.5l0,0.1l0.1,0l0,0.1l0.1,0.1l0.3,0l0.1,0.1l0.6,0l0.1,0.1l0.1,0l0.2,0.2l0,0.1l0.5,0.8l0.1,0l0,0.1l0.2,0.1l0.3,0.3l0.1,0l0.5,0.4l0.6,0.4l0.1,0l0.1,0.1l0.3,0l0,0.1l0.1,0l0.1,0.1l0.1,0l0.4,0.2l0.1,0l0.2,0.2l0.2,0.1l0,0.1l0.1,0.1l0.1,0l0,0.1l0.1,0.1l0.1,0.2l0.1,0.1l0.1,0.3l0.1,0.1l0,0.2l0.1,0.3l0,0.2l0.1,0l0,0.4l-0.1,0l0,0.5l-0.1,0.1l0,0.1l-0.1,0.2l0,0.3l0.1,0.2l0,0.8l-0.1,0.3l0,0.5l0.1,0.2l0,0.2l0.1,0.3l0,0.4l0.1,0.2l0,0.2l0.1,0.1l0.1,0.3l0,0.1l0.2,0.3l0.6,1.4l0.1,0.2l0.1,0.1l0,0.1l0.2,0.3l0.5,1.1l0,0.1l0.1,0l0,0.1l0.1,0.1l0.1,0l0.3,0.2l0,0.1l0.1,0l0,0.1l0.1,0.1l0.1,0.3l0,0.2l0.1,0.1l0,0.1l0.1,0.1l0,0.2l0.1,0l0,0.2l0.1,0l0.2,0.1l0,0.1l0.2,0.1l0.1,0l0.3,0.3l0,0.1l0.1,0.1l0.2,0.3l0.1,0l0.1,0.2l0.2,0.2l0.3,0.4l0.1,0l0,0.1l0.2,0l0.3,0.2l0.4,0.2l0.1,0l0.1,0.1l0.2,0l0.1,0.1l0,0.1l0.1,0l0,0.2l0.1,0l0.1,0.3l0.1,0.2l0.2,0.2l0,0.2l0.5,0.9l0.1,0.2l0,0.1l0.2,0.3l0.1,0.1l0,0.1l0.1,0.2l0.1,0.1l0,0.2l0.1,0.1l0,0.4l0.1,0.1l0,0.2l0.1,0.2l0,0.3l0.1,0l0,0.1l0,-0.1l-0.1,-0.1l0,-0.1l0,-0.1l0,-0.1l-0.1,-0.1l2.6,0l0,0.1l0.4,0l0.2,0.1l0.3,0l0.4,0.1l0.7,0.2l0.3,0l0.2,0.1l0.3,0l0.1,0.1l0.3,0.1l0.1,0l0.1,0.1l0.1,0l0.3,0.3l0.1,0l0.2,0.2l0.1,0l0.1,0.1l0,0.1l0.1,0l0.5,0.4l0.2,0.1l0.2,0.2l0.1,0l0.1,0.1l0,0.1l0.1,0l0.2,0.1l0,0.1l0.1,0l0.1,0.1l0.1,0.2l0.1,0l0,0.1l0.1,0.1l0.1,0.2l0.1,0.1l0,0.1l0.1,0.1l0,0.2l0.6,1.5l0.4,0.9l0.1,0.3l0.1,0.1l0,0.2l0.1,0.1l0,0.2l0.1,0.1l0.2,0.4l0.4,0.4l0.1,0.2l0.2,0.1l0,0.1l0.2,0.1l0.1,0.1l0,0.1l0.1,0l0.1,0.1l0.2,0.1l0.1,0.1l0.2,0l0.1,0.1l0.1,0l0.1,0.1l0.2,0l0.1,0.1l0.1,0l0.2,0.1l0.7,0l0.3,0.1l0.5,0l0.2,0.1l0.1,0l0.2,0.1l0.2,0l0.3,0.1l0.1,0.1l0.1,0l0.3,0.1l1.5,0.9l0.4,0.2l0.1,0l0.2,0.1l2.5,0.9l0.1,0l0.1,0.1l0.2,0l0.3,0.1l0.1,0l0.1,0.1l0.2,0l0.4,0.4l0,0.1l0.2,0.2l0,0.2l0.1,0.1l0,0.3l0.3,0.9l0,0.1l0.2,0.4l0,0.1l0.2,0.3l0.1,0.1l0.1,0.2l0.1,0l0.1,0.2l0.1,0l0.1,0.1l0.1,0l0.2,0.2l0.1,0l0.4,0.2l0.1,0.1l0.1,0l0.2,0.1l0.1,0.1l0.1,0l0,0.1l0.1,0.1l0,0.1l0.1,0l0.2,0.4l0,0.1l0.1,0l0,0.1l0.4,0.2l0,0.1l0.1,0.1l0.1,0l1.5,1.3l0.2,0.1l0.3,0.3l1,0.9l0.3,0.3l0.2,0l0.2,0.2l0.1,0l1,0.5l0.1,0.1l0.3,0.1l0.1,0l0.1,0.1l0.1,0l0.2,0.1l0.1,0.1l0.4,0l0.1,0.1l0.1,0l1,0.1l0.1,0l0.9,0.1l1.5,0.1l0.7,0l0.7,0.1l0.8,0l1.9,0.1l0.1,0l0.2,0.1l1.1,0l0.4,0.1l1.4,0l0.1,0.1l0.1,0l0.1,-0.1l0.2,0l0.5,-0.2l0.2,-0.1l0.7,0l0,0.1l0.2,0l0.1,0.2l0.1,0l0.2,0.2l0.1,0l0,0.1l0.3,0l0.1,0.1l0.6,0l0.3,0.1l0.6,0l0.3,-0.1l0.9,0l0,-0.1l1.9,0l0.4,0.1l0.5,0l0.4,0.2l0.7,0.2l0.2,0.1l0.6,0.2l0.3,0l0.3,0.1l5.5,0l0.2,-0.1l0.6,0l1.2,-0.2l1,0l0.4,-0.1l0.2,-0.1l0.2,-0.1l0.3,0l0.5,-0.1l0.1,-0.1l0.4,0l0.4,-0.1l3.1,0l1,-0.1l0.4,-0.1l0.5,0l0,0.1l0.1,0l0,0.1l0.1,0l0,-0.1l0.1,-0.1l0,-0.1l0,-0.1l0.2,-0.5l0,-0.1l0.1,-0.4l0,-0.4l0.1,-0.4l0,-0.2l0,-0.1l0.3,0l0.2,0.1l0.5,0l0.2,0.1l1.7,0l0.2,-0.1l0.4,0l0.2,-0.1l0.1,0l0.2,-0.1l0.2,0l0.1,-0.1l0.3,0l0.1,-0.1l0.1,0l0.2,-0.1l0.1,0l0.1,-0.1l0.1,0l0.1,-0.1l0.2,-0.1l0.1,0l0.2,-0.1l0.1,-0.1l0.1,0l0,0.3l0.1,0.1l0,0.1l0.1,0l0.2,0.2l0.3,0l0,0.2l-0.1,0.1l0,0.3l-0.1,0l0,-0.1" style="fill:none;stroke:#c71b0a;stroke-width:1.8px;"/><rect id="rectEnd" x="266.1" y="108.9" width="7.4" height="7.5" style="fill:#fff;"/><rect id="rectStart" x="17.8" y="30.5" width="7.5" height="7.4" style="fill:#fff;"/></svg>