<?xml version="1.0" encoding="utf-8"?>
<!-- Generator: Adobe Illustrator 19.2.0, SVG Export Plug-In . SVG Version: 6.00 Build 0)  -->
<svg version="1.1" id="Layer_1" xmlns="http://www.w3.org/2000/svg" xmlns:xlink="http://www.w3.org/1999/xlink" x="0px" y="0px"
	 width="170.31px" height="25px" viewBox="0 0 170.31 25" style="enable-background:new 0 0 170.31 25;" xml:space="preserve">
<style type="text/css">
	.st0{fill:#FFFFFF;}
</style>
<g>
	<g>
		<path d="M-1051.77-238.658c-9.378,2.386-18.72,4.938-28.167,7.011c-1.814,0.398-4.174-0.82-6.057-1.749
			c-14.759-7.28-29.486-14.626-44.176-22.044c-8.564-4.324-16.981-7.143-26.558-2.281c-1.9,0.964-5.594-1.605-8.46-2.546
			c0.081-0.782,0.162-1.565,0.243-2.347c4.099-0.629,8.197-1.747,12.298-1.76c4.749-0.015,8.7-1.242,12.362-4.22
			c13.035-10.6,26.15-21.101,39.261-31.607c1.396-1.119,2.964-2.024,4.452-3.028c-0.43-0.541-0.861-1.083-1.291-1.624
			c-2.148,0.681-4.314,1.311-6.441,2.052c-12.852,4.472-25.702,8.946-38.537,13.467c-5.694,2.006-9.675,0.867-13.865-4.14
			c15.087-3.771,30.181-7.544,46.212-11.551c-7.057-6.727-13.068-12.457-19.692-18.772c14.192-1.628,21.112,3.854,22.566,17.316
			c3.808-1.461,7.833-2.287,11.018-4.386c5.68-3.742,10.211-2.245,14.831,1.596c1.765,1.467,3.744,2.676,5.807,4.13
			c-22.29,14.082-43.147,27.259-64.747,40.905c29.006,11.992,57.568,22.482,88.844,23.071
			C-1051.835-240.33-1051.802-239.494-1051.77-238.658z"/>
		<path d="M-1346.276-289.643c-2.425,3.025-4.558,5.685-6.691,8.344c-0.266-0.124-0.533-0.249-0.8-0.373
			c0.156-0.793,0.204-1.628,0.486-2.374c3.703-9.783,7.671-19.474,11.057-29.365c1.442-4.214,1.684-8.838,2.515-13.523
			c7.188-0.541,11.022,4.485,7.663,11.349c-2.265,4.629-4.867,9.092-7.15,13.712c-0.507,1.025-0.851,2.922-0.305,3.49
			c0.81,0.843,2.533,1.301,3.777,1.155c8.599-1.011,13.263-8.646,11.737-18.996c-0.167-1.134-0.539-2.239-1.287-5.262
			c3.877,1.841,7.17,2.607,9.118,4.654c1.036,1.089,0.181,4.559-0.605,6.66c-1.082,2.891-2.907,5.504-5.153,9.577
			c4.067-1.253,6.834-2.053,9.558-2.979c0.76-0.258,1.444-1.338,2.078-1.268c2.377,0.261,4.746,0.744,7.05,1.387
			c0.458,0.128,0.939,1.912,0.865,1.953c-1.663,0.926-3.328,2.018-5.143,2.467c-4.016,0.992-8.115,1.646-12.722,2.544
			c0.296,3.361,0.576,6.54,0.893,10.147c4.435-1.798,8.434-4.331,12.843,0.977c-2.488,0.824-4.435,1.632-6.46,2.109
			c-7.579,1.785-7.761,2.023-6.183,9.887c3.263-0.367,6.514-0.968,9.763-0.954c0.966,0.004,1.925,1.733,2.888,2.671
			c-1.039,0.624-2.005,1.572-3.127,1.822c-10.388,2.315-10.404,2.28-10.114,12.901c0.036,1.311,0.209,2.617,0.393,4.822
			c3.101-0.855,6.421-0.907,8.522-2.533c4.18-3.234,7.554-0.988,11.079,0.582c0.977,0.435,1.45,2.003,2.155,3.051
			c-1.178,0.72-2.284,1.886-3.545,2.091c-10.973,1.778-21.951,3.578-32.981,4.932c-3.631,0.446-4.433,2.009-4.232,5.155
			c0.159,2.488,0.293,5.038-0.086,7.479c-0.246,1.587-1.434,3.028-2.2,4.534c-1.314-1.103-3.439-1.995-3.791-3.348
			c-1.097-4.218-2.132-8.615-2.097-12.934c0.12-14.792,0.714-29.58,1.084-44.37C-1345.412-288.03-1345.853-288.601-1346.276-289.643
			z M-1337.766-292.421c0,15.087,0,29.702,0,44.366c11.854-1.395,11.854-1.395,11.703-12.25c-0.012-0.83,0.314-1.975-0.106-2.427
			c-0.96-1.035-2.177-2.12-3.484-2.48c-2.21-0.608-4.571-0.671-6.869-0.963c0.038-0.538,0.075-1.075,0.113-1.613
			c2.937-0.936,6.767-1.068,8.548-3.046c1.611-1.789,0.985-5.592,1.358-8.612c-7.357,0.189-7.357,0.189-9.191-2.289
			c10.061-4.022,10.465-4.65,7.567-12.453C-1331.23-293.619-1334.421-293.034-1337.766-292.421z"/>
		<path d="M-1246.963-276.491c9.466-2.745,18.479-4.612,26.825-8.085c4.371-1.819,8.06-2.521,12.28-1.082
			c1.557,0.531,2.941,1.57,4.404,2.377c-0.042,0.569-0.084,1.139-0.126,1.708c-6.153,1.121-12.306,2.243-18.275,3.331
			c0.192,4.247,0.369,8.181,0.578,12.814c7.103-0.243,14.146-1.381,20.858-4.196c4.679-1.962,10.479,0.006,13.281,5.394
			c-1.964,0.489-3.729,1.169-5.542,1.34c-8.434,0.792-16.876,1.529-25.327,2.105c-3.565,0.243-4.269,2.194-4.34,5.301
			c-0.199,8.651-0.444,17.31-1.061,25.938c-0.26,3.634-1.498,7.198-3.393,10.715c-5.524-12.769-1.65-26.257-3.728-39.71
			c-5.51,1.002-10.808,2.127-16.159,2.876c-3.051,0.427-6.244-0.074-9.265,0.457c-1.556,0.273-3.242,1.615-4.24,2.946
			c-5.374,7.17-10.5,14.526-15.838,21.724c-1.036,1.397-2.633,2.378-4.542,3.227c11.01-17.955,19.959-36.517,21.312-57.747
			c-3.005-1.028-5.354-1.802-7.673-2.654c-0.378-0.139-0.627-0.626-1.503-1.553c10.298-1.788,20.014-3.559,29.76-5.143
			c9.171-1.49,18.381-2.737,27.555-4.207c1.602-0.257,3.194-0.933,4.649-1.688c4.998-2.59,12.127-0.8,16.707,5.104
			c-2.711,0.545-4.89,1.154-7.109,1.403c-18.463,2.077-36.934,4.085-55.4,6.137c-0.468,0.052-0.907,0.368-1.778,0.739
			c6.721,9.957-0.748,18.839-2.472,29.169c8.626-1.745,16.828-2.918,24.618-5.39c1.566-0.497,2.196-5.95,2.109-9.087
			c-0.089-3.206-2.795-4.259-5.898-3.361C-1239.367-274.527-1242.991-273.719-1246.963-276.491z"/>
		<path d="M-1501.139-264.577c-3.33,2.688-6.57,5.498-10.015,8.03c-3.397,2.496-7.001,4.711-10.515,7.049
			c-0.281-0.356-0.562-0.712-0.844-1.068c1.059-1.113,2.124-2.219,3.175-3.339c4.899-5.216,9.759-10.469,14.7-15.645
			c4.764-4.99,7.457-10.545,3.805-18.771c3.405,1.335,5.171,2.027,7.762,3.043c3.417-5.95,6.899-12.013,10.557-18.385
			c-7.231-1.657-14.086,5.182-20.858-1.321c7.229-1.506,13.874-2.693,20.39-4.381c1.739-0.45,3.774-2.133,4.477-3.765
			c2.251-5.228,5.538-10.525,1.343-16.444c4.786-2.19,7.265,0.918,10.023,3.107c5.737,4.555,0.803,8.943-0.97,14.996
			c6.118-1.545,11.358-2.492,16.313-4.246c3.621-1.281,11.007-0.948,13.243,1.93c0.554,0.713-0.144,3.605-0.873,3.878
			c-2.109,0.792-4.521,0.829-6.826,1.04c-7.436,0.683-14.893,1.174-22.301,2.075c-1.484,0.18-3.217,1.551-4.107,2.866
			c-6.433,9.505-12.74,19.097-18.922,28.767c-0.997,1.56-1.594,3.634-1.655,5.494c-0.459,13.974-0.666,27.957-1.169,41.93
			c-0.06,1.664-1.425,3.282-2.185,4.921c-1.45-1.158-3.74-2.064-4.177-3.524c-0.954-3.19-1.469-6.693-1.266-10.014
			c0.566-9.236,1.59-18.443,2.433-27.662C-1500.111-264.202-1500.625-264.39-1501.139-264.577z"/>
		<path d="M-1371.941-243.112c11.767-1.654,9.862,0.332,11.483-11.252c0.566-4.046,0.616-8.165,0.901-12.244
			c-10.067-0.566-15.546,3.219-18.435,12.32c6.047-0.627,7.029-1.526,7.234-7.826c2.571,1.392,5.502,2.047,6.594,3.829
			c1.131,1.845,0.478,4.783,0.051,7.631c-4.641-3.646-7.879-1.207-11.176,1.09c-1.361,0.948-2.751,2.203-4.275,2.467
			c-1.325,0.23-3.231-0.365-4.174-1.304c-0.685-0.684-0.624-2.681-0.183-3.815c1.025-2.635,2.481-5.102,4.06-8.226
			c-9.796,1.414-9.782,1.414-9.46,9.718c0.18,4.652,0.392,9.307,0.382,13.96c-0.002,0.964-0.924,2.73-1.414,2.727
			c-1.138-0.007-2.821-0.57-3.295-1.443c-1.057-1.949-2.031-4.206-2.113-6.373c-0.26-6.875-0.096-13.767-0.096-20.577
			c3.781-0.557,8.555-0.957,13.145-2.097c1.653-0.411,3.411-2.372,4.109-4.048c0.573-1.377-0.114-3.481-0.793-5.021
			c-0.152-0.345-2.682,0.091-3.974,0.56c-7.227,2.624-9.788,0.77-9.608-7.102c0.064-2.829,0.252-5.661,0.173-8.485
			c-0.078-2.766-0.423-5.525-0.677-8.598c4.068,0.231,6.37,1.811,6.348,6.256c-0.02,4.115,0.376,8.231,0.637,13.284
			c8.132-2.133,15.601-4.022,23.003-6.145c0.74-0.212,1.416-1.805,1.537-2.826c0.559-4.738,0.913-9.501,1.344-14.309
			c5.733-0.075,8.142,2.667,6.636,8.32c-1.069,4.01-2.249,8-3.606,11.92c-0.549,1.585-1.701,2.962-2.703,4.641
			c-3.693-4.558-5.805-4.497-13.435-0.196c1.141,2.506,2.281,5.011,3.694,8.115c2.83-1.079,6.027-1.964,8.897-3.473
			c3.879-2.04,6.588,0.067,8.759,2.455c0.968,1.064,0.531,3.647,0.323,5.494c-0.652,5.778-1.203,11.594-2.363,17.28
			c-0.923,4.522-2.682,8.874-4.38,14.287C-1363.86-236.357-1367.635-239.512-1371.941-243.112z"/>
		<path d="M-999.173-224.555c-4.679-4.482-9.033-8.653-13.07-12.521c8.247-0.526,8.249-0.526,8.269-10.283
			c0.007-3.466,0.001-6.932,0.001-11.299c-5.917,2.552-11.241,4.719-16.404,7.217c-0.769,0.372-1.009,2.291-1.102,3.524
			c-0.365,4.807-0.396,9.646-0.937,14.43c-0.178,1.572-1.522,3.012-2.333,4.513c-1.214-1.189-3.169-2.205-3.494-3.601
			c-0.804-3.456-1.327-7.11-1.138-10.64c0.778-14.516,1.864-29.016,2.888-44.289c-0.889,0.518-0.519,0.153-0.357,0.229
			c7.436,3.506,13.965,0.001,20.891-2.128c2.789-0.858,6.639,0.503,9.525,1.87c0.986,0.467,0.654,4.036,0.664,6.189
			c0.064,13.624-0.189,27.256,0.181,40.871C-995.426-234.458-995.926-228.945-999.173-224.555z M-1004.2-275.117
			c0-2.886,0-6.097,0-9.724c-3.692,0.791-6.892,1.481-10.095,2.16c-6.842,1.452-8.044,3.635-5.971,11.513
			C-1015.091-272.44-1009.888-273.719-1004.2-275.117z M-1004.459-270.371c-0.807,0-1.321-0.101-1.779,0.016
			c-3.031,0.774-6.058,1.566-9.072,2.405c-6.508,1.811-7.275,3.373-4.862,10.792c3.4-1.006,6.854-1.931,10.244-3.051
			C-1003.004-262.496-1002.904-262.744-1004.459-270.371z"/>
		<path d="M-1459.071-265.214c-6.415-1.411-12.282,4.216-18.917-1.431c5.466-1.093,9.839-2.137,14.268-2.796
			c3.367-0.501,4.984-1.851,4.705-5.503c-0.534-6.998,1.774-14.333-3.1-20.753c7.762-1.513,12.971,3.287,12.163,10.492
			c-0.389,3.467-0.39,6.98-0.517,10.473c-0.023,0.628,0.194,1.265,0.342,2.145c5.514,0.427,10.589-5.589,16.166-1.001
			c0.756,0.622,1.811,0.948,2.41,1.673c0.443,0.536,0.371,1.497,0.662,2.921c-5.443,0.419-10.512,0.985-15.594,1.138
			c-3.303,0.099-4.853,1.137-4.739,4.69c0.197,6.114,0.054,12.239,0.054,19.565c5.731-1.022,11.088-1.668,16.264-3.007
			c3.632-0.94,12.548,0.692,14.783,3.599c0.529,0.689,0.997,2.296,0.67,2.602c-0.863,0.807-2.17,1.562-3.312,1.579
			c-6.991,0.108-14.007-0.354-20.974,0.057c-10.435,0.617-20.83,1.879-31.255,2.698c-3.899,0.306-8.292,1.929-11.534-3.109
			c8.125-1.12,15.763-2.348,23.446-3.144c2.948-0.305,4.115-1.249,4.049-4.233C-1459.167-252.82-1459.071-259.086-1459.071-265.214z
			"/>
		<path d="M-1040.747-299.383c7.288-1.057,14.091-2.032,20.891-3.032c9.189-1.352,18.394-2.615,27.545-4.188
			c1.564-0.269,3.315-1.601,4.253-2.947c2.75-3.947,5.522-7.969,7.54-12.308c1.616-3.475,2.143-7.456,3.357-11.97
			c3.673-0.871,9.79,2.345,10.467,7.072c0.22,1.537-1.138,3.719-2.401,4.973c-4.54,4.508-9.348,8.746-14.055,13.087
			c0.207,0.603,0.414,1.205,0.621,1.808c10.048-1.987,20.139-3.785,30.12-6.066c3.336-0.762,12.858,1.469,14.506,4.49
			c1.231,2.256,1.091,4.282-2.132,4.606c-1.32,0.133-2.663,0.099-3.993,0.05c-28.422-1.06-56.349,2.748-84.079,8.518
			C-1032.92-294.29-1036.12-295.245-1040.747-299.383z"/>
		<path d="M-1256.495-323.877c4.688,1.929,4.805,2.221,4.878,14.545c5.398-0.833,10.711-1.56,15.969-2.575
			c0.695-0.134,1.639-1.787,1.561-2.656c-0.491-5.519-1.238-11.015-1.897-16.52c-0.077-0.646-0.131-1.296-0.195-1.925
			c7.614-1.862,12.659,2.57,11.303,9.768c-0.58,3.08-1.125,6.167-1.837,10.083c5.992-0.511,11.704-0.304,17.015-1.666
			c4.382-1.124,2.852-5.972,3.194-9.35c0.119-1.174-0.682-2.441-1.078-3.717c6.991-0.656,10.992,3.901,9.144,10.085
			c-0.76,2.541-1.384,5.195-2.625,7.498c-1.093,2.027-2.961,3.636-4.487,5.43c-1.318-1.624-2.636-3.248-4.791-5.903
			c-3.757,0.577-8.829,0.983-13.705,2.184c-10.108,2.49-20.086,5.503-30.184,8.035c-1.577,0.395-4.094-0.044-5.117-1.112
			c-1.221-1.274-2.088-3.807-1.731-5.505C-1259.913-312.727-1258.121-318.143-1256.495-323.877z"/>
		<path d="M-957.353-218.822c-5.709-5.818-11.102-11.313-16.759-17.077c2.831,0.741,5.621,1.477,8.413,2.202
			c3.319,0.861,5.479,0.316,5.469-3.837c-0.038-16.315,0.227-32.634-0.085-48.942c-0.058-3.024-2.265-6.007-3.482-9.013
			c6.107-2.331,11.47,1.028,11.467,7.358c-0.008,18.639,0.002,37.279-0.145,55.917
			C-952.513-227.186-953.985-222.529-957.353-218.822z"/>
		<path d="M-1381.216-325.952c2.995,0.988,6.902,1.159,8.727,3.196c1.78,1.987,1.431,5.88,2.258,10.194
			c3.165-1.501,6.461-4.101,9.969-4.427c3.288-0.305,6.799,1.797,10.211,2.839c-0.075,0.812-0.149,1.624-0.224,2.437
			c-5.94,1.06-11.879,2.12-18.592,3.318c3.539,3.906,5.042,7.422,1.208,11.299c-0.421,0.425,0.452,2.277,0.908,3.391
			c0.946,2.306,2.015,4.562,3.034,6.838c-0.443,0.445-0.885,0.889-1.327,1.334c-1.821-0.748-3.986-1.102-5.39-2.328
			c-2.654-2.317-4.509-1.864-6.668,0.554c-1.739,1.948-3.811,3.6-6.74,4.726c1.919-3.446,3.838-6.892,5.917-10.625
			c-2.096-1.832-4.137-3.617-7.325-6.403c3.157,0.277,4.883,0.634,6.576,0.517c1.576-0.109,3.977-0.27,4.478-1.219
			c0.794-1.504,0.892-3.981,0.138-5.464c-0.437-0.86-3.21-1.046-4.765-0.726c-4.213,0.868-8.287,2.456-12.516,3.185
			c-2.397,0.413-4.99-0.302-7.494-0.51c0.001-0.641,0.002-1.282,0.003-1.924c5.702-1.506,11.331-3.485,17.128-4.374
			c5.018-0.77,5.153-3.142,3.562-6.769c-1.114-2.538-2.485-4.964-3.741-7.44C-1381.659-324.871-1381.438-325.411-1381.216-325.952z"
			/>
		<path d="M-977.66-248.839c-3.241-3.239-4.527-7.265-4.495-11.923c0.061-8.894,0.018-17.788,0.018-26.615
			c4.571,0.549,6.71,2.709,6.827,7.502c0.198,8.151,0.451,16.302,0.499,24.453c0.013,2.155-0.638,4.314-0.984,6.471
			C-976.418-248.913-977.039-248.876-977.66-248.839z"/>
		<path d="M-1012.908-329.239c4.814,7.182,10.391,7.715,16.9,2.984c0.132,0.42,0.263,0.841,0.395,1.261
			c-1.792,4.163-3.389,8.431-5.525,12.409c-0.476,0.887-3.179,1.477-4.294,0.969
			C-1010.724-314.026-1014.171-321.731-1012.908-329.239z"/>
	</g>
</g>
<g>
	<path class="st0" d="M-1169.172-52.649c5.961-0.746,10.645-1.132,15.245-1.978c2.988-0.55,6.411-1.049,8.682-2.808
		c14.067-10.899,27.872-22.137,41.732-33.301c1.13-0.91,2.03-2.107,2.672-4.034c-1.607,0.454-3.243,0.825-4.816,1.374
		c-13.473,4.701-26.94,9.418-40.396,14.166c-5.554,1.96-9.986,0.543-13.478-4.306c15.03-3.756,30.135-7.531,46.056-11.51
		c-7.073-6.7-13.047-12.358-19.447-18.42c12.741-2.81,21.374,3.849,22.164,16.996c3.981-1.524,7.79-2.784,11.432-4.417
		c7.792-3.495,14.953-0.922,18.792,6.731c-20.875,13.193-41.724,26.371-63.154,39.915c28.996,12.087,57.641,22.38,88.872,23.938
		c-9.517,4.397-19.016,8.035-29.329,8.688c-1.646,0.104-3.446-1.074-5.066-1.877c-15.043-7.455-30.081-14.922-45.082-22.461
		c-8.156-4.099-16.228-6.486-25.114-1.711C-1163.333-45.552-1165.483-49.219-1169.172-52.649z"/>
	<path class="st0" d="M-1349.188-79.722c-2.562,3.161-4.71,5.811-6.857,8.461c-0.256-0.125-0.513-0.25-0.769-0.375
		c0.106-0.691,0.095-1.425,0.334-2.065c4.064-10.886,8.324-21.703,12.141-32.675c1.089-3.131,0.909-6.703,1.393-10.758
		c3.277-0.974,6.389,1.266,8.426,4.044c1.058,1.442,0.636,4.702-0.214,6.667c-2.107,4.87-4.928,9.427-7.269,14.204
		c-0.569,1.16-0.972,3.068-0.397,3.932c0.557,0.838,2.521,1.194,3.777,1.039c8.47-1.049,13.193-8.886,11.623-19.078
		c-0.173-1.124-0.542-2.218-0.083-4.661c2.739,1.342,6.16,2.109,7.957,4.243c1.056,1.254-0.094,4.821-0.933,7.096
		c-1.006,2.726-2.739,5.184-4.906,9.117c4.172-1.313,6.954-2.154,9.706-3.081c0.608-0.205,1.151-1.08,1.657-1.025
		c2.508,0.271,5.014,0.659,7.465,1.243c0.41,0.098,0.857,1.943,0.758,1.996c-1.689,0.907-3.394,1.939-5.23,2.387
		c-4.01,0.979-8.096,1.645-12.571,2.521c0.25,3.308,0.48,6.363,0.746,9.887c4.343-1.024,8.629-4.52,12.815,1.347
		c-2.393,0.769-4.376,1.56-6.432,2.041c-7.518,1.758-7.785,2.148-5.993,9.985c3.097-0.435,6.187-1.122,9.287-1.17
		c1.093-0.017,2.21,1.527,3.316,2.359c-1.089,0.757-2.083,1.939-3.281,2.204c-10.307,2.284-10.327,2.235-10.001,13.015
		c0.039,1.297,0.24,2.589,0.448,4.736c2.98-0.796,6.186-0.787,8.125-2.35c4.043-3.259,7.52-1.543,11.068,0.195
		c1.105,0.541,1.665,2.194,2.474,3.337c-1.204,0.687-2.34,1.79-3.621,1.997c-10.975,1.772-21.956,3.532-32.981,4.948
		c-3.251,0.418-4.299,1.659-4.131,4.739c0.163,2.987,0.201,6.019-0.151,8.978c-0.144,1.212-1.249,2.671-2.329,3.253
		c-0.514,0.277-2.66-1.05-2.921-1.974c-1.228-4.36-2.898-8.835-2.881-13.262c0.058-15.12,0.764-30.236,1.193-45.355
		C-1348.417-78.021-1348.732-78.469-1349.188-79.722z M-1340.961-38.282c11.596-0.301,12.016-0.721,11.9-11.591
		c-0.007-0.664-0.022-1.329-0.01-1.993c0.055-2.875-0.62-4.285-4.13-3.403c-1.906,0.479-4.227-0.695-6.361-1.124
		c0.066-0.471,0.131-0.941,0.197-1.412c2.941-0.943,6.783-1.082,8.557-3.068c1.599-1.79,0.934-5.603,1.256-8.43
		c-3.675-0.969-7.586,2.425-9.317-2.423c10.246-3.902,10.752-4.694,7.684-12.47c-3.095,0.572-6.284,1.162-9.777,1.808
		C-1340.961-67.644-1340.961-52.967-1340.961-38.282z"/>
	<path class="st0" d="M-1259.514-47.751c8.632-1.749,16.836-2.925,24.627-5.4c1.559-0.495,2.178-5.961,2.082-9.099
		c-0.099-3.216-2.831-4.262-5.911-3.326c-3.683,1.12-7.272,1.665-11.892-1.061c7.109-1.802,13.171-3.135,19.098-4.916
		c3.767-1.132,7.399-2.789,10.972-4.466c3.954-1.856,10.952-0.247,14.496,4.439c-3.632,0.654-6.721,1.232-9.819,1.763
		c-3.061,0.524-6.131,1.001-8.993,1.466c0.194,4.38,0.368,8.314,0.573,12.921c7.117-0.241,14.166-1.385,20.882-4.204
		c4.665-1.957,10.502,0.048,13.247,5.426c-1.964,0.481-3.734,1.15-5.55,1.32c-8.434,0.791-16.876,1.529-25.327,2.106
		c-3.581,0.244-4.245,2.231-4.317,5.322c-0.202,8.651-0.444,17.31-1.062,25.938c-0.26,3.625-1.504,7.179-3.402,10.688
		c-5.503-12.774-1.645-26.266-3.716-39.706c-5.526,1.006-10.828,2.134-16.182,2.881c-3.051,0.426-6.244-0.087-9.263,0.444
		c-1.554,0.274-3.23,1.637-4.231,2.973c-5.374,7.17-10.503,14.524-15.843,21.721c-1.032,1.392-2.625,2.367-4.524,3.205
		c10.983-17.823,19.754-36.317,21.354-57.584c-3.206-1.183-6.006-2.216-8.806-3.249c0.052-0.414,0.105-0.828,0.157-1.242
		c9.901-1.692,19.792-3.449,29.708-5.056c9.008-1.46,18.049-2.71,27.057-4.17c1.602-0.26,3.192-0.939,4.647-1.695
		c4.98-2.587,12.163-0.767,16.675,5.13c-2.709,0.538-4.894,1.137-7.119,1.387c-18.463,2.078-36.934,4.088-55.4,6.143
		c-0.465,0.052-0.9,0.375-1.76,0.751C-1250.287-66.948-1257.833-58.07-1259.514-47.751z"/>
	<path class="st0" d="M-1502.471-55.359c-8.354,6.075-15.205,11.058-22.057,16.04c-0.434-0.523-0.869-1.047-1.303-1.57
		c2.977-2.792,6.055-5.486,8.904-8.403c3.021-3.094,5.92-6.32,8.706-9.628c6.704-7.961,6.665-7.994,5.532-18.778
		c2.199,0.774,4.066,1.431,6.699,2.358c3.384-5.943,6.843-12.019,10.427-18.315c-7.262-1.624-13.913,5.037-20.911-1.336
		c6.015-1.221,11.395-2.336,16.784-3.401c8.443-1.67,13.477-10.775,10.5-19.007c-0.267-0.739-0.403-1.524-0.657-2.507
		c5.475-1.658,8.182,1.993,11.047,5.106c4.137,4.496-1.603,7.821-1.627,13.173c5.352-1.33,10.482-2.208,15.311-3.929
		c3.862-1.376,10.508-1.199,13.391,1.472c1.887,1.748,2.215,3.544-0.783,4.336c-2.062,0.545-4.243,0.689-6.383,0.879
		c-7.438,0.662-14.9,1.107-22.307,2.015c-1.632,0.2-3.555,1.631-4.524,3.054c-6.368,9.347-12.599,18.791-18.652,28.345
		c-1.153,1.819-1.777,4.252-1.854,6.429c-0.484,13.807-0.688,27.623-1.161,41.431c-0.054,1.583-1.207,3.129-1.85,4.693
		c-1.514-1.02-3.915-1.75-4.364-3.119c-1.037-3.164-1.693-6.672-1.494-9.979C-1504.534-35.371-1503.463-44.711-1502.471-55.359z"/>
	<path class="st0" d="M-1362.554-56.881c-11.11,0.448-15.081,3.226-18.503,12.428c5.562-0.036,6.963-1.275,7.488-6.621
		c7.023,0.503,8.884,3.564,5.836,10.352c-4.378-4.037-7.682-0.538-11.232,1.603c-1.28,0.772-2.51,1.95-3.88,2.153
		c-1.214,0.18-3.16-0.367-3.743-1.267c-0.672-1.035-0.608-2.96-0.141-4.234c0.926-2.53,2.347-4.879,3.79-7.756
		c-9.49,0.788-9.644,1.049-9.414,9.31c0.156,5.588,0.03,11.183,0.03,17.215c-5.128-0.433-6.433-3.703-6.546-7.471
		c-0.217-7.202-0.063-14.415-0.063-21.295c3.886-0.553,8.473-1.287,13.083-1.838c3.999-0.478,4.621-3.387,4.684-6.476
		c0.055-2.704-1.283-4.075-4.166-2.838c-0.913,0.392-1.83,0.784-2.767,1.11c-4.782,1.663-7.801-0.367-7.901-5.449
		c-0.062-3.159,0.251-6.324,0.198-9.484c-0.052-3.109-0.355-6.214-0.583-9.891c3.744,0.4,6.265,1.636,6.248,6.178
		c-0.015,4.131,0.367,8.263,0.629,13.485c8.182-2.177,15.771-4.125,23.29-6.315c0.688-0.2,1.205-1.914,1.323-2.978
		c0.522-4.721,0.87-9.461,1.281-14.197c6.474,0.664,8.214,2.94,6.407,9.295c-1.501,5.278-3.326,10.464-5.487,17.179
		c-5.367-8.974-9.59-2.186-14.304-2.271c1.371,3.078,2.476,5.558,3.913,8.784c2.623-0.987,5.676-1.736,8.314-3.222
		c3.922-2.209,6.511-0.169,9.436,1.923c2.912,2.083,0.638,3.98,0.289,6.093c-0.92,5.574-1.238,11.258-2.349,16.787
		c-0.915,4.553-2.622,8.947-4.311,14.505c-5.127-4.278-8.974-7.487-13.015-10.859c10.058-1.984,10.127-1.975,11.393-12.221
		C-1362.865-48.912-1362.816-52.714-1362.554-56.881z"/>
	<path class="st0" d="M-1002.2-14.494c-4.655-4.51-8.985-8.705-12.967-12.564c8.17-0.624,8.172-0.624,8.193-10.269
		c0.008-3.47,0.001-6.94,0.001-11.325c-5.903,2.544-11.219,4.705-16.375,7.198c-0.773,0.374-1.031,2.279-1.125,3.506
		c-0.368,4.807-0.402,9.646-0.94,14.43c-0.178,1.581-1.503,3.033-2.304,4.544c-1.22-1.179-3.001-2.149-3.536-3.583
		c-0.962-2.581-1.903-5.53-1.581-8.17c1.868-15.311,3.478-30.607,2.174-46.199c0.394-0.138,0.984-0.561,1.26-0.41
		c6.717,3.672,12.928,0.929,18.915-1.805c3.63-1.658,6.841-1.564,9.778,0.677c1.25,0.954,2.286,3.051,2.295,4.634
		c0.084,14.772-0.25,29.547-0.077,44.317C-998.422-23.836-999.156-18.66-1002.2-14.494z M-1007.155-65.042c0-2.886,0-6.107,0-9.809
		c-3.65,0.784-6.838,1.479-10.03,2.154c-6.987,1.477-8.039,3.316-6.163,11.504C-1018.031-62.457-1012.703-63.724-1007.155-65.042z
		 M-1023.698-47.041c3.888-1.142,7.492-2.102,11.03-3.263c6.642-2.179,6.993-2.951,5.082-10.102c-0.466,0-0.978-0.098-1.437,0.016
		c-2.877,0.713-5.753,1.432-8.608,2.227C-1024.924-56.132-1024.919-56.116-1023.698-47.041z"/>
	<path class="st0" d="M-1489.524-29.206c8.227-1.119,15.916-2.362,23.651-3.122c3.158-0.31,3.899-1.656,3.835-4.436
		c-0.115-4.995-0.125-9.998-0.001-14.992c0.083-3.364-1.121-4.621-4.497-3.593c-2.054,0.625-4.193,1.311-6.3,1.335
		c-2.38,0.026-4.768-0.659-7.153-1.036c0.021-0.62,0.043-1.239,0.064-1.859c4.467-0.869,8.915-1.864,13.409-2.565
		c3.115-0.486,4.776-1.717,4.487-5.175c-0.584-6.994,1.897-14.366-2.96-20.758c6.752-2.163,12.908,2.859,12.179,9.423
		c-0.473,4.264-0.542,8.572-0.828,13.475c6.38-0.265,12.394-5.592,18.151-0.258c0.748,0.693,1.139,1.77,2.341,3.714
		c-5.975,0.467-11.003,1.067-16.042,1.184c-3.496,0.081-5.191,1.084-5.042,4.912c0.233,5.977,0.062,11.97,0.062,19.074
		c5.161-0.697,10.549-0.413,15.037-2.286c5.75-2.399,9.994,0.18,14.6,2.135c1.048,0.445,1.514,2.259,2.248,3.443
		c-1.228,0.614-2.444,1.728-3.685,1.757c-6.156,0.143-12.341-0.353-18.474,0.033c-11.429,0.72-22.823,1.974-34.245,2.835
		C-1482.331-25.694-1486.432-24.31-1489.524-29.206z"/>
	<path class="st0" d="M-980.113-123.858c3.923-0.719,9.809,2.542,10.48,7.21c0.19,1.321-0.802,3.205-1.84,4.239
		c-3.888,3.874-7.969,7.563-12.1,11.181c-0.946,0.828-2.381,1.097-3.591,1.624c0.551,0.919,1.103,1.838,1.654,2.757
		c10.073-2.023,20.187-3.87,30.196-6.168c3.333-0.765,12.97,1.637,14.481,4.639c1.163,2.311,0.888,4.302-2.32,4.531
		c-1.326,0.095-2.665,0.086-3.994,0.035c-28.256-1.073-56.037,2.668-83.576,8.499c-4.957,1.05-8.659-0.725-14.02-3.824
		c5.469-0.88,9.532-1.58,13.609-2.18c11.816-1.741,23.653-3.347,35.439-5.265c1.711-0.278,3.645-1.643,4.69-3.077
		c2.634-3.616,5.228-7.373,7.066-11.424C-982.211-114.89-981.474-119.147-980.113-123.858z"/>
	<path class="st0" d="M-1210.742-118.307c8.242,0.599,11.159,4.578,9.017,11.383c-0.747,2.372-1.267,4.91-2.512,7.004
		c-1.149,1.932-3.129,3.371-4.742,5.027c-1.141-1.633-2.283-3.267-4.232-6.056c-5.813,1.062-12.785,2.007-19.583,3.662
		c-8.341,2.031-16.508,4.769-24.823,6.915c-1.422,0.367-3.807-0.195-4.691-1.23c-1.187-1.389-2.155-3.826-1.799-5.515
		c1.169-5.547,2.978-10.959,4.576-16.544c4.449,0.835,4.993,2.075,4.85,14.32c5.413-0.822,10.72-1.535,15.971-2.536
		c0.71-0.135,1.694-1.763,1.619-2.618c-0.482-5.52-1.222-11.017-1.878-16.521c-0.077-0.649-0.153-1.299-0.228-1.929
		c7.44-2.038,12.685,2.493,11.338,9.639c-0.581,3.082-1.129,6.17-1.857,10.158c6.129-0.539,12.029-0.325,17.371-1.948
		c1.733-0.527,2.181-5.829,2.843-9.024C-1209.274-115.22-1210.184-116.556-1210.742-118.307z"/>
	<path class="st0" d="M-960.21-8.643c-5.874-5.943-11.211-11.343-16.958-17.157c2.914,0.724,5.754,1.41,8.584,2.137
		c3.453,0.887,5.376,0.017,5.367-3.99c-0.035-16.149,0.246-32.302-0.068-48.444c-0.062-3.191-2.237-6.341-3.438-9.511
		c6.522-2.109,11.423,1.346,11.402,8.095c-0.055,18.14-0.099,36.279-0.092,54.419C-955.41-17.76-957.073-13.093-960.21-8.643z"/>
	<path class="st0" d="M-1401.577-95.886c5.908-1.511,11.765-3.281,17.741-4.44c3.75-0.727,4.378-2.36,2.967-5.49
		c-1.279-2.836-2.557-5.672-4.614-10.233c4.098,1.202,8.034,1.241,9.914,3.227c1.817,1.919,1.517,5.844,2.304,9.65
		c5.988,0.919,13.329-9.181,20.572,1.337c-6.485,1.171-12.421,2.242-19.025,3.434c3.079,3.812,5.114,7.3,1.126,11.231
		c-0.451,0.445,0.608,2.508,1.076,3.78c0.845,2.296,1.772,4.562,3.193,8.187c-2.956-0.823-4.544-0.785-5.32-1.56
		c-4.602-4.594-7.742-1.827-10.892,1.822c-0.951,1.101-2.165,1.975-4.279,2.325c1.893-3.405,3.786-6.811,5.909-10.629
		c-2.064-1.767-4.123-3.529-6.182-5.291c0.084-0.31,0.168-0.62,0.252-0.929c1.846,0.192,3.703,0.597,5.536,0.509
		c1.437-0.069,3.69-0.367,4.082-1.238c0.724-1.607,0.797-3.864,0.223-5.534c-0.249-0.726-2.873-1.165-4.241-0.88
		c-4.375,0.91-8.62,2.493-13.011,3.266c-2.434,0.428-5.061-0.241-7.601-0.416C-1401.758-94.468-1401.667-95.177-1401.577-95.886z"/>
	<path class="st0" d="M-978.966-37.746c-5.084-3.857-6.101-7.986-6.186-12.284c-0.184-9.21-0.056-18.426-0.056-27.873
		c3.936,1.192,7.001,3.059,6.965,8.29c-0.056,8.149,0.373,16.301,0.429,24.453C-977.799-43.123-978.424-41.082-978.966-37.746z"/>
	<path class="st0" d="M-1015.744-119.148c4.715,7.397,10.397,7.318,16.849,2.958c0.094,0.42,0.188,0.84,0.282,1.261
		c-1.815,4.183-3.462,8.455-5.581,12.478c-0.449,0.853-2.892,1.472-3.958,1.048C-1013.502-103.536-1017.34-111.987-1015.744-119.148
		z"/>
</g>
<g>
	<g>
		<path d="M-1148.89,126.947c-5.872,0.822-11.036,1.666-16.229,2.241c-6.963,0.772-7,0.682-7.236,7.899
			c-0.086,2.642-0.014,5.29-0.014,9.245c8.422-2.095,16.64-3.711,24.546-6.286c3.984-1.298,13.623-0.484,15.988,2.867
			c0.5,0.709,0.863,2.291,0.479,2.688c-0.813,0.841-2.125,1.531-3.293,1.643c-7.948,0.757-15.907,1.419-23.872,1.976
			c-13.156,0.921-13.167,0.879-12.523,13.889c0.048,0.959,0.316,1.907,0.5,2.967c7.22,1.36,13.696-9.859,21.946-0.416
			c-7.443,3.276-14.499,5.261-22.474,5.268c-0.314,5.588-0.78,11.359-0.829,17.134c-0.009,1.032,1.51,2.505,2.665,3.054
			c14.238,6.761,29.279,10.678,44.926,12.379c2.763,0.3,5.511,0.74,8.266,1.116c0.076,0.454,0.152,0.908,0.228,1.362
			c-7.259,1.749-14.586,3.263-21.757,5.319c-6.107,1.751-11.166,0.308-16.433-2.928c-13.876-8.526-27.998-16.652-42.483-25.21
			c-7.059,8.6-13.974,17.591-25.002,22.421c0.949-1.312,1.94-2.596,2.84-3.94c4.531-6.766,9.382-13.352,13.428-20.398
			c2.472-4.304,3.695-9.326,5.653-14.483c6.83-0.45,9.442,4.472,5.266,13.407c4.758,2.081,9.504,4.157,15.091,6.601
			c0-10.427,0.174-19.994-0.1-29.548c-0.089-3.104-2.19-4.616-5.63-3.605c-8.122,2.387-16.346,4.439-24.411,6.996
			c-4.299,1.363-7.75,0.801-11.423-2.989c8.573-2.109,16.662-4.098,24.751-6.088c4.028-0.991,8.018-2.205,12.097-2.902
			c3.05-0.521,4.312-1.806,4.129-4.942c-0.212-3.621-0.049-7.264-0.049-10.936c-7.885-0.852-15.112,7.274-23.335,0.423
			c7.06-1.901,13.359-3.763,19.746-5.241c2.845-0.658,4.024-1.986,3.578-4.777c-0.832-5.202-1.707-10.397-2.715-16.517
			c1.868,0.432,4.584,0.847,7.151,1.708c3.008,1.009,4.48,3.208,4.088,6.554c-0.346,2.955-0.481,5.934-0.792,9.983
			c3.884-1.102,7.399-1.739,10.608-3.098C-1157.002,119.869-1152.094,121.287-1148.89,126.947z"/>
		<path d="M-1068.034,117.685c11.951,0.128,23.474-3.224,35.081-6.625c2.745-0.804,6.579,1.857,9.794,3.206
			c0.45,0.189,0.494,2.062,0.263,3.046c-2.219,9.46-4.538,18.897-7.051,29.26c2.852-0.309,4.665-0.92,6.287-0.592
			c2.956,0.598,5.914,1.498,8.663,2.734c4.09,1.839,1.769,4.636,1.064,7.53c-2.043,8.385-3.418,16.932-5.403,25.333
			c-0.869,3.676-2.433,7.218-3.963,10.697c-1.179,2.68-3.142,2.812-5.036,0.6c-3.239-3.782-6.39-7.639-9.375-11.22
			c-0.006,0,1.351-0.345,2.606-0.119c5.496,0.989,8.111-1.797,8.965-6.75c1.128-6.542,2.1-13.111,3.089-19.675
			c0.345-2.29-0.165-4.289-3.048-3.688c-14.108,2.94-28.189,6.009-42.274,9.057c-0.274,0.059-0.483,0.418-0.977,0.871
			c1.528,6.482,3.2,13.063,4.553,19.709c0.313,1.538-0.466,3.298-0.742,4.956c-1.527-0.741-3.182-1.306-4.537-2.286
			c-0.862-0.623-1.64-1.791-1.84-2.832c-1.517-7.906-2.881-15.841-4.325-23.945c3.302-0.515,7.161-1.116,11.771-1.834
			C-1065.668,142.522-1066.839,130.224-1068.034,117.685z M-1052.677,132.229c4.814-1.114,9.322-2.086,13.792-3.212
			c4.1-1.033,6.819-6.611,4.936-10.285c-0.384-0.748-1.876-1.496-2.709-1.358c-7.761,1.292-15.491,2.779-23.151,4.194
			c0.272,5.956,0.444,11.093,0.759,16.221c0.312,5.094,0.769,10.179,1.162,15.27c6.932-0.724,6.951-0.725,6.432-7.054
			C-1051.834,141.392-1052.271,136.783-1052.677,132.229z M-1045.323,151.623c3.629-1.915,7.798-2.736,8.539-4.792
			c1.566-4.346,1.341-9.338,1.929-14.786c-3.229,0.857-5.642,1.323-7.908,2.18c-1.007,0.381-2.398,1.514-2.446,2.37
			C-1045.455,141.026-1045.323,145.477-1045.323,151.623z"/>
		<path d="M-1396.955,126.764c-13.771-0.187-25.155,6.187-36.293,13.501c6.064-9.882,17.258-16.196,18.505-29.439
			c3.797-0.088,7.744,1.403,9.267,5.153c0.845,2.08-1.138,5.308-1.938,8.372c4.265-1.327,9.242-2.697,14.083-4.444
			c3.205-1.157,9.855,2.016,9.951,5.301c0.028,0.949-1.161,2.141-2.07,2.877c-5.633,4.556-11.345,9.014-16.505,14.597
			c4.665-0.904,9.529-1.254,13.947-2.843c6.589-2.37,11.603-0.377,16.261,4.037c-3.715,9.359-7.489,18.696-11.126,28.086
			c-1.181,3.049-3.588,4.73-6.156,3.189c-5.477-3.286-10.621-0.888-15.894-0.132c-3.944,0.565-7.908,1.127-11.773,2.062
			c-5.178,1.252-7.393-1.195-8.415-5.829c-1.821-8.257-3.764-16.487-5.814-25.415
			C-1414.315,148.855-1403.004,142.339-1396.955,126.764z M-1399.981,169.311c12.492-1.997,9.496,1.379,12.89-9.661
			c0.633-2.058,0.944-4.215,1.416-6.324c2.393-10.687,2.395-10.686-8.434-8.384c-6.421,1.365-6.934,2.261-5.049,9.253
			c0.76-0.299,1.484-0.818,2.215-0.829c2.348-0.034,4.707,0.04,7.037,0.299c0.31,0.035,0.774,1.971,0.662,2.027
			c-1.844,0.933-3.722,2.226-5.687,2.405c-4.193,0.383-5.983,2.196-5.322,6.411
			C-1400.026,165.957-1400.077,167.448-1399.981,169.311z M-1421.629,150.523c1.605,7.942,3.118,15.431,4.62,22.865
			c11.328-1.602,12.502-3.3,8.917-11.928c-2.948,0-5.969,0-8.99,0c-0.033-0.416-0.066-0.832-0.099-1.248
			c2.612-0.843,5.281-1.543,7.823-2.561c3.91-1.565,1.574-4.89,1.563-7.376c-0.003-0.617-2.728-1.823-4.115-1.708
			C-1414.977,148.822-1417.986,149.743-1421.629,150.523z"/>
		<path d="M-1346.188,190.716c14.03-2.583,26.66-5.107,39.369-7.134c4.218-0.673,5.967-1.943,5.771-6.526
			c-0.533-12.464-0.531-24.95-0.823-37.426c-0.144-6.155-1.399-7.108-7.238-5.948c-3.903,0.775-7.795,1.994-11.722,2.127
			c-2.833,0.096-5.715-1.27-8.575-1.983c0.062-0.596,0.125-1.192,0.187-1.788c8.389-1.507,16.796-2.916,25.161-4.548
			c9.217-1.798,18.864-1.73,27.377-6.68c2.589-1.505,13.178,3.085,14.032,5.815c1.027,3.285-1.574,3.53-3.746,3.647
			c-7.143,0.386-14.292,0.638-21.439,0.951c-1.477,0.065-2.953,0.171-4.129,0.241c0,16.552,0,32.868,0,49.834
			c6.239-0.346,12.319-0.382,18.317-1.101c5.867-0.704,11.697-1.908,17.454-3.268c3.752-0.886,15.193,3.864,16.455,7.383
			c1.013,2.825-0.367,4.104-3.131,4.093c-3.496-0.014-7.019,0.128-10.483-0.244c-26.607-2.857-52.767-0.127-78.577,6.401
			C-1337.03,195.854-1340.973,194.588-1346.188,190.716z"/>
		<path d="M-1654.806,125.488c10.071,2.563,18.96-2.218,28.327-4.141c2.403-0.493,4.602-1.986,7.005-2.477
			c2.401-0.49,5.246-1.09,7.365-0.269c8.473,3.279,8.155,3.432,6.522,12.243c-2.421,13.065-4.124,26.269-6.752,39.289
			c-2.639,13.074-3.557,13.189-13.753,4.69c-3.417-2.848-6.95-5.558-11.486-9.172c4.727,0.366,8.222,0.476,11.667,0.952
			c3.159,0.436,4.812-0.873,5.232-3.827c1.637-11.503,3.302-23.004,4.634-34.543c0.121-1.047-2.311-3.54-3.151-3.368
			c-7.921,1.615-15.754,3.664-24.157,5.721c0,26.428,0.067,52.5-0.131,78.569c-0.015,2.028-1.886,4.041-2.894,6.061
			c-0.985-1.919-2.666-3.781-2.831-5.768c-0.591-7.111-0.767-14.263-0.92-21.403c-0.364-16.966-0.432-33.941-1.08-50.895
			C-1651.35,133.449-1653.412,129.821-1654.806,125.488z"/>
		<path d="M-834.748,158.835c1.335-0.584,2.714-1.454,4.212-1.779c1.991-0.432,4.081-0.616,6.112-0.531
			c0.668,0.028,1.709,1.176,1.793,1.903c0.064,0.557-0.993,1.546-1.748,1.844c-3.638,1.434-10.035,2.074-10.515,4.142
			c-1.419,6.108-0.507,12.758-0.507,19.812c4.046-1.354,8.015-2.682,11.984-4.011c0.215,0.35,0.429,0.7,0.643,1.05
			c-1.015,0.778-1.96,1.679-3.057,2.315c-9.634,5.592-19.269,11.184-28.96,16.678c-5.849,3.316-10.486,0.969-12.209-6.375
			c1.063,0.162,1.973,0.382,2.891,0.427c5.615,0.276,7.811-1.761,7.659-7.262c-0.16-5.82-0.161-11.669-0.793-17.443
			c-0.421-3.845-1.826-7.582-2.791-11.369c6.358-1.082,9.921,1.718,9.95,7.855c0.035,7.638,0.008,15.277,0.008,22.923
			c6.977-0.266,8.099-1.305,8.021-7.561c-0.114-9.155-0.102-18.321-0.585-27.459c-0.167-3.164,0.362-8.245-6.057-5.793
			c-0.896,0.342-3.474-1.254-3.849-2.413c-2.423-7.489-4.451-15.105-6.862-23.572c9.718,3.161,17.452-0.622,25.591-3.394
			c2.76-0.94,6.737,1.536,10.082,2.677c0.409,0.14,0.679,1.788,0.438,2.556c-1.637,5.226-3.387,10.418-5.186,15.591
			c-1.027,2.951-2.135,5.788-6.352,3.879c-0.769-0.348-2.125,0.601-2.749,0.802C-836.639,149.161-835.748,153.718-834.748,158.835z
			 M-847.155,142.773c11.75-1.597,15.128-6.73,12.694-19.003c-5.225,1.332-10.427,2.658-16.241,4.14
			C-849.496,132.968-848.361,137.719-847.155,142.773z"/>
		<path d="M-946.688,193.376c-1.897-1.686-2.438-1.937-2.593-2.338c-3.311-8.536-9.494-9.476-17.221-6.675
			c-2.117,0.768-4.249,0.815-4.563,4.07c-0.301,3.119-3.315,2.536-4.315,0.902c-1.628-2.66-3.089-5.919-3.145-8.952
			c-0.166-8.969,0.505-17.95,0.562-26.928c0.011-1.662-1.318-3.332-2.289-5.611c4.047-8.194,8.651-17.364,13.075-26.62
			c0.744-1.556,1.192-3.559,0.939-5.229c-0.733-4.835-0.556-5.107,4.182-3.54c6.58,2.176,7.911,5.815,3.974,11.271
			c-4.062,5.63-8.253,11.168-11.906,17.889c5.554-1.596,11.274-2.779,16.614-4.912c4.777-1.907,8.387,0.048,12.089,2.184
			c0.836,0.482,1.461,2.159,1.399,3.241c-0.701,12.114-1.264,24.25-2.516,36.312C-942.896,183.186-945.022,187.764-946.688,193.376z
			 M-970.952,161.628c3.556-1.448,6.837-2.904,10.209-4.106c1.629-0.581,3.477-1.076,5.134-0.872
			c1.164,0.144,2.173,1.536,3.252,2.37c-0.93,0.767-1.747,1.92-2.811,2.232c-4.127,1.213-8.374,2.024-12.486,3.28
			c-1.357,0.414-3.409,1.642-3.487,2.629c-0.369,4.665-0.165,9.375-0.165,14.176c7.17-1.574,13.321-2.924,20.54-4.509
			c0.087-0.523,0.594-2.396,0.673-4.287c0.293-6.971,0.581-13.947,0.62-20.923c0.068-12.14,0.617-10.9-10.309-8.335
			c-0.161,0.038-0.328,0.057-0.493,0.078c-4.915,0.615-9.831,1.228-14.054,1.755C-973.268,150.298-972.21,155.473-970.952,161.628z"
			/>
		<path d="M-1562.125,118.88c14.024-4.235,28.265-8.511,42.486-12.85c2.884-0.88,12.03,2.151,13.345,4.869
			c0.42,0.868,0.006,2.498-0.58,3.431c-2.119,3.375-4.635,6.506-6.685,9.919c-1.462,2.432-2.418,5.168-4.123,8.919
			c-4.95,0.847-11.222,2.479-17.572,2.887c-12.61,0.809-19.191,6.21-21.754,19.47c-3.427,17.732-11.863,33.794-23.516,47.888
			c-0.81,0.979-1.711,1.882-3.349,2.43c0.275-0.951,0.375-2.003,0.851-2.839c12.376-21.722,19.185-45.181,21.517-69.956
			C-1561.049,128.209-1561.902,123.248-1562.125,118.88z M-1519.67,113.1c-0.493-0.37-0.986-0.74-1.479-1.11
			c-10.298,2.82-20.597,5.64-30.232,8.279c0,5.4,0,9.828,0,15.118c9.212-2.441,17.81-4.695,26.383-7.041
			c0.695-0.19,1.58-0.911,1.762-1.558C-1521.956,122.251-1520.839,117.668-1519.67,113.1z"/>
		<path d="M-797.472,151.854c-9.461,10.133-18.856,19.222-31.001,24.985c8.621-9.562,17.242-19.124,25.303-28.065
			c-0.352-1.559-0.335-1.765-0.43-1.869c-7.28-7.972-7.358-7.969-15.112-0.616c-1.135,1.076-2.354,2.063-3.533,3.092
			c-0.334-0.25-0.669-0.5-1.003-0.75c0.735-1.549,1.476-3.095,2.204-4.647c3.522-7.515,7.279-14.934,10.442-22.598
			c1.242-3.009,1.153-6.568,1.811-10.782c2.636-1.113,5.617,0.29,8.212,2.826c4.44,4.339-1.829,7.332-1.401,12.209
			c3.759-1.424,7.482-2.444,10.824-4.193c4.728-2.475,8.017-0.148,11.038,2.815c0.66,0.647,0.451,3.035-0.221,4.047
			c-4.416,6.645-9.07,13.133-13.997,20.174c11.951,9.862,24.715,18.508,39.617,23.794c-0.04,0.582-0.08,1.164-0.12,1.746
			c-6.408,0.773-12.803,1.72-19.233,2.163c-1.202,0.083-2.702-1.708-3.792-2.886C-784.3,166.35-790.654,159.329-797.472,151.854z
			 M-800.358,143.794c3.119-5.379,5.992-10.334,9.386-16.187c-16.749,3.906-15.735,2.437-18.488,9.473
			C-806.656,139.147-803.783,141.267-800.358,143.794z"/>
		<path d="M-900.302,210c-5.908-5.354-11.033-9.998-15.722-14.246c1.409,0.24,3.891,0.33,6.129,1.115
			c4.715,1.654,7.009-0.44,7.956-4.703c2.342-10.547,4.677-21.099,6.787-31.694c0.941-4.724,1.431-9.547,1.947-14.344
			c0.569-5.292-0.983-6.735-6.067-5.915c-8.33,1.344-16.672,2.624-24.966,4.165c-1.203,0.224-2.328,1.612-3.208,2.69
			c-3.239,3.967-6.359,8.03-9.524,12.057c-0.414-0.222-0.828-0.443-1.243-0.665c0.569-1.329,1.162-2.649,1.702-3.99
			c4.401-10.94,9.022-21.801,13.041-32.879c1.164-3.209,0.594-7.047,0.906-11.975c2.559-1.063,6.007,0.534,9.255,2.889
			c3.336,2.418,1.795,5.229,0.442,7.983c-3.06,6.231-6.108,12.467-9.572,19.541c2.312-0.132,4.054,0.025,5.662-0.368
			c6.77-1.654,13.49-3.516,20.248-5.219c7.663-1.931,12.867,2.734,11.606,10.356c-2.768,16.729-5.305,33.502-8.463,50.157
			C-894.536,201.026-896.203,207.362-900.302,210z"/>
		<path d="M-1518.632,146.371c8.702,4.168,9.755,9.529,2.977,15c-6.336,5.115-12.811,10.105-19.581,14.615
			c-3.212,2.14-4.594,4.342-4.174,8.084c0.277,2.467,0.036,4.991,0.056,7.489c0.052,6.431,1.846,9.44,8.184,9.567
			c11.404,0.23,22.838-0.536,34.243-1.185c4.64-0.264,6.915-3.53,7.65-7.926c0.511-3.056,1.01-6.114,2.409-9.327
			c0.741,2.577,1.346,5.203,2.257,7.719c1.065,2.94,2.141,5.927,3.67,8.635c2.578,4.562,2.325,6.256-2.879,7.413
			c-5.805,1.29-11.81,2.334-17.726,2.327c-10.593-0.014-21.278-0.206-31.749-1.622c-9.13-1.235-12.184-5.608-12.628-15.156
			c-0.525-11.302-0.562-22.627-1.013-33.934c-0.13-3.259-0.955-6.49-1.469-9.779c5.434-1.452,10.96,3.022,10.423,8.704
			c-0.497,5.262-0.842,10.539-0.654,16.122C-1530.562,165.31-1522.152,157.905-1518.632,146.371z"/>
		<path d="M-1691.228,176.321c9.745-3.479,18.979-6.775,28.212-10.071c0.226,0.378,0.452,0.757,0.677,1.135
			c-10.525,8.006-21.05,16.013-31.95,24.304c-3.291-5.216-5.951-9.382-5.064-16.117c1.487-11.303,1.174-22.885,0.996-34.34
			c-0.052-3.322-2.229-6.61-3.543-10.216c10.981,0.917,29.603-15.594,27.515-24.919c3.19,1.059,6.13,1.517,8.5,2.93
			c5.2,3.099,5.098,7.412-0.017,10.424c-4.29,2.527-8.641,4.957-13.039,7.29c-4.385,2.327-8.862,4.481-12.54,6.329
			c0.546,5.769,1.044,11.037,1.651,17.451c5.041-1.704,10.496-2.695,14.996-5.322c4.111-2.399,7.514-1.831,11.259-0.382
			c0.912,0.353,1.485,1.584,2.214,2.411c-0.921,0.774-1.735,2.009-2.779,2.249c-7.424,1.709-14.856,3.441-22.366,4.682
			c-3.409,0.563-4.998,1.561-4.795,5.283C-1691.014,164.709-1691.228,170.002-1691.228,176.321z"/>
		<path d="M-1090.542,168.933c11.413,5.132,6.207,12.092,2.485,18.46c0.713,0.585,0.973,0.967,1.171,0.937
			c18.117-2.716,35.189,3.387,52.554,6.525c12.782,2.31,25.452,4.515,38.835,3.059c-5.883,7.484-21.391,11.604-29.639,8.925
			c-15.905-5.166-31.855-10.257-47.995-14.606c-7.667-2.066-15.538-0.098-22.811,3.085c-3.206,1.403-5.702,1.258-8.591-2.22
			c2.49-0.718,4.578-1.335,6.674-1.922c6.356-1.782,10.76-9.194,7.262-14.811c-3.384-5.434-2.622-10.106-1.325-15.372
			c0.104-0.421-0.114-0.922-0.191-1.448c-4.376-0.315-8.135,5.11-13.27,1.145c5.582-3.387,10.573-6.975,16.073-9.418
			c1.697-0.754,4.953,1.349,7.11,2.741c0.551,0.355,0.086,3.278-0.701,4.521C-1085.018,161.874-1087.562,164.945-1090.542,168.933z"
			/>
		<path d="M-776.8,177.514c-1.258,8.118-8.016,13.259-4.166,21.812c-2.392,0-4.421-0.127-6.428,0.024
			c-6.361,0.478-13.166-1.425-18.779,3.686c-0.414,0.377-4.283-1.856-5.295-3.601c-1.448-2.495-1.682-5.678-2.543-8.535
			c-1.324-4.395-2.739-8.761-4.196-13.396c10.875,0.898,21.184-1.742,31.632-4.35C-783.716,172.44-779.767,176.095-776.8,177.514z
			 M-805.132,197.26c4.311-0.905,8.829-1.734,13.268-2.874c1.01-0.259,2.283-1.47,2.507-2.455c0.732-3.213,1.236-6.515,1.389-9.804
			c0.049-1.052-1.413-3.176-1.933-3.1c-6.159,0.903-12.271,2.13-18.396,3.272c0.756,4.652,1.504,9.306,2.291,13.952
			C-805.959,196.522-805.596,196.739-805.132,197.26z"/>
		<path d="M-1461.839,191.572c2.065-1.539,4.729-2.674,6.088-4.689c5.105-7.572,9.78-15.434,14.629-23.179
			c0.947-1.513,1.957-2.987,4.003-4.148c-0.666,2.7-1.143,5.464-2.031,8.089c-3.565,10.531-7.349,20.988-10.856,31.537
			c-1.251,3.764-3.493,3.965-5.886,1.766c-2.908-2.672-5.294-5.913-7.905-8.908
			C-1463.144,191.884-1462.491,191.728-1461.839,191.572z"/>
		<path d="M-1030.664,162.599c-2.449,4.855-4.415,8.751-6.386,12.657c-5.499,1.164-11.531,2.655-17.65,3.545
			c-1.165,0.169-3.122-1.786-3.938-3.207c-1.89-3.289-3.305-6.85-4.673-9.788c8.227-2.16,16.339-4.704,24.638-6.216
			C-1036.195,159.139-1033.191,161.579-1030.664,162.599z M-1042.273,164.085c-4.283,0.86-8.492,1.706-13.259,2.663
			c0.963,2.855,1.725,5.115,2.462,7.3C-1042.057,172.63-1041.521,172.162-1042.273,164.085z"/>
		<path d="M-1380.406,183.185c4.229,2.536,8.665,4.797,12.59,7.739c1.666,1.248,2.876,3.839,3.175,5.975
			c0.307,2.193-0.752,4.577-1.213,6.877c-2.072-0.995-4.921-1.445-6.072-3.086c-3.651-5.206-6.667-10.857-9.929-16.336
			C-1381.372,183.965-1380.889,183.575-1380.406,183.185z"/>
		<path d="M-1426.227,185.134c-1.095,6.385-1.97,12.823-3.466,19.113c-0.307,1.29-3.02,2.874-4.479,2.74
			c-1.107-0.102-2.567-2.616-2.847-4.234c-0.735-4.249,0.129-8.121,3.646-11.259c2.152-1.92,3.748-4.463,5.593-6.727
			C-1427.262,184.89-1426.745,185.012-1426.227,185.134z"/>
		<path d="M-911.746,174.936c-6.686-0.148-12.534-5.437-15.176-13.538C-916.222,161.765-909.566,166.316-911.746,174.936z"/>
		<path d="M-1460.973,140.92c13.233,0.679,17.857,2.286,16.299,10.927C-1451.073,152.704-1459.094,147.471-1460.973,140.92z"/>
		<path d="M-1399.432,184.65c4.686,3.195,11.557,4.14,12.019,11.697c0.096,1.567-0.94,3.202-1.455,4.806
			c-1.601-0.634-3.942-0.809-4.672-1.985c-2.726-4.391-4.924-9.11-7.32-13.706C-1400.384,185.192-1399.908,184.921-1399.432,184.65z
			"/>
		<path d="M-1098.456,123.615c10.241-3.19,18.058,0.334,17.054,8.485C-1088.701,132.67-1093.162,128.003-1098.456,123.615z"/>
		<path d="M-1436.524,124.869c-6.504,1.133-12.473-2.495-15.192-8.988C-1441.611,114.724-1436.597,115.507-1436.524,124.869z"/>
		<path d="M-1418.153,186.548c8.515,2.917,11.106,5.762,10.69,11.389c-0.113,1.528-1.424,2.968-2.185,4.448
			c-1.487-0.88-3.773-1.422-4.313-2.701C-1415.632,195.728-1416.639,191.491-1418.153,186.548z"/>
	</g>
</g>
<g>
	<path class="st0" d="M-1115.959,373.281c-9.336,1.997-18.643,4.151-28.031,5.855c-1.854,0.337-4.237-0.691-6.014-1.718
		c-15.397-8.898-30.711-17.94-46.522-27.217c-7.022,8.545-13.932,17.541-24.963,22.371c0.947-1.31,1.935-2.592,2.833-3.934
		c4.532-6.766,9.382-13.351,13.43-20.397c2.472-4.304,3.697-9.325,5.658-14.486c6.819-0.465,9.444,4.475,5.262,13.401
		c4.758,2.083,9.502,4.159,15.094,6.607c0-10.426,0.173-19.992-0.1-29.545c-0.089-3.101-2.182-4.624-5.626-3.613
		c-8.122,2.386-16.299,4.583-24.431,6.935c-5.22,1.51-6.334,1.319-11.365-2.937c8.527-2.098,16.614-4.088,24.701-6.077
		c4.028-0.991,8.018-2.205,12.097-2.902c3.045-0.521,4.32-1.794,4.135-4.936c-0.213-3.621-0.049-7.265-0.049-10.901
		c-7.884-0.955-15.109,7.323-23.226,0.352c6.948-1.871,13.246-3.73,19.631-5.21c2.838-0.658,4.032-1.975,3.585-4.773
		c-0.832-5.203-1.704-10.399-2.712-16.519c1.86,0.429,4.575,0.842,7.14,1.702c3.006,1.008,4.487,3.201,4.094,6.549
		c-0.347,2.955-0.482,5.936-0.794,9.987c3.881-1.1,7.396-1.734,10.605-3.092c4.522-1.914,9.421-0.504,12.567,5.027
		c-5.31,0.821-10.221,1.654-15.154,2.326c-7.862,1.071-7.896,1.025-8.283,8.941c-0.113,2.308-0.017,4.626-0.017,8.261
		c8.463-2.103,16.681-3.717,24.586-6.29c3.989-1.298,13.617-0.493,15.99,2.858c0.502,0.708,0.867,2.289,0.484,2.687
		c-0.811,0.842-2.121,1.537-3.288,1.648c-7.948,0.758-15.907,1.419-23.872,1.977c-13.158,0.922-13.168,0.879-12.529,13.883
		c0.047,0.96,0.313,1.908,0.496,2.97c7.22,1.369,13.697-9.851,21.23-1.244c-3.203,3.347-15.268,6.61-21.743,5.898
		c-0.325,5.784-0.792,11.554-0.841,17.328c-0.009,1.033,1.505,2.51,2.659,3.058c14.237,6.763,29.28,10.678,44.926,12.382
		c2.763,0.301,5.512,0.739,8.267,1.114C-1116.02,372.165-1115.989,372.723-1115.959,373.281z"/>
	<path class="st0" d="M-1076.963,324.077c4.14-0.656,8.011-1.27,12.507-1.983c-1.205-12.602-2.369-24.783-3.501-36.617
		c7.117-1.241,14.72-2.426,22.258-3.938c3.885-0.779,7.601-2.43,11.494-3.126c2.426-0.434,5.228-0.357,7.524,0.45
		c3.344,1.175,4.639,2.733,2.991,7.425c-2.976,8.475-3.886,17.675-5.486,25.708c4.95,1.196,9.313,1.97,13.478,3.345
		c3.259,1.076,3.348,3.3,2.382,6.745c-2.459,8.769-3.887,17.821-6.052,26.681c-0.897,3.671-2.469,7.209-4.019,10.679
		c-1.057,2.364-2.968,2.656-4.73,0.645c-3.378-3.854-6.63-7.818-9.657-11.408c-0.209,0.024,0.833-0.204,1.873-0.198
		c7.694,0.043,8.241-0.107,9.959-7.878c1.358-6.144,1.986-12.45,2.906-18.689c0.365-2.474-0.511-4.028-3.258-3.503
		c-14.279,2.728-28.546,5.522-43.346,8.395c1.704,7.465,3.326,13.689,4.447,20.002c0.354,1.994-0.635,4.227-1.009,6.35
		c-1.933-1.815-4.769-3.296-5.593-5.521c-1.296-3.5-1.018-7.547-1.811-11.277C-1074.488,332.223-1075.822,328.18-1076.963,324.077z
		 M-1058.018,320.025c5.645,0.406,7.49-1.669,6.66-6.726c-0.785-4.787-0.91-9.682-1.292-14.135
		c4.146-0.946,7.851-1.733,11.526-2.643c7.64-1.892,8.798-3.988,6.504-12.578c-8.321,1.513-16.703,3.037-25.271,4.595
		C-1059.248,299.361-1058.639,309.595-1058.018,320.025z M-1034.883,299.077c-2.95,0.762-5.063,1.138-7.039,1.88
		c-1.234,0.463-3.173,1.417-3.23,2.256c-0.316,4.661-0.151,9.354-0.151,15.539c3.706-2.052,7.812-2.94,8.552-5.023
		C-1035.207,309.384-1035.443,304.407-1034.883,299.077z"/>
	<path class="st0" d="M-1414.844,277.814c10.051,1.394,12.042,5.376,5.774,14.086c5.932-1.869,10.935-3.273,15.806-5.04
		c3.187-1.156,9.896,2.163,9.893,5.425c-0.001,0.961-1.222,2.108-2.143,2.85c-5.55,4.473-11.175,8.854-16.417,14.471
		c4.682-0.888,9.565-1.213,13.998-2.798c6.616-2.365,11.593-0.272,16.194,4.08c-3.743,9.4-7.529,18.745-11.171,28.146
		c-1.199,3.094-3.707,4.654-6.193,3.097c-5.311-3.325-10.316-0.837-15.42-0.218c-4.115,0.499-8.228,1.201-12.255,2.175
		c-4.88,1.18-7.231-0.989-8.244-5.43c-1.918-8.405-3.835-16.809-5.543-24.295c7.331-1.359,15.568-1.133,21.783-4.567
		c5.411-2.99,8.539-10.112,12.676-15.408c-0.328-0.386-0.656-0.771-0.983-1.157c-6.42,1.254-13.199,1.615-19.159,4.013
		c-5.97,2.401-11.122,6.836-16.966,9.94C-1427.058,297.429-1416.056,290.981-1414.844,277.814z M-1400.226,336.186
		c10.578-0.165,10.872-0.374,13.122-9.379c0.524-2.095,0.921-4.222,1.392-6.331c2.402-10.742,2.404-10.741-8.731-8.442
		c-5.955,1.229-6.927,3.178-4.404,9.113c0.589-0.249,1.173-0.7,1.768-0.713c2.347-0.053,4.706-0.058,7.037,0.159
		c0.356,0.033,0.906,1.924,0.841,1.958c-1.814,0.958-3.68,1.829-5.579,2.612c-0.594,0.245-1.316,0.159-1.969,0.283
		c-2.426,0.46-3.808,1.647-3.521,4.412C-1400.052,331.946-1400.226,334.073-1400.226,336.186z M-1417.118,328.56
		c11.072-5.508,11.589-6.257,8.143-13.562c-4.001,0.79-8.119,1.604-12.668,2.503c1.626,8.078,3.114,15.473,4.587,22.789
		c11.081-1.128,12.191-2.644,9.197-11.73C-1410.919,328.56-1414.019,328.56-1417.118,328.56z"/>
	<path class="st0" d="M-1346.143,357.621c14.439-2.583,27.478-4.966,40.541-7.215c3.033-0.522,4.629-1.571,4.519-5.083
		c-0.412-13.137-0.484-26.285-0.814-39.426c-0.134-5.328-1.6-6.316-6.955-5.278c-3.907,0.757-7.798,1.971-11.727,2.112
		c-2.903,0.104-5.855-1.194-8.786-1.867c0.092-0.642,0.184-1.284,0.275-1.926c10.551-1.82,21.146-3.418,31.636-5.538
		c6.768-1.368,13.425-3.359,20.047-5.353c3.194-0.962,13.351,2.251,14.609,5.364c1.507,3.728-1.598,3.726-3.834,3.856
		c-7.141,0.415-14.292,0.646-21.438,0.963c-1.465,0.065-2.927,0.195-3.872,0.259c0,16.67,0,33.008,0,50.746
		c12.002-1.671,23.588-3.023,35.062-5.02c4.074-0.709,15.337,3.025,17.014,6.868c1.157,2.651,0.182,4.265-2.739,4.3
		c-3.661,0.045-7.354,0.162-10.981-0.229c-26.783-2.882-53.083,0.013-79.057,6.572
		C-1337.546,362.964-1341.261,361.413-1346.143,357.621z"/>
	<path class="st0" d="M-1637.543,332.548c4.68,0.408,8.106,0.571,11.489,1.043c3.051,0.426,4.897-0.611,5.334-3.678
		c1.64-11.502,3.277-23.004,4.792-34.523c0.325-2.47-0.436-4.393-3.646-3.607c-7.705,1.888-15.417,3.752-23.705,5.766
		c0,26.009,0.078,51.738-0.129,77.465c-0.019,2.406-1.842,4.798-2.827,7.197c-1.149-2.354-3.097-4.643-3.296-7.075
		c-0.58-7.118-0.479-14.293-0.616-21.446c-0.318-16.634-0.427-33.276-1.08-49.896c-0.139-3.537-2.231-6.997-3.693-11.283
		c10.117,2.592,18.953-2.25,28.305-4.111c1.774-0.353,3.777-0.713,5.143-1.761c5.934-4.553,10.642-0.747,15.397,2.104
		c0.986,0.591,1.925,2.52,1.73,3.631c-2.807,16.023-5.773,32.019-8.817,47.999c-0.397,2.086-1.169,4.222-2.304,5.991
		c-0.533,0.831-2.894,1.569-3.486,1.118C-1624.95,342.902-1630.755,338.066-1637.543,332.548z"/>
	<path class="st0" d="M-867.155,360.911c1.754,0.195,3.091,0.648,4.3,0.42c3.823-0.721,7.363-1.421,6.553-7.072
		c-0.822-5.734-0.295-11.65-0.929-17.424c-0.436-3.971-1.844-7.834-2.826-11.777c7.031-0.497,9.953,1.981,9.975,8.302
		c0.026,7.599,0.006,15.198,0.006,22.842c7.577-0.902,8.1-1.41,8.023-8.02c-0.103-8.823-0.045-17.658-0.535-26.461
		c-0.19-3.418,0.647-8.909-6.376-6.572c-0.918,0.305-3.488-1.684-3.924-3.047c-2.303-7.218-4.168-14.576-6.441-22.814
		c9.63,3.092,17.509-0.712,25.768-3.554c2.629-0.905,6.457,1.488,9.653,2.61c0.485,0.17,0.919,1.775,0.686,2.493
		c-1.892,5.84-3.767,11.701-6.098,17.371c-0.51,1.24-2.744,1.963-4.327,2.513c-1.407,0.489-3.013,0.409-3.95,0.515
		c0.974,4.978,1.842,9.408,2.842,14.516c1.194-0.482,2.579-1.141,4.028-1.596c1.508-0.474,3.117-1.142,4.608-0.991
		c1.261,0.128,2.416,1.304,3.618,2.017c-1.021,0.844-2.003,2.361-3.071,2.424c-8.703,0.515-11.231,5.514-10.462,13.409
		c0.314,3.227,0.052,6.511,0.052,10.35c4.81-1.542,8.801-2.823,12.793-4.103c0.171,0.343,0.341,0.685,0.512,1.028
		c-1.12,0.824-2.174,1.76-3.37,2.453c-9.495,5.501-18.989,11.006-28.541,16.408C-860.58,370.542-864.739,368.582-867.155,360.911z
		 M-847.151,309.778c11.765-1.624,15.149-6.779,12.68-19.011c-5.224,1.335-10.426,2.664-16.234,4.148
		C-849.495,299.975-848.359,304.727-847.151,309.778z"/>
	<path class="st0" d="M-969.707,308.648c5.681-1.687,11.469-3.085,17.01-5.148c4.834-1.8,8.328,0.611,11.95,2.83
		c0.657,0.403,0.892,1.985,0.831,2.993c-0.724,11.948-1.436,23.899-2.383,35.83c-0.406,5.114-1.712,10.038-5.226,14.058
		c-4.864-2.307-4.265-11.291-11.8-9.043c-4.494,1.341-11.301-0.995-12.145,6.831c-5.221,0.078-7.573-3.52-7.229-9.816
		c0.491-8.966,0.692-17.953,0.723-26.932c0.006-1.625-1.401-3.256-2.365-5.337c3.993-7.978,8.547-16.638,12.621-25.518
		c1.052-2.292,0.424-5.308,0.922-7.924c0.198-1.042,1.834-2.801,2.008-2.709c2.982,1.579,6.362,2.946,8.466,5.385
		c0.848,0.983-0.662,4.76-1.957,6.689c-3.857,5.746-8.14,11.206-12.256,16.778C-970.26,307.96-969.983,308.304-969.707,308.648z
		 M-974.296,312.527c1.016,4.819,2.129,10.099,3.382,16.039c3.435-1.373,6.711-2.822,10.088-3.976
		c1.785-0.61,3.766-1.028,5.618-0.908c0.998,0.065,1.91,1.447,2.861,2.234c-0.899,0.795-1.676,2.005-2.719,2.312
		c-4.285,1.263-8.699,2.102-12.96,3.432c-1.277,0.399-3.073,1.823-3.156,2.892c-0.353,4.522-0.149,9.087-0.149,13.835
		c7.108-1.597,13.249-2.978,19.391-4.358c0.531,0.918,0.941,0.682,0.952,0.429c0.481-11.235,0.98-22.471,1.253-33.712
		c0.017-0.713-1.869-2.215-2.674-2.09C-959.922,309.826-967.392,311.269-974.296,312.527z"/>
	<path class="st0" d="M-1505.061,278.588c-3.305,4.872-6.313,9.047-9.011,13.414c-1.064,1.721-1.023,4.198-2.24,5.731
		c-1.202,1.515-3.232,2.864-5.116,3.266c-8.899,1.9-17.849,3.595-26.831,5.053c-3.391,0.551-4.591,2.246-5.376,5.4
		c-4.965,19.946-11.511,39.241-24.374,55.749c-1.43,1.835-2.911,3.63-4.401,5.417c-0.179,0.215-0.566,0.257-1.783,0.768
		c0.609-1.668,0.853-2.783,1.388-3.733c12.509-22.232,19.276-46.194,21.549-71.501c0.207-2.303,0.179-4.677-0.145-6.961
		c-0.292-2.065-1.138-4.052-1.455-5.119c14.671-4.414,28.875-8.814,43.162-12.924
		C-1513.873,271.473-1509.827,275.359-1505.061,278.588z M-1520.901,278.973c-10.356,2.803-20.654,5.59-30.408,8.23
		c0,5.381,0,9.942,0,14.703c1.338-0.173,2.171-0.199,2.961-0.396c5.794-1.443,11.596-2.859,17.364-4.402
		C-1522.877,294.938-1519.14,288.511-1520.901,278.973z"/>
	<path class="st0" d="M-828.506,343.842c8.626-9.548,17.252-19.096,25.709-28.458c-0.853-1.411-1.024-1.907-1.363-2.222
		c-7.305-6.774-7.299-6.76-14.512,0.081c-1.151,1.092-2.423,2.055-4.58,2.421c0.727-1.542,1.459-3.081,2.18-4.625
		c3.582-7.671,7.381-15.251,10.625-23.062c1.185-2.853,1.047-6.256,1.647-10.321c3.33-1.369,7.549,0.377,8.874,3.921
		c1.058,2.829-1.118,6.867-2.018,11.123c3.964-1.527,7.624-2.872,11.231-4.346c3.622-1.48,9.029-0.173,10.883,3.181
		c0.531,0.96-0.047,3.009-0.783,4.114c-4.407,6.615-9.009,13.1-13.744,19.916c12.147,9.829,24.814,18.444,39.578,23.702
		c-0.025,0.577-0.05,1.154-0.075,1.732c-6.383,0.785-12.753,1.745-19.16,2.201c-1.206,0.086-2.721-1.681-3.809-2.857
		c-6.436-6.948-12.789-13.974-19.597-21.442C-806.804,328.747-816.203,338.046-828.506,343.842z M-791.499,295.57
		c-0.379-0.354-0.758-0.707-1.137-1.061c-5.631,2.928-13.905,0.566-17.059,9.345c2.934,2.198,5.791,4.339,9.254,6.932
		C-797.317,305.47-794.408,300.52-791.499,295.57z"/>
	<path class="st0" d="M-938.32,325.47c0.655-1.424,1.366-2.825,1.957-4.276c4.132-10.153,8.346-20.275,12.302-30.496
		c1.643-4.246,3.619-8.703-0.523-13.207c5.069-1.952,8.682-0.27,11.855,2.578c3.085,2.769,0.706,5.547-0.515,8.135
		c-2.831,5.998-5.82,11.922-9.076,18.549c2.048,0,3.786,0.321,5.357-0.055c6.939-1.663,13.816-3.58,20.74-5.305
		c7.287-1.816,12.549,2.971,11.342,10.219c-2.812,16.89-5.354,33.831-8.571,50.643c-1.153,6.028-2.83,12.391-6.742,14.729
		c-5.934-5.168-11.163-9.722-16.393-14.277c1.931,0.308,4.361,0.331,6.517,1.112c4.989,1.807,7.254-0.513,8.225-4.957
		c2.307-10.554,4.619-21.109,6.723-31.705c0.906-4.562,1.387-9.216,1.905-13.846c0.616-5.497-0.977-6.958-6.37-6.075
		c-8.163,1.337-16.344,2.579-24.464,4.136c-1.34,0.257-2.588,1.769-3.572,2.956c-3.241,3.909-6.341,7.935-9.495,11.916
		C-937.52,325.986-937.92,325.728-938.32,325.47z"/>
	<path class="st0" d="M-1548.106,314.804c7.207,0.176,10.529,3.793,9.926,10.952c-0.39,4.624-0.693,9.255-1.045,14.016
		c6.149-2.385,17.091-16.484,20.447-26.253c4.094,0.645,6.556,3.656,7.177,7.057c0.382,2.094-1.358,5.41-3.184,6.924
		c-6.776,5.617-13.898,10.835-21.077,15.939c-2.386,1.696-3.857,3.296-3.551,6.406c0.276,2.804,0.044,5.657,0.061,8.489
		c0.04,6.721,1.871,9.534,8.459,9.866c9.257,0.466,18.566-0.074,27.852-0.229c1.152-0.019,2.297-0.337,3.45-0.484
		c7.404-0.946,9.365-2.851,10.556-10.224c0.397-2.459,0.843-4.911,2.193-7.656c0.507,1.727,0.906,3.497,1.544,5.174
		c1.522,3.998,2.821,8.135,4.843,11.874c2.01,3.715,1.105,5.903-2.661,6.614c-6.018,1.137-12.127,2.455-18.203,2.48
		c-10.591,0.043-21.285-0.119-31.75-1.549c-9.462-1.293-12.412-5.641-12.889-15.467c-0.459-9.473-0.516-18.964-0.92-28.44
		C-1547.096,325.214-1547.671,320.151-1548.106,314.804z"/>
	<path class="st0" d="M-1691.229,343.345c9.883-3.534,19.135-6.843,28.387-10.152c0.2,0.38,0.4,0.761,0.6,1.141
		c-10.51,7.988-21.02,15.975-32.1,24.396c-2.798-5.059-5.932-8.792-5.11-15.434c1.442-11.651,1.203-23.547,1.063-35.333
		c-0.038-3.175-2.257-6.324-3.562-9.712c11.619,0.058,29.959-16.153,27.571-24.323c4.622-0.281,8.539,0.769,11.152,4.65
		c1.86,2.762,2.209,5.317-1.588,7.302c-9.241,4.832-18.329,9.955-26.673,14.52c0.561,5.662,1.083,10.934,1.727,17.429
		c5.457-2.117,10.878-3.886,15.991-6.308c4.151-1.967,7.963-1.381,11.193,1.036c3.275,2.45,0.358,3.559-1.806,4.046
		c-7.272,1.637-14.537,3.385-21.893,4.528c-3.665,0.569-5.281,1.64-5.031,5.583
		C-1690.983,331.825-1691.229,336.972-1691.229,343.345z"/>
	<path class="st0" d="M-1104.595,360.082c2.904-0.843,4.964-1.456,7.033-2.039c6.396-1.802,10.433-9.797,6.669-15.445
		c-3.049-4.576-2.739-8.438-1.272-12.953c0.29-0.894,0.249-1.896,0.385-3.062c-4.662-0.389-8.454,5.007-13.628,1.153
		c5.645-3.44,10.769-7.062,16.371-9.65c1.543-0.713,4.791,1.313,6.679,2.811c0.666,0.528,0.076,3.519-0.76,4.883
		c-1.985,3.236-4.46,6.171-7.195,9.842c10.861,5.138,6.216,12.37,1.856,19.737c23.268-2.602,44.1,5.744,65.69,8.605
		c7.706,1.021,15.564,0.91,23.353,1.294c1.241,0.061,2.488,0.009,3.858,0.502c-6.9,4.663-14.08,8.574-22.305,9.995
		c-1.614,0.279-3.49-0.736-5.202-1.288c-14.833-4.781-29.599-9.777-44.502-14.329c-9.742-2.976-19.427-1.663-28.684,2.295
		C-1099.543,363.841-1101.83,363.258-1104.595,360.082z"/>
	<path class="st0" d="M-781.082,365.876c-6.939,0.476-13.357,0.89-19.769,1.382c-1.127,0.086-2.397,0.233-3.314,0.809
		c-4.537,2.846-6.343,2.238-7.901-3.024c-1.971-6.653-3.856-13.332-5.685-19.678c6.874-0.906,14.252-1.849,21.619-2.87
		c1.799-0.249,3.784-0.359,5.303-1.211c6.409-3.595,10.022,0.966,14.013,3.943C-777.956,352.41-784.906,357.689-781.082,365.876z
		 M-805.91,364.421c5.198-1.084,9.729-1.905,14.174-3.053c0.989-0.255,2.188-1.55,2.414-2.562c0.717-3.218,1.224-6.52,1.361-9.808
		c0.043-1.02-1.477-3.077-2.071-3.002c-6.28,0.798-12.517,1.931-19.07,3.022C-807.96,354.53-806.997,359.175-805.91,364.421z"/>
	<path class="st0" d="M-1461.896,358.755c2.147-1.685,4.885-2.973,6.336-5.127c5.101-7.575,9.754-15.451,14.59-23.204
		c0.926-1.484,1.911-2.932,2.869-4.397c0.41,0.178,0.82,0.356,1.23,0.534c-1.624,5.666-3.04,11.402-4.923,16.98
		c-2.602,7.705-5.629,15.266-8.324,22.941c-1.062,3.025-2.956,3.798-5.187,1.805c-3.07-2.743-5.695-5.983-8.511-9.01
		C-1463.176,359.103-1462.536,358.929-1461.896,358.755z"/>
	<path class="st0" d="M-1063.307,332.811c7.783-2.024,15.322-3.737,22.695-5.992c4.623-1.414,7.143,1.064,9.607,3.476
		c-2.122,4.188-4.097,8.087-6.069,11.979c-5.346,1.109-11.229,2.574-17.201,3.378c-1.33,0.179-3.496-1.654-4.367-3.106
		C-1060.586,339.302-1061.957,335.713-1063.307,332.811z M-1042.074,330.962c-4.653,0.997-8.854,1.897-13.505,2.893
		c1.08,2.998,1.887,5.237,2.664,7.392C-1041.045,339.073-1042.15,339.505-1042.074,330.962z"/>
	<path class="st0" d="M-1380.433,350.117c5.075,4.099,12.564,4.938,15.313,12.174c0.293,0.771,0.873,1.628,0.736,2.331
		c-0.415,2.126-1.118,4.195-1.709,6.287c-1.837-0.856-4.386-1.219-5.384-2.657c-3.745-5.399-6.983-11.149-10.411-16.768
		C-1381.403,351.028-1380.918,350.573-1380.433,350.117z"/>
	<path class="st0" d="M-1426.322,352.296c-0.915,5.978-1.488,12.042-2.961,17.879c-0.427,1.69-3.436,2.728-5.262,4.066
		c-0.866-1.771-2.176-3.464-2.508-5.331c-0.705-3.963,0.457-7.41,3.581-10.297c2.157-1.994,3.804-4.54,5.679-6.839
		C-1427.302,351.948-1426.812,352.122-1426.322,352.296z"/>
	<path class="st0" d="M-911.876,341.857c-6.539,0.088-13.375-6.241-14.862-13.758C-914.233,329.716-910.133,333.511-911.876,341.857
		z"/>
	<path class="st0" d="M-1460.828,308.13c13.256,0.088,16.999,2.479,16.387,10.471
		C-1450.531,320.108-1459.376,314.457-1460.828,308.13z"/>
	<path class="st0" d="M-1399.326,351.675c4.391,3.112,10.884,3.952,11.787,10.83c0.23,1.755-0.645,3.656-1.013,5.489
		c-1.849-0.741-4.513-0.955-5.394-2.32c-2.641-4.09-4.585-8.63-6.801-12.995C-1400.273,352.345-1399.799,352.01-1399.326,351.675z"
		/>
	<path class="st0" d="M-1081.441,299.11c-7.32,0.618-11.693-4.186-17.103-8.504C-1087.893,287.349-1080.242,291.301-1081.441,299.11
		z"/>
	<path class="st0" d="M-1436.637,292.024c-6.57,0.753-11.751-2.367-15.181-8.881C-1441.683,281.212-1436.08,283.15-1436.637,292.024
		z"/>
	<path class="st0" d="M-1418.262,353.607c8.5,2.653,11.387,5.949,10.805,11.719c-0.141,1.399-1.173,3.598-2.136,3.8
		c-1.202,0.251-3.546-0.846-4.019-1.951C-1415.381,363.041-1416.588,358.665-1418.262,353.607z"/>
</g>
<g>
	<path class="st0" d="M0.992,0.957c0.683-0.137,2.067-0.24,3.364-0.24c1.588,0,2.562,0.154,3.399,0.65
		c0.803,0.427,1.384,1.212,1.384,2.254c0,1.025-0.598,1.982-1.896,2.46v0.034C8.558,6.473,9.531,7.464,9.531,8.95
		c0,1.041-0.478,1.861-1.195,2.442C7.5,12.058,6.098,12.434,3.81,12.434c-1.281,0-2.238-0.085-2.818-0.17
		C0.992,12.264,0.992,0.957,0.992,0.957z M3.571,5.363h0.854c1.366,0,2.101-0.564,2.101-1.418c0-0.871-0.666-1.332-1.845-1.332
		c-0.564,0-0.888,0.034-1.111,0.068v2.682H3.571z M3.571,10.47c0.256,0.034,0.564,0.034,1.008,0.034c1.178,0,2.22-0.444,2.22-1.657
		c0-1.162-1.042-1.622-2.34-1.622H3.571V10.47z"/>
	<path class="st0" d="M13.325,8.967c0.085,1.076,1.144,1.588,2.356,1.588c0.888,0,1.606-0.119,2.306-0.342l0.342,1.759
		c-0.853,0.342-1.896,0.513-3.023,0.513c-2.835,0-4.457-1.64-4.457-4.253c0-2.118,1.315-4.458,4.219-4.458
		c2.698,0,3.723,2.101,3.723,4.168c0,0.444-0.052,0.837-0.086,1.025H13.325z M16.382,7.191c0-0.632-0.273-1.691-1.469-1.691
		c-1.093,0-1.537,0.99-1.606,1.691H16.382z"/>
	<path class="st0" d="M20.636,12.314V5.875h-1.093V3.962h1.093V3.638c0-1.008,0.307-2.118,1.059-2.801
		C22.344,0.222,23.249,0,24.001,0c0.58,0,1.025,0.068,1.383,0.171l-0.102,1.998C25.06,2.101,24.786,2.05,24.444,2.05
		c-0.853,0-1.212,0.665-1.212,1.486v0.427h1.674v1.913h-1.657v6.439h-2.613V12.314z"/>
	<path class="st0" d="M34.248,8.045c0,3.057-2.169,4.457-4.406,4.457c-2.442,0-4.321-1.606-4.321-4.304
		c0-2.699,1.776-4.424,4.457-4.424C32.54,3.774,34.248,5.534,34.248,8.045z M28.202,8.13c0,1.435,0.598,2.511,1.708,2.511
		c1.008,0,1.657-1.008,1.657-2.511c0-1.247-0.478-2.511-1.657-2.511C28.663,5.619,28.202,6.9,28.202,8.13z"/>
	<path class="st0" d="M35.855,6.712c0-1.229-0.034-2.032-0.068-2.75h2.237L38.109,5.5h0.068c0.428-1.212,1.452-1.725,2.255-1.725
		c0.239,0,0.359,0,0.547,0.034v2.442c-0.188-0.034-0.41-0.068-0.701-0.068c-0.956,0-1.606,0.513-1.776,1.315
		c-0.034,0.171-0.051,0.376-0.051,0.581v4.235h-2.596C35.855,12.314,35.855,6.712,35.855,6.712z"/>
	<path class="st0" d="M44.208,8.967c0.085,1.076,1.144,1.588,2.356,1.588c0.889,0,1.606-0.119,2.306-0.342l0.342,1.759
		c-0.853,0.342-1.896,0.513-3.023,0.513c-2.835,0-4.457-1.64-4.457-4.253c0-2.118,1.315-4.458,4.219-4.458
		c2.698,0,3.723,2.101,3.723,4.168c0,0.444-0.052,0.837-0.086,1.025H44.208z M47.265,7.191c0-0.632-0.273-1.691-1.469-1.691
		c-1.093,0-1.537,0.99-1.606,1.691H47.265z"/>
	<path class="st0" d="M54.765,0.957c0.956-0.154,2.203-0.24,3.518-0.24c2.186,0,3.604,0.393,4.714,1.23
		c1.196,0.888,1.947,2.306,1.947,4.338c0,2.203-0.802,3.723-1.913,4.663c-1.212,1.007-3.057,1.486-5.312,1.486
		c-1.349,0-2.306-0.085-2.954-0.17C54.765,12.264,54.765,0.957,54.765,0.957z M57.378,10.35c0.222,0.051,0.581,0.051,0.905,0.051
		c2.357,0.018,3.895-1.281,3.895-4.031c0.017-2.391-1.384-3.655-3.621-3.655c-0.581,0-0.957,0.052-1.179,0.103V10.35z"/>
	<path class="st0" d="M68.566,8.967c0.085,1.076,1.144,1.588,2.356,1.588c0.889,0,1.606-0.119,2.306-0.342l0.342,1.759
		c-0.853,0.342-1.896,0.513-3.023,0.513c-2.835,0-4.457-1.64-4.457-4.253c0-2.118,1.315-4.458,4.219-4.458
		c2.698,0,3.723,2.101,3.723,4.168c0,0.444-0.052,0.837-0.086,1.025H68.566z M71.623,7.191c0-0.632-0.273-1.691-1.469-1.691
		c-1.093,0-1.537,0.99-1.606,1.691H71.623z"/>
	<path class="st0" d="M75.587,6.764c0-1.093-0.034-2.032-0.068-2.802h2.255l0.119,1.162h0.034c0.615-0.888,1.571-1.349,2.784-1.349
		c1.827,0,3.467,1.589,3.467,4.253c0,3.04-1.931,4.475-3.792,4.475c-1.008,0-1.794-0.41-2.169-0.956h-0.033v4.15h-2.596
		L75.587,6.764L75.587,6.764z M78.183,8.728c0,0.205,0.017,0.392,0.051,0.546c0.17,0.701,0.768,1.23,1.52,1.23
		c1.127,0,1.794-0.939,1.794-2.357c0-1.332-0.598-2.34-1.759-2.34c-0.734,0-1.384,0.547-1.554,1.315
		c-0.034,0.137-0.051,0.307-0.051,0.461L78.183,8.728L78.183,8.728z"/>
	<path class="st0" d="M90.55,12.314l-0.154-0.837h-0.052c-0.546,0.665-1.4,1.025-2.391,1.025c-1.691,0-2.699-1.23-2.699-2.562
		c0-2.169,1.947-3.211,4.902-3.194V6.627c0-0.444-0.239-1.076-1.52-1.076c-0.854,0-1.759,0.29-2.306,0.631l-0.478-1.673
		c0.58-0.325,1.725-0.735,3.245-0.735c2.784,0,3.673,1.64,3.673,3.604v2.903c0,0.802,0.033,1.572,0.119,2.032H90.55V12.314z
		 M90.242,8.369c-1.366-0.017-2.425,0.307-2.425,1.315c0,0.666,0.444,0.99,1.025,0.99c0.65,0,1.179-0.427,1.349-0.956
		c0.034-0.136,0.051-0.291,0.051-0.444V8.369z"/>
	<path class="st0" d="M94.822,6.712c0-1.229-0.034-2.032-0.068-2.75h2.237L97.076,5.5h0.068c0.428-1.212,1.452-1.725,2.255-1.725
		c0.239,0,0.359,0,0.547,0.034v2.442c-0.188-0.034-0.41-0.068-0.701-0.068c-0.956,0-1.606,0.513-1.776,1.315
		c-0.034,0.171-0.051,0.376-0.051,0.581v4.235h-2.596C94.822,12.314,94.822,6.712,94.822,6.712z"/>
	<path class="st0" d="M104.574,1.572v2.391h1.861v1.913h-1.861v3.023c0,1.008,0.239,1.469,1.025,1.469
		c0.324,0,0.58-0.034,0.768-0.068l0.018,1.964c-0.342,0.136-0.957,0.222-1.691,0.222c-0.837,0-1.537-0.291-1.947-0.717
		c-0.478-0.496-0.717-1.299-0.717-2.477V5.875h-1.11V3.962h1.11v-1.81L104.574,1.572z"/>
	<path class="st0" d="M115.813,9.633c0,1.093,0.033,1.981,0.068,2.681h-2.254l-0.12-1.178h-0.051
		c-0.325,0.512-1.11,1.366-2.613,1.366c-1.691,0-2.938-1.059-2.938-3.638V3.962h2.613v4.493c0,1.212,0.392,1.946,1.298,1.946
		c0.718,0,1.127-0.495,1.299-0.905c0.068-0.154,0.085-0.358,0.085-0.564v-4.97h2.614L115.813,9.633L115.813,9.633z"/>
	<path class="st0" d="M117.898,6.712c0-1.229-0.034-2.032-0.068-2.75h2.237l0.085,1.537h0.068c0.428-1.212,1.452-1.725,2.255-1.725
		c0.239,0,0.359,0,0.547,0.034V6.25c-0.188-0.034-0.41-0.068-0.701-0.068c-0.956,0-1.606,0.513-1.776,1.315
		c-0.034,0.171-0.051,0.376-0.051,0.581v4.235h-2.596C117.898,12.313,117.898,6.712,117.898,6.712z"/>
	<path class="st0" d="M126.251,8.967c0.085,1.076,1.144,1.588,2.356,1.588c0.889,0,1.606-0.119,2.306-0.342l0.342,1.759
		c-0.853,0.342-1.896,0.513-3.023,0.513c-2.835,0-4.457-1.64-4.457-4.253c0-2.118,1.315-4.458,4.219-4.458
		c2.698,0,3.723,2.101,3.723,4.168c0,0.444-0.052,0.837-0.086,1.025H126.251z M129.308,7.191c0-0.632-0.273-1.691-1.469-1.691
		c-1.093,0-1.537,0.99-1.606,1.691H129.308z"/>
	<path class="st0" d="M1.626,19.995H0v-1.15h4.654v1.15H3.001v4.906H1.626V19.995z"/>
	<path class="st0" d="M7.243,24.901l-0.081-0.44H7.136C6.848,24.811,6.399,25,5.878,25c-0.889,0-1.42-0.647-1.42-1.349
		c0-1.14,1.025-1.689,2.579-1.68v-0.063c0-0.234-0.126-0.566-0.8-0.566c-0.45,0-0.925,0.153-1.212,0.333l-0.252-0.881
		c0.306-0.171,0.908-0.386,1.708-0.386c1.464,0,1.932,0.862,1.932,1.896v1.528c0,0.422,0.018,0.827,0.063,1.069
		C8.476,24.901,7.243,24.901,7.243,24.901z M7.082,22.825c-0.719-0.009-1.276,0.162-1.276,0.692c0,0.35,0.234,0.522,0.539,0.522
		c0.342,0,0.62-0.225,0.71-0.504c0.018-0.072,0.026-0.153,0.026-0.234L7.082,22.825L7.082,22.825z"/>
	<path class="st0" d="M10.903,19.285c0,0.377-0.287,0.682-0.737,0.682c-0.431,0-0.719-0.306-0.71-0.682
		c-0.009-0.396,0.279-0.693,0.719-0.693C10.616,18.593,10.895,18.889,10.903,19.285z M9.493,24.901v-4.394h1.366v4.394
		C10.859,24.901,9.493,24.901,9.493,24.901z"/>
	<path class="st0" d="M12.9,20.507l0.35,1.797c0.09,0.458,0.18,0.944,0.252,1.447h0.018c0.09-0.503,0.216-1.006,0.324-1.438
		l0.467-1.806h1.078l0.44,1.752c0.117,0.494,0.234,0.989,0.324,1.492h0.018c0.063-0.503,0.153-0.997,0.252-1.5l0.378-1.744h1.339
		l-1.349,4.394h-1.284l-0.414-1.545c-0.108-0.432-0.189-0.827-0.278-1.366h-0.018c-0.081,0.548-0.17,0.953-0.287,1.366l-0.441,1.545
		h-1.284l-1.276-4.394C11.509,20.507,12.9,20.507,12.9,20.507z"/>
	<path class="st0" d="M21.215,24.901l-0.081-0.44h-0.026C20.82,24.811,20.371,25,19.85,25c-0.889,0-1.42-0.647-1.42-1.349
		c0-1.14,1.025-1.689,2.579-1.68v-0.063c0-0.234-0.126-0.566-0.8-0.566c-0.45,0-0.925,0.153-1.212,0.333l-0.252-0.881
		c0.306-0.171,0.908-0.386,1.708-0.386c1.464,0,1.932,0.862,1.932,1.896v1.528c0,0.422,0.018,0.827,0.063,1.069
		C22.448,24.901,21.215,24.901,21.215,24.901z M21.054,22.825c-0.719-0.009-1.276,0.162-1.276,0.692c0,0.35,0.234,0.522,0.539,0.522
		c0.342,0,0.62-0.225,0.71-0.504c0.018-0.072,0.026-0.153,0.026-0.234v-0.476H21.054z"/>
	<path class="st0" d="M23.464,21.909c0-0.548-0.018-1.016-0.036-1.402h1.186l0.063,0.602h0.027c0.179-0.278,0.629-0.701,1.356-0.701
		c0.898,0,1.572,0.593,1.572,1.887v2.606h-1.366v-2.435c0-0.565-0.198-0.952-0.692-0.952c-0.377,0-0.601,0.26-0.692,0.512
		c-0.036,0.081-0.054,0.216-0.054,0.342v2.534h-1.366v-2.993H23.464z"/>
	<path class="st0" d="M29.785,23.14c0.045,0.566,0.601,0.836,1.24,0.836c0.467,0,0.845-0.063,1.213-0.18l0.179,0.925
		c-0.449,0.18-0.997,0.27-1.59,0.27c-1.492,0-2.345-0.862-2.345-2.237c0-1.114,0.692-2.345,2.219-2.345
		c1.42,0,1.959,1.105,1.959,2.192c0,0.234-0.027,0.44-0.045,0.539H29.785z M31.393,22.205c0-0.333-0.144-0.89-0.773-0.89
		c-0.575,0-0.809,0.522-0.845,0.89H31.393z"/>
	<path class="st0" d="M33.471,23.706c0.252,0.153,0.773,0.333,1.177,0.333c0.414,0,0.584-0.144,0.584-0.369
		s-0.135-0.333-0.647-0.503c-0.908-0.306-1.258-0.8-1.248-1.321c0-0.817,0.701-1.437,1.788-1.437c0.513,0,0.97,0.117,1.241,0.251
		l-0.243,0.944c-0.198-0.108-0.575-0.252-0.953-0.252c-0.332,0-0.521,0.135-0.521,0.36c0,0.206,0.17,0.314,0.709,0.503
		c0.836,0.287,1.186,0.709,1.195,1.356c0,0.818-0.646,1.42-1.904,1.42c-0.575,0-1.088-0.126-1.42-0.306L33.471,23.706z"/>
	<path class="st0" d="M38.434,23.14c0.045,0.566,0.601,0.836,1.24,0.836c0.467,0,0.845-0.063,1.213-0.18l0.179,0.925
		c-0.449,0.18-0.997,0.27-1.59,0.27c-1.492,0-2.345-0.862-2.345-2.237c0-1.114,0.692-2.345,2.219-2.345
		c1.42,0,1.959,1.105,1.959,2.192c0,0.234-0.027,0.44-0.045,0.539H38.434z M40.042,22.205c0-0.333-0.144-0.89-0.773-0.89
		c-0.575,0-0.809,0.522-0.845,0.89H40.042z"/>
	<path class="st0" d="M43.989,18.925c0.504-0.081,1.16-0.126,1.852-0.126c1.15,0,1.896,0.206,2.479,0.647
		c0.629,0.467,1.025,1.212,1.025,2.282c0,1.16-0.422,1.959-1.006,2.453c-0.638,0.53-1.608,0.782-2.795,0.782
		c-0.71,0-1.213-0.046-1.555-0.09V18.925z M45.364,23.867c0.117,0.027,0.306,0.027,0.477,0.027c1.24,0.009,2.048-0.674,2.048-2.121
		c0.009-1.257-0.728-1.923-1.905-1.923c-0.305,0-0.503,0.027-0.62,0.054C45.364,19.904,45.364,23.867,45.364,23.867z"/>
	<path class="st0" d="M50.238,21.953c0-0.647-0.018-1.069-0.036-1.447h1.177l0.045,0.809h0.036c0.225-0.637,0.764-0.907,1.186-0.907
		c0.126,0,0.189,0,0.288,0.018v1.285c-0.099-0.018-0.216-0.036-0.369-0.036c-0.503,0-0.845,0.27-0.934,0.692
		c-0.018,0.09-0.027,0.198-0.027,0.306v2.228h-1.366C50.238,24.901,50.238,21.953,50.238,21.953z"/>
	<path class="st0" d="M54.634,23.14c0.045,0.566,0.601,0.836,1.24,0.836c0.467,0,0.845-0.063,1.213-0.18l0.179,0.925
		c-0.449,0.18-0.997,0.27-1.59,0.27c-1.492,0-2.345-0.862-2.345-2.237c0-1.114,0.692-2.345,2.219-2.345
		c1.42,0,1.959,1.105,1.959,2.192c0,0.234-0.027,0.44-0.045,0.539H54.634z M56.242,22.205c0-0.333-0.144-0.89-0.773-0.89
		c-0.575,0-0.809,0.522-0.845,0.89H56.242z"/>
	<path class="st0" d="M60.827,24.901l-0.081-0.44H60.72C60.432,24.811,59.982,25,59.462,25c-0.889,0-1.42-0.647-1.42-1.349
		c0-1.14,1.025-1.689,2.579-1.68v-0.063c0-0.234-0.126-0.566-0.8-0.566c-0.45,0-0.925,0.153-1.212,0.333l-0.252-0.881
		c0.306-0.171,0.908-0.386,1.708-0.386c1.464,0,1.932,0.862,1.932,1.896v1.528c0,0.422,0.018,0.827,0.063,1.069
		C62.06,24.901,60.827,24.901,60.827,24.901z M60.665,22.825c-0.719-0.009-1.276,0.162-1.276,0.692c0,0.35,0.234,0.522,0.539,0.522
		c0.342,0,0.62-0.225,0.71-0.504c0.018-0.072,0.026-0.153,0.026-0.234L60.665,22.825L60.665,22.825z"/>
	<path class="st0" d="M63.076,21.909c0-0.548-0.018-1.016-0.036-1.402h1.15l0.063,0.594h0.027c0.189-0.278,0.575-0.692,1.329-0.692
		c0.566,0,1.016,0.287,1.205,0.745h0.018c0.162-0.225,0.36-0.404,0.566-0.53c0.242-0.143,0.512-0.215,0.836-0.215
		c0.845,0,1.483,0.593,1.483,1.904v2.588h-1.33v-2.39c0-0.638-0.207-1.007-0.647-1.007c-0.314,0-0.539,0.216-0.629,0.477
		c-0.036,0.098-0.054,0.242-0.054,0.35v2.57h-1.33v-2.462c0-0.558-0.198-0.935-0.629-0.935c-0.35,0-0.558,0.27-0.638,0.494
		c-0.045,0.108-0.054,0.234-0.054,0.342v2.561h-1.33C63.076,24.901,63.076,21.909,63.076,21.909z"/>
	<path class="st0" d="M76.964,22.654c0,1.608-1.141,2.346-2.319,2.346c-1.284,0-2.273-0.845-2.273-2.264
		c0-1.421,0.934-2.327,2.345-2.327C76.065,20.408,76.964,21.334,76.964,22.654z M73.783,22.7c0,0.754,0.314,1.32,0.898,1.32
		c0.53,0,0.872-0.53,0.872-1.32c0-0.657-0.252-1.321-0.872-1.321C74.025,21.378,73.783,22.053,73.783,22.7z"/>
	<path class="st0" d="M77.963,24.901v-3.387h-0.575v-1.007h0.575v-0.17c0-0.53,0.162-1.114,0.558-1.474
		c0.342-0.323,0.817-0.44,1.212-0.44c0.306,0,0.54,0.036,0.728,0.09l-0.054,1.052c-0.117-0.036-0.261-0.063-0.44-0.063
		c-0.45,0-0.638,0.35-0.638,0.782v0.224h0.881v1.007h-0.872v3.387h-1.375V24.901z"/>
	<path class="st0" d="M84.112,18.845v6.056h-1.375v-6.056H84.112z"/>
	<path class="st0" d="M85.28,21.909c0-0.548-0.018-1.016-0.036-1.402h1.186l0.063,0.602h0.027c0.179-0.278,0.629-0.701,1.356-0.701
		c0.898,0,1.572,0.593,1.572,1.887v2.606h-1.366v-2.435c0-0.565-0.198-0.952-0.692-0.952c-0.377,0-0.601,0.26-0.692,0.512
		c-0.036,0.081-0.054,0.216-0.054,0.342v2.534H85.28V21.909z"/>
	<path class="st0" d="M94.808,18.522v5.068c0,0.494,0.018,1.015,0.036,1.312h-1.212l-0.063-0.647H93.55
		C93.271,24.748,92.741,25,92.176,25c-1.042,0-1.878-0.89-1.878-2.255c-0.01-1.483,0.917-2.336,1.968-2.336
		c0.539,0,0.961,0.189,1.159,0.494h0.018v-2.381C93.443,18.522,94.808,18.522,94.808,18.522z M93.442,22.367
		c0-0.072-0.009-0.171-0.018-0.242c-0.081-0.369-0.378-0.674-0.8-0.674c-0.62,0-0.943,0.558-0.943,1.249
		c0,0.745,0.368,1.212,0.934,1.212c0.396,0,0.71-0.27,0.791-0.656c0.027-0.098,0.036-0.198,0.036-0.314V22.367z"/>
	<path class="st0" d="M100.248,22.654c0,1.608-1.141,2.346-2.319,2.346c-1.284,0-2.273-0.845-2.273-2.264
		c0-1.421,0.934-2.327,2.345-2.327C99.349,20.408,100.248,21.334,100.248,22.654z M97.067,22.7c0,0.754,0.314,1.32,0.898,1.32
		c0.53,0,0.872-0.53,0.872-1.32c0-0.657-0.252-1.321-0.872-1.321C97.309,21.378,97.067,22.053,97.067,22.7z"/>
	<path class="st0" d="M101.094,21.909c0-0.548-0.018-1.016-0.036-1.402h1.186l0.063,0.602h0.027
		c0.179-0.278,0.629-0.701,1.356-0.701c0.898,0,1.572,0.593,1.572,1.887v2.606h-1.366v-2.435c0-0.565-0.198-0.952-0.692-0.952
		c-0.377,0-0.601,0.26-0.692,0.512c-0.036,0.081-0.054,0.216-0.054,0.342v2.534h-1.366v-2.993H101.094z"/>
	<path class="st0" d="M107.414,23.14c0.045,0.566,0.601,0.836,1.24,0.836c0.467,0,0.845-0.063,1.213-0.18l0.179,0.925
		c-0.449,0.18-0.997,0.27-1.59,0.27c-1.492,0-2.345-0.862-2.345-2.237c0-1.114,0.692-2.345,2.219-2.345
		c1.42,0,1.959,1.105,1.959,2.192c0,0.234-0.027,0.44-0.045,0.539H107.414z M109.023,22.205c0-0.333-0.144-0.89-0.773-0.89
		c-0.575,0-0.809,0.522-0.845,0.89H109.023z"/>
	<path class="st0" d="M111.101,23.706c0.252,0.153,0.773,0.333,1.177,0.333c0.414,0,0.584-0.144,0.584-0.369
		s-0.135-0.333-0.647-0.503c-0.908-0.306-1.258-0.8-1.248-1.321c0-0.817,0.701-1.437,1.788-1.437c0.513,0,0.97,0.117,1.241,0.251
		l-0.243,0.944c-0.198-0.108-0.575-0.252-0.953-0.252c-0.332,0-0.521,0.135-0.521,0.36c0,0.206,0.17,0.314,0.709,0.503
		c0.836,0.287,1.186,0.709,1.195,1.356c0,0.818-0.646,1.42-1.904,1.42c-0.575,0-1.088-0.126-1.42-0.306L111.101,23.706z"/>
	<path class="st0" d="M116.422,19.285c0,0.377-0.287,0.682-0.737,0.682c-0.431,0-0.719-0.306-0.71-0.682
		c-0.009-0.396,0.279-0.693,0.719-0.693C116.135,18.593,116.414,18.889,116.422,19.285z M115.011,24.901v-4.394h1.366v4.394
		C116.377,24.901,115.011,24.901,115.011,24.901z"/>
	<path class="st0" d="M119.973,24.901l-0.081-0.44h-0.026c-0.288,0.35-0.737,0.539-1.258,0.539c-0.889,0-1.42-0.647-1.42-1.349
		c0-1.14,1.025-1.689,2.579-1.68v-0.063c0-0.234-0.126-0.566-0.8-0.566c-0.45,0-0.925,0.153-1.212,0.333l-0.252-0.881
		c0.306-0.171,0.908-0.386,1.708-0.386c1.464,0,1.932,0.862,1.932,1.896v1.528c0,0.422,0.018,0.827,0.063,1.069
		C121.206,24.901,119.973,24.901,119.973,24.901z M119.811,22.825c-0.719-0.009-1.276,0.162-1.276,0.692
		c0,0.35,0.234,0.522,0.539,0.522c0.342,0,0.62-0.225,0.71-0.504c0.018-0.072,0.026-0.153,0.026-0.234L119.811,22.825
		L119.811,22.825z"/>
	<path class="st0" d="M122.222,21.909c0-0.548-0.018-1.016-0.036-1.402h1.186l0.063,0.602h0.027
		c0.179-0.278,0.629-0.701,1.356-0.701c0.898,0,1.572,0.593,1.572,1.887v2.606h-1.366v-2.435c0-0.565-0.198-0.952-0.692-0.952
		c-0.377,0-0.601,0.26-0.692,0.512c-0.036,0.081-0.054,0.216-0.054,0.342v2.534h-1.366v-2.993H122.222z"/>
	<path class="st0" d="M129.351,18.845h3.702v1.123h-2.327v1.384h2.175v1.114h-2.175v2.435h-1.375V18.845z"/>
	<path class="st0" d="M135.276,19.285c0,0.377-0.287,0.682-0.737,0.682c-0.431,0-0.719-0.306-0.71-0.682
		c-0.009-0.396,0.279-0.693,0.719-0.693C134.989,18.593,135.267,18.889,135.276,19.285z M133.865,24.901v-4.394h1.366v4.394
		C135.231,24.901,133.865,24.901,133.865,24.901z"/>
	<path class="st0" d="M136.32,23.706c0.252,0.153,0.773,0.333,1.177,0.333c0.414,0,0.584-0.144,0.584-0.369
		s-0.135-0.333-0.647-0.503c-0.908-0.306-1.258-0.8-1.248-1.321c0-0.817,0.701-1.437,1.788-1.437c0.513,0,0.97,0.117,1.241,0.251
		l-0.243,0.944c-0.198-0.108-0.575-0.252-0.953-0.252c-0.332,0-0.521,0.135-0.521,0.36c0,0.206,0.17,0.314,0.709,0.503
		c0.836,0.287,1.186,0.709,1.195,1.356c0,0.818-0.646,1.42-1.904,1.42c-0.575,0-1.088-0.126-1.42-0.306L136.32,23.706z"/>
	<path class="st0" d="M140.23,18.522h1.366v2.507h0.018c0.144-0.189,0.324-0.333,0.539-0.45c0.198-0.108,0.458-0.17,0.71-0.17
		c0.872,0,1.536,0.602,1.536,1.923v2.57h-1.366v-2.417c0-0.575-0.198-0.97-0.709-0.97c-0.359,0-0.584,0.234-0.683,0.476
		c-0.036,0.09-0.045,0.206-0.045,0.306v2.606h-1.366L140.23,18.522L140.23,18.522z"/>
	<path class="st0" d="M146.55,23.14c0.045,0.566,0.601,0.836,1.24,0.836c0.467,0,0.845-0.063,1.213-0.18l0.179,0.925
		c-0.449,0.18-0.997,0.27-1.59,0.27c-1.492,0-2.345-0.862-2.345-2.237c0-1.114,0.692-2.345,2.219-2.345
		c1.42,0,1.959,1.105,1.959,2.192c0,0.234-0.027,0.44-0.045,0.539H146.55z M148.159,22.205c0-0.333-0.144-0.89-0.773-0.89
		c-0.575,0-0.809,0.522-0.845,0.89H148.159z"/>
	<path class="st0" d="M150.246,21.953c0-0.647-0.018-1.069-0.036-1.447h1.177l0.045,0.809h0.036
		c0.225-0.637,0.764-0.907,1.186-0.907c0.126,0,0.189,0,0.288,0.018v1.285c-0.099-0.018-0.216-0.036-0.369-0.036
		c-0.503,0-0.845,0.27-0.934,0.692c-0.018,0.09-0.027,0.198-0.027,0.306v2.228h-1.366V21.953z"/>
	<path class="st0" d="M153.662,21.909c0-0.548-0.018-1.016-0.036-1.402h1.15l0.063,0.594h0.027c0.189-0.278,0.575-0.692,1.329-0.692
		c0.566,0,1.016,0.287,1.205,0.745h0.018c0.162-0.225,0.36-0.404,0.566-0.53c0.242-0.143,0.512-0.215,0.836-0.215
		c0.845,0,1.482,0.593,1.482,1.904v2.588h-1.329v-2.39c0-0.638-0.207-1.007-0.647-1.007c-0.314,0-0.539,0.216-0.629,0.477
		c-0.036,0.098-0.054,0.242-0.054,0.35v2.57h-1.33v-2.462c0-0.558-0.198-0.935-0.629-0.935c-0.35,0-0.557,0.27-0.638,0.494
		c-0.045,0.108-0.054,0.234-0.054,0.342v2.561h-1.33L153.662,21.909L153.662,21.909z"/>
	<path class="st0" d="M162.445,23.14c0.045,0.566,0.601,0.836,1.24,0.836c0.467,0,0.845-0.063,1.213-0.18l0.179,0.925
		c-0.449,0.18-0.997,0.27-1.59,0.27c-1.492,0-2.345-0.862-2.345-2.237c0-1.114,0.692-2.345,2.219-2.345
		c1.42,0,1.959,1.105,1.959,2.192c0,0.234-0.027,0.44-0.045,0.539H162.445z M164.054,22.205c0-0.333-0.144-0.89-0.773-0.89
		c-0.575,0-0.809,0.522-0.845,0.89H164.054z"/>
	<path class="st0" d="M166.14,21.909c0-0.548-0.018-1.016-0.036-1.402h1.186l0.063,0.602h0.027c0.179-0.278,0.629-0.701,1.356-0.701
		c0.898,0,1.572,0.593,1.572,1.887v2.606h-1.366v-2.435c0-0.565-0.198-0.952-0.692-0.952c-0.377,0-0.601,0.26-0.692,0.512
		c-0.036,0.081-0.054,0.216-0.054,0.342v2.534h-1.366v-2.993H166.14z"/>
</g>
</svg>
