<?xml version="1.0" encoding="utf-8"?>
<!-- Generator: Adobe Illustrator 19.2.0, SVG Export Plug-In . SVG Version: 6.00 Build 0)  -->
<svg version="1.1" id="Layer_1" xmlns="http://www.w3.org/2000/svg" xmlns:xlink="http://www.w3.org/1999/xlink" x="0px" y="0px"
	 width="558.765px" height="25px" viewBox="0 0 558.765 25" style="enable-background:new 0 0 558.765 25;" xml:space="preserve">
<style type="text/css">
	.st0{fill:#FFFFFF;}
</style>
<g>
	<path class="st0" d="M0,3.554c0.993-0.199,3.007-0.347,4.896-0.347c2.311,0,3.727,0.223,4.944,0.945
		c1.169,0.62,2.013,1.763,2.013,3.279c0,1.492-0.87,2.882-2.758,3.578v0.05c1.913,0.522,3.329,1.963,3.329,4.125
		c0,1.516-0.696,2.709-1.739,3.554c-1.217,0.969-3.255,1.516-6.586,1.516c-1.863,0-3.255-0.124-4.1-0.249V3.554z M3.753,9.966h1.242
		c1.989,0,3.057-0.82,3.057-2.062c0-1.268-0.969-1.939-2.684-1.939c-0.82,0-1.292,0.05-1.615,0.1V9.966z M3.753,17.396
		c0.373,0.05,0.82,0.05,1.466,0.05c1.715,0,3.231-0.647,3.231-2.411c0-1.691-1.516-2.361-3.405-2.361H3.753V17.396z"/>
	<path class="st0" d="M17.936,15.209c0.123,1.566,1.665,2.312,3.428,2.312c1.293,0,2.336-0.174,3.355-0.497l0.497,2.559
		c-1.243,0.497-2.758,0.746-4.398,0.746c-4.125,0-6.486-2.386-6.486-6.187c0-3.082,1.913-6.486,6.137-6.486
		c3.927,0,5.419,3.057,5.419,6.063c0,0.646-0.076,1.217-0.124,1.49H17.936z M22.383,12.625c0-0.92-0.397-2.461-2.136-2.461
		c-1.59,0-2.236,1.442-2.336,2.461H22.383z"/>
	<path class="st0" d="M28.566,20.08v-9.368h-1.59V7.928h1.59V7.456c0-1.466,0.447-3.082,1.542-4.077
		c0.945-0.895,2.261-1.217,3.354-1.217c0.846,0,1.492,0.1,2.013,0.249l-0.149,2.908c-0.323-0.1-0.722-0.174-1.217-0.174
		c-1.243,0-1.765,0.969-1.765,2.162v0.622h2.435v2.784h-2.411v9.368H28.566z"/>
	<path class="st0" d="M48.369,13.867c0,4.448-3.155,6.486-6.41,6.486c-3.554,0-6.288-2.335-6.288-6.262s2.585-6.436,6.486-6.436
		C45.884,7.655,48.369,10.214,48.369,13.867z M39.572,13.991c0,2.088,0.87,3.654,2.485,3.654c1.466,0,2.411-1.466,2.411-3.654
		c0-1.813-0.696-3.652-2.411-3.652C40.243,10.339,39.572,12.202,39.572,13.991z"/>
	<path class="st0" d="M50.7,11.929c0-1.789-0.05-2.958-0.1-4.001h3.255l0.124,2.236h0.1c0.622-1.765,2.112-2.509,3.281-2.509
		c0.347,0,0.522,0,0.794,0.049v3.554c-0.273-0.049-0.596-0.099-1.019-0.099c-1.392,0-2.336,0.744-2.585,1.913
		c-0.049,0.249-0.074,0.546-0.074,0.845v6.163H50.7V11.929z"/>
	<path class="st0" d="M62.851,15.209c0.123,1.566,1.665,2.312,3.428,2.312c1.293,0,2.336-0.174,3.355-0.497l0.497,2.559
		c-1.243,0.497-2.758,0.746-4.398,0.746c-4.125,0-6.486-2.386-6.486-6.187c0-3.082,1.913-6.486,6.137-6.486
		c3.927,0,5.419,3.057,5.419,6.063c0,0.646-0.076,1.217-0.124,1.49H62.851z M67.298,12.625c0-0.92-0.397-2.461-2.136-2.461
		c-1.59,0-2.236,1.442-2.336,2.461H67.298z"/>
	<path class="st0" d="M78.201,3.554c1.392-0.223,3.205-0.347,5.119-0.347c3.181,0,5.244,0.572,6.859,1.789
		c1.739,1.292,2.834,3.355,2.834,6.312c0,3.207-1.169,5.417-2.784,6.785c-1.765,1.466-4.448,2.162-7.729,2.162
		c-1.963,0-3.354-0.124-4.298-0.249V3.554z M82.003,17.222c0.323,0.074,0.845,0.074,1.316,0.074c3.43,0.026,5.666-1.863,5.666-5.865
		c0.026-3.48-2.012-5.319-5.269-5.319c-0.844,0-1.39,0.076-1.713,0.15V17.222z"/>
	<path class="st0" d="M98.272,15.209c0.123,1.566,1.665,2.312,3.428,2.312c1.293,0,2.336-0.174,3.355-0.497l0.497,2.559
		c-1.243,0.497-2.758,0.746-4.398,0.746c-4.125,0-6.486-2.386-6.486-6.187c0-3.082,1.913-6.486,6.137-6.486
		c3.927,0,5.419,3.057,5.419,6.063c0,0.646-0.076,1.217-0.124,1.49H98.272z M102.718,12.625c0-0.92-0.397-2.461-2.136-2.461
		c-1.59,0-2.236,1.442-2.336,2.461H102.718z"/>
	<path class="st0" d="M108.481,12.003c0-1.59-0.05-2.957-0.1-4.075h3.281l0.174,1.691h0.049c0.895-1.293,2.286-1.963,4.051-1.963
		c2.659,0,5.044,2.311,5.044,6.187c0,4.423-2.808,6.51-5.516,6.51c-1.466,0-2.609-0.596-3.157-1.392h-0.05V25h-3.777V12.003z
		 M112.258,14.861c0,0.299,0.026,0.572,0.074,0.794c0.249,1.019,1.119,1.791,2.212,1.791c1.64,0,2.609-1.368,2.609-3.43
		c0-1.939-0.87-3.405-2.559-3.405c-1.069,0-2.013,0.796-2.262,1.913c-0.049,0.199-0.074,0.447-0.074,0.672V14.861z"/>
	<path class="st0" d="M130.244,20.08l-0.223-1.217h-0.074c-0.796,0.969-2.038,1.49-3.48,1.49c-2.461,0-3.927-1.789-3.927-3.727
		c0-3.157,2.834-4.673,7.132-4.647v-0.174c0-0.646-0.347-1.566-2.211-1.566c-1.243,0-2.561,0.423-3.355,0.92l-0.696-2.436
		c0.844-0.472,2.509-1.067,4.721-1.067c4.051,0,5.343,2.385,5.343,5.243v4.226c0,1.167,0.05,2.285,0.174,2.957H130.244z
		 M129.797,14.34c-1.988-0.026-3.528,0.447-3.528,1.913c0,0.969,0.646,1.442,1.49,1.442c0.945,0,1.715-0.622,1.963-1.392
		c0.05-0.2,0.074-0.423,0.074-0.647V14.34z"/>
	<path class="st0" d="M136.452,11.929c0-1.789-0.05-2.958-0.1-4.001h3.255l0.124,2.236h0.1c0.622-1.765,2.112-2.509,3.281-2.509
		c0.347,0,0.522,0,0.794,0.049v3.554c-0.273-0.049-0.596-0.099-1.019-0.099c-1.392,0-2.336,0.744-2.585,1.913
		c-0.049,0.249-0.074,0.546-0.074,0.845v6.163h-3.777V11.929z"/>
	<path class="st0" d="M150.637,4.448v3.48h2.709v2.784h-2.709v4.398c0,1.466,0.349,2.136,1.492,2.136
		c0.472,0,0.844-0.049,1.117-0.099l0.026,2.858c-0.497,0.199-1.392,0.323-2.461,0.323c-1.217,0-2.236-0.423-2.834-1.045
		c-0.694-0.72-1.043-1.888-1.043-3.602v-4.97h-1.615V7.928h1.615V5.294L150.637,4.448z"/>
	<path class="st0" d="M166.987,16.179c0,1.59,0.05,2.882,0.099,3.901h-3.279l-0.174-1.715h-0.074
		c-0.472,0.746-1.615,1.988-3.803,1.988c-2.459,0-4.274-1.54-4.274-5.293V7.928h3.803v6.536c0,1.763,0.572,2.832,1.888,2.832
		c1.045,0,1.64-0.72,1.889-1.316c0.1-0.224,0.124-0.523,0.124-0.82V7.928h3.803V16.179z"/>
	<path class="st0" d="M170.013,11.929c0-1.789-0.05-2.958-0.1-4.001h3.255l0.124,2.236h0.1c0.622-1.765,2.112-2.509,3.281-2.509
		c0.347,0,0.522,0,0.794,0.049v3.554c-0.273-0.049-0.596-0.099-1.019-0.099c-1.392,0-2.336,0.744-2.585,1.913
		c-0.049,0.249-0.074,0.546-0.074,0.845v6.163h-3.777V11.929z"/>
	<path class="st0" d="M182.161,15.209c0.123,1.566,1.665,2.312,3.428,2.312c1.293,0,2.336-0.174,3.355-0.497l0.497,2.559
		c-1.243,0.497-2.758,0.746-4.398,0.746c-4.125,0-6.486-2.386-6.486-6.187c0-3.082,1.913-6.486,6.137-6.486
		c3.927,0,5.419,3.057,5.419,6.063c0,0.646-0.076,1.217-0.124,1.49H182.161z M186.608,12.625c0-0.92-0.397-2.461-2.136-2.461
		c-1.59,0-2.236,1.442-2.336,2.461H186.608z"/>
	<path class="st0" d="M202.882,0h0.796v21.323h-0.796V0z"/>
	<path class="st0" d="M219.419,9.447h-3.575V7.529h9.478v1.918h-3.611V20.08h-2.291V9.447z"/>
	<path class="st0" d="M230.596,20.08l-0.15-1.005h-0.055c-0.559,0.707-1.509,1.21-2.682,1.21c-1.825,0-2.849-1.322-2.849-2.7
		c0-2.289,2.03-3.445,5.381-3.425v-0.15c0-0.596-0.241-1.583-1.844-1.583c-0.893,0-1.824,0.28-2.438,0.672l-0.447-1.49
		c0.67-0.409,1.844-0.801,3.276-0.801c2.905,0,3.743,1.844,3.743,3.818v3.276c0,0.819,0.036,1.621,0.13,2.179H230.596z
		 M230.297,15.648c-1.619-0.036-3.166,0.317-3.166,1.695c0,0.893,0.578,1.302,1.304,1.302c0.913,0,1.583-0.596,1.788-1.248
		c0.056-0.167,0.074-0.353,0.074-0.502V15.648z"/>
	<path class="st0" d="M237.396,8.48c0,0.688-0.502,1.228-1.302,1.228c-0.764,0-1.266-0.54-1.266-1.228
		c0-0.708,0.52-1.248,1.284-1.248C236.894,7.232,237.378,7.772,237.396,8.48z M234.958,20.08v-9.068h2.308v9.068H234.958z"/>
	<path class="st0" d="M241.105,11.012l0.951,4.115c0.205,0.969,0.409,1.956,0.576,2.943h0.038c0.186-0.987,0.484-1.992,0.744-2.925
		l1.174-4.133h1.862l1.136,4.022c0.279,1.061,0.522,2.048,0.726,3.035h0.038c0.149-0.987,0.353-1.974,0.596-3.035l1.005-4.022h2.253
		l-2.849,9.068h-2.123l-1.08-3.687c-0.28-0.949-0.485-1.806-0.69-2.905h-0.036c-0.186,1.117-0.429,2.012-0.69,2.905l-1.154,3.687
		h-2.142l-2.681-9.068H241.105z"/>
	<path class="st0" d="M258.674,20.08l-0.15-1.005h-0.055c-0.559,0.707-1.509,1.21-2.682,1.21c-1.825,0-2.849-1.322-2.849-2.7
		c0-2.289,2.03-3.445,5.381-3.425v-0.15c0-0.596-0.241-1.583-1.844-1.583c-0.893,0-1.824,0.28-2.438,0.672l-0.447-1.49
		c0.67-0.409,1.844-0.801,3.276-0.801c2.905,0,3.743,1.844,3.743,3.818v3.276c0,0.819,0.036,1.621,0.13,2.179H258.674z
		 M258.375,15.648c-1.619-0.036-3.166,0.317-3.166,1.695c0,0.893,0.578,1.302,1.304,1.302c0.913,0,1.583-0.596,1.788-1.248
		c0.056-0.167,0.074-0.353,0.074-0.502V15.648z"/>
	<path class="st0" d="M263.036,13.712c0-1.043-0.02-1.918-0.076-2.7h2.012l0.111,1.36h0.056c0.391-0.708,1.378-1.565,2.887-1.565
		c1.583,0,3.222,1.023,3.222,3.892v5.381h-2.291v-5.12c0-1.304-0.484-2.291-1.731-2.291c-0.913,0-1.545,0.652-1.788,1.34
		c-0.074,0.205-0.094,0.485-0.094,0.746v5.325h-2.308V13.712z"/>
	<path class="st0" d="M275.312,16.188c0.056,1.639,1.34,2.347,2.793,2.347c1.061,0,1.825-0.15,2.514-0.411l0.335,1.583
		c-0.782,0.317-1.862,0.559-3.166,0.559c-2.941,0-4.673-1.806-4.673-4.58c0-2.514,1.527-4.879,4.432-4.879
		c2.941,0,3.91,2.421,3.91,4.414c0,0.428-0.038,0.763-0.074,0.967H275.312z M279.297,14.587c0.02-0.838-0.353-2.215-1.88-2.215
		c-1.416,0-2.012,1.284-2.104,2.215H279.297z"/>
	<path class="st0" d="M283.193,17.976c0.522,0.317,1.509,0.652,2.327,0.652c1.005,0,1.452-0.409,1.452-1.005
		c0-0.614-0.373-0.931-1.49-1.322c-1.768-0.614-2.512-1.583-2.494-2.644c0-1.601,1.322-2.849,3.427-2.849
		c1.005,0,1.88,0.261,2.402,0.54l-0.447,1.621c-0.391-0.224-1.117-0.522-1.918-0.522c-0.819,0-1.266,0.391-1.266,0.949
		c0,0.578,0.428,0.857,1.583,1.266c1.639,0.596,2.402,1.434,2.42,2.775c0,1.639-1.284,2.831-3.686,2.831
		c-1.099,0-2.086-0.261-2.756-0.634L283.193,17.976z"/>
	<path class="st0" d="M292.694,16.188c0.056,1.639,1.34,2.347,2.793,2.347c1.061,0,1.825-0.15,2.514-0.411l0.335,1.583
		c-0.782,0.317-1.862,0.559-3.166,0.559c-2.941,0-4.673-1.806-4.673-4.58c0-2.514,1.527-4.879,4.432-4.879
		c2.941,0,3.91,2.421,3.91,4.414c0,0.428-0.038,0.763-0.074,0.967H292.694z M296.678,14.587c0.02-0.838-0.353-2.215-1.88-2.215
		c-1.416,0-2.012,1.284-2.104,2.215H296.678z"/>
	<path class="st0" d="M304.635,7.698c1.005-0.168,2.291-0.261,3.649-0.261c2.347,0,3.966,0.484,5.12,1.452
		c1.211,0.987,1.956,2.476,1.956,4.618c0,2.233-0.764,3.91-1.956,4.99c-1.246,1.136-3.24,1.713-5.678,1.713
		c-1.342,0-2.347-0.074-3.091-0.168V7.698z M306.926,18.33c0.315,0.055,0.801,0.055,1.266,0.055c2.979,0.02,4.747-1.619,4.747-4.803
		c0.02-2.775-1.583-4.357-4.45-4.357c-0.726,0-1.248,0.056-1.563,0.13V18.33z"/>
	<path class="st0" d="M317.322,13.935c0-1.228-0.02-2.104-0.076-2.923h1.994l0.074,1.731h0.074c0.447-1.284,1.509-1.936,2.476-1.936
		c0.224,0,0.355,0.018,0.54,0.056v2.159c-0.185-0.036-0.391-0.074-0.67-0.074c-1.098,0-1.844,0.708-2.048,1.731
		c-0.036,0.206-0.074,0.447-0.074,0.708v4.693h-2.289V13.935z"/>
	<path class="st0" d="M325.406,16.188c0.056,1.639,1.34,2.347,2.793,2.347c1.061,0,1.825-0.15,2.514-0.411l0.335,1.583
		c-0.782,0.317-1.862,0.559-3.166,0.559c-2.941,0-4.673-1.806-4.673-4.58c0-2.514,1.527-4.879,4.432-4.879
		c2.941,0,3.91,2.421,3.91,4.414c0,0.428-0.038,0.763-0.074,0.967H325.406z M329.391,14.587c0.02-0.838-0.353-2.215-1.88-2.215
		c-1.416,0-2.012,1.284-2.104,2.215H329.391z"/>
	<path class="st0" d="M338.501,20.08l-0.15-1.005h-0.055c-0.559,0.707-1.509,1.21-2.682,1.21c-1.825,0-2.849-1.322-2.849-2.7
		c0-2.289,2.03-3.445,5.381-3.425v-0.15c0-0.596-0.241-1.583-1.844-1.583c-0.893,0-1.824,0.28-2.438,0.672l-0.447-1.49
		c0.67-0.409,1.844-0.801,3.276-0.801c2.905,0,3.743,1.844,3.743,3.818v3.276c0,0.819,0.036,1.621,0.13,2.179H338.501z
		 M338.203,15.648c-1.619-0.036-3.166,0.317-3.166,1.695c0,0.893,0.578,1.302,1.304,1.302c0.913,0,1.583-0.596,1.788-1.248
		c0.056-0.167,0.074-0.353,0.074-0.502V15.648z"/>
	<path class="st0" d="M342.863,13.712c0-1.043-0.02-1.918-0.076-2.7h1.974l0.094,1.34h0.056c0.446-0.707,1.266-1.545,2.793-1.545
		c1.192,0,2.123,0.67,2.514,1.675h0.036c0.317-0.502,0.69-0.875,1.117-1.136c0.503-0.353,1.079-0.54,1.825-0.54
		c1.507,0,3.034,1.023,3.034,3.928v5.344h-2.233v-5.009c0-1.507-0.522-2.402-1.621-2.402c-0.782,0-1.358,0.559-1.601,1.21
		c-0.056,0.224-0.112,0.503-0.112,0.764v5.437h-2.233v-5.25c0-1.266-0.503-2.161-1.565-2.161c-0.857,0-1.434,0.67-1.639,1.304
		c-0.092,0.223-0.13,0.484-0.13,0.744v5.363h-2.233V13.712z"/>
	<path class="st0" d="M371.138,15.462c0,3.334-2.347,4.823-4.656,4.823c-2.568,0-4.542-1.769-4.542-4.673
		c0-2.981,1.954-4.805,4.693-4.805C369.331,10.807,371.138,12.707,371.138,15.462z M364.305,15.556c0,1.75,0.857,3.072,2.253,3.072
		c1.302,0,2.215-1.284,2.215-3.11c0-1.415-0.634-3.035-2.197-3.035C364.955,12.483,364.305,14.047,364.305,15.556z"/>
	<path class="st0" d="M373.285,20.08v-7.355h-1.23v-1.713h1.23v-0.391c0-1.174,0.315-2.346,1.098-3.091
		c0.67-0.632,1.583-0.875,2.365-0.875c0.614,0,1.098,0.094,1.471,0.224l-0.167,1.768c-0.243-0.092-0.559-0.167-0.969-0.167
		c-1.136,0-1.527,0.949-1.527,2.067v0.465h1.992v1.713h-1.974v7.355H373.285z"/>
	<path class="st0" d="M385.207,7.529V20.08h-2.291V7.529H385.207z"/>
	<path class="st0" d="M387.854,13.712c0-1.043-0.02-1.918-0.076-2.7h2.012l0.112,1.36h0.055c0.391-0.708,1.378-1.565,2.887-1.565
		c1.583,0,3.222,1.023,3.222,3.892v5.381h-2.291v-5.12c0-1.304-0.484-2.291-1.731-2.291c-0.913,0-1.546,0.652-1.788,1.34
		c-0.074,0.205-0.094,0.485-0.094,0.746v5.325h-2.308V13.712z"/>
	<path class="st0" d="M406.871,6.859v10.669c0,0.932,0.036,1.938,0.074,2.552h-2.048l-0.092-1.434h-0.038
		c-0.54,1.007-1.639,1.639-2.961,1.639c-2.159,0-3.872-1.844-3.872-4.636c-0.018-3.035,1.88-4.841,4.059-4.841
		c1.248,0,2.141,0.522,2.552,1.192h0.036v-5.14H406.871z M404.58,14.792c0-0.186-0.018-0.409-0.056-0.596
		c-0.205-0.893-0.931-1.619-1.973-1.619c-1.472,0-2.291,1.302-2.291,2.997c0,1.657,0.819,2.867,2.271,2.867
		c0.931,0,1.751-0.632,1.974-1.619c0.056-0.205,0.074-0.429,0.074-0.67V14.792z"/>
	<path class="st0" d="M417.956,15.462c0,3.334-2.347,4.823-4.656,4.823c-2.568,0-4.542-1.769-4.542-4.673
		c0-2.981,1.954-4.805,4.693-4.805C416.15,10.807,417.956,12.707,417.956,15.462z M411.123,15.556c0,1.75,0.855,3.072,2.253,3.072
		c1.302,0,2.215-1.284,2.215-3.11c0-1.415-0.632-3.035-2.197-3.035C411.773,12.483,411.123,14.047,411.123,15.556z"/>
	<path class="st0" d="M419.842,13.712c0-1.043-0.02-1.918-0.076-2.7h2.012l0.112,1.36h0.055c0.391-0.708,1.378-1.565,2.887-1.565
		c1.583,0,3.222,1.023,3.222,3.892v5.381h-2.291v-5.12c0-1.304-0.484-2.291-1.731-2.291c-0.913,0-1.546,0.652-1.788,1.34
		c-0.074,0.205-0.094,0.485-0.094,0.746v5.325h-2.308V13.712z"/>
	<path class="st0" d="M432.118,16.188c0.056,1.639,1.34,2.347,2.793,2.347c1.061,0,1.825-0.15,2.514-0.411l0.335,1.583
		c-0.782,0.317-1.862,0.559-3.166,0.559c-2.941,0-4.673-1.806-4.673-4.58c0-2.514,1.527-4.879,4.432-4.879
		c2.941,0,3.91,2.421,3.91,4.414c0,0.428-0.038,0.763-0.074,0.967H432.118z M436.103,14.587c0.018-0.838-0.353-2.215-1.88-2.215
		c-1.416,0-2.012,1.284-2.104,2.215H436.103z"/>
	<path class="st0" d="M440.001,17.976c0.522,0.317,1.509,0.652,2.327,0.652c1.005,0,1.452-0.409,1.452-1.005
		c0-0.614-0.373-0.931-1.49-1.322c-1.768-0.614-2.512-1.583-2.494-2.644c0-1.601,1.322-2.849,3.427-2.849
		c1.005,0,1.88,0.261,2.402,0.54l-0.447,1.621c-0.391-0.224-1.117-0.522-1.918-0.522c-0.819,0-1.266,0.391-1.266,0.949
		c0,0.578,0.428,0.857,1.583,1.266c1.639,0.596,2.402,1.434,2.42,2.775c0,1.639-1.284,2.831-3.686,2.831
		c-1.099,0-2.086-0.261-2.756-0.634L440.001,17.976z"/>
	<path class="st0" d="M450.32,8.48c0,0.688-0.502,1.228-1.302,1.228c-0.764,0-1.266-0.54-1.266-1.228
		c0-0.708,0.52-1.248,1.284-1.248C449.818,7.232,450.302,7.772,450.32,8.48z M447.882,20.08v-9.068h2.308v9.068H447.882z"/>
	<path class="st0" d="M457.754,20.08l-0.15-1.005h-0.055c-0.559,0.707-1.509,1.21-2.682,1.21c-1.825,0-2.849-1.322-2.849-2.7
		c0-2.289,2.03-3.445,5.381-3.425v-0.15c0-0.596-0.241-1.583-1.844-1.583c-0.893,0-1.824,0.28-2.438,0.672l-0.447-1.49
		c0.67-0.409,1.844-0.801,3.276-0.801c2.905,0,3.743,1.844,3.743,3.818v3.276c0,0.819,0.036,1.621,0.13,2.179H457.754z
		 M457.455,15.648c-1.619-0.036-3.166,0.317-3.166,1.695c0,0.893,0.578,1.302,1.304,1.302c0.913,0,1.583-0.596,1.788-1.248
		c0.056-0.167,0.074-0.353,0.074-0.502V15.648z"/>
	<path class="st0" d="M462.116,13.712c0-1.043-0.02-1.918-0.076-2.7h2.012l0.112,1.36h0.055c0.391-0.708,1.378-1.565,2.887-1.565
		c1.583,0,3.222,1.023,3.222,3.892v5.381h-2.291v-5.12c0-1.304-0.484-2.291-1.731-2.291c-0.913,0-1.546,0.652-1.788,1.34
		c-0.074,0.205-0.094,0.485-0.094,0.746v5.325h-2.308V13.712z"/>
	<path class="st0" d="M476.721,7.529h7.243v1.882h-4.952v3.463h4.617v1.882h-4.617v5.325h-2.291V7.529z"/>
	<path class="st0" d="M488.139,8.48c0,0.688-0.502,1.228-1.302,1.228c-0.764,0-1.266-0.54-1.266-1.228
		c0-0.708,0.52-1.248,1.284-1.248C487.637,7.232,488.121,7.772,488.139,8.48z M485.701,20.08v-9.068h2.308v9.068H485.701z"/>
	<path class="st0" d="M490.359,17.976c0.522,0.317,1.509,0.652,2.327,0.652c1.005,0,1.452-0.409,1.452-1.005
		c0-0.614-0.373-0.931-1.49-1.322c-1.768-0.614-2.512-1.583-2.494-2.644c0-1.601,1.322-2.849,3.427-2.849
		c1.005,0,1.88,0.261,2.402,0.54l-0.447,1.621c-0.391-0.224-1.117-0.522-1.918-0.522c-0.819,0-1.266,0.391-1.266,0.949
		c0,0.578,0.428,0.857,1.583,1.266c1.639,0.596,2.402,1.434,2.42,2.775c0,1.639-1.284,2.831-3.686,2.831
		c-1.099,0-2.086-0.261-2.756-0.634L490.359,17.976z"/>
	<path class="st0" d="M498.24,6.859h2.308v5.401h0.038c0.279-0.429,0.652-0.782,1.136-1.043c0.447-0.261,0.987-0.409,1.565-0.409
		c1.545,0,3.166,1.023,3.166,3.928v5.344h-2.291v-5.084c0-1.322-0.484-2.309-1.75-2.309c-0.895,0-1.528,0.596-1.769,1.286
		c-0.074,0.186-0.094,0.428-0.094,0.688v5.419h-2.308V6.859z"/>
	<path class="st0" d="M510.516,16.188c0.056,1.639,1.34,2.347,2.793,2.347c1.061,0,1.825-0.15,2.514-0.411l0.335,1.583
		c-0.782,0.317-1.862,0.559-3.166,0.559c-2.941,0-4.673-1.806-4.673-4.58c0-2.514,1.527-4.879,4.432-4.879
		c2.941,0,3.91,2.421,3.91,4.414c0,0.428-0.038,0.763-0.074,0.967H510.516z M514.501,14.587c0.018-0.838-0.353-2.215-1.88-2.215
		c-1.416,0-2.012,1.284-2.104,2.215H514.501z"/>
	<path class="st0" d="M518.511,13.935c0-1.228-0.02-2.104-0.076-2.923h1.994l0.074,1.731h0.074c0.447-1.284,1.509-1.936,2.476-1.936
		c0.224,0,0.355,0.018,0.54,0.056v2.159c-0.185-0.036-0.391-0.074-0.67-0.074c-1.098,0-1.844,0.708-2.048,1.731
		c-0.036,0.206-0.074,0.447-0.074,0.708v4.693h-2.289V13.935z"/>
	<path class="st0" d="M525.143,13.712c0-1.043-0.02-1.918-0.076-2.7h1.974l0.094,1.34h0.056c0.446-0.707,1.266-1.545,2.793-1.545
		c1.192,0,2.123,0.67,2.514,1.675h0.036c0.317-0.502,0.69-0.875,1.117-1.136c0.503-0.353,1.079-0.54,1.825-0.54
		c1.507,0,3.034,1.023,3.034,3.928v5.344h-2.233v-5.009c0-1.507-0.522-2.402-1.621-2.402c-0.782,0-1.358,0.559-1.601,1.21
		c-0.056,0.224-0.112,0.503-0.112,0.764v5.437h-2.233v-5.25c0-1.266-0.503-2.161-1.565-2.161c-0.857,0-1.434,0.67-1.639,1.304
		c-0.092,0.223-0.13,0.484-0.13,0.744v5.363h-2.233V13.712z"/>
	<path class="st0" d="M542.56,16.188c0.056,1.639,1.34,2.347,2.793,2.347c1.061,0,1.825-0.15,2.514-0.411l0.335,1.583
		c-0.782,0.317-1.862,0.559-3.166,0.559c-2.941,0-4.673-1.806-4.673-4.58c0-2.514,1.527-4.879,4.432-4.879
		c2.941,0,3.91,2.421,3.91,4.414c0,0.428-0.038,0.763-0.074,0.967H542.56z M546.545,14.587c0.02-0.838-0.353-2.215-1.88-2.215
		c-1.416,0-2.012,1.284-2.104,2.215H546.545z"/>
	<path class="st0" d="M550.553,13.712c0-1.043-0.02-1.918-0.076-2.7h2.012l0.112,1.36h0.055c0.391-0.708,1.378-1.565,2.887-1.565
		c1.583,0,3.222,1.023,3.222,3.892v5.381h-2.291v-5.12c0-1.304-0.484-2.291-1.731-2.291c-0.913,0-1.547,0.652-1.788,1.34
		c-0.074,0.205-0.094,0.485-0.094,0.746v5.325h-2.308V13.712z"/>
</g>
</svg>
