<?xml version="1.0" encoding="UTF-8"?>
<svg width="40px" height="40px" viewBox="0 0 40 40" version="1.1" xmlns="http://www.w3.org/2000/svg" xmlns:xlink="http://www.w3.org/1999/xlink">
    <!-- Generator: sketchtool 40 (33762) - http://www.bohemiancoding.com/sketch -->
    <title>4FD3D955-81B2-4B0C-A55B-30A4B628C6F0</title>
    <desc>Created with sketchtool.</desc>
    <defs></defs>
    <g id="mockup" stroke="none" stroke-width="1" fill="none" fill-rule="evenodd">
        <g id="Lai" transform="translate(-829.000000, -503.000000)">
            <g id="Lai-Ending" transform="translate(829.000000, 118.000000)">
                <g id="buttom" transform="translate(0.000000, 370.000000)">
                    <g id="legend" transform="translate(0.000000, 15.000000)">
                        <g id="icon">
                            <circle id="Oval-4" fill="#FFFFFF" cx="20" cy="20" r="20"></circle>
                            <g id="Page-1-Copy" transform="translate(6.000000, 4.666667)">
                                <path d="M10.7067333,2.89166667 C10.3000667,3.71633333 9.95406667,4.56833333 9.73606667,5.51366667 C9.2934,7.43166667 9.17606667,9.50566667 9.94673333,11.3583333 C10.9827333,13.8496667 13.4240667,14.4796667 15.6914,15.5316667 C16.2007333,15.7683333 16.7034,16.0183333 17.2074,16.2656667 C17.8180667,16.2656667 18.9807333,17.1183333 19.5487333,17.383 C20.1087333,17.6436667 20.6094,18.0236667 21.1700667,18.273 C22.6127333,18.9136667 24.3014,18.6816667 25.2387333,17.4103333 C26.3820667,15.8603333 30.6654,11.1463333 27.0854,9.75566667 C26.0067333,9.33633333 24.7767333,9.50033333 23.6807333,9.14833333 C21.9967333,8.60766667 20.7280667,7.62966667 20.2387333,5.89033333 C20.0180667,5.10566667 19.9440667,4.291 19.7927333,3.49233333 C19.7054,3.03033333 19.6380667,2.437 19.4747333,1.90566667 C19.3174,1.39166667 18.6600667,1.253 18.3187333,1.66833333 C17.6274,2.51033333 16.8467333,3.36633333 16.0647333,4.027 C15.7067333,4.329 15.9420667,4.32633333 15.4660667,4.34833333 C15.1200667,4.36366667 14.5287333,4.181 14.2887333,3.91033333 C14.0200667,3.60633333 13.9074,2.95966667 13.7500667,2.58433333 C13.5000667,1.99033333 13.2160667,1.40566667 12.8167333,0.909666667 C12.5227333,0.543666667 11.9460667,0.601666667 11.7174,1.01166667 C11.3654,1.643 11.0180667,2.25966667 10.7067333,2.89166667" id="Fill-1" fill="#4E91FF"></path>
                                <path d="M10.0706667,30.4635333 C9.62066667,30.4095333 9.226,30.3375333 8.90666667,30.2468667 C-0.931333333,27.4622 8.19266667,16.2075333 11.7453333,12.2188667 C13.5566667,10.1848667 14.542,8.37553333 17.43,7.71353333 C20.9773333,6.90086667 21.2133333,8.10286667 20.846,11.2195333 C20.3246667,15.6502 17.6966667,19.5108667 17.266,23.9495333 C17.048,26.1915333 16.692,25.2595333 18.4566667,26.1828667 C19.7233333,26.8455333 22.4626667,27.0182 20.3653333,28.8548667 C18.6593333,30.3482 13.1073333,30.8268667 10.0706667,30.4635333" id="Fill-4" fill="#4E91FF"></path>
                                <path d="M12.8672667,18.9609333 C14.9432667,20.8789333 17.4246,22.6042667 19.6746,24.3429333 C20.3279333,24.8476 21.6166,26.2222667 22.4739333,25.9169333 C23.0046,25.7282667 24.0906,24.1342667 24.0352667,23.5496 C23.9406,22.5436 22.0772667,21.5489333 21.2986,21.0429333 C18.9266,19.5016 16.6079333,17.8376 14.2472667,16.2876 C13.0892667,15.5269333 12.4979333,15.1156 11.9572667,16.4142667 C11.5292667,17.4436 11.7046,18.0402667 12.5546,18.9276 C12.8326,19.2176 13.1332667,19.4282667 13.5119333,19.5829333" id="Fill-7" fill="#4E91FF"></path>
                                <path d="M4.3328,18.8236667 C4.73346667,18.3136667 4.25813333,17.6016667 3.6308,17.7663333 C2.7768,17.9896667 1.9788,18.3976667 1.33946667,19.0036667 C0.2328,20.053 -0.310533333,21.735 0.183466667,23.1783333 C0.5408,24.2223333 1.48813333,25.0483333 2.54613333,25.2876667 C3.05613333,25.403 3.48013333,24.8736667 3.28346667,24.3896667 C2.86946667,23.3683333 2.83746667,22.1876667 3.1368,21.119 C3.37213333,20.281 3.79413333,19.5096667 4.3328,18.8236667" id="Fill-9" fill="#4E91FF"></path>
                                <path d="M25.3434,12.5901333 C25.4087333,12.3081333 25.0760667,12.1121333 24.8027333,12.0161333 C24.3147333,11.8448 23.8200667,11.6721333 23.3067333,11.6188 C23.2380667,11.6121333 23.1680667,11.6408 23.1240667,11.6934667 C22.6707333,12.2361333 22.3367333,12.8781333 22.1520667,13.5601333 C22.1227333,13.6701333 22.1927333,13.7921333 22.3047333,13.8108 C22.9354,13.9148 23.5874,13.5821333 24.1594,13.2588 C24.5540667,13.0361333 24.9487333,12.8128 25.3434,12.5901333" id="Fill-11" fill="#4D4D4D"></path>
                                <path d="M14.2433333,6.5754 C14.4926667,6.64673333 14.5866667,6.94473333 14.636,7.20006667 C14.73,7.6934 14.802,8.1914 14.8506667,8.69206667 C14.8753333,8.9414 14.9,9.1934 14.9066667,9.44406667 C14.9153333,9.75206667 14.918,10.0694 14.6746667,10.2954 C14.486,10.4700667 14.1433333,10.3814 13.956,10.2387333 C13.632,9.9934 13.548,9.23006667 13.4953333,8.85873333 C13.4193333,8.32606667 13.438,7.77873333 13.5553333,7.2534 C13.5953333,7.07673333 13.648,6.89673333 13.7633333,6.75673333 C13.878,6.61673333 14.0693333,6.5254 14.2433333,6.5754" id="Fill-13" fill="#4D4D4D"></path>
                                <path d="M18.3430667,6.72066667 C18.4170667,6.696 18.5010667,6.68733333 18.5724,6.71933333 C18.6777333,6.766 18.7284,6.884 18.7657333,6.99333333 C18.9757333,7.61266667 19.0370667,8.282 18.9424,8.92866667 C18.9137333,9.12733333 18.8550667,9.346 18.6824,9.44733333 C18.4844,9.56333333 18.2164,9.464 18.0737333,9.28466667 C17.9304,9.10533333 17.8837333,8.87 17.8490667,8.64333333 C17.7877333,8.246 17.7510667,7.838 17.8290667,7.44333333 C17.8890667,7.13933333 18.0490667,6.81866667 18.3430667,6.72066667" id="Fill-15" fill="#4D4D4D"></path>
                            </g>
                        </g>
                    </g>
                </g>
            </g>
        </g>
    </g>
</svg>