<?xml version="1.0" encoding="UTF-8" standalone="no"?><!DOCTYPE svg PUBLIC "-//W3C//DTD SVG 1.1//EN" "http://www.w3.org/Graphics/SVG/1.1/DTD/svg11.dtd"><svg width="100%" height="100%" viewBox="0 0 636 486" version="1.1" xmlns="http://www.w3.org/2000/svg" xmlns:xlink="http://www.w3.org/1999/xlink" xml:space="preserve" style="fill-rule:evenodd;clip-rule:evenodd;stroke-linejoin:round;stroke-miterlimit:1.41421;"><rect id="Artboard1" x="0" y="0" width="635.803" height="485.613" style="fill:none;"/><path id="Fill-1" d="M468.999,414.012c11.6,-5.6 23.1,-13.1 29.5,-24.6c6.2,-11.2 6.2,-26.9 -2.8,-36.2c-6.2,-6.2 -15.1,-8.4 -23.7,-10.3c-59.7,-14 -120.5,-25.4 -181.9,-27.4c-46.3,-1.5 -93.1,2.2 -138.1,14c-18.7,5 -40.5,7.3 -49.6,25.9c-11.9,24.6 -7.8,45.9 12.9,61c23.9,17.5 47,31.2 78,30.2c20.3,-0.6 39.7,-7.3 59.7,-11c71.6,-13.2 150.2,9.8 216,-21.6Z" style="fill-opacity:0.0941176;fill-rule:nonzero;"/><g id="dog"><path id="Fill-4" d="M271.799,342.212c13.4,-7.3 27.8,-13.1 40.9,-20.9c13.1,-7.8 25.6,-17.7 32.8,-31.2c5.8,-11 7.3,-24.8 3,-36.2c-12.1,-3.4 -24.4,-6.5 -36.8,-8.4c-30.6,-4.7 -59.9,-1.7 -88.1,11.6c-15.1,7.1 -29.5,15.9 -42.9,26.1c-15.5,11.6 -30.8,30.2 -31,50.4c-0.2,13.8 7.5,26.5 18.1,35.3c10.6,8.8 23.7,13.8 36.8,17.7l12.5,1.1c15.3,-18.3 33.8,-33.8 54.7,-45.5" style="fill:#fff000;fill-rule:nonzero;"/><path id="Fill-6" d="M279.099,342.212c13.4,-7.3 27.8,-13.1 40.9,-20.9c13.1,-7.8 25.6,-17.7 32.8,-31.2c5.8,-11 7.3,-24.8 3,-36.2c-12.1,-3.4 -24.4,-6.5 -36.8,-8.4c-30.6,-4.7 -59.9,-1.7 -88.1,11.6c-15.1,7.1 -29.5,15.9 -42.9,26.1c-15.5,11.6 -30.8,30.2 -31,50.4c-0.2,13.8 7.5,26.5 18.1,35.3c10.6,8.8 23.7,13.8 36.8,17.7l12.5,1.1c15.3,-18.3 33.8,-33.8 54.7,-45.5" style="fill:#4e91ff;fill-rule:nonzero;"/><path id="Fill-8" d="M472.199,329.912c-0.6,-2.2 -1.5,-4.3 -2.2,-6.2c-1.9,-5.8 -4.3,-10.8 -8.8,-14.9c-11.4,-10.6 -23.9,-21.3 -37.5,-28.9c-13.6,-7.8 -28.4,-12.9 -43.3,-18.1c-8,-2.8 -16.2,-5.4 -24.4,-7.8c4.3,11.4 2.8,25.2 -3,36.2c-7.1,13.6 -19.6,23.5 -32.8,31.2c-13.1,7.8 -27.6,13.4 -40.9,20.9c-20.9,11.4 -39.4,27.2 -54.5,45.5l62.7,5.2c13.4,0.4 26.7,-1.9 39,-6.7c20.5,-8 39.9,-14.2 61.8,-16.4c13.4,-1.3 26.3,1.3 39.7,1.7c-4.1,4.1 -8.6,8 -13.8,10.8c-4.3,2.6 -9.3,3.9 -13.8,6c-2.4,1.1 -4.5,2.4 -6.5,4.1c-1.1,0.9 -3.9,2.4 -4.1,3.9c-0.2,1.1 1.5,3.9 1.9,5c0.9,3.4 1.1,7.3 3.4,10.1c1.9,2.6 5.4,3.9 8.6,3.9c7.5,0.2 15.3,-6.5 21.3,-10.6c4.3,-3 7.5,-7.1 11.4,-11c3.2,-3.2 6.5,-6.7 9.9,-9.9c3.4,-3 7.5,-5.2 10.8,-8.2c6.9,-6.2 15.5,-12.1 18.1,-21.5c2.2,-7.9 -0.2,-16.3 -3,-24.3" style="fill:#4d4d4d;fill-rule:nonzero;"/><path id="Fill-10" d="M462.699,366.112c-1.3,2.4 -3.7,3.9 -5.8,5.6c-9.3,6.5 -17.9,13.8 -25.9,21.8c-3.7,3.7 -6.9,8 -11.4,11c-5,3.4 -10.1,6.2 -15.7,8.8c-1.9,0.9 -3.9,1.7 -5.8,1.3c-4.1,-0.6 -7.8,-4.7 -9.5,-8.2c-1.3,-2.4 -6,-6.5 -5.2,-9.5c0.4,-1.7 3.7,-3.7 5,-5c1.9,-1.7 4.1,-3 6.5,-4.1c4.5,-2.2 9.5,-3.7 13.8,-6c12.3,-7.1 20.9,-18.7 30,-29.5c1.7,-2.2 3.7,-4.1 6.2,-4.7c1.7,-0.4 3.4,0 5.2,0.6c4.1,1.3 8,3 10.8,6.2c2.7,3.1 3.8,8.1 1.8,11.7" style="fill:#4e91ff;fill-rule:nonzero;"/><path id="Fill-12" d="M213.199,375.412c1.9,4.3 6.2,7.5 10.8,9.1c4.7,1.7 10.1,1.7 15.1,1.1c21.8,-1.9 42.7,-12.9 57.3,-28.9c11,-12.1 18.3,-28.2 17.5,-44.4c-0.9,-16.4 -10.8,-32.3 -25.9,-38.6c-9.7,-3.9 -20.7,-3.7 -30.6,-0.6c-8.8,2.8 -17.2,8 -22.8,15.5c-13.4,18.1 -7.5,43.7 -15.3,64.6c-2.4,6.7 -9.1,14 -6.2,21.3c-0.1,0.5 0.1,0.7 0.1,0.9" style="fill:#4d4d4d;fill-rule:nonzero;"/><path id="Fill-14" d="M178.699,387.712c14,8.6 32.5,11.6 45.9,0c3.9,-3.4 6.9,-6.7 11.6,-8.6c4.5,-1.9 9.5,-3 14,-5.2c10.3,-5 20.3,-12.3 28,-20.7c11,-12.1 18.3,-28.2 17.5,-44.4c-0.9,-16.4 -10.8,-32.3 -25.9,-38.6c-9.7,-3.9 -20.7,-3.7 -30.6,-0.6c-8.8,2.8 -17.2,8 -22.8,15.5c-13.4,18.1 -7.5,43.7 -15.3,64.6c-1.9,5.6 -5.2,12.1 -9.5,16.2c-4.7,4.5 -11.4,8.4 -16.6,13.1c-0.2,0.4 -0.2,0.6 -0.2,1.1c-0.6,3.1 1.3,6.1 3.9,7.6" style="fill:#fff000;fill-rule:nonzero;"/><path id="Fill-16" d="M183.699,380.112c-0.4,3 1.5,6 4.1,7.5c8.4,5.2 21.3,6.7 31,8.2c26.9,4.3 54.3,5.2 81.5,3.2c5.8,-0.4 11.9,-1.1 16.8,-4.5c4.7,-3.2 7.8,-9.9 5.2,-15.1c-3.4,-6.5 -12.3,-6.7 -19.6,-5.8c-18.7,1.9 -37.3,3.9 -56,5.8c15.3,-6 29.7,-14.4 40.7,-26.5c11,-12.1 18.3,-28.2 17.5,-44.4c-0.9,-16.4 -10.8,-32.3 -25.9,-38.6c-9.7,-3.9 -20.7,-3.7 -30.6,-0.6c-8.8,2.8 -17.2,8 -22.8,15.5c-13.4,18.1 -7.5,43.7 -15.3,64.6c-1.9,5.6 -5.2,12.1 -9.5,16.2c-4.7,4.5 -11.4,8.4 -16.6,13.1c-0.3,0.6 -0.5,1 -0.5,1.4" style="fill:#4e91ff;fill-rule:nonzero;"/><path id="Fill-18" d="M323.099,412.312c-1.7,-2.6 -3.7,-5.2 -5.4,-8c-2.4,-3.4 -5,-7.5 -3.7,-11.4c1.3,-5 7.3,-6.9 12.5,-8.2c31.2,-8 60.6,-23.3 85.1,-44.4c4.1,4.7 8.6,10.3 8,16.8c-0.4,5.2 -4.1,9.5 -8,13.1c-22.4,21.3 -51.9,33.2 -80.8,44.4c-1.5,0.6 -3.2,1.1 -4.7,0.6c-1.3,-0.8 -2.2,-1.9 -3,-2.9" style="fill:#fff000;fill-rule:nonzero;"/><path id="Fill-20" d="M326.699,421.312c-2.4,-2.2 -3.9,-5.6 -5.4,-8c-2.4,-3.4 -5,-7.5 -3.7,-11.4c1.3,-5 7.3,-6.9 12.5,-8.2c31.2,-8 60.6,-23.3 85.1,-44.4c4.1,4.7 8.6,10.3 8,16.8c-0.4,5.2 -4.1,9.5 -8,13.1c-8.6,8.2 -18.5,15.3 -28.9,21.1c-9.3,5.4 -19.2,9.9 -29.1,14c-5,2.2 -9.9,4.1 -15.1,6c-4.3,1.7 -8.8,4.1 -13.6,2.2c-0.5,-0.3 -1.1,-0.8 -1.8,-1.2" style="fill:#4d4d4d;fill-rule:nonzero;"/><path id="Fill-22" d="M326.699,415.912c-1.7,-2.6 -3.7,-5.2 -5.4,-8c-2.4,-3.4 -5,-7.5 -3.7,-11.4c1.3,-5 7.3,-6.9 12.5,-8.2c31.2,-8 60.6,-23.3 85.1,-44.4c4.1,4.7 8.6,10.3 8,16.8c-0.4,5.2 -4.1,9.5 -8,13.1c-22.4,21.3 -51.9,33.2 -80.8,44.4c-1.5,0.6 -3.2,1.1 -4.7,0.6c-1.2,-0.7 -2.1,-1.8 -3,-2.9" style="fill:#4e91ff;fill-rule:nonzero;"/><path id="Fill-24" d="M462.699,311.012c-2.4,-4.5 -5.2,-8.6 -6.9,-13.6c-2.6,-7.3 -1.7,-15.9 -5.6,-23.1c-7.5,-13.8 -23.1,11.4 -26.1,18.1c-0.6,1.5 -1.5,3.2 -3,4.1c-1.3,0.9 -2.8,0.9 -4.1,0.6c-0.6,-0.2 -1.5,-0.6 -1.7,-1.3c-1.5,-3.4 -0.9,-5.8 -3.4,-9.1c-2.2,-3 -4.1,-6.2 -6.5,-8.8c-5,-5.4 -11.2,-9.1 -18.1,-10.6c-1.5,-0.4 -2.8,0.4 -3.4,1.7c-0.9,0.4 -1.7,1.3 -2.6,2.4c-1.3,1.9 -1.7,4.5 -1.7,6.9c0,5.2 0.4,10.1 -0.9,15.3c-1.9,7.3 -6.5,11.6 -11.4,16.8c-3.4,3.7 -7.5,6.9 -11.9,9.5c-8.6,5.6 -18.1,9.5 -27.8,12.9c-0.9,0.2 -1.7,0.6 -2.4,0.9c-7.5,2.6 -15.7,5.4 -15.1,17.7c0,0.2 0,0.4 0,0.4c1.7,9.7 9.3,15.5 16.4,20.7c12.5,9.3 28.2,17.2 44.2,13.1c7.5,-1.9 13.6,-7.5 20.7,-10.3c18.3,-7.3 39.7,0.6 56.7,-11.9c12.9,-9.7 22.2,-28.2 18.1,-44.2c-0.9,-2.8 -2.2,-5.6 -3.5,-8.2" style="fill:#4d4d4d;fill-rule:nonzero;"/><path id="Fill-26" d="M349.199,376.912c-7.8,-2.2 -15.3,-6.9 -22,-11.9c-7.3,-5.4 -14.7,-11.2 -16.4,-20.7c0,-0.2 0,-0.4 0,-0.4c-0.6,-12.3 7.5,-15.1 15.1,-17.7c0.9,-0.2 1.7,-0.6 2.4,-0.9c9.7,-3.4 19.2,-7.3 27.8,-12.9c4.3,-2.8 8.2,-5.8 11.9,-9.5c5,-5.2 9.5,-9.5 11.4,-16.8c1.3,-5 0.9,-10.1 0.9,-15.3c0,-2.4 0.4,-5 1.7,-6.9c4.5,-6.9 10.6,0 14.2,3.7c4.5,4.3 7.1,10.6 8.8,16.6c0.4,1.3 0.6,2.6 1.3,3.7c0.9,1.5 2.2,2.6 3.2,3.7c3.4,3 7.5,6.2 12.1,6.5c6.9,0.2 11.4,-5.6 15.7,-9.9c3.9,-3.9 9.1,-5.4 11.6,0.4c2.6,5.4 3.7,12.1 4.7,17.9c1.5,8 2.2,16.4 0.6,24.4c-1.5,9.3 -6,18.3 -13.6,23.9c-16.8,12.7 -38.1,4.7 -56.5,12.3c-7.1,3 -13.1,8.6 -20.7,10.6c-4.8,0.9 -9.5,0.5 -14.2,-0.8" style="fill:#fff000;fill-rule:nonzero;"/><path id="Fill-28" d="M356.699,378.012c-7.8,-2.2 -15.3,-7.1 -22,-12.1c-7.1,-5.4 -14.4,-11.2 -16.2,-20.9c0,-0.2 0,-0.4 0,-0.4c-0.6,-12.3 7.8,-15.1 15.1,-17.7c21.8,-7.3 54.1,-21.5 53,-48.9c-0.2,-5 -1.1,-10.1 -2.6,-14.9c-0.6,-2.2 1.3,-4.1 3.4,-3.7c3.4,0.9 7.1,1.9 9.9,4.3c2.8,2.4 5.2,4.7 7.5,7.5c3.2,3.7 6,8 8.2,12.3c0.9,1.5 1.5,4.3 2.8,5.4c1.5,1.1 4.1,0.6 5.4,-0.2c1.5,-0.9 2.4,-2.6 3,-4.1c3.7,-8.2 5.4,-21.1 2.8,-30c-0.6,-1.9 0.9,-3.7 2.8,-3.7c17,0.4 28.9,43.1 30.8,53c1.7,9.3 2.8,18.7 1.3,27.8c-1.7,9.3 -6,18.1 -13.6,23.7c-17,12.5 -38.4,4.5 -56.7,11.9c-7.1,2.8 -13.4,8.4 -20.7,10.3c-4.7,2.1 -9.5,1.7 -14.2,0.4" style="fill:#4e91ff;fill-rule:nonzero;"/><path id="Fill-30" d="M136.899,395.412c-6.5,-11 -9.3,-25.6 -4.3,-37.1c1.3,-3.2 5.8,-2.6 6.9,0.6c3.7,12.9 15.1,23.3 26.9,30.8c20.7,12.9 44.6,20.9 69,22.8c3.4,0.2 4.5,4.7 1.7,6.7c-14.7,9.5 -32.8,13.4 -50,10.6c-20.9,-3.5 -39.6,-16.5 -50.2,-34.4" style="fill:#4d4d4d;fill-rule:nonzero;"/><path id="Fill-32" d="M349.199,344.812c1.1,-0.6 0.6,-2.4 -0.2,-3.7c-2.4,-3.4 -5.4,-6.5 -9.1,-8.4c-3.2,1.9 -6.5,3.7 -9.7,5.6c0,2.4 2.8,3.4 5.2,3.9l12.1,2.6c0.4,0.2 1.2,0.4 1.7,0" style="fill:#4d4d4d;fill-rule:nonzero;"/><path id="Fill-34" d="M414.899,327.112c-1.9,-3.7 -2.2,-7.8 -0.4,-11.6c3,-6.9 12.1,-8.6 17.7,-3.7c1.7,1.5 3.2,3.7 3.4,6c0.6,6.2 -8.2,9.7 -12.9,6.9c-2.4,-1.3 -4.1,-3.9 -3.4,-6.7c0.4,-1.7 2.6,-3.7 4.5,-3c2.8,0.9 2.6,5.2 0.2,6.5c-1.5,0.9 0.9,1.1 1.5,0.6c3.2,-1.5 4.3,-6 0.9,-8c-2.8,-1.5 -6.7,-0.4 -8.6,1.9c-3,3.9 -0.2,9.1 3.9,10.6c4.1,1.5 9.3,0.4 12.7,-1.9c3.9,-2.8 5.2,-7.1 2.6,-11.2c-2.6,-4.1 -7.8,-6 -12.7,-5.6c-10.1,0.6 -16.6,11 -11.9,20.3c0.3,0.4 2.9,-0.4 2.5,-1.1" style="fill:#4d4d4d;fill-rule:nonzero;"/><path id="Fill-36" d="M391.399,304.912c1.5,3 0.6,7.1 -1.5,9.5c-1.9,1.9 -4.1,1.3 -4.3,-1.7c-0.2,-2.6 0.6,-5.2 1.7,-7.3c0.6,-1.1 1.5,-2.2 2.8,-1.7c0.6,-0.1 1.1,0.6 1.3,1.2" style="fill:#4d4d4d;fill-rule:nonzero;"/></g><g id="cold"><path id="Fill-38" d="M370.699,244.212c-1.3,-2.8 -2.6,-5.6 -4.1,-8.4c-0.4,-0.9 -2.8,0 -3.4,0.2c-4.1,1.5 -7.8,3.4 -11.2,5.6c-2.4,-4.5 -4.7,-10.3 -10.6,-8.4c-2.6,0.9 -6.2,5.4 -9.3,4.1c-3.7,-1.5 -1.5,-8.2 -4.7,-10.6c-1.1,-0.6 -3.9,0.4 -4.5,1.1c-2.2,1.9 -4.5,3.7 -6.9,5.4c-1.9,-3.2 -3,-6.2 -3.4,-10.1c-0.2,-1.1 -3.9,0.4 -4.3,0.6c-3,1.9 -6.2,3.9 -9.3,5.8c-0.4,-2.8 -0.6,-5.6 -1.1,-8.6c0,-0.9 -5.2,0.2 -5,1.3c0.4,3.4 0.9,7.1 1.3,10.6c0.2,1.1 3.9,-0.4 4.3,-0.6c3,-1.9 6.2,-3.9 9.3,-6c0.6,3.7 1.9,6.7 4.1,9.9c0.6,0.9 3.7,-0.2 4.3,-0.6c2.6,-1.7 5.2,-3.7 7.8,-5.6c2.8,4.1 0,10.6 8.2,9.7c1.9,-0.2 3.9,-0.9 5.6,-1.7c2.2,-1.1 2.4,-2.2 4.5,-1.1c2.4,1.1 4.1,5.8 5.4,8c0.6,1.1 4.1,-0.4 4.7,-0.9c3,-2.4 5.8,-4.1 9.3,-5.6c1.1,2.4 2.4,5 3.4,7.3c1.1,0.9 6,-0.8 5.6,-1.4" style="fill:#e6e6e6;fill-rule:nonzero;"/><path id="Fill-40" d="M487.299,336.012c-2.2,3.2 -2.8,6.7 -1.3,10.3c1.7,4.3 7.5,5.2 4.1,9.5c-1.5,1.9 -4.7,2.8 -4.7,5.8c0,2.2 2.6,2.4 3,3.9c1.3,4.1 -7.5,8.2 -9.9,9.9c-2.2,1.5 2.8,1.3 3.9,0.6c2.6,-1.7 12.1,-5.8 12.3,-9.5c0.2,-2.4 -2.2,-2.2 -3,-3.9c-2.4,-4.1 1.5,-4.7 3.7,-6.9c1.3,-1.3 3.2,-3.2 1.9,-5.2c-1.9,-2.8 -4.3,-1.3 -6,-5.4c-1.3,-3 -1.1,-6.2 0.9,-9.3c0.7,-1.6 -4.3,-0.9 -4.9,0.2" style="fill:#e6e6e6;fill-rule:nonzero;"/><path id="Fill-42" d="M156.899,275.012c-6.2,3.9 -12.1,8.2 -17.7,12.9c-0.4,0.4 -0.6,1.1 -0.2,1.7c1.7,2.2 3.2,4.5 4.3,7.1c0.2,2.2 -0.6,3.4 -2.8,4.1c-0.9,1.1 -3.9,3 -4.7,3.9c-3.2,3.2 -3,3.2 -1.3,6.7c0.6,0.6 1.3,0.9 2.2,1.1c-0.2,1.7 -0.6,3.7 -0.9,5.4c-0.6,1.5 -2.4,1.9 -2.8,3.7c-0.6,3 0.6,4.3 3.2,5.4c1.9,0.6 5.8,-1.9 3,-3c-1.5,-0.6 4.5,-9.3 3.9,-11.6c-0.6,-1.7 -1.7,-1.1 -2.4,-2.6c-2.6,-5.4 4.3,-7.8 8,-10.1c0.4,-0.2 1.1,-1.1 0.9,-1.7c-1.7,-4.5 -5.6,-8.2 -1.7,-12.5c3,-3.7 8.6,-6.2 12.5,-8.6c2.8,-1.7 -1.5,-3.2 -3.5,-1.9" style="fill:#e6e6e6;fill-rule:nonzero;"/></g><g id="wind"><path id="Fill-44" d="M290.099,86.212c-3.9,4.1 -7.8,8.2 -11.6,12.3c-1.1,1.3 -1.3,3.2 -0.6,4.7c0.4,1.1 1.9,2.4 3,1.1c3.9,-4.3 7.8,-8.4 11.6,-12.7c1.1,-1.1 1.3,-3 0.6,-4.3c-0.6,-1.1 -1.9,-2.4 -3,-1.1" style="fill:#fff;fill-rule:nonzero;"/><path id="Fill-46" d="M232.099,134.112c-3.4,3.4 -6.9,6.7 -10.3,10.3c-1.1,1.1 -1.3,3.2 -0.6,4.5c0.4,1.3 1.9,2.4 3.2,1.1c3.4,-3.4 6.9,-6.9 10.3,-10.3c1.1,-1.1 1.3,-3.2 0.6,-4.5c-0.6,-1.1 -1.9,-2.2 -3.2,-1.1" style="fill:#fff;fill-rule:nonzero;"/><path id="Fill-48" d="M288.999,156.012c-2.6,3.4 -5.4,6.9 -8,10.3c-1.9,2.4 0.9,8.6 3.4,5c2.6,-3.4 5.4,-6.9 8,-10.3c2.2,-2.4 -0.6,-8.4 -3.4,-5" style="fill:#fff;fill-rule:nonzero;"/><path id="Fill-50" d="M433.399,177.212c-6.2,6.9 -12.3,13.6 -18.5,20.5c-1.3,1.5 -1.7,3.9 -0.9,5.6c0.6,1.3 2.4,2.8 3.7,1.3c6,-6.9 12.3,-13.8 18.3,-20.7c2.2,-2.4 0.2,-9.8 -2.6,-6.7" style="fill:#fff;fill-rule:nonzero;"/><path id="Fill-52" d="M495.699,169.612c-2.2,4.1 -4.3,7.5 -8,10.6c-1.9,1.7 -0.2,7.3 2.2,5.2c4.1,-3.7 7.1,-8.2 8.4,-13.6c0.6,-1.3 -1.3,-4.3 -2.6,-2.2" style="fill:#fff;fill-rule:nonzero;"/><path id="Fill-54" d="M513.399,229.312c-9.7,8.2 -18.3,18.5 -27.4,27.6c-2.4,2.6 -0.2,10.6 3,7.3c9.1,-9.3 19,-18.3 27.2,-28.2c1.7,-2.2 0.6,-9.7 -2.8,-6.7" style="fill:#fff;fill-rule:nonzero;"/><path id="Fill-56" d="M211.699,216.212c-7.5,8.4 -14.2,17.5 -21.3,26.3c-1.7,2.2 0.6,7.5 3,4.5c6.9,-8.8 14,-17.7 20.5,-26.9c0.8,-1.4 -0.5,-5.9 -2.2,-3.9" style="fill:#fff;fill-rule:nonzero;"/><path id="Fill-58" d="M523.499,315.312c-1.5,-0.2 -3,2.8 -3.9,3.9c-1.7,2.2 -3.2,4.5 -5.4,6.2c-2.4,1.9 -0.4,8.8 2.6,6.2c2.2,-1.9 3.9,-4.3 5.6,-6.7c0.6,-1.1 1.3,-2.2 1.9,-3.2c0.2,-0.4 0.4,-0.9 0.6,-1.5c0.4,-1.1 0.2,0 -0.4,0.4c1.6,-1 1.1,-5.1 -1,-5.3" style="fill:#fff;fill-rule:nonzero;"/><path id="Fill-60" d="M173.999,334.212c-0.2,-0.9 -0.9,-2.2 -1.9,-2.2c-0.6,0 -0.9,0 -1.3,0.4c-0.6,0.4 -1.1,1.3 -1.1,2.2c-0.2,0.2 -0.4,0.6 -0.9,1.3c-0.9,1.3 -1.9,2.4 -2.8,3.7c-1.9,2.4 -3.7,5 -5.6,7.5c-3.7,5 -7.3,10.1 -10.8,15.3c-1.9,2.6 0.9,9.3 3.7,5.4c5,-6.7 9.5,-13.4 14.2,-20c2.6,-3.6 7.8,-8.6 6.5,-13.6" style="fill:#fff;fill-rule:nonzero;"/><path id="Fill-62" d="M113.599,166.212c-3.7,3.2 -6.7,7.3 -10.1,10.8c-3.7,3.4 -7.3,6.9 -11.4,10.1c-1.5,1.1 -0.4,5.4 1.5,3.9c8.2,-5.6 16.8,-13.1 21.3,-22c0.7,-0.9 0.2,-4.1 -1.3,-2.8" style="fill:#fff;fill-rule:nonzero;"/><path id="Fill-64" d="M495.499,36.912c-22,38.4 -50,73.1 -83.4,102.1c-8,6.9 -16.2,13.6 -24.6,19.8c-10.8,8 -25.2,20.7 -39.9,17.2c-14.7,-3.4 -17.2,-19.2 -8.8,-30.2c3.7,-4.7 11.9,-11.6 18.1,-12.7c5.6,-0.9 10.3,0.6 9.1,7.1c-0.9,4.5 -5.4,7.5 -8.8,10.1c-2.8,1.9 1.5,2.6 3,1.5c5.8,-4.1 14,-10.6 10.1,-18.5c-3.7,-7.3 -12.5,-3.4 -18.1,-0.9c-8.4,4.1 -17,9.7 -21.1,18.3c-4.3,9.1 -2.6,19.8 6.5,25.2c18.5,11 39.7,-5.8 53.9,-16.4c20.5,-15.1 39.4,-32.3 56.5,-51.1c20,-21.8 37.3,-45.9 52.1,-71.5c1.2,-2 -3.8,-1.5 -4.6,0" style="fill:#4d4d4d;fill-rule:nonzero;"/><path id="Fill-66" d="M159.999,161.212c-13.1,47.4 -34.9,92 -64.2,131.5c-13.1,17.7 -39.7,46.3 -63.1,26.7c-9.7,-8 -8.6,-20.5 -1.9,-30.2c3.9,-5.4 9.1,-10.3 14.7,-13.8c5.2,-3.2 12.5,-6.2 17.9,-1.5c3.4,2.8 6.5,11.2 -0.9,12.9c-3,0.6 -2.4,3.4 0.6,2.6c6.5,-1.5 11,-8 7.8,-14.7c-4.1,-8 -15.1,-7.5 -22.2,-4.5c-17,6.7 -38.8,31.2 -23.1,48.7c14,15.5 37.7,9.3 52.1,-1.7c21.1,-16.2 36.2,-42 49.1,-64.6c16.6,-28.9 29.3,-59.9 38.1,-92c0.7,-1.8 -4.5,-1.1 -4.9,0.6" style="fill:#4d4d4d;fill-rule:nonzero;"/><path id="Fill-69" d="M604.499,300.212c-1.7,22.2 -11.2,43.3 -26.7,59.3c-3.9,4.1 -8.2,7.8 -12.7,11c-4.1,3 -9.5,7.5 -14.4,8.6c-11.2,2.2 -11.9,-11.2 -10.8,-18.3c1.1,-6.9 4.1,-11.2 11,-12.1c4.1,-1.9 5.4,-1.3 4.1,1.9c-0.6,3 -1.9,5.6 -3.7,8.2c-1.8,2.6 2.8,3.4 4.1,1.5c3.2,-4.7 4.7,-9.3 5.2,-14.9c0,-0.6 -0.4,-1.3 -1.1,-1.5c-13.1,-3.2 -23.9,6.9 -24.8,19.8c-0.4,6.2 0.4,16.6 7.1,19.6c5.6,2.6 12.1,-1.5 16.8,-4.1c29.1,-16.2 48.5,-46.5 51.1,-79.5c0.2,-2.5 -5,-1.9 -5.2,0.5" style="fill:#4d4d4d;fill-rule:nonzero;"/></g></svg>