<?xml version="1.0" encoding="UTF-8" standalone="no"?>
<svg width="292px" height="240px" viewBox="0 0 292 240" version="1.1" xmlns="http://www.w3.org/2000/svg" xmlns:xlink="http://www.w3.org/1999/xlink">
    <!-- Generator: Sketch 40 (33762) - http://www.bohemiancoding.com/sketch -->
    <title>TNR-R</title>
    <desc>Created with Sketch.</desc>
    <defs></defs>
    <g id="Page-1" stroke="none" stroke-width="1" fill="none" fill-rule="evenodd">
        <g id="Desktop---Section-1-to-Ending" transform="translate(-450.000000, -1083.000000)">
            <g id="TNR-R" transform="translate(450.000000, 1084.000000)">
                <path d="M160.257377,84.7607505 C166.559446,85.8558341 171.145095,91.4375632 173.818457,97.247901 C177.834097,105.975797 178.386518,116.442239 175.147943,125.504256 C171.462476,135.818025 160.48602,143.772968 153.040737,151.544864 C152.39718,152.216302 151.731237,152.926908 151.481809,153.822958 C151.254765,154.636677 151.401064,155.504751 151.589735,156.328062 C153.61954,165.22062 159.834468,173.47851 164.000405,181.526975 C166.515476,186.386108 159.29404,192.831914 155.33516,188.692179 C154.88507,188.221373 154.623649,187.606687 154.371023,187.00559 C152.573858,182.724373 150.775894,178.443155 148.978729,174.161938 C146.435677,168.107005 143.729537,162.06566 140.682831,156.073075 C140.196765,155.117075 139.697108,154.090734 139.813828,153.025225 C139.920155,152.052439 140.520542,151.217938 141.067366,150.407416 C148.782064,138.955399 145.709776,128.433804 142.655075,116.037777 C140.952246,109.125162 140.441397,101.589068 143.330611,95.082513 C146.219026,88.5751585 153.242199,83.5409712 160.257377,84.7607505" id="Fill-1" fill="#4D4D4D"></path>
                <path d="M210.219439,103.321618 C209.818115,99.4288759 209.362428,95.1724378 211.678437,92.0550465 C213.324505,89.8393007 216.051431,88.7154411 218.719997,88.0064344 C224.107494,86.5756318 227.761783,87.5140465 231.305747,91.5370799 C234.944846,95.6696217 237.196099,100.15307 235.7395,105.858695 C234.483563,110.780976 230.958785,115.637712 226.823228,118.572856 C223.567066,120.884521 220.465198,123.435187 217.015568,125.461491 C214.581241,126.891495 210.272203,129.264709 207.354209,128.967358 C205.880022,128.817083 204.448206,127.642067 204.408233,126.160906 C204.373857,124.887572 205.291626,123.818067 206.07189,122.81011 C210.429695,117.180421 210.958931,110.587538 210.263409,103.753257 C210.249019,103.610177 210.234629,103.466297 210.219439,103.321618" id="Fill-3" fill="#4D4D4D"></path>
                <path d="M209.76703,129.930072 C208.622217,129.751022 207.503786,129.448875 206.430124,128.994055 C205.713816,128.690309 205.008701,128.286647 204.557011,127.653577 C204.106121,127.020507 203.970214,126.111667 204.404316,125.466607 C204.637755,125.120497 205.000706,124.887092 205.355662,124.667276 C207.101662,123.584982 208.70456,122.151781 210.638431,121.506721 C213.136714,120.673818 215.731731,120.032754 218.283577,119.387694 C223.265753,118.127948 228.349459,117.15836 233.49872,117.01448 C236.374343,116.933747 239.896723,117.554028 240.861659,120.263761 C241.103093,120.941594 241.141467,121.673781 241.156657,122.393179 C241.211819,125.154069 240.951198,127.923751 240.379591,130.62549 C239.675275,133.953105 239.094074,138.188761 236.389533,140.57956 C236.158492,140.784189 235.909863,140.976828 235.62206,141.089533 C235.291088,141.218226 234.928937,141.235012 234.57478,141.250199 C233.002261,141.317343 231.308225,141.352513 230.003522,140.471651 C229.587008,140.190286 229.213665,139.796216 229.10494,139.304627 C229.020997,138.921747 229.105739,138.52448 229.192879,138.1424 C230.144225,134.002664 231.465717,130.041179 233.36761,126.252349 C233.5275,125.933416 233.68739,125.555333 233.530698,125.234801 C233.298857,124.759998 232.613728,124.811156 232.10208,124.943045 C224.574453,126.879824 217.861467,131.19861 209.76703,129.930072" id="Fill-5" fill="#4D4D4D"></path>
                <path d="M141.888082,123.46772 C138.022739,122.27272 134.198967,120.283984 131.91094,117.54068 C128.377368,113.304225 128.056788,106.155007 129.807585,101.167981 C131.392096,96.6541579 133.434692,91.3130274 136.243162,87.4410676 C143.371863,77.6108936 152.589527,69.1347866 163.539602,63.8839806 C180.824522,55.5957164 199.442926,56.1888201 216.390478,64.7568502 C229.94756,71.6111144 250.562992,92.5791679 237.101044,108.347573 C231.377777,115.051563 221.704426,116.402432 212.932854,117.2769 C211.104511,117.459148 209.235396,117.637399 207.449423,117.206559 C203.826313,116.33289 201.245687,113.372967 197.708118,112.407375 C193.845973,111.353058 191.02631,109.051783 187.545503,107.093422 C182.563327,104.290168 177.749835,105.573894 173.767772,109.562556 C170.895346,112.439348 168.814376,116.039536 165.857209,118.829201 C161.236385,123.188753 154.648113,125.23584 148.314066,124.735459 C146.347418,124.579589 144.110555,124.155144 141.888082,123.46772" id="Fill-7" fill="#4E91FF"></path>
                <path d="M160.429339,89.6171666 C166.183784,92.4100294 169.049815,99.0404809 170.014751,105.362391 C172.173268,119.504956 166.054273,134.618708 152.693856,140.876672 C147.602955,143.261076 141.991611,144.336976 136.397056,144.885317 C132.572485,145.260203 132.497337,142.763093 133.026573,139.692862 C133.424699,137.381996 133.596581,135.241387 133.594183,132.906541 C133.590185,130.104886 134.156996,127.353588 134.392834,124.567919 C134.666246,121.325033 134.750188,118.070157 134.874103,114.819277 C135.145916,107.70523 136.736823,100.321009 141.310479,94.8647753 C145.883337,89.4077418 154.023342,86.5085679 160.429339,89.6171666" id="Fill-9" fill="#4D4D4D"></path>
                <path d="M198.237274,119.90686 C198.797689,117.836592 199.447643,115.696783 200.90584,114.123699 C203.320181,111.51788 207.434953,111.008706 209.758956,108.322154 C211.550524,106.250288 211.896687,103.334328 212.164502,100.608609 C212.266832,99.5662809 212.369961,98.5231538 212.472291,97.4800268 C213.407648,99.0531104 214.173522,100.72611 214.753923,102.462258 C215.164041,103.689231 215.483022,104.960967 215.511802,106.255084 C215.566964,108.722619 214.551662,111.128605 213.058288,113.094161 C211.564115,115.059716 209.614255,116.629602 207.598041,118.05401 C204.982239,119.901264 201.861983,121.608635 198.730535,120.939595 C198.576241,120.906023 198.413953,120.86286 198.303629,120.749355 C198.097371,120.536732 198.159728,120.192221 198.237274,119.90686" id="Fill-11" fill="#4D4D4D"></path>
                <path d="M184.463781,101.881064 C183.95613,97.9867227 183.451676,94.0564117 186.002723,90.6240839 C187.648792,88.4083381 190.375718,87.2836793 193.044284,86.5754719 C198.431781,85.1446692 202.086069,86.0830839 205.629234,90.1061174 C209.269132,94.2378599 211.520385,98.7221074 210.063786,104.426933 C207.813333,113.244355 199.776457,116.843743 194.37297,123.322321 C192.353558,125.742696 190.868179,127.660291 187.544064,128.091131 C182.095808,128.79694 180.68238,124.845047 182.524314,120.362398 C184.432602,115.715887 185.088152,110.721666 184.858709,105.72185 C184.800349,104.458907 184.631665,103.171984 184.463781,101.881064" id="Fill-13" fill="#FFF000"></path>
                <path d="M187.834824,102.522287 C187.4335,98.6295448 186.977813,94.3731067 189.293821,91.2557154 C190.93989,89.0399696 193.666816,87.91611 196.335382,87.2071033 C201.722879,85.7763007 205.377167,86.7147154 208.921132,90.7377488 C212.56023,94.8702906 214.811483,99.3537388 213.354884,105.059364 C212.098948,109.981645 208.57417,114.838381 204.438612,117.773525 C201.18245,120.08519 198.080582,122.635856 194.630953,124.66216 C192.196626,126.092164 187.887588,128.465378 184.969593,128.168026 C183.495406,128.017752 182.06359,126.842735 182.023618,125.361575 C181.989241,124.08824 182.907011,123.018735 183.687274,122.010779 C188.045079,116.38109 188.574316,109.788207 187.878794,102.953926 C187.864404,102.810846 187.850013,102.666966 187.834824,102.522287" id="Fill-15" fill="#4E91FF"></path>
                <path d="M189.890451,122.972454 C189.645819,122.149143 190.378116,121.381785 191.056849,120.855026 C196.25088,116.8232 202.111652,115.051882 208.382542,113.544344 C212.811498,112.479635 219.60283,112.92726 220.225602,118.714417 C220.463838,120.930163 219.445338,124.111501 218.709844,126.167381 C217.685748,129.026588 215.888583,131.785879 213.487833,133.675498 C213.290369,133.830568 213.064124,133.988835 212.813896,133.968053 C212.622827,133.952866 212.455742,133.833765 212.315838,133.702675 C211.092679,132.551638 211.412459,130.581287 211.645099,128.917879 C211.824976,127.639748 211.895327,126.346431 211.856954,125.05631 C211.811385,123.525591 211.485209,121.788645 210.180506,120.985317 C209.677652,120.675177 209.085259,120.547284 208.50166,120.460157 C207.168176,120.262722 205.790723,120.257926 204.490017,120.608832 C203.145341,120.971728 201.932575,121.697521 200.655852,122.253856 C197.292564,123.717431 193.418426,123.976414 189.890451,122.972454" id="Fill-17" fill="#4D4D4D"></path>
                <path d="M187.382415,129.130741 C186.237602,128.951691 185.11917,128.649543 184.045508,128.194724 C183.329201,127.890978 182.624085,127.487316 182.172396,126.854246 C181.721505,126.221176 181.585599,125.312336 182.019701,124.667276 C182.25314,124.321166 182.616091,124.087761 182.971047,123.867945 C184.717047,122.785651 186.319945,121.35245 188.253816,120.70739 C190.751299,119.874487 193.347115,119.233423 195.898962,118.588363 C200.881137,117.328617 205.964843,116.359028 211.114104,116.215149 C213.989728,116.134416 217.512107,116.754697 218.477044,119.46443 C218.718478,120.142263 218.756852,120.87445 218.772041,121.593848 C218.827203,124.354737 218.566582,127.12442 217.994975,129.826159 C217.290659,133.153774 216.709459,137.38943 214.004918,139.780229 C213.773876,139.984858 213.525247,140.177497 213.237445,140.290202 C212.906473,140.418895 212.544321,140.435681 212.190165,140.450868 C210.617646,140.518012 208.92361,140.553182 207.618907,139.672319 C207.202393,139.390955 206.829049,138.996885 206.720324,138.505296 C206.636382,138.122416 206.721124,137.725149 206.808264,137.343069 C207.75961,133.203333 209.081102,129.241848 210.982995,125.453018 C211.142885,125.134085 211.302775,124.756002 211.146082,124.43547 C210.914242,123.960667 210.229113,124.011824 209.717464,124.143714 C202.189838,126.080493 195.476852,130.399279 187.382415,129.130741" id="Fill-19" fill="#4E91FF"></path>
                <path d="M153.663349,88.9471672 C159.664825,91.1589164 163.170415,97.4752308 164.753327,103.671645 C167.131693,112.979856 165.791014,123.374358 160.972726,131.705786 C155.490094,141.186652 143.260899,147.035358 134.537295,153.339682 C133.783413,153.884826 132.999951,154.463542 132.593031,155.300441 C132.223685,156.059806 132.211693,156.93987 132.248468,157.783963 C132.643396,166.897137 137.269816,176.138204 139.917597,184.805351 C141.516498,190.037773 133.252577,195.078355 130.103542,190.293559 C129.745388,189.749214 129.599088,189.09696 129.459185,188.461492 C128.46227,183.926087 127.465355,179.391482 126.467641,174.856876 C125.05741,168.442244 123.483292,162.013224 121.56541,155.569816 C121.26002,154.541876 120.953031,153.441997 121.25922,152.414856 C121.539028,151.477241 122.280918,150.765037 122.964448,150.065622 C132.615415,140.189886 131.48819,129.28701 130.715921,116.544074 C130.285816,109.43802 131.141229,101.9331 135.15447,96.0524214 C139.167712,90.1717425 146.982341,86.4844281 153.663349,88.9471672" id="Fill-21" fill="#4E91FF"></path>
                <path d="M221.935947,81.0509749 C222.639463,74.6227542 227.029246,69.1537308 232.060988,65.0907308 C236.429186,61.5640819 242.201219,58.7592291 247.527158,59.640092 C248.986955,59.88149 249.70646,61.537704 248.89182,62.7726706 C247.312106,65.1682659 245.921062,67.6877575 244.735477,70.2999716 C244.418095,71.0001856 244.108708,71.7739381 244.306172,72.5165167 C244.503636,73.2590953 245.461378,73.8178278 246.068161,73.3462224 C249.791202,69.0442224 256.043705,67.2129548 261.540727,68.5454398 C262.930971,68.8827575 263.546548,70.515791 262.726312,71.6876104 C261.250526,73.7970452 259.211128,76.7537709 258.992878,77.321296 C256.199598,84.5848177 257.265265,93.2823395 262.081955,99.4459816 C265.53798,103.868681 270.945463,107.512831 271.348386,113.111346 C272.030318,122.562637 259.155966,124.305978 252.263103,123.482667 C249.835971,123.19251 247.282526,122.656159 245.513342,120.97037 C243.382007,118.940868 242.895142,115.757132 241.391375,113.22645 C238.05207,107.606353 230.826636,106.038065 227.088405,100.742497 C223.322194,95.4069615 221.227634,87.5295535 221.935947,81.0509749" id="Fill-23" fill="#FFF000"></path>
                <path d="M225.536432,81.0509749 C226.239949,74.6227542 230.629732,69.1537308 235.661473,65.0907308 C240.029671,61.5640819 245.801704,58.7592291 251.127644,59.640092 C252.58744,59.88149 253.306946,61.537704 252.492306,62.7726706 C250.912591,65.1682659 249.521548,67.6877575 248.335962,70.2999716 C248.01858,71.0001856 247.709193,71.7739381 247.906657,72.5165167 C248.104122,73.2590953 249.061863,73.8178278 249.668646,73.3462224 C253.391688,69.0442224 259.64419,67.2129548 265.141212,68.5454398 C266.531457,68.8827575 267.147034,70.515791 266.326798,71.6876104 C264.851012,73.7970452 262.811613,76.7537709 262.593363,77.321296 C259.800083,84.5848177 260.865751,93.2823395 265.68244,99.4459816 C269.138465,103.868681 274.545949,107.512831 274.948872,113.111346 C275.630803,122.562637 262.756451,124.305978 255.863589,123.482667 C253.436457,123.19251 250.883012,122.656159 249.113828,120.97037 C246.982493,118.940868 246.495627,115.757132 244.991861,113.22645 C241.652556,107.606353 234.427122,106.038065 230.688891,100.742497 C226.922679,95.4069615 224.828119,87.5295535 225.536432,81.0509749" id="Fill-25" fill="#4E91FF"></path>
                <path d="M267.553874,113.112705 C267.16774,111.550812 266.595333,110.03608 265.851045,108.610073 C265.656778,108.238384 265.193097,108.078518 264.814157,108.259167 C262.83152,109.206374 261.07113,110.613197 259.708066,112.335755 C259.332325,112.809759 259.603338,113.528357 260.199729,113.625876 C262.377432,113.982377 264.587113,114.150237 266.794396,114.125458 C267.314039,114.119862 267.678588,113.617083 267.553874,113.112705" id="Fill-27" fill="#4D4D4D"></path>
                <path d="M241.027305,78.1770599 C238.710498,79.4463977 236.283366,80.3744211 233.709935,80.9723207 C232.721014,81.2025281 233.037597,82.3479696 234.017723,82.1201602 C236.726262,81.4902873 239.302891,80.5079094 241.742014,79.1722271 C242.677371,78.6590565 241.833951,77.7350298 241.027305,78.1770599" id="Fill-29" fill="#4D4D4D"></path>
                <path d="M236.661266,75.9330977 C237.197698,78.6987833 237.420744,81.4716629 237.328008,84.2877064 C237.301626,85.0798435 238.878942,84.8248569 238.915717,84.1526194 C238.934104,83.8352849 238.951692,83.5171512 238.96928,83.1990174 C239.01245,82.4108769 237.418346,82.6602682 237.380772,83.3341043 C237.363184,83.6522381 237.345596,83.9695726 237.328008,84.2877064 C237.857244,84.2429438 238.38648,84.1981813 238.915717,84.1526194 C239.01245,81.2430542 238.787005,78.3710575 238.232986,75.5118502 C238.098678,74.8180308 236.522961,75.2200943 236.661266,75.9330977" id="Fill-31" fill="#4D4D4D"></path>
                <path d="M249.476139,86.0844428 C249.552886,85.1835967 249.900647,84.2571719 250.436279,83.6744595 C250.792034,83.2867839 251.405213,82.9886334 251.823326,83.3067672 C252.056765,83.4842187 252.140707,83.7951585 252.178282,84.0853157 C252.326979,85.2331552 251.987213,86.391386 251.523532,87.4528977 C251.012683,88.6199211 249.967801,88.6327104 249.600853,87.4592923 C249.472141,87.0468375 249.434567,86.5696368 249.476139,86.0844428" id="Fill-33" fill="#4D4D4D"></path>
                <path d="M96.9891808,108.132952 C93.9920407,110.702002 91.2379335,113.681109 89.6334363,117.287691 C86.9185022,123.392183 88.0057549,131.005812 92.3203896,136.107143 C95.1568401,139.459537 99.2947962,141.616932 103.635813,142.230019 C105.222722,142.453832 106.092524,140.401149 104.838986,139.404384 C102.531771,137.571517 100.798563,134.936123 100.00151,132.082511 C98.6440434,127.22018 99.7041148,121.912621 102.032914,117.43317 C105.635238,110.504568 112.363414,105.343287 119.905431,103.395317 C121.573085,102.964477 121.531513,100.580073 119.837477,100.265935 C116.820351,99.707203 113.642535,99.8582766 110.655788,100.599257 C105.56089,101.863798 100.974442,104.716611 96.9891808,108.132952" id="Fill-35" fill="#4D4D4D"></path>
                <path d="M63.3666091,65.7054164 C62.5471723,64.3913161 61.6909607,63.1507542 61.6038206,61.4465803 C61.1841091,53.2270585 70.8254827,50.2503495 77.2370761,50.9273829 C83.463197,51.5852324 87.6043508,52.2566706 91.1035459,46.741286 C93.9943591,42.1842993 95.9018481,37.15251 97.8333206,32.1391054 C106.353065,10.029607 133.431255,33.5107575 128.409906,49.9537977 C124.352694,63.2386806 110.686087,70.5533595 98.8230404,75.7402191 C90.0162931,79.590597 73.6787217,93.3974431 67.0312904,78.8416237 C65.3980129,75.2662157 65.8536997,71.2775535 64.4306777,67.7021455 C64.1428755,66.9803495 63.7591393,66.33449 63.3666091,65.7054164" id="Fill-37" fill="#FF6496"></path>
                <path d="M70.8698522,64.3522288 C66.1147203,66.0875766 62.3461104,66.2506401 60.7895802,61.5601652 C58.6542478,55.1247505 68.9431764,49.8659512 74.7879593,47.521513 C79.0250473,45.8221351 84.8066736,44.3881351 85.9251049,49.2832388 C87.451256,55.9632488 77.2062973,62.0389645 70.8698522,64.3522288" id="Fill-39" fill="#4D4D4D"></path>
                <path d="M66.889308,63.7409803 C62.1341761,65.4763281 58.3655662,65.6393916 56.809036,60.9489167 C54.6737036,54.513502 64.9626321,49.2547027 70.8074151,46.9102645 C75.044503,45.2108866 80.8261294,43.7768866 81.9445607,48.6719903 C83.4707118,55.3520003 73.225753,61.4277161 66.889308,63.7409803" id="Fill-41" fill="#FF6496"></path>
                <path d="M64.082517,58.1595709 C62.5667588,58.9069455 61.1349429,58.7870458 61.1181544,57.0620893 C61.1053632,55.6376813 63.7859209,54.0254304 64.7860335,53.3036344 C66.1754786,52.3020726 71.9027423,48.0943936 73.694311,49.3205676 C77.8586489,52.1701829 65.8972698,57.2651194 64.082517,58.1595709" id="Fill-43" fill="#4D4D4D"></path>
                <path d="M96.2718338,35.3753572 C96.5764245,41.4143037 101.636946,49.5874642 106.57915,53.8966582 C107.038034,54.2963237 106.694271,55.057287 106.096282,54.9485779 C105.521477,54.8446649 104.941875,54.6128589 104.408641,54.4290127 C100.117191,52.9494508 97.7708036,50.1142234 95.9432596,46.095986 C94.3827321,42.6660562 93.7927376,40.451909 94.3803338,37.1290896 C94.449886,36.7406147 94.748081,35.937287 95.1286195,35.1411532 C95.4012321,34.5704308 96.2398558,34.7438856 96.2718338,35.3753572" id="Fill-45" fill="#4D4D4D"></path>
                <path d="M43.2210948,32.7713763 C37.9023503,29.1583997 29.5169135,36.9015201 25.3957459,39.544908 C19.9674766,43.025995 11.7467266,46.9547074 4.97777885,45.6917642 C-3.67307555,44.0779147 0.721504121,36.7944097 4.91861951,31.7530284 C10.4508173,25.1073896 18.3078173,24.3392324 26.0712816,21.7150284 C30.3699272,20.2626438 37.6737074,14.3515903 41.8068668,15.659296 C45.6738091,16.8822726 50.4561223,24.9235435 52.9456113,27.8594866 C56.8085563,32.4164732 59.3995755,37.8063629 63.1322102,42.3833328 C65.1748063,44.8876371 69.4326799,47.3527742 68.8586745,50.8602391 C68.4413613,53.4085067 66.8240728,55.1478512 64.363364,55.8072993 C61.5500975,56.5618679 59.5994382,54.9791923 57.5520453,53.1950853 C53.5731799,49.727587 50.484103,45.2433395 47.7076113,40.7934632 C46.5739904,38.9757843 45.0662266,34.0247274 43.2210948,32.7713763" id="Fill-47" fill="#FFFFFF"></path>
                <path d="M33.3445228,92.1752659 C27.8802783,98.5115635 32.1101712,110.157018 38.9742536,113.711644 C44.0451684,116.336647 49.4678415,115.204794 54.2277701,112.412731 C56.8339788,110.88441 60.2812096,108.031597 59.1156107,104.584881 C58.0915146,101.559413 54.8417481,100.04548 51.7998387,100.099035 C47.834564,100.167778 47.1790146,104.991741 47.7226409,107.965253 C48.6372124,112.970664 54.0982591,117.079226 58.3289514,119.154289 C63.7588195,121.817661 70.1856025,121.115048 75.8832865,119.952022 C77.5525393,119.610707 77.4158332,115.858647 75.7897508,116.143209 C69.700336,117.210316 63.5997288,117.65954 57.866869,114.942614 C55.8082838,113.96743 45.9238772,106.39057 50.9300365,103.350714 C52.9086766,102.149319 55.9873607,103.581721 57.2544898,105.169992 C59.0668442,107.44249 51.8653937,110.984326 50.6622206,111.551851 C47.3381052,113.117741 43.7157948,113.409497 40.2733607,112.144955 C33.4236684,109.628661 28.9459459,98.7745435 33.6307261,92.7076204 C33.777825,92.5181789 33.5691684,91.9146839 33.3445228,92.1752659" id="Fill-49" fill="#E6E6E6"></path>
                <path d="M159.404204,237.457531 C170.037696,239.53819 180.988569,238.982655 191.809132,238.419126 C197.785825,238.108186 204.342119,237.551852 208.586402,233.333782 C214.603066,227.354785 212.512503,216.311226 205.989786,210.888564 C199.46627,205.465902 190.170259,204.682558 181.798413,206.05421 C173.427366,207.425862 165.472034,210.664752 157.172937,212.42328 C134.484531,217.232056 110.532992,210.773461 87.8541791,215.630196 C81.6232615,216.965079 74.210756,221.365397 75.6097945,227.580996 C76.1694099,230.068514 78.1144731,232.022079 80.233017,233.440892 C87.8030143,238.511049 97.7433824,238.195313 106.685237,236.443979 C115.627091,234.692644 124.473811,231.687959 133.579553,232.020481 C142.387099,232.341812 150.754948,235.765347 159.404204,237.457531" id="Fill-51" fill-opacity="0.1" fill="#000000"></path>
                <path d="M206.946329,77.2816492 L211.743032,77.2816492" id="Stroke-53" stroke="#E6E6E6" stroke-width="1.6" stroke-linecap="round"></path>
                <path d="M209.34468,79.6796425 L209.34468,74.8836559" id="Stroke-55" stroke="#E6E6E6" stroke-width="1.6" stroke-linecap="round"></path>
                <path d="M246.918856,42.9104117 L252.51501,42.9104117" id="Stroke-57" stroke="#E6E6E6" stroke-width="1.6" stroke-linecap="round"></path>
                <path d="M248.517757,45.308405 L248.517757,39.7130873" id="Stroke-59" stroke="#E6E6E6" stroke-width="1.6" stroke-linecap="round"></path>
                <path d="M290.888637,63.6930204 L285.292483,63.6930204" id="Stroke-61" stroke="#E6E6E6" stroke-width="1.6" stroke-linecap="round"></path>
                <path d="M287.690834,59.6963649 L287.690834,65.2916826" id="Stroke-63" stroke="#E6E6E6" stroke-width="1.6" stroke-linecap="round"></path>
                <path d="M213.341933,36.5157629 L217.339186,36.5157629" id="Stroke-65" stroke="#E6E6E6" stroke-width="1.6" stroke-linecap="round"></path>
                <path d="M214.141384,38.9137562 L214.141384,33.3184385" id="Stroke-67" stroke="#E6E6E6" stroke-width="1.6" stroke-linecap="round"></path>
                <path d="M280.386814,21.1559763 L283.793273,24.5619261" id="Stroke-69" stroke="#E6E6E6" stroke-width="1.6" stroke-linecap="round"></path>
                <path d="M280.386814,24.562086 L283.793273,21.1561361" id="Stroke-71" stroke="#E6E6E6" stroke-width="1.6" stroke-linecap="round"></path>
                <path d="M235.384064,8.75915017 L238.790523,12.1651" id="Stroke-73" stroke="#E6E6E6" stroke-width="1.6" stroke-linecap="round"></path>
                <path d="M235.384064,12.1652599 L238.790523,8.75931003" id="Stroke-75" stroke="#E6E6E6" stroke-width="1.6" stroke-linecap="round"></path>
                <path d="M275.101647,76.745298 L278.508105,80.1512478" id="Stroke-77" stroke="#E6E6E6" stroke-width="1.6" stroke-linecap="round"></path>
                <path d="M275.101647,80.1514077 L278.508105,76.7454579" id="Stroke-79" stroke="#E6E6E6" stroke-width="1.6" stroke-linecap="round"></path>
                <path d="M275.56237,54.2273415 C275.56237,55.3671876 274.638205,56.2920137 273.497389,56.2920137 C272.357373,56.2920137 271.432409,55.3671876 271.432409,54.2273415 C271.432409,53.0874953 272.357373,52.1626692 273.497389,52.1626692 C274.638205,52.1626692 275.56237,53.0874953 275.56237,54.2273415 L275.56237,54.2273415 Z" id="Stroke-81" stroke="#E6E6E6" stroke-width="1.6" stroke-linecap="round"></path>
                <path d="M177.090848,2.06451237 C177.090848,3.20435853 176.166683,4.12918462 175.025867,4.12918462 C173.885851,4.12918462 172.960887,3.20435853 172.960887,2.06451237 C172.960887,0.924666221 173.885851,-0.000159866221 175.025867,-0.000159866221 C176.166683,-0.000159866221 177.090848,0.924666221 177.090848,2.06451237 L177.090848,2.06451237 Z" id="Stroke-83" stroke="#E6E6E6" stroke-width="1.6" stroke-linecap="round"></path>
            </g>
        </g>
    </g>
</svg>