<?xml version="1.0" encoding="utf-8"?>
<!-- Generator: Adobe Illustrator 18.0.0, SVG Export Plug-In . SVG Version: 6.00 Build 0)  -->
<!DOCTYPE svg PUBLIC "-//W3C//DTD SVG 1.1//EN" "http://www.w3.org/Graphics/SVG/1.1/DTD/svg11.dtd">
<svg version="1.1" xmlns="http://www.w3.org/2000/svg" xmlns:xlink="http://www.w3.org/1999/xlink" x="0px" y="0px"
	 viewBox="0 0 308.8 284" enable-background="new 0 0 308.8 284" xml:space="preserve">
<g id="圖層_1">
	<g>
		<g>
			<defs>
				<polygon id="SVGID_9_" points="114,242.4 69.8,257.5 61.5,267 18.1,267 18.1,75 84,75 97.8,149.8 114,171 				"/>
			</defs>
			<clipPath id="SVGID_2_">
				<use xlink:href="#SVGID_9_"  overflow="visible"/>
			</clipPath>
			<g clip-path="url(#SVGID_2_)">
				<g>
					
						<rect x="12.3" y="-54.2" transform="matrix(0.7071 0.7071 -0.7071 0.7071 79.4411 22.2962)" fill="#FFFFFF" width="1" height="322.4"/>
				</g>
				<g>
					
						<rect x="26.6" y="-39.9" transform="matrix(0.7071 0.7071 -0.7071 0.7071 93.6887 16.3947)" fill="#FFFFFF" width="1" height="322.4"/>
				</g>
				<g>
					
						<rect x="40.8" y="-25.7" transform="matrix(0.7071 0.7071 -0.7071 0.7071 107.9362 10.4931)" fill="#FFFFFF" width="1" height="322.4"/>
				</g>
				<g>
					
						<rect x="55" y="-11.4" transform="matrix(0.7071 0.7071 -0.7071 0.7071 122.1843 4.5914)" fill="#FFFFFF" width="1" height="322.4"/>
				</g>
				<g>
					
						<rect x="69.3" y="2.8" transform="matrix(0.7071 0.7071 -0.7071 0.7071 136.4318 -1.3101)" fill="#FFFFFF" width="1" height="322.4"/>
				</g>
				<g>
					
						<rect x="83.5" y="17.1" transform="matrix(0.7071 0.7071 -0.7071 0.7071 150.6794 -7.2116)" fill="#FFFFFF" width="1" height="322.4"/>
				</g>
				<g>
					
						<rect x="97.8" y="31.3" transform="matrix(0.7071 0.7071 -0.7071 0.7071 164.9269 -13.1132)" fill="#FFFFFF" width="1" height="322.4"/>
				</g>
				<g>
					
						<rect x="112" y="45.6" transform="matrix(0.7071 0.7071 -0.7071 0.7071 179.1745 -19.0147)" fill="#FFFFFF" width="1" height="322.4"/>
				</g>
				<g>
					
						<rect x="126.3" y="59.8" transform="matrix(0.7071 0.7071 -0.7071 0.7071 193.4224 -24.9161)" fill="#FFFFFF" width="1" height="322.4"/>
				</g>
				<g>
					
						<rect x="140.5" y="74.1" transform="matrix(0.7071 0.7071 -0.7071 0.7071 207.6701 -30.818)" fill="#FFFFFF" width="1" height="322.4"/>
				</g>
			</g>
		</g>
		<g>
			<defs>
				<polygon id="SVGID_11_" points="194,242.4 238.1,257.5 246.5,267 289.8,267 289.8,75 223.9,75 210.1,149.8 194,171 				"/>
			</defs>
			<clipPath id="SVGID_4_">
				<use xlink:href="#SVGID_11_"  overflow="visible"/>
			</clipPath>
			<g clip-path="url(#SVGID_4_)">
				<g>
					
						<rect x="188.1" y="-62.2" transform="matrix(0.7071 0.7071 -0.7071 0.7071 125.2772 -104.3718)" fill="#FFFFFF" width="1" height="322.4"/>
				</g>
				<g>
					
						<rect x="202.4" y="-47.9" transform="matrix(0.7071 0.7071 -0.7071 0.7071 139.5249 -110.2736)" fill="#FFFFFF" width="1" height="322.4"/>
				</g>
				<g>
					
						<rect x="216.6" y="-33.7" transform="matrix(0.7071 0.7071 -0.7071 0.7071 153.7725 -116.1752)" fill="#FFFFFF" width="1" height="322.4"/>
				</g>
				<g>
					
						<rect x="230.9" y="-19.4" transform="matrix(0.7071 0.7071 -0.7071 0.7071 168.0201 -122.0767)" fill="#FFFFFF" width="1" height="322.4"/>
				</g>
				<g>
					
						<rect x="245.1" y="-5.2" transform="matrix(0.7071 0.7071 -0.7071 0.7071 182.2676 -127.9782)" fill="#FFFFFF" width="1" height="322.4"/>
				</g>
				<g>
					
						<rect x="259.4" y="9.1" transform="matrix(0.7071 0.7071 -0.7071 0.7071 196.5155 -133.8796)" fill="#FFFFFF" width="1" height="322.4"/>
				</g>
				<g>
					
						<rect x="273.6" y="23.3" transform="matrix(0.7071 0.7071 -0.7071 0.7071 210.7632 -139.7815)" fill="#FFFFFF" width="1" height="322.4"/>
				</g>
				<g>
					
						<rect x="287.9" y="37.6" transform="matrix(0.7071 0.7071 -0.7071 0.7071 225.0108 -145.683)" fill="#FFFFFF" width="1" height="322.4"/>
				</g>
				<g>
					
						<rect x="302.1" y="51.8" transform="matrix(0.7071 0.7071 -0.7071 0.7071 239.2583 -151.5846)" fill="#FFFFFF" width="1" height="322.4"/>
				</g>
				<g>
					
						<rect x="316.4" y="66" transform="matrix(0.7071 0.7071 -0.7071 0.7071 253.5059 -157.4861)" fill="#FFFFFF" width="1" height="322.4"/>
				</g>
			</g>
		</g>
		<g>
			<path fill="#FFFFFF" d="M8.2,242.2H0V99.9h8.2V242.2z M2,240.2h4.2V101.9H2V240.2z"/>
		</g>
		<g>
			<path fill="#FFFFFF" d="M308.8,242.2h-8.2V99.9h8.2V242.2z M302.6,240.2h4.2V101.9h-4.2V240.2z"/>
		</g>
		<g>
			<polygon fill="#FFFFFF" points="306.2,100.9 303.2,100.9 303.2,3 5.8,3 5.8,100.9 2.8,100.9 2.8,0 306.2,0 			"/>
		</g>
		<g>
			<polygon fill="#FFFFFF" points="306.2,284 2.8,284 2.8,241.2 5.8,241.2 5.8,281 303.2,281 303.2,241.2 306.2,241.2 			"/>
		</g>
	</g>
</g>
<g id="Layer_2">
</g>
</svg>
