<?xml version="1.0" encoding="utf-8"?>
<!-- Generator: Adobe Illustrator 18.0.0, SVG Export Plug-In . SVG Version: 6.00 Build 0)  -->
<!DOCTYPE svg PUBLIC "-//W3C//DTD SVG 1.1//EN" "http://www.w3.org/Graphics/SVG/1.1/DTD/svg11.dtd">
<svg version="1.1" xmlns="http://www.w3.org/2000/svg" xmlns:xlink="http://www.w3.org/1999/xlink" x="0px" y="0px"
	 viewBox="0 0 233.8 141.6" enable-background="new 0 0 233.8 141.6" xml:space="preserve">
<g id="圖層_1">
	<g>
		<polygon fill="none" stroke="#FFFFFF" stroke-width="2" stroke-miterlimit="10" points="228.5,68.5 228.5,40.4 200.3,40.4 		"/>
		<polygon fill="none" stroke="#FFFFFF" stroke-width="2" stroke-miterlimit="10" points="6.3,68.5 6.3,40.4 34.5,40.4 		"/>
		<g>
			<line fill="none" stroke="#FFFFFF" stroke-miterlimit="10" x1="41.9" y1="47.9" x2="13.2" y2="76.6"/>
			<line fill="none" stroke="#FFFFFF" stroke-miterlimit="10" x1="191.9" y1="47.9" x2="220.6" y2="76.6"/>
		</g>
		<g>
			<path fill="#72A0C6" d="M233.8,141.1c-7.3,0-7.3-6.5-14.6-6.5c-7.3,0-7.3,6.5-14.6,6.5c-7.3,0-7.3-6.5-14.6-6.5
				c-7.3,0-7.3,6.5-14.6,6.5c-7.3,0-7.3-6.5-14.6-6.5c-7.3,0-7.3,6.5-14.6,6.5c-7.3,0-7.3-6.5-14.6-6.5c-7.3,0-7.3,6.5-14.6,6.5
				c-7.3,0-7.3-6.5-14.6-6.5c-7.3,0-7.3,6.5-14.6,6.5c-7.3,0-7.3-6.5-14.6-6.5c-7.3,0-7.3,6.5-14.6,6.5c-7.3,0-7.3-6.5-14.6-6.5
				c-7.3,0-7.3,6.5-14.6,6.5c-7.3,0-7.3-6.5-14.6-6.5s-7.3,6.5-14.6,6.5"/>
			<path fill="none" stroke="#FFFFFF" stroke-miterlimit="10" d="M233.8,141.1c-7.3,0-7.3-6.5-14.6-6.5c-7.3,0-7.3,6.5-14.6,6.5
				c-7.3,0-7.3-6.5-14.6-6.5c-7.3,0-7.3,6.5-14.6,6.5c-7.3,0-7.3-6.5-14.6-6.5c-7.3,0-7.3,6.5-14.6,6.5c-7.3,0-7.3-6.5-14.6-6.5
				c-7.3,0-7.3,6.5-14.6,6.5c-7.3,0-7.3-6.5-14.6-6.5c-7.3,0-7.3,6.5-14.6,6.5c-7.3,0-7.3-6.5-14.6-6.5c-7.3,0-7.3,6.5-14.6,6.5
				c-7.3,0-7.3-6.5-14.6-6.5c-7.3,0-7.3,6.5-14.6,6.5c-7.3,0-7.3-6.5-14.6-6.5s-7.3,6.5-14.6,6.5"/>
		</g>
		<line fill="none" stroke="#FFFFFF" stroke-miterlimit="10" x1="224.5" y1="64.5" x2="224.5" y2="129.8"/>
		<polyline fill="none" stroke="#FFFFFF" stroke-miterlimit="10" points="9.3,129.8 9.3,44.4 204.3,44.4 		"/>
		<g>
			<path fill="#B5B5B6" d="M168.5,68.5l-96.6,0c-3.3,0-6-2.7-6-6l0-54.4c0-3.3,2.7-6,6-6l96.6,0c3.3,0,6,2.7,6,6l0,54.4
				C174.5,65.8,171.8,68.5,168.5,68.5z"/>
			<path fill="#FFFFFF" d="M165.9,66.4l-96.6,0c-3.3,0-6-2.7-6-6l0-54.4c0-3.3,2.7-6,6-6l96.6,0c3.3,0,6,2.7,6,6l0,54.4
				C171.9,63.7,169.2,66.4,165.9,66.4z"/>
			<g>
				<path fill="#EB647D" d="M120.3,21.6c0-2.6-1.8-4-4.3-4c-2.4,0-4.2,1.2-6,3.1l-5.8-5.3c3.3-3.7,7.8-6.2,13.1-6.2
					c7.4,0,13.1,3.5,13.1,11.7c0,8.2-10.1,10.7-9.4,18.5h-9.2C110.5,30.2,120.3,26.4,120.3,21.6z M110.2,49.6c0-3.6,2.6-6.5,6.3-6.5
					c3.6,0,6.3,2.9,6.3,6.5c0,3.7-2.7,6.6-6.3,6.6C112.8,56.2,110.2,53.3,110.2,49.6z"/>
			</g>
		</g>
	</g>
</g>
<g id="Layer_2">
</g>
</svg>
