<?xml version="1.0" encoding="utf-8"?>
<!-- Generator: Adobe Illustrator 18.0.0, SVG Export Plug-In . SVG Version: 6.00 Build 0)  -->
<!DOCTYPE svg PUBLIC "-//W3C//DTD SVG 1.1//EN" "http://www.w3.org/Graphics/SVG/1.1/DTD/svg11.dtd">
<svg version="1.1" xmlns="http://www.w3.org/2000/svg" xmlns:xlink="http://www.w3.org/1999/xlink" x="0px" y="0px"
	 viewBox="0 0 261 197.6" enable-background="new 0 0 261 197.6" xml:space="preserve">
<g id="圖層_1">
	<g>
		<g>
			<g>
				<path fill="#898989" d="M106.1,41.3L106.1,41.3c-5.4,0-9.8-4.4-9.8-9.8V13.7c0-5.4,4.4-9.8,9.8-9.8h0c5.4,0,9.8,4.4,9.8,9.8
					v17.8C115.9,37,111.5,41.3,106.1,41.3z"/>
				<g>
					<g>
						<g id="XMLID_22_">
							<g>
								<path fill="#49B989" d="M157.1,129.4l-8.5,3.8c-1.1,0.5-2.2,0.7-3.4,0.8L143,134l-1.5-20.1l-0.4-6.1l6.7-40.6v0
									c2.2-1.3,4.3-2.9,6.2-4.7l14.3,7.9c4.1,2.3,6.3,6.9,5.4,11.6l-9.9,49.2L157.1,129.4z"/>
								<path fill="#FFE3C9" d="M157.1,129.4l6.6,1.7v0c0,0-2.8,7.3-10.1,12.7L157.1,129.4z"/>
								<path fill="#898989" d="M153.6,143.8l-10,41.3l0,0l-13,3.6l-13-3.6l0,0l-10-41.3l-3.5-14.5l8.5,3.8c1.1,0.5,2.2,0.7,3.4,0.8
									l2.2,0.1l12.4,0.3L143,134l2.2-0.1c1.2,0,2.3-0.3,3.4-0.8l8.5-3.8L153.6,143.8z"/>
								<path fill="#FFE3C9" d="M134.6,71.6c-1.3,0.2-2.7,0.3-4.1,0.3c-1.4,0-2.8-0.1-4.1-0.3c-4.7-0.6-9.2-2.1-13.1-4.4
									c-2.2-1.3-4.3-2.9-6.2-4.7C100.9,56.3,97,47.8,97,38.3c0-18.5,15-33.6,33.6-33.6s33.6,15,33.6,33.6
									c0,9.5-3.9,18.1-10.3,24.2c-1.9,1.8-3.9,3.4-6.2,4.7v0C143.8,69.5,139.3,71,134.6,71.6z"/>
								<path fill="#595757" d="M152.1,191.3c0.6,0.4,0.9,1.3,0.7,2l-1,3.1c-0.2,0.8-0.9,1.3-1.7,1.3h-19.6v-8.8v-0.1l13-3.6l0,0.1
									L152.1,191.3z"/>
								<path fill="#EFEFEF" d="M147.7,67.2l-6.7,40.6l0.4,6.1l-4.4,0.3c0-0.1,0-0.3,0-0.4l-3.6-36.8l-0.1-0.2l0.6-0.3
									c0.6-0.4,1-1.2,1-1.9l-0.2-3.1C139.3,71,143.8,69.5,147.7,67.2z"/>
								<path fill="#EFEFEF" d="M143,134l-12.4,0.3l-12.4-0.3l1.5-20.4l4.4,0.3c-0.1,0.6,0,1.3,0.2,1.8l2.9,8
									c0.3,0.8,1.1,1.4,1.9,1.4h1.4h1.4c0.9,0,1.7-0.5,1.9-1.4l2.9-8c0.2-0.4,0.3-0.9,0.3-1.4l4.4-0.3L143,134z"/>
								<path fill="#ECCF54" d="M137,113.9c0,0.1,0,0.3,0,0.4c0,0.5-0.1,1-0.3,1.4l-2.9,8c-0.3,0.8-1.1,1.4-1.9,1.4h-1.4h-1.4
									c-0.9,0-1.7-0.5-1.9-1.4l-2.9-8c-0.2-0.6-0.3-1.2-0.2-1.8l3.6-36.8l0.1-0.2l1.7,1c0.7,0.4,1.5,0.4,2.2,0l1.7-1l0.1,0.2
									L137,113.9z"/>
								<path fill="#ECCF54" d="M134.8,74.7c0,0.8-0.3,1.5-1,1.9l-0.6,0.3l-1.7,1c-0.7,0.4-1.5,0.4-2.2,0l-1.7-1l-0.5-0.3
									c-0.6-0.4-1-1.2-1-1.9l0.2-3.1c1.3,0.2,2.7,0.3,4.1,0.3c1.4,0,2.8-0.1,4.1-0.3L134.8,74.7z"/>
								<path fill="#595757" d="M130.5,188.9v8.8h-19.6c-0.8,0-1.5-0.5-1.7-1.3l-1-3.1c-0.2-0.7,0.1-1.6,0.7-2l8.6-6l0-0.1l13,3.6
									V188.9z"/>
								<path fill="#EFEFEF" d="M127.8,76.9l-0.1,0.2l-3.6,36.8l-4.4-0.3l0.4-5.7l-6.7-40.6c3.9,2.3,8.3,3.9,13.1,4.4l-0.2,3.1
									c-0.1,0.8,0.3,1.5,1,1.9L127.8,76.9z"/>
								<path fill="#49B989" d="M104,129.4l-6.7,1.7l-9.9-49.2c-0.9-4.6,1.3-9.3,5.4-11.6l14.4-7.9l0,0c1.9,1.8,3.9,3.4,6.2,4.7
									l6.7,40.6l-0.4,5.7l-1.5,20.4l-2.2-0.1c-1.2,0-2.3-0.3-3.4-0.8L104,129.4z"/>
								<path fill="#FFE3C9" d="M104,129.4l3.5,14.5c-7.4-5.3-10.2-12.8-10.2-12.8v0L104,129.4z"/>
							</g>
						</g>
					</g>
					<g>
						<g>
							<g>
								<path fill="#DBBEAD" d="M137.8,32.5h-29.2c-1.7,0-3.1-1.4-3.1-3.1c0-1.7,1.4-3.1,3.1-3.1h29.2c1.7,0,3.1,1.4,3.1,3.1
									C140.9,31.1,139.5,32.5,137.8,32.5z"/>
							</g>
							<g>
								<path fill="#DBBEAD" d="M120.7,44.9c-1.7,0-3.1-1.4-3.1-3.1V29.3c0-1.7,1.4-3.1,3.1-3.1s3.1,1.4,3.1,3.1v12.4
									C123.8,43.5,122.4,44.9,120.7,44.9z"/>
							</g>
						</g>
						<g>
							
								<line fill="#DBBEAD" stroke="#DBBEAD" stroke-width="3" stroke-linecap="round" stroke-miterlimit="10" x1="113.7" y1="39.2" x2="108.4" y2="54.4"/>
							
								<line fill="#DBBEAD" stroke="#DBBEAD" stroke-width="3" stroke-linecap="round" stroke-miterlimit="10" x1="128.3" y1="39.2" x2="133.6" y2="54.4"/>
						</g>
					</g>
				</g>
				<path fill="#898989" d="M154.3,41.3L154.3,41.3c-5.8,0-10.5-4.7-10.5-10.5V15.1c0-5.8,4.7-10.5,10.5-10.5h0
					c5.8,0,10.5,4.7,10.5,10.5v15.8C164.8,36.7,160.1,41.3,154.3,41.3z"/>
			</g>
			<path fill="#898989" d="M164.8,15.6H96.4V10c0-5.5,4.5-10,10-10h48.3c5.5,0,10,4.5,10,10V15.6z"/>
		</g>
		<g>
			<g>
				<path fill="none" stroke="#FFFFFF" stroke-miterlimit="10" d="M82.6,135.5H47.3c-5.1,0-9.3,4.2-9.3,9.3s4.2,9.3,9.3,9.3H95"/>
				<path fill="none" stroke="#FFFFFF" stroke-miterlimit="10" d="M166,154h47.7c5.1,0,9.3-4.2,9.3-9.3s-4.2-9.3-9.3-9.3h-35.3"/>
			</g>
			<g>
				<path fill="none" stroke="#FFFFFF" stroke-miterlimit="10" d="M181.6,121.9h69.7c5.1,0,9.3-4.2,9.3-9.3c0-5.1-4.2-9.3-9.3-9.3
					h-65.3"/>
				<path fill="none" stroke="#FFFFFF" stroke-miterlimit="10" d="M75.1,103.4H9.8c-5.1,0-9.3,4.2-9.3,9.3c0,5.1,4.2,9.3,9.3,9.3
					h69.7"/>
			</g>
			<g>
				<path fill="none" stroke="#FFFFFF" stroke-miterlimit="10" d="M72.9,71.3H47.3c-5.1,0-9.3,4.2-9.3,9.3s4.2,9.3,9.3,9.3h24.7"/>
				<path fill="none" stroke="#FFFFFF" stroke-miterlimit="10" d="M189.1,89.8h24.7c5.1,0,9.3-4.2,9.3-9.3s-4.2-9.3-9.3-9.3h-25.6"
					/>
			</g>
		</g>
	</g>
</g>
<g id="Layer_2">
</g>
</svg>
