<?xml version="1.0" encoding="utf-8"?>
<!-- Generator: Adobe Illustrator 18.0.0, SVG Export Plug-In . SVG Version: 6.00 Build 0)  -->
<!DOCTYPE svg PUBLIC "-//W3C//DTD SVG 1.1//EN" "http://www.w3.org/Graphics/SVG/1.1/DTD/svg11.dtd">
<svg version="1.1" xmlns="http://www.w3.org/2000/svg" xmlns:xlink="http://www.w3.org/1999/xlink" x="0px" y="0px"
	 viewBox="0 0 261 192.9" enable-background="new 0 0 261 192.9" xml:space="preserve">
<g id="圖層_1">
	<g>
		<g>
			<g>
				<path fill="none" stroke="#FFFFFF" stroke-miterlimit="10" d="M82.6,130.7H47.3c-5.1,0-9.3,4.2-9.3,9.3s4.2,9.3,9.3,9.3H95"/>
				<path fill="none" stroke="#FFFFFF" stroke-miterlimit="10" d="M166,149.3h47.7c5.1,0,9.3-4.2,9.3-9.3s-4.2-9.3-9.3-9.3h-35.3"/>
			</g>
			<g>
				<path fill="none" stroke="#FFFFFF" stroke-miterlimit="10" d="M181.6,117.2h69.7c5.1,0,9.3-4.2,9.3-9.3c0-5.1-4.2-9.3-9.3-9.3
					h-65.3"/>
				<path fill="none" stroke="#FFFFFF" stroke-miterlimit="10" d="M75.1,98.7H9.8c-5.1,0-9.3,4.2-9.3,9.3c0,5.1,4.2,9.3,9.3,9.3
					h69.7"/>
			</g>
			<g>
				<path fill="none" stroke="#FFFFFF" stroke-miterlimit="10" d="M72.9,66.6H47.3c-5.1,0-9.3,4.2-9.3,9.3s4.2,9.3,9.3,9.3h24.7"/>
				<path fill="none" stroke="#FFFFFF" stroke-miterlimit="10" d="M189.1,85.1h24.7c5.1,0,9.3-4.2,9.3-9.3s-4.2-9.3-9.3-9.3h-25.6"
					/>
			</g>
		</g>
		<g>
			<path fill="#898989" d="M108.1,36.6L108.1,36.6c-5.4,0-9.8-4.4-9.8-9.8v-8.5c0-5.4,4.4-9.8,9.8-9.8h0c5.4,0,9.8,4.4,9.8,9.8v8.5
				C117.9,32.2,113.5,36.6,108.1,36.6z"/>
			<g>
				<g>
					<g id="XMLID_3_">
						<g>
							<path fill="#49B989" d="M157.1,124.7l-8.5,3.8c-1.1,0.5-2.2,0.7-3.4,0.8l-2.2,0.1l-1.5-20.1l-0.4-6.1l6.7-40.6v0
								c2.2-1.3,4.3-2.9,6.2-4.7l14.3,7.9c4.1,2.3,6.3,6.9,5.4,11.6l-9.9,49.2L157.1,124.7z"/>
							<path fill="#FFE3C9" d="M163.7,126.4c0,0-2.8,7.3-10.1,12.7l3.5-14.4L163.7,126.4L163.7,126.4z"/>
							<path fill="#898989" d="M118.1,129.3l12.4,0.3l12.4-0.3l2.2-0.1c1.2,0,2.3-0.3,3.4-0.8l8.5-3.8l-3.5,14.4l-10,41.3l0,0
								l-13,3.6l-13-3.6l0,0l-10-41.3l-3.5-14.5l8.5,3.8c1.1,0.5,2.2,0.7,3.4,0.8L118.1,129.3z"/>
							<path fill="#595757" d="M152.1,186.5c0.6,0.4,0.9,1.3,0.7,2l-1,3.1c-0.2,0.8-0.9,1.3-1.7,1.3h-19.6v-8.8V184l13-3.6l0,0.1
								L152.1,186.5z"/>
							<path fill="#EFEFEF" d="M137,109.1l-3.6-36.8l-0.1-0.2l0.6-0.3c0.6-0.4,1-1.2,1-1.9l-0.2-3.1c4.7-0.6,9.1-2.1,13.1-4.4
								l-6.7,40.6l0.4,6.1l-4.4,0.3C137,109.4,137,109.3,137,109.1z"/>
							<path fill="#ECCF54" d="M133.4,72.3l3.6,36.8c0,0.1,0,0.3,0,0.4c0,0.5-0.1,1-0.3,1.4l-2.9,8c-0.3,0.8-1.1,1.4-1.9,1.4h-1.4
								h-1.4c-0.9,0-1.7-0.5-1.9-1.4l-2.9-8c-0.2-0.6-0.3-1.2-0.2-1.8l3.6-36.8l0.1-0.2l1.7,1c0.7,0.4,1.5,0.4,2.2,0l1.7-1
								L133.4,72.3z"/>
							<path fill="#FFE3C9" d="M134.6,66.9c-1.3,0.2-2.7,0.3-4.1,0.3c-1.4,0-2.8-0.1-4.1-0.3c-4.7-0.6-9.2-2.1-13.1-4.4
								c-2.2-1.3-4.3-2.9-6.2-4.7C100.9,51.6,97,43,97,33.6C97,15,112,0,130.5,0s33.6,15,33.6,33.6c0,9.5-3.9,18.1-10.3,24.2
								c-1.9,1.8-3.9,3.4-6.2,4.7v0C143.8,64.8,139.3,66.3,134.6,66.9z"/>
							<path fill="#595757" d="M130.5,184.1v8.8h-19.6c-0.8,0-1.5-0.5-1.7-1.3l-1-3.1c-0.2-0.7,0.1-1.6,0.7-2l8.6-6l0-0.1l13,3.6
								V184.1z"/>
							<path fill="#ECCF54" d="M134.8,69.9c0,0.8-0.3,1.5-1,1.9l-0.6,0.3l-1.7,1c-0.7,0.4-1.5,0.4-2.2,0l-1.7-1l-0.5-0.3
								c-0.6-0.4-1-1.2-1-1.9l0.2-3.1c1.3,0.2,2.7,0.3,4.1,0.3c1.4,0,2.8-0.1,4.1-0.3L134.8,69.9z"/>
							<path fill="#EFEFEF" d="M120.1,103.1l-6.7-40.6c3.9,2.3,8.3,3.9,13.1,4.4l-0.2,3.1c-0.1,0.8,0.3,1.5,1,1.9l0.5,0.3l-0.1,0.2
								l-3.6,36.8l-4.4-0.3L120.1,103.1z"/>
							<path fill="#EFEFEF" d="M124,109.1c-0.1,0.6,0,1.3,0.2,1.8l2.9,8c0.3,0.8,1.1,1.4,1.9,1.4h1.4h1.4c0.9,0,1.7-0.5,1.9-1.4
								l2.9-8c0.2-0.4,0.3-0.9,0.3-1.4l4.4-0.3l1.5,20.1l-12.4,0.3l-12.4-0.3l1.5-20.4L124,109.1z"/>
							<path fill="#49B989" d="M104,124.7l-6.7,1.7l-9.9-49.2c-0.9-4.6,1.3-9.3,5.4-11.6l14.4-7.9l0,0c1.9,1.8,3.9,3.4,6.2,4.7
								l6.7,40.6l-0.4,5.7l-1.5,20.4l-2.2-0.1c-1.2,0-2.3-0.3-3.4-0.8L104,124.7z"/>
							<path fill="#FFE3C9" d="M97.3,126.4l6.7-1.7l3.5,14.5C100.1,133.8,97.3,126.4,97.3,126.4L97.3,126.4z"/>
						</g>
					</g>
				</g>
				<g>
					<g>
						<path fill="#DBBEAD" d="M137.7,27.7h-29.1c-1.7,0-3.1-1.4-3.1-3.1s1.4-3.1,3.1-3.1h29.1c1.7,0,3.1,1.4,3.1,3.1
							S139.5,27.7,137.7,27.7z"/>
					</g>
					<g>
						<path fill="#DBBEAD" d="M120.7,40.1c-1.7,0-3.1-1.4-3.1-3.1V24.6c0-1.7,1.4-3.1,3.1-3.1s3.1,1.4,3.1,3.1V37
							C123.8,38.7,122.4,40.1,120.7,40.1z"/>
					</g>
					<path fill="#898989" d="M139.2,49h-30.4c-1.5,0-2.6-1.2-2.3-2.5l1.4-6.9c0.2-1,1.2-1.7,2.3-1.7h27.5c1.1,0,2.1,0.7,2.3,1.7
						l1.4,6.9C141.8,47.8,140.7,49,139.2,49z"/>
				</g>
			</g>
			<path fill="#898989" d="M154.3,36.6L154.3,36.6c-5.8,0-10.5-4.7-10.5-10.5V19c0-5.8,4.7-10.5,10.5-10.5h0
				c5.8,0,10.5,4.7,10.5,10.5v7.1C164.8,31.9,160.1,36.6,154.3,36.6z"/>
			<g opacity="0.8">
				<g>
					<path fill="#FFFFFF" d="M115.7,31.2H106c-0.6,0-1-0.4-1-1v-4.9c0-0.6,0.4-1,1-1h9.7c0.6,0,1,0.4,1,1v4.9
						C116.7,30.8,116.2,31.2,115.7,31.2z"/>
					<path fill="#DCDDDD" d="M115,32.1h-8.3c-1.4,0-2.6-1.2-2.6-2.6V26c0-1.4,1.2-2.6,2.6-2.6h8.3c1.4,0,2.6,1.2,2.6,2.6v3.5
						C117.5,30.9,116.4,32.1,115,32.1z M106.7,25.1c-0.5,0-0.9,0.4-0.9,0.9v3.5c0,0.5,0.4,0.9,0.9,0.9h8.3c0.5,0,0.9-0.4,0.9-0.9V26
						c0-0.5-0.4-0.9-0.9-0.9H106.7z"/>
				</g>
				<g>
					<path fill="#FFFFFF" d="M134.1,31.2h-9.7c-0.6,0-1-0.4-1-1v-4.9c0-0.6,0.4-1,1-1h9.7c0.6,0,1,0.4,1,1v4.9
						C135.1,30.8,134.7,31.2,134.1,31.2z"/>
					<path fill="#DCDDDD" d="M133.4,32.1h-8.3c-1.4,0-2.6-1.2-2.6-2.6V26c0-1.4,1.2-2.6,2.6-2.6h8.3c1.4,0,2.6,1.2,2.6,2.6v3.5
						C136,30.9,134.9,32.1,133.4,32.1z M125.2,25.1c-0.5,0-0.9,0.4-0.9,0.9v3.5c0,0.5,0.4,0.9,0.9,0.9h8.3c0.5,0,0.9-0.4,0.9-0.9V26
						c0-0.5-0.4-0.9-0.9-0.9H125.2z"/>
				</g>
			</g>
		</g>
	</g>
</g>
<g id="Layer_2">
</g>
</svg>
