<svg id="圖層_1" xmlns="http://www.w3.org/2000/svg" width="175" height="50" viewBox="0 0 175 50"><path d="M45 47.324c-12.308 0-22.283-9.854-22.283-22.164C22.717 12.854 32.692 3 45 3h85c12.306 0 22.282 9.854 22.282 22.16 0 12.31-9.977 22.224-22.28 22.224l-85-.06z" fill="#ecf0f1"/><g fill="#333"><path d="M80.82 29.66c1.343.42 2.768.91 3.648 1.275l-1.804.812c-.824-.42-2.29-1.022-3.76-1.457l1.035-.63h-3.663l1.09.476c-1.146.673-2.977 1.274-4.43 1.61-.28-.308-.84-.91-1.203-1.176 1.3-.21 2.74-.52 3.72-.91H73.58v-5.407h5.03a3.91 3.91 0 0 0-.67-.967v.238c-2.04.476-2.487.588-2.712.714l-.027.015-.013-.14c-.084-.28-.28-.66-.42-.827.238-.112.545-.378.545-.938v-.225h-.67c-.225 1.135-.783 1.976-2.237 2.536-.14-.31-.503-.828-.77-1.052 1.063-.322 1.497-.826 1.68-1.485h-1.44v-1.036h1.09a3.62 3.62 0 0 0-1.007-.574c.447-.532.755-1.19.923-1.75l1.118.18c-.055.184-.11.365-.182.533h.7v-.854h1.327v.854h1.79v1.01h-1.79v.602h2.055v1.036h-1.27v.673l1.382-.28a5.39 5.39 0 0 0-.07.7c.965-.238 1.385-.574 1.58-1.093h-1.27v-1.036h.796a3.68 3.68 0 0 0-.98-.574c.476-.532.783-1.19.966-1.75l1.13.18c-.054.184-.124.365-.194.548h.67v-.87h1.343v.87h1.973V20.5H81.98v.588h2.39v1.036h-1.648v.7c0 .295.027.31.182.31h.405c.18 0 .223-.085.265-.673.224.183.712.35 1.062.42-.125 1.037-.433 1.317-1.146 1.317h-.796c-1.048 0-1.258-.322-1.258-1.358v-.716h-.6c-.21 1.01-.757 1.682-2.126 2.13h4.193v5.406H80.82zm-7.436-9.175c-.112.21-.25.406-.392.603h1.523v-.603h-1.13zm1.818 5.282h6.01v-.56h-6.01v.56zm0 1.47h6.01v-.574h-6.01v.574zm0 1.47h6.01v-.573h-6.01v.574zm4.29-8.207a7.322 7.322 0 0 1-.39.588h1.536V20.5h-1.145zM99.598 22.39c-.125 5.744-.252 7.803-.713 8.447-.32.477-.656.63-1.16.715-.447.084-1.174.07-1.9.042-.028-.448-.195-1.148-.49-1.583.686.043 1.314.057 1.622.057.224 0 .364-.042.49-.237.32-.38.446-2.115.53-6.612h-1.48c-.21 3.698-.965 6.64-3.663 8.503-.25-.405-.77-.966-1.16-1.26.685-.462 1.23-.98 1.65-1.583-2.14.532-4.432 1.064-6.138 1.47l-.266-1.708c.28-.057.615-.112.965-.183v-9.245h4.85v8.25l.602-.126.154 1.317c.937-1.457 1.272-3.264 1.398-5.436h-1.775V21.65h1.83c.015-.954.015-1.948.015-3.013h1.636c0 1.05 0 2.06-.028 3.012H99.6v.74zm-10.245-1.68v1.414h1.845V20.71h-1.845zm1.845 2.87h-1.845v1.444h1.845V23.58zm-1.845 4.596c.587-.112 1.202-.252 1.845-.378V26.48h-1.845v1.696zM114.743 25.276a13.827 13.827 0 0 1-2.32 3.067c.377 1.08.81 1.723 1.23 1.723.293 0 .46-.672.53-2.325.364.394.923.772 1.37.954-.266 2.45-.783 3.067-2.055 3.067-1.02 0-1.803-.84-2.404-2.212-.81.672-1.69 1.246-2.586 1.71a7.216 7.216 0 0 0-1.104-1.346 14.227 14.227 0 0 0 3.117-1.976c-.308-1.106-.544-2.38-.712-3.754h-2.838v1.597c.713-.127 1.44-.267 2.152-.393l.126 1.513-2.278.462v2.396c0 .91-.195 1.358-.754 1.625-.546.266-1.385.336-2.517.322-.07-.463-.35-1.22-.588-1.682.783.042 1.594.028 1.845.015.25 0 .335-.07.335-.295v-2.03c-.895.182-1.76.364-2.502.504l-.404-1.68c.797-.127 1.803-.28 2.906-.478V24.18h-2.64V22.6h2.64V21a47.15 47.15 0 0 1-2.236.308c-.07-.405-.293-1.022-.475-1.4 1.958-.266 4.124-.714 5.55-1.177l1.118 1.415a27.14 27.14 0 0 1-2.278.56V22.6h2.684a50.464 50.464 0 0 1-.168-3.838h1.748a34.537 34.537 0 0 0 .14 3.838h3.802v1.583h-3.635c.113.84.253 1.653.407 2.367.502-.603.964-1.232 1.327-1.905l1.47.63zm-1.02-3.082c-.364-.645-1.23-1.64-1.986-2.312l1.26-.854c.74.645 1.662 1.57 2.067 2.228l-1.342.938zM121.766 19.127a26.39 26.39 0 0 1-1.062 2.73v9.82h-1.58V24.73c-.266.405-.56.784-.838 1.12-.14-.393-.573-1.316-.84-1.723 1.133-1.317 2.168-3.39 2.782-5.45l1.538.45zm3.9 5.644h-2.446v6.92h-1.537V19.394h3.982v5.378zm-2.447-4.117v.785h1.187v-.785h-1.188zm1.187 2.858v-.867h-1.188v.868h1.187zm5.982 6.262c0 .91-.196 1.358-.755 1.61-.574.253-1.44.295-2.74.28-.07-.447-.32-1.162-.53-1.582.838.042 1.802.042 2.082.027.266 0 .363-.084.363-.35V24.77h-2.6v-5.38h4.18v10.382zm-2.866-9.12v.786h1.286v-.785h-1.286zm1.286 2.86v-.87h-1.286v.87h1.286z"/></g><path d="M52.125 37c17.66-8.94 13.674-21.103 9.014-22.963a7.645 7.645 0 0 0-9.015 2.134s-3.297-4.412-9.015-2.133C38.452 15.897 34.463 28.06 52.125 37z" fill="#333"/><path d="M53.932 24.543l-.658-.163v-2.748c.88.36 1.047 1.038 1.092 1.387h2.096c-.016-1.143-.836-2.91-3.188-3.37V18.21h-.537v1.366a9.103 9.103 0 0 0-1.223-.023v-1.343h-.537v1.392c-2.875.365-3.45 2.17-3.45 3.247 0 2.122 1.657 2.707 3.45 3.108v2.76c-.887-.298-1.232-.913-1.262-1.44h-2.013c0 1.23.938 2.96 3.275 3.453v1.444h.537V30.82c.28.033.705.062 1.223.037v1.316h.537v-1.36c1.377-.185 3.453-.897 3.453-3.46 0-1.37-1.185-2.448-2.795-2.81zm-2.955-.72c-.508-.11-1.326-.345-1.326-1.14 0-.683.632-1.038 1.327-1.192v2.332zm1.76 5.075a5.388 5.388 0 0 1-1.223-.053v-2.772l1.223.27v2.555zm0-4.642c-.484-.112-.926-.225-1.223-.3V21.41a4.51 4.51 0 0 1 1.223.078v2.77zm.537 4.572v-2.36c.834.218 1.385.497 1.385 1.155 0 .79-.622 1.092-1.386 1.205z" fill="#fff"/></svg>