<svg id="圖層_1" xmlns="http://www.w3.org/2000/svg" width="175" height="50" viewBox="0 0 175 50"><path d="M45.001 47.324c-12.309 0-22.284-9.854-22.284-22.164C22.717 12.854 32.692 3 45.001 3h85c12.305 0 22.281 9.854 22.281 22.16 0 12.31-9.977 22.224-22.281 22.224l-85-.06z" fill="#ecf0f1"/><g fill="#333"><path d="M80.821 29.66c1.342.421 2.767.911 3.647 1.275l-1.804.812c-.824-.421-2.291-1.022-3.76-1.457l1.035-.631h-3.662l1.09.477c-1.146.673-2.977 1.274-4.431 1.611-.28-.309-.839-.911-1.202-1.177 1.3-.21 2.74-.519 3.719-.911H73.58v-5.406h5.031a3.91 3.91 0 0 0-.671-.967v.238c-2.04.476-2.487.588-2.712.714l-.027.015-.014-.141c-.084-.28-.28-.658-.42-.826.238-.112.545-.378.545-.938v-.225h-.671c-.224 1.135-.782 1.976-2.236 2.536-.14-.309-.503-.827-.769-1.051 1.062-.322 1.496-.826 1.678-1.485h-1.439v-1.036h1.09a3.62 3.62 0 0 0-1.007-.574c.447-.532.755-1.19.923-1.751l1.117.182a5.274 5.274 0 0 1-.182.532h.699v-.854h1.328v.854h1.789v1.009h-1.789v.603h2.055v1.036h-1.271v.673l1.383-.28a5.39 5.39 0 0 0-.069.7c.964-.238 1.384-.574 1.579-1.093h-1.271v-1.036h.797a3.68 3.68 0 0 0-.979-.574c.475-.532.782-1.19.965-1.751l1.131.182c-.055.183-.125.364-.195.547h.671v-.869h1.342v.869h1.972V20.5H81.98v.588h2.39v1.036h-1.648v.701c0 .294.027.308.182.308h.405c.182 0 .224-.084.266-.672.224.182.712.35 1.062.42-.125 1.036-.433 1.316-1.146 1.316h-.797c-1.048 0-1.258-.322-1.258-1.358v-.715h-.601c-.21 1.009-.756 1.682-2.125 2.13h4.193v5.406h-2.082zm-7.437-9.175c-.112.21-.251.406-.392.603h1.523v-.603h-1.131zm1.818 5.282h6.01v-.561h-6.01v.561zm0 1.47h6.01v-.574h-6.01v.574zm0 1.471h6.01v-.574h-6.01v.574zm4.291-8.208a7.322 7.322 0 0 1-.392.588h1.537V20.5h-1.145zM99.598 22.391c-.125 5.743-.252 7.802-.713 8.446-.321.477-.656.631-1.16.715-.447.084-1.174.07-1.9.042-.028-.448-.195-1.148-.489-1.583.685.042 1.313.056 1.621.056.224 0 .364-.042.489-.237.322-.379.447-2.115.531-6.612h-1.481c-.21 3.698-.964 6.64-3.662 8.503-.251-.406-.769-.967-1.16-1.261.685-.462 1.229-.98 1.649-1.583-2.139.532-4.431 1.064-6.137 1.471l-.266-1.709c.28-.056.615-.111.965-.182v-9.245h4.85v8.25l.602-.126.154 1.317c.936-1.457 1.271-3.264 1.397-5.436h-1.775v-1.568h1.831c.014-.953.014-1.947.014-3.012h1.636c0 1.051 0 2.059-.028 3.012h3.033v.742zM89.353 20.71v1.414h1.845V20.71h-1.845zm1.845 2.871h-1.845v1.443h1.845v-1.443zm-1.845 4.595c.587-.112 1.202-.252 1.845-.378V26.48h-1.845v1.696zM114.743 25.276a13.827 13.827 0 0 1-2.32 3.067c.377 1.079.811 1.723 1.23 1.723.293 0 .461-.672.531-2.325.363.393.922.771 1.369.953-.266 2.451-.783 3.067-2.055 3.067-1.02 0-1.803-.841-2.404-2.213a14.553 14.553 0 0 1-2.586 1.709 7.216 7.216 0 0 0-1.104-1.345 14.227 14.227 0 0 0 3.117-1.976c-.309-1.106-.545-2.381-.713-3.754h-2.838v1.597c.713-.126 1.439-.266 2.152-.392l.126 1.513-2.278.462v2.396c0 .91-.195 1.358-.754 1.625-.546.266-1.385.336-2.517.322-.069-.463-.35-1.219-.587-1.682.783.042 1.594.028 1.845.015.251 0 .335-.07.335-.295v-2.03c-.895.182-1.76.364-2.502.504l-.404-1.681c.797-.126 1.803-.28 2.906-.477v-1.877h-2.641v-1.583h2.641v-1.597c-.754.126-1.523.224-2.236.308-.069-.405-.293-1.022-.475-1.4 1.957-.266 4.123-.714 5.549-1.177l1.118 1.415a27.14 27.14 0 0 1-2.278.561V22.6h2.684a50.464 50.464 0 0 1-.168-3.838h1.748a34.537 34.537 0 0 0 .139 3.838h3.803v1.583h-3.635c.112.841.252 1.653.406 2.367.502-.603.964-1.232 1.327-1.905l1.469.631zm-1.021-3.082c-.363-.645-1.229-1.639-1.985-2.312l1.259-.854c.741.645 1.663 1.569 2.068 2.228l-1.342.938zM121.766 19.127c-.294.91-.657 1.835-1.062 2.731v9.819h-1.58v-6.948a12.48 12.48 0 0 1-.838 1.121c-.141-.393-.573-1.316-.839-1.723 1.132-1.317 2.167-3.391 2.781-5.449l1.538.449zm3.899 5.644h-2.445v6.92h-1.537V19.393h3.982v5.378zm-2.446-4.118v.785h1.188v-.785h-1.188zm1.188 2.858v-.868h-1.188v.868h1.188zm5.982 6.261c0 .91-.195 1.358-.754 1.611-.574.252-1.439.294-2.74.28-.07-.448-.321-1.163-.531-1.583.839.042 1.803.042 2.083.027.266 0 .363-.084.363-.35V24.77h-2.6v-5.379h4.179v10.381zm-2.865-9.119v.785h1.286v-.785h-1.286zm1.286 2.858v-.868h-1.286v.868h1.286z"/></g><path d="M52.125 37c17.66-8.941 13.674-21.103 9.014-22.963a7.645 7.645 0 0 0-9.014 2.134s-3.297-4.413-9.015-2.134c-4.658 1.86-8.647 14.022 9.015 22.963z" fill="#333"/><path d="M53.932 24.543l-.658-.163v-2.748c.879.359 1.047 1.038 1.092 1.387h2.096c-.016-1.142-.836-2.91-3.188-3.37v-1.437h-.537v1.366a9.103 9.103 0 0 0-1.223-.023v-1.343h-.537v1.392c-2.875.365-3.451 2.171-3.451 3.247 0 2.121 1.658 2.706 3.451 3.107v2.759c-.887-.297-1.232-.912-1.262-1.439h-2.013c0 1.23.938 2.959 3.275 3.453v1.443h.537V30.82c.279.033.705.062 1.223.037v1.316h.537v-1.359c1.377-.186 3.453-.898 3.453-3.461 0-1.371-1.185-2.448-2.795-2.81zm-2.955-.721c-.508-.109-1.326-.344-1.326-1.139 0-.683.631-1.038 1.326-1.192v2.331zm1.76 5.076a5.388 5.388 0 0 1-1.223-.053v-2.772l1.223.269v2.556zm0-4.642c-.484-.112-.926-.225-1.223-.299v-2.549a4.51 4.51 0 0 1 1.223.078v2.77zm.537 4.572v-2.361c.834.219 1.385.498 1.385 1.156 0 .789-.621 1.092-1.385 1.205z" fill="#fff"/></svg>