<svg id="圖層_1" xmlns="http://www.w3.org/2000/svg" width="58.999" height="50" viewBox="0 0 58.999 50"><path d="M7.217 24.998c0-12.306 9.975-22.28 22.28-22.28 12.306 0 22.284 9.975 22.284 22.28 0 12.31-9.978 22.284-22.282 22.284-12.307 0-22.28-9.974-22.28-22.284z" fill="#ecf0f1"/><path d="M39.55 32.642a2.418 2.418 0 0 1-2.41 2.41H21.856a2.416 2.416 0 0 1-2.41-2.41V17.36a2.418 2.418 0 0 1 2.41-2.412h15.28a2.42 2.42 0 0 1 2.413 2.412v15.282z" fill="#333"/><path d="M21.775 23.456v8.352a.94.94 0 0 0 .94.938H36.38a.94.94 0 0 0 .936-.938v-8.352h-15.54z" fill="#fff"/><circle cx="29.479" cy="24.998" r="6.187" fill="#333"/><circle cx="29.479" cy="24.998" r="3.862" fill="#fff"/><path d="M37.316 20.198a.942.942 0 0 1-.936.938h-2.102a.942.942 0 0 1-.938-.938v-2.1a.94.94 0 0 1 .938-.94h2.102a.94.94 0 0 1 .936.94v2.1z" fill="#fff"/></svg>