<svg id="圖層_1" xmlns="http://www.w3.org/2000/svg" width="271.5" height="50" viewBox="0 0 271.5 50"><path fill="#c6000b" d="M50.432 40.1l-17.567-4.12V14.02l17.567-4.85z"/><path fill="#e50012" d="M5.966 48.52l27.447-12.54V14.02L5.966 1.48z"/><g fill="#231815"><path d="M152.574 13.065s1.068-.473 1.336-1.628h2.37v1.984h-3.823l.117-.355zM160.02 19.422s1.065-.476 1.332-1.63h2.37v1.983H159.9l.12-.353zM155.54 25.044s1.065-.476 1.333-1.632h2.37v1.986h-3.822l.12-.354z"/><path d="M139.742 13.044h16.53v.744h-16.53zM136.44 19.38h27.292v.742h-27.29zM145.282 24.973h12.867v.8H145.28zM143.873 30.62h14.38v.743h-14.38zM143.873 35.71h14.38v.743h-14.38z"/><path d="M142.706 26.27h2.317v13.246h-2.317zM156.87 25.14h2.385v14.43h-2.386zM147.277 8.688h2.422v11.406h-2.423z"/><path d="M158.953 10.54s-6.23 12.37-24.692 19.725l.235.656s17.99-5.106 26.66-19.022l-2.202-1.36z"/></g><g fill="#231815"><path d="M123.69 13.21s1.065-.473 1.332-1.63h2.372v1.987h-3.824l.12-.356zM122.86 31.584s1.066-.476 1.334-1.63h2.37v1.984h-3.823l.12-.354z"/><path d="M108.006 13.222h19.374v.742h-19.374zM110.104 15.854h14.48v.8h-14.48zM110.14 18.7h14.48v.743h-14.48zM110.104 21.334h14.48v.743h-14.48zM110.104 24.04h14.48v.74h-14.48zM97.287 19.035h7.398v.743h-7.398z"/><path d="M102.66 18.985h2.425v6.44h-2.425zM124.453 13.22s.843-.376 1.055-1.29h1.872v1.57h-3.022l.095-.28z"/><path d="M102.155 19.007s.844-.375 1.055-1.29h1.873v1.57h-3.02l.092-.28zM99.126 31.445h27.438v.743H99.126z"/><path d="M123.612 31.442s.843-.374 1.054-1.288h1.874v1.57h-3.022l.094-.282zM122.22 15.9s.883-.393 1.104-1.35h1.963v1.644h-3.166l.1-.294zM102.63 19.03s.705-.316.883-1.083h1.572v1.317h-2.536l.08-.235zM99.617 10.87l.387-.597s3.514.844 5.095 3.9l-1.828 1.3c0 .002-2.004-3.793-3.655-4.603zM110.686 8.812l.338-.41s2.32.262 3.964 2.73l-2.02 1.083s-.748-2.242-2.282-3.403zM119.475 9.123s-1.112 3.68-1.534 4.373h.652s2.226-2.303 3.72-4.297l-2.837-.077zM98.07 26.866l4.78-2.18.352.598-3.585 4.218zM104.958 24.058s1.113 2.73 7.953 2.896c0 0 8.94.47 13.45-.328v1.93s-18.978 2.11-21.718-3.864l.316-.634z"/><path d="M109.056 14.816h2.354v10.906h-2.354zM122.893 15.892h2.388v9.87h-2.387zM107.23 34.188l.385-.387s2.742.633 4.357 3.022l-1.825 1.58s-2.18-3.97-2.918-4.214zM117.813 29.63h2.384v7.912c0 .782-.187 1.54-.826 2.01-.358.263-1.078.62-1.542.487-.606-.177-.493-.95-.818-1.355-.344-.424-1.164-.528-1.677-.528l.02-.5h1.462s1.027.154 1.027-.846c0-.998-.03-7.18-.03-7.18z"/></g><g fill="#231815"><path d="M59.743 14.2h14.95v.735h-14.95zM77.095 11.287h9.116v.735h-9.115zM77.652 23.542h10.556v.677H77.652z"/><path d="M65.426 9.246h2.4v10.887h-2.4zM76.2 9.58h2.23v30.04H76.2zM65.426 25.765h2.4v14.032h-2.4zM71.03 14.193s1.056-.47 1.32-1.613h2.347v1.966h-3.784l.117-.353zM71.03 31.063s1.056-.47 1.32-1.614h2.347v1.966h-3.784l.117-.353zM83.82 11.363s1.056-.47 1.32-1.615h2.347v1.967H83.7l.12-.352zM71.144 25.365s1.056-.47 1.32-1.615h2.347v1.968h-3.783l.117-.353zM71.095 19.685s1.056-.47 1.32-1.612h2.347v1.964h-3.785l.118-.352z"/><path d="M58.555 19.695H74.76v.735H58.555zM58.646 25.34h16.15v.736h-16.15z"/><path d="M71.895 25.305s.835-.373 1.043-1.276h1.855v1.553H71.8l.095-.278zM59.754 30.925H74.7v.737H59.755zM61.98 21.25l.512-.302s1.925 1.95 2.783 3.71l-1.878.813c0 .002-.95-3.733-1.416-4.22zM69.127 20.716l2.854 1.138s-2.667 2.852-3.55 3.548l-.37-.232s.743-2.274 1.067-4.454zM85.158 11.282v8.136s.124 1.083-.79 1.083h-.958v.54s1.372.084 1.372.875c0 .788 2.705 1.372 2.705-2.498V11.2l-2.33.082zM85.805 23.514s-.813 9.638-6.73 16.34l.25.408s7.693-6.64 8.94-16.537l-2.46-.21z"/><path d="M79.82 25.122s1.668 8.862 9.88 12.517l-1.88 2.4s-6.993-3.436-8.523-14.813l.522-.105z"/></g><g fill="#231815"><path d="M175.775 20.354h1.205v-7.392h-2.247v1.488h-1.178v-2.6h8.204v2.6h-1.18v-1.488h-2.247v7.392h1.205v1.056h-3.764v-1.056zM185.576 20.354h1.19v-7.46h-1.19v-1.043h3.75v1.045h-1.206v3.182h4.956v-3.182h-1.205V11.85h3.75v1.045h-1.19v7.46h1.19v1.055h-3.75v-1.056h1.206v-3.168h-4.956v3.168h1.206v1.056h-3.75v-1.056zM199.762 20.354h1.19v-7.46h-1.19v-1.043h6.918v2.22h-1.177v-1.107h-3.196v3.07h3.386v1.113h-3.386V20.3h3.426v-1.15h1.178v2.26h-7.147v-1.056zM173.496 36.867h1.19v-7.46h-1.19v-1.044h4.143c.677 0 1.23.027 1.76.203 1 .34 1.665 1.18 1.665 2.48 0 1.38-.758 2.366-1.977 2.68v.026s.244.136.406.446l1.354 2.356c.148.258.326.312.663.312h.286v1.056h-.812c-.812 0-1-.15-1.326-.72l-1.477-2.612c-.242-.405-.418-.526-1-.526h-1.14v2.803h1.18v1.056h-3.724v-1.056zm4.47-3.914c1.042 0 1.732-.677 1.732-1.8 0-.746-.298-1.26-.895-1.503-.312-.122-.718-.177-1.178-.177h-1.585v3.48h1.925zM185.64 36.867h1.19v-7.46h-1.19v-1.044h6.917v2.22h-1.178v-1.11h-3.196v3.073h3.385v1.11h-3.386v3.156h3.427v-1.15h1.178v2.26h-7.148v-1.055zM196.9 36.867h1.193v-7.46H196.9v-1.044h4.455c.582 0 1.164.04 1.64.258.987.42 1.624 1.435 1.624 2.71 0 1.34-.706 2.422-1.803 2.8-.446.164-.907.204-1.435.204h-1.936v2.533h1.205v1.056h-3.75v-1.056zm4.32-3.642c.434 0 .772-.07 1.07-.188.608-.272.96-.883.96-1.707 0-.772-.31-1.34-.852-1.624-.298-.164-.704-.23-1.164-.23h-1.787v3.75h1.774zM213.295 28.2c2.762 0 4.915 2.126 4.915 4.875 0 2.816-2.153 5.01-4.915 5.01-2.775 0-4.914-2.193-4.914-5.01 0-2.75 2.14-4.874 4.915-4.874zm0 8.68c1.936 0 3.508-1.65 3.508-3.805 0-2.087-1.572-3.682-3.508-3.682-1.95 0-3.52 1.595-3.52 3.682 0 2.154 1.57 3.804 3.52 3.804zM222.188 36.867h1.19v-7.46h-1.19v-1.044h4.143c.68 0 1.233.027 1.76.203 1.005.34 1.667 1.18 1.667 2.48 0 1.38-.758 2.366-1.977 2.68v.026s.243.136.406.446l1.354 2.356c.15.258.325.312.664.312h.283v1.056h-.81c-.815 0-1.005-.15-1.33-.72l-1.475-2.612c-.243-.405-.42-.526-1.002-.526h-1.137v2.803h1.18v1.056h-3.726v-1.056zm4.467-3.914c1.044 0 1.733-.677 1.733-1.8 0-.746-.3-1.26-.895-1.503-.31-.122-.717-.177-1.177-.177h-1.584v3.48h1.923zM236.172 36.867h1.204v-7.394h-2.247v1.49h-1.18v-2.6h8.206v2.6h-1.18v-1.49h-2.246v7.394h1.205v1.056h-3.764v-1.056zM245.97 36.867h1.193v-7.46h-1.192v-1.044h6.92v2.22h-1.178v-1.11h-3.195v3.073h3.384v1.11h-3.383v3.156h3.426v-1.15h1.178v2.26h-7.148v-1.055zM257.234 36.867h1.19v-7.46h-1.19v-1.044h4.143c.678 0 1.23.027 1.76.203 1.002.34 1.666 1.18 1.666 2.48 0 1.38-.758 2.366-1.977 2.68v.026s.243.136.406.446l1.353 2.356c.15.258.325.312.664.312h.283v1.056h-.812c-.81 0-1-.15-1.325-.72l-1.477-2.612c-.243-.405-.42-.526-1.002-.526h-1.138v2.803h1.18v1.056h-3.724v-1.056zm4.467-3.914c1.044 0 1.734-.677 1.734-1.8 0-.746-.298-1.26-.894-1.503-.31-.122-.717-.177-1.178-.177h-1.585v3.48h1.924z"/></g></svg>