<svg id="圖層_1" xmlns="http://www.w3.org/2000/svg" width="123.666" height="50" viewBox="0 0 123.666 50"><g fill="#333"><path d="M27.695 26.67c0-.25-.083-.444-.25-.58s-.463-.282-.893-.436c-.898-.283-1.563-.587-1.997-.91-.434-.324-.65-.792-.65-1.404 0-.596.26-1.077.775-1.445.516-.368 1.17-.552 1.965-.552.787 0 1.434.202 1.936.608.505.405.747.928.73 1.565l-.01.03h-1.6a.897.897 0 0 0-.288-.692c-.192-.177-.458-.266-.796-.266-.332 0-.592.073-.78.22s-.284.327-.284.542c0 .207.096.374.285.5.19.125.55.282 1.072.47.806.242 1.414.538 1.823.89.408.352.612.835.612 1.45 0 .625-.243 1.114-.73 1.467-.486.354-1.132.53-1.936.53-.81 0-1.506-.202-2.096-.608-.59-.405-.875-.99-.86-1.75l.01-.03h1.607c0 .41.11.703.333.88s.557.263 1.006.263c.34 0 .596-.068.764-.205a.664.664 0 0 0 .25-.538zM37.113 25.64c0 .876-.277 1.598-.833 2.165-.555.568-1.28.853-2.175.853-.9 0-1.632-.284-2.192-.853-.56-.567-.84-1.29-.84-2.165v-1.28c0-.872.28-1.594.838-2.163.56-.57 1.287-.854 2.186-.854.892 0 1.618.285 2.178.854s.84 1.29.84 2.163v1.28zm-1.645-1.29c0-.507-.12-.924-.36-1.25-.237-.324-.575-.487-1.012-.487-.446 0-.787.162-1.022.485-.236.324-.354.742-.354 1.253v1.29c0 .515.12.935.358 1.26.24.325.582.488 1.028.488.433 0 .77-.163 1.006-.488s.356-.745.356-1.26v-1.29zM44.905 21.445v4.658c0 .81-.27 1.438-.81 1.885-.537.446-1.243.67-2.115.67-.882 0-1.593-.224-2.134-.67s-.81-1.074-.81-1.885v-4.658h1.654v4.658c0 .437.112.76.337.97.225.21.542.314.952.314.406 0 .72-.104.94-.312.218-.208.328-.532.328-.972v-4.658h1.657zM48.645 25.83v2.725H46.99v-7.11h2.734c.824 0 1.477.19 1.958.572s.723.9.723 1.562c0 .367-.097.683-.29.946-.194.264-.48.48-.857.645.436.125.75.33.94.62.19.286.285.645.285 1.075v.45c0 .185.028.396.083.634s.15.406.288.507v.098h-1.7c-.13-.1-.215-.28-.256-.537a4.67 4.67 0 0 1-.06-.713v-.43c0-.34-.09-.598-.27-.776s-.44-.27-.786-.27h-1.137zm0-1.27h1.09c.33 0 .585-.075.76-.226.177-.152.265-.37.265-.652 0-.29-.09-.523-.27-.7-.18-.178-.437-.267-.765-.267h-1.08v1.846zM60.128 26.06l.01.03c-.033.832-.28 1.47-.74 1.908-.46.44-1.13.66-2.004.66-.88 0-1.594-.272-2.144-.812s-.825-1.242-.825-2.104v-1.484c0-.86.265-1.56.793-2.102.53-.543 1.217-.813 2.063-.813.9 0 1.586.227 2.062.68s.743 1.095.806 1.928l-.01.03h-1.606c-.022-.462-.126-.806-.31-1.03-.185-.225-.498-.337-.94-.337-.374 0-.67.15-.884.452-.215.3-.322.695-.322 1.184v1.493c0 .49.117.89.352 1.19s.557.455.967.455c.396 0 .68-.105.845-.317s.26-.548.283-1.01h1.605zM66.46 25.513h-2.788v1.772h3.286v1.27h-4.94v-7.11h4.95v1.27h-3.296v1.53h2.788v1.268zM77.732 26.06l.01.03c-.032.832-.28 1.47-.74 1.908-.46.44-1.128.66-2.004.66-.88 0-1.593-.272-2.144-.812s-.825-1.242-.825-2.104v-1.484c0-.86.264-1.56.793-2.102.528-.543 1.217-.813 2.062-.813.898 0 1.586.227 2.06.68s.745 1.095.807 1.928l-.01.03h-1.606c-.023-.462-.126-.806-.31-1.03-.185-.225-.497-.337-.94-.337-.375 0-.67.15-.884.452-.215.3-.322.695-.322 1.184v1.493c0 .49.117.89.352 1.19s.557.455.967.455c.396 0 .678-.105.844-.317s.26-.548.283-1.01h1.605zM85.5 25.64c0 .876-.277 1.598-.833 2.165-.555.568-1.28.853-2.175.853-.9 0-1.632-.284-2.192-.853-.56-.567-.84-1.29-.84-2.165v-1.28c0-.872.28-1.594.838-2.163.558-.57 1.286-.854 2.185-.854.892 0 1.618.285 2.178.854s.84 1.29.84 2.163v1.28zm-1.646-1.29c0-.507-.12-.924-.36-1.25-.237-.324-.575-.487-1.012-.487-.446 0-.787.162-1.022.485-.236.324-.354.742-.354 1.253v1.29c0 .515.12.935.358 1.26.24.325.582.488 1.028.488.433 0 .77-.163 1.006-.488s.356-.745.356-1.26v-1.29zM87.457 28.555v-7.11h2.568c.837 0 1.536.273 2.1.82.563.544.845 1.243.845 2.096v1.28c0 .856-.28 1.556-.845 2.1s-1.263.815-2.1.815h-2.568zm1.655-5.84v4.57h.8c.44 0 .784-.15 1.03-.45.248-.303.372-.7.372-1.195v-1.29c0-.49-.124-.886-.37-1.186s-.592-.45-1.03-.45h-.802zM99.434 25.513h-2.788v1.772h3.286v1.27H94.99v-7.11h4.95v1.27h-3.295v1.53h2.788v1.268z"/></g><path fill="none" stroke="#333" stroke-width="2" stroke-miterlimit="10" d="M16.333 15h90v21h-90z"/></svg>