<svg id="4131fd3e-18f5-4e1d-a47b-964192981a43" data-name="圖層 1" xmlns="http://www.w3.org/2000/svg" viewBox="0 0 97.8 72.8"><title>cloud-right-top</title><path d="M957.8 5779.4c7.4 12.3 3.6 30.2-11.4 32.9.3 12.7-10 22.7-22.7 24s-22.7-5.1-27.1-16.2c-12.2 3.9-30.4.4-32.7-14.1s9.2-22.9 21.4-22.2a20.3 20.3 0 0 1 3.5-11.3 22.4 22.4 0 0 1 9.5-7.6l.6-.2c8.5-2.5 16.5.6 22.9 6.2 12.3-9.9 27.8-5.1 36 8.5zm-14 28.3c15.4-.9 15.2-19.1 7.9-28.5s-19-12.1-28.2-3.4a2.5 2.5 0 0 1-3.5 0c-5.4-5.2-12.2-8.5-19.7-6.5s-10.8 9-10 17.2c.2 1.7-1.6 2.7-3.1 2.4-12.1-2.5-25.1 11.7-15.5 22.5 5.7 6.4 18.5 6.2 25.7 3.2 1.3-.5 2.7.6 3 1.7 2.8 8.8 8.2 13.9 17.7 15 11.8 1.4 25.2-7.4 23.3-20.6a2.5 2.5 0 0 1 2.4-3z" transform="translate(-863.6 -5763.7)"/><path d="M951.7 5779.2c7.3 9.4 7.5 27.6-7.9 28.5a2.5 2.5 0 0 0-2.4 3.1c1.9 13.2-11.5 21.9-23.3 20.6-9.5-1.1-14.9-6.2-17.7-15-.4-1.1-1.8-2.2-3-1.7-7.3 3-20.1 3.2-25.7-3.2-9.6-10.9 3.4-25 15.5-22.5 1.4.3 3.3-.7 3.1-2.4-.7-8.2 2.7-13.8 10-17.2s14.3 1.3 19.7 6.5a2.5 2.5 0 0 0 3.5 0c9.1-8.8 20.5-6.5 28.2 3.3z" transform="translate(-863.6 -5763.7)" fill="#7baaaa"/></svg>