<svg id="6704f4fe-f9ce-4ca9-b071-a4e554450f02" data-name="圖層 1" xmlns="http://www.w3.org/2000/svg" viewBox="0 0 566.4 432.3"><title>dialog</title><path d="M789.5 5115.6c28.4 7.1 49.8 38 48.8 66.8-1 27.1-17.5 50-42.9 58.6 2.9 26.7-3.2 56.2-24.3 74.6-16.9 14.8-43.1 19-62.1 6.4-6.8 17.9-20 32.6-38.5 39-22.1 7.7-42.2.5-60.2-12.3-4 18-25.2 25-39.5 13.4-10.2 21.9-38.3 30.4-61 29.2-27.7-1.5-54.1-18.5-66.7-43-15.5 28.4-57.6 28-71.9-1.6a25.3 25.3 0 0 1-24.8 9h-.1l-.8-.2c-8.5-3-16.6-9.9-17.8-19.3a26.1 26.1 0 0 1 1.2-12.3c-11.9-1.6-23.8-12.3-28.2-22.6-3.4-8-3.4-17.5-1.1-25.8 1.1-3.9 5.1-9.2 2.2-12.2s-6.1-2.5-8.2-3.9c-29.7-19.5-28.2-61.5.3-80.7-14.3-14.2-24.6-34.1-19.6-54.5 4-16.4 16.7-29.2 32.9-31.8-10.9-22.5 3.1-53.7 18.7-70.3 20.3-21.7 58-26.9 80.7-7.2a24.2 24.2 0 0 1 8.9-10.9 21.6 21.6 0 0 1 24.7.4c5.9-18.3 18.3-30.5 38.2-34.7 17.9-3.8 36.2 1.6 50 12.4 52.2-42.2 131.7-24.1 159.4 37.6 8.5-2.3 22.7 1.4 28.6 3.9 13.8 5.9 25.8 18.6 26.7 33.9 16.7.1 30 8.5 39.3 22.8 4.4 6.8 11.7 25.2 7.1 35.3zm42.2 68.6c2-27.9-20-59.5-48.5-63.2-2.5-.3-4.2-4.1-1.8-5.7s2.4-11.5 2-14.7c-.8-6.9-3.9-13.3-7.9-18.8-8.5-11.8-20.2-18.7-35.1-17.7a3.3 3.3 0 0 1-3.8-3.5c.8-15.8-13.6-28.6-27.7-32.7-4.1-1.2-18.8-3-21-1.3a3.3 3.3 0 0 1-5-1.1c-25.4-60.9-102.8-79-152.6-35.8a3.3 3.3 0 0 1-4.6-.4c-12.3-11.9-29.7-16.2-46.3-12.6-19.4 4.1-29.9 16.5-34.6 35-.6 2.5-4.1 2.6-5.5.9a15.6 15.6 0 0 0-20.9-2.5c-2.4 1.7-7.7 7.5-6.1 11s-3.1 6.2-5.4 3.4c-20-23.8-59.2-18-78.2 4.2-13.1 15.3-27 45.5-13.8 64.5a3.3 3.3 0 0 1-2.8 5.3c-17.5.2-31 15.4-32.9 32.2s8.3 34.5 20.8 46a3.3 3.3 0 0 1-.5 5.6c-14.9 8.7-24.1 25.9-21.4 43.3a42.3 42.3 0 0 0 10.3 21.4c5.5 6.2 10.9 7.5 17.8 11.4 10.2 5.7-.5 15.9-1.5 24.3-1.8 15.1 11.7 38.3 29.8 35 3.9-.7 4.8 4.3 1.9 6.1s-2.7 9.1-2.3 11.8c1 6.9 7.2 11.7 13.4 14 9 1.4 17.2-2.4 21.3-10.7 1.1-2.2 5-3.1 6-.2 10.4 32 54.2 33 65.2.9.9-2.6 5-2.8 6-.2 9.9 25.3 34.8 43.1 61.8 45.6 22.1 2.1 51.3-6.1 58.8-29.4.8-2.4 4-2.7 5.5-.9 11.7 13.8 32.1 6 32.5-11.8 0-2.4 3.3-3.8 5.1-2.3 18 14 38.3 22.9 61 13.9 17.1-6.8 28.3-21.2 33.7-38.4a3.3 3.3 0 0 1 4.9-1.5c17.8 14.6 44.1 9.9 59.8-5.6 18.2-17.8 22.8-45.1 19.6-69.3a3.3 3.3 0 0 1 2.6-3.8c23.6-7 38.7-27.5 40.5-51.6z" transform="translate(-272 -4959.2)"/><path d="M783.3 5121c28.5 3.7 50.5 35.4 48.5 63.2-1.8 24.1-16.9 44.6-40.4 51.3a3.3 3.3 0 0 0-2.6 3.8c3.3 24.2-1.3 51.5-19.6 69.3-15.8 15.4-42.1 20.2-59.8 5.6a3.3 3.3 0 0 0-4.9 1.5c-5.4 17.2-16.6 31.6-33.7 38.4-22.6 9-42.9.1-61-13.9-1.9-1.4-5.1-.1-5.1 2.3-.3 17.8-20.8 25.6-32.5 11.8-1.5-1.8-4.8-1.5-5.5.9-7.5 23.3-36.7 31.5-58.8 29.4-27-2.5-51.9-20.4-61.8-45.6-1-2.6-5.1-2.4-6 .2-11 32.1-54.8 31.2-65.2-.9-.9-2.9-4.9-2-6 .2-4.1 8.3-12.3 12.2-21.3 10.7-6.2-2.3-12.4-7.1-13.4-14-.4-2.7-.3-10.2 2.3-11.8s2-6.9-1.9-6.1c-18.2 3.3-31.6-19.9-29.8-35 1-8.5 11.7-18.7 1.5-24.3-6.9-3.8-12.3-5.1-17.8-11.4a42.3 42.3 0 0 1-10.3-21.4c-2.7-17.4 6.5-34.6 21.4-43.3a3.3 3.3 0 0 0 .5-5.6c-12.6-11.5-22.9-28.3-20.8-46s15.4-31.9 32.9-32.2a3.3 3.3 0 0 0 2.8-5.3c-13.2-19 .6-49.2 13.8-64.5 19-22.2 58.2-28 78.2-4.2 2.4 2.8 7 0 5.4-3.4s3.7-9.3 6.1-11a15.6 15.6 0 0 1 20.9 2.5c1.4 1.7 4.9 1.6 5.5-.9 4.6-18.5 15.2-30.9 34.6-35 16.6-3.5 34.1.7 46.3 12.6a3.3 3.3 0 0 0 4.6.4c49.8-43.2 127.2-25.1 152.6 35.8a3.3 3.3 0 0 0 5 1.1c2.2-1.7 16.9.1 21 1.3 14.1 4.2 28.6 16.9 27.7 32.7a3.3 3.3 0 0 0 3.8 3.5c14.8-1 26.5 5.9 35.1 17.7 4 5.5 7.1 11.9 7.9 18.8.4 3.2 1 12.7-2 14.7s-.8 5.8 1.8 6.1z" transform="translate(-272 -4959.2)" fill="#fff"/></svg>