<svg id="_x30_d8a236b-ce0c-4471-87a2-508367d8b373" xmlns="http://www.w3.org/2000/svg" viewBox="0 0 720 761.6"><style>.st0{fill:#c4c4c4}.st1{fill:#e2e2e2}.st2{fill:#999}.st3{fill:#b2b2b2}</style><title>scene14-main-bg</title><path d="M704.5 766.2h-3.2c-6.4-15.7-11.7-31.9-16.8-48.1-10-31.9-18.5-64.2-26.4-96.6-20.4-83.6-36.7-168.1-52.3-252.6-5.7-30.8-9.9-61.7-12.8-92.7l2.8-.3c4.4 47.8 13.3 94.7 22.3 141.8 8.3 43.6 16.9 87.1 26.4 130.5 9.9 45.7 20.6 91.2 33.3 136.2 7.6 27.5 15.8 55.3 26.7 81.8z"/><path class="st0" d="M701.3 766.2h-6.9c-10.1-25.4-17.9-51.8-25.3-77.9-12.8-45.2-23.6-91-33.7-136.9-9.5-43.3-18.2-86.8-26.5-130.4-9-47.3-17.7-94.4-22-142.5-8.5-94-5.7-188.6-6.2-282.8h6.4c.3 62.9-1.1 125.8.5 188.7.8 30.7 2.5 61.3 5.4 91.8s7.1 62 12.8 92.7c15.6 84.6 32 169 52.3 252.6 7.9 32.4 16.4 64.8 26.4 96.6 5 16.2 10.4 32.4 16.8 48.1z"/><path d="M694.3 766.2h-3.2c-6.1-15.6-11.3-31.6-16.3-47.5-10.3-33.2-19.1-66.9-27.3-100.7-20-82.6-36.2-166.1-51.6-249.7C573.2 245.4 578.2 120 577.6-4.4h3.1c.4 94.3-2.3 188.8 6.2 282.8 4.3 48 13 95.2 22 142.5 8.3 43.6 17 87.1 26.5 130.4 10.1 45.9 20.8 91.7 33.7 136.9 7.4 26.2 15.1 52.7 25.2 78z"/><path class="st1" d="M674.9 718.8c4.9 15.9 10.2 31.9 16.3 47.5H469.5c5.1-62.5 5.7-125.5 6.4-188.1 1-81.7.6-163.4-.2-245-.5-56.1-1.4-112.2-2.1-168.3-.1-3.1-.1-6.1-.1-9.2 0-8.2.1-16.4.3-24.6 1-45.1 1.2-90.2 2-135.2h101.7c.6 124.4-4.4 249.8 18.3 372.7 15.5 83.6 31.7 167.1 51.6 249.7 8.3 33.6 17.1 67.2 27.5 100.5z"/><path d="M595.7 275.9l-2.8.3c-2.9-30.5-4.6-61.1-5.4-91.8-1.6-62.9-.2-125.8-.5-188.7h3.1c.4 93.4-3 187.1 5.6 280.2zM475.8 333c.8 81.7 1.1 163.4.2 245-.7 62.6-1.3 125.6-6.4 188.1h-3.1c3.4-42.4 4.5-85.1 5.5-127.6 1.8-81.9 1.8-163.8 1.3-245.7-.4-66.3-1.1-132.7-2.2-199.1-.2-12.8-.3-25.6-.3-38.3h2.9c0 3.1 0 6.1.1 9.2.6 56.2 1.5 112.3 2 168.4z"/><path d="M472.8-4.3h3.1c-.8 45.1-1 90.2-2 135.2-.2 8.2-.3 16.4-.3 24.6h-2.9c0-53.3 1.2-106.6 2.1-159.8z"/><path class="st0" d="M473.2 392.9c.5 81.9.5 163.8-1.3 245.7-.9 42.5-2 85.2-5.5 127.6h-6.2l1.5-21.3c.3-3.9.5-7.9.7-11.9.7-12.7 1.3-25.5 1.7-38.3.1-4.4.3-8.8.4-13.3.3-9.9.6-19.8.7-29.7.1-3.7.1-7.5.2-11.3.2-9.9.3-19.8.4-29.7 0-2.8.1-5.6.1-8.4.3-.5.3-1.1 0-1.6l.3-24.5c.1-5.2.1-10.4.2-15.6l.3-34.7c.5-.6.5-1.6 0-2.2 0-4.1 0-8.1.1-12.2.1-9.9.1-19.8.1-29.7v-39.7c.7-.6.8-1.6.3-2.2l-.3-.3V434c.7-.5.9-1.5.4-2.2-.1-.1-.2-.3-.4-.4 0-10.1 0-20.3-.1-30.4l-.3-45.3c-.1-4.3-.1-8.7-.1-13s0-8.4-.1-12.2l-.3-28.7-.3-24.5-.3-26.3v-.5c-.1-9.5-.3-19.1-.4-28.6s-.2-18.3-.3-26.4l-.3-25.6c0-2.8-.1-5.5-.1-8.2-.1-6.3-.1-12.6 0-18.9 0-3.4.1-6.8.2-10.2.1-5.9.2-11.9.3-17.9.1-9.5.2-19.1.2-28.7s0-18.5.1-26.6c0-8.5 0-17.1.1-25.6.1-12.7.1-25.3.3-38h7.4c-1 53.3-2.2 106.6-2.1 159.8 0 12.8.1 25.6.3 38.3.9 66.3 1.6 132.7 2.1 199z"/><path d="M466.9 442.2c.1 13.2.1 26.4 0 39.7h-2.3c0-.5-.3-1-.7-1.3V472c.7-.5.9-1.5.4-2.2-.1-.1-.2-.3-.4-.4v-26.8h2.2c.3 0 .6-.2.8-.4zM466.9 431.4c.7.5.9 1.5.4 2.2-.1.1-.2.3-.4.4v-2.6zM466.9 439.6c.7.6.8 1.6.3 2.2l-.3.3v-2.5z"/><path d="M464.6 481.8h2.3c0 9.9 0 19.8-.1 29.7h-.5c0-.8-.7-1.5-1.5-1.5h-1c0-8.9 0-17.9.1-26.8.5-.3.7-.8.7-1.4zM466.9 439.6v2.5c-.3.2-.6.3-.9.3h-2.2v-3.1h2.2c.3 0 .6.1.9.3z"/><path d="M466.9 434v5.6c-.3-.2-.6-.3-.9-.3h-2.2v-5.1h2.2c.3 0 .6 0 .9-.2z"/><path d="M466.9 431.4v2.6c-.3.2-.6.3-.9.3h-2.2v-3.1h2.2c.3 0 .6 0 .9.2zM466.4 511.5h.5c0 4.1 0 8.1-.1 12.2-.3-.3-.7-.4-1.1-.4h-2v-10.2h1c.8.1 1.6-.5 1.7-1.3v-.3zM466.9 523.7c.5.6.5 1.6 0 2.2-.1-.7 0-1.4 0-2.2z"/><path d="M466.8 401c.1 10.1.1 20.3.1 30.4-.3-.2-.6-.3-.9-.3h-2.2c0-9.5 0-19.1-.1-28.6h1.2c.8 0 1.5-.7 1.5-1.5h.4zM466.9 523.7v2.2c-.3.3-.7.4-1.1.4h-2v-3.1h2c.4 0 .8.2 1.1.5z"/><path d="M466.8 401h-.4c0-.8-.7-1.5-1.5-1.5h-1.2v-4.1-2h.2c.9 0 1.5-.7 1.5-1.5s-.7-1.5-1.5-1.5h-.2c-.1-11-.1-22-.2-33h1.1c.8 0 1.5-.7 1.5-1.5h.5c.1 14.9.1 30 .2 45.1zM466.8 525.9l-.3 34.7h-.5c0-.8-.7-1.5-1.5-1.5h-1.1c.1-10.9.2-21.8.2-32.7h2c.5 0 .9-.1 1.2-.5zM466.1 560.6h.5c-.1 5.2-.1 10.4-.2 15.6l-.3 24.5c-.3-.5-.8-.7-1.3-.7H463l.3-25.8c.7-.5 1-1.5.5-2.2-.1-.2-.3-.4-.5-.5.1-3.1.1-6.3.1-9.4h1.1c.8.1 1.5-.6 1.6-1.5 0 .1 0 0 0 0zM466.5 355.7h-.5c0-.8-.7-1.5-1.5-1.5h-1.1c0-3.3 0-6.7-.1-10h1.6c.8.1 1.4-.5 1.5-1.3v-.2c0 4.3 0 8.7.1 13zM466.3 330.4c.1 4.1.1 8.1.1 12.2 0-.8-.7-1.5-1.5-1.5h-1.6l-.3-27.2h.2c.9 0 1.5-.7 1.5-1.5s-.7-1.5-1.5-1.5h-.2c0-2.5-.1-5-.1-7.6h1c.8 0 1.5-.7 1.5-1.5h.6l.3 28.6zM466.2 600.8c.3.5.3 1.1 0 1.6v-1.6z"/><path d="M466.2 600.8v1.6c-.3.5-.8.7-1.3.7h-1.8V600h1.8c.6 0 1.1.3 1.3.8z"/><path d="M466.1 602.4c0 2.8-.1 5.6-.1 8.4h-.8c0-.8-.7-1.5-1.5-1.5h-.8c.1-2.1.1-4.1.1-6.1h1.8c.6 0 1.1-.3 1.3-.8zM465.2 610.8h.8c-.1 9.9-.3 19.8-.4 29.7h-.6c0-.8-.7-1.5-1.5-1.5h-1.2c.2-8.9.4-17.7.5-26.6h.9c.8 0 1.5-.7 1.5-1.5v-.1zM466 301.7h-.6c0-.8-.7-1.5-1.5-1.5h-1c-.1-7.1-.1-14.3-.2-21.5h.5c.8 0 1.5-.7 1.5-1.5h1.1c.1 8.2.1 16.4.2 24.5zM465.7 277.2h-1.1c0-.8-.7-1.5-1.5-1.5h-.5l-.3-23.5h1.6c.7.1 1.4-.5 1.5-1.2l.3 26.2z"/><path d="M465.6 640.5c-.1 3.7-.1 7.5-.2 11.3h-.4c0-.8-.7-1.5-1.5-1.5h-1.4l.2-8.2h1.2c.8 0 1.5-.7 1.5-1.5l.6-.1zM465.4 250.3v.5-.5zM465.4 250.8c-.1.7-.8 1.3-1.5 1.2h-1.6v-3.1h1.6c.7-.1 1.4.5 1.5 1.2v.7z"/><path d="M465 651.7h.4c-.2 9.9-.4 19.8-.7 29.7h-1.6c0-.8-.7-1.5-1.5-1.5h-.1c.3-8.9.5-17.7.7-26.6h1.5c.8-.1 1.4-.8 1.3-1.6zM462.3-4.3h3.1c-.2 12.6-.3 25.3-.3 38 0-.8-.7-1.5-1.5-1.5h-1.5c-.1-12.2 0-24.4.2-36.5zM465 399.5c.9 0 1.5.7 1.5 1.5s-.7 1.5-1.5 1.5h-1.2v-3.1h1.2v.1zM466.4 342.7c.1.8-.5 1.4-1.3 1.5h-1.8v-3.1h1.6c.8 0 1.5.7 1.5 1.5v.1zM464.9 510c.9 0 1.5.7 1.5 1.5s-.7 1.5-1.5 1.5h-1v-3.1h1v.1zM465 221.7c.1 9.5.3 19.1.4 28.6-.1-.7-.8-1.3-1.5-1.2h-1.6l-.3-25.8h.6c.8 0 1.5-.7 1.5-1.5l.9-.1z"/><path d="M465 33.6c0 8.5 0 17.1-.1 25.6h-1.4c0-.8-.7-1.5-1.5-1.5h-.2V35.2h1.6c.8.1 1.5-.6 1.6-1.4v-.2zM465 221.7h-.9c0-.8-.7-1.5-1.5-1.5h-.6l-.3-23.3h1c.8 0 1.5-.7 1.5-1.5h.6c0 8.7.1 17.5.2 26.3zM464.6 559.1c.9 0 1.5.7 1.5 1.5s-.7 1.5-1.5 1.5h-1.1V559l1.1.1zM465 59.2c0 8.9 0 17.7-.1 26.6h-.8c0-.8-.7-1.5-1.5-1.5h-.7c0-7.9 0-15.7.1-23.6h.2c.8 0 1.5-.7 1.5-1.5H465z"/><path d="M464.1 85.8h.8c-.1 9.5-.1 19.1-.2 28.7h-.6c0-.8-.7-1.5-1.5-1.5h-1.1c.2-8.5.3-17.1.4-25.6h.8c.8-.1 1.5-.8 1.4-1.6zM464.5 354.2c.9 0 1.5.7 1.5 1.5s-.7 1.5-1.5 1.5h-1.1v-3.1h1.1v.1zM464.1 114.5h.6c-.1 5.9-.2 11.9-.3 17.9-.1 3.4-.1 6.8-.2 10.2h-.4c.1-.8-.6-1.5-1.4-1.6h-1.3c0-8.3.2-16.7.3-25h1.2c.8 0 1.5-.7 1.5-1.5zM464.6 195.3h-.6c0-.8-.7-1.5-1.5-1.5h-1v-.2l-.3-22.3h1.1c.8 0 1.5-.7 1.5-1.5h.5l.3 25.5zM463 681.4h1.6c-.1 4.4-.3 8.8-.4 13.3h-1.3c0-.8-.7-1.5-1.5-1.5h-.4l.3-10.2h.2c.8 0 1.5-.7 1.5-1.6z"/><path d="M464.2 161.5c0 2.8.1 5.5.1 8.2h-.5c0-.8-.7-1.5-1.5-1.5h-1.1c-.1-7.4-.2-14.8-.2-22.2v-2h1.3c.8 0 1.4-.6 1.4-1.4v-.1h.5c-.1 6.3-.1 12.7 0 19zM463.9 300.2c.9 0 1.5.7 1.5 1.5s-.7 1.5-1.5 1.5h-1v-3.1h1v.1zM463.9 390.3c.9 0 1.5.7 1.5 1.5s-.7 1.5-1.5 1.5h-.2v-3.1h.2v.1zM462.9 694.7h1.3c-.5 12.8-1 25.6-1.7 38.3h-1.3c0-.8-.7-1.5-1.5-1.5h-.3c.6-11.7 1.1-23.5 1.5-35.2h.6c.8 0 1.4-.6 1.4-1.4v-.2zM463.8 609.2c.9 0 1.5.7 1.5 1.5s-.7 1.5-1.5 1.5h-.9c0-1 0-2 .1-3.1l.8.1zM463.9 469.3c.7.5.9 1.5.4 2.2-.1.1-.2.3-.4.4v-2.6zM463.9 480.5c.7.5.9 1.5.4 2.2-.1.1-.2.3-.4.4v-2.6z"/><path class="st2" d="M463.9 471.9v8.6l-.8-.2c-67.6-.1-135.2-.3-202.8-1.3h-.3v-8.2h.2c67.6.9 135.3 1.1 202.9 1.3l.8-.2z"/><path d="M463.9 469.3v2.6l-.8.2c-67.6-.1-135.3-.3-202.9-1.3h-.1v-3h.1c67.6.9 135.3 1.1 202.9 1.3l.8.2zM463.9 480.5v2.6l-.8.2c-67.6-.1-135.2-.3-202.8-1.3h-.3v-3h.3c67.6.9 135.2 1.1 202.8 1.3l.8.2z"/><path class="st3" d="M463.9 442.4v26.8l-.8-.2c-67.6-.1-135.3-.3-202.9-1.3h-.1c0-8.9 0-17.7.1-26.6 67.9 1 135.8 1.2 203.7 1.3zM463.9 483.2c0 8.9 0 17.9-.1 26.8-68-.1-135.9-.3-203.9-1.2 0-8.9 0-17.8.1-26.7h.3c67.6.9 135.2 1.1 202.8 1.3l.8-.2z"/><path d="M463.9 439.4v3.1c-67.9-.1-135.8-.3-203.7-1.2v-3.1c67.9.8 135.8 1 203.7 1.2zM463.5 638.9c.9 0 1.5.7 1.5 1.5s-.7 1.5-1.5 1.5h-1.2v-3.1l1.2.1zM463.9 510v3.1c-68-.1-135.9-.3-203.9-1.2v-3.1c67.9.8 135.9 1 203.9 1.2zM463.5 650.2c.9 0 1.5.7 1.5 1.5s-.7 1.5-1.5 1.5H462c0-1 .1-2 .1-3.1l1.4.1z"/><path class="st2" d="M463.9 434.2v5.1c-67.9-.1-135.8-.3-203.6-1.2V433c67.8.9 135.7 1.1 203.6 1.2z"/><path d="M463.8 431.2v3.1c-67.9-.1-135.7-.3-203.6-1.2V430c67.9.8 135.8 1 203.6 1.2zM463.5 32.1c.9 0 1.5.7 1.5 1.5s-.7 1.5-1.5 1.5h-1.6V32h1.6v.1z"/><path class="st2" d="M463.9 513v10.2c-67.8-.1-135.6-.4-203.5-1.3h-.4v-10.2c67.9 1 135.9 1.2 203.9 1.3z"/><path d="M463.8 523.3v3.1c-67.8-.1-135.6-.4-203.4-1.3h-.4v-3h.4c67.8.8 135.6 1 203.4 1.2z"/><path class="st3" d="M463.7 402.5c.1 9.5.1 19.1.1 28.6-67.9-.1-135.7-.3-203.5-1.2.1-9.5.1-19.1.2-28.7 67.8 1 135.5 1.2 203.2 1.3z"/><path d="M463.7 399.5v3.1c-67.7-.1-135.5-.3-203.2-1.3v-3.1c67.8.9 135.5 1.1 203.2 1.3z"/><path class="st2" d="M463.7 395.3v4.1c-67.7-.1-135.4-.3-203.1-1.3V392c67.7.9 135.3 1.1 203 1.3.1.7.1 1.4.1 2z"/><path d="M463.7 390.3v3.1c-67.7-.1-135.3-.3-203-1.3V389c67.6.9 135.3 1.1 203 1.3zM463.4 571.6c.7.5 1 1.5.5 2.2-.1.2-.3.4-.5.5v-2.7z"/><path class="st3" d="M463.8 526.4c-.1 10.9-.1 21.8-.2 32.7-67.8-.1-135.6-.3-203.5-1.3-.1-10.9-.1-21.9-.1-32.8h.4c67.8 1 135.6 1.2 203.4 1.4z"/><path d="M463.6 559.1v3.1c-67.8-.1-135.6-.3-203.4-1.3v-3.1c67.7.9 135.5 1.2 203.4 1.3z"/><path class="st2" d="M463.5 562.2c0 3.1 0 6.3-.1 9.4l-.8-.2c-67.5-.1-135-.4-202.5-1.3 0-3.1 0-6.1-.1-9.2 67.9.9 135.7 1.1 203.5 1.3z"/><path class="st3" d="M463.4 357.2c.1 11 .1 22 .2 33-67.7-.1-135.3-.3-203-1.3.1-10.9.3-21.8.4-32.7 67.5.9 135 .9 202.4 1z"/><path d="M463.2 275.6c.9 0 1.5.7 1.5 1.5s-.7 1.5-1.5 1.5h-.5v-3.1h.5v.1zM463.2 310.8c.9 0 1.5.7 1.5 1.5s-.7 1.5-1.5 1.5h-.1l.1-3zM463.4 571.6v2.7l-.7.2c-67.5-.1-135-.4-202.5-1.3v-3.1c67.5.9 135 1.1 202.5 1.3l.7.2zM463.4 354.2v3.1c-67.5-.1-134.9-.1-202.4-1v-3.1c67.5.9 134.9.8 202.4 1z"/><path class="st3" d="M463.4 574.3l-.3 25.8c-67.4-.1-134.9.2-202.3-.6h-.4c-.1-8.2-.1-16.4-.2-24.6v-1.6c67.5.9 135 1.1 202.5 1.3l.7-.3z"/><path class="st2" d="M463.3 344.2c0 3.3.1 6.7.1 10-67.5-.1-134.9-.1-202.4-1V343c67.5.8 134.9 1.1 202.3 1.2z"/><path d="M463.3 341.1v3.1c-67.4-.1-134.8-.3-202.1-1.2v-3.1c67.4.9 134.7 1.1 202.1 1.2z"/><path class="st3" d="M463 313.9l.3 27.2c-67.4-.1-134.7-.3-202.1-1.2l.2-12.2c.1-4.8.1-9.6.2-14.4 67.1.8 134.3.5 201.4.6z"/><path d="M463.1 600v3.1c-67.4-.1-134.8.2-202.3-.6h-.4v-3h.4c67.4.7 134.8.4 202.3.5zM463 310.8v3.1c-67.1-.1-134.3.2-201.5-.6v-3.1c67.2.9 134.4.5 201.5.6z"/><path class="st2" d="M463 603.1c0 2.1 0 4.1-.1 6.1-67.5-.1-135 .2-202.5-.6 0-2.1 0-4.1-.1-6.2h.4c67.5.9 134.9.6 202.3.7zM462.9 303.3c0 2.5.1 5 .1 7.6-67.1-.1-134.3.2-201.4-.6v-8.5c67.1.9 134.2 1.4 201.3 1.5z"/><path d="M462.9 300.2v3.1c-67.1-.1-134.1-.6-201.2-1.5 0-1 0-2 .1-3.1 67 .9 134 1.4 201.1 1.5zM462.6 220.1c.9 0 1.5.7 1.5 1.5s-.7 1.5-1.5 1.5h-.6V220h.6v.1zM462.9 609.2c0 1 0 2-.1 3.1-67.5-.1-134.9.2-202.4-.6v-3.1c67.5.8 135 .5 202.5.6zM462.6 84.3c.9 0 1.5.7 1.5 1.5s-.7 1.5-1.5 1.5h-.8v-1.1-1.9h.8zM462.6 112.9c.9 0 1.5.7 1.5 1.5s-.7 1.5-1.5 1.5h-1.2v-3.1h1.1l.1.1zM462.6 193.8c.9 0 1.5.7 1.5 1.5s-.7 1.5-1.5 1.5h-1v-3.1h1v.1z"/><path class="st3" d="M462.7 278.7c.1 7.1.1 14.3.2 21.5-67.1-.1-134.1-.6-201.1-1.5l.3-21.2c66.9.9 133.7 1.1 200.6 1.2zM462.9 612.3c-.1 8.9-.3 17.7-.5 26.6-67.2-.1-134.4-.4-201.6-1.3l-.3-26c67.4.9 134.9.6 202.4.7z"/><path d="M463.8 142.6c.1.8-.5 1.4-1.3 1.5H461.1V141h1.1c.8-.1 1.5.6 1.6 1.4v.2zM462.3 168.2c.9 0 1.5.7 1.5 1.5s-.7 1.5-1.5 1.5h-1.1v-3.1h1.1v.1zM462.6 275.6v3.1c-66.9-.1-133.7-.4-200.6-1.2 0-1 0-2 .1-3.1 66.9.9 133.7 1.1 200.5 1.2z"/><path class="st3" d="M462.4 252.1l.3 23.5c-66.8-.1-133.7-.4-200.5-1.2.1-7.9.3-15.7.4-23.5 66.5.9 133.1 1.1 199.8 1.2z"/><path d="M462.1 57.7c.9 0 1.5.7 1.5 1.5s-.7 1.5-1.5 1.5h-.2v-3.1l.2.1zM461.2 732.9h1.3c-.2 3.9-.4 7.9-.7 11.9h-.6c0-.8-.7-1.5-1.5-1.5h-1c.2-2.9.3-5.9.5-8.8h.5c.8 0 1.5-.7 1.5-1.5v-.1zM462.4 638.9v3.1c-67.2-.1-134.3-.4-201.5-1.3v-3.1c67.1.9 134.3 1.2 201.5 1.3zM462.3 249v3.1c-66.6-.1-133.2-.4-199.8-1.2 0-1 0-2 .1-3.1 66.6.9 133.1 1.1 199.7 1.2z"/><path class="st2" d="M462.3 642l-.2 8.2c-67.1-.1-134.1-.4-201.2-1.3-.1-2.7-.1-5.5-.1-8.2 67.2.9 134.3 1.1 201.5 1.3z"/><path class="st3" d="M462 223.2l.3 25.8c-66.6-.1-133.1-.4-199.7-1.2.1-8.5.3-17.1.4-25.6 66.3.9 132.7.9 199 1z"/><path d="M462.1 650.2c0 1-.1 2-.1 3.1-67-.1-134.1-.4-201.1-1.3v-3.1c67.1.9 134.2 1.1 201.2 1.3z"/><path class="st3" d="M462.3-4.3c-.2 12.1-.3 24.3-.3 36.4-65.8-.1-131.6-.3-197.4-1.2.1-11.7.1-23.5 0-35.2h197.7z"/><path d="M461.9 220.1v3.1c-66.3-.1-132.6-.1-199-1 0-1 0-2 .1-3.1 66.4.9 132.7.9 198.9 1zM462 32.1v3.1c-65.8-.1-131.6-.3-197.4-1.2v-3.1c65.8.9 131.6 1.1 197.4 1.2z"/><path class="st3" d="M462 35.2v22.5c-65.9-.1-131.7-.3-197.6-1.2.1-7.5.1-15 .2-22.5 65.7.9 131.5 1 197.4 1.2zM461.6 196.9l.3 23.3c-66.3-.1-132.6-.1-198.9-1 .1-7.9.3-15.7.4-23.5 66.1.8 132.2 1 198.2 1.2z"/><path d="M461.9 57.7v3.1c-65.9-.1-131.8-.3-197.6-1.2v-3.1c65.9.8 131.7 1 197.6 1.2z"/><path class="st3" d="M461.9 60.7c0 7.9 0 15.7-.1 23.6-65.9-.1-131.9-.3-197.8-1.2.1-7.9.1-15.7.2-23.5 65.9.8 131.8 1 197.7 1.1z"/><path d="M461.5 679.8c.9 0 1.5.7 1.5 1.5s-.7 1.5-1.5 1.5h-.2c0-1 .1-2 .1-3.1l.1.1zM461.8 84.3v3C395.9 87.2 330 87 264 86.1V83c66 1 131.9 1.2 197.8 1.3zM462.9 694.7c.1.8-.5 1.4-1.3 1.5h-.8v-3.1h.4c.8-.1 1.6.5 1.7 1.3v.3zM461.2 744.8h.6l-1.5 21.3h-3.1c.5-6.6 1-13.2 1.4-19.8h1.2c.8-.1 1.4-.7 1.4-1.5zM461.6 193.8v3.1c-66-.1-132.1-.4-198.1-1.3 0-1 0-2 .1-3.1 66 .9 132 1.1 198 1.3z"/><path class="st3" d="M461.6 193.6v.2c-66-.1-132-.4-198-1.3.1-7.5.3-15 .4-22.5 65.8.9 131.6 1.1 197.3 1.2l.3 22.4zM461.8 87.4c-.1 8.5-.2 17-.4 25.6-65.8-.1-131.6-.3-197.3-1.3-.1-8.5-.1-17-.1-25.6 66 .9 131.9 1.1 197.8 1.3zM462.1 653.2c-.2 8.9-.4 17.7-.7 26.6-66.2-.1-132.5-.2-198.7-1.1-.4 0-.8.2-1.1.5-.3-9.1-.5-18.1-.6-27.2 67 .8 134 1.1 201.1 1.2z"/><path d="M461.4 112.9v3.1c-65.8-.1-131.5-.3-197.2-1.3v-3.1c65.7 1 131.5 1.2 197.2 1.3zM461.4 679.8c0 1-.1 2-.1 3.1-66.2-.1-132.4-.2-198.7-1.1-.4 0-.7-.1-1-.4v-2.2c.3-.3.7-.5 1.1-.5 66.2.9 132.4 1 198.7 1.1zM461.2 168.2v3.1c-65.8-.1-131.6-.4-197.3-1.2 0-1 0-2 .1-3.1 65.7.8 131.5 1.1 197.2 1.2z"/><path class="st2" d="M461.3 682.9l-.3 10.2c-66.4-.1-132.7-.4-199.1-1.2l-.3-10.5c.3.3.6.4 1 .4 66.3.9 132.5 1 198.7 1.1z"/><path class="st3" d="M461.4 116c-.2 8.3-.3 16.7-.3 25-65.5-.1-130.7-.1-196.6-.1 0-3.3.1-6.5 0-9.8l-.3-16.4c65.7 1 131.4 1.2 197.2 1.3zM461 146c0 7.4.1 14.8.2 22.2-65.7-.1-131.5-.4-197.2-1.2l.2-12.8c.1-3.4.1-6.8.2-10.2H461v2z"/><path d="M461 141v3.1H264.4V141c65.9 0 131.1-.1 196.6 0zM461 693.1v3.1c-66.3-.1-132.6-.4-198.9-1.2v-3.1c66.2.8 132.5 1.1 198.9 1.2z"/><path class="st3" d="M460.9 696.2c-.4 11.7-.9 23.5-1.5 35.2-65.3-.1-130.6.2-196-.6-.6-11.9-1.1-23.9-1.4-35.8 66.3.8 132.6 1.1 198.9 1.2z"/><path d="M459.7 731.4c.9 0 1.5.7 1.5 1.5s-.7 1.5-1.5 1.5h-.5c.1-1 .1-2 .2-3.1l.3.1zM459.7 743.3c.9 0 1.5.7 1.5 1.5s-.7 1.5-1.5 1.5h-1.2l.2-3.1 1 .1z"/><path d="M459.4 731.4c-.1 1-.1 2-.2 3.1-65.2-.1-130.4.2-195.6-.6-.1-1-.1-2-.2-3.1 65.3.8 130.7.5 196 .6z"/><path class="st2" d="M459.2 734.5c-.2 2.9-.3 5.9-.5 8.8-64.9-.1-129.8-.6-194.7-1.3-.2-2.7-.3-5.5-.4-8.2 65.2.9 130.4.5 195.6.7z"/><path d="M458.7 743.3l-.2 3.1c-64.8-.1-129.6-.6-194.3-1.3l-.2-3.1c64.9.9 129.8 1.3 194.7 1.3z"/><path class="st3" d="M458.5 746.4c-.4 6.6-.9 13.2-1.4 19.8H265.5c-.5-7-1-14-1.4-21 64.8.7 129.6 1.1 194.4 1.2z"/><path d="M265.5 766.1h-3.1c-.5-7.5-1-15-1.4-22.5h1.2c-.1.8.6 1.5 1.4 1.6h.6c.4 6.9.8 13.9 1.3 20.9zM264.6-4.3c.1 11.7.1 23.5 0 35.2H263c-.8-.1-1.4.5-1.5 1.3v.2c.1-12.2.2-24.5.1-36.7h3z"/><path d="M262.9 30.9h1.6V34h-1.6c-.8 0-1.5-.7-1.5-1.5v-.1c-.1-.8.5-1.4 1.3-1.5h.2z"/><path d="M262.9 33.9h1.6c-.1 7.5-.1 15-.2 22.5h-1.4c-.8-.1-1.4.5-1.5 1.3v.2h-.3l.3-25.6c-.1.8.6 1.5 1.4 1.6h.1zM264.4 131.1c.1 3.3.1 6.5 0 9.8h-.8c-.5.1-.9.7-.8 1.2h-1.6c0-2.5 0-4.9.1-7.3 0-7.2 0-14.5-.1-21.7h.2c-.1.8.6 1.5 1.4 1.6h1.3l.3 16.4z"/><path d="M264.5 140.9v3.1h-.7c-.6 0-.8-1-.8-1.8-.1-.5.3-1.1.8-1.2l.7-.1z"/><path d="M263.7 144h.7c-.1 3.4-.2 6.8-.2 10.2L264 167h-1.6c-.8-.1-1.4.5-1.5 1.3v.2c.2-8.8.3-17.5.4-26.3h1.6c-.1.8.2 1.8.8 1.8zM264.3 56.4v3.1H263c-.8 0-1.5-.7-1.5-1.5v-.1c-.1-.8.5-1.4 1.3-1.5H264.4h-.1z"/><path d="M262.9 59.5h1.3c-.1 7.9-.1 15.7-.2 23.5h-1.6c-.8-.1-1.4.5-1.5 1.3v-6.6c.1-6.6.1-13.2.2-19.8h.3c-.1.8.6 1.5 1.4 1.6h.1zM264.2 745.1h-.5c-.8 0-1.5-.7-1.5-1.5v-.1c-.1-.8.5-1.4 1.3-1.5h.5l.2 3.1zM264.1 114.8h-1.2c-.8 0-1.5-.7-1.5-1.5v-.1c-.1-.8.5-1.4 1.3-1.5h1.4v3.1z"/><path d="M264.1 111.7h-1.2c-.8-.1-1.4.5-1.5 1.3v.2h-.2c-.1-9.6-.3-19.1-.3-28.7-.1.8.6 1.5 1.4 1.6H264c0 8.5 0 17.1.1 25.6z"/><path d="M262.4 83h1.6v3.1h-1.6c-.8 0-1.5-.7-1.5-1.5v-.1c-.1-.8.5-1.4 1.3-1.5h.2zM264 742h-.3c-.8-.1-1.4.5-1.5 1.3v.2h-1.1c-.2-3.8-.4-7.5-.6-11.3h.6c-.1.8.6 1.5 1.4 1.6h1.1c.1 2.8.3 5.5.4 8.2zM264 167c0 1 0 2-.1 3.1h-1.5c-.8 0-1.5-.7-1.5-1.5v-.1c-.1-.8.5-1.4 1.3-1.5h1.8z"/><path d="M262.4 170h1.5c-.1 7.5-.3 15-.4 22.5h-.6c-.8-.1-1.4.5-1.5 1.3v.2h-1c.1-3.9.1-7.8.2-11.7s.2-9.3.3-13.9c-.1.8.6 1.5 1.4 1.6h.1zM263.4 730.8c.1 1 .1 2 .2 3.1h-1c-.8 0-1.5-.7-1.5-1.5v-.1c-.1-.8.5-1.4 1.3-1.5h1z"/><path d="M263.5 192.5c0 1 0 2-.1 3.1h-.6c-.8 0-1.5-.7-1.5-1.5v-.1c-.1-.8.5-1.4 1.3-1.5H263.5z"/><path d="M262.9 195.6h.6c-.1 7.9-.3 15.7-.4 23.5h-1.6c-.8-.1-1.4.5-1.5 1.3v.2h-.1l.5-26.6h1c-.1.8.6 1.5 1.4 1.6h.1zM263.4 730.8h-.8c-.8-.1-1.4.5-1.5 1.3v.2h-.6c-.6-12.9-1.1-25.9-1.5-38.9h.2c-.1.8.6 1.5 1.4 1.6h1.3c.5 11.9 1 23.9 1.5 35.8z"/><path d="M263.1 219.1c0 1 0 2-.1 3.1h-1.5c-.8 0-1.5-.7-1.5-1.5v-.1c-.1-.8.5-1.4 1.3-1.5h1.8z"/><path d="M261.5 222.2h1.5c-.1 8.5-.3 17.1-.4 25.6h-1.8c-.5 0-1 .2-1.3.7.1-9.3.3-18.6.5-27.9h.1c-.1.8.6 1.5 1.4 1.6z"/><path d="M262.6 247.8c0 1 0 2-.1 3.1h-1.8c-.6 0-1.1-.3-1.3-.8v-1.5c.3-.5.8-.7 1.3-.7l1.9-.1z"/><path d="M260.8 250.8h1.8c-.1 7.9-.3 15.7-.4 23.5h-1.4c-.8-.1-1.4.5-1.5 1.3v.2h-.2c.1-8.6.3-17.2.4-25.9.2.5.7.9 1.3.9z"/><path class="st0" d="M262.5 766.1h-5.6c-4.9-62-5.2-124.5-5.7-186.6-.7-81.8-.1-163.5 1-245.3.8-58.2 1.9-116.4 2.8-174.5.1-8.1.5-16.2.3-24.4-.1-6.2-.2-12.4-.3-18.5-.3-40.4.8-80.8.4-121.1h6.1c.1 12.2 0 24.5-.1 36.7l-.3 25.6c-.1 6.6-.1 13.2-.2 19.8v6.8c0 9.5.2 19.1.3 28.7.1 7.2.2 14.5.1 21.7 0 2.4 0 4.8-.1 7.3-.1 8.8-.3 17.5-.4 26.3-.1 4.7-.2 9.3-.3 13.9-.1 3.9-.1 7.8-.2 11.7l-.5 26.6c-.1 9.3-.3 18.6-.5 27.9-.2.5-.2 1 0 1.5-.1 8.6-.3 17.2-.4 25.9l-.3 22.8c-.8.3-1.3 1.2-1 2 .1.4.5.8.9 1v8.7c-.7.5-.9 1.5-.4 2.2.1.1.2.3.4.4-.1 9.5-.3 18.9-.4 28.4-.1 4.4-.1 8.8-.2 13.3l-.3 28.7c-.1 5.5-.1 10.9-.2 16.3l-.3 31.7v8.2c-.1 9.9-.1 19.8-.2 29.7-.1 13.7-.1 27.3-.1 40.9 0 16.4 0 32.8.1 49.1 0 4.1 0 8.2.1 12.3.1 12.8.2 25.6.4 38.5l.3 21.1c0 2.6.1 5.3.1 7.9s.1 7.5.2 11.3c.2 14.3.5 28.7 1 43s.8 25.9 1.5 38.9c.2 3.8.4 7.5.6 11.3.4 7.3.9 14.8 1.4 22.3z"/><path d="M262.2 274.4c0 1 0 2-.1 3.1h-1.3c-.8 0-1.5-.7-1.5-1.5-.1-.8.5-1.4 1.3-1.5h.2l1.4-.1z"/><path d="M260.8 277.5h1.3l-.3 21.2h-3.1l.3-22.8h.2c-.1.8.6 1.5 1.4 1.6h.2zM261.9 691.9v3.1h-1.2c-.8 0-1.5-.7-1.5-1.5v-.1c-.1-.8.5-1.4 1.3-1.5H261.9z"/><path d="M261.9 691.9h-1.1c-.8-.1-1.4.5-1.5 1.3v.2h-.2c-.4-14.3-.7-28.6-1-43h1.1c-.1.8.6 1.5 1.4 1.6h.4c.1 9.1.3 18.1.6 27.2-.5.7-.5 1.6.1 2.2 0 3.5.1 7 .2 10.5zM261.8 298.7c0 1 0 2-.1 3.1h-3.1c0-1 0-2 .1-3l3.1-.1z"/><path d="M259.1 301.7h2.7v8.5h-2.2c-.3 0-.6.1-.8.2v-8.7h.4-.1z"/><path d="M261.6 310.2v3.1h-2.2l-.9-.3v-2.6c.2-.1.5-.2.8-.2H261.6zM261.5 679.2v2.2c-.5-.6-.5-1.6 0-2.2z"/><path d="M261.6 313.3c-.1 4.8-.1 9.6-.2 14.4l-.2 12.2h-.9c-.8-.1-1.4.5-1.5 1.3v.2h-.7c.1-9.5.3-18.9.4-28.4l.9.3h2.2z"/><path d="M261.2 339.9v3.1h-.8c-.8 0-1.5-.7-1.5-1.5v-.1c-.1-.8.5-1.4 1.3-1.5h1z"/><path d="M260.3 343h.9v10.2h-.3c-.8-.1-1.4.5-1.5 1.3v.2h-1.3c.1-4.4.1-8.8.2-13.3h.7c-.1.8.5 1.5 1.3 1.6z"/><path d="M261 353.2v3.1h-.2c-.8 0-1.5-.7-1.5-1.5v-.1c-.1-.8.5-1.4 1.3-1.5h.4z"/><path d="M260.8 356.2h.2c-.1 10.9-.3 21.8-.4 32.7-.9 0-1.5.7-1.5 1.5s.7 1.5 1.5 1.5v6.1h-.2c-.8-.1-1.4.5-1.5 1.3v.2h-1.4c.1-5.5.1-10.9.2-16.3l.3-28.7h1.3c-.1.8.6 1.5 1.4 1.6 0 .1.1.1.1.1zM260.9 648.9v3.1h-.3c-.8 0-1.5-.7-1.5-1.5v-.1c-.1-.8.5-1.4 1.3-1.5h.5z"/><path d="M260.8 640.7c0 2.7.1 5.5.1 8.2h-.2c-.8-.1-1.4.5-1.5 1.3v.2h-1.1c-.1-3.7-.1-7.5-.2-11.3h.9c-.1.8.6 1.5 1.4 1.6h.6z"/><path d="M260.8 640.7h-.5c-.8 0-1.5-.7-1.5-1.5v-.1c-.1-.8.5-1.4 1.3-1.5h.7v3.1z"/><path d="M260.8 637.7h-.5c-.8-.1-1.4.5-1.5 1.3v.2h-.9c-.1-2.6-.1-5.3-.1-7.9l-.3-21.1h.7c-.1.8.6 1.5 1.4 1.6h.9l.3 25.9zM260.7 389v3.1c-.9 0-1.5-.7-1.5-1.5s.6-1.6 1.5-1.6zM260.6 398.2v3.1h-.2c-.8 0-1.5-.7-1.5-1.5-.1-.8.5-1.4 1.3-1.5h.2l.2-.1z"/><path d="M260.3 401.3h.2c-.1 9.5-.1 19.1-.2 28.7h-1.4c-.8-.1-1.4.5-1.5 1.3v.2h-.2l.3-31.7h1.4c0 .8.6 1.4 1.4 1.5zM260.5 608.6v3.1h-.8c-.8 0-1.5-.7-1.5-1.5v-.1c-.1-.8.5-1.4 1.3-1.5h1z"/><path d="M260.4 602.4c0 2.1 0 4.1.1 6.2h-.8c-.8-.1-1.4.5-1.5 1.3v.2h-.7c-.1-12.8-.3-25.6-.4-38.5h.7c-.1.8.6 1.5 1.4 1.6h1v1.6c.1 8.2.1 16.4.2 24.6-.8.3-1.3 1.2-.9 2.1.1.4.5.7.9.9z"/><path d="M260.4 599.4v3c-.8-.3-1.3-1.2-.9-2.1.1-.4.5-.7.9-.9zM260.3 429.9v3.1h-1.4c-.8 0-1.5-.7-1.5-1.5v-.1c-.1-.8.5-1.4 1.3-1.5H260.3z"/><path d="M260.3 433v5.1h-1.4c-.8-.1-1.4.5-1.5 1.3v.2h-.2v-8.2h.2c-.1.8.6 1.5 1.4 1.6h1.5z"/><path d="M260.2 438.1v3.1h-1.3c-.8 0-1.5-.7-1.5-1.5v-.1c-.1-.8.5-1.4 1.3-1.5h1.5z"/><path d="M258.9 441.2h1.3c-.1 8.9-.1 17.7-.1 26.6-.8 0-1.4.6-1.4 1.4v.1H257c.1-9.9.1-19.8.2-29.7h.2c-.1.8.6 1.5 1.5 1.6-.1 0 0 0 0 0zM260.2 570.1v3.1h-.9c-.8 0-1.5-.7-1.5-1.5v-.1c-.1-.8.5-1.4 1.3-1.5h1.1z"/><path d="M260.1 560.9c0 3.1 0 6.1.1 9.2h-.9c-.8-.1-1.4.5-1.5 1.3v.2h-.7c0-4.1-.1-8.2-.1-12.3h.8c-.1.8.6 1.5 1.4 1.6h.9z"/><path d="M260.1 560.9h-.8c-.8 0-1.5-.7-1.5-1.5v-.1c-.1-.8.5-1.4 1.3-1.5h1v3.1z"/><path d="M260.1 557.8h-.8c-.8-.1-1.4.5-1.5 1.3v.2h-.8c-.1-16.4-.1-32.8-.1-49.1-.1.8.6 1.5 1.4 1.6H260V522c-.8.3-1.3 1.2-.9 2.1.2.4.5.8.9.9 0 10.9 0 21.9.1 32.8zM260.1 467.8v3c-.8-.1-1.4-.7-1.4-1.5-.1-.8.5-1.4 1.3-1.5h.1z"/><path d="M260.1 470.8v8.2c-.8 0-1.5.7-1.5 1.5s.7 1.5 1.5 1.5c0 8.9 0 17.8-.1 26.7h-1.6c-.8-.1-1.4.5-1.5 1.3v.2c0-13.7 0-27.3.1-40.9h1.7c0 .8.6 1.4 1.4 1.5z"/><path d="M260 479.1v3c-.8 0-1.5-.7-1.5-1.5s.7-1.5 1.5-1.5zM260 522v3c-.8-.3-1.3-1.2-.9-2.1.1-.4.5-.7.9-.9zM260 508.7v3.1h-1.6c-.8 0-1.5-.7-1.5-1.5v-.1c-.1-.8.5-1.4 1.3-1.5h1.8zM259.5 248.5v1.5c-.2-.5-.2-1 0-1.5zM258.7 298.7c0 1 0 2-.1 3-.8-.3-1.2-1.3-.9-2.1.2-.4.6-.8 1-.9zM258.5 310.4v2.6c-.7-.5-.9-1.5-.4-2.2.1-.2.3-.3.4-.4zM256.8 766.1h-3.1c-3.4-44.7-4.3-89.6-5.1-134.4-1.4-81.9-1.1-163.7-.2-245.6.7-66.6 1.8-133.2 3-199.9.3-15.7.7-31.5.8-47.2 0-7.4 0-14.8-.1-22.2h2.9c.1 6.2.2 12.4.3 18.5.2 8.1-.1 16.2-.3 24.4-1 58.2-2.1 116.3-2.8 174.5-1.1 81.7-1.7 163.5-1 245.3.4 62.1.8 124.6 5.6 186.6zM255.4-4.3c.4 40.4-.8 80.7-.4 121.1h-2.9c-.2-12-.4-23.9-.3-35.9.2-28.4.8-56.8.5-85.2h3.1z"/><path class="st1" d="M253.8 766.1H31.3c11.2-26.7 19.5-54.7 27.5-82.4 12.9-45.1 23.7-90.9 33.8-136.7 9.6-43.5 18.3-87.2 26.7-130.9 4.5-23.8 9-47.6 13-71.4 3.6-22 6.7-44.1 8.9-66.4 8.6-87.9 6.9-176.4 6.8-264.7V4.4v-8.6h104.3c.2 28.4-.3 56.8-.5 85.2-.1 12 .1 23.9.3 35.9.1 7.4.2 14.8.1 22.2-.1 15.7-.5 31.5-.8 47.2-1.2 66.6-2.3 133.2-3 199.9-.8 81.9-1.1 163.7.2 245.6.8 44.6 1.7 89.6 5.2 134.3z"/><path d="M144.9-4.3h3.1v8.6h-3.1c-.1-2.9-.1-5.8 0-8.6zM147.9 13.4c0 88.3 1.7 176.7-6.8 264.7-2.2 22.3-5.3 44.4-8.9 66.4l-2.8-.5c18-109.2 15.5-220.2 15.5-330.6h3z"/><path d="M147.9 4.2v9.2h-3.1V4.2h3.1z"/><path class="st0" d="M144.9-4.3V13.5c0 110.4 2.5 221.4-15.5 330.6-.9 5.7-1.9 11.4-3 17.1-15.5 83.9-31.8 167.8-52 250.7-8 32.9-16.6 65.6-26.6 97.9-5.9 18.9-12.1 37.9-19.8 56.2h-6.9c12.1-27.8 20.8-57.3 29.1-86.3 12.8-44.9 23.5-90.4 33.4-136 9.5-43.5 18.2-87.2 26.6-131 4.3-22.5 8.6-45.1 12.4-67.7s7.3-46.1 9.6-69.3c9.3-93 6.2-186.7 6.3-280h6.4z"/><path d="M138.5-4.3c-.2 93.4 3 187-6.3 280-2.3 23.2-5.7 46.3-9.6 69.3l-3-.5c9.3-55.7 13.9-111.8 15.4-168.3 1.5-60.2.3-120.3.5-180.5h3zM132.2 344.5c-3.9 23.9-8.4 47.6-13 71.4-8.3 43.7-17.1 87.4-26.7 130.9-10.1 45.8-20.9 91.6-33.8 136.7-7.9 27.7-16.3 55.7-27.5 82.4h-3.4c7.7-18.3 13.9-37.3 19.8-56.2 10-32.3 18.6-65 26.6-97.9 20.2-82.9 36.5-166.8 52-250.7 1.1-5.7 2.1-11.4 3-17.1l3 .5z"/><path d="M119.6 344.5l3 .5c-3.8 22.6-8.1 45.1-12.4 67.7-8.3 43.8-17 87.5-26.6 131-10 45.6-20.6 91.1-33.4 136-8.3 29.1-17 58.5-29.1 86.3h-3.4c8-18.4 14.5-37.6 20.5-56.8 9.7-31 18-62.4 25.8-93.9 20.5-83.8 37-168.7 52.6-253.5 1-5.8 2-11.6 3-17.3z"/></svg>