<svg id="4e3d2376-0863-44f2-b392-284d26d1bd47" data-name="圖層 1" xmlns="http://www.w3.org/2000/svg" viewBox="0 0 829.3 221"><title>scene-end-main</title><path d="M431.2 11459.4c5.3 16.2 2.8 30-6.5 42.5 3.2 1.2 5.1 5.7 5 8.9-.3 4.8-2.6 8.6-6.4 11.5-2.2 1.7-4.6 3.6-7.3 3.1q-1.9 10.5-4.4 21c-2.5 10.7-5.6 21.6-12 30.7a56.5 56.5 0 0 1-54.5 23.1c-39.2-5.7-53-39.3-59-73.6a12 12 0 0 1-5.9-2.4 15.8 15.8 0 0 1-6.3-10.4c-.9-5.4 2.6-11.2 7.2-12.1-7-17.8-6.7-37.7 3.6-54.5a68.9 68.9 0 0 1 43.7-31.7c19.9-4.5 39.3-3.8 57.7 5.6 7 3.5 13.8 8.6 18.3 14.9 12.9-1.9 23.2 12.4 26.8 23.4zm-12.4 41.6c8.9-10.6 13-23 8.3-37.3-2.6-7.9-9.7-22.8-19.9-22.9a24.2 24.2 0 0 1 1.3 16.4c-.9 3.3-5.9 1.9-5.1-1.4 4.8-18.2-15.3-29.7-29.7-34.3a77.9 77.9 0 0 0-46.5-.4c-34 10-54.4 44.3-41.7 77.7 8.1-12.9 25.8-17.4 40-19.2 11.9-1.5 23.7-3.5 35.6-4.8s26-3 36-12.1c2.5-2.3 6.2 1.4 3.7 3.7l-2.7 2.3c8.7 7.9 18.3 20 20.6 32.3zm4.9 13c.9-2 1.2-4.6-.1-6.5s-3.7.6-4.4 1.8l-.5.7q-.8 5-1.7 10.1c1.5.6 6.1-5.1 6.6-6.1zm-11.5 3.9q1-6.3 1.9-12.4c-.5-12.7-11.5-25.9-20.4-33.9-13.5 7.7-29.8 7.4-45.3 10.1-18.4 3.2-51.4 1.6-60 22.9.7 6.7 1.5 13.8 2.7 20.9 11.8-7.9 27.2-.5 27.9 14.4.6 11.4-5.8 21.9-17.2 22.2 8 16.6 20.9 29.5 42.1 32.6 24 3.5 47-7.5 56.6-30.2 1.2-2.9 2.3-5.8 3.3-8.9-11.1-.9-19.1-12.5-17.3-23.5s14.5-21.2 25.6-14.2zm-.9 5.7l-.3-.2c-8.6-6.6-19.8 1-19.3 11.3.3 8.2 5.4 15.8 13.8 15.8a233.9 233.9 0 0 0 5.7-26.9zm-97.4 19.8c0-3.7-.1-7.9-2.4-11-4.7-6.1-12.9-6.5-18.6-1.6l-.7.4a138.4 138.4 0 0 0 7.3 25.6c8 1.2 14.3-5.5 14.3-13.4zm-28.6-21.9c-.7-4.8-1.3-9.6-1.8-14.3-2.3-1.8-4.4 1.8-4.5 3.7a9.8 9.8 0 0 0 .9 4.8c.2.7 3.6 5.2 5.3 5.8z" transform="translate(-222.6 -11406.6)" fill="#262016"/><path d="M427.1 11463.7c4.6 14.2.5 26.6-8.3 37.3-2.3-12.2-11.9-24.3-20.6-32.3l2.7-2.3c2.5-2.3-1.2-6-3.7-3.7-10 9-23.1 10.7-36 12.1s-23.7 3.3-35.6 4.8c-14.2 1.8-31.9 6.3-40 19.2-12.7-33.4 7.7-67.7 41.7-77.7a77.9 77.9 0 0 1 46.5.4c14.3 4.6 34.5 16.1 29.7 34.3-.9 3.3 4.2 4.7 5.1 1.4a24.2 24.2 0 0 0-1.3-16.4c10.1.1 17.2 14.9 19.8 22.9z" transform="translate(-222.6 -11406.6)" fill="#3f261d"/><path d="M423.4 11507.5c1.4 1.9 1.1 4.5.1 6.5s-5.1 6.8-6.7 6.1q.9-5 1.7-10.1l.5-.7c.7-1.2 2.6-4.2 4.4-1.8zM414 11505.5q-.9 6.1-1.9 12.4c-11.1-7-23.6 2.2-25.6 14.2s6.2 22.7 17.3 23.5c-1 3-2.1 6-3.3 8.9-9.6 22.7-32.7 33.6-56.6 30.2-21.2-3.1-34.1-16-42.1-32.6 11.4-.3 17.8-10.8 17.2-22.2-.8-14.9-16.1-22.3-27.9-14.4-1.2-7.1-2.1-14.2-2.7-20.9 8.6-21.3 41.6-19.7 60-22.9 15.5-2.7 31.7-2.4 45.3-10.1 8.8 8 19.8 21.2 20.3 33.9zm-35.8 4.9c4.2 0 4.2-5.2 0-5.2s-3.2 5.1-.1 5.1zm-.1 30c1.3-3.1-3.8-4.5-5.1-1.4-1.9 4.8-12 6.6-16.6 7.8-2.5.6-21.2 3.7-22.5-.1s-6.2-1.8-5.1 1.4c2.7 7.6 16.6 5.5 22.7 4.8 8.2-.9 23-3.9 26.5-12.5zm-18.1-10.1c2.7-2 .1-6.6-2.6-4.5a39.4 39.4 0 0 1-5.1 3.3 8.6 8.6 0 0 1-3.4.9c-1.7.1-.4-1.5 0-2.2 2-3.7 4.8-6.3 4.8-10.8s-5.3-3.4-5.2 0c0 5.2-9.6 11.3-4.2 16.6s11.8-.5 15.6-3.3zm-22.9-18.2c3.2 0 3.2-5.2 0-5.2s-4.4 5.2-.1 5.2z" transform="translate(-222.6 -11406.6)" fill="#ffc9a4"/><path d="M410.9 11523.4l.3.2a233.9 233.9 0 0 1-5.8 26.8c-8.5 0-13.5-7.5-13.8-15.8-.5-10.2 10.7-17.8 19.3-11.2z" transform="translate(-222.6 -11406.6)" fill="#dd553a"/><path d="M378.1 11505.1c4.2 0 4.2 5.2 0 5.2s-3.1-5.2 0-5.2zM372.9 11539c1.2-3.1 6.3-1.7 5.1 1.4-3.5 8.6-18.3 11.7-26.5 12.5-6.1.6-20 2.8-22.7-4.8-1.1-3.2 3.9-4.6 5.1-1.4s20 .7 22.5.1c4.5-1.2 14.6-3 16.5-7.8zM357.2 11525.7c2.7-2 5.3 2.5 2.6 4.5s-11.3 7.8-15.8 3.4 4.3-11.3 4.2-16.6c0-3.4 5.2-3.4 5.2 0s-2.8 7.1-4.8 10.8c-.4.7-1.7 2.3 0 2.2a8.6 8.6 0 0 0 3.4-.9 39.4 39.4 0 0 0 5.2-3.4zM337 11506.8c3.2 0 3.2 5.2 0 5.2s-4.3-5.2 0-5.2z" transform="translate(-222.6 -11406.6)" fill="#262016"/><path d="M311.4 11532.4c2.3 3.1 2.4 7.3 2.4 11 0 7.9-6.3 14.6-14.4 13.4a138.4 138.4 0 0 1-7.3-25.6l.7-.4c5.7-4.9 13.9-4.6 18.6 1.6z" transform="translate(-222.6 -11406.6)" fill="#dd553a"/><path d="M283.3 11507.1c.5 4.7 1.1 9.5 1.8 14.3-1.6-.6-5.1-5.1-5.5-5.8a9.8 9.8 0 0 1-.9-4.8c.2-1.9 2.3-5.4 4.6-3.7z" transform="translate(-222.6 -11406.6)" fill="#ffc9a4"/><path d="M392.1 11613.1a2.6 2.6 0 0 1-1.8 3.1l-2.6.6-.5-2.4 1.8-3.2 2.1-.9a13.4 13.4 0 0 1 1 2.8z" transform="translate(-222.6 -11406.6)" fill="#262016"/><path d="M391.1 11610.5l-2.1.9-3 .7c-3.6-4.7-12.7-4.3-17.5-5l-15.3-2c-.2-1.7-.5-3.5-.7-5.2 9 1.2 18.2 1.9 27.2 3.6 4.9.8 9.2 2.7 11.4 7z" transform="translate(-222.6 -11406.6)" fill="#262016"/><path d="M389 11611.3l-1.8 3.2a6.9 6.9 0 0 0-1.2-2.5z" transform="translate(-222.6 -11406.6)" fill="#262016"/><path d="M387.2 11614.5l.5 2.4a118.5 118.5 0 0 1-33.8 2.1 2.3 2.3 0 0 0 .4-1.5c-.1-1.2-.1-2.4-.3-3.7a114 114 0 0 0 32-1.9 6.9 6.9 0 0 1 1.2 2.6z" transform="translate(-222.6 -11406.6)" fill="#262016"/><path d="M368.4 11607c4.8.6 14 .3 17.5 5a114 114 0 0 1-32 1.9c-.2-3-.5-5.9-.9-8.8z" transform="translate(-222.6 -11406.6)" fill="#ffc9a4"/><path d="M354.2 11617.5a2.3 2.3 0 0 1-.4 1.5h-.2c1-1.6.4-4.2-2-4h-1.1a2.1 2.1 0 0 1 2.2-1.3h1.2c.1 1.4.2 2.6.3 3.8z" transform="translate(-222.6 -11406.6)" fill="#262016"/><path d="M353.9 11613.9h-1.2a2.1 2.1 0 0 0-2.2 1.3h-1.6c-.3-4.6-.8-9.1-1.5-13.6h1.8a2.9 2.9 0 0 0 2.4 3.2l1.4.2c.4 3 .7 5.9.9 8.9zM353.6 11619h.2a2.2 2.2 0 0 1-1.4.9 2.5 2.5 0 0 0 1.2-.9z" transform="translate(-222.6 -11406.6)" fill="#262016"/><path d="M351.6 11615c2.4-.2 3 2.4 2 4h-.9a2.8 2.8 0 0 1-2.2-3.9h1.1z" transform="translate(-222.6 -11406.6)" fill="#262016"/><path d="M352.8 11618.9h.9a2.5 2.5 0 0 1-1.2 1h-.1a2.7 2.7 0 0 1-3.3-2.4c0-.8-.1-1.6-.1-2.4h1.6a2.8 2.8 0 0 0 2.2 3.8zM353 11605l-1.4-.2a2.9 2.9 0 0 1-2.4-3.2h.4l-.3-.3a2 2 0 0 1 2.4-1.7h.6c.3 2 .5 3.7.7 5.4z" transform="translate(-222.6 -11406.6)" fill="#262016"/><path d="M352.3 11599.8h-.6a2 2 0 0 0-2.4 1.7l-2.1-1.6.3 1.7c-21.4-1.8-42.3-6.8-63.6-9-14.5-1.5-56.4-6.6-56.2 17 .1 12.3 16.2 8.2 24.6 8.3 10.7.1 21.3.2 32 0q32.4-.5 64.8-2.6c.1.8.1 1.6.1 2.4a2.7 2.7 0 0 0 3.3 2.4l-.8.2c-30.1 2.1-60.2 3.1-90.4 2.9-6.2-.1-12.5-.5-18.7-.1-4.3.3-8.6.7-12.8-.6-6.1-2-7.6-9.2-7-14.7 2-21.2 29.5-21.9 45.5-21.3 27.4 1 54.1 8.3 81.4 10.3a2.6 2.6 0 0 1 2.5 1.9z" transform="translate(-222.6 -11406.6)" fill="#262016"/><path d="M349.6 11601.7h-.4v-.2zM347.1 11599.8l2.1 1.6v.2h-1.8z" transform="translate(-222.6 -11406.6)" fill="#262016"/><path d="M347.4 11601.5c.7 4.5 1.2 9.1 1.5 13.6q-32.3 2.2-64.8 2.6c-10.7.2-21.3.1-32 0-8.4-.1-24.4 4-24.6-8.3-.3-23.6 41.7-18.5 56.2-17 21.4 2.3 42.3 7.3 63.7 9.1z" transform="translate(-222.6 -11406.6)" fill="#54618c"/><path d="M436.4 11586.6c15.6.1 42.8 1.6 42.5 23.3-.1 7.1-3.4 12.6-10.7 13.6-4.3.6-8.6-.4-12.9-.3l-18.1.2q-43.7.1-87.4-2.9l-.8-.2a2.7 2.7 0 0 0 3.3-2.4c0-.8.1-1.6.2-2.4 22.7 1.5 45.4 2.5 68.1 2.7 11.5.1 23.1-.4 34.6-.2 3.4.1 6.8.6 10.2.5 6.8-.3 9.7-5.5 7.9-11.8-6-21-42.5-15.6-58.8-13.5-20.2 2.6-40.2 7-60.5 8.7l.3-1.7-2.1 1.6a2 2 0 0 0-2.4-1.7h-.6l.2-1.4a2.6 2.6 0 0 1 2.5-1.9c28.2-1.9 56-10.4 84.5-10.2z" transform="translate(-222.6 -11406.6)" fill="#262016"/><path d="M473.3 11606.8c1.8 6.2-1.1 11.5-7.9 11.8-3.4.1-6.8-.4-10.2-.5-11.5-.2-23.1.3-34.6.2-22.7-.2-45.5-1.1-68.1-2.7q.5-6.9 1.5-13.7c20.3-1.7 40.3-6.1 60.5-8.7 16.3-2.1 52.8-7.4 58.8 13.6z" transform="translate(-222.6 -11406.6)" fill="#54618c"/><path d="M354.3 11600.2l-.3 1.7h-1.8v-.2zM352.2 11602h1.8q-1 6.8-1.5 13.7h-1.6a2.1 2.1 0 0 0-2.2-1.3h-1.2c.2-3 .5-5.9.9-8.8l1.4-.2a2.9 2.9 0 0 0 2.4-3.4z" transform="translate(-222.6 -11406.6)" fill="#262016"/><path d="M350.9 11615.4h1.6c-.1.8-.1 1.6-.2 2.4a2.7 2.7 0 0 1-3.3 2.4h-.1a2.4 2.4 0 0 1-1.2-1h.9a2.8 2.8 0 0 0 2.3-3.8zM352.2 11602a2.9 2.9 0 0 1-2.4 3.2l-1.4.2c.2-1.7.5-3.5.7-5.2h.6a2 2 0 0 1 2.4 1.7l-.3.3h.4z" transform="translate(-222.6 -11406.6)" fill="#262016"/><path d="M352.2 11602h-.4l.3-.3v.2zM350.9 11615.4a2.8 2.8 0 0 1-2.2 3.9h-.9c-1-1.6-.4-4.2 2-4h1.1z" transform="translate(-222.6 -11406.6)" fill="#262016"/><path d="M350.9 11615.4h-1.1c-2.4-.2-3 2.4-2 4h-.2a2.3 2.3 0 0 1-.4-1.5c.1-1.2.1-2.4.3-3.7h1.2a2.1 2.1 0 0 1 2.2 1.2zM349.1 11600.2c-.3 1.7-.5 3.5-.7 5.2l-15.3 2c-4.8.6-14 .3-17.5 5l-3-.7-2.4-.3c2.1-4.6 6.6-6.9 11.9-7.6z" transform="translate(-222.6 -11406.6)" fill="#262016"/><path d="M333 11607.4l15.3-2c-.4 2.9-.7 5.9-.9 8.8a114 114 0 0 1-32-1.9c3.7-4.6 12.8-4.2 17.6-4.9z" transform="translate(-222.6 -11406.6)" fill="#ffc9a4"/><path d="M347.8 11619.4a2.4 2.4 0 0 0 1.2 1 2.2 2.2 0 0 1-1.4-.9h.2zM347.5 11614.3c-.1 1.2-.2 2.4-.3 3.7a2.3 2.3 0 0 0 .4 1.5 118.5 118.5 0 0 1-33.8-2.1l.5-2.4a6.9 6.9 0 0 1 1.2-2.5 114 114 0 0 0 32 1.8z" transform="translate(-222.6 -11406.6)" fill="#262016"/><path d="M315.5 11612.4a6.9 6.9 0 0 0-1.2 2.5l-1.8-3.2zM312.5 11611.7l1.8 3.2-.5 2.4-2.6-.6a2.6 2.6 0 0 1-1.8-3.1 12.6 12.6 0 0 1 .8-2.1zM994.5 11487.8c.5 9-3.7 20.3-12.8 17.9a223.9 223.9 0 0 1-8.2 48.6c-5.9 20.4-19.7 39.2-42.1 42.8-25 4.1-48.3-5.6-59-29.1a247.3 247.3 0 0 1-16.4-49.9c-2.6.3-5.5-1.1-7.6-2.7a17.7 17.7 0 0 1-6.7-11.8c-.5-4.1-.2-9.6 3.5-12.3a8.4 8.4 0 0 1 6.1-1.7l-.4-3.5a3 3 0 0 1-2.4-1.7c-6.2-14.3-9.8-31.9-1.9-46.4a49.6 49.6 0 0 1 3.2-5.1l4.9 1.6a33.1 33.1 0 0 0-5.7 11.7c-2.7 10.3-1.2 20.8 2.1 30.1 9.2-11.9 36-10.7 47.5-11.6q22.2-1.7 44.5-2.4c11.2-.3 22.1.6 26.8-11.6 1.7-6.1 1.8-11.2.8-15.5l4.5-1.1a33.3 33.3 0 0 1 0 18l-.2.5v.2a24 24 0 0 1-2.4 4.9 17 17 0 0 1 7.4 5.6 2.5 2.5 0 0 1 .8 1.2l.5.8a28.9 28.9 0 0 0 3.6-22.9l4.9-1.3c2.9 11.1.9 22.4-7.4 31.6a2.4 2.4 0 0 1-.9.6c.1 1.7.2 3.3.3 5a6.6 6.6 0 0 1 6.1-.7c4.4 1.6 6.4 5.9 6.6 10.2zm-5.4 1.7c-.1-2.2-.1-4.5-1.9-6s-4.1.9-4.9 3.1v.3c.1 4.4 0 8.8-.2 13.2 1.7.9 3.6 1.3 4.9-1a15.4 15.4 0 0 0 1.5-3.3 20.4 20.4 0 0 0 .7-6.3zm-13.9 24.6a247.5 247.5 0 0 0 .4-47.7 11.9 11.9 0 0 0-6.8-4.4c-9.8 8.1-26.1 5.6-38.9 6.3s-26.9 1.6-40.4 2.8c-7.7.7-27.1.8-33.7 8.8a280.4 280.4 0 0 0 7.4 45.6c12.8-4.2 25.7 2.4 29.4 15.6 3.2 11.2-4.4 22.2-14.8 25.7 5.2 10.4 12.2 19.4 24.2 23 10.3 3.1 22.6 4.4 33 .9 18.7-6.3 27.8-21 33-38-12-1.6-22.8-12.6-18.8-25.5 3.7-11.5 15.1-17.3 26.1-13.1zm-.6 5.6h-.4c-8.3-3.9-18.8.8-19.9 10.4s6 16.9 15.3 17.4c.7-2.9 1.4-5.9 2-8.8q1.9-9.5 3.1-19zm-99.1 42.1c8.6-2.7 15.1-11.8 11.4-21s-13-13-22.3-10a238.7 238.7 0 0 0 9.2 27zm-27.4-55.1c.4.7 5 7 6.8 6.3q-1.7-8.5-2.8-17.1l-.3-.2c-3.2-3-5 2.9-4.9 5a15 15 0 0 0 1.2 5.9z" transform="translate(-222.6 -11406.6)" fill="#262016"/><path d="M989.9 11441.1l-4.9 1.3a28.7 28.7 0 0 0-4-8.9 39.9 39.9 0 0 0-11-10.4 32.8 32.8 0 0 1 5.4 10.9l-4.5 1.1c-6.3-25.7-54.3-24.1-75.6-20.7-14.6 2.3-31.2 8-40.4 20l-4.9-1.6c11.2-15.5 29.3-21.7 48.1-24.2s41.6-4.3 59.2 4.5c11.1.4 24.7 9.8 29.5 19.5a43.7 43.7 0 0 1 3.1 8.5z" transform="translate(-222.6 -11406.6)" fill="#262016"/><path d="M987.3 11483.6c1.8 1.5 1.8 3.8 1.9 6a20.4 20.4 0 0 1-.7 6.2 15.4 15.4 0 0 1-1.5 3.3c-1.3 2.4-3.2 1.9-4.9 1 .2-4.4.2-8.8.2-13.2v-.3c.9-2.1 2.3-5.2 5-3z" transform="translate(-222.6 -11406.6)" fill="#ffc9a4"/><path d="M985 11442.4a28.9 28.9 0 0 1-3.6 22.9l-.5-.8a2.5 2.5 0 0 0-.8-1.2 17 17 0 0 0-7.4-5.6 24 24 0 0 0 2.4-4.9v-.2l.2-.5a33.3 33.3 0 0 0 0-18 32.8 32.8 0 0 0-5.4-10.9 39.9 39.9 0 0 1 11 10.4 28.7 28.7 0 0 1 4.1 8.8z" transform="translate(-222.6 -11406.6)" fill="#5e3326"/><path d="M975.6 11466.4a247.5 247.5 0 0 1-.4 47.7c-11-4.2-22.3 1.6-25.9 13-4 12.9 6.8 23.9 18.8 25.5-5.2 17.1-14.4 31.8-33 38-10.4 3.5-22.7 2.1-33-.9-12-3.5-19-12.6-24.2-23 10.4-3.5 18-14.5 14.8-25.7-3.8-13.2-16.6-19.8-29.4-15.6a280.4 280.4 0 0 1-7.4-45.6c6.6-8 25.9-8.1 33.7-8.8q20.2-1.8 40.4-2.8c12.8-.7 29.1 1.8 38.9-6.3a11.9 11.9 0 0 1 6.7 4.5zm-43 29.6a2.7 2.7 0 0 0-.3-5.5 2.7 2.7 0 0 0 .3 5.5zm-1.4 53c2.6-2.2-.3-6.8-3-4.6a11.7 11.7 0 0 1-12.7 2c-3.2-1.5-5.7 3.4-2.5 4.9a17 17 0 0 0 18.2-2.2zm-5.5-25.2c2.2-2.7-1.9-6.4-4.1-3.6s-4.6 3.1-5.8.1c-.5-1.3 2.2-3.8 2.8-5 1.6-2.9.1-7.8-.2-10.8s-5.8-3.2-5.5.3l.5 5.2c.3 2.6-.4 3.7-2 5.8a7.3 7.3 0 0 0-.2 7.8c3.5 5.5 10.7 5 14.6.3zm-33-23.8a2.7 2.7 0 0 0-.3-5.5 2.7 2.7 0 0 0 .3 5.6z" transform="translate(-222.6 -11406.6)" fill="#ffc9a4"/><path d="M970.9 11435.2c1.1 4.4.9 9.5-.8 15.5-4.7 12.1-15.6 11.2-26.8 11.6q-22.3.7-44.5 2.4c-11.5.9-38.3-.3-47.5 11.6-3.4-9.3-4.8-19.8-2.1-30.1a33.1 33.1 0 0 1 5.7-11.7c9.2-12.1 25.8-17.7 40.4-20 21.2-3.4 69.3-5 75.6 20.7z" transform="translate(-222.6 -11406.6)" fill="#5e3326"/><path d="M974.3 11519.6h.4q-1.2 9.4-3 18.8c-.6 3-1.2 5.9-2 8.8-9.3-.5-16.4-7.9-15.3-17.4s11.6-14.1 19.9-10.2z" transform="translate(-222.6 -11406.6)" fill="#dd553a"/><path d="M932.3 11490.6a2.7 2.7 0 0 1 .3 5.5 2.7 2.7 0 0 1-.3-5.5zM928.2 11544.5c2.7-2.3 5.7 2.3 3 4.6a17 17 0 0 1-18.2 2.3c-3.2-1.5-.7-6.3 2.5-4.9a11.7 11.7 0 0 0 12.7-2zM921.7 11520.2c2.2-2.8 6.3.9 4.1 3.6-3.9 4.7-11.1 5.3-14.4-.3a7.3 7.3 0 0 1 .2-7.8c1.5-2.1 2.2-3.2 2-5.8l-.5-5.2c-.3-3.5 5.1-3.8 5.5-.3s1.7 8 .2 10.8c-.6 1.1-3.3 3.6-2.8 5 1.1 3.1 4.1 2 5.7 0zM892.4 11494.6a2.7 2.7 0 0 1 .3 5.5 2.7 2.7 0 0 1-.3-5.5z" transform="translate(-222.6 -11406.6)" fill="#262016"/><path d="M886.9 11540.7c3.8 9.3-2.7 18.3-11.4 21l-1.7-3.9a238.7 238.7 0 0 1-9.2-27c9.3-3.1 18.5.6 22.3 9.9z" transform="translate(-222.6 -11406.6)" fill="#dd553a"/><path d="M854.9 11512.9c-1.8.7-6.4-5.6-6.8-6.3a15 15 0 0 1-1.2-6c-.1-2.1 1.7-7.9 4.9-5l.3.2q1.2 8.6 2.8 17.1z" transform="translate(-222.6 -11406.6)" fill="#ffc9a4"/><path d="M1007.4 11583.6c16.3.1 44.7 1.7 44.5 24.3-.1 7.4-3.5 13.2-11.2 14.3-4.5.6-9-.4-13.5-.4l-18.9.2q-44.3.1-88.5-2.8c2.5-.8 2.5-4.7 0-5.2a1.1 1.1 0 0 1 0-.2c23.7 1.6 47.5 2.6 71.2 2.8 12.1.1 24.1-.4 36.2-.2 3.5.1 7.1.6 10.6.5 7.1-.3 10.1-5.8 8.3-12.3-6.3-21.9-44.4-16.3-61.5-14.2-21.1 2.7-42 7.3-63.2 9v-.6h1c3 .2 3.4-3.8 1.2-5 28-2.4 55.6-10.3 83.8-10.2z" transform="translate(-222.6 -11406.6)" fill="#262016"/><path d="M1046 11604.7c1.9 6.5-1.1 12-8.2 12.3-3.5.1-7.1-.4-10.6-.5-12-.2-24.1.3-36.2.2-23.8-.2-47.5-1.2-71.2-2.8.3-4.8.9-9.5 1.6-14.3 21.2-1.7 42.1-6.4 63.2-9 17-2.2 55.1-7.8 61.4 14.1z" transform="translate(-222.6 -11406.6)" fill="#538463"/><path d="M923.6 11594.1c2.2 1.2 1.8 5.2-1.2 5h-1l.2-1.2-1.4 1.1-4.1-.2.4-2.4a2.7 2.7 0 0 1 2.6-2z" transform="translate(-222.6 -11406.6)" fill="#262016"/><path d="M922.4 11593.7a2.7 2.7 0 0 1 1.2.4l-4.6.4a2.7 2.7 0 0 0-2.6 2l-.4 2.4a60.8 60.8 0 0 0-9.5.4c-4.5.6-3.6 4.9-3.9 8.4s-.3 4.6-.4 6.8h-1.9a2.2 2.2 0 0 0-2.6-2h-.7c.2-3.1.4-6.1.6-9.2l1.3-.2c3.4-.4 3.4-5.8 0-5.4h-.4a5.8 5.8 0 0 1 3.2-3c6-2.5 14.4-1.3 20.7-1zM921.6 11597.8l-.2 1.2h-1.3z" transform="translate(-222.6 -11406.6)" fill="#262016"/><path d="M921.4 11599v.6l-2.3.2 1.1-.9h1.3z" transform="translate(-222.6 -11406.6)" fill="#262016"/><path d="M919 11599.8l2.3-.2c-.7 4.8-1.2 9.5-1.6 14.3l-2.8-.2a2.4 2.4 0 0 0-1.7.5h-.8c.4-5.2.9-10.3 1.7-15.5l4.1.2zM919.7 11614.1c2.5.5 2.5 4.4 0 5.2l-2.9-.2-.8-.2a2.8 2.8 0 0 0 3.5-2.5q.1-1.2.2-2.3z" transform="translate(-222.6 -11406.6)" fill="#262016"/><path d="M916.9 11619.1l2.9.2h-.8c-6.5.4-13.1.1-19.6.5a2.7 2.7 0 0 1-2.6-2h1a2.8 2.8 0 0 0 2.5-2.3l1.7 1.7.2-2.8 12.1-.2v2.2a2.3 2.3 0 0 0 1.9 2.5zM916.9 11613.7l2.8.2a1.1 1.1 0 0 0 0 .2h-.7l-3.9.2a2.4 2.4 0 0 1 1.8-.6z" transform="translate(-222.6 -11406.6)" fill="#262016"/><path d="M919.7 11614.1q-.1 1.2-.1 2.3a2.8 2.8 0 0 1-3.5 2.5 2.9 2.9 0 0 1-.9-4.7l3.9-.2h.7z" transform="translate(-222.6 -11406.6)" fill="#262016"/><path d="M906.6 11599.2a60.8 60.8 0 0 1 9.5-.4c-.8 5.1-1.3 10.3-1.7 15.5l-12.1.2.4-6.8c.3-3.7-.7-7.9 3.9-8.5z" transform="translate(-222.6 -11406.6)" fill="#52705a"/><path d="M914.4 11614.2h.8a2.9 2.9 0 0 0 .9 4.7 2.3 2.3 0 0 1-1.9-2.5v-2.2zM902.3 11614.4l-.2 2.8-1.7-1.7a3.4 3.4 0 0 0 0-1h1.9z" transform="translate(-222.6 -11406.6)" fill="#262016"/><path d="M900.4 11614.5a3.4 3.4 0 0 1 0 1l-.9-1h1z" transform="translate(-222.6 -11406.6)" fill="#262016"/><path d="M900.4 11614.5h-1l.9 1a2.8 2.8 0 0 1-2.5 2.3h-1a2 2 0 0 1-.1-.7l.3-4.7h.8a2.2 2.2 0 0 1 2.6 2.1zM899 11597.8c3.4-.4 3.4 4.9 0 5.4l-1.3.2v-.6a14.4 14.4 0 0 1 .9-4.9h.4z" transform="translate(-222.6 -11406.6)" fill="#262016"/><path d="M898.6 11597.8a14.4 14.4 0 0 0-.9 4.9v.6l-16.1 2.1c-5.1.7-14.6.3-18.3 5.2l-3.2-.7-2.5-.4c2.2-4.8 6.9-7.2 12.4-8z" transform="translate(-222.6 -11406.6)" fill="#262016"/><path d="M881.5 11605.4l16.1-2.1c-.2 3.1-.4 6.1-.6 9.2a118.3 118.3 0 0 1-33.9-1.9c3.8-4.9 13.4-4.5 18.4-5.2z" transform="translate(-222.6 -11406.6)" fill="#ffc9a4"/><path d="M897 11612.5l-.3 4.7a2 2 0 0 0 .1.7 123.8 123.8 0 0 1-38.2-2.8 2.7 2.7 0 0 1-1.9-3.3 14.5 14.5 0 0 1 .8-2.2l2.5.4 1.9 3.3a7.2 7.2 0 0 1 1.3-2.6 118.3 118.3 0 0 0 33.8 1.8z" transform="translate(-222.6 -11406.6)" fill="#262016"/><path d="M863.2 11610.6a7.2 7.2 0 0 0-1.3 2.6l-1.9-3.3zM983.9 11611.8a2.7 2.7 0 0 1-1.9 3.3 123.8 123.8 0 0 1-37.4 2.9 2.1 2.1 0 0 0 .1-.7c-.1-1.5-.2-3.1-.3-4.6a118.8 118.8 0 0 0 33-2 7.2 7.2 0 0 1 1.3 2.6l1.9-3.3 2-1.4a13.7 13.7 0 0 1 1.3 3.2z" transform="translate(-222.6 -11406.6)" fill="#262016"/><path d="M982.6 11608.5l-2 1.4-3.2.7c-3.8-4.9-13.3-4.5-18.3-5.2l-15.3-2a18 18 0 0 0-.7-5.5c9.2 1.2 18.5 2 27.6 3.6 5.1 1 9.5 2.9 11.9 7z" transform="translate(-222.6 -11406.6)" fill="#262016"/><path d="M980.6 11609.9l-1.9 3.3a7.2 7.2 0 0 0-1.3-2.6z" transform="translate(-222.6 -11406.6)" fill="#262016"/><path d="M959.1 11605.4c5.1.7 14.6.3 18.3 5.2a118.8 118.8 0 0 1-33 2c-.2-2.7-.4-5.5-.5-8.2v-1z" transform="translate(-222.6 -11406.6)" fill="#ffc9a4"/><path d="M944.7 11617.2a2.1 2.1 0 0 1-.1.8h-1.9a2.7 2.7 0 0 1-2.3-1.7l1.6-1.6h-1.8a2.2 2.2 0 0 1 2.5-2h1.6c.2 1.4.3 3 .4 4.5z" transform="translate(-222.6 -11406.6)" fill="#262016"/><path d="M942.8 11617.8h1.9a2.7 2.7 0 0 1-2.6 1.9c-6.5-.4-13.1-.1-19.6-.5l4.9-.3.8-.2a2.3 2.3 0 0 0 1.9-2.5c0-.7-.1-1.4-.1-2.1h9.3l.2 2.8 1.1-1.1a2.7 2.7 0 0 0 2.2 2z" transform="translate(-222.6 -11406.6)" fill="#262016"/><path d="M944.4 11612.6h-1.6a2.2 2.2 0 0 0-2.5 2h-1l-.5-6.8c-.2-3.4.7-8-3.9-8.4-2.2-.2-4.5-.3-6.7-.3l-.4-2.4a2.7 2.7 0 0 0-2.6-2l-6.9-.6h.7c7-.4 15.3-1.3 21.8 1.6a4.3 4.3 0 0 1 2.3 2.6l-1.5-.2c-3.4-.4-3.4 4.9 0 5.4l2.2.3v1c.3 2.3.4 5.1.6 7.8z" transform="translate(-222.6 -11406.6)" fill="#262016"/><path d="M943.8 11603.4l-2.2-.3c-3.4-.4-3.4-5.8 0-5.4l1.5.2a18 18 0 0 1 .7 5.5zM942 11614.5l-1.6 1.6a3 3 0 0 1-.2-1.7h1.8z" transform="translate(-222.6 -11406.6)" fill="#262016"/><path d="M940.4 11616.1l-1.1 1.1-.2-2.8h1a3 3 0 0 0 .3 1.7z" transform="translate(-222.6 -11406.6)" fill="#262016"/><path d="M938.7 11607.6l.5 6.8h-9.3c-.4-5.2-.9-10.3-1.7-15.4 2.2 0 4.5.1 6.7.3 4.5.3 3.6 4.8 3.8 8.3z" transform="translate(-222.6 -11406.6)" fill="#52705a"/><path d="M930 11616.4a2.3 2.3 0 0 1-1.9 2.5 2.9 2.9 0 0 0 1-4.6h.8c0 .7 0 1.4.1 2.1z" transform="translate(-222.6 -11406.6)" fill="#262016"/><path d="M929.8 11614.3h-.8a2.4 2.4 0 0 0-1.8-.6l-2.8.2c-.3-4.8-.9-9.5-1.6-14.3l2.3.2-1.2-.9h4.2c.8 5.1 1.4 10.2 1.7 15.4z" transform="translate(-222.6 -11406.6)" fill="#262016"/><path d="M929.1 11614.3a2.9 2.9 0 0 1-1 4.6 2.8 2.8 0 0 1-3.5-2.5c0-.7-.1-1.5-.1-2.2h4.6zM927.8 11596.4l.4 2.4H924l-1.4-1 .2 1.1-3.7.2c-3.2.2-3.4-4.4-.7-5.2l6.9.6a2.7 2.7 0 0 1 2.5 1.9z" transform="translate(-222.6 -11406.6)" fill="#262016"/><path d="M927.3 11613.7a2.4 2.4 0 0 1 1.8.6h-4.6v-.2z" transform="translate(-222.6 -11406.6)" fill="#262016"/><path d="M924.6 11616.4a2.8 2.8 0 0 0 3.5 2.5l-.8.2-4.9.3c-3.2-.2-3.4-4.8-.7-5.3h2.7c.1.8.2 1.5.2 2.3zM924 11598.9l1.2.9-2.3-.2v-.7h1.1zM924.5 11614.1v.2z" transform="translate(-222.6 -11406.6)" fill="#262016"/><path d="M924.5 11613.9h-2.7q-32.4 2.1-65 2.6c-11.1.2-22.3.1-33.4 0-8.8-.1-25.5 4.2-25.7-8.6-.3-24.7 43.6-19.3 58.7-17.8 22.3 2.3 44.1 7.6 66.5 9.4.7 4.9 1.2 9.6 1.6 14.4z" transform="translate(-222.6 -11406.6)" fill="#538463"/><path d="M922.6 11597.8l1.4 1h-1.2zM922.8 11598.9v.7c-22.4-1.9-44.2-7.1-66.5-9.4-15.1-1.5-59-6.9-58.7 17.8.1 12.8 16.9 8.5 25.7 8.6 11.1.2 22.3.2 33.4 0q32.5-.5 65-2.6c-2.8.5-2.5 5.1.7 5.3-29.8 2-59.7 2.9-89.6 2.7-6.5-.1-13.1-.5-19.6-.1-4.5.3-9 .8-13.4-.6-6.4-2-7.9-9.6-7.4-15.4 2.1-22.1 30.9-22.9 47.6-22.3 26.4 1 52.1 7.5 78.3 10.2-2.7.8-2.4 5.4.7 5.2zM922.3 11614z" transform="translate(-222.6 -11406.6)" fill="#262016"/><path d="M629 11606c14.4 22.8-24.1 20-36.5 20.2h-.8c2.8-.6 5.3-1.8 5.6-4.6a3.2 3.2 0 0 0 0-.4c5.1-.1 10.3-.2 15.4-.5s19.2-.6 13.2-10.1c-3.8-6-10.5-9.1-17.6-9.3-12.6-.3-26.2 3.5-38.7 7l-2.6-1.1-1.4-.6a47.8 47.8 0 0 0 7.9-.7 48.5 48.5 0 0 0 20.1-8.3l4.9-.8c10.2-1.7 24.4-.4 30.5 9.2z" transform="translate(-222.6 -11406.6)"/><path d="M625.9 11610.5c6 9.6-9.4 9.9-13.2 10.1s-10.2.4-15.4.5c.4-9.4-15-10.6-22.8-9.6-.9-1.5-3-2.6-5-3.4 12.5-3.5 26.1-7.3 38.7-7 7.2.3 13.9 3.4 17.7 9.4z" transform="translate(-222.6 -11406.6)" fill="#f9e073"/><path d="M608.9 11510.4c10.6 13 11.1 30.2 1.3 43.8a54.6 54.6 0 0 0-1.5-7.2c6.8-13.7 3.5-30.3-10.6-38.9a62.5 62.5 0 0 0-39.7-8.3c-15.1 1.7-34.1 6.5-41.8 21-6.2 11.7-5.2 24 .5 35a72.9 72.9 0 0 0 .7 10.2l-.4-.5c-10.5-14-14.7-34.1-3.8-49.3s28-20.1 44.9-21.5 39 1.8 50.4 15.7zM610.2 11554.2a49 49 0 0 1-2.3 24.5l-1.7-.6c.7-1.5-.1-3.6-2.2-3.4h-.1a51.4 51.4 0 0 0 1.4-18.3h.3a2.1 2.1 0 0 0 1.2-.5 2.6 2.6 0 0 0 3-.9z" transform="translate(-222.6 -11406.6)"/><path d="M610.2 11554.2l-.5.6a2.6 2.6 0 0 1-3 .9c1.2-1 .6-3.3-.9-4a32.4 32.4 0 0 0 2.8-4.7 54.6 54.6 0 0 1 1.6 7.2z" transform="translate(-222.6 -11406.6)"/><path d="M598.1 11508.1c14.1 8.6 17.4 25.2 10.6 38.9a55.2 55.2 0 0 0-3.6-9.5l-1.5-2.8a2.4 2.4 0 0 0-4.1-.2c-11.4-4.7-24.9-5.2-36.8-4.4-13.7 1-29.5 4.6-41.1 12.4a2.8 2.8 0 0 0-3.8 2.2 102.9 102.9 0 0 0-.6 11.1c-5.7-11-6.7-23.3-.5-35 7.7-14.6 26.7-19.3 41.8-21a62.5 62.5 0 0 1 39.6 8.3z" transform="translate(-222.6 -11406.6)" fill="#665930"/><path d="M607.9 11578.7v.2a40.8 40.8 0 0 1-14.1 18.5c-5.3 1-10.7 2.2-16 3.5l-.3-1.2c10.8-3 20.3-9.7 24.8-20.1h1.7a2.5 2.5 0 0 0 2.2-1.6zM605.9 11551.7c1.5.8 2.1 3 .9 4a2.6 2.6 0 0 1-1.7-1.5v-.7a2.2 2.2 0 0 1 .5-1.2z" transform="translate(-222.6 -11406.6)"/><path d="M604 11574.6c2.1-.2 2.8 1.9 2.2 3.4a2.5 2.5 0 0 1-2.2 1.6h-1.8a33.6 33.6 0 0 0 1.4-4.1l.2-.9h.2zM608.7 11547a32.4 32.4 0 0 1-2.8 4.7 2.5 2.5 0 0 0-1.3-.3 47.6 47.6 0 0 0-3.5-10.7l.5.2c2.4 1.3 4.6-1.5 3.5-3.4h.1a55.2 55.2 0 0 1 3.5 9.5zM606.8 11555.8a2.1 2.1 0 0 1-1.2.5h-.3l-.3-2.1a2.6 2.6 0 0 0 1.8 1.6z" transform="translate(-222.6 -11406.6)"/><path d="M605.9 11551.7l-.4.6a2.2 2.2 0 0 0-.5 1.3l-.4-2.1a2.5 2.5 0 0 1 1.3.2z" transform="translate(-222.6 -11406.6)"/><path d="M605.3 11556.3a51.4 51.4 0 0 1-1.4 18.3c-6.4.5-9.3-5.4-7.8-11s5.3-6.6 9.2-7.3z" transform="translate(-222.6 -11406.6)" fill="#dd553a"/><path d="M605.1 11554.2l.3 2.1c-4 .6-8.1 3.1-9.2 7.3s1.4 11.5 7.8 11l-.2.9a33.6 33.6 0 0 1-1.4 4.1c-7.2-.4-11.9-6.8-11.6-14.1s6.8-13.1 13.6-14.1h.3l.4 2.1a1.7 1.7 0 0 0 0 .7zM605 11537.5c1.1 1.9-1.1 4.8-3.5 3.4l-.5-.2c-.5-1.2-1.1-2.4-1.8-3.5a2.3 2.3 0 0 1 .2-2.7 44.5 44.5 0 0 1 4.6 2.2 2.5 2.5 0 0 1 1 .8z" transform="translate(-222.6 -11406.6)"/><path d="M605.1 11537.5h-.1a2.5 2.5 0 0 0-.9-.9 44.5 44.5 0 0 0-4.6-2.2 2.4 2.4 0 0 1 4.1.2zM605 11553.5v.7a1.7 1.7 0 0 1 0-.7z" transform="translate(-222.6 -11406.6)"/><path d="M604.6 11551.4h-.3c-6.9 1-13.4 6.8-13.6 14.1s4.3 13.7 11.6 14.1c-4.5 10.4-14 17.1-24.8 20.1a50.4 50.4 0 0 1-6.9 1.4c-12.7 1.7-26.4-2.3-35.9-11 5.8-2.9 9-10.2 7.7-16.5-1.8-9.2-12.2-11.9-19.9-8.8a85.3 85.3 0 0 1 0-16.8c11.1-8.2 26.6-11.5 40.2-12.9s27.3-.4 38.4 5.6a47.6 47.6 0 0 1 3.5 10.7zm-15.2-1.4c3-1.1 1.7-5.9-1.3-4.8s-8.2 1.8-10.4-1.1-6.3 0-4.3 2.5c3.6 5 10.5 5.4 16 3.5zm-12.7 39.3a8.2 8.2 0 0 0 1.4-10.8l-.2-.3v-.2a7.3 7.3 0 0 0-10.7-.5c-2.5 2.5-2.5 6.8-.7 9.8a7.1 7.1 0 0 0 10.1 2.1zm-6.4-21.9c2-2.5-1.5-6-3.5-3.5-.7.9-3.9 4-4 1.3s.8-2.6 1.3-3.7a10.6 10.6 0 0 0 .7-3.6c.1-3.2-5-3.2-5 0s-1.5 4.2-1.8 6.5a6.6 6.6 0 0 0 1.7 5.5c2.9 3.4 8.2.3 10.5-2.5zm-19-16.9c1.9-2.6-2.5-5.1-4.3-2.5s-6.6 2.8-9.9 1.3-5.5 3-2.5 4.3c5.8 2.7 12.5 2.6 16.6-3.1z" transform="translate(-222.6 -11406.6)" fill="#ffd6bb"/><path d="M599.3 11537.2c.6 1.2 1.3 2.3 1.8 3.5-11.1-6-26.1-6.9-38.4-5.6s-29 4.7-40.2 12.9l.3-3.3a2 2 0 0 0-1.2-2.2c11.6-7.8 27.4-11.5 41.1-12.4 11.9-.8 25.5-.4 36.8 4.4a2.3 2.3 0 0 0-.2 2.7zM586.9 11617.3l-3.1-.8a25.5 25.5 0 0 0-8.6 0 14.1 14.1 0 0 0-.3-4.2l-.3-.7c7.8-1 23.2.2 22.8 9.6h-4.8a2.3 2.3 0 0 0-2 1l-.2-1h.4c3.4-.9-4.1-3.9-3.9-3.9z" transform="translate(-222.6 -11406.6)"/><path d="M597.4 11621.1a3.2 3.2 0 0 1 0 .4c-.2 2.7-2.8 4-5.6 4.6a2.6 2.6 0 0 1-1.2-3.9 2.3 2.3 0 0 1 2-1h4.8z" transform="translate(-222.6 -11406.6)"/><path d="M586.9 11617.3c-.2 0 7.4 3 3.8 3.9h-.4a49.5 49.5 0 0 1-16.3.8 16.9 16.9 0 0 0 1.2-5.6 25.5 25.5 0 0 1 8.6 0z" transform="translate(-222.6 -11406.6)" fill="#ffd6bb"/><path d="M590.3 11621.2l.2 1a2.6 2.6 0 0 0 1.2 3.9 38 38 0 0 1-6.3.6c-5.3.3-11.3.7-16.5-.6h.8c2.1-.3 3.5-1.9 4.3-4a49.5 49.5 0 0 0 16.3-.9zM588.1 11545.2c3.1-1.1 4.4 3.8 1.3 4.8-5.5 1.9-12.4 1.5-16.1-3.4-2-2.6 2.4-5.1 4.3-2.5s7.5 2.2 10.5 1.1zM577.7 11601c5.3-1.3 10.7-2.6 16-3.5a48.5 48.5 0 0 1-20.1 8.3 47.8 47.8 0 0 1-7.9.8l-3.4-1.5.5-.2zM578.1 11578.6a8.2 8.2 0 0 1-1.4 10.8 7.1 7.1 0 0 1-10.4-2c-1.8-2.9-1.8-7.2.7-9.8a7.3 7.3 0 0 1 10.7.5v.2c-1.9-2.1-5.8.3-4.1 2.8v.2c-2.4-2.5-5.2.9-3.3 3.5.8 1.1 2.2 1.6 3.2.5a3.2 3.2 0 0 0 .2-3.9l.3.3c2 2.5 5.4-.9 3.7-3.3z" transform="translate(-222.6 -11406.6)"/><path d="M577.8 11578.3c1.7 2.5-1.7 5.8-3.7 3.3l-.2-.3v-.2c-1.7-2.6 2.1-5 4.1-2.8zM577.4 11599.7l.3 1.2-15 3.9-.5.2c-3.3-1.4-6.7-2.6-10-3.8a129.8 129.8 0 0 0-18.8-5.2 35.1 35.1 0 0 1-4.6-4.5l-.6-.7.2-.2a2.1 2.1 0 0 0 1.9.7 11.6 11.6 0 0 0 4.3-1.2c9.5 8.7 23.2 12.7 35.9 11a50.4 50.4 0 0 0 6.9-1.4zM574.9 11612.2a14.1 14.1 0 0 1 .3 4.2l-1.4.3c-3.2.7-4.5-4.1-1.3-4.8l2.1-.3z" transform="translate(-222.6 -11406.6)"/><path d="M573.8 11616.7l1.4-.3a16.9 16.9 0 0 1-1.2 5.6 30.2 30.2 0 0 1-4.3-.8h-.7v-1.1a2.2 2.2 0 0 0 .7-1.3c.8-5.6-.4-5.2-5.1-7.4l-2.5-1.1.4-.8a2.4 2.4 0 0 0 1.7.1l5.5-1.5c1.9.8 4.1 1.9 5 3.4l-2.1.3c-3.3.8-1.9 5.6 1.2 4.9z" transform="translate(-222.6 -11406.6)"/><path d="M573.9 11581.4a3.2 3.2 0 0 1-.2 3.9c-.9 1.1-2.4.6-3.2-.5-1.9-2.6 1-5.9 3.3-3.5z" transform="translate(-222.6 -11406.6)" fill="#f48f7d"/><path d="M569.8 11621.2a30.2 30.2 0 0 0 4.3.8c-.9 2.1-2.3 3.8-4.3 4h-1.3c-2.8-.8-2-4.8.5-4.9h.8zM566.7 11563.9c2.1-2.5 5.6 1.1 3.5 3.5s-7.6 5.9-10.7 2.5a6.6 6.6 0 0 1-1.7-5.5c.3-2.3 1.8-4.2 1.8-6.5s5.1-3.2 5 0a10.6 10.6 0 0 1-.7 3.6c-.4 1.1-1.3 2.5-1.2 3.7s3.3-.4 4-1.3z" transform="translate(-222.6 -11406.6)"/><path d="M564.5 11611.4c4.7 2.1 5.8 1.8 5.1 7.4a2.2 2.2 0 0 1-.7 1.3c-3.7 3.5-20.4 1.5-23.5 1.3-13.9-.8-27.7-3.3-41.4-5.4-6.9-1.1-12.2-6.8-4.6-11.9 3.9-2.7 9.4-3.7 14-4.2 13.5-1.5 27.8 2.8 40.4 7.2 2.8 1 5.5 2.1 8.2 3.3z" transform="translate(-222.6 -11406.6)" fill="#f9e073"/><path d="M568.9 11620.1v1.1c-2.5.1-3.3 4.2-.5 4.9h.6c-21.8 2.9-44.8-2.1-66.3-5.4 3.2.5 4.5-4.3 1.3-4.8 13.7 2.1 27.5 4.6 41.4 5.4 3.1.3 19.8 2.3 23.5-1.2zM567 11607.1l2.6 1.1-5.5 1.5a2.4 2.4 0 0 1-1.7-.1 2.7 2.7 0 0 1-1.3-3.2h4.6z" transform="translate(-222.6 -11406.6)"/><path d="M565.7 11606.5h-4.6a2.2 2.2 0 0 1 1.2-1.3z" transform="translate(-222.6 -11406.6)"/><path d="M562.4 11609.5l-.4.8c-2.7-1.2-5.4-2.3-8.2-3.3-12.6-4.4-26.9-8.8-40.4-7.2-4.6.5-10.1 1.5-14 4.2-7.6 5.1-2.2 10.8 4.6 11.9-3.2-.5-4.5 4.3-1.3 4.8-4.8-.8-12.6-2.6-12.8-8.9s3.2-10.6 8.6-13.1c10.9-5 23.2-5 35-2.8 7.6 6.2 17.7 9.6 27.7 10.3a2.7 2.7 0 0 0 1.2 3.3z" transform="translate(-222.6 -11406.6)"/><path d="M562.3 11605a2.2 2.2 0 0 0-1.2 1.3c-10-.7-20.1-4.2-27.7-10.3a129.8 129.8 0 0 1 18.8 5.2c3.4 1.2 6.8 2.4 10.1 3.8zM546.9 11548c1.9-2.6 6.2-.1 4.3 2.5-4.1 5.7-10.8 5.8-16.7 3.1-2.9-1.3-.4-5.7 2.5-4.3s7.5 2 9.9-1.3zM542.4 11573.6c1.3 6.3-2 13.6-7.7 16.5a37.4 37.4 0 0 1-3.7-3.9c4.9-1 8.4-8.6 6-12.9s-7.9-6.1-12.7-3.8l-1 .3c-.3-1.6-.6-3.3-.8-4.9 7.6-3.1 18.1-.4 19.9 8.7z" transform="translate(-222.6 -11406.6)"/><path d="M537 11573.4c2.4 4.3-1.1 11.9-6 12.9l-1.1-1.4a37.7 37.7 0 0 1-6.6-15.1l1-.2c4.8-2.4 10-1 12.7 3.8z" transform="translate(-222.6 -11406.6)" fill="#dd553a"/><path d="M531 11586.3a37.4 37.4 0 0 0 3.7 3.9 11.6 11.6 0 0 1-4.3 1.2 2.1 2.1 0 0 1-1.9-.7 2.7 2.7 0 0 1 1.9-4.3h.6z" transform="translate(-222.6 -11406.6)"/><path d="M531 11586.3h-.6a2.7 2.7 0 0 0-1.9 4.3l-.2.2c-6.1-7.4-9.2-15.9-10.4-24.9a4.8 4.8 0 0 1 5.5 3.8 37.7 37.7 0 0 0 6.6 15.1z" transform="translate(-222.6 -11406.6)"/><path d="M523.3 11569.8a2.7 2.7 0 0 1-2.7-3.4 2.6 2.6 0 0 0 1.4-1.3l.5-.2c.2 1.6.5 3.2.8 4.9zM521.6 11542.5a2 2 0 0 1 1.2 2.2l-.3 3.3-.3.2c-2.6 1.9-5.1-2.4-2.5-4.3z" transform="translate(-222.6 -11406.6)"/><path d="M522.5 11564.8l-.5.2a2 2 0 0 0-.3-2.1 53.3 53.3 0 0 1-4.5-7.2 102.9 102.9 0 0 1 .6-11.1 2.8 2.8 0 0 1 3.8-2.2l-2 1.4c-2.6 1.9-.1 6.3 2.5 4.3l.3-.2a85.3 85.3 0 0 0 .1 16.9z" transform="translate(-222.6 -11406.6)"/><path d="M521.7 11563a2 2 0 0 1 .3 2.1h-.3a2.1 2.1 0 0 0-1.1 1.1 2.7 2.7 0 0 1-2.8-.4 72.9 72.9 0 0 1-.7-10.2 53.3 53.3 0 0 0 4.6 7.4z" transform="translate(-222.6 -11406.6)"/><path d="M521.7 11565.2h.3a2.6 2.6 0 0 1-1.4 1.3 2.1 2.1 0 0 1 1.1-1.3zM504 11616c3.2.5 1.8 5.4-1.3 4.8s-1.9-5.3 1.3-4.8zM772.3 11600.1c3.9 2.6 8.5 7.5 6.9 12.9s-7.1 7.3-12.7 8.3c3.2-.5 1.8-5.3-1.3-4.8 2.8-.5 11.2-1.4 8.9-7.1a11 11 0 0 0-5.9-5.8 36.6 36.6 0 0 0-12.4-3.3c-12.3-.8-24.9 1.8-36.6 5.8l-.2-.7a40.7 40.7 0 0 0 13.6-8.2c13.3-3.1 28.7-4.6 39.7 2.9z" transform="translate(-222.6 -11406.6)"/><path d="M774 11609.3c2.3 5.7-6.1 6.6-8.9 7.1-13.8 2.1-27.5 4.4-41.4 5.4a164.1 164.1 0 0 1-18.7.2 7.9 7.9 0 0 1-3.2-.8c-3.6-1.7-4.1-6 0-8.1a138.6 138.6 0 0 1 13.5-5.7l3.9-1.4c11.7-4 24.3-6.7 36.6-5.8a36.6 36.6 0 0 1 12.4 3.3 11 11 0 0 1 5.8 5.8z" transform="translate(-222.6 -11406.6)" fill="#f9e073"/><path d="M764.7 11549.5c.8 2.9 6.4 7.6 5.1 11.1a16.9 16.9 0 0 1-4.9 6.7c-4.9 4.5-11.2 11.2-18.4 10.4l-1.1-.4c.5-1.5 1-3.1 1.4-4.6 5.6.3 13.6-7.3 16.9-11.4 1.3-1.7-2.8-6.6-3.3-8.2-1-3.2-1.8-6.5-3-9.7-6.5-18-18-35.8-38-40.5-17.8-4.2-37.8-.2-51.6 12.4-6.8 6.2-12.2 13.5-17.2 21.3-3.3 5.1-7.2 8-1.1 12.7 2.1 1.6 4.2 3.4 6.4 4.8a52.2 52.2 0 0 0-.5 5.6c-5.1-2.8-17.1-10.8-14.6-16.8 4.3-10.2 13.4-22 21.7-29.5 16-14.5 39.7-21.8 60.7-14.6 23.2 7.8 35 28.4 41.5 50.7zM765.1 11616.4c3.2-.5 4.5 4.3 1.3 4.8s-4.5-4.3-1.3-4.8z" transform="translate(-222.6 -11406.6)"/><path d="M765.1 11616.4c-3.2.5-1.8 5.4 1.3 4.8-12.1 1.9-24.3 4-36.5 5.1a179.5 179.5 0 0 1-18.7.9c-3.2 0-8 .6-11.4-.5l.8-.2c2.3-.6 2.2-3.3.8-4.4l.4-.8a7.9 7.9 0 0 0 3.2.8 164.1 164.1 0 0 0 18.7-.2c13.9-1.1 27.6-3.4 41.4-5.5z" transform="translate(-222.6 -11406.6)"/><path d="M760.5 11553c.5 1.7 4.6 6.6 3.3 8.3-3.2 4.1-11.3 11.7-16.9 11.4a54.5 54.5 0 0 0 .8-23.3c-.4-2-2.4-2.2-3.7-1.3a95.6 95.6 0 0 0-10.3-7.2 33 33 0 0 0-7-3.4c-2-.7-3-5-3.6-8l-.4-2.4c-.3-2-2.9-2.3-4.2-1.1-4.2 3.9-6.5 6.7-12.7 5a71.5 71.5 0 0 0-12.4-1.8c-8.8-.8-17.5-1.1-26.1 1.1-1.1-1.2-3.1-1.5-3.9.3a84.7 84.7 0 0 0-7.5 23.4c-2.2-1.5-4.3-3.2-6.4-4.8-6.1-4.7-2.2-7.6 1.1-12.7 5-7.7 10.4-15.1 17.2-21.3 13.8-12.5 33.7-16.6 51.6-12.4 19.9 4.7 31.4 22.5 38 40.5 1.3 3.2 2.2 6.5 3.1 9.7z" transform="translate(-222.6 -11406.6)" fill="#665930"/><path d="M747.7 11549.3a54.5 54.5 0 0 1-.8 23.3h-.3c-2.8-.3-3.1 3.4-1.1 4.6a48.6 48.6 0 0 1-13.1 19.9c-4.6 1-8.9 2.3-12.7 3.5a135.2 135.2 0 0 0-12.9 4.8l-.5-.2-13.5-3.5.2-.6a45.3 45.3 0 0 0 5 1c12.6 1.7 25.3-1.4 33.8-10.6l1.9.6c3.1.8 4.4-4 1.4-4.8l.5-.8a53.4 53.4 0 0 0 6.7-16c3 .3 4.2-4.3 1.1-4.9h-.2a46.7 46.7 0 0 0 .2-11.2l.5.5c2.2 2.4 5.7-1.2 3.5-3.5a36.4 36.4 0 0 0-3.5-3.4c1.4-.9 3.5-.7 3.8 1.3z" transform="translate(-222.6 -11406.6)"/><path d="M747.5 11551.4c2.2 2.4-1.4 5.9-3.5 3.5l-.5-.5c-.1-1.3-.3-2.5-.5-3.8a2.6 2.6 0 0 1 1.1-2.6 36.4 36.4 0 0 1 3.4 3.4zM746.6 11572.6h.3c-.4 1.6-.9 3.1-1.4 4.6-2-1.1-1.7-4.9 1.1-4.6zM743.5 11565.7c3.1.6 1.9 5.2-1.1 4.9a47.2 47.2 0 0 0 .9-4.9h.2z" transform="translate(-222.6 -11406.6)"/><path d="M743.4 11554.4a46.7 46.7 0 0 1-.2 11.2 16.1 16.1 0 0 0-17.6 8.4 12.7 12.7 0 0 0 6.1 17.5c-8.5 9.2-21.2 12.3-33.8 10.6a45.3 45.3 0 0 1-5-1 47.6 47.6 0 0 1-28.1-20.8l-.5-.9c6.7-.8 12.2-7.1 12.9-13.8.9-8.8-7.9-14.8-15.9-14.1a83.8 83.8 0 0 1 5.4-15.9c11.6-3.7 26.1-2.8 37.9.1 6.9 1.7 9.9.4 14.1-3.2.8 3.7 2.2 8.1 4.8 9a51 51 0 0 1 19.9 12.9zm-18.1 6.2a2.5 2.5 0 0 0 1.7-3.1 2.6 2.6 0 0 0-3.1-1.7 7.6 7.6 0 0 1-6.7-2.7c-2.1-2.4-5.6 1.1-3.5 3.5a12.6 12.6 0 0 0 11.6 4zm-13.3 22c2.5-1.9 0-6.3-2.5-4.3-5.4 4.1-15.7 3.3-20.7-1.4-2.4-2.2-5.9 1.3-3.5 3.5 6.5 6.1 19.5 7.8 26.8 2.2zm-6.3-13.1c2.8-1.7.2-6-2.5-4.3s-5.5 2.3-3.6-.8 3-3.4 3.8-5.7-3.8-4.4-4.8-1.3-2.6 3.3-3.6 5.1-1.4 4.5-.2 6.2c2.5 3.7 7.4 3 10.9.8zm-13.9-18.7c3.1-.9 1.8-5.7-1.3-4.8a9 9 0 0 1-8.2-1.6c-2.5-2-6 1.5-3.5 3.5a14.3 14.3 0 0 0 13 2.9z" transform="translate(-222.6 -11406.6)" fill="#ffd6bb"/><path d="M742.9 11550.7c.2 1.3.4 2.5.5 3.8a51 51 0 0 0-19.9-12.9c-2.6-.9-4-5.3-4.8-9l3.4-3.1h1c.5 3 1.6 7.3 3.6 8a33 33 0 0 1 7 3.4 95.6 95.6 0 0 1 10.3 7.3 2.6 2.6 0 0 0-1.1 2.5zM743.3 11565.7a47.2 47.2 0 0 1-.9 4.9h-.2c-4.1-.8-9.4.8-11.5 4.8s-1.4 10.7 4.4 12.1h.1a32 32 0 0 1-3.3 4.2 12.7 12.7 0 0 1-6.1-17.5 16.1 16.1 0 0 1 17.5-8.5z" transform="translate(-222.6 -11406.6)"/><path d="M742.1 11570.5h.2a53.4 53.4 0 0 1-6.7 16l-.5.8h-.1c-5.8-1.4-6.9-7.3-4.4-12.1s7.4-5.5 11.5-4.7z" transform="translate(-222.6 -11406.6)" fill="#dd553a"/><path d="M735.1 11587.4c3 .8 1.7 5.6-1.4 4.8l-1.9-.6a32 32 0 0 0 3.3-4.2zM727.1 11557.5a2.5 2.5 0 0 1-1.7 3.1 12.6 12.6 0 0 1-11.6-4c-2.1-2.4 1.4-6 3.5-3.5a7.6 7.6 0 0 0 6.7 2.7 2.6 2.6 0 0 1 3.1 1.7zM723.2 11529.4h-1l-4.2-1.1c.2 1 .4 2.5.8 4.2-4.2 3.6-7.2 4.9-14.1 3.2-11.7-2.9-26.2-3.7-37.9-.1l1.2-2.6a2.5 2.5 0 0 0-.4-2.9c8.5-2.3 17.3-2 26.1-1.1a71.5 71.5 0 0 1 12.4 1.8c6.2 1.7 8.5-1.1 12.7-5 1.3-1.2 3.8-.9 4.2 1.1z" transform="translate(-222.6 -11406.6)"/><path d="M718 11528.4l4.2 1.1-3.4 3.1c-.4-1.7-.7-3.3-.8-4.2zM719.7 11600.7c3.9-1.2 8.2-2.4 12.7-3.5a40.7 40.7 0 0 1-13.6 8.2 40.3 40.3 0 0 1-10.8 2.2 2.3 2.3 0 0 0-1.3-2.2 135.2 135.2 0 0 1 13-4.7z" transform="translate(-222.6 -11406.6)"/><path d="M718.9 11605.4l.3.7-3.9 1.4a138.6 138.6 0 0 0-13.5 5.7c-4.1 2.1-3.6 6.4 0 8.1l-.4.8a2.3 2.3 0 0 0-2.1-.4 25.4 25.4 0 0 1-4 .7 14.4 14.4 0 0 1-1.6-5.6l1.6.3c3.1.7 4.5-4.1 1.3-4.8l-2.1-.3a10.1 10.1 0 0 1 4.5-3.4l6 1.5a2.5 2.5 0 0 0 3.1-2.5 40.3 40.3 0 0 0 10.8-2.2zM709.5 11578.3c2.6-2 5 2.4 2.5 4.3-7.3 5.6-20.2 3.9-26.8-2.2-2.4-2.2 1.2-5.7 3.5-3.5 5.2 4.7 15.4 5.5 20.8 1.4z" transform="translate(-222.6 -11406.6)"/><path d="M706.8 11605.4a2.3 2.3 0 0 1 1.3 2.2 42.9 42.9 0 0 1-6.6-.1l3.3-1.3z" transform="translate(-222.6 -11406.6)"/><path d="M706.3 11605.3l.5.2-2 .8-3.3 1.3-2.5-.3a58.4 58.4 0 0 1-25.1-9.7c6.3 1.2 12.6 2.7 18.9 4.2zM701.5 11607.6a42.9 42.9 0 0 0 6.6.1 2.5 2.5 0 0 1-3.1 2.5l-6-1.5 2.5-1zM703.2 11565.2c2.8-1.7 5.3 2.6 2.5 4.3s-8.4 2.9-11-1c-1.2-1.7-.7-4.5.3-6.2s3-3.1 3.6-5.1 5.9-1.7 4.8 1.3-2.6 3.7-3.8 5.7 2.2 1.8 3.6 1zM701.4 11622c1.4 1.1 1.5 3.8-.8 4.4l-.8.2-1.1-.4a8.9 8.9 0 0 1-3.5-3.9 25.4 25.4 0 0 0 4-.7 2.3 2.3 0 0 1 2.2.4z" transform="translate(-222.6 -11406.6)"/><path d="M699 11607.3l2.5.3-2.5 1-12.1-2.8c-9.8-2.4-21-6.3-31.1-3.5-3.7 1-7.7 2.3-10.3 5.4-4.2 3.8-5.5 11.5 2.5 12.5a85.8 85.8 0 0 0 10.4 1l13.4.4a3.4 3.4 0 0 0 0 .4c.3 2.9 3 4 5.7 4.5h-.9c-10.7-.2-22.1.4-32.6-2.3-8.8-2.3-8.4-12.5-3.5-18.4 8.1-9.6 21.3-10.7 33-8.4h.4a58.4 58.4 0 0 0 25.1 9.9z" transform="translate(-222.6 -11406.6)"/><path d="M698.8 11626.2l1.1.4c-5.7 1.4-12.5 1-18.2.4l-4.1-.5c2.3-.8 1.9-4.8-.9-4.9l1.6-.7c.2.5 1.2.9 3.5 1.1a76.9 76.9 0 0 0 13.6.3 8.9 8.9 0 0 0 3.4 3.9zM696.6 11612.3c3.2.7 1.8 5.5-1.3 4.8l-1.6-.3a8.1 8.1 0 0 1 .8-4.8h.1z" transform="translate(-222.6 -11406.6)"/><path d="M699 11608.6a10.1 10.1 0 0 0-4.5 3.4c-7.8-1-23.2.2-22.8 9.6l-13.4-.4a85.8 85.8 0 0 1-10.4-1c-8-1-6.7-8.7-2.5-12.5 2.6-3.1 6.6-4.4 10.3-5.4 10.1-2.8 21.3 1.1 31.1 3.5z" transform="translate(-222.6 -11406.6)" fill="#f9e073"/><path d="M694.5 11612h-.1a8.1 8.1 0 0 0-.8 4.8 21.8 21.8 0 0 0-9.9.4c-2.1.6-6.1 2.5-5.5 3.7l-1.6.7h-4.8c-.5-9.4 14.9-10.6 22.7-9.6z" transform="translate(-222.6 -11406.6)"/><path d="M693.6 11616.8a14.4 14.4 0 0 0 1.6 5.6 76.9 76.9 0 0 1-13.6-.3c-2.2-.2-3.2-.6-3.5-1.1s3.4-3.1 5.5-3.7a21.8 21.8 0 0 1 10-.5z" transform="translate(-222.6 -11406.6)" fill="#ffd6bb"/><path d="M693 11601.2l-.2.6c-6.3-1.5-12.6-3-18.9-4.2a41.5 41.5 0 0 1-14.5-17c-.4-.9-.8-1.8-1.1-2.7h.2a2.2 2.2 0 0 0 1.7 1.5 11.8 11.8 0 0 0 4.2.2l.5.9a47.6 47.6 0 0 0 28.1 20.7zM690.5 11546c3.1-.9 4.4 4 1.3 4.8a14.3 14.3 0 0 1-13-2.9c-2.5-2 1.1-5.6 3.5-3.5a9 9 0 0 0 8.2 1.6zM676.6 11621.6c2.9 0 3.2 4 .9 4.9s-5.5-1.6-5.7-4.5a3.4 3.4 0 0 1 0-.4h4.8zM661.4 11551.6c7.9-.6 16.7 5.4 15.9 14.1-.7 6.7-6.2 13-12.9 13.8a29.9 29.9 0 0 1-2.3-5c5.1.7 10.8-5.1 10.1-10.1s-5.9-8.4-11.3-7.8h-.4c.2-1.7.5-3.3.9-5z" transform="translate(-222.6 -11406.6)"/><path d="M672.2 11564.4c.7 5-5 10.8-10.1 10.1a38.3 38.3 0 0 1-1.6-17.9h.5c5.3-.6 10.5 2.1 11.2 7.8z" transform="translate(-222.6 -11406.6)" fill="#dd553a"/><path d="M667.5 11530.2a2.5 2.5 0 0 1 .4 2.9l-1.2 2.6h-.2c-3.1 1-4.4-3.8-1.3-4.8z" transform="translate(-222.6 -11406.6)"/><path d="M666.5 11535.7h.2a83.8 83.8 0 0 0-5.4 15.9h-.3a2.8 2.8 0 0 0-2 4.1l-2.9-1.7a84.7 84.7 0 0 1 7.5-23.4c.9-1.8 2.9-1.5 3.9-.3l-2.3.7c-3 .9-1.7 5.7 1.3 4.7zM664.4 11579.5a11.8 11.8 0 0 1-4.2-.2 2.2 2.2 0 0 1-1.7-1.5 2.6 2.6 0 0 1 3-3.3h.6a29.9 29.9 0 0 0 2.3 5z" transform="translate(-222.6 -11406.6)"/><path d="M662.1 11574.5h-.6a2.6 2.6 0 0 0-3 3.3h-.2a45.6 45.6 0 0 1-2.7-18.3l1.1.6c2.5 1.3 4.7-1.8 3.4-3.6h.6a38.3 38.3 0 0 0 1.4 18z" transform="translate(-222.6 -11406.6)"/><path d="M661 11551.6h.4c-.4 1.7-.7 3.4-.9 5h-.5a2.4 2.4 0 0 0-.9-.7h-.2a2.8 2.8 0 0 1 2.1-4.3z" transform="translate(-222.6 -11406.6)"/><path d="M660 11556.5c1.4 1.8-.9 4.9-3.4 3.6l-1.1-.6a52.2 52.2 0 0 1 .5-5.6l2.9 1.7a1.8 1.8 0 0 0 1.1.9z" transform="translate(-222.6 -11406.6)"/><path d="M659.1 11555.8a2.4 2.4 0 0 1 .9.7 1.8 1.8 0 0 1-1-.8h.2z" transform="translate(-222.6 -11406.6)"/></svg>