<svg id="_x37_fbac428-d2cf-44b4-b85b-0c9a6a76b74c" xmlns="http://www.w3.org/2000/svg" xmlns:xlink="http://www.w3.org/1999/xlink" viewBox="0 0 328.2 581"><style>.st0{clip-path:url(#SVGID_2_)}.st1{fill:#262016}.st2{fill:#3f261d}.st3{fill:#54618c}.st4{fill:#ffc9a4}.st5{fill:#414e72}.st6{fill:#dd553a}</style><title>scene3-jim</title><defs><path id="SVGID_1_" d="M-893.5-138.5H385.4V581H-893.5z"/></defs><clipPath id="SVGID_2_"><use xlink:href="#SVGID_1_" overflow="visible"/></clipPath><g class="st0"><path class="st1" d="M298.3 99.2c19.3 23.5 28.7 54.6 27.8 85-1.9 61.2-34.3 119.1-82.2 156.4.1-2.7.2-5.4.4-8.1.1-1.2-.2-2.3-.9-3.3 0-.8-.1-1.7-.2-2.5 36.3-30.4 63.5-75.2 69.9-122.1 3.6-26.2 1.9-55.9-11.1-79.6s-42.4-51.9-70.3-37.9c-1.6-3.4-3.5-6.7-5.5-9.9 24.4-12.3 55.7 2.1 72.1 22zM330.7 715.1c-3.6 1.6-7.3 3.1-10.9 4.5-5.1-53.9-12-107.6-21.2-161-7.7-45-15.6-92.9-48.2-127.3 1.6-5.3 1.8-10.9.6-16.3 35.2 32.2 49.5 88.3 57.3 133.4 9.6 55.3 17.1 110.8 22.4 166.7z"/><path class="st2" d="M302.1 125c12.9 23.7 14.7 53.4 11.1 79.6-6.4 46.9-33.6 91.7-69.9 122.1-2-25.6-10.1-49.2-23.9-71.1 13-10 25-30 16.4-45.2-4.3-7.6-11.2-12.7-20.2-11.7-1.7.2-3.3.7-4.8 1.4-2.8-19-11.2-34.9-26.3-47.6l3.2-2.5c5.6-4.6-2.4-12.6-8-8-2.1 1.7-4.3 3.4-6.5 4.9-21 14.7-47.4 21.8-71.8 28.2-26.7 6.9-54 11.7-81.2 16.3C-2.1 135.5 42 77.1 90.4 52.5c45-22.8 104.9-8.8 129.1 35.4 2.6 4.7 4.7 9.5 6.3 14.6 2.2 6.9 13.2 4 10.9-3-1.4-4.2-3-8.3-4.9-12.3 27.9-14.1 57.9 15.1 70.3 37.8z"/><path class="st3" d="M298.7 558.5c9.2 53.4 16.1 107.1 21.2 161-15.4 5.9-31.3 10.5-47.5 13.6-.6-57.9-3.2-117.6-12-174.9-2.3-15.1-7-31.3-22.8-37.3-3.8-1.5-7.8-2.4-11.8-2.8-13.3-1.3-25.3 4.2-35.1 15.2-12.8 14.3-13.9 36.2-16.3 54.2-2.9 22.2-3.9 44.6-4.2 67-.3 26.3 0 52.6.7 79-15.5-2.8-30.8-7-45.6-12.5l3.6-28.6h1.9c7.3 0 7.3-11.3 0-11.3h-.4c1.9-15.2 3.9-30.4 5.8-45.5 4.9-1.2 5.3-8.1 1.3-10.3l7.4-57.4h1c7.1 0 7.3-10.8.5-11.3 2.8-22.2 5.6-44.4 8.5-66.6 8.8 2.9 21.3-.6 30.9-4 19.9-7.2 57.1-28.8 64.7-54.8 32.7 34.4 40.5 82.3 48.2 127.3z"/><path class="st1" d="M260.4 558.2c8.7 57.3 11.3 117 12 174.9l-11.3 1.9v-.2c-.5-49.5-4.1-99.1-8.5-148.4-1.6-17.4-4.2-57.7-27.3-58.7l.5-9.7c4 .4 8 1.3 11.8 2.8 15.8 6.1 20.5 22.3 22.8 37.4z"/><path class="st3" d="M261.1 734.8v.2c-26.2 3.9-52.8 4-79 .3-1.6-46.9-2.1-94.1 2.7-140.6 2.3-22.4 3.8-54.2 28.3-64.4 3.8-1.7 7.9-2.6 12.1-2.5 23.2.9 25.7 41.3 27.3 58.7 4.5 49.3 8.1 98.8 8.6 148.3z"/><path class="st1" d="M251.1 414.9c1.2 5.4 1 11-.6 16.3l-.3-.3c-2.5-2.6-3.6-7.8-3.4-11.7l.7-1.5c.5-.9.8-1.9.8-3v-.1c.1 0 .1-.1.1-.2.7-.7 1.6-.5 2.7.5z"/><path class="st1" d="M250.2 430.9l.3.3c-7.6 26-44.8 47.7-64.7 54.8-9.5 3.4-22 6.9-30.9 4l.7-5.4c.9-7.2-9.7-12.5-10.7-5.4-.5-1.6-.8-3.2-.9-4.9-.9-10.9-3.9-27 7.1-33.6-4.2 4.4-5 10.3-.9 16.4 1 1.5 2.4 2.7 4 3.6-.5 8.9 1.9 19.8 7.9 19.2 14.8-1.3 27.9-7.4 40.3-15.1s32-20.3 37.1-36.1c3-2.7 5.5-5.9 7.3-9.5-.2 3.9.9 9.1 3.4 11.7zM251.1 414.9c-1.1-1-2-1.2-2.7-.6.4-2.3.4-4.7-.2-7l-.3-.8c1.4 2.6 2.5 5.5 3.2 8.4z"/><path class="st1" d="M248.2 407.3c.6 2.3.6 4.7.2 7h-.1c0-.3 0-.6-.1-.9-.5-2.9-1-5.8-1.4-8.7.4.4.7.8.9 1.2l.3.6.2.8zM248.4 414.3c0 .1 0 .2-.1.2h.1v-.2z"/><path class="st1" d="M248.3 414.5v.1c-.2 1-.4 2-.8 3l-.6.8c.2-1.9.6-3.5 1.5-4.1l-.1.2z"/><path class="st1" d="M248.2 413.4c.1.3.1.6.1.9 0 0-1.3 2.2-1.5 4.1-1.6 1.7-4 2.5-6.3 1.9-.3-3-1.1-5.9-2.6-8.6-.3-.4-.5-.9-.6-1.4-.2-.9-.2-1.7 0-2.6.8-3.2 4.1-5.2 7.3-4.4.3.1.7.2 1 .4l1.2.9c.4 3 .9 5.9 1.4 8.8zM247.5 417.6c.4-1 .6-2 .8-3 0 1-.3 2.1-.8 3z"/><path class="st1" d="M248 406.5l-.3-.6c-.2-.4-.5-.8-.9-1.2v-.1c.5.5 1 1.2 1.2 1.9zM247.5 417.6l-.7 1.5v-.8l.7-.7zM246.8 404.7zM246.8 418.4v.8c-1.8 3.6-4.3 6.8-7.3 9.5.9-2.7 1.2-5.6 1-8.4 2.3.6 4.7-.2 6.3-1.9z"/><path class="st1" d="M246.8 404.6l-1.2-.9c-1.4-.8-3.1-.9-4.6-.2-1.9.6-3.3 2.2-3.7 4.1-.2.9-.2 1.7 0 2.6.3 1.3.1 2.6-.4 3.8-4.4-24.9-5.3-49.2-4.3-74.4.3.9.8 1.8 1.6 2.4h.1c1.6 2 4.4 2.4 6.5.8l.1-.1.6-.4.7-.5 1.8-1.4c-1 21.8-.5 42.9 2.8 64.2z"/><path class="st1" d="M243.4 329.2c.7 1 1 2.1.9 3.3-.2 2.7-.3 5.4-.4 8.1l-1.8 1.4c1-1.1 1.6-2.5 1.5-4 .1-3 0-5.9-.2-8.8zM245.6 403.7c-1.4-.7-3.1-.7-4.6-.2 1.5-.7 3.2-.6 4.6.2z"/><path class="st1" d="M243.7 338c.1 1.5-.5 2.9-1.5 4l-.7.5a6.33 6.33 0 0 1-7.2-.3h-.1c-1-1.2-1.5-2.8-1.5-4.4v-.1c.1-1.8 1-3.4 2.4-4.5 2.3-1.7 4.5-3.5 6.8-5.3.6.3 1.1.8 1.5 1.4.2 2.8.3 5.7.3 8.7z"/><path class="st1" d="M243.3 326.7c0 .8.1 1.6.2 2.5-.4-.6-.9-1.1-1.5-1.4l1.3-1.1z"/><path class="st1" d="M243.3 326.7l-1.4 1.1c-3.2-1.9-8.6-.3-9 4.7-.1 1.7-.2 3.4-.2 5.1v2.1c-.2-.5-.3-1.1-.3-1.7-.1-29.8-9.1-56.4-25.6-81.2-1-1.3-1.2-3-.6-4.5-1.1 4.2 3.4 9.3 8.4 6.6 1.7-.9 3.3-2 4.9-3.2 13.6 21.8 21.8 45.4 23.8 71zM241.5 342.5l.7-.5-.7.5zM241.5 342.5l-.6.4c-1.9 1.6-4.8 1.4-6.5-.6l-.1-.1c2.1 1.6 5 1.7 7.2.3zM240.5 420.3c.2 2.8-.1 5.7-1 8.4-15.1 14.4-44.6 24.9-56.4 29.1-7 2.5-20.6 7.3-28.8 2.9.1-1.6.3-3.3.6-4.9 2.2 4 10.2 3 10.7-3l.2-3c2.9.9 6.1.6 8.8-.9 5-1.7 9.9-3.7 14.6-6.1l15.2-7.2c6.1-2.9 28.6-12.4 32.4-21.5.1.8.3 1.6.4 2.4.2 1.8 1.5 3.3 3.3 3.8z"/><path class="st1" d="M233 332.5c.3-5 5.7-6.6 9-4.7-2.2 1.9-4.5 3.6-6.8 5.3-1.4 1.1-2.3 2.7-2.4 4.5 0-1.7.1-3.4.2-5.1zM237.9 411.6c1.5 2.7 2.3 5.6 2.6 8.6-1.7-.5-3-2.1-3.2-3.9-.2-.8-.3-1.6-.4-2.4.5-1.2.7-2.5.4-3.8.1.5.3 1 .6 1.5zM241 403.6c-1.8.7-3.2 2.2-3.7 4.1.4-1.9 1.8-3.5 3.7-4.1zM236.7 99.4c2.3 7-8.7 9.9-10.9 3-1.6-5.1-3.7-9.9-6.3-14.6l1.8-1c1.3 2.5 4.5 3.5 7 2.2.2-.1.3-.2.5-.3 1-.6 2-1.2 3-1.7 1.9 4 3.5 8.2 4.9 12.4zM235.8 210.3c8.6 15.3-3.4 35.3-16.4 45.2l-2.9-4.5c-2.8-4.2-8.4-2.8-10.2.6.5-1.1 1.3-2 2.4-2.6 6.2-3.2 11.2-8.4 14.2-14.7 2.5-4.9 5.5-11.4 3.4-17-1.4-3.8-5-9.7-9.9-7.8-2.5.9-3.8 4.8-3.6 7 .6 7.3-10.7 7.3-11.3 0-.2-2.3.1-4.7.9-6.9.1 1.1.2 2.3.2 3.4.3 7.3 9.3 5.5 9.1-1.9-.1-3.7-.5-7.4-1-11 1.5-.7 3.1-1.2 4.8-1.4 9.1-1.1 16.1 4 20.3 11.6zM232.7 337.7c0 1.6.5 3.2 1.5 4.4-.8-.6-1.3-1.5-1.6-2.4l.1-2z"/><path class="st4" d="M232.6 339.6c-1 25.1-.2 49.5 4.3 74.4-3.8 9.1-26.3 18.5-32.4 21.5l-15.2 7.2c-4.7 2.4-9.6 4.4-14.6 6.1-2.7 1.5-5.9 1.8-8.8.9 1.1-15 .3-30.5-.5-45.5v-.4c7.7-5.4 15.1-11.6 22.4-17.9 5.6-4.8-2.5-12.7-8-8-8.6 7.3-17 14-25.7 19.4-18.5 11.5-38.4 17-63.6 9.9-26.7-7.4-36.6-30.7-41.2-55.8 9.9-2.6 20.5-.2 28.4 6.4 5.5 4.7 13.6-3.3 8-8-10.5-9.1-24.6-12.8-38.2-9.7-1.5-11.7-2.3-23.4-3.4-33.6-.9-7.8-2.9-17.9-8.5-21.2-2.1-1.2-5.8-1.1-9.9-1.1-17-.2-8.7-9.4-3.2-15.3 17.2-18.7 22.1-45.2 16.1-69.3 45.9-7.4 97.6-15.3 136.4-40.6l.2.2c15.8 12 25.8 30.3 27.3 50.1-.8 2.2-1.1 4.6-.9 6.9.6 7.3 11.9 7.3 11.3 0-.2-2.2 1.1-6 3.6-7 4.9-1.9 8.5 4 9.9 7.8 2 5.6-1 12.2-3.4 17-3 6.3-8 11.5-14.2 14.7-1.1.6-1.9 1.5-2.4 2.6-.1.2-.2.4-.2.6-.6 1.5-.4 3.2.6 4.5 16.5 24.8 25.5 51.4 25.6 81.2-.1.7 0 1.3.2 2zm-57.7-23.8c7.4-18.1 1.4-38.8-14.5-50.2-19-13.6-43.4 0-53.1 17.9-22.1 41.2 45.5 75.8 67 33.6.2-.3.3-.7.4-1l.2-.3zM63.3 220.1c3-4.2.6-9.3-4.3-9.3-7.6 0-7.6 11.3 0 11.3 1.7 0 3.2-.8 4.3-2z"/><path class="st1" d="M231.8 87.1c-1 .5-2 1.1-3 1.7-2.4 1.6-5.6 1-7.2-1.4-.1-.2-.2-.3-.3-.5-1.7-2.5-1.2-5.9 1.3-7.7.1-.1.2-.2.4-.2l3.2-1.8c2.1 3.2 3.9 6.5 5.6 9.9zM225.7 518.1l-.5 9.7c-4.2-.1-8.3.8-12.1 2.5-24.4 10.2-25.9 42-28.3 64.4-4.8 46.6-4.3 93.7-2.7 140.6l-11.2-1.8c-.7-26.4-1-52.7-.7-79 .2-22.4 1.2-44.8 4.2-67 2.4-18 3.5-39.9 16.3-54.2 9.8-11 21.7-16.5 35-15.2z"/><path class="st1" d="M226.3 77.1l-3.2 1.8c-2.6 1.5-3.5 4.9-1.9 7.5.1.1.2.2.2.4l-1.8 1c-24.2-44.2-84-58.2-129.1-35.4C42 76.9-2.1 135.3 20.3 191.3l-3 .5c-4.5.8-8.2 1.1-7 4.5l-.5-.9C-15.7 133.8 34.4 62.6 91.3 39.7c48.6-19.6 107.3-6.3 135 37.4zM216.5 251.1l2.9 4.5c-1.6 1.2-3.2 2.3-4.9 3.2-4.9 2.7-9.4-2.4-8.4-6.6 0-.2.1-.4.2-.6 1.8-3.3 7.4-4.8 10.2-.5zM211.8 211c.3 7.3-8.8 9.1-9.1 1.9-.1-1.1-.1-2.3-.2-3.4 1.4-4.1 4.4-7.5 8.3-9.4.5 3.6.9 7.2 1 10.9z"/><path class="st1" d="M184.5 152.5c15.1 12.7 23.5 28.6 26.3 47.6-3.9 1.9-6.9 5.3-8.3 9.4-1.5-19.8-11.5-38.1-27.3-50.1l-.2-.2c3.3-2.1 6.4-4.4 9.5-6.7z"/><path class="st5" d="M239.5 428.7c-5 15.7-26.1 29.2-37.1 36.1s-25.6 13.9-40.3 15.1c-6 .5-8.4-10.3-7.9-19.2 8.2 4.4 21.8-.4 28.8-2.9 11.9-4.3 41.4-14.8 56.5-29.1z"/><path class="st1" d="M179.7 141.9c5.6-4.6 13.6 3.4 8 8l-3.2 2.5-3.6-2.9a4.43 4.43 0 0 0-5.9 0l-1.9-2.8c2.3-1.4 4.5-3 6.6-4.8zM179.7 378c5.5-4.7 13.6 3.2 8 8-7.3 6.3-14.7 12.5-22.4 17.9-.6-5.1-6.7-6.3-9.6-3.8l-1.7-2.7c8.7-5.4 17.1-12.1 25.7-19.4z"/><path class="st1" d="M180.9 149.6l3.6 2.9c-3.1 2.4-6.2 4.6-9.5 6.7-3.3-2.8-2.5-7.4 0-9.6 1.7-1.5 4.2-1.5 5.9 0zM160.4 265.6c15.9 11.4 21.9 32.1 14.5 50.2l-.2.3c1.9-6-7.1-10.9-10.2-4.7l-.2.3c4.2-11.3 2.8-25.7-6.9-34-12.6-10.8-31.4-5.1-39 9-16.1 30.1 30.1 55.4 45.9 25l-.4 1.1c-2.8 6.6 7.8 9.6 10.8 3.4-.1.3-.2.7-.4 1-21.5 42.2-89.1 7.6-67-33.6 9.6-18 34.1-31.5 53.1-18z"/><path class="st1" d="M173.1 146.8l1.9 2.8c-2.5 2.2-3.4 6.8 0 9.6-38.8 25.2-90.6 33.2-136.4 40.6l-.8-2.9c-2-7-13-4-11 3l.5 1.7-7.2 1.2c-2.7.5-7.5 1.1-10-6.4 3.4 5.4 13.1 2.5 10.4-4l-.4-1.1c27.2-4.6 54.5-9.4 81.2-16.3 24.4-6.4 50.8-13.5 71.8-28.2zM164.6 311.4c3.1-6.2 12-1.3 10.2 4.7s-13.5 3.3-10.8-3.4l.4-1.1.2-.2zM165.3 404.3c.9 15 1.6 30.4.5 45.5-1.7-.6-3.2-1.4-4.6-2.6 6.3-3.7.6-13.4-5.7-9.8l-.5.3c.2-8.9-.2-17.9-.6-26.7 3.8-2.1 7.4-4.5 10.9-7v.3z"/><path class="st1" d="M165.8 449.7l-.2 3c-.5 6-8.5 7.1-10.7 3 .7-3 1.8-5.3 3.3-6 1.2-.5 2.1-1.6 2.6-2.8h.3c1.4 1.2 3 2.2 4.7 2.8z"/><path class="st6" d="M157.5 277.7c9.7 8.3 11.1 22.7 6.9 34-15.8 30.4-62 5.1-45.9-25 7.6-14.2 26.4-19.8 39-9z"/><path class="st1" d="M155.5 437.3c6.3-3.7 12 6.1 5.7 9.8h-.3c1.2-3.4-1.9-7.7-5.9-7.7v-1.7l.5-.4z"/><path class="st1" d="M155 439.3c4-.1 7.1 4.3 5.9 7.7-.5 1.2-1.4 2.3-2.6 2.8-1.5.7-2.6 3-3.3 6-.5-.9-.7-2-.6-3 .3-4.5.5-9 .6-13.5zM155.6 400.1c2.9-2.5 9-1.2 9.6 3.8-3.5 2.5-7.1 4.9-10.9 7-.1-2.2-.3-4.4-.4-6.6-.2-1.6.5-3.2 1.7-4.2z"/><path class="st1" d="M154 397.4l1.7 2.7c-1.2 1-1.9 2.6-1.7 4.2.1 2.2.3 4.4.4 6.6-14.4 8.2-30.3 13.1-49 10.8-32.7-4-56.9-23.9-64.9-56.6-1.4-5.7-2.4-11.5-3-17.4l3.5-.4c.5 3 3.2 5.6 6.9 4.6l1.2-.3c4.6 25.1 14.5 48.3 41.2 55.8 25.3 6.9 45.1 1.5 63.7-10zM144.9 479.3c.9-7.1 11.6-1.8 10.7 5.4l-.7 5.4c-4.7-1.5-8.3-4.7-10-10.8zM155 437.6v1.7c-.9 0-1.7.2-2.5.6l-1.4.8c1.2-1.2 2.5-2.3 3.9-3.1z"/><path class="st1" d="M154.9 490c-2.9 22.2-5.7 44.4-8.5 66.6h-4.2c-2.8-.1-5.2 1.9-5.6 4.6l-2.1-.3c3.6-27.5 7-54.9 10.5-81.6 1.6 6 5.2 9.3 9.9 10.7zM155 439.3c-.1 4.5-.3 9-.7 13.4-.1 1 .1 2.1.6 3-.3 1.6-.5 3.3-.6 4.9-1.6-.9-3-2.1-4-3.6-4.1-6.1-3.4-11.9.9-16.4l1.4-.8c.8-.3 1.6-.5 2.4-.5zM146.4 556.6c6.8.5 6.7 11.3-.5 11.3h-1c.5-3.7 1-7.5 1.5-11.3z"/><path class="st1" d="M146.4 556.6c-.5 3.8-1 7.6-1.4 11.3h-2.8c-3.1.1-5.6-2.4-5.7-5.5 0-.4 0-.8.1-1.2.4-2.7 2.8-4.7 5.6-4.6h4.2z"/><path class="st1" d="M142.1 567.9h2.8l-7.4 57.4c-2.8-1.6-6.3-.7-7.9 2.1-.3.5-.5 1.1-.7 1.7l-3.2-.4c2.9-22.6 5.8-45.3 8.7-67.8l2.1.3c-.6 3 1.4 6 4.4 6.6.4.1.8.1 1.2.1zM137.6 625.4c4 2.2 3.6 9.1-1.3 10.3l1.3-10.3z"/><path class="st1" d="M137.6 625.4l-1.3 10.3-1.7.2c-3 .2-5.5-2.1-5.7-5.1v-.6c0-.4 0-.7.1-1.1.7-3.1 3.8-5.1 6.9-4.4.6.2 1.2.4 1.7.7z"/><path class="st1" d="M134.6 635.9l1.7-.2c-1.9 15.2-3.9 30.4-5.8 45.5h-3.4c-2.8-.1-5.2 1.9-5.6 4.6l-2.9-.4c2.4-18.7 4.8-37.7 7.3-56.7l3.2.4c-.1.4-.1.7-.1 1.1-.2 3 2.1 5.5 5.1 5.7h.5z"/><path class="st1" d="M130.8 681.2c7.3 0 7.3 11.3 0 11.3h-1.9l1.5-11.3h.4z"/><path class="st1" d="M130.4 681.2l-1.5 11.3H127c-3.1.1-5.6-2.4-5.7-5.5 0-.4 0-.8.1-1.2.4-2.7 2.8-4.7 5.6-4.6h3.4z"/><path class="st1" d="M127 692.5h1.9l-3.6 28.6c-3.6-1.3-7.2-2.8-10.8-4.3 1.3-10.4 2.7-20.8 4-31.4l2.9.4c-.6 3 1.4 6 4.4 6.6.4.1.8.1 1.2.1zM85.7 349.9c5.6 4.7-2.5 12.7-8 8-7.9-6.6-18.5-9-28.4-6.4-.7-3.7-1.2-7.5-1.7-11.3 13.5-3 27.7.6 38.1 9.7zM59 210.8c4.8 0 7.3 5.2 4.3 9.3-1.1 1.3-2.6 2-4.3 2-7.6 0-7.6-11.3 0-11.3z"/><path class="st1" d="M49.2 351.5l-1.2.3c-3.8 1.1-6.4-1.6-6.9-4.6-.6-2.8 1.1-5.6 3.9-6.3l2.5-.6c.5 3.7 1 7.5 1.7 11.2z"/><path class="st1" d="M47.5 340.3l-2.5.6c-2.8.7-4.5 3.5-3.9 6.3l-3.5.4c-1.8-15.4-1.9-31-5.5-45.9-2.6-10.8-21-.7-27.2-11.1s2.6-21 9.6-29.5c14.2-17.2 18.4-38.3 12.9-59.5l11.3-1.8c5.9 24.2 1.1 50.6-16.1 69.3-5.5 5.9-13.7 15.1 3.2 15.3 4.1.1 7.8-.1 9.9 1.1 5.6 3.2 7.6 13.4 8.5 21.2 1 10.2 1.8 21.8 3.3 33.6zM37.8 196.8l.8 2.9-11.3 1.8-.5-1.7c-1.9-7 9-10 11-3zM20.6 192.4c2.6 6.4-7.1 9.4-10.4 4-1.1-3.4 2.6-3.7 7-4.5l3-.5.4 1z"/></g></svg>