<svg id="e18be6ac-18e0-4e8f-83da-8f8928a246f6" data-name="圖層 1" xmlns="http://www.w3.org/2000/svg" viewBox="0 0 623.2 547.1"><title>scene14-main-overlay</title><path d="M566.5 10589.4c.2 4.2-2.5 7.2-4.9 10.5a36.6 36.6 0 0 0-4.6 8.4c-.8 2.3-.1 4.5-.8 6.8-1.4 4.9-12.9 3.4-16.2 2.1s-2.6-3.3-2.6-5.7c-.1-6.6-3.2-12.4-5.1-18.7.9 2 4.2 1 3.7-1.4 1.6 5.3 4.6 10.6 5.1 16.1.4 3.9-.1 6.6 4.7 6.8 1.9.1 6.9.2 6.8-2.9s2.2-8.3 4.5-11.8 3-4.2 4.4-6.4 1.4-3.4-.6-3.3a4.8 4.8 0 0 0-3.1 1.9l-1 1.1-.5-.5c.2-1.3.5-2.7.8-4.3s2.8-2.6 4.9-2.6 4.4 1.6 4.5 3.9z" transform="translate(-493.4 -10556.4)"/><path d="M560.8 10589.9c2.1-.1 1.3 2.2.6 3.3s-3 4.2-4.4 6.4-4.6 7.4-4.5 11.8-4.9 3-6.8 2.9c-4.8-.2-4.4-2.9-4.7-6.8-.5-5.5-3.6-10.9-5.1-16.1-1.7-7.2-.8-21.9 10.5-20.8s6.9 14.4 6 21.8a2 2 0 0 0 2.5 1.9 5.4 5.4 0 0 0 1.9-1.4l1-1.1a4.8 4.8 0 0 1 3-1.9z" transform="translate(-493.4 -10556.4)" fill="#ffc9a4"/><path d="M557.3 10574c1.9 3.8.8 9.4-.2 14.1a12 12 0 0 1-3.2 2.4l2.5 1.9.5.5a5.4 5.4 0 0 1-1.9 1.4 2 2 0 0 1-2.5-1.9c.9-7.4 5.3-20.7-6-21.8s-12.2 13.5-10.5 20.8c-.7-2.3-4.1-1.5-3.8.7-2.2-9.6-.1-24.1 12.4-25.2a12.2 12.2 0 0 1 12.7 7.1z" transform="translate(-493.4 -10556.4)"/><path d="M557 10588.1c-.3 1.5-.6 3-.8 4.3l-2.5-1.9a12 12 0 0 0 3.3-2.4zM535.9 10591.4c.6 2.3-2.8 3.4-3.7 1.4v-.6c-.5-2.3 3-3.2 3.7-.8z" transform="translate(-493.4 -10556.4)"/><path d="M1086 10970.6c5 2.8 4.6 10.9 3.7 15.6-1.9 9.7-4.8 19.4-7.1 29.1-1.9 7.9-2.7 15.7-8.9 21.5-9 8.4-18.1.1-20.8-9.1a2 2 0 0 0 3.1-2.1l-.7-2a1.6 1.6 0 0 0 .6-1.1v-.2c0 6.2 4.4 17.4 12.7 13.2 6.5-3.2 7.6-9.9 9.1-16.3 2.4-10.5 5.7-21 7.8-31.5.6-2.9 1.3-6.2.7-9.2-1.9-9.4-9.9-4.8-12.8-.7s-4.8 8.9-6.6 13.6c-1 2.5-2 5-3.1 7.5a2 2 0 0 0 0-1l-1.4-5.7c2.3-6.4 4.7-13.8 9.4-18.3s9.1-6.3 14.3-3.3z" transform="translate(-493.4 -10556.4)" fill="#262016"/><path d="M1086.2 10978.5c.6 3-.2 6.3-.7 9.2-2.1 10.6-5.4 21-7.8 31.5-1.5 6.3-2.6 13-9.1 16.3-8.4 4.2-12.7-7-12.7-13.2 1-7.7 4.4-15.5 7.6-23l.2-.5c1.1-2.5 2.2-5 3.1-7.5 1.8-4.7 3.6-9.5 6.6-13.6s11-8.6 12.8.8z" transform="translate(-493.4 -10556.4)" fill="#564642"/><path d="M1054.5 10780.3c2.9 9.4-.9 19.1-3.9 28s-5.6 17.3-8.4 25.8a9.9 9.9 0 0 1-.9 2.2 10.7 10.7 0 0 0 .1-1.8 3.5 3.5 0 0 0 0-.4c-.1-1.4-1.2-1.5-2.3-.6l-.8.6-.5.3h-.3v-.2a.9.9 0 0 0 .9-.8 71.6 71.6 0 0 1 2.3-8.5c2.7-8 5.8-15.8 8.1-23.9 1.1-3.7 2.4-7.5 2.8-11.3.6-6-1.8-10.7-4.6-15.7-6.7-11.8-15.4-22-25.1-31.3s-20.5-19-33.3-19.2l.4-.7a1.9 1.9 0 0 0-.9-2.6l-.9-.6c14.8-.4 28.5 11.5 38.3 21.3s24.2 24.2 29 39.4z" transform="translate(-493.4 -10556.4)" fill="#262016"/><path d="M1047 10773.8c2.9 5.1 5.3 9.7 4.6 15.7-.4 3.8-1.8 7.7-2.8 11.3-2.3 8.1-5.4 16-8.1 23.9a71.6 71.6 0 0 0-2.3 8.5.9.9 0 0 1-.9.8c-1.5 0-4.2-2-5.1-2.5a92 92 0 0 0-11.1-5.4c4.8-13.7 9.4-27.3 12.8-41.4a1.5 1.5 0 0 0 .3-1.3c.5-2.2 1-4.3 1.4-6.5s-3.3-3.2-3.8-.8l-.7 3.3c-9-10.8-18.4-21.9-30.1-29.8v-1.2c-.4-2.4-4.2-2.2-3.8.3l.4 2.3c2.2 14.9 2.3 30.3 3.2 45.2 1.2 19 2.1 38.1 3.6 57.1a7.8 7.8 0 0 1-.2 2.5c-2.8 12-34.6 10.6-43.4 10.3a161.2 161.2 0 0 1-28.2-3.5c-5.1-1-3.9-9.6-4.1-13.2s-.5-7.9-.8-11.9c-1.7-27.9-4.4-55.9-4.3-83.9h.1c1.9-1.5-.2-4.8-2.2-3.2l-1.3 1c-16 12.7-33.4 23.8-50 35.7-6.6 4.7-12.9 9.7-19.3 14.7l-9.6 7.4-.4.3c-1.3 1.1-3.5 3.5-5.1 2.4a35.5 35.5 0 0 1-4.6-4.3c-1-1-4.8-7.1-6.1-5.8l1.4-1.2h.1l6.2-4.8c14.2-11 28.6-21.7 43-32.5l16.4-12.3c4.1-3.1 8-6.4 11.8-9.7s5.4-4.8 8.3-7c4.5-3.6 10.6-4 16.1-4.6a121 121 0 0 0 14.1 12.6c3.6 3 7.3 7.2 11.6 9.2a1.9 1.9 0 0 0 2.7-1.3l.2-2c.5-5.5.8-11 1.6-16.4 3.1 5.5 5 11.5 7.5 17.3.4 1 1.9 1.8 2.9 1a63.5 63.5 0 0 0 4.9-4.9l.2-.3c5.8-6.4 10.1-13.7 14.5-21.1 12.9.3 24.5 10.9 33.3 19.2s18.5 19.1 25.1 30.8z" transform="translate(-493.4 -10556.4)" fill="#538463"/><path d="M1063.7 10997.8a2 2 0 0 1 0 1l-.2.5c-.8 1.3-3 1.6-3.4-.2l-.2-.6 1-2.4 1.4-3.9zM1063.5 10999.3l.2-.5z" transform="translate(-493.4 -10556.4)" fill="#262016"/><path d="M1060.1 10999.1c.5 1.8 2.6 1.5 3.4.2-3.2 7.5-6.6 15.2-7.6 23v-.3a1.6 1.6 0 0 0-1.8-1.7l-1.1-3.1c1.5-6.4 4.5-12.6 7-18.7zM1062.3 10992.1l-1.4 3.9-1 2.4c-6.8-27.3-12.9-54.8-19.4-82.2a13.8 13.8 0 0 0 3.4-2.2c6.2 26 12 52.2 18.4 78.1z" transform="translate(-493.4 -10556.4)" fill="#262016"/><path d="M1059.9 10998.4c-2.5 6.1-5.4 12.3-7 18.7-5.5-14.7-11.9-29.1-17.8-43.7l-10.6-26.2c-2.6-6.4-4.3-14-8.1-19.9q11.1-4.7 22-10l2.3-1.1c6.3 27.4 12.4 55 19.2 82.2z" transform="translate(-493.4 -10556.4)" fill="#ffc9a4"/><path d="M1054.1 11020.3a1.6 1.6 0 0 1 1.8 1.7v.5a1.6 1.6 0 0 1-.6 1.1zM1056 11025.6a2 2 0 0 1-3.1 2.1 18.3 18.3 0 0 1-.8-5.4 1.4 1.4 0 0 1 0-.3 2 2 0 0 0 3.2 1.8z" transform="translate(-493.4 -10556.4)" fill="#262016"/><path d="M1054.1 11020.3l1.2 3.4a1.9 1.9 0 1 1-1.2-3.4z" transform="translate(-493.4 -10556.4)" fill="#262016"/><path d="M1054.1 11020.3a2 2 0 0 0-2 1.6.7.7 0 0 1 0-.2 39.9 39.9 0 0 1 .8-4.6zM1041.3 10834.1a3.5 3.5 0 0 1 0 .4 1.8 1.8 0 0 0-.4-1v-.2l-.5 2.4-2.5-1.2.5-.3.8-.6c.9-1 2-.9 2.1.5z" transform="translate(-493.4 -10556.4)" fill="#262016"/><path d="M1041.3 10834.5a10.7 10.7 0 0 1-.1 1.8 3.6 3.6 0 0 1-4.3 1.9 12.7 12.7 0 0 0 .5-2.7h.1v.2a2 2 0 0 0 3.8-1.2z" transform="translate(-493.4 -10556.4)" fill="#262016"/><path d="M1040.9 10833.5a1.8 1.8 0 0 1 .4 1 2 2 0 0 1-3.6 1.2v-.2h-.1a7.5 7.5 0 0 0 0-.8h.3l2.5 1.2v.3l.2-.2h-.2l.5-2.4v.2z" transform="translate(-493.4 -10556.4)" fill="#262016"/><path d="M1040.4 10835.8l-.2.2v-.3h.2zM1052.9 11017.2a39.9 39.9 0 0 0-.8 4.6.7.7 0 0 0 0 .2 1.4 1.4 0 0 0 0 .3 18.3 18.3 0 0 0 .8 5.4 1.9 1.9 0 0 1-.5-.8c-5.8-17-13.2-33.3-20-49.9-3.6-8.8-7.2-17.6-10.7-26.4-2.8-6.9-4.7-15.5-8.9-21.8l3.6-1.5c3.8 5.9 5.5 13.5 8.1 19.9l10.6 26.2c5.9 14.6 12.4 29 17.8 43.8zM1044.6 10907c1.2 3.6.9 5.6-.7 7.1l-.3-1.2c-.4-1.7-2.3-1.6-3.2-.5l-.2-.2a3.3 3.3 0 0 0 .8-3.9 59 59 0 0 0-6.3-10.5l-19.1-26.8a27.8 27.8 0 0 0 2.9-2.5l10.8 15.1c5.2 7.2 12.3 14.8 15.3 23.4zM1032 10776.2c.5-2.4 4.3-1.7 3.8.8s-.9 4.4-1.4 6.5a1.7 1.7 0 0 0-.4-.7l-2.7-3.2zM1041.2 10836.3c-.6 5.1-4.1 10.6-6.6 14.5a2 2 0 0 1-2.6.9l-.7-.4.9-2.2v-.4l1.3-.4-1.4-.9a37.7 37.7 0 0 0 4.6-9.1 3.6 3.6 0 0 0 4.5-2z" transform="translate(-493.4 -10556.4)" fill="#262016"/><path d="M1043.7 10912.8l.3 1.2a13.8 13.8 0 0 1-3.4 2.2l-.5-2.2a2 2 0 0 1 .4-1.7c.8-1.1 2.7-1.2 3.2.5zM1034.4 10783.5a1.5 1.5 0 0 1-.3 1.3z" transform="translate(-493.4 -10556.4)" fill="#262016"/><path d="M1034.4 10783.5l-.3 1.3a2.1 2.1 0 0 1-3.2.1l-.6-.7 1.1-4.7 2.7 3.2a1.7 1.7 0 0 1 .3.8zM1037.5 10834.3zM1037.5 10834.1v.2a1.9 1.9 0 0 1 0 .3c-.3.2-.3.3 0 .8a12.7 12.7 0 0 1-.5 2.7l-1.8-.7c-5.1-2.6-10-5.9-15.4-7.8l.8-1.5a1.9 1.9 0 0 0 .2-.6l.5-1.4a92 92 0 0 1 11.1 5.4c.9.6 3.6 2.6 5.1 2.6z" transform="translate(-493.4 -10556.4)" fill="#262016"/><path d="M1037.5 10834.6a7.5 7.5 0 0 1 0 .8c-.4-.5-.3-.6 0-.8z" transform="translate(-493.4 -10556.4)" fill="#262016"/><path d="M1041 10908.2a3.3 3.3 0 0 1-.8 3.9c-2.2 2.3-7.3 3.7-9.5 4.7-6 2.8-12 5.5-18.1 8l-1.9.8a112.6 112.6 0 0 0-31.3-35.8c-15.3-11.2-24.3 7-31.9 17.9-2 2.9-3.9 5.7-5.7 8.7-2.7 4.6-5.9 6.3-10.6 6.7h-2c-4.8.1-21.3 0-26.2-5.1a4.5 4.5 0 0 1-1.3-4.2c3.6-18.5 12.4-35.8 24.5-50.1l.3-.5a7.7 7.7 0 0 0 1.4 1.7c2 1.8 6.2 1.9 8.7 2.4a165.7 165.7 0 0 0 16.7 2.2c16.3 1.4 35.1 1.6 50-6.2l1.6-1.1c-1.2 3.5-1.8 8.2 1.8 9.8s6.4.7 9-1.2l19.1 26.8a59 59 0 0 1 6.2 10.6z" transform="translate(-493.4 -10556.4)" fill="#323533"/><path d="M1030.8 10784.9a2.1 2.1 0 0 0 3.2-.1c-3.4 14-8 27.7-12.8 41.4l-2.1-.7a1.8 1.8 0 0 0-2.2.9c4.9-14 9.6-27.9 13.1-42.3z" transform="translate(-493.4 -10556.4)" fill="#262016"/><path d="M1035.2 10837.4l1.8.7a37.7 37.7 0 0 1-4.6 9.1l-.2-.2a2.2 2.2 0 0 0-1.4-.9q-5.1-3.3-10-7c-2-1.5-4.3-2.7-2.9-5.5l2.1-4c5.2 1.9 10.1 5.3 15.2 7.8z" transform="translate(-493.4 -10556.4)" fill="#52705a"/><path d="M1040.2 10912.1l.2.2a2 2 0 0 0-.4 1.7l.5 2.2-2.3 1.1q-10.8 5.3-22 10l-1.4-2a1.9 1.9 0 0 0-2.4-.6c6.1-2.5 12.2-5.1 18.1-8 2.4-.9 7.4-2.3 9.7-4.6zM1031.3 10779.5l-1.1 4.7c-8.6-10.3-17.5-21.3-28.4-29.3-.2-1.7-.4-3.4-.7-5.1 11.8 7.8 21.2 18.9 30.2 29.7zM1033.8 10848.2l-1.3.4a1.9 1.9 0 0 0-.2-1.2h.1z" transform="translate(-493.4 -10556.4)" fill="#262016"/><path d="M1032.2 10847.4a1.9 1.9 0 0 1 .2 1.2l-1.2.4z" transform="translate(-493.4 -10556.4)" fill="#262016"/><path d="M1031.2 10849l1.2-.4v.4l-.9 2.2-3.3-2.1.8-1.9a1.6 1.6 0 0 1 1.8-1.1l1.4.9.2.3z" transform="translate(-493.4 -10556.4)" fill="#262016"/><path d="M1032.3 10847.3h-.1l-.2-.3z" transform="translate(-493.4 -10556.4)" fill="#262016"/><path d="M1032.1 10847.1l-1.4-.9a2.2 2.2 0 0 1 1.4.9zM1030.6 10846.2a1.6 1.6 0 0 0-1.8 1.1l-.8 1.9-5.6-3.8-2.8-1.9.4-1.1a2 2 0 0 0-.4-2l.8-1.1q5.1 3.6 10.2 6.9zM1028.1 10849.1l3.3 2.1a55.6 55.6 0 0 1-12.1 16.4l-.8.8-2.3-3.2 1.5-1.5c1.3-1.4 2.6-2.7 3.8-4.2a45.7 45.7 0 0 0 6.6-10.4z" transform="translate(-493.4 -10556.4)" fill="#262016"/><path d="M1022.5 10845.4l5.6 3.8a45.7 45.7 0 0 1-6.6 10.4c-1.2 1.5-2.5 2.8-3.8 4.2l-1.5 1.5-5.1-7.2 3-4.4a53.7 53.7 0 0 0 5.6-10.2z" transform="translate(-493.4 -10556.4)" fill="#ffc9a4"/><path d="M1021.3 10826.2l-.5 1.4a1.8 1.8 0 0 0-1.5-2z" transform="translate(-493.4 -10556.4)" fill="#262016"/><path d="M1019.3 10825.6a1.8 1.8 0 0 1 1.5 2l-.2.6zM1020.6 10828.2l.2-.6a1.9 1.9 0 0 1-.2.6zM1019.3 10825.6l1.3 2.7-.8 1.5-1.3-.4a2 2 0 0 1-1.3-2.8 1.8 1.8 0 0 1 2.1-1z" transform="translate(-493.4 -10556.4)" fill="#262016"/><path d="M1020.6 10839.2l-.8 1.1c-.8-1-2.5-1.3-3.1.3l-.2.6a17.6 17.6 0 0 1-3-2.9c-2.5-3.2 2.1-8.9 3.7-11.9a2 2 0 0 0 1.3 2.8l1.3.4-2.1 4c-1.3 2.9.9 4.1 2.9 5.6z" transform="translate(-493.4 -10556.4)" fill="#262016"/><path d="M1019.8 10840.4a2 2 0 0 1 .4 2l-.4 1.1-3.2-2.3.2-.6c.5-1.5 2.2-1.3 3-.2zM1016.5 10841.2l3.2 2.3a53.7 53.7 0 0 1-5.6 10.2l-3 4.4-1.8-2.6-.5-.5c2.8-4.5 5.8-8.8 7.7-13.8zM1004.6 10635.4c.4 6.3-2.4 14.3-8.9 12.7.1-1.3.1-2.6.1-4 1.2.6 2.6.9 3.5-.8a10.8 10.8 0 0 0 1-2.3 14.3 14.3 0 0 0 .5-4.4c-.1-1.5-.1-3.1-1.4-4.2s-2.8.7-3.5 2.2v.2c0-2-.1-4-.2-6a4.6 4.6 0 0 1 4.3-.6c3 1.1 4.4 4.2 4.6 7.2zM1016.2 10865.2l2.3 3.2a27.8 27.8 0 0 1-2.9 2.5l-2.1-3a5.7 5.7 0 0 0 1.6-1.6zM998.7 10596.6c4.8 9.5 4.6 20.1-2.7 28.2l-.6.4-.2-2.6 1.2.2a12.2 12.2 0 0 0-1.2-3.4 20.3 20.3 0 0 0-.5-22.3 27.9 27.9 0 0 0-7.9-7.3 21.6 21.6 0 0 0-5.1-4.8 34.4 34.4 0 0 0-3.7-2.1c7.7.4 17.3 6.9 20.7 13.7z" transform="translate(-493.4 -10556.4)" fill="#262016"/><path d="M1016.2 10865.2l-1.2 1.2a5.7 5.7 0 0 1-1.6 1.6l-4.5-6.3a30.3 30.3 0 0 1 2.1-3.6zM999.4 10632.5c1.3 1.1 1.3 2.7 1.4 4.2a14.3 14.3 0 0 1-.5 4.4 10.8 10.8 0 0 1-1 2.3c-.9 1.7-2.2 1.4-3.5.8q.1-4.6 0-9.3v-.2c.8-1.6 1.8-3.7 3.6-2.2z" transform="translate(-493.4 -10556.4)" fill="#ffc9a4"/><path d="M1013.5 10868l2.1 3c-2.6 1.9-5.5 2.9-9 1.2s-3-6.3-1.8-9.8a8.5 8.5 0 0 0 2.4-3.1l1.8 2.5a11.8 11.8 0 0 0-1.2 3.9c.6 3.4 3.5 3.7 5.7 2.3z" transform="translate(-493.4 -10556.4)" fill="#262016"/><path d="M1009 10861.7l4.5 6.3c-2.2 1.5-5.1 1.1-5.6-2.4a11.8 11.8 0 0 1 1.1-3.9z" transform="translate(-493.4 -10556.4)" fill="#ffc9a4"/><path d="M994.6 10597.3a20.3 20.3 0 0 1 .5 22.3l-.4-.8a1.4 1.4 0 0 0-.4-.6 11.9 11.9 0 0 0-5.2-3.9 15.9 15.9 0 0 0 1.7-3.5v-.4a23.4 23.4 0 0 0-4.1-20.4 27.9 27.9 0 0 1 7.9 7.3z" transform="translate(-493.4 -10556.4)" fill="#5e3326"/><path d="M996.4 10623l-1.2-.2c-.1-.9-.2-1.9-.3-2.8l.2-.3a12.2 12.2 0 0 1 1.3 3.3zM1015 10925.4l1.4 2-3.6 1.5-1-1.3a1.7 1.7 0 0 1 .8-2.7 1.9 1.9 0 0 1 2.4.5zM1009.3 10855.5l1.8 2.6a30.3 30.3 0 0 0-2.1 3.6l-1.8-2.5a11.8 11.8 0 0 0 1-3.3l.6-.9zM994.7 10618.9l.4.8-.2.3v-.5a1.8 1.8 0 0 0-.2-.6zM995.4 10625.3c.1 1.2.2 2.4.2 3.5a8.8 8.8 0 0 0-3.1 4.1 1.8 1.8 0 0 0-.1.7h-.4c-.1-4.4-.4-8.8-.8-13.2a8.7 8.7 0 0 1 1.2 2.2 11.8 11.8 0 0 1 .5 1.6 1.9 1.9 0 0 0 2.5 1.1z" transform="translate(-493.4 -10556.4)" fill="#262016"/><path d="M995.2 10622.8l.2 2.6a1.9 1.9 0 0 1-2.7-1.1 11.8 11.8 0 0 0-.5-1.6l.8-.3z" transform="translate(-493.4 -10556.4)" fill="#262016"/><path d="M994.9 10620c.1.9.2 1.8.3 2.8l-2.1-.4a19.2 19.2 0 0 0 1.8-2.4zM995.6 10628.9c.1 2 .2 4 .2 6s-3.6.6-3.5-1.3a1.8 1.8 0 0 1 .1-.7 8.8 8.8 0 0 1 3.2-4z" transform="translate(-493.4 -10556.4)" fill="#262016"/><path d="M994.9 10619.5v.5a19.2 19.2 0 0 1-1.8 2.4l-.8.3a8.7 8.7 0 0 0-1.2-2.2v-.8c-.2-1.9 2.1-2.5 3.2-1.5l.4.6a1.8 1.8 0 0 1 .2.7z" transform="translate(-493.4 -10556.4)" fill="#262016"/><path d="M994.7 10618.9l-.4-.6a1.4 1.4 0 0 1 .4.6zM995.9 10634.9q.1 4.6 0 9.3l-1.3-.8c-1.5-.9-2.8.5-2.7 1.9.2-3.9.2-7.7.1-11.6h.4c-.1 1.8 2.6 3 3.5 1.2z" transform="translate(-493.4 -10556.4)" fill="#262016"/><path d="M995.9 10644.2c0 1.3-.1 2.6-.1 4a10.4 10.4 0 0 1-2.9-1.3 1.9 1.9 0 0 1-1-1.6c-.1-1.4 1.2-2.8 2.7-1.9zM989 10614.3a11.9 11.9 0 0 1 5.2 3.9c-1.1-1-3.4-.4-3.2 1.5v.8a8.3 8.3 0 0 0-4.8-3 13.3 13.3 0 0 0 2.8-3.2zM1008.8 10855l-.6.9c.1-.4.1-.8.1-1.1z" transform="translate(-493.4 -10556.4)" fill="#262016"/><path d="M1001.9 10754.9c2.1 17.1 2.3 34.6 3.3 51.8.7 11.5 1.4 22.9 2.1 34.4.3 4.1 1.4 9.3 1.1 13.7a2.1 2.1 0 0 0-2.5 1.5l-1.7-.4a7.8 7.8 0 0 0 .2-2.5c-1.5-19-2.4-38.1-3.6-57.1-.9-14.9-1-30.4-3.2-45.2h.2a2 2 0 0 0 .9 1.6z" transform="translate(-493.4 -10556.4)" fill="#262016"/><path d="M1001.2 10749.7c.3 1.7.5 3.4.7 5.1l-3.2-2.3a2 2 0 0 1-.9-1.6c-.1-1.4 1.2-2.8 2.7-1.9zM1008.3 10854.8c0 .4-.1.8-.1 1.1l-1.5 2.5-.6-.8a1.7 1.7 0 0 1-.3-1.3 2.1 2.1 0 0 1 2.5-1.5z" transform="translate(-493.4 -10556.4)" fill="#262016"/><path d="M1001.2 10749.7l-.8-.6c-1.5-1-2.7.5-2.7 1.9h-.2l-.4-2.3c-.4-2.5 3.4-2.7 3.8-.3v1.2zM1012.7 10928.9l-2.3.9a1.9 1.9 0 0 1-2.2-.7 108.5 108.5 0 0 0-18.6-25.3c-7.4-7.3-19.7-20.6-28.9-8.5-6.1 8-11.1 16.6-16.8 24.8a14.6 14.6 0 0 1-11.4 6.8l.5-.9a1.8 1.8 0 0 0-1.9-2.7c4.8-.4 7.9-2.1 10.6-6.7 1.8-3 3.7-5.8 5.7-8.7 7.6-10.9 16.6-29.2 31.9-17.9a112.6 112.6 0 0 1 31.3 35.8l-1.5.6 2.2.7-.7-1.3 1.9-.8a1.7 1.7 0 0 0-.8 2.7zM986.8 10590a23.4 23.4 0 0 1 4.1 20.4v.4c.7-2.3-2.7-3.9-3.5-1.6l-.2.4c3.2-11.9-1.9-18.8-10.4-22.5v-.3l.8.2c3-.1 6.2 1.2 9.2 3zM992.8 10646.8a10.4 10.4 0 0 0 2.9 1.3 159 159 0 0 1-4.9 32.4l-1.2-.3a2.1 2.1 0 0 0-1.9-2.7h-.1c.5-2.1.9-4.1 1.3-6.2.8-4.4 1.5-8.8 2-13.2 2.1.6 3.6-2.6 1.4-3.5l-1-.4c.3-2.9.5-5.8.6-8.8a1.9 1.9 0 0 0 .9 1.4zM1008.2 10855.9a11.8 11.8 0 0 1-1 3.3l-.6-.8z" transform="translate(-493.4 -10556.4)" fill="#262016"/><path d="M987.3 10609.1c.8-2.3 4.1-.6 3.5 1.6s-4.3 1.1-3.6-1.2zM1006.7 10858.4l.6.8a8.5 8.5 0 0 1-2.4 3.1 17 17 0 0 1 1.1-2.6z" transform="translate(-493.4 -10556.4)" fill="#262016"/><path d="M990.7 10610.7a15.9 15.9 0 0 1-1.7 3.5l-2-.7c-2.4-.6-3.2 3.2-.8 3.8h.1c-6.8 5.7-18.3 4.2-27.3 4.7s-18.9 1.3-28.4 2.3c-5.5.5-19.1.7-23.6 6.4v-.4a2 2 0 0 0-2.9-1.5l-.2-.6c6.4-8.4 25.2-7.8 33.3-8.5q15.6-1.4 31.3-2c7.9-.3 15.5.2 18.8-8.2-.8 2.3 2.5 3.2 3.4 1.2z" transform="translate(-493.4 -10556.4)" fill="#262016"/><path d="M963.5 10638.9a1.9 1.9 0 1 0 .3 3.8 1.9 1.9 0 1 0-.3-3.8zm-30.6 3.3a1.9 1.9 0 0 0 .3 3.8 1.9 1.9 0 0 0-.4-3.8zm58.3-21.8c.5 4.4.7 8.8.8 13.2s.1 7.8-.1 11.6-.3 5.8-.6 8.8c-7.8-2.9-15.7 1.3-18.2 9.4s5 16.8 13.4 17.8c-3.1 10.5-8.3 19.8-18.4 25a33.7 33.7 0 0 1-4.6 2c-5.9 2-12.6 1.9-18.9.7l-4.4-1.1c-8.5-2.4-13.5-8.7-17.2-16 7.3-2.5 12.6-10.3 10.2-18.2a15.9 15.9 0 0 0-20.8-10.8c-.7-2.7-1.4-5.4-2-8.2q-1.5-7.2-2.5-14.5c-.4-3.1-.8-6.2-1.1-9.4 4.6-5.7 18.2-5.9 23.6-6.4q14.2-1.4 28.4-2.3c9-.6 20.5 1 27.3-4.7a8.3 8.3 0 0 1 5 3.2zm-26 64.9c3.6-3.5 8.2-11.8 1.7-14.9-2.9-1.4-5.5-1.4-8.2.5a30.2 30.2 0 0 0-2.9 2.8c-2.3 2.3-4.6.9-7.2.1s-6.8-1.5-9.6 1.7-1.8 6.8.4 9.5c6 7.2 18 5.7 24.9 1l.4-.3.3-.3zm-8.7-24.1c1.5-1.9-1.4-4.5-2.9-2.5s-3.2 2.2-4.1.1 1.5-2.7 1.9-3.5 0-5.5-.2-7.6-4.1-2.2-3.8.3l.4 3.7c.2 1.8-.3 2.6-1.3 4.1a5.1 5.1 0 0 0-.1 5.5c2.3 3.8 7.4 3.3 10 0z" transform="translate(-493.4 -10556.4)" fill="#ffc9a4"/><path d="M1010.6 10925.6l.7 1.3-2.2-.7zM1006.1 10857.6l.6.8-.8 1.4a17 17 0 0 0-1.1 2.6l-1.6 1.1c-14.9 7.8-33.6 7.6-50 6.2a165.7 165.7 0 0 1-16.7-2.2c-2.5-.5-6.6-.6-8.7-2.4a7.7 7.7 0 0 1-1.4-1.7 2 2 0 0 0-1.2-2.6c-1.2-4.1-.6-9.3-.9-13-2-30.3-4.9-60.6-5-90.9l3.8-3c-.1 28 2.6 55.9 4.3 83.9q.4 5.9.8 11.9c.2 3.7-.9 12.2 4.1 13.2a161.2 161.2 0 0 0 28.2 3.5c8.7.2 40.5 1.7 43.4-10.3l1.7.4a1.7 1.7 0 0 0 .5 1.1zM992.3 10654.5c2.2 1 .7 4.2-1.4 3.5l.4-4z" transform="translate(-493.4 -10556.4)" fill="#262016"/><path d="M991.3 10654l-.4 4h-.3c-5.9-2.7-13.3.7-13.9 7.5s4.3 11.8 10.9 12.1c-.3 1.3-.6 2.5-1 3.7-8.5-1-16.2-8.7-13.4-17.8s10.2-12.3 18.1-9.5zM987 10613.7l2 .7a13.3 13.3 0 0 1-2.7 3.1h-.1c-2.4-.7-1.6-4.4.8-3.8z" transform="translate(-493.4 -10556.4)" fill="#262016"/><path d="M990.6 10657.9h.3c-.5 4.4-1.2 8.9-2 13.2-.4 2.1-.8 4.2-1.3 6.2-6.6-.3-11.6-5.4-10.9-12.1s8-10 13.9-7.3z" transform="translate(-493.4 -10556.4)" fill="#dd553a"/><path d="M976.7 10587c8.4 3.7 13.6 10.6 10.4 22.5-3.2 8.5-10.9 7.9-18.8 8.2q-15.7.7-31.3 2c-8.1.7-27 .1-33.3 8.5-2.4-6.5-3.6-13.9-1.7-21.2 3.6-14.4 19.1-20.5 32.2-22.7 10.4-1.6 30.1-2.8 42.5 2.7z" transform="translate(-493.4 -10556.4)" fill="#5e3326"/><path d="M990.8 10680.5l-.5 1.9c-3 10.8-9.2 21-18.6 26.6l-.6-.3v-.7a1.9 1.9 0 0 0-2.7-1.6h-.1c10-5.2 15.3-14.5 18.4-25h1.3a1.5 1.5 0 0 0 1.7-1.2z" transform="translate(-493.4 -10556.4)" fill="#262016"/><path d="M987.6 10677.5a2.1 2.1 0 0 1 1.9 2.7 1.5 1.5 0 0 1-1.7 1.2h-1.3c.4-1.2.7-2.5 1-3.7h.1zM981.6 10585.2a21.6 21.6 0 0 1 5.1 4.8c-2.9-1.8-6.2-3.1-9.1-3.1l-.8-.2c-1.7-.7-1.6-3.7.6-3.7h.5a34.4 34.4 0 0 1 3.7 2.2zM988.1 10720.1a1.9 1.9 0 0 1 .9 2.6l-.4.7h-2.3l-.8-2.3-.4.7a1.8 1.8 0 0 1 1.7-2.2h.4z" transform="translate(-493.4 -10556.4)" fill="#262016"/><path d="M987 10723.3h1.5c-4.3 7.4-8.7 14.8-14.5 21.1 1.1-1.8-1.6-3.9-3.1-2.2l-1.6 1.8.3-.4c6.1-6.3 10.6-13.7 15-21.2l1.7 1.2v-.3h.7zM987.2 10719.5h-.4a1.8 1.8 0 0 0-1.7 2.2l-.4.7c-3.7-2.6-7.3-5.4-11.2-7.8a7.1 7.1 0 0 0-2.1-5.5h.2c5.5 2.9 10.4 6.9 15.6 10.4zM977.9 10583.1h-.5c-2.2 0-2.2 2.9-.6 3.7v.3c-12.5-5.6-32.1-4.3-42.5-2.6-13.1 2.2-28.6 8.3-32.2 22.7-1.8 7.3-.7 14.6 1.7 21.2a10.3 10.3 0 0 0-2 4.4l-.4.2c-4.1-9.8-6.5-21.6-1.2-31.5 7.4-13.6 21.3-18.9 36-21 13-2 29.3-3.5 41.7 2.6z" transform="translate(-493.4 -10556.4)" fill="#262016"/><path d="M986.3 10723.2v.3l-1.7-1.2.4-.7a1.9 1.9 0 0 0 1.3 1.6z" transform="translate(-493.4 -10556.4)" fill="#262016"/><path d="M985.5 10720.9l.8 2.3a1.9 1.9 0 0 1-1.2-1.6z" transform="translate(-493.4 -10556.4)" fill="#262016"/><path d="M973.5 10714.5c3.8 2.5 7.4 5.3 11.2 7.8-4.4 7.5-8.9 14.9-15 21.2l-.3.4-.7.8c-2.3-5.7-4.3-11.5-7.5-16.7 4.4-3.1 11.8-8 12.3-13.5z" transform="translate(-493.4 -10556.4)" fill="#52705a"/><path d="M971.4 10709.1a7.1 7.1 0 0 1 2.1 5.5l-2.2-1.4-.3-3.9z" transform="translate(-493.4 -10556.4)" fill="#262016"/><path d="M971.3 10713.2l2.2 1.4c-.5 5.5-7.9 10.4-12.5 13.5l-1-1.6-.5 2.7h-.6l.2-1.1a2 2 0 0 0-1.4-2.2c2.2-1.5 7.3-4.3 10.1-7.5a1.9 1.9 0 0 0 3.8-.5zM970.9 10742.2c1.6-1.7 4.2.4 3.1 2.2l-1.5 1.6c-1.6 1.6-4.2-.4-3.2-2.1z" transform="translate(-493.4 -10556.4)" fill="#262016"/><path d="M974 10744.5l-.2.3a63.5 63.5 0 0 1-4.9 4.9c-1 .9-2.5.1-2.9-1-2.5-5.8-4.4-11.8-7.5-17.3.1-.8.2-1.6.4-2.4h.6l1.5-1.1c3.2 5.2 5.2 11.1 7.5 16.7l-1.8 1.7 2.9 1-1.1-2.7.7-.8c-.9 1.7 1.6 3.7 3.2 2.1zM971 10708.6l.6.3h-.2l-.4-.4z" transform="translate(-493.4 -10556.4)" fill="#262016"/><path d="M971 10708.6l.4.4-.3.2v-.6zM971.3 10713.2l.3 4.5a1.9 1.9 0 0 1-3.8.5c1.9-2.2 2.7-4.5.7-6.6l.4.3zM971.1 10709.2l.3 3.9-2.4-1.4-.4-.3a1.8 1.8 0 0 1-.4-.7z" transform="translate(-493.4 -10556.4)" fill="#262016"/><path d="M971 10708.6v.6l-3.1 1.5a2 2 0 0 1-.1-.9 2.2 2.2 0 0 1 .8-1.4l.2-.2a1.7 1.7 0 0 1 1.7 0h.5zM971 10708.6z" transform="translate(-493.4 -10556.4)" fill="#262016"/><path d="M971 10707.9v.7h-.2a1.6 1.6 0 0 0-1.9-.1l-.2.2a2.1 2.1 0 0 0-.8 1.4 1.6 1.6 0 0 0 .1.9l-.6.3-.2-2.9a1.8 1.8 0 0 1 1.1-1.8 1.9 1.9 0 0 1 2.7 1.3z" transform="translate(-493.4 -10556.4)" fill="#262016"/><path d="M970.9 10708.5h-.2a1.7 1.7 0 0 0-1.7 0 1.6 1.6 0 0 1 1.9 0zM966.8 10670.5c6.5 3.1 2 11.4-1.7 14.9 1.3-1.5-.7-4.2-2.6-2.8 1.7-1.5 4.1-4.4 3.6-6.8-1-5.2-5.4-1.5-6.9 0s-3.9 3.3-6.7 3.3a13.3 13.3 0 0 1-4.1-1.1c-1.9-.6-6.8-3-7.2 1.8a3.8 3.8 0 0 0 2 3.8c6 4.1 13.6 3.2 19.3-.9-1.7 1.5-.1 4.3 1.7 3.5-7 4.7-18.9 6.2-24.9-1-2.2-2.7-2.9-6.6-.4-9.5s5.8-3 9.6-1.7 4.9 2.2 7.2-.1a30.2 30.2 0 0 1 2.9-2.8c2.7-2 5.3-2 8.2-.6zM968.5 10711.5c2.1 2.1 1.3 4.4-.7 6.6v-.3l-.5-6.8.6-.3a1.8 1.8 0 0 0 .5.7zM963.5 10638.9a1.9 1.9 0 1 1 .3 3.8 1.9 1.9 0 1 1-.3-3.8z" transform="translate(-493.4 -10556.4)" fill="#262016"/><path d="M966.2 10675.8c.5 2.5-1.9 5.4-3.6 6.8-5.7 4.1-13.3 5-19.3.9a3.8 3.8 0 0 1-2-3.8c.4-4.8 5.4-2.4 7.2-1.8a13.3 13.3 0 0 0 4.1 1.1c2.9 0 4.8-1.4 6.7-3.3s5.9-5.1 6.9.1z" transform="translate(-493.4 -10556.4)" fill="#f48f7d"/><path d="M968.2 10706.2h.1a1.8 1.8 0 0 0-1.1 1.8l.2 2.9a31.8 31.8 0 0 1-6.4 1.8 45.9 45.9 0 0 1-14.4.3l-.2-2.4a1.8 1.8 0 0 0-1.7-1.8c6.2 1.2 13 1.4 18.9-.7a33.7 33.7 0 0 0 4.6-1.9zM968.7 10708.5a2.2 2.2 0 0 0-.8 1.4 2.1 2.1 0 0 1 .8-1.4zM968 10710.8a1.8 1.8 0 0 0 .4.7 1.8 1.8 0 0 1-.5-.7zM968 10710.8a1.6 1.6 0 0 1-.1-.9 2 2 0 0 0 .1.9z" transform="translate(-493.4 -10556.4)" fill="#262016"/><path d="M967.8 10717.9v.3c-2.8 3.2-7.9 6.1-10.1 7.5h-.1c-1.8-.5-8.3-2.9-11.1-6a1.8 1.8 0 0 0 .3-1.3l-.4-5.3a45.9 45.9 0 0 0 14.4-.3 31.8 31.8 0 0 0 6.4-1.8z" transform="translate(-493.4 -10556.4)" fill="#ffc9a4"/><path d="M969.7 10747.5l-2.9-1 1.8-1.7zM962.6 10682.6c1.9-1.3 3.8 1.3 2.6 2.8l-.3.3-.4.3c-1.9.9-3.6-1.9-1.9-3.4zM964.8 10685.8l.3-.3zM964.3 10686.1l.4-.3zM953.6 10658.8c1.5-2 4.4.6 2.9 2.5s-7.8 3.8-10.2-.1a5.1 5.1 0 0 1 .1-5.5c1.1-1.5 1.5-2.2 1.3-4.1l-.4-3.7c-.3-2.5 3.6-2.7 3.8-.3s1.3 5.6.2 7.6-2.3 2.6-1.9 3.5 3 1.4 4.2.1zM960 10726.5l1 1.6-1.5 1.1zM957.8 10725.7a2 2 0 0 1 1.4 2.2l-.2 1.1c-.2.8-.3 1.6-.4 2.4-.5-1-1.1-1.9-1.7-2.8a2 2 0 0 1 .5-2.7z" transform="translate(-493.4 -10556.4)" fill="#262016"/><path d="M957.6 10725.6h.1l-.4.3a2 2 0 0 0-.5 2.7l-.3.2-1.1-1.7-.3 1.7c-5-1.7-12.5-5.9-13.4-11.1l1.3-1.2v2.1a1.9 1.9 0 0 0 3.5 1c2.8 3.1 9.3 5.6 11.1 6z" transform="translate(-493.4 -10556.4)" fill="#262016"/><path d="M956.8 10728.6c.6.9 1.2 1.8 1.7 2.8-.8 5.4-1.1 10.9-1.6 16.4h-1.2a15.7 15.7 0 0 1-2.5-1.5c.5-5.9.9-11.7 1.8-17.5l1.8.6-.4-.5z" transform="translate(-493.4 -10556.4)" fill="#262016"/><path d="M956.5 10728.9l.4.5-1.8-.6.3-1.7zM956.9 10747.9l-.2 2a1.9 1.9 0 0 1-2.7 1.3c-4.3-2-8-6.2-11.6-9.2 2 1.5 4.5-1.4 2.5-2.9 2.6 2.2 5.3 5.1 8.3 7.2-.1.9-.2 1.9-.3 2.8l2.7-1.3h1.2z" transform="translate(-493.4 -10556.4)" fill="#262016"/><path d="M955.7 10747.8l-2.7 1.3c.1-.9.2-1.9.3-2.8a15.7 15.7 0 0 0 2.4 1.5z" transform="translate(-493.4 -10556.4)" fill="#262016"/><path d="M955.1 10728.8c-.9 5.8-1.3 11.6-1.8 17.5-2.9-2.1-5.7-5-8.3-7.2a123.6 123.6 0 0 1-13.4-11.8c3.6-2.9 6.7-6.3 10-9.5 1 5.1 8.5 9.3 13.5 11z" transform="translate(-493.4 -10556.4)" fill="#52705a"/><path d="M946.5 10713.1l.4 5.3a1.8 1.8 0 0 1-.3 1.3c-1.3-1.4-1.8-2.9-.7-4.4a2 2 0 0 0 .2-2 1 1 0 0 0 0-.3h.4z" transform="translate(-493.4 -10556.4)" fill="#262016"/><path d="M946.4 10710.7l.2 2.4h-.4c.1-1.5-1.4-3-2.9-1.8l-.6.5v-.8a1.9 1.9 0 0 1 2.2-2 1.8 1.8 0 0 1 1.5 1.7zM946.1 10713.3a2 2 0 0 1-.2 2c-1.1 1.5-.6 3 .7 4.4a1.9 1.9 0 0 1-3.5-1v-2.1l2.5-2.2a1.9 1.9 0 0 0 .5-1.1z" transform="translate(-493.4 -10556.4)" fill="#262016"/><path d="M943.2 10711.2c1.4-1.2 3 .3 2.9 1.8h-.2a1.7 1.7 0 0 0-2.7-.5h-.6v-.5zM945.9 10713h.2a1 1 0 0 1 0 .3z" transform="translate(-493.4 -10556.4)" fill="#262016"/><path d="M945.9 10713l.2.3a1.9 1.9 0 0 1-.7 1.1l-2.5 2.2-.2-3.5.3-.4.2-.3zM942.5 10711v.8l-.5.4a34.8 34.8 0 0 1-22.9-19.4l-.6-1.3.8-.4a2 2 0 0 0 2.4 1.2l1.3-.4c3.7 7.3 8.8 13.6 17.2 16l4.4 1.1a1.9 1.9 0 0 0-2.1 2z" transform="translate(-493.4 -10556.4)" fill="#262016"/><path d="M943.2 10712.5a1.7 1.7 0 0 1 2.7.5zM945 10739.1c2 1.5-.6 4.4-2.5 2.9s.6-4.5 2.5-2.9z" transform="translate(-493.4 -10556.4)" fill="#262016"/><path d="M943.2 10712.5l-.2.3-.3.4v-.8h.6z" transform="translate(-493.4 -10556.4)" fill="#262016"/><path d="M942.7 10713.1l.2 3.5-1.3 1.2a6.3 6.3 0 0 1 1.1-4.7z" transform="translate(-493.4 -10556.4)" fill="#262016"/><path d="M942.6 10712.3v.8a6.3 6.3 0 0 0-1 4.6c-3.3 3.2-6.4 6.6-10 9.5l-1.6-1.7c0 .3 0 .7-.1 1.1a1.6 1.6 0 0 0-1.8-1.1h-.6l.2-.2c5.3-3.9 9.5-9 14.5-13.3h.5z" transform="translate(-493.4 -10556.4)" fill="#262016"/><path d="M942.6 10711.8v.5h-.5zM945 10739.1c-1.9-1.6-4.4 1.3-2.5 2.9a121 121 0 0 1-14.1-12.6 1.9 1.9 0 0 0 1.5-1v.2l1.8-1.4a123.6 123.6 0 0 0 13.3 11.9zM932.8 10642.2a1.9 1.9 0 0 1 .3 3.8 1.9 1.9 0 0 1-.3-3.8zM933.3 10673.6c2.3 7.9-2.9 15.7-10.2 18.2-.6-1.1-1.2-2.3-1.7-3.5 6.1-2 10.6-8.4 7.9-14.9s-9.3-9.1-15.7-6.8c-.4-1.2-.7-2.5-1-3.7a15.9 15.9 0 0 1 20.7 10.7z" transform="translate(-493.4 -10556.4)" fill="#262016"/><path d="M929.2 10673.4c2.7 6.5-1.8 12.9-7.9 14.9l-1.2-2.8a163 163 0 0 1-6.7-19c6.6-2.2 13.1.4 15.8 6.9z" transform="translate(-493.4 -10556.4)" fill="#dd553a"/><path d="M930 10725.6l1.6 1.7-1.8 1.4v-.2a2.1 2.1 0 0 0 .1-1.7c0-.4.1-.8.1-1.2z" transform="translate(-493.4 -10556.4)" fill="#262016"/><path d="M929.9 10726.7a2.1 2.1 0 0 1-.1 1.7c0-.5.1-1.1.1-1.7z" transform="translate(-493.4 -10556.4)" fill="#262016"/><path d="M929.9 10726.7c0 .6-.1 1.2-.1 1.7a1.9 1.9 0 0 1-1.5 1l-.9-.9a2 2 0 0 1 0-2.9h.6a1.6 1.6 0 0 1 1.9 1.1z" transform="translate(-493.4 -10556.4)" fill="#262016"/><path d="M927.5 10728.5l.9.9c-5.5.6-11.6 1-16.1 4.6-2.8 2.2-5.6 4.6-8.3 7s-7.7 6.7-11.8 9.7l-16.4 12.3c-14.4 10.8-28.8 21.5-43 32.5l-6.2 4.8-.7-.9a2.1 2.1 0 0 0-1.5-2.3l2.3-1.8c15.5-12.1 31.2-23.7 46.9-35.5l17.2-12.9c5.6-4.2 10.6-9 16-13.5s12.6-6.9 20.7-7.9a2 2 0 0 0 0 3zM923.1 10691.8l-1.3.4a2 2 0 0 1-2.4-1.2 1.6 1.6 0 0 1 1.1-2.4l.9-.3c.5 1.2 1.1 2.4 1.7 3.5z" transform="translate(-493.4 -10556.4)" fill="#262016"/><path d="M920.2 10685.6l1.2 2.8-.9.3a1.6 1.6 0 0 0-1.1 2.4l-.8.4a166.9 166.9 0 0 1-9.3-25.6l1.1-.3a1.8 1.8 0 0 0 2.4 1.3l.7-.2a163 163 0 0 0 6.7 18.9zM921.3 10750.4c1.9-1.6 4.1 1.7 2.2 3.2h-.1v-1.1c0-1.9-2.1-2.2-3.2-1.2h-.2z" transform="translate(-493.4 -10556.4)" fill="#262016"/><path d="M920.1 10751.5c1.1-1 3.2-.7 3.2 1.2v1.1l-3.8 3v-3.8a2 2 0 0 1 .6-1.5zM931.2 10923.3a1.8 1.8 0 0 1 1.9 2.7l-.5.9h-4.3a26.6 26.6 0 0 1 1.4-2.8 1.9 1.9 0 0 1 1.5-.8zM928.2 10927.1h4.3c-2.1 4.2-2.6 9.4-3.8 14s-2.6 10.1-4 15.1c-2.5 9.5-5.2 19-7.6 28.5-4.5 17.7-8.3 35.6-11.9 53.5a1.8 1.8 0 0 1-.5 1 18.3 18.3 0 0 0-.1-4.5v-.5a38.9 38.9 0 0 0-1.5-4.5c3.3-15.9 6.7-31.8 10.8-47.6 2.7-10.4 5.6-20.8 8.3-31.2 2-7.5 2.9-16.6 6-23.8z" transform="translate(-493.4 -10556.4)" fill="#262016"/><path d="M920 10751.4h.1a2 2 0 0 0-.6 1.4v3.8c-19.1 14.8-39.8 27.5-59 42.3l-13.4 10.4-3.1 2.5a4.5 4.5 0 0 0 0-.8 2 2 0 0 0-3.1-1.4l-.2-.2.4-.3 9.6-7.4c6.4-5 12.7-10 19.3-14.7 16.6-11.8 34-22.9 50-35.6zM931.2 10923.1a1.9 1.9 0 0 0-1.5 1 26.6 26.6 0 0 0-1.4 2.8h-.7c-8.4-.3-16.8-.8-24.5-4.5.1-.9.2-1.7.2-2.6a2 2 0 0 0-.5-1.5l.3-.3c4.9 5.1 21.4 5.2 26.2 5.1h2zM925.3 10860.7a2 2 0 0 1 1.2 2.6 10.2 10.2 0 0 1-1.2-2.6zM913.5 10666.6l-.7.2a1.8 1.8 0 0 1-2.4-1.3 1.9 1.9 0 0 1 1.2-2.3l.9-.3c.3 1.2.6 2.5 1 3.7z" transform="translate(-493.4 -10556.4)" fill="#262016"/><path d="M926.4 10863.3l-.3.5c-12.1 14.4-20.9 31.6-24.5 50.1a4.5 4.5 0 0 0 1.3 4.2l-.3.3c-1-1.1-3.1-1.1-3.3.7v.9c-3.1-3.3-1.5-7.6 0-13.1a119 119 0 0 1 23.9-45.7 1.7 1.7 0 0 1 2-.6 10.2 10.2 0 0 0 1.2 2.7zM910.5 10654.7c.6 2.7 1.2 5.5 2 8.2l-.9.3a1.9 1.9 0 0 0-1.2 2.3l-1.1.3c-.7-2.7-1.4-5.4-2-8.1a3.6 3.6 0 0 0 2.3-1.2 1.8 1.8 0 0 0 .4-1.7h.5z" transform="translate(-493.4 -10556.4)" fill="#262016"/><path d="M910.5 10654.7h-.5a1.9 1.9 0 0 0-3.3-.8h-.2q-1.2-6-2.1-12a2 2 0 0 0 3-1.8h.6q1 7.4 2.5 14.6z" transform="translate(-493.4 -10556.4)" fill="#262016"/><path d="M927.5 10927h.7c-3.2 7.2-4 16.4-6 23.7-2.7 10.4-5.6 20.8-8.3 31.2-4.1 15.7-7.5 31.6-10.8 47.6-2.5-6.4-6.5-12.4-9.8-18.4 2.7-14.8 3.3-30.1 4.7-45s3.8-29.1 5-43.6c7.7 3.8 16.1 4.3 24.5 4.5z" transform="translate(-493.4 -10556.4)" fill="#ffc9a4"/><path d="M910 10654.8a1.8 1.8 0 0 1-.4 1.7 3.6 3.6 0 0 1-2.3 1.2l-.8-3.6h.2a1.9 1.9 0 0 1 3.3.7zM908 10640.2h-.6a1.8 1.8 0 0 0-.6-1.2 5.2 5.2 0 0 0-2.9-1.4l-.3-2.4a1.8 1.8 0 0 0 2-1.5 5.4 5.4 0 0 1 .3-1.1 6.4 6.4 0 0 1 1-1.8c.3 3.2.7 6.3 1.1 9.4z" transform="translate(-493.4 -10556.4)" fill="#262016"/><path d="M906.9 10630.4v.4a6.4 6.4 0 0 0-1 1.8l-.4-.2c-.5-1.1-1.1-2.3-1.5-3.5a2 2 0 0 1 2.9 1.5zM906.7 10639.1a1.8 1.8 0 0 1 .6 1.2 2 2 0 0 1-3 1.8c-.2-1.5-.4-2.9-.6-4.4a5.2 5.2 0 0 1 3 1.4zM905.4 10632.5l.4.2a5.4 5.4 0 0 0-.3 1.1 1.8 1.8 0 0 1-2 1.5l-.3-2.6h2.2z" transform="translate(-493.4 -10556.4)" fill="#262016"/><path d="M907.3 10657.7a7.8 7.8 0 0 1-5.4-1.8 12.4 12.4 0 0 1-4.8-8.2c-.4-2.9-.2-6.7 2.4-8.7a5.9 5.9 0 0 1 4.3-1.3c.2 1.5.4 2.9.6 4.4l-.2-.2c-2.3-2.1-3.5 2.1-3.4 3.5a10.6 10.6 0 0 0 .9 4.2c.3.5 3.6 4.9 4.8 4.4zM905.4 10632.5h-2.2l-.2-1.9a1.7 1.7 0 0 1 .9-1.7c.5 1.3 1 2.4 1.5 3.6z" transform="translate(-493.4 -10556.4)" fill="#262016"/><path d="M906.5 10654.1c-1.2.5-4.6-3.9-4.8-4.4a10.6 10.6 0 0 1-.9-4.2c-.1-1.5 1.1-5.6 3.4-3.5l.2.2q.9 5.9 2.1 11.9z" transform="translate(-493.4 -10556.4)" fill="#ffc9a4"/><path d="M903.7 10628.3l.2.6a1.7 1.7 0 0 0-.9 1.7l.2 1.9h-1.5a10.3 10.3 0 0 1 2-4.2zM903.2 10632.6l.3 2.6a2.1 2.1 0 0 1-1.7-1.2l-.5-1.1.4-.2h1.5zM902.7 10918.4a2 2 0 0 1 .5 1.5c-.1.9-.1 1.7-.2 2.6l-.6-.3a10.7 10.7 0 0 1-3-2.2v-.9c.2-1.8 2.3-1.8 3.3-.7z" transform="translate(-493.4 -10556.4)" fill="#262016"/><path d="M902.4 10922.2l.6.3c-1.2 14.5-3.7 29-5 43.6s-1.9 30.3-4.7 45l-.8-1.4-2.2-4.1c2.1-13.3 2.6-27 3.9-40.3 1.4-15.1 4-30.2 5.1-45.3a10.7 10.7 0 0 0 3.1 2.2zM904.8 11034.6a18.3 18.3 0 0 1 .1 4.5 2 2 0 0 1-3.2-1.8l.2-.9a2 2 0 0 0 2.9-2.2v.3z" transform="translate(-493.4 -10556.4)" fill="#262016"/><path d="M904.7 11034.2a2 2 0 0 1-2.9 2.2l.7-3.5a2 2 0 0 1 2.2 1.3z" transform="translate(-493.4 -10556.4)" fill="#262016"/><path d="M904.7 11034.1v.2a2 2 0 0 0-2.2-1.4l.7-3.3a38.9 38.9 0 0 1 1.5 4.5zM901.6 11037.3a2 2 0 0 0 3.2 1.8c-1 9.8-9.2 20.1-19.6 12.7-6.9-4.9-8.7-12.5-11.6-20.1-3.5-9.2-8.2-18.5-10.9-27.9-1.3-4.7-3.1-12.4 1.6-15.9s10.5-2.4 14.6 1.3 8.3 10.6 11.5 16.5c-.2 1.7-.5 3.3-.9 5a1.8 1.8 0 0 0 .2 1.3c-1.6-2.7-3.3-5.4-4.7-8.1s-4.7-9-8.6-11.8-12.4-2.8-11.1 5.5a33.4 33.4 0 0 0 1.8 7.2c4.1 10.9 8.9 21.5 12.7 32.5 1.8 5.2 6 14.1 13.1 12.9s9-8.8 8.1-15v.2a1.6 1.6 0 0 0 .8 1.1z" transform="translate(-493.4 -10556.4)" fill="#262016"/><path d="M903.2 11029.5l-.7 3.3a1.6 1.6 0 0 0-1.6 2v.3c-2.1-8-6.8-15.8-11.3-23.2a1.9 1.9 0 0 0 3.6-.5v-.3c3.5 6 7.5 12 10 18.4z" transform="translate(-493.4 -10556.4)" fill="#262016"/><path d="M902.5 11032.9l-.7 3.5a1.6 1.6 0 0 1-.8-1.1v-.5a1.6 1.6 0 0 1 1.5-1.9z" transform="translate(-493.4 -10556.4)" fill="#262016"/><path d="M901 11035.1c.8 6.2-.8 13.8-8.1 15s-11.3-7.7-13.1-12.9c-3.8-11-8.5-21.6-12.7-32.5a33.4 33.4 0 0 1-1.8-7.2c-1.3-8.3 6.3-9 11.1-5.5s6.3 7.7 8.6 11.8 3.1 5.3 4.7 8.1c4.5 7.4 9.2 15.2 11.3 23.2z" transform="translate(-493.4 -10556.4)" fill="#564642"/><path d="M893.3 11011.1v.3a1.9 1.9 0 0 1-3.6.5 1.8 1.8 0 0 1-.2-1.3c.3-1.7.6-3.3.9-5l2.2 4.1zM844 10811.1a4.5 4.5 0 0 1 0 .8 22.8 22.8 0 0 1-6.6 4.3l-1.2.2c1.9-1.4 4.2-3.2 4-5a1.7 1.7 0 0 1 .7-1.7 2 2 0 0 1 3.1 1.4z" transform="translate(-493.4 -10556.4)" fill="#262016"/><path d="M837.4 10816.2a22.8 22.8 0 0 0 6.6-4.3c-.3 4.3-5.6 7.8-8.9 9.8s-7.9 3.6-12.7.7l.9-.7a2.1 2.1 0 0 0-.2-3.3l.6.4a14 14 0 0 0 4.5 1.9c1.6.2 4.9-2 6.2-3l1.8-1.3z" transform="translate(-493.4 -10556.4)" fill="#262016"/><path d="M840.7 10809.4l.2.2a1.7 1.7 0 0 0-.7 1.7c.2 1.9-2.1 3.6-4 5-4.1-.2-8.9-7.1-10.8-9.5a20.7 20.7 0 0 1-3.2-4.9l2.7-1.3a1.7 1.7 0 0 0 .9-1.1l.7.9h-.1l-1.4 1.2c1.3-1.4 5.1 4.7 6.1 5.8a35.5 35.5 0 0 0 4.6 4.3c1.5 1.2 3.7-1.1 5-2.3z" transform="translate(-493.4 -10556.4)" fill="#262016"/><path d="M836.2 10816.3l-1.8 1.3c-1.4 1-4.7 3.2-6.2 3a14 14 0 0 1-4.5-1.9l-.6-.4c-3-1.9-4.7-5-6.3-8.1l-.4-1c-1.2-3.8 2.7-5.8 5.9-7.4a20.7 20.7 0 0 0 3.2 4.9c1.8 2.6 6.6 9.4 10.7 9.6z" transform="translate(-493.4 -10556.4)" fill="#52705a"/><path d="M824.3 10797.2a2.1 2.1 0 0 1 1.5 2.3 1.7 1.7 0 0 1-.9 1.1l-2.7 1.3c-.6-1.8.1-2.9 2.1-4.7z" transform="translate(-493.4 -10556.4)" fill="#262016"/><path d="M822.8 10797.4a1.9 1.9 0 0 1 1.5-.2c-2 1.7-2.8 2.9-2.1 4.7-3.3 1.5-7.2 3.6-5.9 7.4l-.7.2a2 2 0 0 0-2.4-1.2l-1.4.3v-.2c-.8-6.3 6.4-8.4 11-11zM823 10818.4a2.1 2.1 0 0 1 .2 3.3l-.9.7-.4-.3a24.5 24.5 0 0 1-2.8-2.1l1.9-1.5a1.6 1.6 0 0 1 2-.1z" transform="translate(-493.4 -10556.4)" fill="#262016"/><path d="M823.1 10818.4a1.6 1.6 0 0 0-1.9.1l-1.9 1.5a25 25 0 0 1-6.2-7.7l1.5-.3a1.7 1.7 0 0 0 1.1-2.5l.7-.2.4 1c1.5 3.1 3.3 6.2 6.3 8.1zM821.9 10822.2l.4.3c-7.4 5.8-16.8 12.5-26.7 10a6.4 6.4 0 0 1-4.4-6.7 9.3 9.3 0 0 1 2-5.3l2.8-2.3a6.4 6.4 0 0 1 2.3.7l1 1.1c-2.1 1.9-8.2 8.4-1.7 9.1a17 17 0 0 0 4.6-.1c6.5-1.2 11.8-4.8 16.8-8.8a24.5 24.5 0 0 0 2.9 2z" transform="translate(-493.4 -10556.4)" fill="#262016"/><path d="M813 10812.4a25 25 0 0 0 6.2 7.7c-5.1 4-10.3 7.6-16.8 8.8a17 17 0 0 1-4.6.1c-6.5-.7-.4-7.2 1.7-9.1l.5-.4a3.2 3.2 0 0 0 1.3-2 2 2 0 0 0-1-2.1 5.3 5.3 0 0 0-2.9-.8c-5.2-.7 4.3-2.3 5.5-2.4 3.4-.2 6.7.6 10.1.2z" transform="translate(-493.4 -10556.4)" fill="#ffc9a4"/><path d="M815.6 10809.6a1.7 1.7 0 0 1-1.1 2.5l-1.5.3a12.4 12.4 0 0 1-1.2-3.7l1.4-.3a2 2 0 0 1 2.4 1.2z" transform="translate(-493.4 -10556.4)" fill="#262016"/><path d="M813 10812.4c-3.4.5-6.7-.3-10.2-.2-1.2 0-10.6 1.7-5.5 2.4a5.3 5.3 0 0 1 2.9.8 2 2 0 0 1 1 2.1 3.2 3.2 0 0 1-1.3 2l-.5.4-1-1.1-1-2.1a4.5 4.5 0 0 1-1.3 1.4c-1.8-.3-3.8-.4-5-2s-.4-3.8.8-5.2c4.5-5.1 13.7-1.4 19.9-2.1a12.4 12.4 0 0 0 1.2 3.6z" transform="translate(-493.4 -10556.4)" fill="#262016"/><path d="M797.4 10816.6l1 2.1a6.4 6.4 0 0 0-2.3-.7 4.5 4.5 0 0 0 1.3-1.4zM796.1 10822.4c1.7 2.1 1.8 5.8-.3 7.7-7.7 6.6-18.5 2.3-27-.5a11 11 0 0 0 2.1-3.4c4.4 1.6 9.4 3.6 14 3.5a15.4 15.4 0 0 0 4.3-.5c2.5-.3 5.3-2.6 3.3-5.3a12.2 12.2 0 0 0-7.3-2.8v-.3a11.8 11.8 0 0 0 3.9-2.9 13.7 13.7 0 0 1 7 4.5z" transform="translate(-493.4 -10556.4)" fill="#262016"/><path d="M792.4 10823.9c1.9 2.8-.8 5-3.3 5.3a15.4 15.4 0 0 1-4.3.5c-4.5.1-9.6-1.9-14-3.5.4-.9.7-1.9 1.1-3s2.1-4.9 2.7-7.6c2.7-.2 12-.5 9 1.6l-.5.3a1.9 1.9 0 0 0 1 3.6h1a12.2 12.2 0 0 1 7.3 2.8z" transform="translate(-493.4 -10556.4)" fill="#ffc9a4"/><path d="M788.1 10813.7c1.6 1.8 1.7 3.1.9 4.2a20 20 0 0 0-4.9-.7h-.5c3-2.1-6.2-1.9-9-1.6a9.6 9.6 0 0 0 .1-3.9c4.4-.7 10.4-1.3 13.4 2z" transform="translate(-493.4 -10556.4)" fill="#262016"/><path d="M789 10817.9a11.8 11.8 0 0 1-3.9 2.9l-1-3.6a20 20 0 0 1 4.9.7zM784.1 10817.2l1 3.6v.3h-1a1.9 1.9 0 0 1-1-3.6l.5-.3h.5zM774.7 10811.7a9.6 9.6 0 0 1-.1 3.9h-.6a2.1 2.1 0 0 1-2.4-2.1 1.5 1.5 0 0 1 1.4-1.6z" transform="translate(-493.4 -10556.4)" fill="#262016"/><path d="M774.3 10810.3a6.5 6.5 0 0 1 .4 1.4l-1.7.3a1.5 1.5 0 0 0-1.4 1.6h-1c-.2-5-5.6-6.9-10.5-8.9a251.4 251.4 0 0 1-55.4-31c-8.2-6.1-16.3-12.5-24.7-18.4s-16.7-12-27-13.1a24.7 24.7 0 0 0-2.6-3v-1c12.2.2 21.9 6.8 31.6 13.8s20.9 16 31.7 23.6a216.5 216.5 0 0 0 34.8 20c6 2.7 12.5 4.8 18.3 7.9 3.3 1.5 6 3.4 7.5 6.8zM774.1 10815.6h.6c-.5 2.7-1.9 5.4-2.7 7.6s-.7 2.1-1.1 3l-1.7-.6a1.7 1.7 0 0 0-1.6.3l-.7-.2a4.7 4.7 0 0 0 .5-1.1c.9-2.4 1.8-4.8 2.6-7.2a10.4 10.4 0 0 0 .6-3.8h1a2.1 2.1 0 0 0 2.5 2z" transform="translate(-493.4 -10556.4)" fill="#262016"/><path d="M631.4 10852.7s2.6-3.8 0-3.8a1.9 1.9 0 0 0 0 3.8zm0-20.3s2.6-3.8 0-3.8a1.9 1.9 0 0 0 0 3.8zm0-39.5s2.6-3.8 0-3.8a1.9 1.9 0 0 0 0 3.9zm0 20.9s2.6-3.8 0-3.8a1.9 1.9 0 0 0 0 3.9zm139.2-.4a10.4 10.4 0 0 1-.6 3.8c-.8 2.4-1.7 4.8-2.6 7.2a4.7 4.7 0 0 1-.5 1.1c-2.4 3.4-8-1.4-10-2.5-9.2-5.3-19.2-9.4-29.1-13.4s-20.6-8.3-30.5-13.5-17.9-11.8-27.1-17.1a1.9 1.9 0 0 0-2.1 3.2c1.9 14.3 3.2 28.6 4.9 42.9a68.4 68.4 0 0 0 4.9 18.3 7.7 7.7 0 0 1 .2 7.1l-3 1.3-4.5 1.7c-3.4 1.3-6.8 2.3-10.3 3.2-26.4 7.2-55.1 5-80.3-5.4l-5-2.2c4.2-22.9 8.1-46.9 4.3-70.2-1.9-11.5-7.2-21.9-11.4-32.6-5.1-12.9-9.5-26.1-14.2-39.1s-9.4-22.9-12.5-34.9c-1.8-6.9-1.9-14.2-2.2-21.3-.5-13-.6-25.9-.7-38.9 5.5.4 11 0 16.5-.1a349.5 349.5 0 0 0 2.7 40.9c1.3 10.2 5.5 20.3 8.8 30 4.2 12.6 8.4 25.2 13.6 37.4 2.6 6.3 5.3 13.9 11.5 17.4s12 3.7 18.7 4.4c-2.8 4.4-3.9 9.7-2.2 14.9 3.2 9.3 15.2 10.5 23.4 10.4l.9-.2.9.2c8.4.1 19.2-1 23.1-9.8 2.4-5.3.3-11.2-3.1-15.8 10.3 1.1 18.6 7.1 27 13.1s16.4 12.3 24.7 18.4a251.4 251.4 0 0 0 55.4 31c4.9 2.3 10.2 4.2 10.4 9.2z" transform="translate(-493.4 -10556.4)" fill="#54618c"/><path d="M770.8 10826.2a11 11 0 0 1-2.1 3.4l-.7-.2a2 2 0 0 1-.6-3.4 1.7 1.7 0 0 1 1.6-.3z" transform="translate(-493.4 -10556.4)" fill="#262016"/><path d="M768.1 10829.3l.7.2a7.6 7.6 0 0 1-3 1.9c-3.6 1.3-10-4.6-12.9-6.1q-7.9-4.2-16.2-7.8c-12.5-5.3-25.3-9.9-37.4-16-9.5-4.9-18.1-11.2-27.1-16.8l-.4-3.2c-.3-2.4-4.2-2.5-3.8 0v.6a1.9 1.9 0 0 1 2.1-3.2c9.3 5.3 17.7 12.2 27.1 17.1s20.2 9.3 30.5 13.5 19.9 8 29.1 13.4c2 1.1 7.6 5.9 10 2.5l.7.2a2 2 0 0 0 .6 3.7zM719.5 10892.4c9.5 11.3-.6 27.2-7.4 38.2l-.7-.3a7.1 7.1 0 0 0-3.4-.5c4.2-6.8 8.6-14.4 10.8-22 2.9-9.6-4.4-15.7-11.1-21.6s-10.7-10-16.2-14.9-11.8-9.1-16.6-14.5a1.9 1.9 0 0 1-.4-.7l3.6-1.5c6.3 6.8 14.4 12.2 21.1 18.6s14.3 12.2 20.3 19.2z" transform="translate(-493.4 -10556.4)" fill="#262016"/><path d="M707.8 10886.2c6.6 5.8 13.9 11.9 11.1 21.6-2.2 7.6-6.7 15.2-10.8 22a18.5 18.5 0 0 0-9.4 3.8c-7.2 5.6-13.7 11.9-20.9 17.4a45.3 45.3 0 0 0-7.1 6.7c2.1-7 8-30 8.7-32.2 2.2-7.4-4.6-12.8-10-16.3-7.8-4.9-17-8.9-25.4-12.5a130.2 130.2 0 0 0-14.5-5.4c-4.3-1.3-9.6 2.3-13.2 4-11.7 5.5-23.2 11.6-34.5 17.9-7.3 4.1-9.1 8.1-7.8 16.6 1.7 11.1 4.9 22 8.2 32.8-1.3-1.2-2.6-2.4-4-3.6-7.6-6.4-15.6-12.6-23.5-18.7-3-2.3-5.9-3-8.4-2.6-2.7-7.1-5.1-14.2-7.2-21.4-1.5-5.1-3.1-9.9-.6-15s5.9-7.6 9-10.8c5.6-5.9 11.6-11.5 17.3-17.3s9.8-12.3 15.4-17.7a131.4 131.4 0 0 0 81.2 5 111.2 111.2 0 0 0 13.3-4.4 1.9 1.9 0 0 0 .4.7c4.9 5.4 11.2 9.6 16.6 14.5s10.6 10 16.1 14.9z" transform="translate(-493.4 -10556.4)" fill="#41444c"/><path d="M712 10930.6c4.4 2.3 6.3 6.4 4.7 11.3s-5.3 8.2-7.7 11.7l-8.5 12.2c-4.1 5.9-8 14.1-14.7 17.6 1.6-1.1.5-4.1-1.6-3.4h-.2c5.4-2.8 8.5-9.2 11.9-14.1l9.9-14.3 5.7-8.2c2.1-3.2 1.9-9-1.7-9.8a1.8 1.8 0 0 0 1-.8z" transform="translate(-493.4 -10556.4)" fill="#262016"/><path d="M711.4 10930.3l.7.3-1.4 2.3a1.8 1.8 0 0 1-1 .8h-1.3a1.8 1.8 0 0 1-1-2.7l.7-1.2a7.1 7.1 0 0 1 3.3.5z" transform="translate(-493.4 -10556.4)" fill="#262016"/><path d="M709.6 10933.7c3.6.8 3.9 6.6 1.7 9.8l-5.7 8.2-9.9 14.3c-3.4 4.9-6.4 11.3-11.9 14.1a13.6 13.6 0 0 1-11.1-1.7c-6.2-3.6-4.4-10.5-1.3-15.5 5.1-8.2 15.4-14.2 22.6-20.5 3.9-3.5 7.6-6.5 12.6-8.2l1.6-.3a1.9 1.9 0 0 0 1.4-.2z" transform="translate(-493.4 -10556.4)" fill="#1b1d21"/><path d="M709.6 10933.7a1.9 1.9 0 0 1-1.3-.1h1.3zM708 10929.8l-.7 1.2a1.8 1.8 0 0 0 1 2.7l-1.6.3c-5 1.7-8.6 4.8-12.6 8.2-7.1 6.3-17.5 12.3-22.6 20.5l-.5-.2a2 2 0 0 0-1.1-2.9 7.5 7.5 0 0 0 .7-2 45.3 45.3 0 0 1 7.1-6.7c7.2-5.6 13.7-11.9 20.9-17.4a18.5 18.5 0 0 1 9.4-3.7zM686.7 10637.4c3.9 11.9 2.1 22-4.8 31.2h-.3a5.2 5.2 0 0 0-3.9.3l-.2-.9c6.5-7.8 9.5-16.9 6.1-27.3-1.9-5.8-7.1-16.7-14.6-16.8a20.1 20.1 0 0 0-2.1-3.6c9.6-1.4 17.2 9.1 19.8 17.1zM684.1 10980c2.1-.6 3.2 2.3 1.6 3.4h-.2c-2.2 1.1-4.2-2.2-1.9-3.3h.5zM682 10668.6c2.3.9 3.8 4.2 3.6 6.5a11.2 11.2 0 0 1-4.7 8.4c-1.6 1.3-3.4 2.6-5.4 2.3l.7-3.8c1.2.4 4.6-3.7 4.9-4.5a4.8 4.8 0 0 0-.1-4.7c-1.3-1.8-2.7.4-3.2 1.3l-.4.5v-1a46.1 46.1 0 0 0 4.6-5z" transform="translate(-493.4 -10556.4)" fill="#262016"/><path d="M685.6 10983.5l-.5.2c-9.4 2.7-23.2-4.2-20.1-15.6a23.9 23.9 0 0 1 2.3-5.6 4.9 4.9 0 0 0 1.6.9 1.7 1.7 0 0 0 2.1-.8l.5.2c-3.1 5-4.8 11.9 1.3 15.5a13.6 13.6 0 0 0 11.1 1.7h-.2c-2.3 1.3-.3 4.6 1.9 3.5z" transform="translate(-493.4 -10556.4)" fill="#262016"/><path d="M683.7 10640.6c3.4 10.4.4 19.5-6.1 27.3-1.7-9-8.7-17.8-15.1-23.7l2-1.6c1.8-1.7-.9-4.4-2.7-2.7a26.9 26.9 0 0 1-4.4 3.2c-6.6 3.9-14.4 4.8-22.1 5.7s-17.4 2.4-26.1 3.5c-10.4 1.3-23.4 4.6-29.4 14.1-9.3-24.5 5.7-49.6 30.6-57a57.3 57.3 0 0 1 34.1.3c7.1 2.3 16.1 6.8 20.2 13.6a14.5 14.5 0 0 1 1.6 11.5c-.6 2.4 3.1 3.4 3.7 1a17.7 17.7 0 0 0-.9-12.1c7.5.2 12.7 11 14.6 16.9z" transform="translate(-493.4 -10556.4)" fill="#3f261d"/><path d="M679.1 10836c.8 2.4 7.3 14.9 2.8 17l-3.7 1.6-.5-.5a1.7 1.7 0 0 0-2-.4l-.7-1.8 3-1.3a7.7 7.7 0 0 0-.2-7.1 68.4 68.4 0 0 1-4.9-18.3c-1.7-14.3-3.1-28.6-4.9-42.9h.2l4 2.4c1.2 8 2.7 16 3.3 24s.7 18.6 3.6 27.3zM681.7 10668.5h.3a46.1 46.1 0 0 1-4.4 5.1l.2-1.2h.2a22.1 22.1 0 0 0-.2-3.7 5.2 5.2 0 0 1 3.9-.2z" transform="translate(-493.4 -10556.4)" fill="#262016"/><path d="M681.1 10672.7a4.8 4.8 0 0 1 .1 4.7c-.4.8-3.7 4.9-4.9 4.5.4-2.5.8-4.9 1.2-7.4l.4-.5c.4-.8 1.8-3 3.2-1.3z" transform="translate(-493.4 -10556.4)" fill="#ffc9a4"/><path d="M669.4 10909.1c5.4 3.4 12.2 8.9 10 16.3-.7 2.3-6.6 25.3-8.7 32.2a28.8 28.8 0 0 0-3.4 4.8c-3.9-3.3 1.7-12.2 2.7-16 1.4-5.4 2.7-10.8 4.1-16.2s3.1-10.2-1.9-14.4-13.1-7.8-19.9-11.2a164.6 164.6 0 0 0-16-7.1c-2.4-.9-7.4-3.6-10-2.6s-5.4 2.3-8 3.5c-10.2 4.9-20.3 10.1-30.3 15.6-4.6 2.6-10.7 4.4-10.6 10.7a54.1 54.1 0 0 0 1.7 11.3c2.8 11.8 6.2 23.3 9.5 34.9v.2a33.7 33.7 0 0 0-6.6-8.7c-3.2-10.8-6.4-21.7-8.2-32.8-1.3-8.5.5-12.5 7.8-16.6 11.3-6.3 22.8-12.4 34.5-17.9 3.6-1.7 8.9-5.3 13.2-4a130.2 130.2 0 0 1 14.5 5.4c8.6 3.8 17.7 7.7 25.6 12.6zM677.7 10854.1l.5.5-3.6 1.5a2.1 2.1 0 0 1 1.1-2.5 1.7 1.7 0 0 1 2 .5zM677.8 10668.8a22.1 22.1 0 0 1 .2 3.7h-.2v-.9a2.1 2.1 0 0 0-1.1-2.1z" transform="translate(-493.4 -10556.4)" fill="#262016"/><path d="M676.9 10669.3a2.1 2.1 0 0 1 1.1 2.1v.9l-2.7-1.1a7.3 7.3 0 0 1 1.6-1.9zM677.8 10672.4l-.2 1.2-.2.2a2 2 0 0 1-3.1-.5 1.9 1.9 0 0 1 .2-1.2l.5-.9zM677.6 10667.9l.2.9-.9.5-.4-.2z" transform="translate(-493.4 -10556.4)" fill="#262016"/><path d="M677.6 10673.6v1a2 2 0 0 1-3.1-1.2 2 2 0 0 0 3.1.5zM677.6 10667.9l-1.1 1.3a1.6 1.6 0 0 0-2.3 1.3v.7c-.4-9.2-8.4-18.9-14.9-24.7a31.5 31.5 0 0 0 3.3-2.2c6.3 5.8 13.3 14.6 15 23.6z" transform="translate(-493.4 -10556.4)" fill="#262016"/><path d="M677.5 10674.6c-.4 2.5-.8 4.9-1.2 7.4h-.1a1.8 1.8 0 0 0-1.7-.1 2 2 0 0 0-.6-.8l-1-.7 1.4-9.2v1.3a1.7 1.7 0 0 0 .2.9 2 2 0 0 0 3 1.2zM676.5 10669.2l.4.2a7.3 7.3 0 0 0-1.8 1.9h-.4z" transform="translate(-493.4 -10556.4)" fill="#262016"/><path d="M676.1 10682h.1l-.7 3.8-1.3-.5a2 2 0 0 1-.7-.7 2.2 2.2 0 0 0 .9-2.7 1.8 1.8 0 0 1 1.7.1zM674.2 10670.4a1.6 1.6 0 0 1 2.3-1.3l-1.8 1.9h.3l-.5.9a1.9 1.9 0 0 0-.2 1.2 1.7 1.7 0 0 1-.2-.9v-2zM675 10851.9l.7 1.8a2.1 2.1 0 0 0-1.1 2.5 111.2 111.2 0 0 1-13.3 4.4 131.4 131.4 0 0 1-81.2-5l.2-.2a1.9 1.9 0 0 0-.7-3.1l.4-.8c25.2 10.4 53.9 12.7 80.3 5.4 3.4-.9 6.9-1.9 10.3-3.2z" transform="translate(-493.4 -10556.4)" fill="#262016"/><path d="M674.2 10685.3l1.3.5q-1.4 7.7-3.2 15.4c-.4 1.8-.9 3.6-1.4 5.4h-.1c.4-1.2-.2-2.6-1.7-2.4h-1.3a171.6 171.6 0 0 0 4.2-19.7 1.4 1.4 0 0 0 1.4.1 2 2 0 0 0 .8.7zM674.4 10681.9a2.2 2.2 0 0 1-.9 2.7 2 2 0 0 1 .9-2.7z" transform="translate(-493.4 -10556.4)" fill="#262016"/><path d="M673.8 10681.1a2 2 0 0 1 .6.8 2 2 0 0 0-.9 2.7 1.4 1.4 0 0 1-1.4-.1l.7-4.2z" transform="translate(-493.4 -10556.4)" fill="#262016"/><path d="M613.4 10674.8a1.9 1.9 0 0 0 0 3.8 1.9 1.9 0 0 0 0-3.8zm32.1 1.3a1.9 1.9 0 0 0 0 3.8 1.9 1.9 0 0 0 0-3.8zm28.6-4.9l-1.4 9.2c-8.1-5.2-17.3 1.6-18.8 10.4s4.5 16.7 12.7 17.3c-.7 2.2-1.5 4.4-2.4 6.5a36 36 0 0 1-17.2 18.4 41.1 41.1 0 0 1-24.3 3.7 42.8 42.8 0 0 1-4.9-1c-12.7-3.3-20.8-12-26-22.9 8.3-.2 13-7.9 12.6-16.3-.6-10.9-11.9-16.4-20.5-10.6l-.3-2.1c-.7-4.6-1.2-9.1-1.7-13.3 6.3-15.6 30.5-14.4 44-16.8 11.4-2 23.3-1.7 33.2-7.4 6.6 5.9 14.6 15.6 15 24.9zm-31.8 50.9c5.4-3 14.5-15 3.7-18-4.9-1.4-10.2 2.3-15.1 2.3-7.2 0-10.8-8.1-17.7-7.2-10.4 1.3-6.6 14.1-1.8 19.1h.1l.3.3.3.2c8.7 6.8 20.4 8.7 30.2 3.3zm-7.9-32.7c1.9-1.5 0-4.8-1.9-3.3a27.5 27.5 0 0 1-3.7 2.5 6.4 6.4 0 0 1-2.5.7c-1.2.1-.3-1.1 0-1.6 1.5-2.7 3.6-4.6 3.5-7.9a1.9 1.9 0 0 0-3.8 0c0 3.8-7 8.3-3.1 12.2s8.8-.5 11.5-2.6z" transform="translate(-493.4 -10556.4)" fill="#ffc9a4"/><path d="M671.7 10781.7l.4 3.2-4-2.4h-.1v-.6c-.4-2.7 3.4-2.7 3.7-.2zM672.7 10680.4l-.7 4.2-.2-.2c-6.3-4.9-14.5.7-14.2 8.3.3 6 3.9 11.6 10.2 11.6-.4 1.3-.8 2.6-1.2 3.8-8.2-.6-14-9.2-12.7-17.3s10.7-15.6 18.8-10.4z" transform="translate(-493.4 -10556.4)" fill="#262016"/><path d="M671.8 10684.4l.2.2a171.6 171.6 0 0 1-4.2 19.7c-6.2 0-9.9-5.5-10.2-11.6-.3-7.6 7.9-13.1 14.2-8.3z" transform="translate(-493.4 -10556.4)" fill="#dd553a"/><path d="M669.9 10959.6a2 2 0 0 1 1.1 2.9 1.7 1.7 0 0 1-2.1.8 4.9 4.9 0 0 1-1.6-.9 28.8 28.8 0 0 1 3.4-4.8 7.5 7.5 0 0 1-.8 2zM670.9 10706.6h.1c-1.6 6-3.8 12-7.5 17.1a41.1 41.1 0 0 1-13.2 12v-.4a2 2 0 0 0-3-1.6l-.3-.7a36 36 0 0 0 17.2-18.5c.9-2.1 1.7-4.3 2.4-6.5h2.5a2 2 0 0 0 1.8-1.4z" transform="translate(-493.4 -10556.4)" fill="#262016"/><path d="M669.1 10704.2c1.5-.2 2.1 1.2 1.7 2.4a2 2 0 0 1-1.7 1.4h-2.5c.4-1.3.8-2.5 1.2-3.8h1.3zM669.1 10623.8a17.7 17.7 0 0 1 .9 12.1c-.6 2.4-4.3 1.4-3.7-1a14.5 14.5 0 0 0-1.6-11.5l.9-.6a2.1 2.1 0 0 0 2.2 1.2h1.3z" transform="translate(-493.4 -10556.4)" fill="#262016"/><path d="M669.1 10623.8h-1.3a2.1 2.1 0 0 1-2.2-1.2 1.6 1.6 0 0 1 1.2-2.5h.2a20.1 20.1 0 0 1 2.1 3.7z" transform="translate(-493.4 -10556.4)" fill="#262016"/><path d="M667 10620.2h-.2a1.6 1.6 0 0 0-1.2 2.5l-.9.6c-4.1-6.8-13.1-11.4-20.2-13.6a57.3 57.3 0 0 0-34.1-.3c-24.9 7.4-39.9 32.5-30.6 57v.2a1.6 1.6 0 0 0-1.9 1.8h-1.3c-5.2-13.1-4.9-27.7 2.7-39.9a50.5 50.5 0 0 1 32.1-23.3c14.6-3.3 28.8-2.8 42.4 4.1 4.9 2.6 9.9 6.2 13.2 10.9zM661.8 10639.9c1.8-1.7 4.6 1.1 2.7 2.7l-2 1.6-.7-.6a1.9 1.9 0 0 0-2.4-.2l-1.9-.4a26.9 26.9 0 0 0 4.3-3.1z" transform="translate(-493.4 -10556.4)" fill="#262016"/><path d="M661.8 10643.6l.7.6a31.5 31.5 0 0 1-3.3 2.2h-.2a1.8 1.8 0 0 1 .3-2.9 1.9 1.9 0 0 1 2.5.1z" transform="translate(-493.4 -10556.4)" fill="#262016"/><path d="M657.4 10643.1l1.9.4a1.8 1.8 0 0 0-.3 2.9h.1c-9.9 5.7-21.9 5.4-33.2 7.4-13.5 2.4-37.7 1.2-44 16.8l-.2-2.2a2 2 0 0 0-1.8-1.8v-.2c5.9-9.5 18.9-12.8 29.4-14.1 8.7-1.1 17.4-2.6 26.1-3.5s15.4-1.8 22-5.7zM653 10742.1c3.3 4.6 5.4 10.4 3.1 15.8-3.9 8.8-14.7 9.9-23.1 9.8l-.9-.2a1.8 1.8 0 0 0 1-1.7v-1.9l1.9 1.9v-1.9c6.6-.1 16.4-1.1 17.9-8.5a13 13 0 0 0-2-9.7 19.1 19.1 0 0 0 0-3.7h2.1z" transform="translate(-493.4 -10556.4)" fill="#262016"/><path d="M650.9 10745.6a13 13 0 0 1 2 9.7c-1.5 7.4-11.4 8.4-17.9 8.5a61.6 61.6 0 0 0-.3-6.3c4.9-.4 10.7-1.2 13.7-5.2a12.7 12.7 0 0 0 2.1-4.3 1.9 1.9 0 0 0 .2-.9c0-.5.1-1 .2-1.5z" transform="translate(-493.4 -10556.4)" fill="#414e72"/><path d="M650.9 10741.9a19.1 19.1 0 0 1 0 3.7l-.2-.4c0-1.1 0-2.3-.1-3.4h.3z" transform="translate(-493.4 -10556.4)" fill="#262016"/><path d="M653 10742.1h-2.2a22.7 22.7 0 0 0-.3-2.5v-.3a24.7 24.7 0 0 1 2.5 2.8z" transform="translate(-493.4 -10556.4)" fill="#262016"/><path d="M650.9 10741.9h-.3c0-.9-.1-1.8-.1-2.7v.3a22.7 22.7 0 0 1 .4 2.4zM650.6 10745.3l.2.4c-.1.5-.1 1-.2 1.5s0-1.3 0-1.9z" transform="translate(-493.4 -10556.4)" fill="#262016"/><path d="M650.6 10745.3v1.8l-.2.9c-.8 1.6-3.7 1.3-3.6-.9v-.4a14.9 14.9 0 0 0 .1-6.2 1.8 1.8 0 0 0 .5.8 23.9 23.9 0 0 1 3.2 4z" transform="translate(-493.4 -10556.4)" fill="#262016"/><path d="M650.6 10741.9c.1 1.1.1 2.2.1 3.4a23.9 23.9 0 0 0-3.3-3.9 1.8 1.8 0 0 1-.5-.8 2 2 0 0 1 2.1-2.4h.2c-2.1.4-1.9 3.8.4 3.8h1z" transform="translate(-493.4 -10556.4)" fill="#262016"/><path d="M650.6 10741.9h-1c-2.3 0-2.5-3.4-.4-3.8a1.9 1.9 0 0 1 .9.5l.3.3v.2c.1 1 .2 1.9.2 2.8zM650.4 10748l.2-.9a1.9 1.9 0 0 1-.2.9zM650.5 10739v-.2h.1z" transform="translate(-493.4 -10556.4)" fill="#262016"/><path d="M650.4 10738.1v1h-.1a1.5 1.5 0 0 0-1.2-.8h1.3z" transform="translate(-493.4 -10556.4)" fill="#262016"/><path d="M650.4 10738.1h-1.5a2 2 0 0 0-2.1 2.4 14.9 14.9 0 0 1-.1 6.2c0-3-.1-6.1-.2-9.1l3.8-1.9v2.4z" transform="translate(-493.4 -10556.4)" fill="#262016"/><path d="M650.4 10738.9l-.3-.3a1.9 1.9 0 0 0-.9-.5 1.5 1.5 0 0 1 1.2.8zM650.3 10735.3v.4l-3.8 1.9c0-.8-.1-1.5-.1-2.3a1.6 1.6 0 0 1 .8-1.6 2 2 0 0 1 3.1 1.6zM646.8 10747.1c0 2.2 2.8 2.4 3.6.9a12.7 12.7 0 0 1-2.1 4.3c-2.9 3.9-8.8 4.8-13.7 5.2l-.2-1.8-1 1v-1a1.8 1.8 0 0 0-1.5-1.8h.5c4.4-.3 12.4-.7 14-6l.3-1.1v.4zM646.8 10740.5a2 2 0 0 1 2.1-2.4 2 2 0 0 0-2.1 2.4z" transform="translate(-493.4 -10556.4)" fill="#262016"/><path d="M647 10733l.3.7a1.6 1.6 0 0 0-.8 1.6c0 .8.1 1.5.1 2.3a42 42 0 0 1-23 3.1l-4.5-.8c0-.5 0-1 .1-1.4a1.7 1.7 0 0 0-1.5-1.8l.2-.8a42.8 42.8 0 0 0 4.9 1 41.1 41.1 0 0 0 24.2-3.9z" transform="translate(-493.4 -10556.4)" fill="#262016"/><path d="M639.9 10708.6c1.4-.5 10.5-2.8 6.8 4-1.7 3.1-4.8 5.4-7.8 7-7.6 4.2-17.9 1.4-24.3-3.7-3.1-2.9-7.1-8.5-1.8-12.5 2.3-1.7 7.9 3.3 9.8 4.5 4.5 2.6 9.8 2.8 14.7 1.6z" transform="translate(-493.4 -10556.4)" fill="#f48f7d"/><path d="M646.6 10712.6c3.7-6.8-5.4-4.5-6.8-4l-2.6.9c-4.9 1.2-10.2 1-14.7-1.6-1.9-1.1-7.5-6.2-9.8-4.5-5.3 4-1.2 9.7 1.8 12.5-1.8-1.4-4.3.8-3.1 2.4-4.8-5-8.6-17.8 1.8-19.1 6.9-.9 10.5 7.2 17.7 7.2 4.9 0 10.2-3.7 15.1-2.3 10.8 3 1.6 15-3.7 18-9.8 5.4-21.5 3.5-30.2-3.2 1.8 1.1 4.1-1.4 2.4-3 6.4 5 16.7 7.8 24.3 3.7 3-1.6 6.1-4 7.8-7z" transform="translate(-493.4 -10556.4)" fill="#262016"/><path d="M646.6 10737.6c.1 3 .3 6.1.2 9.1l-.3 1.1c-1.5 5.3-9.6 5.7-14 6h-.9c-4.4-.3-10.1-.7-13.1-4.3 0-3.2.3-6.4.5-9.6l4.5.8a42 42 0 0 0 23.1-3.1z" transform="translate(-493.4 -10556.4)" fill="#ffc9a4"/><path d="M645.5 10676.1a1.9 1.9 0 0 1 0 3.8 1.9 1.9 0 0 1 0-3.8zM634.7 10757.4a61.6 61.6 0 0 1 .3 6.3h-1.9c0-2.1.1-4.2.3-6.2h1.3zM635 10763.8v1.9l-1.9-1.9h1.9z" transform="translate(-493.4 -10556.4)" fill="#262016"/><path d="M634.5 10755.7l.2 1.8h-1.3c0-.3.1-.6.1-.8zM632.5 10686.1c2-1.5 3.9 1.8 1.9 3.3s-8.3 5.8-11.6 2.5 3.1-8.3 3.1-12.2a1.9 1.9 0 0 1 3.8 0c0 3.3-2.1 5.2-3.5 7.9-.3.5-1.2 1.7 0 1.6a6.4 6.4 0 0 0 2.5-.7 27.5 27.5 0 0 0 3.8-2.4z" transform="translate(-493.4 -10556.4)" fill="#262016"/><path d="M632.1 10753.8a1.8 1.8 0 0 1 1.5 1.8v1l-.9.9h.8c-.2 2.1-.3 4.1-.3 6.2v1.9a1.1 1.1 0 1 1-2 0v-1.8a59.8 59.8 0 0 0-.3-6.2h.8l-.9-.9c0-.3-.1-.7-.1-1a1.8 1.8 0 0 1 1.4-1.9z" transform="translate(-493.4 -10556.4)" fill="#262016"/><path d="M632.6 10757.6l.9-.9c0 .3-.1.6-.1.8h-.8zM633.1 10763.8zM631.6 10753.7h.5a1.8 1.8 0 0 0-1.5 1.8c0 .3.1.7.1 1l-1-1c-.1.6-.1 1.2-.2 1.8-5.2-.4-11.5-1.4-14.3-6v-.2c1 1.2 3.5.9 3.5-1.1v-.7c2.9 3.8 8.5 4.1 12.9 4.4zM631.4 10789.1c2.6 0 0 3.8 0 3.8a1.9 1.9 0 0 1 0-3.8zM631.4 10810.1c2.6 0 0 3.8 0 3.8a1.9 1.9 0 0 1 0-3.8zM631.4 10828.6c2.6 0 0 3.8 0 3.8a1.9 1.9 0 0 1 0-3.8zM631.4 10848.9c2.6 0 0 3.8 0 3.8a1.9 1.9 0 0 1 0-3.8zM631.6 10757.6h-.8v-.8z" transform="translate(-493.4 -10556.4)" fill="#262016"/><path d="M632.1 10767.4l-.9.2c-8.3.1-20.3-1.1-23.4-10.4-1.8-5.2-.6-10.5 2.2-14.9l2.8.4a13.8 13.8 0 0 0 .2 2.2c-2.2 3.7-3.3 8.1-1.1 11.9 3.6 6.1 11 6.9 17.5 7v1.9l1.8-1.8v1.8a1.8 1.8 0 0 0 .9 1.7zM631.2 10763.8z" transform="translate(-493.4 -10556.4)" fill="#262016"/><path d="M630.8 10757.5a59.8 59.8 0 0 1 .3 6.2h-1.9a58.3 58.3 0 0 1 .3-6.3h1.3z" transform="translate(-493.4 -10556.4)" fill="#262016"/><path d="M631.1 10763.8l-1.8 1.8v-1.9h1.9zM630.7 10756.7v.8h-1.3c0-.6.1-1.2.2-1.8z" transform="translate(-493.4 -10556.4)" fill="#262016"/><path d="M629.5 10757.4a58.3 58.3 0 0 0-.3 6.3c-6.5-.1-13.9-.9-17.5-7-2.2-3.7-1.1-8.2 1.1-11.9a16.2 16.2 0 0 0 2 6l.2.4v.2c3.1 4.6 9.3 5.6 14.5 6z" transform="translate(-493.4 -10556.4)" fill="#414e72"/><path d="M617.6 10736.6a1.7 1.7 0 0 1 1.5 1.8c0 .5 0 1-.1 1.4l-2.3-.6a2.1 2.1 0 0 0-1.3-1.7 2 2 0 0 1 2.2-.9z" transform="translate(-493.4 -10556.4)" fill="#262016"/><path d="M619.1 10739.8c-.2 3.2-.5 6.4-.5 9.6l-.6-.9c-1.5-2.4-1.7-5.9-1.2-8.7a1.4 1.4 0 0 0 .1-.7z" transform="translate(-493.4 -10556.4)" fill="#262016"/><path d="M618.6 10750.2c.1 2-2.5 2.4-3.5 1.1l-.2-.4a2 2 0 0 1-.2-.8c-.1-2.8.2-5.5.4-8.3l1.1-1.2a1.9 1.9 0 0 0 .5-.8c-.5 2.8-.3 6.2 1.2 8.7l.6.9c.1.3.1.5.1.8zM617.8 10735.7l-.2.8a2 2 0 0 0-2.1 1h-1a1.5 1.5 0 0 0-1.2.7c-12.7-4.8-20.7-14.5-25.9-26.3h.1a1.7 1.7 0 0 0 1.2.8 14.1 14.1 0 0 0 3.1.2c5.2 10.8 13.3 19.5 26 22.8z" transform="translate(-493.4 -10556.4)" fill="#262016"/><path d="M616.8 10739.2a1.4 1.4 0 0 1-.1.7 2.2 2.2 0 0 0 0-.6zM616.8 10739.2a2 2 0 0 0-1.3-1.7 2.1 2.1 0 0 1 1.3 1.7z" transform="translate(-493.4 -10556.4)" fill="#262016"/><path d="M616.7 10739.2a2.2 2.2 0 0 1 0 .6 1.9 1.9 0 0 1-.5.8l-1.1 1.2v-.6a2 2 0 0 0 .1-1c0-.5.1-1 .1-1.5z" transform="translate(-493.4 -10556.4)" fill="#262016"/><path d="M616.7 10739.2l-1.5-.5v-.4a2 2 0 0 1 .2-.8 2 2 0 0 1 1.3 1.7zM615.5 10737.5l-.8-.2h.9z" transform="translate(-493.4 -10556.4)" fill="#262016"/><path d="M615.5 10737.6a2 2 0 0 0-.2.8v.4l-1.9-.7.2-.2a1.8 1.8 0 0 1 .9-.5h.2zM615.2 10738.8c0 .5 0 1-.1 1.5a1.5 1.5 0 0 0-1.4-1.2h-.7l.2-.5.2-.2zM615.2 10740.3a2 2 0 0 1-.1 1c.1-.4.1-.7.1-1z" transform="translate(-493.4 -10556.4)" fill="#262016"/><path d="M615.2 10740.3c0 .3 0 .6-.1 1a2.1 2.1 0 0 1-2.3 1.5h-.1a19.1 19.1 0 0 1 .3-3.8h.8a1.5 1.5 0 0 1 1.4 1.3z" transform="translate(-493.4 -10556.4)" fill="#262016"/><path d="M615.1 10741.2v.6a20.4 20.4 0 0 0-2.2 3.1 13.8 13.8 0 0 1-.2-2.2h.1a2.1 2.1 0 0 0 2.3-1.5zM614.9 10750.9l.2.4zM614.5 10715.9c1.7 1.6-.6 4.1-2.4 3l-.3-.2-.3-.3h-.1c-1.1-1.7 1.4-3.9 3.1-2.5z" transform="translate(-493.4 -10556.4)" fill="#262016"/><path d="M614.7 10750.2a2 2 0 0 0 .2.8 16.2 16.2 0 0 1-2-6 20.4 20.4 0 0 1 2.2-3.1c-.2 2.7-.4 5.5-.4 8.3zM613.4 10674.8a1.9 1.9 0 0 1 0 3.8 1.9 1.9 0 0 1 0-3.8zM614.4 10737.4a1.8 1.8 0 0 0-.9.5l-.2.2h-.1a1.5 1.5 0 0 1 1.2-.7zM613.3 10738.1h.1l-.2.2v-.2z" transform="translate(-493.4 -10556.4)" fill="#262016"/><path d="M613.2 10738.3l-.2.5h-.4zM612.6 10738.9h.4a19.1 19.1 0 0 0-.3 3.8l-2.8-.4a23.2 23.2 0 0 1 2.7-3.4z" transform="translate(-493.4 -10556.4)" fill="#262016"/><path d="M611.5 10718.4l.3.3z" transform="translate(-493.4 -10556.4)"/><path d="M612.6 10738.9a23.2 23.2 0 0 0-2.7 3.5c-6.7-.8-12.4-.8-18.7-4.4s-8.9-11.2-11.5-17.4c-5.2-12.2-9.4-24.9-13.6-37.4-3.3-9.7-7.5-19.8-8.8-30a349.5 349.5 0 0 1-2.7-40.9h1.9l-1.9-1.9v-1.9h2a1.9 1.9 0 0 1 1.9 1.9 369.7 369.7 0 0 0 2.4 40.6c1.1 9.7 4.9 19.2 7.9 28.4l.4 1.3c4 12 8.1 24.1 12.8 35.8 2.4 6 5.1 15 11.1 18.4s12.6 3 19.5 4z" transform="translate(-493.4 -10556.4)" fill="#262016"/><path d="M604.4 10696.5c.4 8.3-4.3 16.1-12.6 16.3-.6-1.3-1.2-2.6-1.7-3.9 5.9.9 10.5-4 10.6-9.8 0-2.7-.1-5.8-1.8-8.1-3.4-4.5-9.4-4.8-13.7-1.2l-.5.3c-.3-1.4-.5-2.8-.8-4.2 8.6-5.7 19.9-.3 20.5 10.6z" transform="translate(-493.4 -10556.4)" fill="#262016"/><path d="M598.8 10691c1.7 2.3 1.8 5.4 1.8 8.1 0 5.8-4.6 10.7-10.6 9.8a100.4 100.4 0 0 1-5.4-18.7l.5-.3c4.3-3.7 10.3-3.4 13.7 1.1z" transform="translate(-493.4 -10556.4)" fill="#dd553a"/><path d="M591.8 10712.8a14.1 14.1 0 0 1-3.1-.2 1.7 1.7 0 0 1-1.2-.8 2.1 2.1 0 0 1 2.2-2.9h.3l1.8 3.9zM590.5 10976.3c2.7 11-11.4 20.5-20.6 14.6l-.3-.2c1.9 1.4 4.5-1.2 2.6-2.8l-.2-.2c5.6 3.4 15.8-1.6 14.9-9.1a17.8 17.8 0 0 0-2-6.3h.1c.9 1.9 4 1 3.6-1.1a23.9 23.9 0 0 1 1.9 5.1z" transform="translate(-493.4 -10556.4)" fill="#262016"/><path d="M590.1 10708.9h-.3a2.1 2.1 0 0 0-2.2 2.9h-.1a107.4 107.4 0 0 1-7.2-25.1 3.2 3.2 0 0 0 2.6-1.1 1.9 1.9 0 0 0 .5-1.7h.3l.3 2.1-1.5 1.1c-1.7 1.5.4 3.9 2.2 3a100.4 100.4 0 0 0 5.4 18.8zM588.6 10971.2c.4 2.1-2.7 3-3.6 1.1v-.3l-2.8-9.5a33.7 33.7 0 0 1 6.4 8.7z" transform="translate(-493.4 -10556.4)" fill="#262016"/><path d="M587 10978.7c.9 7.4-9.3 12.4-14.9 9.1-6.4-5.4-11-13.7-16.6-19.9-3-3.4-5.6-7.1-8.5-10.6a42.2 42.2 0 0 1-3.8-5.4c-2.2-3.7-.9-9 2.5-10.3 1.5-.6 3.4-.4 5.6 1 9.4 6 18.6 14.2 26.9 21.6a29.9 29.9 0 0 1 6.8 8.3 17.8 17.8 0 0 1 2 6.2z" transform="translate(-493.4 -10556.4)" fill="#1b1d21"/><path d="M584.9 10972v.3h.1a29.9 29.9 0 0 0-6.8-8.3c-8.3-7.4-17.6-15.6-26.9-21.6-2.2-1.4-4.1-1.6-5.6-1v-.2a1.6 1.6 0 0 0 1.1-2.2l-.6-1.4c2.5-.4 5.4.3 8.4 2.6 7.9 6.1 15.9 12.2 23.5 18.7 1.4 1.2 2.7 2.4 4 3.6zM584.7 10690.1c-1.8.8-3.9-1.6-2.2-3l1.5-1.1c.1 1.4.4 2.8.7 4.1zM583.6 10683.9h-.3a1.9 1.9 0 0 0-3.2-1 .4.4 0 0 1-.5.1c-.5-3.5-1-7.1-1.3-10.5h.1a2.1 2.1 0 0 0 3.4-1.4l.2-.5c.3 4.3.9 8.8 1.6 13.3z" transform="translate(-493.4 -10556.4)" fill="#262016"/><path d="M583.3 10684a1.9 1.9 0 0 1-.5 1.7 3.2 3.2 0 0 1-2.6 1.1c-.2-1.2-.4-2.5-.6-3.7a.4.4 0 0 0 .5-.1 1.9 1.9 0 0 1 3.2 1zM581.7 10668.4l.2 2.2-.2.5a1.5 1.5 0 0 0-.5-1.1h.2q-.8-1.7-1.5-3.4a2 2 0 0 1 1.8 1.8z" transform="translate(-493.4 -10556.4)" fill="#262016"/><path d="M581.7 10671.1v.3c-.5 1.3-2.5 2-3.4.7l-.2-1.8 3.2-.4a1.5 1.5 0 0 1 .4 1.2z" transform="translate(-493.4 -10556.4)" fill="#262016"/><path d="M581.6 10671.5v-.3a2.1 2.1 0 0 1-3.4 1.4h-.1v-.3c1 1.2 3 .5 3.5-.8zM581.4 10670h-.2l-.2-.2a6.4 6.4 0 0 0-2.4-1.3 14.1 14.1 0 0 1 1-1.9h.2l1.6 3.4z" transform="translate(-493.4 -10556.4)" fill="#262016"/><path d="M581.2 10670l-3.2.4a2.7 2.7 0 0 0 0-.3 13 13 0 0 1 .7-1.6 6.4 6.4 0 0 1 2.4 1.3zM579.5 10852.2a1.9 1.9 0 0 1 .7 3.1l-.2.2-3.8-1.6 1.3-1.3a1.8 1.8 0 0 1 2-.4zM579.6 10683c.2 1.2.4 2.5.6 3.7a8.9 8.9 0 0 1-4.3-1.8 11.3 11.3 0 0 1-4.1-5.4 12 12 0 0 1-.6-2.2c-.6-3.9 1.9-8.2 5.3-8.9.5 1.2 1 2.4 1.5 3.5l.2.3v.3c-1.7-1.3-3.2 1.3-3.3 2.8a7.1 7.1 0 0 0 .6 3.5c.3.5 2.8 3.8 4 4.3zM579.9 10666.6h-.2z" transform="translate(-493.4 -10556.4)" fill="#262016"/><path d="M579.9 10851.4l-.4.8a1.8 1.8 0 0 0-2.1.4l-1.3 1.3-4.4-2a1.9 1.9 0 0 1-.9-2.2c2.5-13.9 5.4-27.8 5.5-42 .1-12.6.7-26.2-3.4-38.2s-8.9-22.2-13-33.4-8.7-24.6-13.4-36.8c-4-10.3-8.8-20.7-10.4-31.8a160.7 160.7 0 0 1-1.2-17.9c-.4-13.2-.6-26.4-.6-39.6a1.9 1.9 0 0 1 1.9-1.9l2 .2v1.7l-1.9 1.9 1.9.2c.1 13 .2 26 .7 38.9.3 7.1.4 14.4 2.2 21.3 3.2 11.9 8.3 23.3 12.5 34.9s9.1 26.2 14.2 39.1c4.2 10.8 9.5 21.1 11.4 32.6 3.7 23.3-.2 47.2-4.3 70.2l-1.2-.5.9 2.2.3-1.6zM577.8 10668.3a1.6 1.6 0 0 1 1.9-1.8 14.1 14.1 0 0 0-1 1.9zM576.2 10853.9l3.8 1.6c-5.6 5.3-9.9 12.1-15.4 17.7s-11.7 11.4-17.3 17.3c-3.1 3.2-7.1 6.8-9 10.8s-.8 10 .6 15c2.1 7.2 4.6 14.3 7.2 21.4a8.2 8.2 0 0 0-3.6 1.5c-3.5-9.1-7.7-18.8-9.1-28.4-1.1-7.6 1.6-12.5 6.6-18.1 6.4-7.2 13.5-13.8 20.3-20.6s10.3-12.5 15.9-18.2z" transform="translate(-493.4 -10556.4)" fill="#262016"/><path d="M578.3 10672.5c.4 3.5.8 7 1.3 10.5-1.2-.4-3.7-3.7-4-4.3a7.1 7.1 0 0 1-.6-3.5c0-1.4 1.6-4 3.3-2.7z" transform="translate(-493.4 -10556.4)" fill="#ffc9a4"/><path d="M578.7 10668.5a13 13 0 0 0-.7 1.6l-.2-1.7zM578.2 10672.2l-.2-.3c-.6-1.2-1.1-2.3-1.5-3.5h1.3l.2 1.7v.4z" transform="translate(-493.4 -10556.4)" fill="#262016"/><path d="M578 10670.1a2.7 2.7 0 0 1 0 .3h-.2v-.4zM574.9 10849.2l-.3 1.6-.9-2.2zM572.2 10987.9c1.9 1.6-.7 4.2-2.6 2.8s.3-4.3 2.2-3.1h.2z" transform="translate(-493.4 -10556.4)" fill="#262016"/><path d="M572 10987.7h-.2c-2-1.3-3.8 1.6-2.2 3.1h-.1c-6.1-5.1-10.1-12.6-15.4-18.5s-11.1-11.7-14.3-18.3-1.1-11.8 2.8-14.6l.4 1a2 2 0 0 0 2.6 1.2v.2c-3.4 1.3-4.7 6.6-2.5 10.3a42.2 42.2 0 0 0 3.8 5.4c2.9 3.5 5.5 7.2 8.5 10.6 5.6 5.9 10.2 14.2 16.6 19.6zM554.7 10610.1l1.9 1.9h-1.9v-1.9zM554.7 10610.1v2c-5.5.2-11 .6-16.5.1v-3.8a160.4 160.4 0 0 0 16.3-.1v1.9z" transform="translate(-493.4 -10556.4)" fill="#262016"/><path d="M546.7 10939.2a1.6 1.6 0 0 1-1.1 2.2 2 2 0 0 1-2.6-1.2l-.4-1a8.2 8.2 0 0 1 3.6-1.5zM538.2 10610.1v2.1l-1.9-.2zM1044 10931.7c4.9 2.6 1.2 9-.9 12.4-3.6 5.7-10.3 9.6-16.7 11.1s-8.2-1.8-10.4-6.4l3.5-1.6c4.9 9 17.6.3 21.2-6.3.3-.5 3.6-7.3-.5-5.6a33.8 33.8 0 0 0-4.9 2.5l-9.5 5.3-.4.2a6.6 6.6 0 0 0 1.5-2.7 7.8 7.8 0 0 0 .1-2.6l9.8-5.4c1.8-1.1 5-2.1 7.2-.9z" transform="translate(-493.4 -10556.4)" fill="#262016"/><path d="M1040 10935.3c4.1-1.7.8 5.1.5 5.6-3.5 6.7-16.2 15.4-21.2 6.3a19.9 19.9 0 0 0 5.8-4l.4-.2 9.5-5.3a33.8 33.8 0 0 1 5-2.4z" transform="translate(-493.4 -10556.4)" fill="#af9a5d"/><path d="M1030 10775.3c4.5 7.1-.4 13.3-5.9 17.7a28.9 28.9 0 0 0-3.5-2.1c3.3-2.4 8.8-6.5 7.2-11.3s-7.6-6.1-10.3-1.5h-.1c.4-1.6.5-3.2-.4-4.4 3.8-3.6 9.9-3.4 13 1.6z" transform="translate(-493.4 -10556.4)" fill="#262016"/><path d="M1027.8 10779.5c1.7 4.8-3.9 8.9-7.2 11.3a36.9 36.9 0 0 0-6.4-2.7c-.2-1.5-.4-2.9-.5-4.4a44.4 44.4 0 0 1-.3-4.9v-1.6c0-.5 1.4-1.7 1.3-.8s1.6 3.9 2.6 1.9l.2-.4c2.7-4.6 8.7-3.3 10.3 1.6z" transform="translate(-493.4 -10556.4)" fill="#ffd6bb"/><path d="M1024.8 10793.5c2.6 2-1.2 12.3-1.9 14.8a56 56 0 0 1-5.5 14.4c-5.1 8.9-11.3 17.1-17.8 25l-.6-1.3c-.9-1.9-3.4-.7-3.5 1.1a1.8 1.8 0 0 1 .5-1.4c5.8-7 11.5-14.2 16.2-22s7.3-16.8 9-26.3c.3-1.5-1-2.6-2.6-3.5h2a1.6 1.6 0 0 0 2 0l1.5-1.2zM1026.9 10938a7.8 7.8 0 0 1-.1 2.6 6.6 6.6 0 0 1-1.5 2.7 2 2 0 0 1-2.2-3l.6-.5z" transform="translate(-493.4 -10556.4)" fill="#262016"/><path d="M1024.1 10793l-1.5 1.2a1.6 1.6 0 0 1-2 0 2.1 2.1 0 0 1 0-3.3h.1a28.9 28.9 0 0 1 3.4 2.1zM1026.9 10938l-3.3 1.9-.6.5-.5-.2a1.9 1.9 0 0 0 .4-1.2l-1.2-9.3a117.7 117.7 0 0 0-3.6-17.7c-3.1-10-8.1-18.7-13.8-27.3l1.4-.4a9.7 9.7 0 0 0 2.3-.9c7.9 12.1 13.9 24.4 16.4 38.9.6 3.2 1.1 6.5 1.5 9.7.2 1.6.8 3.9 1 6z" transform="translate(-493.4 -10556.4)" fill="#262016"/><path d="M1018.6 10794.3c1.6.9 2.9 2 2.6 3.5-1.8 9.5-4.1 18-9 26.3s-10.4 15-16.2 22a1.8 1.8 0 0 0-.5 1.4 2 2 0 0 0 .2.9 196.4 196.4 0 0 1 9.8 25.7c2.2 6.9-4.3 7.2-8.8 9.1a60.5 60.5 0 0 1-17.1 4.5c-17.7 1.9-37.7-3.8-54.4-10.7l-3.6-1.5c2-5.5 4.6-10.9 7.1-16.2 1.6-3.4 2.5-6.5 1.5-10.2s-6.2-7.7-8.8-10.6c-5.2-5.7-8.7-12.6-12.6-19.2l-5.2-8.7c-1.7-2.8-1.3-4.3 0-5.9a27.8 27.8 0 0 1 2.3-2.2 3.4 3.4 0 0 1 2-.9c4.3-.5 10 6.8 13.1 9.3 9.4 7.7 19.1 14.9 26.7 24.4l.2.3.6.5c6.7 5.4 19.8 2.3 27.3.5 2.2-.5 4.4-1.2 5.2-3l.5-.6c5.1-8.9 11.6-17 17.7-25.3 2.9-4 5.8-7.9 8.9-11.7 1-1.2 2.6-3.6 4.6-3.8a2.5 2.5 0 0 1 1.4.2c.9.4 2.9 1 4.5 1.9z" transform="translate(-493.4 -10556.4)" fill="#f9e073"/><path d="M1023 10940.3a2 2 0 0 0 2.2 3 19.9 19.9 0 0 1-5.8 4l-.4-.8c-1-2.2-4.7-1.1-3.7 1.1l.6 1.3-.9.4c-4.2 2-7 .7-11-1.4a100.3 100.3 0 0 1-16.1-10.1c-9.8-7.7-18.4-17-24-28.2.8-1.5 1.4-2.9 2.1-4.5l.2.4a74 74 0 0 0 19.5 25.5 96.5 96.5 0 0 0 14.9 10.7c4.6 2.6 9.1 6.2 14.3 3.3 1.4-.8 6.2-2.8 7.6-4.8zM1020.6 10790.8h-.1a2.1 2.1 0 0 0 0 3.3h-2c-1.6-.9-3.6-1.5-4.5-1.9a2.5 2.5 0 0 0-1.4-.2v-.9a2.1 2.1 0 0 0 1.7-2.4v-.7a36.9 36.9 0 0 1 6.3 2.8z" transform="translate(-493.4 -10556.4)" fill="#262016"/><path d="M1022.9 10938.9a1.9 1.9 0 0 1-.4 1.2c-1.4 2-6.3 4.1-7.6 4.8-5.2 2.9-9.6-.7-14.3-3.3a96.5 96.5 0 0 1-14.9-10.7 74 74 0 0 1-19.5-25.5l-.2-.4.5-1.3c.9-2.3-2.5-4.2-3.4-1.8l-1.5 3.5a78.7 78.7 0 0 1-15.1 21.5 94.7 94.7 0 0 1-12.4 10.6c-3.4 2.5-11.3 9.2-15.6 7.3-1.9-.8-3.8-1.8-5.6-2.8a8.8 8.8 0 0 1-3.4-2.5c-1.1-1.4-1.1-3.2-.9-5.9a165 165 0 0 1 2.6-20.3c2.3-11.7 8-22.1 14-32.3 19.9 8 43.3 13.8 64 8.8 5.2-1.3 9.9-3.8 15-5.3 5.7 8.7 10.7 17.3 13.8 27.3a117.7 117.7 0 0 1 3.6 17.7c.5 3.2.9 6.3 1.3 9.4z" transform="translate(-493.4 -10556.4)" fill="#e2c76f"/><path d="M1017 10773.5c.9 1.2.8 2.8.4 4.4-1.2-.5-1.5-.9-2.7-1.4a9.8 9.8 0 0 1 2.3-3z" transform="translate(-493.4 -10556.4)" fill="#262016"/><path d="M1017.5 10777.9h.1l-.2.4c-1 2-2.8.4-2.6-1.9 1.1.6 1.5 1.1 2.7 1.5z" transform="translate(-493.4 -10556.4)" fill="#262016"/><path d="M1016.2 10772.6l.9.9a9.8 9.8 0 0 0-2.3 3c.1-.9-1.3-1-1.3.8v1.6a44.4 44.4 0 0 0 .3 4.9c.1 1.5.3 3 .5 4.4l-1.7-.5a3.2 3.2 0 0 0-2.2.4c-.9-5-1.6-11.2 1.9-15.1a3.1 3.1 0 0 1 3.9-.4zM1019 10946.5l.4.8-3.5 1.6-.6-1.3c-1-2.3 2.7-3.4 3.7-1.1z" transform="translate(-493.4 -10556.4)" fill="#262016"/><path d="M1014.3 10788.8a2.1 2.1 0 0 1-1.7 2.4 1.6 1.6 0 0 1-2-1.3l-.3-1.9a3.2 3.2 0 0 1 2.2-.4l1.7.5v.7z" transform="translate(-493.4 -10556.4)" fill="#262016"/><path d="M1012.7 10791.2v.9c-2 .2-3.6 2.6-4.6 3.8-3.2 3.8-6.1 7.7-8.9 11.7-6 8.3-12.5 16.5-17.7 25.3l-.5.6a4 4 0 0 0 .3-1.7 2.3 2.3 0 0 0-2.3-2.2l1.7-2.9c7.8-4.7 12.8-12.5 14.9-21.4l6.9-8.8c1.4-1.7 4.6-7 7.7-8.6l.3 1.9a1.6 1.6 0 0 0 2.2 1.4zM1010.3 10879a4.2 4.2 0 0 1-2.4 4.3l-.5-.8c-1.4-2.1-4.6 0-3.3 2h.1c-5.1 1.6-9.8 4-15 5.3-20.7 5.1-44.2-.8-64-8.8l.4-.6a1.8 1.8 0 0 0-.7-2.5l.4-1c16.7 6.9 36.7 12.6 54.4 10.7a60.5 60.5 0 0 0 17.1-4.5c4.5-1.9 11-2.2 8.8-9.1a196.4 196.4 0 0 0-9.8-25.7 2 2 0 0 1-.2-.9c.1 1.5 2 2.7 3.2 1.2l.8-1c2.4 5.3 4.2 10.7 6.3 16.1s3.9 9.9 4.4 15.3z" transform="translate(-493.4 -10556.4)" fill="#262016"/><path d="M1007.4 10882.5l.5.8a9.7 9.7 0 0 1-2.3.9l-1.4.4h-.1c-1.3-2.2 2-4.2 3.3-2.1zM998.8 10760.8c7.4 10.7 6.2 23.8-2 33.5a40 40 0 0 0-.6-5.6 22.7 22.7 0 0 0-7-31.6 49.4 49.4 0 0 0-30.3-7.8c-10.7.7-23.8 2.9-30.7 12.2s-6.6 18.8-2.7 28.1a56.1 56.1 0 0 0-.1 7.9l-.2-.3c-7-11.1-9.1-25.7-.9-36.9s24.5-15.3 38.3-14.9 28.5 4.3 36.2 15.4zM999 10846.4l.6 1.3-.8 1c-1.2 1.5-3.1.3-3.2-1.2s2.5-3 3.4-1.1z" transform="translate(-493.4 -10556.4)" fill="#262016"/><path d="M996.7 10794.3a40.6 40.6 0 0 1-1 11.1l-3.5 4.7a1.7 1.7 0 0 0-1.4-.7l.2-.7a41.2 41.2 0 0 0 2-13.2 1.8 1.8 0 0 0 1-.4 1.7 1.7 0 0 0 2.4-.3z" transform="translate(-493.4 -10556.4)" fill="#262016"/><path d="M996.7 10794.3l-.4.5a1.7 1.7 0 0 1-2.4.3 2 2 0 0 0-.2-3.3 23.1 23.1 0 0 0 2.3-3.2 40 40 0 0 1 .7 5.7z" transform="translate(-493.4 -10556.4)" fill="#262016"/><path d="M989.2 10757.1a22.7 22.7 0 0 1 7 31.6 41.7 41.7 0 0 0-2.1-7.6l-1.1-2.5c-.6-1.4-2.1-1.1-2.9-.2-8-4.2-17.9-5.4-26.7-5.7-10.9-.4-24 1.6-33.7 7a1.8 1.8 0 0 0-2.9 1.1 80.3 80.3 0 0 0-1.2 8.8c-3.9-9.3-3.7-19.5 2.7-28.1s20-11.5 30.7-12.2a49.4 49.4 0 0 1 30.2 7.8z" transform="translate(-493.4 -10556.4)" fill="#665930"/><path d="M994 10781.1a41.7 41.7 0 0 1 2.1 7.6 23.1 23.1 0 0 1-2.3 3.2l-1-.2h-.1a35.5 35.5 0 0 0-2-8.4l.5.3c1.7 1.1 3.2-.9 2.6-2.4h.2zM994 10781.1h-.1a2 2 0 0 0-.8-.9l-3.1-1.8c.8-.9 2.3-1.2 2.9.2z" transform="translate(-493.4 -10556.4)" fill="#262016"/><path d="M993.9 10781.2c.6 1.5-.9 3.6-2.6 2.4l-.5-.3c-.3-.9-.7-1.8-1.1-2.7a2 2 0 0 1 .3-2.2l3.1 1.8a2 2 0 0 1 .8 1zM993.8 10791.8a2 2 0 0 1 .2 3.3 1.9 1.9 0 0 1-.4-2.9z" transform="translate(-493.4 -10556.4)" fill="#262016"/><path d="M993.8 10791.8l-.3.3a1.9 1.9 0 0 0 .4 2.9 1.8 1.8 0 0 1-1 .4 38.2 38.2 0 0 0-.3-3.8h.1z" transform="translate(-493.4 -10556.4)" fill="#262016"/><path d="M992.8 10791.7a38.2 38.2 0 0 1 .3 3.8h-.1c-3.2.2-6.9 2.3-7.7 5.7s.9 8.3 5.4 8.2h.2a24.1 24.1 0 0 1-1.6 3.7 9.4 9.4 0 0 1-6.4-4 9.8 9.8 0 0 1-1.7-6.7 12.2 12.2 0 0 1 11.6-10.7z" transform="translate(-493.4 -10556.4)" fill="#262016"/><path d="M992.9 10795.5h.1a41.2 41.2 0 0 1-2 13.2l-.2.7h-.2c-4.6.1-6.4-4.2-5.4-8.2s4.5-5.5 7.7-5.7z" transform="translate(-493.4 -10556.4)" fill="#dd553a"/><path d="M992.2 10810.1l3.5-4.7c-2.1 8.9-7.2 16.7-14.9 21.4 2.8-4.6 5.9-9.1 9.1-13.6h.8a1.9 1.9 0 0 0 1.5-3.1z" transform="translate(-493.4 -10556.4)" fill="#262016"/><path d="M992.2 10810.1a1.9 1.9 0 0 1-1.4 3.1h-.8zM992.2 10810.1l-2.3 3.1h-.7a24.1 24.1 0 0 0 1.6-3.7 1.7 1.7 0 0 1 1.4.6z" transform="translate(-493.4 -10556.4)" fill="#262016"/><path d="M990.8 10783.3a35.5 35.5 0 0 1 2 8.4 12.2 12.2 0 0 0-11.6 10.7 9.8 9.8 0 0 0 1.7 6.7l-3.6 1.2c-1.4-2.9-5.6-4.4-9.3-3.8-2.1.3-4.1 1.5-6 2.2s-6.5-.6-9-.6-6.8 1.1-8.6 4.2l-.2.3-3.6-.9a10.1 10.1 0 0 0 1.2-7.5c-1.8-6.5-8.3-9.6-14.5-7.4a64.6 64.6 0 0 1 1-12.9c9-5.6 20.8-7.1 31.2-7.4s21 1.5 29.3 6.8zm-11.6 5.5c2.2 1.1 4.1-2.2 1.9-3.4s-7.9-1.9-10.5 1 1.1 4.5 2.8 2.7 4.2-1.2 5.8-.3zm-13.6 12.9c1.7-1.8-1.1-4.4-2.8-2.6s-3.4 2.6-2.9.4a14.4 14.4 0 0 1 1.2-2.7 8.2 8.2 0 0 0 .6-2.7 1.9 1.9 0 0 0-2-1.9 2 2 0 0 0-1.9 2c-.2 1.7-1.5 3.2-1.9 4.9a4.6 4.6 0 0 0 1.2 4.2c2.8 2.2 6.3.6 8.5-1.7zm-17-12c2.2 1.1 4.1-2.2 1.9-3.4a9.4 9.4 0 0 0-11 1.5c-1.8 1.7 1 4.3 2.8 2.6a5.4 5.4 0 0 1 6.3-.8z" transform="translate(-493.4 -10556.4)" fill="#ffd6bb"/><path d="M989.7 10780.6c.4.9.8 1.8 1.1 2.7-8.2-5.3-19.9-7-29.5-6.7s-22.2 1.8-31.2 7.4l.4-2.2a1.8 1.8 0 0 0-.8-2c9.7-5.5 22.8-7.4 33.7-7 8.8.3 18.6 1.5 26.7 5.7a2 2 0 0 0-.4 2.1zM989.9 10813.2c-3.2 4.4-6.3 9-9.1 13.6l-2 1.1c-.4-2.3-4.1-2.2-3.8.3l.2 1.3a33.6 33.6 0 0 1-9.8 1.9 46.5 46.5 0 0 1-12.1-1v-.9c0-2.4-3.6-2.4-3.8-.2l-2.6-.9a129.1 129.1 0 0 0-11.7-11l1.6-.5a35 35 0 0 0 28.5 10.6c10-1 19.3-5.7 24-14.4h.7z" transform="translate(-493.4 -10556.4)" fill="#262016"/><path d="M982.8 10809.1a9.4 9.4 0 0 0 6.4 4c-4.7 8.7-14 13.4-24 14.4a35 35 0 0 1-28.5-10.6 12 12 0 0 0 5.7-5.2l3.6.9c-2.8 5.6 6.6 9.2 10.5 10.1h.9c7 .7 16.2-.5 20.6-6.5 1.7-2.3 1.9-4.4 1.1-6z" transform="translate(-493.4 -10556.4)" fill="#ffd6bb"/><path d="M981.1 10785.4c2.2 1.1.4 4.5-1.9 3.4s-4.4-1.3-5.8.2-4.5-.8-2.8-2.7 7.3-2.5 10.5-.9zM981.4 10831.8a4 4 0 0 1-.3 1.7 1.7 1.7 0 0 1-1.5.3 1.1 1.1 0 0 0 0-.3l-.5-4a2.3 2.3 0 0 1 2.3 2.3z" transform="translate(-493.4 -10556.4)" fill="#262016"/><path d="M979.5 10833.9a1.7 1.7 0 0 0 1.5-.3c-.8 1.9-2.9 2.5-5.2 3-7.5 1.8-20.5 4.9-27.3-.5a2.1 2.1 0 0 0 1.7.1 1.8 1.8 0 0 0 1.3.5 1.9 1.9 0 0 0 1.9-2v-.4c3.4 1.2 8.5.7 11.6.3a55.4 55.4 0 0 0 7.7-1.2 7.8 7.8 0 0 1 2.9-.5v.8c.4 2.4 3.9 2.4 3.9.2zM979.2 10810.3c.8 1.6.6 3.7-1.1 6-4.5 6-13.7 7.2-20.6 6.5 2.1-.1 2.7-3.3.4-3.8 4.4.5 10.8-.1 14.7-2.7s1.9-7.7-3.1-5.8a25.3 25.3 0 0 1-4.6 1.7c-4.1.7-8-.7-12.2-.2-5.7.6-2 4.6.5 5.6a25.6 25.6 0 0 0 4.5 1.3c-2.3-.3-3.3 3-1.3 3.6-3.9-.9-13.3-4.5-10.5-10.1l.2-.3c1.8-3.2 5-4.3 8.6-4.2s6.8 1.4 9 .6 4-1.8 6-2.2c3.9-.4 8.1 1.2 9.5 4z" transform="translate(-493.4 -10556.4)" fill="#262016"/><path d="M979.5 10833.6a1.1 1.1 0 0 1 0 .3 2.1 2.1 0 0 1-1-.5 1.7 1.7 0 0 1-.4-2.3l.9-1.5z" transform="translate(-493.4 -10556.4)" fill="#262016"/><path d="M978.9 10828l.2 1.6a3.8 3.8 0 0 0-1.6.1 1.9 1.9 0 0 0-.7 3.2h-1.1l-.4-3.5a29.2 29.2 0 0 0 3.7-1.6v.2z" transform="translate(-493.4 -10556.4)" fill="#262016"/><path d="M979.1 10829.6l-.9 1.5a1.7 1.7 0 0 0 .4 2.3l-1.9-.5a1.9 1.9 0 0 1 .7-3.2 3.8 3.8 0 0 1 1.7-.1z" transform="translate(-493.4 -10556.4)" fill="#262016"/><path d="M978.6 10833.4a2.1 2.1 0 0 0 1 .5c0 2.2-3.6 2.1-3.9-.2v-.8h1.1a1.7 1.7 0 0 0 1.8.5z" transform="translate(-493.4 -10556.4)" fill="#262016"/><path d="M978.6 10833.4a1.7 1.7 0 0 1-1.9-.5zM975 10828.1c-.3-2.4 3.4-2.5 3.8-.3a29.2 29.2 0 0 1-3.7 1.6z" transform="translate(-493.4 -10556.4)" fill="#262016"/><path d="M975.2 10829.4l.4 3.5a7.8 7.8 0 0 0-2.9.5 55.4 55.4 0 0 1-7.7 1.2c-3.1.3-8.2.8-11.6-.3-.2-1.3-.2-2.6-.3-4a46.5 46.5 0 0 0 12.1 1 33.6 33.6 0 0 0 10-1.9z" transform="translate(-493.4 -10556.4)" fill="#ffd6bb"/><path d="M969.6 10810.6c5-1.9 8.3 2.4 3.1 5.8s-10.3 3.2-14.7 2.7a25.6 25.6 0 0 1-4.5-1.3c-2.5-1-6.2-5-.5-5.6 4.2-.5 8 1 12.2.2a25.3 25.3 0 0 0 4.4-1.8z" transform="translate(-493.4 -10556.4)" fill="#f48f7d"/><path d="M962.8 10799c1.7-1.8 4.5.9 2.8 2.6s-5.7 3.8-8.4 1.5a4.6 4.6 0 0 1-1.2-4.2c.4-1.7 1.7-3.2 1.9-4.9a2 2 0 0 1 1.9-2 1.9 1.9 0 0 1 2 1.9 8.2 8.2 0 0 1-.6 2.7 14.4 14.4 0 0 0-1.2 2.7c-.6 2.3 2.1.4 2.8-.3zM963.1 10902c.9-2.3 4.3-.4 3.4 1.8l-.5 1.3c-.9-1.1-2.5-.5-3.1.8l-1.3-.4z" transform="translate(-493.4 -10556.4)" fill="#262016"/><path d="M962.9 10905.9c.5-1.2 2.2-1.9 3.1-.8s-1.3 3-2.1 4.5l-1-2a2 2 0 0 1 0-1.7z" transform="translate(-493.4 -10556.4)" fill="#262016"/><path d="M963 10907.6l1 2c-5.3 10.6-13.3 19.5-22.4 27.1a89.7 89.7 0 0 1-15.7 10.6c-3.9 2-6 2.2-9.4.8a2 2 0 0 0-3.3-1.9l-.3.3c-2.5-1-5.8-2.3-7.4-4.3l1.2.6c2 .9 3.7-1.6 2.5-2.9l.4-.3a8.8 8.8 0 0 0 3.4 2.5c1.9.9 3.7 1.9 5.6 2.8 4.3 1.9 12.2-4.8 15.6-7.3a94.7 94.7 0 0 0 12.4-10.6 78.7 78.7 0 0 0 15.1-21.5l1.3.4a2 2 0 0 0 0 1.7zM957.9 10819.1c2.3.5 1.6 3.7-.4 3.8h-.9c-1.9-.8-1-4.1 1.3-3.8z" transform="translate(-493.4 -10556.4)" fill="#262016"/><path d="M957 10822.8zM956.6 10822.7z" transform="translate(-493.4 -10556.4)"/><path d="M953.5 10834.7a1.9 1.9 0 0 1-1.9 2 1.8 1.8 0 0 1-1.3-.5 2 2 0 0 0 1.2-1.1 1.7 1.7 0 0 0 1.1-1.2l.9.3v.4z" transform="translate(-493.4 -10556.4)" fill="#262016"/><path d="M953.2 10830.3c0 1.3.1 2.7.3 4l-.9-.3a2 2 0 0 0-2.5-2.5l-.5.2-.3-.3c0-.6-.1-1.2-.1-1.7a1.6 1.6 0 0 1 0-.3z" transform="translate(-493.4 -10556.4)" fill="#262016"/><path d="M953.2 10829.5v.9l-3.8-1c.2-2.3 3.8-2.3 3.8.1zM950.2 10831.5a2 2 0 0 1 2.5 2.5 5 5 0 0 1-1.6-1.2v.5l-1.3-1.6zM950.5 10786.3c2.2 1.1.4 4.5-1.9 3.4a5.4 5.4 0 0 0-6.3.7c-1.8 1.7-4.6-1-2.8-2.6a9.4 9.4 0 0 1 11-1.5z" transform="translate(-493.4 -10556.4)" fill="#262016"/><path d="M952.6 10834a1.7 1.7 0 0 1-1.1 1.2 1.5 1.5 0 0 0-.3-1.6l-.2-.2v-.5a5 5 0 0 0 1.6 1.1z" transform="translate(-493.4 -10556.4)" fill="#262016"/><path d="M951.2 10833.5a1.5 1.5 0 0 1 .3 1.6h-.1a.7.7 0 0 0-.4.3v-2.2z" transform="translate(-493.4 -10556.4)" fill="#262016"/><path d="M951.1 10835.5a.7.7 0 0 1 .4-.3h.1a2 2 0 0 1-1.2 1.1 2.2 2.2 0 0 1-.7-1.4l-.3-3h.3l1.3 1.6v2.2z" transform="translate(-493.4 -10556.4)" fill="#262016"/><path d="M950.4 10836.2a2.1 2.1 0 0 1-1.7-.1l-.6-.5-.3-.3a2 2 0 0 1 .2-2.4 4.4 4.4 0 0 1 1.5-1.1c.1 1 .1 2 .3 3a2.2 2.2 0 0 0 .6 1.4zM949.4 10831.3l.3.3h-.3v-.4z" transform="translate(-493.4 -10556.4)" fill="#262016"/><path d="M949.4 10831.3v.4a4.4 4.4 0 0 0-1.5 1.1 2 2 0 0 0-.2 2.4c-7.6-9.5-17.4-16.8-26.7-24.4-3.1-2.5-8.8-9.7-13.1-9.3v-1.3a1.6 1.6 0 0 0 1.7-1.9c-.1-.7-.2-1.5-.3-2.4 2.1.5 3.5 2.7 5 4s5.1 4.6 7.8 6.8l7.1 5.7a34 34 0 0 0 3 4.9 32.4 32.4 0 0 0 14.7 11zM948 10835.6l.6.5-.6-.5-.2-.3zM943.6 10804.2a10.1 10.1 0 0 1-1.2 7.5 12 12 0 0 1-5.7 5.2 30.8 30.8 0 0 1-2.5-3v-.2c3.8-.6 7-5.7 5.5-9.3s-5.9-5.3-9.8-3.8h-.5c-.2-1.3-.3-2.6-.3-3.9 6.2-2 12.7 1 14.5 7.5z" transform="translate(-493.4 -10556.4)" fill="#262016"/><path d="M939.7 10804.4c1.5 3.6-1.7 8.8-5.5 9.3a28.3 28.3 0 0 1-4.8-13h.5c3.9-1.6 8.1-.5 9.8 3.7z" transform="translate(-493.4 -10556.4)" fill="#dd553a"/><path d="M935.1 10817.5a129.1 129.1 0 0 1 11.7 11 32.4 32.4 0 0 1-14.7-11 34 34 0 0 1-3-4.9l2.8 2.3a1.9 1.9 0 0 0 1.7 2.9zM936.8 10816.9l-1.6.5-3.2-2.7a1.7 1.7 0 0 1 1.6-1h.6v.2a30.8 30.8 0 0 0 2.6 3z" transform="translate(-493.4 -10556.4)" fill="#262016"/><path d="M934.2 10813.7h-.6a1.7 1.7 0 0 0-1.6 1l-2.8-2.3a38.9 38.9 0 0 1-3.7-15 1.8 1.8 0 0 0 2.3.3c-.7 1.2.1 3.1 1.7 2.9a28.3 28.3 0 0 0 4.7 13.1zM935.1 10817.5l-1.5.2a1.9 1.9 0 0 1-1.7-2.9zM929.7 10779.8a1.8 1.8 0 0 1 .8 2l-.4 2.2h-.1c-2.1 1.3-4.1-1.9-2-3.3l1.6-1z" transform="translate(-493.4 -10556.4)" fill="#262016"/><path d="M930 10784h.1a64.6 64.6 0 0 0-1 12.9h-.6a1.7 1.7 0 0 0-.1-1.9 37.8 37.8 0 0 1-2.9-5.6 80.3 80.3 0 0 1 1.2-8.8 1.8 1.8 0 0 1 2.9-1.1l-1.6 1c-2.1 1.6-.1 4.8 2 3.5zM929.4 10800.7c-1.5.2-2.4-1.7-1.7-2.9a2.1 2.1 0 0 0 .8-.8h.6c0 1.1.1 2.4.3 3.7zM930.2 10849.1c1 3.7.2 6.8-1.5 10.2-2.5 5.3-5.1 10.7-7.1 16.2l-1.5-.6.9 2.2.5-1.5 3.6 1.5-.4 1a1.9 1.9 0 0 0-2.7.7l-.6 1-3.3-1.4a1.9 1.9 0 0 1-.9-2.1c2.2-6.4 5.2-12.5 8-18.7 3.9-8.8-6.6-15.2-11-21.6s-8.5-14.1-12.7-21.1c-1.5-2.5-5.2-6.9-3.3-10.2l1 .4a2 2 0 0 0 2.3-.5h2.1c-1.4 1.6-1.7 3.1 0 5.9l5.2 8.7c3.9 6.6 7.4 13.5 12.6 19.2 2.6 3 7.7 6.8 8.8 10.7z" transform="translate(-493.4 -10556.4)" fill="#262016"/><path d="M928.5 10795.2a1.7 1.7 0 0 1 .1 1.9 1.8 1.8 0 0 0-.8.8 1.8 1.8 0 0 1-2.3-.3 56.1 56.1 0 0 1 .1-7.9 37.8 37.8 0 0 0 2.9 5.5z" transform="translate(-493.4 -10556.4)" fill="#262016"/><path d="M928.5 10797.1a2.1 2.1 0 0 1-.8.8 1.8 1.8 0 0 1 .8-.8zM924.9 10878a1.8 1.8 0 0 1 .7 2.5l-.4.6-3.6-1.5.6-1a1.9 1.9 0 0 1 2.7-.6zM921.6 10879.7l3.6 1.5c-6 10.2-11.7 20.6-14 32.3a165 165 0 0 0-2.6 20.3c-.2 2.7-.2 4.5.9 5.9l-.4.3-.6-.4-4-2a146.3 146.3 0 0 1 1.8-18.1c2.3-14.8 8-27.1 15.3-39.8zM921.7 10875.6l-.5 1.5-.9-2.2zM913.2 10946.2a2 2 0 0 1 3.3 1.9l-1.6-.8-2-.8z" transform="translate(-493.4 -10556.4)" fill="#262016"/><path d="M916.5 10948.1a1.7 1.7 0 0 1-.5.7c-2.2 2.1-2.6 4.9-5.1 6.8s-5.1.9-7.2.3c-6.2-1.7-15.3-8-19.1-13.3-2.4-3.3-3.3-9.9 2.4-10.6s12.1 2.5 17.7 5.4q0 1.1-.1 2.2a3.9 3.9 0 0 0 1 2.6c-3.6-1.7-7.1-3.4-10.7-4.9s-4.8-2.1-7.2-1.6-1.6 2.5-.8 3.7a24.1 24.1 0 0 0 4.8 4.8 60.1 60.1 0 0 0 11.7 7.5c5.9 2.7 6.5-2 9.6-5.1l2 .8zM909.5 10798.5a1.6 1.6 0 0 1-1.7 1.9 2.1 2.1 0 0 1-2.2-1.8l-.2-1.3c1.3-1 2.7-1.5 3.7-1.3s.3 1.8.4 2.5z" transform="translate(-493.4 -10556.4)" fill="#262016"/><path d="M909.3 10796c-1.1-.3-2.4.3-3.7 1.3-.3-2.2-.6-4.4-1.1-6.5s-.4-1.6-.6-2.4a17.3 17.3 0 0 0-.6-2.4c-.1-.3-.6-1.4-1.2-1.3l-.4.3-.2-.2a11 11 0 0 0-2.7-2 4.1 4.1 0 0 1 5.7-.9c3.6 2.4 4.3 9.3 4.8 14.1zM907.9 10800.4v1.3a3.4 3.4 0 0 0-2 .9 27.8 27.8 0 0 0-2.3 2.2h-2.1a1.7 1.7 0 0 0-.5-2.9 32.1 32.1 0 0 1 4.6-4.3l.2 1.3a2.1 2.1 0 0 0 2.1 1.5zM909.2 10939.9c1.2 1.3-.5 3.8-2.5 2.9l-1.2-.6a3.9 3.9 0 0 1-1-2.6q0-1.1.1-2.2l4 2z" transform="translate(-493.4 -10556.4)" fill="#262016"/><path d="M904.4 10790.8c.5 2.1.8 4.3 1.1 6.5a32.1 32.1 0 0 0-4.6 4.3c-4.1-1.8-11.7-4.6-13.5-8.9-1-2.4.4-5.3 2.4-6.8s5.7-.9 8 .8l.9.8a1.6 1.6 0 0 0 2 .2 1.8 1.8 0 0 0 .6-1.4 2.2 2.2 0 0 1 .3-1.4l.4-.3c.6-.2 1.1.9 1.2 1.3a17.3 17.3 0 0 1 .6 2.4q.4 1.3.6 2.5z" transform="translate(-493.4 -10556.4)" fill="#ffd6bb"/><path d="M912.9 10946.5c-3.1 3.2-3.7 7.8-9.6 5.1a60.1 60.1 0 0 1-11.7-7.5 24.1 24.1 0 0 1-4.8-4.8c-.9-1.2-1.1-3.3.8-3.7s5 .8 7.2 1.6 7.2 3.2 10.7 4.9c1.6 2.1 4.9 3.4 7.4 4.4z" transform="translate(-493.4 -10556.4)" fill="#af9a5d"/><path d="M901.3 10784.7l.2.2a2.2 2.2 0 0 0-.3 1.4 1.8 1.8 0 0 1-.6 1.4 1.6 1.6 0 0 1-2-.2l-.9-.8h.4zM901.2 10801.7a1.7 1.7 0 0 1 .5 2.9 2 2 0 0 1-2.3.5l-1-.4.6-.9 2-2.2h.2z" transform="translate(-493.4 -10556.4)" fill="#262016"/><path d="M901.3 10784.7l-3.2 2a4.2 4.2 0 0 1 .4-3.9 11 11 0 0 1 2.8 1.9z" transform="translate(-493.4 -10556.4)" fill="#262016"/><path d="M901 10801.6l-2 2.2-.6.9c-7.1-3.1-17.1-7.6-14.5-16.8 1.9-6.7 9.4-7.8 14.7-5a4.2 4.2 0 0 0-.4 3.9h-.4c-2.2-1.7-5.5-2.6-8-.8s-3.4 4.3-2.4 6.8c1.9 4.2 9.5 7 13.6 8.8zM710.6 10934.5c4.8 2.7 1 9.1-1.3 12.4-3.7 5.6-10.5 9.4-17 10.7s-8.2-2-10.3-6.7l3.5-1.5c4.7 9.2 17.6.8 21.3-5.8.3-.5 3.8-7.2-.4-5.6a34.4 34.4 0 0 0-5 2.3l-9.6 5.1-.4.2a6.6 6.6 0 0 0 1.6-2.7 7.8 7.8 0 0 0 .2-2.6l9.9-5.2c2.1-.9 5.4-1.8 7.5-.6z" transform="translate(-493.4 -10556.4)" fill="#262016"/><path d="M706.5 10938c4.2-1.6.7 5.1.4 5.6-3.7 6.6-16.6 14.9-21.3 5.8a19.9 19.9 0 0 0 5.9-3.8l.4-.2 9.6-5.1a34.4 34.4 0 0 1 5-2.3z" transform="translate(-493.4 -10556.4)" fill="#af9a5d"/><path d="M700.8 10777.8c4.3 7.2-.7 13.2-6.4 17.5a28.9 28.9 0 0 0-3.4-2.2c3.4-2.3 9-6.3 7.5-11.1s-6.7-5.8-10.2-1.7h-.1c.5-1.9.6-3.6-.8-5a9.2 9.2 0 0 1 13.4 2.5z" transform="translate(-493.4 -10556.4)" fill="#262016"/><path d="M698.5 10781.9c1.5 4.9-4.1 8.8-7.5 11.1a36.9 36.9 0 0 0-6.3-2.9 49.2 49.2 0 0 1-.5-5.8c0-.8 0-1.7.1-2.5l.2-1.7a2.7 2.7 0 0 1 .6-1.3.5.5 0 0 1 .7-.2l.2.2a4.3 4.3 0 0 1 .2.8 2.1 2.1 0 0 0 .7 1.4c.4.2.9-.4 1.1-.6l.3-.4c3.5-3.9 8.6-3 10.2 1.9z" transform="translate(-493.4 -10556.4)" fill="#ffd6bb"/><path d="M695.1 10795.8c2.6 2.1-1.6 12.3-2.3 14.7a56.5 56.5 0 0 1-5.9 14.2c-5.3 8.8-11.8 16.8-18.5 24.6l-.6-1.3c-.9-1.9-3.5-.7-3.5 1.1a1.9 1.9 0 0 1 .5-1.4c5.9-6.9 11.9-13.9 16.8-21.6s7.7-16.6 9.7-26.1c.3-1.5-.9-2.7-2.5-3.6h2a1.6 1.6 0 0 0 2 0l1.6-1.1zM693.4 10940.3a7.8 7.8 0 0 1-.2 2.6 6.6 6.6 0 0 1-1.6 2.7 2 2 0 0 1-2.1-3l.6-.5z" transform="translate(-493.4 -10556.4)" fill="#262016"/><path d="M694.4 10795.3l-1.6 1.1a1.6 1.6 0 0 1-2 0 2.1 2.1 0 0 1 .1-3.3h.1a28.9 28.9 0 0 1 3.4 2.2zM693.4 10940.3l-3.3 1.8-.6.5-.5-.2a1.8 1.8 0 0 0 .4-1.2c-.3-3.1-.6-6.2-1-9.3a117.7 117.7 0 0 0-3.2-17.8c-2.8-10.1-7.6-18.9-13.1-27.7l1.4-.4a9.7 9.7 0 0 0 2.4-.9c7.6 12.3 13.2 24.8 15.3 39.3.5 3.2.9 6.5 1.3 9.8.1 1.7.7 4 .9 6.1z" transform="translate(-493.4 -10556.4)" fill="#262016"/><path d="M688.9 10796.4c1.6.9 2.8 2.1 2.5 3.6-2 9.4-4.5 17.9-9.7 26.1s-10.8 14.7-16.8 21.6a2.3 2.3 0 0 0-.3 2.3 194.6 194.6 0 0 1 9.1 25.9c2 7-4.5 7.1-9.1 8.9a60.5 60.5 0 0 1-17.2 4.1c-17.7 1.5-37.6-4.8-54.1-12.1l-3.5-1.6c2.1-5.5 4.9-10.8 7.5-16 1.7-3.4 2.6-6.4 1.7-10.2s-6-7.9-8.5-10.8c-5-5.9-8.3-12.9-12.1-19.6l-4.9-8.8c-1.6-2.8-1.2-4.4.2-5.9a27.8 27.8 0 0 1 2.3-2.1 3.4 3.4 0 0 1 2-.8c4.3-.4 9.8 7 12.8 9.6 9.3 8 18.9 15.5 26.3 25.4l.6.6c6.6 5.6 19.7 2.8 27.3 1.2 2.2-.5 4.4-1.1 5.2-2.9l.5-.6c5.4-8.8 12.1-16.7 18.3-24.9 3-3.9 6-7.8 9.3-11.5 1-1.2 2.7-3.6 4.7-3.7a2.5 2.5 0 0 1 1.4.3c.9.4 2.9 1 4.5 1.9z" transform="translate(-493.4 -10556.4)" fill="#f9e073"/><path d="M689.4 10942.6a2 2 0 0 0 2.1 3 19.9 19.9 0 0 1-5.9 3.8l-.4-.8c-.9-2.3-4.7-1.3-3.7 1l.6 1.3-.9.4c-4.2 1.9-7 .5-11-1.6a100.3 100.3 0 0 1-15.8-10.6c-9.6-8-18-17.4-23.3-28.8.8-1.4 1.5-2.9 2.2-4.4l.2.4a73.8 73.8 0 0 0 18.8 26 97.2 97.2 0 0 0 14.6 11.1c4.6 2.8 8.9 6.5 14.2 3.7 1.4-.7 6.3-2.7 7.8-4.7zM691 10793.1h-.1a2.1 2.1 0 0 0-.1 3.3h-2c-1.6-.9-3.5-1.6-4.4-2a2.5 2.5 0 0 0-1.4-.3v-.9a2.1 2.1 0 0 0 1.8-2.4v-.7a36.9 36.9 0 0 1 6.2 3z" transform="translate(-493.4 -10556.4)" fill="#262016"/><path d="M689.3 10941.2a1.8 1.8 0 0 1-.4 1.2c-1.5 2-6.4 3.9-7.8 4.7-5.3 2.8-9.6-.9-14.2-3.7a97.2 97.2 0 0 1-14.6-11.1 73.8 73.8 0 0 1-18.8-26l-.2-.4.6-1.3c.9-2.3-2.4-4.2-3.3-1.9l-1.6 3.5a78.6 78.6 0 0 1-15.7 21.1 95.7 95.7 0 0 1-12.7 10.3c-3.5 2.4-11.5 8.9-15.8 6.9-1.9-.9-3.7-1.9-5.6-2.9a8.8 8.8 0 0 1-3.3-2.6c-1-1.5-1-3.2-.7-6a167.5 167.5 0 0 1 3.1-20.2c2.6-11.6 8.6-21.9 14.8-31.9 19.7 8.5 42.9 15 63.8 10.5 5.2-1.1 10-3.5 15.1-4.9 5.5 8.8 10.2 17.6 13.1 27.7a117.7 117.7 0 0 1 3.2 17.8c.4 3 .7 6.1 1 9.2z" transform="translate(-493.4 -10556.4)" fill="#e2c76f"/><path d="M687.3 10775.1c1.4 1.4 1.3 3.1.8 5a13.8 13.8 0 0 1-2.2-1.5l-1-.6a8.9 8.9 0 0 1 2.4-2.9z" transform="translate(-493.4 -10556.4)" fill="#262016"/><path d="M688.3 10780.2l-.3.4c-.2.3-.7.9-1.1.6a2.1 2.1 0 0 1-.7-1.4 4.3 4.3 0 0 0-.2-.8l-.2-.2v-.2a13.8 13.8 0 0 0 2.2 1.5h.1z" transform="translate(-493.4 -10556.4)" fill="#262016"/><path d="M687 10774.8l.4.3a8.9 8.9 0 0 0-2.5 2.9l1 .6v.2a.5.5 0 0 0-.7.2 2.7 2.7 0 0 0-.6 1.3l-.2 1.7c-.1.8-.1 1.7-.1 2.5a49.2 49.2 0 0 0 .5 5.8l-1.7-.5a3.1 3.1 0 0 0-2.2.3v-.7c1.1-1.8 1.8-3.8 1.2-5.6a5.5 5.5 0 0 0-1.6-2.3 11 11 0 0 1 2.7-6.3 3.1 3.1 0 0 1 3.8-.4zM685.2 10948.6l.4.8-3.5 1.5-.6-1.3c-.9-2.3 2.8-3.2 3.7-1z" transform="translate(-493.4 -10556.4)" fill="#262016"/><path d="M684.7 10790.9a2.1 2.1 0 0 1-1.8 2.4 1.6 1.6 0 0 1-1.9-1.4l-.3-1.9a3.1 3.1 0 0 1 2.2-.3l1.7.5v.7z" transform="translate(-493.4 -10556.4)" fill="#262016"/><path d="M683 10793.2v.9c-2 .1-3.7 2.5-4.7 3.7-3.3 3.7-6.3 7.6-9.3 11.5-6.2 8.2-12.9 16.1-18.3 24.9l-.5.6a4 4 0 0 0 .4-1.7 2.3 2.3 0 0 0-2.2-2.3l1.8-2.8c7.9-4.5 13.2-12.2 15.5-21l5.6-6.8c2.4-1.5 4.1-3.9 6-6.3.7-.9 1.7-2.1 2.5-3.3l1-.6.3 1.9a1.6 1.6 0 0 0 1.9 1.3zM681.9 10783.6c.5 1.9-.2 3.8-1.2 5.6a31.5 31.5 0 0 1-.3-7.9 5.5 5.5 0 0 1 1.5 2.3z" transform="translate(-493.4 -10556.4)" fill="#262016"/><path d="M680.3 10781.3a31.5 31.5 0 0 0 .3 7.9l-.9 1.3c-2.8 2-5.7 6.3-6.9 7.8l-1.6 1.9a9.7 9.7 0 0 1-4.1 1.4h-.5a37 37 0 0 0 .3-3.8h.2c3.8-.4 8.1-7.2 9.8-10.3s-4.5-9.3-5.9-11.6c-7.1-11.6-17.2-23.2-31.5-25.2s-29 3.6-39.1 14.1c-7.2 7.5-10.6 18-18.3 25a9.2 9.2 0 0 1-.8-1.4l-.3 2.3-2 .3c-.1-1.1-.3-2.1-.5-3.1 6.4-5.3 8.9-13.2 14-19.6s10.1-11.4 16.7-15.1c13-7.4 30-9.7 43.4-1.9a55.7 55.7 0 0 1 17.1 15.7 107.9 107.9 0 0 1 6.6 10.4c.9 1.4 2.7 2.6 4 3.9zM678.3 10880.9a4.2 4.2 0 0 1-2.5 4.3l-.5-.8c-1.3-2.1-4.6-.2-3.3 1.9h.1c-5.1 1.4-9.9 3.8-15.1 4.9-20.9 4.5-44.1-1.9-63.8-10.5l.4-.6a1.8 1.8 0 0 0-.7-2.5l.4-1c16.5 7.3 36.4 13.6 54.1 12.1a60.5 60.5 0 0 0 17.2-4.1c4.6-1.8 11.1-1.9 9.1-8.9a194.6 194.6 0 0 0-9.1-25.9 1.9 1.9 0 0 1-.2-.9c.1 1.5 2 2.7 3.2 1.3l.9-1c2.3 5.3 3.9 10.8 5.9 16.2s3.6 10.1 3.9 15.5z" transform="translate(-493.4 -10556.4)" fill="#262016"/><path d="M679.8 10790.6c-.9 1.2-1.8 2.3-2.5 3.3-1.9 2.5-3.6 4.9-6 6.3l1.6-1.9c1.2-1.4 4.1-5.7 6.9-7.7z" transform="translate(-493.4 -10556.4)" fill="#262016"/><path d="M671.1 10775.9c1.4 2.3 7.3 9.2 5.9 11.6s-6 9.8-9.8 10.3h-.2a41.7 41.7 0 0 0-2.4-15.2l-1-2.5c-.6-1.4-2.2-1.2-3-.2a58.1 58.1 0 0 0-7.3-3.1 26.7 26.7 0 0 0-5.9-1.8c-3-.4-4.5-3.1-5.7-5.7l-.5-1.2a1.9 1.9 0 0 0-3.5-.5l-.8 1.1c-1.7 2.6-3.1 4.9-6.8 4.8a61 61 0 0 0-10.7.7c-6.7 1-13.2 2.1-19.2 5.3a1.8 1.8 0 0 0-2.9 1 63.3 63.3 0 0 0-1.5 20.3c-4.3-2.2-11-7.2-13.7-11.1 7.7-6.9 11.2-17.4 18.3-25 10-10.6 24.6-16.2 39.1-14.1s24.5 13.7 31.6 25.3z" transform="translate(-493.4 -10556.4)" fill="#665930"/><path d="M675.4 10884.4l.5.8a9.7 9.7 0 0 1-2.4.9l-1.4.4h-.1c-1.3-2.3 2.1-4.2 3.4-2.1zM667.9 10848l.6 1.3-.9 1c-1.2 1.4-3.1.2-3.2-1.3s2.6-2.9 3.5-1zM664.6 10782.7a41.7 41.7 0 0 1 2.4 15.2c-2.1.4-2.2 3.5-.3 3.8a39.7 39.7 0 0 1-1 5.4l-3.6 4.6a1.7 1.7 0 0 0-1.3-.7l.2-.7a41.2 41.2 0 0 0 2.3-13.2c2.4-.2 2.4-3.9-.1-3.8h-.1a35.5 35.5 0 0 0-1.8-8.4l.5.3c1.7 1.2 3.2-.8 2.7-2.4h.1z" transform="translate(-493.4 -10556.4)" fill="#262016"/><path d="M667 10797.8a37 37 0 0 1-.3 3.8c-1.9-.2-1.8-3.4.3-3.8zM664.6 10782.7h-.1a2 2 0 0 0-.7-1 27.3 27.3 0 0 0-3.1-1.9c.8-.9 2.3-1.2 3 .2z" transform="translate(-493.4 -10556.4)" fill="#262016"/><path d="M664.5 10782.7c.6 1.5-1 3.5-2.7 2.4l-.5-.3c-.3-.9-.6-1.8-1-2.7a2 2 0 0 1 .4-2.2 27.3 27.3 0 0 1 3.1 1.9 2 2 0 0 1 .7.9zM663.2 10793.2c2.5-.1 2.5 3.6.1 3.8a38.2 38.2 0 0 0-.2-3.8h.1z" transform="translate(-493.4 -10556.4)" fill="#262016"/><path d="M663.1 10793.2a38.2 38.2 0 0 1 .2 3.8h-.1c-3.2.1-6.9 2.1-7.8 5.5s.6 8.3 5.2 8.3h.2a23.7 23.7 0 0 1-1.7 3.7 9.5 9.5 0 0 1-7.2-5.8 9.6 9.6 0 0 1-.6-5.2 12.2 12.2 0 0 1 11.8-10.3z" transform="translate(-493.4 -10556.4)" fill="#262016"/><path d="M663.2 10797h.1a41.2 41.2 0 0 1-2.3 13.2l-.2.7h-.2c-4.6-.1-6.3-4.4-5.2-8.3s4.5-5.5 7.8-5.6z" transform="translate(-493.4 -10556.4)" fill="#dd553a"/><path d="M662.1 10811.6l3.6-4.6c-2.3 8.8-7.6 16.5-15.5 21 2.9-4.5 6.2-9 9.5-13.3h.9a1.9 1.9 0 0 0 1.5-3.1z" transform="translate(-493.4 -10556.4)" fill="#262016"/><path d="M662.1 10811.6a1.9 1.9 0 0 1-1.5 3.1h-.9zM662.1 10811.6l-2.4 3h-.7a23.7 23.7 0 0 0 1.7-3.7 1.7 1.7 0 0 1 1.4.7z" transform="translate(-493.4 -10556.4)" fill="#262016"/><path d="M661.3 10784.7a35.5 35.5 0 0 1 1.8 8.4 12.2 12.2 0 0 0-11.9 10.4 9.6 9.6 0 0 0 .6 5.2l-3.4.4a7.2 7.2 0 0 0-7.8-3.7 21.4 21.4 0 0 0-4.2 1.4c-3.9 1.7-7.1.4-11 0s-7.3.4-8.7 3.1l-.4.9-3.2-.4a9.7 9.7 0 0 0 .6-6.1c-1.6-6.6-8-9.8-14.3-7.8a64.6 64.6 0 0 1 1.4-12.9c8.1-4.7 18.9-6.5 28.1-6.4 5.6 0 7.7-1.3 10.3-4.8 1.1 2.6 2.7 5.3 4.7 5.9 6.1 1.9 11.9 2.8 17.4 6.4zm-12.3 6.1c1.7 1.8 4.5-.9 2.7-2.7s-6.9-4.2-10.3-2.2-.2 4.6 1.9 3.3 4.5.3 5.7 1.6zm-13.4 11.6c1.8-1.7-.9-4.4-2.7-2.7s-3.4 2.6-2.9.3a15.3 15.3 0 0 1 1.3-2.7 8.2 8.2 0 0 0 .7-2.6 1.9 1.9 0 0 0-1.9-1.9 2 2 0 0 0-1.9 1.9c-.2 1.7-1.6 3.2-2 4.9a4.6 4.6 0 0 0 1.1 4.2c2.6 2.3 6.1.8 8.4-1.4zm-16.5-13.6c2.4.5 3.5-3.2 1-3.7a9.4 9.4 0 0 0-10.2 4.4c-1.3 2.1 2 4.1 3.3 1.9a5.4 5.4 0 0 1 5.9-2.5z" transform="translate(-493.4 -10556.4)" fill="#ffd6bb"/><path d="M660.3 10782.1c.4.9.7 1.8 1 2.7-5.5-3.7-11.3-4.6-17.5-6.3-2-.6-3.6-3.3-4.7-5.9l2.1-2.9.7-.3c1.2 2.7 2.7 5.4 5.7 5.7a26.7 26.7 0 0 1 5.9 1.8 58.1 58.1 0 0 1 7.3 3.1 2 2 0 0 0-.5 2.1zM659.7 10814.6c-3.3 4.4-6.5 8.8-9.5 13.3l-2 1c-.4-2.3-4-2.2-3.8.2v1.3a33.7 33.7 0 0 1-9.9 1.7 46.5 46.5 0 0 1-12.1-1.3v-.9c.1-2.4-3.5-2.5-3.8-.3l-2.6-1a130.6 130.6 0 0 0-11.4-11.2l1.7-.5a35 35 0 0 0 28.2 11.3c10-.7 19.4-5.2 24.3-13.8h.7z" transform="translate(-493.4 -10556.4)" fill="#262016"/><path d="M651.8 10808.7a9.5 9.5 0 0 0 7.2 5.8c-4.9 8.6-14.3 13.1-24.3 13.8a35 35 0 0 1-28.2-11.3 12.2 12.2 0 0 0 6.5-6.5l3.2.4c-2.5 6.4 4.3 10.7 9.9 12.3h.8c7.4 1.2 16.7-.4 21.2-6.9a6.8 6.8 0 0 0 .4-7.2z" transform="translate(-493.4 -10556.4)" fill="#ffd6bb"/><path d="M651.7 10788.1c1.7 1.8-1 4.5-2.7 2.7s-3.8-2.7-5.6-1.6-4.1-2.1-1.9-3.3 7.7-.4 10.2 2.2zM648.4 10830.8a2.3 2.3 0 0 1 2.2 2.3 4 4 0 0 1-.4 1.7 1.8 1.8 0 0 1-1.5.3 1.2 1.2 0 0 0 0-.3z" transform="translate(-493.4 -10556.4)" fill="#262016"/><path d="M648.8 10835.1a1.8 1.8 0 0 0 1.5-.3c-.8 1.8-3 2.4-5.2 2.9-7.5 1.6-20.7 4.4-27.3-1.2a2.1 2.1 0 0 0 1.7.1 1.8 1.8 0 0 0 1.3.5 1.9 1.9 0 0 0 1.9-1.9 3.6 3.6 0 0 1 0-.4c3.7 1.2 8.1.9 11.2.6a60.3 60.3 0 0 0 8-1 7.7 7.7 0 0 1 2.9-.5v.8c.3 2.4 3.8 2.5 4 .4z" transform="translate(-493.4 -10556.4)" fill="#262016"/><path d="M648.8 10834.8a1.2 1.2 0 0 1 0 .3 2.1 2.1 0 0 1-1-.5 1.7 1.7 0 0 1-.3-2.3l.9-1.5zM648.4 10809.2a6.8 6.8 0 0 1-.4 7.2c-4.5 6.6-13.7 8.2-21.2 6.9 2.1.2 2.9-3.2.6-3.8 4.4.8 11 .3 14.8-2.5s2.4-9.5-3.2-7.2a29.4 29.4 0 0 1-4.4 1.8c-3.8.6-7-1.3-10.7-.9-5.3.5-5.4 4.9-1 7.1a24.4 24.4 0 0 0 4.5 1.7c-2.3-.4-3.3 2.9-1.4 3.6-5.6-1.6-12.4-5.9-9.9-12.3l.4-.9c1.5-2.8 6-3.5 8.7-3.1s7.2 1.7 11 0a21.4 21.4 0 0 1 4.2-1.4 7.2 7.2 0 0 1 8 3.8zM648.4 10830.7zM648.3 10829.1v1.6a3.8 3.8 0 0 0-1.6.1 1.9 1.9 0 0 0-.8 3.2h-1.1l-.3-3.5a27.4 27.4 0 0 0 3.7-1.5v.2z" transform="translate(-493.4 -10556.4)" fill="#262016"/><path d="M648.4 10830.8l-.9 1.5a1.7 1.7 0 0 0 .3 2.3l-1.9-.5a1.9 1.9 0 0 1 .8-3.2 3.8 3.8 0 0 1 1.7-.1z" transform="translate(-493.4 -10556.4)" fill="#262016"/><path d="M647.8 10834.6a2.1 2.1 0 0 0 1 .5c-.1 2.2-3.6 2-3.8-.3v-.8h1.1a1.7 1.7 0 0 0 1.7.6z" transform="translate(-493.4 -10556.4)" fill="#262016"/><path d="M647.8 10834.6a1.7 1.7 0 0 1-1.9-.5zM644.4 10829.1c-.2-2.4 3.4-2.4 3.8-.2a27.4 27.4 0 0 1-3.7 1.5v-1.3z" transform="translate(-493.4 -10556.4)" fill="#262016"/><path d="M644.5 10830.5l.3 3.5a7.7 7.7 0 0 0-2.9.5 60.3 60.3 0 0 1-8 1c-3.1.2-7.6.6-11.2-.6-.1-1.3-.2-2.7-.2-4a46.5 46.5 0 0 0 12.1 1.3 33.7 33.7 0 0 0 9.9-1.7z" transform="translate(-493.4 -10556.4)" fill="#ffd6bb"/><path d="M639.1 10809.9c5.6-2.3 7.6 3.9 3.2 7.2s-10.3 3.3-14.8 2.5a24.4 24.4 0 0 1-4.5-1.7c-4.4-2.2-4.3-6.6 1-7.1 3.7-.4 6.9 1.5 10.7.9a29.4 29.4 0 0 0 4.4-1.8z" transform="translate(-493.4 -10556.4)" fill="#f48f7d"/><path d="M641.8 10769.3l-.7.3-3.5-.5-.6-.3.8-1.1a1.9 1.9 0 0 1 3.5.5zM637.6 10769.2l3.5.5-2.1 2.9c-.6-1.3-1-2.6-1.4-3.4z" transform="translate(-493.4 -10556.4)" fill="#262016"/><path d="M637.6 10769.2c.4.8.8 2.1 1.4 3.4-2.6 3.5-4.7 4.8-10.3 4.8-9.2-.1-20 1.7-28.1 6.4l.4-2.2a1.8 1.8 0 0 0-.8-2c6-3.1 12.5-4.2 19.2-5.3a61 61 0 0 1 10.7-.7c3.7.1 5.1-2.2 6.8-4.8zM632.9 10799.7c1.8-1.7 4.5 1 2.7 2.7s-5.8 3.7-8.4 1.3a4.6 4.6 0 0 1-1.1-4.2c.4-1.7 1.8-3.2 2-4.9a2 2 0 0 1 1.9-1.9 1.9 1.9 0 0 1 1.9 1.9 8.2 8.2 0 0 1-.7 2.6 15.3 15.3 0 0 0-1.3 2.7c-.4 2.4 2.3.5 3-.2zM630.6 10902.7c1-2.3 4.3-.3 3.3 1.9l-.6 1.3c-.8-1.1-2.5-.5-3.1.7l-1.3-.4z" transform="translate(-493.4 -10556.4)" fill="#262016"/><path d="M630.2 10906.6c.6-1.2 2.2-1.8 3.1-.7s-1.4 3-2.2 4.4l-.9-2.1a2 2 0 0 1 0-1.6z" transform="translate(-493.4 -10556.4)" fill="#262016"/><path d="M630.2 10908.3l.9 2.1c-5.6 10.4-13.8 19.2-23.1 26.5a89.7 89.7 0 0 1-15.9 10.2c-3.9 1.9-6 2.1-9.4.6a2 2 0 0 0-3.2-2l-.3.3c-2.4-1.1-5.7-2.5-7.3-4.4l1.2.6c2 1 3.7-1.5 2.6-2.9l.3-.3a8.8 8.8 0 0 0 3.3 2.6c1.8 1 3.7 2 5.6 2.9 4.3 2 12.3-4.5 15.8-6.9a95.7 95.7 0 0 0 12.7-10.3 78.6 78.6 0 0 0 15.7-21.1l1.3.4a2 2 0 0 0-.2 1.7zM627.5 10819.6c2.3.6 1.5 4-.6 3.8h-.8c-1.9-.9-.9-4.2 1.4-3.8zM622.7 10835.2a1.9 1.9 0 0 1-1.9 1.9 1.8 1.8 0 0 1-1.3-.5 1.9 1.9 0 0 0 1.3-1.2 1.8 1.8 0 0 0 .8-1l1.1.4a3.6 3.6 0 0 0 0 .4z" transform="translate(-493.4 -10556.4)" fill="#262016"/><path d="M622.5 10830.8c0 1.3 0 2.7.2 4l-1.1-.4a1.8 1.8 0 0 0-2.2-2.5l-.5.2-.3-.3v-2zM622.5 10829.9v.9l-3.8-1.1c.3-2.3 3.9-2.2 3.8.2z" transform="translate(-493.4 -10556.4)" fill="#262016"/><path d="M619.4 10831.9a1.8 1.8 0 0 1 2.2 2.5l-1.4-.8-1.2-1.6z" transform="translate(-493.4 -10556.4)" fill="#262016"/><path d="M621.6 10834.4a1.8 1.8 0 0 1-.8 1 1.5 1.5 0 0 0-.3-1.4l-.3-.4z" transform="translate(-493.4 -10556.4)" fill="#262016"/><path d="M620.5 10833.9a1.5 1.5 0 0 1 .3 1.4l-.4.2a2.2 2.2 0 0 0-.7.3v-2.7l.5.4z" transform="translate(-493.4 -10556.4)" fill="#262016"/><path d="M620.3 10835.6l.4-.2a1.9 1.9 0 0 1-1.3 1.2 2.2 2.2 0 0 1-.6-1.4c-.1-1-.2-2-.2-3h.4l1.2 1.6-.5-.4v2.7a2.2 2.2 0 0 1 .6-.5zM620.2 10785.2c2.4.5 1.4 4.2-1 3.7a5.4 5.4 0 0 0-5.8 2.6c-1.3 2.1-4.6.2-3.3-1.9a9.4 9.4 0 0 1 10.1-4.4z" transform="translate(-493.4 -10556.4)" fill="#262016"/><path d="M619.5 10836.6a2.1 2.1 0 0 1-1.7-.1l-.6-.5a1.9 1.9 0 0 1 0-2.7 4.4 4.4 0 0 1 1.5-1.1c0 1 .1 2 .2 3a2.2 2.2 0 0 0 .6 1.4zM618.7 10831.7l.3.3h-.3v-.4z" transform="translate(-493.4 -10556.4)" fill="#262016"/><path d="M618.7 10831.7v.4a4.4 4.4 0 0 0-1.5 1.1 1.9 1.9 0 0 0 0 2.7l.6.5-.6-.6c-7.4-9.8-17-17.4-26.3-25.4-3-2.6-8.6-10-12.8-9.6v-1.3a1.6 1.6 0 0 0 1.7-1.8c-.1-.7-.1-1.6-.2-2.4 2.1.6 3.5 2.7 4.9 4.1s5 4.7 7.6 7l6.9 5.9a34 34 0 0 0 2.8 5 32.4 32.4 0 0 0 14.4 11.4zM613.6 10804.4a9.7 9.7 0 0 1-.6 6.1 12.2 12.2 0 0 1-6.5 6.5 29.3 29.3 0 0 1-2.4-3.1v-.2c3.8-.5 7.1-5.5 5.8-9.2s-5.7-5.4-9.7-4h-.5c-.1-1.3-.2-2.6-.2-3.9 6.1-1.9 12.5 1.3 14.1 7.8z" transform="translate(-493.4 -10556.4)" fill="#262016"/><path d="M609.7 10804.5c1.4 3.7-1.9 8.7-5.8 9.2a27.1 27.1 0 0 1-4-10.4c-.2-.9-.3-1.8-.4-2.7h.5c4-1.5 8.1-.3 9.7 3.9z" transform="translate(-493.4 -10556.4)" fill="#dd553a"/><path d="M604.8 10817.4a130.6 130.6 0 0 1 11.4 11.2 32.4 32.4 0 0 1-14.4-11.4 34 34 0 0 1-2.8-5l2.7 2.3a1.9 1.9 0 0 0 1.6 2.9h1.5z" transform="translate(-493.4 -10556.4)" fill="#262016"/><path d="M606.5 10817l-1.7.5-3.2-2.8a1.7 1.7 0 0 1 1.6-.9h.6v.2a29.3 29.3 0 0 0 2.7 3z" transform="translate(-493.4 -10556.4)" fill="#262016"/><path d="M603.9 10813.7h-.6a1.7 1.7 0 0 0-1.6.9l-2.7-2.3a35.6 35.6 0 0 1-2.3-6.9c1.5.5 2.4-.9 2.2-2.1h1.1a27.1 27.1 0 0 0 3.9 10.4z" transform="translate(-493.4 -10556.4)" fill="#262016"/><path d="M604.8 10817.4h-1.5a1.9 1.9 0 0 1-1.6-2.9zM600.3 10779.6a1.8 1.8 0 0 1 .8 2l-.4 2.2h-.1c-2.1 1.3-4.1-2.1-1.9-3.3z" transform="translate(-493.4 -10556.4)" fill="#262016"/><path d="M600.6 10783.8h.1a64.6 64.6 0 0 0-1.4 12.9h-.3c-2.2.7-1.5 4 .6 3.8.1.9.2 1.8.4 2.7h-1.1a2 2 0 0 0-1.3-1.6l-1.7-.8a63.3 63.3 0 0 1 1.5-20.3 1.8 1.8 0 0 1 2.9-1l-1.7.9c-2.1 1.4-.1 4.7 2 3.4z" transform="translate(-493.4 -10556.4)" fill="#262016"/><path d="M599.5 10800.6c-2 .2-2.7-3.1-.6-3.8h.3c.1 1.2.2 2.5.3 3.8zM599.1 10848.9c.9 3.7 0 6.8-1.7 10.2-2.6 5.2-5.4 10.6-7.5 16l-1.5-.7.9 2.2.6-1.5 3.5 1.6-.4 1a1.9 1.9 0 0 0-2.7.6l-.6 1-3.2-1.5a1.9 1.9 0 0 1-.9-2.2c2.3-6.3 5.6-12.3 8.5-18.4 4.1-8.7-6.2-15.3-10.5-21.9s-8.1-14.3-12.1-21.4c-1.4-2.6-5-7.1-3.1-10.3l.9.4a2 2 0 0 0 2.3-.4l2.1.2c-1.4 1.6-1.8 3.1-.2 5.9l4.9 8.8c3.7 6.7 7.1 13.7 12.1 19.6 2.5 3 7.6 6.9 8.6 10.8zM598.8 10803.3c.2 1.3-.8 2.6-2.2 2.1a40.7 40.7 0 0 1-.7-4.5l1.7.8a2 2 0 0 1 1.2 1.6z" transform="translate(-493.4 -10556.4)" fill="#262016"/><path d="M596.6 10805.4h-.1c-4-1.5-6.9-4.2-10.2-7s-5.2-3.7-7.1-6.1v-1.3l2-.3 1.1-.9c2.7 3.9 9.3 8.9 13.7 11.1a40.7 40.7 0 0 0 .6 4.5zM592.9 10877.7a1.8 1.8 0 0 1 .7 2.5l-.4.6-3.6-1.6.6-1a1.9 1.9 0 0 1 2.7-.5zM589.7 10879.3l3.6 1.6c-6.2 10-12.2 20.2-14.8 31.9a167.5 167.5 0 0 0-3.1 20.2c-.3 2.7-.3 4.5.7 6l-.3.3-.6-.5-4-2.1a151.4 151.4 0 0 1 2.3-18c2.4-14.7 8.5-26.9 16.2-39.4zM589.8 10875.1l-.6 1.5-.9-2.2zM579.4 10945.6a2 2 0 0 1 3.2 2l-1.6-.8-1.9-.9z" transform="translate(-493.4 -10556.4)" fill="#262016"/><path d="M582.7 10947.5a1.8 1.8 0 0 1-.5.7c-2.3 2-2.8 4.8-5.3 6.7s-5.1.8-7.2.1c-6.2-1.9-15.1-8.4-18.8-13.8-2.3-3.4-3-10 2.7-10.5s12 2.8 17.5 5.8q-.1 1.1-.1 2.2a3.9 3.9 0 0 0 .9 2.6c-3.5-1.8-7-3.6-10.6-5.2a16.1 16.1 0 0 0-6-1.7c-1.7-.1-3.1 1.6-1.9 3.6a24.2 24.2 0 0 0 4.7 4.9 59.3 59.3 0 0 0 11.5 7.8c5.8 2.8 6.5-1.8 9.7-4.9l1.9.9zM582.2 10789.8l-1.1.9.3-2.3a9.2 9.2 0 0 0 .8 1.4zM579.7 10797.8a1.6 1.6 0 0 1-1.7 1.8 2.1 2.1 0 0 1-2.1-1.8v-1.3c1.4-.9 2.7-1.5 3.8-1.2s-.1 1.7 0 2.5z" transform="translate(-493.4 -10556.4)" fill="#262016"/><path d="M579.2 10792.3c.1 1.1.2 2.1.3 3.1s-2.4.3-3.8 1.2c-.2-2.2-.5-4.4-.9-6.5s-.3-1.7-.5-2.5-.2-1.3-.4-1.9a2.9 2.9 0 0 0-.7-1.5.6.6 0 0 0-.8.1l-.5-.3a11.4 11.4 0 0 0-2.7-2.1 4.1 4.1 0 0 1 5.8-.7c2 1.3 3 3.9 3.7 6.8l-.2.2a1.9 1.9 0 0 0-.3 2.3 10.8 10.8 0 0 0 1 1.8z" transform="translate(-493.4 -10556.4)" fill="#262016"/><path d="M579.1 10791v1.3a10.8 10.8 0 0 1-1.1-1.9 1.9 1.9 0 0 1 .3-2.3l.2-.2c.3.9.5 2 .6 3.1zM578 10799.6v1.3a3.4 3.4 0 0 0-2 .8 27.8 27.8 0 0 0-2.3 2.1l-2.1-.2a1.7 1.7 0 0 0-.4-2.9h-.2a32.1 32.1 0 0 1 4.7-4.2v1.3a2.1 2.1 0 0 0 2.3 1.8zM575.6 10939.1c1.1 1.3-.6 3.8-2.6 2.9l-1.2-.6a3.9 3.9 0 0 1-.9-2.6q0-1.1.1-2.2l4 2.1z" transform="translate(-493.4 -10556.4)" fill="#262016"/><path d="M574.8 10790c.4 2.2.7 4.3.9 6.5a32.1 32.1 0 0 0-4.7 4.2c-4.1-1.9-11.6-4.9-13.3-9.3-.9-2.5.6-5.3 2.6-6.7s5.7-.7 7.9 1l.9.8a1.6 1.6 0 0 0 2 .3 1.8 1.8 0 0 0 .9-1.6 1.6 1.6 0 0 1 .3-1.1.6.6 0 0 1 .8-.1 2.9 2.9 0 0 1 .7 1.5c.2.6.3 1.3.4 1.9s.5 1.7.6 2.6z" transform="translate(-493.4 -10556.4)" fill="#ffd6bb"/><path d="M579.1 10945.9c-3.2 3.1-3.9 7.7-9.7 4.9a59.3 59.3 0 0 1-11.5-7.8 24.2 24.2 0 0 1-4.7-4.9c-1.1-2 .2-3.7 1.9-3.6a16.1 16.1 0 0 1 6 1.7c3.6 1.6 7.1 3.4 10.6 5.2 1.7 2 5 3.4 7.4 4.5z" transform="translate(-493.4 -10556.4)" fill="#af9a5d"/><path d="M571.9 10783.8l.5.3a1.6 1.6 0 0 0-.3 1.1 1.8 1.8 0 0 1-.9 1.6 1.6 1.6 0 0 1-2-.3l-.9-.8h.4zM571.2 10800.7a1.7 1.7 0 0 1 .4 2.9 2 2 0 0 1-2.3.4l-.9-.4.7-.8 2-2.1h.2z" transform="translate(-493.4 -10556.4)" fill="#262016"/><path d="M571.9 10783.8l-3.2 1.9a4.1 4.1 0 0 1 .5-3.9 11.4 11.4 0 0 1 2.7 2z" transform="translate(-493.4 -10556.4)" fill="#262016"/><path d="M571.1 10800.7l-2 2.1-.7.8c-7.1-3.3-16.9-8-14-17.2 2.1-6.6 9.6-7.6 14.9-4.7a4.1 4.1 0 0 0-.5 3.9h-.4c-2.2-1.7-5.4-2.7-7.9-1s-3.5 4.2-2.6 6.7c1.6 4.5 9.1 7.5 13.2 9.4zM511.2 10602.7a73 73 0 0 1-1.5-34.2c.4-1.9-2.5-2.7-2.9-.8a76.4 76.4 0 0 0 1.5 35.8 1.5 1.5 0 0 0 2.9-.8zM496 10557.4a77.7 77.7 0 0 0-1.4 33c.3 1.9 3.2 1.1 2.9-.8a73.9 73.9 0 0 1 1.4-31.4 1.5 1.5 0 0 0-2.9-.8zM1116.6 11082.6a343.6 343.6 0 0 1-14.4-59.9c-.3-1.9-3.2-1.1-2.9.8a343.6 343.6 0 0 0 14.4 59.9c.6 1.8 3.5 1 2.9-.8zM1098.3 11054.6c-.3-1.9-3.2-1.1-2.9.8a250.5 250.5 0 0 0 12.1 47c.7 1.8 3.6 1 2.9-.8a250.5 250.5 0 0 1-12.1-47z" transform="translate(-493.4 -10556.4)" fill="#262016"/></svg>