<?xml version="1.0" encoding="UTF-8"?>
<svg width="279px" height="150px" viewBox="0 0 279 150" version="1.1" xmlns="http://www.w3.org/2000/svg" xmlns:xlink="http://www.w3.org/1999/xlink">
    <!-- Generator: Sketch 41.2 (35397) - http://www.bohemiancoding.com/sketch -->
    <title>map2-m</title>
    <desc>Created with Sketch.</desc>
    <defs></defs>
    <g id="spec" stroke="none" stroke-width="1" fill="none" fill-rule="evenodd">
        <g id="Mobile---Map" transform="translate(-20.000000, -126.000000)">
            <g id="map2-m" transform="translate(20.000000, 120.000000)">
                <g id="path" transform="translate(17.000000, 40.000000)">
                    <polyline id="Stroke-29" stroke="#C71B09" stroke-width="1.8" stroke-linecap="round" stroke-linejoin="round" points="252.586745 81.7422535 252.586745 81.7422535 252.589143 81.7434516 252.590942 81.7446498 252.590942 81.7602258 252.586745 81.7722074 252.586745 81.7805945 252.587944 81.7805945 252.589143 81.7811935 252.614929 81.7859862 252.621525 81.7883825 252.625723 81.7895806 252.632319 81.792576 252.633519 81.792576 252.641914 81.7961705 252.644313 81.7991659 252.697683 81.8117465 252.704279 81.769212 252.734262 81.5828986 252.73786 81.547553 252.748654 81.4870461 252.749854 81.4846498 252.760648 81.4061705 252.772641 81.3402719 252.783435 81.257 252.787632 81.2324378 252.747455 81.2270461 252.73786 81.2246498 252.68449 81.2168618 252.632319 81.2042811 252.546567 81.1773226 252.430232 81.1449724 252.420638 81.1431751 252.414041 81.1395806 252.406246 81.1371843 252.406246 81.1359862 252.371465 81.1102258 252.364269 81.1072304 252.279117 81.0479217 252.222748 81.0059862 252.193364 80.9826221 252.181371 80.9706406 252.179572 80.9706406 252.171777 80.9628525 252.167579 80.9490737 252.160983 80.9209171 252.158584 80.8939585 252.153187 80.8681982 252.153187 80.8628065 252.150189 80.8526221 252.14779 80.8418387 252.141194 80.8304562 252.1304 80.8190737 252.118406 80.8022995 252.104614 80.7867235 252.098018 80.7765392 252.095619 80.7699493 252.09442 80.7663548 252.087224 80.7352028 252.082426 80.7082442 252.082426 80.7046498 252.072832 80.6243733 252.069834 80.5962166 252.066236 80.5728525 252.062038 80.5470922 252.060839 80.5434977 252.055442 80.4985668 252.033854 80.5057558 252.033854 80.5063548 252.012266 80.5135438 251.865348 80.5728525 251.686048 80.6579217 251.633877 80.6848802 251.632678 80.6848802 251.553522 80.7274147 251.409003 80.7999032 251.317854 80.851424 251.229703 80.8987512 251.224306 80.9023456 251.196122 80.9179217 251.128959 80.9568618 251.112768 80.9658479 251.090581 80.9796267 251.051602 80.9981982 251.004828 81.0185668 250.96705 81.0317465 250.779954 81.0916544 250.701998 81.1138203 250.687606 81.119212 250.685807 81.119212 250.567073 81.1563548 250.50111 81.1785207 250.494514 81.1797189 250.433348 81.1988894 250.338001 81.2246498 250.222865 81.2605945 250.155703 81.2839585 250.110728 81.2983364 250.012983 81.3264931 249.800102 81.3840046 249.793505 81.3858018 249.786309 81.387 249.773117 81.3917926 249.747931 81.3971843 249.705954 81.4085668 249.704755 81.4085668 249.520058 81.4511014 249.517659 81.4511014 249.463689 81.4624839 249.433107 81.4678756 249.258004 81.5050184 249.190842 81.517 249.160259 81.5235899 249.062514 81.5415622 248.864024 81.5739124 248.861626 81.5739124 248.793264 81.5840968 248.785468 81.5864931 248.778872 81.5864931 248.759683 81.5900876 248.635552 81.6068618 248.435864 81.6290276 248.414276 81.6302258 248.410678 81.631424 248.302138 81.6356175 248.269756 81.6356175 248.266158 81.6344194 248.257763 81.6356175 248.124038 81.639212 248.101251 81.6428065 247.992711 81.6416083 247.789425 81.631424 247.631713 81.6146498 247.611324 81.6110553 247.459009 81.5930829 247.454812 81.5918848 247.340875 81.5787051 247.326483 81.5775069 247.220343 81.5643272 247.162775 81.5583364 247.152581 81.5583364 247.033247 81.5481521 246.994269 81.5439585 246.99187 81.5439585 246.986473 81.5427604 246.981076 81.5427604 246.912715 81.5349724 246.911515 81.5349724 246.783187 81.5128065 246.775991 81.5104101 246.744209 81.5056175 246.70523 81.4978295 246.522932 81.4678756 246.467163 81.4600876 246.303455 81.433129 246.299857 81.4319309 246.255482 81.425341 246.253083 81.425341 246.244688 81.4229447 246.200912 81.4151567 246.121756 81.4037742 246.117559 81.4037742 246.082778 81.3983825 246.054594 81.3971843 246.052195 81.3995806 246.036004 81.4049724 246.031807 81.4085668 246.02641 81.4115622 246.021013 81.4193502 246.019813 81.4229447 246.013217 81.4846498 245.979636 81.738659 245.93586 82.1184747 245.88189 82.4940968 245.836316 82.8535438 245.812329 82.9691659 245.636028 83.4999493 245.627632 83.5179217 245.588654 83.6419309 245.579659 83.6778756 245.540681 83.7988894 245.534085 83.8156636 245.523291 83.8318387 245.512497 83.8438203 245.498105 83.8552028 245.481914 83.8629908 245.466922 83.8659862 245.45373 83.8671843 245.437539 83.8659862 245.418949 83.8617926 245.391964 83.849212 245.370976 83.8318387 245.328999 83.7797189 245.308011 83.7611475 245.288822 83.7473687 245.27443 83.7407788 245.246246 83.7305945 245.18448 83.7204101 245.108323 83.7162166 244.914031 83.7228065 244.828879 83.7281982 244.381529 83.773129 243.392681 83.8575991 243.263753 83.8629908 243.154014 83.871977 242.60772 83.8899493 242.453006 83.8887512 242.270708 83.8929447 241.703425 83.8941429 241.55171 83.8917465 241.361616 83.8965392 241.0312 83.8941429 240.462118 83.9079217 240.320597 83.918106 239.924219 83.9582442 239.556024 84.0127604 239.484065 84.0289355 239.394115 84.0511014 238.897592 84.1667235 238.679314 84.2224378 238.635539 84.231424 238.589964 84.2458018 238.383679 84.3176912 238.177395 84.3961705 237.781016 84.5261705 237.753431 84.5327604 237.513565 84.5471382 236.976865 84.491424 236.80656 84.491424 235.635415 84.6591659 234.955395 84.7376452 234.805478 84.7634055 234.567411 84.782576 233.867602 84.8197189 232.874557 84.8364931 232.372038 84.8311014 231.934882 84.8418848 231.355006 84.8430829 231.123535 84.8478756 231.001803 84.8478756 230.93584 84.8430829 230.805113 84.8418848 229.671147 84.8005484 229.262775 84.7693963 228.976735 84.7244654 228.71708 84.6693502 228.362078 84.5728986 228.068842 84.4722535 227.870952 84.3985668 227.21372 84.1619309 226.792155 84.0457097 226.522906 83.9941889 226.347803 83.9570461 225.934035 83.9079217 225.830892 83.8977373 225.603619 83.8809631 225.401532 83.871977 225.06512 83.871977 225.006353 83.8695806 224.843244 83.8743733 224.639358 83.8851567 224.63456 83.8863548 224.629163 83.8863548 224.468453 83.9001336 224.123046 83.9366774 224.118849 83.9378756 224.115251 83.9378756 224.058882 83.9432673 224.054684 83.9444654 224.049287 83.9444654 223.952741 83.9558479 223.944946 83.9558479 223.886179 83.9624378 223.881981 83.9624378 223.879582 83.9636359 223.164782 84.0409171 223.088024 84.0475069 223.080229 84.0475069 223.062839 84.0499032 222.813978 84.0642811 222.575911 84.0702719 222.317455 84.0666774 222.159143 84.0612857 222.157944 84.0600876 221.906085 84.0445115 221.756169 84.0289355 221.371184 83.9780138 221.361589 83.9762166 221.320212 83.9702258 221.263844 83.9648341 221.175693 83.9492581 221.115127 83.9324839 221.056359 83.9145115 220.987998 83.8887512 220.934627 83.8641889 220.867465 83.8282442 220.78711 83.7743272 220.717549 83.7228065 220.585023 83.619765 220.530453 83.5748341 220.365545 83.4460323 220.246812 83.3711475 220.170055 83.3352028 220.108889 83.3094424 220.03513 83.2890737 219.976363 83.2782903 219.879817 83.2657097 219.792865 83.2645115 219.741894 83.268106 219.693921 83.2746959 219.598574 83.29147 219.542805 83.3070461 219.324527 83.3879217 218.8358 83.5772304 218.806416 83.5874147 218.794423 83.5904101 218.754246 83.6041889 218.697877 83.6209631 218.645706 83.6323456 218.569549 83.643129 218.496989 83.650318 218.44122 83.650318 218.293703 83.6443272 217.321646 83.5760323 217.228098 83.5724378 217.225699 83.5718387 217.213706 83.5718387 217.209509 83.5706406 217.208309 83.5706406 217.201713 83.5694424 216.933663 83.5568618 216.500105 83.5293041 216.478517 83.5269078 215.415911 83.4586129 215.385328 83.4550184 215.379931 83.4550184 215.152058 83.4406406 215.145462 83.4406406 213.172564 83.3172304 212.439174 83.2657097 211.718976 83.2243733 211.539676 83.2099954 211.534279 83.2099954 211.520487 83.2087972 211.512691 83.2087972 211.503096 83.2075991 211.026962 83.176447 210.99578 83.1752488 210.985586 83.1740507 210.971793 83.1740507 209.523602 83.0811935 209.518205 83.0811935 208.577331 83.015894 208.49038 83.0069078 207.515924 82.8805023 207.418179 82.8661244 207.328229 82.8499493 207.267063 82.8355714 207.252071 82.8331751 207.244276 82.8313779 207.153127 82.8110092 207.0218 82.7762627 206.945643 82.7540968 206.840102 82.7205484 206.75315 82.6899954 206.611029 82.6360783 206.604433 82.6330829 206.596038 82.6306866 206.537271 82.6073226 206.386155 82.5384286 206.276416 82.4815161 206.047344 82.3718848 206.046145 82.3706866 205.860249 82.2844194 204.934966 81.8399032 204.933766 81.8387051 204.861807 81.8039585 204.767659 81.7536359 204.667515 81.6961244 204.556577 81.6278295 204.441442 81.5517465 204.305917 81.4576912 204.182986 81.3600415 204.066651 81.2629908 203.087998 80.3913318 202.808554 80.148106 202.613063 79.9821613 202.610065 79.979765 202.595673 79.9689816 201.121696 78.7384747 201.044339 78.6707788 200.934601 78.5797189 200.894423 78.5485668 200.88183 78.5383825 200.877033 78.534788 200.866239 78.5240046 200.544818 78.2580138 200.491448 78.2088894 200.465663 78.1807327 200.448272 78.1639585 200.3991 78.1034516 200.365519 78.0585207 200.162232 77.731424 200.146041 77.7026682 200.137646 77.6912857 200.136447 77.6900876 200.119056 77.6619309 200.085475 77.6074147 200.044098 77.5469078 200.027907 77.5265392 199.958346 77.4462627 199.937358 77.4234977 199.874393 77.3677834 199.859401 77.3575991 199.824621 77.3306406 199.822222 77.3270461 199.818024 77.3252488 199.816825 77.3240507 199.796437 77.3090737 199.75386 77.2827143 199.642922 77.2275991 199.530185 77.1796728 199.393462 77.127553 199.206366 77.0484747 199.005478 76.9466313 198.890343 76.8801336 198.783602 76.8130369 198.676262 76.7393502 198.618694 76.6956175 198.496962 76.5991659 198.44719 76.554235 198.329656 76.4434055 198.245103 76.3571382 198.128768 76.2337281 198.092788 76.1893963 197.995043 76.0546037 197.848725 75.8305484 197.756376 75.6646037 197.680219 75.4944654 197.611857 75.3297189 197.571679 75.2152949 197.559686 75.1721613 197.558487 75.1661705 197.556088 75.1607788 197.479331 74.8828065 197.408571 74.6108249 197.408571 74.6096267 197.342008 74.3484286 197.339009 74.3430369 197.339009 74.3406406 197.250859 73.9865853 197.225073 73.8961244 197.169304 73.7301797 197.124929 73.6271382 197.088949 73.5606406 197.022986 73.4575991 196.973813 73.3905023 196.922842 73.3311935 196.895857 73.3024378 196.87187 73.2772765 196.865274 73.2706866 196.856879 73.2628986 196.842487 73.2485207 196.760932 73.1802258 196.691371 73.1287051 196.553448 73.0466313 196.498279 73.020871 196.447308 72.9999032 196.2818 72.9459862 196.19185 72.9190276 195.872229 72.8327604 195.689931 72.7770461 195.585589 72.7399032 195.543013 72.7261244 192.972849 71.7861705 192.788152 71.7148802 192.704798 71.6789355 192.50571 71.5860783 192.347398 71.5052028 190.763083 70.6257558 190.540607 70.5137281 190.438664 70.4687972 190.301341 70.4118848 190.03449 70.3130369 189.849793 70.2549263 189.611726 70.191424 189.537968 70.1734516 189.269318 70.1171382 189.185964 70.1027604 188.973083 70.0746037 188.794983 70.0578295 188.547321 70.0446498 188.400403 70.038659 188.349431 70.0356636 188.031009 69.9985207 187.987834 69.9919309 187.962648 69.9895346 187.768356 69.9511935 187.632232 69.9188433 187.47572 69.8739124 187.381572 69.8439585 187.159696 69.7630829 187.083539 69.7319309 187.034966 69.709765 186.981596 69.687 186.879653 69.640871 186.727338 69.5635899 186.642785 69.5180599 186.372336 69.3509171 186.31117 69.3083825 186.250604 69.2658479 186.246406 69.2610553 186.178644 69.2101336 186.174447 69.2089355 186.086296 69.1382442 185.930983 69.0070461 185.858423 68.9411475 185.704309 68.7871843 185.551994 68.6182442 185.457247 68.502023 185.387086 68.4109631 185.29114 68.2779677 185.233572 68.1893041 185.132828 68.0269539 185.019492 67.8172765 184.948132 67.6717005 184.892363 67.5393041 184.84379 67.4206866 184.841391 67.4128986 184.761036 67.2146037 184.729854 67.1349263 184.716661 67.1037742 184.714262 67.0959862 184.714262 67.094788 184.714262 67.0935899 184.581736 66.7575069 184.577539 66.7509171 184.238728 65.8984286 184.222537 65.8511014 184.046236 65.3999954 184.045036 65.3987972 183.838751 64.884788 183.833354 64.8644194 183.631267 64.3587972 183.552112 64.1778756 183.523927 64.1137742 183.504138 64.0754332 183.499941 64.0676452 183.458564 63.9849724 183.382406 63.852576 183.296654 63.7207788 183.261874 63.6722535 183.203107 63.591977 183.168326 63.5470461 183.103562 63.4685668 183.103562 63.4661705 182.986028 63.3373687 182.887083 63.2367235 182.80373 63.1594424 182.800132 63.1570461 182.786339 63.1456636 182.782741 63.14147 182.758755 63.1211014 182.613636 63.0066774 182.540477 62.9521613 182.540477 62.9509631 182.529683 62.9443733 182.363576 62.8221613 182.292815 62.7652488 182.177679 62.6807788 182.125509 62.6436359 181.909629 62.4800876 181.395716 62.1020691 181.390319 62.0984747 181.336949 62.0601336 181.280581 62.0235899 181.17384 61.9385207 181.076095 61.864235 180.991542 61.8037281 180.899194 61.7330369 180.823036 61.67253 180.806845 61.6623456 180.508212 61.4466774 180.410467 61.3837742 180.316919 61.3274608 180.167003 61.252576 179.936731 61.1675069 179.820396 61.1339585 179.770624 61.1213779 179.4564 61.0530829 179.345462 61.0321152 178.983864 60.9536359 178.977267 60.9512396 178.287653 60.8020691 178.261267 60.7954793 177.938648 60.724788 177.831308 60.7038203 177.80852 60.6978295 177.610631 60.6552949 177.374962 60.6109631 177.135096 60.5702258 177.104514 60.5636359 177.072132 60.5588433 176.986979 60.5504562 176.952199 60.5444654 176.653565 60.5067235 176.211612 60.4695806 176.031113 60.4593963 175.93037 60.457 175.922574 60.4558018 175.672514 60.4504101 175.276135 60.4528065 175.271937 60.4540046 174.594916 60.464788 174.504966 60.464788 174.485177 60.4737742 174.474383 60.4749724 174.464788 60.4785668 174.456993 60.4851567 174.450396 60.4911475 174.446199 60.4995346 174.446199 60.503129 174.444999 60.5055253 174.444999 60.5157097 174.449197 60.5342811 174.471385 60.625341 174.468986 60.6409171 174.486376 60.6948341 174.509163 60.7721152 174.518758 60.8068618 174.549341 60.9063088 174.567931 60.9554332 174.572128 60.9716083 174.572128 60.9734055 174.588319 61.0207327 174.609308 61.0776452 174.612306 61.0812396 174.613505 61.0854332 174.616504 61.0902258 174.621301 61.1273687 174.612306 61.1315622 174.601512 61.1351567 174.590718 61.1351567 174.581123 61.1339585 174.578725 61.1189816 174.577525 61.107 174.574527 61.0854332 174.567931 61.0584747 174.561334 61.0183364 174.557137 61.0027604 174.55174 60.9781982 174.55054 60.977 174.546343 60.9602258 174.509163 60.8302258 174.504966 60.8098571 174.482179 60.732576 174.475582 60.7026221 174.415616 60.5187051 174.361646 60.3204101 174.334061 60.2029908 174.328664 60.1736359 174.320269 60.0909631 174.312473 59.9735438 174.308276 59.9429908 174.308276 59.9393963 174.304078 59.9130369 174.292085 59.8693041 174.269297 59.8105945 174.254906 59.7704562 174.253706 59.7650645 174.242912 59.7333134 174.22912 59.6764009 174.220125 59.6518387 174.220125 59.6506406 174.21173 59.6284747 174.17455 59.5410092 174.166755 59.5170461 174.118182 59.4140046 174.116983 59.4110092 174.096594 59.3624839 174.089998 59.3528986 174.001847 59.1701797 173.992252 59.1522074 173.981458 59.1306406 173.917294 59.0198111 173.899904 58.9862627 173.747589 58.6807327 173.696617 58.5705023 173.612065 58.4135438 173.606668 58.4003641 173.586879 58.3626221 173.585679 58.3590276 173.126336 57.4771843 173.054376 57.3417926 172.991411 57.2339585 172.964426 57.1824378 172.92305 57.1051567 172.830701 56.9230369 172.662195 56.6055253 172.632812 56.5540046 172.611224 56.5102719 172.596232 56.4815161 172.587237 56.4665392 172.553656 56.4006406 172.544061 56.3862627 172.513478 56.3257558 172.490691 56.2886129 172.4745 56.2730369 172.419931 56.2448802 172.400741 56.2340968 172.255023 56.1711935 172.232236 56.1634055 172.13449 56.1238664 172.04514 56.0849263 171.755502 55.9501336 171.566008 55.8698571 171.291361 55.7488433 171.249984 55.7284747 171.197813 55.7015161 171.155837 55.6769539 171.126453 55.6559862 171.112061 55.6422074 171.102467 55.6332212 171.071884 55.6074608 171.022112 55.5547419 170.731874 55.2378295 170.718681 55.2234516 170.671308 55.1761244 170.544179 55.027553 170.513596 54.989212 170.480014 54.9520691 170.369076 54.8178756 170.336694 54.7771382 170.146601 54.5488894 170.117217 54.5117465 170.065046 54.4500415 170.045257 54.423682 169.984691 54.3553871 169.982292 54.3493963 169.971498 54.3386129 169.774808 54.0953871 169.726835 54.04147 169.689056 54.0043272 169.681261 53.9989355 169.642282 53.971977 169.429401 53.8509631 169.409612 53.8407788 169.402416 53.8365853 169.187137 53.7167696 169.172145 53.7053871 169.153555 53.6886129 169.139163 53.6730369 169.122973 53.6526682 169.110979 53.6317005 169.097187 53.6059401 169.088192 53.5843733 169.0732 53.544235 169.045016 53.4765392 169.026426 53.4411935 169.000041 53.3938664 168.975455 53.3477373 168.964661 53.321977 168.963462 53.3189816 168.958065 53.3064009 168.950269 53.2866313 168.927482 53.2015622 168.903495 53.1320691 168.836333 52.9685207 168.835133 52.96253 168.781763 52.8307327 168.778765 52.8271382 168.658232 52.5383825 168.604862 52.3999954 168.594068 52.3766313 168.586272 52.3622535 168.574279 52.3418848 168.556889 52.3173226 168.520309 52.274788 168.510115 52.2634055 168.485529 52.2412396 168.46574 52.2268618 168.187495 52.0285668 168.164708 52.0093963 168.117934 51.9782442 168.044175 51.9261244 168.039978 51.9219309 168.025586 51.9117465 168.011793 51.9003641 167.995602 51.8859862 167.953026 51.8398571 167.935636 51.8176912 167.918246 51.7877373 167.887663 51.7404101 167.365354 50.6111475 167.353361 50.5889816 167.242423 50.3433594 167.186055 50.2103641 167.138081 50.1079217 167.013351 49.8515161 166.366912 48.4682442 166.235586 48.1711014 166.202004 48.0998111 166.199606 48.0926221 166.079073 47.8158479 166.046691 47.7367696 166.045492 47.731977 166.010711 47.6379217 165.978929 47.540871 165.962738 47.4809631 165.919562 47.2874608 165.899773 47.2323456 165.882383 47.1754332 165.882383 47.174235 165.871589 47.1179217 165.864993 47.0777834 165.855398 46.9783364 165.850001 46.9465853 165.775043 46.5895346 165.768447 46.547 165.757653 46.4349724 165.755254 46.3852488 165.742061 46.2240968 165.742061 46.2163088 165.733666 46.0629447 165.732467 46.0617465 165.729468 46.042576 165.72707 45.9688894 165.728269 45.943129 165.728269 45.8993963 165.729468 45.8940046 165.748658 45.6855253 165.748658 45.6621613 165.771445 45.4387051 165.788835 45.308106 165.794232 45.2272304 165.794232 45.2068618 165.79783 45.1187972 165.802028 44.9995806 165.803227 44.9828065 165.79783 44.8863548 165.792433 44.8060783 165.783438 44.7264009 165.773844 44.6646959 165.773844 44.6605023 165.76305 44.5922074 165.755254 44.55147 165.737864 44.4472304 165.737864 44.4454332 165.720473 44.3286129 165.707281 44.2513318 165.701884 44.1986129 165.701884 44.1417005 165.704282 44.1135438 165.713877 44.0758018 165.784638 43.8918848 165.817019 43.8122074 165.8518 43.7205484 165.872788 43.6600415 165.881184 43.6264931 165.893177 43.5857558 165.907569 43.5276452 165.921361 43.4605484 165.921361 43.4557558 165.945348 43.2981982 165.948946 43.2299032 165.950745 43.1693963 165.956142 43.1052949 165.956142 43.0921152 165.957341 43.037 165.95974 42.8746498 165.956142 42.8099493 165.951944 42.7895806 165.946547 42.769212 165.944148 42.7638203 165.924959 42.7045115 165.898574 42.6302258 165.893177 42.6104562 165.886581 42.5757097 165.886581 42.5733134 165.829013 42.3079217 165.814021 42.2575991 165.754055 42.0682903 165.745659 42.0479217 165.722872 42.0083825 165.721673 42.0077834 165.589147 41.7489816 165.518386 41.6189816 165.499197 41.5806406 165.492601 41.5650645 165.38586 41.3511935 165.349281 41.2846959 165.334889 41.2649263 165.312102 41.2415622 165.24374 41.1774608 165.144795 41.0959862 165.116611 41.0708249 165.052447 41.0228986 164.870148 40.8635438 164.695046 40.7395346 164.642875 40.7101797 164.589505 40.6856175 164.235703 40.5412396 164.226708 40.5376452 164.175736 40.5166774 164.172738 40.5142811 164.091184 40.4747419 164.083388 40.4693502 163.997636 40.4226221 163.960457 40.3998571 163.944266 40.3920691 163.855515 40.3429447 163.808741 40.3261705 163.75837 40.3123917 163.669619 40.2944194 163.558681 40.268659 163.450142 40.2399032 163.419559 40.2297189 163.404567 40.2243272 163.390175 40.2171382 163.356594 40.1985668 162.823492 39.794788 162.264004 39.3940046 162.216031 39.3628525 162.12908 39.3155253 162.055321 39.2664009 161.98456 39.2022995 161.898808 39.1364009 161.71711 39.0040046 161.678132 38.9716544 161.667338 38.9602719 161.651147 38.9422995 161.64575 38.9345115 161.131837 38.112576 161.074269 37.9903641 161.062276 37.9687972 161.025096 37.9130829 160.992715 37.8783364 160.969927 37.8555714 160.944741 37.8346037 160.902765 37.806447 160.879978 37.7920691 160.878778 37.7920691 160.861388 37.7806866 160.837401 37.7699032 160.798423 37.75253 160.745053 37.7369539 160.628718 37.7189816 160.62452 37.7177834 160.503988 37.7034055 160.478802 37.7022074 160.129197 37.6578756 160.122601 37.6578756 160.122601 37.6566774 160.116004 37.6566774 159.954095 37.6327143 159.916316 37.6297189 159.87374 37.6237281 159.844356 37.6183364 159.80118 37.6057558 159.772996 37.5961705 159.741214 37.5823917 159.693241 37.5554332 159.639271 37.5188894 159.599093 37.4817465 159.552319 37.4290276 159.53253 37.3996728 159.517539 37.3763088 159.498949 37.3391659 159.493552 37.332576 159.485756 37.3080138 159.471964 37.2690737 159.376018 36.7700415 159.373019 36.7580599 159.368822 36.7269078 159.343636 36.6382442 159.305857 36.437553 159.295663 36.391424 159.279472 36.3333134 159.269877 36.3021613 159.199117 36.0487512 159.161338 35.9379217 159.140349 35.8899954 159.134952 35.872023 159.131954 35.864235 159.126557 35.8474608 159.118761 35.8294885 159.105569 35.8037281 159.094775 35.7887512 159.0504 35.718659 159.040805 35.6982903 159.036008 35.6839124 159.018617 35.6162166 159.01322 35.6006406 159.010222 35.596447 159.009023 35.5898571 158.99583 35.5694885 158.990433 35.5617005 158.983837 35.5551106 158.965847 35.5401336 158.900483 35.4999954 158.823127 35.4484747 158.801539 35.4328986 158.784148 35.4179217 158.723582 35.3574147 158.546081 35.168106 158.408158 35.0093502 158.382373 34.9722074 158.347592 34.9272765 158.281029 34.8356175 158.22706 34.7571382 158.120319 34.5881982 157.936822 34.2832673 157.926028 34.2688894 157.693358 33.8842811 157.683763 33.8711014 157.592614 33.7165392 157.557834 33.6458479 157.517656 33.5571843 157.463086 33.4152028 157.429505 33.3043733 157.398922 33.1755714 157.38513 33.0982903 157.371937 32.9940507 157.362343 32.8922074 157.358745 32.8293041 157.358745 32.8071382 157.353348 32.7406406 157.342554 32.6813318 157.340155 32.6609631 157.338356 32.6375991 157.337157 32.6274147 157.337157 32.6082442 157.335957 32.590871 157.334758 32.5705023 157.335957 32.5489355 157.340155 32.5034055 157.342554 32.4273226 157.338356 32.3865853 157.308973 31.6191659 157.308973 31.604788 157.269994 30.7648802 157.263398 30.5474147 157.250205 29.3270922 157.249006 29.3193041 157.247207 29.2096728 157.244808 29.1287972 157.243609 29.0628986 157.239411 28.9981982 157.232815 28.9484747 157.217823 28.882576 157.207029 28.8502258 157.18844 28.8064931 157.154859 28.744788 157.125475 28.6974608 157.089495 28.6543272 157.070906 28.6339585 157.017535 28.5866313 156.980956 28.5584747 156.943777 28.5339124 156.868818 28.4937742 156.824443 28.4746037 156.756081 28.4512396 156.729696 28.4434516 156.698514 28.4356636 156.673328 28.4320691 156.645143 28.4302719 156.609163 28.4290737 156.532406 28.4290737 156.473639 28.4356636 156.405277 28.4548341 156.323723 28.4895806 156.279947 28.5141429 156.159415 28.591424 156.148621 28.5968157 156.144423 28.6004101 156.121636 28.6135899 156.033485 28.6627143 155.943535 28.706447 155.943535 28.7076452 155.857783 28.7435899 155.795418 28.7615622 155.697673 28.7807327 155.565147 28.8094885 155.364259 28.8454332 155.138185 28.8759862 155.1112 28.8801797 155.099207 28.8813779 154.979874 28.9017465 154.951689 28.9041429 154.930701 28.9041429 154.904916 28.9017465 154.654855 28.8466313 154.587693 28.8346498 154.424584 28.8094885 154.337632 28.7999032 154.302852 28.7987051 154.247683 28.7987051 154.211703 28.7999032 154.176922 28.8028986 153.98443 28.8310553 153.902276 28.8400415 153.670805 28.8759862 153.621632 28.8801797 153.574859 28.882576 153.492705 28.8801797 153.426142 28.8735899 153.239646 28.8424378 153.183877 28.8298571 152.913428 28.78253 152.814483 28.7627604 152.774306 28.7561705 152.696349 28.7471843 152.608199 28.7435899 152.573418 28.7405945 152.547632 28.737 152.520048 28.7304101 152.478071 28.7166313 152.387522 28.6794885 152.361736 28.6711014 152.297572 28.6561244 152.13986 28.6237742 152.052909 28.6016083 152.044514 28.6004101 151.80105 28.5411014 151.161207 28.4039124 151.151612 28.4033134 151.036477 28.3781521 150.983107 28.3649724 150.60172 28.2493502 150.60052 28.2493502 150.503974 28.2217926 150.370249 28.1858479 150.361854 28.1822535 150.2791 28.1576912 150.180155 28.1241429 149.802366 27.987553 149.787974 27.9809631 149.77718 27.9773687 149.734604 27.9605945 149.72381 27.9540046 149.648852 27.9168618 149.398192 27.7712857 149.379602 27.7634977 149.355616 27.7521152 149.339425 27.7455253 149.289653 27.7311475 149.214694 27.7131751 149.122346 27.7005945 149.028798 27.6838203 148.987421 27.6784286 148.750554 27.6616544 148.742758 27.6604562 148.153287 27.6143272 147.868447 27.5999493 147.855254 27.5999493 147.846859 27.5987512 147.677153 27.5933594 147.666359 27.5921613 147.528437 27.5843733 147.52184 27.5831751 147.415699 27.5783825 147.405505 27.5771843 147.287371 27.5705945 147.105673 27.5472304 146.944962 27.5160783 146.900587 27.5046959 146.686507 27.4405945 146.636735 27.4328065 146.600755 27.4316083 146.575569 27.4328065 146.485619 27.4453871 146.425653 27.4471843 146.392071 27.4471843 146.381277 27.4465853 146.338701 27.4453871 146.03587 27.4298111 145.958514 27.4286129 145.955515 27.4274147 145.888952 27.4340046 145.739036 27.4567696 145.721646 27.4621613 145.705455 27.4687512 145.665277 27.490318 145.548942 27.5472304 145.379837 27.6209171 145.289287 27.6634516 145.24911 27.6796267 145.200537 27.7005945 145.167555 27.7173687 145.089599 27.7521152 145.032031 27.7754793 145.014641 27.78147 145.002648 27.7844654 144.989455 27.7868618 144.966668 27.7868618 144.958272 27.7838664 144.951676 27.7826682 144.681227 27.6874147 144.677629 27.6850184 144.615864 27.6628525 144.548701 27.635894 144.433565 27.5807788 144.352011 27.5448341 144.287847 27.513682 144.274654 27.5070922 144.058775 27.4046498 144.056376 27.4040507 144.020396 27.3848802 143.965227 27.360318 143.877076 27.3177834 143.868681 27.3129908 143.793723 27.2638664 143.753545 27.2333134 143.580842 27.0967235 143.54906 27.0769539 143.534068 27.069765 143.505884 27.0589816 143.492691 27.0529908 143.143686 26.9637281 143.061532 26.9343733 142.946396 26.8870461 142.942798 26.886447 142.864842 26.8582903 142.714926 26.7953871 142.648363 26.7696267 142.602788 26.7504562 142.59979 26.7498571 142.559612 26.7306866 142.418091 26.6546037 142.380313 26.6276452 142.193217 26.480871 142.09787 26.4089816 142.054095 26.3706406 142.019314 26.3442811 141.956349 26.2993502 141.956349 26.2981521 141.905378 26.2568157 141.729676 26.1256175 141.712286 26.1130369 141.675107 26.0818848 141.519793 25.9644654 141.503602 25.9542811 141.482014 25.9375069 141.440638 25.9069539 141.388467 25.8746037 141.341693 25.8410553 141.248145 25.7805484 141.174386 25.7356175 141.119817 25.7044654 141.088634 25.6918848 141.065847 25.6840968 140.987291 25.663129 140.954909 25.6505484 140.91773 25.6313779 140.878751 25.6080138 140.75522 25.5259401 140.688658 25.479212 140.655076 25.4534516 140.59511 25.403129 140.486571 25.3054793 140.36304 25.2000415 140.320463 25.1575069 140.293478 25.1305484 140.256299 25.0880138 140.153157 24.9550184 140.145361 24.9436359 140.030225 24.7956636 139.871914 24.6045576 139.862919 24.5895806 139.835934 24.5596267 139.766373 24.4763548 139.760976 24.4673687 139.525308 24.1917926 139.489328 24.1462627 139.434158 24.0857558 139.423364 24.0731751 139.303431 23.9455714 139.244065 23.8874608 139.214681 23.8605023 139.07316 23.7239124 138.926842 23.5951106 138.919046 23.5873226 138.861478 23.5399954 138.854882 23.5334055 138.808108 23.4920691 138.719358 23.4165853 138.640802 23.3440968 138.509475 23.2105023 138.480091 23.1727604 138.466899 23.1511935 138.435716 23.1140507 138.433318 23.1110553 138.431519 23.108659 138.423723 23.0996728 138.361957 23.0110092 138.343368 22.9876452 138.323579 22.9672765 138.307388 22.9564931 138.292396 22.9499032 138.273807 22.9397189 138.248621 22.9295346 138.246822 22.9295346 138.234828 22.9217465 138.224035 22.9127604 138.212041 22.9001797 138.198849 22.8804101 138.184457 22.8600415 138.101103 22.7366313 137.926001 22.5101797 137.880426 22.4418848 137.877428 22.4376912 137.848045 22.3963548 137.836051 22.3759862 137.781482 22.2951106 137.662148 22.1081982 137.652554 22.0926221 137.611177 22.0321152 137.559006 21.9716083 137.476252 21.8787512 137.242983 21.6319309 137.178818 21.5708249 137.169823 21.5636359 137.110457 21.5121152 136.955143 21.4000876 136.915565 21.3647419 136.892778 21.3395806 136.869991 21.3126221 136.687693 21.0622074 136.651713 21.0082903 136.612735 20.9543733 136.399854 20.6488433 136.288916 20.4942811 136.26313 20.4637281 136.237944 20.4355714 136.129405 20.3313318 136.069438 20.2666313 135.979488 20.1737742 135.959699 20.1546037 135.914125 20.1144654 135.855358 20.0593502 135.829572 20.0437742 135.778601 20.019212 135.665264 19.9527143 135.658068 19.9497189 135.647874 19.94253 135.627485 19.9329447 135.571117 19.912576 135.569917 19.9113779 135.566319 19.9089816 135.541733 19.8999954 135.52974 19.8934055 135.520745 19.8856175 135.516547 19.881424 135.509951 19.8736359 135.491361 19.8496728 135.47517 19.8251106 135.430795 19.7448341 135.426597 19.7388433 135.422999 19.7334516 135.409207 19.7196728 135.400212 19.7118848 135.31446 19.6495806 135.247297 19.6046498 135.247297 19.6034516 135.210118 19.5818848 135.088386 19.522576 134.997237 19.4746498 134.945066 19.4452949 134.875505 19.4015622 134.823334 19.3716083 134.717194 19.3075069 134.184691 18.9516544 134.176895 18.9444654 134.071954 18.8773687 134.047968 18.8629908 134.011988 18.8474147 133.934631 18.8192581 133.392534 18.6766774 133.143073 18.6239585 133.092701 18.6095806 133.087304 18.6083825 132.97037 18.5760323 132.227984 18.3813318 132.193204 18.3741429 132.190205 18.3741429 132.133837 18.3657558 132.060678 18.3585668 131.929351 18.3429908 131.503589 18.3004562 131.498192 18.3004562 131.482001 18.2980599 131.373462 18.2890737 131.148587 18.2794885 131.051442 18.2794885 130.884135 18.2824839 130.700638 18.2938664 130.403204 18.3262166 130.380416 18.3262166 130.104571 18.351977 130.076986 18.3609631 129.994832 18.3711475 129.662018 18.4046959 129.577465 18.4112857 129.362185 18.4328525 129.122319 18.4508249 128.81709 18.4652028 128.814691 18.4640046 128.809294 18.4640046 128.447696 18.4867696 128.384731 18.4885668 128.28039 18.4951567 127.873217 18.513129 127.819847 18.513129 127.801257 18.5143272 127.720902 18.5155253 127.651341 18.5143272 127.645944 18.513129 127.536205 18.513129 127.518815 18.51253 127.463646 18.51253 127.249565 18.5179217 126.805214 18.5191198 126.753043 18.5179217 126.618118 18.5077373 126.369257 18.4807788 126.36386 18.4807788 126.296698 18.4753871 126.295498 18.4741889 126.081418 18.452023 126.076021 18.452023 126.00646 18.4430369 126.003462 18.4418387 125.766594 18.4172765 125.764195 18.4172765 125.530926 18.3915161 125.488349 18.3843272 125.488349 18.3837281 125.412192 18.3711475 125.37981 18.3645576 125.364818 18.3621613 124.859301 18.2555253 124.420346 18.1704562 124.381368 18.1662627 124.195472 18.1291198 124.192473 18.1291198 124.18048 18.1267235 124.167287 18.1267235 124.152296 18.1255253 124.070741 18.1267235 124.003579 18.1213318 123.974195 18.1159401 123.93042 18.1045576 123.908832 18.0967696 123.869854 18.0787972 123.832674 18.0686129 123.754718 18.0518387 123.245003 17.9679677 123.170045 17.9601797 123.100483 17.9577834 123.03452 17.9577834 122.796453 17.9679677 122.227371 17.9847419 122.215378 17.9835438 122.195589 17.9847419 122.124229 17.9811475 122.084651 17.9769539 122.080453 17.9769539 121.688272 17.9332212 121.125787 17.8265853 121.117991 17.8253871 121.097602 17.8241889 120.891917 17.7816544 120.617271 17.7289355 120.271864 17.6588433 120.258671 17.6552488 119.613431 17.5216544 119.447324 17.4905023 119.080929 17.4108249 118.257589 17.2442811 117.885197 17.1580138 117.873204 17.1556175 117.838423 17.1454332 117.712493 17.1017005 117.660323 17.0795346 117.62854 17.0639585 117.578768 17.0381982 117.565576 17.0304101 117.484021 16.9884747 117.419857 16.9621152 117.337703 16.922576 117.320313 16.9159862 116.947321 16.7476452 116.929931 16.738659 116.771619 16.6685668 116.75183 16.6583825 116.647488 16.6110553 116.618105 16.6691659 116.583324 16.7500415 116.580326 16.7590276 116.57253 16.769212 116.568333 16.7734055 116.561736 16.7793963 116.553341 16.784788 116.51856 16.8063548 115.917696 17.0987051 115.872122 17.1184747"></polyline>
                    <polygon id="Fill-31" fill="#FFFFFF" points="249.065692 86.3681567 256.509333 86.3681567 256.509333 78.9317972 249.065692 78.9317972"></polygon>
                    <polyline id="Stroke-21" stroke="#C71B0A" stroke-width="1.8" stroke-linecap="round" stroke-linejoin="round" points="116.363607 16.4983687 116.121942 16.3599816 115.441322 16.1473088 114.805677 15.9526083 114.403302 15.8297972 114.091476 15.7201659 113.587758 15.5332535 113.266337 15.4194286 112.883151 15.3062028 112.430404 15.1917788 112.111982 15.1156959 111.537503 14.9892903 111.191496 14.9114101 110.922847 14.8509032 110.488689 14.8628848 110.167269 14.9132074 109.836254 14.9767097 109.463262 15.0581843 109.135245 15.1534378 108.813825 15.1085069 108.581155 15.2654654 108.485208 15.3529309 108.158991 15.3774931 107.706244 15.4751429 107.113775 15.5973548 106.722193 15.6836221 106.04877 15.843576 105.733346 15.919659 105.290793 16.0262949 105.049128 16.0850046 104.699523 16.1712719 104.352317 16.2551429 104.073473 16.325235 103.54277 16.4546359 103.045647 16.5702581 102.797986 16.6277696 101.59086 16.9249124 101.280234 16.9968018 100.78611 17.1226083 100.239815 17.2550046 99.8692218 17.3406728 99.4794395 17.4317327 98.8659822 17.5737143 98.3112921 17.7061106 97.6378683 17.8702581 97.3362369 17.9565253 97.0909739 18.0326083 96.7629571 18.1662028 96.0355635 18.4825161 95.6715668 18.6334839 95.3783307 18.8952811 95.2739889 18.9917327 94.7546791 19.0025161 94.4482503 19.0839908 94.3061296 19.1906267 93.8863642 19.6333456 93.6387025 19.9053272 93.4252218 20.1293825 93.3058884 20.2545899 93.208143 20.3468479 93.0708198 20.4361106 92.8801263 20.5529309 92.7529973 20.6433917 92.6396606 20.7278618 92.5317209 20.8153272 92.4069906 20.913576 92.2384848 21.0459724 92.0292017 21.2143134 91.8780861 21.2993825 91.5086925 21.3149585 91.1860727 21.3562949 91.0499487 21.432977 90.836468 21.5611797 90.7123374 21.6803963 90.5750141 21.8127926 90.2266087 22.1620553 90.138458 22.2453272 90.0425116 22.343576 89.893195 22.4508111 89.6785149 22.5748203 89.5285987 22.6706728 89.3912754 22.7689217 88.8623709 23.2493825 88.5475467 23.5339447 88.4096238 23.6489677 87.7679822 24.0988756 87.6480492 24.1869401 87.5179219 24.2845899 87.3608097 24.3786452 87.0861631 24.5050507 86.2694194 24.881871 86.0469437 25.0711797 85.6739521 25.3994747 85.5762067 25.4809493 85.2535869 25.4485991 84.6131447 25.2946359 84.2977209 25.2167558 83.903741 25.1089217 83.6254965 25.0238525 83.2770911 24.9465714 82.8171481 24.8860645 82.2732519 24.8387373 81.9152519 24.8183687 81.4918884 24.7764332 81.1506791 24.6614101 80.8676372 24.5541751 80.6565551 24.4828848 80.3225417 24.369659 80.1216539 24.300765 79.8907829 24.2085069 79.7168801 24.132424 79.4848097 24.0389677 79.3462871 23.9269401 79.2053658 23.7831613 79.1208131 23.6992903 78.9439119 23.6274009 78.6860559 23.6861106 78.4653792 23.7945438 78.1037812 23.8029309 77.8861028 23.8850046 77.7098013 23.9586912 77.6240492 24.0449585 77.5574864 24.1312258 77.3967762 24.3552811 77.3404077 24.438553 77.2264714 24.522424 77.0555668 24.6158802 76.9506255 24.6961567 76.865473 24.7866175 76.7587327 24.8932535 76.6411983 25.0052811 76.53086 25.1131152 76.4193223 25.218553 76.3455635 25.3174009 76.2106389 25.3964793 76.0523273 25.4917327 76.0115501 25.5965714 75.9641765 25.7097972 75.8892184 25.8278157 75.7429002 25.9572166 75.5851883 26.0770323 75.4742503 26.1674931 75.3956941 26.2681382 75.31354 26.3597972 75.1876104 26.4909954 74.9975166 26.6533456 74.8302101 26.7743594 74.7432586 26.8690138 74.6868901 26.9516866 74.6281229 27.1499816 74.5543642 27.2560184 74.4368298 27.3428848 74.2941095 27.4399355 74.2059588 27.5369862 74.1693792 27.6460184 74.1226054 27.8143594 74.0602402 27.918 73.9534998 28.033023 73.8539554 28.1306728 73.6512687 28.2474931 73.5841062 28.3403502 73.546927 28.4511797 73.5091481 28.5404424 73.4671715 28.6398894 73.4353893 28.7261567 73.403607 28.8256037 73.3754228 28.9460184 73.3568332 29.0826083 73.3322469 29.1790599 73.310659 29.2653272 73.2195099 29.4180922 72.9706489 29.8278618 72.9718482 29.9297051 73.0270174 30.020765 73.1151682 30.1789217 73.1457511 30.2717788 73.1253625 30.3885991 73.059999 30.6144516 73.0120258 30.8187373 72.9742469 30.9499355 72.9520593 31.0571705 72.9286724 31.214129 72.9262737 31.3003963 72.9250744 31.4184147 72.9154797 31.5550046 72.6408332 31.4747281 72.3571916 31.3555115 72.1155266 31.420212 72.0183809 31.5406267 71.851674 31.4519631 71.7683206 31.3680922 71.5632352 31.2932074 71.0259353 31.1338525 70.550401 30.9900737 70.1774094 30.8564793 69.9357444 30.7666175 69.6179219 30.6414101 69.3552687 30.5371705 68.3652218 30.1387834 67.9934295 29.9944055 67.800937 29.914129 67.4759186 29.7871244 67.2756305 29.6978618 67.1275132 29.6175853 66.9164312 29.4785991 66.7533223 29.3414101 66.6549772 29.2497512 66.5434395 29.1287373 66.4450945 29.0077235 66.365339 28.8903041 66.3005752 28.7890599 66.249004 28.6932074 66.1854395 28.5608111 66.127272 28.4212258 66.0954898 28.3277696 65.9557678 27.849106 65.891004 27.6705806 65.8490275 27.5825161 65.8010543 27.4848664 65.7338918 27.3626544 65.6577343 27.2422396 65.5461966 27.09247 65.4430543 26.9744516 65.3375132 26.8678157 65.2247762 26.7713641 65.1090409 26.6809032 64.7414462 26.4562488 64.5303642 26.3442212 64.3756506 26.2549585 64.2395266 26.174682 63.8641363 25.9644055 63.5205283 25.7637143 61.7071414 24.7338986 61.3257544 24.5218249 59.6155099 23.551318 59.2401196 23.3488295 58.8857176 23.1804885 58.5936807 23.0552811 58.2290844 22.9144977 58.0084077 22.8366175 57.6342168 22.7174009 57.2342402 22.6167558 56.7365183 22.5089217 56.2615836 22.4364332 55.9473591 22.3974931 55.5437846 22.3675392 54.7564245 22.3244055 53.9060995 22.2842673 52.7367528 22.2225622 52.2042503 22.1908111 51.807272 22.1722396 51.2795668 22.1428848 50.8364144 22.1177235 50.4058549 22.1117327 49.9890878 22.1704424 49.6832586 22.2537143 49.4943642 22.3274009 49.0110342 22.5358802 48.7165987 22.6521014 48.3304144 22.7383687 47.9987997 22.7749124 47.6569906 22.7719171 47.2504178 22.7138065 46.2004044 22.4927465 45.746458 22.3980922 45.3416841 22.3118249 45.0658382 22.2381382 44.8055836 22.1386912 44.5087494 21.9919171 44.3786221 21.9098433 44.2508935 21.823576 44.1099722 21.7145438 44.0182235 21.6354654 43.832927 21.4785069 43.6854094 21.3550968 43.5552821 21.2562488 43.3687863 21.1382304 43.0773491 20.9872627 42.7865116 20.8734378 42.5460459 20.7871705 41.4024848 20.3797972 41.090659 20.2647742 40.841798 20.1659263 40.5719487 20.0521014 40.3278851 19.9358802 39.8433558 19.6878618 39.0961732 19.2505346 38.9270677 19.1528848 38.7351749 19.0450507 38.5354864 18.933023 38.1846824 18.7329309 37.6605752 18.4226083 37.4878717 18.3231613 36.4378583 17.7132995 36.189597 17.5737143 36.0462771 17.4886452 35.842391 17.3712258 35.6894764 17.2831613 35.5209705 17.1843134 35.103004 16.9392903 34.616076 16.6595207 34.3252385 16.4941751 34.0625853 16.3599816 33.5966456 16.1425161 33.3387896 16.0364793 33.0359588 15.9238525 32.2030241 15.6578618 31.7880559 15.5290599 30.5059722 15.1288756 30.2487159 15.0527926 29.4817444 14.810765 29.2790576 14.7364793 28.9198583 14.596894 28.322592 14.3321014 27.9675903 14.1823318 27.7714998 14.107447 26.7088935 13.7348203 26.0540593 13.5083687 25.5095635 13.3220553 24.9326858 13.1165714 24.3941866 12.9326544 24.1183407 12.8350046 23.4041397 12.585788 23.0521363 12.4611797 22.7882838 12.3575392 22.574803 12.2664793 22.1418449 12.0538065 21.9565484 11.9723318 21.7220794 11.8914562 21.3688767 11.8597051 21.0054797 11.920212 20.8231816 11.9903041 20.6474797 12.0915484 20.4657812 12.2137604 20.3296573 12.3012258 20.1617511 12.4006728 19.9962436 12.478553 19.8019521 12.5504424 19.5189102 12.62353 19.1495166 12.6678618 18.656592 12.6936221 18.1960492 12.7139908 17.8122637 12.7343594 16.5217846 12.7948664 15.9880827 12.823023 15.3686288 12.8565714 15.0178248 12.8505806 14.5602804 12.7271705 14.1543072 12.5690138 13.9294328 12.4767558 13.742937 12.3605346 13.6104111 12.2377235 13.4964747 12.0825622 13.4353089 11.9789217 13.3555534 11.84353 13.2961866 11.7536682 13.2182302 11.6500276 13.1258817 11.553576 13.02154 11.4744977 12.8140559 11.3804424 12.4674496 11.3822396 12.1664178 11.5679539 11.9349471 11.6931613 11.5925384 11.7356959 11.2267427 11.6961567 10.9472988 11.6326544 10.6198817 11.5631613 10.3434362 11.4930691 10.164736 11.4193825 9.93986164 11.3409032 9.66041776 11.2827926 9.23105762 11.2869862 8.8100928 11.2875853 8.4383005 11.2869862 8.08389849 11.3073548 7.72709782 11.3061567 7.45544958 11.2516406 7.12083652 11.1575853 6.75743953 11.0671244 6.51457521 10.9928387 6.22793534 10.8185069 5.94189514 10.6369862 5.78358358 10.5309493 5.51013635 10.3422396 5.39739933 10.2589677 5.27446801 10.1181843 5.03879966 9.77311521 4.97283652 9.6736682 4.74436415 9.33878341 4.64362044 9.20578802 4.57645796 9.11532719 4.46851826 8.96915207 4.40075611 8.86491244 4.31740268 8.78463594 4.32339933 8.87090323 4.55427035 8.7139447 4.74436415 8.55878341 4.8720928 8.45694009 5.01061541 8.34431336 5.08677286 8.26283871 5.14913802 8.17896774 5.2180995 8.05735484 5.27686667 7.9423318 5.34163049 7.81952074 5.37641106 7.70929032 5.40339598 7.50320737 5.41658861 7.35403687 5.42918157 7.26776959 5.45136918 7.17431336 5.47535578 7.06767742 5.49394539 6.9796129 5.50533903 6.89334562 5.50114137 6.71242396 5.49994204 6.63035023 5.49874271 6.52790783 5.49154673 6.42007373 5.44837085 6.33260829 5.48435075 6.24514286 5.47535578 5.86352995 5.4783541 5.77606452 5.48435075 5.69399078 5.49634405 5.41661751 5.48674941 5.12007373 5.4783541 4.94214747 5.45376784 4.85408295 5.45976449 4.75882949 5.4681598 4.45030415 5.47415645 4.22564977"></polyline>
                    <polygon id="Fill-23" fill="#FFFFFF" points="0.822375209 7.94400922 8.26601675 7.94400922 8.26601675 0.50764977 0.822375209 0.50764977"></polygon>
                </g>
                <text id="327km" font-family="STHeitiTC-Medium, Heiti TC" font-size="20" font-weight="bold" letter-spacing="1" fill="#FFFFFF">
                    <tspan x="97" y="116">327k</tspan>
                    <tspan x="144.28" y="116">m</tspan>
                </text>
                <text id="雅加達" font-family="SourceHanSansTC-Medium, Source Han Sans TC" font-size="20" font-weight="400" letter-spacing="1" fill="#FFFFFF">
                    <tspan x="0" y="23">雅加達</tspan>
                </text>
                <text id="雅加達-copy" font-family="SourceHanSansTC-Medium, Source Han Sans TC" font-size="20" font-weight="400" letter-spacing="1" fill="#FFFFFF">
                    <tspan x="239" y="154">直葛</tspan>
                </text>
            </g>
        </g>
    </g>
</svg>