<svg id="圖層_1" xmlns="http://www.w3.org/2000/svg" width="124.25" height="50" viewBox="0 0 124.25 50"><path fill="#FFF" d="M41.08 35.9l-12.883-3.022V16.774l12.882-3.557z"/><path fill="#FFF" d="M8.47 42.074l20.13-9.196V16.774L8.47 7.58z"/><g fill="#FFF"><path d="M111.646 13.54s.664-.294.83-1.014h1.475v1.236h-2.377l.073-.222zM116.275 17.493s.664-.295.83-1.015h1.475v1.235h-2.377l.072-.22zM113.49 20.99s.663-.295.83-1.014h1.475v1.235h-2.38l.075-.22z"/><path d="M103.663 13.526h10.282v.462h-10.282zM101.61 17.467h16.976v.46H101.61zM107.11 20.946h8.003v.5h-8.004zM106.232 24.46h8.945v.462h-8.945zM106.232 27.626h8.945v.462h-8.945z"/><path d="M105.506 21.754h1.443v8.24h-1.444zM114.316 21.05h1.484v8.976h-1.484zM108.35 10.816h1.507v7.096h-1.506z"/><path d="M115.613 11.967s-3.877 7.695-15.36 12.27l.147.41s11.19-3.178 16.583-11.834l-1.37-.846z"/><g><path d="M92.536 13.63s.663-.295.83-1.014h1.474v1.235h-2.38l.076-.22zM92.02 25.06s.664-.297.83-1.015h1.476v1.234h-2.38l.074-.22z"/><path d="M82.78 13.637h12.052v.46H82.78zM84.086 15.274h9.008v.497h-9.008zM84.107 17.045h9.008v.462h-9.008zM84.086 18.683h9.008v.462h-9.008zM84.086 20.365h9.008v.462h-9.008zM76.112 17.253h4.603v.46h-4.603z"/><path d="M79.455 17.222h1.508v4.007h-1.508zM93.01 13.635s.525-.233.657-.803h1.165v.977h-1.88l.06-.175z"/><path d="M79.14 17.235s.526-.234.657-.802h1.165v.977h-1.88l.06-.175zM77.256 24.973h17.068v.46H77.256z"/><path d="M92.488 24.97s.523-.23.655-.8h1.165v.976h-1.88l.06-.175zM91.622 15.303s.55-.244.687-.84h1.22v1.023h-1.97l.062-.183zM79.436 17.25s.44-.196.55-.673h.978v.82h-1.576l.048-.148zM77.562 12.174l.24-.37s2.186.523 3.17 2.425l-1.138.808s-1.245-2.36-2.272-2.864zM84.447 10.893l.21-.254s1.442.16 2.466 1.697l-1.256.674s-.465-1.395-1.42-2.117zM89.914 11.087s-.69 2.29-.954 2.72h.405s1.384-1.432 2.314-2.673l-1.766-.047zM76.6 22.124l2.972-1.355.22.37-2.23 2.623zM80.885 20.378s.69 1.698 4.947 1.8c0 0 5.56.29 8.364-.204v1.202s-11.804 1.312-13.508-2.405l.197-.392z"/><path d="M83.433 14.63h1.464v6.782h-1.464zM92.04 15.298h1.485v6.14H92.04zM82.297 26.68l.24-.242s1.705.393 2.71 1.88l-1.135.983s-1.356-2.47-1.815-2.62zM88.88 23.843h1.484v4.922c0 .486-.116.957-.515 1.25-.225.163-.673.387-.96.303-.377-.108-.308-.59-.51-.843-.213-.265-.725-.33-1.043-.33l.012-.31h.91s.638.096.638-.525-.017-4.467-.017-4.467z"/></g><g><path d="M51.332 14.245h9.3v.458h-9.3zM62.126 12.432h5.67v.458h-5.67zM62.472 20.056h6.567v.422H62.47z"/><path d="M54.866 11.163h1.494v6.773h-1.494zM61.57 11.372h1.387v18.685H61.57zM54.866 21.438h1.494v8.73h-1.494zM58.353 14.242s.657-.292.82-1.004h1.46v1.223H58.28l.073-.218zM58.353 24.735s.657-.292.82-1.005h1.46v1.224H58.28l.073-.22zM66.31 12.48s.656-.29.82-1.003h1.46V12.7h-2.354l.073-.22zM58.424 21.19s.656-.292.82-1.005h1.46v1.224h-2.353l.074-.22zM58.393 17.658s.658-.293.822-1.004h1.46v1.222H58.32l.073-.218z"/><path d="M50.593 17.664h10.08v.457h-10.08zM50.65 21.175h10.046v.457H50.65z"/><path d="M58.89 21.152s.52-.23.65-.794h1.154v.967h-1.862l.06-.173zM51.338 24.65h9.298v.457h-9.298zM52.725 18.63l.317-.187s1.198 1.21 1.73 2.308l-1.167.506s-.59-2.322-.88-2.626zM57.17 18.298l1.774.708s-1.66 1.774-2.208 2.207l-.23-.144s.46-1.415.663-2.772zM67.142 12.43v5.061s.077.675-.493.675h-.595v.333s.854.054.854.546c0 .49 1.68.853 1.68-1.554v-5.113l-1.448.054zM67.543 20.04s-.506 5.993-4.186 10.163l.154.253s4.787-4.13 5.564-10.286l-1.53-.13z"/><path d="M63.82 21.04s1.04 5.513 6.147 7.786L68.8 30.318s-4.353-2.136-5.305-9.215l.325-.063z"/></g><g><path d="M53.112 37.818h.543v-3.34H52.64v.673h-.532v-1.173h3.705v1.174h-.532v-.672h-1.014v3.34h.544v.477h-1.7v-.477zM57.537 37.818h.538v-3.37h-.538v-.47h1.694v.47h-.543v1.438h2.238V34.45h-.545v-.473h1.693v.472h-.538v3.368h.538v.477H60.38v-.477h.544v-1.432h-2.238v1.432h.544v.477h-1.694v-.477zM63.943 37.818h.538v-3.37h-.537v-.47h3.125v1.002h-.532v-.502h-1.443v1.39h1.528v.5h-1.527v1.426h1.547v-.52h.532v1.02h-3.23v-.476zM76.098 37.818h.537v-3.37h-.537v-.47h1.87c.306 0 .558.012.796.092.45.152.752.53.752 1.118 0 .623-.343 1.07-.895 1.21v.014s.112.06.186.2l.612 1.064c.066.117.146.142.3.142h.128v.477h-.367c-.368 0-.454-.067-.6-.324l-.667-1.18c-.11-.183-.19-.237-.453-.237h-.514v1.266h.533v.476h-1.683v-.478zm2.017-1.767c.47 0 .783-.305.783-.81 0-.337-.135-.57-.404-.68a1.502 1.502 0 0 0-.532-.08h-.716v1.57h.87zM81.58 37.818h.54v-3.37h-.54v-.47h3.125v1.002h-.53v-.502H82.73v1.39h1.528v.5H82.73v1.426h1.547v-.52h.53v1.02H81.58v-.476zM86.666 37.818h.54v-3.37h-.54v-.47h2.013c.262 0 .524.018.738.116.446.188.734.647.734 1.222 0 .605-.318 1.096-.814 1.266-.2.074-.408.094-.647.094h-.873v1.143h.544v.476h-1.693v-.478zm1.95-1.645c.196 0 .35-.03.483-.085.274-.122.434-.398.434-.77 0-.35-.14-.606-.386-.735-.134-.072-.316-.104-.525-.104h-.807v1.693h.8zM94.07 33.904c1.247 0 2.22.96 2.22 2.2 0 1.272-.973 2.264-2.22 2.264-1.254 0-2.22-.99-2.22-2.263 0-1.24.966-2.2 2.22-2.2zm0 3.92c.874 0 1.584-.746 1.584-1.72 0-.94-.71-1.662-1.584-1.662-.88 0-1.59.722-1.59 1.663 0 .973.71 1.718 1.59 1.718zM98.086 37.818h.54v-3.37h-.54v-.47h1.87c.307 0 .558.012.796.092.452.152.752.53.752 1.118 0 .623-.343 1.07-.893 1.21v.014s.11.06.185.2l.61 1.064c.067.117.147.142.3.142h.13v.477h-.368c-.367 0-.453-.067-.6-.324l-.666-1.18c-.108-.183-.188-.237-.45-.237h-.515v1.266h.532v.476h-1.682v-.478zm2.018-1.767c.47 0 .783-.305.783-.81 0-.337-.135-.57-.404-.68a1.5 1.5 0 0 0-.53-.08h-.717v1.57h.868zM104.4 37.818h.545v-3.34h-1.016v.673h-.532v-1.173h3.705v1.174h-.532v-.672h-1.014v3.34h.544v.477h-1.7v-.477zM108.827 37.818h.538v-3.37h-.538v-.47h3.124v1.002h-.53v-.502h-1.443v1.39h1.527v.5h-1.527v1.426h1.547v-.52h.53v1.02h-3.227v-.476zM113.912 37.818h.54v-3.37h-.54v-.47h1.87c.307 0 .558.012.796.092.453.152.752.53.752 1.118 0 .623-.342 1.07-.893 1.21v.014s.11.06.184.2l.612 1.064c.067.117.147.142.3.142h.128v.477h-.367c-.366 0-.452-.067-.598-.324l-.667-1.18c-.11-.183-.19-.237-.452-.237h-.515v1.266h.533v.476h-1.682v-.478zm2.018-1.767c.472 0 .783-.305.783-.81 0-.337-.135-.57-.403-.68a1.502 1.502 0 0 0-.532-.08h-.716v1.57h.868z"/></g></g></svg>