<svg id="圖層_1" xmlns="http://www.w3.org/2000/svg" viewBox="0 0 55 55"><style>.st0{fill:#fff}</style><path class="st0" d="M11.2 31.6V16.7c0-.8.7-1.5 1.5-1.5h14.9c.8 0 1.5.7 1.5 1.5v14.9c0 .3-.2.5-.5.5H11.7c-.3 0-.5-.2-.5-.5zm12 5.1c0 1.7-1.4 3.1-3.1 3.1S17 38.4 17 36.7c0-1.7 1.4-3.1 3.1-3.1s3.1 1.4 3.1 3.1zm-1.5 0c0-.9-.7-1.6-1.6-1.6-.9 0-1.6.7-1.6 1.6 0 .9.7 1.6 1.6 1.6.9 0 1.6-.7 1.6-1.6zm-4.3-3.1h-7c-.3 0-.5.2-.5.5v1.5c0 .3.2.5.5.5H16c.2-1 .7-1.9 1.4-2.5zm22.1 3.1c0 1.7-1.4 3.1-3.1 3.1-1.7 0-3.1-1.4-3.1-3.1 0-1.7 1.4-3.1 3.1-3.1 1.7 0 3.1 1.4 3.1 3.1zm-1.5 0c0-.9-.7-1.6-1.6-1.6-.9 0-1.6.7-1.6 1.6 0 .9.7 1.6 1.6 1.6.9 0 1.6-.7 1.6-1.6zm7-2.6v1.5c0 .3-.2.5-.5.5h-4.1c-.3-2-2-3.5-4.1-3.5-2.1 0-3.8 1.5-4.1 3.5H24c-.1-1-.7-1.9-1.4-2.5h7.7V19.3c0-.6.4-1 1-1H36c1.3 0 2.6.7 3.3 1.8l3 4.5c.4.7.7 1.4.7 2.2v6.8h1.2c.6 0 .8.2.8.5zm-5-9.4l-2.4-3.5c-.1-.1-.2-.2-.4-.2h-3.8c-.3 0-.5.2-.5.5V25c0 .3.2.5.5.5h6.2c.4 0 .6-.5.4-.8zm0 0"/></svg>