<svg id="圖層_1" xmlns="http://www.w3.org/2000/svg" width="58.999" height="50" viewBox="0 0 58.999 50"><path d="M7.217 24.88C7.217 12.574 17.191 2.6 29.5 2.6c12.305 0 22.281 9.975 22.281 22.28 0 12.31-9.977 22.284-22.281 22.284-12.309 0-22.283-9.975-22.283-22.284z" fill="#ecf0f1"/><path d="M31.297 36.6V26.017h3.551l.533-4.125h-4.084V19.26c0-1.194.33-2.007 2.043-2.007l2.184-.002v-3.688c-.379-.05-1.674-.162-3.182-.162-3.148 0-5.305 1.923-5.305 5.453v3.038h-3.561v4.125h3.561V36.6h4.26z" fill="#333"/></svg>