<?xml version="1.0" encoding="UTF-8" standalone="no"?><!DOCTYPE svg PUBLIC "-//W3C//DTD SVG 1.1//EN" "http://www.w3.org/Graphics/SVG/1.1/DTD/svg11.dtd"><svg width="100%" height="100%" viewBox="0 0 193 196" version="1.1" xmlns="http://www.w3.org/2000/svg" xmlns:xlink="http://www.w3.org/1999/xlink" xml:space="preserve" style="fill-rule:evenodd;clip-rule:evenodd;stroke-linejoin:round;stroke-miterlimit:1.41421;"><g id="Page-1"><path id="Fill-1" d="M117.349,94.288c0.176,-0.013 0.378,0 0.58,0.037c4.15,0.907 9.978,3.803 7.695,8.714c-0.971,2.065 -3.759,2.317 -5.765,1.536c-2.435,-0.957 -5.777,-2.417 -8.54,-1.536c-1.728,0.579 -2.876,1.587 -4.402,2.418c-4.214,2.266 -7.834,-1.209 -6.118,-5.062c2.384,-5.365 11.668,-6.573 16.55,-6.107m-5.323,-19.027c0,0.78 0.58,1.662 1.387,1.813c1.728,0.315 2.46,1.448 2.662,2.808c-3.028,-1.461 -6.623,-1.65 -9.398,0.768c-0.063,0.038 -0.114,0.088 -0.164,0.139c-0.101,-1.663 0.479,-2.783 1.375,-4.168c0.946,-1.461 0.391,-4.571 0.038,-6.876c1.425,-0.151 2.838,-0.289 4.251,-0.428c-0.278,0.025 -0.139,5.364 -0.151,5.944m14.443,-10.982c0.05,-0.076 -0.023,-0.276 0.003,-0.351c1.665,-0.984 3.875,-1.738 5.136,-2.015l0,-0.013c0,-0.277 0.25,-0.554 0.59,-0.718c1.06,-0.503 2.39,-0.188 3.26,0.592c0.984,0.063 2.008,0.24 3.005,0.491c2.46,0.63 -0.377,2.368 -1.374,2.695c-0.366,0.126 -0.738,0.239 -1.128,0.34c-0.215,0.353 -0.489,0.893 -0.842,1.094c-0.997,0.542 -2.053,-0.177 -2.784,-0.177l-0.013,0c-2.094,-1.259 -6.522,-0.981 -5.853,-1.938m4.264,-16.595c1.501,-0.277 3.027,-0.304 4.541,-0.354c0.555,-0.025 1.097,-0.002 1.652,-0.002l1.123,0c2.283,0 2.952,0.795 2.006,2.986c-3.608,0.718 -7.632,-0.995 -11.353,-0.315c-1.11,0.216 -2.99,1.034 -4.428,1.261c0.353,-2.405 4.554,-3.224 6.459,-3.576m-47.153,18.586c0.051,-0.076 0.088,-0.151 0.114,-0.227c1.728,-1.007 3.557,-1.637 5.436,-1.927c0.152,-0.289 0.341,-0.566 0.568,-0.818c0.379,-0.416 0.87,-0.365 1.198,-0.088c0.833,-0.176 1.741,0.088 2.258,0.843c0.808,0.089 1.628,0.24 2.448,0.454c2.459,0.655 -0.391,2.367 -1.388,2.72c-0.315,0.113 -0.631,0.201 -0.959,0.289c-0.202,0.315 -0.466,0.592 -0.82,0.794c-1.034,0.604 -2.169,0.428 -2.914,-0.315c-2.056,-0.151 -6.622,-0.743 -5.941,-1.725m-3.343,-15.413c0.429,-1.763 2.233,-2.368 3.81,-2.544c2.447,-0.277 5.008,0.227 7.379,0.806c1.451,0.428 5.298,1.914 6.207,3.979c-1.855,-0.478 -4.92,-1.599 -6.093,-1.788c-2.46,-0.378 -4.844,-0.428 -7.304,-0.025c-0.492,0.075 -4.39,1.133 -3.999,-0.428m79.975,6.371c0.026,-3.349 -0.655,-6.573 -4.15,-7.605c-0.479,-0.139 -0.741,-0.202 -1.196,-0.189c-0.227,0.441 -0.552,0.869 -0.552,1.297l0,0.012c0,0.139 -0.356,0.278 -0.444,0.416c-0.618,0.995 -2.089,1.108 -2.922,0.504c-0.353,-0.24 -0.653,-0.605 -0.729,-1.083c-0.025,-0.114 -0.061,-0.239 -0.049,-0.378c0.58,-10.855 -12.349,-10.074 -20.068,-11.232c-7.318,-1.058 -16.216,-3.854 -23.545,-2.015c-6.219,1.561 -11.659,2.896 -18.03,3.526c-9.41,0.969 -14.394,10.527 -15.428,19.09c0,0.138 -0.027,0.277 -0.052,0.403c-0.062,0.302 -0.202,0.579 -0.404,0.818c-0.479,0.579 -1.248,0.907 -1.93,0.756c-0.92,0.126 -1.841,-0.114 -2.22,-0.756c-0.05,-0.05 -0.075,-0.113 -0.088,-0.176c-0.038,-0.063 -0.063,-0.126 -0.076,-0.202c-0.012,0 -0.012,0 -0.025,0.013c-0.378,-0.743 -0.782,-1.511 -1.198,-2.317c-0.126,-0.239 -0.202,-0.479 -0.227,-0.718c-0.013,0 -0.013,-0.012 -0.013,-0.012c-0.05,-0.076 -0.101,-0.152 -0.139,-0.227c-1.968,1.171 -3.595,3.375 -3.696,5.515c-0.214,4.408 3.646,11.812 8.906,10.452c0.315,2.418 0.656,4.835 0.997,7.253c1.286,9.041 3.342,17.579 8.224,25.411c3.784,6.07 8.919,12.164 15.2,15.715c1.047,0.592 2.208,1.071 3.432,1.474c1.198,0.403 2.472,0.73 3.784,0.969c-0.025,2.632 -0.101,5.251 -0.215,7.883c1.148,0.73 2.158,1.662 3.305,2.569c2.12,1.687 4.34,3.11 6.699,4.357c0.908,-0.907 2.119,-1.675 3.014,-2.418c1.754,-1.486 3.52,-2.946 5.324,-4.382c0.921,-0.73 2.018,-1.436 3.191,-1.776c0.088,-2.279 0.202,-4.571 0.366,-6.837c1.362,-0.479 2.662,-1.108 3.885,-1.826c9.549,-5.704 15.062,-18.271 18.48,-28.068c2.334,-6.724 2.927,-13.701 3.797,-20.702c0.139,-1.158 0.29,-2.317 0.429,-3.475c1.438,0.516 3.116,0.327 4.731,-0.428c4.124,-1.965 3.62,-7.959 3.632,-11.611" style="fill:#4e91ff;"/><path id="Fill-3" d="M64.167,46.487c0.504,0.567 0.996,1.146 1.475,1.726c0.316,0.377 0.568,0.768 0.757,1.158c0.089,-0.05 0.164,-0.113 0.24,-0.201c0.227,-0.24 0.454,-0.479 0.694,-0.706c2.901,-2.795 6.597,-4.47 9.145,-7.303c0.921,-1.033 1.691,-2.191 2.22,-3.627c1.312,-3.576 0.177,-7.983 0.682,-11.685c0.504,-3.753 4.036,-5.44 7.341,-3.979c1.034,0.453 2.081,5.288 2.561,6.9c0.277,1.007 1.312,1.587 2.321,1.31c1.123,-0.29 1.942,-0.831 2.51,-1.524c1.88,-2.292 1.224,-6.309 0.744,-9.306c-0.794,-5.137 -6.13,-7.051 -10.798,-8.55c-1.147,-0.365 -2.258,-0.718 -3.241,-1.07c-0.694,-0.252 -1.388,-0.453 -2.069,-0.592c-4.97,-0.982 -9.423,1.108 -12.564,5.301c-2.145,2.846 -2.712,6.951 -4.289,10.125c-1.917,3.853 -6.004,6.787 -9.36,9.557c0.845,0.919 1.716,1.826 2.573,2.733c3.028,3.173 6.093,6.321 8.969,9.62c0.025,0.038 0.051,0.076 0.089,0.113" style="fill:#4e91ff;"/><g id="Group-7"><path id="Fill-5" d="M161.385,142.44c-1.047,-2.682 -3.658,-4.143 -7.518,-5.465c-0.113,-0.037 -0.227,-0.075 -0.34,-0.113c-0.101,-0.038 -0.215,-0.063 -0.316,-0.076c-5.588,-1.372 -12.475,-2.38 -18.013,-0.327c0.315,0.844 0.315,1.713 -0.139,2.544c-1.085,1.989 -2.863,3.991 -4.617,5.817c-0.82,4.571 -1.412,9.218 -2.131,13.827c-1.59,10.099 -2.599,20.045 -3.305,30.22c-0.164,2.417 -0.543,5.791 -0.518,7.05l27.815,0c0.076,0 0.139,-0.641 0.227,-1.006c1.148,-5.087 1.451,-10.275 2.22,-15.413c1.615,-10.727 5.235,-20.927 6.951,-31.605c0.101,-0.63 0.164,-1.184 0.189,-1.738c0.088,-1.473 -0.088,-2.669 -0.505,-3.715" style="fill:#ff6496;"/></g><g id="Group-10"><path id="Fill-8" d="M94.239,143.209c-0.429,-0.328 -0.858,-0.643 -1.287,-0.957c-1.501,-1.083 -2.649,-2.431 -2.762,-3.904c-3.179,-0.617 -7.48,0.466 -9.688,0.806c-4.806,0.768 -11.895,0.743 -14.519,4.961c-0.038,0.063 -0.088,0.139 -0.126,0.214c-0.48,0.844 -0.782,1.649 -0.871,2.858c-1.11,16.281 3.406,33.62 7.001,48.73l29.442,0c-1.45,-8.814 -2.825,-18.648 -4.112,-28.079c-1.123,-8.198 -1.627,-16.457 -3.078,-24.629" style="fill:#ff6496;"/></g><g id="Group-13"><path id="Fill-11" d="M107.497,24.224c-0.265,1.725 -1.287,3.123 -2.687,4.118c-0.631,0.441 -2.636,-0.29 -1.955,-0.542c1.097,-0.403 1.602,-0.705 2.043,-1.397c0.53,-0.844 0.681,-1.675 0.833,-2.62c0.126,-0.755 0.076,-1.498 0.769,-1.309c0.82,0.214 1.123,0.982 0.997,1.75m-5.714,-4.13c-0.114,-1.02 -0.429,-1.952 0.517,-1.952c1.122,0 1.778,0.882 1.892,1.889c0.265,2.292 -0.543,4.432 -1.981,6.195c-0.656,0.781 -3.469,0.554 -2.686,0c1.261,-0.906 1.791,-1.46 2.106,-2.506c0.379,-1.246 0.29,-2.379 0.152,-3.626m36.304,-13.814c-17.875,-9.608 -41.855,-6.032 -59.338,2.758c0.681,0.138 1.375,0.34 2.068,0.592c0.984,0.352 2.094,0.705 3.242,1.07c4.668,1.499 10.004,3.413 10.798,8.55c0.48,2.997 1.136,7.014 -0.744,9.306c-0.568,0.692 -1.388,1.234 -2.51,1.524c-1.009,0.277 -2.044,-0.303 -2.321,-1.31c-0.48,-1.612 -1.527,-6.447 -2.561,-6.901c-3.305,-1.46 -6.837,0.227 -7.342,3.98c-0.504,3.702 0.631,8.109 -0.681,11.685c-0.53,1.436 -1.299,2.594 -2.22,3.627c-2.548,2.833 -6.244,4.508 -9.145,7.303c-0.24,0.227 -0.467,0.466 -0.694,0.705c-0.076,0.089 -0.152,0.152 -0.24,0.202c0.971,2.002 0.429,4.181 -0.668,6.095c0.29,0.528 0.618,1.083 0.996,1.687c0.038,0.075 0.088,0.151 0.139,0.227c0,0 0,0.012 0.013,0.012c0.025,0.239 0.1,0.479 0.227,0.718c0.416,0.806 0.82,1.574 1.198,2.317c0.013,-0.013 0.013,-0.013 0.025,-0.013c0.013,0.076 0.038,0.139 0.076,0.202c0.025,0.063 0.063,0.126 0.088,0.176c0.379,0.642 1.299,0.882 2.22,0.756c0.681,0.151 1.451,-0.177 1.93,-0.756c0.202,-0.239 0.341,-0.516 0.404,-0.818c0.025,-0.126 0.05,-0.265 0.05,-0.403c1.035,-8.563 6.017,-18.121 15.428,-19.09c6.37,-0.63 11.807,-1.965 18.026,-3.526c7.329,-1.839 16.222,0.957 23.538,2.015c7.72,1.158 20.637,0.377 20.057,11.232c-0.013,0.139 0,0.264 0.025,0.378c0.076,0.478 0.328,0.843 0.681,1.083c0.833,0.604 2.4,0.491 3.018,-0.504c0.088,-0.138 0.444,-0.277 0.444,-0.416l0,-0.012c0,-0.428 0.325,-0.856 0.552,-1.297c8.868,-16.471 -1.276,-34.83 -16.779,-43.154" style="fill:#fff000;"/></g><path id="Fill-14" d="M186.589,166.125c-1.791,-5.679 -3.318,-10.954 -7.758,-15.109c-4.112,-3.879 -10.962,-7.581 -16.512,-8.664c-0.341,-0.063 -0.656,-0.025 -0.934,0.063c0.417,1.045 0.593,2.279 0.505,3.753c-0.025,0.554 -0.088,1.139 -0.189,1.769c-1.716,10.678 -5.336,20.932 -6.951,31.661c-0.769,5.137 -1.072,10.225 -2.22,15.312c-0.088,0.365 -0.151,1.007 -0.227,1.007l40.013,0c-0.921,-10.074 -2.687,-20.146 -5.727,-29.792" style="fill:#fff;"/><path id="Fill-17" d="M138.49,62.265c-0.996,-0.251 -1.993,-0.428 -2.977,-0.491c0.202,0.177 0.379,0.391 0.53,0.617c0.53,0.831 0.454,2.04 -0.075,2.909c0.391,-0.101 0.769,-0.214 1.135,-0.34c0.996,-0.327 3.847,-2.065 1.387,-2.695" style="fill:#fff;"/><path id="Fill-19" d="M112.303,142.453c0.013,0 0.013,0 0.013,0.013l0,0.025c-0.013,-0.013 -0.026,-0.025 -0.013,-0.038m-1.905,8.361c-0.05,-0.038 -0.101,-0.063 -0.151,-0.101c0.101,0.026 0.189,0.051 0.29,0.076c-0.038,0.013 -0.088,0.025 -0.126,0.038c0,-0.013 -0.013,-0.013 -0.013,-0.013m18.266,-20.273c-0.227,-0.101 -0.429,-0.202 -0.618,-0.277c-1.047,-0.466 -2.132,-0.416 -3.154,-0.089c-1.173,0.34 -2.27,1.046 -3.191,1.776c-1.804,1.436 -3.57,2.896 -5.324,4.382c-0.895,0.743 -2.106,1.511 -3.014,2.418c-2.359,-1.247 -4.579,-2.67 -6.699,-4.357c-1.147,-0.907 -2.157,-1.839 -3.305,-2.569c-0.756,-0.491 -1.576,-0.881 -2.535,-1.133c-0.391,-0.101 -0.795,-0.151 -1.198,-0.151c-3.129,0 -6.295,2.858 -8.212,4.885c-0.946,0.995 -1.3,1.99 -1.224,2.922c0.114,1.473 1.261,2.821 2.763,3.903c0.428,0.315 0.857,0.63 1.286,0.957c1.451,8.173 1.955,16.432 3.078,24.63c1.287,9.431 2.662,19.265 4.112,28.079l23.06,0c-0.026,-1.259 0.353,-4.633 0.517,-7.05c0.706,-10.175 1.715,-20.223 3.305,-30.322c0.719,-4.609 1.312,-9.204 2.132,-13.775c1.753,-1.826 3.532,-3.803 4.616,-5.793c0.454,-0.831 0.454,-1.687 0.139,-2.531c-0.883,-2.505 -4.415,-4.848 -6.534,-5.905" style="fill:#fff;"/><path id="Fill-22" d="M132.322,65.716c-0.24,-0.24 -0.454,-0.529 -0.606,-0.857c-0.441,-0.906 -0.328,-1.876 0.177,-2.657c-0.038,-0.1 -0.063,-0.188 -0.063,-0.289c-1.816,0.277 -3.583,0.906 -5.248,1.889c-0.025,0.075 -0.063,0.151 -0.113,0.226c-0.669,0.957 3.759,1.524 5.853,1.688" style="fill:#fff;"/><path id="Fill-24" d="M93.255,67.516c0.328,-0.088 0.644,-0.176 0.959,-0.289c0.996,-0.353 3.847,-2.065 1.387,-2.72c-0.819,-0.214 -1.639,-0.365 -2.447,-0.454c0.051,0.076 0.101,0.164 0.152,0.265c0.466,0.944 0.517,2.267 -0.051,3.198" style="fill:#fff;"/><path id="Fill-26" d="M89.13,64.117c-1.879,0.289 -3.708,0.919 -5.436,1.926c-0.026,0.076 -0.064,0.151 -0.114,0.227c-0.681,0.982 3.885,1.574 5.941,1.725c-0.252,-0.252 -0.454,-0.567 -0.593,-0.944c-0.365,-0.983 -0.264,-2.04 0.202,-2.934" style="fill:#fff;"/><path id="Fill-28" d="M64.987,147.186c0.088,-1.209 0.391,-2.114 0.87,-2.958c0.038,-0.075 0.088,-0.1 0.126,-0.163c-15.301,-10.175 -21.419,-26.847 -33.264,-42.524c7.606,-9.168 14.368,-18.939 21.079,-28.761c3.683,-5.415 7.379,-10.823 11.176,-16.137c0.277,-0.378 0.53,-0.777 0.757,-1.18c1.097,-1.914 1.64,-4.091 0.668,-6.093c-0.189,-0.391 -0.441,-0.781 -0.757,-1.159c-0.479,-0.579 -0.971,-1.157 -1.475,-1.724c-0.038,-0.038 -0.064,-0.075 -0.089,-0.113c-2.876,-3.299 -5.941,-6.447 -8.969,-9.621c-0.857,-0.906 -1.728,-1.813 -2.573,-2.732c-0.151,-0.151 -0.29,-0.315 -0.441,-0.466c-2.094,-2.242 -4.352,-1.461 -6.131,0.541c-4.188,4.722 -7.518,10.616 -11.151,15.778c-4.478,6.347 -8.906,12.719 -13.535,18.939c-6.459,8.714 -14.053,17.541 -18.96,27.401c-0.668,1.335 -1.286,2.695 -1.841,4.08c-1.464,3.626 0.769,9.394 2.308,12.542c2.788,5.742 7.19,10.88 10.899,16.068c8.111,11.333 16.903,22.187 24.131,34.099c3.81,6.297 2.851,15.212 2.851,22.314c0,0.932 -0.013,1.661 -0.038,2.593c-0.076,2.745 -0.227,5.489 -0.227,8.007l31.586,0c-3.595,-15.111 -8.111,-32.449 -7,-48.731" style="fill:#fff;"/><path id="Fill-30" d="M138.049,47.328l-1.123,0c-0.555,0 -1.097,-0.024 -1.652,0.002c-1.514,0.05 -3.04,0.102 -4.541,0.379c-1.905,0.352 -6.106,1.146 -6.459,3.551c1.438,-0.227 3.318,-1.064 4.428,-1.278c3.721,-0.68 7.745,1.052 11.353,0.336c0.946,-2.193 0.277,-2.99 -2.006,-2.99" style="fill:#4d4d4d;"/><path id="Fill-32" d="M135.513,61.774c-0.87,-0.78 -2.255,-1.095 -3.315,-0.592c-0.34,0.164 -0.59,0.441 -0.59,0.718l0,0.013c0,0.101 0.136,0.189 0.174,0.289c-0.505,0.781 -0.563,2.001 -0.121,2.908c0.151,0.327 0.421,-0.152 0.661,1.107l0.013,0c0.731,0 1.791,0.719 2.787,0.177c0.354,-0.201 0.631,-0.617 0.845,-0.968c0.53,-0.869 0.606,-2.141 0.076,-2.972c-0.151,-0.226 -0.328,-0.503 -0.53,-0.68" style="fill:#4d4d4d;"/><path id="Fill-34" d="M117.929,94.325c-0.202,-0.037 -0.404,-0.05 -0.58,-0.037c-4.882,-0.466 -14.166,0.742 -16.55,6.107c-1.716,3.853 1.904,7.328 6.118,5.062c1.526,-0.831 2.674,-1.839 4.402,-2.418c2.763,-0.881 6.105,0.579 8.54,1.536c2.006,0.781 4.794,0.529 5.765,-1.536c2.283,-4.911 -3.545,-7.807 -7.695,-8.714" style="fill:#4d4d4d;"/><path id="Fill-36" d="M106.513,80.789c0.05,-0.051 0.101,-0.101 0.164,-0.139c2.775,-2.418 6.37,-2.229 9.398,-0.768c-0.202,-1.36 -0.934,-2.493 -2.662,-2.808c-0.807,-0.151 -1.388,-1.033 -1.388,-1.813c0.013,-0.58 -0.126,-5.919 0.152,-5.944c-1.413,0.139 -2.826,0.277 -4.251,0.428c0.353,2.305 0.908,5.415 -0.038,6.876c-0.896,1.385 -1.476,2.505 -1.375,4.168" style="fill:#4d4d4d;"/><path id="Fill-38" d="M112.303,142.453c-0.013,0.013 0,0.025 0.013,0.038l0,-0.025c0,-0.013 0,-0.013 -0.013,-0.013" style="fill:#4d4d4d;"/><path id="Fill-40" d="M104.81,28.342c1.4,-0.995 2.422,-2.393 2.687,-4.118c0.126,-0.768 -0.177,-1.536 -0.997,-1.75c-0.693,-0.189 -0.643,0.554 -0.769,1.309c-0.152,0.945 -0.303,1.776 -0.833,2.62c-0.441,0.692 -0.946,0.994 -2.043,1.397c-0.681,0.252 1.324,0.983 1.955,0.542" style="fill:#4d4d4d;"/><path id="Fill-42" d="M102.212,26.226c1.438,-1.763 2.245,-3.903 1.98,-6.195c-0.114,-1.007 -0.769,-1.889 -1.892,-1.889c-0.946,0 -0.631,0.932 -0.517,1.952c0.138,1.247 0.227,2.38 -0.152,3.626c-0.315,1.046 -0.845,1.6 -2.106,2.506c-0.782,0.554 2.031,0.781 2.687,0" style="fill:#4d4d4d;"/><path id="Fill-44" d="M93.154,64.053c-0.517,-0.755 -1.425,-1.019 -2.258,-0.843c-0.328,-0.277 -0.82,-0.328 -1.198,0.088c-0.227,0.252 -0.416,0.529 -0.568,0.818c-0.466,0.895 -0.567,1.952 -0.202,2.934c0.139,0.378 0.341,0.693 0.593,0.945c0.745,0.743 1.88,0.919 2.914,0.315c0.353,-0.202 0.618,-0.479 0.82,-0.794c0.568,-0.931 0.517,-2.254 0.051,-3.198c-0.051,-0.101 -0.101,-0.189 -0.152,-0.265" style="fill:#4d4d4d;"/><path id="Fill-46" d="M91.426,49.119c-2.371,-0.579 -4.932,-1.083 -7.379,-0.806c-1.577,0.176 -3.381,0.781 -3.81,2.544c-0.391,1.561 3.507,0.503 3.999,0.428c2.46,-0.403 4.844,-0.353 7.304,0.025c1.173,0.189 4.238,1.31 6.093,1.788c-0.909,-2.065 -4.756,-3.551 -6.207,-3.979" style="fill:#4d4d4d;"/><path id="Fill-48" d="M113.227,144.143c-0.051,0.002 -0.105,0.016 -0.163,0.04c-0.414,0.178 -5.216,7.833 -4.313,7.945c0.258,0 0.859,-0.586 1.572,-1.364c0.025,0.016 0.051,0.031 0.076,0.05c0,0 0.012,0 0.012,0.013c0.038,-0.013 0.089,-0.025 0.127,-0.038c-0.067,-0.016 -0.129,-0.033 -0.192,-0.05c0.858,-0.937 1.876,-2.148 2.688,-3.012c0.121,-0.127 0.314,-0.138 0.454,-0.032l2.046,1.545c0.688,0.519 1.992,1.634 2.148,1.554c0.178,-0.195 -3.846,-6.686 -4.455,-6.651" style="fill:#4d4d4d;"/><path id="Fill-50" d="M118.776,125.507c-1.686,0.429 -3.718,0.655 -5.69,0.859c-1.453,0.152 -2.957,-0.056 -4.418,-0.243c-0.586,-0.076 -1.153,-0.185 -1.711,-0.383c-0.268,-0.096 -0.586,-0.281 -0.868,-0.156c-0.471,0.205 -0.396,0.905 -0.371,1.346c0.026,0.457 0.017,0.928 0.001,1.385c-0.033,0.879 0.018,1.609 0.906,1.982c0.522,0.219 3.336,0.016 3.885,-0.11c2.881,-0.657 3.236,-0.802 5.79,-2.052c1.485,-0.725 4.213,-2.714 4.159,-3.055c-0.204,-0.342 -1.029,0.261 -1.683,0.427" style="fill:#4d4d4d;"/><path id="Fill-52" d="M155.063,56.636c-0.346,-0.901 -1.004,-1.84 -2.05,-1.925c-0.14,-0.01 -0.23,0.361 -0.283,0.939c-0.164,1.777 -0.127,3.564 -0.063,5.344c0.024,0.651 -0.422,4.435 0.146,4.731c1.408,0.731 3.529,-5.759 2.25,-9.089" style="fill:#4d4d4d;"/><path id="Fill-54" d="M69.265,62.592c-0.106,-0.453 -0.217,-0.739 -0.327,-0.716c-0.822,0.183 -1.242,0.998 -1.419,1.753c-0.653,2.784 1.738,7.71 2.777,6.977c0.421,-0.297 -0.347,-3.255 -0.399,-3.774c-0.143,-1.423 -0.308,-2.846 -0.632,-4.24" style="fill:#4d4d4d;"/><path id="Fill-56" d="M117.085,105.521c1.157,-0.308 -0.125,-0.918 -0.663,-1.154c-0.655,-0.286 -1.358,-0.467 -2.066,-0.554c-1.316,-0.162 -2.783,-0.025 -3.916,0.718c-0.322,0.212 -0.694,0.345 -1.003,0.577c-0.163,0.123 -0.324,0.321 -0.385,0.522c-0.021,0.073 -0.03,0.146 -0.02,0.217c1.503,0.14 2.56,-0.879 4.075,-0.804c1.312,0.066 2.654,0.829 3.978,0.478" style="fill:#4d4d4d;"/><path id="Fill-58" d="M48.093,159.062c-2.375,-4.561 -6.091,-8.406 -9.717,-12.012c-2.434,-2.42 -5.111,-5.019 -8.175,-6.622c-0.434,-0.227 -0.883,-0.458 -1.371,-0.502c-0.487,-0.044 -1.031,0.144 -1.259,0.576c-0.145,0.275 -0.145,0.602 -0.093,0.908c0.143,0.839 0.637,1.555 1.194,2.217c0.162,0.19 0.328,0.376 0.492,0.559c5.442,6.041 10.484,12.5 13.167,20.295c1.405,4.086 2.185,8.384 2.257,12.706c0.04,2.413 -0.068,4.825 -0.206,7.232c-0.05,0.899 -0.796,5.499 1.649,4.449c0.223,-0.096 0.353,-0.326 0.465,-0.54c2.097,-3.976 2.968,-8.016 3.569,-12.445c0.393,-2.904 0.938,-5.512 0.59,-8.484c-0.339,-2.902 -1.211,-5.743 -2.562,-8.337" style="fill:#4d4d4d;"/></g></svg>