<?xml version="1.0" encoding="UTF-8" standalone="no"?><!DOCTYPE svg PUBLIC "-//W3C//DTD SVG 1.1//EN" "http://www.w3.org/Graphics/SVG/1.1/DTD/svg11.dtd"><svg width="100%" height="100%" viewBox="0 0 2353 571" version="1.1" xmlns="http://www.w3.org/2000/svg" xmlns:xlink="http://www.w3.org/1999/xlink" xml:space="preserve" style="fill-rule:evenodd;clip-rule:evenodd;stroke-linejoin:round;stroke-miterlimit:1.41421;"><g id="Layer_1"><path d="M771.68,39.25l-84,-12.31c-9.06,-1.33 -18.17,-2.67 -26.9,-5.43c-20.29,-6.42 -38.51,-20.45 -59.78,-21.45c-23.75,-1.12 -45.36,14.31 -69,16.28c-17.91,1.49 -36.63,-4.73 -53.57,1.27c-6.63,2.35 -12.52,6.45 -19.06,9.06c-15.27,6.09 -32.4,3.54 -48.83,3c-22,-0.79 -68.5,-0.18 -84,17.72c11.43,5.6 28.59,2.94 41.12,2.9c25.73,-0.07 51.23,1.12 76.94,2.13c69.689,2.734 139.473,1.926 209.08,-2.42c39.427,-2.447 78.76,-6.03 118,-10.75Z" style="fill:#34539e;fill-rule:nonzero;"/><path d="M1808.3,309.73c22,-0.41 43.83,-5.84 65.88,-5.47c19.58,0.33 38.89,5.22 58.47,5.29c4.93,0 11.08,-1.18 12.35,-5.95c-21.91,-1.5 -41.1,-16.18 -62.93,-18.64c-24,-2.71 -50.11,9.38 -71.53,-1.8c-3.4,-1.77 -6.61,-4.12 -10.38,-4.8c-5.43,-1 -10.77,1.7 -15.75,4.07c-18.15,8.67 -37,13.24 -56.54,17.26c11.39,12.31 63.4,10.36 80.43,10.04Z" style="fill:#34539e;fill-rule:nonzero;"/><path d="M1956.25,128.91c35.88,0.45 71.84,1.18 107.4,5.95c17.24,2.31 34.36,5.56 51.64,7.58c23,2.69 46.23,3.18 69.4,3.66l107.85,2.25c21,0.44 44,0.24 60.26,-13c-42.9,-0.67 -87.17,-1.62 -126.36,-19.08c-31.5,-14 -60,-38.66 -94.48,-39.68c-29.61,-0.88 -59,16.27 -87.71,9c-27.84,-7 -45.91,-34.76 -72.68,-45.14c-31.8,-12.33 -66.94,2.34 -98.5,15.28c-74.525,30.534 -152.353,52.284 -231.91,64.81c-7,1.1 -15.45,3.41 -17,10.3c56.21,5 112.7,2 168.94,-0.91c54.3,-2.83 108.69,-1.71 163.15,-1.02Z" style="fill:#34539e;fill-rule:nonzero;"/><path d="M1324.75,311.39l-50.35,-1.85c-19,-0.7 -38.3,-1.44 -56.5,-7c-11.07,-3.41 -21.64,-8.59 -33,-10.62c-16.55,-2.94 -33.46,1 -49.81,4.85c-20.29,4.82 -40.59,10.66 -61.24,13.6c-7.79,1.11 -15.21,3.15 -22.93,4.48c-11.27,1.95 -23,-1.13 -34.08,1.77c-1.031,0.138 -1.949,0.724 -2.51,1.6c-1,2.09 2.09,3.64 4.37,3.94c48.77,6.5 97.57,5.17 147,7.1c53.44,2.08 108.23,0.74 159.05,-17.87Z" style="fill:#34539e;fill-rule:nonzero;"/><path d="M1690.86,566.25c2.57,-4.39 -4,-8.34 -9,-9.27c-23.23,-4.32 -46.74,-8.65 -70.32,-7.22c-13.49,0.82 -26.78,3.52 -40,6.22c-18.76,3.82 -38.4,6.68 -56.54,12.16c27.19,5.18 59.6,0.15 87.45,-0.34c10.72,-0.19 84.06,5.52 88.41,-1.55Z" style="fill:#34539e;fill-rule:nonzero;"/><path d="M325.85,443.54c26,2.74 48.36,19.05 73.11,27.46c22.55,7.66 46.74,8.63 70.54,9.53l86,3.26c10.53,0.4 21.13,0.81 31.43,3.05c10.56,2.3 20.6,6.49 31,9.46c24.38,7 50.11,7.08 75.46,7.14l133.83,0.33c-55.68,27 -121.07,17.72 -182.89,14.81c-25,-1.18 -50.09,-1.2 -75.14,-1.22l-140.07,-0.13c-19.42,0 -38.89,0 -58.16,2.36c-17.86,2.22 -35.4,6.48 -53.17,9.28c-38.87,6.13 -78.46,5.13 -117.79,4.13c-54.84,-1.39 -108.7,-9.93 -163.55,-13c-12.26,-0.69 -24.68,-1.15 -36.44,-4.68c30.47,0.4 58.42,-10.64 88,-12.2c28.85,-1.53 60.94,-8.8 88.33,-17.87c20.64,-6.83 41.48,-13 62.11,-19.87c28.24,-9.38 56.7,-25.08 87.4,-21.84Z" style="fill:#34539e;fill-rule:nonzero;"/><path d="M2047.62,532.1c24.46,2.48 48.82,6 73.34,7.9c45.332,3.476 90.921,1.282 135.71,-6.53c-36.42,0.61 -74.55,0.84 -106.94,-15.84c-4.28,-2.2 -8.46,-4.71 -13.08,-6.08c-4.79,-1.43 -9.85,-1.59 -14.84,-1.74c-17.29,-0.52 -34.59,-1 -51.89,-0.64c-25.32,0.58 -50.55,3.13 -75.75,5.68c-35.79,3.62 -70.41,7.35 -106,13.36c23.35,5.08 50.46,0.77 74.2,0.66c28.46,-0.12 56.94,0.36 85.25,3.23Z" style="fill:#34539e;fill-rule:nonzero;"/><path d="M775.9,166.38c21.79,5.5 42.37,15.14 64.22,20.41c29.62,7.15 60.51,6.05 91,5.89c11.65,-0.06 23.43,0 34.77,2.69c16,3.74 30.34,12.39 45.84,17.8c17.65,6.16 36.47,8 55.08,9.86l57.26,5.62c6.38,0.63 15,4.53 12.72,10.52c-70.77,13.6 -143.57,2.09 -215.54,-1.69c-75.49,-4 -151.18,0.63 -226.43,7.79c-23.68,2.25 -47.36,4.76 -71.14,5.3c-25.23,0.57 -50.45,-1.07 -75.63,-2.71l-115.45,-7.53c30.16,-14 64.84,-6.81 96.75,-11.57c23.126,-3.446 45.516,-10.723 66.25,-21.53c56.91,-29.38 114.71,-57.42 180.3,-40.85Z" style="fill:#34539e;fill-rule:nonzero;"/><path d="M481.71,112.26c-6.75,-12.08 -23.41,-13 -37.25,-13c-27.699,-0.143 -55.317,-2.997 -82.46,-8.52c-5.61,-1.14 -11.42,-2.39 -17,-1.11c-3.49,0.8 -6.67,2.55 -9.88,4.13c-12.72,6.27 -27.51,7.8 -39.87,13.75c3.13,13.46 72.82,4.9 86,4.75c33.48,-0.373 66.967,-0.373 100.46,0Z" style="fill:#34539e;fill-rule:nonzero;"/><path d="M787.35,476.53c14.52,-0.09 29.12,-0.27 43.39,-2.9c10.53,-1.94 20.87,-5.22 31.56,-5.79c12.71,-0.67 25.27,2.52 37.9,4.17c33.61,4.4 67.58,-2.1 100.85,-8.58l-87.63,-9.82c-13.44,-1.51 -27.64,-3.31 -38.29,-11.64c-4.23,-3.3 -7.75,-7.54 -12.42,-10.19c-9.24,-5.23 -20.71,-3.15 -31.07,-0.85c-31.06,6.9 -62,14.51 -92.75,22.6c-16.44,4.313 -32.84,8.77 -49.2,13.37c-8.17,2.29 -19.35,3.5 -26.13,8.66c11,5.38 30.51,1.53 42.59,1.27c27.06,-0.59 54.13,-0.12 81.2,-0.3Z" style="fill:#34539e;fill-rule:nonzero;"/><path d="M1689,529c11.13,-0.08 19.21,-3.85 29.8,-5.58c12.234,-1.946 24.66,-2.379 37,-1.29c15.5,1.31 32,4.78 46,-2.09l-36.84,-6.91c-2.801,-0.37 -5.524,-1.194 -8.06,-2.44c-5.15,-2.89 -8.59,-8.47 -14.24,-10.67c-6.54,-2.55 -15,-1.25 -21.37,1.14c-11.4,4.27 -22.08,11.9 -34.24,11.75c-5.94,-0.07 -11.92,-2 -17.74,-0.84c-5.32,1.11 -10.59,4.44 -15.64,6.3c-6.78,2.5 -13.43,5.43 -20.1,8.24c2.77,-1.17 9.95,0.74 13.14,0.75c4.76,0 9.57,-0.78 14.31,-0.67c9.34,0.22 18.58,2.38 27.98,2.31Z" style="fill:#34539e;fill-rule:nonzero;"/><path d="M1601.81,88.86c37.18,-1.47 74.65,-0.38 111.87,-0.56c15,-0.08 31.51,-0.7 42.63,-10.78c-20.828,1.425 -41.741,1.027 -62.5,-1.19c-4.21,-0.45 -8.52,-1 -12.27,-3c-4.12,-2.17 -7.2,-5.86 -10.84,-8.78c-12.48,-10 -30.28,-10 -45.92,-6.66c-15.64,3.34 -30.76,9.64 -46.73,10.63c-8.11,0.5 -16.29,-0.38 -24.36,0.64c-9.82,1.25 -17.48,6 -26.54,9.18c-10.25,3.56 -20.32,5 -30,10.42c4.45,-2.49 19,0.63 24.32,0.73c9.73,0.18 19.47,0.28 29.2,0.15c16.94,-0.18 34.07,-0.1 51.14,-0.78Z" style="fill:#34539e;fill-rule:nonzero;"/><path d="M2024,156.76c19.82,1 39.79,2.94 58.69,9c-38.004,3.637 -76.224,4.469 -114.35,2.49c-16.89,-0.88 -34.39,-1.06 -51.1,-3.23c6.94,-13.45 28.66,-10.32 40.93,-10c21.89,0.62 43.83,0.61 65.83,1.74Z" style="fill:#34539e;fill-rule:nonzero;"/><path d="M2045,494.08c5.46,0 12.76,-1.69 12.84,-7.15c-26.247,-0.667 -52.483,-0.123 -78.71,1.63c-18.26,1.22 -42.87,-0.08 -59.79,6.88c12,4.77 29.4,2.89 42.21,2.46c27.82,-0.9 55.52,-3.64 83.45,-3.82Z" style="fill:#34539e;fill-rule:nonzero;"/><path d="M583.79,547.25c-20.28,0.73 -40.57,1.42 -61.13,1.42c-6,-0.06 -46.83,3.12 -44.58,-6.37c3.29,-13.9 87.23,-8.4 98.18,-7.31c26.06,2.59 50.57,-0.09 75.69,10.61c-22.95,-0.01 -45.56,0.84 -68.16,1.65Z" style="fill:#34539e;fill-rule:nonzero;"/><path d="M1529.69,244.16c16.59,0.95 33.16,2.64 49.78,2.85c14.269,0.179 28.531,-0.737 42.66,-2.74c-4.63,8 -13.66,12.54 -22.73,14.09c-9.07,1.55 -18.37,0.5 -27.54,-0.34c-36.728,-3.341 -73.694,-3.123 -110.38,0.65c-12.31,1.27 -26.26,2.46 -35.56,-5.71c31.85,-13.15 69.57,-10.73 103.77,-8.8Z" style="fill:#34539e;fill-rule:nonzero;"/><path d="M1622.84,279.29c5.59,-1.47 11.16,-3.28 16.92,-3.73c5.76,-0.45 11.91,0.6 16.38,4.28c1.24,1 2.41,2.27 4,2.63c2,0.46 4.34,-0.53 5.89,0.76c-4.58,4.6 -11.61,5.45 -18.08,6c-27.798,2.221 -55.698,2.889 -83.57,2c-5.06,-0.16 -7.92,-2.91 -4,-6.84c3.31,-3.34 12.29,-0.51 16.24,-0.3c15.562,0.805 31.155,-0.815 46.22,-4.8l0,0Z" style="fill:#34539e;fill-rule:nonzero;"/><path d="M507.45,121.22c15.62,-1.53 31,4.38 46.71,4.89c12.54,0.41 25.41,-2.62 37.48,0.82c-6.78,6.33 -17,6.81 -26.27,6.94c-13.36,0.18 -25.95,1.27 -39.07,2.72c-13.65,1.51 -27.62,-1.45 -41.43,-0.93c-14.08,0.54 -28.86,2.49 -41.71,-3.28c22.04,-1.38 42.56,-9.04 64.29,-11.16Z" style="fill:#34539e;fill-rule:nonzero;"/><path d="M163.54,336.46c17.02,-5.21 33.649,-11.623 49.76,-19.19c17.11,-8 35.53,-17.64 53.94,-13.34c15.66,3.66 27.46,16.69 42.47,22.48c11.06,4.26 23.21,4.35 35,5.2c27.743,2.005 54.981,8.479 80.66,19.17c-20.08,3.64 -40.52,7.3 -60.79,4.88c-10.78,-1.28 -21.27,-4.26 -31.88,-6.53c-42.94,-9.17 -87.48,-6.65 -131.13,-1.88c-23.92,2.61 -49.79,5.5 -70.54,-6.68c19.067,-0.641 37.854,-4.787 55.42,-12.23" style="fill:#34539e;fill-rule:nonzero;"/><path d="M1076.06,146.28c16.91,2.36 34.15,0.22 51.17,1.65c24.82,2.09 49.4,9.72 73.59,15.32c-6.82,-1.58 -18.62,2.23 -25.87,2.58c-9.47,0.46 -19,0.41 -28.45,0.28c-19.75,-0.27 -39.55,-1.26 -59.29,0.1c-35.53,2.45 -72.44,3.41 -108.27,2.31c-17.94,-0.52 -48.51,1.42 -63.94,-8.52c15,-9.12 39.67,-6.9 56.66,-12.54c16.48,-5.47 30.41,-14 48.46,-13c19.17,0.88 37.06,9.18 55.94,11.82Z" style="fill:#34539e;fill-rule:nonzero;"/><path d="M595.47,268.46c25.23,6.86 52,2.52 78.09,4.82c14.72,1.3 29.28,4.74 44.06,4.49c14.156,-0.26 28.047,-3.902 40.51,-10.62c-27.63,-2.15 -55.31,-5 -83,-6.45c-12.617,-0.613 -25.261,-0.339 -37.84,0.82c-11.81,1.05 -30.63,8.81 -41.82,6.94Z" style="fill:#34539e;fill-rule:nonzero;"/><path d="M1818.26,451.65c41.73,0.56 83.62,1.1 125,-4.21c-41.89,-3.16 -84.32,-6.43 -124,-20.17c-11.28,-3.91 -22.34,-8.66 -34,-11c-31.45,-6.33 -63.87,5.18 -95.87,2.94c-31.61,-2.21 -62.35,-17.78 -93.68,-13c-21.23,3.24 -37.13,16.95 -57,23.22c-19.34,6.12 -40,10.24 -59.62,16.62c56.92,6.82 115.12,-1 172.36,-1.55c55.72,-0.5 111.01,6.4 166.81,7.15Z" style="fill:#34539e;fill-rule:nonzero;"/></g></svg>