<?xml version="1.0" encoding="UTF-8" standalone="no"?><!DOCTYPE svg PUBLIC "-//W3C//DTD SVG 1.1//EN" "http://www.w3.org/Graphics/SVG/1.1/DTD/svg11.dtd"><svg width="100%" height="100%" viewBox="0 0 1439 1114" version="1.1" xmlns="http://www.w3.org/2000/svg" xmlns:xlink="http://www.w3.org/1999/xlink" xml:space="preserve" style="fill-rule:evenodd;clip-rule:evenodd;stroke-linejoin:round;stroke-miterlimit:1.41421;"><g id="Layer_1"><path d="M881.649,102.131l-145.889,-21.38c-15.735,-2.31 -31.557,-4.637 -46.719,-9.43c-35.239,-11.151 -66.883,-35.517 -103.824,-37.254c-41.249,-1.945 -78.781,24.853 -119.838,28.274c-31.106,2.588 -63.618,-8.214 -93.039,2.206c-11.515,4.082 -21.744,11.202 -33.103,15.735c-26.52,10.577 -56.271,6.149 -84.807,5.211c-38.209,-1.372 -118.969,-0.313 -145.889,30.775c19.852,9.726 49.655,5.106 71.416,5.037c44.688,-0.122 88.975,1.945 133.628,3.699c121.034,4.749 242.233,3.345 363.125,-4.203c68.476,-4.25 136.788,-10.472 204.939,-18.67l0,0Z" style="fill:#34539e;fill-rule:nonzero;"/><path d="M1432.43,426.424l-64.832,-2.382c-24.465,-0.901 -49.316,-1.854 -72.751,-9.013c-14.254,-4.391 -27.864,-11.061 -42.491,-13.675c-21.31,-3.785 -43.084,1.288 -64.137,6.245c-26.125,6.207 -52.264,13.726 -78.853,17.512c-10.031,1.429 -19.585,4.056 -29.526,5.768c-14.511,2.511 -29.615,-1.455 -43.882,2.28c-1.327,0.177 -2.509,0.932 -3.232,2.06c-1.287,2.691 2.691,4.687 5.627,5.073c62.798,8.37 125.633,6.657 189.281,9.142c68.81,2.678 139.359,0.953 204.796,-23.01l0,0Z" style="fill:#34539e;fill-rule:nonzero;"/><path d="M408.292,617.329c28.422,2.995 52.866,20.825 79.922,30.019c24.651,8.374 51.095,9.434 77.113,10.418l94.014,3.564c11.511,0.437 23.099,0.885 34.359,3.334c11.544,2.514 22.519,7.095 33.888,10.341c26.652,7.653 54.78,7.74 82.492,7.806l146.301,0.36c-60.869,29.516 -132.352,19.372 -199.933,16.19c-27.329,-1.29 -54.757,-1.311 -82.141,-1.333l-153.122,-0.142c-21.23,0 -42.514,0 -63.58,2.58c-19.524,2.426 -38.699,7.083 -58.125,10.144c-42.492,6.701 -85.771,5.608 -128.766,4.515c-59.95,-1.519 -118.828,-10.855 -178.79,-14.211c-13.402,-0.755 -26.979,-1.257 -39.835,-5.116c33.309,0.437 63.864,-11.632 96.2,-13.337c31.538,-1.673 66.618,-9.62 96.561,-19.535c22.563,-7.467 45.345,-14.212 67.897,-21.722c30.872,-10.254 61.984,-27.417 95.545,-23.875l0,0Z" style="fill:#34539e;fill-rule:nonzero;"/><path d="M49.792,253.573c24.505,-7.501 48.448,-16.734 71.644,-27.629c24.635,-11.519 51.156,-25.398 77.663,-19.207c22.547,5.269 39.537,24.03 61.148,32.366c15.925,6.134 33.418,6.264 50.394,7.487c39.944,2.887 79.161,12.208 116.134,27.601c-28.911,5.241 -58.341,10.511 -87.526,7.027c-15.521,-1.843 -30.624,-6.134 -45.9,-9.402c-61.826,-13.203 -125.954,-9.575 -188.802,-2.707c-34.44,3.758 -71.687,7.919 -101.563,-9.618c27.452,-0.923 54.502,-6.892 79.794,-17.609" style="fill:#34539e;fill-rule:nonzero;"/><path d="M958.131,171.831c25.492,3.558 51.48,0.332 77.137,2.488c37.415,3.15 74.469,14.652 110.934,23.094c-10.281,-2.382 -28.069,3.362 -38.998,3.889c-14.275,0.694 -28.642,0.618 -42.887,0.422c-29.772,-0.407 -59.62,-1.899 -89.377,0.151c-53.56,3.693 -109.201,5.141 -163.213,3.482c-27.044,-0.784 -73.127,2.141 -96.387,-12.843c22.612,-13.748 59.801,-10.402 85.413,-18.904c24.842,-8.246 45.841,-21.104 73.051,-19.597c28.898,1.327 55.867,13.839 84.327,17.818Z" style="fill:#34539e;fill-rule:nonzero;"/><path d="M1174.79,906.853c84.885,1.139 170.095,2.237 254.267,-8.564c-85.21,-6.428 -171.518,-13.079 -252.232,-41.028c-22.945,-7.954 -45.443,-17.616 -69.161,-22.376c-63.973,-12.876 -129.92,10.537 -195.012,5.981c-64.299,-4.496 -126.828,-36.167 -190.558,-26.444c-43.184,6.591 -75.527,34.479 -115.945,47.233c-39.34,12.448 -81.365,20.829 -121.275,33.807c115.783,13.873 234.169,-2.034 350.603,-3.153c113.342,-1.017 225.809,13.018 339.313,14.544l0,0Z" style="fill:#34539e;fill-rule:nonzero;"/><path d="M350.262,524.278c64.336,-2.543 129.174,-0.657 193.579,-0.969c25.956,-0.138 54.525,-1.211 73.767,-18.653c-36.041,2.465 -72.229,1.777 -108.15,-2.06c-7.285,-0.778 -14.743,-1.73 -21.232,-5.191c-7.129,-3.755 -12.459,-10.14 -18.757,-15.193c-21.596,-17.303 -52.397,-17.303 -79.46,-11.524c-27.063,5.78 -53.227,16.681 -80.861,18.394c-14.034,0.865 -28.188,-0.657 -42.153,1.108c-16.992,2.163 -30.247,10.382 -45.924,15.885c-17.737,6.16 -35.162,8.652 -51.912,18.03c7.7,-4.308 32.877,1.09 42.083,1.263c16.837,0.312 33.691,0.485 50.528,0.26c29.312,-0.311 58.954,-0.173 88.492,-1.35l0,0Z" style="fill:#34539e;fill-rule:nonzero;"/><path d="M598.756,409.134c66.347,-1.237 132.182,-17.612 198.681,-16.497c59.049,0.996 117.284,15.743 176.334,15.954c14.868,0 33.415,-3.559 37.245,-17.944c-66.076,-4.524 -123.95,-48.796 -189.785,-56.214c-72.379,-8.173 -151.121,28.288 -215.72,-5.429c-10.253,-5.338 -19.934,-12.425 -31.304,-14.476c-16.376,-3.016 -32.48,5.127 -47.499,12.275c-54.736,26.147 -111.584,39.929 -170.513,52.052c34.35,37.125 191.202,31.244 242.561,30.279l0,0Z" style="fill:#34539e;fill-rule:nonzero;"/><path d="M221.604,927.031c34.506,1.976 68.971,5.491 103.54,5.928c29.679,0.372 59.343,-1.533 88.731,-5.699c-9.63,16.639 -28.412,26.082 -47.277,29.306c-18.866,3.224 -38.209,1.04 -57.282,-0.707c-76.393,-6.949 -153.281,-6.495 -229.586,1.352c-25.604,2.642 -54.619,5.117 -73.963,-11.876c66.247,-27.352 144.703,-22.318 215.837,-18.304l0,0Z" style="fill:#34539e;fill-rule:nonzero;"/><path d="M366.642,802.46c11.627,-3.057 23.212,-6.822 35.193,-7.758c11.98,-0.936 24.772,1.248 34.07,8.902c2.579,2.08 5.012,4.722 8.319,5.47c4.16,0.957 9.027,-1.102 12.251,1.581c-9.526,9.568 -24.148,11.336 -37.605,12.48c-57.819,4.62 -115.85,6.009 -173.822,4.16c-10.525,-0.333 -16.473,-6.053 -8.32,-14.227c6.885,-6.947 25.563,-1.061 33.779,-0.624c32.368,1.674 64.801,-1.695 96.135,-9.984l0,0Z" style="fill:#34539e;fill-rule:nonzero;"/><path d="M1183.32,974.3c40.859,2.062 82.028,6.061 120.99,18.554c-78.345,7.498 -157.136,9.213 -235.733,5.133c-34.819,-1.814 -70.895,-2.185 -105.343,-6.659c14.307,-27.727 59.083,-21.274 84.377,-20.615c45.127,1.278 90.356,1.258 135.709,3.587l0,0Z" style="fill:#34539e;fill-rule:nonzero;"/><path d="M1207.83,61.7c21.314,-0.153 36.787,-7.372 57.067,-10.685c23.427,-3.727 47.223,-4.556 70.854,-2.471c29.682,2.509 61.28,9.154 88.09,-4.002l-70.549,-13.233c-5.364,-0.708 -10.578,-2.286 -15.434,-4.672c-9.863,-5.534 -16.45,-16.22 -27.27,-20.433c-12.524,-4.883 -28.725,-2.394 -40.923,2.183c-21.831,8.177 -42.283,22.788 -65.569,22.501c-11.375,-0.134 -22.827,-3.83 -33.972,-1.608c-10.188,2.125 -20.28,8.502 -29.951,12.064c-12.983,4.787 -25.718,10.398 -38.491,15.779c5.305,-2.24 19.054,1.418 25.163,1.437c9.115,0 18.326,-1.494 27.403,-1.283c17.886,0.421 35.581,4.557 53.582,4.423l0,0Z" style="fill:#34539e;fill-rule:nonzero;"/><path d="M475.515,1060.71c33.487,9.105 69.019,3.345 103.647,6.398c19.538,1.725 38.863,6.291 58.48,5.959c18.789,-0.345 37.226,-5.179 53.768,-14.095c-36.672,-2.854 -73.411,-6.637 -110.164,-8.561c-16.746,-0.814 -33.528,-0.45 -50.224,1.088c-15.675,1.394 -40.655,11.693 -55.507,9.211Z" style="fill:#34539e;fill-rule:nonzero;"/><path d="M893.94,620.725c26.965,-0.179 54.078,-0.538 80.578,-5.785c19.555,-3.871 38.756,-10.414 58.608,-11.551c23.603,-1.337 46.928,5.027 70.382,8.319c62.416,8.778 125.5,-4.19 187.284,-17.117l-162.733,-19.592c-24.959,-3.012 -51.329,-6.603 -71.107,-23.222c-7.855,-6.583 -14.392,-15.042 -23.064,-20.329c-17.159,-10.434 -38.46,-6.284 -57.699,-1.696c-57.68,13.766 -115.137,28.948 -172.241,45.088c-30.53,8.604 -60.986,17.496 -91.367,26.673c-15.172,4.569 -35.934,6.983 -48.525,17.277c20.428,10.733 56.659,3.052 79.092,2.534c50.252,-1.177 100.522,-0.24 150.792,-0.599l0,0Z" style="fill:#34539e;fill-rule:nonzero;"/></g></svg>