<?xml version="1.0" encoding="UTF-8"?>
<svg width="18px" height="16px" viewBox="0 0 18 16" version="1.1" xmlns="http://www.w3.org/2000/svg" xmlns:xlink="http://www.w3.org/1999/xlink">
    <!-- Generator: sketchtool 40 (33762) - http://www.bohemiancoding.com/sketch -->
    <title>BA285307-7F82-4946-AF39-A010EF4EB909</title>
    <desc>Created with sketchtool.</desc>
    <defs></defs>
    <g id="mockup" stroke="none" stroke-width="1" fill="none" fill-rule="evenodd" fill-opacity="0.5">
        <g id="OPENING-1-HD" transform="translate(-1216.000000, -13.000000)" fill="#FFFFFF">
            <g id="Group-8-Copy-2">
                <g id="Group-4">
                    <g id="Group" transform="translate(1158.000000, 9.000000)">
                        <g id="tools">
                            <g id="donation" transform="translate(58.000000, 4.000000)">
                                <g id="Donation">
                                    <path d="M8.61348154,1.80933728 C7.71347887,0.700741221 6.38761672,0 4.90909091,0 C2.33563755,0 0.224682823,2.12291423 0.0168029088,4.82433711 L0,4.82433711 L0,5.70148932 C0,11.0303049 8.15330185,15.7021579 8.15330185,15.7021579 C8.62092033,15.9921946 9.38671875,15.9935988 9.84669815,15.7021579 C9.84669815,15.7021579 18,11.0303049 18,5.70148932 L18,4.82433711 L17.9831971,4.82433711 C17.7753172,2.12291423 15.6643625,0 13.0909091,0 C11.7953768,0 10.6170571,0.538017434 9.73974429,1.41701102 C9.74516038,1.41972956 9.75056834,1.42250347 9.75596817,1.42533277 C9.89389989,1.49760353 9.96286472,1.60600803 9.96286472,1.75054954 C9.96286472,1.94327156 9.94694976,2.15044462 9.91511936,2.37207493 C9.88328897,2.59370525 9.85676403,2.80087831 9.83554377,2.99360032 C10.0583566,3.04178083 10.291776,3.10200555 10.535809,3.17427631 C10.7798421,3.24654706 11.015914,3.33327067 11.2440318,3.43444973 C11.4721497,3.53562878 11.6843492,3.65848722 11.8806366,3.80302874 C12.0769241,3.94757025 12.2334212,4.11619948 12.3501326,4.30892149 C12.381963,4.3667381 12.408488,4.42214485 12.4297082,4.4751434 C12.4509285,4.52814195 12.4615385,4.5835487 12.4615385,4.64136531 C12.4615385,4.77627072 12.4217511,4.8894932 12.3421751,4.98103616 C12.2625991,5.07257911 12.1618043,5.14966676 12.0397878,5.21230142 C11.9177713,5.27493607 11.7877991,5.32070687 11.6498674,5.34961517 C11.5119356,5.37852347 11.384616,5.3929774 11.2679045,5.3929774 C11.0875323,5.3929774 10.9124677,5.36647852 10.7427056,5.31347997 C10.5729434,5.26048142 10.4005314,5.20507467 10.2254642,5.14725806 C10.050397,5.08944146 9.86206997,5.03403471 9.66047745,4.98103616 C9.45888493,4.9280376 9.23607549,4.90153872 8.99204244,4.90153872 C8.89655125,4.90153872 8.78249403,4.91117468 8.64986737,4.93044688 C8.51724072,4.94971908 8.39257353,4.98344493 8.27586207,5.03162543 C8.15915061,5.07980594 8.06100836,5.14243965 7.98143236,5.21952846 C7.90185637,5.29661726 7.86206897,5.39297683 7.86206897,5.50861003 C7.86206897,5.68205985 7.97347369,5.83864414 8.19628647,5.9783676 C8.41909926,6.11809106 8.70026355,6.2626304 9.0397878,6.41198996 C9.37931204,6.56134952 9.74270363,6.72516078 10.1299735,6.90342864 C10.5172433,7.0816965 10.8806349,7.28646057 11.2201592,7.51772699 C11.5596834,7.74899341 11.8408477,8.01639119 12.0636605,8.31992836 C12.2864733,8.62346553 12.397878,8.9824049 12.397878,9.39675723 C12.397878,9.75329296 12.3289132,10.0375537 12.1909814,10.2495479 C12.0530497,10.4615421 11.8726802,10.6325803 11.6498674,10.7626677 C11.4270546,10.892755 11.1724152,10.9939326 10.8859416,11.0662033 C10.5994681,11.1384741 10.3129988,11.2083348 10.0265252,11.2757875 C9.97347454,11.2854236 9.94429711,11.3408303 9.93899204,11.4420094 C9.93368698,11.5431884 9.93103448,11.6636379 9.93103448,11.8033614 C9.93103448,11.9430848 9.92838199,12.0924421 9.92307692,12.2514378 C9.91777186,12.4104335 9.88859443,12.5573818 9.83554377,12.6922872 C9.7824931,12.8271926 9.69761332,12.9404151 9.58090186,13.0319581 C9.4641904,13.123501 9.29443082,13.1692718 9.07161804,13.1692718 C8.87002552,13.1692718 8.68169849,13.1090471 8.5066313,12.9885958 C8.33156411,12.8681446 8.24403183,12.7115603 8.24403183,12.5188383 C8.24403183,12.4417494 8.24668432,12.3670708 8.25198939,12.2948 C8.25729446,12.2225293 8.25994695,12.1478506 8.25994695,12.0707618 L8.25994695,11.9117669 C8.25994695,11.8346781 8.25464196,11.7527725 8.24403183,11.6660476 C8.2334217,11.5793227 8.21750674,11.5022351 8.19628647,11.4347823 C8.17506621,11.3673296 8.14854127,11.3287858 8.11671088,11.3191497 C7.91511836,11.2709692 7.66578398,11.2179715 7.36870027,11.1601548 C7.07161655,11.1023382 6.78779976,11.0228416 6.51724138,10.9216625 C6.246683,10.8204835 6.01591607,10.6928071 5.82493369,10.5386295 C5.6339513,10.3844518 5.53846154,10.1869147 5.53846154,9.94601223 C5.53846154,9.72438191 5.63129881,9.54129874 5.81697613,9.39675723 C6.00265345,9.25221572 6.21220042,9.17994605 6.44562334,9.17994605 C6.64721586,9.17994605 6.84615286,9.20885392 7.04244032,9.26667052 C7.23872777,9.32448713 7.44031727,9.38712084 7.64721485,9.45457355 C7.85411244,9.52202625 8.06631191,9.58465997 8.28381963,9.64247657 C8.50132735,9.70029318 8.72678928,9.72920105 8.9602122,9.72920105 C9.04509326,9.72920105 9.151193,9.72197408 9.27851459,9.70751993 C9.40583618,9.69306578 9.52785088,9.66415791 9.64456233,9.62079545 C9.76127379,9.577433 9.86206854,9.51961726 9.9469496,9.44734651 C10.0318307,9.37507575 10.0742706,9.28112518 10.0742706,9.16549197 C10.0742706,9.05949486 10.0212207,8.9631353 9.91511936,8.8764104 C9.80901804,8.78968549 9.68435085,8.71259784 9.54111406,8.64514514 C9.39787727,8.57769243 9.25199013,8.5174677 9.10344828,8.46446915 C8.95490642,8.4114706 8.83819671,8.37051778 8.75331565,8.34160948 C8.41379141,8.21634017 8.05835729,8.06939184 7.68700265,7.90076008 C7.31564801,7.73212831 6.97347637,7.53459121 6.66047745,7.30814285 C6.34747854,7.08169448 6.08753419,6.81911467 5.8806366,6.52039555 C5.67373902,6.22167643 5.57029178,5.87478201 5.57029178,5.47970188 C5.57029178,5.13280225 5.64721408,4.81722469 5.80106101,4.53295971 C5.95490793,4.24869474 6.16180241,4.00538685 6.42175066,3.80302874 C6.68169891,3.60067062 6.97877817,3.43926835 7.31299735,3.31881709 C7.64721653,3.19836584 7.99999814,3.12850515 8.37135279,3.10923295 C8.41379332,2.88760264 8.45092822,2.66356665 8.48275862,2.43711829 C8.51246816,2.22575815 8.55604208,2.01649964 8.61348154,1.80933728 Z" id="icon-donation"></path>
                                </g>
                            </g>
                        </g>
                    </g>
                </g>
            </g>
        </g>
    </g>
</svg>