<?xml version="1.0" encoding="UTF-8" standalone="no"?>
<!DOCTYPE svg PUBLIC "-//W3C//DTD SVG 1.1//EN" "http://www.w3.org/Graphics/SVG/1.1/DTD/svg11.dtd">
<svg width="100%" height="100%" viewBox="0 0 360 422" version="1.1" xmlns="http://www.w3.org/2000/svg" xmlns:xlink="http://www.w3.org/1999/xlink" xml:space="preserve" style="fill-rule:evenodd;clip-rule:evenodd;">
    <g>
        <g transform="matrix(1,0,0,1,-0.175,1.9)">
            <circle cx="180" cy="241.91" r="180" style="fill:white;fill-opacity:0.9;"/>
        </g>
        <rect x="127.5" y="146.41" width="105" height="168" style="fill:rgb(160,50,75);"/>
        <rect x="113.5" y="132.41" width="133" height="21" style="fill:rgb(160,50,75);"/>
        <g transform="matrix(1,0,0,1,-40.5111,-13.4763)">
            <g transform="matrix(1,0,0,0.954082,40.5375,80.0521)">
                <rect x="138" y="105.5" width="84" height="147" style="fill:rgb(200,70,85);"/>
            </g>
            <g transform="matrix(1,0,0,1,40.5375,75.2077)">
                <circle cx="155.5" cy="179" r="7.5" style="fill:rgb(160,50,75);"/>
            </g>
        </g>
        <g id="opened_door" style="opacity:0;" transform="matrix(1,0,0,1,0.0263615,-0.111111)">
            <rect x="138" y="167.41" width="84" height="147" style="fill:rgb(255,240,0);"/>
            <path d="M222,314.41L153.29,333.05L153.29,186.04L222,167.41L222,314.41Z" style="fill:rgb(200,70,85);fill-rule:nonzero;"/>
            <circle cx="165.5" cy="250.23" r="7.5" style="fill:rgb(160,50,75);"/>
        </g>
        <rect x="113.5" y="125.41" width="133" height="21" style="fill:rgb(200,70,85);"/>
        <rect x="113.5" y="307.41" width="133" height="21" style="fill:rgb(160,50,75);"/>
        <rect x="113.5" y="314.41" width="133" height="21" style="fill:rgb(200,70,85);"/>
        <rect x="103" y="330.41" width="154" height="21" style="fill:rgb(160,50,75);"/>
        <rect x="103" y="337.41" width="154" height="21" style="fill:rgb(200,70,85);"/>
        <rect x="51.23" y="197.64" width="35" height="25" style="fill:rgb(75,200,70);"/>
        <rect x="56.56" y="204.14" width="25" height="5"/>
        <path d="M56,216.14L81,216.14" style="fill-rule:nonzero;stroke:white;stroke-width:2px;"/>
        <g>
            <path d="M283,260.14L283,201.14" style="fill-rule:nonzero;"/>
            <rect x="279" y="201.14" width="8" height="59" style="fill:rgb(171,136,62);"/>
        </g>
        <path d="M295.5,303.48L270.5,303.48L260.5,268.48L305.5,268.48L295.5,303.48Z" style="fill:rgb(99,202,218);fill-rule:nonzero;"/>
        <g>
            <path d="M276,281.64L300,281.64" style="fill-rule:nonzero;"/>
            <rect x="276" y="279.14" width="24" height="5" style="fill:rgb(65,155,211);"/>
        </g>
        <g>
            <path d="M276,292.64L298,292.64" style="fill-rule:nonzero;"/>
            <rect x="276" y="290.14" width="22" height="5" style="fill:rgb(65,155,211);"/>
        </g>
        <path d="M248,207.72L258,207.72C266.229,207.72 273,214.491 273,222.72L273,232.72L263,232.72C254.771,232.72 248,225.949 248,217.72L248,207.72Z" style="fill:rgb(75,200,70);fill-rule:nonzero;"/>
        <g transform="matrix(-1,7.65714e-16,-7.65714e-16,-1,611,411.43)">
            <path d="M308,193.22L318,193.22L318,203.22C318,211.449 311.229,218.22 303,218.22L293,218.22L293,208.22C293,199.991 299.771,193.22 308,193.22Z" style="fill:rgb(75,200,70);fill-rule:nonzero;"/>
        </g>
        <g transform="matrix(-1,7.65714e-16,-7.65714e-16,-1,611,473.96)">
            <path d="M308,224.48L318,224.48L318,234.48C318,242.709 311.229,249.48 303,249.48L293,249.48L293,239.48C293,231.251 299.771,224.48 308,224.48Z" style="fill:rgb(75,200,70);fill-rule:nonzero;"/>
        </g>
        <g id="love" style="opacity:0;">
            <path d="M102.83,202.88C75.11,197.37 49.08,180.37 29.92,160C18.33,147.7 4.16,126.72 1.48,109.85C-0.07,100.07 2.9,93.51 14,95.9C29.33,99.2 37.9,119.7 47.49,130.19C43.38,117 34.68,96.65 44.33,84C55.93,68.83 69.23,82.31 72.94,97.49C81.51,132.73 80.39,172.31 102.83,202.88Z" style="fill:rgb(255,100,150);fill-rule:nonzero;"/>
            <path d="M256,70.11C241.31,84.11 221.2,99.05 199.47,97.31C209.02,85.31 219.18,68.47 217.92,52.8C217.08,42.32 213.23,12.5 221.92,3.24C229.85,-5.22 238.47,4.63 242,12.62C246.87,23.62 245.61,38.83 241,49.7C243.38,38.93 258.06,7.18 272.12,18.59C291.15,34 267.08,59.54 256,70.11Z" style="fill:rgb(255,100,150);fill-rule:nonzero;"/>
            <path d="M316,145.9C307.58,164.47 283.44,172.47 264.5,171.57C269.91,164.57 274.2,159.06 276.34,150.43C278.21,142.89 279.94,134.16 285.19,128.15C296.51,115.15 301.92,137.67 295.31,145.87C299.55,141.15 304.46,129.52 313.09,132.13C319.74,134.14 318.77,139.83 316,145.9Z" style="fill:rgb(255,100,150);fill-rule:nonzero;"/>
        </g>
    </g>
</svg>
