<?xml version="1.0" encoding="utf-8"?>
<!-- Generator: Adobe Illustrator 18.0.0, SVG Export Plug-In . SVG Version: 6.00 Build 0)  -->
<!DOCTYPE svg PUBLIC "-//W3C//DTD SVG 1.1//EN" "http://www.w3.org/Graphics/SVG/1.1/DTD/svg11.dtd">
<svg version="1.1" id="report-transparent" xmlns="http://www.w3.org/2000/svg" xmlns:xlink="http://www.w3.org/1999/xlink" x="0px"
	 y="0px" viewBox="0 0 146 142" enable-background="new 0 0 146 142" xml:space="preserve">
<title>AA9A174E-7AEF-4219-9364-6D9D0A778194</title>
<desc>Created with sketchtool.</desc>
<g id="report-transparent_1_" opacity="0.1">
	<g id="TNR" transform="translate(-235.000000, -4460.000000)">
		<g id="Page-1" transform="translate(235.000000, 4459.000000)">
			<path id="Fill-1" d="M34.6,130.2v-2.6C32.3,127.6,32.3,130.2,34.6,130.2"/>
			<path id="Fill-3" d="M70.2,33.5v2.6V33.5z"/>
			<path id="Fill-5" d="M27.5,122.3v2.6C32.3,124.8,32.3,122.3,27.5,122.3"/>
			<path id="Fill-7" d="M32.3,118.9v-2.6C27.5,116.3,27.5,118.9,32.3,118.9"/>
			<path id="Fill-9" d="M34.6,110.6v2.6C37,113.1,37,110.6,34.6,110.6"/>
			<path id="Fill-11" d="M39.4,126.3v2.6C44.1,128.9,44.1,126.3,39.4,126.3"/>
			<path id="Fill-13" d="M44.7,114.9c0,0,0-0.1,0-0.1c0.3-1.6-2.2-2.3-2.5-0.7c0,0,0,0.1,0,0.1C41.9,115.8,44.4,116.5,44.7,114.9"/>
			<path id="Fill-15" d="M37,120.7v-2.6C34.6,118.1,34.6,120.7,37,120.7"/>
			<path id="Fill-17" d="M77.3,32.1v2.6C79.7,34.7,79.7,32.1,77.3,32.1"/>
			<path id="Fill-19" d="M85.3,30.2C85.3,30.2,85.2,30.2,85.3,30.2c-0.9,1.6,1.4,2.9,2.2,1.4c0,0,0-0.1,0.1-0.1
				C88.3,30,86.1,28.7,85.3,30.2"/>
			<path id="Fill-21" d="M86.8,39.8v-2.6C82.1,37.2,82.1,39.8,86.8,39.8"/>
			<path id="Fill-23" d="M79.7,26.9v-2.6C77.3,24.3,77.3,26.9,79.7,26.9"/>
			<g id="Group-27" transform="translate(0.000000, 0.695271)">
				<g id="Clip-26">
				</g>
				<defs>
					<filter id="Adobe_OpacityMaskFilter" filterUnits="userSpaceOnUse" x="0" y="0.8" width="97.3" height="140.7">
						<feColorMatrix  type="matrix" values="1 0 0 0 0  0 1 0 0 0  0 0 1 0 0  0 0 0 1 0"/>
					</filter>
				</defs>
				<mask maskUnits="userSpaceOnUse" x="0" y="0.8" width="97.3" height="140.7" id="mask-2">
					<g filter="url(#Adobe_OpacityMaskFilter)">
						<polygon id="path-1" fill="#FFFFFF" points="0,141.5 97.3,141.5 97.3,0.8 0,0.8 						"/>
					</g>
				</mask>
				<path id="Fill-25" mask="url(#mask-2)" d="M86.3,42.2c-1.8,2.6-4.2,4.9-7.2,6.2c-6.6,2.9-13.5-0.9-15.1-7.7
					c-0.3-1.3-0.5-2.7-0.3-4.1c0.2-1.3,0.7-2.5,1.3-3.6c1.7-3.6,3.8-7,6.6-9.8c2.6-2.6,7.2-5.4,11.1-4.4c1.9,0.5,3.6,1,5.1,2.3
					c0.8,0.7,1.5,1.5,2.1,2.3c1.3,1.9,1.8,4.1,1.8,6.8C91.5,34.9,88.7,38.6,86.3,42.2 M36.3,104.2c1.9-0.2,3.8-0.2,5.6,0.6
					c1,0.4,1.9,0.9,2.7,1.5c1.9,1.4,3.1,3.3,3.8,5.9c1.3,4.4,0,8.8-1.2,13c-0.9,3-2.4,6-4.8,8.2c-5.3,4.8-13,3.5-16.8-2.5
					c-0.7-1.2-1.3-2.4-1.6-3.8c-0.2-1.3-0.1-2.6,0-3.9c0.5-3.9,1.4-7.8,3.1-11.4C28.9,108.6,32.3,104.6,36.3,104.2 M97.3,27.1
					C96.8,20.4,94,17,90,11.8C76.6-5.8,52.7-0.3,39.4,14.3c-3.3,3.6-5.9,7.8-8.4,11.9c-5.6,9.1-10.7,19.1-17.4,33.5
					c-2,4.2-4.1,8.5-5.4,11.8c-7.9,20.3-15.2,42,3.6,59.2c1.4,1.3,2.9,2.5,4.5,3.7c11.4,8.3,25.5,11,32-1.7c4.6-8.8,6-23.7-3.5-29.8
					c-9.8-6.3-19.1,3.1-13.9-13.5c1.4-4.4,3-8.7,4.6-13c3.1-6.7,6.2-14.8,10-20.9c3.1-4.9,4.6-8.4,7.7-11.8c0.9-1,2.9-3.3,4.5-2.8
					c1.5,0.5,1,1.7,1.4,3c1,2.8,2.5,5.4,4.7,7.5c3.9,3.5,9.6,4.4,14.6,3c5-1.4,9.3-4.9,12.3-9.1c2.2-3.1,4.3-6.9,5.5-10.8
					C97.1,32.1,97.5,29.6,97.3,27.1"/>
			</g>
			<path id="Fill-28" d="M44.1,123.6V121V123.6z"/>
			<path id="Fill-30" d="M74.9,30.9v-2.6C70.2,28.3,70.2,30.9,74.9,30.9"/>
			<path id="Fill-32" d="M79.7,43.6V41C77.3,41,77.3,43.6,79.7,43.6"/>
			<path id="Fill-34" d="M70.2,39.9v2.6C74.9,42.5,74.9,39.9,70.2,39.9"/>
			<path id="Fill-36" d="M96,58.4c7,5.4,14.1,10.5,21.3,15.1c0.3-1.1,0.6-2.1,0.9-3.2c0.5-2.1,2.3-3.9,4.4-4.4
				c2.6-0.7,4.2,0.8,5.7,2.6c4.7,5.5,8.1,12.1,11.9,18.2c7.1,11.5,4.6,10.3-0.9,6c-4.1-3.3-10-7.6-12.6-10.3
				c-0.5,1.5-1.1,2.9-1.6,4.5c-1.3,3.5-5,3.2-7.8,1.7c-3.1-1.7-5.5-5.3-7.7-8c-5.3-6.3-10.4-12.8-15.7-19.1
				C89.3,56.1,89.9,53.7,96,58.4"/>
			<g id="Group-40" transform="translate(100.476987, 40.149648)">
				<g id="Clip-39">
				</g>
				<defs>
					<filter id="Adobe_OpacityMaskFilter_1_" filterUnits="userSpaceOnUse" x="0.8" y="0.5" width="44.5" height="15.7">
						<feColorMatrix  type="matrix" values="1 0 0 0 0  0 1 0 0 0  0 0 1 0 0  0 0 0 1 0"/>
					</filter>
				</defs>
				<mask maskUnits="userSpaceOnUse" x="0.8" y="0.5" width="44.5" height="15.7" id="mask-4">
					<g filter="url(#Adobe_OpacityMaskFilter_1_)">
						<polygon id="path-3" fill="#FFFFFF" points="45.3,16.2 45.3,0.5 0.8,0.5 0.8,16.2 						"/>
					</g>
				</mask>
				<path id="Fill-38" mask="url(#mask-4)" d="M4.5,6.8C10.3,7.3,16.2,7.7,22,7.7c-0.2-0.7-0.4-1.4-0.7-2.1c-0.5-1.4-0.1-3,0.9-4.1
					c1.2-1.3,2.6-1.1,4.2-0.6c4.6,1.4,8.9,3.9,13.3,6.1c8.2,3.9,6.3,4.2,1.6,3.7c-3.5-0.4-8.4-0.7-10.9-1.3c0.2,1,0.5,2,0.7,3.1
					c0.5,2.5-1.7,3.6-3.8,3.8c-2.4,0.2-5-1-7.2-1.7C14.8,12.8,9.6,11,4.3,9.3C-0.2,8-0.7,6.4,4.5,6.8"/>
			</g>
		</g>
	</g>
</g>
</svg>
