<?xml version="1.0" encoding="utf-8"?>
<!-- Generator: Adobe Illustrator 18.0.0, SVG Export Plug-In . SVG Version: 6.00 Build 0)  -->
<!DOCTYPE svg PUBLIC "-//W3C//DTD SVG 1.1//EN" "http://www.w3.org/Graphics/SVG/1.1/DTD/svg11.dtd">
<svg version="1.1" id="shelter-medical" xmlns="http://www.w3.org/2000/svg" xmlns:xlink="http://www.w3.org/1999/xlink" x="0px"
	 y="0px" viewBox="0 0 311 227" enable-background="new 0 0 311 227" xml:space="preserve">
<title>D290F42D-F55F-49E6-BD13-29EDDF2B2BC8</title>
<desc>Created with sketchtool.</desc>
<g id="shelter">
	<path id="Fill-1" fill-opacity="0.1" d="M281.6,211.1c-1-7.9-7-14.6-14.1-18.2c-7.1-3.6-15.3-4.5-23.2-4.6c-27.1-0.2-54.1,9.2-81,6
		c-11.7-1.4-23.1-5.1-34.8-4.9c-8,0.1-15.9,2-23.6,3.9c-9.8,2.4-19.6,4.8-29.4,7.2c-6.3,1.5-13.1,3.4-17,8.5c-0.7,0.9-1.3,2-1.1,3.1
		c0.2,1.1,1.2,1.9,2.1,2.5c14.5,9.7,32.9,11.2,50.3,11.1c6,0,12.1-0.3,18.1-0.2c8.7,0.1,17.3-1.6,26.1-1.8
		c10.9-0.3,21.8-0.5,32.7-0.8c30.2-0.7,63.6,4,91.8-7.4c1.1-0.4,2.3-0.9,2.9-2C281.7,212.8,281.7,211.9,281.6,211.1"/>
</g>
<g id="wow">
	<path id="Fill-32" fill="#E6E6E6" d="M67.7,122.3c-0.3,0.1-0.5,0.2-0.8,0.2c-3.4,0.9-4.7,0.3-3.9-1.8c-0.1-1.8,1.5-3.5,2.4-4.9
		c1.8-2.6,3.9-4.7,6.4-6.6c0.7-0.5-0.3-0.8-0.7-0.7c-9.6,1.4-16.1,8.4-21.8,15.7c-4.8-12.7,15.3-20.7,20.3-30
		c0.3-0.6-1.2-0.4-1.3-0.3c-15.2,3.4-28.5,12.7-36.8,25.9c0.8-5.3,2.7-10.3,5.8-14.8c3.6-5.3,8.7-8.7,13.8-12.3
		c3.5-2.5,8.2-5.9,9.9-10.1c1.3-3.4-0.8-5.5-4.1-4.5c-5,1.5-9.9,5-14.3,7.8c-4.9,3.1-9.5,6.6-13.9,10.5c-4.4,3.8-8.5,7.9-12.2,12.4
		c-3.6,4.2-7.6,9.2-6,15c0.2,0.7,2.5,0.1,2.3-0.6c-1.7-6.1,3-11.2,6.7-15.4c3.4-3.9,7.1-7.6,11.1-11.1c4.2-3.7,8.8-7.1,13.5-10.2
		c2-1.3,4.1-2.6,6.2-3.7c1.7-1,8.5-5.3,8.9-1.6c0.5,4.5-6.6,9.1-9.7,11.4c-3.5,2.5-7,4.8-10.1,7.9c-6.5,6.5-10,15.1-10.4,24.2
		c0,0,0,0,0,0h0c0,0,0,0.1,0,0.1c0,0.7,2.1-0.1,2.3-0.5c7.2-14.3,20.3-24.9,35.7-28.8c-5.9,9.3-26.3,17.6-19.2,31.2
		c0.4,0.7,1.9,0.1,2.2-0.3c4.9-6.5,10.6-13.8,18.7-16c-1.8,1.6-3.5,3.3-5,5.3c-1.1,1.5-3.1,4-3.2,5.9c-0.3,6.1,10.4,0.3,10.2,4.1
		c0,0.8,2.3,0.3,2.3-0.3C73.1,121.7,70,122,67.7,122.3"/>
	<path id="Stroke-34" fill="none" stroke="#E6E6E6" stroke-width="1.584" stroke-linecap="round" d="M103,105.3h4.7"/>
	<path id="Stroke-36" fill="none" stroke="#E6E6E6" stroke-width="1.584" stroke-linecap="round" d="M105.4,107.7v-4.8"/>
	<path id="Stroke-38" fill="none" stroke="#E6E6E6" stroke-width="1.584" stroke-linecap="round" d="M1,164.8h5.5"/>
	<path id="Stroke-40" fill="none" stroke="#E6E6E6" stroke-width="1.584" stroke-linecap="round" d="M2.6,167.2v-5.6"/>
	<path id="Stroke-42" fill="none" stroke="#E6E6E6" stroke-width="1.584" stroke-linecap="round" d="M14.4,71.2H8.9"/>
	<path id="Stroke-44" fill="none" stroke="#E6E6E6" stroke-width="1.584" stroke-linecap="round" d="M11.3,67.2v5.6"/>
	<path id="Stroke-46" fill="none" stroke="#E6E6E6" stroke-width="1.584" stroke-linecap="round" d="M48.5,191.8h4"/>
	<path id="Stroke-48" fill="none" stroke="#E6E6E6" stroke-width="1.584" stroke-linecap="round" d="M49.3,194.2v-5.6"/>
	<path id="Stroke-50" fill="none" stroke="#E6E6E6" stroke-width="1.584" stroke-linecap="round" d="M145.7,91.6L149,95"/>
	<path id="Stroke-52" fill="none" stroke="#E6E6E6" stroke-width="1.584" stroke-linecap="round" d="M145.7,95l3.4-3.4"/>
	<path id="Stroke-54" fill="none" stroke="#E6E6E6" stroke-width="1.584" stroke-linecap="round" d="M101.1,73l3.4,3.4"/>
	<path id="Stroke-56" fill="none" stroke="#E6E6E6" stroke-width="1.584" stroke-linecap="round" d="M101.1,76.4l3.4-3.4"/>
	<path id="Stroke-58" fill="none" stroke="#E6E6E6" stroke-width="1.584" stroke-linecap="round" d="M57.4,157.9l3.4,3.4"/>
	<path id="Stroke-60" fill="none" stroke="#E6E6E6" stroke-width="1.584" stroke-linecap="round" d="M57.4,161.3l3.4-3.4"/>
	<path id="Stroke-62" fill="none" stroke="#E6E6E6" stroke-width="1.584" stroke-linecap="round" d="M43.6,164.9
		c0,1.1-0.9,2.1-2,2.1c-1.1,0-2-0.9-2-2.1c0-1.1,0.9-2.1,2-2.1C42.7,162.9,43.6,163.8,43.6,164.9L43.6,164.9z"/>
	<path id="Stroke-64" fill="none" stroke="#E6E6E6" stroke-width="1.584" stroke-linecap="round" d="M73.5,30.6c0,1.1-0.9,2.1-2,2.1
		c-1.1,0-2-0.9-2-2.1s0.9-2.1,2-2.1C72.6,28.6,73.5,29.5,73.5,30.6L73.5,30.6z"/>
	<path id="Fill-66" fill="#E6E6E6" d="M223.4,124.1c-5.9-8.1,3.4-20.6,12.3-21.4c5.1-0.5,9.5,4.3,8.9,9.3c-0.4,2.9-2.5,6.1-5.5,6.8
		c-2.2,0.5-5.4-0.7-6.2-2.9c-0.6-1.6-0.4-7.3,4-4.1c0.7,0.6,2.8-0.5,1.8-1.3c-5.2-3.8-11.5,3.4-6.7,8.1c5.9,5.9,15.5-1.7,15-8.7
		c-0.5-9.1-10.7-10.5-17.1-6.7c-7.2,4.2-14.6,13.6-8.6,21.8C221.8,125.9,224,125,223.4,124.1"/>
	<path id="Fill-68" fill="#E6E6E6" d="M137.9,54.2c-5.3,2.4-13.4,10.9-5.3,15c4.2,2.1,10,1.2,13.5-1.8c2.3-2,3.8-4.8,0.8-6.9
		c-2.2-1.6-5.3-1.9-7.9-1.3c-2.1,0.4-4.2,2.7-2.6,4.9c1.1,1.5,2.9,1,4.3,0.4c1.4-0.6-0.8-0.6-1.3-0.3c-0.4,0.2-0.9-1.7-0.9-2.2
		c0-1,0.3-1.6,0.9-2.4l-1,0.6c4.1-1,10.7,2,6.7,6.5c-2.6,2.8-6.8,3.4-10.2,1.7c-7.5-3.7-0.5-11.7,4.4-13.9
		C140.6,53.9,138.5,53.9,137.9,54.2"/>
</g>
<g id="ps-dog-1">
	<path id="Fill-3" fill="#4D4D4D" d="M151.5,127.3c3.2-3.1,6.9-5.9,11.3-6.5s9.4,1.8,10.5,6.1c0.2,0.8,0.2,1.6,0,2.3
		c-0.6,1.7-2.5,2.3-4.2,2.9c-5.8,2-11.2,5.3-15.6,9.5c-0.7,0.7-1.4,1.4-1.6,2.4c-0.3,1.2,0.3,2.4,0.9,3.4c1.4,2.6,3,5,4.6,7.4
		c1.3,2,1.1,4.5-0.4,6.4c-1.4,1.8-2.3,4.1-2.7,5.9c-0.8,3.2-0.6,6.6,0.2,9.9c0.7,3.1,1.9,6.1,1.6,9.2c-0.2,1.9-1.1,3.7-2.1,5.4
		c-1.5,2.6-3.5,5.1-6.3,6.3c-0.3,0.1-0.6,0.2-0.9,0.3c-12.2,3.2-16.1-9.1-15.1-17.2c1-8.2,5.6-16.7,13.4-20.1
		c1.2-0.5,2.6-1.2,2.8-2.5c0.1-0.7-0.3-1.4-0.6-2c-1.5-2.6-3.5-5.1-5.7-7.2c-1.7-1.6-2.2-4.2-1.1-6.3
		C143,137.1,146.9,131.8,151.5,127.3"/>
	<path id="Fill-5" fill="#4D4D4D" d="M230.8,192.4c-3.3,0.2-6.7,0.4-10-0.2c-3.7-0.7-7.1-2.5-10.4-4.3c-2.8-1.5-5.7-3.1-7.1-5.9
		c-0.9-1.8-1.1-3.9-0.9-5.9c0.7-8.3,7.1-15.5,14.7-18.7c7.7-3.3,16.4-3.1,24.6-1.5c6.2,1.3,12.3,3.4,17.8,6.5
		c4.2,2.4,8.1,6.1,12.6,7.8c10.6,4,21.6-7.3,32.8-5c1.5,0.3,3.2,1.1,3.4,2.7c0.2,1.2-0.6,2.3-1.4,3c-2.8,2.5-6.8,2.8-10.5,3.6
		c-3.2,0.7-6.2,1.9-9.2,3.1c-3.8,1.5-7.6,3-11.3,4.5c-4.5,1.8-7.5,4.8-12.2,6.2c-4.6,1.3-9.3,1.9-14,2.4
		C243.3,191.5,237,192,230.8,192.4"/>
	<path id="Fill-7" fill="#FFF000" d="M128,166.2c3.4-0.8,7-1.4,10.4-1.8c6.6-0.9,13.3-1.5,19.7-3.3c2.8-0.8,5.5-1.4,8.2-2.5
		c3-1.2,6-2.6,8.9-4c3-1.5,6.4-3,8.9-5.2c1.8-1.6,2.9-3.3,5.1-4.5c4.1-2.3,8.9-3.6,13.6-4.2c20.3-2.8,42.1,7.9,49.1,27.9
		c2.5,7.1,2.2,15.9-2.4,21.4c-2.9,3.4-7.1,5.1-11.2,6.5c-9.5,3.1-19.4,4.5-29.3,4.9c-7.8,0.3-15.6,0.1-23.4-0.4
		c-6-0.4-11.8-0.8-17.5-2.8c-4.6-1.6-9-3.4-13.8-4.4c-7.5-1.6-15.4-2.3-22.6-4.8c-7.1-2.5-13.4-9.6-15.5-16.9
		c-0.1-0.3-0.2-0.6-0.1-0.9c0.1-0.3,0.4-0.5,0.7-0.7C120.4,168.4,124.1,167.1,128,166.2"/>
	<path id="Fill-9" fill="#4D4D4D" d="M127.6,173.7c7.3-1.4,14.6-2.4,21.9-3.2c5-0.5,10.1-1,14.9-2.5c10.2-3.2,18.6-11,28.5-15.4
		c21.2-9.3,51.7-0.7,60.6,24.7c2.5,7.1,2.2,15.9-2.4,21.4c-2.9,3.4-7.1,5.1-11.2,6.5c-31.2,10.1-64.9,1.8-96.7,1.9
		c-8.2,0-19.8-1.4-26.6-6.6c-4.2-3.2-7.3-8.9-6.2-14.4c0.8-4,3.6-7.1,6.8-9C120.4,175.1,124,174.3,127.6,173.7"/>
	<path id="Fill-11" fill="#4E91FF" d="M127.6,168.9c7.3-1.4,14.6-2.4,21.9-3.2c5-0.5,10.1-1,14.9-2.5c10.2-3.2,18.6-11,28.5-15.4
		c21.2-9.3,51.7-0.7,60.6,24.7c2.5,7.1,2.2,15.9-2.4,21.4c-2.9,3.4-7.1,5.1-11.2,6.5c-31.2,10.1-64.9,1.8-96.7,1.9
		c-8.2,0-19.8-1.4-26.6-6.6c-4.2-3.2-7.3-8.9-6.2-14.4c0.8-4,3.6-7.1,6.8-9C120.4,170.3,124,169.6,127.6,168.9"/>
	<path id="Fill-13" fill="#FFF000" d="M217,200.2c-6.3,0.8-12.6-4-14.3-10.2c-1.7-6.2,0.6-13,5.1-17.6c4.4-4.6,10.7-7.1,17-8
		c6.9-1,14-0.1,20.5,2.4c7,2.7,11.1,7.6,16.9,11.9c2.1,1.6,4.3,3.2,6.8,3.9c1.5,0.4,3.2,0.4,4.8,0.5c3.7,0.2,7.3,0.7,10.9,1.6
		c1.2,0.3,2.5,0.6,3.4,1.5c0.9,0.9,1.3,2.4,0.5,3.4c-0.5,0.7-1.4,0.9-2.3,1.1c-5.1,1.1-10.1,2.2-15.2,3.3
		C253.2,197.8,235.1,197.9,217,200.2"/>
	<defs>
		<filter id="Adobe_OpacityMaskFilter" filterUnits="userSpaceOnUse" x="199" y="166.5" width="111.8" height="35.9">
			<feColorMatrix  type="matrix" values="1 0 0 0 0  0 1 0 0 0  0 0 1 0 0  0 0 0 1 0"/>
		</filter>
	</defs>
	<mask maskUnits="userSpaceOnUse" x="199" y="166.5" width="111.8" height="35.9" id="mask-2">
		<g filter="url(#Adobe_OpacityMaskFilter)">
			<polygon id="path-1" fill="#FFFFFF" points="310.7,202.3 310.7,166.5 199,166.5 199,202.3 			"/>
		</g>
	</mask>
	<path id="Fill-15" mask="url(#mask-2)" fill="#4E91FF" d="M213.9,202.3c-0.5,0-1,0-1.5,0c-6,0.1-11.2-4-12.8-9.9
		c-1.7-6.2,0.6-13,5.1-17.6c4.4-4.6,10.7-7.1,17-8c12.4-1.8,25.6,2.7,34.5,11.6c2.5,2.5,4.8,5.4,8.2,6.3c1.9,0.5,4,0.2,5.9,0
		c5.5-0.8,11-1.8,16.5-1.6c5.5,0.3,10.9,1.8,16.2,3.3c2,0.6,4,1.2,5.6,2.5c1.6,1.3,2.6,3.5,2,5.5c-1.1,3.3-5.6,3.4-9,3
		c-8.2-1.1-16.4-2.3-24.6-2.1c-11.5,0.2-22.8,2.9-34.2,4.7c-4.6,0.7-9.2,0.8-13.9,1.4C223.8,202,218.8,202.2,213.9,202.3"/>
	<path id="Fill-18" fill="#4D4D4D" d="M120.6,202.4c-0.9,1.3-2.1,2.4-3.5,3.2c-1,0.6-2.1,1-3.2,1.3c-7.3,2.1-14.4,1.6-21.8,0.8
		c-7.3-0.8-13.5-2.1-20.1-5.6c-0.8-0.4-1.7-0.9-2.3-1.6c-0.9-0.9-0.6-2.3,0.5-2.8c3.5-1.6,7.1-3,10.7-4.2c0.9-0.3,1.7-0.7,2.4-1.2
		c2.5-1.9,1.7-3.2-0.5-4c-2.1-0.8-4.1-1.5-6-2.9c-2.9-2-5.3-4.9-6.7-8.1c-0.6-1.3,0.5-2.7,1.8-2.5c4.4,0.6,8.8,0.7,12.6-1.4
		c5.1-2.9,7.3-9.1,7.7-15c0.5-7.1,0.5-14.2,1.2-21.4c0.2-1.6,0.4-3.3,1.6-4.3c0.5-0.4,1.1-0.7,1.7-0.9c6.2-2.2,11.4-1.5,17,1.7
		c3.5,2,6.6,4.7,9.2,7.9c1.9,2.3,4.2,4.5,5.3,7.3c1.3,3.3,0.9,7.1-0.1,10.5c-1,3.4-2.4,6.7-3,10.3c-1.1,6.1,0.3,12.3,0.3,18.4
		C125.4,193.2,123.5,198.3,120.6,202.4"/>
	<path id="Fill-20" fill="#4E91FF" d="M117.8,199.5c-0.9,1.3-2.1,2.4-3.5,3.2c-1,0.6-2.1,1-3.2,1.3c-7.3,2.1-14.4,1.6-21.8,0.8
		c-7.3-0.8-13.5-2.1-20.1-5.6c-0.8-0.4-1.7-0.9-2.3-1.6c-0.9-0.9-0.6-2.3,0.5-2.8c3.5-1.6,7.1-3,10.7-4.2c0.9-0.3,1.7-0.7,2.4-1.2
		c2.5-1.9,1.7-3.2-0.5-4c-2.1-0.8-4.1-1.5-6-2.9c-2.9-2-5.3-4.9-6.7-8.1c-0.6-1.3,0.5-2.7,1.8-2.5c4.4,0.6,8.8,0.7,12.6-1.4
		c5.1-2.9,7.3-9.1,7.7-15c0.5-7.1,0.5-14.2,1.2-21.4c0.2-1.6,0.4-3.3,1.6-4.3c0.5-0.4,1.1-0.7,1.7-0.9c6.2-2.2,11.4-1.5,17,1.7
		c3.5,2,6.6,4.7,9.2,7.9c1.9,2.3,4.2,4.5,5.3,7.3c1.3,3.3,0.9,7.1-0.1,10.5s-2.4,6.7-3,10.3c-1.1,6.1,0.3,12.3,0.3,18.4
		C122.7,190.3,120.8,195.4,117.8,199.5"/>
	<path id="Fill-22" fill="#4D4D4D" d="M104.4,147c-0.2-0.8-0.5-1.6-0.7-2.4c-0.3-1.2-0.7-2.5-1-3.7c-0.3-1-0.6-2.1-1.3-2.8
		c-0.3-0.3-0.9-0.3-1.1,0.1c-1.3,2.1-2.4,4.3-3.2,6.6c-0.1,0.3,0,0.7,0.3,0.9l3.2,1.8c1,0.6,2,0.8,3.1,1.1c0.1,0,0.3,0.1,0.4,0
		c0.3-0.1,0.3-0.4,0.3-0.7C104.5,147.7,104.4,147.3,104.4,147"/>
	<path id="Fill-24" fill="#4D4D4D" d="M96.7,189.2c0.6,0.5,0.6,1.5,0.1,2.1s-1.3,0.9-2,1.1c-0.6,0.2-1.3,0.4-1.9,0.6
		c-0.6-1.2-1-2.5-1.3-3.8c1.2-0.1,2.5-0.2,3.7-0.2C95.8,189,96.3,188.9,96.7,189.2"/>
	<path id="Fill-26" fill="#4D4D4D" d="M95,176.5c-0.2,0.3-0.5,0.4-0.9,0.5c-0.5,0.1-1,0.2-1.5,0.2c-0.9,0.1-1.7,0.1-2.6,0.1
		c-0.1-1.1-0.1-2.1,0-3.2c0.7,0,1.4-0.1,2.1,0c0.7,0,1.4,0.2,2,0.5c0.6,0.3,1,0.9,1,1.4C95.1,176.2,95.1,176.3,95,176.5"/>
	<path id="Fill-28" fill="#4D4D4D" d="M191.1,145.5c4.4-0.5,9.1-0.3,12.9,1.9c3.8,2.3,6.3,7.3,4.4,11.3c-0.3,0.7-0.8,1.4-1.4,1.8
		c-1.5,0.9-3.4,0.3-5.1-0.3c-5.8-2-12-2.8-18.1-2.3c-1,0.1-2,0.2-2.7,0.8c-0.9,0.8-1.2,2-1.4,3.2c-0.5,2.9-0.8,5.8-1,8.6
		c-0.2,2.4-1.9,4.2-4.2,4.8c-2.2,0.5-4.3,1.8-5.8,2.9c-2.6,2-4.6,4.8-6,7.8c-1.3,2.8-2.3,6-4.5,8.2c-1.4,1.4-3.2,2.3-5,3
		c-2.8,1.1-5.9,1.8-8.8,1.1c-0.3-0.1-0.6-0.2-0.9-0.3c-11.5-5.1-7-17.2-1.2-22.9c5.8-5.8,14.7-9.6,23-7.4c1.3,0.3,2.8,0.7,3.7-0.3
		c0.5-0.5,0.6-1.3,0.7-2c0.4-3,0.4-6.1,0-9.2c-0.3-2.4,0.9-4.7,3.1-5.7C178.4,148,184.7,146.2,191.1,145.5"/>
	<path id="Fill-30" fill="#4E91FF" d="M189.7,143c4.4-0.5,9.1-0.3,12.9,1.9c3.8,2.3,6.3,7.3,4.4,11.3c-0.3,0.7-0.8,1.4-1.4,1.8
		c-1.5,0.9-3.4,0.3-5.1-0.3c-5.8-2-12-2.8-18.1-2.3c-1,0.1-2,0.2-2.7,0.8c-0.9,0.8-1.2,2-1.4,3.2c-0.5,2.9-0.8,5.8-1,8.6
		c-0.2,2.4-1.9,4.2-4.2,4.8c-2.2,0.5-4.3,1.8-5.8,2.9c-2.6,2-4.6,4.8-6,7.8c-1.3,2.8-2.3,6-4.5,8.2c-1.4,1.4-3.2,2.3-5,3
		c-2.8,1.1-5.9,1.8-8.8,1.1c-0.3-0.1-0.6-0.2-0.9-0.3c-11.5-5.1-7-17.2-1.2-22.9c5.8-5.8,14.7-9.6,23-7.4c1.3,0.3,2.8,0.7,3.7-0.3
		c0.5-0.5,0.6-1.3,0.7-2c0.4-3,0.4-6.1,0-9.2c-0.3-2.4,0.9-4.7,3.1-5.7C177,145.4,183.3,143.6,189.7,143"/>
	<path id="Fill-70" fill="#4D4D4D" d="M274.1,217.1c-8.5,6.4-19.2,10.2-29.8,9.3c-7.6-0.6-15.2-3.8-20.7-9.1c-1.8-1.7-0.2-4.6,2.2-4
		c2.7,0.6,5.5,0.8,8.2,1c13,0.9,26.1,0.2,39-2c2.4-0.4,3.7,2.6,1.9,4.2C274.6,216.6,274.3,216.9,274.1,217.1"/>
</g>
<g id="medical">
	<path id="Fill-72" fill="#FFFFFF" d="M199,91.9c2.4,0.7,5.1,1.2,7.5,0.3s4.3-3.5,3.5-6c-3.2-11-22.6-5.5-16.8,2.3
		C194.6,90.3,196.8,91.2,199,91.9"/>
	<path id="Fill-74" fill="#FFFFFF" d="M213.1,76.1c-4-2.5-8-5.1-11.9-7.8c-1.6-1.2-3.5-2.7-3.3-4.7c0.2-2.5,3.2-3.7,5.7-3.9
		c6.2-0.6,12.5,0.8,17.9,3.9c1.5,0.9,2.9,1.9,3.8,3.3c1.4,2,1.7,4.7,1.6,7.1c0,0.5-0.1,1-0.4,1.3c-0.3,0.3-0.6,0.4-1,0.5
		C220.1,77.4,217.9,79,213.1,76.1"/>
	<path id="Fill-76" fill="#FFFFFF" d="M157.5,40.6c-1.8-3.9-3.4-8-3.4-12.3c-0.1-10.2,8.8-18.4,18-22.8c17.8-8.4,39.7-7.2,56.6,3
		c4.7,2.8,9,6.4,11.9,11.1c2.9,4.7,4,10.6,2.2,15.8c-3,8.7-12.8,12.6-21.7,15c-12.4,3.3-25.1,5.4-37.9,6.2
		c-4.5,0.3-9.2,0.4-13.4-1.4C163.9,52.7,160.2,46.6,157.5,40.6"/>
	<path id="Fill-78" fill="#4D4D4D" d="M217.8,39.8c-1.2,3.2-6.9,2.7-9.5,2.9c-6.1,0.5-12.3,1-18.4,1.5c-2.8,0.2-5.6,0.5-8.4,0.7
		c-1.5,0.1-3.1,0.4-4.6,0.4c-3-0.1-4.5-0.4-4.7-3.2c-0.3-6.6-0.9-13.1-1.4-19.7c15.6-1.3,31.2-2.7,46.9-4c0.1,0,0.3,0,0.4-0.1
		c0,4-0.1,8-0.1,12.1c0,1.6,0,3.1,0,4.7C217.8,36.2,218.2,38.8,217.8,39.8 M201.3,14c4.5-0.4,8.9-0.8,13.4-1.3
		c0.7-0.1,2.1-0.1,3.4-0.3c0,1.6,0,3.3,0,4.9c0,0,0,0-0.1,0l-47.3,4c-0.1-1.8-0.3-3.6-0.4-5.5C180.6,15.6,190.9,14.9,201.3,14
		 M218.1,11.3c0.4-0.7,0.3-0.2-0.5-0.2c-0.7,0.1-1.3,0.2-2,0.3c-1.6,0.2-3.1,0.4-4.7,0.5c-4,0.4-8,0.8-12,1.1
		c-9.8,0.8-19.5,1.4-29.4,1.6c-0.5,0-1.6,0.2-1.6,0.9c0.5,9.1,1.6,18.1,2,27.2c0.2,2.2,0.7,3.7,3,4.1c3.2,0.6,7.4-0.5,10.6-0.8
		c8.7-0.7,17.4-1.4,26.1-2.2c2.6-0.2,5.5-0.2,8-1.2c2.6-1.1,2.6-1.5,2.6-4.2c0.1-9.1,0.1-18.3,0.2-27.4
		C220.3,10.2,218.3,11,218.1,11.3"/>
	<path id="Fill-80" fill="#FF6496" d="M190.7,28.5l-0.2-4.8c0-0.4,0.3-0.8,0.7-0.8l5.5-0.3c0.4,0,0.8,0.3,0.8,0.8l0,4.7
		c0,0.5,0.4,0.8,0.9,0.8l4.9-0.5c0.5,0,0.8,0.3,0.9,0.7l0.3,5.1c0,0.4-0.3,0.8-0.7,0.8l-5,0.3c-0.4,0-0.8,0.4-0.7,0.9l0.4,4.7
		c0,0.4-0.3,0.8-0.7,0.9l-5.4,0.3c-0.4,0-0.8-0.3-0.8-0.8l-0.2-4.7c0-0.4-0.4-0.8-0.9-0.8l-5.5,0.4c-0.4,0-0.8-0.3-0.9-0.8l-0.2-4.9
		c0-0.4,0.3-0.8,0.7-0.8l5.5-0.3C190.3,29.3,190.7,28.9,190.7,28.5"/>
</g>
</svg>
