<?xml version="1.0" encoding="utf-8"?>
<!-- Generator: Adobe Illustrator 18.0.0, SVG Export Plug-In . SVG Version: 6.00 Build 0)  -->
<!DOCTYPE svg PUBLIC "-//W3C//DTD SVG 1.1//EN" "http://www.w3.org/Graphics/SVG/1.1/DTD/svg11.dtd">
<svg version="1.1" id="shelter-complaint" xmlns="http://www.w3.org/2000/svg" xmlns:xlink="http://www.w3.org/1999/xlink" x="0px"
	 y="0px" viewBox="0 0 184 297" enable-background="new 0 0 184 297" xml:space="preserve">
<title>01F974AD-01C1-49A7-8332-B3C59C5856E9</title>
<desc>Created with sketchtool.</desc>
<g id="dog">
	<path id="Fill-1" fill="#4D4D4D" d="M144.3,116.6c1.6,10.6-2.7,21.9-11.1,28.6c-1.6,1.3-3.4,2.6-3.7,4.6c-0.1,1,0.2,2.1,0.5,3
		c2,5.3,5.7,10,6.5,15.6c1,7.5-3.4,14.5-7.7,20.8c-3.3,4.8-6.6,9.7-9.9,14.5c-0.6,0.9-1.5,1.9-2.6,1.8c-0.8-0.1-1.4-0.8-1.9-1.4
		c-1.7-2.1-3.4-4.2-5.1-6.2c-1.1-1.3-2.2-2.9-1.8-4.6c0.2-1,1-1.7,1.7-2.4c3.4-3.1,7.6-5.3,11-8.4c3.4-3.1,6.1-7.7,5.1-12.3
		c-0.8-3.7-3.9-6.4-5.7-9.8c-5.2-9.4-0.1-21.1-1.2-31.9c-0.8-8.4-5.3-17.8-0.3-24.6c3.6-5,11.4-5.8,16.7-2.7
		C140.2,104.5,143.3,110.5,144.3,116.6"/>
	<path id="Fill-3" fill="#4D4D4D" d="M138.9,203.9c-3.5,5.2-7.9,9.8-10,15.6c-1.7,4.8-1.7,9.9-1.7,15c0,7.2,0,14.5,0,21.7
		c0,4.7-0.1,9.8-2.8,13.7c-2.7,3.9-9.1,5.6-12.4,2.2c6.8-17.2,5.4-36.3,3.9-54.7c-0.8-10.6-1.7-21.2-2.5-31.8
		c-0.5-6.8-1.1-13.9,1.1-20.4c2.1-6.5,7.7-12.5,14.6-13.1c6.2-0.5,12.3,3.4,15.4,8.7c3.1,5.3,3.8,11.7,3.3,17.8
		C147,187.6,143.9,196.4,138.9,203.9"/>
	<path id="Fill-5" fill="#4E91FF" d="M135.9,98.8c0-6.7-1.5-16.4-8-20.1c-2.6-1.5-5.6-2-8.2-3.6c-3.7-2.2-6.7-5.7-11-6.9
		c-4.2-1.2-8.9,0.2-12.2,2.9c-3.3,2.8-5.3,6.7-6.5,10.7c-2.7,9-7,18.3-6.2,27.5c0.9,10.5,4.4,20.7,5,31.3c0.9,15.7-4.5,31.2-5.3,47
		c-0.2,3.1-0.1,6.2,0.9,9.1c0.9,2.6,2.6,4.9,4.3,7.1c1.6,2.1,3.1,4.2,4.7,6.3c1.2,1.6,2.4,3.2,4.2,4.2c5,2.8,11.3-0.7,15.9-4.1
		c8.7-6.4,17.4-12.9,24-21.2c6.6-8.3,10.9-18.8,9.4-29.2c-1.1-7-4.7-13.4-6.9-20.2C135.7,126.4,136.8,112.4,135.9,98.8"/>
	<path id="Fill-7" fill="#4D4D4D" d="M118.8,225.8c-3.5,5.2-7.9,9.8-10,15.6c-1.7,4.8-1.7,9.9-1.7,15c0,7.2,0,14.5,0,21.7
		c0,4.7-0.1,9.8-2.8,13.7c-2.7,3.9-9.1,5.6-12.4,2.2c6.8-17.2,5.4-36.3,3.9-54.7c-0.8-10.6-1.7-21.2-2.5-31.8
		c-0.5-6.8-1.1-13.9,1.1-20.4c2.1-6.5,7.7-12.5,14.6-13.1c6.2-0.5,12.3,3.4,15.4,8.7c3.1,5.3,3.8,11.7,3.3,17.8
		C126.9,209.5,123.8,218.3,118.8,225.8"/>
	<path id="Fill-9" fill="#4E91FF" d="M113.7,226.9c-3.5,5.2-7.9,9.8-10,15.6c-1.7,4.8-1.7,9.9-1.7,15c0,7.2,0,14.5,0,21.7
		c0,4.7-0.1,9.8-2.8,13.7c-2.7,3.9-9.1,5.6-12.4,2.2c6.8-17.2,5.4-36.3,3.9-54.7c-0.8-10.6-1.7-21.2-2.5-31.8
		c-0.5-6.8-1.1-13.9,1.1-20.4c2.1-6.5,7.7-12.5,14.6-13.1c6.2-0.5,12.3,3.4,15.4,8.7c3.1,5.3,3.8,11.7,3.3,17.8
		C121.9,210.6,118.8,219.4,113.7,226.9"/>
	<path id="Fill-11" fill="#4D4D4D" d="M116.7,114.8c1.6,10.6-2.7,21.9-11.1,28.6c-1.6,1.3-3.4,2.6-3.7,4.6c-0.1,1,0.2,2.1,0.5,3
		c2,5.3,5.7,10,6.5,15.6c1,7.5-3.4,14.5-7.7,20.8c-3.3,4.8-6.6,9.7-9.9,14.5c-0.6,0.9-1.5,1.9-2.6,1.8c-0.8-0.1-1.4-0.8-1.9-1.4
		c-1.7-2.1-3.4-4.2-5.1-6.2c-1.1-1.3-2.2-2.9-1.8-4.6c0.2-1,1-1.7,1.7-2.4c3.4-3.1,7.6-5.3,11-8.4c3.4-3.1,6.1-7.7,5.1-12.3
		c-0.8-3.7-3.9-6.4-5.7-9.8c-5.2-9.4-0.1-21.1-1.2-31.9c-0.8-8.4-5.3-17.8-0.3-24.6c3.6-5,11.4-5.8,16.7-2.7
		C112.6,102.7,115.7,108.7,116.7,114.8"/>
	<path id="Fill-13" fill="#FFF000" d="M110.2,113c1.1,7.3-0.3,18-6.6,22.8c-2.3,1.8-5.1,2.9-7.4,4.7c-1.2,0.9-8.8,7.2-9.2,3.9
		c-0.9-7.8-1.9-15.9-3.4-23.5c-1.3-6.5-3.9-14.6,0.4-20.5c3.6-5,11.4-5.8,16.7-2.7C106.1,100.8,109.3,106.8,110.2,113"/>
	<path id="Fill-15" fill="#4E91FF" d="M113.4,113c1.6,10.6-2.7,21.9-11.1,28.6c-1.6,1.3-3.4,2.6-3.7,4.6c-0.1,1,0.2,2.1,0.5,3
		c2,5.3,5.7,10,6.5,15.6c1,7.5-3.4,14.5-7.7,20.8c-3.3,4.8-6.6,9.7-9.9,14.5c-0.6,0.9-1.5,1.9-2.6,1.8c-0.8-0.1-1.4-0.8-1.9-1.4
		c-1.7-2.1-3.4-4.2-5.1-6.2c-1.1-1.3-2.2-2.9-1.8-4.6c0.2-1,1-1.7,1.7-2.4c3.4-3.1,7.6-5.3,11-8.4c3.4-3.1,6.1-7.7,5.1-12.3
		c-0.8-3.7-3.9-6.4-5.7-9.8c-5.2-9.4-0.1-21.1-1.2-31.9c-0.8-8.4-5.3-17.8-0.3-24.6c3.6-5,11.4-5.8,16.7-2.7
		C109.3,100.8,112.4,106.8,113.4,113"/>
	<path id="Fill-17" fill="#FFF000" d="M124.5,103.6C118,100,114,98,114.2,90c0.1-5.2,1.7-10.5,3.6-15.3c3.7-9.2,11.2-20,22.5-18.9
		c0.9,0.1,1.5,1,1.2,1.9c-0.9,2.8-2.7,5.3-3.5,8.2c-0.8,3,0.2,7.1,2.9,8.1c0.6,0.2,1.2,0,1.6-0.5c2.5-3.3,5.2-6.6,8.8-8.8
		c3.3-2,7.6-2.9,11.2-1.5c0.8,0.3,1.2,1.3,0.7,2.1L156.3,77c-0.6,1-1.2,2.1-1.3,3.2c-0.1,1.9,1.1,3.6,2.4,5c3.6,4,7.8,7.5,12.4,10.3
		c2.5,1.5,5.1,2.8,7.2,4.8c2.1,2,3.6,4.9,3,7.7c-0.7,3.8-4.7,6.3-6.8,8.6c-0.1,0.1-0.1,0.1-0.2,0.2c-4.7,3.4-10.9,9.8-17.9,9.3
		c-6.5-0.4-11-6.3-15.5-11C135.1,110.6,130.1,106.7,124.5,103.6"/>
	<path id="Fill-19" fill="#4E91FF" d="M128.4,102.1c-6.5-3.6-10.5-5.6-10.3-13.6c0.1-5.2,1.7-10.5,3.6-15.3
		c3.7-9.2,11.2-20,22.5-18.9c0.9,0.1,1.5,1,1.2,1.9c-0.9,2.8-2.7,5.3-3.5,8.2c-0.8,3,0.2,7.1,2.9,8.1c0.6,0.2,1.2,0,1.6-0.5
		c2.5-3.3,5.2-6.6,8.8-8.8c3.3-2,7.6-2.9,11.2-1.5c0.8,0.3,1.2,1.3,0.7,2.1l-6.9,11.8c-0.6,1-1.2,2.1-1.3,3.2
		c-0.1,1.9,1.1,3.6,2.4,5c3.6,4,7.8,7.5,12.4,10.3c2.5,1.5,5.1,2.8,7.2,4.8c2.1,2,3.6,4.9,3,7.7c-0.7,3.8-4.7,6.3-6.8,8.6
		c-0.1,0.1-0.1,0.1-0.2,0.2c-4.7,3.4-10.9,9.8-17.9,9.3c-6.5-0.4-11-6.3-15.5-11C139,109.1,133.9,105.1,128.4,102.1"/>
	<path id="Fill-22" fill="#4D4D4D" d="M168.2,100.6c0.4-0.3,0.9-0.5,1.3-0.4c0.3,0.1,0.6,0.4,0.8,0.6c1.3,1.5,2.6,3.1,3.9,4.6
		c0.1,0.1,0.2,0.3,0.2,0.5c0,0.1-0.2,0.2-0.3,0.3c-1.2,0.7-2.7,0.6-4.1,0.4c-2.1-0.2-4.2-0.5-6.2-0.7c-0.3,0-0.6-0.1-0.8-0.3
		c-0.3-0.3-0.3-0.8-0.1-1.2c0.2-0.4,0.5-0.6,0.9-0.9C165.3,102.6,166.7,101.6,168.2,100.6"/>
	<path id="Fill-24" fill="#4D4D4D" d="M136.3,77.6c0.6-0.3,1.4,0.1,1.8,0.7c0.3,0.6,0.3,1.4,0.2,2.1c-0.2,1.3-0.5,2.5-0.9,3.8
		c-0.1,0.5-0.3,0.9-0.8,1.2c-0.5,0.3-1.3,0-1.6-0.6c-0.3-0.5-0.2-1.1-0.2-1.6c0-0.6,0.1-1.3,0.2-1.9c0.1-0.9,0.3-1.7,0.6-2.5
		C135.7,78.3,135.9,77.9,136.3,77.6"/>
	<path id="Fill-26" fill="#4D4D4D" d="M151.7,81.8c0.7-0.2,1.4,0.5,1.5,1.3c0.1,0.8-0.2,1.5-0.4,2.2c-0.2,0.6-0.2,1.2-0.6,1.7
		c-0.3,0.5-1.1,0.8-1.5,0.4c-0.6-1.4-0.4-2.9,0.1-4.3C150.9,82.6,151.2,82,151.7,81.8"/>
	<path id="Fill-61" fill="#4E91FF" d="M50.5,158.9c1,2.9,2.9,5.4,5,7.7c3.6,3.8,8.1,6.8,13.1,8.1c3.2,0.8,6.5,0.9,9.7,0.2
		c1.4-0.3,1.4-2.2,0.1-2.7c-3.5-1.1-6.7-3.6-9.2-6.4c-6.8-7.5-10.8-18.3-8.1-27.8c0.3-1.2-0.9-2.2-2-1.6c-1.4,0.8-2.6,1.8-3.7,3
		C50.5,144.6,48.1,152.3,50.5,158.9"/>
</g>
<g id="hand">
	<path id="Fill-28" fill="#FFFFFF" d="M8,68.1c0.5,0,1.1,0.1,1.6,0.2c5.4,1,10.2,4.1,15.3,6.2c9.9,4,21.3,4.1,31.3,0.1
		c4-1.6,7.8-3.8,12-4.5c0.9-0.1,1.8-0.2,2.6,0.1c1.1,0.4,1.8,1.5,2.2,2.6c1.7,5.1-2.2,8.4-6.4,9.9c-5.3,1.8-10.2,4.1-15.7,5.2
		c-11,2.1-23,1.5-33.2-3.3c-4.2-1.9-17.5-5-17.6-11.1c0-2.1,1.5-4,3.4-4.8C4.9,68.1,6.4,68,8,68.1"/>
	<path id="Fill-30" fill="#4D4D4D" d="M51.9,21.5c1.7-0.9,3.8-0.4,5.7,0.3c5.9,2.5,10.5,7.9,13.2,13.9c2.7,6,3.6,12.5,3.9,18.9
		c0.1,2.3,0.1,4.7-0.6,6.8c-0.7,2.1-2.4,4-4.6,4.3c-1.2-1.3-1.2-3.2-1.4-4.9c-0.8-6.5-5.7-11.8-10.1-16.8c-4.4-5-8.9-10.8-8.7-17.3
		C49.3,24.7,50.1,22.4,51.9,21.5"/>
	<path id="Fill-32" fill="#FF6496" d="M54.4,19c1.7-0.9,3.8-0.4,5.7,0.3c5.9,2.5,10.5,7.9,13.2,13.9c2.7,6,3.6,12.5,3.9,18.9
		c0.1,2.3,0.1,4.7-0.6,6.8c-0.7,2.1-2.4,4-4.6,4.3c-1.2-1.3-1.2-3.2-1.4-4.9c-0.8-6.5-5.7-11.8-10.1-16.8c-4.4-5-8.9-10.8-8.7-17.3
		C51.8,22.2,52.6,19.9,54.4,19"/>
	<path id="Fill-34" fill="#4D4D4D" d="M74.5,54.3c5.7-2.1,8-9.1,9.2-15.3c1.6-8,2.5-16.5,0.7-24.6c-0.9-3.8-2.7-7.8-6.1-9.4
		c-3.7-1.8-8.2,0.1-10.5,3.5c-2.3,3.4-2.6,7.9-2,12.1c0.6,4.2,2.1,8.2,3.3,12.3c1.9,6.5,2.9,13.2,3,20c0,0.4,0,0.7,0.2,1
		C72.7,54.7,73.8,54.6,74.5,54.3"/>
	<path id="Fill-36" fill="#FF6496" d="M78.2,54c5.7-2.1,8-9.1,9.2-15.3c1.6-8,2.5-16.5,0.7-24.6c-0.9-3.8-2.7-7.8-6.1-9.4
		C78.3,3,73.8,4.9,71.5,8.3c-2.3,3.4-2.6,7.9-2,12.1c0.6,4.2,2.1,8.2,3.3,12.3c1.9,6.5,2.9,13.2,3,20c0,0.4,0,0.7,0.2,1
		C76.4,54.4,77.4,54.3,78.2,54"/>
	<path id="Fill-38" fill="#4D4D4D" d="M98.5,78.9c-0.2,1-0.6,1.9-1.3,2.6c-2.2,2.2-5.9,3.2-8.9,3.5c-5.5,0.6-11.1-1.9-15.4-5.2
		c-7.5-5.7-11.3-15.3-7.6-24.3c2.7-6.7,8.2-12.8,14.7-16c13.1-6.5,31.7-0.7,33.3,15.6c0.3,3.3-0.6,6.6-2,9.6c-1.2,2.5-3,6.5-5.7,7.7
		c-0.9,0.4-2,0.4-2.8-0.2c-0.3-0.2-0.6-0.6-0.8-0.9c-1.4-1.8-2.9-3.6-3.7-5.8c-0.2-0.4-0.3-0.8-0.2-1.3c0-0.3,0.2-0.6,0.3-1
		c0.7-1.7,1.5-3.3,2.3-4.9c0.7-1.5,0.9-3.1-0.4-4.3c-1.2-1.2-3.1-1.5-4.8-1.5c-3.7,0.1-7.2,1.8-9.8,4.4c-2.6,2.6-4.3,6-5.1,9.6
		c-0.4,1.8-0.6,3.8,0.3,5.5c3.2,6.2,10-5.3,15-0.9C97.6,72.8,99,76.2,98.5,78.9"/>
	<path id="Fill-40" fill="#FF6496" d="M100.9,81.3c-0.2,1-0.6,1.9-1.3,2.6c-2.2,2.2-5.9,3.2-8.9,3.5c-5.5,0.6-11.1-1.9-15.4-5.2
		c-7.5-5.7-11.3-15.3-7.6-24.3c2.7-6.7,8.2-12.8,14.7-16c13.1-6.5,31.7-0.7,33.3,15.6c0.3,3.3-0.6,6.6-2,9.6c-1.2,2.5-3,6.5-5.7,7.7
		c-0.9,0.4-2,0.4-2.8-0.2c-0.3-0.2-0.6-0.6-0.8-0.9c-1.4-1.8-2.9-3.6-3.7-5.8c-0.2-0.4-0.3-0.8-0.2-1.3c0-0.3,0.2-0.6,0.3-1
		c0.7-1.7,1.5-3.3,2.3-4.9c0.7-1.5,0.9-3.1-0.4-4.3c-1.2-1.2-3.1-1.5-4.8-1.5c-3.7,0.1-7.2,1.8-9.8,4.4c-2.6,2.6-4.3,6-5.1,9.6
		c-0.4,1.8-0.6,3.8,0.3,5.5c3.2,6.2,10-5.3,15-0.9C100,75.2,101.4,78.5,100.9,81.3"/>
	<path id="Fill-42" fill="#FF6496" d="M68.4,66.2c-1.2-1.2-2.5-2.3-3.9-3.3c-1.3-0.9-3.2-1.7-4.4-0.7c-0.5,0.4-0.8,0.9-1,1.5
		c-0.8,2.3-0.6,4.8,0.2,7.1c1.1,3.2,3,5.3,5,7.8c2.2,2.8,2.6,6.6,5,9.3c0.5,0.6,1.1,1.1,1.9,1.4c0.5,0.2,1.1,0.3,1.7,0.3
		c0.8,0.1,1.8,0.1,2.4-0.5c0.6-0.5,0.9-1.3,1-2.1C77.4,79.6,73.4,71.5,68.4,66.2"/>
</g>
<g id="wow">
	<path id="Fill-44" fill="#E6E6E6" d="M13.8,8.5c3.4,3,7.4,7.1,8.7,11.5c1.6,5.5-6.6,9.7-10.8,11.1c-3,1-0.3,2.6,1.8,1.9
		c4.8-1.6,11.8-5.3,13.6-10.5c2-5.4-5.5-12.8-9.1-15.9C16.8,5.6,12.6,7.4,13.8,8.5"/>
	<defs>
		<filter id="Adobe_OpacityMaskFilter" filterUnits="userSpaceOnUse" x="26" y="0.8" width="27.8" height="18.1">
			<feColorMatrix  type="matrix" values="1 0 0 0 0  0 1 0 0 0  0 0 1 0 0  0 0 0 1 0"/>
		</filter>
	</defs>
	<mask maskUnits="userSpaceOnUse" x="26" y="0.8" width="27.8" height="18.1" id="mask-2">
		<g filter="url(#Adobe_OpacityMaskFilter)">
			<polygon id="path-1" fill="#FFFFFF" points="53.8,0.8 26,0.8 26,18.9 53.8,18.9 			"/>
		</g>
	</mask>
	<path id="Fill-46" mask="url(#mask-2)" fill="#E6E6E6" d="M26,2.6c1,4.2,2.3,8.4,4.1,12.4c1.3,2.7,2.8,4.2,5.9,3.9
		c6.5-0.6,13-4.8,17.6-9.2c1.2-1.1-3.3-0.8-4.2,0.1c-2.9,2.8-11.6,10-14.4,4.5c-2.1-4-3.4-8.6-4.4-13C30.3,0.1,25.7,1.2,26,2.6"/>
	<path id="Fill-49" fill="#E6E6E6" d="M20.9,40.9c1.6-1.7,7.7-8.4,9.9-5.6c0.8,1.1,1.8,3.7,2.4,4.9c1.1,2.3,1.7,5,2.5,7.4
		c0.7,2.1,5.3,0.9,4.6-1.2c-1.3-3.8-2.6-7.3-4.3-10.8c-1-2.2-1.6-4.5-4.3-4.9c-5.4-0.8-11.3,5.5-14.6,8.9
		C15.1,41.6,19.4,42.4,20.9,40.9"/>
	<path id="Fill-51" fill="#E6E6E6" d="M54.2,18.2c-5.1,0.9-11.3,2.9-14.9,6.9c-4.1,4.7,3.3,11.3,5.9,15c1,1.4,5.4-0.2,4.2-1.9
		c-2-2.7-7-7.6-6.4-11c0.8-3.8,7-5.5,10.5-6.2C55.9,20.6,57.3,17.7,54.2,18.2"/>
	<path id="Fill-53" fill="#E6E6E6" d="M44.2,107.2c1.1,0.4,2.2,0.8,3.3,1.2c1.1,0.5,2.7,0.8,3.5,1.7c1.4,1.7,0.6,5.3,0.2,7.3
		c-0.2,0.9,2.1,0.6,2.3-0.3c0.2-1.2,0.5-2.5,0.5-3.7c0-1.3,0.1-3.4-0.8-4.4c-0.9-0.9-2.5-1.3-3.7-1.8c-1.3-0.5-2.6-1-3.9-1.4
		C44.8,105.6,42.9,106.8,44.2,107.2"/>
	<path id="Fill-55" fill="#E6E6E6" d="M46.7,101.5c1.9,1.5,3.7,3.1,5.6,4.5c1,0.7,2.1,1.4,3.3,1.1c2.7-0.5,4-3.9,5.6-5.7
		c1-1.1-0.7-2.8-1.7-1.7c-1.2,1.3-2,3.5-3.5,4.5c-2.1,1.4-6.1-3-7.8-4.4C47.2,98.9,45.5,100.6,46.7,101.5"/>
	<path id="Fill-57" fill="#E6E6E6" d="M59.7,116.7c-0.1-0.9-0.2-1.9-0.3-2.8c-0.1-0.8-0.5-2.4-0.2-3.2c0.6-1.5,4-2.2,5.4-2.3
		c1.5-0.1,1.5-2.5,0-2.4c-2.4,0.2-5.4,1.1-7.2,2.8c-0.9,0.8-0.7,1.8-0.6,2.9c0.2,1.7,0.3,3.3,0.5,5
		C57.5,118.2,59.9,118.2,59.7,116.7"/>
</g>
</svg>
