<?xml version="1.0" encoding="utf-8"?>
<!-- Generator: Adobe Illustrator 18.0.0, SVG Export Plug-In . SVG Version: 6.00 Build 0)  -->
<!DOCTYPE svg PUBLIC "-//W3C//DTD SVG 1.1//EN" "http://www.w3.org/Graphics/SVG/1.1/DTD/svg11.dtd">
<svg version="1.1" id="wild_animal" xmlns="http://www.w3.org/2000/svg" xmlns:xlink="http://www.w3.org/1999/xlink" x="0px"
	 y="0px" viewBox="0 0 294 281" enable-background="new 0 0 294 281" xml:space="preserve">
<title>675375AD-27F8-4AD0-98C8-579914DBFEE2</title>
<desc>Created with sketchtool.</desc>
<g id="p4-bird">
	<path id="Fill-44" fill-opacity="0.1" d="M73.6,242.8c15.3-3.1,31.5-0.3,45.8,5.9c4.9,2.1,9.7,4.7,14.2,7.6c2.4,1.5,5,3.8,4.4,6.6
		c-0.7,3.1-4.7,3.9-7.9,4.3c-8,1-15.6,4.1-23.2,7c-7.6,2.9-15.3,5.7-23.4,6.1c-8.1,0.4-16.7-1.8-22.2-7.7
		c-5.6-5.9-7.1-15.8-2.2-22.2C62.4,246,68.1,243.9,73.6,242.8"/>
	<path id="Fill-46" fill="#4D4D4D" d="M101.6,227.5c4.1,4.6,9.3,8.2,15.2,10c7.8,2.5,16.9,2.4,23.6,6.9c0.7,0.5,1.6,0,1.6-0.9
		c-0.6-9.7-4-19.2-9.8-27c-2.1-2.8-4.5-5.4-7.3-7.3c-4.3-2.9-9.4-4-14.5-4.2c-1.5,0-12.6-0.2-12.8,2.1c-0.6,8-3,11,2.3,18.1
		C100.4,226.1,101,226.8,101.6,227.5"/>
	<path id="Fill-48" fill="#4E91FF" d="M74.2,208.8c10.2,6,22.9,1.9,33.4-0.7c3.4-0.8,7.5-0.9,10.2-3.5c3.7-3.6,4.3-10.5,4.4-15.3
		c0.2-6.3-0.4-14.5-2.1-20.5c-1.7-5.8-10.5-6-15.3-6c-8.6,0-20-0.8-28.1,3.6c-8.2,4.5-9.7,14.7-10.3,23.2c-0.3,3.7-0.2,7.5,1.1,11
		C68.8,204.4,71.2,207,74.2,208.8"/>
	<path id="Fill-50" fill="#4E91FF" d="M114,153.4c0.5,5.2-0.5,10.1-3,14.8c-1.8,3.5-4.7,6.5-8.3,7.9c-11.3,4.2-17.6-11.9-20.4-20
		c-0.3-0.9-0.6-1.8-0.6-2.7c0-0.9,0.4-1.9,1.2-2.4c1.3-0.8,3.1,0.1,4.3,1c3.5,2.7,6.1,6,8.4,9.7c1.5,2.4,4.8,3.8,7.1,1.6
		c1.2-1.2,1.9-3.6,2.6-5.1c1-2.1,2-4.2,3-6.3c0.3-0.7,0.7-1.4,1.3-2c0.6-0.6,1.4-0.9,2.1-0.8c1.4,0.3,1.9,2,2.1,3.4
		C114,152.8,114,153.1,114,153.4"/>
	<path id="Fill-52" fill="#4E91FF" d="M88.1,256.3c-5.3,1.7-10.8,3.2-16,5.4C60,267,48.5,273.4,36.2,278.4c-0.9,0.4-1.8-0.7-1.2-1.5
		c7.4-10.2,12.3-22,18.9-32.8c6.6-11,16.1-21.1,24.6-30.8c3.8-4.3,7.9-8.7,13.4-10.4c7.1-2.1,15.2,1.1,19.7,7.1
		c4.5,5.9,5.5,14,3.8,21.2c-1.6,6.7-5.4,12.8-10.8,17.1C99.5,252.2,93.9,254.5,88.1,256.3"/>
	<path id="Fill-54" fill="#FFFFFF" d="M98.1,176.7c-0.5-1-1.1-2-2.1-2.5c-5.9-3.2-8.9,11.6-5.6,14.7c1.7,1.6,4.5,1.5,6.4,0.3
		c1.9-1.3,2.9-3.6,3-5.9C99.9,181,99.2,178.7,98.1,176.7"/>
	<path id="Fill-56" fill="#FFFFFF" d="M113.2,177c-0.6,1.6-0.4,4.2-0.4,5c0,1,0,2,0.4,2.8c0.4,0.9,1.4,1.6,2.3,1.4
		c1.2-0.2,1.9-1.5,2-2.7c0.3-1.8-0.2-7.2-2.4-7.8C114.1,175.5,113.6,176.1,113.2,177"/>
	<path id="Fill-58" fill="#4D4D4D" d="M86.3,216.4c4,5.6,7,13.5,3,19c-1.3,1.8-3.1,3.1-5,4.2c-13.6,8.7-29.6,13.4-45.8,13.6
		c-0.7,0-1.2-0.8-0.9-1.5c6.9-14,17-26.5,29.2-36.2c4-3.2,9.2-6.2,13.9-4.3C83.1,212.3,84.8,214.4,86.3,216.4"/>
	<path id="Fill-60" fill="#4D4D4D" d="M105.2,202.4c-0.2-1.1-0.3-2.2-0.4-2.7c-0.4-2.4-0.5-5.1,0.3-7.4c0.4-1.3,0.8-2.9,2.3-3.3
		c0.8-0.2,1.6,0.1,2.2,0.6c1,0.8,1.6,2.1,1.7,3.4c0.1,1.3-0.1,2.6-0.5,3.8c-0.7,2.4-1.6,5.3-3.2,7.2
		C106.2,205.6,105.6,204.1,105.2,202.4"/>
	<path id="Fill-62" fill="#FFFFFF" d="M104.7,192.6c0.1,0.4,0.3,0.7,0.5,1c1,1.3,2.2,2.5,3.7,3.2c0.7,0.3,1.4,0.5,2.1,0.6
		c1.7,0.4,3.3,0.7,5,1.1c0-1.1-0.5-2.2-1-3.1c-0.3-0.6-0.6-1.2-0.9-1.8c-0.6-1.1-1.2-2.2-2-3.1c-0.8-0.9-1.9-1.7-3.1-1.9
		c-1.2-0.2-2.6,0.1-3.3,1.1c-0.4,0.5-0.6,1.2-0.8,1.8C104.7,191.8,104.6,192.2,104.7,192.6"/>
	<path id="Fill-64" fill="#4D4D4D" d="M82.8,264.8c0-1.9-0.1-3.7-0.1-5.6c-0.1-2.2,2.1-2.9,3.8-3.5c1.8-0.7,4.5-0.3,5.1,1.9
		c0.4,1.7,0,3.6,0.3,5.4c0.3,1.7,2.1,1.1,1.9-0.4c-0.2-2.5,0.4-5.5-1-7.7c-1.4-2.1-3.6-2.8-6.1-2.3c-2.1,0.4-5.1,1.7-5.8,3.9
		c-0.3,1,0,2.1,0.1,3.2c0.2,1.8,0.5,3.6,0.7,5.4C81.8,266,82.8,265.6,82.8,264.8"/>
	<path id="Fill-66" fill="#4D4D4D" d="M87,246.2c-0.6,7.2-0.7,14.5,0.1,21.7c0.2,1.7,2,1,1.9-0.4c-0.6-7-0.9-14-0.6-21
		C88.6,245.4,87.1,245,87,246.2"/>
	<path id="Fill-68" fill="#4D4D4D" d="M101.7,253.3c-0.1-2,0.2-3.9,0.6-5.8c-0.2,0.3-0.3,0.6-0.5,0.8c2.2-1,4.6-1.5,7-1.3
		c1.3,0.1,2.9,0.7,3.3,2.1c0.4,1.4-0.4,2.9-0.8,4.1c-0.2,0.6,0.3,2.7,1.2,1.7c3.1-3.4,1.9-9.6-2.9-10.5c-2.8-0.5-5.8,0.3-8.3,1.6
		c-1.6,0.8-0.9,5.9-0.7,7.2C100.7,254.4,101.7,254.4,101.7,253.3"/>
	<path id="Fill-70" fill="#4D4D4D" d="M106.6,238.6c-0.2,6.1-0.5,12.2-0.5,18.3c0,1.9,2,1.8,2,0c-0.1-6.1-0.4-12.2-0.7-18.3
		C107.5,237.8,106.6,237.8,106.6,238.6"/>
</g>
<g id="p4-pangolin">
	<path id="Fill-72" fill-opacity="0.1" d="M234,241.4c-15.4-2.7-31.1-1.3-46.6,0.2c-5.5,0.5-11.1,1-16.6,1.5
		c-2.6,0.2-5.5,0.6-7.3,2.4c-3,3.1-1.7,8.5,1.3,11.6c5.6,6.1,14.8,7.1,23,7.6c13.3,0.9,26.5,1.8,39.8,2.8c4.9,0.3,10,0.7,14.7-0.9
		c4.7-1.6,8.9-5.5,9.3-10.4c0.3-4.2-2.3-8.2-5.7-10.7C242.3,243.1,238.1,242.1,234,241.4"/>
	<path id="Fill-74" fill="#4D4D4D" d="M199.1,216.5c-2.7,6.1-4.3,12.5-5.4,19.1c-0.5,3.2-0.7,6.5-1.4,9.7c-1,4.7,3,5.3,6.4,6.9
		c0.8,0.4,1.7,0.8,2.6,0.6c0.6-0.2,1.2-0.6,1.6-1.1c2-2.3,2.7-5.4,3.3-8.3c1.2-5.5,2.3-11,3.5-16.5"/>
	<path id="Fill-76" fill="#4D4D4D" d="M165.8,194.5c-1.5,7.8-1.5,16,0,23.8c0.1,0.5,0.2,1.1-0.1,1.6c-0.3,0.4-0.9,0.6-1.4,0.6
		c-3.8,0.6-8.4,0.1-10.4-3.2c-1.4-2.3-1.1-5.1-0.8-7.7c0.9-8,1.9-16,4.1-23.7"/>
	<path id="Fill-78" fill="#4E91FF" d="M222.2,165.8c-2.7-3.3-5.9-6.2-9.4-8.5c-9.6-6.1-21.8-7.1-32.8-4.1
		c-10.9,3-20.6,9.7-28.4,17.9c-3.1,3.2-5.8,6.7-8.5,10.1c-1.3,1.7-2.9,3.4-4,5.2c-1,1.6-2.1,3-3.6,4.3c-1.4,1.1-3.3,1.6-4.6,2.7
		c-3,2.7-0.8,5.9,0.9,8.4c2.4,3.5,5.7,3.3,9.5,2.2c7.2-2.1,15.4-4.8,22.9-4.5c8.5,0.3,15.8,3.7,22.4,9.1c3.8,3.2,7.2,6.8,10.6,10.4
		c5.5,5.7,11.2,11.2,17.2,16.5c9.8,8.8,21,17.6,34.6,18.8c4.4,0.4,8.7,0.6,13.1,0.2c3.2-0.3,10.4-1,12.5-3.8
		c1.1-1.5-1.2-1.5-2.6-1.9c-2.2-0.6-4.4-1.2-6.5-1.9c-7.7-2.4-12.7-5.9-16.3-13.3c-4.3-9-8.6-18.1-11.4-27.7
		c-1.1-3.8-2-7.6-3.3-11.3c-1.1-3.3-2.6-6.3-3.5-9.7C229.1,178.1,226.8,171.3,222.2,165.8"/>
	<path id="Fill-80" fill="#4E91FF" d="M213.9,230.8c0.7,5.3-1.6,10.4-3.8,15.3c-1.4,2.9-4.5,6.9-3.2,10.3c1.4,3.5,7.9,4.3,10.9,3.2
		c2-0.8,3.4-2.5,4.6-4.3c4.2-6.2,6.9-13.3,7.9-20.7"/>
	<path id="Fill-82" fill="#4E91FF" d="M185.4,198.9c-2,5.3-4.8,10.3-8.1,14.9c-1.7,2.3-3.5,4.5-5.5,6.6c-1.1,1.2-5,3.5-4.7,5.3
		c0.4,2.3,6.2,4,8.1,4.4c3.3,0.8,6.9,0.7,9.9-0.9c4.4-2.3,6.8-7,8.7-11.6c1.9-4.7,3.5-9.4,4.6-14.3c0.3-1.4,0.1-3.4-1.3-3.4"/>
	<path id="Fill-84" fill="#FFFFFF" d="M165.2,188.6c1.2-0.2,1.6-1.6,1.7-2.8c0.1-1.2,0.2-2.4,0.2-3.6c0-1,0-2-0.4-2.8
		c-0.4-0.9-1.2-1.6-2.2-1.7c-0.3,0-0.6,0.1-0.8,0.3c-0.1,0.1-0.2,0.3-0.3,0.5c-0.7,2.3-1,4.8-0.6,7.3c0.1,0.7,0.2,1.4,0.6,2
		C163.8,188.3,164.5,188.7,165.2,188.6"/>
	<path id="Fill-86" fill="#4D4D4D" d="M144.8,178.2c-0.1,0.7-0.2,1.5,0.3,1.9c0.3,0.3,0.7,0.4,1.1,0.4c3.5,0.3,6.5-2.1,9.2-4.3
		c7.2-5.8,15.6-11,24.8-11.5c12.9-0.8,24.8,7.5,32.6,17.7c6.7,8.8,10.3,19.2,16.3,28.3c2.7,4,4.8,8.4,7.8,12.3
		c0.8,1,9.8,11.2,10.5,10.5c0.8-0.8,0.8-2,0.7-3.1c-0.8-11-4.7-20-8.1-30.2c-3.2-9.6-5.9-19.3-9.9-28.6c-1.6-3.6-3.3-7.3-5.8-10.3
		c-2.1-2.6-4.8-4.8-7.5-6.8c-2.9-2.1-5.9-4-9.1-5.4c-9.6-4.3-20.9-4.1-30.8-0.7c-9.9,3.5-18.6,10-25.5,17.9
		C148.6,169.8,145.7,173.7,144.8,178.2"/>
	<path id="Fill-88" fill="#4D4D4D" d="M174.2,170.3c-0.9,0.3-1.1,1.6-0.2,2c0.8,0.4,1.4,0.9,2,1.7c1.5,2.1,1.1,4.1,0.1,6.1
		c-0.4,0.8,0.3,1.7,1.2,1.5c0.4-0.1,0.7-0.2,0.8-0.3c0.9-0.5,1.7-1.2,2.2-2.1c1.2-1.8,1.3-4,0.8-6.1
		C180.4,169.8,177.1,169.5,174.2,170.3"/>
</g>
<g id="p4-dog">
	<path id="Fill-1" fill="#FFF000" d="M66.3,149.4c-0.6,1-1.1,1.9-1.6,2.7c-2.5,4.4-5.3,8.6-7.5,13.2c-3.4,6.9-6.7,14.2-8.9,21.6
		c-0.6,2.2-0.7,5.1-2.3,6.8c-2,2.1-4.8,1.4-7.3,1.6c-5.3,0.4-6.1,5.4-10.1,8.3c-3.6,1.8-8.9,3.8-12.8,1.2c-2.8-1.9-4.5-7.6-6.2-10.4
		c-0.6-1.1-1.3-2.3-1.8-3.5C4,182.1,8.4,175,14.6,169c5-4.8,9.6-9.7,13.7-15.3c2.8-3.8,5.4-7.6,7.9-11.6c5-7.8,10.5-15.6,20.9-14
		c4.9,0.7,12.5,3.9,13.5,9.7C71.1,141.1,68.5,145.9,66.3,149.4"/>
	<defs>
		<filter id="Adobe_OpacityMaskFilter" filterUnits="userSpaceOnUse" x="0" y="183.7" width="8.1" height="13.7">
			<feColorMatrix  type="matrix" values="1 0 0 0 0  0 1 0 0 0  0 0 1 0 0  0 0 0 1 0"/>
		</filter>
	</defs>
	<mask maskUnits="userSpaceOnUse" x="0" y="183.7" width="8.1" height="13.7" id="mask-2">
		<g filter="url(#Adobe_OpacityMaskFilter)">
			<polygon id="path-1" fill="#FFFFFF" points="0,183.7 0,197.4 8.1,197.4 8.1,183.7 			"/>
		</g>
	</mask>
	<path id="Fill-3" mask="url(#mask-2)" fill="#FFFFFF" d="M6.4,183.7c-3.3,3-4.9,7.9-6.4,12.2c-0.3,0.9,0.6,1.8,1.5,1.4
		c2.1-1.1,4.6-3.3,6.5-3.9"/>
	<path id="Fill-6" fill="#FFFFFF" d="M11.4,194c-3.4,2.6-6.4,7.1-7.9,11.6c-0.5,1.5,1.2,2.8,2.5,1.9c1-0.7,2-1.4,2.9-1.8
		c2.4-1.1,5.5-1.4,7.5-2.9"/>
	<path id="Fill-8" fill="#FFFFFF" d="M16.7,204.4c-1.6,1.5-3.1,7.7-2.2,10.8c0.3,0.8,1.3,1,1.9,0.4c1.4-1.4,2.2-3.4,3.7-4.7
		c1.5-1.3,3.8-1.7,5-2.9"/>
	<path id="Fill-10" fill="#FFFFFF" d="M39.5,195.5c-1.8,3.3-1.7,8.2-2.8,12.4c-0.4,1.4,1.1,2.5,2.3,1.8c5.2-3,9.2-10.8,7.4-16.2"/>
	<path id="Fill-12" fill="#4D4D4D" d="M68.3,152.4c-0.6,1-1.1,1.9-1.6,2.7c-2.5,4.4-5.3,8.6-7.5,13.2c-3.4,6.9-6.7,14.2-8.9,21.6
		c-0.6,2.2-0.7,5.1-2.3,6.8c-2,2.1-4.8,1.4-7.3,1.6c-5.3,0.4-6.1,5.4-10.1,8.3c-8.2,5.8-18.7,0.8-21.2-8.4c-1.2-4.3-3.1-9-2.3-13.6
		c0.9-5.1,5.9-9.1,9.4-12.5c5-4.8,9.6-9.7,13.7-15.3c2.8-3.8,5.4-7.6,7.9-11.6c5-7.8,10.5-15.6,20.9-14c4.9,0.7,12.5,3.9,13.5,9.7
		C73.1,144.1,70.5,148.9,68.3,152.4"/>
	<defs>
		<filter id="Adobe_OpacityMaskFilter_1_" filterUnits="userSpaceOnUse" x="87.9" y="0" width="97.3" height="136.7">
			<feColorMatrix  type="matrix" values="1 0 0 0 0  0 1 0 0 0  0 0 1 0 0  0 0 0 1 0"/>
		</filter>
	</defs>
	<mask maskUnits="userSpaceOnUse" x="87.9" y="0" width="97.3" height="136.7" id="mask-4">
		<g filter="url(#Adobe_OpacityMaskFilter_1_)">
			<polygon id="path-3" fill="#FFFFFF" points="185.2,0 87.9,0 87.9,136.7 185.2,136.7 			"/>
		</g>
	</mask>
	<path id="Fill-14" mask="url(#mask-4)" fill="#FFF000" d="M104.5,50.4c0-14.9-9.1-31.4-8-46.5c0.9-11.4,16.4,5.8,18.2,7.3
		c5.4,4.5,10.2,9,17.5,10.5c16.1,3.5,23.3-12.6,34.5-20.3c2.6-1.8,6.2,0,6.3,3.1c0.1,2.8,0.4,5.6,0.3,8.5c-1,19.7-7.1,40,1.5,58.5
		c3.2,6.9,5.1,14.7,7.1,22.1c4.8,17.3,8.4,41.3-18.8,42.7c-9.7,0.5-17.8-4.9-27.8-4.2c-11,0.7-22.4,7.2-33.6,3.4
		c-22.9-7.8-11.5-35.4-6.3-50.2c3.4-9.6,7-19.1,8.6-29.1C104.4,54.2,104.5,52.3,104.5,50.4"/>
	<path id="Fill-17" fill="#FFF000" d="M158,134.9c2.4-1.9,4.9-4,6.5-6.6s2.3-6.1,1-8.9c-2.4-1.6-5.6-1.2-8.5-0.7
		c-11.6,1.9-23.2,3.9-34.7,5.8c-2.1,0.3-4.5,0.9-5.5,2.8c-1.3,2.7,1.4,5.7,4,7.3c3.4,2.1,7,3.6,10.7,5c3.7,1.4,7.6,2.7,11.6,2.5
		C148.7,141.8,153.6,138.4,158,134.9"/>
	<path id="Fill-19" fill="#4D4D4D" d="M109.2,50.8c0-14.9-9.1-31.4-8-46.5c0.2-3.1,3.9-4.8,6.4-2.9c4.2,3.2,8.7,7.6,11.9,10.3
		c5.4,4.5,10.2,9,17.5,10.5c16.1,3.5,23.3-12.6,34.5-20.3c2.6-1.8,6.2,0,6.3,3.1c0.1,2.8,0.4,5.6,0.3,8.5c-1,19.7-7.1,40,1.5,58.5
		c3.2,6.9,5.1,14.7,7.1,22.1c4.8,17.3,8.4,41.3-18.8,42.7c-9.7,0.5-17.8-4.9-27.8-4.2c-11,0.7-22.4,7.2-33.6,3.4
		c-22.9-7.8-11.5-35.4-6.3-50.2c3.4-9.6,7-19.1,8.6-29.1C109.1,54.6,109.2,52.7,109.2,50.8"/>
	<path id="Fill-21" fill="#FFFFFF" d="M142,132.5c8-3,18.1,1.3,24.8-5.2c3-2.9,4.3-7.1,5.3-11.1c0.9-4.1,1.7-8.3,3.8-11.8
		c0.8-1.3,1.7-1.8,2.7-2.7c0.9-0.8,1.5-2.1,2.6-2.6c1.2-0.6,3.7-0.5,5-0.3c2.1,0.4,3.9,1.7,5.3,3.2c3.8,4.1,4.9,10.2,4.1,15.8
		c-1.8,12-12.6,21.6-24.5,23.8C159.2,143.9,151.3,140.3,142,132.5"/>
	<path id="Fill-23" fill="#FF6496" d="M139,132.5c8-3,18.1,1.3,24.8-5.2c3-2.9,4.3-7.1,5.3-11.1c0.9-4.1,1.7-8.3,3.8-11.8
		c2.2-3.6,6.3-6.3,10.3-5.5c2.1,0.4,3.9,1.7,5.3,3.2c3.8,4.1,4.9,10.2,4.1,15.8c-1.8,12-12.6,21.6-24.5,23.8
		C156.2,143.9,148.3,140.3,139,132.5"/>
	<path id="Fill-25" fill="#FFFFFF" d="M131.2,107.6c7.5,0.7,15.2-0.4,22.2-3.1c0.4-1.6-1.4-2.9-3-3.6c-2.7-1.2-5.4-2.5-8.1-3.7
		C138,99.9,134.2,103.5,131.2,107.6"/>
	<path id="Fill-27" fill="#FFFFFF" d="M126.6,51.5c1.7,2.9,1.6,6.5,1.5,9.8c-0.1,2.6-0.2,5.2-0.3,7.8c-0.1,1.6-0.3,3.5-1.7,4.1
		c-1.1,0.5-2.5,0-3.3-1c-0.8-1-1.1-2.2-1.3-3.4c-0.9-5.3-0.5-10.9,1.2-16c0.4-1.3,1.5-2.8,2.8-2.3C126,50.6,126.3,51,126.6,51.5"/>
	<path id="Fill-29" fill="#FFFFFF" d="M157.6,68.4c-1.6-0.3-2.1-2.3-2.2-3.9c-0.2-3,0.2-6.1,1.2-9c0.6-0.9,2-0.8,2.9-0.1
		c0.8,0.7,1.2,1.8,1.5,2.8c0.5,1.7,1.1,3.5,1,5.3c-0.1,1.8-1,3.7-2.6,4.5C158.8,68.4,158.2,68.5,157.6,68.4"/>
	<path id="Fill-31" fill="#FFF000" d="M288,169.1c0.6,0.9,1.1,1.8,1.4,2.9c1.5,4.5-0.6,9.4-3.1,13.4c-2.2,3.5-4.4,8.7-7.8,11.1
		c-4.1,2.8-8.7,2.6-11.6-1.7c-2.1-3-3.9-6.9-7.5-7.8c-7.1-1.7-8.8,0.9-12.6-6.2c-3.8-7-6.2-15.2-8-23c-0.4-1.8-0.8-3.6-1.5-5.3
		c-3.5-8.3-13.6-12.9-11.2-23.2c1.5-6.5,9.6-13.8,16.6-13.5c6.8,0.3,14.6,16.5,18.5,22c3,4.2,6.1,8.5,9.6,12.3
		c4.7,5,9.2,10,13.9,15.1C285.9,166.5,287.1,167.7,288,169.1"/>
	<path id="Fill-33" fill="#FFFFFF" d="M250.7,189.2c1.1,4.9,4.4,9.3,8.7,11.9c0.9,0.5,1.9-0.3,1.7-1.3c-0.7-3.1-0.7-6.3-0.1-9.4
		c0.1-0.5-0.2-1.1-0.7-1.3c-2.7-1.1-5.7-1.6-8.7-1.3C251,187.8,250.5,188.5,250.7,189.2"/>
	<path id="Fill-35" fill="#FFFFFF" d="M269.9,202c2.5,1.9,3.4,5.1,3.9,8.6c0.2,1.1,1.6,1.4,2.1,0.4c1.4-2.5,2.2-5.2,2.3-7.7
		c0.1-2.9-0.8-5.6-2.2-7.7c-0.4-0.6-1.2-0.7-1.8-0.2c-1.6,1.5-3.2,3.2-4.6,5C269.3,200.9,269.4,201.6,269.9,202"/>
	<path id="Fill-37" fill="#FFFFFF" d="M281.4,189.6l-3.7,2.7c-0.6,0.5-0.6,1.5,0.1,1.9c3.6,2.3,6.1,5.3,7.3,8.5
		c0.3,0.9,1.6,1,2.1,0.2c2.6-4.4,0.9-10-4.4-13.3C282.3,189.3,281.8,189.4,281.4,189.6"/>
	<defs>
		<filter id="Adobe_OpacityMaskFilter_2_" filterUnits="userSpaceOnUse" x="283.5" y="177.6" width="10" height="14.7">
			<feColorMatrix  type="matrix" values="1 0 0 0 0  0 1 0 0 0  0 0 1 0 0  0 0 0 1 0"/>
		</filter>
	</defs>
	<mask maskUnits="userSpaceOnUse" x="283.5" y="177.6" width="10" height="14.7" id="mask-6">
		<g filter="url(#Adobe_OpacityMaskFilter_2_)">
			<polygon id="path-5" fill="#FFFFFF" points="293.5,192.3 293.5,177.6 283.5,177.6 283.5,192.3 			"/>
		</g>
	</mask>
	<path id="Fill-39" mask="url(#mask-6)" fill="#FFFFFF" d="M286.6,177.8c-0.3-0.1-0.6-0.2-0.9-0.2c-0.5,0.1-0.7,0.5-0.8,0.9
		c-0.5,1.5-0.9,2.9-1.4,4.4c-0.1,0.5,0,1,0.4,1.3c2.7,2.1,4.7,4.7,5.8,7.5c0.4,0.9,1.5,1,2,0.2c1.2-1.9,1.9-4,1.7-6.1
		C293.1,182.4,290.4,179.3,286.6,177.8"/>
	<path id="Fill-42" fill="#4D4D4D" d="M287,173.1c0.6,0.9,1.1,1.8,1.4,2.9c1.5,4.5-0.6,9.4-3.1,13.4c-2.2,3.5-4.4,8.7-7.8,11.1
		c-4.1,2.8-8.7,2.6-11.6-1.7c-2.1-3-3.9-6.9-7.5-7.8c-7.1-1.7-8.8,0.9-12.6-6.2c-3.8-7-6.2-15.2-8-23c-0.4-1.8-0.8-3.6-1.5-5.3
		c-3.5-8.3-13.6-12.9-11.2-23.2c1.5-6.5,9.6-13.8,16.6-13.5c6.8,0.3,14.6,16.5,18.5,22c3,4.2,6.1,8.5,9.6,12.3
		c4.7,5,9.2,10,13.9,15.1C284.9,170.5,286.1,171.7,287,173.1"/>
	<path id="Fill-90" fill="#FFFFFF" d="M201.1,109.6c1.1-0.6,3,0.1,4,0.4c1.4,0.5,2.5,1.4,3.4,2.5c0.8,1.1,2.1,1.1,2.8-0.1
		c0.9-1.5,0.7-3.6-0.5-4.8c-1.3-1.3-3.2-1.8-5-1.6c-0.9,0.1-1.8,0.4-2.5,0.9c-1,0.6-1.5,1.4-2.4,2.1
		C200.8,109.2,200.9,109.7,201.1,109.6"/>
	<path id="Fill-92" fill="#FFFFFF" d="M211.1,95c1,0.3,2.1,0.2,3.1,0.3c1.5,0.2,2.9,0.7,4.2,1.4c2,1.1,3.3-4.8,0.3-5.1
		c-2.6-0.3-6,0.3-7.8,2.4C210.8,94.3,210.7,94.9,211.1,95"/>
	<path id="Fill-94" fill="#FFFFFF" d="M198.1,92.8c0.5-2.3,3.1-4.2,5.4-4.4c1.8-0.2,1.5-4.1-0.1-3.8c-3.9,0.6-6.6,4.4-5.8,8.3
		C197.7,93.2,198,93.2,198.1,92.8"/>
</g>
</svg>
