<?xml version="1.0" encoding="UTF-8" standalone="no"?>
<!DOCTYPE svg PUBLIC "-//W3C//DTD SVG 1.1//EN" "http://www.w3.org/Graphics/SVG/1.1/DTD/svg11.dtd">
<svg width="100%" height="100%" viewBox="0 0 980 648" version="1.1" xmlns="http://www.w3.org/2000/svg" xmlns:xlink="http://www.w3.org/1999/xlink" xml:space="preserve" style="fill-rule:evenodd;clip-rule:evenodd;stroke-linejoin:round;stroke-miterlimit:1.41421;">
    <g id="Layer_1">
        <g id="box-back" style="opacity: 0;">
            <g>
                <path d="M223.82,296.14C219.72,295.14 215.63,294.14 211.54,292.7C202.37,289.46 194.64,282.96 185.67,279.23C173.37,274.12 160.12,271.85 147.55,267.31C138.99,264.22 129.12,255.51 120.55,254.45C136.43,245.29 157.37,239.94 175.5,237.71C194.7,235.35 213.14,229.59 232.34,225.98C256.26,221.49 279.58,214.44 303.34,209.03C326.65,203.71 350.28,201.71 373.4,195.78C401.4,188.6 428.12,180.84 455.65,171.68C474.26,165.48 492.79,161.61 511.73,156.82C532.57,151.55 552.95,144.58 573.81,139.36C592.81,134.6 603.87,140.68 622.13,146.36C646.71,153.99 671.54,159.44 695.82,168.24C723.65,178.34 751.37,187.93 779.56,196.81C804.56,204.68 835.56,208.74 858.33,220.87C855.03,228.71 832.48,234.72 824.6,237.49C799.98,246.15 775.05,254.12 749.6,260.07C728.41,265.07 708.6,272.22 687.38,276.74C633.18,288.25 579.87,303.99 527.26,321.22C500.14,330.1 473.19,339.66 445.94,348.03C430.03,352.92 397.64,373.03 381.44,369.3C369.99,366.64 352.92,349.82 341.57,343.61C307.68,325.08 271.7,313.86 235.57,299.7C231.734,298.261 227.809,297.072 223.82,296.14Z" style="fill:rgb(225,150,0);fill-rule:nonzero;"/>
            </g>
        </g>
        <g>
            <path d="M324.33,576.05C323.75,569.89 329.33,565.05 334.66,561.83C359.76,546.56 389.51,541.38 418.48,536.48C460.26,529.42 502.41,522.34 544.76,524.03C564.49,524.82 584.09,527.51 603.76,529.71C690.6,539.43 779.71,539.76 862.45,567.83C871.37,570.83 882.14,577.98 879.03,586.83C876.74,593.36 868.46,595.06 861.57,595.73C713.57,610.13 564.85,624.55 416.48,615.11C384.77,613.11 349.89,608.42 328.9,584.57C326.69,582.15 324.64,579.32 324.33,576.05Z" style="fill-opacity:0.1;fill-rule:nonzero;"/>
            <path d="M544.94,22.81C544.06,18.15 542.94,13.53 541.77,8.88C541.33,7.101 539.72,5.84 537.887,5.84C536.746,5.84 535.659,6.328 534.9,7.18C522.5,21 510.55,35.59 504.26,53C503.02,56.42 501.89,60.12 499.09,62.45C497.058,63.944 494.706,64.943 492.22,65.37C485.875,66.817 479.358,67.366 472.86,67C471.395,67.065 469.95,66.643 468.75,65.8C467.52,64.73 467.22,62.97 466.97,61.36C463.72,39.74 457.57,16.76 442.18,1.83C441.437,1.125 440.451,0.732 439.427,0.732C437.572,0.732 435.948,2.023 435.53,3.83C429.78,27.72 425.1,52.77 421.64,77C418.05,102.14 414.34,127.26 409.84,152.25C405.71,175.19 399.99,197.36 399.35,220.65C398.88,237.4 406.06,258.84 424.74,261.38C438.52,263.25 452.07,254.24 465.68,252.69C480,251 494,256.3 507.86,260.1C519.91,263.41 537.06,267.28 547.5,258.8C556.74,251.29 561.5,235.8 562.19,224.43C562.59,217.3 561.61,210.18 560.63,203.11C558.58,188.35 553.41,174.27 551.53,159.56C549.652,143.774 548.651,127.897 548.53,112C548.29,97.27 548.41,82.55 548.03,67.82C547.77,57.91 546.74,47.95 546.63,38.06C546.517,32.937 545.951,27.834 544.94,22.81L544.94,22.81Z" style="fill:rgb(78,145,255);fill-rule:nonzero;"/>
            <path d="M432.56,75.15C433.11,59.15 433.64,43.15 435.86,27.31C436.2,24.9 436.86,0.5 437.86,0C433.04,2.64 431.49,8.44 430.37,13.47C417.88,69.41 414.37,127.02 402.53,183.1C400.26,193.87 397.67,204.65 397.14,215.65C396.61,226.65 398.3,238.05 404.04,247.45C408.04,254.02 415.53,259.83 422.91,257.63C430.02,255.51 433.2,247.11 433.55,239.7C434.32,223.09 424.06,206.06 430.98,190.15C434.11,182.96 439.81,175.89 438.98,167.56C438.24,160.05 431.78,154.87 429.05,148.15C427,143.09 427.05,137.46 427.28,132C427.86,112.68 431.91,94.19 432.56,75.15Z" style="fill:rgb(255,240,0);fill-rule:nonzero;"/>
            <path d="M530.11,178.14C524.88,169.95 517.91,163.2 508.5,159.51C506.252,158.647 503.955,157.919 501.62,157.33C484.86,152.98 464.04,148.85 448.01,157.48C435.26,164.35 427.82,177.48 422.44,190.42C416.39,205 406.6,219.71 406.19,236C406.02,242.75 407.63,249.85 414.58,252.14C438.67,259.897 463.533,265.007 488.73,267.38C498.31,268.66 507.96,269.88 517.64,269.85C525.7,269.85 536.76,269.77 543.64,265.05C549.64,260.94 551.77,255.74 550.34,248.68C548.11,237.68 545.86,226.68 543.66,215.68C541.19,203.25 537.28,189.35 530.11,178.14Z" style="fill:rgb(77,77,77);fill-rule:nonzero;"/>
            <path d="M490.36,171.23C474.49,168.82 458.9,165.78 444.67,175.23C429.47,185.34 423.44,201.23 418.83,218.14C418.235,220.036 417.898,222.004 417.83,223.99C417.83,229.11 421.61,233.74 426.31,235.8C436.88,240.44 443.08,233.12 452.66,230.47C462.57,227.73 472.87,226.03 483.18,226.74C490.03,227.21 496.51,229.11 503.31,229.74C509.04,230.15 514.17,232.93 518.92,235.94C523.2,238.66 527.8,240.63 532.15,243.34C533.72,244.34 535.52,245.34 537.31,244.86C537.9,235.91 534.96,225.42 533.2,216.67C531.51,208.29 528.86,199.4 524.85,191.81C517.8,178.58 504.42,173.37 490.36,171.23Z" style="fill:rgb(255,100,150);fill-rule:nonzero;"/>
            <path d="M548.39,260.51C544.09,239.51 536.84,219.91 522.24,207.81C512.56,199.81 499.88,197.06 487.61,195.66C473.84,194.09 459.14,194.08 447.12,201.27C430.12,211.46 423.01,232.98 417.88,252.8C395.189,340.566 383.943,430.899 384.42,521.55C384.42,524.92 384.5,528.44 385.99,531.44C388.55,536.6 394.45,538.7 399.82,540.17C412.52,543.65 425.04,547.72 437.6,551.65C448.86,555.17 461.49,557.25 471.71,563.28C491.25,574.78 516.43,571.89 537.92,567.28C549.92,564.71 560.13,561.49 570.45,554.78C582.45,546.96 587.63,527.06 588.96,513.78C591.32,490.21 588.41,467.78 584.07,444.7C581.19,429.35 577.94,414.21 574.29,398.7C568.51,374.23 561.89,349.92 557.48,325.14C554.22,306.8 553,282.84 548.39,260.51Z" style="fill:rgb(77,77,77);fill-rule:nonzero;"/>
            <path d="M515.54,262.54C514.04,244.87 511.9,227.25 508.96,209.47C506.51,194.62 495.56,194.18 481.76,192.21C466.57,190.04 450.07,190.35 437.05,199.51C418.34,212.67 411.05,231.21 405.44,252.8C385.5,329.8 372.75,410.63 372.28,490.3C372.19,505.02 368.91,521.14 372.28,535.69C375.65,550.09 391.72,561.3 405.07,566.16C424.64,573.27 446.07,572.6 466.17,568.61C488.31,564.21 499.17,550.01 511.05,532.28C522.74,514.83 520.05,492.38 519.79,472.28C519.13,421.82 518.93,371.36 518.24,320.9C518,301.21 517.17,281.85 515.54,262.54Z" style="fill:rgb(255,240,0);fill-rule:nonzero;"/>
            <path d="M533.26,263.15C532.42,257.29 531.5,251.443 530.5,245.61C528.38,233.26 525.73,224.48 520.09,213.53C518.01,209.53 515.84,205.33 512.53,202.42C509.22,199.51 504.84,198 500.6,197C482.6,192.55 461.97,189.54 446.32,201.54C429.16,214.7 422.46,233.24 417.32,254.82C405.006,306.74 396.371,359.464 391.48,412.6C388.947,440.053 387.403,467.58 386.85,495.18C386.48,515.11 386.17,538.79 399.01,555.39C417.9,579.82 457.01,578.22 483.92,575.92C511.39,573.57 534.92,573.83 550.74,547.85C565.4,523.72 561.04,493.27 559.13,466.55C557.78,447.72 554.08,430.33 550.98,411.64C546.92,387.13 542.59,363 540.61,338.29C538.63,313.58 536.84,288.12 533.26,263.15Z" style="fill:rgb(78,145,255);fill-rule:nonzero;"/>
            <path d="M539.47,5.43C538.457,7.281 537.324,9.065 536.08,10.77C534.402,12.723 532.978,14.88 531.84,17.19C527.29,26.19 524.32,34.72 521.05,44.28C519.471,48.884 517.385,53.297 514.83,57.44C513.966,59.047 512.723,60.42 511.21,61.44C509.625,62.213 507.893,62.636 506.13,62.68L497.85,63.48C500.32,59.27 503.63,54.94 505.24,50.33C506.68,46.22 507.64,41.88 509.85,38C513.44,30.63 518.51,24.1 523.54,17.63C527.77,12.25 532.67,6.41 539.47,5.43Z" style="fill:rgb(255,240,0);fill-rule:nonzero;"/>
            <path d="M521.62,502.42C513.62,528.22 489.5,548.23 462.62,551.42C459.122,551.893 455.563,551.599 452.19,550.56C450.18,549.866 448.822,547.961 448.822,545.834C448.822,544.142 449.681,542.561 451.1,541.64C472.82,527.17 485.68,501.39 489.98,475.41C493.98,451.29 491.61,426.7 488.33,402.41C488.298,402.182 488.282,401.952 488.282,401.722C488.282,398.979 490.54,396.722 493.282,396.722C494.509,396.722 495.694,397.173 496.61,397.99C515.21,414.6 523.61,441.56 525.06,466.99C525.75,478.89 525.16,491 521.62,502.42Z" style="fill:rgb(77,77,77);fill-rule:nonzero;"/>
        </g>
        <g id="box-front" style="opacity: 0;">
            <g>
                <path d="M387.51,592.18C387.51,562.73 385.65,533.69 383.31,504.44C382.77,497.67 382.5,490.88 382.38,484.09C377.38,491.95 372.55,499.99 368.01,508.29C360.26,522.47 354.16,547.77 344.01,558.8C313.28,540.8 275.75,539.73 242.43,527.38C209.3,515.1 179,495.58 144.69,487.48C135.53,485.32 126.09,484.11 116.69,482.69C116.02,496.13 115.69,509.55 116.17,522.95C165.4,548.36 219.17,566.55 272.05,583.1C292.78,589.59 316.41,602.86 335.35,613.1C352.54,622.39 371.08,640.62 388.82,645.98C384.81,629.72 387.51,609.28 387.51,592.18Z" style="fill:rgb(245,210,0);fill-rule:nonzero;"/>
                <path d="M242.42,527.38C275.74,539.73 313.27,540.8 344,558.8C354.16,547.8 360.26,522.47 368,508.29C372.53,500 377.34,491.95 382.37,484.09C381.94,460.77 383.26,437.32 381.5,414.09C381,407.46 380.86,400.97 380.95,394.34C381.08,384.73 381.19,375.06 380.95,365.49C380.84,360.57 382.65,346.64 379.59,342.49C376.53,338.34 368.59,338.36 364.13,337.03C357.62,335.1 350.96,332.51 344.58,330.1C334.64,326.35 324.46,322.85 314.34,319.52C290.48,311.67 267.22,303.12 243.55,295.15C202.2,281.23 157.07,270.65 119.17,250.26C119.47,250.93 119.23,254.26 119,255.94C118.75,295.15 123.84,333.79 123.47,372.94C123.12,409.5 118.47,446.12 116.64,482.63C126.03,484.05 135.47,485.26 144.64,487.42C179,495.57 209.29,515.1 242.42,527.38Z" style="fill:rgb(220,180,0);fill-rule:nonzero;"/>
                <path d="M525.14,573.44C512.38,576.72 499.33,579.51 487.23,584.44C483.9,585.8 478.94,589.61 475.52,589.63C467.71,589.68 463.67,580.14 458.35,573.94C446.67,560.34 433.6,547.84 421.57,534.45C406.97,518.21 394.46,499.59 381.57,481.58C383.13,502.15 384.51,522.71 384.52,543.42C384.52,573.48 379.24,619.6 388.83,647.73C408.22,641.36 428.37,634.19 449.38,633.24C509.29,630.54 570.93,612.61 630.14,603.24C673.14,596.44 713.96,581.72 755.81,570.6C794.81,560.24 833.64,540.31 874.81,541.38C874.11,522.66 876.81,503.53 875.31,484.08C874.92,479.08 874.49,474.08 874.06,469.08C822.18,482.92 770.39,498.87 719.39,515.62C655.4,536.63 590.37,556.66 525.14,573.44Z" style="fill:rgb(245,180,0);fill-rule:nonzero;"/>
                <path d="M866.82,307.1C865.38,290.52 864.43,273.8 862.6,257.26C861.6,247.89 862.35,238.77 861.89,229.46C861.735,225.767 861.307,222.09 860.61,218.46C855.61,220.1 850.54,220.9 845.42,222.46C835.93,225.29 826.72,228.79 817.33,231.86C781.65,243.53 744.56,251.23 707.92,260.31C648,275.18 588.26,290.7 528.42,305.85C489.08,315.85 449.13,322.92 409.85,332.85C403.53,334.45 396.92,335.03 390.52,336.25C381.4,337.99 377.75,337.76 377.65,347.53C377.27,385.6 377.2,424.45 380.09,462.43C380.577,468.81 381.067,475.183 381.56,481.55C394.45,499.55 406.96,518.18 421.56,534.42C433.56,547.81 446.66,560.31 458.34,573.91C463.66,580.1 467.71,589.65 475.51,589.6C478.92,589.6 483.89,585.77 487.22,584.41C499.32,579.48 512.37,576.69 525.13,573.41C590.36,556.63 655.4,536.6 719.37,515.59C770.37,498.84 822.17,482.89 874.04,469.05C872.42,450.56 870.62,432.05 869.78,413.52C868.19,378.17 869.94,342.86 866.82,307.1Z" style="fill:rgb(210,150,0);fill-rule:nonzero;"/>
                <path d="M378.22,338.72C380.22,339.72 382.22,340.64 384.22,341.48C379.32,355.59 370.91,369.76 363.81,382.99C352.9,403.32 346.92,426.43 336.68,447.2C333.68,453.2 300.96,519.84 300.68,519.67C277.16,506.13 254.1,492.77 228.08,483.9C152.29,458.08 78,428.68 0,410.41C20.2,386.23 37.76,359.86 56.86,334.51C77.27,307.43 94.65,275.34 116.52,250.18C129.68,262.51 157.43,267.64 174.98,274.51C201.42,284.87 227.31,291.76 254.48,300.01C282.4,308.49 310.21,316.75 338.05,325.13C345.57,327.39 353.45,328.22 360.84,330.67C366.92,332.7 372.5,335.88 378.22,338.72Z" style="fill:rgb(245,210,0);fill-rule:nonzero;"/>
                <path d="M377.83,340.55C377.163,340.69 376.447,340.8 375.68,340.88C381.68,355.06 395.29,366.56 404.23,379.15C420.06,401.43 439.95,419.71 456.5,442.09C471.3,462.09 506.61,519.92 531.44,523.7C546.22,525.95 569.26,509.42 581.95,504.25C635.15,482.55 691.54,466.86 746.21,449.35C818.47,426.21 889.1,397.6 961.21,374.81C973.08,371.06 979.88,372.47 979.06,362.28C977.96,348.63 947.86,322.38 938.49,313.63C920.64,296.97 906.49,274.33 890.4,255.71C882.77,246.86 875.6,238.03 868.82,228.5C867.82,227.14 862.69,217.27 861.16,216.7C857.57,215.37 848.84,219.22 845.38,220.36C824.674,227.303 803.573,233.01 782.19,237.45C756.96,242.71 731.57,247.1 706.19,251.77C660.1,260.3 614.83,273 569.86,286.44C526.6,299.33 482.62,306.18 439,318.33C426.43,321.83 411.83,323.92 399.95,329.33C392.27,332.78 386.41,338.83 377.83,340.55Z" style="fill:rgb(245,180,0);fill-rule:nonzero;"/>
            </g>
        </g>
    </g>
</svg>
