<?xml version="1.0" encoding="utf-8"?>
<!-- Generator: Adobe Illustrator 18.0.0, SVG Export Plug-In . SVG Version: 6.00 Build 0)  -->
<!DOCTYPE svg PUBLIC "-//W3C//DTD SVG 1.1//EN" "http://www.w3.org/Graphics/SVG/1.1/DTD/svg11.dtd">
<svg version="1.1" id="圖層_1" xmlns="http://www.w3.org/2000/svg" xmlns:xlink="http://www.w3.org/1999/xlink" x="0px" y="0px"
	 viewBox="0 0 50 50" style="enable-background:new 0 0 50 50;" xml:space="preserve">
<style type="text/css">
	.st0{fill:#FFFFFF;}
	.st1{fill:#404040;}
</style>
<g>
	<path class="st0" d="M24.7,9.7C16.3,9.7,9.4,16.6,9.4,25c0,8.4,6.9,15.3,15.3,15.3C33.2,40.3,40,33.4,40,25
		C40,16.6,33.2,9.7,24.7,9.7z"/>
	<g>
		<path class="st1" d="M25,30.4c0.4,0,0.8-0.3,0.8-0.8v-9.3c0-0.4-0.3-0.8-0.8-0.8c-0.4,0-0.8,0.3-0.8,0.8v9.3
			C24.2,30.1,24.6,30.4,25,30.4"/>
		<path class="st1" d="M24.5,36c0.2,0.2,0.3,0.2,0.5,0.2c0.2,0,0.4-0.1,0.5-0.2l4.7-4.6c0.3-0.3,0.3-0.8,0-1.1
			c-0.3-0.3-0.8-0.3-1.1,0L25,34.4l-4.1-4.1c-0.3-0.3-0.8-0.3-1.1,0c-0.3,0.3-0.3,0.8,0,1.1L24.5,36z"/>
		<path class="st1" d="M25.5,14c-0.2-0.2-0.3-0.2-0.5-0.2c-0.2,0-0.4,0.1-0.5,0.2l-4.7,4.6c-0.3,0.3-0.3,0.8,0,1.1
			c0.3,0.3,0.8,0.3,1.1,0l4.1-4.1l4.1,4.1c0.3,0.3,0.8,0.3,1.1,0c0.3-0.3,0.3-0.8,0-1.1L25.5,14z"/>
	</g>
</g>
</svg>
