<?xml version="1.0" encoding="utf-8"?>
<!-- Generator: Adobe Illustrator 16.0.0, SVG Export Plug-In . SVG Version: 6.00 Build 0)  -->
<!DOCTYPE svg PUBLIC "-//W3C//DTD SVG 1.1//EN" "http://www.w3.org/Graphics/SVG/1.1/DTD/svg11.dtd">
<svg version="1.1" id="圖層_1" xmlns="http://www.w3.org/2000/svg" xmlns:xlink="http://www.w3.org/1999/xlink" x="0px" y="0px"
	 width="50px" height="50px" viewBox="0 0 50 50" style="enable-background:new 0 0 50 50;" xml:space="preserve">
<g>
	<circle style="fill:#FFFFFF;" cx="25" cy="25" r="19.713"/>
	<g>
		<path style="fill:#27FFC6;" d="M26,36.453c0,0.553-0.447,1-1,1s-1-0.447-1-1v-15c0-0.553,0.447-1,1-1s1,0.447,1,1V36.453z"/>
		<path style="fill:#27FFC6;" d="M18.277,18.81l6.019-5.973c0.193-0.193,0.448-0.29,0.704-0.29c0.255,0,0.51,0.097,0.703,0.29
			l6.019,5.973c0.393,0.39,0.395,1.022,0.006,1.414c-0.389,0.393-1.024,0.394-1.414,0.006L25,14.956l-5.314,5.273
			c-0.389,0.389-1.024,0.388-1.414-0.006C17.883,19.832,17.885,19.199,18.277,18.81"/>
	</g>
</g>
</svg>
