<?xml version="1.0" encoding="utf-8"?>
<!-- Generator: Adobe Illustrator 19.0.0, SVG Export Plug-In . SVG Version: 6.00 Build 0)  -->
<svg version="1.1" xmlns="http://www.w3.org/2000/svg" xmlns:xlink="http://www.w3.org/1999/xlink" x="0px" y="0px"
	 viewBox="0 0 143.537 120.083" style="enable-background:new 0 0 143.537 120.083;" xml:space="preserve">
<g id="圖層_2">
</g>
<g id="圖層_1">
	<g style="opacity:0.5;">
		<g>
			<g id="XMLID_1_">
				<g>
					<path style="fill:#D8D8D8;" d="M101.675,53.043c1.318,5.659,0.846,11.714-1.867,17.133
						C94.786,80.21,83.475,85.285,72.583,84.76c-0.012,0-0.023,0.006-0.035,0.006c-2.888-0.012-6.114,0.105-9.141-0.286l0.193-1.668
						c-3.856-1.657-7.082-4.317-9.55-7.607l1.476-0.735c0.204,0.274,0.408,0.543,0.618,0.805c3.967,4.976,9.975,7.391,16.223,7.73
						C83.784,83.623,95.69,77.766,99.47,66.46c1.435-4.294,1.528-8.826,0.525-13.096L101.675,53.043z"/>
					<path style="fill:#D8D8D8;" d="M101.675,53.043l-1.68,0.321c-1.569-6.662-5.799-12.694-11.761-16.223
						c-6.073-3.395-13.196-3.815-19.694-1.855l-0.467-1.581c1.517-0.461,3.068-0.793,4.638-1.003
						c-1.913-0.187-3.868-0.146-5.939,0.292c-7.963,1.668-15.109,6.884-18.446,14.397c-0.525,1.178-0.939,2.409-1.26,3.675
						l-1.604-0.245c1.12-4.486,3.337-8.657,6.715-11.994c4.813-4.743,11.329-7.566,18.049-8.08c4.183-0.315,8.43,1.313,12.449,2.316
						c0.14,0.035,0.257,0.093,0.344,0.163c2.1,0.525,4.154,1.318,6.096,2.403C95.533,39.433,100.019,45.926,101.675,53.043z"/>
					<path style="fill:#D8D8D8;" d="M96.308,53.078c0.782,3.448,2.013,8.255-0.531,11.288c-3.337,3.979-7.875-0.344-9.824-3.354
						c-1.581-2.596-1.948-4.754-1.05-7.689c0.636-2.094,1.762-4.48,3.722-5.635C92.54,45.372,95.538,49.683,96.308,53.078z
						 M95.958,60.58c0.21-1.873-0.315-4.025-0.653-5.851c-0.548-2.969-2.584-8.931-6.825-5.099
						c-0.006,0.006-0.018,0.018-0.023,0.023c2.514,4.247,3.541,9.474,1.738,14.176c-0.017,0.047-0.041,0.082-0.058,0.117
						c0.461,0.309,0.963,0.438,1.482,0.531c2.223,0.397,3.57-1.26,4.054-2.707C95.807,61.367,95.912,61,95.958,60.58z"/>
					<path style="fill:#D8D8D8;" d="M89.798,67.755c3.413,3.098,0.321,7.205-2.911,8.832c-3.243,1.639-7.852,4.054-11.469,2.176
						c-4.574-2.374-1.383-7.741,1.073-10.291c1.896-1.884,3.588-2.829,6.3-2.823C85.137,65.655,87.996,66.122,89.798,67.755z
						 M85.055,76.004c3.074-1.377,7.35-4.865,3.004-7.864c-0.093-0.064-0.204-0.123-0.303-0.181
						c-0.029,0.064-0.064,0.123-0.117,0.181c-3.29,3.675-8.225,5.88-13.161,5.991c-0.006,0-0.012,0-0.023,0
						c-0.012,0.117-0.023,0.233-0.029,0.356c-0.117,2.485,2.561,3.885,4.754,3.617C81.141,77.871,83.282,76.797,85.055,76.004z"/>
					<path style="fill:#D8D8D8;" d="M86.245,40.996c3.506,4.434-2.129,7.817-5.845,8.785c-2.998,0.694-5.087,0.403-7.636-1.388
						c-1.785-1.254-3.704-3.074-4.2-5.285c-1.003-4.451,4.019-5.974,7.485-5.641C79.449,37.788,83.947,38.085,86.245,40.996z
						 M85.411,45.541c0.881-2.328-0.158-4.399-2.281-5.373c-1.552-0.712-3.559-0.893-5.233-1.149
						c-2.806-0.426-9.73-0.898-7.759,4.474c0.029,0.082,0.064,0.152,0.099,0.228c5.221-1.645,10.442-0.968,14.928,2.281
						C85.265,45.856,85.347,45.704,85.411,45.541z"/>
					<path style="fill:#D8D8D8;" d="M75.29,52.343c3.424,0.163,6.009,2.713,5.956,6.23c-0.053,3.331-2.952,5.869-6.236,5.723
						c-3.185-0.14-6.114-2.788-6.009-6.084C69.112,54.88,72.146,52.5,75.29,52.343z M74.823,62.954
						c6.329,0.607,6.72-9.001,0.467-9.299c-2.508,0.128-5.011,2.106-4.97,4.795C70.355,60.889,72.496,62.732,74.823,62.954z"/>
					<path style="fill:#D8D8D8;" d="M77.857,56.8c1.126,0,1.126,1.75,0,1.75C76.725,58.55,76.731,56.8,77.857,56.8z"/>
					<path style="fill:#D8D8D8;" d="M76.859,59.477c1.132,0,1.126,1.75,0,1.75C75.733,61.227,75.733,59.477,76.859,59.477z"/>
					<path style="fill:#D8D8D8;" d="M75.354,54.565c1.126,0,1.126,1.75,0,1.75C74.228,56.315,74.228,54.565,75.354,54.565z"/>
					<path style="fill:#D8D8D8;" d="M73.75,59.716c1.126,0,1.126,1.75,0,1.75C72.624,61.467,72.624,59.716,73.75,59.716z"/>
					<path style="fill:#D8D8D8;" d="M72.548,56.8c1.132,0,1.126,1.75,0,1.75C71.422,58.55,71.422,56.8,72.548,56.8z"/>
					<path style="fill:#D8D8D8;" d="M65.134,63.234c4.212,2.17,6.767,7.73,4.772,12.367c-1.715,3.99-6.364,2.794-8.937,0.385
						c-2.654-2.479-6.475-6.388-6.02-10.366C55.561,60.276,61.896,61.665,65.134,63.234z M69.112,73.151
						c0-0.023,0-0.041,0.006-0.064c-4.836-1.663-7.893-5.244-9.328-10.133c-0.006-0.018-0.006-0.029-0.006-0.047
						c-1.062-0.047-1.931,0.315-2.678,1.068c-0.893,0.898-0.974,2.66-0.508,4.404c0.099,0.368,0.368,0.665,0.56,0.986
						c1.027,1.756,2.514,3.36,3.903,4.836c0.805,0.858,1.575,1.581,2.643,2.106c1.307,0.642,3.611,0.496,4.69-0.613
						C68.914,75.158,69.065,73.857,69.112,73.151z"/>
					<path style="fill:#D8D8D8;" d="M68.074,33.704l0.467,1.581c-2.549,0.764-5.005,1.902-7.263,3.36
						c-7.21,4.673-11.784,12.659-11.043,21.351c0.426,5.029,2.287,10.349,5.291,14.473l-1.476,0.735
						c-1.692-2.252-3.033-4.789-3.979-7.508c-0.543,0.543-1.003,1.149-1.412,1.803c0.618,1.47,1.342,2.876,2.17,4.177
						c2.112,3.296,5.437,6.726,9.13,8.237c1.114,0.455,2.351,0.729,3.64,0.898l-0.193,1.668c-1.231-0.158-2.427-0.403-3.559-0.77
						c-3.086-0.998-5.944-3.547-8.05-5.927c-1.663-1.884-3.045-4.002-4.142-6.259c-1.359,3.383-1.674,7.479-2.328,10.734
						c-1.009,5.052-3.22,9.94-6.306,14.071c-2.958,3.961-6.86,6.965-11.673,8.26c-1.954,0.525-4.585,1.155-6.598,0.753
						c-1.843-0.373-2.322-2.625-2.602-4.288c-0.105-0.613,0.239-1.033,0.846-1.108c4.084-0.525,7.584-0.758,11.107-3.179
						c4.725-3.249,7.59-7.49,9.41-12.945c1.931-5.775,1.418-14.59,5.688-19.589c-0.898-4.439-0.828-9.071,0.263-13.411l1.604,0.245
						c-0.939,3.739-1.009,7.8-0.344,11.72c0.572-0.443,1.213-0.828,1.925-1.155c-0.117-0.893-0.193-1.791-0.228-2.695
						C47.942,46.509,57.06,37,68.074,33.704z"/>
					<path style="fill:#D8D8D8;" d="M61.954,42.507c5.291-0.963,5.793,5.513,5.25,9.065c-0.834,4.655-5.425,8.715-10.436,8.167
						c-4.323-0.478-4.504-5.303-2.958-8.453C55.403,48.032,58.005,43.225,61.954,42.507z M65.816,45.914
						c-0.303-0.846-0.823-1.534-1.703-1.832c-1.773-0.613-3.984,0.385-5.134,1.663c-1.359,1.511-2.462,3.395-3.465,5.157
						c-0.583,1.021-1.044,1.966-1.225,3.138c-0.455,2.975,1.832,4.883,4.626,4.218c0.07-0.018,0.134-0.035,0.204-0.053
						C59.078,53.054,61.558,48.808,65.816,45.914z"/>
				</g>
				<g>
				</g>
			</g>
		</g>
		<g>
			<path style="fill:#D8D8D8;" d="M69.119,33.491c-0.364-0.513-0.727-1.027-1.091-1.54c-0.323-0.456-1.082-0.019-0.755,0.442
				c0.364,0.513,0.727,1.027,1.091,1.54C68.686,34.388,69.445,33.951,69.119,33.491z"/>
			<path style="fill:#D8D8D8;" d="M66.135,32.623c-0.353-0.439-0.968,0.184-0.619,0.619c0.453,0.564,0.815,1.191,1.1,1.855
				c0.222,0.516,0.976,0.071,0.756-0.442C67.055,33.918,66.637,33.249,66.135,32.623z"/>
			<path style="fill:#D8D8D8;" d="M64.259,33.392c-0.317-0.461-1.076-0.024-0.756,0.442c0.357,0.519,0.713,1.037,1.07,1.556
				c0.317,0.461,1.076,0.024,0.756-0.442C64.972,34.429,64.615,33.911,64.259,33.392z"/>
			<path style="fill:#D8D8D8;" d="M61.979,33.576c-0.353-0.439-0.969,0.184-0.619,0.619c0.538,0.669,0.987,1.398,1.36,2.17
				c0.245,0.507,1,0.064,0.756-0.442C63.068,35.08,62.565,34.304,61.979,33.576z"/>
			<path style="fill:#D8D8D8;" d="M60.38,34.94c-0.335-0.444-1.095-0.008-0.755,0.442c0.467,0.619,0.884,1.27,1.25,1.954
				c0.266,0.497,1.021,0.055,0.755-0.442C61.264,36.21,60.848,35.559,60.38,34.94z"/>
			<path style="fill:#D8D8D8;" d="M60.188,38.148c-0.618-0.873-1.236-1.747-1.854-2.62c-0.323-0.456-1.082-0.019-0.756,0.442
				c0.618,0.873,1.236,1.747,1.855,2.62C59.755,39.045,60.514,38.609,60.188,38.148z"/>
			<path style="fill:#D8D8D8;" d="M58.068,39.135c-0.603-0.642-1.107-1.351-1.524-2.127c-0.266-0.496-1.022-0.055-0.756,0.442
				c0.451,0.84,1.009,1.61,1.661,2.305C57.835,40.165,58.453,39.546,58.068,39.135z"/>
			<path style="fill:#D8D8D8;" d="M56.412,40.304c-0.53-0.666-1.114-1.282-1.75-1.847c-0.42-0.373-1.041,0.244-0.619,0.619
				c0.636,0.566,1.22,1.181,1.75,1.847C56.144,41.363,56.76,40.74,56.412,40.304z"/>
			<path style="fill:#D8D8D8;" d="M54.53,42.576c0.399,0.399,1.018-0.22,0.619-0.619c-0.583-0.583-1.167-1.167-1.75-1.75
				c-0.399-0.399-1.018,0.22-0.619,0.619C53.363,41.409,53.946,41.992,54.53,42.576z"/>
			<path style="fill:#D8D8D8;" d="M50.729,42.645c1.018,0.545,1.991,1.158,2.922,1.84c0.455,0.334,0.892-0.425,0.442-0.756
				c-0.931-0.683-1.904-1.296-2.922-1.84C50.674,41.624,50.231,42.379,50.729,42.645z"/>
			<path style="fill:#D8D8D8;" d="M49.375,44.535c1.005,0.389,2.009,0.778,3.014,1.167c0.526,0.203,0.753-0.642,0.233-0.844
				c-1.005-0.389-2.009-0.778-3.014-1.167C49.083,43.488,48.855,44.334,49.375,44.535z"/>
			<path style="fill:#D8D8D8;" d="M48.379,46.151c0.946,0.374,1.891,0.748,2.837,1.123c0.524,0.207,0.751-0.639,0.232-0.844
				c-0.946-0.374-1.891-0.748-2.837-1.123C48.088,45.1,47.861,45.946,48.379,46.151z"/>
			<path style="fill:#D8D8D8;" d="M47.625,48.522c0.81,0.166,1.619,0.332,2.428,0.498c0.55,0.113,0.785-0.731,0.233-0.844
				c-0.81-0.166-1.619-0.332-2.428-0.498C47.308,47.565,47.073,48.408,47.625,48.522z"/>
			<path style="fill:#D8D8D8;" d="M46.966,51.046c0.907,0.103,1.814,0.206,2.72,0.309c0.559,0.064,0.554-0.812,0-0.875
				c-0.907-0.103-1.813-0.206-2.72-0.309C46.407,50.108,46.412,50.983,46.966,51.046z"/>
			<path style="fill:#D8D8D8;" d="M46.282,53.578c0.907-0.095,1.813-0.12,2.723-0.076c0.563,0.028,0.561-0.848,0-0.875
				c-0.911-0.045-1.817-0.02-2.723,0.076C45.727,52.761,45.721,53.637,46.282,53.578z"/>
			<path style="fill:#D8D8D8;" d="M46.397,56.19c0.746-0.161,1.491-0.322,2.237-0.483c0.55-0.119,0.317-0.962-0.233-0.844
				c-0.746,0.161-1.491,0.322-2.237,0.483C45.614,55.465,45.847,56.309,46.397,56.19z"/>
			<path style="fill:#D8D8D8;" d="M46.299,58.914c0.778-0.259,1.556-0.518,2.334-0.776c0.532-0.177,0.304-1.022-0.233-0.844
				c-0.778,0.259-1.556,0.517-2.334,0.776C45.534,58.247,45.762,59.092,46.299,58.914z"/>
			<path style="fill:#D8D8D8;" d="M48.597,59.501c-0.784,0.375-1.569,0.75-2.354,1.124c-0.508,0.243-0.064,0.997,0.442,0.756
				c0.784-0.375,1.569-0.75,2.354-1.124C49.547,60.013,49.103,59.259,48.597,59.501z"/>
			<path style="fill:#D8D8D8;" d="M50.835,69.472c-0.609,0.622-1.218,1.244-1.828,1.866c-0.395,0.403,0.224,1.022,0.619,0.619
				c0.609-0.622,1.219-1.244,1.828-1.866C51.848,69.688,51.23,69.068,50.835,69.472z"/>
			<path style="fill:#D8D8D8;" d="M51.702,71.505c-0.588,0.581-1.097,1.234-1.517,1.945c-0.287,0.486,0.469,0.927,0.756,0.442
				c0.384-0.651,0.842-1.238,1.38-1.768C52.722,71.728,52.103,71.109,51.702,71.505z"/>
			<path style="fill:#D8D8D8;" d="M52.811,73.063c-0.44,0.752-0.834,1.527-1.184,2.326c-0.223,0.511,0.53,0.957,0.756,0.442
				c0.35-0.799,0.743-1.573,1.184-2.326C53.852,73.017,53.096,72.576,52.811,73.063z"/>
			<path style="fill:#D8D8D8;" d="M53.877,75.296c-0.439,0.715-0.804,1.464-1.111,2.245c-0.206,0.524,0.64,0.752,0.844,0.233
				c0.279-0.71,0.624-1.386,1.023-2.036C54.928,75.257,54.172,74.817,53.877,75.296z"/>
			<path style="fill:#D8D8D8;" d="M55.143,76.853c-0.427,0.66-0.74,1.381-0.933,2.143c-0.138,0.546,0.706,0.779,0.844,0.233
				c0.176-0.696,0.454-1.331,0.844-1.934C56.205,76.821,55.448,76.382,55.143,76.853z"/>
			<path style="fill:#D8D8D8;" d="M56.852,78.32c-0.235,0.645-0.469,1.291-0.704,1.936c-0.193,0.53,0.652,0.758,0.844,0.233
				c0.235-0.645,0.469-1.291,0.704-1.936C57.888,78.022,57.043,77.794,56.852,78.32z"/>
			<path style="fill:#D8D8D8;" d="M58.417,79.78c-0.159,0.552-0.318,1.104-0.477,1.656c-0.156,0.542,0.688,0.774,0.844,0.233
				c0.159-0.552,0.318-1.104,0.477-1.656C59.417,79.471,58.572,79.239,58.417,79.78z"/>
			<path style="fill:#D8D8D8;" d="M60.348,80.652c-0.19,0.507-0.288,1.034-0.307,1.575c-0.021,0.563,0.855,0.562,0.875,0
				c0.017-0.465,0.113-0.907,0.276-1.342C61.39,80.356,60.544,80.128,60.348,80.652z"/>
		</g>
	</g>
</g>
</svg>
