<?xml version="1.0" encoding="UTF-8" standalone="no"?>
<svg width="29px" height="24px" viewBox="0 0 29 24" version="1.1" xmlns="http://www.w3.org/2000/svg" xmlns:xlink="http://www.w3.org/1999/xlink">
    <!-- Generator: Sketch 3.8.3 (29802) - http://www.bohemiancoding.com/sketch -->
    <title>icon-twitter</title>
    <desc>Created with Sketch.</desc>
    <defs></defs>
    <g id="Mobile" stroke="none" stroke-width="1" fill="none" fill-rule="evenodd">
        <g transform="translate(-251.000000, -12474.000000)" id="Sharing-&amp;-Donation" fill="#B3B3B3">
            <g transform="translate(40.000000, 12474.000000)">
                <g id="Group-2" transform="translate(163.000000, 0.000000)">
                    <path d="M76.8,2.8411701 C75.7417855,3.32307692 74.60243,3.64897075 73.40729,3.79458288 C74.6277866,3.04572048 75.5642895,1.85828819 76.0054939,0.443770314 C74.8627575,1.13716143 73.6,1.64160347 72.2510301,1.912026 C71.1759113,0.734994583 69.6393027,0 67.9387216,0 C64.6778658,0 62.0323296,2.71289274 62.0323296,6.05850488 C62.0323296,6.53347779 62.0830428,6.99458288 62.1844691,7.4383532 C57.2737454,7.18526544 52.9208663,4.77573131 50.00486,1.10595883 C49.496038,2.00390033 49.2052826,3.04572048 49.2052826,4.15514626 C49.2052826,6.25612134 50.2482831,8.11094258 51.8339144,9.19783315 C50.8669836,9.16836403 49.9541469,8.89274106 49.1562599,8.44203684 L49.1562599,8.51657638 C49.1562599,11.4530878 51.1932382,13.9024919 53.8979398,14.4572048 C53.4026413,14.5993499 52.8802958,14.6704225 52.341046,14.6704225 C51.9606973,14.6704225 51.5888008,14.6340195 51.2287375,14.5629469 C51.9809826,16.9690141 54.1616482,18.7215601 56.748019,18.768364 C54.7262546,20.3943662 52.1770734,21.3633803 49.4098257,21.3633803 C48.933122,21.3633803 48.4614897,21.3356446 48,21.2801733 C50.6151083,22.9963164 53.7221342,24 57.0573693,24 C67.9268885,24 73.8687797,14.7692308 73.8687797,6.76229686 C73.8687797,6.49880823 73.8637084,6.23531961 73.8535658,5.97703142 C75.0081352,5.12242687 76.0105652,4.05633803 76.8,2.8411701" id="icon-twitter"></path>
                </g>
            </g>
        </g>
    </g>
</svg>