<?xml version="1.0" encoding="UTF-8" standalone="no"?>
<svg width="26px" height="24px" viewBox="0 0 26 24" version="1.1" xmlns="http://www.w3.org/2000/svg" xmlns:xlink="http://www.w3.org/1999/xlink">
    <!-- Generator: Sketch 3.8.3 (29802) - http://www.bohemiancoding.com/sketch -->
    <title>icon-donation</title>
    <desc>Created with Sketch.</desc>
    <defs></defs>
    <g id="Mobile" stroke="none" stroke-width="1" fill="none" fill-rule="evenodd">
        <g transform="translate(-24.000000, -24.000000)" id="Nav-Bar" fill="#C71B0A">
            <g transform="translate(24.000000, 24.000000)">
                <g id="icon/donation">
                    <path d="M12.4416956,2.71033687 C11.1416917,1.04969084 9.22655749,0 7.09090909,0 C3.37369868,0 0.324541855,3.18006641 0.0242708682,7.22672268 L0,7.22672268 L0,8.54067226 C0,16.5230897 12.1670156,23.7799163 12.1670156,23.7799163 C12.6270602,24.071606 13.3750448,24.0751112 13.8429497,23.7733883 C13.8429497,23.7733883 26,16.5230897 26,8.54067226 L26,7.22672268 L25.9757291,7.22672268 C25.6754581,3.18006641 22.6263013,0 18.9090909,0 C17.0377664,0 15.3357491,0.805935137 14.0685195,2.12264306 C14.0763428,2.12671535 14.0841543,2.1308706 14.091954,2.13510881 C14.2911887,2.24336839 14.3908046,2.40575532 14.3908046,2.62227448 C14.3908046,2.91096669 14.3678163,3.22130617 14.3218391,3.55330221 C14.2758618,3.88529825 14.237548,4.19563773 14.2068966,4.48432994 C14.5287372,4.55650299 14.8658986,4.64671795 15.2183908,4.75497753 C15.570883,4.86323711 15.9118757,4.99314666 16.2413793,5.14471007 C16.5708829,5.29627348 16.8773932,5.48031201 17.1609195,5.69683116 C17.4444459,5.91335032 17.6704972,6.16595222 17.8390805,6.45464443 C17.8850577,6.5412521 17.9233715,6.62424986 17.954023,6.70364022 C17.9846745,6.78303058 18,6.86602834 18,6.95263601 C18,7.15472056 17.9425293,7.32432469 17.8275862,7.46145349 C17.7126431,7.59858229 17.5670507,7.71405744 17.3908046,7.80788241 C17.2145585,7.90170738 17.0268209,7.97027075 16.8275862,8.01357458 C16.6283515,8.05687841 16.4444453,8.07853 16.2758621,8.07853 C16.0153244,8.07853 15.7624533,8.03883542 15.5172414,7.95944506 C15.2720294,7.8800547 15.0229898,7.79705694 14.7701149,7.71044927 C14.5172401,7.62384161 14.2452122,7.54084385 13.954023,7.46145349 C13.6628338,7.38206313 13.3409979,7.34236855 12.9885057,7.34236855 C12.850574,7.34236855 12.6858247,7.35680294 12.4942529,7.38567216 C12.302681,7.41454138 12.1226062,7.46506176 11.954023,7.53723481 C11.7854398,7.60940787 11.6436787,7.70323143 11.5287356,7.81870831 C11.4137925,7.9341852 11.3563218,8.07852914 11.3563218,8.25174447 C11.3563218,8.51156746 11.5172398,8.74612636 11.8390805,8.95542821 C12.1609211,9.16473007 12.5670474,9.38124598 13.0574713,9.60498244 C13.5478952,9.82871891 14.0727941,10.0741036 14.6321839,10.3411439 C15.1915737,10.6081842 15.7164726,10.9149151 16.2068966,11.2613457 C16.6973205,11.6077764 17.1034467,12.0083308 17.4252874,12.4630211 C17.747128,12.9177113 17.908046,13.4553925 17.908046,14.0760807 C17.908046,14.6101613 17.8084301,15.0359759 17.6091954,15.3535374 C17.4099607,15.6710988 17.1494269,15.9273093 16.8275862,16.1221765 C16.5057455,16.3170438 16.1379331,16.4686049 15.7241379,16.5768645 C15.3103428,16.6851241 14.8965538,16.7897734 14.4827586,16.8908157 C14.4061299,16.9052503 14.3639847,16.9882481 14.3563218,17.1398115 C14.348659,17.2913749 14.3448276,17.4718048 14.3448276,17.6811067 C14.3448276,17.8904085 14.3409962,18.1141417 14.3333333,18.3523127 C14.3256705,18.5904838 14.2835253,18.8106083 14.2068966,19.0126929 C14.1302678,19.2147774 14.0076637,19.3843815 13.8390805,19.5215103 C13.6704972,19.6586391 13.425289,19.7272025 13.1034483,19.7272025 C12.8122591,19.7272025 12.5402311,19.6369876 12.2873563,19.4565549 C12.0344815,19.2761223 11.908046,19.0415634 11.908046,18.7528712 C11.908046,18.6373943 11.9118774,18.5255277 11.9195402,18.4172682 C11.9272031,18.3090086 11.9310345,18.197142 11.9310345,18.0816651 L11.9310345,17.8434952 C11.9310345,17.7280184 11.9233717,17.605326 11.908046,17.4754145 C11.8927202,17.345503 11.869732,17.2300279 11.8390805,17.1289856 C11.808429,17.0279433 11.7701152,16.9702057 11.7241379,16.9557711 C11.4329487,16.8835981 11.0727991,16.8042089 10.6436782,16.7176013 C10.2145572,16.6309936 9.80459966,16.5119098 9.4137931,16.3603464 C9.02298655,16.208783 8.68965655,16.0175273 8.4137931,15.7865735 C8.13792966,15.5556198 8,15.2597147 8,14.8988494 C8,14.5668534 8.13409828,14.2925999 8.40229885,14.0760807 C8.67049943,13.8595616 8.97317839,13.7513036 9.31034483,13.7513036 C9.60153402,13.7513036 9.88888747,13.7946068 10.1724138,13.8812145 C10.4559401,13.9678221 10.7471249,14.0616457 11.045977,14.162688 C11.3448291,14.2637302 11.6513394,14.3575538 11.9655172,14.4441614 C12.2796951,14.5307691 12.6053623,14.5740723 12.9425287,14.5740723 C13.0651347,14.5740723 13.2183899,14.5632465 13.4022989,14.5415946 C13.5862078,14.5199427 13.7624513,14.4766395 13.9310345,14.4116837 C14.0996177,14.346728 14.2452101,14.2601216 14.3678161,14.151862 C14.4904221,14.0436025 14.5517241,13.9028671 14.5517241,13.7296518 C14.5517241,13.5708711 14.4750966,13.4265271 14.3218391,13.2966156 C14.1685816,13.1667041 13.9885068,13.051229 13.7816092,12.9501867 C13.5747116,12.8491444 13.3639857,12.7589295 13.1494253,12.6795391 C12.9348648,12.6001488 12.7662841,12.5388026 12.6436782,12.4954988 C12.1532543,12.3078488 11.6398494,12.0877243 11.1034483,11.8351186 C10.5670471,11.5825129 10.0727992,11.2866079 9.62068966,10.9473945 C9.16858011,10.6081812 8.79310494,10.2148439 8.49425287,9.767371 C8.1954008,9.31989807 8.04597701,8.80025989 8.04597701,8.20844085 C8.04597701,7.68879487 8.15708701,7.21606846 8.37931034,6.79024745 C8.60153368,6.36442644 8.90038126,5.99995799 9.27586207,5.69683116 C9.65134287,5.39370434 10.0804574,5.15192824 10.5632184,4.97149561 C11.0459794,4.79106298 11.5555529,4.68641362 12.091954,4.6575444 C12.153257,4.32554835 12.2068963,3.98994869 12.2528736,3.65073534 C12.2957873,3.33412374 12.3587274,3.02066031 12.4416956,2.71033687 Z" id="icon-donation"></path>
                </g>
            </g>
        </g>
    </g>
</svg>