<svg id="圖層_1" xmlns="http://www.w3.org/2000/svg" width="271.5" height="50" viewBox="0 0 271.5 50"><path fill="#c6000b" d="M50.432 40.101l-17.567-4.122V14.021L50.432 9.17z"/><path fill="#e50012" d="M5.966 48.52l27.447-12.541V14.021L5.966 1.48z"/><g fill="#231815"><path d="M152.574 13.065s1.068-.473 1.336-1.628h2.37v1.984h-3.823l.117-.356zM160.019 19.422s1.066-.476 1.333-1.631h2.371v1.984H159.9l.119-.353zM155.54 25.044s1.065-.476 1.333-1.632h2.371v1.986h-3.823l.119-.354z"/><path d="M139.742 13.044h16.529v.744h-16.529zM136.441 19.38h27.291v.742h-27.291zM145.282 24.973h12.867v.799h-12.867zM143.873 30.621h14.381v.742h-14.381zM143.873 35.71h14.381v.743h-14.381z"/><path d="M142.706 26.271h2.317v13.245h-2.317zM156.869 25.14h2.386v14.429h-2.386zM147.277 8.688h2.422v11.406h-2.422z"/><path d="M158.953 10.539s-6.23 12.37-24.692 19.726l.234.656s17.99-5.107 26.661-19.023l-2.203-1.359z"/></g><g fill="#231815"><path d="M123.689 13.211s1.066-.474 1.333-1.63h2.372v1.986h-3.824l.119-.356zM122.86 31.584s1.066-.476 1.334-1.631h2.371v1.985h-3.824l.119-.354z"/><path d="M108.006 13.222h19.374v.742h-19.374zM110.104 15.854h14.481v.799h-14.481zM110.139 18.701h14.482v.742h-14.482zM110.104 21.334h14.481v.743h-14.481zM110.104 24.039h14.481v.742h-14.481zM97.287 19.035h7.398v.743h-7.398z"/><path d="M102.66 18.985h2.425v6.441h-2.425zM124.453 13.219s.843-.375 1.055-1.289h1.872v1.57h-3.022l.095-.281z"/><path d="M102.155 19.007s.844-.375 1.055-1.289h1.873v1.57h-3.021l.093-.281zM99.126 31.445h27.438v.743H99.126z"/><path d="M123.612 31.442s.843-.374 1.054-1.288h1.874v1.57h-3.022l.094-.282zM122.22 15.9s.883-.393 1.104-1.351h1.963v1.645h-3.166l.099-.294zM102.629 19.029s.706-.315.884-1.082h1.572v1.317h-2.536l.08-.235zM99.617 10.87l.387-.597s3.514.844 5.095 3.899l-1.827 1.302c-.001.001-2.004-3.794-3.655-4.604zM110.686 8.812l.338-.41s2.319.262 3.964 2.729l-2.019 1.084s-.749-2.242-2.283-3.403zM119.475 9.123s-1.112 3.681-1.534 4.373h.651s2.226-2.303 3.721-4.297l-2.838-.076zM98.071 26.866l4.779-2.179.352.597-3.585 4.218zM104.958 24.058s1.113 2.73 7.953 2.896c0 0 8.938.469 13.448-.328v1.931s-18.977 2.109-21.717-3.865l.316-.634z"/><path d="M109.056 14.816h2.354v10.906h-2.354zM122.893 15.892h2.388v9.87h-2.388zM107.229 34.188l.386-.387s2.742.632 4.357 3.021l-1.825 1.581s-2.18-3.97-2.918-4.215zM117.813 29.63h2.384v7.912c0 .782-.187 1.539-.826 2.009-.359.264-1.079.622-1.543.488-.606-.176-.493-.95-.818-1.354-.344-.424-1.164-.528-1.677-.528l.02-.5h1.462s1.027.154 1.027-.846c0-.999-.029-7.181-.029-7.181z"/></g><g fill="#231815"><path d="M59.743 14.201h14.95v.734h-14.95zM77.095 11.287h9.116v.735h-9.116zM77.652 23.542h10.556v.677H77.652z"/><path d="M65.426 9.246h2.401v10.887h-2.401zM76.199 9.579h2.231v30.04h-2.231zM65.426 25.765h2.401v14.032h-2.401zM71.03 14.193s1.056-.47 1.32-1.613h2.347v1.966h-3.784l.117-.353zM71.03 31.063s1.056-.469 1.32-1.614h2.347v1.967h-3.784l.117-.353zM83.819 11.363s1.057-.47 1.322-1.615h2.346v1.967h-3.786l.118-.352zM71.144 25.365s1.056-.47 1.319-1.615h2.348v1.968h-3.784l.117-.353zM71.095 19.685s1.056-.469 1.321-1.612h2.346v1.964h-3.785l.118-.352z"/><path d="M58.555 19.695H74.76v.735H58.555zM58.646 25.34h16.151v.736H58.646z"/><path d="M71.895 25.305s.835-.373 1.043-1.276h1.855v1.554h-2.992l.094-.278zM59.754 30.925h14.947v.737H59.754zM61.981 21.25l.511-.302s1.925 1.949 2.783 3.711l-1.878.812c0 .001-.951-3.734-1.416-4.221zM69.127 20.716l2.854 1.138s-2.668 2.852-3.55 3.548l-.371-.232c0-.001.743-2.274 1.067-4.454zM85.158 11.282v8.135s.124 1.084-.791 1.084h-.957v.538s1.372.085 1.372.876c0 .788 2.705 1.372 2.705-2.498v-8.218l-2.329.083zM85.805 23.514s-.813 9.638-6.73 16.34l.249.408s7.694-6.639 8.941-16.537l-2.46-.211z"/><path d="M79.819 25.122s1.669 8.862 9.881 12.517l-1.879 2.4s-6.994-3.435-8.524-14.812l.522-.105z"/></g><g fill="#231815"><path d="M175.775 20.354h1.205v-7.392h-2.247v1.488h-1.178v-2.6h8.204v2.6h-1.178v-1.488h-2.248v7.392h1.205v1.056h-3.764v-1.056zM185.576 20.354h1.189v-7.459h-1.189v-1.044h3.75v1.044h-1.206v3.182h4.956v-3.182h-1.205v-1.044h3.75v1.044h-1.191v7.459h1.191v1.056h-3.75v-1.056h1.205v-3.168h-4.956v3.168h1.206v1.056h-3.75v-1.056zM199.762 20.354h1.191v-7.459h-1.191v-1.044h6.918v2.22h-1.177v-1.108h-3.196v3.071h3.386v1.112h-3.386v3.155h3.426v-1.152h1.178v2.261h-7.148v-1.056zM173.496 36.867h1.191v-7.461h-1.191v-1.043h4.143c.678 0 1.232.027 1.762.203 1 .339 1.664 1.179 1.664 2.479 0 1.381-.758 2.367-1.977 2.681v.026s.244.136.406.446l1.354 2.356c.148.258.326.312.663.312h.285v1.056h-.812c-.812 0-1.001-.149-1.326-.72l-1.477-2.612c-.243-.405-.419-.526-1.001-.526h-1.139v2.803h1.178v1.056h-3.723v-1.056zm4.469-3.914c1.043 0 1.733-.677 1.733-1.801 0-.745-.298-1.259-.895-1.502-.312-.122-.718-.177-1.178-.177h-1.585v3.479h1.925zM185.639 36.867h1.191v-7.461h-1.191v-1.043h6.918v2.22h-1.178v-1.109h-3.195v3.072h3.385v1.111h-3.385v3.155h3.427v-1.151h1.177v2.262h-7.148v-1.056zM196.9 36.867h1.193v-7.461H196.9v-1.043h4.455c.582 0 1.164.041 1.639.258.988.42 1.625 1.434 1.625 2.708 0 1.34-.705 2.423-1.802 2.802-.446.163-.907.203-1.435.203h-1.936v2.533h1.205v1.056H196.9v-1.056zm4.321-3.642c.433 0 .771-.069 1.069-.188.608-.272.961-.883.961-1.707 0-.772-.312-1.341-.853-1.624-.298-.164-.704-.231-1.164-.231h-1.787v3.751h1.774zM213.295 28.201c2.762 0 4.915 2.125 4.915 4.874 0 2.816-2.153 5.009-4.915 5.009-2.775 0-4.914-2.192-4.914-5.009 0-2.749 2.139-4.874 4.914-4.874zm0 8.678c1.936 0 3.508-1.65 3.508-3.804 0-2.087-1.572-3.682-3.508-3.682-1.95 0-3.521 1.595-3.521 3.682 0 2.154 1.571 3.804 3.521 3.804zM222.188 36.867h1.191v-7.461h-1.191v-1.043h4.143c.678 0 1.232.027 1.76.203 1.004.339 1.666 1.179 1.666 2.479 0 1.381-.758 2.367-1.977 2.681v.026s.243.136.406.446l1.354 2.356c.15.258.325.312.664.312h.283v1.056h-.811c-.814 0-1.004-.149-1.328-.72l-1.476-2.612c-.243-.405-.42-.526-1.002-.526h-1.137v2.803h1.179v1.056h-3.725v-1.056zm4.467-3.914c1.044 0 1.733-.677 1.733-1.801 0-.745-.299-1.259-.895-1.502-.311-.122-.717-.177-1.177-.177h-1.584v3.479h1.923zM236.172 36.867h1.204v-7.394h-2.247v1.489h-1.178v-2.6h8.205v2.6h-1.179v-1.489h-2.247v7.394h1.205v1.056h-3.764v-1.056zM245.971 36.867h1.192v-7.461h-1.192v-1.043h6.919v2.22h-1.178v-1.109h-3.195v3.072h3.384v1.111h-3.384v3.155h3.426v-1.151h1.178v2.262h-7.149v-1.056zM257.234 36.867h1.19v-7.461h-1.19v-1.043h4.143c.678 0 1.23.027 1.76.203 1.002.339 1.666 1.179 1.666 2.479 0 1.381-.758 2.367-1.977 2.681v.026s.243.136.406.446l1.353 2.356c.149.258.325.312.664.312h.284v1.056h-.812c-.812 0-1.002-.149-1.326-.72l-1.477-2.612c-.243-.405-.42-.526-1.002-.526h-1.138v2.803h1.18v1.056h-3.724v-1.056zm4.467-3.914c1.043 0 1.733-.677 1.733-1.801 0-.745-.298-1.259-.894-1.502-.311-.122-.717-.177-1.178-.177h-1.585v3.479h1.924z"/></g></svg>