<svg id="圖層_1" xmlns="http://www.w3.org/2000/svg" width="123.666" height="50" viewBox="0 0 123.666 50"><g fill="#333"><path d="M27.695 26.67c0-.251-.083-.444-.249-.581s-.464-.281-.894-.435c-.898-.283-1.563-.587-1.997-.91-.434-.324-.649-.792-.649-1.404 0-.596.258-1.077.774-1.445.516-.368 1.17-.552 1.965-.552.787 0 1.434.202 1.936.608.504.404.746.927.73 1.564l-.01.029H27.7a.897.897 0 0 0-.288-.691c-.192-.177-.458-.266-.796-.266-.332 0-.592.073-.781.22s-.283.327-.283.542c0 .208.096.375.285.5.191.126.549.283 1.072.472.807.241 1.415.537 1.824.889.408.352.612.835.612 1.45 0 .625-.243 1.114-.729 1.467-.487.354-1.133.53-1.937.53-.808 0-1.505-.202-2.095-.608-.59-.404-.875-.988-.859-1.75l.01-.029h1.606c0 .41.11.703.332.879s.557.264 1.006.264c.342 0 .597-.068.765-.205a.664.664 0 0 0 .251-.538zM37.113 25.64c0 .876-.277 1.598-.833 2.165-.555.568-1.279.853-2.175.853-.901 0-1.632-.284-2.192-.853-.561-.567-.84-1.289-.84-2.165v-1.28c0-.872.279-1.594.838-2.163.558-.569 1.286-.854 2.185-.854.892 0 1.618.285 2.178.854s.84 1.291.84 2.163v1.28zm-1.645-1.289c0-.508-.119-.925-.359-1.25-.238-.325-.576-.488-1.013-.488-.446 0-.787.162-1.022.485-.236.324-.354.742-.354 1.253v1.289c0 .515.12.935.358 1.26.24.325.582.488 1.028.488.433 0 .769-.163 1.006-.488s.356-.745.356-1.26v-1.289zM44.905 21.445v4.658c0 .811-.27 1.438-.809 1.885-.538.446-1.244.669-2.116.669-.882 0-1.593-.223-2.134-.669s-.811-1.074-.811-1.885v-4.658h1.655v4.658c0 .437.112.76.337.969.225.211.542.315.952.315.407 0 .72-.104.94-.312.219-.208.329-.532.329-.972v-4.658h1.657zM48.645 25.83v2.725H46.99v-7.109h2.734c.824 0 1.477.19 1.958.571s.723.901.723 1.562c0 .368-.097.684-.29.947-.194.264-.48.479-.857.645.436.124.75.329.939.618.191.287.286.646.286 1.076v.449c0 .186.028.397.083.635s.151.407.288.508v.098h-1.699c-.13-.101-.216-.28-.257-.537a4.67 4.67 0 0 1-.061-.713v-.43c0-.339-.09-.598-.269-.776s-.44-.269-.786-.269h-1.137zm0-1.269h1.089c.332 0 .586-.076.762-.227.176-.152.264-.369.264-.652 0-.29-.09-.523-.271-.701-.18-.177-.436-.266-.764-.266h-1.079v1.846zM60.128 26.06l.01.029c-.033.833-.279 1.47-.74 1.909-.46.439-1.129.659-2.004.659-.879 0-1.594-.271-2.144-.811s-.825-1.242-.825-2.104v-1.484c0-.859.265-1.561.793-2.102.529-.543 1.217-.813 2.063-.813.898 0 1.585.227 2.061.679s.743 1.096.806 1.929l-.01.029h-1.606c-.022-.462-.126-.806-.31-1.03-.185-.225-.498-.337-.94-.337-.374 0-.669.15-.884.452-.215.301-.322.695-.322 1.184v1.494c0 .491.117.889.352 1.191s.557.454.967.454c.396 0 .679-.105.845-.317s.261-.549.283-1.011h1.605zM66.46 25.513h-2.788v1.772h3.286v1.27h-4.941v-7.109h4.951v1.27h-3.296v1.528h2.788v1.269zM77.732 26.06l.01.029c-.032.833-.279 1.47-.739 1.909-.461.439-1.129.659-2.005.659-.879 0-1.593-.271-2.144-.811s-.825-1.242-.825-2.104v-1.484c0-.859.265-1.561.794-2.102.528-.543 1.217-.813 2.062-.813.898 0 1.586.227 2.061.679s.744 1.096.806 1.929l-.01.029h-1.606c-.023-.462-.126-.806-.311-1.03-.184-.225-.496-.337-.939-.337-.375 0-.669.15-.884.452-.215.301-.322.695-.322 1.184v1.494c0 .491.117.889.352 1.191s.557.454.967.454c.397 0 .679-.105.845-.317s.26-.549.283-1.011h1.605zM85.5 25.64c0 .876-.277 1.598-.833 2.165-.555.568-1.279.853-2.175.853-.901 0-1.632-.284-2.192-.853-.561-.567-.84-1.289-.84-2.165v-1.28c0-.872.279-1.594.838-2.163.558-.569 1.286-.854 2.185-.854.892 0 1.618.285 2.178.854s.84 1.291.84 2.163v1.28zm-1.646-1.289c0-.508-.119-.925-.359-1.25-.238-.325-.576-.488-1.013-.488-.446 0-.787.162-1.022.485-.236.324-.354.742-.354 1.253v1.289c0 .515.12.935.358 1.26.24.325.582.488 1.028.488.433 0 .769-.163 1.006-.488s.356-.745.356-1.26v-1.289zM87.457 28.555v-7.109h2.568c.837 0 1.536.272 2.1.818.563.545.845 1.244.845 2.097v1.279c0 .856-.281 1.556-.845 2.1s-1.263.815-2.1.815h-2.568zm1.655-5.84v4.57h.801c.439 0 .783-.15 1.03-.451.247-.302.371-.699.371-1.194v-1.289c0-.491-.124-.887-.371-1.187s-.591-.449-1.03-.449h-.801zM99.434 25.513h-2.788v1.772h3.286v1.27H94.99v-7.109h4.951v1.27h-3.296v1.528h2.788v1.269z"/></g><path fill="none" stroke="#333" stroke-width="2" stroke-miterlimit="10" d="M16.333 15h90v21h-90z"/></svg>