<?xml version="1.0" encoding="UTF-8"?>
<svg width="19px" height="16px" viewBox="0 0 19 16" version="1.1" xmlns="http://www.w3.org/2000/svg" xmlns:xlink="http://www.w3.org/1999/xlink">
    <!-- Generator: sketchtool 40 (33762) - http://www.bohemiancoding.com/sketch -->
    <title>95C8970F-7958-4731-AA92-C75C5DCB8031</title>
    <desc>Created with sketchtool.</desc>
    <defs></defs>
    <g id="mockup" stroke="none" stroke-width="1" fill="none" fill-rule="evenodd" opacity="0.5">
        <g id="OPENING-1-HD" transform="translate(-1391.000000, -12.000000)" fill="#FFFFFF">
            <g id="Group-8-Copy-2">
                <g id="Group-4">
                    <g id="Group" transform="translate(1158.000000, 9.000000)">
                        <g id="tools">
                            <g id="Share" transform="translate(192.000000, 3.000000)">
                                <path d="M59.4,2 C58.7239185,2.21538462 57.9959969,2.43264717 57.4631579,2.5 C58.012197,2.03048032 58.6105183,1.23885879 58.9157895,0.5 C58.1623173,0.75810762 57.3555556,1.09440231 56.4947368,1.5 C55.8068322,0.489996389 54.8251101,0 53.5894737,0 C51.6553032,0 49.9650995,1.80859516 50.2,4 C49.9650995,4.35565186 49.9974996,4.66305525 50.2,5 C46.9248929,4.79017696 44.1438868,3.18382087 42.4526316,0.5 C41.9558021,1.33593355 41.7700417,2.03048032 41.9684211,3 C41.7700417,4.17074756 42.4364031,5.40729505 43.4210526,6 C42.831684,6.11224269 42.2484827,5.92849404 41.9684211,5.5 L41.9684211,5.5 C41.7387216,7.63539184 43.0401244,9.26832792 44.8736842,9.5 C44.4516875,9.73289996 44.1179668,9.78028169 43.9052632,10 C43.5304455,9.78028169 43.292845,9.756013 42.9368421,9.5 C43.5434055,11.3126761 44.9366086,12.4810401 46.8105263,12.5 C45.2973293,13.5962441 43.6686858,14.2422535 41.9684211,14 C41.5961613,14.2422535 41.2948406,14.2237631 41,14 C42.6707636,15.3308776 44.6558079,16 46.8105263,16 C53.7310677,16 57.5272759,9.84615385 57.4631579,4.5 C57.5272759,4.33253882 57.5240359,4.15687974 57.4631579,4 C58.2551975,3.41495125 58.8956389,2.70422535 59.4,2" id="icon-share-twitter"></path>
                            </g>
                        </g>
                    </g>
                </g>
            </g>
        </g>
    </g>
</svg>