<svg id="圖層_1" xmlns="http://www.w3.org/2000/svg" viewBox="0 0 50 50"><style>.st0{fill:#fff}.st1{fill:#404040}</style><path class="st0" d="M24.7 9.7C16.3 9.7 9.4 16.6 9.4 25s6.9 15.3 15.3 15.3C33.2 40.3 40 33.4 40 25S33.2 9.7 24.7 9.7z"/><path class="st1" d="M25 30.4c.4 0 .8-.3.8-.8v-9.3c0-.4-.3-.8-.8-.8-.4 0-.8.3-.8.8v9.3c0 .5.4.8.8.8"/><path class="st1" d="M24.5 36c.2.2.3.2.5.2s.4-.1.5-.2l4.7-4.6c.3-.3.3-.8 0-1.1-.3-.3-.8-.3-1.1 0L25 34.4l-4.1-4.1c-.3-.3-.8-.3-1.1 0-.3.3-.3.8 0 1.1l4.7 4.6zM25.5 14c-.2-.2-.3-.2-.5-.2s-.4.1-.5.2l-4.7 4.6c-.3.3-.3.8 0 1.1.3.3.8.3 1.1 0l4.1-4.1 4.1 4.1c.3.3.8.3 1.1 0 .3-.3.3-.8 0-1.1L25.5 14z"/></svg>