<?xml version="1.0" encoding="UTF-8" standalone="no"?>
<svg width="180px" height="180px" viewBox="0 0 180 180" version="1.1" xmlns="http://www.w3.org/2000/svg" xmlns:xlink="http://www.w3.org/1999/xlink">
    <!-- Generator: Sketch 39.1 (31720) - http://www.bohemiancoding.com/sketch -->
    <title>icon_Archery</title>
    <desc>Created with Sketch.</desc>
    <defs>
        <ellipse id="path-1" cx="90.4440559" cy="90.0471698" rx="74.4440559" ry="74.0471698"></ellipse>
        <filter x="-50%" y="-50%" width="200%" height="200%" filterUnits="objectBoundingBox" id="filter-2">
            <feOffset dx="0" dy="4" in="SourceAlpha" result="shadowOffsetOuter1"></feOffset>
            <feColorMatrix values="0 0 0 0 1   0 0 0 0 1   0 0 0 0 1  0 0 0 1 0" type="matrix" in="shadowOffsetOuter1"></feColorMatrix>
        </filter>
    </defs>
    <g id="Page-1" stroke="none" stroke-width="1" fill="none" fill-rule="evenodd">
        <g id="icon_Archery">
            <g id="Oval-2">
                <use fill="black" fill-opacity="1" filter="url(#filter-2)" xlink:href="#path-1"></use>
                <use fill="#B1F3F8" fill-rule="evenodd" xlink:href="#path-1"></use>
            </g>
            <g id="Page-1" transform="translate(4.000000, 29.000000)">
                <path d="M96.5207,11.8814 L98.1867,2.9494" id="Fill-1" fill="#FFFFFF"></path>
                <g id="Group-48" transform="translate(0.000000, 0.369000)">
                    <path d="M143.7583,30.2194 C145.4583,32.9664 146.6433,36.0134 147.2453,39.2424 L150.0883,54.4814 L141.1553,56.1474 L138.3133,40.9084 C138.0543,39.5214 137.6243,38.1894 137.0513,36.9264 L115.7413,15.6174 C114.4793,15.0434 113.1463,14.6134 111.7603,14.3554 L96.5203,11.5124 L98.1863,2.5804 L113.4253,5.4234 C116.6553,6.0254 119.7023,7.2104 122.4493,8.9094 L143.7583,30.2194 Z" id="Fill-2" fill="#FFFFFF"></path>
                    <polygon id="Fill-4" fill="#FF5050" points="20.4738 47.29 30.2268 47.29 30.2268 37.537 12.2738 29.337"></polygon>
                    <polygon id="Fill-6" fill="#FFBE64" points="108.5081 125.5712 119.9051 136.9682 128.6061 134.4872 117.2091 123.0912"></polygon>
                    <polygon id="Fill-8" fill="#FFBE64" points="108.5081 125.5712 119.9051 136.9682 117.4241 145.6692 106.0281 134.2722"></polygon>
                    <path d="M91.2465,11.3435 L92.9125,2.4115" id="Stroke-10" stroke="#000000" stroke-width="5" stroke-linecap="round" stroke-linejoin="round"></path>
                    <path d="M83.3108,9.9867 L84.9768,1.0547" id="Stroke-12" stroke="#000000" stroke-width="5" stroke-linecap="round" stroke-linejoin="round"></path>
                    <path d="M137.1798,64.2079 L146.1118,62.5419" id="Stroke-14" stroke="#000000" stroke-width="5" stroke-linecap="round" stroke-linejoin="round"></path>
                    <path d="M142.3918,120.7115 L145.2908,109.5005 C146.9238,102.8825 147.1598,95.9965 145.9838,89.2825 L143.0188,70.6185" id="Stroke-16" stroke="#000000" stroke-width="5" stroke-linecap="round" stroke-linejoin="round"></path>
                    <path d="M76.1779,3.7782 L57.8219,0.8662 C50.9089,-0.3448 43.8169,-0.0578 37.0249,1.7062 L26.1979,4.5172" id="Stroke-18" stroke="#000000" stroke-width="5" stroke-linecap="round" stroke-linejoin="round"></path>
                    <path d="M117.6725,22.4375 L133.3585,6.7515" id="Stroke-20" stroke="#000000" stroke-width="5" stroke-linecap="round" stroke-linejoin="round"></path>
                    <path d="M124.6115,29.7287 L147.7275,6.6127" id="Stroke-22" stroke="#000000" stroke-width="5" stroke-linecap="round" stroke-linejoin="round"></path>
                    <g id="Group-27" transform="translate(91.000000, 2.000000)">
                        <path d="M26.1747,6.7409 C23.4277,5.0409 20.3807,3.8559 17.1517,3.2539 L1.9117,0.4109 L0.2467,9.3439 L15.4857,12.1859 C16.8727,12.4449 18.2047,12.8739 19.4677,13.4479" id="Fill-24" fill="#FFFFFF"></path>
                        <path d="M26.1747,6.7409 C23.4277,5.0409 20.3807,3.8559 17.1517,3.2539 L1.9117,0.4109 L0.2467,9.3439 L15.4857,12.1859 C16.8727,12.4449 18.2047,12.8739 19.4677,13.4479" id="Stroke-26" stroke="#000000" stroke-width="5" stroke-linecap="round" stroke-linejoin="round"></path>
                    </g>
                    <g id="Group-31" transform="translate(131.000000, 30.000000)">
                        <path d="M0.7767,6.7579 C1.3507,8.0209 1.7797,9.3529 2.0387,10.7399 L4.8817,25.9789 L13.8137,24.3129 L10.9707,9.0739 C10.3687,5.8439 9.1837,2.7979 7.4837,0.0509" id="Fill-28" fill="#FFFFFF"></path>
                        <path d="M0.7767,6.7579 C1.3507,8.0209 1.7797,9.3529 2.0387,10.7399 L4.8817,25.9789 L13.8137,24.3129 L10.9707,9.0739 C10.3687,5.8439 9.1837,2.7979 7.4837,0.0509" id="Stroke-30" stroke="#000000" stroke-width="5" stroke-linecap="round" stroke-linejoin="round"></path>
                    </g>
                    <path d="M32.5644,11.3983 L135.5114,114.3453" id="Stroke-32" stroke="#000000" stroke-width="3" stroke-linecap="round"></path>
                    <path d="M96.335,118.5034 L31.479,53.6474" id="Stroke-34" stroke="#000000" stroke-width="5" stroke-linecap="round" stroke-linejoin="round"></path>
                    <polygon id="Stroke-36" stroke="#000000" stroke-width="5" stroke-linecap="round" stroke-linejoin="round" points="15.1996 47.1211 24.9526 47.1211 24.9526 37.3681 6.9996 29.1681"></polygon>
                    <polygon id="Stroke-38" stroke="#000000" stroke-width="5" stroke-linecap="round" stroke-linejoin="round" points="103.2339 125.4023 114.6309 136.7993 123.3319 134.3183 111.9349 122.9223"></polygon>
                    <polygon id="Stroke-40" stroke="#000000" stroke-width="5" stroke-linecap="round" stroke-linejoin="round" points="103.2339 125.4023 114.6309 136.7993 112.1499 145.5003 100.7539 134.1033"></polygon>
                    <path d="M55.4973,93.8842 L82.2653,120.6522" id="Stroke-42" stroke="#000000" stroke-width="3" stroke-linecap="round"></path>
                    <path d="M0.5,40.6583 L6.294,53.3453 C7.433,55.8373 9.921,57.4363 12.662,57.4363 L15.976,57.4363" id="Stroke-44" stroke="#000000" stroke-width="3" stroke-linecap="round"></path>
                    <path d="M155.962,77.1264 L157.618,89.5994 C158.419,95.6364 158.212,101.7644 157.006,107.7334 L155.669,114.3444" id="Stroke-46" stroke="#000000" stroke-width="3" stroke-linecap="round"></path>
                </g>
            </g>
        </g>
    </g>
</svg>