<?xml version="1.0" encoding="UTF-8" standalone="no"?>
<svg width="180px" height="225px" viewBox="0 0 180 225" version="1.1" xmlns="http://www.w3.org/2000/svg" xmlns:xlink="http://www.w3.org/1999/xlink">
    <!-- Generator: Sketch 39.1 (31720) - http://www.bohemiancoding.com/sketch -->
    <title>icon_Table tennis_shadow</title>
    <desc>Created with Sketch.</desc>
    <defs>
        <ellipse id="path-1" cx="90.4440559" cy="90.0471698" rx="74.4440559" ry="74.0471698"></ellipse>
        <filter x="-50%" y="-50%" width="200%" height="200%" filterUnits="objectBoundingBox" id="filter-2">
            <feOffset dx="0" dy="4" in="SourceAlpha" result="shadowOffsetOuter1"></feOffset>
            <feColorMatrix values="0 0 0 0 1   0 0 0 0 1   0 0 0 0 1  0 0 0 1 0" type="matrix" in="shadowOffsetOuter1"></feColorMatrix>
        </filter>
    </defs>
    <g id="Page-2" stroke="none" stroke-width="1" fill="none" fill-rule="evenodd">
        <g id="icon_Table-tennis_shadow">
            <g id="Oval-2">
                <use fill="black" fill-opacity="1" filter="url(#filter-2)" xlink:href="#path-1"></use>
                <use fill="#B1F3F8" fill-rule="evenodd" xlink:href="#path-1"></use>
            </g>
            <g id="桌球" transform="translate(13.000000, 7.000000)">
                <g id="Layer_1">
                    <g id="Group">
                        <path d="M117.876521,52.6597724 L117.838976,52.6225123 C99.8100223,34.7301874 70.3086661,34.7301874 52.279712,52.6225123 L40.6108262,64.2029674 C25.4302616,79.2697308 23.2564248,102.373509 33.9153587,119.812502 C34.750102,121.178707 34.5310914,122.932419 33.3922362,124.061401 L12.4948687,144.800402 C11.0343807,146.249822 11.0343807,148.620809 12.4948687,150.070229 L18.6897405,156.218154 C20.1502284,157.667574 22.5393214,157.667574 23.9998094,156.218154 L44.8971769,135.479154 C46.0347806,134.350171 47.8031349,134.131578 49.1785216,134.959996 C66.7506822,145.538153 90.0308853,143.38079 105.21145,128.314026 L117.876521,115.744935 C135.429909,98.3258144 135.429909,70.0801354 117.876521,52.6597724 L117.876521,52.6597724 Z" id="Shape" fill="#FFFFFF"></path>
                        <path d="M105.341605,128.422081 L117.785162,116.072825 C135.461197,98.5307452 135.461197,70.0900714 117.785162,52.547992 L117.785162,52.547992 C99.8575789,34.7562695 70.5226708,34.7562695 52.5950873,52.547992 L40.7422326,64.3110219 C35.1505786,69.8603005 31.3310334,76.5013015 29.2598187,83.5459542 L85.9610422,139.817477 C93.0582378,137.761959 99.7499508,133.97136 105.341605,128.422081 L105.341605,128.422081 Z" id="Shape" fill="#FF5050"></path>
                        <ellipse id="Oval" fill="#FFBE64" cx="75.0267806" cy="13.3912985" rx="12.8678125" ry="12.770296"></ellipse>
                        <path d="M46.4227423,52.7293247 L34.7538565,64.3097799 C19.5720404,79.3765432 17.3994551,102.479079 28.0571375,119.918072 C28.8918809,121.284278 28.6728702,123.037989 27.534015,124.166972 L6.6366475,144.907214 C5.17615954,146.356634 5.17615954,148.727622 6.6366475,150.177041 L12.8315193,156.324967 C14.2920073,157.774386 16.6811002,157.774386 18.1415882,156.324967 L39.0389557,135.585966 C40.1765594,134.456983 41.9449138,134.238391 43.3203004,135.066808 C60.892461,145.644965 84.1726641,143.487602 99.3532287,128.420839 L112.0183,115.851748 C121.779493,106.164528 126.112624,93.129778 125.017691,80.4705272 C124.143625,70.3648621 119.810495,60.498486 112.0183,52.7653429 C106.500484,47.2893426 99.960201,43.5037111 93.0056752,41.3724305" id="Shape" stroke="#000000" stroke-width="5" stroke-linecap="round"></path>
                        <path d="M30.2359803,90.4564703 L73.8929314,133.782575" id="Shape" stroke="#000000" stroke-width="5" stroke-linecap="round" stroke-linejoin="round"></path>
                        <ellipse id="Oval" stroke="#000000" stroke-width="5" stroke-linecap="round" stroke-linejoin="round" cx="68.7430531" cy="13.3912985" rx="12.8678125" ry="12.770296"></ellipse>
                        <path d="M81.61462,35.126387 C77.9790438,37.6936115 73.5350054,39.2051316 68.7430531,39.2051316 C63.9736276,39.2051316 59.5496131,37.7085155 55.9240487,35.1636472" id="Shape" stroke="#000000" stroke-width="3" stroke-linecap="round" stroke-linejoin="round"></path>
                        <path d="M81.61462,44.8984828 C77.9790438,47.4657073 73.5350054,48.9772274 68.7430531,48.9772274 C63.9736276,48.9772274 59.5496131,47.4806113 55.9240487,44.935743" id="Shape" stroke="#000000" stroke-width="3" stroke-linecap="round" stroke-linejoin="round"></path>
                        <path d="M81.61462,54.6705786 C77.9790438,57.2378031 73.5350054,58.7493232 68.7430531,58.7493232 C63.9736276,58.7493232 59.5496131,57.2527071 55.9240487,54.7078388" id="Shape" stroke="#000000" stroke-width="3" stroke-linecap="round" stroke-linejoin="round"></path>
                        <path d="M42.554389,145.268638 L24.7769842,162.910077 C22.300287,165.369247 18.9988583,166.725517 15.485928,166.725517 C11.9729977,166.725517 8.67156902,165.370489 6.19362031,162.908835 L0,156.763394" id="Shape" stroke="#000000" stroke-width="3" stroke-linecap="round" stroke-linejoin="round"></path>
                        <path d="M128.072404,58.7443552 C139.143078,79.1815484 135.998085,105.227636 118.654947,122.438101 L105.989876,135.007192" id="Shape" stroke="#000000" stroke-width="3" stroke-linecap="round" stroke-linejoin="round"></path>
                    </g>
                </g>
            </g>
            <ellipse id="Oval-3-Copy" fill-opacity="0.2" fill="#000000" cx="90" cy="214" rx="35" ry="11"></ellipse>
        </g>
    </g>
</svg>