<?xml version="1.0" encoding="UTF-8" standalone="no"?>
<svg width="180px" height="180px" viewBox="0 0 180 180" version="1.1" xmlns="http://www.w3.org/2000/svg" xmlns:xlink="http://www.w3.org/1999/xlink">
    <!-- Generator: Sketch 39.1 (31720) - http://www.bohemiancoding.com/sketch -->
    <title>icon_Rowing</title>
    <desc>Created with Sketch.</desc>
    <defs>
        <ellipse id="path-1" cx="90.4440559" cy="90.0471698" rx="74.4440559" ry="74.0471698"></ellipse>
        <filter x="-50%" y="-50%" width="200%" height="200%" filterUnits="objectBoundingBox" id="filter-2">
            <feOffset dx="0" dy="4" in="SourceAlpha" result="shadowOffsetOuter1"></feOffset>
            <feColorMatrix values="0 0 0 0 1   0 0 0 0 1   0 0 0 0 1  0 0 0 1 0" type="matrix" in="shadowOffsetOuter1"></feColorMatrix>
        </filter>
    </defs>
    <g id="Page-1" stroke="none" stroke-width="1" fill="none" fill-rule="evenodd">
        <g id="icon_Rowing">
            <g id="Oval-2">
                <use fill="black" fill-opacity="1" filter="url(#filter-2)" xlink:href="#path-1"></use>
                <use fill="#B1F3F8" fill-rule="evenodd" xlink:href="#path-1"></use>
            </g>
            <g id="Page-1" transform="translate(8.000000, 11.000000)">
                <path d="M154.2311,81.1555 L92.7991,81.1555 L120.4461,60.1635 L156.5251,60.1635 C161.0371,60.1635 164.2671,64.5215 162.9561,68.8385 L160.6621,76.3875 C159.8021,79.2195 157.1911,81.1555 154.2311,81.1555" id="Fill-1" fill="#FFFFFF"></path>
                <path d="M63.9457,80.8224 C45.4307,79.1894 27.8637,71.5944 13.9437,59.0744 L13.0837,58.3014 C10.9377,56.3704 12.3027,52.8094 15.1897,52.8094 L57.3507,52.8094 L69.9487,52.8094 L93.8497,52.8094 L63.9457,80.8224 Z" id="Fill-3" fill="#FFFFFF"></path>
                <path d="M60.9148,98.5775 C62.9198,100.5825 63.9178,103.2075 63.9178,105.8315 C63.9178,108.4565 62.9198,111.0705 60.9148,113.0755 L54.3218,119.6685 L39.8238,105.1705 L46.4168,98.5775 C50.4168,94.5775 56.9048,94.5775 60.9148,98.5775" id="Fill-5" fill="#FFFFFF"></path>
                <path d="M54.3219,119.6688 L28.4849,145.4948 C24.4859,149.5048 17.9979,149.5048 13.9869,145.4948 C9.9869,141.4948 9.9869,135.0068 13.9869,130.9968 L39.8239,105.1708 L54.3219,119.6688 Z" id="Fill-7" fill="#FF5050"></path>
                <polygon id="Fill-9" fill="#FFBE64" points="135.9062 16.6459 152.0522 0.4999 158.9922 7.4389 142.8452 23.5849"></polygon>
                <path d="M114.1415,60.1633 L140.3035,60.1633" id="Stroke-11" stroke="#000000" stroke-width="5" stroke-linecap="round" stroke-linejoin="round"></path>
                <path d="M57.6412,80.8224 C39.1262,79.1894 21.5592,71.5944 7.6392,59.0744 L6.7792,58.3014 C4.6332,56.3704 5.9982,52.8094 8.8852,52.8094 L51.0462,52.8094 L63.6442,52.8094 L87.5452,52.8094" id="Stroke-13" stroke="#000000" stroke-width="5" stroke-linecap="round" stroke-linejoin="round"></path>
                <path d="M31.1436,85.2476 C20.1366,81.3326 9.7756,75.6346 0.4996,68.3206" id="Stroke-15" stroke="#000000" stroke-width="3" stroke-linecap="round"></path>
                <path d="M152.9093,81.1555 L86.4953,81.1555" id="Stroke-17" stroke="#000000" stroke-width="5" stroke-linecap="round" stroke-linejoin="round"></path>
                <path d="M126.1997,26.9872 L60.5377,92.6492" id="Stroke-19" stroke="#000000" stroke-width="5" stroke-linecap="round" stroke-linejoin="round"></path>
                <path d="M7.6869,145.5 L7.6869,145.5 C3.6829,141.496 3.6829,135.005 7.6869,131.001 L40.1079,98.581 C44.1109,94.577 50.6029,94.577 54.6059,98.581 L54.6059,98.581 C58.6099,102.584 58.6099,109.076 54.6059,113.079 L22.1859,145.5 C18.1819,149.504 11.6909,149.504 7.6869,145.5 L7.6869,145.5 Z" id="Stroke-21" stroke="#000000" stroke-width="5" stroke-linecap="round" stroke-linejoin="round"></path>
                <path d="M54.6422,127.0262 L29.8062,151.8622 C21.7142,159.9542 8.5962,159.9542 0.5052,151.8622 L0.5052,151.8622" id="Stroke-23" stroke="#000000" stroke-width="3" stroke-linecap="round"></path>
                <path d="M33.5173,105.1709 L48.0163,119.6699" id="Stroke-25" stroke="#000000" stroke-width="5" stroke-linecap="round" stroke-linejoin="round"></path>
                <polygon id="Stroke-27" stroke="#000000" stroke-width="5" stroke-linecap="round" stroke-linejoin="round" points="129.6017 16.6459 145.7477 0.4999 152.6877 7.4389 136.5407 23.5849"></polygon>
                <path d="M91.3816,99.9204 C97.0186,99.9204 97.0186,106.2194 102.6566,106.2194 C108.2946,106.2194 108.2946,99.9204 113.9336,99.9204 C119.5746,99.9204 119.5746,106.2194 125.2146,106.2194 C130.8536,106.2194 130.8536,99.9204 136.4926,99.9204 C142.1356,99.9204 142.1356,106.2194 147.7786,106.2194 C153.4206,106.2194 153.4206,99.9204 159.0636,99.9204" id="Stroke-29" stroke="#000000" stroke-width="3" stroke-linecap="round"></path>
                <path d="M67.3635,116.7898 C73.0005,116.7898 73.0005,123.0888 78.6385,123.0888 C84.2765,123.0888 84.2765,116.7898 89.9155,116.7898 C95.5565,116.7898 95.5565,123.0888 101.1965,123.0888 C106.8355,123.0888 106.8355,116.7898 112.4745,116.7898 C118.1175,116.7898 118.1175,123.0888 123.7605,123.0888 C129.4025,123.0888 129.4025,116.7898 135.0455,116.7898" id="Stroke-31" stroke="#000000" stroke-width="3" stroke-linecap="round"></path>
            </g>
        </g>
    </g>
</svg>