<?xml version="1.0" encoding="UTF-8" standalone="no"?><!DOCTYPE svg PUBLIC "-//W3C//DTD SVG 1.1//EN" "http://www.w3.org/Graphics/SVG/1.1/DTD/svg11.dtd"><svg width="100%" height="100%" viewBox="0 0 263 231" version="1.1" xmlns="http://www.w3.org/2000/svg" xmlns:xlink="http://www.w3.org/1999/xlink" xml:space="preserve" style="fill-rule:evenodd;clip-rule:evenodd;stroke-linejoin:round;stroke-miterlimit:1.41421;"><g id="Page-1"><path id="Fill-1" d="M165.972,47.539c-9.348,-11.666 -26.157,-15.786 -40.4,-14.929c-12.707,0.756 -30.02,4.359 -38.11,15.294c-4.454,6.022 -7.901,12.309 -8.795,19.805c-0.893,7.522 1.145,14.123 4.039,20.977c0.088,0.227 0.176,0.453 0.277,0.68c0.365,0.869 0.849,1.676 1.227,2.444c0.088,0.202 0.396,0.403 0.396,0.605l0,0.013c0,0.378 0.258,0.756 0.421,1.121c0.491,0.164 1.192,-0.038 1.859,-0.479c0.755,-0.504 1.494,-1.323 1.494,-2.255l0,-0.013c1.259,-8.667 6.493,-17.512 16.03,-18.482c6.353,-0.63 11.764,-1.978 17.966,-3.527c7.31,-1.84 16.174,0.945 23.471,2.015c7.701,1.147 20.58,0.378 20.002,11.226c-0.026,0.554 0.175,0.995 0.489,1.297c0.805,0.782 2.353,0.744 3.032,-0.34c0.063,-0.113 0.137,-0.214 0.2,-0.327c0.378,-0.63 0.73,-1.273 1.057,-1.915c5.549,-10.974 2.982,-23.673 -4.655,-33.21" style="fill:#fff000;"/><path id="Fill-3" d="M176.163,172.214c-1.334,-1.738 -3.586,-2.847 -6.605,-3.893c-0.114,-0.037 -0.227,-0.075 -0.34,-0.113c-0.101,-0.038 -0.214,-0.063 -0.315,-0.076c-5.573,-1.373 -12.443,-2.368 -17.966,-0.315c0.314,0.845 0.314,1.701 -0.139,2.533c-1.082,2.003 -2.856,4.006 -4.617,5.833c-0.805,4.573 -1.397,9.235 -2.114,13.821c-1.585,10.104 -2.592,20.259 -3.296,30.452c-0.227,3.351 -0.856,7.259 -0.277,9.779l27.126,0c0.226,-1.26 0.377,-2.749 0.604,-3.745c1.145,-5.077 1.447,-10.381 2.214,-15.509c1.611,-10.746 5.222,-20.99 6.933,-31.686c0.176,-1.121 0.239,-2.117 0.189,-3.011c-0.076,-1.676 -0.554,-2.999 -1.397,-4.07" style="fill:#ff6496;"/><path id="Fill-5" d="M110.084,174.558c-0.428,-0.328 -0.856,-0.643 -1.284,-0.958c-1.497,-1.083 -2.642,-2.431 -2.755,-3.905c-3.762,-0.807 -9.222,0.705 -11.55,0.882c-4.882,0.365 -11.147,0.277 -14.142,3.855c-0.843,1.02 -0.78,2.343 -2.038,4.069l0,0.05c0,3.087 1.007,6.942 1.51,9.941c0.881,5.405 2.189,10.773 3.271,16.127c1.749,8.529 3.636,16.797 5.372,25.616l29.14,0l-0.29,0l0,-0.08c-1.258,-10.23 -2.925,-20.485 -4.322,-30.74c-1.119,-8.215 -1.465,-16.693 -2.912,-24.857" style="fill:#ff6496;"/><path id="Fill-7" d="M228.251,177.644c-0.591,-1.612 -1.61,-3.137 -2.906,-4.573c-0.843,-0.932 -1.799,-1.827 -2.843,-2.671c-2.894,-2.381 -6.392,-4.422 -9.676,-6.085c-1.182,-0.605 -2.327,-1.146 -3.409,-1.65c-0.957,-0.429 -1.85,-0.832 -2.668,-1.185c-0.943,-0.403 -2.013,-0.289 -2.579,0.681c-4.945,8.504 -9.499,17.197 -13.664,26.079c-1.459,-7.786 -4.831,-14.778 -13.865,-16.013c-0.163,-0.025 -0.327,-0.025 -0.478,-0.013c0.843,1.071 1.321,2.394 1.397,4.07c0.05,0.894 -0.013,1.89 -0.189,3.011c-1.711,10.696 -5.322,20.939 -6.933,31.685c-0.767,5.128 -1.069,10.433 -2.214,15.51c-0.226,0.996 -0.377,2.485 -0.604,3.745l29.806,0c0.617,-1.26 1.208,-2.056 1.799,-3.027c3.85,-6.324 7.7,-12.649 11.55,-18.986c3.423,-5.619 6.845,-11.251 10.267,-16.883c1.585,-2.608 8.442,-10.356 7.209,-13.695" style="fill:#fff;"/><path id="Fill-9" d="M154.221,93.574c-2.341,-0.605 -4.681,-0.718 -6.933,-0.302c-1.711,0.302 -3.372,0.907 -4.945,1.839c-0.025,0.076 -0.062,0.151 -0.113,0.227c-0.478,0.693 1.711,1.197 3.75,1.474c-0.139,-0.718 0.012,-1.424 0.39,-2.028c-0.139,-0.378 -0.038,-0.807 0.427,-1.021c0.177,-0.088 0.353,-0.151 0.541,-0.189c1.196,-0.264 2.504,0.353 3.184,1.399c0.339,0.516 0.427,1.184 0.314,1.839c0.68,-0.126 1.346,-0.302 2.001,-0.529c0.994,-0.34 3.837,-2.079 1.384,-2.709" style="fill:#fff;"/><path id="Fill-11" d="M128.101,173.802c0.012,0 0.012,0.012 0.012,0.012l0,0.038c-0.012,-0.012 -0.012,-0.025 -0.012,-0.05m16.318,-11.906c-0.226,-0.113 -0.427,-0.214 -0.616,-0.29c-1.044,-0.453 -2.126,-0.415 -3.146,-0.088c-1.157,0.353 -2.252,1.058 -3.183,1.789c-1.799,1.436 -3.56,2.898 -5.309,4.372c-0.894,0.743 -2.089,1.512 -2.995,2.419c-2.365,-1.247 -4.579,-2.671 -6.693,-4.347c-1.145,-0.919 -2.152,-1.852 -3.297,-2.582c-0.754,-0.492 -1.572,-0.882 -2.529,-1.134c-0.39,-0.101 -0.792,-0.151 -1.195,-0.151c-3.12,0 -6.278,2.859 -8.19,4.888c-0.944,0.995 -1.296,1.99 -1.221,2.923c0.113,1.474 1.258,2.822 2.755,3.905c0.428,0.315 0.856,0.63 1.284,0.958c1.447,8.164 1.793,16.642 2.912,24.857c1.397,10.255 3.064,20.51 4.322,30.74l0,0.08l23.176,0c-0.579,-2.52 0.05,-6.428 0.277,-9.779c0.704,-10.193 1.711,-20.347 3.296,-30.451c0.717,-4.586 1.309,-9.249 2.114,-13.822c1.761,-1.827 3.535,-3.83 4.617,-5.833c0.453,-0.832 0.453,-1.688 0.139,-2.533c-0.881,-2.507 -4.404,-4.863 -6.518,-5.921" style="fill:#fff;"/><path id="Fill-13" d="M107.895,96.888c0.314,0.629 0.44,1.423 0.314,2.154c0.629,-0.126 1.246,-0.29 1.85,-0.491c0.994,-0.353 3.837,-2.079 1.384,-2.722c-2.252,-0.592 -4.517,-0.705 -6.694,-0.34c-1.799,0.29 -3.535,0.92 -5.183,1.877c-0.026,0.076 -0.063,0.151 -0.114,0.227c-0.503,0.731 1.837,1.235 3.926,1.512c-0.239,-1.159 0.138,-2.343 0.918,-3.238c0.139,-0.164 0.302,-0.252 0.466,-0.29c0.264,-0.05 0.528,0.038 0.73,0.202c0.931,-0.177 1.925,0.151 2.403,1.109" style="fill:#fff;"/><path id="Fill-15" d="M79.825,188.492c-0.503,-2.999 -1.51,-6.854 -1.51,-9.941l0,-0.05c1.258,-1.726 1.195,-3.049 2.038,-4.069c-0.05,0 0.063,0 0,0.012c-9.524,0.895 -13.072,11.352 -14.469,20.082c-2.579,-4.661 -5.121,-9.335 -7.7,-14.009c-2.516,-4.548 -4.246,-10.722 -10.26,-9.676c-0.113,0.013 -0.217,0.038 -0.33,0.063c-0.994,0.214 -2.147,0.466 -3.406,0.769c-3.271,0.806 -7.169,1.94 -10.364,3.615c-1.183,0.618 -2.264,1.311 -3.182,2.092c-0.894,0.731 -1.622,1.549 -2.138,2.457c-1.246,2.166 0.692,5.278 1.573,7.181c2.101,4.51 4.227,8.996 6.416,13.456c5.058,10.293 10.695,20.942 17.615,29.761l34.36,0c-1.736,-8.819 -3.623,-17.087 -5.372,-25.616c-1.082,-5.354 -2.39,-10.722 -3.271,-16.127" style="fill:#fff;"/><path id="Fill-17" d="M249.15,147.446c0.226,-0.252 0.427,-0.504 0.603,-0.769c0.994,-1.512 1.083,-3.049 0.302,-4.661c-0.49,-1.008 -1.522,-1.462 -2.617,-1.626c0.189,-1.033 0.038,-2.078 -0.729,-2.809c-0.919,-0.869 -1.888,-1.159 -2.907,-1.109c-0.125,-0.214 -0.289,-0.428 -0.478,-0.63c-2.541,-2.708 -7.234,-1.096 -10.707,0.87c-0.05,-0.038 -0.113,-0.063 -0.176,-0.101c-4.932,-2.558 -11.449,1.801 -15.299,4.8c-2.806,2.192 -4.203,5.48 -5.159,8.794c-1.208,4.145 -0.34,8.68 -2.567,12.46c1.083,0.504 2.227,1.045 3.41,1.65c3.284,1.663 6.782,3.704 9.675,6.085c1.045,0.844 2.001,1.739 2.844,2.671c3.561,-6.614 11.135,-9.046 17.199,-12.951c4.064,-2.608 8.606,-6.967 6.87,-12.183c-0.063,-0.189 -0.151,-0.353 -0.264,-0.491" style="fill:#4e91ff;"/><path id="Fill-19" d="M122.59,130.866c2.391,-5.304 9.814,-5.241 13.437,-1.235c1.233,1.348 0.076,2.318 -1.157,0.97c-2.441,-2.696 -9.537,-2.456 -11.173,1.185c-0.742,1.663 -1.849,0.73 -1.107,-0.92m19.64,-35.528c0.05,-0.076 0.088,-0.151 0.113,-0.227c1.573,-0.932 3.234,-1.537 4.945,-1.839c2.252,-0.416 4.592,-0.303 6.932,0.302c2.454,0.63 -0.39,2.369 -1.383,2.709c-0.655,0.227 -1.322,0.403 -2.001,0.529c-0.126,0.781 -0.566,1.524 -1.233,1.902c-0.365,0.202 -0.742,0.29 -1.107,0.29c-0.956,0 -1.837,-0.63 -2.29,-1.562c-0.101,-0.214 -0.176,-0.428 -0.227,-0.63c-2.038,-0.277 -4.227,-0.781 -3.749,-1.474m9.059,-16.088c0.579,0.138 1.157,0.289 1.749,0.428c0.352,0.101 0.717,0.201 1.069,0.302c2.215,0.454 3.498,2.759 1.309,3.477c-3.712,-0.189 -7.197,-2.973 -11.034,-3.3c-1.12,-0.101 -3.146,0.201 -4.58,0.037c1.019,-2.267 5.41,-1.877 7.373,-1.688c1.384,0.126 2.755,0.441 4.114,0.744m-23.465,27.338c0,0.782 0.579,1.663 1.384,1.815c1.711,0.315 2.441,1.436 2.655,2.784c-3.032,-1.436 -6.606,-1.625 -9.374,0.781c-0.063,0.038 -0.113,0.088 -0.163,0.139c-0.101,-1.663 0.478,-2.785 1.371,-4.158c0.944,-1.461 0.39,-4.586 0.038,-6.891c1.422,-0.152 2.831,-0.29 4.24,-0.429c-0.277,0.026 -0.138,5.38 -0.151,5.959m-24.295,-6.954c-0.063,-0.176 -0.113,-0.353 -0.151,-0.529c-2.089,-0.277 -4.429,-0.781 -3.926,-1.512c0.051,-0.076 0.088,-0.151 0.114,-0.227c1.648,-0.957 3.384,-1.587 5.183,-1.877c2.177,-0.365 4.442,-0.252 6.694,0.34c2.453,0.643 -0.39,2.369 -1.384,2.722c-0.604,0.201 -1.221,0.365 -1.85,0.491c-0.113,0.756 -0.491,1.449 -1.183,1.852c-0.415,0.252 -0.855,0.365 -1.283,0.365c-0.956,0 -1.837,-0.592 -2.214,-1.625m-4.718,-17.6c2.176,-1.474 5.171,-1.991 7.75,-2.369c0.025,0 0.063,0 0.088,-0.012c1.371,-0.089 2.718,-0.529 4.102,-0.492c1.421,0.026 2.843,0.252 4.202,0.655c1.522,0.454 -0.214,0.857 -0.893,0.87c-0.994,0.05 -1.976,0.151 -2.957,0.29c-3.171,0.39 -6.278,1.272 -9.172,2.645c-0.453,0.214 -4.693,3.213 -5.02,2.268c-0.554,-1.55 0.78,-3.099 1.9,-3.855m72.936,-1.109c-0.378,-0.113 -0.755,-0.176 -1.12,-0.176c-0.327,0.642 -0.679,1.285 -1.057,1.915c-0.063,0.113 -0.138,0.214 -0.201,0.327c-0.68,1.084 -2.227,1.122 -3.032,0.34c-0.315,-0.302 -0.516,-0.743 -0.491,-1.297c0.579,-10.848 -12.305,-10.079 -20.005,-11.226c-7.297,-1.07 -16.167,-3.855 -23.477,-2.015c-6.203,1.549 -11.601,2.897 -17.955,3.527c-9.536,0.97 -14.77,9.815 -16.029,18.482l0,0.013c0,0.932 -0.792,1.751 -1.547,2.255c-0.667,0.441 -1.302,0.643 -1.793,0.479c-0.164,-0.365 -0.434,-0.743 -0.434,-1.121l0,-0.013c0,-0.202 -0.308,-0.403 -0.396,-0.605c-0.378,-0.768 -0.809,-1.575 -1.173,-2.444c-0.101,-0.227 -0.216,-0.453 -0.305,-0.68c-1.962,0.907 -3.648,3.049 -3.761,5.291c-0.214,4.41 3.628,11.83 8.875,10.457c0.314,2.419 0.651,4.838 0.991,7.257c1.283,9.046 3.332,17.6 8.201,25.424c3.774,6.072 8.895,12.183 15.161,15.723c1.044,0.592 2.188,1.083 3.421,1.486c1.195,0.404 2.466,0.719 3.774,0.971c-0.025,2.633 -0.1,5.253 -0.214,7.874c1.145,0.73 2.152,1.663 3.297,2.582c2.114,1.676 4.328,3.1 6.693,4.347c0.906,-0.907 2.101,-1.676 2.995,-2.419c1.749,-1.474 3.51,-2.936 5.309,-4.372c0.931,-0.731 2.026,-1.436 3.183,-1.789c0.088,-2.28 0.202,-4.56 0.365,-6.828c1.359,-0.492 2.655,-1.109 3.875,-1.84c9.525,-5.707 15.023,-18.28 18.433,-28.082c2.327,-6.727 2.919,-13.707 3.787,-20.712c0.138,-1.159 0.289,-2.318 0.428,-3.464c1.446,0.503 3.107,0.314 4.718,-0.441c4.114,-1.953 3.611,-7.963 3.623,-11.604c0.025,-3.351 -0.654,-6.576 -4.139,-7.622" style="fill:#4e91ff;"/><path id="Fill-21" d="M24.528,142.91c-0.063,0.025 -0.126,0.063 -0.176,0.101c-3.473,-1.965 -8.166,-3.578 -10.707,-0.869c-0.189,0.189 -0.327,0.39 -0.44,0.592c-0.919,-0.088 -1.825,0.088 -2.554,0.781c-0.994,0.932 -1.259,2.041 -1.083,3.175c-0.855,0.163 -1.648,0.541 -2.365,1.247c-1.371,1.335 -0.918,3.628 0.013,5.039c0.176,0.265 0.377,0.517 0.604,0.756c-0.114,0.151 -0.202,0.315 -0.265,0.504c-1.786,5.367 2.907,9.374 6.87,12.183c5.171,3.679 12.695,5.455 16.218,10.961c0.918,-0.781 2,-1.474 3.183,-2.092c3.196,-1.675 7.096,-2.809 10.367,-3.615c1.259,-0.303 2.416,-0.555 3.41,-0.769c0.113,-0.025 0.226,-0.05 0.34,-0.063c-3.41,-6.664 -0.843,-15.609 -6.467,-21.48c-3.762,-3.956 -11.387,-9.16 -16.948,-6.451" style="fill:#4e91ff;"/><path id="Fill-26" d="M154.108,79.98c-0.353,-0.101 -0.718,-0.201 -1.07,-0.302c-0.591,-0.139 -1.17,-0.29 -1.749,-0.428c-1.359,-0.303 -2.73,-0.618 -4.114,-0.744c-1.963,-0.189 -6.354,-0.579 -7.373,1.688c1.434,0.164 3.46,-0.138 4.58,-0.037c3.837,0.327 7.322,3.111 11.034,3.3c2.189,-0.718 0.906,-3.023 -1.308,-3.477" style="fill:#4d4d4d;"/><path id="Fill-28" d="M147.338,93.574c-0.188,0.038 -0.364,0.101 -0.541,0.189c-0.465,0.214 -0.566,0.643 -0.427,1.021c-0.378,0.604 -0.529,1.31 -0.39,2.028c0.05,0.202 0.125,0.416 0.226,0.63c0.453,0.932 1.334,1.562 2.29,1.562c0.365,0 0.742,-0.088 1.107,-0.29c0.667,-0.378 1.107,-1.121 1.233,-1.902c0.113,-0.655 0.025,-1.323 -0.314,-1.839c-0.68,-1.046 -1.988,-1.663 -3.184,-1.399" style="fill:#4d4d4d;"/><path id="Fill-30" d="M122.59,130.866c-0.742,1.65 0.365,2.583 1.107,0.92c1.636,-3.641 8.732,-3.881 11.173,-1.185c1.233,1.348 2.39,0.378 1.157,-0.97c-3.623,-4.006 -11.046,-4.069 -13.437,1.235" style="fill:#4d4d4d;"/><path id="Fill-32" d="M131.863,111.187c-0.214,-1.348 -0.944,-2.469 -2.655,-2.784c-0.805,-0.152 -1.384,-1.033 -1.384,-1.815c0.013,-0.579 -0.126,-5.933 0.151,-5.959c-1.409,0.139 -2.818,0.277 -4.24,0.429c0.352,2.305 0.906,5.43 -0.038,6.891c-0.893,1.373 -1.472,2.495 -1.371,4.158c0.05,-0.051 0.1,-0.101 0.163,-0.139c2.768,-2.406 6.342,-2.217 9.374,-0.781" style="fill:#4d4d4d;"/><path id="Fill-34" d="M128.101,173.802c0,0.025 0,0.038 0.012,0.05l0,-0.038c0,0 0,-0.012 -0.012,-0.012" style="fill:#4d4d4d;"/><path id="Fill-36" d="M117.608,230.231c0.025,0.075 0.05,0.151 0.05,0.239c0,-0.075 -0.012,-0.151 -0.025,-0.239l-0.025,0Z" style="fill:#4d4d4d;"/><path id="Fill-38" d="M114.953,79.816c-1.359,-0.403 -2.78,-0.629 -4.202,-0.655c-1.384,-0.037 -2.73,0.403 -4.102,0.492c-0.025,0.012 -0.063,0.012 -0.088,0.012c-2.579,0.378 -5.574,0.895 -7.75,2.369c-1.12,0.756 -2.454,2.305 -1.9,3.855c0.327,0.945 4.567,-2.054 5.02,-2.268c2.894,-1.373 6.001,-2.255 9.172,-2.645c0.981,-0.139 1.963,-0.24 2.957,-0.29c0.679,-0.013 2.415,-0.416 0.893,-0.87" style="fill:#4d4d4d;"/><path id="Fill-40" d="M113.921,230.659c-0.012,-0.151 -0.012,-0.302 0.013,-0.428l-0.076,0c0.013,0.138 0.038,0.29 0.063,0.428" style="fill:#4d4d4d;"/><path id="Fill-42" d="M105.492,95.779c-0.202,-0.164 -0.466,-0.252 -0.73,-0.202c-0.164,0.038 -0.327,0.126 -0.466,0.29c-0.78,0.895 -1.157,2.079 -0.918,3.238c0.038,0.176 0.088,0.353 0.151,0.529c0.377,1.033 1.258,1.625 2.214,1.625c0.428,0 0.868,-0.113 1.284,-0.365c0.692,-0.403 1.069,-1.096 1.182,-1.852c0.126,-0.731 0,-1.525 -0.314,-2.154c-0.478,-0.958 -1.472,-1.286 -2.403,-1.109" style="fill:#4d4d4d;"/><path id="Fill-44" d="M129.263,174.843c-0.05,0.003 -0.105,0.016 -0.161,0.04c-0.414,0.178 -5.204,7.837 -4.303,7.949c0.566,0.001 2.777,-2.81 4.271,-4.403c0.121,-0.128 0.314,-0.138 0.453,-0.032l2.042,1.546c0.685,0.519 1.986,1.634 2.142,1.555c0.178,-0.196 -3.836,-6.69 -4.444,-6.655" style="fill:#4d4d4d;"/><path id="Fill-46" d="M134.716,156.009c-1.682,0.43 -3.709,0.655 -5.675,0.859c-1.45,0.153 -2.95,-0.055 -4.407,-0.243c-0.585,-0.075 -1.15,-0.185 -1.707,-0.383c-0.267,-0.096 -0.584,-0.281 -0.865,-0.157c-0.47,0.206 -0.396,0.907 -0.37,1.348c0.026,0.457 0.017,0.928 0.001,1.386c-0.033,0.879 0.017,1.61 0.903,1.983c0.521,0.219 3.328,0.016 3.875,-0.11c2.874,-0.658 3.228,-0.803 5.775,-2.054c1.481,-0.727 4.203,-2.715 4.149,-3.056c-0.204,-0.343 -1.027,0.261 -1.679,0.427" style="fill:#4d4d4d;"/><path id="Fill-48" d="M168.864,86.438c-0.14,-0.01 -0.229,0.361 -0.282,0.94c-0.163,1.777 -0.127,3.565 -0.063,5.346c0.024,0.652 -0.421,4.438 0.146,4.732c1.404,0.731 3.519,-5.761 2.244,-9.092c-0.345,-0.902 -1.002,-1.841 -2.045,-1.926" style="fill:#4d4d4d;"/><path id="Fill-50" d="M85.333,94.323c-0.105,-0.454 -0.216,-0.74 -0.326,-0.717c-0.82,0.183 -1.239,0.999 -1.415,1.754c-0.652,2.785 1.734,7.714 2.769,6.981c0.42,-0.298 -0.346,-3.257 -0.397,-3.776c-0.143,-1.424 -0.307,-2.847 -0.631,-4.242" style="fill:#4d4d4d;"/><path id="Fill-52" d="M187.456,190.578c-0.528,-0.147 -1.145,0.604 -1.434,0.931c-1.627,1.842 -2.7,4.299 -3.495,6.597c-0.468,1.405 -0.965,2.801 -1.49,4.186c-0.333,0.882 -0.39,1.666 -0.757,2.535c-0.313,0.739 -0.616,2.142 0.576,1.944c0.391,-0.065 0.607,-0.591 0.844,-0.854c0.645,-0.718 1.205,-1.51 1.71,-2.332c1.016,-1.654 1.815,-3.438 2.505,-5.25c0.626,-1.648 0.979,-3.386 1.443,-5.088c0.088,-0.325 0.181,-0.65 0.281,-0.972c0.134,-0.437 0.489,-1.51 -0.183,-1.697" style="fill:#4d4d4d;"/><path id="Fill-54" d="M75.17,206.438c-0.758,-3.281 -2.789,-6.218 -5.771,-7.832c-0.183,-0.098 -0.382,-0.195 -0.59,-0.177c-0.911,0.082 0.273,1.819 0.476,2.201c1.161,2.208 1.921,4.65 3.463,6.64c0.399,0.514 0.799,1.027 1.198,1.54c0.28,0.358 0.632,1.069 0.994,1.324c0.737,0.518 0.561,-1.422 0.536,-1.716c-0.058,-0.661 -0.156,-1.333 -0.306,-1.98" style="fill:#4d4d4d;"/><path id="Fill-56" d="M226.094,145.639c-0.609,1.137 -0.815,2.286 -0.974,3.553c-0.209,1.664 0.206,2.846 -0.687,4.383c-0.842,1.452 -3.885,3.495 -3.503,3.612c-0.076,0.267 2.994,-1.177 3.956,-2.376c0.961,-1.199 1.517,-2.183 1.746,-3.704c0.258,-1.699 -0.722,-4.739 2.241,-8.121c-0.887,-0.081 -2.191,1.555 -2.779,2.653" style="fill:#4d4d4d;"/><path id="Fill-58" d="M31.02,155.48c0.003,-1.277 -0.056,-2.442 -0.515,-3.648c-0.443,-1.164 -1.53,-2.953 -2.42,-2.986c2.509,3.732 1.151,6.623 1.192,8.34c0.034,1.539 0.46,2.586 1.262,3.898c0.802,1.312 3.663,3.135 3.622,2.859c0.394,-0.067 -2.366,-2.482 -3.017,-4.027c-0.69,-1.639 -0.127,-2.759 -0.124,-4.436" style="fill:#4d4d4d;"/><path id="Fill-60" d="M258.449,144.601c-0.131,-1.018 -0.802,-1.876 -1.921,-1.855c-0.944,0.017 -0.612,0.943 -0.48,1.961c0.16,1.245 0.268,2.366 -0.084,3.624c-0.296,1.053 -0.817,1.613 -2.06,2.538c-0.763,0.57 2.041,0.759 2.68,-0.048c1.403,-1.776 2.169,-3.932 1.865,-6.22" style="fill:#4d4d4d;"/><path id="Fill-62" d="M260.798,146.993c-0.692,-0.178 -0.635,0.564 -0.743,1.332c-0.133,0.94 -0.279,1.781 -0.788,2.626c-0.427,0.708 -0.919,1.013 -2.011,1.438c-0.67,0.262 1.337,0.962 1.964,0.503c1.379,-1.014 2.371,-2.431 2.606,-4.161c0.109,-0.768 -0.208,-1.528 -1.028,-1.738" style="fill:#4d4d4d;"/><path id="Fill-64" d="M9.522,167.953c-1.531,-0.232 -2.254,-0.482 -3.01,-1.27c-0.902,-0.944 -1.333,-1.985 -1.776,-3.159c-0.363,-0.96 -0.506,-1.934 -1.347,-1.504c-0.996,0.51 -1.185,1.582 -0.822,2.542c0.806,2.162 2.496,3.704 4.568,4.61c0.942,0.41 3.328,-1.077 2.387,-1.219" style="fill:#4d4d4d;"/><path id="Fill-66" d="M7.278,170.872c-1.163,0.139 -1.74,0.102 -2.449,-0.321c-0.848,-0.506 -1.371,-1.179 -1.928,-1.945c-0.458,-0.628 -0.757,-1.309 -1.284,-0.827c-0.624,0.572 -0.547,1.392 -0.09,2.02c1.021,1.415 2.563,2.198 4.255,2.443c0.77,0.108 2.21,-1.455 1.496,-1.37" style="fill:#4d4d4d;"/><path id="Fill-69" d="M129.123,130.467c0.723,-0.032 1.438,0.107 2.137,0.274c0.554,0.134 1.503,0.586 2.041,0.5c0.723,-0.114 -1.161,-1.034 -1.32,-1.094c-0.728,-0.276 -1.518,-0.47 -2.275,-0.531c-2.613,-0.21 -4.918,1.562 -4.509,1.891c0.6,0.075 1.3,-0.302 1.846,-0.5c0.689,-0.251 1.337,-0.509 2.08,-0.54" style="fill:#4d4d4d;"/></g></svg>