<?xml version="1.0" encoding="utf-8"?>
<!-- Generator: Adobe Illustrator 18.0.0, SVG Export Plug-In . SVG Version: 6.00 Build 0)  -->
<!DOCTYPE svg PUBLIC "-//W3C//DTD SVG 1.1//EN" "http://www.w3.org/Graphics/SVG/1.1/DTD/svg11.dtd">
<svg version="1.1" id="advise-transparent" xmlns="http://www.w3.org/2000/svg" xmlns:xlink="http://www.w3.org/1999/xlink" x="0px"
	 y="0px" viewBox="0 0 147 131" enable-background="new 0 0 147 131" xml:space="preserve">
<title>B4FDE736-514C-4EDD-97E7-C2F830BAFBE7</title>
<desc>Created with sketchtool.</desc>
<g id="advise-transparent_1_" opacity="0.1">
	<g id="TNR" transform="translate(-672.000000, -4460.000000)">
		<g id="Page-1" transform="translate(672.000000, 4460.000000)">
			<g id="Group-3" transform="translate(1.000000, 23.416876)">
				<path id="Fill-1" d="M80.7,31.3c-0.4,0.3-0.9,0.5-1.4,0.6c-2.8,0.6-4.8-1.2-5-3.9c-0.3-3.4,2.8-6.7,6.6-4.5
					C84.5,25.5,83.4,29.5,80.7,31.3 M60.8,29.6c-1.5,2.4-5.9,0.3-5-2.9c1.9-6.8,7.3-12.3,14.1-14.4c3.3-1,5.6,3.5,3,5
					C67.7,20.2,64,24.6,60.8,29.6 M58.6,107.2c18.1,0.4,36.2-7,44-24.6c4.4-10-9-5.4-13.7-7.5c-6.7-3-7.4-10.8-0.7-14.3
					c3.3-1.7,7.2-2,11-1.9c2.2,0.1,4.4,0.3,6.3,1.4c3.5,2.1-0.3-10-0.7-11.8c-0.9-3.6-1.7-7.5-0.1-10.8c0.8-1.6,2.1-3,2.7-4.7
					c2.3-6.6-5.6-2.2-7.4-3.8c-2.2-2-1.6-6.4-2.6-9c-3.1-8.1-9.2-15-16.6-19.5C78-0.9,13.5,29.1,2,34.7c-3.2,14.1-0.7,29.9,7.3,43.6
					c6.3,10.8,15.7,19.8,27.5,24.5C43.5,105.5,51.1,107,58.6,107.2"/>
			</g>
			<g id="Group-6" transform="translate(0.000000, 0.053240)">
				<g id="Clip-5">
				</g>
				<path id="Fill-4" d="M89.7,8C84,9,77.2,10.3,70,11.3C42.6-15.5-7.5,11.1,1,47.2C1,47.5,1.2,47.7,1.3,48c0.1,0.3,0.3,0.6,0.4,0.9
					c0.1,0.2,0.2,0.3,0.4,0.5c1.3,1.7,1.5,1.5,4.5,0.2c8-3.3,50.5-22.6,64.2-28.4c8-3.9,16-7.7,24.2-11.3C102.2,6.8,97.4,6.6,89.7,8
					"/>
			</g>
			<path id="Fill-7" d="M124.6,86.7c5-1.8,10.1-3.5,15.1-5.3c6.1-2.2,4.9-7.7-2.7-7.3c-5.3,0.3-10.3,3.3-14.7,6.4
				C117.6,83.9,118.4,88.8,124.6,86.7"/>
			<path id="Fill-9" d="M125.9,96.2c3.5,0,7,0.3,10.5-0.1c1.4-0.2,4.3-0.6,3.8-2.7c-1-3.6-9.1-2.5-11.6-1.8c-1,0.3-9.7,2.8-5.9,4.4
				c0.6,0.2,1.2,0.2,1.8,0.2C124.9,96.2,125.4,96.2,125.9,96.2"/>
			<g id="Group-13" transform="translate(119.688525, 103.816876)">
				<g id="Clip-12">
				</g>
				<defs>
					<filter id="Adobe_OpacityMaskFilter" filterUnits="userSpaceOnUse" x="0.3" y="0.1" width="27" height="12.9">
						<feColorMatrix  type="matrix" values="1 0 0 0 0  0 1 0 0 0  0 0 1 0 0  0 0 0 1 0"/>
					</filter>
				</defs>
				<mask maskUnits="userSpaceOnUse" x="0.3" y="0.1" width="27" height="12.9" id="mask-4">
					<g filter="url(#Adobe_OpacityMaskFilter)">
						<polygon id="path-3" fill="#FFFFFF" points="27.3,13 27.3,0.1 0.3,0.1 0.3,13 						"/>
					</g>
				</mask>
				<path id="Fill-11" mask="url(#mask-4)" d="M2.9,5.1C9.1,7.8,13.7,9.3,19.9,12c5.9,2.6,10.1-0.3,5.4-5.2C20.5,2,15.1,0.2,8.3,0.1
					C2.1,0-3,2.5,2.9,5.1"/>
			</g>
		</g>
	</g>
</g>
</svg>
