<?xml version="1.0" encoding="utf-8"?>
<!-- Generator: Adobe Illustrator 18.0.0, SVG Export Plug-In . SVG Version: 6.00 Build 0)  -->
<!DOCTYPE svg PUBLIC "-//W3C//DTD SVG 1.1//EN" "http://www.w3.org/Graphics/SVG/1.1/DTD/svg11.dtd">
<svg version="1.1" id="check-transparent" xmlns="http://www.w3.org/2000/svg" xmlns:xlink="http://www.w3.org/1999/xlink" x="0px"
	 y="0px" viewBox="0 0 125 144" enable-background="new 0 0 125 144" xml:space="preserve">
<title>10403C5F-0700-43AC-AF70-C104D9825073</title>
<desc>Created with sketchtool.</desc>
<g id="check-transparent_1_" opacity="0.1">
	<g id="TNR" transform="translate(-455.000000, -4459.000000)">
		<g id="Page-1" transform="translate(455.000000, 4459.000000)">
			<g id="Group-3" transform="translate(18.497965, 8.424472)">
				<g id="Clip-2">
				</g>
				<defs>
					<filter id="Adobe_OpacityMaskFilter" filterUnits="userSpaceOnUse" x="0.8" y="0.3" width="104.9" height="134.9">
						<feColorMatrix  type="matrix" values="1 0 0 0 0  0 1 0 0 0  0 0 1 0 0  0 0 0 1 0"/>
					</filter>
				</defs>
				<mask maskUnits="userSpaceOnUse" x="0.8" y="0.3" width="104.9" height="134.9" id="mask-2">
					<g filter="url(#Adobe_OpacityMaskFilter)">
						<polygon id="path-1" fill="#FFFFFF" points="105.7,135.2 105.7,0.3 0.8,0.3 0.8,135.2 						"/>
					</g>
				</mask>
				<path id="Fill-1" mask="url(#mask-2)" d="M97.3,115.2c-31,4.5-66.5,9.9-96.5,12.3c0,3.1,0.8,4.9,0.2,7.8
					c40.7-4.6,64.9-8.4,104.7-12.1C102.9,79.5,96.1,9.4,94.6,0.9c-0.3-1.4-0.6-0.3-7.8,0.5C88.2,21.9,95.2,95.5,97.3,115.2"/>
			</g>
			<path id="Fill-4" d="M87.2,105.3c-18.9,1.6-34,4.2-53,7.7c-6.5,1.2-8.6-4.1-2.1-5.3c19.9-3.7,40-6.2,60.1-8.8
				C98.8,98,96.9,104.4,87.2,105.3 M85.5,87.4c-18.9,1.6-34,4.2-53,7.7c-6.5,1.2-8.6-4.1-2.1-5.3c19.9-3.7,40-6.2,60.1-8.8
				C97.1,80.1,95.2,86.6,85.5,87.4 M28.1,71.5c19.9-3.7,40-6.2,60.1-8.8c6.6-0.9,5.5,5-1,5.8c-19.2,2.5-38.7,3.9-57.7,7.4
				C23,77.2,21.6,72.7,28.1,71.5 M25.4,51c19.9-3.7,39.1-4.5,59.1-7.2c6.6-0.9,7.5,4.5,1,5.3c-19.2,2.5-39.1,3.4-58.1,7
				C21,57.4,18.9,52.2,25.4,51 M24.4,34c19.9-3.7,39.4-5.7,59.4-8.3c6.6-0.9,5.5,3.6-1,4.5c-19.2,2.5-38.4,4.9-57.3,8.5
				C18.9,39.8,17.8,35.2,24.4,34 M100.7,0.3C100.3-1.5,32,5.3,0,11c2.6,33.3,6.9,82.3,9.5,122.5c33.4-2.6,101.9-13.2,101.9-13.2
				S101.3,3.4,100.7,0.3"/>
		</g>
	</g>
</g>
</svg>
