<?xml version="1.0" encoding="UTF-8" standalone="no"?><!DOCTYPE svg PUBLIC "-//W3C//DTD SVG 1.1//EN" "http://www.w3.org/Graphics/SVG/1.1/DTD/svg11.dtd"><svg width="100%" height="100%" viewBox="0 0 1439 1114" version="1.1" xmlns="http://www.w3.org/2000/svg" xmlns:xlink="http://www.w3.org/1999/xlink" xml:space="preserve" style="fill-rule:evenodd;clip-rule:evenodd;stroke-linejoin:round;stroke-miterlimit:1.41421;"><g id="Layer_1"><path d="M1432.43,426.424l-64.832,-2.382c-24.465,-0.901 -49.316,-1.854 -72.751,-9.013c-14.254,-4.391 -27.864,-11.061 -42.491,-13.675c-21.31,-3.785 -43.084,1.288 -64.137,6.245c-26.125,6.207 -52.264,13.726 -78.853,17.512c-10.031,1.429 -19.585,4.056 -29.526,5.768c-14.511,2.511 -29.615,-1.455 -43.882,2.28c-1.327,0.177 -2.509,0.932 -3.232,2.06c-1.287,2.691 2.691,4.687 5.627,5.073c62.798,8.37 125.633,6.657 189.281,9.142c68.81,2.678 139.359,0.953 204.796,-23.01l0,0Z" style="fill:#34539e;fill-rule:nonzero;"/><path d="M406.739,665.444c28.423,2.996 52.867,20.826 79.923,30.019c24.651,8.374 51.095,9.434 77.113,10.418l94.014,3.564c11.511,0.437 23.099,0.885 34.359,3.334c11.544,2.515 22.519,7.095 33.888,10.342c26.652,7.652 54.78,7.739 82.492,7.805l146.3,0.361c-60.868,29.516 -132.351,19.371 -199.932,16.19c-27.329,-1.29 -54.757,-1.312 -82.141,-1.334l-153.123,-0.142c-21.229,0 -42.513,0 -63.579,2.58c-19.524,2.427 -38.699,7.084 -58.125,10.145c-42.492,6.701 -85.771,5.608 -128.766,4.515c-59.95,-1.52 -118.829,-10.856 -178.79,-14.212c-13.402,-0.754 -26.979,-1.257 -39.835,-5.116c33.309,0.437 63.863,-11.631 96.2,-13.337c31.538,-1.672 66.618,-9.62 96.561,-19.535c22.563,-7.466 45.345,-14.211 67.897,-21.721c30.872,-10.255 61.984,-27.418 95.544,-23.876l0,0Z" style="fill:#34539e;fill-rule:nonzero;"/><path d="M111.595,309.612c16.017,-4.903 31.667,-10.938 46.828,-18.059c16.102,-7.529 33.437,-16.601 50.762,-12.555c14.738,3.444 25.843,15.707 39.968,21.156c10.409,4.009 21.843,4.094 32.939,4.893c26.108,1.887 51.742,7.98 75.908,18.041c-18.897,3.426 -38.133,6.87 -57.209,4.593c-10.145,-1.205 -20.017,-4.009 -30.001,-6.145c-40.411,-8.63 -82.327,-6.259 -123.406,-1.77c-22.511,2.457 -46.856,5.176 -66.384,-6.286c17.943,-0.604 35.624,-4.505 52.155,-11.51" style="fill:#34539e;fill-rule:nonzero;"/><path d="M800.589,147.91c12.661,1.767 25.569,0.165 38.312,1.236c18.584,1.564 36.988,7.277 55.099,11.47c-5.106,-1.183 -13.941,1.67 -19.369,1.932c-7.091,0.344 -14.226,0.307 -21.302,0.209c-14.787,-0.202 -29.612,-0.943 -44.391,0.075c-26.602,1.835 -54.238,2.554 -81.065,1.73c-13.432,-0.39 -36.32,1.063 -47.873,-6.379c11.231,-6.828 29.702,-5.166 42.423,-9.389c12.338,-4.096 22.768,-10.482 36.283,-9.734c14.353,0.659 27.748,6.874 41.883,8.85l0,0Z" style="fill:#34539e;fill-rule:nonzero;"/><path d="M1170.14,964.281c84.884,1.139 170.094,2.238 254.267,-8.564c-85.21,-6.428 -171.518,-13.079 -252.233,-41.028c-22.945,-7.954 -45.442,-17.616 -69.16,-22.376c-63.974,-12.876 -129.92,10.537 -195.013,5.981c-64.298,-4.496 -126.828,-36.167 -190.557,-26.444c-43.185,6.591 -75.527,34.479 -115.946,47.233c-39.34,12.449 -81.365,20.829 -121.274,33.807c115.782,13.873 234.169,-2.034 350.603,-3.153c113.341,-1.017 225.809,13.018 339.313,14.544l0,0Z" style="fill:#34539e;fill-rule:nonzero;"/><path d="M350.262,524.278c64.336,-2.543 129.174,-0.657 193.579,-0.969c25.956,-0.138 54.525,-1.211 73.767,-18.653c-36.041,2.465 -72.229,1.777 -108.15,-2.06c-7.285,-0.778 -14.743,-1.73 -21.232,-5.191c-7.129,-3.755 -12.459,-10.14 -18.757,-15.193c-21.596,-17.303 -52.397,-17.303 -79.46,-11.524c-27.063,5.78 -53.227,16.681 -80.861,18.394c-14.034,0.865 -28.188,-0.657 -42.153,1.108c-16.992,2.163 -30.247,10.382 -45.924,15.885c-17.737,6.16 -35.162,8.652 -51.912,18.03c7.7,-4.308 32.877,1.09 42.083,1.263c16.837,0.312 33.691,0.485 50.528,0.26c29.312,-0.311 58.954,-0.173 88.492,-1.35Z" style="fill:#34539e;fill-rule:nonzero;"/><path d="M618.055,487.199c32.993,-0.614 65.731,-8.758 98.798,-8.203c29.364,0.495 58.322,7.829 87.686,7.934c7.393,0 16.616,-1.77 18.521,-8.923c-32.858,-2.25 -61.637,-24.265 -94.374,-27.954c-35.992,-4.064 -75.149,14.067 -107.271,-2.7c-5.099,-2.654 -9.913,-6.178 -15.567,-7.198c-8.143,-1.5 -16.151,2.549 -23.62,6.104c-27.219,13.002 -55.487,19.855 -84.791,25.884c17.081,18.461 95.079,15.536 120.618,15.056l0,0Z" style="fill:#34539e;fill-rule:nonzero;"/><path d="M241.781,1010.85c34.507,1.976 68.972,5.491 103.541,5.928c29.678,0.372 59.343,-1.533 88.731,-5.699c-9.631,16.639 -28.413,26.082 -47.278,29.306c-18.865,3.224 -38.209,1.04 -57.282,-0.707c-76.392,-6.949 -153.28,-6.496 -229.585,1.352c-25.605,2.642 -54.62,5.117 -73.964,-11.876c66.247,-27.352 144.703,-22.318 215.837,-18.304l0,0Z" style="fill:#34539e;fill-rule:nonzero;"/><path d="M512.541,763.657c11.626,-3.057 23.212,-6.822 35.192,-7.758c11.981,-0.936 24.773,1.248 34.07,8.902c2.579,2.08 5.013,4.722 8.32,5.471c4.16,0.956 9.027,-1.103 12.251,1.58c-9.526,9.568 -24.149,11.336 -37.606,12.48c-57.818,4.62 -115.849,6.009 -173.822,4.16c-10.524,-0.333 -16.473,-6.053 -8.32,-14.227c6.885,-6.947 25.563,-1.061 33.779,-0.624c32.368,1.675 64.801,-1.695 96.136,-9.984l0,0Z" style="fill:#34539e;fill-rule:nonzero;"/><path d="M1183.32,974.3c40.859,2.062 82.028,6.061 120.99,18.554c-78.345,7.498 -157.136,9.213 -235.733,5.133c-34.819,-1.814 -70.895,-2.185 -105.343,-6.659c14.307,-27.727 59.083,-21.274 84.377,-20.615c45.127,1.278 90.356,1.258 135.709,3.587l0,0Z" style="fill:#34539e;fill-rule:nonzero;"/><path d="M1207.83,61.7c21.314,-0.153 36.787,-7.372 57.067,-10.685c23.427,-3.727 47.223,-4.556 70.854,-2.471c29.682,2.509 61.28,9.154 88.09,-4.002l-70.549,-13.233c-5.364,-0.708 -10.578,-2.286 -15.434,-4.672c-9.863,-5.534 -16.45,-16.22 -27.27,-20.433c-12.524,-4.883 -28.725,-2.394 -40.923,2.183c-21.831,8.177 -42.283,22.788 -65.569,22.501c-11.375,-0.134 -22.827,-3.83 -33.972,-1.608c-10.188,2.125 -20.28,8.502 -29.951,12.064c-12.983,4.787 -25.718,10.398 -38.491,15.779c5.305,-2.24 19.054,1.418 25.163,1.437c9.115,0 18.326,-1.494 27.403,-1.283c17.886,0.421 35.581,4.557 53.582,4.423l0,0Z" style="fill:#34539e;fill-rule:nonzero;"/><path d="M264.428,1060.71c33.487,9.105 69.019,3.345 103.647,6.398c19.538,1.725 38.863,6.291 58.48,5.959c18.789,-0.345 37.226,-5.179 53.768,-14.095c-36.672,-2.854 -73.412,-6.637 -110.164,-8.561c-16.746,-0.814 -33.528,-0.45 -50.224,1.088c-15.675,1.394 -40.655,11.693 -55.507,9.211Z" style="fill:#34539e;fill-rule:nonzero;"/><path d="M893.94,620.725c26.965,-0.179 54.078,-0.538 80.578,-5.785c19.555,-3.871 38.756,-10.414 58.608,-11.551c23.603,-1.337 46.928,5.027 70.382,8.319c62.416,8.778 125.5,-4.19 187.284,-17.117l-162.733,-19.592c-24.959,-3.012 -51.329,-6.603 -71.107,-23.222c-7.855,-6.583 -14.392,-15.042 -23.064,-20.329c-17.159,-10.434 -38.46,-6.284 -57.699,-1.696c-57.68,13.766 -115.137,28.948 -172.241,45.088c-30.53,8.604 -60.986,17.496 -91.367,26.673c-15.172,4.569 -35.934,6.983 -48.525,17.277c20.428,10.733 56.659,3.052 79.092,2.534c50.252,-1.177 100.522,-0.24 150.792,-0.599Z" style="fill:#34539e;fill-rule:nonzero;"/></g></svg>