<svg id="圖層_1" data-name="圖層 1" xmlns="http://www.w3.org/2000/svg" viewBox="0 0 612 792"><defs><style>.cls-1{fill-opacity:0.1;}.cls-2{fill:#fff000;}.cls-3{fill:#4e91ff;}.cls-4{fill:#4d4d4d;}.cls-5{fill:#e6e6e6;}.cls-6{fill:#fff;}</style></defs><title>cold</title><g id="Fill-1"><path class="cls-1" d="M458.57,557.17c11.64-5.6,23.06-13.15,29.52-24.57,6.25-11.21,6.25-26.94-2.8-36.2-6.25-6.25-15.08-8.4-23.7-10.34-59.69-14-120.46-25.43-181.88-27.37-46.33-1.51-93.09,2.15-138.13,14-18.75,5-40.51,7.33-49.56,25.86-11.85,24.57-7.76,45.9,12.93,61,23.92,17.45,47,31.25,78,30.17,20.26-.65,39.65-7.33,59.69-11C314.19,565.58,392.84,588.64,458.57,557.17Z"/></g><g id="p2-dog"><path id="Fill-4" class="cls-2" d="M261.39,485.41c13.36-7.33,27.8-13.15,40.94-20.9s25.64-17.67,32.75-31.25c5.82-11,7.33-24.78,3-36.2a304.25,304.25,0,0,0-36.85-8.4c-30.6-4.74-59.91-1.72-88.14,11.64a242.37,242.37,0,0,0-42.88,26.07c-15.52,11.64-30.82,30.17-31,50.43-.22,13.79,7.54,26.51,18.1,35.34s23.7,13.79,36.85,17.67l12.5,1.08a195.22,195.22,0,0,1,54.74-45.47"/><path id="Fill-6" class="cls-3" d="M268.72,485.41c13.36-7.33,27.8-13.15,40.94-20.9s25.64-17.67,32.75-31.25c5.82-11,7.33-24.78,3-36.2a304.26,304.26,0,0,0-36.85-8.4c-30.6-4.74-59.91-1.72-88.14,11.64a242.37,242.37,0,0,0-42.88,26.07c-15.52,11.64-30.82,30.17-31,50.43-.22,13.79,7.54,26.51,18.1,35.34s23.7,13.79,36.85,17.67l12.5,1.08a195.22,195.22,0,0,1,54.74-45.47"/><path id="Fill-8" class="cls-4" d="M461.8,473.13c-.65-2.15-1.51-4.31-2.15-6.25-1.94-5.82-4.31-10.77-8.84-14.87-11.42-10.56-23.92-21.33-37.5-28.88-13.58-7.76-28.45-12.93-43.31-18.1-8-2.8-16.16-5.39-24.35-7.76,4.31,11.42,2.8,25.21-3,36.2C335.52,447.06,323,457,309.88,464.73s-27.58,13.36-40.94,20.9a187.89,187.89,0,0,0-54.52,45.47l62.71,5.17a99.86,99.86,0,0,0,39-6.68c20.47-8,39.87-14.22,61.85-16.38,13.36-1.29,26.29,1.29,39.65,1.72a61,61,0,0,1-13.79,10.77c-4.31,2.59-9.27,3.88-13.79,6a25.27,25.27,0,0,0-6.46,4.09c-1.08.86-3.88,2.37-4.09,3.88-.22,1.08,1.51,3.88,1.94,5,.86,3.45,1.08,7.33,3.45,10.13a10.85,10.85,0,0,0,8.62,3.88c7.54.22,15.3-6.46,21.33-10.56,4.31-3,7.54-7.11,11.42-11,3.23-3.23,6.46-6.68,9.91-9.91,3.45-3,7.54-5.17,10.77-8.19,6.9-6.25,15.52-12.07,18.1-21.55,1.94-8-.43-16.38-3.23-24.35"/><path id="Fill-10" class="cls-3" d="M452.32,509.33c-1.29,2.37-3.66,3.88-5.82,5.6a192,192,0,0,0-25.86,21.76c-3.66,3.66-6.9,8-11.42,11a101.78,101.78,0,0,1-15.73,8.84c-1.94.86-3.88,1.72-5.82,1.29-4.09-.65-7.76-4.74-9.48-8.19-1.29-2.37-6-6.46-5.17-9.48.43-1.72,3.66-3.66,5-5a25.28,25.28,0,0,1,6.46-4.09c4.53-2.15,9.48-3.66,13.79-6,12.28-7.11,20.9-18.75,30-29.52,1.72-2.15,3.66-4.09,6.25-4.74a8.67,8.67,0,0,1,5.17.65c4.09,1.29,8,3,10.77,6.25,2.8,3,3.88,8,1.94,11.64"/><path id="Fill-12" class="cls-4" d="M202.78,518.6c1.94,4.31,6.25,7.54,10.77,9.05,4.74,1.72,10.13,1.72,15.08,1.08,21.76-1.94,42.67-12.93,57.32-28.88,11-12.07,18.32-28.23,17.45-44.39-.86-16.38-10.77-32.32-25.86-38.57-9.7-3.88-20.69-3.66-30.6-.65-8.84,2.8-17.24,8-22.84,15.52-13.36,18.1-7.54,43.75-15.3,64.65-2.37,6.68-9.05,14-6.25,21.33,0,.43.22.65.22.86"/><path id="Fill-14" class="cls-2" d="M168.3,530.88c14,8.62,32.54,11.64,45.9,0,3.88-3.45,6.9-6.68,11.64-8.62,4.53-1.94,9.48-3,14-5.17a94.61,94.61,0,0,0,28-20.69c11-12.07,18.32-28.23,17.45-44.39-.86-16.38-10.77-32.32-25.86-38.57-9.7-3.88-20.69-3.66-30.6-.65-8.84,2.8-17.24,8-22.84,15.52-13.36,18.1-7.54,43.75-15.3,64.65-1.94,5.6-5.17,12.07-9.48,16.16-4.74,4.53-11.42,8.4-16.59,13.15a1.94,1.94,0,0,0-.22,1.08c-.65,3,1.29,6,3.88,7.54"/><path id="Fill-16" class="cls-3" d="M173.25,523.34c-.43,3,1.51,6,4.09,7.54,8.4,5.17,21.33,6.68,31,8.19a355.44,355.44,0,0,0,81.46,3.23c5.82-.43,11.85-1.08,16.81-4.53,4.74-3.23,7.76-9.91,5.17-15.08-3.45-6.46-12.28-6.68-19.61-5.82l-56,5.82c15.3-6,29.74-14.44,40.73-26.51S295.22,468,294.36,451.8c-.86-16.38-10.77-32.32-25.86-38.57-9.7-3.88-20.69-3.66-30.6-.65-8.84,2.8-17.24,8-22.84,15.52-13.36,18.1-7.54,43.75-15.3,64.65-1.94,5.6-5.17,12.07-9.48,16.16-4.74,4.53-11.42,8.4-16.59,13.15a3.06,3.06,0,0,0-.43,1.29"/><path id="Fill-18" class="cls-2" d="M312.68,555.45c-1.72-2.59-3.66-5.17-5.39-8-2.37-3.45-5-7.54-3.66-11.42,1.29-5,7.33-6.9,12.5-8.19a211.11,211.11,0,0,0,85.12-44.39c4.09,4.74,8.62,10.34,8,16.81-.43,5.17-4.09,9.48-8,13.15-22.41,21.33-51.93,33.19-80.81,44.39a7.34,7.34,0,0,1-4.74.65,13.35,13.35,0,0,1-3-3"/><path id="Fill-20" class="cls-4" d="M316.34,564.5c-2.37-2.15-3.88-5.6-5.39-8-2.37-3.45-5-7.54-3.66-11.42,1.29-5,7.33-6.9,12.5-8.19a211.12,211.12,0,0,0,85.12-44.39c4.09,4.74,8.62,10.34,8,16.81-.43,5.17-4.09,9.48-8,13.15A146.1,146.1,0,0,1,376,543.6a240.69,240.69,0,0,1-29.09,14c-5,2.15-9.91,4.09-15.08,6-4.31,1.72-8.84,4.09-13.58,2.15l-1.94-1.29"/><path id="Fill-22" class="cls-3" d="M316.34,559.11c-1.72-2.59-3.66-5.17-5.39-8-2.37-3.45-5-7.54-3.66-11.42,1.29-5,7.33-6.9,12.5-8.19a211.12,211.12,0,0,0,85.12-44.39c4.09,4.74,8.62,10.34,8,16.81-.43,5.17-4.09,9.48-8,13.15C382.5,538.43,353,550.28,324.1,561.48a7.34,7.34,0,0,1-4.74.65,13.35,13.35,0,0,1-3-3"/><path id="Fill-24" class="cls-4" d="M452.32,454.17c-2.37-4.53-5.17-8.62-6.9-13.58-2.59-7.33-1.72-15.95-5.6-23.06-7.54-13.79-23.06,11.42-26.07,18.1-.65,1.51-1.51,3.23-3,4.09a5.58,5.58,0,0,1-4.09.65c-.65-.22-1.51-.65-1.72-1.29-1.51-3.45-.86-5.82-3.45-9.05-2.15-3-4.09-6.25-6.46-8.84a34.63,34.63,0,0,0-18.1-10.56,2.93,2.93,0,0,0-3.45,1.72,8.62,8.62,0,0,0-2.59,2.37,12.65,12.65,0,0,0-1.72,6.9c0,5.17.43,10.13-.86,15.3-1.94,7.33-6.46,11.64-11.42,16.81A55.91,55.91,0,0,1,345,463.22c-8.62,5.6-18.1,9.48-27.8,12.93-.86.22-1.72.65-2.37.86-7.54,2.59-15.73,5.39-15.08,17.67v.43c1.72,9.7,9.27,15.52,16.38,20.69,12.5,9.27,28.23,17.24,44.18,13.15,7.54-1.94,13.58-7.54,20.69-10.34,18.32-7.33,39.65.65,56.67-11.85,12.93-9.7,22.2-28.23,18.1-44.18a49,49,0,0,0-3.45-8.4"/><path id="Fill-26" class="cls-2" d="M338.75,520.11c-7.76-2.15-15.3-6.9-22-11.85-7.33-5.39-14.65-11.21-16.38-20.69v-.43c-.65-12.28,7.54-15.08,15.08-17.67.86-.22,1.72-.65,2.37-.86,9.7-3.45,19.18-7.33,27.8-12.93a71.51,71.51,0,0,0,11.85-9.48c5-5.17,9.48-9.48,11.42-16.81,1.29-5,.86-10.13.86-15.3a12.65,12.65,0,0,1,1.72-6.9c4.53-6.9,10.56,0,14.22,3.66,4.53,4.31,7.11,10.56,8.84,16.59a18.34,18.34,0,0,0,1.29,3.66,17.88,17.88,0,0,0,3.23,3.66c3.45,3,7.54,6.25,12.07,6.46,6.9.22,11.42-5.6,15.73-9.91,3.88-3.88,9.05-5.39,11.64.43,2.59,5.39,3.66,12.07,4.74,17.89,1.51,8,2.15,16.38.65,24.35-1.51,9.27-6,18.32-13.58,23.92-16.81,12.71-38.14,4.74-56.46,12.28-7.11,3-13.15,8.62-20.69,10.56a29.73,29.73,0,0,1-14.44-.65"/><path id="Fill-28" class="cls-3" d="M346.3,521.19c-7.76-2.15-15.3-7.11-22-12.07-7.11-5.39-14.44-11.21-16.16-20.9v-.43c-.65-12.28,7.76-15.08,15.08-17.67,21.76-7.33,54.09-21.55,53-48.92a58.17,58.17,0,0,0-2.59-14.87,2.93,2.93,0,0,1,3.45-3.66c3.45.86,7.11,1.94,9.91,4.31a62.34,62.34,0,0,1,7.54,7.54,58.11,58.11,0,0,1,8.19,12.28c.86,1.51,1.51,4.31,2.8,5.39,1.51,1.08,4.09.65,5.39-.22,1.51-.86,2.37-2.59,3-4.09,3.66-8.19,5.39-21.12,2.8-30a2.8,2.8,0,0,1,2.8-3.66c17,.43,28.88,43.1,30.82,53,1.72,9.27,2.8,18.75,1.29,27.8-1.72,9.27-6,18.1-13.58,23.7-17,12.5-38.36,4.53-56.67,11.85-7.11,2.8-13.36,8.4-20.69,10.34-5,1.94-9.7,1.51-14.44.22"/><path id="Fill-30" class="cls-4" d="M126.49,538.64c-6.46-11-9.27-25.64-4.31-37.06,1.29-3.23,5.82-2.59,6.9.65C132.74,515.15,144.16,525.5,156,533a154,154,0,0,0,69,22.84,3.66,3.66,0,0,1,1.72,6.68,71.69,71.69,0,0,1-50,10.56,73.64,73.64,0,0,1-50.21-34.48"/><path id="Fill-32" class="cls-4" d="M338.75,488c1.08-.65.65-2.37-.22-3.66a26,26,0,0,0-9.05-8.4c-3.23,1.94-6.46,3.66-9.7,5.6,0,2.37,2.8,3.45,5.17,3.88L337,488c.43.22,1.29.43,1.72,0"/><path id="Fill-34" class="cls-4" d="M404.48,470.33a13,13,0,0,1-.43-11.64c3-6.9,12.07-8.62,17.67-3.66a9.59,9.59,0,0,1,3.45,6c.65,6.25-8.19,9.7-12.93,6.9-2.37-1.29-4.09-3.88-3.45-6.68.43-1.72,2.59-3.66,4.53-3,2.8.86,2.59,5.17.22,6.46-1.51.86.86,1.08,1.51.65,3.23-1.51,4.31-6,.86-8-2.8-1.51-6.68-.43-8.62,1.94-3,3.88-.22,9.05,3.88,10.56s9.27.43,12.71-1.94c3.88-2.8,5.17-7.11,2.59-11.21s-7.76-6-12.71-5.6c-10.13.65-16.59,11-11.85,20.26.43.43,3-.43,2.59-1.08"/><path id="Fill-36" class="cls-4" d="M381,448.13a9,9,0,0,1-1.51,9.48c-1.94,1.94-4.09,1.29-4.31-1.72a14.17,14.17,0,0,1,1.72-7.33c.65-1.08,1.51-2.15,2.8-1.72.65,0,1.08.65,1.29,1.29"/></g><g id="p2-cold"><path id="Fill-38" class="cls-5" d="M360.3,387.36c-1.29-2.8-2.59-5.6-4.09-8.4-.43-.86-2.8,0-3.45.22a60.47,60.47,0,0,0-11.21,5.6c-2.37-4.53-4.74-10.34-10.56-8.4-2.59.86-6.25,5.39-9.27,4.09-3.66-1.51-1.51-8.19-4.74-10.56-1.08-.65-3.88.43-4.53,1.08a84.44,84.44,0,0,1-6.9,5.39,23.62,23.62,0,0,1-3.45-10.13c-.22-1.08-3.88.43-4.31.65-3,1.94-6.25,3.88-9.27,5.82-.43-2.8-.65-5.6-1.08-8.62,0-.86-5.17.22-5,1.29.43,3.45.86,7.11,1.29,10.56.22,1.08,3.88-.43,4.31-.65,3-1.94,6.25-3.88,9.27-6a24.89,24.89,0,0,0,4.09,9.91c.65.86,3.66-.22,4.31-.65,2.59-1.72,5.17-3.66,7.76-5.6,2.8,4.09,0,10.56,8.19,9.7a16.94,16.94,0,0,0,5.6-1.72c2.15-1.08,2.37-2.15,4.53-1.08,2.37,1.08,4.09,5.82,5.39,8,.65,1.08,4.09-.43,4.74-.86a40.87,40.87,0,0,1,9.27-5.6c1.08,2.37,2.37,5,3.45,7.33,1.08,1.08,6-.65,5.6-1.29"/><path id="Fill-40" class="cls-5" d="M476.88,479.16c-2.15,3.23-2.8,6.68-1.29,10.34,1.72,4.31,7.54,5.17,4.09,9.48-1.51,1.94-4.74,2.8-4.74,5.82,0,2.15,2.59,2.37,3,3.88,1.29,4.09-7.54,8.19-9.91,9.91-2.15,1.51,2.8,1.29,3.88.65,2.59-1.72,12.07-5.82,12.28-9.48.22-2.37-2.15-2.15-3-3.88-2.37-4.09,1.51-4.74,3.66-6.9,1.29-1.29,3.23-3.23,1.94-5.17-1.94-2.8-4.31-1.29-6-5.39a9.57,9.57,0,0,1,.86-9.27c.86-1.72-4.09-1.08-4.74,0"/><path id="Fill-42" class="cls-5" d="M146.53,418.18a148.53,148.53,0,0,0-17.67,12.93,1.3,1.3,0,0,0-.22,1.72,29.84,29.84,0,0,1,4.31,7.11c.22,2.15-.65,3.45-2.8,4.09-.86,1.08-3.88,3-4.74,3.88-3.23,3.23-3,3.23-1.29,6.68a4.11,4.11,0,0,0,2.15,1.08c-.22,1.72-.65,3.66-.86,5.39-.65,1.51-2.37,1.94-2.8,3.66-.65,3,.65,4.31,3.23,5.39,1.94.65,5.82-1.94,3-3-1.51-.65,4.53-9.27,3.88-11.64-.65-1.72-1.72-1.08-2.37-2.59-2.59-5.39,4.31-7.76,8-10.13a1.75,1.75,0,0,0,.86-1.72c-1.72-4.53-5.6-8.19-1.72-12.5,3-3.66,8.62-6.25,12.5-8.62,2.8-1.51-1.51-3-3.45-1.72"/></g><g id="p2-wind"><path id="Fill-44" class="cls-6" d="M279.71,229.41l-11.64,12.28a4.72,4.72,0,0,0-.65,4.74c.43,1.08,1.94,2.37,3,1.08,3.88-4.31,7.76-8.4,11.64-12.71a4,4,0,0,0,.65-4.31c-.65-1.08-1.94-2.37-3-1.08"/><path id="Fill-46" class="cls-6" d="M221.74,277.25c-3.45,3.45-6.9,6.68-10.34,10.34a4.34,4.34,0,0,0-.65,4.53c.43,1.29,1.94,2.37,3.23,1.08l10.34-10.34a4.34,4.34,0,0,0,.65-4.53c-.65-1.08-1.94-2.15-3.23-1.08"/><path id="Fill-48" class="cls-6" d="M278.63,299.23c-2.59,3.45-5.39,6.9-8,10.34-1.94,2.37.86,8.62,3.45,5,2.59-3.45,5.39-6.9,8-10.34,2.15-2.37-.65-8.4-3.45-5"/><path id="Fill-50" class="cls-6" d="M423,320.35l-18.53,20.47a5.36,5.36,0,0,0-.86,5.6c.65,1.29,2.37,2.8,3.66,1.29,6-6.9,12.28-13.79,18.32-20.69,2.15-2.37.22-9.7-2.59-6.68"/><path id="Fill-52" class="cls-6" d="M485.29,312.8c-2.15,4.09-4.31,7.54-8,10.56-1.94,1.72-.22,7.33,2.15,5.17a26.45,26.45,0,0,0,8.4-13.58c.65-1.29-1.29-4.31-2.59-2.15"/><path id="Fill-54" class="cls-6" d="M503,372.5c-9.7,8.19-18.32,18.53-27.37,27.58-2.37,2.59-.22,10.56,3,7.33,9.05-9.27,19-18.32,27.15-28.23,1.72-2.15.65-9.7-2.8-6.68"/><path id="Fill-56" class="cls-6" d="M201.27,359.35c-7.54,8.4-14.22,17.45-21.33,26.29-1.72,2.15.65,7.54,3,4.53,6.9-8.84,14-17.67,20.47-26.94.86-1.29-.43-5.82-2.15-3.88"/><path id="Fill-58" class="cls-6" d="M513.09,458.48c-1.51-.22-3,2.8-3.88,3.88-1.72,2.15-3.23,4.53-5.39,6.25-2.37,1.94-.43,8.84,2.59,6.25a41.85,41.85,0,0,0,5.6-6.68l1.94-3.23a10.51,10.51,0,0,0,.65-1.51c.43-1.08.22,0-.43.43,1.51-1.08,1.08-5.17-1.08-5.39"/><path id="Fill-60" class="cls-6" d="M163.56,477.44c-.22-.86-.86-2.15-1.94-2.15-.65,0-.86,0-1.29.43a2.65,2.65,0,0,0-1.08,2.15,12.76,12.76,0,0,0-.86,1.29c-.86,1.29-1.94,2.37-2.8,3.66-1.94,2.37-3.66,5-5.6,7.54-3.66,5-7.33,10.13-10.77,15.3-1.94,2.59.86,9.27,3.66,5.39,5-6.68,9.48-13.36,14.22-20,2.59-3.66,7.76-8.62,6.46-13.58"/><path id="Fill-62" class="cls-6" d="M103.22,309.36c-3.66,3.23-6.68,7.33-10.13,10.77-3.66,3.45-7.33,6.9-11.42,10.13-1.51,1.08-.43,5.39,1.51,3.88,8.19-5.6,16.81-13.15,21.33-22,.65-.86.22-4.09-1.29-2.8"/><path id="Fill-64" class="cls-4" d="M485.07,180.06a396.85,396.85,0,0,1-83.4,102.14c-8,6.9-16.16,13.58-24.57,19.83-10.77,8-25.21,20.69-39.87,17.24S320,300.09,328.41,289.1c3.66-4.74,11.85-11.64,18.1-12.71,5.6-.86,10.34.65,9.05,7.11-.86,4.53-5.39,7.54-8.84,10.13-2.8,1.94,1.51,2.59,3,1.51,5.82-4.09,14-10.56,10.13-18.53-3.66-7.33-12.5-3.45-18.1-.86-8.4,4.09-17,9.7-21.12,18.32-4.31,9.05-2.59,19.83,6.46,25.21,18.53,11,39.65-5.82,53.87-16.38a385.05,385.05,0,0,0,56.46-51.07,405.39,405.39,0,0,0,52.15-71.54c1.29-2.15-3.66-1.72-4.53-.22"/><path id="Fill-66" class="cls-4" d="M149.55,304.4A399.26,399.26,0,0,1,85.33,435.85c-13.15,17.67-39.65,46.33-63.14,26.72-9.7-8-8.62-20.47-1.94-30.17a52.52,52.52,0,0,1,14.65-13.79c5.17-3.23,12.5-6.25,17.89-1.51,3.45,2.8,6.46,11.21-.86,12.93-3,.65-2.37,3.45.65,2.59,6.46-1.51,11-8,7.76-14.65-4.09-8-15.08-7.54-22.2-4.53-17,6.68-38.79,31.25-23.06,48.7,14,15.52,37.71,9.27,52.15-1.72,21.12-16.16,36.2-42,49.13-64.65a395.1,395.1,0,0,0,38.14-92c.65-1.72-4.53-1.08-5,.65"/><path id="Fill-69" class="cls-4" d="M594.11,443.39a95.87,95.87,0,0,1-26.72,59.26,87.78,87.78,0,0,1-12.71,11c-4.09,3-9.48,7.54-14.44,8.62-11.21,2.15-11.85-11.21-10.77-18.32,1.08-6.9,4.09-11.21,11-12.07,4.09-1.94,5.39-1.29,4.09,1.94a23.35,23.35,0,0,1-3.66,8.19c-1.72,2.59,2.8,3.45,4.09,1.51a28.75,28.75,0,0,0,5.17-14.87,1.62,1.62,0,0,0-1.08-1.51c-13.15-3.23-23.92,6.9-24.78,19.83-.43,6.25.43,16.59,7.11,19.61,5.6,2.59,12.07-1.51,16.81-4.09A100.74,100.74,0,0,0,599.28,443c.22-2.59-5-1.94-5.17.43"/></g></svg>