<?xml version="1.0" encoding="UTF-8" standalone="no"?>
<!DOCTYPE svg PUBLIC "-//W3C//DTD SVG 1.1//EN" "http://www.w3.org/Graphics/SVG/1.1/DTD/svg11.dtd">
<svg width="100%" height="100%" viewBox="0 0 284 219" version="1.1" xmlns="http://www.w3.org/2000/svg" xmlns:xlink="http://www.w3.org/1999/xlink" xml:space="preserve" style="fill-rule:evenodd;clip-rule:evenodd;stroke-linejoin:round;stroke-miterlimit:1.41421;">
    <g id="Fill-1" transform="matrix(1,0,0,1,4.49937,8.69279)">
        <path d="M208.3,175.6C213.7,173 219,169.5 222,164.2C224.9,159 224.9,151.7 220.7,147.4C217.8,144.5 213.7,143.5 209.7,142.6C182,136.1 153.8,130.8 125.3,129.9C103.8,129.2 82.1,130.9 61.2,136.4C52.5,138.7 42.4,139.8 38.2,148.4C32.7,159.8 34.6,169.7 44.2,176.7C55.3,184.8 66,191.2 80.4,190.7C89.8,190.4 98.8,187.3 108.1,185.6C141.3,179.5 177.8,190.2 208.3,175.6Z" style="fill-opacity:0.0980392;fill-rule:nonzero;"/>
    </g>
    <g id="p2-dog" transform="matrix(1,0,0,1,4.49937,8.69279)">
        <path id="Fill-4" d="M116.8,142.3C123,138.9 129.7,136.2 135.8,132.6C141.9,129 147.7,124.4 151,118.1C153.7,113 154.4,106.6 152.4,101.3C146.8,99.7 141.1,98.3 135.3,97.4C121.1,95.2 107.5,96.6 94.4,102.8C87.4,106.1 80.7,110.2 74.5,114.9C67.3,120.3 60.2,128.9 60.1,138.3C60,144.7 63.6,150.6 68.5,154.7C73.4,158.8 79.5,161.1 85.6,162.9L91.4,163.4C98.5,154.9 107.1,147.7 116.8,142.3" style="fill:rgb(255,240,0);fill-rule:nonzero;"/>
        <path id="Fill-6" d="M120.2,142.3C126.4,138.9 133.1,136.2 139.2,132.6C145.3,129 151.1,124.4 154.4,118.1C157.1,113 157.8,106.6 155.8,101.3C150.2,99.7 144.5,98.3 138.7,97.4C124.5,95.2 110.9,96.6 97.8,102.8C90.8,106.1 84.1,110.2 77.9,114.9C70.7,120.3 63.6,128.9 63.5,138.3C63.4,144.7 67,150.6 71.9,154.7C76.8,158.8 82.9,161.1 89,162.9L94.8,163.4C101.9,154.9 110.5,147.7 120.2,142.3" style="fill:rgb(78,145,255);fill-rule:nonzero;"/>
        <path id="Fill-8" d="M209.8,136.6C209.5,135.6 209.1,134.6 208.8,133.7C207.9,131 206.8,128.7 204.7,126.8C199.4,121.9 193.6,116.9 187.3,113.4C181,109.8 174.1,107.4 167.2,105C163.5,103.7 159.7,102.5 155.9,101.4C157.9,106.7 157.2,113.1 154.5,118.2C151.2,124.5 145.4,129.1 139.3,132.7C133.2,136.3 126.5,138.9 120.3,142.4C110.6,147.7 102,155 95,163.5L124.1,165.9C130.3,166.1 136.5,165 142.2,162.8C151.7,159.1 160.7,156.2 170.9,155.2C177.1,154.6 183.1,155.8 189.3,156C187.4,157.9 185.3,159.7 182.9,161C180.9,162.2 178.6,162.8 176.5,163.8C175.4,164.3 174.4,164.9 173.5,165.7C173,166.1 171.7,166.8 171.6,167.5C171.5,168 172.3,169.3 172.5,169.8C172.9,171.4 173,173.2 174.1,174.5C175,175.7 176.6,176.3 178.1,176.3C181.6,176.4 185.2,173.3 188,171.4C190,170 191.5,168.1 193.3,166.3C194.8,164.8 196.3,163.2 197.9,161.7C199.5,160.3 201.4,159.3 202.9,157.9C206.1,155 210.1,152.3 211.3,147.9C212.2,144.2 211.1,140.3 209.8,136.6" style="fill:rgb(77,77,77);fill-rule:nonzero;"/>
        <path id="Fill-10" d="M205.4,153.4C204.8,154.5 203.7,155.2 202.7,156C198.4,159 194.4,162.4 190.7,166.1C189,167.8 187.5,169.8 185.4,171.2C183.1,172.8 180.7,174.1 178.1,175.3C177.2,175.7 176.3,176.1 175.4,175.9C173.5,175.6 171.8,173.7 171,172.1C170.4,171 168.2,169.1 168.6,167.7C168.8,166.9 170.3,166 170.9,165.4C171.8,164.6 172.8,164 173.9,163.5C176,162.5 178.3,161.8 180.3,160.7C186,157.4 190,152 194.2,147C195,146 195.9,145.1 197.1,144.8C197.9,144.6 198.7,144.8 199.5,145.1C201.4,145.7 203.2,146.5 204.5,148C205.8,149.4 206.3,151.7 205.4,153.4" style="fill:rgb(78,145,255);fill-rule:nonzero;"/>
        <path id="Fill-12" d="M89.6,157.7C90.5,159.7 92.5,161.2 94.6,161.9C96.8,162.7 99.3,162.7 101.6,162.4C111.7,161.5 121.4,156.4 128.2,149C133.3,143.4 136.7,135.9 136.3,128.4C135.9,120.8 131.3,113.4 124.3,110.5C119.8,108.7 114.7,108.8 110.1,110.2C106,111.5 102.1,113.9 99.5,117.4C93.3,125.8 96,137.7 92.4,147.4C91.3,150.5 88.2,153.9 89.5,157.3C89.5,157.5 89.6,157.6 89.6,157.7" style="fill:rgb(77,77,77);fill-rule:nonzero;"/>
        <path id="Fill-14" d="M73.6,163.4C80.1,167.4 88.7,168.8 94.9,163.4C96.7,161.8 98.1,160.3 100.3,159.4C102.4,158.5 104.7,158 106.8,157C111.6,154.7 116.2,151.3 119.8,147.4C124.9,141.8 128.3,134.3 127.9,126.8C127.5,119.2 122.9,111.8 115.9,108.9C111.4,107.1 106.3,107.2 101.7,108.6C97.6,109.9 93.7,112.3 91.1,115.8C84.9,124.2 87.6,136.1 84,145.8C83.1,148.4 81.6,151.4 79.6,153.3C77.4,155.4 74.3,157.2 71.9,159.4C71.8,159.6 71.8,159.7 71.8,159.9C71.5,161.3 72.4,162.7 73.6,163.4" style="fill:rgb(255,240,0);fill-rule:nonzero;"/>
        <path id="Fill-16" d="M75.9,159.9C75.7,161.3 76.6,162.7 77.8,163.4C81.7,165.8 87.7,166.5 92.2,167.2C104.7,169.2 117.4,169.6 130,168.7C132.7,168.5 135.5,168.2 137.8,166.6C140,165.1 141.4,162 140.2,159.6C138.6,156.6 134.5,156.5 131.1,156.9C122.4,157.8 113.8,158.7 105.1,159.6C112.2,156.8 118.9,152.9 124,147.3C129.1,141.7 132.5,134.2 132.1,126.7C131.7,119.1 127.1,111.7 120.1,108.8C115.6,107 110.5,107.1 105.9,108.5C101.8,109.8 97.9,112.2 95.3,115.7C89.1,124.1 91.8,136 88.2,145.7C87.3,148.3 85.8,151.3 83.8,153.2C81.6,155.3 78.5,157.1 76.1,159.3C76,159.5 75.9,159.7 75.9,159.9" style="fill:rgb(78,145,255);fill-rule:nonzero;"/>
        <path id="Fill-18" d="M140.6,174.8C139.8,173.6 138.9,172.4 138.1,171.1C137,169.5 135.8,167.6 136.4,165.8C137,163.5 139.8,162.6 142.2,162C156.7,158.3 170.3,151.2 181.7,141.4C183.6,143.6 185.7,146.2 185.4,149.2C185.2,151.6 183.5,153.6 181.7,155.3C171.3,165.2 157.6,170.7 144.2,175.9C143.5,176.2 142.7,176.4 142,176.2C141.4,175.8 141,175.3 140.6,174.8" style="fill:rgb(255,240,0);fill-rule:nonzero;"/>
        <path id="Fill-20" d="M142.3,179C141.2,178 140.5,176.4 139.8,175.3C138.7,173.7 137.5,171.8 138.1,170C138.7,167.7 141.5,166.8 143.9,166.2C158.4,162.5 172,155.4 183.4,145.6C185.3,147.8 187.4,150.4 187.1,153.4C186.9,155.8 185.2,157.8 183.4,159.5C179.4,163.3 174.8,166.6 170,169.3C165.7,171.8 161.1,173.9 156.5,175.8C154.2,176.8 151.9,177.7 149.5,178.6C147.5,179.4 145.4,180.5 143.2,179.6C142.9,179.4 142.6,179.2 142.3,179" style="fill:rgb(77,77,77);fill-rule:nonzero;"/>
        <path id="Fill-22" d="M142.3,176.5C141.5,175.3 140.6,174.1 139.8,172.8C138.7,171.2 137.5,169.3 138.1,167.5C138.7,165.2 141.5,164.3 143.9,163.7C158.4,160 172,152.9 183.4,143.1C185.3,145.3 187.4,147.9 187.1,150.9C186.9,153.3 185.2,155.3 183.4,157C173,166.9 159.3,172.4 145.9,177.6C145.2,177.9 144.4,178.1 143.7,177.9C143.1,177.5 142.7,177 142.3,176.5" style="fill:rgb(78,145,255);fill-rule:nonzero;"/>
        <path id="Fill-24" d="M205.4,127.8C204.3,125.7 203,123.8 202.2,121.5C201,118.1 201.4,114.1 199.6,110.8C196.1,104.4 188.9,116.1 187.5,119.2C187.2,119.9 186.8,120.7 186.1,121.1C185.5,121.5 184.8,121.5 184.2,121.4C183.9,121.3 183.5,121.1 183.4,120.8C182.7,119.2 183,118.1 181.8,116.6C180.8,115.2 179.9,113.7 178.8,112.5C176.5,110 173.6,108.3 170.4,107.6C169.7,107.4 169.1,107.8 168.8,108.4C168.4,108.6 168,109 167.6,109.5C167,110.4 166.8,111.6 166.8,112.7C166.8,115.1 167,117.4 166.4,119.8C165.5,123.2 163.4,125.2 161.1,127.6C159.5,129.3 157.6,130.8 155.6,132C151.6,134.6 147.2,136.4 142.7,138C142.3,138.1 141.9,138.3 141.6,138.4C138.1,139.6 134.3,140.9 134.6,146.6C134.6,146.7 134.6,146.8 134.6,146.8C135.4,151.3 138.9,154 142.2,156.4C148,160.7 155.3,164.4 162.7,162.5C166.2,161.6 169,159 172.3,157.7C180.8,154.3 190.7,158 198.6,152.2C204.6,147.7 208.9,139.1 207,131.7C206.6,130.3 206,129 205.4,127.8" style="fill:rgb(77,77,77);fill-rule:nonzero;"/>
        <path id="Fill-26" d="M152.7,158.4C149.1,157.4 145.6,155.2 142.5,152.9C139.1,150.4 135.7,147.7 134.9,143.3C134.9,143.2 134.9,143.1 134.9,143.1C134.6,137.4 138.4,136.1 141.9,134.9C142.3,134.8 142.7,134.6 143,134.5C147.5,132.9 151.9,131.1 155.9,128.5C157.9,127.2 159.7,125.8 161.4,124.1C163.7,121.7 165.8,119.7 166.7,116.3C167.3,114 167.1,111.6 167.1,109.2C167.1,108.1 167.3,106.9 167.9,106C170,102.8 172.8,106 174.5,107.7C176.6,109.7 177.8,112.6 178.6,115.4C178.8,116 178.9,116.6 179.2,117.1C179.6,117.8 180.2,118.3 180.7,118.8C182.3,120.2 184.2,121.7 186.3,121.8C189.5,121.9 191.6,119.2 193.6,117.2C195.4,115.4 197.8,114.7 199,117.4C200.2,119.9 200.7,123 201.2,125.7C201.9,129.4 202.2,133.3 201.5,137C200.8,141.3 198.7,145.5 195.2,148.1C187.4,154 177.5,150.3 169,153.8C165.7,155.2 162.9,157.8 159.4,158.7C157.1,159.2 154.9,159 152.7,158.4" style="fill:rgb(255,240,0);fill-rule:nonzero;"/>
        <path id="Fill-28" d="M156.2,158.9C152.6,157.9 149.1,155.6 146,153.3C142.7,150.8 139.3,148.1 138.5,143.6C138.5,143.5 138.5,143.4 138.5,143.4C138.2,137.7 142.1,136.4 145.5,135.2C155.6,131.8 170.6,125.2 170.1,112.5C170,110.2 169.6,107.8 168.9,105.6C168.6,104.6 169.5,103.7 170.5,103.9C172.1,104.3 173.8,104.8 175.1,105.9C176.4,107 177.5,108.1 178.6,109.4C180.1,111.1 181.4,113.1 182.4,115.1C182.8,115.8 183.1,117.1 183.7,117.6C184.4,118.1 185.6,117.9 186.2,117.5C186.9,117.1 187.3,116.3 187.6,115.6C189.3,111.8 190.1,105.8 188.9,101.7C188.6,100.8 189.3,100 190.2,100C198.1,100.2 203.6,120 204.5,124.6C205.3,128.9 205.8,133.3 205.1,137.5C204.3,141.8 202.3,145.9 198.8,148.5C190.9,154.3 181,150.6 172.5,154C169.2,155.3 166.3,157.9 162.9,158.8C160.6,159.7 158.4,159.5 156.2,158.9" style="fill:rgb(78,145,255);fill-rule:nonzero;"/>
        <path id="Fill-30" d="M54.2,167C51.2,161.9 49.9,155.1 52.2,149.8C52.8,148.3 54.9,148.6 55.4,150.1C57.1,156.1 62.4,160.9 67.9,164.4C77.5,170.4 88.6,174.1 99.9,175C101.5,175.1 102,177.2 100.7,178.1C93.9,182.5 85.5,184.3 77.5,183C67.8,181.3 59.1,175.3 54.2,167" style="fill:rgb(77,77,77);fill-rule:nonzero;"/>
        <path id="Fill-32" d="M152.7,143.5C153.2,143.2 153,142.4 152.6,141.8C151.5,140.2 150.1,138.8 148.4,137.9C146.9,138.8 145.4,139.6 143.9,140.5C143.9,141.6 145.2,142.1 146.3,142.3L151.9,143.5C152.1,143.6 152.5,143.7 152.7,143.5" style="fill:rgb(77,77,77);fill-rule:nonzero;"/>
        <path id="Fill-34" d="M183.2,135.3C182.3,133.6 182.2,131.7 183,129.9C184.4,126.7 188.6,125.9 191.2,128.2C192,128.9 192.7,129.9 192.8,131C193.1,133.9 189,135.5 186.8,134.2C185.7,133.6 184.9,132.4 185.2,131.1C185.4,130.3 186.4,129.4 187.3,129.7C188.6,130.1 188.5,132.1 187.4,132.7C186.7,133.1 187.8,133.2 188.1,133C189.6,132.3 190.1,130.2 188.5,129.3C187.2,128.6 185.4,129.1 184.5,130.2C183.1,132 184.4,134.4 186.3,135.1C188.2,135.8 190.6,135.3 192.2,134.2C194,132.9 194.6,130.9 193.4,129C192.2,127.1 189.8,126.2 187.5,126.4C182.8,126.7 179.8,131.5 182,135.8C182.2,136 183.4,135.6 183.2,135.3" style="fill:rgb(77,77,77);fill-rule:nonzero;"/>
        <path id="Fill-36" d="M172.3,125C173,126.4 172.6,128.3 171.6,129.4C170.7,130.3 169.7,130 169.6,128.6C169.5,127.4 169.9,126.2 170.4,125.2C170.7,124.7 171.1,124.2 171.7,124.4C172,124.4 172.2,124.7 172.3,125" style="fill:rgb(77,77,77);fill-rule:nonzero;"/>
    </g>
    <g id="p2-cold" transform="matrix(1,0,0,1,4.49937,8.69279)">
        <path id="Fill-38" d="M162.7,96.8C162.1,95.5 161.5,94.2 160.8,92.9C160.6,92.5 159.5,92.9 159.2,93C157.3,93.7 155.6,94.6 154,95.6C152.9,93.5 151.8,90.8 149.1,91.7C147.9,92.1 146.2,94.2 144.8,93.6C143.1,92.9 144.1,89.8 142.6,88.7C142.1,88.4 140.8,88.9 140.5,89.2C139.5,90.1 138.4,90.9 137.3,91.7C136.4,90.2 135.9,88.8 135.7,87C135.6,86.5 133.9,87.2 133.7,87.3C132.3,88.2 130.8,89.1 129.4,90C129.2,88.7 129.1,87.4 128.9,86C128.9,85.6 126.5,86.1 126.6,86.6C126.8,88.2 127,89.9 127.2,91.5C127.3,92 129,91.3 129.2,91.2C130.6,90.3 132.1,89.4 133.5,88.4C133.8,90.1 134.4,91.5 135.4,93C135.7,93.4 137.1,92.9 137.4,92.7C138.6,91.9 139.8,91 141,90.1C142.3,92 141,95 144.8,94.6C145.7,94.5 146.6,94.2 147.4,93.8C148.4,93.3 148.5,92.8 149.5,93.3C150.6,93.8 151.4,96 152,97C152.3,97.5 153.9,96.8 154.2,96.6C155.6,95.5 156.9,94.7 158.5,94C159,95.1 159.6,96.3 160.1,97.4C160.6,97.9 162.9,97.1 162.7,96.8" style="fill:rgb(230,230,230);fill-rule:nonzero;"/>
        <path id="Fill-40" d="M216.8,139.4C215.8,140.9 215.5,142.5 216.2,144.2C217,146.2 219.7,146.6 218.1,148.6C217.4,149.5 215.9,149.9 215.9,151.3C215.9,152.3 217.1,152.4 217.3,153.1C217.9,155 213.8,156.9 212.7,157.7C211.7,158.4 214,158.3 214.5,158C215.7,157.2 220.1,155.3 220.2,153.6C220.3,152.5 219.2,152.6 218.8,151.8C217.7,149.9 219.5,149.6 220.5,148.6C221.1,148 222,147.1 221.4,146.2C220.5,144.9 219.4,145.6 218.6,143.7C218,142.3 218.1,140.8 219,139.4C219.4,138.6 217.1,138.9 216.8,139.4" style="fill:rgb(230,230,230);fill-rule:nonzero;"/>
        <path id="Fill-42" d="M63.5,111.1C60.6,112.9 57.9,114.9 55.3,117.1C55.1,117.3 55,117.6 55.2,117.9C56,118.9 56.7,120 57.2,121.2C57.3,122.2 56.9,122.8 55.9,123.1C55.5,123.6 54.1,124.5 53.7,124.9C52.2,126.4 52.3,126.4 53.1,128C53.4,128.3 53.7,128.4 54.1,128.5C54,129.3 53.8,130.2 53.7,131C53.4,131.7 52.6,131.9 52.4,132.7C52.1,134.1 52.7,134.7 53.9,135.2C54.8,135.5 56.6,134.3 55.3,133.8C54.6,133.5 57.4,129.5 57.1,128.4C56.8,127.6 56.3,127.9 56,127.2C54.8,124.7 58,123.6 59.7,122.5C59.9,122.4 60.2,122 60.1,121.7C59.3,119.6 57.5,117.9 59.3,115.9C60.7,114.2 63.3,113 65.1,111.9C66.4,111.2 64.4,110.5 63.5,111.1" style="fill:rgb(230,230,230);fill-rule:nonzero;"/>
    </g>
    <g id="p2-wind" transform="matrix(1,0,0,1,4.49937,8.69279)">
        <path id="Fill-44" d="M125.3,23.5C123.5,25.4 121.7,27.3 119.9,29.2C119.4,29.8 119.3,30.7 119.6,31.4C119.8,31.9 120.5,32.5 121,31.9C122.8,29.9 124.6,28 126.4,26C126.9,25.5 127,24.6 126.7,24C126.4,23.5 125.8,22.9 125.3,23.5" style="fill:white;fill-rule:nonzero;"/>
        <path id="Fill-46" d="M98.4,45.7C96.8,47.3 95.2,48.8 93.6,50.5C93.1,51 93,52 93.3,52.6C93.5,53.2 94.2,53.7 94.8,53.1C96.4,51.5 98,49.9 99.6,48.3C100.1,47.8 100.2,46.8 99.9,46.2C99.6,45.7 99,45.2 98.4,45.7" style="fill:white;fill-rule:nonzero;"/>
        <path id="Fill-48" d="M124.8,55.9C123.6,57.5 122.3,59.1 121.1,60.7C120.2,61.8 121.5,64.7 122.7,63C123.9,61.4 125.2,59.8 126.4,58.2C127.4,57.1 126.1,54.3 124.8,55.9" style="fill:white;fill-rule:nonzero;"/>
        <path id="Fill-50" d="M191.8,65.7C188.9,68.9 186.1,72 183.2,75.2C182.6,75.9 182.4,77 182.8,77.8C183.1,78.4 183.9,79.1 184.5,78.4C187.3,75.2 190.2,72 193,68.8C194,67.7 193.1,64.3 191.8,65.7" style="fill:white;fill-rule:nonzero;"/>
        <path id="Fill-52" d="M220.7,62.2C219.7,64.1 218.7,65.7 217,67.1C216.1,67.9 216.9,70.5 218,69.5C219.9,67.8 221.3,65.7 221.9,63.2C222.2,62.6 221.3,61.2 220.7,62.2" style="fill:white;fill-rule:nonzero;"/>
        <path id="Fill-54" d="M228.9,89.9C224.4,93.7 220.4,98.5 216.2,102.7C215.1,103.9 216.1,107.6 217.6,106.1C221.8,101.8 226.4,97.6 230.2,93C231,92 230.5,88.5 228.9,89.9" style="fill:white;fill-rule:nonzero;"/>
        <path id="Fill-56" d="M88.9,83.8C85.4,87.7 82.3,91.9 79,96C78.2,97 79.3,99.5 80.4,98.1C83.6,94 86.9,89.9 89.9,85.6C90.3,85 89.7,82.9 88.9,83.8" style="fill:white;fill-rule:nonzero;"/>
        <path id="Fill-58" d="M233.6,129.8C232.9,129.7 232.2,131.1 231.8,131.6C231,132.6 230.3,133.7 229.3,134.5C228.2,135.4 229.1,138.6 230.5,137.4C231.5,136.5 232.3,135.4 233.1,134.3C233.4,133.8 233.7,133.3 234,132.8C234.1,132.6 234.2,132.4 234.3,132.1C234.5,131.6 234.4,132.1 234.1,132.3C234.8,131.8 234.6,129.9 233.6,129.8" style="fill:white;fill-rule:nonzero;"/>
        <path id="Fill-60" d="M71.4,138.6C71.3,138.2 71,137.6 70.5,137.6C70.2,137.6 70.1,137.6 69.9,137.8C69.6,138 69.4,138.4 69.4,138.8C69.3,138.9 69.2,139.1 69,139.4C68.6,140 68.1,140.5 67.7,141.1C66.8,142.2 66,143.4 65.1,144.6C63.4,146.9 61.7,149.3 60.1,151.7C59.2,152.9 60.5,156 61.8,154.2C64.1,151.1 66.2,148 68.4,144.9C69.6,143.2 72,140.9 71.4,138.6" style="fill:white;fill-rule:nonzero;"/>
        <path id="Fill-62" d="M43.4,60.6C41.7,62.1 40.3,64 38.7,65.6C37,67.2 35.3,68.8 33.4,70.3C32.7,70.8 33.2,72.8 34.1,72.1C37.9,69.5 41.9,66 44,61.9C44.3,61.5 44.1,60 43.4,60.6" style="fill:white;fill-rule:nonzero;"/>
        <path id="Fill-64" d="M220.6,0.6C210.4,18.4 197.4,34.5 181.9,48C178.2,51.2 174.4,54.3 170.5,57.2C165.5,60.9 158.8,66.8 152,65.2C145.2,63.6 144,56.3 147.9,51.2C149.6,49 153.4,45.8 156.3,45.3C158.9,44.9 161.1,45.6 160.5,48.6C160.1,50.7 158,52.1 156.4,53.3C155.1,54.2 157.1,54.5 157.8,54C160.5,52.1 164.3,49.1 162.5,45.4C160.8,42 156.7,43.8 154.1,45C150.2,46.9 146.2,49.5 144.3,53.5C142.3,57.7 143.1,62.7 147.3,65.2C155.9,70.3 165.7,62.5 172.3,57.6C181.8,50.6 190.6,42.6 198.5,33.9C207.8,23.8 215.8,12.6 222.7,0.7C223.3,-0.3 221,-0.1 220.6,0.6" style="fill:rgb(77,77,77);fill-rule:nonzero;"/>
        <path id="Fill-66" d="M64.9,58.3C58.8,80.3 48.7,101 35.1,119.3C29,127.5 16.7,140.8 5.8,131.7C1.3,128 1.8,122.2 4.9,117.7C6.7,115.2 9.1,112.9 11.7,111.3C14.1,109.8 17.5,108.4 20,110.6C21.6,111.9 23,115.8 19.6,116.6C18.2,116.9 18.5,118.2 19.9,117.8C22.9,117.1 25,114.1 23.5,111C21.6,107.3 16.5,107.5 13.2,108.9C5.3,112 -4.8,123.4 2.5,131.5C9,138.7 20,135.8 26.7,130.7C36.5,123.2 43.5,111.2 49.5,100.7C57.2,87.3 63.1,72.9 67.2,58C67.5,57.2 65.1,57.5 64.9,58.3" style="fill:rgb(77,77,77);fill-rule:nonzero;"/>
        <path id="Fill-69" d="M271.2,122.8C270.4,133.1 266,142.9 258.8,150.3C257,152.2 255,153.9 252.9,155.4C251,156.8 248.5,158.9 246.2,159.4C241,160.4 240.7,154.2 241.2,150.9C241.7,147.7 243.1,145.7 246.3,145.3C248.2,144.4 248.8,144.7 248.2,146.2C247.9,147.6 247.3,148.8 246.5,150C245.7,151.2 247.8,151.6 248.4,150.7C249.9,148.5 250.6,146.4 250.8,143.8C250.8,143.5 250.6,143.2 250.3,143.1C244.2,141.6 239.2,146.3 238.8,152.3C238.6,155.2 239,160 242.1,161.4C244.7,162.6 247.7,160.7 249.9,159.5C263.4,152 272.4,137.9 273.6,122.6C273.7,121.4 271.3,121.7 271.2,122.8" style="fill:rgb(77,77,77);fill-rule:nonzero;"/>
    </g>
</svg>
