<?xml version="1.0" encoding="UTF-8" standalone="no"?><!DOCTYPE svg PUBLIC "-//W3C//DTD SVG 1.1//EN" "http://www.w3.org/Graphics/SVG/1.1/DTD/svg11.dtd"><svg width="100%" height="100%" viewBox="0 0 117 113" version="1.1" xmlns="http://www.w3.org/2000/svg" xmlns:xlink="http://www.w3.org/1999/xlink" xml:space="preserve" style="fill-rule:evenodd;clip-rule:evenodd;stroke-linejoin:round;stroke-miterlimit:1.41421;"><g id="dogBody"><path id="Fill.-11" d="M82.1,35.9c0.2,-0.8 -0.8,-1.4 -1.6,-1.7c-1.4,-0.5 -2.9,-1 -4.4,-1.2c-0.2,0 -0.4,0.1 -0.5,0.2c-1.3,1.6 -2.3,3.5 -2.9,5.5c-0.1,0.3 0.1,0.7 0.5,0.7c1.9,0.3 3.8,-0.7 5.5,-1.6c1.1,-0.5 2.3,-1.2 3.4,-1.9" style="fill:#4d4d4d;fill-rule:nonzero;"/><g><g id="Group.-3"><path id="Fill.-1" d="M38.774,7.5c-1.2,2.4 -2.2,4.9 -2.9,7.7c-1.3,5.6 -1.7,11.7 0.6,17.2c3.1,7.3 10.3,9.2 17,12.2c1.5,0.7 3,1.4 4.5,2.2c1.8,0 5.3,2.5 6.9,3.3c1.7,0.8 3.1,1.9 4.8,2.6c4.3,1.9 9.3,1.2 12.1,-2.5c3.4,-4.5 16.1,-18.4 5.5,-22.5c-3.2,-1.2 -6.8,-0.7 -10.1,-1.8c-5,-1.6 -8.8,-4.5 -10.2,-9.6c-0.7,-2.3 -0.9,-4.7 -1.3,-7c-0.3,-1.4 -0.5,-3.1 -0.9,-4.7c-0.5,-1.5 -2.4,-1.9 -3.4,-0.7c-2,2.5 -4.4,5 -6.7,6.9c-1.1,0.9 -0.4,0.9 -1.8,0.9c-1,0 -2.8,-0.5 -3.5,-1.3c-0.8,-0.9 -1.1,-2.8 -1.6,-3.9c-0.7,-1.7 -1.6,-3.5 -2.8,-4.9c-0.9,-1.1 -2.6,-0.9 -3.3,0.3c-1,1.9 -2,3.7 -2.9,5.6" style="fill:#4e91ff;fill-rule:nonzero;"/></g><path id="Fill.-4" d="M36.86,88.366c-1.3,-0.2 -2.5,-0.4 -3.5,-0.6c-29.2,-8.2 -2.1,-41.2 8.4,-52.9c5.4,-6 8.3,-11.3 16.9,-13.2c10.5,-2.4 11.2,1.1 10.2,10.3c-1.6,13 -9.4,24.3 -10.7,37.3c-0.6,6.6 -1.7,3.8 3.5,6.6c3.8,1.9 11.9,2.5 5.7,7.8c-5,4.4 -21.5,5.8 -30.5,4.7" style="fill:#4e91ff;fill-rule:nonzero;"/><path id="Fill.-7" d="M45.2,54.6c6.2,5.6 13.5,10.7 20.2,15.8c1.9,1.5 5.8,5.5 8.3,4.6c1.6,-0.6 4.8,-5.2 4.6,-6.9c-0.3,-3 -5.8,-5.9 -8.1,-7.4c-7,-4.5 -13.9,-9.4 -20.9,-14c-3.4,-2.2 -5.2,-3.4 -6.8,0.4c-1.3,3 -0.7,4.8 1.8,7.4c0.8,0.9 1.7,1.5 2.8,1.9" style="fill:#4e91ff;fill-rule:nonzero;"/><path id="Fill.-13" d="M49.2,18.3c0.7,0.2 1,1.1 1.2,1.8c0.3,1.4 0.5,2.9 0.6,4.4c0.1,0.7 0.1,1.5 0.2,2.2c0,0.9 0,1.8 -0.7,2.5c-0.6,0.5 -1.6,0.3 -2.1,-0.2c-1,-0.7 -1.2,-3 -1.4,-4c-0.2,-1.6 -0.2,-3.2 0.2,-4.7c0.1,-0.5 0.3,-1 0.6,-1.5c0.3,-0.4 0.9,-0.6 1.4,-0.5" style="fill:#4d4d4d;fill-rule:nonzero;"/><path id="Fill.-15" d="M61.4,18.7c0.2,-0.1 0.5,-0.1 0.7,0c0.3,0.1 0.5,0.5 0.6,0.8c0.6,1.8 0.8,3.8 0.5,5.7c-0.1,0.6 -0.3,1.2 -0.8,1.5c-0.6,0.3 -1.4,0 -1.8,-0.5c-0.4,-0.5 -0.6,-1.2 -0.7,-1.9c-0.2,-1.2 -0.3,-2.4 -0.1,-3.5c0.2,-0.8 0.7,-1.8 1.6,-2.1" style="fill:#4d4d4d;fill-rule:nonzero;"/></g></g><path id="gameTail" d="M19.8,54.2c1.2,-1.5 -0.2,-3.6 -2.1,-3.1c-2.5,0.7 -4.9,1.9 -6.8,3.6c-3.3,3.1 -4.9,8 -3.4,12.3c1.1,3.1 3.9,5.5 7,6.2c1.5,0.3 2.8,-1.2 2.2,-2.6c-1.2,-3 -1.3,-6.5 -0.4,-9.6c0.7,-2.5 2,-4.7 3.5,-6.8" style="fill:#4e91ff;fill-rule:nonzero;"/><path id="gameClick" d="M114.3,79l-27.1,-17.8c-0.4,-0.3 -1,-0.3 -1.5,0c-0.5,0.3 -0.7,0.8 -0.7,1.3l0,31.3c0,0.6 0.3,1.1 0.8,1.3c0.5,0.2 1.1,0.2 1.5,-0.1l7.7,-5.8l7,11.1c0.3,0.4 0.7,0.7 1.2,0.7c0.2,0 0.5,-0.1 0.7,-0.2l7.2,-4.2c0.3,-0.2 0.6,-0.5 0.7,-0.9c0.1,-0.4 0,-0.8 -0.2,-1.1l-6.6,-10.4l8.9,-2.5c0.5,-0.2 0.9,-0.6 1,-1.2c0.2,-0.7 -0.1,-1.3 -0.6,-1.5Z" style="fill:#fff;fill-rule:nonzero;"/></svg>