<?xml version="1.0" encoding="UTF-8"?>
<svg width="420px" height="260px" viewBox="0 0 420 260" version="1.1" xmlns="http://www.w3.org/2000/svg" xmlns:xlink="http://www.w3.org/1999/xlink">
    <!-- Generator: sketchtool 40 (33762) - http://www.bohemiancoding.com/sketch -->
    <title>592ECD14-8FDA-4FD0-B00E-D7615ED8A929</title>
    <desc>Created with sketchtool.</desc>
    <defs></defs>
    <g id="mockup" stroke="none" stroke-width="1" fill="none" fill-rule="evenodd">
        <g id="OWNERS" transform="translate(-443.000000, -1795.000000)" fill="#FFFFFF">
            <g id="Page-1" transform="translate(443.000000, 1795.000000)">
                <path d="M0.573771749,5.63581615 C-0.429996857,4.96779541 -0.0378435305,3.28734634 1.13861645,3.21976448 C56.903539,0.000528339669 112.823164,0.691942803 168.618068,0.533385351 C208.928312,0.533385351 249.238556,0.305946383 289.548799,0.191577073 C325.112429,0.091503927 360.695247,-0.459548202 396.376402,0.931078632 C400.312327,1.08443748 404.347788,1.27288691 407.979104,2.9312419 C418.248244,7.6229829 417.007025,20.646788 417.377592,30.5605278 C417.853693,43.2828138 417.980813,56.0167967 418.154703,68.7468807 L419.960767,200.808343 C420.144252,214.219444 419.990748,228.780737 412.403121,239.375494 C402.980648,252.531863 385.751086,254.789357 370.412734,255.812183 C362.002424,256.373632 353.588517,256.877897 345.172211,257.326277 C295.662554,259.964569 246.065352,260.649485 196.510123,259.384924 C149.780317,258.193144 102.170265,259.232865 55.7246805,252.203051 C50.2825038,251.375174 44.2778808,250.139205 40.9715606,245.382482 C38.913655,242.420576 38.2996413,238.598302 37.7887626,234.931986 C33.8384475,206.552801 32.7063596,178.659686 32.7015626,150.107648 C32.6955664,112.229312 32.3489844,74.2898933 29.1002279,36.5467214 C28.7140708,32.0642243 28.2175831,27.3347934 25.7243514,23.7334598 C24.0034339,21.2459273 21.4982098,19.5615793 19.0529479,17.9344159 L0.573771749,5.63581615 Z" id="Fill-1"></path>
            </g>
        </g>
    </g>
</svg>