<?xml version="1.0" encoding="UTF-8"?>
<svg width="31px" height="25px" viewBox="0 0 31 25" version="1.1" xmlns="http://www.w3.org/2000/svg" xmlns:xlink="http://www.w3.org/1999/xlink">
    <title>sound</title>
    <desc>Created with sketchtool.</desc>
    <defs></defs>
    <g id="mockup" stroke="none" stroke-width="1" fill="none" fill-rule="evenodd" fill-opacity="0.8">
        <g id="SHELTER" transform="translate(-965.000000, -3922.000000)" fill="#FFFFFF">
            <g id="Page-1" transform="translate(965.000000, 3922.000000)">
                <path d="M15.3622115,0.526634615 L8.47695513,4.92407051 C8.26862179,5.05740385 8.0263141,5.12823718 7.77855769,5.12823718 L1.29746795,5.12823718 C0.580801282,5.12823718 3.20512818e-05,5.70900641 3.20512818e-05,6.42567308 L3.20512818e-05,18.6394551 C3.20512818e-05,19.3561218 0.580801282,19.936891 1.29746795,19.936891 L7.77855769,19.936891 C8.0263141,19.936891 8.26862179,20.0077244 8.47695513,20.1410577 L15.3622115,24.5384936 C16.2259936,25.0900962 17.3580449,24.4699038 17.3580449,23.4449038 L17.3580449,1.62022436 C17.3580449,0.595224359 16.2259936,-0.0249679487 15.3622115,0.526634615" id="Fill-1"></path>
                <path d="M22.9592949,23.87375 C22.5980769,23.87375 22.2477564,23.6814423 22.061859,23.3423397 C21.7907051,22.8474679 21.9721154,22.2263141 22.4673077,21.9551603 C25.9134615,20.0673397 28.0541667,16.4567628 28.0541667,12.5324038 C28.0541667,8.60836538 25.9134615,4.99778846 22.4673077,3.10996795 C21.9721154,2.8388141 21.7907051,2.21766026 22.061859,1.72278846 C22.3326923,1.22823718 22.9535256,1.04554487 23.449359,1.31733974 C27.550641,3.5638141 30.0983974,7.86092949 30.0983974,12.5324038 C30.0983974,17.2041987 27.550641,21.5013141 23.449359,23.7477885 C23.2932692,23.8330449 23.125,23.87375 22.9592949,23.87375" id="Fill-4"></path>
                <path d="M20.5315705,19.4318269 C20.1703526,19.4318269 19.8200321,19.2398397 19.6341346,18.9004167 C19.3629808,18.4055449 19.544391,17.784391 20.0395833,17.5132372 C21.8616987,16.5145192 22.9934295,14.6061859 22.9934295,12.5324679 C22.9934295,10.4584295 21.8616987,8.55009615 20.0395833,7.55169872 C19.544391,7.28054487 19.3629808,6.65939103 19.6341346,6.16419872 C19.9052885,5.66932692 20.5267628,5.48727564 21.0216346,5.75907051 C23.4988782,7.11612179 25.0376603,9.71163462 25.0376603,12.5324679 C25.0376603,15.3533013 23.4988782,17.9484936 21.0216346,19.3058654 C20.8658654,19.3911218 20.6975962,19.4318269 20.5315705,19.4318269" id="Fill-8"></path>
            </g>
        </g>
    </g>
</svg>
