<?xml version="1.0" encoding="UTF-8"?>
<svg width="18px" height="25px" viewBox="0 0 18 25" version="1.1" xmlns="http://www.w3.org/2000/svg" xmlns:xlink="http://www.w3.org/1999/xlink">
    <title>sound-mute</title>
    <desc>Created with sketchtool.</desc>
    <defs></defs>
    <g id="mockup" stroke="none" stroke-width="1" fill="none" fill-rule="evenodd" fill-opacity="0.8">
        <g id="SHELTER" transform="translate(-965.000000, -3871.000000)" fill="#FFFFFF">
            <g id="Page-1-Copy-3" transform="translate(965.000000, 3871.000000)">
                <path d="M15.3622115,0.526634615 L8.47695513,4.92407051 C8.26862179,5.05740385 8.0263141,5.12823718 7.77855769,5.12823718 L1.29746795,5.12823718 C0.580801282,5.12823718 3.20512818e-05,5.70900641 3.20512818e-05,6.42567308 L3.20512818e-05,18.6394551 C3.20512818e-05,19.3561218 0.580801282,19.936891 1.29746795,19.936891 L7.77855769,19.936891 C8.0263141,19.936891 8.26862179,20.0077244 8.47695513,20.1410577 L15.3622115,24.5384936 C16.2259936,25.0900962 17.3580449,24.4699038 17.3580449,23.4449038 L17.3580449,1.62022436 C17.3580449,0.595224359 16.2259936,-0.0249679487 15.3622115,0.526634615" id="Fill-1"></path>
            </g>
        </g>
    </g>
</svg>
