<?xml version="1.0" encoding="UTF-8" standalone="no"?>
<!DOCTYPE svg PUBLIC "-//W3C//DTD SVG 1.1//EN" "http://www.w3.org/Graphics/SVG/1.1/DTD/svg11.dtd">
<svg width="100%" height="100%" viewBox="0 0 289 262" version="1.1" xmlns="http://www.w3.org/2000/svg" xmlns:xlink="http://www.w3.org/1999/xlink" xml:space="preserve" style="fill-rule:evenodd;clip-rule:evenodd;stroke-linejoin:round;stroke-miterlimit:1.41421;">
    <g id="tnvr-n-bg">
        <path id="Fill-1" d="M152.8,29.1C158,29.7 162.7,30.7 164.7,34.4C168.5,41.7 166.3,52.5 168.9,60.7C171.6,69 179.9,78 180.4,86.6C180.7,91.5 178,96 177.2,100.8C175.3,111.9 183.4,123.1 180.6,134C179.7,137.5 177.7,140.7 175.9,143.9C169.6,155.4 166.1,168.4 165.6,181.5C165.1,195.5 169.3,204.7 178.6,215.1C174,219.1 167.8,221.2 161.8,221C159.1,220.9 156.3,220.4 153.6,220.7C150.9,221 148,222.3 146.9,224.8C141.5,236.8 176.2,255.7 149.9,260.7C132.2,264.1 116.8,257 114.5,238.2C113.2,227.7 113.1,216.5 107.9,207.3C104.5,201.2 99,196.3 96.7,189.8C93,179.6 97.8,168.1 95.9,157.4C94.5,149.1 89.1,141.7 88.3,133.3C87.9,129 88.8,124.6 89.9,120.4C93.1,108.7 99.4,98.1 103.5,86.7C105.4,81.5 107.2,77.5 106.3,71.8C105.4,66.2 102.6,61.1 102.4,55.4C102.2,50 104.5,44.8 107,40C111,32.2 118.6,16.2 130.5,21C132.9,22 134.6,24.2 136.8,25.7C140.4,28.4 146.9,28.4 152.8,29.1" style="fill-opacity:0.0980392;fill-rule:nonzero;"/>
        <g id="wow">
            <path id="Fill-47" d="M115.5,15.5C116.8,10.3 114,4.2 108.5,3C107.6,2.8 107.4,6.3 108.6,6.6C111.8,7.3 114.9,10.5 114.3,14C114.1,14.9 115,17.5 115.5,15.5" style="fill:rgb(230,230,230);fill-rule:nonzero;"/>
            <path id="Fill-49" d="M188.5,47.4C191,45.2 194.3,44.5 197.5,45.4C198.4,45.6 198.6,42.1 197.4,41.8C194,40.9 190.6,42 188,44.5C187.5,45.1 187.8,48 188.5,47.4" style="fill:rgb(230,230,230);fill-rule:nonzero;"/>
            <path id="Fill-51" d="M155.9,13.6C157,9.7 159.4,6.4 162.4,3.8C163,3.3 162.8,0.4 162,0.9C158.1,3.5 155.7,7.6 154.8,12.2C154.6,13 155.4,15.4 155.9,13.6" style="fill:rgb(230,230,230);fill-rule:nonzero;"/>
            <path id="Fill-54" d="M161.4,19C162,17.7 163.1,16.7 164.4,16.1C164.9,15.9 164.7,14 164.1,14.3C162.6,15 161.5,16.3 160.8,17.8C160.6,18.2 160.7,18.7 160.8,19C161,19.3 161.2,19.3 161.4,19" style="fill:rgb(230,230,230);fill-rule:nonzero;"/>
            <path id="Fill-56" d="M89,48.3C84.6,45.3 79.5,44.5 74.4,45.8C73.3,46.1 73.6,49.4 74.5,49.2C79.4,48.1 84.2,48.7 88.7,50.7C89.6,51.1 89.6,48.7 89,48.3" style="fill:rgb(230,230,230);fill-rule:nonzero;"/>
            <path id="Fill-59" d="M88.8,55.2C86.1,55 83.6,55.5 81.2,56.6C80.3,57 80.7,60.2 81.6,59.7C83.9,58.5 86.3,57.9 88.9,57.9C89.7,57.9 89.6,55.2 88.8,55.2" style="fill:rgb(230,230,230);fill-rule:nonzero;"/>
        </g>
        <g id="dog">
            <path id="Fill-3" d="M85.8,146.9C83.8,147.6 82.1,147.9 80.3,149.3C78.7,150.6 77.4,152.3 76.4,154.2C74.7,157.7 74.2,161.6 74.5,165.5C74.8,171.4 78.2,176.7 81.5,181.3C82.2,182.3 83.2,183.2 84,184.1C85.2,185.7 86.4,187.1 87.8,188.6C89.7,190.6 91.7,192.5 94.1,193.9C95.9,194.9 97.8,195.6 99.9,195.9C101.9,196.2 103.8,195.8 105.7,196.2" style="fill:rgb(255,240,0);fill-rule:nonzero;"/>
            <path id="Fill-5" d="M159.5,132C159.7,123.9 159.6,115.7 157.8,107.8C154.4,92.7 145.4,79.8 136.4,67.8C125.5,53.3 121.9,76.3 118.7,83.5C117.8,85.4 116.7,87.2 115.7,89.1C108.8,102.8 106.7,116.6 110,131.8C110.1,132.4 110.3,133 110.4,133.6C111.8,134.6 113.2,135.7 114.4,137C113.2,135.8 111.8,134.6 110.4,133.6C111.8,140.2 114.4,146.4 115.2,153.1C115.3,154.2 115.4,155.4 115.3,156.5C129.2,160.9 144.2,161.7 158.4,158.8C157.9,156.3 158.2,153.1 158.8,149.2C158.3,149.1 157.7,149 157.2,148.8C157.7,148.8 158.2,148.9 158.8,148.9C159.1,143.3 159.3,137.7 159.5,132" style="fill:rgb(78,145,255);fill-rule:nonzero;"/>
            <path id="Fill-7" d="M173,201.2C172.6,200.2 172.5,199.1 172.7,197.9C174.3,190.6 183.5,186.7 188.3,182.5C193.6,177.9 199.3,172.6 200.1,165.2C200.6,160.5 199,155.7 197,151.6C196.1,149.9 195.2,148.2 193.8,147C189.7,143.4 183.8,145.3 178.9,147.3C172.7,149.9 164.4,155.5 158.2,153.3C152,151 147.8,152.5 141.2,152.5C132.2,152.5 123.3,151 114.7,148C113.5,160.6 104,151.6 98.3,148.7C94.1,146.5 89.1,145.2 84.8,147.2C80.3,149.2 77.5,154.5 77,159.9C76.5,165.3 78.2,170.6 80.7,175.2C83.7,180.7 87.8,185.3 92.2,189.4C94.5,191.5 105.1,195.8 102.4,200.6C100.9,203.2 94.8,205.5 92.3,206.9C88.4,209.2 84.4,211.4 80.4,213.4C79.6,213.8 78.7,214.2 78.2,215C77,216.9 78.3,219.4 79.5,221.3C80.8,223.2 82.2,225.1 84.2,225.8C85.5,226.2 86.8,226 88.1,225.7C92.2,224.6 95.6,221.6 98.9,218.7C102.7,215.4 106.5,212 110.3,208.7C113,206.3 117.7,204.8 119.2,201.2C121.2,196.3 116.7,191.6 118.1,186.9C118.9,184.3 121.4,182.9 123.8,182.1C131,179.5 138.9,178.9 146.4,180.3C154.2,181.8 162.7,187.3 163,196C163.1,198.6 161.1,202.3 161.8,204.8C162.4,207.1 166.1,209.5 167.7,211.1C172.3,215.4 177.1,219.4 182.1,223.1C183.2,223.9 184.5,224.7 185.8,224.6C187,224.5 187.9,223.6 188.8,222.7C190.6,221 192.4,219.3 194.2,217.6C194.9,216.9 195.7,215.9 195.2,215C195,214.6 194.7,214.4 194.3,214.2C189.9,211.6 175.6,207.7 173,201.2" style="fill:rgb(78,145,255);fill-rule:nonzero;"/>
            <path id="Fill-9" d="M133.4,42.5C133.2,39.8 135.9,35.6 136.7,33.5C137,32.7 137.2,31.9 136.8,31.1C136.2,30.1 134.8,30.1 133.7,30.3C126.7,31.7 121.6,37 117.6,42.8C113.8,48.2 110.5,55 110.7,61.8C110.7,63.3 111,64.8 111.7,66.1C112.6,67.7 114.1,68.8 115.6,69.9C120.9,73.8 126.1,77.9 130.8,82.4C134.9,86.2 135.8,92.1 140.5,95.3C141.5,96 142.6,96.6 143.7,97C147.5,98.1 151.5,96.3 154.8,94.2C157.7,92.3 160.4,90.6 163.5,89.1C165.4,88.1 167.4,86 168,83.9C168.8,81.1 167,77.5 165.4,75.3C162.1,70.8 157.3,66.1 154.6,61.2C152.8,57.9 151.8,53.2 152.5,49.5C153.2,45.5 155,41.7 154.9,37.6C154.9,37.3 154.9,36.9 154.7,36.6C154.4,36.2 153.8,36.1 153.2,36.1C148.3,36.3 143.4,41.1 140.9,45C140.1,46.2 134.3,44.9 133.7,43.4C133.5,43.1 133.5,42.8 133.4,42.5" style="fill:rgb(255,240,0);fill-rule:nonzero;"/>
            <path id="Fill-11" d="M136.1,42.6C136.2,39.2 136.8,35.8 137.9,32.5C138.2,31.7 137.5,30.8 136.6,30.9C133.5,31.2 130.6,32.8 128.3,34.9C121.4,41 114.1,52.4 114.5,61.8C114.5,63.3 114.8,64.8 115.5,66.1C116.4,67.7 117.9,68.8 119.4,69.9C124.7,73.8 129.9,77.9 134.6,82.4C138.2,85.8 139.3,91.5 143.9,93.9C145.9,94.9 148.2,95.1 150.3,94.3C152.2,93.6 153.7,92.2 155.6,91.4C158.5,90.2 161.8,90.6 164.8,89.7C167.5,88.9 171.1,86.7 171.9,83.8C172.7,81 170.9,77.4 169.3,75.2C166,70.7 161.2,66 158.5,61.1C155.9,56.4 156.1,49.6 155.5,44.3C155.3,42.6 155.9,39.7 156.1,38C156.2,37.1 155.3,36.4 154.4,36.7C150.4,38.4 147,41.3 144.6,44.9C144.3,45.4 143.7,45.6 143.1,45.4C141.1,44.8 139.2,44.3 137.1,44C136.4,43.9 136,43.3 136.1,42.6C136.1,42.7 136.1,42.6 136.1,42.6" style="fill:rgb(78,145,255);fill-rule:nonzero;"/>
            <path id="Fill-13" d="M131.2,53.3C131.2,54 130.8,54.7 130.7,55.3C130.6,56 130.4,57.2 129.5,57.3C128.8,57.3 128.4,56.4 128.5,55.6C128.6,54.6 128.9,53.6 129.3,52.6C129.4,52.4 129.5,52.1 129.7,52C130.2,51.6 130.9,52 131.1,52.5C131.1,52.7 131.2,53 131.2,53.3" style="fill:rgb(77,77,77);fill-rule:nonzero;"/>
            <path id="Fill-15" d="M152.6,80.2C152,80.9 151.5,81.7 151.5,82.6C152,82.8 152.6,82.7 153.2,82.7C155.8,82.3 158.3,81.7 160.8,80.8C160.8,79.7 160.3,78.7 159.5,77.9C158.7,77.2 157.7,76.7 156.6,76.4C156.5,76.4 156.4,76.4 156.4,76.4C156.3,76.4 156.2,76.5 156.1,76.6C154.8,77.7 153.7,78.9 152.6,80.2" style="fill:rgb(77,77,77);fill-rule:nonzero;"/>
            <path id="Fill-17" d="M144.7,55.8C144.9,55.3 145.1,54.7 145.5,54.3C145.9,53.9 146.6,53.7 147.1,54C147.3,55.4 147.2,56.9 146.8,58.2C146.7,58.8 146.5,59.3 146,59.7C145.6,60.1 144.9,60.3 144.4,59.9C143.8,58.8 144.3,57.2 144.7,55.8" style="fill:rgb(77,77,77);fill-rule:nonzero;"/>
            <path id="Fill-19" d="M110.1,95.7C113.7,92.1 117.9,96.1 119,99.9C120.1,103.5 119.7,107.8 118.5,111.3C117.7,113.8 116.4,115.9 115.8,118.5C114.8,122.6 113.9,126.7 112.2,130.6C107.7,141 100.2,128.3 95.9,124.7C93.2,122.4 90.7,119.8 89.1,116.6C87.8,114 87.6,110 90.2,108.8C96.3,106 97.9,115.7 102.5,116.2C103.6,116.3 104.6,115.4 105.1,114.4C106.7,111.6 106.8,108.2 107,105C107.2,101.8 107.7,98.3 109.9,95.9C110,95.8 110.1,95.8 110.1,95.7" style="fill:rgb(77,77,77);fill-rule:nonzero;"/>
            <path id="Fill-21" d="M109.5,91.8C111.3,91 113.5,90.7 115.3,91.6C117.5,92.7 118.6,95.3 118.9,97.8C119.3,100.6 119,103.4 118.1,106C117.4,108.1 116.3,110.1 115.3,112.1C113,116.7 111.1,121.6 109.8,126.6C109.6,127.4 109.4,128.2 109.1,128.9C108.2,131.4 104.9,131.8 103.4,129.6C99,123 90.8,118.8 88.2,110.9C87.7,109.3 88,107.5 89.2,106.3C91.2,104.3 93.8,105.5 95.9,106.7C98.1,108 100.4,109.2 102.6,110.5C99.2,103.8 102.6,94.7 109.5,91.8" style="fill:rgb(78,145,255);fill-rule:nonzero;"/>
            <path id="Fill-23" d="M102,136.4C101.8,136.7 101.5,136.9 101.2,137C97.7,138.9 93,138.9 89.4,137.1C88.1,136.4 86.8,135.5 86.4,134.2C86,133.2 86.2,132.1 86.3,131C87.2,124.5 86.8,117 89.1,110.8C89.6,109.5 90.1,108.2 91.3,107.6C92.3,107 93.7,107.2 94.7,107.8C95.7,108.4 96.5,109.4 97.1,110.4C99.3,114 99.6,118.1 100.2,122.2C100.8,126.6 101.9,130.8 102.2,135.3C102.2,135.7 102.2,136.1 102,136.4" style="fill:rgb(77,77,77);fill-rule:nonzero;"/>
            <path id="Fill-25" d="M99.9,134C99.7,134.3 99.5,134.5 99.2,134.6C96.1,136.5 92.1,136.5 88.9,134.7C87.7,134 86.7,133.1 86.3,131.8C86,130.8 86.1,129.7 86.2,128.6C86.8,123.4 87.3,118.2 87.5,113C87.6,110.9 87.7,108.8 88.8,107C89.9,105.3 92.4,104.2 94.1,105.4C95.3,106.2 95.7,107.8 96,109.2C97.7,117 99.4,124.9 100,132.8C100,133.3 100.1,133.7 99.9,134" style="fill:rgb(78,145,255);fill-rule:nonzero;"/>
            <path id="Fill-27" d="M155.4,108.6C156.2,107.7 157.3,107 158.6,106.6C162.1,105.5 164.1,107.3 164.9,110.6C165.5,113.1 165.9,115.7 166.1,118.3C166.2,119.3 166.9,125.8 166.2,126.2C172.2,122.7 178.8,120.2 185.6,119C187.3,118.7 187.5,122 187.4,123C187.2,125.3 185,127 183.2,128.3C180.2,130.7 177.1,133 173.9,135.2C172.7,136.1 171.4,136.9 170,137.4C163.9,139.4 159.5,132.9 156.6,128.5C153.7,123.8 151,113.4 155.4,108.6" style="fill:rgb(77,77,77);fill-rule:nonzero;"/>
            <path id="Fill-29" d="M152.7,102.3C156,96.7 163.5,98.4 165.6,103.8C168.3,110.6 168.8,117.3 168.5,124.6C174.5,121.1 181.1,118.6 187.9,117.3C189.7,117 189.9,120.8 189.6,122C189.2,123.7 188.6,124 187.1,124.7C183.1,126.7 179.2,127.8 175.5,130.5C172.6,132.6 169.3,135.3 165.9,134.2C164.3,133.7 163.1,132.3 162,131.1C156.3,124.4 151.1,116.4 151.3,107.6C151.5,105.8 151.8,103.9 152.7,102.3" style="fill:rgb(78,145,255);fill-rule:nonzero;"/>
            <path id="Fill-31" d="M200,139.7C198.8,140.4 197.5,141.1 196.2,141.1C194.1,141.2 192.2,139.6 190.9,137.9C189.4,135.9 188.5,133.6 187.6,131.4C186.6,129.1 185.3,126.9 184.5,124.4C184.2,123.6 184,123 184,122.1C184,120.7 183.9,119.5 185,118.5C185.5,118 186.1,117.7 186.7,117.3C186.9,117.2 187.2,117.1 187.4,117C187.8,117 188.2,117.2 188.6,117.5C190,118.5 191.3,120.3 192.1,121.9C192.7,123.2 193.3,124.6 194.2,125.7C196.5,128.5 198.6,131.5 200.5,134.5C201.3,135.7 202,137.4 201.2,138.6C201,139.1 200.5,139.4 200,139.7" style="fill:rgb(255,240,0);fill-rule:nonzero;"/>
            <path id="Fill-33" d="M201.5,138.7C200.3,139.4 199,140.1 197.7,140.1C195.6,140.2 193.7,138.6 192.4,136.9C190.9,134.9 190,132.6 189.1,130.4C188.3,128.5 187.5,126.5 186.7,124.6C186.2,123.3 185.6,121.9 185.5,120.5C185.4,119.6 185.6,118.7 186.1,117.9C186.6,117.2 187.6,116.7 188.5,117C189,117.2 189.4,117.6 189.8,117.9C194.5,122.7 198.6,127.9 202.2,133.5C203,134.7 203.7,136.4 202.9,137.6C202.5,138.1 202,138.4 201.5,138.7" style="fill:rgb(78,145,255);fill-rule:nonzero;"/>
            <path id="Fill-35" d="M177.8,191.9C177.8,191.9 177.9,191.9 177.8,191.9C177.7,191.7 177.5,191.6 177.3,191.5L177.8,191.9Z" style="fill:rgb(78,145,255);fill-rule:nonzero;"/>
            <path id="Fill-37" d="M124.1,234.7C124.1,236.9 124.4,239.2 125.2,241.3C127.4,246.9 132.9,250.6 138.5,252.8C143,254.6 148,255.8 152.9,255.4C154.9,255.3 155.6,252.6 153.9,251.5C148.6,248.2 143.9,244 140.1,239C138.2,236.5 136.5,233.8 135.8,230.7C134.5,225.5 136.1,220.2 138.4,215.2C139.3,213.2 136.9,211.4 135.2,212.7C128.4,217.8 124.1,226.2 124.1,234.7" style="fill:rgb(77,77,77);fill-rule:nonzero;"/>
            <path id="Fill-39" d="M169.4,172C173.1,168.5 174.8,163.9 178.1,160.1C179.8,158.2 181.5,156.2 183.8,155C182.1,154.6 180.3,155 178.7,155.8C172.6,159 169.1,166.5 165.4,172C165.1,172.5 164.8,172.9 164.7,173.5C164.7,174 165,174.7 165.6,174.7C166,174.7 166.3,174.5 166.6,174.3C167.6,173.5 168.5,172.8 169.4,172" style="fill:rgb(77,77,77);fill-rule:nonzero;"/>
        </g>
    </g>
    <g id="neuter">
        <path id="Fill-41" d="M178.4,195C176.4,200.3 172.6,204.8 168,208.1C160.8,213.4 151.9,215.7 143,216.8C137.1,217.5 131,217.7 125.1,216.3C115.2,213.9 106.8,206.9 101.5,198.2C96.2,189.5 93.9,179.2 93.7,169C93.6,164.1 94,159 96.2,154.5C98,150.7 101,147.6 104.3,145C117.8,134.4 137.3,132.4 152.8,139.7C168.3,147 179.1,163.2 180.3,180.4C180.6,185.3 180.2,190.4 178.4,195" style="fill:rgb(255,100,150);fill-rule:nonzero;"/>
        <path id="Fill-43" d="M165.7,192.3C163,197.1 158,200.2 152.8,202C148.8,203.4 144.5,204.2 140.2,204.3C130.7,204.5 121,201.1 114.4,194.3C107.8,187.5 104.6,177.1 107.2,168C110.7,155.7 124.3,147.9 136.9,149.3C149.5,150.7 160.5,160.3 165.4,172C168.1,178.4 169.1,186.1 165.7,192.3" style="fill:white;fill-rule:nonzero;"/>
        <path id="Fill-45" d="M108.4,189.7C112.1,194.4 113.1,196.9 116,202.1C121.6,196.2 127.3,190.2 133.5,184.9C144.2,175.8 156.6,168.7 166.3,158.5C163.5,155.4 163,154.9 159.9,152.2C159.5,151.8 159,151.4 158.5,151.4C158,151.4 157.6,151.7 157.2,151.9C140,163.4 123.7,176 108.4,189.7" style="fill:rgb(255,100,150);fill-rule:nonzero;"/>
    </g>
</svg>
