<?xml version="1.0" encoding="UTF-8" standalone="no"?><!DOCTYPE svg PUBLIC "-//W3C//DTD SVG 1.1//EN" "http://www.w3.org/Graphics/SVG/1.1/DTD/svg11.dtd"><svg width="100%" height="100%" viewBox="0 0 336 282" version="1.1" xmlns="http://www.w3.org/2000/svg" xmlns:xlink="http://www.w3.org/1999/xlink" xml:space="preserve" style="fill-rule:evenodd;clip-rule:evenodd;stroke-linejoin:round;stroke-miterlimit:1.41421;"><g id="tRight"><path id="Fill.-3" d="M242.5,159.8c-4.3,-11.1 1.3,-24.1 13.7,-25c7.4,-0.6 14.9,2.1 20.6,6.9c5.1,4.3 6.4,12.2 14,13.1c4.4,0.5 8.5,-2.1 12.6,-3.9c7.9,-3.6 17.1,-4.4 25.6,-2.3c1.8,0.4 3.5,1 4.9,2.2c1.4,1.2 2.3,3 1.8,4.8c-0.8,3.2 -5.2,3.9 -8.3,2.7c-3.1,-1.1 -5.8,-3.4 -9.1,-3.9c-3.6,-0.5 -7.1,1.4 -10.4,3c-4.9,2.3 -10,4.1 -15.2,5.8c-5.3,1.8 -10.6,3.6 -15.9,5.4c-6.5,2.2 -13.4,4.5 -20.2,3.1c-6.3,-1.3 -11.8,-5.9 -14.1,-11.9" style="fill:#4d4d4d;fill-rule:nonzero;"/><path id="Fill.-5" d="M176.9,167.4c5.7,-8.2 18.5,-9.8 26.8,-4.2c8.3,5.6 11.7,17 9.1,26.7c-2.6,9.7 -10.4,17.5 -19.6,21.4c-9.2,3.9 -19.7,4.3 -29.5,2.6c-4.1,13.4 -14.8,24.5 -27.8,29.6c-2.2,0.9 -4,-1.9 -2.4,-3.6c9.4,-9.9 17.2,-21.3 23.1,-33.7c0.3,-0.6 0.9,-1 1.5,-1c4.7,-0.4 8.8,-4.1 10.9,-8.3c2.3,-4.6 2.8,-9.8 3.4,-14.9c0.7,-5.1 1.6,-10.4 4.5,-14.6" style="fill:#4d4d4d;fill-rule:nonzero;"/><path id="Fill.-7" d="M248.4,118.9c0.9,4.6 1.7,9.3 0.1,13.9c-1.4,4 -4.6,7.1 -8.1,9.4c-12.1,8.2 -26.7,13.7 -40.6,18c-2.3,0.7 -4.6,1.3 -7,1.7c-12.1,2.2 -14.4,18.7 -3.1,23.8c8.3,3.8 17.4,6.1 26.5,6.6c13.7,0.8 27.8,-2.4 39.2,-10c11.4,-7.6 19.9,-19.9 21.9,-33.4c2.3,-14.9 -5.1,-27.9 -9.6,-41.8c-1.1,-3.4 -2.5,-7.1 -5.7,-8.8c-3.8,-2 -8.8,0.1 -11.5,3.5c-4,5.3 -3.2,11.2 -2.1,17.1" style="fill:#4e91ff;fill-rule:nonzero;"/><path id="Fill.-9" d="M172.7,166.9c0.8,-0.4 0.7,-1.5 -0.2,-1.7c-2.7,-0.7 -5.3,-1.6 -7.6,-3.1c-2.9,-2 -5.1,-5.2 -5.2,-8.7c0,-1.3 0.2,-2.7 0.7,-3.9c0.9,-2.6 2.5,-4.9 4.5,-6.7c0.6,-0.6 0.3,-1.6 -0.6,-1.6c-1.5,0 -3.1,0.5 -4.4,1.3c-1.9,1.2 -3.4,3 -4.8,4.9c-1.3,1.8 -2.5,3.8 -2.8,5.9c-0.6,3.4 1,6.9 3.3,9.5c2.3,2.7 5.5,4.6 9,5.2c2.8,0.4 5.7,0.1 8.1,-1.1" style="fill:#4e91ff;fill-rule:nonzero;"/><path id="Fill.-11" d="M245.4,74.7c-0.9,-0.7 -0.2,-2.2 0.9,-2c4.4,0.5 8.7,2.9 11.8,6.2c3.9,4.3 6.2,9.8 7.7,15.4c1.7,6 2.5,12.9 -0.9,18.2c-1.3,2 -3.1,4.1 -4.8,5.7c-2.1,1.9 -5.3,2.5 -7.7,3.8c-2.1,1.2 -3.9,2.8 -5.6,4.6c-1.6,1.8 -2.3,4.1 -3.9,5.9c-3.4,4 -9.5,4.5 -14.2,2.8c-4.4,-1.6 -8.1,-4.8 -11.6,-7.9c-2.3,-2.1 -2.8,-3.6 0,-5.1c2.7,-1.5 5.4,-3.6 7.7,-5.7c9,-8.2 11.2,-22.8 5.3,-33.4c-0.5,-0.8 0.1,-1.8 1.1,-1.8c3,0.1 5.9,0.9 8.5,2.3c1.4,0.8 2.7,1.7 4.2,2.1c2.4,0.6 5.1,-0.4 6.6,-2.3c-0.6,-3.3 -2.5,-6.5 -5.1,-8.8" style="fill:#4d4d4d;fill-rule:nonzero;"/><path id="Fill.-13" d="M243.3,73.2c-0.9,-0.7 -0.2,-2.2 0.9,-2c4.4,0.5 8.7,2.9 11.8,6.2c3.9,4.3 6.2,9.8 7.7,15.4c1.7,6 2.5,12.9 -0.9,18.2c-2.6,4.1 -5.9,5.3 -10,6.8c-4,1.5 -7,5 -9.6,8.2c-3.1,3.9 -6.6,8 -11.4,9.2c-6.3,1.5 -26.4,-6.3 -17.2,-13.8c2.6,-2.2 5.6,-4 8.1,-6.3c9,-8.2 11.2,-22.8 5.3,-33.4c-0.5,-0.8 0.1,-1.8 1.1,-1.8c3,0.1 5.9,0.9 8.5,2.3c1.4,0.8 2.7,1.7 4.2,2.1c2.4,0.6 5.1,-0.4 6.6,-2.3c-0.6,-3.3 -2.4,-6.5 -5.1,-8.8" style="fill:#4e91ff;fill-rule:nonzero;"/><path id="Fill.-15" d="M239.1,98.9c0.2,1.4 -0.2,2.7 -1,2.8c-0.8,0.1 -1.5,-1 -1.7,-2.4c-0.2,-1.4 0.2,-2.7 1,-2.8c0.7,-0.2 1.5,0.9 1.7,2.4" style="fill:#4d4d4d;fill-rule:nonzero;"/><path id="Fill.-17" d="M252.1,93.5c0.5,1.4 0.2,2.7 -0.5,2.9c-0.7,0.2 -1.7,-0.7 -2.1,-2.1c-0.5,-1.4 -0.2,-2.7 0.5,-2.9c0.7,-0.2 1.7,0.7 2.1,2.1" style="fill:#4d4d4d;fill-rule:nonzero;"/><path id="Fill.-19" d="M218.6,125.9c-0.7,0.1 -1.3,-0.6 -0.9,-1.2c1,-1.7 2.4,-3.1 4.1,-4.2c0.3,-0.2 0.6,-0.1 0.9,0c1.2,0.8 2.7,1.3 4,1.9c0.3,0.1 0.4,0.6 0.1,0.8c-0.1,0.1 -0.3,0.2 -0.5,0.3c-1.6,0.9 -3.4,1.3 -5.2,1.7c-0.8,0.2 -1.6,0.5 -2.5,0.7" style="fill:#4d4d4d;fill-rule:nonzero;"/><path id="Fill.-21" d="M239.8,162.4c-2.1,-11.8 6,-23.4 18.4,-21.8c7.4,0.9 14.2,5 18.8,10.8c4.2,5.3 3.9,13.2 11.2,15.6c4.2,1.4 8.7,-0.4 13.1,-1.4c8.5,-2 17.6,-1 25.5,2.7c1.6,0.8 3.3,1.7 4.4,3.1c1.1,1.4 1.6,3.4 0.9,5.1c-1.4,3 -5.9,2.8 -8.7,1.1c-2.8,-1.7 -5,-4.5 -8.2,-5.6c-3.5,-1.2 -7.2,0 -10.8,0.9c-5.3,1.3 -10.6,2 -16,2.7c-5.6,0.7 -11.1,1.5 -16.7,2.2c-6.8,0.9 -14,1.8 -20.4,-1c-6,-2.5 -10.4,-8.1 -11.5,-14.4" style="fill:#fff000;fill-rule:nonzero;"/><path id="Fill.-23" d="M190.1,206.3c2.5,-2.2 4.4,-4.9 6.5,-7.3c2.1,-2.5 4.5,-4.7 6.7,-7.2c3.1,-3.6 5.6,-7.6 7.4,-12c1.7,-4.2 3.2,-9.2 2.3,-13.8c0.4,-0.2 0.8,0.1 1.2,0.4c3.2,2.7 5.6,6.4 7,10.3c1,2.9 1.3,6 1.5,9c0,0.8 0,1.5 0.1,2.3c0,0.6 -0.2,1.5 0,2c0.3,1.1 2.4,1.1 3.4,1.1c3.8,0.1 7.6,-0.4 11.3,-1.3c2.9,-0.7 5.6,-2 8.6,-2.5c0,0.1 -0.1,0.2 -0.2,0.3c-2.3,1.4 -4.9,2.8 -7.4,3.9c-4.6,1.9 -9.8,1.6 -14.7,2.3c-2.3,0.3 -3.4,1.1 -4.3,3.2c-2.7,6.3 -7.5,11.3 -13.1,15c-6.3,4.2 -16.4,4.6 -23.6,3.8c-0.7,-0.1 -1.6,-0.3 -1.9,-1c-0.2,-0.5 -0.1,-1.1 0.2,-1.5c1.5,-3.4 6.3,-4.7 9,-7" style="fill:#4d4d4d;fill-rule:nonzero;"/><path id="Fill.-25" d="M181.6,169c4.9,-8.7 17.5,-11.5 26.3,-6.7c8.8,4.8 13.2,15.8 11.6,25.7c-1.6,9.9 -8.7,18.4 -17.5,23.2c-8.8,4.8 -19.2,6.2 -29.2,5.4c-2.8,13.7 -12.4,25.8 -24.8,32.1c-2.1,1.1 -4.2,-1.5 -2.7,-3.3c8.4,-10.8 15.1,-22.9 19.8,-35.7c0.2,-0.6 0.8,-1.1 1.4,-1.2c4.7,-0.8 8.4,-4.9 10.1,-9.3c1.8,-4.8 1.8,-10.1 2,-15.2c0,-5.2 0.5,-10.6 3,-15" style="fill:#4e91ff;fill-rule:nonzero;"/><g id="Group.-70"><path id="Fill.-68" d="M214.4,249.456c7.4,-1.4 14.3,-0.2 24.4,1.1c13,1.7 26.1,5.7 35.3,15.5c3.1,3.4 5.4,9.4 1.6,12c-1.4,1 -3.2,1 -4.9,1c-16.6,0.1 -32.1,-3.4 -48.1,-6.6c-16,-3.3 -32.7,-0.1 -48.4,3.3c-20.1,4.3 -41.4,9.2 -61,2.8c-1.3,-0.5 -2.7,-1.2 -2.8,-2.5c-0.1,-0.9 0.6,-1.7 1.3,-2.3c7.4,-7.3 18.2,-9.8 28.5,-10.2c10.3,-0.4 20.7,1 31,0.1c10.2,-0.8 20.2,-3.8 29.1,-8.8c5.3,-3 9.7,-4.6 14,-5.4" style="fill-opacity:0.0980392;fill-rule:nonzero;"/></g><path id="Fill.-71" d="M239.8,159.3c-2.1,-11.8 6,-23.4 18.4,-21.8c7.4,0.9 14.2,5 18.8,10.8c4.2,5.3 3.9,13.2 11.2,15.6c4.2,1.4 8.7,-0.4 13.1,-1.4c8.5,-2 17.6,-1 25.5,2.7c1.6,0.8 3.3,1.7 4.4,3.1c1.1,1.4 1.6,3.4 0.9,5.1c-1.4,3 -5.9,2.8 -8.7,1.1c-2.8,-1.7 -5,-4.5 -8.2,-5.6c-3.5,-1.2 -7.2,0 -10.8,0.9c-5.3,1.3 -10.6,2 -16,2.7l-16.7,2.2c-6.8,0.9 -14,1.7 -20.4,-1c-6,-2.5 -10.4,-8.1 -11.5,-14.4" style="fill:#4e91ff;fill-rule:nonzero;"/><path id="Fill.-73" d="M278.6,67.1c-0.7,2.7 -1.6,5.3 -2.8,7.8c-0.8,1.7 1.3,4.4 2.4,2c1.2,-2.7 2,-5.5 2.6,-8.4c0.3,-1.5 -1.7,-3.5 -2.2,-1.4" style="fill:#e6e6e6;fill-rule:nonzero;"/><path id="Fill.-75" d="M288.5,70.4c-3.2,2.6 -5.9,6.1 -8.6,9.3c-0.7,0.8 -0.8,1.9 -0.4,2.9c0.3,0.7 1.2,1.4 1.9,0.7c3,-3.1 6.2,-6.3 8.7,-9.9c0.7,-1 0,-4.2 -1.6,-3" style="fill:#e6e6e6;fill-rule:nonzero;"/><path id="Fill.-77" d="M291.1,84c-2.4,0.2 -4.8,0.8 -7.2,1.5c-1.7,0.6 -1.1,4.9 0.9,4.1c2.1,-0.8 4.2,-1.5 6.4,-1.9c1.6,-0.2 1.5,-3.9 -0.1,-3.7" style="fill:#e6e6e6;fill-rule:nonzero;"/></g><g id="tLeft"><path id="Fill.-1" d="M50.5,240.5c-0.7,1.5 -1.3,3.2 -2.4,4.5c-1.1,1.3 -3,2.1 -4.5,1.4c-1.6,-0.8 -2.1,-2.9 -1.6,-4.6c0.5,-1.7 1.7,-3.1 2.9,-4.4c5.8,-6.9 10.4,-14.7 15.2,-22.3c22.2,-35.6 49,-68.4 79.4,-97.3c2.1,0.6 1.4,3.7 0.2,5.5c-6.7,9.5 -16.8,16 -24.9,24.4c-3.7,3.8 -7,7.9 -10.2,12.1c-13.8,17.5 -27.7,35.1 -37.9,54.9c-2.6,5 -4.9,10.1 -8.2,14.7c-2.8,3.6 -6.1,7 -8,11.1" style="fill:#4d4d4d;fill-rule:nonzero;"/><path id="Fill.-27" d="M248.7,56.7c-14.3,3.9 -27.7,10.5 -40.5,17.7c-13.3,7.4 -25.9,15.6 -38.8,23.6c-4.6,2.8 -9.3,5.3 -13.7,8.4c-1,0.7 -9.7,6.7 -10.2,4c-0.3,-1.3 -0.9,-1.6 -1.5,-1.3c-1.4,-3.1 1,-7 2.7,-9.7c3.2,-5 7.4,-9.3 11.6,-13.4c6.7,-6.6 14,-12.5 21.3,-18.3c15.3,-12.1 33.8,-20.5 52.6,-25.6c8.1,-2.2 16.5,-3.8 24.9,-3.7c6.3,0.1 14.6,1 19.1,6.1c-6.1,8 -18.4,9.8 -27.5,12.2m30.4,-13.6c-4.1,-6.3 -12.1,-7.9 -19.1,-8.5c-8.7,-0.7 -17.5,1.1 -25.9,3.2c-20.5,5.2 -40.4,14.9 -56.7,28.2c-8.6,7 -17.2,14.2 -24.7,22.4c-4.3,4.6 -14.4,15.3 -9.8,22.4c0,0.3 -0.1,0.6 0,0.9c1.4,9.2 13.3,-0.8 16.9,-3.1c7.2,-4.6 14.6,-8.7 21.8,-13.4c7.4,-4.8 14.9,-9.4 22.5,-13.8c14.2,-8.2 28.8,-15.9 44.6,-20.5c10.5,-3.1 24.2,-4.8 30.5,-14.9c0.5,-0.9 0.4,-2.1 -0.1,-2.9" style="fill:#4d4d4d;fill-rule:nonzero;"/><g id="Group.-31"><path id="Fill.-29" d="M269.9,31.207c-11.2,-13.5 -30.8,-15.6 -47,-13.9c-4.5,0.5 -8.9,0.3 -13.2,-0.8c-5.5,-1.4 -10.5,-3.9 -16.1,-5.1c-11,-2.4 -22.3,0.9 -33.4,1c-11.1,0.1 -21.1,-6.2 -31.3,-9.6c-9.8,-3.3 -18.6,-2.2 -28.1,1.5c-4.8,1.8 -9.6,3.8 -14.7,5c-5.9,1.3 -11.9,0.8 -17.8,-0.2c-5.5,-0.9 -10.8,-2.1 -16.3,-2.6c-6,-0.5 -12.1,0 -18,0.9c-11.9,1.9 -36.8,8.1 -33.7,24.9c1.3,7.2 5.3,13 12.5,15c4.1,1.1 8.5,0.8 12.6,0.7c6.2,-0.1 11,1.7 15.9,5.5c3.8,2.9 7.3,5.7 11.9,7.3c4.6,1.6 9.6,1.9 14.4,2.5c6.2,0.7 11.4,2.3 16.7,5.7c3.6,2.3 7.2,4.8 11,6.8c4.1,2.3 8.6,3.7 13.2,4.5c4.1,0.8 8.2,1.3 11.9,3.6c3.2,2 5.6,5.1 7.9,7.9c3.2,3.8 7.5,6.9 9.4,11.6c0.8,1.9 2.3,-0.3 1.7,-1.6c-1.6,-4 -4.6,-6.9 -7.5,-9.9c-3,-3 -5.5,-6.6 -8.7,-9.4c-6.4,-5.6 -15.9,-4.9 -23.5,-7.9c-9.4,-3.8 -16.5,-11.5 -26.7,-13.6c-5.1,-1 -10.3,-1.2 -15.4,-2.1c-6,-1.2 -10.5,-4.3 -15.3,-8c-3.6,-2.8 -7.3,-4.8 -11.8,-5.6c-5.2,-0.9 -10.5,0.1 -15.6,-0.6c-10.3,-1.4 -17.3,-14.3 -9.6,-22.6c6.7,-7.2 19.5,-10.2 28.8,-11.9c11.8,-2.1 22.7,-0.4 34.3,1.7c9.2,1.6 17.6,0.8 26.3,-2.4c8.4,-3.1 16.2,-6.9 25.4,-6.1c9.2,0.9 17.7,5.9 26.3,9c9.3,3.4 18.3,2.7 27.9,1.7c4.5,-0.5 9.1,-0.9 13.6,-0.7c5.7,0.2 10.8,2.2 16.1,4.1c7.3,2.6 14,3.2 21.6,2.2c14.6,-1.9 33.1,1.6 43.9,12.4c0.4,0.4 0.7,-0.6 0.4,-0.9" style="fill:#fff;fill-rule:nonzero;"/></g><path id="Fill.-32" d="M65.7,43.5c12.5,2.3 24.4,7.4 35.7,13.2c11.1,5.7 22.6,11 31.7,19.6c0.8,0.8 1.3,-1.2 0.6,-1.8c-8.9,-8.4 -20.1,-13.7 -30.9,-19.1c-11.8,-5.9 -23.9,-10.9 -37,-13.1c-0.5,-0.1 -0.5,1.1 -0.1,1.2" style="fill:#4d4d4d;fill-rule:nonzero;"/><path id="Fill.-34" d="M113.2,55.7c10.3,1.7 19.9,8.9 27,16.2c0.5,0.5 0.8,-0.7 0.5,-1.1c-6.7,-7.6 -17.4,-14.5 -27.5,-16c-0.4,0 -0.4,0.8 0,0.9" style="fill:#4d4d4d;fill-rule:nonzero;"/><path id="Fill.-36" d="M114.7,71.7c4.8,-7 12.6,-11.2 19.9,-15.3c5.2,-2.9 10.1,-7.1 15.9,-8.5c0.7,-0.2 0.4,-1.6 -0.2,-1.7c-2.4,-0.4 -5.6,2.2 -7.5,3.4c-3.2,2 -6.3,4 -9.5,5.9c-7.1,4.1 -14.5,8.5 -19.1,15.5c-0.3,0.3 0.1,1.2 0.5,0.7" style="fill:#4d4d4d;fill-rule:nonzero;"/><path id="Fill.-38" d="M121.2,74.2c6.4,-6.7 14.7,-11.1 22.8,-15.5c9.2,-4.9 18.2,-10.1 27,-15.6c0.5,-0.3 0.3,-1.7 -0.3,-1.3c-9,5.2 -17.8,10.7 -27,15.7c-8.2,4.4 -16.5,8.9 -22.9,15.9c-0.2,0.2 0,1.2 0.4,0.8" style="fill:#4d4d4d;fill-rule:nonzero;"/><path id="Fill.-40" d="M76.7,51.8c2.6,-4.2 8.3,-8.3 13.1,-9.5c0.5,-0.1 0.3,-1.5 -0.3,-1.3c-4.9,1.9 -10.5,5.7 -13.3,10.2c0,0.3 0.3,1.1 0.5,0.6" style="fill:#4d4d4d;fill-rule:nonzero;"/><path id="Fill.-42" d="M192.3,43.2c6.6,-6.2 15.8,-8.3 24.4,-10.2c3.5,-0.7 6.9,-1.5 10.4,-2.1c2.8,-0.5 6.6,-0.5 9,-2.2c0.5,-0.4 0.3,-1.9 -0.5,-1.6c-3.2,1.5 -6.8,1.8 -10.3,2.5c-3.7,0.7 -7.3,1.6 -11,2.4c-7.8,1.8 -16.9,4 -22.4,10.3c-0.2,0.3 0,1.3 0.4,0.9" style="fill:#fff;fill-rule:nonzero;"/><path id="Fill.-44" d="M208.3,30c3.7,-1.9 8.5,-2.1 12.5,-2.9c1.4,-0.3 5.8,-0.3 6.1,-2.3c0.1,-0.8 -0.8,-1.8 -1.2,-0.7c-0.2,0.7 -7.2,1.8 -8.2,2.1c-3.1,0.7 -6.7,1.3 -9.5,2.9c-0.2,0.3 -0.1,1.1 0.3,0.9" style="fill:#fff;fill-rule:nonzero;"/><path id="Fill.-46" d="M212.2,25.9c3.2,2.2 7.1,5.2 7.9,9.2c0.2,1 1.2,0.6 1.1,-0.3c-0.3,-4.3 -5.4,-7.8 -8.6,-9.9c-0.6,-0.2 -0.8,0.8 -0.4,1" style="fill:#fff;fill-rule:nonzero;"/><path id="Fill.-48" d="M9,38.4c1.5,-4.9 7.4,-7.8 11.5,-10.1c4.1,-2.3 8.4,-4.6 12.7,-6.2c0.6,-0.2 0.4,-1.7 -0.3,-1.4c-5.3,2.1 -10.5,5.2 -15.4,8.2c-3.5,2.2 -7.9,5 -9,9.2c0,0.3 0.3,0.8 0.5,0.3" style="fill:#fff;fill-rule:nonzero;"/><path id="Fill.-50" d="M21.7,34.2c3.4,-3.5 7.7,-5.8 12.1,-8c4.6,-2.3 9.1,-5.1 13.9,-7c0.6,-0.2 0.4,-1.7 -0.3,-1.5c-4.8,1.9 -9.2,4.9 -13.8,7.2c-4.4,2.3 -8.7,4.7 -12.2,8.3c-0.3,0.4 -0.1,1.4 0.3,1" style="fill:#fff;fill-rule:nonzero;"/><path id="Fill.-52" d="M16.2,28.3c5.5,0.4 10.8,3.4 14.6,7.3c0.5,0.5 0.8,-0.8 0.4,-1.2c-3.7,-3.9 -9.7,-6.7 -15.1,-6.7c-0.2,0 -0.2,0.5 0.1,0.6" style="fill:#fff;fill-rule:nonzero;"/><path id="Fill.-54" d="M49.4,238.5c-0.7,1.5 -1.3,3.2 -2.4,4.5c-1.1,1.3 -3,2.1 -4.5,1.4c-1.6,-0.8 -2.1,-2.9 -1.6,-4.6c0.5,-1.7 1.7,-3.1 2.9,-4.4c5.8,-6.9 10.4,-14.7 15.2,-22.3c22.2,-35.6 49,-68.4 79.4,-97.3c2.1,0.6 1.4,3.7 0.2,5.5c-6.7,9.5 -16.8,16 -24.9,24.4c-3.7,3.8 -7,7.9 -10.2,12.1c-13.8,17.5 -27.7,35.1 -37.9,54.9c-2.6,5 -4.9,10.1 -8.2,14.7c-2.8,3.6 -6.1,7 -8,11.1" style="fill:#ff6496;fill-rule:nonzero;"/><path id="Fill.-56" d="M84.2,181.3c0.5,0.4 1.1,0.7 1.7,0.9c0.5,0.2 0.6,-0.9 0.2,-1c-0.6,-0.2 -1.1,-0.5 -1.7,-0.8c-0.3,-0.2 -0.5,0.7 -0.2,0.9" style="fill:#4d4d4d;fill-rule:nonzero;"/><path id="Fill.-58" d="M80.1,186.2c0.8,0.3 1.6,0.6 2.5,0.8c0.6,0.1 0.7,-1 0.2,-1.2c-0.8,-0.3 -1.7,-0.6 -2.5,-0.8c-0.6,-0.2 -0.7,1 -0.2,1.2" style="fill:#4d4d4d;fill-rule:nonzero;"/><path id="Fill.-60" d="M124.9,131.6c1.4,1.3 3.3,1.7 5.1,1.6c0.5,0 0.5,-1.2 0,-1.1c-1.7,0.2 -3.5,-0.1 -4.8,-1.2c-0.4,-0.3 -0.6,0.4 -0.3,0.7" style="fill:#4d4d4d;fill-rule:nonzero;"/><path id="Fill.-62" d="M59.2,219.1c1,0.6 2.2,1.2 3.4,1.1c0.4,0 0.4,-1 0,-1c-1.2,0 -2.2,0 -3.3,-0.5c-0.2,0 -0.3,0.4 -0.1,0.4" style="fill:#4d4d4d;fill-rule:nonzero;"/><path id="Fill.-64" d="M54.9,225.4c0.9,0.8 2,1.3 3.2,1.5c0.4,0.1 0.5,-1 0,-1.1c-1.1,-0.1 -2,-0.6 -2.9,-1.2c-0.4,-0.3 -0.6,0.6 -0.3,0.8" style="fill:#4d4d4d;fill-rule:nonzero;"/><path id="Fill.-66" d="M52.2,229.6c1.3,0.8 2.8,1.3 4.3,1.5c0.4,0.1 0.5,-1 0,-1.1c-1.4,-0.2 -2.8,-0.6 -4.1,-1.3c-0.4,-0.2 -0.5,0.7 -0.2,0.9" style="fill:#4d4d4d;fill-rule:nonzero;"/></g></svg>