<?xml version="1.0" encoding="utf-8"?>
<!-- Generator: Adobe Illustrator 16.0.0, SVG Export Plug-In . SVG Version: 6.00 Build 0)  -->
<!DOCTYPE svg PUBLIC "-//W3C//DTD SVG 1.1//EN" "http://www.w3.org/Graphics/SVG/1.1/DTD/svg11.dtd">
<svg version="1.1" id="圖層_1" xmlns="http://www.w3.org/2000/svg" xmlns:xlink="http://www.w3.org/1999/xlink" x="0px" y="0px"
	 width="175px" height="50px" viewBox="0 0 175 50" style="enable-background:new 0 0 175 50;" xml:space="preserve">
<g>
	<path style="fill:#ECF0F1;" d="M45.001,47.324c-12.309,0-22.284-9.854-22.284-22.164C22.717,12.854,32.692,3,45.001,3h85
		c12.305,0,22.281,9.854,22.281,22.16c0,12.31-9.977,22.224-22.281,22.224L45.001,47.324z"/>
	<g>
		<g>
			<path style="fill:#333333;" d="M80.821,29.66c1.342,0.421,2.767,0.911,3.647,1.275l-1.804,0.812
				c-0.824-0.421-2.291-1.022-3.76-1.457l1.035-0.631h-3.662l1.09,0.477c-1.146,0.673-2.977,1.274-4.431,1.611
				c-0.28-0.309-0.839-0.911-1.202-1.177c1.3-0.21,2.74-0.519,3.719-0.911h-1.873v-5.406h5.031c-0.126-0.28-0.42-0.715-0.671-0.967
				c0,0.098,0,0.168,0,0.238c-2.04,0.476-2.487,0.588-2.712,0.714l-0.027,0.015l-0.014-0.141c-0.084-0.28-0.28-0.658-0.42-0.826
				c0.238-0.112,0.545-0.378,0.545-0.938v-0.225h-0.671c-0.224,1.135-0.782,1.976-2.236,2.536c-0.14-0.309-0.503-0.827-0.769-1.051
				c1.062-0.322,1.496-0.826,1.678-1.485h-1.439v-1.036h1.09c-0.266-0.224-0.686-0.462-1.007-0.574
				c0.447-0.532,0.755-1.19,0.923-1.751l1.117,0.182c-0.055,0.183-0.111,0.364-0.182,0.532h0.699v-0.854h1.328v0.854h1.789v1.009
				h-1.789v0.603h2.055v1.036h-1.271v0.673l1.383-0.28c-0.041,0.21-0.056,0.462-0.069,0.7c0.964-0.238,1.384-0.574,1.579-1.093
				h-1.271v-1.036h0.797c-0.266-0.224-0.672-0.462-0.979-0.574c0.475-0.532,0.782-1.19,0.965-1.751l1.131,0.182
				c-0.055,0.183-0.125,0.364-0.195,0.547h0.671v-0.869h1.342v0.869h1.972V20.5H81.98v0.588h2.39v1.036h-1.648v0.701
				c0,0.294,0.027,0.308,0.182,0.308h0.405c0.182,0,0.224-0.084,0.266-0.672c0.224,0.182,0.712,0.35,1.062,0.42
				c-0.125,1.036-0.433,1.316-1.146,1.316h-0.797c-1.048,0-1.258-0.322-1.258-1.358v-0.715h-0.601
				c-0.21,1.009-0.756,1.682-2.125,2.13h4.193v5.406H80.821z M73.384,20.485c-0.112,0.21-0.251,0.406-0.392,0.603h1.523v-0.603
				H73.384z M75.202,25.767h6.01v-0.561h-6.01V25.767z M75.202,27.237h6.01v-0.574h-6.01V27.237z M75.202,28.708h6.01v-0.574h-6.01
				V28.708z M79.493,20.5c-0.112,0.195-0.252,0.392-0.392,0.588h1.537V20.5H79.493z"/>
			<path style="fill:#333333;" d="M99.598,22.391c-0.125,5.743-0.252,7.802-0.713,8.446c-0.321,0.477-0.656,0.631-1.16,0.715
				c-0.447,0.084-1.174,0.07-1.9,0.042c-0.028-0.448-0.195-1.148-0.489-1.583c0.685,0.042,1.313,0.056,1.621,0.056
				c0.224,0,0.364-0.042,0.489-0.237c0.322-0.379,0.447-2.115,0.531-6.612h-1.481c-0.21,3.698-0.964,6.64-3.662,8.503
				c-0.251-0.406-0.769-0.967-1.16-1.261c0.685-0.462,1.229-0.98,1.649-1.583c-2.139,0.532-4.431,1.064-6.137,1.471l-0.266-1.709
				c0.28-0.056,0.615-0.111,0.965-0.182v-9.245h4.85v8.25l0.602-0.126l0.154,1.317c0.936-1.457,1.271-3.264,1.397-5.436h-1.775
				v-1.568h1.831c0.014-0.953,0.014-1.947,0.014-3.012h1.636c0,1.051,0,2.059-0.028,3.012h3.033V22.391z M89.353,20.71v1.414h1.845
				V20.71H89.353z M91.198,23.581h-1.845v1.443h1.845V23.581z M89.353,28.176c0.587-0.112,1.202-0.252,1.845-0.378V26.48h-1.845
				V28.176z"/>
			<path style="fill:#333333;" d="M114.743,25.276c-0.629,1.135-1.412,2.157-2.32,3.067c0.377,1.079,0.811,1.723,1.23,1.723
				c0.293,0,0.461-0.672,0.531-2.325c0.363,0.393,0.922,0.771,1.369,0.953c-0.266,2.451-0.783,3.067-2.055,3.067
				c-1.02,0-1.803-0.841-2.404-2.213c-0.811,0.672-1.691,1.246-2.586,1.709c-0.237-0.393-0.698-0.967-1.104-1.345
				c1.076-0.49,2.152-1.177,3.117-1.976c-0.309-1.106-0.545-2.381-0.713-3.754h-2.838v1.597c0.713-0.126,1.439-0.266,2.152-0.392
				l0.126,1.513l-2.278,0.462v2.396c0,0.91-0.195,1.358-0.754,1.625c-0.546,0.266-1.385,0.336-2.517,0.322
				c-0.069-0.463-0.35-1.219-0.587-1.682c0.783,0.042,1.594,0.028,1.845,0.015c0.251,0,0.335-0.07,0.335-0.295v-2.03
				c-0.895,0.182-1.76,0.364-2.502,0.504l-0.404-1.681c0.797-0.126,1.803-0.28,2.906-0.477v-1.877h-2.641v-1.583h2.641v-1.597
				c-0.754,0.126-1.523,0.224-2.236,0.308c-0.069-0.405-0.293-1.022-0.475-1.4c1.957-0.266,4.123-0.714,5.549-1.177l1.118,1.415
				c-0.698,0.21-1.468,0.393-2.278,0.561v1.891h2.684c-0.111-1.261-0.154-2.563-0.168-3.838h1.748
				c-0.028,1.303,0.027,2.605,0.139,3.838h3.803v1.583h-3.635c0.112,0.841,0.252,1.653,0.406,2.367
				c0.502-0.603,0.964-1.232,1.327-1.905L114.743,25.276z M113.722,22.194c-0.363-0.645-1.229-1.639-1.985-2.312l1.259-0.854
				c0.741,0.645,1.663,1.569,2.068,2.228L113.722,22.194z"/>
			<path style="fill:#333333;" d="M121.766,19.127c-0.294,0.91-0.657,1.835-1.062,2.731v9.819h-1.58v-6.948
				c-0.266,0.406-0.559,0.785-0.838,1.121c-0.141-0.393-0.573-1.316-0.839-1.723c1.132-1.317,2.167-3.391,2.781-5.449
				L121.766,19.127z M125.665,24.771h-2.445v6.92h-1.537V19.393h3.982V24.771z M123.219,20.653v0.785h1.188v-0.785H123.219z
				 M124.407,23.511v-0.868h-1.188v0.868H124.407z M130.389,29.772c0,0.91-0.195,1.358-0.754,1.611
				c-0.574,0.252-1.439,0.294-2.74,0.28c-0.07-0.448-0.321-1.163-0.531-1.583c0.839,0.042,1.803,0.042,2.083,0.027
				c0.266,0,0.363-0.084,0.363-0.35v-4.987h-2.6v-5.379h4.179V29.772z M127.524,20.653v0.785h1.286v-0.785H127.524z M128.81,23.511
				v-0.868h-1.286v0.868H128.81z"/>
		</g>
	</g>
	<g>
		<g>
			<path style="fill:#333333;" d="M52.125,37c17.66-8.941,13.674-21.103,9.014-22.963c-5.717-2.279-9.014,2.134-9.014,2.134
				s-3.297-4.413-9.015-2.134C38.452,15.897,34.463,28.059,52.125,37z"/>
		</g>
		<path style="fill:#FFFFFF;" d="M53.932,24.543l-0.658-0.163v-2.748c0.879,0.359,1.047,1.038,1.092,1.387h2.096
			c-0.016-1.142-0.836-2.91-3.188-3.37v-1.437h-0.537v1.366c-0.508-0.044-0.936-0.037-1.223-0.023v-1.343h-0.537v1.392
			c-2.875,0.365-3.451,2.171-3.451,3.247c0,2.121,1.658,2.706,3.451,3.107v2.759c-0.887-0.297-1.232-0.912-1.262-1.439h-2.013
			c0,1.23,0.938,2.959,3.275,3.453v1.443h0.537V30.82c0.279,0.033,0.705,0.062,1.223,0.037v1.316h0.537v-1.359
			c1.377-0.186,3.453-0.898,3.453-3.461C56.727,25.982,55.542,24.905,53.932,24.543z M50.977,23.822
			c-0.508-0.109-1.326-0.344-1.326-1.139c0-0.683,0.631-1.038,1.326-1.192V23.822z M52.737,28.898
			c-0.506,0.035-0.936-0.006-1.223-0.053v-2.772l1.223,0.269V28.898z M52.737,24.256c-0.484-0.112-0.926-0.225-1.223-0.299v-2.549
			c0.283-0.023,0.711-0.023,1.223,0.078V24.256z M53.274,28.828v-2.361c0.834,0.219,1.385,0.498,1.385,1.156
			C54.659,28.412,54.038,28.715,53.274,28.828z"/>
	</g>
</g>
</svg>
