<?xml version="1.0" encoding="utf-8"?>
<!-- Generator: Adobe Illustrator 16.0.0, SVG Export Plug-In . SVG Version: 6.00 Build 0)  -->
<!DOCTYPE svg PUBLIC "-//W3C//DTD SVG 1.1//EN" "http://www.w3.org/Graphics/SVG/1.1/DTD/svg11.dtd">
<svg version="1.1" id="圖層_1" xmlns="http://www.w3.org/2000/svg" xmlns:xlink="http://www.w3.org/1999/xlink" x="0px" y="0px"
	 width="58.999px" height="50px" viewBox="0 0 58.999 50" style="enable-background:new 0 0 58.999 50;" xml:space="preserve">
<g>
	<path style="fill:#ECF0F1;" d="M7.217,24.88C7.217,12.574,17.191,2.6,29.5,2.6c12.305,0,22.281,9.975,22.281,22.28
		c0,12.31-9.977,22.284-22.281,22.284C17.191,47.164,7.217,37.189,7.217,24.88z"/>
	<path style="fill:#333333;" d="M31.297,36.6V26.017h3.551l0.533-4.125h-4.084V19.26c0-1.194,0.33-2.007,2.043-2.007l2.184-0.002
		v-3.688c-0.379-0.05-1.674-0.162-3.182-0.162c-3.148,0-5.305,1.923-5.305,5.453v3.038h-3.561v4.125h3.561V36.6H31.297z"/>
</g>
</svg>
