<?xml version="1.0" encoding="utf-8"?>
<!-- Generator: Adobe Illustrator 16.0.0, SVG Export Plug-In . SVG Version: 6.00 Build 0)  -->
<!DOCTYPE svg PUBLIC "-//W3C//DTD SVG 1.1//EN" "http://www.w3.org/Graphics/SVG/1.1/DTD/svg11.dtd">
<svg version="1.1" id="圖層_1" xmlns="http://www.w3.org/2000/svg" xmlns:xlink="http://www.w3.org/1999/xlink" x="0px" y="0px"
	 width="58.999px" height="50px" viewBox="0 0 58.999 50" style="enable-background:new 0 0 58.999 50;" xml:space="preserve">
<g>
	<path style="fill:#ECF0F1;" d="M7.217,24.998c0-12.306,9.975-22.28,22.281-22.28c12.305,0,22.283,9.975,22.283,22.28
		c0,12.31-9.979,22.284-22.283,22.284C17.191,47.282,7.217,37.308,7.217,24.998z"/>
	<g>
		<path style="fill:#333333;" d="M39.551,32.642c0,1.328-1.086,2.411-2.412,2.411H21.857c-1.326,0-2.41-1.083-2.41-2.411V17.36
			c0-1.327,1.084-2.412,2.41-2.412h15.281c1.326,0,2.412,1.085,2.412,2.412V32.642z"/>
		<path style="fill:#FFFFFF;" d="M21.775,23.456v8.352c0,0.516,0.422,0.938,0.939,0.938h13.666c0.514,0,0.936-0.422,0.936-0.938
			v-8.352H21.775z"/>
		<circle style="fill:#333333;" cx="29.479" cy="24.998" r="6.187"/>
		<circle style="fill:#FFFFFF;" cx="29.479" cy="24.998" r="3.862"/>
		<path style="fill:#FFFFFF;" d="M37.316,20.198c0,0.514-0.422,0.938-0.936,0.938h-2.102c-0.516,0-0.938-0.424-0.938-0.938v-2.101
			c0-0.517,0.422-0.938,0.938-0.938h2.102c0.514,0,0.936,0.422,0.936,0.938V20.198z"/>
	</g>
</g>
</svg>
