<?xml version="1.0" encoding="utf-8"?>
<!-- Generator: Adobe Illustrator 16.0.0, SVG Export Plug-In . SVG Version: 6.00 Build 0)  -->
<!DOCTYPE svg PUBLIC "-//W3C//DTD SVG 1.1//EN" "http://www.w3.org/Graphics/SVG/1.1/DTD/svg11.dtd">
<svg version="1.1" id="圖層_1" xmlns="http://www.w3.org/2000/svg" xmlns:xlink="http://www.w3.org/1999/xlink" x="0px" y="0px"
	 width="271.5px" height="50px" viewBox="0 0 271.5 50" style="enable-background:new 0 0 271.5 50;" xml:space="preserve">
<g>
	<polygon style="fill:#C6000B;" points="50.432,40.101 32.865,35.979 32.865,14.021 50.432,9.17 	"/>
	<polygon style="fill:#E50012;" points="5.966,48.52 33.413,35.979 33.413,14.021 5.966,1.48 	"/>
	<g>
		<path style="fill:#231815;" d="M152.574,13.065c0,0,1.068-0.473,1.336-1.628h2.37v1.984h-3.823L152.574,13.065z"/>
		<path style="fill:#231815;" d="M160.019,19.422c0,0,1.066-0.476,1.333-1.631h2.371v1.984H159.9L160.019,19.422z"/>
		<path style="fill:#231815;" d="M155.54,25.044c0,0,1.065-0.476,1.333-1.632h2.371v1.986h-3.823L155.54,25.044z"/>
		<rect x="139.742" y="13.044" style="fill:#231815;" width="16.529" height="0.744"/>
		<rect x="136.441" y="19.38" style="fill:#231815;" width="27.291" height="0.742"/>
		<rect x="145.282" y="24.973" style="fill:#231815;" width="12.867" height="0.799"/>
		<rect x="143.873" y="30.621" style="fill:#231815;" width="14.381" height="0.742"/>
		<rect x="143.873" y="35.71" style="fill:#231815;" width="14.381" height="0.743"/>
		<rect x="142.706" y="26.271" style="fill:#231815;" width="2.317" height="13.245"/>
		<rect x="156.869" y="25.14" style="fill:#231815;" width="2.386" height="14.429"/>
		<rect x="147.277" y="8.688" style="fill:#231815;" width="2.422" height="11.406"/>
		<path style="fill:#231815;" d="M158.953,10.539c0,0-6.23,12.37-24.692,19.726l0.234,0.656c0,0,17.99-5.107,26.661-19.023
			L158.953,10.539z"/>
	</g>
	<g>
		<path style="fill:#231815;" d="M123.689,13.211c0,0,1.066-0.474,1.333-1.63h2.372v1.986h-3.824L123.689,13.211z"/>
		<path style="fill:#231815;" d="M122.86,31.584c0,0,1.066-0.476,1.334-1.631h2.371v1.985h-3.824L122.86,31.584z"/>
		<rect x="108.006" y="13.222" style="fill:#231815;" width="19.374" height="0.742"/>
		<rect x="110.104" y="15.854" style="fill:#231815;" width="14.481" height="0.799"/>
		<rect x="110.139" y="18.701" style="fill:#231815;" width="14.482" height="0.742"/>
		<rect x="110.104" y="21.334" style="fill:#231815;" width="14.481" height="0.743"/>
		<rect x="110.104" y="24.039" style="fill:#231815;" width="14.481" height="0.742"/>
		<rect x="97.287" y="19.035" style="fill:#231815;" width="7.398" height="0.743"/>
		<rect x="102.66" y="18.985" style="fill:#231815;" width="2.425" height="6.441"/>
		<path style="fill:#231815;" d="M124.453,13.219c0,0,0.843-0.375,1.055-1.289h1.872v1.57h-3.022L124.453,13.219z"/>
		<path style="fill:#231815;" d="M102.155,19.007c0,0,0.844-0.375,1.055-1.289h1.873v1.57h-3.021L102.155,19.007z"/>
		<rect x="99.126" y="31.445" style="fill:#231815;" width="27.438" height="0.743"/>
		<path style="fill:#231815;" d="M123.612,31.442c0,0,0.843-0.374,1.054-1.288h1.874v1.57h-3.022L123.612,31.442z"/>
		<path style="fill:#231815;" d="M122.22,15.9c0,0,0.883-0.393,1.104-1.351h1.963v1.645h-3.166L122.22,15.9z"/>
		<path style="fill:#231815;" d="M102.629,19.029c0,0,0.706-0.315,0.884-1.082h1.572v1.317h-2.536L102.629,19.029z"/>
		<path style="fill:#231815;" d="M99.617,10.87l0.387-0.597c0,0,3.514,0.844,5.095,3.899l-1.827,1.302
			C103.271,15.475,101.268,11.68,99.617,10.87z"/>
		<path style="fill:#231815;" d="M110.686,8.812l0.338-0.41c0,0,2.319,0.262,3.964,2.729l-2.019,1.084
			C112.969,12.215,112.22,9.973,110.686,8.812z"/>
		<path style="fill:#231815;" d="M119.475,9.123c0,0-1.112,3.681-1.534,4.373h0.651c0,0,2.226-2.303,3.721-4.297L119.475,9.123z"/>
		<polygon style="fill:#231815;" points="98.071,26.866 102.85,24.687 103.202,25.284 99.617,29.502 		"/>
		<path style="fill:#231815;" d="M104.958,24.058c0,0,1.113,2.73,7.953,2.896c0,0,8.938,0.469,13.448-0.328v1.931
			c0,0-18.977,2.109-21.717-3.865L104.958,24.058z"/>
		<rect x="109.056" y="14.816" style="fill:#231815;" width="2.354" height="10.906"/>
		<rect x="122.893" y="15.892" style="fill:#231815;" width="2.388" height="9.87"/>
		<path style="fill:#231815;" d="M107.229,34.188l0.386-0.387c0,0,2.742,0.632,4.357,3.021l-1.825,1.581
			C110.147,38.403,107.967,34.433,107.229,34.188z"/>
		<path style="fill:#231815;" d="M117.813,29.63h2.384c0,0,0,7.892,0,7.912c0,0.782-0.187,1.539-0.826,2.009
			c-0.359,0.264-1.079,0.622-1.543,0.488c-0.606-0.176-0.493-0.95-0.818-1.354c-0.344-0.424-1.164-0.528-1.677-0.528l0.02-0.5h1.462
			c0,0,1.027,0.154,1.027-0.846C117.842,35.812,117.813,29.63,117.813,29.63z"/>
	</g>
	<g>
		<rect x="59.743" y="14.201" style="fill:#231815;" width="14.95" height="0.734"/>
		<rect x="77.095" y="11.287" style="fill:#231815;" width="9.116" height="0.735"/>
		<rect x="77.652" y="23.542" style="fill:#231815;" width="10.556" height="0.677"/>
		<rect x="65.426" y="9.246" style="fill:#231815;" width="2.401" height="10.887"/>
		<rect x="76.199" y="9.579" style="fill:#231815;" width="2.231" height="30.04"/>
		<rect x="65.426" y="25.765" style="fill:#231815;" width="2.401" height="14.032"/>
		<path style="fill:#231815;" d="M71.03,14.193c0,0,1.056-0.47,1.32-1.613h2.347v1.966h-3.784L71.03,14.193z"/>
		<path style="fill:#231815;" d="M71.03,31.063c0,0,1.056-0.469,1.32-1.614h2.347v1.967h-3.784L71.03,31.063z"/>
		<path style="fill:#231815;" d="M83.819,11.363c0,0,1.057-0.47,1.322-1.615h2.346v1.967h-3.786L83.819,11.363z"/>
		<path style="fill:#231815;" d="M71.144,25.365c0,0,1.056-0.47,1.319-1.615h2.348v1.968h-3.784L71.144,25.365z"/>
		<path style="fill:#231815;" d="M71.095,19.685c0,0,1.056-0.469,1.321-1.612h2.346v1.964h-3.785L71.095,19.685z"/>
		<rect x="58.555" y="19.695" style="fill:#231815;" width="16.205" height="0.735"/>
		<rect x="58.646" y="25.34" style="fill:#231815;" width="16.151" height="0.736"/>
		<path style="fill:#231815;" d="M71.895,25.305c0,0,0.835-0.373,1.043-1.276h1.855v1.554h-2.992L71.895,25.305z"/>
		<rect x="59.754" y="30.925" style="fill:#231815;" width="14.947" height="0.737"/>
		<path style="fill:#231815;" d="M61.981,21.25l0.511-0.302c0,0,1.925,1.949,2.783,3.711l-1.878,0.812
			C63.397,25.472,62.446,21.737,61.981,21.25z"/>
		<path style="fill:#231815;" d="M69.127,20.716l2.854,1.138c0,0-2.668,2.852-3.55,3.548l-0.371-0.232
			C68.06,25.169,68.803,22.896,69.127,20.716z"/>
		<path style="fill:#231815;" d="M85.158,11.282v7.596v0.539c0,0,0.124,1.084-0.791,1.084H83.41v0.538c0,0,1.372,0.085,1.372,0.876
			c0,0.788,2.705,1.372,2.705-2.498c0-3.868,0-8.218,0-8.218L85.158,11.282z"/>
		<path style="fill:#231815;" d="M85.805,23.514c0,0-0.813,9.638-6.73,16.34l0.249,0.408c0,0,7.694-6.639,8.941-16.537
			L85.805,23.514z"/>
		<path style="fill:#231815;" d="M79.819,25.122c0,0,1.669,8.862,9.881,12.517l-1.879,2.4c0,0-6.994-3.435-8.524-14.812
			L79.819,25.122z"/>
	</g>
	<g>
		<path style="fill:#231815;" d="M175.775,20.354h1.205v-7.392h-2.247v1.488h-1.178v-2.6h8.204v2.6h-1.178v-1.488h-2.248v7.392
			h1.205v1.056h-3.764V20.354z"/>
		<path style="fill:#231815;" d="M185.576,20.354h1.189v-7.459h-1.189v-1.044h3.75v1.044h-1.206v3.182h4.956v-3.182h-1.205v-1.044
			h3.75v1.044h-1.191v7.459h1.191v1.056h-3.75v-1.056h1.205v-3.168h-4.956v3.168h1.206v1.056h-3.75V20.354z"/>
		<path style="fill:#231815;" d="M199.762,20.354h1.191v-7.459h-1.191v-1.044h6.918v2.22h-1.177v-1.108h-3.196v3.071h3.386v1.112
			h-3.386v3.155h3.426v-1.152h1.178v2.261h-7.148V20.354z"/>
		<path style="fill:#231815;" d="M173.496,36.867h1.191v-7.461h-1.191v-1.043h4.143c0.678,0,1.232,0.027,1.762,0.203
			c1,0.339,1.664,1.179,1.664,2.479c0,1.381-0.758,2.367-1.977,2.681v0.026c0,0,0.244,0.136,0.406,0.446l1.354,2.356
			c0.148,0.258,0.326,0.312,0.663,0.312h0.285v1.056h-0.812c-0.812,0-1.001-0.149-1.326-0.72l-1.477-2.612
			c-0.243-0.405-0.419-0.526-1.001-0.526h-1.139v2.803h1.178v1.056h-3.723V36.867z M177.965,32.953c1.043,0,1.733-0.677,1.733-1.801
			c0-0.745-0.298-1.259-0.895-1.502c-0.312-0.122-0.718-0.177-1.178-0.177h-1.585v3.479H177.965z"/>
		<path style="fill:#231815;" d="M185.639,36.867h1.191v-7.461h-1.191v-1.043h6.918v2.22h-1.178v-1.109h-3.195v3.072h3.385v1.111
			h-3.385v3.155h3.427v-1.151h1.177v2.262h-7.148V36.867z"/>
		<path style="fill:#231815;" d="M196.9,36.867h1.193v-7.461H196.9v-1.043h4.455c0.582,0,1.164,0.041,1.639,0.258
			c0.988,0.42,1.625,1.434,1.625,2.708c0,1.34-0.705,2.423-1.802,2.802c-0.446,0.163-0.907,0.203-1.435,0.203h-1.936v2.533h1.205
			v1.056H196.9V36.867z M201.221,33.225c0.433,0,0.771-0.069,1.069-0.188c0.608-0.272,0.961-0.883,0.961-1.707
			c0-0.772-0.312-1.341-0.853-1.624c-0.298-0.164-0.704-0.231-1.164-0.231h-1.787v3.751H201.221z"/>
		<path style="fill:#231815;" d="M213.295,28.201c2.762,0,4.915,2.125,4.915,4.874c0,2.816-2.153,5.009-4.915,5.009
			c-2.775,0-4.914-2.192-4.914-5.009C208.381,30.326,210.52,28.201,213.295,28.201z M213.295,36.879c1.936,0,3.508-1.65,3.508-3.804
			c0-2.087-1.572-3.682-3.508-3.682c-1.95,0-3.521,1.595-3.521,3.682C209.774,35.229,211.345,36.879,213.295,36.879z"/>
		<path style="fill:#231815;" d="M222.188,36.867h1.191v-7.461h-1.191v-1.043h4.143c0.678,0,1.232,0.027,1.76,0.203
			c1.004,0.339,1.666,1.179,1.666,2.479c0,1.381-0.758,2.367-1.977,2.681v0.026c0,0,0.243,0.136,0.406,0.446l1.354,2.356
			c0.15,0.258,0.325,0.312,0.664,0.312h0.283v1.056h-0.811c-0.814,0-1.004-0.149-1.328-0.72l-1.476-2.612
			c-0.243-0.405-0.42-0.526-1.002-0.526h-1.137v2.803h1.179v1.056h-3.725V36.867z M226.655,32.953c1.044,0,1.733-0.677,1.733-1.801
			c0-0.745-0.299-1.259-0.895-1.502c-0.311-0.122-0.717-0.177-1.177-0.177h-1.584v3.479H226.655z"/>
		<path style="fill:#231815;" d="M236.172,36.867h1.204v-7.394h-2.247v1.489h-1.178v-2.6h8.205v2.6h-1.179v-1.489h-2.247v7.394
			h1.205v1.056h-3.764V36.867z"/>
		<path style="fill:#231815;" d="M245.971,36.867h1.192v-7.461h-1.192v-1.043h6.919v2.22h-1.178v-1.109h-3.195v3.072h3.384v1.111
			h-3.384v3.155h3.426v-1.151h1.178v2.262h-7.149V36.867z"/>
		<path style="fill:#231815;" d="M257.234,36.867h1.19v-7.461h-1.19v-1.043h4.143c0.678,0,1.23,0.027,1.76,0.203
			c1.002,0.339,1.666,1.179,1.666,2.479c0,1.381-0.758,2.367-1.977,2.681v0.026c0,0,0.243,0.136,0.406,0.446l1.353,2.356
			c0.149,0.258,0.325,0.312,0.664,0.312h0.284v1.056h-0.812c-0.812,0-1.002-0.149-1.326-0.72l-1.477-2.612
			c-0.243-0.405-0.42-0.526-1.002-0.526h-1.138v2.803h1.18v1.056h-3.724V36.867z M261.701,32.953c1.043,0,1.733-0.677,1.733-1.801
			c0-0.745-0.298-1.259-0.894-1.502c-0.311-0.122-0.717-0.177-1.178-0.177h-1.585v3.479H261.701z"/>
	</g>
</g>
</svg>
