<?xml version="1.0" encoding="utf-8"?>
<!-- Generator: Adobe Illustrator 16.0.0, SVG Export Plug-In . SVG Version: 6.00 Build 0)  -->
<!DOCTYPE svg PUBLIC "-//W3C//DTD SVG 1.1//EN" "http://www.w3.org/Graphics/SVG/1.1/DTD/svg11.dtd">
<svg version="1.1" id="圖層_1" xmlns="http://www.w3.org/2000/svg" xmlns:xlink="http://www.w3.org/1999/xlink" x="0px" y="0px"
	 width="123.666px" height="50px" viewBox="0 0 123.666 50" style="enable-background:new 0 0 123.666 50;" xml:space="preserve">
<g>
	<g>
		<path style="fill:#333333;" d="M27.695,26.67c0-0.251-0.083-0.444-0.249-0.581s-0.464-0.281-0.894-0.435
			c-0.898-0.283-1.563-0.587-1.997-0.91c-0.434-0.324-0.649-0.792-0.649-1.404c0-0.596,0.258-1.077,0.774-1.445
			c0.516-0.368,1.17-0.552,1.965-0.552c0.787,0,1.434,0.202,1.936,0.608c0.504,0.404,0.746,0.927,0.73,1.564l-0.01,0.029H27.7
			c0-0.283-0.096-0.514-0.288-0.691c-0.192-0.177-0.458-0.266-0.796-0.266c-0.332,0-0.592,0.073-0.781,0.22
			s-0.283,0.327-0.283,0.542c0,0.208,0.096,0.375,0.285,0.5c0.191,0.126,0.549,0.283,1.072,0.472
			c0.807,0.241,1.415,0.537,1.824,0.889c0.408,0.352,0.612,0.835,0.612,1.45c0,0.625-0.243,1.114-0.729,1.467
			c-0.487,0.354-1.133,0.53-1.937,0.53c-0.808,0-1.505-0.202-2.095-0.608c-0.59-0.404-0.875-0.988-0.859-1.75l0.01-0.029h1.606
			c0,0.41,0.11,0.703,0.332,0.879s0.557,0.264,1.006,0.264c0.342,0,0.597-0.068,0.765-0.205
			C27.611,27.07,27.695,26.892,27.695,26.67z"/>
		<path style="fill:#333333;" d="M37.113,25.64c0,0.876-0.277,1.598-0.833,2.165c-0.555,0.568-1.279,0.853-2.175,0.853
			c-0.901,0-1.632-0.284-2.192-0.853c-0.561-0.567-0.84-1.289-0.84-2.165V24.36c0-0.872,0.279-1.594,0.838-2.163
			c0.558-0.569,1.286-0.854,2.185-0.854c0.892,0,1.618,0.285,2.178,0.854s0.84,1.291,0.84,2.163V25.64z M35.468,24.351
			c0-0.508-0.119-0.925-0.359-1.25c-0.238-0.325-0.576-0.488-1.013-0.488c-0.446,0-0.787,0.162-1.022,0.485
			c-0.236,0.324-0.354,0.742-0.354,1.253v1.289c0,0.515,0.12,0.935,0.358,1.26c0.24,0.325,0.582,0.488,1.028,0.488
			c0.433,0,0.769-0.163,1.006-0.488s0.356-0.745,0.356-1.26V24.351z"/>
		<path style="fill:#333333;" d="M44.905,21.445v4.658c0,0.811-0.27,1.438-0.809,1.885c-0.538,0.446-1.244,0.669-2.116,0.669
			c-0.882,0-1.593-0.223-2.134-0.669s-0.811-1.074-0.811-1.885v-4.658h1.655v4.658c0,0.437,0.112,0.76,0.337,0.969
			c0.225,0.211,0.542,0.315,0.952,0.315c0.407,0,0.72-0.104,0.94-0.312c0.219-0.208,0.329-0.532,0.329-0.972v-4.658H44.905z"/>
		<path style="fill:#333333;" d="M48.645,25.83v2.725h-1.655v-7.109h2.734c0.824,0,1.477,0.19,1.958,0.571s0.723,0.901,0.723,1.562
			c0,0.368-0.097,0.684-0.29,0.947c-0.194,0.264-0.48,0.479-0.857,0.645c0.436,0.124,0.75,0.329,0.939,0.618
			c0.191,0.287,0.286,0.646,0.286,1.076v0.449c0,0.186,0.028,0.397,0.083,0.635s0.151,0.407,0.288,0.508v0.098h-1.699
			c-0.13-0.101-0.216-0.28-0.257-0.537c-0.04-0.257-0.061-0.495-0.061-0.713v-0.43c0-0.339-0.09-0.598-0.269-0.776
			s-0.44-0.269-0.786-0.269H48.645z M48.645,24.561h1.089c0.332,0,0.586-0.076,0.762-0.227c0.176-0.152,0.264-0.369,0.264-0.652
			c0-0.29-0.09-0.523-0.271-0.701c-0.18-0.177-0.436-0.266-0.764-0.266h-1.079V24.561z"/>
		<path style="fill:#333333;" d="M60.128,26.06l0.01,0.029c-0.033,0.833-0.279,1.47-0.74,1.909c-0.46,0.439-1.129,0.659-2.004,0.659
			c-0.879,0-1.594-0.271-2.144-0.811s-0.825-1.242-0.825-2.104v-1.484c0-0.859,0.265-1.561,0.793-2.102
			c0.529-0.543,1.217-0.813,2.063-0.813c0.898,0,1.585,0.227,2.061,0.679s0.743,1.096,0.806,1.929l-0.01,0.029h-1.606
			c-0.022-0.462-0.126-0.806-0.31-1.03c-0.185-0.225-0.498-0.337-0.94-0.337c-0.374,0-0.669,0.15-0.884,0.452
			c-0.215,0.301-0.322,0.695-0.322,1.184v1.494c0,0.491,0.117,0.889,0.352,1.191s0.557,0.454,0.967,0.454
			c0.396,0,0.679-0.105,0.845-0.317s0.261-0.549,0.283-1.011H60.128z"/>
		<path style="fill:#333333;" d="M66.46,25.513h-2.788v1.772h3.286v1.27h-4.941v-7.109h4.951v1.27h-3.296v1.528h2.788V25.513z"/>
		<path style="fill:#333333;" d="M77.732,26.06l0.01,0.029c-0.032,0.833-0.279,1.47-0.739,1.909
			c-0.461,0.439-1.129,0.659-2.005,0.659c-0.879,0-1.593-0.271-2.144-0.811s-0.825-1.242-0.825-2.104v-1.484
			c0-0.859,0.265-1.561,0.794-2.102c0.528-0.543,1.217-0.813,2.062-0.813c0.898,0,1.586,0.227,2.061,0.679s0.744,1.096,0.806,1.929
			l-0.01,0.029h-1.606c-0.023-0.462-0.126-0.806-0.311-1.03c-0.184-0.225-0.496-0.337-0.939-0.337c-0.375,0-0.669,0.15-0.884,0.452
			c-0.215,0.301-0.322,0.695-0.322,1.184v1.494c0,0.491,0.117,0.889,0.352,1.191s0.557,0.454,0.967,0.454
			c0.397,0,0.679-0.105,0.845-0.317s0.26-0.549,0.283-1.011H77.732z"/>
		<path style="fill:#333333;" d="M85.5,25.64c0,0.876-0.277,1.598-0.833,2.165c-0.555,0.568-1.279,0.853-2.175,0.853
			c-0.901,0-1.632-0.284-2.192-0.853c-0.561-0.567-0.84-1.289-0.84-2.165V24.36c0-0.872,0.279-1.594,0.838-2.163
			c0.558-0.569,1.286-0.854,2.185-0.854c0.892,0,1.618,0.285,2.178,0.854s0.84,1.291,0.84,2.163V25.64z M83.854,24.351
			c0-0.508-0.119-0.925-0.359-1.25c-0.238-0.325-0.576-0.488-1.013-0.488c-0.446,0-0.787,0.162-1.022,0.485
			c-0.236,0.324-0.354,0.742-0.354,1.253v1.289c0,0.515,0.12,0.935,0.358,1.26c0.24,0.325,0.582,0.488,1.028,0.488
			c0.433,0,0.769-0.163,1.006-0.488s0.356-0.745,0.356-1.26V24.351z"/>
		<path style="fill:#333333;" d="M87.457,28.555v-7.109h2.568c0.837,0,1.536,0.272,2.1,0.818c0.563,0.545,0.845,1.244,0.845,2.097
			v1.279c0,0.856-0.281,1.556-0.845,2.1s-1.263,0.815-2.1,0.815H87.457z M89.112,22.715v4.57h0.801c0.439,0,0.783-0.15,1.03-0.451
			c0.247-0.302,0.371-0.699,0.371-1.194v-1.289c0-0.491-0.124-0.887-0.371-1.187s-0.591-0.449-1.03-0.449H89.112z"/>
		<path style="fill:#333333;" d="M99.434,25.513h-2.788v1.772h3.286v1.27H94.99v-7.109h4.951v1.27h-3.296v1.528h2.788V25.513z"/>
	</g>
	<rect x="16.333" y="15" style="fill:none;stroke:#333333;stroke-width:2;stroke-miterlimit:10;" width="90" height="21"/>
</g>
</svg>
