<?xml version="1.0" encoding="UTF-8" standalone="no"?>
<svg width="180px" height="180px" viewBox="0 0 180 180" version="1.1" xmlns="http://www.w3.org/2000/svg" xmlns:xlink="http://www.w3.org/1999/xlink">
    <!-- Generator: Sketch 39.1 (31720) - http://www.bohemiancoding.com/sketch -->
    <title>icon_Tennis</title>
    <desc>Created with Sketch.</desc>
    <defs>
        <ellipse id="path-1" cx="90.4440559" cy="90.0471698" rx="74.4440559" ry="74.0471698"></ellipse>
        <filter x="-50%" y="-50%" width="200%" height="200%" filterUnits="objectBoundingBox" id="filter-2">
            <feOffset dx="0" dy="4" in="SourceAlpha" result="shadowOffsetOuter1"></feOffset>
            <feColorMatrix values="0 0 0 0 1   0 0 0 0 1   0 0 0 0 1  0 0 0 1 0" type="matrix" in="shadowOffsetOuter1"></feColorMatrix>
        </filter>
    </defs>
    <g id="Page-1" stroke="none" stroke-width="1" fill="none" fill-rule="evenodd">
        <g id="icon_Tennis">
            <g id="Oval-2">
                <use fill="black" fill-opacity="1" filter="url(#filter-2)" xlink:href="#path-1"></use>
                <use fill="#B1F3F8" fill-rule="evenodd" xlink:href="#path-1"></use>
            </g>
            <g id="Page-1" transform="translate(3.000000, 12.000000)">
                <g id="Group-11" transform="translate(5.000000, 0.796000)">
                    <path d="M153.9357,47.5754 C153.9357,38.0754 150.3157,28.5754 143.0657,21.3254 C128.5657,6.8354 105.0557,6.8354 90.5557,21.3254 L80.1057,31.7854 C65.6057,46.2854 65.6057,69.7954 80.1057,84.2854 C94.6057,98.7854 118.1057,98.7854 132.6057,84.2854 L143.0657,73.8354 C150.3157,66.5854 153.9357,57.0854 153.9357,47.5754 M105.3657,110.3254 C101.9957,110.3354 98.6057,109.8854 95.2957,108.9754 L87.5257,106.8354 C80.6657,104.5954 74.2157,100.7454 68.7857,95.2654 C66.0657,92.5254 63.7557,89.5354 61.8457,86.3754 C59.9357,83.2154 58.4357,79.8754 57.3457,76.4354 L55.2657,68.6454 C54.4057,65.4654 53.9857,62.2054 53.9857,58.9554 C53.9757,52.2754 55.7757,45.6654 59.3757,39.9054 C61.2557,36.8854 63.5157,34.0354 66.1457,31.4254 L83.2957,14.3954 C101.7857,-3.9546 131.6357,-3.8446 149.9957,14.6354 C159.1257,23.8354 163.6857,35.8454 163.6857,47.8554 C163.6857,59.9854 159.0357,72.1054 149.7557,81.3254 L132.6057,98.3554 C129.9657,100.9654 127.1057,103.2054 124.0757,105.0654 C118.4057,108.5554 111.9257,110.3054 105.3657,110.3254" id="Fill-1" fill="#FF5050"></path>
                    <path d="M143.0657,21.3254 C150.3157,28.5754 153.9357,38.0754 153.9357,47.5754 C153.9357,57.0854 150.3157,66.5854 143.0657,73.8354 L132.6057,84.2854 C118.1057,98.7854 94.6057,98.7854 80.1057,84.2854 C65.6057,69.7954 65.6057,46.2854 80.1057,31.7854 L90.5557,21.3254 C105.0557,6.8354 128.5657,6.8354 143.0657,21.3254" id="Fill-3" fill="#FFFFFF"></path>
                    <path d="M95.2957,108.9754 C98.6057,109.8854 101.9957,110.3354 105.3657,110.3254 L93.1457,111.8054 C77.1857,111.8454 61.5157,116.1354 47.7457,124.2254 L46.4957,124.9654 L39.4357,117.8954 L40.1657,116.6454 C48.2557,102.8754 52.5457,87.2054 52.5857,71.2454 L53.9857,58.9554 C53.9857,62.2054 54.4057,65.4654 55.2657,68.6454 L57.3457,76.4354 C58.4357,79.8754 59.9357,83.2154 61.8457,86.3754 C63.7557,89.5354 66.0657,92.5254 68.7857,95.2654 C74.2157,100.7454 80.6657,104.5954 87.5257,106.8354 L95.2957,108.9754 Z" id="Fill-5" fill="#FFFFFF"></path>
                    <path d="M31.9357,8.8754 C41.5557,8.8754 49.3657,16.6854 49.3657,26.3154 C49.3657,35.9454 41.5557,43.7554 31.9357,43.7554 C22.3057,43.7554 14.4957,35.9454 14.4957,26.3154 C14.4957,16.6854 22.3057,8.8754 31.9357,8.8754" id="Fill-7" fill="#FFBE64"></path>
                    <path d="M34.8457,135.5354 C36.0157,136.7054 36.0157,138.6054 34.8457,139.7754 L12.0257,162.5954 C10.8557,163.7654 8.9557,163.7654 7.7857,162.5954 L1.7957,156.6154 C0.6257,155.4354 0.6257,153.5454 1.7957,152.3654 L24.6157,129.5454 C25.7857,128.3754 27.6857,128.3754 28.8557,129.5454 L34.8457,135.5354 Z" id="Fill-9" fill="#FF5050"></path>
                </g>
                <path d="M52.1941,59.78 L52.1641,72.067 C52.1251,88.034 47.8391,103.703 39.7461,117.466 L39.0111,118.716" id="Stroke-12" stroke="#000000" stroke-width="5" stroke-linecap="round" stroke-linejoin="round"></path>
                <path d="M105.016,112.6019 L92.729,112.6319 C76.762,112.6709 61.093,116.9569 47.33,125.0499 L46.08,125.7849" id="Stroke-14" stroke="#000000" stroke-width="5" stroke-linecap="round" stroke-linejoin="round"></path>
                <path d="M56.5213,45.232 C54.2843,49.868 52.8513,54.796 52.2183,59.804" id="Stroke-16" stroke="#000000" stroke-width="5" stroke-linecap="round" stroke-linejoin="round"></path>
                <path d="M104.9341,112.52 C114.9521,111.254 124.6421,106.787 132.3351,99.094 L149.4261,82.003 C167.8431,63.587 167.8431,33.728 149.4261,15.312 L149.4261,15.312 C134.3601,0.246 111.6361,-2.495 93.7841,7.09" id="Stroke-18" stroke="#000000" stroke-width="5" stroke-linecap="round" stroke-linejoin="round"></path>
                <path d="M60.5078,73.937 C62.7278,80.807 66.5558,87.27 72.0118,92.727 L72.0118,92.727 C77.4688,98.183 83.9318,102.011 90.8018,104.231" id="Stroke-20" stroke="#000000" stroke-width="5" stroke-linecap="round" stroke-linejoin="round"></path>
                <path d="M31.5102,122.0425 L42.6962,133.2285" id="Stroke-22" stroke="#000000" stroke-width="5" stroke-linecap="round" stroke-linejoin="round"></path>
                <path d="M7.3607,163.4173 L1.3787,157.4353 C0.2067,156.2633 0.2067,154.3643 1.3787,153.1923 L24.1977,130.3743 C25.3687,129.2023 27.2687,129.2023 28.4397,130.3743 L34.4217,136.3563 C35.5937,137.5273 35.5937,139.4273 34.4217,140.5983 L11.6037,163.4173 C10.4317,164.5893 8.5327,164.5893 7.3607,163.4173 L7.3607,163.4173 Z" id="Stroke-24" stroke="#000000" stroke-width="5" stroke-linecap="round" stroke-linejoin="round"></path>
                <path d="M98.536,15.8449 C112.635,8.1049 130.696,10.2079 142.642,22.1539 L142.642,22.1539 C157.14,36.6519 157.14,60.1579 142.642,74.6559 L132.184,85.1139 C117.686,99.6119 94.18,99.6119 79.682,85.1139 L79.682,85.1139 C70.044,75.4759 66.813,61.8569 69.99,49.5499" id="Stroke-26" stroke="#000000" stroke-width="5" stroke-linecap="round" stroke-linejoin="round"></path>
                <path d="M138.5387,106.8898 L158.0727,87.3558 C179.1207,66.3078 179.1207,32.1828 158.0727,11.1348 L158.0727,11.1348" id="Stroke-28" stroke="#000000" stroke-width="3" stroke-linecap="round"></path>
                <path d="M25.8229,162.5355 L44.2799,144.0785 C48.7179,139.6405 53.7019,135.7845 59.1129,132.6025 L59.1139,132.6025 C70.4429,125.9405 83.3399,122.4125 96.4829,122.3805" id="Stroke-30" stroke="#000000" stroke-width="3" stroke-linecap="round"></path>
                <path d="M48.9459,27.1399 C48.9459,36.7689 41.1399,44.5759 31.5099,44.5759 C21.8809,44.5759 14.0749,36.7689 14.0749,27.1399 C14.0749,17.5109 21.8809,9.7039 31.5099,9.7039 C41.1399,9.7039 48.9459,17.5109 48.9459,27.1399 L48.9459,27.1399 Z" id="Stroke-32" stroke="#000000" stroke-width="5" stroke-linecap="round" stroke-linejoin="round"></path>
                <path d="M17.7858,16.8332 L21.1878,20.2322 C22.6368,21.6802 24.8968,21.7362 26.5348,20.5062 C27.9208,19.4652 29.6438,18.8482 31.5098,18.8482 C36.4208,18.8482 40.3338,23.1172 39.7428,28.1462 C39.3168,31.7582 36.4758,34.7442 32.8848,35.3212 C30.4698,35.7092 28.2088,35.0522 26.4808,33.7322 C24.8898,32.5172 22.6818,32.5522 21.2658,33.9682 L17.7858,37.4462" id="Stroke-34" stroke="#000000" stroke-width="3" stroke-linecap="round"></path>
                <path d="M63.7622,39.7701 C66.1092,36.2971 67.5122,31.9121 67.5122,27.1401 C67.5122,22.3681 66.1092,17.9821 63.7622,14.5101" id="Stroke-36" stroke="#000000" stroke-width="3" stroke-linecap="round"></path>
                <path d="M75.5477,39.7701 C77.8947,36.2971 79.2977,31.9121 79.2977,27.1401 C79.2977,22.3681 77.8947,17.9821 75.5477,14.5101" id="Stroke-38" stroke="#000000" stroke-width="3" stroke-linecap="round"></path>
                <path d="M87.3332,39.7701 C89.6802,36.2971 91.0832,31.9121 91.0832,27.1401 C91.0832,22.3681 89.6802,17.9821 87.3332,14.5101" id="Stroke-40" stroke="#000000" stroke-width="3" stroke-linecap="round"></path>
                <path d="M128.9438,29.1412 L86.1098,71.9752" id="Stroke-42" stroke="#000000" stroke-width="3" stroke-linecap="round"></path>
                <path d="M135.7414,39.4479 L100.8594,74.3299" id="Stroke-44" stroke="#000000" stroke-width="3" stroke-linecap="round"></path>
                <path d="M137.7741,54.5195 L113.8251,78.4685" id="Stroke-46" stroke="#000000" stroke-width="3" stroke-linecap="round"></path>
                <path d="M110.1089,38.055 L138.2289,66.175" id="Stroke-48" stroke="#000000" stroke-width="3" stroke-linecap="round"></path>
                <path d="M110.8234,56.0191 L129.1344,74.3301" id="Stroke-50" stroke="#000000" stroke-width="3" stroke-linecap="round"></path>
            </g>
        </g>
    </g>
</svg>