<svg xmlns="http://www.w3.org/2000/svg" viewBox="0 0 64.6 57.7"><title>twr_logo</title><path fill="#fff" d="M45.9 23.1l-10.5-2.5V7.5l10.5-2.9v18.5z"/><path fill="#fff" d="M19.3 28.1l16.4-7.5V7.5L19.3 0v28.1zM58 34.5a1.5 1.5 0 0 0 .8-1h1.4v1.2h-2.3v-.2zM62.4 38.2a1.5 1.5 0 0 0 .8-1h1.4v1.2h-2.3v-.2zM59.8 41.5a1.5 1.5 0 0 0 .8-1H62v1.2h-2.3v-.2z"/><path fill="#fff" d="M50.4 34.4h9.8v.44h-9.8zM48.5 38.2h16.1v.44H48.5zM53.7 41.5h7.6v.47h-7.6zM52.9 44.8h8.5v.44h-8.5zM52.9 47.8h8.5v.44h-8.5z"/><path fill="#fff" d="M52.2 42.3h1.4v7.83h-1.4zM60.6 41.6H62v8.53h-1.4zM54.9 31.9h1.4v6.74h-1.4z"/><path d="M61.8 33s-3.7 7.3-14.6 11.7v.3S57.8 42 63 33.8zM39.8 34.5a1.5 1.5 0 0 0 .8-1H42v1.2h-2.3v-.2zM39.4 45.4a1.5 1.5 0 0 0 .8-1h1.4v1.2h-2.3v-.2z" fill="#fff"/><path fill="#fff" d="M30.6 34.5h11.5v.44H30.6zM31.8 36.1h8.6v.47h-8.6zM31.9 37.8h8.6v.44h-8.6zM31.8 39.3h8.6v.44h-8.6zM31.8 40.9h8.6v.44h-8.6zM24.3 38h4.4v.44h-4.4z"/><path fill="#fff" d="M27.4 37.9h1.4v3.81h-1.4zM40.3 34.5a1.2 1.2 0 0 0 .6-.8H42v.9h-1.8v-.2z"/><path d="M27.1 38a1.2 1.2 0 0 0 .6-.8h1.1v.9H27V38zM25.3 45.3h16.2v.44H25.3z" fill="#fff"/><path d="M39.8 45.3a1.2 1.2 0 0 0 .6-.8h1.1v.9h-1.8v-.2zM39 36.1a1.2 1.2 0 0 0 .7-.8h1.2v1H39v-.2zM27.4 38a1 1 0 0 0 .5-.6h.9v.8h-1.5zM25.6 33.2l.2-.4a5 5 0 0 1 3 2.3l-1.1.8s-1.1-2.3-2.1-2.7zM32.2 31.9l.2-.2a3.6 3.6 0 0 1 2.3 1.6l-1.2.6a4.8 4.8 0 0 0-1.3-2zM37.4 32.1a24.9 24.9 0 0 1-.9 2.6h.4a32.5 32.5 0 0 0 2.2-2.5h-1.7zM24.7 42.6l2.8-1.3.3.4-2.2 2.5-.9-1.6zM28.8 41s.7 1.6 4.7 1.7a48.8 48.8 0 0 0 8-.2v1.1s-11.2 1.2-12.8-2.3z" fill="#fff"/><path fill="#fff" d="M31.2 35.5h1.4v6.45h-1.4zM39.4 36.1h1.4v5.84h-1.4zM30.1 46.9l.2-.2a4.7 4.7 0 0 1 2.6 1.8l-1.1.9s-1.3-2.3-1.7-2.5zM36.4 44.3h1.4V49a1.4 1.4 0 0 1-.5 1.2 1.3 1.3 0 0 1-.9.3 1.4 1.4 0 0 1-.5-.8 1.4 1.4 0 0 0-1-.3V49h.9a.5.5 0 0 0 .6-.5v-4.2zM.7 35.1h8.8v.44H.7zM11 33.4h5.4v.43H11zM11.3 40.6h6.2v.4h-6.2z"/><path fill="#fff" d="M4.1 32.2h1.4v6.44H4.1zM10.4 32.4h1.3v17.76h-1.3zM4.1 42h1.4v8.3H4.1zM7.4 35.1a1.5 1.5 0 0 0 .8-1h1.4v1.2H7.3v-.2zM7.4 45.1a1.5 1.5 0 0 0 .8-1h1.4v1.2H7.3v-.2zM14.9 33.5a1.5 1.5 0 0 0 .8-1h1.4v1.2h-2.2v-.2zM7.4 41.7a1.5 1.5 0 0 0 .8-1h1.4v1.2H7.4v-.2zM7.4 38.4a1.5 1.5 0 0 0 .8-1h1.4v1.2H7.3v-.2z"/><path fill="#fff" d="M0 38.4h9.6v.43H0zM.1 41.7h9.5v.43H.1z"/><path d="M7.9 41.7a1.2 1.2 0 0 0 .6-.8h1.1v.9H7.8v-.2zM.7 45h8.8v.44H.7zM2 39.3l.3-.2a10.4 10.4 0 0 1 1.6 2.2l-1.1.5a13.7 13.7 0 0 0-.8-2.5zM6.2 39l1.7.7s-1.6 1.7-2.1 2.1h-.2a18.8 18.8 0 0 0 .6-2.8zM15.7 33.4v4.8a.5.5 0 0 1-.5.6h-.6v.3s.8.1.8.5 1.6.8 1.6-1.5v-4.9h-1.4zM16.1 40.6s-.5 5.7-4 9.7v.2a17.2 17.2 0 0 0 5.3-9.8h-1.5z" fill="#fff"/><path d="M12.6 41.6a10.9 10.9 0 0 0 5.8 7.4l-1.1 1.4s-4.1-2-5-8.8h.3zM2 57.2h.5V54h-1v.6H1v-1.1h3.5v1.1H4V54H3v3.2h.5v.5H1.9v-.5zM6.2 57.2h.5V54h-.5v-.4h1.6v.4h-.5v1.4h2.1V54h-.5v-.4h1.6v.4H10v3.2h.5v.5H8.9v-.5h.5v-1.4H7.3v1.4h.5v.5H6.2v-.5zM12.3 57.2h.5V54h-.5v-.4h3v1h-.5V54h-1.4v1.3h1.5v.5h-1.5v1.4h1.5v-.5h.5v1h-3.1v-.5zM24.2 57.2h.5V54h-.5v-.4h2.5a1 1 0 0 1 .7 1.1 1.1 1.1 0 0 1-.8 1.2l.2.2.6 1h.4v.5h-.3a.5.5 0 0 1-.6-.3l-.6-1.1a.4.4 0 0 0-.4-.2h-.6v1.2h.5v.5h-1.6v-.5zm1.9-1.7a.7.7 0 0 0 .7-.8.6.6 0 0 0-.4-.6h-1.1v1.5h.8zM29.4 57.2h.5V54h-.5v-.4h3v1h-.5V54h-1.4v1.3H32v.5h-1.5v1.4H32v-.5h.5v1h-3.1v-.5zM34.3 57.2h.5V54h-.5v-.4h2.6a1.3 1.3 0 0 1-.1 2.4h-1.4v1.1h.5v.5h-1.6v-.5zm1.9-1.6h.5a.7.7 0 0 0 .4-.7.7.7 0 0 0-.4-.7h-1.3v1.6h.8zM41.3 53.5a2.1 2.1 0 0 1 2.1 2.1 2.1 2.1 0 1 1-4.2 0 2.1 2.1 0 0 1 2.1-2.1zm0 3.7a1.6 1.6 0 0 0 1.5-1.6 1.5 1.5 0 1 0-3 0 1.6 1.6 0 0 0 1.5 1.6zM45.1 57.2h.5V54h-.5v-.4h2.5a1 1 0 0 1 .7 1.1 1.1 1.1 0 0 1-.8 1.2l.2.2.6 1h.4v.5h-.4a.5.5 0 0 1-.6-.3l-.6-1.1a.4.4 0 0 0-.4-.2h-.5v1.2h.5v.5h-1.6v-.5zm1.9-1.7a.7.7 0 0 0 .7-.8.6.6 0 0 0-.4-.6h-1.2v1.5h.8zM51.1 57.2h.5V54h-1v.6h-.5v-1.1h3.5v1.1h-.5V54h-1v3.2h.5v.5H51v-.5zM55.3 57.2h.5V54h-.5v-.4h3v1h-.5V54h-1.4v1.3h1.5v.5h-1.5v1.4h1.5v-.5h.5v1h-3.1v-.5zM60.2 57.2h.5V54h-.5v-.4h2.5a1 1 0 0 1 .7 1.1 1.1 1.1 0 0 1-.8 1.2l.2.2.6 1h.4v.5h-.3a.5.5 0 0 1-.6-.3l-.6-1.1a.4.4 0 0 0-.4-.2h-.6v1.2h.5v.5h-1.6v-.5zm1.9-1.7a.7.7 0 0 0 .7-.8.6.6 0 0 0-.4-.6h-1.1v1.5h.8z" fill="#fff"/></svg>