<?xml version="1.0" encoding="utf-8"?>
<!-- Generator: Adobe Illustrator 18.0.0, SVG Export Plug-In . SVG Version: 6.00 Build 0)  -->
<!DOCTYPE svg PUBLIC "-//W3C//DTD SVG 1.1//EN" "http://www.w3.org/Graphics/SVG/1.1/DTD/svg11.dtd">
<svg version="1.1" xmlns="http://www.w3.org/2000/svg" xmlns:xlink="http://www.w3.org/1999/xlink" x="0px" y="0px"
	 viewBox="0 0 123.9 254.3" enable-background="new 0 0 123.9 254.3" xml:space="preserve">
<g id="圖層_1">
	<g>
		<ellipse opacity="0.2" cx="50.2" cy="243.1" rx="34.3" ry="11.2"/>
		<g>
			<g>
				<g id="XMLID_18_">
					<g>
						<path fill="#BDFFFF" d="M6.5,95.5c-4.8,2.6-7.3,8.1-6.2,13.4l3.9,19.3l11.3-2.8l-3.4-33L6.5,95.5z"/>
						<path fill="#FFE3C9" d="M4.1,128.2l7.6,37.7c0,0,3.3,8.5,11.8,14.7l-4-16.7l-4-38.5L4.1,128.2z"/>
						<path fill="#00D4C7" d="M15.4,125.4l4,38.5l9.8,4.4c1.3,0.6,2.6,0.9,3.9,0.9l6.7,0.2l0.2-30.5L34.7,94
							c-4.3-1.9-8.2-4.5-11.6-7.8l0,0L12,92.4L15.4,125.4z"/>
						<path fill="#008BAD" d="M23.4,180.7L35,228.6l0,0l15.1,4.1l15.1-4.1l0,0l15.6-64.7l-9.8,4.4c-1.3,0.6-2.6,0.9-3.9,0.9
							l-6.7,0.2l-10.2,0.3l-10.2-0.3l-6.7-0.2c-1.4,0-2.7-0.3-3.9-0.9l-9.8-4.4L23.4,180.7z"/>
						<path fill="#FFE3C9" d="M50.1,19.3c-21.5,0-38.9,17.4-38.9,38.9c0,11,4.6,20.9,11.9,28c3.3,3.3,7.3,5.9,11.6,7.8
							c4.7,2,9.9,3.2,15.5,3.2c5.5,0,10.7-1.1,15.4-3.2c4.3-1.9,8.3-4.5,11.6-7.8c7.3-7.1,11.9-17,11.9-28
							C89.1,36.8,71.6,19.3,50.1,19.3z"/>
						<path fill="#EFEFEF" d="M25.1,235.7c-0.8,0.5-1.1,1.5-0.8,2.4l1.1,3.6c0.3,0.9,1.1,1.5,2,1.5h22.7v-10.2v-0.2l-15.1-4.1l0,0.1
							L25.1,235.7z"/>
						<path fill="#BDFFFF" d="M34.7,94l5.4,44.9l-0.2,30.5l10.2,0.3l10.2-0.3l-0.2-30.5L65.6,94c-4.7,2.1-9.9,3.2-15.4,3.2
							C44.6,97.2,39.4,96.1,34.7,94z"/>
						<path fill="#EFEFEF" d="M50.1,232.9v10.2h22.7c0.9,0,1.7-0.6,2-1.5l1.1-3.6c0.3-0.9,0-1.8-0.8-2.4l-9.9-6.9l0-0.1l-15.1,4.1
							V232.9z"/>
						<path fill="#00D4C7" d="M84.9,125.4l3.4-33l-11.1-6.1l0,0c-3.3,3.3-7.3,5.9-11.6,7.8l-5.4,44.9l0.2,30.5l6.7-0.2
							c1.4,0,2.7-0.3,3.9-0.9l9.8-4.4l1.4-13.6L84.9,125.4z"/>
						<path fill="#FFE3C9" d="M84.9,125.4l-2.6,24.9l0.3,0c0,0,14.9,4,25.4,5.3c10.4,1.3,15.9-8,15.9-8L93.7,141l2.6-12.8
							L84.9,125.4z"/>
						<path fill="#BDFFFF" d="M88.3,92.4l-3.4,33l11.3,2.8l3.9-19.3c1.1-5.3-1.5-10.8-6.2-13.4L88.3,92.4z"/>
					</g>
				</g>
			</g>
			<path fill="#898989" d="M69.5,2.2c0.3-2.1,2.8-2.9,4.2-1.4c4.3,4.7,9.7,13.3,6.6,24c-4.7,16-29.4,14.7-42.9,12.7
				c-5.1-0.7-8.9-5.2-8.9-10.3v-0.5c0-5.9,4.9-10.7,10.8-10.4C50.9,16.8,67.9,15.3,69.5,2.2z"/>
			<g>
				<g>
					<path fill="#DBBEAD" d="M41,51.5h33.8c2,0,3.6-1.6,3.6-3.6s-1.6-3.6-3.6-3.6H41c-2,0-3.6,1.6-3.6,3.6S39,51.5,41,51.5z"/>
				</g>
				<g>
					<path fill="#DBBEAD" d="M60.8,65.9c2,0,3.6-1.6,3.6-3.6V47.9c0-2-1.6-3.6-3.6-3.6s-3.6,1.6-3.6,3.6v14.4
						C57.1,64.3,58.8,65.9,60.8,65.9z"/>
				</g>
			</g>
		</g>
	</g>
</g>
<g id="Layer_2">
</g>
</svg>
