<?xml version="1.0" encoding="utf-8"?>
<!-- Generator: Adobe Illustrator 18.0.0, SVG Export Plug-In . SVG Version: 6.00 Build 0)  -->
<!DOCTYPE svg PUBLIC "-//W3C//DTD SVG 1.1//EN" "http://www.w3.org/Graphics/SVG/1.1/DTD/svg11.dtd">
<svg version="1.1" xmlns="http://www.w3.org/2000/svg" xmlns:xlink="http://www.w3.org/1999/xlink" x="0px" y="0px"
	 viewBox="0 0 110 110" enable-background="new 0 0 110 110" xml:space="preserve">
<g id="Layer_1">
	<g>
		<g id="Layer_1_2_">
			<g>
				<path fill="#FFFFFF" d="M17.3,45H5c-2.8,0-5,2.2-5,5v55c0,2.8,2.2,5,5,5h12.2c2.8,0,5-2.2,5-5V50C22.3,47.2,20,45,17.3,45z"/>
				<path fill="#FFFFFF" d="M46.5,60H34.3c-2.8,0-5,2.2-5,5v40c0,2.8,2.2,5,5,5h12.2c2.8,0,5-2.2,5-5V65C51.5,62.2,49.3,60,46.5,60z
					"/>
				<path fill="#FFFFFF" d="M75.7,60H63.5c-2.8,0-5,2.2-5,5v40c0,2.8,2.2,5,5,5h12.2c2.8,0,5-2.2,5-5V65C80.7,62.2,78.5,60,75.7,60z
					"/>
				<path fill="#FFFFFF" d="M105,45H92.7c-2.8,0-5,2.2-5,5v55c0,2.8,2.2,5,5,5H105c2.8,0,5-2.2,5-5V50C110,47.2,107.8,45,105,45z"/>
				<path fill="#FFFFFF" d="M56.5,30.1v9c2.7-0.2,5.6-1.5,5.6-4.5C62.1,31.6,58.9,30.7,56.5,30.1z"/>
				<path fill="#FFFFFF" d="M48.6,19.3c0,2.3,1.7,3.6,5.1,4.3v-8.1C50.6,15.6,48.6,17.4,48.6,19.3z"/>
				<path fill="#FFFFFF" d="M55,0C39.8,0,27.5,12.3,27.5,27.5C27.5,42.7,39.8,55,55,55s27.5-12.3,27.5-27.5C82.5,12.3,70.2,0,55,0z
					 M56.5,43.8v2.8c0,0.8-0.6,1.5-1.4,1.5c-0.8,0-1.4-0.8-1.4-1.5v-2.8C46,43.6,42.2,39,42.2,35.4c0-1.8,1.1-2.9,2.8-2.9
					c5.1,0,1.1,6.3,8.7,6.6v-9.5c-6.7-1.2-10.8-4.2-10.8-9.2c0-6.2,5.1-9.4,10.8-9.5V8.4c0-0.8,0.6-1.5,1.4-1.5
					c0.8,0,1.4,0.8,1.4,1.5v2.4c3.5,0.1,10.8,2.3,10.8,6.8c0,1.8-1.3,2.8-2.9,2.8c-3,0-2.9-4.9-7.9-5v8.6c6,1.3,11.3,3,11.3,10
					C67.8,40.3,63.2,43.3,56.5,43.8z"/>
			</g>
		</g>
	</g>
</g>
<g id="Layer_2">
</g>
</svg>
