<?xml version="1.0" encoding="utf-8"?>
<!-- Generator: Adobe Illustrator 18.0.0, SVG Export Plug-In . SVG Version: 6.00 Build 0)  -->
<!DOCTYPE svg PUBLIC "-//W3C//DTD SVG 1.1//EN" "http://www.w3.org/Graphics/SVG/1.1/DTD/svg11.dtd">
<svg version="1.1" xmlns="http://www.w3.org/2000/svg" xmlns:xlink="http://www.w3.org/1999/xlink" x="0px" y="0px"
	 viewBox="0 0 110 106.8" enable-background="new 0 0 110 106.8" xml:space="preserve">
<g id="Layer_1">
	<g>
		<g>
			<path fill="#FFFFFF" d="M105.4,94H83.8L63.4,50.9c1.5-1.9,2.6-4.1,3.1-6.5l14-5L90.1,55c0.9,1.4,2.6,2.1,4.2,1.5l6.7-2.4
				c1.6-0.6,2.6-2.2,2.3-3.8l-3.1-21.8c-0.4-2.8-1.4-5.5-2.8-7.9L85.9,1.7c-0.9-1.4-2.6-2.1-4.2-1.5L75,2.6
				c-1.6,0.6-2.6,2.2-2.3,3.8l2.6,18.2l-14,5c-2.6-2.2-6-3.5-9.7-3.5c-7.5,0-13.7,5.3-15,12.3l-26.2,9.4c-4.1,1.5-6.2,5.9-4.7,10
				c0.7,1.9,2,3.4,3.8,4.3V94H4.6C2.1,94,0,95.9,0,98.4v4c0,2.5,2.1,4.4,4.6,4.4h100.9c2.5,0,4.6-1.9,4.6-4.4v-4
				C110,95.9,107.9,94,105.4,94z M51.6,35.7c3.1,0,5.7,2.5,5.7,5.6s-2.5,5.6-5.7,5.6c-3.1,0-5.7-2.5-5.7-5.6S48.5,35.7,51.6,35.7z
				 M16.6,94V62.2l21.5-7.7L19.5,94H16.6z M33.9,94l17.8-37.5c0,0,0,0,0,0L69.4,94H33.9z"/>
		</g>
	</g>
</g>
<g id="Layer_2">
</g>
</svg>
