<?xml version="1.0" encoding="utf-8"?>
<!-- Generator: Adobe Illustrator 18.0.0, SVG Export Plug-In . SVG Version: 6.00 Build 0)  -->
<!DOCTYPE svg PUBLIC "-//W3C//DTD SVG 1.1//EN" "http://www.w3.org/Graphics/SVG/1.1/DTD/svg11.dtd">
<svg version="1.1" xmlns="http://www.w3.org/2000/svg" xmlns:xlink="http://www.w3.org/1999/xlink" x="0px" y="0px"
	 viewBox="0 0 414.8 257.8" enable-background="new 0 0 414.8 257.8" xml:space="preserve">
<g id="Layer_1">
	<g>
		<g>
			<g>
				<g>
					<g id="XMLID_35_">
						<g>
							<path fill="#595757" d="M96.7,173.7l10.5,4.6c1.3,0.6,2.7,0.9,4.2,1l2.7,0.1l1.9-24.7l0.6-7.6L108.2,97v0
								c-2.8-1.6-5.3-3.6-7.6-5.8L83,101c-5.1,2.8-7.8,8.6-6.6,14.3l12.1,60.6L96.7,173.7z"/>
							<path fill="#FFE3C9" d="M96.7,173.7l-8.2,2.1v0c0,0,3.5,9,12.5,15.6L96.7,173.7z"/>
							<path fill="#898989" d="M144.7,179.4l-15.3,0.4l-15.3-0.4l-2.7-0.1c-1.4,0-2.9-0.4-4.2-1l-10.5-4.6l4.3,17.8l12.3,51l0,0
								l16,4.4l16-4.4l0,0l16.6-68.7l-10.5,4.6c-1.3,0.6-2.7,0.9-4.2,1L144.7,179.4z"/>
							<path fill="#FFE3C9" d="M134.4,102.5c5.9-0.7,11.3-2.6,16.1-5.5c2.7-1.6,5.3-3.6,7.6-5.8c7.8-7.5,12.7-18.1,12.7-29.7
								c0-22.9-18.5-41.4-41.4-41.4S88,38.6,88,61.4c0,11.7,4.8,22.3,12.6,29.8c2.3,2.2,4.8,4.2,7.6,5.8v0
								c4.8,2.9,10.3,4.8,16.1,5.5c1.6,0.2,3.3,0.3,5,0.3S132.8,102.7,134.4,102.5z"/>
							<path fill="#595757" d="M102.7,250c-0.8,0.6-1.2,1.6-0.9,2.5l1.2,3.8c0.3,0.9,1.2,1.6,2.1,1.6h24.1V247v-0.2l-16-4.4l0,0.2
								L102.7,250z"/>
							<path fill="#B5B5B6" d="M108.2,97l8.2,50.1l-0.6,7.6l5.4,0.4c0-0.2,0-0.3,0-0.5l4.5-45.3l0.1-0.2l-0.7-0.4
								c-0.8-0.5-1.3-1.4-1.2-2.3l0.3-3.8C118.5,101.8,113,99.9,108.2,97z"/>
							<path fill="#B5B5B6" d="M114,179.4l15.3,0.4l15.3-0.4l-1.9-25.2l-5.4,0.4c0.1,0.8,0,1.6-0.3,2.3l-3.6,9.8
								c-0.4,1-1.3,1.7-2.4,1.7h-1.8h-1.7c-1.1,0-2-0.7-2.4-1.7l-3.6-9.8c-0.2-0.6-0.3-1.2-0.3-1.8l-5.4-0.4L114,179.4z"/>
							<path fill="#898989" d="M121.4,154.6c0,0.2,0,0.3,0,0.5c0,0.6,0.1,1.2,0.3,1.8l3.6,9.8c0.4,1,1.3,1.7,2.4,1.7h1.7h1.8
								c1.1,0,2-0.7,2.4-1.7l3.6-9.8c0.3-0.7,0.4-1.5,0.3-2.3l-4.5-45.3l-0.1-0.2l-2.1,1.3c-0.8,0.5-1.9,0.5-2.7,0l-2-1.2l-0.1,0.2
								L121.4,154.6z"/>
							<path fill="#898989" d="M124.1,106.3c0,0.9,0.4,1.8,1.2,2.3l0.7,0.4l2,1.2c0.8,0.5,1.9,0.5,2.7,0l2.1-1.3l0.7-0.4
								c0.8-0.5,1.3-1.4,1.2-2.3l-0.2-3.8c-1.6,0.2-3.3,0.3-5,0.3s-3.4-0.1-5-0.3L124.1,106.3z"/>
							<path fill="#595757" d="M129.4,247v10.8h24.2c1,0,1.8-0.6,2.1-1.6l1.2-3.8c0.3-0.9-0.1-1.9-0.9-2.5l-10.6-7.4l0-0.2l-16,4.4
								V247z"/>
							<path fill="#B5B5B6" d="M132.8,109l0.1,0.2l4.5,45.3l5.4-0.4l-0.5-7.1l8.2-50.1c-4.8,2.9-10.3,4.8-16.1,5.5l0.2,3.8
								c0.1,0.9-0.4,1.8-1.2,2.3L132.8,109z"/>
							<path fill="#595757" d="M150.5,97l-8.2,50.1l0.5,7.1l1.9,25.2l2.7-0.1c1.4,0,2.9-0.4,4.2-1l10.5-4.6l1.5-14.3
								c0,0,12.1,2.8,22.1,4.7l3.2-11.7l-13.3-2.9l6.9-34.4c1.1-5.7-1.6-11.5-6.6-14.3l-17.7-9.8l0,0
								C155.8,93.4,153.3,95.4,150.5,97z"/>
							<path fill="#FFE3C9" d="M188.8,152.5l-3.2,11.7c1.8,0.3,3.6,0.7,5.2,0.9c10.2,1.7,16.9-8.5,16.9-8.5L188.8,152.5z"/>
						</g>
					</g>
				</g>
				<g>
					<g>
						<path fill="#DBBEAD" d="M120.5,54.3h35.9c2.1,0,3.9-1.7,3.9-3.9s-1.7-3.9-3.9-3.9h-35.9c-2.1,0-3.9,1.7-3.9,3.9
							S118.3,54.3,120.5,54.3z"/>
					</g>
					<g>
						<path fill="#DBBEAD" d="M141.5,69.5c2.1,0,3.9-1.7,3.9-3.9V50.4c0-2.1-1.7-3.9-3.9-3.9c-2.1,0-3.9,1.7-3.9,3.9v15.3
							C137.6,67.8,139.3,69.5,141.5,69.5z"/>
					</g>
					<path fill="#898989" d="M118.6,80.5h37.4c1.8,0,3.1-1.5,2.8-3.1l-1.8-8.5c-0.3-1.2-1.4-2.1-2.8-2.1h-33.9
						c-1.4,0-2.6,0.9-2.8,2.1l-1.8,8.5C115.5,79,116.8,80.5,118.6,80.5z"/>
				</g>
			</g>
			<g>
				<g>
					<g>
						<g id="XMLID_34_">
							<g>
								<path fill="#BDFFFF" d="M346.1,101.3c5.1,2.8,7.7,8.6,6.6,14.2l-4.1,20.5l-12-3l3.6-35L346.1,101.3z"/>
								<path fill="#FFE3C9" d="M348.6,136l-8,40c0,0-3.5,9-12.5,15.6l4.3-17.7l4.2-40.9L348.6,136z"/>
								<path fill="#00D4C7" d="M336.6,133l-4.2,40.9l-10.4,4.6c-1.3,0.6-2.7,0.9-4.2,1l-7.1,0.2l-0.2-32.3l5.7-47.6
									c4.6-2,8.7-4.8,12.3-8.2l0,0l11.7,6.5L336.6,133z"/>
								<path fill="#008BAD" d="M288.9,179.7l10.9,0.3l10.9-0.3l7.1-0.2c1.4,0,2.9-0.4,4.2-1l10.4-4.6l-4.3,17.7l-12.3,50.8l0,0
									l-16,4.4l-16-4.4l0,0l-16.6-68.6l10.4,4.6c1.3,0.6,2.7,0.9,4.2,1L288.9,179.7z"/>
								<path fill="#FFE3C9" d="M299.7,20.5c22.8,0,41.3,18.5,41.3,41.3c0,11.7-4.8,22.2-12.6,29.7c-3.5,3.5-7.7,6.2-12.3,8.2
									c-5,2.2-10.6,3.4-16.4,3.4s-11.3-1.2-16.4-3.4c-4.6-2-8.8-4.8-12.3-8.2c-7.8-7.5-12.6-18-12.6-29.7
									C258.4,39,276.9,20.5,299.7,20.5z"/>
								<path fill="#EFEFEF" d="M326.3,250c0.8,0.6,1.1,1.6,0.8,2.5l-1.2,3.8c-0.3,0.9-1.2,1.5-2.1,1.5h-24.1V247v-0.2l16-4.4l0,0.2
									L326.3,250z"/>
								<path fill="#BDFFFF" d="M316.1,99.7l-5.7,47.6l0.2,32.3l-10.9,0.3l-10.9-0.3l0.2-32.3l-5.7-47.6c5,2.2,10.6,3.4,16.4,3.4
									S311.1,101.9,316.1,99.7z"/>
								<path fill="#EFEFEF" d="M299.7,247v10.8h-24.1c-1,0-1.8-0.6-2.1-1.5l-1.2-3.8c-0.3-0.9,0-1.9,0.8-2.5l10.6-7.3l0-0.2l16,4.4
									V247z"/>
								<path fill="#00D4C7" d="M283.4,99.7l5.7,47.6l-0.2,32.3l-7.1-0.2c-1.4,0-2.9-0.4-4.2-1l-10.4-4.6L259.3,98l11.8-6.5l0,0
									C274.6,95,278.8,97.7,283.4,99.7z"/>
							</g>
						</g>
					</g>
					<path fill="#898989" d="M279.2,2.3c-0.3-2.2-3-3.1-4.5-1.5c-4.5,5-10.3,14.1-7,25.5c4.9,16.9,31.2,15.6,45.5,13.5
						c5.4-0.8,9.4-5.5,9.4-10.9v-0.5c0-6.3-5.2-11.3-11.5-11.1C298.9,17.9,280.9,16.2,279.2,2.3z"/>
					<g>
						<g>
							<path fill="#DBBEAD" d="M309.4,54.6h-35.8c-2.1,0-3.9-1.7-3.9-3.9s1.7-3.9,3.9-3.9h35.8c2.1,0,3.9,1.7,3.9,3.9
								S311.6,54.6,309.4,54.6z"/>
						</g>
						<g>
							<path fill="#DBBEAD" d="M288.5,69.9c-2.1,0-3.9-1.7-3.9-3.9V50.8c0-2.1,1.7-3.9,3.9-3.9s3.9,1.7,3.9,3.9V66
								C292.3,68.2,290.6,69.9,288.5,69.9z"/>
						</g>
					</g>
				</g>
				<path fill="#BDFFFF" d="M259.3,98l3.6,34.8l-7.9-4c-4.1-2.1-7.1-5.9-8.1-10.4l-4.9-22l16.1-2.6L259.3,98z"/>
				<path fill="#FFE3C9" d="M242,96.4l-11.5-51.3c0,0-2.7-14.6,8.4-21.8l19.2,70.5L242,96.4z"/>
			</g>
		</g>
		<g>
			<g>
				<path fill="#FFFFFF" d="M369.8,46.9h31c7.7,0,14-6.3,14-14V27c0-7.7-6.3-14-14-14h-31c-7.7,0-14,6.3-14,14v5.9
					C355.8,40.6,362.1,46.9,369.8,46.9z"/>
				<path fill="#FFFFFF" d="M361.1,33.8h-11.2c-1.7,0-2.6,1.9-1.6,3.3c3,3.8,9.2,9.6,18.8,9.6"/>
			</g>
			<g>
				<circle fill="#D1D3D4" cx="372.4" cy="29.9" r="2.6"/>
				<circle fill="#D1D3D4" cx="385.3" cy="29.9" r="2.6"/>
				<circle fill="#D1D3D4" cx="398.3" cy="29.9" r="2.6"/>
			</g>
		</g>
		<g>
			<g>
				<path fill="#FFFFFF" d="M45,100.5H14c-7.7,0-14-6.3-14-14v-5.9c0-7.7,6.3-14,14-14h31c7.7,0,14,6.3,14,14v5.9
					C59,94.3,52.8,100.5,45,100.5z"/>
				<path fill="#FFFFFF" d="M53.7,87.4h11.2c1.7,0,2.6,1.9,1.6,3.3c-3,3.8-9.2,9.6-18.8,9.6"/>
			</g>
			<g>
				<circle fill="#D1D3D4" cx="16.6" cy="83.6" r="2.6"/>
				<circle fill="#D1D3D4" cx="29.5" cy="83.6" r="2.6"/>
				<circle fill="#D1D3D4" cx="42.5" cy="83.6" r="2.6"/>
			</g>
		</g>
	</g>
</g>
<g id="Layer_2">
</g>
</svg>
