<?xml version="1.0" encoding="utf-8"?>
<!-- Generator: Adobe Illustrator 18.0.0, SVG Export Plug-In . SVG Version: 6.00 Build 0)  -->
<!DOCTYPE svg PUBLIC "-//W3C//DTD SVG 1.1//EN" "http://www.w3.org/Graphics/SVG/1.1/DTD/svg11.dtd">
<svg version="1.1" xmlns="http://www.w3.org/2000/svg" xmlns:xlink="http://www.w3.org/1999/xlink" x="0px" y="0px"
	 viewBox="0 0 111.7 231.6" enable-background="new 0 0 111.7 231.6" xml:space="preserve">
<g id="圖層_1">
	<g>
		<circle fill="none" stroke="#FFFFFF" stroke-miterlimit="10" cx="55.9" cy="55.9" r="55.4"/>
		<g>
			<g>
				<g id="XMLID_1_">
					<g>
						<path fill="#595757" d="M85.1,156.3l-9.4,4.1c-1.2,0.5-2.4,0.8-3.7,0.9l-2.4,0.1l-1.7-22.1l-0.5-6.8l7.4-44.8v0
							c2.5-1.5,4.8-3.2,6.8-5.2l15.8,8.7c4.5,2.5,6.9,7.7,5.9,12.8l-10.9,54.2L85.1,156.3z"/>
						<path fill="#FFE3C9" d="M85.1,156.3l7.3,1.9v0c0,0-3.1,8.1-11.2,14L85.1,156.3z"/>
						<path fill="#898989" d="M30.5,172.3l-3.9-16l9.4,4.1c1.2,0.5,2.5,0.8,3.7,0.9l2.4,0.1l13.7,0.4l13.7-0.4l2.4-0.1
							c1.3,0,2.6-0.3,3.7-0.9l9.4-4.1l-3.8,15.9l-11,45.6l0,0l-14.3,3.9l-14.3-3.9l0,0L30.5,172.3z"/>
						<path fill="#595757" d="M79.7,224.6c0.7,0.5,1,1.4,0.8,2.2l-1.1,3.4c-0.3,0.8-1,1.4-1.9,1.4H55.9v-9.7v-0.2l14.3-3.9l0,0.1
							L79.7,224.6z"/>
						<path fill="#B5B5B6" d="M67.4,132.5l0.5,6.8l-4.9,0.4c0-0.1,0-0.3,0-0.4l-4-40.6l-0.1-0.2l0.6-0.4c0.7-0.5,1.1-1.3,1.1-2.1
							l-0.2-3.4c5.2-0.6,10.1-2.3,14.4-4.9L67.4,132.5z"/>
						<path fill="#898989" d="M59,98.6l4,40.6c0,0.1,0,0.3,0,0.4c0,0.6-0.1,1.1-0.3,1.6l-3.2,8.8c-0.3,0.9-1.2,1.5-2.1,1.5h-1.5
							h-1.6c-1,0-1.8-0.6-2.1-1.5l-3.2-8.8c-0.2-0.6-0.3-1.3-0.3-2l4-40.6l0.1-0.2l1.8,1.1c0.7,0.5,1.7,0.5,2.4,0l1.8-1.1L59,98.6z"
							/>
						<path fill="#FFE3C9" d="M51.4,92.6c-5.2-0.6-10.1-2.3-14.4-4.9c-2.5-1.5-4.7-3.2-6.8-5.2c-7-6.7-11.3-16.2-11.3-26.6
							c0-20.4,16.6-37,37-37s37,16.6,37,37c0,10.5-4.3,19.9-11.3,26.6c-2,2-4.3,3.7-6.8,5.2v0c-4.3,2.6-9.2,4.3-14.4,4.9
							c-1.5,0.2-3,0.3-4.5,0.3S52.8,92.8,51.4,92.6z"/>
						<path fill="#595757" d="M55.9,221.9v9.7H34.2c-0.9,0-1.6-0.6-1.9-1.4l-1.1-3.4c-0.3-0.8,0.1-1.7,0.8-2.2l9.5-6.6l0-0.1
							l14.3,3.9V221.9z"/>
						<path fill="#898989" d="M55.9,92.9c1.5,0,3-0.1,4.5-0.3l0.2,3.4c0,0.8-0.4,1.6-1.1,2.1l-0.6,0.4l-1.8,1.1
							c-0.7,0.5-1.7,0.5-2.4,0l-1.8-1.1l-0.6-0.4c-0.7-0.5-1.1-1.3-1.1-2.1l0.2-3.4C52.8,92.8,54.3,92.9,55.9,92.9z"/>
						<path fill="#B5B5B6" d="M52.7,98.6l-4,40.6l-4.9-0.4l0.5-6.3l-7.4-44.8c4.3,2.6,9.2,4.3,14.4,4.9L51.1,96
							c-0.1,0.8,0.4,1.6,1.1,2.1l0.6,0.4L52.7,98.6z"/>
						<path fill="#B5B5B6" d="M67.9,139.3l1.7,22.1l-13.7,0.4l-13.7-0.4l1.7-22.6l4.9,0.4c-0.1,0.7,0,1.4,0.3,2l3.2,8.8
							c0.3,0.9,1.2,1.5,2.1,1.5h1.6h1.5c1,0,1.8-0.6,2.1-1.5l3.2-8.8c0.2-0.5,0.3-1,0.3-1.6L67.9,139.3z"/>
						<path fill="#595757" d="M26.6,156.3l-7.4,1.9L8.3,104c-1-5.1,1.4-10.3,5.9-12.8l15.9-8.7l0,0c2,2,4.3,3.7,6.8,5.2l7.4,44.8
							l-0.5,6.3l-1.7,22.6l-2.4-0.1c-1.3,0-2.6-0.3-3.7-0.9L26.6,156.3z"/>
						<path fill="#FFE3C9" d="M19.2,158.2l7.4-1.9l3.9,16C22.3,166.4,19.2,158.2,19.2,158.2L19.2,158.2z"/>
					</g>
				</g>
			</g>
			<g>
				<g>
					<path fill="#DBBEAD" d="M63.8,49.4H31.7c-1.9,0-3.5-1.6-3.5-3.5s1.6-3.5,3.5-3.5h32.1c1.9,0,3.5,1.6,3.5,3.5
						S65.7,49.4,63.8,49.4z"/>
				</g>
				<g>
					<path fill="#DBBEAD" d="M45,63.1c-1.9,0-3.5-1.6-3.5-3.5V46c0-1.9,1.6-3.5,3.5-3.5c1.9,0,3.5,1.6,3.5,3.5v13.7
						C48.5,61.5,46.9,63.1,45,63.1z"/>
				</g>
				<path fill="#898989" d="M65.4,72.9H32c-1.6,0-2.8-1.3-2.5-2.7l1.6-7.6c0.2-1.1,1.3-1.9,2.5-1.9h30.3c1.2,0,2.3,0.8,2.5,1.9
					l1.6,7.6C68.3,71.6,67.1,72.9,65.4,72.9z"/>
			</g>
		</g>
	</g>
</g>
<g id="Layer_2">
</g>
</svg>
