<?xml version="1.0" encoding="utf-8"?>
<!-- Generator: Adobe Illustrator 18.0.0, SVG Export Plug-In . SVG Version: 6.00 Build 0)  -->
<!DOCTYPE svg PUBLIC "-//W3C//DTD SVG 1.1//EN" "http://www.w3.org/Graphics/SVG/1.1/DTD/svg11.dtd">
<svg version="1.1" xmlns="http://www.w3.org/2000/svg" xmlns:xlink="http://www.w3.org/1999/xlink" x="0px" y="0px"
	 viewBox="0 0 108.9 252" enable-background="new 0 0 108.9 252" xml:space="preserve">
<g id="圖層_1">
	<g>
		<ellipse opacity="0.2" cx="58.7" cy="240.8" rx="34.3" ry="11.2"/>
		<g>
			<g>
				<g>
					<g id="XMLID_17_">
						<g>
							<path fill="#FFE3C9" d="M104.8,128.8l-7.6,37.8c0,0-3.3,8.5-11.8,14.7l4.1-16.7l4-38.6L104.8,128.8z"/>
							<path fill="#BDFFFF" d="M93.5,126l3.4-33.1l0-0.1l5.5,3.2c4.8,2.6,7.3,8.1,6.2,13.4l-3.9,19.4L93.5,126z"/>
							<path fill="#00D4C7" d="M93.5,126l-4,38.6l-9.9,4.4c-1.3,0.6-2.6,0.9-3.9,0.9L69,170l-0.2-30.5L75,88.1
								c1.8-1.5,3.4-3.2,4.8-5l17.2,9.8l0,0.1L93.5,126z"/>
							<path fill="#008BAD" d="M48.5,170l10.3,0.3L69,170l6.7-0.2c1.4,0,2.7-0.3,3.9-0.9l9.9-4.4l-4.1,16.7l-11.6,48l0,0l-15.1,4.1
								l-15.1-4.1l0,0L32,181.3L28,164.5l9.9,4.4c1.3,0.6,2.6,0.9,3.9,0.9L48.5,170z"/>
							<path fill="#EFEFEF" d="M83.8,236.3c0.8,0.5,1.1,1.5,0.8,2.4l-1.1,3.6c-0.3,0.9-1.1,1.5-2,1.5H58.7v-10.2v-0.2l15.1-4.1
								l0,0.1L83.8,236.3z"/>
							<path fill="#FFE3C9" d="M79.8,83.1c-1.4,1.8-3,3.5-4.8,5c-6.8,6-15.8,9.6-25.6,9.6c-1.9,0-3.8-0.1-5.7-0.4
								C37.1,96.4,31,93.8,26,90c-9.5-7.1-15.6-18.4-15.6-31.2c0-21.5,17.5-39,39-39s39,17.4,39,39C88.3,68,85.1,76.4,79.8,83.1z"/>
							<path fill="#BDFFFF" d="M75,88.1l-6.1,51.3L69,170l-10.3,0.3L48.5,170l0.2-30.5l-5.1-42.1c1.8,0.3,3.7,0.4,5.7,0.4
								C59.1,97.7,68.1,94.1,75,88.1z"/>
							<path fill="#EFEFEF" d="M58.7,233.6v10.2H36c-0.9,0-1.7-0.6-2-1.5l-1.1-3.6c-0.3-0.9,0-1.8,0.8-2.4l10-6.9l0-0.1l15.1,4.1
								V233.6z"/>
							<path fill="#00D4C7" d="M24,126l-3.4-33.1l5.4-3c5.1,3.8,11.1,6.4,17.7,7.4l5.1,42.1L48.5,170l-6.7-0.2
								c-1.4,0-2.7-0.3-3.9-0.9l-9.9-4.4L24,126z"/>
							<path fill="#FFE3C9" d="M28,164.5l4.1,16.8c-8.5-6.2-11.9-14.8-11.9-14.8l-7.6-37.8L24,126L28,164.5z"/>
							<path fill="#BDFFFF" d="M20.6,92.9L24,126l-11.4,2.8l-3.9-19.4C7.7,104.1,10.2,98.6,15,96L20.6,92.9z"/>
						</g>
					</g>
				</g>
				<path fill="#898989" d="M5.3,18.9c-1.2-1.7-3.9-1.2-4.4,0.8C-0.6,25.9-1.2,36,6.7,43.9c11.8,11.8,32.9-1.2,43.8-9.5
					c4.1-3.1,5.3-8.8,2.8-13.3l-0.2-0.4c-2.8-5.2-9.4-7-14.5-3.9C28.7,22.8,13,29.5,5.3,18.9z"/>
				<g>
					<g>
						<path fill="#DBBEAD" d="M54.1,48.4L24.4,64.7c-1.8,1-4,0.3-5-1.4c-1-1.8-0.3-4,1.4-5L50.6,42c1.8-1,4-0.3,5,1.4
							C56.5,45.2,55.8,47.5,54.1,48.4z"/>
					</g>
					<g>
						<path fill="#DBBEAD" d="M43.6,70.6c-1.8,1-4,0.3-5-1.4l-6.9-12.6c-1-1.8-0.3-4,1.4-5c1.8-1,4-0.3,5,1.4l6.9,12.6
							C46.1,67.4,45.4,69.6,43.6,70.6z"/>
					</g>
				</g>
			</g>
			
				<line fill="none" stroke="#727171" stroke-width="4" stroke-linecap="round" stroke-miterlimit="10" x1="93.1" y1="20.6" x2="93.1" y2="46.3"/>
			
				<line fill="none" stroke="#727171" stroke-width="4" stroke-linecap="round" stroke-miterlimit="10" x1="81" y1="2" x2="81" y2="37.6"/>
			
				<line fill="none" stroke="#727171" stroke-width="4" stroke-linecap="round" stroke-miterlimit="10" x1="70.4" y1="16" x2="70.4" y2="50.9"/>
		</g>
	</g>
</g>
<g id="Layer_2">
</g>
</svg>
