<?xml version="1.0" encoding="utf-8"?>
<!-- Generator: Adobe Illustrator 18.0.0, SVG Export Plug-In . SVG Version: 6.00 Build 0)  -->
<!DOCTYPE svg PUBLIC "-//W3C//DTD SVG 1.1//EN" "http://www.w3.org/Graphics/SVG/1.1/DTD/svg11.dtd">
<svg version="1.1" xmlns="http://www.w3.org/2000/svg" xmlns:xlink="http://www.w3.org/1999/xlink" x="0px" y="0px"
	 viewBox="0 0 279.5 378.9" enable-background="new 0 0 279.5 378.9" xml:space="preserve">
<g id="Layer_1">
	<g>
		<g>
			<g>
				<path fill="none" stroke="#FFFFFF" stroke-width="4" stroke-linecap="round" stroke-miterlimit="10" d="M128.1,93.3
					c1.3-1.7-10.9-35.6-48.4-72.9"/>
				<path fill="none" stroke="#FFFFFF" stroke-width="4" stroke-linecap="round" stroke-miterlimit="10" d="M178.6,117.4
					c0,0,5.4-32.1,54.7-58.4"/>
				<path fill="none" stroke="#FFFFFF" stroke-width="4" stroke-linecap="round" stroke-miterlimit="10" d="M120.7,100
					c0,0-6.8-22.9-41-40.3"/>
				<path fill="none" stroke="#FFFFFF" stroke-width="4" stroke-linecap="round" stroke-miterlimit="10" d="M178.6,85.9
					c0,0,7.3-20.2,27.4-44"/>
				<path fill="none" stroke="#FFFFFF" stroke-width="4" stroke-linecap="round" stroke-miterlimit="10" d="M166.2,95.4
					c0,0-0.6-18.7,5.9-36.4"/>
				<path fill="none" stroke="#27AAE1" stroke-width="8" stroke-linecap="round" stroke-miterlimit="10" d="M224.9,30
					c3.4,5.6,10.4,8.8,16.9,7.6"/>
				<path fill="none" stroke="#FFFF00" stroke-width="8" stroke-linecap="round" stroke-miterlimit="10" d="M133.6,65.9
					c-1,3.5-3.8,6.3-7.3,7.3"/>
				<path fill="none" stroke="#FFFF00" stroke-width="8" stroke-linecap="round" stroke-miterlimit="10" d="M275.5,88.4
					c-1,3.5-3.8,6.3-7.3,7.3"/>
				<path fill="none" stroke="#FFFF00" stroke-width="8" stroke-linecap="round" stroke-miterlimit="10" d="M48.2,125.7
					c-1,3.5-3.8,6.3-7.3,7.3"/>
				<path fill="none" stroke="#FFFF00" stroke-width="8" stroke-linecap="round" stroke-miterlimit="10" d="M139.4,4
					c-1,3.5-3.8,6.3-7.3,7.3"/>
				<path fill="none" stroke="#FF3232" stroke-width="8" stroke-linecap="round" stroke-miterlimit="10" d="M183.7,23.5
					c1.1,4.6,4.4,8.5,8.7,10.5"/>
				<path fill="none" stroke="#FF3232" stroke-width="8" stroke-linecap="round" stroke-miterlimit="10" d="M46.8,24.5
					c1.1,4.6,4.4,8.5,8.7,10.5"/>
				<path fill="none" stroke="#FF3232" stroke-width="8" stroke-linecap="round" stroke-miterlimit="10" d="M210.7,6.2c-1,1-2,2-3,3
					"/>
				<path fill="none" stroke="#FF3232" stroke-width="8" stroke-linecap="round" stroke-miterlimit="10" d="M234.9,147.3
					c-1,1-2,2-3,3"/>
				<path fill="none" stroke="#FF3232" stroke-width="8" stroke-linecap="round" stroke-miterlimit="10" d="M228.4,77.2
					c-1,1-2,2-3,3"/>
				<path fill="none" stroke="#FF3232" stroke-width="8" stroke-linecap="round" stroke-miterlimit="10" d="M7,102.7c-1,1-2,2-3,3"
					/>
				<path fill="none" stroke="#27AAE1" stroke-width="8" stroke-linecap="round" stroke-miterlimit="10" d="M115,48
					c1.5,2.5,1.9,5.7,1.1,8.4"/>
				<path fill="none" stroke="#27AAE1" stroke-width="8" stroke-linecap="round" stroke-miterlimit="10" d="M250.7,116.9
					c1.5,2.5,1.9,5.7,1.1,8.4"/>
				<path fill="none" stroke="#00FF00" stroke-width="8" stroke-linecap="round" stroke-miterlimit="10" d="M95.5,9.9
					c0.6,2.8,2.6,5.3,5.3,6.3"/>
				<path fill="none" stroke="#00FF00" stroke-width="8" stroke-linecap="round" stroke-miterlimit="10" d="M194.9,80.2
					c0.6,2.8,2.6,5.3,5.3,6.3"/>
				<path fill="none" stroke="#00FF00" stroke-width="8" stroke-linecap="round" stroke-miterlimit="10" d="M76.4,50.2
					c-2,1.4-4,2.7-6,4.1"/>
				<path fill="none" stroke="#00FF00" stroke-width="8" stroke-linecap="round" stroke-miterlimit="10" d="M54.1,90
					c-2,1.4-4,2.7-6,4.1"/>
				<path fill="none" stroke="#00FF00" stroke-width="8" stroke-linecap="round" stroke-miterlimit="10" d="M222.3,117
					c-2,1.4-4,2.7-6,4.1"/>
				<path fill="none" stroke="#FFFF00" stroke-width="8" stroke-linecap="round" stroke-miterlimit="10" d="M157.3,39
					c2.6,4.3,7.9,6.7,12.7,5.8"/>
				<path fill="none" stroke="#27AAE1" stroke-width="8" stroke-linecap="round" stroke-miterlimit="10" d="M73.1,92.7
					c3.4,5.6,7.3,9,13.8,7.8"/>
			</g>
		</g>
		<g>
			<g id="XMLID_36_">
				<g>
					<path fill="#FFE3C9" d="M200.5,144.4c11.1,7.2,8.4,21.8,8.4,21.8l-11.5,51.3l-16.1-2.6L200.5,144.4z"/>
					<path fill="#BDFFFF" d="M180.5,217.9l0.8-3.1l16.1,2.6l-4.9,22c-1,4.5-4,8.3-8.1,10.4l-7.9,4l3.6-34.8L180.5,217.9z"/>
					<path fill="#00D4C7" d="M176.6,253.9l-4.2,41.1l-10.5,4.6c-1.3,0.6-2.7,0.9-4.2,1l-7.1,0.2l-0.2-32.3l5.7-47.6
						c5-2.1,9.4-5.3,13.2-9.1l0.1,0.1l11.1,6.1l-0.3,1.2L176.6,253.9z"/>
					<path fill="#008BAD" d="M139.7,367.9l-16-4.4l0,0L107.1,295l10.4,4.6c1.3,0.6,2.7,0.9,4.2,1l7.1,0.2l10.9,0.3l10.9-0.3l7.1-0.2
						c1.5,0,2.9-0.4,4.2-1l10.5-4.6l-16.6,68.6l0,0L139.7,367.9z"/>
					<path fill="#FFE3C9" d="M139.7,141.6c22.8,0,41.3,18.5,41.3,41.3c0,11.2-4.5,21.4-11.7,28.8c-3.7,3.8-8.2,6.9-13.2,9.1
						c-5,2.2-10.6,3.4-16.4,3.4c-5.8,0-11.4-1.2-16.4-3.4c-4.6-2-8.7-4.8-12.3-8.2c-7.8-7.5-12.6-18-12.6-29.7
						C98.4,160.1,116.9,141.6,139.7,141.6z"/>
					<path fill="#EFEFEF" d="M166.3,371.1c0.8,0.6,1.2,1.6,0.9,2.5l-1.2,3.8c-0.3,0.9-1.1,1.5-2.1,1.5h-24.1v-10.8v-0.2l16-4.4
						l0,0.2L166.3,371.1z"/>
					<path fill="#BDFFFF" d="M156.1,220.8l-5.7,47.6l0.2,32.3l-10.9,0.3l-10.9-0.3l0.2-32.3l-5.7-47.6c5,2.2,10.6,3.4,16.4,3.4
						C145.6,224.2,151.1,223,156.1,220.8z"/>
					<path fill="#EFEFEF" d="M139.7,368.1v10.8h-24.1c-1,0-1.8-0.6-2.1-1.5l-1.2-3.8c-0.3-0.9,0-1.9,0.8-2.5l10.6-7.3l0-0.2l16,4.4
						V368.1z"/>
					<path fill="#00D4C7" d="M102.9,253.9l-3.6-34.8l11.8-6.5l0,0c3.5,3.5,7.7,6.2,12.3,8.2l5.7,47.6l-0.2,32.3l-7.1-0.2
						c-1.4,0-2.9-0.4-4.2-1l-10.4-4.6L102.9,253.9z"/>
					<path fill="#BDFFFF" d="M98.1,214.9l1.2,4.2l3.6,34.8l-7.9-4c-4.1-2.1-7.1-5.9-8.1-10.4l-4.9-22L98.1,214.9z"/>
					<path fill="#FFE3C9" d="M78.9,144.4l19.2,70.5L82,217.5l-11.5-51.3C70.5,166.2,67.9,151.6,78.9,144.4z"/>
				</g>
			</g>
			<path fill="#898989" d="M119.1,123.4c-0.3-2.2-3-3.1-4.5-1.5c-4.5,5-10.3,14.1-7,25.5c4.9,16.9,31.2,15.6,45.5,13.5
				c5.4-0.8,9.4-5.5,9.4-10.9v-0.5c0-6.3-5.2-11.3-11.5-11.1C138.9,139,120.9,137.3,119.1,123.4z"/>
			<g>
				<g>
					<path fill="#DBBEAD" d="M149.4,175.7h-35.8c-2.1,0-3.9-1.7-3.9-3.9c0-2.1,1.7-3.9,3.9-3.9h35.8c2.1,0,3.9,1.7,3.9,3.9
						C153.3,174,151.5,175.7,149.4,175.7z"/>
				</g>
				<g>
					<path fill="#DBBEAD" d="M128.4,191c-2.1,0-3.9-1.7-3.9-3.9v-15.2c0-2.1,1.7-3.9,3.9-3.9c2.1,0,3.9,1.7,3.9,3.9v15.2
						C132.3,189.3,130.6,191,128.4,191z"/>
				</g>
			</g>
		</g>
	</g>
</g>
<g id="Layer_2">
</g>
</svg>
