<?xml version="1.0" encoding="utf-8"?>
<!-- Generator: Adobe Illustrator 18.0.0, SVG Export Plug-In . SVG Version: 6.00 Build 0)  -->
<!DOCTYPE svg PUBLIC "-//W3C//DTD SVG 1.1//EN" "http://www.w3.org/Graphics/SVG/1.1/DTD/svg11.dtd">
<svg version="1.1" xmlns="http://www.w3.org/2000/svg" xmlns:xlink="http://www.w3.org/1999/xlink" x="0px" y="0px"
	 viewBox="0 0 158.7 196.3" enable-background="new 0 0 158.7 196.3" xml:space="preserve">
<g id="Layer_1">
	<g>
		<g>
			<path fill="#A97E70" d="M82.8,196.3l-11.8,0c-1.1,0-2-0.9-2-2L69.1,2c0-1.1,0.9-2,2-2l11.8,0c1.1,0,2,0.9,2,2l-0.1,192.3
				C84.8,195.4,83.9,196.3,82.8,196.3z"/>
			<path fill="#B5B5B6" d="M152.7,108.9l-143.1,0c-3.3,0-6-2.7-6-6l0-82.8c0-3.3,2.7-6,6-6l143.1,0c3.3,0,6,2.7,6,6l0,82.8
				C158.7,106.2,156,108.9,152.7,108.9z"/>
			<path fill="#FFFFFF" d="M149.1,105.9L6,105.8c-3.3,0-6-2.7-6-6L0,17c0-3.3,2.7-6,6-6l143.1,0c3.3,0,6,2.7,6,6l0,82.8
				C155.1,103.2,152.4,105.9,149.1,105.9z"/>
		</g>
		<g>
			<path fill="#EB647D" d="M68.9,81.4c0-5,3.6-9.1,8.7-9.1c5.1,0,8.7,4,8.7,9.1c0,5.1-3.6,9.2-8.7,9.2
				C72.5,90.6,68.9,86.6,68.9,81.4z M70.7,39.3l-0.5-13h14.8l-0.5,13l-2.1,27.9h-9.5L70.7,39.3z"/>
		</g>
	</g>
</g>
<g id="Layer_2">
</g>
</svg>
