<?xml version="1.0" encoding="utf-8"?>
<!-- Generator: Adobe Illustrator 18.0.0, SVG Export Plug-In . SVG Version: 6.00 Build 0)  -->
<!DOCTYPE svg PUBLIC "-//W3C//DTD SVG 1.1//EN" "http://www.w3.org/Graphics/SVG/1.1/DTD/svg11.dtd">
<svg version="1.1" xmlns="http://www.w3.org/2000/svg" xmlns:xlink="http://www.w3.org/1999/xlink" x="0px" y="0px"
	 viewBox="0 0 80 73.7" enable-background="new 0 0 80 73.7" xml:space="preserve">
<g id="Layer_1">
	<path fill="#FFFFFF" d="M43.2,0c-9.8,0-19,3.8-25.9,10.7c-5.3,5.2-8.8,11.8-10.2,19l-2.5,0c-1.6,0-3.1,0.8-3.9,2.2
		c-0.8,1.4-0.8,3.1,0,4.5l9.1,12.8c0.8,1.4,2.2,2.2,3.8,2.2c1.6,0,3-0.8,3.8-2.2l9-12.7l0.1-0.1c0.8-1.4,0.8-3.1,0-4.5
		c-0.8-1.4-2.3-2.2-3.9-2.2l-2.3,0c3.1-9.9,12.4-16.9,22.9-16.9c13.3,0,24,10.8,24,24s-10.8,24-24,24c-2.6,0-5.1-0.4-7.5-1.2
		c-0.6-0.2-1.3-0.3-2-0.3c-2.8,0-5.2,1.8-6.1,4.4c-1.1,3.4,0.7,7,4.1,8.1c3.7,1.2,7.6,1.8,11.5,1.8C63.5,73.7,80,57.2,80,36.8
		C80,16.5,63.5,0,43.2,0z"/>
</g>
<g id="Layer_2">
</g>
</svg>
