<?xml version="1.0" encoding="utf-8"?>
<!-- Generator: Adobe Illustrator 18.0.0, SVG Export Plug-In . SVG Version: 6.00 Build 0)  -->
<!DOCTYPE svg PUBLIC "-//W3C//DTD SVG 1.1//EN" "http://www.w3.org/Graphics/SVG/1.1/DTD/svg11.dtd">
<svg version="1.1" xmlns="http://www.w3.org/2000/svg" xmlns:xlink="http://www.w3.org/1999/xlink" x="0px" y="0px"
	 viewBox="0 0 471.4 342.9" enable-background="new 0 0 471.4 342.9" xml:space="preserve">
<g id="Layer_1">
	<g>
		<g>
			<g>
				<path fill="#898989" d="M204,74.4c1.4,0,2.7-0.8,3.3-2c3.1-6,5.1-11.7,5.1-16.7c0-22.9-18.6-41.5-41.5-41.5
					c-22.9,0-41.5,18.6-41.5,41.5c0,5,2,10.8,5.1,16.7c0.6,1.2,1.9,2,3.3,2H204z"/>
			</g>
			<g id="XMLID_9_">
				<g>
					<path fill="#B5B5B6" d="M201.3,119.3l-2.8,16.2l0.3,14.5l0.1,6.1l-0.2,0.1l-16.4,4.5c-1.2,0.3-2.3-0.5-2.4-1.7l-0.2-2.3
						l-1.9-27.4l5-30.6c9-2.3,15.2-5.9,15.8-6.2l0,0c7.8-2.3,10.3-5.3,10.3-5.3l1.3,0.7c4.3,2.4,6.6,7.3,5.6,12.1l-4.4,22.1h0
						L201.3,119.3z"/>
					<polygon fill="#FFE3C9" points="211.6,122.3 205.7,151.8 198.8,150.1 198.4,135.5 201.3,119.3 211.6,122.3 					"/>
					<path fill="#538FA9" d="M195.3,79.8l13.7,7.6c0,0-2.5,3-10.3,5.3l0,0c-3.7,1.1-8.7,2.1-15.2,2.5l1.4-8.3l0,0
						C188.8,85.1,192.3,82.7,195.3,79.8L195.3,79.8z"/>
					<path fill="#FFE3C9" d="M198.8,150.1l6.9,1.8v0c0,0-2.5,6.4-8.6,11.8l-0.3-0.1l2-7.3l0.2-0.1L198.8,150.1z"/>
					<path fill="#BF996D" d="M157.2,208.7L145,163.6l-2-7.4l16.6,4.6c1.2,0.3,2.3-0.5,2.4-1.7l0.2-2.3h17.5h0l0.2,2.3
						c0.1,1.2,1.2,2,2.4,1.7l16.4-4.5l-2,7.3l-12.2,45.2l-13.7,3.8L157.2,208.7z"/>
					<path fill="#FFE3C9" d="M157.1,86.9c-4-1.7-7.6-4.1-10.6-7.1c-6.6-6.4-10.8-15.4-10.8-25.3c0-19.5,15.8-35.2,35.2-35.2
						c19.5,0,35.2,15.8,35.2,35.2c0,9.9-4.1,19-10.8,25.3c-3,2.9-6.6,5.3-10.5,7c-4.3,1.8-9,2.9-14,2.9
						C166,89.7,161.3,88.7,157.1,86.9z"/>
					<path fill="#595757" d="M193.5,215c0.7,0.5,1,1.3,0.7,2.1l-1,3.2c-0.2,0.8-1,1.3-1.8,1.3h-20.6v-9.2l13.7-3.8L193.5,215z"/>
					<path fill="#69A4DB" d="M183.5,95.1c6.5-0.4,11.4-1.4,15.2-2.5c-0.6,0.3-6.8,3.9-15.8,6.2L183.5,95.1z"/>
					<path fill="#538FA9" d="M184.9,86.8l-1.4,8.3c-2.1,0.1-4.3,0.2-6.8,0.2c-7.6,0-13.8-1.2-18.7-2.8l-0.9-5.6
						c4.2,1.8,8.9,2.8,13.8,2.8C175.8,89.7,180.6,88.6,184.9,86.8L184.9,86.8z"/>
					<path fill="#69A4DB" d="M183.5,95.1l-0.6,3.7c-4.9,1.3-10.6,2.2-16.7,2c-2.2-0.1-4.5-0.3-6.9-0.6l-1.3-7.8
						c4.9,1.6,11.1,2.8,18.7,2.8C179.2,95.3,181.4,95.2,183.5,95.1z"/>
					<path fill="#EFEFEF" d="M182.9,98.8l-5,30.6l1.9,27.4h0h-17.5l1.1-16.3c1.6-0.4,2.9-1.8,2.9-3.7v-35.9v0
						C172.3,101,178,100.1,182.9,98.8z"/>
					<path fill="#595757" d="M170.9,212.5v9.2h-20.6c-0.8,0-1.5-0.5-1.8-1.3l-1.1-3.2c-0.2-0.8,0.1-1.7,0.7-2.1l9-6.3L170.9,212.5z"
						/>
					<path fill="#538FA9" d="M166.2,100.9v35.9c0,1.9-1.3,3.3-2.9,3.7l0.8-11l-4.8-29.2C161.6,100.6,163.9,100.8,166.2,100.9
						L166.2,100.9z"/>
					<path fill="#538FA9" d="M159.3,100.2l4.8,29.2l-0.8,11c-1,0.3-2.2,0.1-3.2-0.6l-7-5.2c-1-0.7-1.5-1.8-1.5-3V98.3
						C154.2,99.2,156.8,99.8,159.3,100.2z"/>
					<path fill="#B5B5B6" d="M140.7,119.3l-10.6,3.1l-4.4-22.1c-1-4.8,1.3-9.8,5.6-12.1l2.3-1.3c5.8,5.8,11.9,9.4,18,11.5v33.3
						c0,1.2,0.5,2.3,1.5,3l7,5.2c1,0.7,2.1,0.9,3.2,0.6l-1.1,16.3l-0.2,2.3c-0.1,1.2-1.2,2-2.4,1.7l-16.6-4.6l0.5-20.6L140.7,119.3z
						"/>
					<path fill="#69A4DB" d="M151.7,98.3c-6.1-2.2-12.3-5.8-18-11.5l8.2-4.5c0,0,4.6,6.4,16.2,10.2l1.3,7.8
						C156.8,99.8,154.2,99.2,151.7,98.3z"/>
					<path fill="#538FA9" d="M157.1,86.9l0.9,5.6c-11.6-3.8-16.2-10.2-16.2-10.2l4.6-2.5l0,0C149.5,82.7,153.1,85.2,157.1,86.9z"/>
					<path fill="#FFE3C9" d="M143,156.1l2,7.4l-0.3,0.1c-6.2-5.4-8.7-11.8-8.7-11.8l-5.9-29.5l10.6-3.1l2.9,16.3L143,156.1z"/>
				</g>
			</g>
			<g>
				<g>
					<g>
						<path fill="#DBBEAD" d="M178.3,48.3h-30.6c-1.8,0-3.3-1.5-3.3-3.3s1.5-3.3,3.3-3.3h30.6c1.8,0,3.3,1.5,3.3,3.3
							S180.1,48.3,178.3,48.3z"/>
					</g>
				</g>
				<g>
					<g>
						<path fill="#DBBEAD" d="M160.4,61.3c-1.8,0-3.3-1.5-3.3-3.3V45c0-1.8,1.5-3.3,3.3-3.3c1.8,0,3.3,1.5,3.3,3.3v13
							C163.7,59.8,162.2,61.3,160.4,61.3z"/>
					</g>
				</g>
			</g>
			<g>
				<path fill="#898989" d="M207.1,56.2c0-0.6,0.1-1.2,0.1-1.9c0-20.1-16.3-36.5-36.5-36.5s-36.5,16.3-36.5,36.5
					c0,0.6,0.1,1.1,0.1,1.7l15.7-21.3c1.6-2.2,4.5-2.9,6.9-1.8L207.1,56.2z"/>
			</g>
		</g>
		<g>
			<g>
				<g id="XMLID_8_">
					<g>
						<path fill="#F7FFFF" d="M337.8,87c4.4,2.4,6.6,7.4,5.7,12.2l-3.5,17.6l-10.3-2.5l3.1-30.1L337.8,87z"/>
						<path fill="#FFE3C9" d="M339.9,116.9l-6.9,34.4c0,0-3,7.8-10.7,13.4l3.7-15.3l3.6-35.1L339.9,116.9z"/>
						<path fill="#39C0FF" d="M329.6,114.4l-3.6,35.1l-9,4c-1.1,0.5-2.4,0.8-3.6,0.8l-6.1,0.2l-0.2-27.8l4.9-40.9
							c3.9-1.7,7.5-4.1,10.6-7.1l0,0l10.1,5.6L329.6,114.4z"/>
						<path fill="#D2A055" d="M307.3,154.5l6.1-0.2c1.2,0,2.5-0.3,3.6-0.8l9-4l-3.7,15.3l-10.6,43.7l0,0l-13.8,3.8l-13.8-3.8l0,0
							l-10.6-43.7l-3.7-15.3l9,4c1.1,0.5,2.4,0.8,3.6,0.8l6.1,0.2l9.3,0.2L307.3,154.5z"/>
						<path fill="#FFE3C9" d="M298,17.6c19.6,0,35.5,15.9,35.5,35.5c0,10-4.2,19.1-10.9,25.5c-3,3-6.6,5.4-10.6,7.1
							c-4.3,1.9-9.1,2.9-14.1,2.9c-5,0-9.8-1-14.1-2.9c-4-1.7-7.5-4.1-10.6-7.1c-6.7-6.4-10.9-15.5-10.9-25.5
							C262.4,33.5,278.3,17.6,298,17.6z"/>
						<path fill="#EFEFEF" d="M320.8,214.9c0.7,0.5,1,1.4,0.7,2.1l-1,3.3c-0.2,0.8-1,1.3-1.8,1.3H298v-9.3v-0.2l13.8-3.8l0,0.1
							L320.8,214.9z"/>
						<path fill="#F7FFFF" d="M312.1,85.7l-4.9,40.9l0.2,27.8l-9.3,0.2l-9.3-0.2l0.2-27.8l-4.9-40.9c4.3,1.9,9.1,2.9,14.1,2.9
							C303,88.6,307.7,87.6,312.1,85.7z"/>
						<path fill="#EFEFEF" d="M298,212.4v9.3h-20.7c-0.8,0-1.6-0.5-1.8-1.3l-1-3.3c-0.2-0.8,0-1.7,0.7-2.1l9.1-6.3l0-0.1l13.8,3.8
							V212.4z"/>
						<path fill="#39C0FF" d="M266.3,114.4l-3.1-30.1l10.1-5.6l0,0c3,3,6.6,5.4,10.6,7.1l4.9,40.9l-0.2,27.8l-6.1-0.2
							c-1.2,0-2.5-0.3-3.6-0.8l-9-4L266.3,114.4z"/>
						<path fill="#FFE3C9" d="M269.9,149.5l3.7,15.3c-7.8-5.6-10.8-13.5-10.8-13.5l-6.9-34.4l10.3-2.5L269.9,149.5z"/>
						<path fill="#F7FFFF" d="M263.2,84.3l3.1,30.1l-10.3,2.5l-3.5-17.6c-1-4.9,1.3-9.8,5.7-12.2L263.2,84.3z"/>
					</g>
				</g>
			</g>
			<path fill="#898989" d="M280.3,2c-0.2-1.9-2.6-2.7-3.9-1.2c-3.9,4.3-8.8,12.1-6,21.9c4.2,14.6,26.8,13.4,39.1,11.6
				c4.6-0.7,8.1-4.7,8.1-9.4v-0.4c0-5.4-4.5-9.7-9.9-9.5C297.2,15.4,281.8,13.9,280.3,2z"/>
			<g>
				<g>
					<path fill="#DBBEAD" d="M306.3,47h-30.8c-1.8,0-3.3-1.5-3.3-3.3s1.5-3.3,3.3-3.3h30.8c1.8,0,3.3,1.5,3.3,3.3S308.1,47,306.3,47
						z"/>
				</g>
				<g>
					<path fill="#DBBEAD" d="M288.3,60.1c-1.8,0-3.3-1.5-3.3-3.3V43.7c0-1.8,1.5-3.3,3.3-3.3c1.8,0,3.3,1.5,3.3,3.3v13.1
						C291.6,58.6,290.1,60.1,288.3,60.1z"/>
				</g>
			</g>
		</g>
		<g>
			<g opacity="0.15">
				<path d="M403.2,248.6"/>
			</g>
			<g>
				<g>
					<path fill="#898989" d="M388.2,233.6"/>
				</g>
			</g>
		</g>
		<g>
			<g>
				<g>
					<path fill="#898989" d="M150.5,118.8c0,22.9-41.5,62-41.5,62s-41.5-39.1-41.5-62S86,77.3,109,77.3S150.5,95.9,150.5,118.8z"/>
				</g>
				<g id="XMLID_7_">
					<g>
						<path fill="#F8C45E" d="M136.8,213.3l0.1,6.1l-0.2,0.1l-16,4.5c-1.6,0.4-3.2-0.2-4.1-1.5l-1.6-2.3h0l-6-8.9v-9.5
							c0.1-0.2,0.1-0.4,0.1-0.6c0-0.2,0-0.4-0.1-0.6v-9c0.1-0.2,0.1-0.4,0.1-0.6c0-0.2,0-0.4-0.1-0.6v-22l3.4-4.4l0,0l8.2,3
							c0.9,0.3,1.9-0.1,2.4-1l10.5-22.8l15,8.3c4.3,2.4,6.6,7.3,5.6,12.1L143.7,215L136.8,213.3z"/>
						<path fill="#FFE3C9" d="M136.8,213.3l6.9,1.8v0c0,0-2.4,6.4-8.6,11.7l-0.3-0.1l2-7.3l0.2-0.1L136.8,213.3z"/>
						<path fill="#A48B78" d="M136.7,219.4l-2,7.3l-12.2,45.2l-13.7,3.8l-13.7-3.8L83,226.8l-2-7.4l16.2,4.5
							c1.6,0.4,3.2-0.2,4.2-1.5l1.5-2.3h12h0l1.6,2.3c0.9,1.3,2.6,1.9,4.1,1.5L136.7,219.4z"/>
						<path fill="#FFE3C9" d="M95.1,150.1c-4-1.7-7.6-4.1-10.7-7.1c-6.6-6.4-10.8-15.4-10.8-25.3c0-19.5,15.8-35.2,35.2-35.2
							s35.2,15.8,35.2,35.2c0,9.9-4.1,19-10.8,25.4c-3,2.9-6.6,5.3-10.5,7c-4.3,1.9-9,2.9-14,2.9C104,152.9,99.3,151.9,95.1,150.1z"
							/>
						<path fill="#D3A661" d="M133.3,143l-10.5,22.8c-0.4,0.9-1.4,1.3-2.4,1l-8.2-3l0,0l10.6-13.8l0,0
							C126.8,148.3,130.3,145.9,133.3,143z"/>
						<path fill="#595757" d="M131.6,278.2c0.7,0.5,1,1.3,0.7,2.1l-1.1,3.3c-0.2,0.8-1,1.3-1.8,1.3h-20.6v-9.2l13.7-3.8L131.6,278.2
							z"/>
						<path fill="#D3DF61" d="M122.9,150l-10.6,13.8l-3.4,4.4l-3.3-4.3l-10.5-13.8c4.2,1.8,8.9,2.8,13.8,2.8
							C113.8,152.9,118.6,151.9,122.9,150L122.9,150z"/>
						<polygon fill="#D3DF61" points="108.9,211.2 114.9,220 102.9,220 						"/>
						<path fill="#D3A661" d="M108.9,190.2c0.1,0.2,0.1,0.4,0.1,0.6c0,0.2,0,0.4-0.1,0.6V190.2z"/>
						<path fill="#D3A661" d="M108.9,200.4c0.1,0.2,0.1,0.4,0.1,0.6c0,0.2,0,0.4-0.1,0.6V200.4z"/>
						<path fill="#595757" d="M108.9,275.7v9.2H88.3c-0.8,0-1.5-0.5-1.8-1.3l-1-3.2c-0.3-0.8,0-1.7,0.7-2.1l9-6.3L108.9,275.7z"/>
						<path fill="#F8C45E" d="M81.2,213.3H81l-7,1.8l-10.3-51.6c-1-4.9,1.3-9.8,5.6-12.1l15.1-8.3L95,165.9c0.4,0.9,1.4,1.3,2.4,1
							l8.2-3l3.3,4.3v22c-0.3-1.2-1.3-2.2-2.7-2.2c-1.5,0-2.7,1.2-2.7,2.8c0,1.5,1.2,2.7,2.7,2.7c1.3,0,2.4-0.9,2.7-2.1v9
							c-0.3-1.2-1.3-2.1-2.7-2.1c-1.5,0-2.7,1.2-2.7,2.8c0,1.5,1.2,2.7,2.7,2.7c1.3,0,2.4-0.9,2.7-2.1v9.5l-5.9,8.9l-1.5,2.3
							c-0.9,1.3-2.6,2-4.2,1.5L81,219.4L81.2,213.3z"/>
						<path fill="#D3A661" d="M108.9,200.4v1.2c-0.3,1.2-1.3,2.1-2.7,2.1c-1.5,0-2.7-1.2-2.7-2.7c0-1.5,1.2-2.8,2.7-2.8
							C107.5,198.3,108.6,199.2,108.9,200.4z"/>
						<path fill="#D3A661" d="M108.9,190.2v1.2c-0.3,1.2-1.3,2.1-2.7,2.1c-1.5,0-2.7-1.2-2.7-2.7c0-1.5,1.2-2.8,2.7-2.8
							C107.5,188,108.6,188.9,108.9,190.2z"/>
						<path fill="#D3A661" d="M95.1,150.1l10.5,13.8l-8.2,3c-0.9,0.3-1.9-0.1-2.4-1L84.4,143l0,0C87.5,146,91.1,148.4,95.1,150.1z"
							/>
						<path fill="#FFE3C9" d="M81,219.4l2,7.4l-0.3,0.1c-6.2-5.4-8.7-11.8-8.7-11.8v0l7-1.8h0.1L81,219.4z"/>
					</g>
				</g>
				<g>
					<g>
						<g>
							<path fill="#DBBEAD" d="M116.3,111.5H85.8c-1.8,0-3.3-1.5-3.3-3.3c0-1.8,1.5-3.3,3.3-3.3h30.6c1.8,0,3.3,1.5,3.3,3.3
								C119.6,110,118.2,111.5,116.3,111.5z"/>
						</g>
					</g>
					<g>
						<g>
							<path fill="#DBBEAD" d="M98.5,124.5c-1.8,0-3.3-1.5-3.3-3.3v-13c0-1.8,1.5-3.3,3.3-3.3c1.8,0,3.3,1.5,3.3,3.3v13
								C101.8,123.1,100.3,124.5,98.5,124.5z"/>
						</g>
					</g>
				</g>
				<g>
					<path fill="#898989" d="M145.2,119.4c0-0.6,0.1-1.2,0.1-1.9c0-20.1-16.3-36.5-36.5-36.5s-36.5,16.3-36.5,36.5
						c0,0.6,0.1,1.1,0.1,1.7L88.2,98c1.6-2.2,4.5-2.9,6.9-1.8L145.2,119.4z"/>
				</g>
			</g>
			<g>
				<g>
					<path fill="#898989" d="M265.4,117.6c4.9,0,8.4-4.9,7.2-9.9c-4.2-17.5-19.1-30.4-36.8-30.4c-17.8,0-32.7,12.9-36.8,30.4
						c-1.2,5,2.3,9.9,7.2,9.9H265.4z"/>
				</g>
				<g>
					<g id="XMLID_6_">
						<g>
							<path fill="#C9EBFF" d="M264.9,199.9l-1.3,13.4l-10.3,4.5c-0.2,0.1-0.5,0.2-0.7,0.2l-16.9,0.5l-16.9-0.5
								c-0.2,0-0.5-0.1-0.7-0.2l-10.3-4.5l-1.3-13.4l-8.3,2.4l-7.8-38.8c-1-4.9,1.3-9.8,5.6-12.2l15.1-8.3l-0.7,5.4
								c-0.2,1.6,0.6,3.1,2,3.8l15.1,7.9c1.8,1,4.1,0.2,5.1-1.6l3-5.6l3,5.6c1,1.8,3.2,2.5,5.1,1.6l15.1-7.9c1.4-0.7,2.2-2.2,2-3.8
								l-0.6-5.4l15,8.3c4.3,2.4,6.6,7.3,5.6,12.1l-7.8,38.8L264.9,199.9z M257.4,180v-12.4h-14.8V180c0,2.1,1.7,3.8,3.8,3.8h7.2
								C255.7,183.7,257.4,182,257.4,180z"/>
							<polygon fill="#AAD9FF" points="273.1,202.2 270.6,215 263.6,213.3 264.9,199.9 							"/>
							<path fill="#FFE3C9" d="M270.6,215L270.6,215c0,0-3,7.8-10.6,13.4l3.7-15.2L270.6,215z"/>
							<path fill="#727171" d="M259.9,228.4l-10.5,43.3l0,0l-13.6,3.7l-13.6-3.7l0,0l-10.5-43.3l-3.7-15.2l10.3,4.5
								c0.2,0.1,0.5,0.2,0.7,0.2l16.9,0.5l16.9-0.5c0.2,0,0.5-0.1,0.7-0.2l10.3-4.5L259.9,228.4z"/>
							<path fill="#FFE3C9" d="M235.8,82.4c19.5,0,35.2,15.8,35.2,35.2c0,9.9-4.1,18.9-10.7,25.3c-6.3,6.1-15,9.9-24.5,9.9
								s-18.1-3.8-24.5-9.9c-6.6-6.4-10.8-15.4-10.8-25.3C200.5,98.2,216.3,82.4,235.8,82.4z"/>
							<path fill="#AAD9FF" d="M260.9,148.4c0.2,1.6-0.6,3.1-2,3.8l-15.1,7.9c-1.8,1-4.1,0.2-5.1-1.6l-3-5.6
								c9.5,0,18.1-3.8,24.5-9.9L260.9,148.4z"/>
							<path fill="#3E3A39" d="M258.4,278.2c0.7,0.5,1,1.3,0.7,2.1l-1,3.3c-0.3,0.8-1,1.3-1.8,1.3h-20.6v-9.2v-0.2l13.6-3.7l0,0.2
								L258.4,278.2z"/>
							<path fill="#AAD9FF" d="M257.4,167.6V180c0,2.1-1.7,3.8-3.8,3.8h-7.2c-2.1,0-3.8-1.7-3.8-3.8v-12.4H257.4z"/>
							<path fill="#3E3A39" d="M235.8,275.7v9.2h-20.6c-0.8,0-1.5-0.5-1.8-1.3l-1-3.3c-0.3-0.8,0-1.6,0.7-2.1l9-6.2l0-0.2l13.6,3.7
								V275.7z"/>
							<path fill="#AAD9FF" d="M235.8,152.9l-3,5.6c-1,1.8-3.2,2.5-5.1,1.6l-15.1-7.9c-1.4-0.7-2.2-2.2-2-3.8l0.7-5.4
								C217.6,149.1,226.2,152.9,235.8,152.9z"/>
							<path fill="#FFE3C9" d="M207.9,213.3l3.7,15.2c-7.7-5.6-10.7-13.4-10.7-13.4v0L207.9,213.3z"/>
							<polygon fill="#AAD9FF" points="206.6,199.8 207.9,213.3 200.9,215 198.3,202.2 							"/>
						</g>
					</g>
				</g>
				<g>
					<g>
						<g>
							<path fill="#DBBEAD" d="M244.5,111.5h-30.6c-1.8,0-3.3-1.5-3.3-3.3c0-1.8,1.5-3.3,3.3-3.3h30.6c1.8,0,3.3,1.5,3.3,3.3
								C247.8,110,246.3,111.5,244.5,111.5z"/>
						</g>
					</g>
					<g>
						<g>
							<path fill="#DBBEAD" d="M226.6,124.5c-1.8,0-3.3-1.5-3.3-3.3v-13c0-1.8,1.5-3.3,3.3-3.3c1.8,0,3.3,1.5,3.3,3.3v13
								C229.9,123.1,228.4,124.5,226.6,124.5z"/>
						</g>
					</g>
				</g>
				<g opacity="0.8">
					<g>
						<path fill="#FFFFFF" d="M222,115.1h-11.3c-0.4,0-0.8-0.4-0.8-0.8v-6.1c0-0.4,0.4-0.8,0.8-0.8H222c0.4,0,0.8,0.4,0.8,0.8v6.1
							C222.8,114.7,222.5,115.1,222,115.1z"/>
						<path fill="#DCDDDD" d="M220.9,116h-9.1c-1.6,0-2.8-1.3-2.8-2.8v-3.9c0-1.6,1.3-2.8,2.8-2.8h9.1c1.6,0,2.8,1.3,2.8,2.8v3.9
							C223.8,114.7,222.5,116,220.9,116z M211.8,108.3c-0.5,0-0.9,0.4-0.9,0.9v3.9c0,0.5,0.4,0.9,0.9,0.9h9.1c0.5,0,0.9-0.4,0.9-0.9
							v-3.9c0-0.5-0.4-0.9-0.9-0.9H211.8z"/>
					</g>
					<g>
						<path fill="#FFFFFF" d="M242.4,115.1h-11.3c-0.4,0-0.8-0.4-0.8-0.8v-6.1c0-0.4,0.4-0.8,0.8-0.8h11.3c0.4,0,0.8,0.4,0.8,0.8
							v6.1C243.2,114.7,242.8,115.1,242.4,115.1z"/>
						<path fill="#DCDDDD" d="M241.3,116h-9.1c-1.6,0-2.8-1.3-2.8-2.8v-3.9c0-1.6,1.3-2.8,2.8-2.8h9.1c1.6,0,2.8,1.3,2.8,2.8v3.9
							C244.2,114.7,242.9,116,241.3,116z M232.2,108.3c-0.5,0-0.9,0.4-0.9,0.9v3.9c0,0.5,0.4,0.9,0.9,0.9h9.1c0.5,0,0.9-0.4,0.9-0.9
							v-3.9c0-0.5-0.4-0.9-0.9-0.9H232.2z"/>
					</g>
				</g>
				<g>
					<path fill="#898989" d="M221.1,104.8c-0.2,1.3-1.8,1.9-2.7,0.9c-2.7-3-6.2-8.5-4.2-15.3c3-10.2,18.7-9.4,27.4-8.1
						c3.2,0.5,5.6,3.3,5.6,6.6v0.3c0,3.8-3.1,6.8-6.9,6.6C232.9,95.4,222.1,96.4,221.1,104.8z"/>
				</g>
			</g>
			<g>
				<g>
					<g id="XMLID_5_">
						<g>
							<path fill="#FFF0FF" d="M402.2,151.3c4.3,2.4,6.6,7.3,5.6,12.1L397.5,215l-6.9-1.8l0.1,6.1l-0.2,0.1L374,224
								c-1.1,0.3-2.3-0.5-2.4-1.7l-0.2-2.3l-1.9-27.4l3-18l14.5-31.7L402.2,151.3z"/>
							<path fill="#FFE3C9" d="M397.5,215L397.5,215c0,0-2.5,6.4-8.6,11.8l1.6-7.4l0.2-0.1l-0.1-6.1L397.5,215z"/>
							<path fill="#FFE3C9" d="M397.9,117.6c0,10-4.1,19-10.8,25.3c-3,2.9-6.6,5.3-10.5,7c-4.3,1.8-9,2.9-14,2.9
								c-4.9,0-9.6-1-13.8-2.8c-4-1.7-7.6-4.1-10.6-7.1c-6.6-6.4-10.8-15.4-10.8-25.3c0-19.5,15.8-35.2,35.2-35.2
								C382.1,82.4,397.9,98.2,397.9,117.6z"/>
							<path fill="#767F75" d="M390.5,219.4l-1.6,7.4l-8.1,36.4h-4.4h-13.7h-13.7h-4.4l-8.1-36.4l-1.7-7.5l16.6,4.6
								c1.1,0.3,2.3-0.5,2.4-1.7l0.2-2.3h17.5h0l0.2,2.3c0.1,1.2,1.2,2,2.4,1.7L390.5,219.4z"/>
							<path fill="#767F75" d="M387.1,143l-14.5,31.7l4-24.6l0,0C380.5,148.3,384.1,145.9,387.1,143L387.1,143z"/>
							<path fill="#9EA590" d="M385.3,278.2c0.7,0.5,1,1.3,0.7,2.1l-1,3.3c-0.2,0.8-1,1.3-1.8,1.3h-20.6v-9.2l13.7-3.8L385.3,278.2z
								"/>
							<path fill="#CAA794" d="M376.6,150l-4,24.6l-3,18l1.9,27.4h0H354l1.9-27.4l-3-18.1l-4-24.5c4.2,1.8,8.9,2.8,13.8,2.8
								C367.6,152.9,372.3,151.8,376.6,150L376.6,150z"/>
							<polygon fill="#FFE3C9" points="376.3,263.3 376.3,271.9 362.6,275.7 362.6,263.3 							"/>
							<path fill="#9EA590" d="M362.6,275.7v9.2h-20.6c-0.8,0-1.5-0.5-1.8-1.3l-1.1-3.3c-0.3-0.8,0.1-1.7,0.7-2.1l9-6.3L362.6,275.7
								z"/>
							<polygon fill="#FFE3C9" points="362.6,263.3 362.6,275.7 348.9,271.9 348.9,263.3 							"/>
							<path fill="#FFF0FF" d="M352.9,174.6l3,18.1L354,220l-0.2,2.3c-0.1,1.2-1.2,2-2.4,1.7l-16.6-4.6l0.2-6.1h-0.2l-7,1.8
								l-10.3-51.6c-1-4.8,1.3-9.8,5.6-12.1l15.1-8.3L352.9,174.6z"/>
							<path fill="#767F75" d="M348.8,150.1l4,24.5L338.2,143l0,0C341.2,146,344.9,148.4,348.8,150.1z"/>
							<path fill="#FFE3C9" d="M334.8,219.4l1.7,7.5c-6.2-5.4-8.7-11.8-8.7-11.8v0l7-1.8h0.2L334.8,219.4z"/>
						</g>
					</g>
				</g>
				<g>
					<path fill="#898989" d="M325.5,117.5v4.4l-0.1,12.1c0,0.4,0.1,0.8,0.4,1.2l3.2,4c1.1,1.4,3.4,0.6,3.4-1.2v-19.7
						c0-13.3,10.4-24.7,23.7-25c13.6-0.2,24.6,10.7,24.6,24.2v23c0,1.4,1.4,2.3,2.7,1.7l15.3-7.1c0.7-0.3,1.1-1,1.1-1.7l0-9.9v-6v0
						c0-20.5-16.6-37.1-37.2-37.1C342.1,80.3,325.5,96.9,325.5,117.5"/>
				</g>
				<g>
					<g>
						<g>
							<path fill="#DBBEAD" d="M369.6,112.8H339c-1.8,0-3.3-1.5-3.3-3.3c0-1.8,1.5-3.3,3.3-3.3h30.6c1.8,0,3.3,1.5,3.3,3.3
								C372.9,111.4,371.4,112.8,369.6,112.8z"/>
						</g>
					</g>
					<g>
						<g>
							<path fill="#DBBEAD" d="M351.7,125.8c-1.8,0-3.3-1.5-3.3-3.3v-13c0-1.8,1.5-3.3,3.3-3.3c1.8,0,3.3,1.5,3.3,3.3v13
								C355,124.4,353.5,125.8,351.7,125.8z"/>
						</g>
					</g>
				</g>
				<g opacity="0.8">
					<g>
						<g>
							<path fill="#FFFFFF" d="M347,116.6h-9.9c-0.9,0-1.7-0.7-1.7-1.7v-4.5c0-0.9,0.7-1.7,1.7-1.7h9.9c0.9,0,1.7,0.7,1.7,1.7v4.5
								C348.6,115.8,347.9,116.6,347,116.6z"/>
						</g>
						<g>
							<path fill="#FFFFFF" d="M366.3,116.6h-9.9c-0.9,0-1.7-0.7-1.7-1.7v-4.5c0-0.9,0.7-1.7,1.7-1.7h9.9c0.9,0,1.7,0.7,1.7,1.7v4.5
								C368,115.8,367.2,116.6,366.3,116.6z"/>
						</g>
					</g>
					<g>
						<g>
							<path fill="#FFFFFF" d="M347,116.6h-9.9c-0.9,0-1.7-0.7-1.7-1.7v-4.5c0-0.9,0.7-1.7,1.7-1.7h9.9c0.9,0,1.7,0.7,1.7,1.7v4.5
								C348.6,115.8,347.9,116.6,347,116.6z"/>
							<path fill="#DCDDDD" d="M344.7,117.5h-5.4c-2.7,0-4.9-2.2-4.9-4.9c0-2.7,2.2-4.9,4.9-4.9h5.4c2.7,0,4.9,2.2,4.9,4.9
								C349.6,115.3,347.4,117.5,344.7,117.5z M339.3,109.7c-1.6,0-3,1.3-3,3c0,1.6,1.3,3,3,3h5.4c1.6,0,3-1.3,3-3c0-1.6-1.3-3-3-3
								H339.3z"/>
						</g>
						<g>
							<path fill="#FFFFFF" d="M366.3,116.6h-9.9c-0.9,0-1.7-0.7-1.7-1.7v-4.5c0-0.9,0.7-1.7,1.7-1.7h9.9c0.9,0,1.7,0.7,1.7,1.7v4.5
								C368,115.8,367.2,116.6,366.3,116.6z"/>
							<path fill="#DCDDDD" d="M364.1,117.5h-5.4c-2.7,0-4.9-2.2-4.9-4.9c0-2.7,2.2-4.9,4.9-4.9h5.4c2.7,0,4.9,2.2,4.9,4.9
								C368.9,115.3,366.7,117.5,364.1,117.5z M358.7,109.7c-1.6,0-3,1.3-3,3c0,1.6,1.3,3,3,3h5.4c1.6,0,3-1.3,3-3c0-1.6-1.3-3-3-3
								H358.7z"/>
						</g>
					</g>
					<g>
						<g>
							<path fill="#DCDDDD" d="M344.7,117.5h-5.4c-2.7,0-4.9-2.2-4.9-4.9c0-2.7,2.2-4.9,4.9-4.9h5.4c2.7,0,4.9,2.2,4.9,4.9
								C349.6,115.3,347.4,117.5,344.7,117.5z M339.3,109.7c-1.6,0-3,1.3-3,3c0,1.6,1.3,3,3,3h5.4c1.6,0,3-1.3,3-3c0-1.6-1.3-3-3-3
								H339.3z"/>
						</g>
						<g>
							<path fill="#DCDDDD" d="M364.1,117.5h-5.4c-2.7,0-4.9-2.2-4.9-4.9c0-2.7,2.2-4.9,4.9-4.9h5.4c2.7,0,4.9,2.2,4.9,4.9
								C368.9,115.3,366.7,117.5,364.1,117.5z M358.7,109.7c-1.6,0-3,1.3-3,3c0,1.6,1.3,3,3,3h5.4c1.6,0,3-1.3,3-3c0-1.6-1.3-3-3-3
								H358.7z"/>
						</g>
					</g>
				</g>
			</g>
		</g>
		<g>
			<g>
				<rect x="264.9" y="186.6" fill="#898989" width="10.2" height="24.3"/>
			</g>
			<g id="XMLID_4_">
				<g>
					<path fill="#EBF0ED" d="M328.4,240.6l-2.8,16.2l0.3,14.5l0.1,6.1l-0.2,0.1l-16.4,4.5c-1.2,0.3-2.3-0.5-2.4-1.7l-0.2-2.3
						l-1.9-27.4l7-42.7l0,0c3.9-1.7,7.5-4.1,10.5-7l0,0l15,8.3c4.3,2.4,6.6,7.3,5.6,12.1l-4.4,22.1h0L328.4,240.6z"/>
					<polygon fill="#FFE3C9" points="338.7,243.6 332.8,273.1 325.9,271.3 325.5,256.8 328.4,240.6 338.7,243.6 					"/>
					<path fill="#FFE3C9" d="M325.9,271.3l6.9,1.8v0c0,0-2.5,6.4-8.6,11.8l-0.3-0.1l2-7.3l0.2-0.1L325.9,271.3z"/>
					<path fill="#6497C0" d="M311.6,330l-13.7,3.8l-13.7-3.8l-12.2-45.1l-2-7.4l16.6,4.6c1.2,0.3,2.3-0.5,2.4-1.7l0.2-2.3h17.5h0
						l0.2,2.3c0.1,1.2,1.2,2,2.4,1.7l16.4-4.5l-2,7.3L311.6,330z"/>
					<path fill="#FFE3C9" d="M284.2,208.1c-4-1.7-7.6-4.1-10.6-7.1c-6.6-6.4-10.8-15.4-10.8-25.3c0-19.5,15.8-35.2,35.2-35.2
						c19.5,0,35.2,15.8,35.2,35.2c0,9.9-4.1,19-10.8,25.3c-3,2.9-6.6,5.3-10.5,7c-4.3,1.8-9,2.9-14,2.9
						C293.1,210.9,288.4,209.9,284.2,208.1z"/>
					<path fill="#6F687A" d="M320.6,336.2c0.7,0.5,1,1.3,0.7,2.1l-1,3.2c-0.2,0.8-1,1.3-1.8,1.3H298v-9.2l13.7-3.8L320.6,336.2z"/>
					<path fill="#769279" d="M312,208l-7,42.7l1.9,27.4h0h-17.5l1.9-27.4l-7-42.6c4.2,1.8,8.9,2.8,13.8,2.8
						C302.9,210.9,307.7,209.9,312,208L312,208z"/>
					<path fill="#6F687A" d="M298,333.7v9.2h-20.6c-0.8,0-1.5-0.5-1.8-1.3l-1.1-3.2c-0.2-0.8,0.1-1.7,0.7-2.1l9-6.3L298,333.7z"/>
					<path fill="#EBF0ED" d="M267.8,240.5l-10.6,3.1l-4.4-22.1c-1-4.8,1.3-9.8,5.6-12.1l15.1-8.3l0,0c3.1,3,6.7,5.4,10.6,7.1l7,42.6
						l-1.9,27.4l-0.2,2.3c-0.1,1.2-1.2,2-2.4,1.7l-16.6-4.6l0.5-20.6L267.8,240.5z"/>
					<path fill="#FFE3C9" d="M270.1,277.4l2,7.4l-0.3,0.1c-6.2-5.4-8.7-11.8-8.7-11.8l-5.9-29.5l10.6-3.1l2.9,16.3L270.1,277.4z"/>
				</g>
			</g>
			<g>
				<g>
					<g>
						<path fill="#DBBEAD" d="M305.4,169.5h-30.6c-1.8,0-3.3-1.5-3.3-3.3c0-1.8,1.5-3.3,3.3-3.3h30.6c1.8,0,3.3,1.5,3.3,3.3
							C308.7,168.1,307.2,169.5,305.4,169.5z"/>
					</g>
				</g>
				<g>
					<g>
						<path fill="#DBBEAD" d="M287.5,182.6c-1.8,0-3.3-1.5-3.3-3.3v-13c0-1.8,1.5-3.3,3.3-3.3c1.8,0,3.3,1.5,3.3,3.3v13
							C290.8,181.1,289.3,182.6,287.5,182.6z"/>
					</g>
				</g>
			</g>
			<g>
				<path fill="#898989" d="M260.8,174.7"/>
			</g>
			<g>
				<path fill="#898989" d="M260.8,174.7v46.8c0,1.9,0.5,3.7,1.6,5.2l1.8,2.7c1,1.6,3.5,0.8,3.5-1v-52.9c0-13.3,10.4-24.7,23.7-25
					c13.6-0.2,24.6,10.7,24.6,24.2v56.8c0,1.4,1.5,2.3,2.8,1.7l11.4-6.1c3.1-1.6,5-4.8,5-8.3v-44v0v0c0-20.5-16.6-37.1-37.2-37.1
					C277.4,137.5,260.8,154.2,260.8,174.7"/>
			</g>
		</g>
		<g>
			<g>
				<rect x="137.1" y="185.4" fill="#898989" width="13.1" height="23.9"/>
			</g>
			<g id="XMLID_3_">
				<g>
					<path fill="#4DB3D7" d="M198.8,271.3l0.1,6.1l-0.2,0.1l-16.4,4.5c-1.2,0.3-2.3-0.5-2.4-1.7l-0.2-2.3l-1.9-27.4l6.2-37.8
						l0.8-4.9l0,0c3.9-1.7,7.5-4.1,10.5-7l0,0l15,8.3c4.3,2.4,6.6,7.3,5.6,12.1l-10.3,51.6L198.8,271.3z"/>
					<path fill="#FFE3C9" d="M198.8,271.3l6.9,1.8v0c0,0-2.5,6.4-8.6,11.8l1.6-7.4l0.2-0.1L198.8,271.3z"/>
					<path fill="#886071" d="M198.7,277.4l-1.6,7.4l-8.1,36.4h-4.4h-13.7h-13.7h-4.4l-8.1-36.4l-1.7-7.5l16.6,4.6
						c1.2,0.3,2.3-0.5,2.4-1.7l0.2-2.3h17.5h0l0.2,2.3c0.1,1.2,1.2,2,2.4,1.7L198.7,277.4z"/>
					<path fill="#FFE3C9" d="M157.1,208.1c-4-1.7-7.6-4.1-10.6-7.1c-6.6-6.4-10.8-15.4-10.8-25.3c0-19.5,15.8-35.2,35.2-35.2
						c19.5,0,35.2,15.8,35.2,35.2c0,9.9-4.1,19-10.8,25.3c-3,2.9-6.6,5.3-10.5,7c-4.3,1.8-9,2.9-14,2.9
						C166,210.9,161.3,209.9,157.1,208.1z"/>
					<path fill="#595757" d="M193.5,336.2c0.7,0.5,1,1.3,0.7,2.1l-1,3.2c-0.2,0.8-1,1.3-1.8,1.3h-20.6v-9.2l13.7-3.8L193.5,336.2z"
						/>
					<path fill="#FFFFFF" d="M184.9,208l-0.8,4.9l-6.6,6.5c-0.9,0.8-2.3,0.7-2.9-0.4l-3.6-6.2v-1.9
						C175.8,210.9,180.6,209.9,184.9,208L184.9,208z"/>
					<polygon fill="#FFE3C9" points="184.5,321.3 184.5,330 170.9,333.7 170.9,321.3 					"/>
					<path fill="#FFD1C7" d="M184.1,212.9l-6.2,37.8l1.9,27.4h0h-17.5l1.9-27.4l-6.2-37.8l6.4,6.4c0.9,0.9,2.3,0.7,3-0.4l3.6-6.2
						l3.6,6.2c0.6,1.1,2.1,1.2,2.9,0.4L184.1,212.9z"/>
					<path fill="#595757" d="M170.9,333.7v9.2h-20.6c-0.8,0-1.5-0.5-1.8-1.3l-1.1-3.2c-0.2-0.8,0.1-1.7,0.7-2.1l9-6.3L170.9,333.7z"
						/>
					<polygon fill="#FFE3C9" points="170.9,321.3 170.9,333.7 157.2,330 157.2,321.3 					"/>
					<path fill="#FFFFFF" d="M170.9,210.9v1.9l-3.6,6.2c-0.6,1.1-2.1,1.3-3,0.4l-6.4-6.4l-0.8-4.8
						C161.3,209.9,166,210.9,170.9,210.9z"/>
					<path fill="#4DB3D7" d="M143.2,271.3H143l-7,1.8l-10.3-51.6c-1-4.8,1.3-9.8,5.6-12.1l15.1-8.3l0,0c3.1,3,6.7,5.4,10.6,7.1
						l0.8,4.8l6.2,37.8l-1.9,27.4l-0.2,2.3c-0.1,1.2-1.2,2-2.4,1.7l-16.6-4.6L143.2,271.3z"/>
					<path fill="#FFE3C9" d="M143,277.4l1.7,7.5c-6.2-5.4-8.7-11.8-8.7-11.8v0l7-1.8h0.2L143,277.4z"/>
				</g>
			</g>
			<g>
				<g>
					<g>
						<path fill="#DBBEAD" d="M178.3,169.5h-30.6c-1.8,0-3.3-1.5-3.3-3.3c0-1.8,1.5-3.3,3.3-3.3h30.6c1.8,0,3.3,1.5,3.3,3.3
							C181.6,168.1,180.1,169.5,178.3,169.5z"/>
					</g>
				</g>
				<g>
					<g>
						<path fill="#DBBEAD" d="M160.4,182.6c-1.8,0-3.3-1.5-3.3-3.3v-13c0-1.8,1.5-3.3,3.3-3.3s3.3,1.5,3.3,3.3v13
							C163.7,181.1,162.2,182.6,160.4,182.6z"/>
					</g>
				</g>
			</g>
			<g>
				<path fill="#898989" d="M133.8,175.5v19.4l-6.5,11.1c-1.1,1.9-0.3,4.5,1.7,5.4l3.7,1.7c3.7,1.7,8-1.1,8-5.2v-31.6
					c0-13.3,10.4-24.7,23.7-25c13.6-0.2,24.6,10.7,24.6,24.2v33.8c0,3.7,3.5,6.4,7,5.5l15.8-3.9c2.5-0.6,3.6-3.4,2.3-5.6l-6.1-10.4
					v-19.4v0c0-20.5-16.6-37.1-37.2-37.1C150.4,138.3,133.8,154.9,133.8,175.5"/>
			</g>
			<g opacity="0.8">
				<g>
					<g>
						<path fill="#FFFFFF" d="M155.7,173.3h-9.9c-0.9,0-1.7-0.7-1.7-1.7v-4.5c0-0.9,0.7-1.7,1.7-1.7h9.9c0.9,0,1.7,0.7,1.7,1.7v4.5
							C157.4,172.5,156.6,173.3,155.7,173.3z"/>
					</g>
					<g>
						<path fill="#FFFFFF" d="M175,173.3h-9.9c-0.9,0-1.7-0.7-1.7-1.7v-4.5c0-0.9,0.7-1.7,1.7-1.7h9.9c0.9,0,1.7,0.7,1.7,1.7v4.5
							C176.7,172.5,176,173.3,175,173.3z"/>
					</g>
				</g>
				<g>
					<g>
						<path fill="#FFFFFF" d="M155.7,173.3h-9.9c-0.9,0-1.7-0.7-1.7-1.7v-4.5c0-0.9,0.7-1.7,1.7-1.7h9.9c0.9,0,1.7,0.7,1.7,1.7v4.5
							C157.4,172.5,156.6,173.3,155.7,173.3z"/>
						<path fill="#DCDDDD" d="M153.4,174.2H148c-2.7,0-4.9-2.2-4.9-4.9c0-2.7,2.2-4.9,4.9-4.9h5.4c2.7,0,4.9,2.2,4.9,4.9
							C158.3,172.1,156.1,174.2,153.4,174.2z M148,166.4c-1.6,0-3,1.3-3,3c0,1.6,1.3,3,3,3h5.4c1.6,0,3-1.3,3-3c0-1.6-1.3-3-3-3H148
							z"/>
					</g>
					<g>
						<path fill="#FFFFFF" d="M175,173.3h-9.9c-0.9,0-1.7-0.7-1.7-1.7v-4.5c0-0.9,0.7-1.7,1.7-1.7h9.9c0.9,0,1.7,0.7,1.7,1.7v4.5
							C176.7,172.5,176,173.3,175,173.3z"/>
						<path fill="#DCDDDD" d="M172.8,174.2h-5.4c-2.7,0-4.9-2.2-4.9-4.9c0-2.7,2.2-4.9,4.9-4.9h5.4c2.7,0,4.9,2.2,4.9,4.9
							C177.6,172.1,175.5,174.2,172.8,174.2z M167.4,166.4c-1.6,0-3,1.3-3,3c0,1.6,1.3,3,3,3h5.4c1.6,0,3-1.3,3-3c0-1.6-1.3-3-3-3
							H167.4z"/>
					</g>
				</g>
				<g>
					<g>
						<path fill="#727171" d="M153.4,174.2H148c-2.7,0-4.9-2.2-4.9-4.9c0-2.7,2.2-4.9,4.9-4.9h5.4c2.7,0,4.9,2.2,4.9,4.9
							C158.3,172.1,156.1,174.2,153.4,174.2z M148,166.4c-1.6,0-3,1.3-3,3c0,1.6,1.3,3,3,3h5.4c1.6,0,3-1.3,3-3c0-1.6-1.3-3-3-3H148
							z"/>
					</g>
					<g>
						<path fill="#727171" d="M172.8,174.2h-5.4c-2.7,0-4.9-2.2-4.9-4.9c0-2.7,2.2-4.9,4.9-4.9h5.4c2.7,0,4.9,2.2,4.9,4.9
							C177.6,172.1,175.5,174.2,172.8,174.2z M167.4,166.4c-1.6,0-3,1.3-3,3c0,1.6,1.3,3,3,3h5.4c1.6,0,3-1.3,3-3c0-1.6-1.3-3-3-3
							H167.4z"/>
					</g>
				</g>
			</g>
		</g>
		<g>
			<g>
				<g id="XMLID_2_">
					<g>
						<path fill="#BDFFFF" d="M465.6,209.3c4.3,2.4,6.6,7.3,5.6,12.1l-3.5,17.5l-10.2-2.5l3.1-29.9L465.6,209.3z"/>
						<path fill="#FFE3C9" d="M467.7,239l-6.8,34.1c0,0-3,7.7-10.6,13.3l3.7-15.1l3.6-34.9L467.7,239z"/>
						<path fill="#00D4C7" d="M457.5,236.4l-3.6,34.9l-8.9,3.9c-1.1,0.5-2.3,0.8-3.6,0.8l-6.1,0.2l-0.2-27.6l4.9-40.6
							c3.9-1.7,7.5-4.1,10.5-7l0,0l10,5.5L457.5,236.4z"/>
						<path fill="#008BAD" d="M401.9,286.5l-3.7-15.2l8.9,3.9c1.1,0.5,2.3,0.8,3.6,0.8l6.1,0.2l9.3,0.2l9.3-0.2l6.1-0.2
							c1.2,0,2.4-0.3,3.6-0.8l8.9-3.9l-3.7,15.1l-10.5,43.4l0,0l-13.6,3.7l-13.6-3.7l0,0L401.9,286.5z"/>
						<path fill="#FFE3C9" d="M426.1,140.4c19.5,0,35.2,15.8,35.2,35.2c0,9.9-4.1,19-10.8,25.3c-3,2.9-6.6,5.3-10.5,7
							c-4.3,1.8-9,2.9-14,2.9s-9.7-1-14-2.9c-3.9-1.7-7.5-4.1-10.5-7c-6.6-6.4-10.8-15.4-10.8-25.3
							C390.8,156.2,406.6,140.4,426.1,140.4z"/>
						<path fill="#EFEFEF" d="M448.8,336.2c0.7,0.5,1,1.3,0.7,2.1l-1,3.2c-0.2,0.8-1,1.3-1.8,1.3h-20.6v-9.2v-0.2l13.6-3.7l0,0.1
							L448.8,336.2z"/>
						<path fill="#BDFFFF" d="M440.1,208l-4.9,40.6l0.2,27.6l-9.3,0.2l-9.3-0.2l0.2-27.6l-4.9-40.6c4.3,1.9,9,2.9,14,2.9
							S435.8,209.9,440.1,208z"/>
						<path fill="#EFEFEF" d="M426.1,333.7v9.2h-20.6c-0.8,0-1.5-0.5-1.8-1.3l-1-3.2c-0.2-0.8,0-1.7,0.7-2.1l9-6.3l0-0.1l13.6,3.7
							V333.7z"/>
						<path fill="#00D4C7" d="M394.6,236.4l-3.1-29.9l10-5.5l0,0c3,2.9,6.6,5.3,10.5,7l4.9,40.6l-0.2,27.6l-6.1-0.2
							c-1.2,0-2.4-0.3-3.6-0.8l-8.9-3.9L394.6,236.4z"/>
						<path fill="#FFE3C9" d="M398.2,271.3l3.7,15.2c-7.7-5.6-10.7-13.4-10.7-13.4l-6.8-34.1l10.3-2.5L398.2,271.3z"/>
						<path fill="#BDFFFF" d="M391.5,206.5l3.1,29.9l-10.3,2.5l-3.5-17.5c-1-4.8,1.3-9.8,5.6-12.1L391.5,206.5z"/>
					</g>
				</g>
			</g>
			<g>
				<g>
					<g>
						<path fill="#DBBEAD" d="M434.3,169.5h-30.6c-1.8,0-3.3-1.5-3.3-3.3c0-1.8,1.5-3.3,3.3-3.3h30.6c1.8,0,3.3,1.5,3.3,3.3
							C437.6,168.1,436.2,169.5,434.3,169.5z"/>
					</g>
				</g>
				<g>
					<g>
						<path fill="#DBBEAD" d="M416.4,182.6c-1.8,0-3.3-1.5-3.3-3.3v-13c0-1.8,1.5-3.3,3.3-3.3s3.3,1.5,3.3,3.3v13
							C419.7,181.1,418.3,182.6,416.4,182.6z"/>
					</g>
				</g>
			</g>
			<g opacity="0.8">
				<g>
					<path fill="#FFFFFF" d="M411.9,173.1h-11.3c-0.4,0-0.8-0.4-0.8-0.8v-6.1c0-0.4,0.4-0.8,0.8-0.8h11.3c0.4,0,0.8,0.4,0.8,0.8v6.1
						C412.7,172.7,412.4,173.1,411.9,173.1z"/>
					<path fill="#727171" d="M410.9,174h-9.1c-1.6,0-2.8-1.3-2.8-2.8v-3.9c0-1.6,1.3-2.8,2.8-2.8h9.1c1.6,0,2.8,1.3,2.8,2.8v3.9
						C413.7,172.8,412.4,174,410.9,174z M401.7,166.4c-0.5,0-0.9,0.4-0.9,0.9v3.9c0,0.5,0.4,0.9,0.9,0.9h9.1c0.5,0,0.9-0.4,0.9-0.9
						v-3.9c0-0.5-0.4-0.9-0.9-0.9H401.7z"/>
				</g>
				<g>
					<path fill="#FFFFFF" d="M432.3,173.1H421c-0.4,0-0.8-0.4-0.8-0.8v-6.1c0-0.4,0.4-0.8,0.8-0.8h11.3c0.4,0,0.8,0.4,0.8,0.8v6.1
						C433.1,172.7,432.8,173.1,432.3,173.1z"/>
					<path fill="#727171" d="M431.2,174h-9.1c-1.6,0-2.8-1.3-2.8-2.8v-3.9c0-1.6,1.3-2.8,2.8-2.8h9.1c1.6,0,2.8,1.3,2.8,2.8v3.9
						C434.1,172.8,432.8,174,431.2,174z M422.1,166.4c-0.5,0-0.9,0.4-0.9,0.9v3.9c0,0.5,0.4,0.9,0.9,0.9h9.1c0.5,0,0.9-0.4,0.9-0.9
						v-3.9c0-0.5-0.4-0.9-0.9-0.9H422.1z"/>
				</g>
			</g>
			<g>
				<g>
					<path fill="#898989" d="M457.5,157.1c0,3.6-4.2,5.5-6.9,3.2c-6.8-5.7-15.6-9.1-25.2-9.1c-2.6,0-5.1,0.3-7.6,0.7
						c-2.6,0.5-5-1.5-5-4.1v-5.4c0-1.9,1.3-3.6,3.2-4.1c3-0.7,6.2-1.1,9.4-1.1c12.7,0,24.1,6.1,31.3,15.4c0.6,0.7,0.8,1.6,0.8,2.6
						V157.1z"/>
				</g>
				<g>
					<path fill="#898989" d="M402.6,144.3c-2,1.4-3.9,3.1-5.6,4.8c-0.7,0.8-1.1,1.8-1.1,2.9v3c0,3.4,3.8,5.4,6.6,3.4
						c1.5-1,3-2,4.6-2.8c1.4-0.7,2.2-2.2,2.2-3.7v-4.2C409.3,144.4,405.4,142.4,402.6,144.3z"/>
				</g>
			</g>
		</g>
		<g>
			<g id="XMLID_1_">
				<g>
					<path fill="#8882C8" d="M73.3,271.3l0.1,6.1l-0.2,0.1L56.8,282c-1.2,0.3-2.3-0.5-2.4-1.7l-0.2-2.3l-1.9-27.4l3-18L69.9,201
						l15,8.3c4.3,2.4,6.6,7.3,5.6,12.1l-10.3,51.6L73.3,271.3z"/>
					<path fill="#FFE3C9" d="M73.3,271.3l6.9,1.8v0c0,0-2.5,6.4-8.6,11.8l1.6-7.4l0.2-0.1L73.3,271.3z"/>
					<path fill="#595783" d="M73.3,277.4l-1.6,7.4l-8.1,36.4h-4.4H45.4H31.7h-4.4l-8.1-36.4l-1.7-7.5l16.6,4.6
						c1.2,0.3,2.3-0.5,2.4-1.7l0.2-2.3h17.5h0l0.2,2.3c0.1,1.2,1.2,2,2.4,1.7L73.3,277.4z"/>
					<path fill="#FFE3C9" d="M31.6,208.1c-4-1.7-7.6-4.1-10.6-7.1c-6.6-6.4-10.8-15.4-10.8-25.3c0-19.5,15.8-35.2,35.2-35.2
						c19.5,0,35.2,15.8,35.2,35.2c0,9.9-4.1,19-10.8,25.3c-3,2.9-6.6,5.3-10.5,7c-4.3,1.8-9,2.9-14,2.9
						C40.5,210.9,35.9,209.9,31.6,208.1z"/>
					<path fill="#696EC8" d="M69.9,201l-14.5,31.7l4-24.6l0,0C63.3,206.3,66.9,203.9,69.9,201L69.9,201z"/>
					<path fill="#735757" d="M68.1,336.2c0.7,0.5,1,1.3,0.7,2.1l-1,3.2c-0.2,0.8-1,1.3-1.8,1.3H45.4v-9.2l13.7-3.8L68.1,336.2z"/>
					<path fill="#FFE2FF" d="M35.7,232.6l-4-24.5c4.2,1.8,8.9,2.8,13.8,2.8c5,0,9.7-1,14-2.9l0,0l-4,24.6l-3,18l1.9,27.4h0H36.8
						l1.9-27.4L35.7,232.6z"/>
					<polygon fill="#FFE3C9" points="59.1,321.3 59.1,330 45.4,333.7 45.4,321.3 					"/>
					<path fill="#735757" d="M45.4,333.7v9.2H24.9c-0.8,0-1.5-0.5-1.8-1.3l-1.1-3.2c-0.2-0.8,0.1-1.7,0.7-2.1l9-6.3L45.4,333.7z"/>
					<polygon fill="#FFE3C9" points="45.4,321.3 45.4,333.7 31.7,330 31.7,321.3 					"/>
					<path fill="#8882C8" d="M17.7,271.3h-0.2l-7,1.8L0.2,221.5c-1-4.8,1.3-9.8,5.6-12.1L21,201l14.7,31.6l3,18.1L36.8,278l-0.2,2.3
						c-0.1,1.2-1.2,2-2.4,1.7l-16.6-4.6L17.7,271.3z"/>
					<path fill="#696EC8" d="M31.6,208.1l4,24.5L21,201l0,0C24,204,27.6,206.4,31.6,208.1z"/>
					<path fill="#FFE3C9" d="M17.6,277.4l1.7,7.5c-6.2-5.4-8.7-11.8-8.7-11.8v0l7-1.8h0.2L17.6,277.4z"/>
				</g>
			</g>
			<g>
				<g>
					<g>
						<path fill="#DBBEAD" d="M52.9,169.5H22.3c-1.8,0-3.3-1.5-3.3-3.3c0-1.8,1.5-3.3,3.3-3.3h30.6c1.8,0,3.3,1.5,3.3,3.3
							C56.2,168.1,54.7,169.5,52.9,169.5z"/>
					</g>
				</g>
				<g>
					<g>
						<path fill="#DBBEAD" d="M35,182.6c-1.8,0-3.3-1.5-3.3-3.3v-13c0-1.8,1.5-3.3,3.3-3.3s3.3,1.5,3.3,3.3v13
							C38.3,181.1,36.8,182.6,35,182.6z"/>
					</g>
				</g>
			</g>
			<g>
				<path fill="#898989" d="M8.3,175.5V193l-4.5,1.8c-1.6,0.6-1.6,2.8-0.1,3.5l6.1,2.7c2.5,1.1,5.3-0.7,5.3-3.5v-21.2
					c0-13.3,10.4-24.7,23.7-25c13.6-0.2,24.6,10.7,24.6,24.2v23c0,2.5,2.3,4.3,4.7,3.7l17.4-4.3c1.8-0.4,1.9-2.9,0.2-3.6l-3.2-1.2
					v-17.5v0c0-20.5-16.6-37.1-37.2-37.1C24.9,138.3,8.3,154.9,8.3,175.5"/>
			</g>
		</g>
	</g>
</g>
<g id="Layer_2">
</g>
</svg>
