<?xml version="1.0" encoding="utf-8"?>
<!-- Generator: Adobe Illustrator 18.0.0, SVG Export Plug-In . SVG Version: 6.00 Build 0)  -->
<!DOCTYPE svg PUBLIC "-//W3C//DTD SVG 1.1//EN" "http://www.w3.org/Graphics/SVG/1.1/DTD/svg11.dtd">
<svg version="1.1" xmlns="http://www.w3.org/2000/svg" xmlns:xlink="http://www.w3.org/1999/xlink" x="0px" y="0px"
	 viewBox="0 0 194.8 266.8" enable-background="new 0 0 194.8 266.8" xml:space="preserve">
<g id="Layer_1">
	<g>
		<g>
			<path fill="#A97E70" d="M111,185.6l-8.1-1.5c-0.8-0.1-1.3-0.9-1.1-1.6L135.3,1.9c0.1-0.8,0.9-1.3,1.6-1.1l8.1,1.5
				c0.8,0.1,1.3,0.9,1.1,1.6l-33.5,180.6C112.5,185.3,111.8,185.8,111,185.6z"/>
			<path fill="#B5B5B6" d="M179.2,86.2L80.7,67.9c-2.3-0.4-3.8-2.6-3.4-4.9L88,6c0.4-2.3,2.6-3.8,4.9-3.4l98.5,18.3
				c2.3,0.4,3.8,2.6,3.4,4.9l-10.6,57C183.7,85.1,181.5,86.6,179.2,86.2z"/>
			<path fill="#FFFFFF" d="M177.1,83.6L78.6,65.3c-2.3-0.4-3.8-2.6-3.4-4.9l10.6-57c0.4-2.3,2.6-3.8,4.9-3.4l98.5,18.3
				c2.3,0.4,3.8,2.6,3.4,4.9l-10.6,57C181.6,82.6,179.4,84.1,177.1,83.6z"/>
			<g>
				<path fill="#EB647D" d="M145.8,63c-1.3,0-2.5-0.6-3.3-1.7l-23.6-34.4c-1.2-1.8-0.8-4.3,1-5.5c1.8-1.2,4.3-0.8,5.5,1L149,56.8
					c1.2,1.8,0.8,4.3-1,5.5C147.3,62.8,146.5,63,145.8,63z"/>
			</g>
			<g>
				<path fill="#EB647D" d="M116.7,57.6c-1.3,0-2.5-0.6-3.3-1.7c-1.2-1.8-0.8-4.3,1-5.5l34.4-23.6c1.8-1.2,4.3-0.8,5.5,1
					c1.2,1.8,0.8,4.3-1,5.5L119,56.9C118.3,57.4,117.5,57.6,116.7,57.6z"/>
			</g>
		</g>
		<g>
			<path fill="#A0B7D3" d="M87.2,169.2c0,0,5.1,1.3,11.2,2.6l3.3-12.2l-2.4-0.5l6.9-34.7c1.1-5.7-1.5-11.4-6.6-14.3l-17.7-9.7
				l0.8,6.4c0.2,1.8-0.7,3.6-2.4,4.4l-17.7,9.2c-2.1,1.1-4.8,0.3-5.9-1.9l-3.5-6.6l-3.5,6.6c-1.2,2.1-3.8,3-6,1.9l-17.7-9.2
				c-1.6-0.8-2.6-2.6-2.3-4.4l0.7-6.4l-17.6,9.7c-5.1,2.8-7.7,8.6-6.6,14.2l9.1,45.5l9.7-2.7l1.5,15.7l12.1,5.3
				c0.3,0.1,0.5,0.2,0.8,0.2l19.8,0.5l19.8-0.5c0.3,0,0.6-0.1,0.8-0.2l12-5.3L87.2,169.2z M27.9,143.8v-14.5h17.3v14.5
				c0,2.5-2,4.4-4.4,4.4h-8.5C29.8,148.2,27.9,146.2,27.9,143.8z"/>
			<polygon fill="#7192CB" points="9.4,169.9 12.4,184.9 20.6,182.8 19,167.2 			"/>
			<path fill="#898989" d="M10,59.1c-0.8,3.2,0.1,6.4,2,8.6c1.3-17.9,14-32.6,30.8-37c1-0.8,2.3-1.4,3.6-1.6
				c9.9-1.4,27.7-2.4,31.8,8.7c9.1,7,15.3,17.7,16.2,29.8c1.9-2.2,2.7-5.4,2-8.6C91.5,38.6,74,23.4,53.2,23.4S14.9,38.6,10,59.1z"/>
			<path fill="#FFE3C9" d="M12,67.7c-0.1,1-0.1,2-0.1,3c0,11.7,4.8,22.2,12.6,29.7C31.9,107.6,42,112,53.2,112s21.3-4.4,28.7-11.6
				c7.8-7.5,12.6-18,12.6-29.7c0-1,0-2-0.1-3.1c-1.6,1.9-3.8,3.1-6.5,3.1H67.8v4.2c0,2.1-1.7,3.9-3.9,3.9c-2.1,0-3.9-1.7-3.9-3.9
				v-4.2H18.5C15.9,70.7,13.6,69.5,12,67.7z"/>
			<path fill="#FFE3C9" d="M12.4,184.9L12.4,184.9c0,0,3.5,9.1,12.5,15.7l-4.3-17.8L12.4,184.9z"/>
			<path fill="#FFE3C9" d="M12,67.7c1.6,1.8,3.8,3,6.4,3h41.6v-3.4c-0.6,0.9-1.6,1.4-2.7,1.4H46.7c-1.8,0-3.3-1.5-3.3-3.3v-1.9H43
				c-2.1,0-3.9-1.7-3.9-3.9c0-2.1,1.7-3.9,3.9-3.9h21h6.5c0-0.1,0-0.1,0-0.2c-1.2-9.8-13.9-11-22.5-10.6c-4.4,0.2-8.1-3.4-8.1-7.8
				v-0.3c0-2.5,1.2-4.7,3-6.1C26,35.1,13.3,49.8,12,67.7z"/>
			<path fill="#727171" d="M20.6,182.8l4.3,17.8l12.3,50.8l0,0l16,4.4l16-4.4l0,0l12.3-50.8l4.3-17.8l-12,5.3
				c-0.3,0.1-0.6,0.2-0.8,0.2l-19.8,0.5l-19.8-0.5c-0.3,0-0.6-0.1-0.8-0.2L20.6,182.8z"/>
			<path fill="#7192CB" d="M23.7,106.8c-0.2,1.8,0.7,3.6,2.3,4.4l17.7,9.2c2.2,1.1,4.8,0.3,6-1.9l3.5-6.6
				c-11.2,0-21.3-4.4-28.7-11.6L23.7,106.8z"/>
			<path fill="#3E3A39" d="M26.6,259c-0.8,0.6-1.1,1.6-0.8,2.5l1.2,3.8c0.3,0.9,1.1,1.5,2.1,1.5h24.1v-10.8v-0.2l-16-4.4l0,0.2
				L26.6,259z"/>
			<path fill="#7192CB" d="M27.9,129.3v14.5c0,2.5,2,4.4,4.4,4.4h8.5c2.5,0,4.4-2,4.4-4.4v-14.5H27.9z"/>
			<path fill="#898989" d="M39.8,36.9v0.3c0,4.4,3.7,8,8.1,7.8c8.6-0.3,21.3,0.8,22.5,10.6c0,0.1,0,0.1,0,0.2h3.8
				c3-3.6,6.4-9.7,4.2-17.1c-0.1-0.3-0.2-0.6-0.3-0.8c-6.9-5.3-15.6-8.4-25-8.4c-3.6,0-7.1,0.5-10.4,1.3
				C41,32.2,39.8,34.4,39.8,36.9z"/>
			<path fill="#DBBEAD" d="M43,55.8c-2.1,0-3.9,1.7-3.9,3.9c0,2.1,1.7,3.9,3.9,3.9h0.4v-2.6c0-1.8,1.5-3.3,3.3-3.3h10.7
				c1.2,0,2.2,0.6,2.8,1.5c0.3-1.9,1.9-3.3,3.8-3.3H43z"/>
			<path fill="#DCDDDD" d="M43.4,63.5v1.9c0,1.8,1.5,3.3,3.3,3.3h10.7c1.1,0,2.1-0.6,2.7-1.4v-3.8h-0.5v3.2c0,0.5-0.4,1-1,1H45.5
				c-0.5,0-1-0.4-1-1v-3.2H43.4z"/>
			<path fill="#DCDDDD" d="M43.4,60.9v2.6h1.1v-3.8c0-0.6,0.4-1,1-1h13.1c0.5,0,1,0.4,1,1v3.8h0.5v-3.9c0-0.2,0-0.4,0-0.6
				c-0.6-0.9-1.6-1.5-2.8-1.5H46.7C44.8,57.6,43.4,59.1,43.4,60.9z"/>
			<path fill="#DCDDDD" d="M44.5,63.5v3.2c0,0.5,0.4,1,1,1h13.1c0.5,0,1-0.4,1-1v-3.2h-1.1v1.9c0,0.6-0.5,1.1-1.1,1.1H46.7
				c-0.6,0-1.1-0.5-1.1-1.1v-1.9H44.5z"/>
			<path fill="#DCDDDD" d="M44.5,59.7v3.8h1.1v-2.6c0-0.6,0.5-1.1,1.1-1.1h10.7c0.6,0,1.1,0.5,1.1,1.1v2.6h1.1v-3.8c0-0.6-0.4-1-1-1
				H45.5C44.9,58.7,44.5,59.2,44.5,59.7z"/>
			<path fill="#FFFFFF" d="M45.6,63.5v1.9c0,0.6,0.5,1.1,1.1,1.1h10.7c0.6,0,1.1-0.5,1.1-1.1v-1.9H45.6z"/>
			<path fill="#FFFFFF" d="M45.6,60.9v2.6h12.9v-2.6c0-0.6-0.5-1.1-1.1-1.1H46.7C46.1,59.8,45.6,60.3,45.6,60.9z"/>
			<path fill="#898989" d="M46.4,29.2c-1.4,0.2-2.6,0.7-3.6,1.6c3.3-0.9,6.8-1.3,10.4-1.3c9.4,0,18.1,3.1,25,8.4
				C74.1,26.8,56.3,27.7,46.4,29.2z"/>
			<path fill="#3E3A39" d="M53.2,256.1v10.8h24.1c1,0,1.8-0.6,2.1-1.5l1.2-3.8c0.3-0.9,0-1.9-0.8-2.5l-10.6-7.3l0-0.2l-16,4.4V256.1
				z"/>
			<path fill="#7192CB" d="M53.2,112l3.5,6.6c1.1,2.1,3.8,3,5.9,1.9l17.7-9.2c1.6-0.8,2.6-2.6,2.4-4.4l-0.8-6.4
				C74.5,107.6,64.4,112,53.2,112z"/>
			<path fill="#DBBEAD" d="M60.1,70.7v4.2c0,2.1,1.7,3.9,3.9,3.9c2.1,0,3.9-1.7,3.9-3.9v-4.2H60.1z"/>
			<path fill="#DBBEAD" d="M60.1,67.4v3.4h7.7v-3.4c-0.4-0.5-0.6-1.2-0.6-1.9v-1.9h-6.6v1.9C60.7,66.2,60.5,66.8,60.1,67.4z"/>
			<path fill="#DCDDDD" d="M60.1,63.5v3.8c0.4-0.5,0.6-1.2,0.6-1.9v-1.9H60.1z"/>
			<path fill="#DCDDDD" d="M60.1,59.7v3.9h0.6v-2.6c0-0.7-0.2-1.3-0.5-1.8C60.1,59.3,60.1,59.5,60.1,59.7z"/>
			<path fill="#DBBEAD" d="M60.1,59.1c0.3,0.5,0.5,1.1,0.5,1.8v2.6h6.6v-2.6c0-0.7,0.2-1.3,0.5-1.8c-0.3-1.9-1.9-3.3-3.8-3.3
				S60.4,57.2,60.1,59.1z"/>
			<path fill="#DBBEAD" d="M70.5,55.8H64c1.9,0,3.6,1.4,3.8,3.3c0.6-0.9,1.6-1.5,2.8-1.5h1.7v-0.4C71.4,57.3,70.7,56.7,70.5,55.8z"
				/>
			<path fill="#DCDDDD" d="M67.2,63.5v1.9c0,0.7,0.2,1.4,0.6,1.9v-3.8H67.2z"/>
			<path fill="#DCDDDD" d="M67.2,60.9v2.6h0.6v-3.9c0-0.2,0-0.4,0-0.6C67.4,59.6,67.2,60.3,67.2,60.9z"/>
			<path fill="#DCDDDD" d="M67.8,59.1c0,0.2,0,0.4,0,0.6v3.9h0.5v-3.8c0-0.6,0.4-1,1-1h13.1c0,0,0.1,0,0.1,0c-0.1-0.3-0.2-0.7-0.4-1
				c-0.3-0.1-0.6-0.1-0.9-0.1h-9h-1.7C69.4,57.6,68.4,58.2,67.8,59.1z"/>
			<path fill="#FFE3C9" d="M67.8,67.4v3.4h20.1c2.6,0,4.9-1.2,6.5-3.1c-0.9-12.1-7-22.8-16.2-29.8c0.1,0.3,0.2,0.5,0.3,0.8
				c2.2,7.4-1.2,13.5-4.2,17.1h4.5c1.4,0,2.7,0.8,3.3,1.9c1.4,0.4,2.4,1.7,2.4,3.2v4.6c0,1.8-1.5,3.3-3.3,3.3H70.6
				C69.4,68.8,68.4,68.2,67.8,67.4z"/>
			<path fill="#DCDDDD" d="M67.8,63.5v3.8c0.6,0.9,1.6,1.4,2.7,1.4h10.7c1.8,0,3.3-1.5,3.3-3.3v-4.6c0-1.5-1-2.8-2.4-3.2
				c0.2,0.3,0.3,0.6,0.4,1c0.5,0.1,0.9,0.5,0.9,1v7c0,0.5-0.4,1-1,1H69.3c-0.6,0-1-0.4-1-1v-3.2H67.8z"/>
			<path fill="#DCDDDD" d="M68.4,63.5v3.2c0,0.5,0.4,1,1,1h13.1c0.6,0,1-0.4,1-1v-7c0-0.5-0.4-0.9-0.9-1c0.1,0.3,0.1,0.6,0.1,0.9
				c0,0.6-0.1,1.1-0.3,1.6v4.2c0,0.6-0.5,1.1-1.1,1.1H70.6c-0.6,0-1.1-0.5-1.1-1.1v-1.9H68.4z"/>
			<path fill="#DCDDDD" d="M68.4,59.7v3.8h1.1v-2.6c0-0.6,0.5-1.1,1.1-1.1h10.7c0.6,0,1.1,0.5,1.1,1.1v0.3c0.2-0.5,0.3-1,0.3-1.6
				c0-0.3,0-0.6-0.1-0.9c0,0-0.1,0-0.1,0H69.3C68.8,58.7,68.4,59.2,68.4,59.7z"/>
			<path fill="#FFFFFF" d="M69.5,63.5v1.9c0,0.6,0.5,1.1,1.1,1.1h10.7c0.6,0,1.1-0.5,1.1-1.1v-4.2c-0.6,1.3-1.9,2.3-3.5,2.3H69.5z"
				/>
			<path fill="#FFFFFF" d="M69.5,60.9v2.6h9.4c1.6,0,2.9-0.9,3.5-2.3v-0.3c0-0.6-0.5-1.1-1.1-1.1H70.6C70,59.8,69.5,60.3,69.5,60.9z
				"/>
			<path fill="#898989" d="M74.3,55.8h-3.8c0.2,0.9,1,1.4,1.8,1.4c0.5,0,1-0.2,1.3-0.6C73.8,56.4,74.1,56.1,74.3,55.8z"/>
			<path fill="#DBBEAD" d="M72.3,57.3v0.4h9c0.3,0,0.6,0,0.9,0.1c-0.7-1.2-1.9-1.9-3.3-1.9h-4.5c-0.2,0.3-0.5,0.6-0.7,0.8
				C73.2,57.1,72.7,57.3,72.3,57.3z"/>
			<path fill="#7192CB" d="M101.6,159.7l-3.3,12.2c4.1,0.9,8.7,1.8,12.6,2.4l3.1-11.8L101.6,159.7z"/>
			<path fill="#FFE3C9" d="M114.1,162.4l-3.1,11.8c2.4,0.4,4.6,0.6,6.1,0.6c8.2,0,14.2-8.6,14.2-8.6L114.1,162.4z"/>
		</g>
	</g>
</g>
<g id="Layer_2">
</g>
</svg>
